<?xml version="1.0" encoding="UTF-8" standalone="no"?>
<!DOCTYPE svg PUBLIC "-//W3C//DTD SVG 1.1//EN"
 "http://www.w3.org/Graphics/SVG/1.1/DTD/svg11.dtd">
<!-- Generated by graphviz version 2.43.0 (0)
 -->
<!-- Title: /home/runner/work/no&#45;OS/no&#45;OS/drivers/eeprom/24xx32a/24xx32a.h Pages: 1 -->
<svg width="533pt" height="203pt"
 viewBox="0.00 0.00 533.00 203.00" xmlns="http://www.w3.org/2000/svg" xmlns:xlink="http://www.w3.org/1999/xlink">
<g id="graph0" class="graph" transform="scale(1 1) rotate(0) translate(4 199)">
<title>/home/runner/work/no&#45;OS/no&#45;OS/drivers/eeprom/24xx32a/24xx32a.h</title>
<!-- Node1 -->
<g id="Node000001" class="node">
<title>Node1</title>
<g id="a_Node000001"><a xlink:title="Header file of 24AA32A/24LC32A Interface.">
<polygon fill="#999999" stroke="#666666" points="313,-195 170,-195 170,-154 313,-154 313,-195"/>
<text text-anchor="start" x="178" y="-183" font-family="Helvetica,sans-Serif" font-size="10.00">/home/runner/work/no</text>
<text text-anchor="start" x="178" y="-172" font-family="Helvetica,sans-Serif" font-size="10.00">&#45;OS/no&#45;OS/drivers/eeprom</text>
<text text-anchor="middle" x="241.5" y="-161" font-family="Helvetica,sans-Serif" font-size="10.00">/24xx32a/24xx32a.h</text>
</a>
</g>
</g>
<!-- Node2 -->
<g id="Node000002" class="node">
<title>Node2</title>
<g id="a_Node000002"><a xlink:href="24xx32a_8c.html" target="_top" xlink:title="24AA32A/24LC32A EEPROM Interfaces">
<polygon fill="white" stroke="#666666" points="143,-118 0,-118 0,-77 143,-77 143,-118"/>
<text text-anchor="start" x="8" y="-106" font-family="Helvetica,sans-Serif" font-size="10.00">/home/runner/work/no</text>
<text text-anchor="start" x="8" y="-95" font-family="Helvetica,sans-Serif" font-size="10.00">&#45;OS/no&#45;OS/drivers/eeprom</text>
<text text-anchor="middle" x="71.5" y="-84" font-family="Helvetica,sans-Serif" font-size="10.00">/24xx32a/24xx32a.c</text>
</a>
</g>
</g>
<!-- Node1&#45;&gt;Node2 -->
<g id="edge1_Node000001_Node000002" class="edge">
<title>Node1&#45;&gt;Node2</title>
<g id="a_edge1_Node000001_Node000002"><a xlink:title=" ">
<path fill="none" stroke="#63b8ff" d="M187.91,-149.86C164.7,-139.62 137.85,-127.77 115.8,-118.04"/>
<polygon fill="#63b8ff" stroke="#63b8ff" points="186.72,-153.16 197.28,-153.99 189.54,-146.75 186.72,-153.16"/>
</a>
</g>
</g>
<!-- Node3 -->
<g id="Node000003" class="node">
<title>Node3</title>
<g id="a_Node000003"><a xlink:href="adf5611_2src_2common_2common__data_8h.html" target="_top" xlink:title="Defines common data to be used by adf5611 examples.">
<polygon fill="white" stroke="#666666" points="322,-118 161,-118 161,-77 322,-77 322,-118"/>
<text text-anchor="start" x="169" y="-106" font-family="Helvetica,sans-Serif" font-size="10.00">/home/runner/work/no</text>
<text text-anchor="start" x="169" y="-95" font-family="Helvetica,sans-Serif" font-size="10.00">&#45;OS/no&#45;OS/projects/adf5611</text>
<text text-anchor="middle" x="241.5" y="-84" font-family="Helvetica,sans-Serif" font-size="10.00">/src/common/common_data.h</text>
</a>
</g>
</g>
<!-- Node1&#45;&gt;Node3 -->
<g id="edge2_Node000001_Node000003" class="edge">
<title>Node1&#45;&gt;Node3</title>
<g id="a_edge2_Node000001_Node000003"><a xlink:title=" ">
<path fill="none" stroke="#63b8ff" d="M241.5,-143.69C241.5,-135.08 241.5,-125.9 241.5,-118.07"/>
<polygon fill="#63b8ff" stroke="#63b8ff" points="238,-143.79 241.5,-153.79 245,-143.79 238,-143.79"/>
</a>
</g>
</g>
<!-- Node5 -->
<g id="Node000005" class="node">
<title>Node5</title>
<g id="a_Node000005"><a xlink:href="wethlink_2src_2platform_2maxim_2parameters_8h.html" target="_top" xlink:title=" ">
<polygon fill="white" stroke="#666666" points="525,-118 340,-118 340,-77 525,-77 525,-118"/>
<text text-anchor="start" x="348" y="-106" font-family="Helvetica,sans-Serif" font-size="10.00">/home/runner/work/no</text>
<text text-anchor="start" x="348" y="-95" font-family="Helvetica,sans-Serif" font-size="10.00">&#45;OS/no&#45;OS/projects/wethlink</text>
<text text-anchor="middle" x="432.5" y="-84" font-family="Helvetica,sans-Serif" font-size="10.00">/src/platform/maxim/parameters.h</text>
</a>
</g>
</g>
<!-- Node1&#45;&gt;Node5 -->
<g id="edge4_Node000001_Node000005" class="edge">
<title>Node1&#45;&gt;Node5</title>
<g id="a_edge4_Node000001_Node000005"><a xlink:title=" ">
<path fill="none" stroke="#63b8ff" d="M300.67,-150.27C326.98,-139.94 357.62,-127.9 382.73,-118.04"/>
<polygon fill="#63b8ff" stroke="#63b8ff" points="299.21,-147.08 291.18,-153.99 301.77,-153.59 299.21,-147.08"/>
</a>
</g>
</g>
<!-- Node4 -->
<g id="Node000004" class="node">
<title>Node4</title>
<g id="a_Node000004"><a xlink:href="adf5611_2src_2common_2common__data_8c.html" target="_top" xlink:title="Defines common data to be used by adf5611 examples.">
<polygon fill="white" stroke="#666666" points="322,-41 161,-41 161,0 322,0 322,-41"/>
<text text-anchor="start" x="169" y="-29" font-family="Helvetica,sans-Serif" font-size="10.00">/home/runner/work/no</text>
<text text-anchor="start" x="169" y="-18" font-family="Helvetica,sans-Serif" font-size="10.00">&#45;OS/no&#45;OS/projects/adf5611</text>
<text text-anchor="middle" x="241.5" y="-7" font-family="Helvetica,sans-Serif" font-size="10.00">/src/common/common_data.c</text>
</a>
</g>
</g>
<!-- Node3&#45;&gt;Node4 -->
<g id="edge3_Node000003_Node000004" class="edge">
<title>Node3&#45;&gt;Node4</title>
<g id="a_edge3_Node000003_Node000004"><a xlink:title=" ">
<path fill="none" stroke="#63b8ff" d="M241.5,-66.69C241.5,-58.08 241.5,-48.9 241.5,-41.07"/>
<polygon fill="#63b8ff" stroke="#63b8ff" points="238,-66.79 241.5,-76.79 245,-66.79 238,-66.79"/>
</a>
</g>
</g>
<!-- Node6 -->
<g id="Node000006" class="node">
<title>Node6</title>
<g id="a_Node000006"><a xlink:href="wethlink_2src_2platform_2maxim_2parameters_8c.html" target="_top" xlink:title=" ">
<polygon fill="white" stroke="#666666" points="524.5,-41 340.5,-41 340.5,0 524.5,0 524.5,-41"/>
<text text-anchor="start" x="348.5" y="-29" font-family="Helvetica,sans-Serif" font-size="10.00">/home/runner/work/no</text>
<text text-anchor="start" x="348.5" y="-18" font-family="Helvetica,sans-Serif" font-size="10.00">&#45;OS/no&#45;OS/projects/wethlink</text>
<text text-anchor="middle" x="432.5" y="-7" font-family="Helvetica,sans-Serif" font-size="10.00">/src/platform/maxim/parameters.c</text>
</a>
</g>
</g>
<!-- Node5&#45;&gt;Node6 -->
<g id="edge5_Node000005_Node000006" class="edge">
<title>Node5&#45;&gt;Node6</title>
<g id="a_edge5_Node000005_Node000006"><a xlink:title=" ">
<path fill="none" stroke="#63b8ff" d="M432.5,-66.69C432.5,-58.08 432.5,-48.9 432.5,-41.07"/>
<polygon fill="#63b8ff" stroke="#63b8ff" points="429,-66.79 432.5,-76.79 436,-66.79 429,-66.79"/>
</a>
</g>
</g>
</g>
</svg>
