<?xml version="1.0" encoding="UTF-8" standalone="no"?>
<!DOCTYPE svg PUBLIC "-//W3C//DTD SVG 1.1//EN"
 "http://www.w3.org/Graphics/SVG/1.1/DTD/svg11.dtd">
<!-- Generated by graphviz version 2.43.0 (0)
 -->
<!-- Title: /home/runner/work/no&#45;OS/no&#45;OS/drivers/adc/ad4080/ad4080.h Pages: 1 -->
<svg width="388pt" height="214pt"
 viewBox="0.00 0.00 388.00 214.00" xmlns="http://www.w3.org/2000/svg" xmlns:xlink="http://www.w3.org/1999/xlink">
<g id="graph0" class="graph" transform="scale(1 1) rotate(0) translate(4 210)">
<title>/home/runner/work/no&#45;OS/no&#45;OS/drivers/adc/ad4080/ad4080.h</title>
<!-- Node1 -->
<g id="Node000001" class="node">
<title>Node1</title>
<g id="a_Node000001"><a xlink:title="Header file of AD4080 Driver.">
<polygon fill="#999999" stroke="#666666" points="195,-206 71,-206 71,-165 195,-165 195,-206"/>
<text text-anchor="start" x="79" y="-194" font-family="Helvetica,sans-Serif" font-size="10.00">/home/runner/work/no</text>
<text text-anchor="start" x="79" y="-183" font-family="Helvetica,sans-Serif" font-size="10.00">&#45;OS/no&#45;OS/drivers/adc</text>
<text text-anchor="middle" x="133" y="-172" font-family="Helvetica,sans-Serif" font-size="10.00">/ad4080/ad4080.h</text>
</a>
</g>
</g>
<!-- Node2 -->
<g id="Node000002" class="node">
<title>Node2</title>
<g id="a_Node000002"><a xlink:href="ad4080_8c.html" target="_top" xlink:title="Implementation of AD4080 Driver.">
<polygon fill="white" stroke="#666666" points="124,-129 0,-129 0,-88 124,-88 124,-129"/>
<text text-anchor="start" x="8" y="-117" font-family="Helvetica,sans-Serif" font-size="10.00">/home/runner/work/no</text>
<text text-anchor="start" x="8" y="-106" font-family="Helvetica,sans-Serif" font-size="10.00">&#45;OS/no&#45;OS/drivers/adc</text>
<text text-anchor="middle" x="62" y="-95" font-family="Helvetica,sans-Serif" font-size="10.00">/ad4080/ad4080.c</text>
</a>
</g>
</g>
<!-- Node1&#45;&gt;Node2 -->
<g id="edge1_Node000001_Node000002" class="edge">
<title>Node1&#45;&gt;Node2</title>
<g id="a_edge1_Node000001_Node000002"><a xlink:title=" ">
<path fill="none" stroke="#63b8ff" d="M107.45,-157.51C98.55,-148.11 88.75,-137.76 80.53,-129.07"/>
<polygon fill="#63b8ff" stroke="#63b8ff" points="104.93,-159.94 114.35,-164.79 110.01,-155.13 104.93,-159.94"/>
</a>
</g>
</g>
<!-- Node3 -->
<g id="Node000003" class="node">
<title>Node3</title>
<g id="a_Node000003"><a xlink:href="iio__ad4080_8h.html" target="_top" xlink:title="Implementation of iio_ad4080.c.">
<polygon fill="white" stroke="#666666" points="266,-129 142,-129 142,-88 266,-88 266,-129"/>
<text text-anchor="start" x="150" y="-117" font-family="Helvetica,sans-Serif" font-size="10.00">/home/runner/work/no</text>
<text text-anchor="start" x="150" y="-106" font-family="Helvetica,sans-Serif" font-size="10.00">&#45;OS/no&#45;OS/drivers/adc</text>
<text text-anchor="middle" x="204" y="-95" font-family="Helvetica,sans-Serif" font-size="10.00">/ad4080/iio_ad4080.h</text>
</a>
</g>
</g>
<!-- Node1&#45;&gt;Node3 -->
<g id="edge2_Node000001_Node000003" class="edge">
<title>Node1&#45;&gt;Node3</title>
<g id="a_edge2_Node000001_Node000003"><a xlink:title=" ">
<path fill="none" stroke="#63b8ff" d="M158.55,-157.51C167.45,-148.11 177.25,-137.76 185.47,-129.07"/>
<polygon fill="#63b8ff" stroke="#63b8ff" points="155.99,-155.13 151.65,-164.79 161.07,-159.94 155.99,-155.13"/>
</a>
</g>
</g>
<!-- Node4 -->
<g id="Node000004" class="node">
<title>Node4</title>
<g id="a_Node000004"><a xlink:href="iio__ad4080_8c.html" target="_top" xlink:title="Implementation of iio_ad4080.c.">
<polygon fill="white" stroke="#666666" points="180,-46.5 56,-46.5 56,-5.5 180,-5.5 180,-46.5"/>
<text text-anchor="start" x="64" y="-34.5" font-family="Helvetica,sans-Serif" font-size="10.00">/home/runner/work/no</text>
<text text-anchor="start" x="64" y="-23.5" font-family="Helvetica,sans-Serif" font-size="10.00">&#45;OS/no&#45;OS/drivers/adc</text>
<text text-anchor="middle" x="118" y="-12.5" font-family="Helvetica,sans-Serif" font-size="10.00">/ad4080/iio_ad4080.c</text>
</a>
</g>
</g>
<!-- Node3&#45;&gt;Node4 -->
<g id="edge3_Node000003_Node000004" class="edge">
<title>Node3&#45;&gt;Node4</title>
<g id="a_edge3_Node000003_Node000004"><a xlink:title=" ">
<path fill="none" stroke="#63b8ff" d="M175.23,-80.57C163.38,-69.48 149.91,-56.87 139.01,-46.67"/>
<polygon fill="#63b8ff" stroke="#63b8ff" points="173.05,-83.32 182.74,-87.6 177.83,-78.21 173.05,-83.32"/>
</a>
</g>
</g>
<!-- Node5 -->
<g id="Node000005" class="node">
<title>Node5</title>
<g id="a_Node000005"><a xlink:href="adalm-mmsc_2src_2examples_2iio__example_2iio__example_8c.html" target="_top" xlink:title="Implementation of iio_example.c.">
<polygon fill="white" stroke="#666666" points="380,-52 198,-52 198,0 380,0 380,-52"/>
<text text-anchor="start" x="206" y="-40" font-family="Helvetica,sans-Serif" font-size="10.00">/home/runner/work/no</text>
<text text-anchor="start" x="206" y="-29" font-family="Helvetica,sans-Serif" font-size="10.00">&#45;OS/no&#45;OS/projects/adalm</text>
<text text-anchor="start" x="206" y="-18" font-family="Helvetica,sans-Serif" font-size="10.00">&#45;mmsc/src/examples/iio_example</text>
<text text-anchor="middle" x="289" y="-7" font-family="Helvetica,sans-Serif" font-size="10.00">/iio_example.c</text>
</a>
</g>
</g>
<!-- Node3&#45;&gt;Node5 -->
<g id="edge4_Node000003_Node000005" class="edge">
<title>Node3&#45;&gt;Node5</title>
<g id="a_edge4_Node000003_Node000005"><a xlink:title=" ">
<path fill="none" stroke="#63b8ff" d="M232.49,-80.52C242.16,-71.36 252.92,-61.17 262.44,-52.16"/>
<polygon fill="#63b8ff" stroke="#63b8ff" points="229.87,-78.18 225.01,-87.6 234.68,-83.27 229.87,-78.18"/>
</a>
</g>
</g>
</g>
</svg>
