<?xml version="1.0" encoding="UTF-8" standalone="no"?>
<!DOCTYPE svg PUBLIC "-//W3C//DTD SVG 1.1//EN"
 "http://www.w3.org/Graphics/SVG/1.1/DTD/svg11.dtd">
<!-- Generated by graphviz version 2.43.0 (0)
 -->
<!-- Title: /home/runner/work/no&#45;OS/no&#45;OS/drivers/afe/ad4110/ad4110.c Pages: 1 -->
<!--zoomable 214 -->

<svg id="main" version="1.1" xmlns="http://www.w3.org/2000/svg" xmlns:xlink="http://www.w3.org/1999/xlink" xml:space="preserve" onload="init(evt)">

<style type="text/css"><![CDATA[
.node, .edge {opacity: 0.7;}
.node.selected, .edge.selected {opacity: 1;}
.edge:hover path { stroke: red; }
.edge:hover polygon { stroke: red; fill: red; }
]]></style>

<defs>
  <circle id="rim" cx="0" cy="0" r="7"/>
  <circle id="rim2" cx="0" cy="0" r="3.5"/>
  <g id="zoomPlus">
    <use xlink:href="#rim" fill="#404040"><set attributeName="fill" to="#808080" begin="zoomplus.mouseover" end="zoomplus.mouseout"/></use>
    <path d="M-4,0h8M0,-4v8" fill="none" stroke="white" stroke-width="1.5" pointer-events="none"/>
  </g>
  <g id="zoomMin">
    <use xlink:href="#rim" fill="#404040"><set attributeName="fill" to="#808080" begin="zoomminus.mouseover" end="zoomminus.mouseout"/></use>
    <path d="M-4,0h8" fill="none" stroke="white" stroke-width="1.5" pointer-events="none"/>
  </g>
  <g id="arrowUp" transform="translate(30 24)">
    <use xlink:href="#rim"/>
    <path pointer-events="none" fill="none" stroke="white" stroke-width="1.5" d="M0,-3.0v7 M-2.5,-0.5L0,-3.0L2.5,-0.5"/>
  </g>
  <g id="arrowRight" transform="rotate(90) translate(36 -43)">
    <use xlink:href="#rim"/>
    <path pointer-events="none" fill="none" stroke="white" stroke-width="1.5" d="M0,-3.0v7 M-2.5,-0.5L0,-3.0L2.5,-0.5"/>
  </g>
  <g id="arrowDown" transform="rotate(180) translate(-30 -48)">
    <use xlink:href="#rim"/>
    <path pointer-events="none" fill="none" stroke="white" stroke-width="1.5" d="M0,-3.0v7 M-2.5,-0.5L0,-3.0L2.5,-0.5"/>
  </g>
  <g id="arrowLeft" transform="rotate(270) translate(-36 17)">
    <use xlink:href="#rim"/>
    <path pointer-events="none" fill="none" stroke="white" stroke-width="1.5" d="M0,-3.0v7 M-2.5,-0.5L0,-3.0L2.5,-0.5"/>
  </g>
  <g id="resetDef">
    <use xlink:href="#rim2" fill="#404040"><set attributeName="fill" to="#808080" begin="reset.mouseover" end="reset.mouseout"/></use>
  </g>
</defs>
<script type="application/ecmascript">
var viewWidth = 820;
var viewHeight = 214;
var sectionId = 'dynsection-0';
</script>
<script type="application/ecmascript" xlink:href="svg.min.js"/>
<svg id="graph" class="graph">
<g id="viewport">
<title>/home/runner/work/no&#45;OS/no&#45;OS/drivers/afe/ad4110/ad4110.c</title>
<!-- Node1 -->
<g id="Node000001" class="node">
<title>Node1</title>
<g id="a_Node000001"><a xlink:title="Implementation of AD4110 Driver.">
<polygon fill="#999999" stroke="#666666" points="373.73,-206 249.73,-206 249.73,-165 373.73,-165 373.73,-206"/>
<text text-anchor="start" x="257.73" y="-194" font-family="Helvetica,sans-Serif" font-size="10.00">/home/runner/work/no</text>
<text text-anchor="start" x="257.73" y="-183" font-family="Helvetica,sans-Serif" font-size="10.00">&#45;OS/no&#45;OS/drivers/afe</text>
<text text-anchor="middle" x="311.73" y="-172" font-family="Helvetica,sans-Serif" font-size="10.00">/ad4110/ad4110.c</text>
</a>
</g>
</g>
<!-- Node2 -->
<g id="Node000002" class="node">
<title>Node2</title>
<g id="a_Node000002"><a xlink:title=" ">
<polygon fill="#e0e0e0" stroke="#999999" points="89.73,-74 39.73,-74 39.73,-55 89.73,-55 89.73,-74"/>
<text text-anchor="middle" x="64.73" y="-62" font-family="Helvetica,sans-Serif" font-size="10.00">stdio.h</text>
</a>
</g>
</g>
<!-- Node1&#45;&gt;Node2 -->
<g id="edge1_Node000001_Node000002" class="edge">
<title>Node1&#45;&gt;Node2</title>
<g id="a_edge1_Node000001_Node000002"><a xlink:title=" ">
<path fill="none" stroke="#63b8ff" d="M249.48,-182.34C168.93,-178.09 35.29,-165.58 4.73,-129 -10.4,-110.89 15.02,-91.34 37.28,-78.79"/>
<polygon fill="#63b8ff" stroke="#63b8ff" points="39.03,-81.83 46.2,-74.02 35.73,-75.65 39.03,-81.83"/>
</a>
</g>
</g>
<!-- Node3 -->
<g id="Node000003" class="node">
<title>Node3</title>
<g id="a_Node000003"><a xlink:title=" ">
<polygon fill="#e0e0e0" stroke="#999999" points="202.23,-74 149.23,-74 149.23,-55 202.23,-55 202.23,-74"/>
<text text-anchor="middle" x="175.73" y="-62" font-family="Helvetica,sans-Serif" font-size="10.00">stdlib.h</text>
</a>
</g>
</g>
<!-- Node1&#45;&gt;Node3 -->
<g id="edge2_Node000001_Node000003" class="edge">
<title>Node1&#45;&gt;Node3</title>
<g id="a_edge2_Node000001_Node000003"><a xlink:title=" ">
<path fill="none" stroke="#63b8ff" d="M289.27,-164.85C262.41,-141.35 218,-102.49 193.44,-81"/>
<polygon fill="#63b8ff" stroke="#63b8ff" points="195.47,-78.13 185.64,-74.18 190.86,-83.39 195.47,-78.13"/>
</a>
</g>
</g>
<!-- Node4 -->
<g id="Node000004" class="node">
<title>Node4</title>
<g id="a_Node000004"><a xlink:href="ad4110_8h.html" target="_top" xlink:title="Header file of AD4110 Driver.">
<polygon fill="white" stroke="#666666" points="466.73,-129 404.73,-129 404.73,-110 466.73,-110 466.73,-129"/>
<text text-anchor="middle" x="435.73" y="-117" font-family="Helvetica,sans-Serif" font-size="10.00">ad4110.h</text>
</a>
</g>
</g>
<!-- Node1&#45;&gt;Node4 -->
<g id="edge3_Node000001_Node000004" class="edge">
<title>Node1&#45;&gt;Node4</title>
<g id="a_edge3_Node000001_Node000004"><a xlink:title=" ">
<path fill="none" stroke="#63b8ff" d="M349.61,-164.95C369.2,-154.84 392.59,-142.76 410.05,-133.75"/>
<polygon fill="#63b8ff" stroke="#63b8ff" points="411.8,-136.79 419.08,-129.09 408.59,-130.57 411.8,-136.79"/>
</a>
</g>
</g>
<!-- Node10 -->
<g id="Node000010" class="node">
<title>Node10</title>
<g id="a_Node000010"><a xlink:href="no__os__irq_8h.html" target="_top" xlink:title="Header file of IRQ interface.">
<polygon fill="white" stroke="#666666" points="742.73,-74 670.73,-74 670.73,-55 742.73,-55 742.73,-74"/>
<text text-anchor="middle" x="706.73" y="-62" font-family="Helvetica,sans-Serif" font-size="10.00">no_os_irq.h</text>
</a>
</g>
</g>
<!-- Node1&#45;&gt;Node10 -->
<g id="edge23_Node000001_Node000010" class="edge">
<title>Node1&#45;&gt;Node10</title>
<g id="a_edge23_Node000001_Node000010"><a xlink:title=" ">
<path fill="none" stroke="#63b8ff" d="M374,-165.65C404.95,-155.72 442.71,-142.76 475.73,-129 493.16,-121.73 495.96,-116.39 513.73,-110 540.39,-100.42 612.69,-84.73 660.83,-74.77"/>
<polygon fill="#63b8ff" stroke="#63b8ff" points="661.62,-78.18 670.71,-72.74 660.21,-71.33 661.62,-78.18"/>
</a>
</g>
</g>
<!-- Node11 -->
<g id="Node000011" class="node">
<title>Node11</title>
<g id="a_Node000011"><a xlink:href="no__os__util_8h.html" target="_top" xlink:title="Header file of utility functions.">
<polygon fill="white" stroke="#666666" points="349.23,-129 274.23,-129 274.23,-110 349.23,-110 349.23,-129"/>
<text text-anchor="middle" x="311.73" y="-117" font-family="Helvetica,sans-Serif" font-size="10.00">no_os_util.h</text>
</a>
</g>
</g>
<!-- Node1&#45;&gt;Node11 -->
<g id="edge14_Node000001_Node000011" class="edge">
<title>Node1&#45;&gt;Node11</title>
<g id="a_edge14_Node000001_Node000011"><a xlink:title=" ">
<path fill="none" stroke="#63b8ff" d="M311.73,-164.95C311.73,-156.85 311.73,-147.5 311.73,-139.47"/>
<polygon fill="#63b8ff" stroke="#63b8ff" points="315.23,-139.26 311.73,-129.26 308.23,-139.26 315.23,-139.26"/>
</a>
</g>
</g>
<!-- Node12 -->
<g id="Node000012" class="node">
<title>Node12</title>
<g id="a_Node000012"><a xlink:href="no__os__alloc_8h.html" target="_top" xlink:title=" ">
<polygon fill="white" stroke="#666666" points="217.23,-129 134.23,-129 134.23,-110 217.23,-110 217.23,-129"/>
<text text-anchor="middle" x="175.73" y="-117" font-family="Helvetica,sans-Serif" font-size="10.00">no_os_alloc.h</text>
</a>
</g>
</g>
<!-- Node1&#45;&gt;Node12 -->
<g id="edge18_Node000001_Node000012" class="edge">
<title>Node1&#45;&gt;Node12</title>
<g id="a_edge18_Node000001_Node000012"><a xlink:title=" ">
<path fill="none" stroke="#63b8ff" d="M270.18,-164.95C248.4,-154.7 222.32,-142.43 203.09,-133.38"/>
<polygon fill="#63b8ff" stroke="#63b8ff" points="204.52,-130.18 193.99,-129.09 201.54,-136.52 204.52,-130.18"/>
</a>
</g>
</g>
<!-- Node13 -->
<g id="Node000013" class="node">
<title>Node13</title>
<g id="a_Node000013"><a xlink:href="no__os__error_8h.html" target="_top" xlink:title="Error codes definition.">
<polygon fill="white" stroke="#666666" points="604.73,-129 522.73,-129 522.73,-110 604.73,-110 604.73,-129"/>
<text text-anchor="middle" x="563.73" y="-117" font-family="Helvetica,sans-Serif" font-size="10.00">no_os_error.h</text>
</a>
</g>
</g>
<!-- Node1&#45;&gt;Node13 -->
<g id="edge21_Node000001_Node000013" class="edge">
<title>Node1&#45;&gt;Node13</title>
<g id="a_edge21_Node000001_Node000013"><a xlink:title=" ">
<path fill="none" stroke="#63b8ff" d="M374.02,-168.68C419.44,-157.15 479.84,-141.81 520.16,-131.56"/>
<polygon fill="#63b8ff" stroke="#63b8ff" points="521.13,-134.93 529.96,-129.08 519.41,-128.15 521.13,-134.93"/>
</a>
</g>
</g>
<!-- Node15 -->
<g id="Node000015" class="node">
<title>Node15</title>
<g id="a_Node000015"><a xlink:href="no__os__print__log_8h.html" target="_top" xlink:title="Print messages helpers.">
<polygon fill="white" stroke="#666666" points="115.73,-129 13.73,-129 13.73,-110 115.73,-110 115.73,-129"/>
<text text-anchor="middle" x="64.73" y="-117" font-family="Helvetica,sans-Serif" font-size="10.00">no_os_print_log.h</text>
</a>
</g>
</g>
<!-- Node1&#45;&gt;Node15 -->
<g id="edge24_Node000001_Node000015" class="edge">
<title>Node1&#45;&gt;Node15</title>
<g id="a_edge24_Node000001_Node000015"><a xlink:title=" ">
<path fill="none" stroke="#63b8ff" d="M249.72,-168.43C205.29,-156.92 146.59,-141.71 107.35,-131.54"/>
<polygon fill="#63b8ff" stroke="#63b8ff" points="108.13,-128.13 97.57,-129.01 106.37,-134.91 108.13,-128.13"/>
</a>
</g>
</g>
<!-- Node16 -->
<g id="Node000016" class="node">
<title>Node16</title>
<g id="a_Node000016"><a xlink:title=" ">
<polygon fill="#e0e0e0" stroke="#999999" points="676.23,-129 623.23,-129 623.23,-110 676.23,-110 676.23,-129"/>
<text text-anchor="middle" x="649.73" y="-117" font-family="Helvetica,sans-Serif" font-size="10.00">string.h</text>
</a>
</g>
</g>
<!-- Node1&#45;&gt;Node16 -->
<g id="edge26_Node000001_Node000016" class="edge">
<title>Node1&#45;&gt;Node16</title>
<g id="a_edge26_Node000001_Node000016"><a xlink:title=" ">
<path fill="none" stroke="#63b8ff" d="M373.79,-174.03C432.76,-163.87 524.14,-147.58 613.04,-129.05"/>
<polygon fill="#63b8ff" stroke="#63b8ff" points="613.96,-132.44 623.03,-126.96 612.52,-125.59 613.96,-132.44"/>
</a>
</g>
</g>
<!-- Node5 -->
<g id="Node000005" class="node">
<title>Node5</title>
<g id="a_Node000005"><a xlink:title=" ">
<polygon fill="#e0e0e0" stroke="#999999" points="532.23,-19 479.23,-19 479.23,0 532.23,0 532.23,-19"/>
<text text-anchor="middle" x="505.73" y="-7" font-family="Helvetica,sans-Serif" font-size="10.00">stdint.h</text>
</a>
</g>
</g>
<!-- Node4&#45;&gt;Node5 -->
<g id="edge4_Node000004_Node000005" class="edge">
<title>Node4&#45;&gt;Node5</title>
<g id="a_edge4_Node000004_Node000005"><a xlink:title=" ">
<path fill="none" stroke="#63b8ff" d="M467.01,-110.72C485.84,-104.25 508.32,-92.95 519.73,-74 528.08,-60.13 522.68,-41.86 516.31,-28.49"/>
<polygon fill="#63b8ff" stroke="#63b8ff" points="519.25,-26.56 511.47,-19.36 513.07,-29.84 519.25,-26.56"/>
</a>
</g>
</g>
<!-- Node6 -->
<g id="Node000006" class="node">
<title>Node6</title>
<g id="a_Node000006"><a xlink:title=" ">
<polygon fill="#e0e0e0" stroke="#999999" points="320.73,-74 258.73,-74 258.73,-55 320.73,-55 320.73,-74"/>
<text text-anchor="middle" x="289.73" y="-62" font-family="Helvetica,sans-Serif" font-size="10.00">stdbool.h</text>
</a>
</g>
</g>
<!-- Node4&#45;&gt;Node6 -->
<g id="edge5_Node000004_Node000006" class="edge">
<title>Node4&#45;&gt;Node6</title>
<g id="a_edge5_Node000004_Node000006"><a xlink:title=" ">
<path fill="none" stroke="#63b8ff" d="M412.27,-109.98C388.15,-101.23 350.36,-87.51 323.13,-77.62"/>
<polygon fill="#63b8ff" stroke="#63b8ff" points="324.21,-74.29 313.61,-74.17 321.82,-80.87 324.21,-74.29"/>
</a>
</g>
</g>
<!-- Node7 -->
<g id="Node000007" class="node">
<title>Node7</title>
<g id="a_Node000007"><a xlink:href="no__os__delay_8h.html" target="_top" xlink:title="Header file of Delay functions.">
<polygon fill="white" stroke="#666666" points="652.23,-74 567.23,-74 567.23,-55 652.23,-55 652.23,-74"/>
<text text-anchor="middle" x="609.73" y="-62" font-family="Helvetica,sans-Serif" font-size="10.00">no_os_delay.h</text>
</a>
</g>
</g>
<!-- Node4&#45;&gt;Node7 -->
<g id="edge6_Node000004_Node000007" class="edge">
<title>Node4&#45;&gt;Node7</title>
<g id="a_edge6_Node000004_Node000007"><a xlink:title=" ">
<path fill="none" stroke="#63b8ff" d="M463.68,-109.98C493.02,-101.05 539.32,-86.94 571.91,-77.02"/>
<polygon fill="#63b8ff" stroke="#63b8ff" points="573.01,-80.34 581.55,-74.08 570.97,-73.65 573.01,-80.34"/>
</a>
</g>
</g>
<!-- Node8 -->
<g id="Node000008" class="node">
<title>Node8</title>
<g id="a_Node000008"><a xlink:href="no__os__gpio_8h.html" target="_top" xlink:title="Header file of GPIO Interface.">
<polygon fill="white" stroke="#666666" points="418.73,-74 338.73,-74 338.73,-55 418.73,-55 418.73,-74"/>
<text text-anchor="middle" x="378.73" y="-62" font-family="Helvetica,sans-Serif" font-size="10.00">no_os_gpio.h</text>
</a>
</g>
</g>
<!-- Node4&#45;&gt;Node8 -->
<g id="edge8_Node000004_Node000008" class="edge">
<title>Node4&#45;&gt;Node8</title>
<g id="a_edge8_Node000004_Node000008"><a xlink:title=" ">
<path fill="none" stroke="#63b8ff" d="M426.57,-109.98C418.23,-102.23 405.7,-90.58 395.55,-81.14"/>
<polygon fill="#63b8ff" stroke="#63b8ff" points="397.76,-78.42 388.05,-74.17 392.99,-83.54 397.76,-78.42"/>
</a>
</g>
</g>
<!-- Node9 -->
<g id="Node000009" class="node">
<title>Node9</title>
<g id="a_Node000009"><a xlink:href="no__os__spi_8h.html" target="_top" xlink:title="Header file of SPI Interface.">
<polygon fill="white" stroke="#666666" points="510.73,-74 436.73,-74 436.73,-55 510.73,-55 510.73,-74"/>
<text text-anchor="middle" x="473.73" y="-62" font-family="Helvetica,sans-Serif" font-size="10.00">no_os_spi.h</text>
</a>
</g>
</g>
<!-- Node4&#45;&gt;Node9 -->
<g id="edge10_Node000004_Node000009" class="edge">
<title>Node4&#45;&gt;Node9</title>
<g id="a_edge10_Node000004_Node000009"><a xlink:title=" ">
<path fill="none" stroke="#63b8ff" d="M442,-109.75C447.32,-102.34 455.08,-91.5 461.6,-82.41"/>
<polygon fill="#63b8ff" stroke="#63b8ff" points="464.59,-84.26 467.57,-74.09 458.9,-80.18 464.59,-84.26"/>
</a>
</g>
</g>
<!-- Node4&#45;&gt;Node10 -->
<g id="edge12_Node000004_Node000010" class="edge">
<title>Node4&#45;&gt;Node10</title>
<g id="a_edge12_Node000004_Node000010"><a xlink:title=" ">
<path fill="none" stroke="#63b8ff" d="M466.82,-112.42C514.33,-103.13 605.29,-85.34 660.54,-74.53"/>
<polygon fill="#63b8ff" stroke="#63b8ff" points="661.28,-77.95 670.42,-72.6 659.94,-71.09 661.28,-77.95"/>
</a>
</g>
</g>
<!-- Node7&#45;&gt;Node5 -->
<g id="edge7_Node000007_Node000005" class="edge">
<title>Node7&#45;&gt;Node5</title>
<g id="a_edge7_Node000007_Node000005"><a xlink:title=" ">
<path fill="none" stroke="#63b8ff" d="M593.02,-54.98C576.51,-46.57 551.03,-33.59 531.85,-23.81"/>
<polygon fill="#63b8ff" stroke="#63b8ff" points="533.24,-20.59 522.74,-19.17 530.06,-26.83 533.24,-20.59"/>
</a>
</g>
</g>
<!-- Node8&#45;&gt;Node5 -->
<g id="edge9_Node000008_Node000005" class="edge">
<title>Node8&#45;&gt;Node5</title>
<g id="a_edge9_Node000008_Node000005"><a xlink:title=" ">
<path fill="none" stroke="#63b8ff" d="M399.13,-54.98C419.75,-46.38 451.83,-32.99 475.42,-23.15"/>
<polygon fill="#63b8ff" stroke="#63b8ff" points="477.07,-26.25 484.95,-19.17 474.38,-19.79 477.07,-26.25"/>
</a>
</g>
</g>
<!-- Node9&#45;&gt;Node5 -->
<g id="edge11_Node000009_Node000005" class="edge">
<title>Node9&#45;&gt;Node5</title>
<g id="a_edge11_Node000009_Node000005"><a xlink:title=" ">
<path fill="none" stroke="#63b8ff" d="M479.01,-54.75C483.44,-47.42 489.89,-36.73 495.35,-27.7"/>
<polygon fill="#63b8ff" stroke="#63b8ff" points="498.37,-29.46 500.54,-19.09 492.38,-25.84 498.37,-29.46"/>
</a>
</g>
</g>
<!-- Node10&#45;&gt;Node5 -->
<g id="edge13_Node000010_Node000005" class="edge">
<title>Node10&#45;&gt;Node5</title>
<g id="a_edge13_Node000010_Node000005"><a xlink:title=" ">
<path fill="none" stroke="#63b8ff" d="M674.43,-54.98C638.42,-45.49 580.29,-30.16 542.55,-20.21"/>
<polygon fill="#63b8ff" stroke="#63b8ff" points="543.04,-16.72 532.48,-17.55 541.25,-23.49 543.04,-16.72"/>
</a>
</g>
</g>
<!-- Node11&#45;&gt;Node3 -->
<g id="edge16_Node000011_Node000003" class="edge">
<title>Node11&#45;&gt;Node3</title>
<g id="a_edge16_Node000011_Node000003"><a xlink:title=" ">
<path fill="none" stroke="#63b8ff" d="M289.88,-109.98C267.61,-101.3 232.83,-87.75 207.51,-77.88"/>
<polygon fill="#63b8ff" stroke="#63b8ff" points="208.56,-74.54 197.98,-74.17 206.02,-81.06 208.56,-74.54"/>
</a>
</g>
</g>
<!-- Node11&#45;&gt;Node5 -->
<g id="edge15_Node000011_Node000005" class="edge">
<title>Node11&#45;&gt;Node5</title>
<g id="a_edge15_Node000011_Node000005"><a xlink:title=" ">
<path fill="none" stroke="#63b8ff" d="M292.23,-109.85C268.12,-97.98 232.27,-75.75 249.73,-55 277.3,-22.22 404.87,-13.58 468.88,-11.31"/>
<polygon fill="#63b8ff" stroke="#63b8ff" points="469.07,-14.81 478.95,-10.99 468.85,-7.81 469.07,-14.81"/>
</a>
</g>
</g>
<!-- Node11&#45;&gt;Node6 -->
<g id="edge17_Node000011_Node000006" class="edge">
<title>Node11&#45;&gt;Node6</title>
<g id="a_edge17_Node000011_Node000006"><a xlink:title=" ">
<path fill="none" stroke="#63b8ff" d="M308.1,-109.75C305.15,-102.65 300.89,-92.4 297.22,-83.56"/>
<polygon fill="#63b8ff" stroke="#63b8ff" points="300.36,-81.98 293.29,-74.09 293.89,-84.67 300.36,-81.98"/>
</a>
</g>
</g>
<!-- Node12&#45;&gt;Node2 -->
<g id="edge19_Node000012_Node000002" class="edge">
<title>Node12&#45;&gt;Node2</title>
<g id="a_edge19_Node000012_Node000002"><a xlink:title=" ">
<path fill="none" stroke="#63b8ff" d="M157.89,-109.98C140.12,-101.5 112.58,-88.35 92.05,-78.54"/>
<polygon fill="#63b8ff" stroke="#63b8ff" points="93.42,-75.32 82.89,-74.17 90.4,-81.64 93.42,-75.32"/>
</a>
</g>
</g>
<!-- Node12&#45;&gt;Node3 -->
<g id="edge20_Node000012_Node000003" class="edge">
<title>Node12&#45;&gt;Node3</title>
<g id="a_edge20_Node000012_Node000003"><a xlink:title=" ">
<path fill="none" stroke="#63b8ff" d="M175.73,-109.75C175.73,-102.8 175.73,-92.85 175.73,-84.13"/>
<polygon fill="#63b8ff" stroke="#63b8ff" points="179.23,-84.09 175.73,-74.09 172.23,-84.09 179.23,-84.09"/>
</a>
</g>
</g>
<!-- Node14 -->
<g id="Node000014" class="node">
<title>Node14</title>
<g id="a_Node000014"><a xlink:href="errno_8h.html" target="_top" xlink:title="Error macro definition for ARM Compiler.">
<polygon fill="white" stroke="#666666" points="812.23,-74 761.23,-74 761.23,-55 812.23,-55 812.23,-74"/>
<text text-anchor="middle" x="786.73" y="-62" font-family="Helvetica,sans-Serif" font-size="10.00">errno.h</text>
</a>
</g>
</g>
<!-- Node13&#45;&gt;Node14 -->
<g id="edge22_Node000013_Node000014" class="edge">
<title>Node13&#45;&gt;Node14</title>
<g id="a_edge22_Node000013_Node000014"><a xlink:title=" ">
<path fill="none" stroke="#63b8ff" d="M600.14,-109.95C636.02,-101.51 692.68,-88.13 751.31,-74.09"/>
<polygon fill="#63b8ff" stroke="#63b8ff" points="752.21,-77.47 761.12,-71.74 750.58,-70.67 752.21,-77.47"/>
</a>
</g>
</g>
<!-- Node15&#45;&gt;Node2 -->
<g id="edge25_Node000015_Node000002" class="edge">
<title>Node15&#45;&gt;Node2</title>
<g id="a_edge25_Node000015_Node000002"><a xlink:title=" ">
<path fill="none" stroke="#63b8ff" d="M64.73,-109.75C64.73,-102.8 64.73,-92.85 64.73,-84.13"/>
<polygon fill="#63b8ff" stroke="#63b8ff" points="68.23,-84.09 64.73,-74.09 61.23,-84.09 68.23,-84.09"/>
</a>
</g>
</g>
</g>
</svg>

<g id="navigator" transform="translate(0 0)" fill="#404254">
  <rect fill="#f2f5e9" fill-opacity="0.5" stroke="#606060" stroke-width=".5" x="0" y="0" width="60" height="60"/>
  <use id="zoomplus" xlink:href="#zoomPlus" x="17" y="9" onmousedown="handleZoom(evt,'in')"/>
  <use id="zoomminus" xlink:href="#zoomMin" x="42" y="9" onmousedown="handleZoom(evt,'out')"/>
  <use id="reset" xlink:href="#resetDef" x="30" y="36" onmousedown="handleReset()"/>
   <use id="arrowup" xlink:href="#arrowUp" x="0" y="0" onmousedown="handlePan(0,-1)"/>
  <use id="arrowright" xlink:href="#arrowRight" x="0" y="0" onmousedown="handlePan(1,0)"/>
  <use id="arrowdown" xlink:href="#arrowDown" x="0" y="0" onmousedown="handlePan(0,1)"/>
  <use id="arrowleft" xlink:href="#arrowLeft" x="0" y="0" onmousedown="handlePan(-1,0)"/>
</g>
<svg viewBox="0 0 15 15" width="100%" height="30px" preserveAspectRatio="xMaxYMin meet">
 <g id="arrow_out" transform="scale(0.3 0.3)">
  <a xlink:href="ad4110_8c__incl_org.svg" target="_base">
   <rect id="button" ry="5" rx="5" y="6" x="6" height="38" width="38"
        fill="#f2f5e9" fill-opacity="0.5" stroke="#606060" stroke-width="1.0"/>
   <path id="arrow"
     d="M 11.500037,31.436501 C 11.940474,20.09759 22.043105,11.32322 32.158766,21.979434 L 37.068811,17.246167 C 37.068811,17.246167 37.088388,32 37.088388,32 L 22.160133,31.978069 C 22.160133,31.978069 26.997745,27.140456 26.997745,27.140456 C 18.528582,18.264221 13.291696,25.230495 11.500037,31.436501 z"
     style="fill:#404040;"/>
  </a>
 </g>
</svg>

<style type='text/css'>
<![CDATA[
[data-mouse-over-selected='false'] { opacity: 0.7; }
[data-mouse-over-selected='true']  { opacity: 1.0; }
]]>
</style>
<script type="application/ecmascript"><![CDATA[
document.addEventListener('DOMContentLoaded', (event) => {
  highlightEdges();
  highlightAdjacentNodes();
});
]]></script>
</svg>
