<?xml version="1.0" encoding="UTF-8" standalone="no"?>
<!DOCTYPE svg PUBLIC "-//W3C//DTD SVG 1.1//EN"
 "http://www.w3.org/Graphics/SVG/1.1/DTD/svg11.dtd">
<!-- Generated by graphviz version 2.43.0 (0)
 -->
<!-- Title: /home/runner/work/no&#45;OS/no&#45;OS/projects/ad413x/src/app/main.c Pages: 1 -->
<!--zoomable 214 -->

<svg id="main" version="1.1" xmlns="http://www.w3.org/2000/svg" xmlns:xlink="http://www.w3.org/1999/xlink" xml:space="preserve" onload="init(evt)">

<style type="text/css"><![CDATA[
.node, .edge {opacity: 0.7;}
.node.selected, .edge.selected {opacity: 1;}
.edge:hover path { stroke: red; }
.edge:hover polygon { stroke: red; fill: red; }
]]></style>

<defs>
  <circle id="rim" cx="0" cy="0" r="7"/>
  <circle id="rim2" cx="0" cy="0" r="3.5"/>
  <g id="zoomPlus">
    <use xlink:href="#rim" fill="#404040"><set attributeName="fill" to="#808080" begin="zoomplus.mouseover" end="zoomplus.mouseout"/></use>
    <path d="M-4,0h8M0,-4v8" fill="none" stroke="white" stroke-width="1.5" pointer-events="none"/>
  </g>
  <g id="zoomMin">
    <use xlink:href="#rim" fill="#404040"><set attributeName="fill" to="#808080" begin="zoomminus.mouseover" end="zoomminus.mouseout"/></use>
    <path d="M-4,0h8" fill="none" stroke="white" stroke-width="1.5" pointer-events="none"/>
  </g>
  <g id="arrowUp" transform="translate(30 24)">
    <use xlink:href="#rim"/>
    <path pointer-events="none" fill="none" stroke="white" stroke-width="1.5" d="M0,-3.0v7 M-2.5,-0.5L0,-3.0L2.5,-0.5"/>
  </g>
  <g id="arrowRight" transform="rotate(90) translate(36 -43)">
    <use xlink:href="#rim"/>
    <path pointer-events="none" fill="none" stroke="white" stroke-width="1.5" d="M0,-3.0v7 M-2.5,-0.5L0,-3.0L2.5,-0.5"/>
  </g>
  <g id="arrowDown" transform="rotate(180) translate(-30 -48)">
    <use xlink:href="#rim"/>
    <path pointer-events="none" fill="none" stroke="white" stroke-width="1.5" d="M0,-3.0v7 M-2.5,-0.5L0,-3.0L2.5,-0.5"/>
  </g>
  <g id="arrowLeft" transform="rotate(270) translate(-36 17)">
    <use xlink:href="#rim"/>
    <path pointer-events="none" fill="none" stroke="white" stroke-width="1.5" d="M0,-3.0v7 M-2.5,-0.5L0,-3.0L2.5,-0.5"/>
  </g>
  <g id="resetDef">
    <use xlink:href="#rim2" fill="#404040"><set attributeName="fill" to="#808080" begin="reset.mouseover" end="reset.mouseout"/></use>
  </g>
</defs>
<script type="application/ecmascript">
var viewWidth = 1283;
var viewHeight = 214;
var sectionId = 'dynsection-0';
</script>
<script type="application/ecmascript" xlink:href="svg.min.js"/>
<svg id="graph" class="graph">
<g id="viewport">
<title>/home/runner/work/no&#45;OS/no&#45;OS/projects/ad413x/src/app/main.c</title>
<!-- Node1 -->
<g id="Node000001" class="node">
<title>Node1</title>
<g id="a_Node000001"><a xlink:title="Implementation of Main Function.">
<polygon fill="#999999" stroke="#666666" points="788.05,-206 641.05,-206 641.05,-165 788.05,-165 788.05,-206"/>
<text text-anchor="start" x="649.05" y="-194" font-family="Helvetica,sans-Serif" font-size="10.00">/home/runner/work/no</text>
<text text-anchor="start" x="649.05" y="-183" font-family="Helvetica,sans-Serif" font-size="10.00">&#45;OS/no&#45;OS/projects/ad413x</text>
<text text-anchor="middle" x="714.55" y="-172" font-family="Helvetica,sans-Serif" font-size="10.00">/src/app/main.c</text>
</a>
</g>
</g>
<!-- Node2 -->
<g id="Node000002" class="node">
<title>Node2</title>
<g id="a_Node000002"><a xlink:href="no__os__irq_8h.html" target="_top" xlink:title="Header file of IRQ interface.">
<polygon fill="white" stroke="#666666" points="528.55,-74 456.55,-74 456.55,-55 528.55,-55 528.55,-74"/>
<text text-anchor="middle" x="492.55" y="-62" font-family="Helvetica,sans-Serif" font-size="10.00">no_os_irq.h</text>
</a>
</g>
</g>
<!-- Node1&#45;&gt;Node2 -->
<g id="edge1_Node000001_Node000002" class="edge">
<title>Node1&#45;&gt;Node2</title>
<g id="a_edge1_Node000001_Node000002"><a xlink:title=" ">
<path fill="none" stroke="#63b8ff" d="M664.11,-164.88C640.4,-155.05 612.03,-142.4 587.55,-129 560.32,-114.11 530.9,-93.71 512.13,-80.09"/>
<polygon fill="#63b8ff" stroke="#63b8ff" points="513.96,-77.1 503.83,-74.01 509.83,-82.74 513.96,-77.1"/>
</a>
</g>
</g>
<!-- Node3 -->
<g id="Node000003" class="node">
<title>Node3</title>
<g id="a_Node000003"><a xlink:title=" ">
<polygon fill="#e0e0e0" stroke="#999999" points="519.05,-19 466.05,-19 466.05,0 519.05,0 519.05,-19"/>
<text text-anchor="middle" x="492.55" y="-7" font-family="Helvetica,sans-Serif" font-size="10.00">stdint.h</text>
</a>
</g>
</g>
<!-- Node1&#45;&gt;Node3 -->
<g id="edge41_Node000001_Node000003" class="edge">
<title>Node1&#45;&gt;Node3</title>
<g id="a_edge41_Node000001_Node000003"><a xlink:title=" ">
<path fill="none" stroke="#63b8ff" d="M641.03,-178.9C571.06,-171.93 472.79,-157.31 447.55,-129 425.61,-104.4 429.05,-85.08 442.55,-55 448.05,-42.74 458.78,-32.48 468.89,-24.91"/>
<polygon fill="#63b8ff" stroke="#63b8ff" points="470.9,-27.78 477.12,-19.2 466.91,-22.03 470.9,-27.78"/>
</a>
</g>
</g>
<!-- Node4 -->
<g id="Node000004" class="node">
<title>Node4</title>
<g id="a_Node000004"><a xlink:href="xilinx__irq_8h.html" target="_top" xlink:title=" ">
<polygon fill="white" stroke="#666666" points="528.05,-129 457.05,-129 457.05,-110 528.05,-110 528.05,-129"/>
<text text-anchor="middle" x="492.55" y="-117" font-family="Helvetica,sans-Serif" font-size="10.00">xilinx_irq.h</text>
</a>
</g>
</g>
<!-- Node1&#45;&gt;Node4 -->
<g id="edge3_Node000001_Node000004" class="edge">
<title>Node1&#45;&gt;Node4</title>
<g id="a_edge3_Node000001_Node000004"><a xlink:title=" ">
<path fill="none" stroke="#63b8ff" d="M646.73,-164.95C609.11,-154.1 563.64,-141 531.87,-131.84"/>
<polygon fill="#63b8ff" stroke="#63b8ff" points="532.64,-128.42 522.06,-129.01 530.7,-135.14 532.64,-128.42"/>
</a>
</g>
</g>
<!-- Node5 -->
<g id="Node000005" class="node">
<title>Node5</title>
<g id="a_Node000005"><a xlink:href="xilinx__gpio__irq_8h.html" target="_top" xlink:title="Implementation of Xilinx GPIO IRQ Generic Driver.">
<polygon fill="white" stroke="#666666" points="285.05,-129 188.05,-129 188.05,-110 285.05,-110 285.05,-129"/>
<text text-anchor="middle" x="236.55" y="-117" font-family="Helvetica,sans-Serif" font-size="10.00">xilinx_gpio_irq.h</text>
</a>
</g>
</g>
<!-- Node1&#45;&gt;Node5 -->
<g id="edge6_Node000001_Node000005" class="edge">
<title>Node1&#45;&gt;Node5</title>
<g id="a_edge6_Node000001_Node000005"><a xlink:title=" ">
<path fill="none" stroke="#63b8ff" d="M640.91,-174.64C545.81,-161.91 382.21,-140 295.11,-128.34"/>
<polygon fill="#63b8ff" stroke="#63b8ff" points="295.51,-124.86 285.13,-127.01 294.58,-131.8 295.51,-124.86"/>
</a>
</g>
</g>
<!-- Node9 -->
<g id="Node000009" class="node">
<title>Node9</title>
<g id="a_Node000009"><a xlink:href="no__os__spi_8h.html" target="_top" xlink:title="Header file of SPI Interface.">
<polygon fill="white" stroke="#666666" points="860.55,-74 786.55,-74 786.55,-55 860.55,-55 860.55,-74"/>
<text text-anchor="middle" x="823.55" y="-62" font-family="Helvetica,sans-Serif" font-size="10.00">no_os_spi.h</text>
</a>
</g>
</g>
<!-- Node1&#45;&gt;Node9 -->
<g id="edge13_Node000001_Node000009" class="edge">
<title>Node1&#45;&gt;Node9</title>
<g id="a_edge13_Node000001_Node000009"><a xlink:title=" ">
<path fill="none" stroke="#63b8ff" d="M721.26,-164.7C727.46,-148.58 737.94,-125.96 752.55,-110 764.36,-97.1 780.74,-86.5 794.79,-78.88"/>
<polygon fill="#63b8ff" stroke="#63b8ff" points="796.78,-81.8 804.06,-74.1 793.57,-75.58 796.78,-81.8"/>
</a>
</g>
</g>
<!-- Node10 -->
<g id="Node000010" class="node">
<title>Node10</title>
<g id="a_Node000010"><a xlink:href="no__os__gpio_8h.html" target="_top" xlink:title="Header file of GPIO Interface.">
<polygon fill="white" stroke="#666666" points="768.55,-74 688.55,-74 688.55,-55 768.55,-55 768.55,-74"/>
<text text-anchor="middle" x="728.55" y="-62" font-family="Helvetica,sans-Serif" font-size="10.00">no_os_gpio.h</text>
</a>
</g>
</g>
<!-- Node1&#45;&gt;Node10 -->
<g id="edge15_Node000001_Node000010" class="edge">
<title>Node1&#45;&gt;Node10</title>
<g id="a_edge15_Node000001_Node000010"><a xlink:title=" ">
<path fill="none" stroke="#63b8ff" d="M715.15,-164.82C715.79,-149.76 717.07,-128.5 719.55,-110 720.68,-101.5 722.48,-92.2 724.17,-84.3"/>
<polygon fill="#63b8ff" stroke="#63b8ff" points="727.64,-84.83 726.41,-74.31 720.81,-83.3 727.64,-84.83"/>
</a>
</g>
</g>
<!-- Node11 -->
<g id="Node000011" class="node">
<title>Node11</title>
<g id="a_Node000011"><a xlink:href="xilinx__gpio_8h.html" target="_top" xlink:title=" ">
<polygon fill="white" stroke="#666666" points="94.05,-74 15.05,-74 15.05,-55 94.05,-55 94.05,-74"/>
<text text-anchor="middle" x="54.55" y="-62" font-family="Helvetica,sans-Serif" font-size="10.00">xilinx_gpio.h</text>
</a>
</g>
</g>
<!-- Node1&#45;&gt;Node11 -->
<g id="edge17_Node000001_Node000011" class="edge">
<title>Node1&#45;&gt;Node11</title>
<g id="a_edge17_Node000001_Node000011"><a xlink:title=" ">
<path fill="none" stroke="#63b8ff" d="M640.94,-185.37C536.08,-184.72 338.65,-176.47 178.55,-129 140.26,-117.65 99.79,-94.53 75.87,-79.54"/>
<polygon fill="#63b8ff" stroke="#63b8ff" points="77.58,-76.48 67.26,-74.05 73.81,-82.38 77.58,-76.48"/>
</a>
</g>
</g>
<!-- Node12 -->
<g id="Node000012" class="node">
<title>Node12</title>
<g id="a_Node000012"><a xlink:href="xilinx__spi_8h.html" target="_top" xlink:title=" ">
<polygon fill="white" stroke="#666666" points="833.55,-129 761.55,-129 761.55,-110 833.55,-110 833.55,-129"/>
<text text-anchor="middle" x="797.55" y="-117" font-family="Helvetica,sans-Serif" font-size="10.00">xilinx_spi.h</text>
</a>
</g>
</g>
<!-- Node1&#45;&gt;Node12 -->
<g id="edge20_Node000001_Node000012" class="edge">
<title>Node1&#45;&gt;Node12</title>
<g id="a_edge20_Node000001_Node000012"><a xlink:title=" ">
<path fill="none" stroke="#63b8ff" d="M739.9,-164.95C752.21,-155.46 766.76,-144.24 778.17,-135.44"/>
<polygon fill="#63b8ff" stroke="#63b8ff" points="780.4,-138.14 786.18,-129.26 776.13,-132.6 780.4,-138.14"/>
</a>
</g>
</g>
<!-- Node13 -->
<g id="Node000013" class="node">
<title>Node13</title>
<g id="a_Node000013"><a xlink:href="ad413x_8h.html" target="_top" xlink:title="Header file of AD413X Driver.">
<polygon fill="white" stroke="#666666" points="658.55,-129 596.55,-129 596.55,-110 658.55,-110 658.55,-129"/>
<text text-anchor="middle" x="627.55" y="-117" font-family="Helvetica,sans-Serif" font-size="10.00">ad413x.h</text>
</a>
</g>
</g>
<!-- Node1&#45;&gt;Node13 -->
<g id="edge23_Node000001_Node000013" class="edge">
<title>Node1&#45;&gt;Node13</title>
<g id="a_edge23_Node000001_Node000013"><a xlink:title=" ">
<path fill="none" stroke="#63b8ff" d="M687.97,-164.95C675.07,-155.46 659.81,-144.24 647.86,-135.44"/>
<polygon fill="#63b8ff" stroke="#63b8ff" points="649.58,-132.37 639.45,-129.26 645.44,-138.01 649.58,-132.37"/>
</a>
</g>
</g>
<!-- Node17 -->
<g id="Node000017" class="node">
<title>Node17</title>
<g id="a_Node000017"><a xlink:href="no__os__error_8h.html" target="_top" xlink:title="Error codes definition.">
<polygon fill="white" stroke="#666666" points="933.55,-129 851.55,-129 851.55,-110 933.55,-110 933.55,-129"/>
<text text-anchor="middle" x="892.55" y="-117" font-family="Helvetica,sans-Serif" font-size="10.00">no_os_error.h</text>
</a>
</g>
</g>
<!-- Node1&#45;&gt;Node17 -->
<g id="edge34_Node000001_Node000017" class="edge">
<title>Node1&#45;&gt;Node17</title>
<g id="a_edge34_Node000001_Node000017"><a xlink:title=" ">
<path fill="none" stroke="#63b8ff" d="M768.92,-164.95C798.34,-154.37 833.75,-141.64 859.12,-132.52"/>
<polygon fill="#63b8ff" stroke="#63b8ff" points="860.42,-135.77 868.65,-129.09 858.06,-129.18 860.42,-135.77"/>
</a>
</g>
</g>
<!-- Node19 -->
<g id="Node000019" class="node">
<title>Node19</title>
<g id="a_Node000019"><a xlink:title=" ">
<polygon fill="#e0e0e0" stroke="#999999" points="1074.55,-74 986.55,-74 986.55,-55 1074.55,-55 1074.55,-74"/>
<text text-anchor="middle" x="1030.55" y="-62" font-family="Helvetica,sans-Serif" font-size="10.00">xparameters.h</text>
</a>
</g>
</g>
<!-- Node1&#45;&gt;Node19 -->
<g id="edge36_Node000001_Node000019" class="edge">
<title>Node1&#45;&gt;Node19</title>
<g id="a_edge36_Node000001_Node000019"><a xlink:title=" ">
<path fill="none" stroke="#63b8ff" d="M788.05,-174.04C833.94,-165.72 893.43,-151.64 942.55,-129 969.35,-116.64 996.31,-95.62 1013.19,-81.18"/>
<polygon fill="#63b8ff" stroke="#63b8ff" points="1015.83,-83.52 1021.05,-74.3 1011.22,-78.25 1015.83,-83.52"/>
</a>
</g>
</g>
<!-- Node20 -->
<g id="Node000020" class="node">
<title>Node20</title>
<g id="a_Node000020"><a xlink:href="ad413x_2src_2app_2parameters_8h.html" target="_top" xlink:title="Parameters Definitions.">
<polygon fill="white" stroke="#666666" points="1071.55,-129 989.55,-129 989.55,-110 1071.55,-110 1071.55,-129"/>
<text text-anchor="middle" x="1030.55" y="-117" font-family="Helvetica,sans-Serif" font-size="10.00">parameters.h</text>
</a>
</g>
</g>
<!-- Node1&#45;&gt;Node20 -->
<g id="edge37_Node000001_Node000020" class="edge">
<title>Node1&#45;&gt;Node20</title>
<g id="a_edge37_Node000001_Node000020"><a xlink:title=" ">
<path fill="none" stroke="#63b8ff" d="M788.23,-169.58C846.88,-157.7 927.44,-141.38 979.25,-130.89"/>
<polygon fill="#63b8ff" stroke="#63b8ff" points="980.11,-134.29 989.22,-128.87 978.72,-127.42 980.11,-134.29"/>
</a>
</g>
</g>
<!-- Node21 -->
<g id="Node000021" class="node">
<title>Node21</title>
<g id="a_Node000021"><a xlink:href="no__os__print__log_8h.html" target="_top" xlink:title="Print messages helpers.">
<polygon fill="white" stroke="#666666" points="1191.55,-129 1089.55,-129 1089.55,-110 1191.55,-110 1191.55,-129"/>
<text text-anchor="middle" x="1140.55" y="-117" font-family="Helvetica,sans-Serif" font-size="10.00">no_os_print_log.h</text>
</a>
</g>
</g>
<!-- Node1&#45;&gt;Node21 -->
<g id="edge39_Node000001_Node000021" class="edge">
<title>Node1&#45;&gt;Node21</title>
<g id="a_edge39_Node000001_Node000021"><a xlink:title=" ">
<path fill="none" stroke="#63b8ff" d="M788.26,-173.43C870.65,-161.05 1002.55,-141.23 1079.43,-129.68"/>
<polygon fill="#63b8ff" stroke="#63b8ff" points="1080.07,-133.12 1089.44,-128.18 1079.03,-126.2 1080.07,-133.12"/>
</a>
</g>
</g>
<!-- Node23 -->
<g id="Node000023" class="node">
<title>Node23</title>
<g id="a_Node000023"><a xlink:title=" ">
<polygon fill="#e0e0e0" stroke="#999999" points="1275.05,-129 1210.05,-129 1210.05,-110 1275.05,-110 1275.05,-129"/>
<text text-anchor="middle" x="1242.55" y="-117" font-family="Helvetica,sans-Serif" font-size="10.00">inttypes.h</text>
</a>
</g>
</g>
<!-- Node1&#45;&gt;Node23 -->
<g id="edge42_Node000001_Node000023" class="edge">
<title>Node1&#45;&gt;Node23</title>
<g id="a_edge42_Node000001_Node000023"><a xlink:title=" ">
<path fill="none" stroke="#63b8ff" d="M788.09,-178.09C881.46,-169.5 1047.67,-152.73 1200.02,-128.94"/>
<polygon fill="#63b8ff" stroke="#63b8ff" points="1200.7,-132.38 1210.04,-127.37 1199.61,-125.46 1200.7,-132.38"/>
</a>
</g>
</g>
<!-- Node2&#45;&gt;Node3 -->
<g id="edge2_Node000002_Node000003" class="edge">
<title>Node2&#45;&gt;Node3</title>
<g id="a_edge2_Node000002_Node000003"><a xlink:title=" ">
<path fill="none" stroke="#63b8ff" d="M492.55,-54.75C492.55,-47.8 492.55,-37.85 492.55,-29.13"/>
<polygon fill="#63b8ff" stroke="#63b8ff" points="496.05,-29.09 492.55,-19.09 489.05,-29.09 496.05,-29.09"/>
</a>
</g>
</g>
<!-- Node4&#45;&gt;Node2 -->
<g id="edge5_Node000004_Node000002" class="edge">
<title>Node4&#45;&gt;Node2</title>
<g id="a_edge5_Node000004_Node000002"><a xlink:title=" ">
<path fill="none" stroke="#63b8ff" d="M492.55,-109.75C492.55,-102.8 492.55,-92.85 492.55,-84.13"/>
<polygon fill="#63b8ff" stroke="#63b8ff" points="496.05,-84.09 492.55,-74.09 489.05,-84.09 496.05,-84.09"/>
</a>
</g>
</g>
<!-- Node4&#45;&gt;Node3 -->
<g id="edge4_Node000004_Node000003" class="edge">
<title>Node4&#45;&gt;Node3</title>
<g id="a_edge4_Node000004_Node000003"><a xlink:title=" ">
<path fill="none" stroke="#63b8ff" d="M478.86,-109.81C462.53,-98.23 438.49,-76.7 447.55,-55 452.41,-43.36 461.96,-33.2 471.02,-25.55"/>
<polygon fill="#63b8ff" stroke="#63b8ff" points="473.35,-28.17 479.06,-19.25 469.03,-22.67 473.35,-28.17"/>
</a>
</g>
</g>
<!-- Node5&#45;&gt;Node2 -->
<g id="edge12_Node000005_Node000002" class="edge">
<title>Node5&#45;&gt;Node2</title>
<g id="a_edge12_Node000005_Node000002"><a xlink:title=" ">
<path fill="none" stroke="#63b8ff" d="M277.68,-109.98C323.86,-100.42 398.61,-84.95 446.66,-75"/>
<polygon fill="#63b8ff" stroke="#63b8ff" points="447.4,-78.42 456.48,-72.97 445.98,-71.57 447.4,-78.42"/>
</a>
</g>
</g>
<!-- Node6 -->
<g id="Node000006" class="node">
<title>Node6</title>
<g id="a_Node000006"><a xlink:title=" ">
<polygon fill="#e0e0e0" stroke="#999999" points="133.55,-19 71.55,-19 71.55,0 133.55,0 133.55,-19"/>
<text text-anchor="middle" x="102.55" y="-7" font-family="Helvetica,sans-Serif" font-size="10.00">stdbool.h</text>
</a>
</g>
</g>
<!-- Node5&#45;&gt;Node6 -->
<g id="edge7_Node000005_Node000006" class="edge">
<title>Node5&#45;&gt;Node6</title>
<g id="a_edge7_Node000005_Node000006"><a xlink:title=" ">
<path fill="none" stroke="#63b8ff" d="M187.85,-116.18C127.04,-112.14 28.2,-101.44 5.55,-74 -14.58,-49.63 26.47,-31.27 61.22,-20.71"/>
<polygon fill="#63b8ff" stroke="#63b8ff" points="62.62,-23.95 71.26,-17.82 60.68,-17.22 62.62,-23.95"/>
</a>
</g>
</g>
<!-- Node7 -->
<g id="Node000007" class="node">
<title>Node7</title>
<g id="a_Node000007"><a xlink:href="no__os__list_8h.html" target="_top" xlink:title="List library header.">
<polygon fill="white" stroke="#666666" points="186.55,-74 112.55,-74 112.55,-55 186.55,-55 186.55,-74"/>
<text text-anchor="middle" x="149.55" y="-62" font-family="Helvetica,sans-Serif" font-size="10.00">no_os_list.h</text>
</a>
</g>
</g>
<!-- Node5&#45;&gt;Node7 -->
<g id="edge8_Node000005_Node000007" class="edge">
<title>Node5&#45;&gt;Node7</title>
<g id="a_edge8_Node000005_Node000007"><a xlink:title=" ">
<path fill="none" stroke="#63b8ff" d="M222.57,-109.98C209.08,-101.77 188.41,-89.18 172.5,-79.49"/>
<polygon fill="#63b8ff" stroke="#63b8ff" points="174.14,-76.38 163.78,-74.17 170.5,-82.36 174.14,-76.38"/>
</a>
</g>
</g>
<!-- Node8 -->
<g id="Node000008" class="node">
<title>Node8</title>
<g id="a_Node000008"><a xlink:title=" ">
<polygon fill="#e0e0e0" stroke="#999999" points="268.55,-74 204.55,-74 204.55,-55 268.55,-55 268.55,-74"/>
<text text-anchor="middle" x="236.55" y="-62" font-family="Helvetica,sans-Serif" font-size="10.00">xgpiops.h</text>
</a>
</g>
</g>
<!-- Node5&#45;&gt;Node8 -->
<g id="edge11_Node000005_Node000008" class="edge">
<title>Node5&#45;&gt;Node8</title>
<g id="a_edge11_Node000005_Node000008"><a xlink:title=" ">
<path fill="none" stroke="#63b8ff" d="M236.55,-109.75C236.55,-102.8 236.55,-92.85 236.55,-84.13"/>
<polygon fill="#63b8ff" stroke="#63b8ff" points="240.05,-84.09 236.55,-74.09 233.05,-84.09 240.05,-84.09"/>
</a>
</g>
</g>
<!-- Node7&#45;&gt;Node3 -->
<g id="edge9_Node000007_Node000003" class="edge">
<title>Node7&#45;&gt;Node3</title>
<g id="a_edge9_Node000007_Node000003"><a xlink:title=" ">
<path fill="none" stroke="#63b8ff" d="M186.68,-56.53C189.68,-56 192.66,-55.48 195.55,-55 289.03,-39.36 399.5,-23.5 455.7,-15.61"/>
<polygon fill="#63b8ff" stroke="#63b8ff" points="456.46,-19.04 465.87,-14.19 455.49,-12.11 456.46,-19.04"/>
</a>
</g>
</g>
<!-- Node7&#45;&gt;Node6 -->
<g id="edge10_Node000007_Node000006" class="edge">
<title>Node7&#45;&gt;Node6</title>
<g id="a_edge10_Node000007_Node000006"><a xlink:title=" ">
<path fill="none" stroke="#63b8ff" d="M141.78,-54.75C135.08,-47.18 125.2,-36.05 117.04,-26.84"/>
<polygon fill="#63b8ff" stroke="#63b8ff" points="119.42,-24.25 110.16,-19.09 114.18,-28.89 119.42,-24.25"/>
</a>
</g>
</g>
<!-- Node9&#45;&gt;Node3 -->
<g id="edge14_Node000009_Node000003" class="edge">
<title>Node9&#45;&gt;Node3</title>
<g id="a_edge14_Node000009_Node000003"><a xlink:title=" ">
<path fill="none" stroke="#63b8ff" d="M786.4,-56.55C783.41,-56.01 780.43,-55.49 777.55,-55 688.69,-39.86 583.89,-24.01 529.49,-15.93"/>
<polygon fill="#63b8ff" stroke="#63b8ff" points="529.71,-12.43 519.3,-14.42 528.68,-19.35 529.71,-12.43"/>
</a>
</g>
</g>
<!-- Node10&#45;&gt;Node3 -->
<g id="edge16_Node000010_Node000003" class="edge">
<title>Node10&#45;&gt;Node3</title>
<g id="a_edge16_Node000010_Node000003"><a xlink:title=" ">
<path fill="none" stroke="#63b8ff" d="M690.63,-54.98C646.24,-45.02 573.22,-28.62 529.32,-18.76"/>
<polygon fill="#63b8ff" stroke="#63b8ff" points="529.88,-15.3 519.36,-16.52 528.35,-22.13 529.88,-15.3"/>
</a>
</g>
</g>
<!-- Node11&#45;&gt;Node3 -->
<g id="edge18_Node000011_Node000003" class="edge">
<title>Node11&#45;&gt;Node3</title>
<g id="a_edge18_Node000011_Node000003"><a xlink:title=" ">
<path fill="none" stroke="#63b8ff" d="M94.09,-56.44C97.29,-55.93 100.47,-55.44 103.55,-55 232.5,-36.45 386.41,-20.74 455.62,-14.01"/>
<polygon fill="#63b8ff" stroke="#63b8ff" points="455.98,-17.49 465.59,-13.04 455.3,-10.52 455.98,-17.49"/>
</a>
</g>
</g>
<!-- Node11&#45;&gt;Node6 -->
<g id="edge19_Node000011_Node000006" class="edge">
<title>Node11&#45;&gt;Node6</title>
<g id="a_edge19_Node000011_Node000006"><a xlink:title=" ">
<path fill="none" stroke="#63b8ff" d="M62.47,-54.75C69.39,-47.11 79.61,-35.82 88,-26.56"/>
<polygon fill="#63b8ff" stroke="#63b8ff" points="90.65,-28.85 94.77,-19.09 85.46,-24.15 90.65,-28.85"/>
</a>
</g>
</g>
<!-- Node12&#45;&gt;Node3 -->
<g id="edge21_Node000012_Node000003" class="edge">
<title>Node12&#45;&gt;Node3</title>
<g id="a_edge21_Node000012_Node000003"><a xlink:title=" ">
<path fill="none" stroke="#63b8ff" d="M820.43,-110C848.16,-98.47 888.92,-76.8 869.55,-55 847.14,-29.8 619.64,-16.45 529.27,-12.11"/>
<polygon fill="#63b8ff" stroke="#63b8ff" points="529.35,-8.61 519.2,-11.64 529.02,-15.6 529.35,-8.61"/>
</a>
</g>
</g>
<!-- Node12&#45;&gt;Node9 -->
<g id="edge22_Node000012_Node000009" class="edge">
<title>Node12&#45;&gt;Node9</title>
<g id="a_edge22_Node000012_Node000009"><a xlink:title=" ">
<path fill="none" stroke="#63b8ff" d="M801.84,-109.75C805.36,-102.57 810.46,-92.18 814.83,-83.27"/>
<polygon fill="#63b8ff" stroke="#63b8ff" points="818.07,-84.61 819.33,-74.09 811.79,-81.53 818.07,-84.61"/>
</a>
</g>
</g>
<!-- Node13&#45;&gt;Node2 -->
<g id="edge29_Node000013_Node000002" class="edge">
<title>Node13&#45;&gt;Node2</title>
<g id="a_edge29_Node000013_Node000002"><a xlink:title=" ">
<path fill="none" stroke="#63b8ff" d="M605.86,-109.98C583.75,-101.3 549.22,-87.75 524.09,-77.88"/>
<polygon fill="#63b8ff" stroke="#63b8ff" points="525.22,-74.57 514.63,-74.17 522.66,-81.08 525.22,-74.57"/>
</a>
</g>
</g>
<!-- Node13&#45;&gt;Node3 -->
<g id="edge24_Node000013_Node000003" class="edge">
<title>Node13&#45;&gt;Node3</title>
<g id="a_edge24_Node000013_Node000003"><a xlink:title=" ">
<path fill="none" stroke="#63b8ff" d="M616.5,-109.66C593.44,-91.22 539.98,-48.45 511.38,-25.57"/>
<polygon fill="#63b8ff" stroke="#63b8ff" points="513.36,-22.67 503.37,-19.16 508.99,-28.14 513.36,-22.67"/>
</a>
</g>
</g>
<!-- Node13&#45;&gt;Node9 -->
<g id="edge28_Node000013_Node000009" class="edge">
<title>Node13&#45;&gt;Node9</title>
<g id="a_edge28_Node000013_Node000009"><a xlink:title=" ">
<path fill="none" stroke="#63b8ff" d="M658.6,-110.1C691.95,-101.08 745.11,-86.71 782.03,-76.73"/>
<polygon fill="#63b8ff" stroke="#63b8ff" points="783.25,-80.02 791.99,-74.03 781.42,-73.27 783.25,-80.02"/>
</a>
</g>
</g>
<!-- Node13&#45;&gt;Node10 -->
<g id="edge27_Node000013_Node000010" class="edge">
<title>Node13&#45;&gt;Node10</title>
<g id="a_edge27_Node000013_Node000010"><a xlink:title=" ">
<path fill="none" stroke="#63b8ff" d="M643.77,-109.98C659.73,-101.61 684.33,-88.7 702.92,-78.95"/>
<polygon fill="#63b8ff" stroke="#63b8ff" points="704.79,-81.92 712.02,-74.17 701.54,-75.72 704.79,-81.92"/>
</a>
</g>
</g>
<!-- Node14 -->
<g id="Node000014" class="node">
<title>Node14</title>
<g id="a_Node000014"><a xlink:href="no__os__delay_8h.html" target="_top" xlink:title="Header file of Delay functions.">
<polygon fill="white" stroke="#666666" points="670.05,-74 585.05,-74 585.05,-55 670.05,-55 670.05,-74"/>
<text text-anchor="middle" x="627.55" y="-62" font-family="Helvetica,sans-Serif" font-size="10.00">no_os_delay.h</text>
</a>
</g>
</g>
<!-- Node13&#45;&gt;Node14 -->
<g id="edge25_Node000013_Node000014" class="edge">
<title>Node13&#45;&gt;Node14</title>
<g id="a_edge25_Node000013_Node000014"><a xlink:title=" ">
<path fill="none" stroke="#63b8ff" d="M627.55,-109.75C627.55,-102.8 627.55,-92.85 627.55,-84.13"/>
<polygon fill="#63b8ff" stroke="#63b8ff" points="631.05,-84.09 627.55,-74.09 624.05,-84.09 631.05,-84.09"/>
</a>
</g>
</g>
<!-- Node15 -->
<g id="Node000015" class="node">
<title>Node15</title>
<g id="a_Node000015"><a xlink:href="no__os__util_8h.html" target="_top" xlink:title="Header file of utility functions.">
<polygon fill="white" stroke="#666666" points="362.05,-74 287.05,-74 287.05,-55 362.05,-55 362.05,-74"/>
<text text-anchor="middle" x="324.55" y="-62" font-family="Helvetica,sans-Serif" font-size="10.00">no_os_util.h</text>
</a>
</g>
</g>
<!-- Node13&#45;&gt;Node15 -->
<g id="edge30_Node000013_Node000015" class="edge">
<title>Node13&#45;&gt;Node15</title>
<g id="a_edge30_Node000013_Node000015"><a xlink:title=" ">
<path fill="none" stroke="#63b8ff" d="M596.54,-113.08C543.54,-103.81 435.15,-84.85 372.38,-73.87"/>
<polygon fill="#63b8ff" stroke="#63b8ff" points="372.79,-70.39 362.34,-72.11 371.58,-77.28 372.79,-70.39"/>
</a>
</g>
</g>
<!-- Node14&#45;&gt;Node3 -->
<g id="edge26_Node000014_Node000003" class="edge">
<title>Node14&#45;&gt;Node3</title>
<g id="a_edge26_Node000014_Node000003"><a xlink:title=" ">
<path fill="none" stroke="#63b8ff" d="M605.86,-54.98C583.75,-46.3 549.22,-32.75 524.09,-22.88"/>
<polygon fill="#63b8ff" stroke="#63b8ff" points="525.22,-19.57 514.63,-19.17 522.66,-26.08 525.22,-19.57"/>
</a>
</g>
</g>
<!-- Node15&#45;&gt;Node3 -->
<g id="edge31_Node000015_Node000003" class="edge">
<title>Node15&#45;&gt;Node3</title>
<g id="a_edge31_Node000015_Node000003"><a xlink:title=" ">
<path fill="none" stroke="#63b8ff" d="M351.54,-54.98C379.91,-46.03 424.71,-31.9 456.19,-21.97"/>
<polygon fill="#63b8ff" stroke="#63b8ff" points="457.41,-25.25 465.9,-18.91 455.31,-18.58 457.41,-25.25"/>
</a>
</g>
</g>
<!-- Node15&#45;&gt;Node6 -->
<g id="edge33_Node000015_Node000006" class="edge">
<title>Node15&#45;&gt;Node6</title>
<g id="a_edge33_Node000015_Node000006"><a xlink:title=" ">
<path fill="none" stroke="#63b8ff" d="M288.88,-54.98C249.25,-45.52 185.36,-30.27 143.66,-20.31"/>
<polygon fill="#63b8ff" stroke="#63b8ff" points="144.36,-16.88 133.82,-17.97 142.73,-23.69 144.36,-16.88"/>
</a>
</g>
</g>
<!-- Node16 -->
<g id="Node000016" class="node">
<title>Node16</title>
<g id="a_Node000016"><a xlink:title=" ">
<polygon fill="#e0e0e0" stroke="#999999" points="351.05,-19 298.05,-19 298.05,0 351.05,0 351.05,-19"/>
<text text-anchor="middle" x="324.55" y="-7" font-family="Helvetica,sans-Serif" font-size="10.00">stdlib.h</text>
</a>
</g>
</g>
<!-- Node15&#45;&gt;Node16 -->
<g id="edge32_Node000015_Node000016" class="edge">
<title>Node15&#45;&gt;Node16</title>
<g id="a_edge32_Node000015_Node000016"><a xlink:title=" ">
<path fill="none" stroke="#63b8ff" d="M324.55,-54.75C324.55,-47.8 324.55,-37.85 324.55,-29.13"/>
<polygon fill="#63b8ff" stroke="#63b8ff" points="328.05,-29.09 324.55,-19.09 321.05,-29.09 328.05,-29.09"/>
</a>
</g>
</g>
<!-- Node18 -->
<g id="Node000018" class="node">
<title>Node18</title>
<g id="a_Node000018"><a xlink:href="errno_8h.html" target="_top" xlink:title="Error macro definition for ARM Compiler.">
<polygon fill="white" stroke="#666666" points="968.05,-74 917.05,-74 917.05,-55 968.05,-55 968.05,-74"/>
<text text-anchor="middle" x="942.55" y="-62" font-family="Helvetica,sans-Serif" font-size="10.00">errno.h</text>
</a>
</g>
</g>
<!-- Node17&#45;&gt;Node18 -->
<g id="edge35_Node000017_Node000018" class="edge">
<title>Node17&#45;&gt;Node18</title>
<g id="a_edge35_Node000017_Node000018"><a xlink:title=" ">
<path fill="none" stroke="#63b8ff" d="M900.8,-109.75C908.01,-102.11 918.66,-90.82 927.39,-81.56"/>
<polygon fill="#63b8ff" stroke="#63b8ff" points="930.13,-83.76 934.44,-74.09 925.03,-78.96 930.13,-83.76"/>
</a>
</g>
</g>
<!-- Node20&#45;&gt;Node19 -->
<g id="edge38_Node000020_Node000019" class="edge">
<title>Node20&#45;&gt;Node19</title>
<g id="a_edge38_Node000020_Node000019"><a xlink:title=" ">
<path fill="none" stroke="#63b8ff" d="M1030.55,-109.75C1030.55,-102.8 1030.55,-92.85 1030.55,-84.13"/>
<polygon fill="#63b8ff" stroke="#63b8ff" points="1034.05,-84.09 1030.55,-74.09 1027.05,-84.09 1034.05,-84.09"/>
</a>
</g>
</g>
<!-- Node22 -->
<g id="Node000022" class="node">
<title>Node22</title>
<g id="a_Node000022"><a xlink:title=" ">
<polygon fill="#e0e0e0" stroke="#999999" points="1165.55,-74 1115.55,-74 1115.55,-55 1165.55,-55 1165.55,-74"/>
<text text-anchor="middle" x="1140.55" y="-62" font-family="Helvetica,sans-Serif" font-size="10.00">stdio.h</text>
</a>
</g>
</g>
<!-- Node21&#45;&gt;Node22 -->
<g id="edge40_Node000021_Node000022" class="edge">
<title>Node21&#45;&gt;Node22</title>
<g id="a_edge40_Node000021_Node000022"><a xlink:title=" ">
<path fill="none" stroke="#63b8ff" d="M1140.55,-109.75C1140.55,-102.8 1140.55,-92.85 1140.55,-84.13"/>
<polygon fill="#63b8ff" stroke="#63b8ff" points="1144.05,-84.09 1140.55,-74.09 1137.05,-84.09 1144.05,-84.09"/>
</a>
</g>
</g>
</g>
</svg>

<g id="navigator" transform="translate(0 0)" fill="#404254">
  <rect fill="#f2f5e9" fill-opacity="0.5" stroke="#606060" stroke-width=".5" x="0" y="0" width="60" height="60"/>
  <use id="zoomplus" xlink:href="#zoomPlus" x="17" y="9" onmousedown="handleZoom(evt,'in')"/>
  <use id="zoomminus" xlink:href="#zoomMin" x="42" y="9" onmousedown="handleZoom(evt,'out')"/>
  <use id="reset" xlink:href="#resetDef" x="30" y="36" onmousedown="handleReset()"/>
   <use id="arrowup" xlink:href="#arrowUp" x="0" y="0" onmousedown="handlePan(0,-1)"/>
  <use id="arrowright" xlink:href="#arrowRight" x="0" y="0" onmousedown="handlePan(1,0)"/>
  <use id="arrowdown" xlink:href="#arrowDown" x="0" y="0" onmousedown="handlePan(0,1)"/>
  <use id="arrowleft" xlink:href="#arrowLeft" x="0" y="0" onmousedown="handlePan(-1,0)"/>
</g>
<svg viewBox="0 0 15 15" width="100%" height="30px" preserveAspectRatio="xMaxYMin meet">
 <g id="arrow_out" transform="scale(0.3 0.3)">
  <a xlink:href="ad413x_2src_2app_2main_8c__incl_org.svg" target="_base">
   <rect id="button" ry="5" rx="5" y="6" x="6" height="38" width="38"
        fill="#f2f5e9" fill-opacity="0.5" stroke="#606060" stroke-width="1.0"/>
   <path id="arrow"
     d="M 11.500037,31.436501 C 11.940474,20.09759 22.043105,11.32322 32.158766,21.979434 L 37.068811,17.246167 C 37.068811,17.246167 37.088388,32 37.088388,32 L 22.160133,31.978069 C 22.160133,31.978069 26.997745,27.140456 26.997745,27.140456 C 18.528582,18.264221 13.291696,25.230495 11.500037,31.436501 z"
     style="fill:#404040;"/>
  </a>
 </g>
</svg>

<style type='text/css'>
<![CDATA[
[data-mouse-over-selected='false'] { opacity: 0.7; }
[data-mouse-over-selected='true']  { opacity: 1.0; }
]]>
</style>
<script type="application/ecmascript"><![CDATA[
document.addEventListener('DOMContentLoaded', (event) => {
  highlightEdges();
  highlightAdjacentNodes();
});
]]></script>
</svg>
