<?xml version="1.0" encoding="UTF-8" standalone="no"?>
<!DOCTYPE svg PUBLIC "-//W3C//DTD SVG 1.1//EN"
 "http://www.w3.org/Graphics/SVG/1.1/DTD/svg11.dtd">
<!-- Generated by graphviz version 2.43.0 (0)
 -->
<!-- Title: /home/runner/work/no&#45;OS/no&#45;OS/drivers/adc/ad4692/ad4692.h Pages: 1 -->
<svg width="504pt" height="159pt"
 viewBox="0.00 0.00 503.50 159.00" xmlns="http://www.w3.org/2000/svg" xmlns:xlink="http://www.w3.org/1999/xlink">
<g id="graph0" class="graph" transform="scale(1 1) rotate(0) translate(4 155)">
<title>/home/runner/work/no&#45;OS/no&#45;OS/drivers/adc/ad4692/ad4692.h</title>
<!-- Node1 -->
<g id="Node000001" class="node">
<title>Node1</title>
<g id="a_Node000001"><a xlink:title="Header file for ad4692 Driver.">
<polygon fill="#999999" stroke="#666666" points="283.5,-151 159.5,-151 159.5,-110 283.5,-110 283.5,-151"/>
<text text-anchor="start" x="167.5" y="-139" font-family="Helvetica,sans-Serif" font-size="10.00">/home/runner/work/no</text>
<text text-anchor="start" x="167.5" y="-128" font-family="Helvetica,sans-Serif" font-size="10.00">&#45;OS/no&#45;OS/drivers/adc</text>
<text text-anchor="middle" x="221.5" y="-117" font-family="Helvetica,sans-Serif" font-size="10.00">/ad4692/ad4692.h</text>
</a>
</g>
</g>
<!-- Node2 -->
<g id="Node000002" class="node">
<title>Node2</title>
<g id="a_Node000002"><a xlink:title=" ">
<polygon fill="#e0e0e0" stroke="#999999" points="139.5,-19 77.5,-19 77.5,0 139.5,0 139.5,-19"/>
<text text-anchor="middle" x="108.5" y="-7" font-family="Helvetica,sans-Serif" font-size="10.00">stdbool.h</text>
</a>
</g>
</g>
<!-- Node1&#45;&gt;Node2 -->
<g id="edge1_Node000001_Node000002" class="edge">
<title>Node1&#45;&gt;Node2</title>
<g id="a_edge1_Node000001_Node000002"><a xlink:title=" ">
<path fill="none" stroke="#63b8ff" d="M168.07,-109.89C151.21,-101.27 134.01,-89.51 122.5,-74 112.93,-61.11 109.68,-42.95 108.67,-29.35"/>
<polygon fill="#63b8ff" stroke="#63b8ff" points="112.16,-29.07 108.26,-19.21 105.17,-29.35 112.16,-29.07"/>
</a>
</g>
</g>
<!-- Node3 -->
<g id="Node000003" class="node">
<title>Node3</title>
<g id="a_Node000003"><a xlink:href="no__os__util_8h.html" target="_top" xlink:title="Header file of utility functions.">
<polygon fill="white" stroke="#666666" points="75,-74 0,-74 0,-55 75,-55 75,-74"/>
<text text-anchor="middle" x="37.5" y="-62" font-family="Helvetica,sans-Serif" font-size="10.00">no_os_util.h</text>
</a>
</g>
</g>
<!-- Node1&#45;&gt;Node3 -->
<g id="edge2_Node000001_Node000003" class="edge">
<title>Node1&#45;&gt;Node3</title>
<g id="a_edge2_Node000001_Node000003"><a xlink:title=" ">
<path fill="none" stroke="#63b8ff" d="M165.29,-109.95C134.74,-99.32 97.95,-86.53 71.71,-77.4"/>
<polygon fill="#63b8ff" stroke="#63b8ff" points="72.8,-74.07 62.2,-74.09 70.5,-80.68 72.8,-74.07"/>
</a>
</g>
</g>
<!-- Node6 -->
<g id="Node000006" class="node">
<title>Node6</title>
<g id="a_Node000006"><a xlink:href="no__os__pwm_8h.html" target="_top" xlink:title="Header file of PWM Interface.">
<polygon fill="white" stroke="#666666" points="215,-74 132,-74 132,-55 215,-55 215,-74"/>
<text text-anchor="middle" x="173.5" y="-62" font-family="Helvetica,sans-Serif" font-size="10.00">no_os_pwm.h</text>
</a>
</g>
</g>
<!-- Node1&#45;&gt;Node6 -->
<g id="edge6_Node000001_Node000006" class="edge">
<title>Node1&#45;&gt;Node6</title>
<g id="a_edge6_Node000001_Node000006"><a xlink:title=" ">
<path fill="none" stroke="#63b8ff" d="M206.84,-109.95C200.21,-101.11 192.45,-90.77 186.09,-82.29"/>
<polygon fill="#63b8ff" stroke="#63b8ff" points="188.87,-80.16 180.07,-74.26 183.27,-84.36 188.87,-80.16"/>
</a>
</g>
</g>
<!-- Node7 -->
<g id="Node000007" class="node">
<title>Node7</title>
<g id="a_Node000007"><a xlink:href="no__os__spi_8h.html" target="_top" xlink:title="Header file of SPI Interface.">
<polygon fill="white" stroke="#666666" points="307.5,-74 233.5,-74 233.5,-55 307.5,-55 307.5,-74"/>
<text text-anchor="middle" x="270.5" y="-62" font-family="Helvetica,sans-Serif" font-size="10.00">no_os_spi.h</text>
</a>
</g>
</g>
<!-- Node1&#45;&gt;Node7 -->
<g id="edge9_Node000001_Node000007" class="edge">
<title>Node1&#45;&gt;Node7</title>
<g id="a_edge9_Node000001_Node000007"><a xlink:title=" ">
<path fill="none" stroke="#63b8ff" d="M236.47,-109.95C243.24,-101.11 251.15,-90.77 257.65,-82.29"/>
<polygon fill="#63b8ff" stroke="#63b8ff" points="260.49,-84.33 263.79,-74.26 254.93,-80.07 260.49,-84.33"/>
</a>
</g>
</g>
<!-- Node8 -->
<g id="Node000008" class="node">
<title>Node8</title>
<g id="a_Node000008"><a xlink:href="no__os__gpio_8h.html" target="_top" xlink:title="Header file of GPIO Interface.">
<polygon fill="white" stroke="#666666" points="405.5,-74 325.5,-74 325.5,-55 405.5,-55 405.5,-74"/>
<text text-anchor="middle" x="365.5" y="-62" font-family="Helvetica,sans-Serif" font-size="10.00">no_os_gpio.h</text>
</a>
</g>
</g>
<!-- Node1&#45;&gt;Node8 -->
<g id="edge11_Node000001_Node000008" class="edge">
<title>Node1&#45;&gt;Node8</title>
<g id="a_edge11_Node000001_Node000008"><a xlink:title=" ">
<path fill="none" stroke="#63b8ff" d="M265.49,-109.95C288.66,-99.65 316.42,-87.31 336.8,-78.25"/>
<polygon fill="#63b8ff" stroke="#63b8ff" points="338.45,-81.35 346.17,-74.09 335.61,-74.95 338.45,-81.35"/>
</a>
</g>
</g>
<!-- Node9 -->
<g id="Node000009" class="node">
<title>Node9</title>
<g id="a_Node000009"><a xlink:href="no__os__irq_8h.html" target="_top" xlink:title="Header file of IRQ interface.">
<polygon fill="white" stroke="#666666" points="495.5,-74 423.5,-74 423.5,-55 495.5,-55 495.5,-74"/>
<text text-anchor="middle" x="459.5" y="-62" font-family="Helvetica,sans-Serif" font-size="10.00">no_os_irq.h</text>
</a>
</g>
</g>
<!-- Node1&#45;&gt;Node9 -->
<g id="edge13_Node000001_Node000009" class="edge">
<title>Node1&#45;&gt;Node9</title>
<g id="a_edge13_Node000001_Node000009"><a xlink:title=" ">
<path fill="none" stroke="#63b8ff" d="M283.72,-112.77C326.02,-101.39 380.82,-86.66 417.91,-76.68"/>
<polygon fill="#63b8ff" stroke="#63b8ff" points="419.12,-79.98 427.87,-74 417.31,-73.22 419.12,-79.98"/>
</a>
</g>
</g>
<!-- Node3&#45;&gt;Node2 -->
<g id="edge5_Node000003_Node000002" class="edge">
<title>Node3&#45;&gt;Node2</title>
<g id="a_edge5_Node000003_Node000002"><a xlink:title=" ">
<path fill="none" stroke="#63b8ff" d="M48.91,-54.98C59.61,-47 75.84,-34.88 88.66,-25.31"/>
<polygon fill="#63b8ff" stroke="#63b8ff" points="90.97,-27.96 96.89,-19.17 86.78,-22.35 90.97,-27.96"/>
</a>
</g>
</g>
<!-- Node4 -->
<g id="Node000004" class="node">
<title>Node4</title>
<g id="a_Node000004"><a xlink:title=" ">
<polygon fill="#e0e0e0" stroke="#999999" points="297,-19 244,-19 244,0 297,0 297,-19"/>
<text text-anchor="middle" x="270.5" y="-7" font-family="Helvetica,sans-Serif" font-size="10.00">stdint.h</text>
</a>
</g>
</g>
<!-- Node3&#45;&gt;Node4 -->
<g id="edge3_Node000003_Node000004" class="edge">
<title>Node3&#45;&gt;Node4</title>
<g id="a_edge3_Node000003_Node000004"><a xlink:title=" ">
<path fill="none" stroke="#63b8ff" d="M74.94,-54.98C118.64,-45.04 190.46,-28.71 233.83,-18.84"/>
<polygon fill="#63b8ff" stroke="#63b8ff" points="234.71,-22.23 243.69,-16.6 233.16,-15.4 234.71,-22.23"/>
</a>
</g>
</g>
<!-- Node5 -->
<g id="Node000005" class="node">
<title>Node5</title>
<g id="a_Node000005"><a xlink:title=" ">
<polygon fill="#e0e0e0" stroke="#999999" points="59,-19 6,-19 6,0 59,0 59,-19"/>
<text text-anchor="middle" x="32.5" y="-7" font-family="Helvetica,sans-Serif" font-size="10.00">stdlib.h</text>
</a>
</g>
</g>
<!-- Node3&#45;&gt;Node5 -->
<g id="edge4_Node000003_Node000005" class="edge">
<title>Node3&#45;&gt;Node5</title>
<g id="a_edge4_Node000003_Node000005"><a xlink:title=" ">
<path fill="none" stroke="#63b8ff" d="M36.67,-54.75C36.02,-47.8 35.08,-37.85 34.26,-29.13"/>
<polygon fill="#63b8ff" stroke="#63b8ff" points="37.73,-28.72 33.31,-19.09 30.77,-29.37 37.73,-28.72"/>
</a>
</g>
</g>
<!-- Node6&#45;&gt;Node2 -->
<g id="edge8_Node000006_Node000002" class="edge">
<title>Node6&#45;&gt;Node2</title>
<g id="a_edge8_Node000006_Node000002"><a xlink:title=" ">
<path fill="none" stroke="#63b8ff" d="M163.06,-54.98C153.35,-47.07 138.68,-35.11 127,-25.58"/>
<polygon fill="#63b8ff" stroke="#63b8ff" points="129.1,-22.78 119.13,-19.17 124.67,-28.2 129.1,-22.78"/>
</a>
</g>
</g>
<!-- Node6&#45;&gt;Node4 -->
<g id="edge7_Node000006_Node000004" class="edge">
<title>Node6&#45;&gt;Node4</title>
<g id="a_edge7_Node000006_Node000004"><a xlink:title=" ">
<path fill="none" stroke="#63b8ff" d="M189.08,-54.98C204.27,-46.69 227.6,-33.94 245.4,-24.22"/>
<polygon fill="#63b8ff" stroke="#63b8ff" points="247.53,-27.04 254.63,-19.17 244.18,-20.89 247.53,-27.04"/>
</a>
</g>
</g>
<!-- Node7&#45;&gt;Node4 -->
<g id="edge10_Node000007_Node000004" class="edge">
<title>Node7&#45;&gt;Node4</title>
<g id="a_edge10_Node000007_Node000004"><a xlink:title=" ">
<path fill="none" stroke="#63b8ff" d="M270.5,-54.75C270.5,-47.8 270.5,-37.85 270.5,-29.13"/>
<polygon fill="#63b8ff" stroke="#63b8ff" points="274,-29.09 270.5,-19.09 267,-29.09 274,-29.09"/>
</a>
</g>
</g>
<!-- Node8&#45;&gt;Node4 -->
<g id="edge12_Node000008_Node000004" class="edge">
<title>Node8&#45;&gt;Node4</title>
<g id="a_edge12_Node000008_Node000004"><a xlink:title=" ">
<path fill="none" stroke="#63b8ff" d="M350.24,-54.98C335.37,-46.69 312.52,-33.94 295.08,-24.22"/>
<polygon fill="#63b8ff" stroke="#63b8ff" points="296.48,-20.99 286.04,-19.17 293.07,-27.1 296.48,-20.99"/>
</a>
</g>
</g>
<!-- Node9&#45;&gt;Node4 -->
<g id="edge14_Node000009_Node000004" class="edge">
<title>Node9&#45;&gt;Node4</title>
<g id="a_edge14_Node000009_Node000004"><a xlink:title=" ">
<path fill="none" stroke="#63b8ff" d="M429.13,-54.98C395.89,-45.66 342.61,-30.72 307.09,-20.76"/>
<polygon fill="#63b8ff" stroke="#63b8ff" points="307.7,-17.3 297.13,-17.97 305.81,-24.04 307.7,-17.3"/>
</a>
</g>
</g>
</g>
</svg>
