<?xml version="1.0" encoding="UTF-8" standalone="no"?>
<!DOCTYPE svg PUBLIC "-//W3C//DTD SVG 1.1//EN"
 "http://www.w3.org/Graphics/SVG/1.1/DTD/svg11.dtd">
<!-- Generated by graphviz version 2.43.0 (0)
 -->
<!-- Title: /home/runner/work/no&#45;OS/no&#45;OS/drivers/adc/ad4692/ad4692.h Pages: 1 -->
<svg width="712pt" height="214pt"
 viewBox="0.00 0.00 711.50 214.00" xmlns="http://www.w3.org/2000/svg" xmlns:xlink="http://www.w3.org/1999/xlink">
<g id="graph0" class="graph" transform="scale(1 1) rotate(0) translate(4 210)">
<title>/home/runner/work/no&#45;OS/no&#45;OS/drivers/adc/ad4692/ad4692.h</title>
<!-- Node1 -->
<g id="Node000001" class="node">
<title>Node1</title>
<g id="a_Node000001"><a xlink:title="Header file for ad4692 Driver.">
<polygon fill="#999999" stroke="#666666" points="259,-206 135,-206 135,-165 259,-165 259,-206"/>
<text text-anchor="start" x="143" y="-194" font-family="Helvetica,sans-Serif" font-size="10.00">/home/runner/work/no</text>
<text text-anchor="start" x="143" y="-183" font-family="Helvetica,sans-Serif" font-size="10.00">&#45;OS/no&#45;OS/drivers/adc</text>
<text text-anchor="middle" x="197" y="-172" font-family="Helvetica,sans-Serif" font-size="10.00">/ad4692/ad4692.h</text>
</a>
</g>
</g>
<!-- Node2 -->
<g id="Node000002" class="node">
<title>Node2</title>
<g id="a_Node000002"><a xlink:href="ad4692_8c.html" target="_top" xlink:title="Implementation of ad4692 Driver.">
<polygon fill="white" stroke="#666666" points="124,-129 0,-129 0,-88 124,-88 124,-129"/>
<text text-anchor="start" x="8" y="-117" font-family="Helvetica,sans-Serif" font-size="10.00">/home/runner/work/no</text>
<text text-anchor="start" x="8" y="-106" font-family="Helvetica,sans-Serif" font-size="10.00">&#45;OS/no&#45;OS/drivers/adc</text>
<text text-anchor="middle" x="62" y="-95" font-family="Helvetica,sans-Serif" font-size="10.00">/ad4692/ad4692.c</text>
</a>
</g>
</g>
<!-- Node1&#45;&gt;Node2 -->
<g id="edge1_Node000001_Node000002" class="edge">
<title>Node1&#45;&gt;Node2</title>
<g id="a_edge1_Node000001_Node000002"><a xlink:title=" ">
<path fill="none" stroke="#63b8ff" d="M152.75,-159.92C134.8,-149.95 114.35,-138.58 97.41,-129.17"/>
<polygon fill="#63b8ff" stroke="#63b8ff" points="151.44,-163.19 161.88,-164.99 154.84,-157.07 151.44,-163.19"/>
</a>
</g>
</g>
<!-- Node3 -->
<g id="Node000003" class="node">
<title>Node3</title>
<g id="a_Node000003"><a xlink:href="iio__ad4692_8c.html" target="_top" xlink:title="Source file of ad4692 IIO driver.">
<polygon fill="white" stroke="#666666" points="150,-46.5 26,-46.5 26,-5.5 150,-5.5 150,-46.5"/>
<text text-anchor="start" x="34" y="-34.5" font-family="Helvetica,sans-Serif" font-size="10.00">/home/runner/work/no</text>
<text text-anchor="start" x="34" y="-23.5" font-family="Helvetica,sans-Serif" font-size="10.00">&#45;OS/no&#45;OS/drivers/adc</text>
<text text-anchor="middle" x="88" y="-12.5" font-family="Helvetica,sans-Serif" font-size="10.00">/ad4692/iio_ad4692.c</text>
</a>
</g>
</g>
<!-- Node1&#45;&gt;Node3 -->
<g id="edge2_Node000001_Node000003" class="edge">
<title>Node1&#45;&gt;Node3</title>
<g id="a_edge2_Node000001_Node000003"><a xlink:title=" ">
<path fill="none" stroke="#63b8ff" d="M178.68,-156.07C166.08,-136.71 148.82,-110.61 133,-88 123.19,-73.98 111.74,-58.47 102.84,-46.6"/>
<polygon fill="#63b8ff" stroke="#63b8ff" points="175.91,-158.23 184.29,-164.72 181.78,-154.42 175.91,-158.23"/>
</a>
</g>
</g>
<!-- Node4 -->
<g id="Node000004" class="node">
<title>Node4</title>
<g id="a_Node000004"><a xlink:href="iio__ad4692_8h.html" target="_top" xlink:title="Header file of ad4692 IIO driver.">
<polygon fill="white" stroke="#666666" points="304,-129 180,-129 180,-88 304,-88 304,-129"/>
<text text-anchor="start" x="188" y="-117" font-family="Helvetica,sans-Serif" font-size="10.00">/home/runner/work/no</text>
<text text-anchor="start" x="188" y="-106" font-family="Helvetica,sans-Serif" font-size="10.00">&#45;OS/no&#45;OS/drivers/adc</text>
<text text-anchor="middle" x="242" y="-95" font-family="Helvetica,sans-Serif" font-size="10.00">/ad4692/iio_ad4692.h</text>
</a>
</g>
</g>
<!-- Node1&#45;&gt;Node4 -->
<g id="edge3_Node000001_Node000004" class="edge">
<title>Node1&#45;&gt;Node4</title>
<g id="a_edge3_Node000001_Node000004"><a xlink:title=" ">
<path fill="none" stroke="#63b8ff" d="M214.03,-156.11C219.44,-147.09 225.3,-137.33 230.26,-129.07"/>
<polygon fill="#63b8ff" stroke="#63b8ff" points="210.97,-154.42 208.82,-164.79 216.97,-158.02 210.97,-154.42"/>
</a>
</g>
</g>
<!-- Node7 -->
<g id="Node000007" class="node">
<title>Node7</title>
<g id="a_Node000007"><a xlink:href="ad4692__ardz_2src_2common_2common__data_8h.html" target="_top" xlink:title="Defines common data to be used by ad469x examples.">
<polygon fill="white" stroke="#666666" points="607,-129 419,-129 419,-88 607,-88 607,-129"/>
<text text-anchor="start" x="427" y="-117" font-family="Helvetica,sans-Serif" font-size="10.00">/home/runner/work/no</text>
<text text-anchor="start" x="427" y="-106" font-family="Helvetica,sans-Serif" font-size="10.00">&#45;OS/no&#45;OS/projects/ad4692</text>
<text text-anchor="middle" x="513" y="-95" font-family="Helvetica,sans-Serif" font-size="10.00">_ardz/src/common/common_data.h</text>
</a>
</g>
</g>
<!-- Node1&#45;&gt;Node7 -->
<g id="edge7_Node000001_Node000007" class="edge">
<title>Node1&#45;&gt;Node7</title>
<g id="a_edge7_Node000001_Node000007"><a xlink:title=" ">
<path fill="none" stroke="#63b8ff" d="M269.08,-167.39C317.21,-155.97 380.63,-140.92 430.73,-129.03"/>
<polygon fill="#63b8ff" stroke="#63b8ff" points="267.98,-164.06 259.05,-169.77 269.59,-170.87 267.98,-164.06"/>
</a>
</g>
</g>
<!-- Node4&#45;&gt;Node3 -->
<g id="edge4_Node000004_Node000003" class="edge">
<title>Node4&#45;&gt;Node3</title>
<g id="a_edge4_Node000004_Node000003"><a xlink:title=" ">
<path fill="none" stroke="#63b8ff" d="M195.34,-83.11C172.99,-71.43 146.58,-57.62 125.55,-46.63"/>
<polygon fill="#63b8ff" stroke="#63b8ff" points="193.84,-86.28 204.33,-87.81 197.09,-80.07 193.84,-86.28"/>
</a>
</g>
</g>
<!-- Node5 -->
<g id="Node000005" class="node">
<title>Node5</title>
<g id="a_Node000005"><a xlink:href="ad4692__ardz_2src_2examples_2iio_2iio__example_8c.html" target="_top" xlink:title="Source file for iio example.">
<polygon fill="white" stroke="#666666" points="315.5,-52 168.5,-52 168.5,0 315.5,0 315.5,-52"/>
<text text-anchor="start" x="176.5" y="-40" font-family="Helvetica,sans-Serif" font-size="10.00">/home/runner/work/no</text>
<text text-anchor="start" x="176.5" y="-29" font-family="Helvetica,sans-Serif" font-size="10.00">&#45;OS/no&#45;OS/projects/ad4692</text>
<text text-anchor="start" x="176.5" y="-18" font-family="Helvetica,sans-Serif" font-size="10.00">_ardz/src/examples/iio/iio</text>
<text text-anchor="middle" x="242" y="-7" font-family="Helvetica,sans-Serif" font-size="10.00">_example.c</text>
</a>
</g>
</g>
<!-- Node4&#45;&gt;Node5 -->
<g id="edge5_Node000004_Node000005" class="edge">
<title>Node4&#45;&gt;Node5</title>
<g id="a_edge5_Node000004_Node000005"><a xlink:title=" ">
<path fill="none" stroke="#63b8ff" d="M242,-77.49C242,-69.15 242,-60.19 242,-52.16"/>
<polygon fill="#63b8ff" stroke="#63b8ff" points="238.5,-77.6 242,-87.6 245.5,-77.6 238.5,-77.6"/>
</a>
</g>
</g>
<!-- Node6 -->
<g id="Node000006" class="node">
<title>Node6</title>
<g id="a_Node000006"><a xlink:href="ad4692__ardz_2src_2examples_2iio__trigger_2iio__trigger__example_8c.html" target="_top" xlink:title="Implementation of IIO trigger example for AD4692 project.">
<polygon fill="white" stroke="#666666" points="498,-52 334,-52 334,0 498,0 498,-52"/>
<text text-anchor="start" x="342" y="-40" font-family="Helvetica,sans-Serif" font-size="10.00">/home/runner/work/no</text>
<text text-anchor="start" x="342" y="-29" font-family="Helvetica,sans-Serif" font-size="10.00">&#45;OS/no&#45;OS/projects/ad4692</text>
<text text-anchor="start" x="342" y="-18" font-family="Helvetica,sans-Serif" font-size="10.00">_ardz/src/examples/iio_trigger</text>
<text text-anchor="middle" x="416" y="-7" font-family="Helvetica,sans-Serif" font-size="10.00">/iio_trigger_example.c</text>
</a>
</g>
</g>
<!-- Node4&#45;&gt;Node6 -->
<g id="edge6_Node000004_Node000006" class="edge">
<title>Node4&#45;&gt;Node6</title>
<g id="a_edge6_Node000004_Node000006"><a xlink:title=" ">
<path fill="none" stroke="#63b8ff" d="M293.82,-83.53C315.22,-73.63 340.03,-62.14 361.69,-52.13"/>
<polygon fill="#63b8ff" stroke="#63b8ff" points="292.17,-80.43 284.57,-87.81 295.11,-86.79 292.17,-80.43"/>
</a>
</g>
</g>
<!-- Node8 -->
<g id="Node000008" class="node">
<title>Node8</title>
<g id="a_Node000008"><a xlink:href="ad4692__ardz_2src_2common_2common__data_8c.html" target="_top" xlink:title="Defines common data to be used by ad469x examples.">
<polygon fill="white" stroke="#666666" points="703.5,-46.5 516.5,-46.5 516.5,-5.5 703.5,-5.5 703.5,-46.5"/>
<text text-anchor="start" x="524.5" y="-34.5" font-family="Helvetica,sans-Serif" font-size="10.00">/home/runner/work/no</text>
<text text-anchor="start" x="524.5" y="-23.5" font-family="Helvetica,sans-Serif" font-size="10.00">&#45;OS/no&#45;OS/projects/ad4692</text>
<text text-anchor="middle" x="610" y="-12.5" font-family="Helvetica,sans-Serif" font-size="10.00">_ardz/src/common/common_data.c</text>
</a>
</g>
</g>
<!-- Node7&#45;&gt;Node8 -->
<g id="edge8_Node000007_Node000008" class="edge">
<title>Node7&#45;&gt;Node8</title>
<g id="a_edge8_Node000007_Node000008"><a xlink:title=" ">
<path fill="none" stroke="#63b8ff" d="M544.68,-81.21C558.23,-69.96 573.77,-57.06 586.3,-46.67"/>
<polygon fill="#63b8ff" stroke="#63b8ff" points="542.44,-78.52 536.98,-87.6 546.91,-83.91 542.44,-78.52"/>
</a>
</g>
</g>
</g>
</svg>
