<?xml version="1.0" encoding="UTF-8" standalone="no"?>
<!DOCTYPE svg PUBLIC "-//W3C//DTD SVG 1.1//EN"
 "http://www.w3.org/Graphics/SVG/1.1/DTD/svg11.dtd">
<!-- Generated by graphviz version 2.43.0 (0)
 -->
<!-- Title: /home/runner/work/no&#45;OS/no&#45;OS/drivers/adc/ad4692/ad4692.c Pages: 1 -->
<svg width="862pt" height="214pt"
 viewBox="0.00 0.00 862.27 214.00" xmlns="http://www.w3.org/2000/svg" xmlns:xlink="http://www.w3.org/1999/xlink">
<g id="graph0" class="graph" transform="scale(1 1) rotate(0) translate(4 210)">
<title>/home/runner/work/no&#45;OS/no&#45;OS/drivers/adc/ad4692/ad4692.c</title>
<!-- Node1 -->
<g id="Node000001" class="node">
<title>Node1</title>
<g id="a_Node000001"><a xlink:title="Implementation of ad4692 Driver.">
<polygon fill="#999999" stroke="#666666" points="367.5,-206 243.5,-206 243.5,-165 367.5,-165 367.5,-206"/>
<text text-anchor="start" x="251.5" y="-194" font-family="Helvetica,sans-Serif" font-size="10.00">/home/runner/work/no</text>
<text text-anchor="start" x="251.5" y="-183" font-family="Helvetica,sans-Serif" font-size="10.00">&#45;OS/no&#45;OS/drivers/adc</text>
<text text-anchor="middle" x="305.5" y="-172" font-family="Helvetica,sans-Serif" font-size="10.00">/ad4692/ad4692.c</text>
</a>
</g>
</g>
<!-- Node2 -->
<g id="Node000002" class="node">
<title>Node2</title>
<g id="a_Node000002"><a xlink:href="errno_8h.html" target="_top" xlink:title="Error macro definition for ARM Compiler.">
<polygon fill="white" stroke="#666666" points="51,-74 0,-74 0,-55 51,-55 51,-74"/>
<text text-anchor="middle" x="25.5" y="-62" font-family="Helvetica,sans-Serif" font-size="10.00">errno.h</text>
</a>
</g>
</g>
<!-- Node1&#45;&gt;Node2 -->
<g id="edge1_Node000001_Node000002" class="edge">
<title>Node1&#45;&gt;Node2</title>
<g id="a_edge1_Node000001_Node000002"><a xlink:title=" ">
<path fill="none" stroke="#63b8ff" d="M243.46,-181.88C165.58,-177.14 38.63,-164.1 9.5,-129 -1.24,-116.06 5.77,-96.88 13.6,-82.99"/>
<polygon fill="#63b8ff" stroke="#63b8ff" points="16.66,-84.7 18.95,-74.36 10.71,-81.02 16.66,-84.7"/>
</a>
</g>
</g>
<!-- Node3 -->
<g id="Node000003" class="node">
<title>Node3</title>
<g id="a_Node000003"><a xlink:title=" ">
<polygon fill="#e0e0e0" stroke="#999999" points="172,-129 119,-129 119,-110 172,-110 172,-129"/>
<text text-anchor="middle" x="145.5" y="-117" font-family="Helvetica,sans-Serif" font-size="10.00">string.h</text>
</a>
</g>
</g>
<!-- Node1&#45;&gt;Node3 -->
<g id="edge2_Node000001_Node000003" class="edge">
<title>Node1&#45;&gt;Node3</title>
<g id="a_edge2_Node000001_Node000003"><a xlink:title=" ">
<path fill="none" stroke="#63b8ff" d="M256.63,-164.95C230.53,-154.51 199.19,-141.98 176.46,-132.88"/>
<polygon fill="#63b8ff" stroke="#63b8ff" points="177.56,-129.56 166.98,-129.09 174.96,-136.06 177.56,-129.56"/>
</a>
</g>
</g>
<!-- Node4 -->
<g id="Node000004" class="node">
<title>Node4</title>
<g id="a_Node000004"><a xlink:title=" ">
<polygon fill="#e0e0e0" stroke="#999999" points="233.5,-74 183.5,-74 183.5,-55 233.5,-55 233.5,-74"/>
<text text-anchor="middle" x="208.5" y="-62" font-family="Helvetica,sans-Serif" font-size="10.00">stdio.h</text>
</a>
</g>
</g>
<!-- Node1&#45;&gt;Node4 -->
<g id="edge3_Node000001_Node000004" class="edge">
<title>Node1&#45;&gt;Node4</title>
<g id="a_edge3_Node000001_Node000004"><a xlink:title=" ">
<path fill="none" stroke="#63b8ff" d="M260.44,-164.82C245.19,-156 229.5,-144.12 219.5,-129 210.72,-115.73 208.3,-97.61 207.88,-84.13"/>
<polygon fill="#63b8ff" stroke="#63b8ff" points="211.38,-84.1 207.91,-74.09 204.38,-84.08 211.38,-84.1"/>
</a>
</g>
</g>
<!-- Node5 -->
<g id="Node000005" class="node">
<title>Node5</title>
<g id="a_Node000005"><a xlink:title=" ">
<polygon fill="#e0e0e0" stroke="#999999" points="339,-19 286,-19 286,0 339,0 339,-19"/>
<text text-anchor="middle" x="312.5" y="-7" font-family="Helvetica,sans-Serif" font-size="10.00">stdlib.h</text>
</a>
</g>
</g>
<!-- Node1&#45;&gt;Node5 -->
<g id="edge4_Node000001_Node000005" class="edge">
<title>Node1&#45;&gt;Node5</title>
<g id="a_edge4_Node000001_Node000005"><a xlink:title=" ">
<path fill="none" stroke="#63b8ff" d="M312.13,-164.98C315.36,-154.46 318.88,-141.17 320.5,-129 325.16,-93.87 319.96,-52.5 316.03,-29.1"/>
<polygon fill="#63b8ff" stroke="#63b8ff" points="319.46,-28.39 314.26,-19.16 312.57,-29.62 319.46,-28.39"/>
</a>
</g>
</g>
<!-- Node6 -->
<g id="Node000006" class="node">
<title>Node6</title>
<g id="a_Node000006"><a xlink:href="ad4692_8h.html" target="_top" xlink:title="Header file for ad4692 Driver.">
<polygon fill="white" stroke="#666666" points="510.5,-129 448.5,-129 448.5,-110 510.5,-110 510.5,-129"/>
<text text-anchor="middle" x="479.5" y="-117" font-family="Helvetica,sans-Serif" font-size="10.00">ad4692.h</text>
</a>
</g>
</g>
<!-- Node1&#45;&gt;Node6 -->
<g id="edge5_Node000001_Node000006" class="edge">
<title>Node1&#45;&gt;Node6</title>
<g id="a_edge5_Node000001_Node000006"><a xlink:title=" ">
<path fill="none" stroke="#63b8ff" d="M358.65,-164.95C387.29,-154.42 421.72,-141.75 446.49,-132.64"/>
<polygon fill="#63b8ff" stroke="#63b8ff" points="447.96,-135.83 456.14,-129.09 445.55,-129.26 447.96,-135.83"/>
</a>
</g>
</g>
<!-- Node8 -->
<g id="Node000008" class="node">
<title>Node8</title>
<g id="a_Node000008"><a xlink:href="no__os__util_8h.html" target="_top" xlink:title="Header file of utility functions.">
<polygon fill="white" stroke="#666666" points="416,-74 341,-74 341,-55 416,-55 416,-74"/>
<text text-anchor="middle" x="378.5" y="-62" font-family="Helvetica,sans-Serif" font-size="10.00">no_os_util.h</text>
</a>
</g>
</g>
<!-- Node1&#45;&gt;Node8 -->
<g id="edge24_Node000001_Node000008" class="edge">
<title>Node1&#45;&gt;Node8</title>
<g id="a_edge24_Node000001_Node000008"><a xlink:title=" ">
<path fill="none" stroke="#63b8ff" d="M326.04,-164.83C335.65,-154.8 346.67,-141.99 354.5,-129 363.05,-114.8 369.45,-97.04 373.48,-83.92"/>
<polygon fill="#63b8ff" stroke="#63b8ff" points="376.89,-84.74 376.31,-74.16 370.16,-82.8 376.89,-84.74"/>
</a>
</g>
</g>
<!-- Node14 -->
<g id="Node000014" class="node">
<title>Node14</title>
<g id="a_Node000014"><a xlink:href="no__os__delay_8h.html" target="_top" xlink:title="Header file of Delay functions.">
<polygon fill="white" stroke="#666666" points="614,-129 529,-129 529,-110 614,-110 614,-129"/>
<text text-anchor="middle" x="571.5" y="-117" font-family="Helvetica,sans-Serif" font-size="10.00">no_os_delay.h</text>
</a>
</g>
</g>
<!-- Node1&#45;&gt;Node14 -->
<g id="edge20_Node000001_Node000014" class="edge">
<title>Node1&#45;&gt;Node14</title>
<g id="a_edge20_Node000001_Node000014"><a xlink:title=" ">
<path fill="none" stroke="#63b8ff" d="M367.53,-169.58C416.1,-157.89 482.52,-141.91 526.19,-131.4"/>
<polygon fill="#63b8ff" stroke="#63b8ff" points="527.06,-134.79 535.96,-129.05 525.42,-127.99 527.06,-134.79"/>
</a>
</g>
</g>
<!-- Node15 -->
<g id="Node000015" class="node">
<title>Node15</title>
<g id="a_Node000015"><a xlink:href="no__os__error_8h.html" target="_top" xlink:title="Error codes definition.">
<polygon fill="white" stroke="#666666" points="100.5,-129 18.5,-129 18.5,-110 100.5,-110 100.5,-129"/>
<text text-anchor="middle" x="59.5" y="-117" font-family="Helvetica,sans-Serif" font-size="10.00">no_os_error.h</text>
</a>
</g>
</g>
<!-- Node1&#45;&gt;Node15 -->
<g id="edge22_Node000001_Node000015" class="edge">
<title>Node1&#45;&gt;Node15</title>
<g id="a_edge22_Node000001_Node000015"><a xlink:title=" ">
<path fill="none" stroke="#63b8ff" d="M243.42,-168.35C199.39,-156.89 141.42,-141.81 102.44,-131.67"/>
<polygon fill="#63b8ff" stroke="#63b8ff" points="103.02,-128.21 92.46,-129.08 101.26,-134.98 103.02,-128.21"/>
</a>
</g>
</g>
<!-- Node16 -->
<g id="Node000016" class="node">
<title>Node16</title>
<g id="a_Node000016"><a xlink:href="no__os__alloc_8h.html" target="_top" xlink:title=" ">
<polygon fill="white" stroke="#666666" points="312,-129 229,-129 229,-110 312,-110 312,-129"/>
<text text-anchor="middle" x="270.5" y="-117" font-family="Helvetica,sans-Serif" font-size="10.00">no_os_alloc.h</text>
</a>
</g>
</g>
<!-- Node1&#45;&gt;Node16 -->
<g id="edge25_Node000001_Node000016" class="edge">
<title>Node1&#45;&gt;Node16</title>
<g id="a_edge25_Node000001_Node000016"><a xlink:title=" ">
<path fill="none" stroke="#63b8ff" d="M294.81,-164.95C290.13,-156.39 284.68,-146.42 280.12,-138.1"/>
<polygon fill="#63b8ff" stroke="#63b8ff" points="283.16,-136.35 275.29,-129.26 277.02,-139.71 283.16,-136.35"/>
</a>
</g>
</g>
<!-- Node17 -->
<g id="Node000017" class="node">
<title>Node17</title>
<g id="a_Node000017"><a xlink:href="no__os__units_8h.html" target="_top" xlink:title="Header file of Units.">
<polygon fill="white" stroke="#666666" points="715,-129 632,-129 632,-110 715,-110 715,-129"/>
<text text-anchor="middle" x="673.5" y="-117" font-family="Helvetica,sans-Serif" font-size="10.00">no_os_units.h</text>
</a>
</g>
</g>
<!-- Node1&#45;&gt;Node17 -->
<g id="edge28_Node000001_Node000017" class="edge">
<title>Node1&#45;&gt;Node17</title>
<g id="a_edge28_Node000001_Node000017"><a xlink:title=" ">
<path fill="none" stroke="#63b8ff" d="M367.51,-173.72C439.01,-161.28 555.25,-141.06 621.99,-129.46"/>
<polygon fill="#63b8ff" stroke="#63b8ff" points="622.61,-132.9 631.86,-127.74 621.41,-126.01 622.61,-132.9"/>
</a>
</g>
</g>
<!-- Node7 -->
<g id="Node000007" class="node">
<title>Node7</title>
<g id="a_Node000007"><a xlink:title=" ">
<polygon fill="#e0e0e0" stroke="#999999" points="475.5,-19 413.5,-19 413.5,0 475.5,0 475.5,-19"/>
<text text-anchor="middle" x="444.5" y="-7" font-family="Helvetica,sans-Serif" font-size="10.00">stdbool.h</text>
</a>
</g>
</g>
<!-- Node6&#45;&gt;Node7 -->
<g id="edge6_Node000006_Node000007" class="edge">
<title>Node6&#45;&gt;Node7</title>
<g id="a_edge6_Node000006_Node000007"><a xlink:title=" ">
<path fill="none" stroke="#63b8ff" d="M476.17,-109.68C472.83,-100.74 467.61,-86.48 463.5,-74 458.55,-58.95 453.43,-41.72 449.75,-29.01"/>
<polygon fill="#63b8ff" stroke="#63b8ff" points="453.05,-27.82 446.93,-19.17 446.32,-29.75 453.05,-27.82"/>
</a>
</g>
</g>
<!-- Node6&#45;&gt;Node8 -->
<g id="edge7_Node000006_Node000008" class="edge">
<title>Node6&#45;&gt;Node8</title>
<g id="a_edge7_Node000006_Node000008"><a xlink:title=" ">
<path fill="none" stroke="#63b8ff" d="M463.27,-109.98C447.32,-101.61 422.72,-88.7 404.12,-78.95"/>
<polygon fill="#63b8ff" stroke="#63b8ff" points="405.5,-75.72 395.02,-74.17 402.25,-81.92 405.5,-75.72"/>
</a>
</g>
</g>
<!-- Node10 -->
<g id="Node000010" class="node">
<title>Node10</title>
<g id="a_Node000010"><a xlink:href="no__os__pwm_8h.html" target="_top" xlink:title="Header file of PWM Interface.">
<polygon fill="white" stroke="#666666" points="556,-74 473,-74 473,-55 556,-55 556,-74"/>
<text text-anchor="middle" x="514.5" y="-62" font-family="Helvetica,sans-Serif" font-size="10.00">no_os_pwm.h</text>
</a>
</g>
</g>
<!-- Node6&#45;&gt;Node10 -->
<g id="edge11_Node000006_Node000010" class="edge">
<title>Node6&#45;&gt;Node10</title>
<g id="a_edge11_Node000006_Node000010"><a xlink:title=" ">
<path fill="none" stroke="#63b8ff" d="M485.28,-109.75C490.12,-102.42 497.18,-91.73 503.14,-82.7"/>
<polygon fill="#63b8ff" stroke="#63b8ff" points="506.24,-84.36 508.83,-74.09 500.4,-80.5 506.24,-84.36"/>
</a>
</g>
</g>
<!-- Node11 -->
<g id="Node000011" class="node">
<title>Node11</title>
<g id="a_Node000011"><a xlink:href="no__os__spi_8h.html" target="_top" xlink:title="Header file of SPI Interface.">
<polygon fill="white" stroke="#666666" points="648.5,-74 574.5,-74 574.5,-55 648.5,-55 648.5,-74"/>
<text text-anchor="middle" x="611.5" y="-62" font-family="Helvetica,sans-Serif" font-size="10.00">no_os_spi.h</text>
</a>
</g>
</g>
<!-- Node6&#45;&gt;Node11 -->
<g id="edge14_Node000006_Node000011" class="edge">
<title>Node6&#45;&gt;Node11</title>
<g id="a_edge14_Node000006_Node000011"><a xlink:title=" ">
<path fill="none" stroke="#63b8ff" d="M500.71,-109.98C522.23,-101.34 555.78,-87.87 580.33,-78.02"/>
<polygon fill="#63b8ff" stroke="#63b8ff" points="581.93,-81.14 589.91,-74.17 579.32,-74.65 581.93,-81.14"/>
</a>
</g>
</g>
<!-- Node12 -->
<g id="Node000012" class="node">
<title>Node12</title>
<g id="a_Node000012"><a xlink:href="no__os__gpio_8h.html" target="_top" xlink:title="Header file of GPIO Interface.">
<polygon fill="white" stroke="#666666" points="746.5,-74 666.5,-74 666.5,-55 746.5,-55 746.5,-74"/>
<text text-anchor="middle" x="706.5" y="-62" font-family="Helvetica,sans-Serif" font-size="10.00">no_os_gpio.h</text>
</a>
</g>
</g>
<!-- Node6&#45;&gt;Node12 -->
<g id="edge16_Node000006_Node000012" class="edge">
<title>Node6&#45;&gt;Node12</title>
<g id="a_edge16_Node000006_Node000012"><a xlink:title=" ">
<path fill="none" stroke="#63b8ff" d="M510.59,-111.24C549.11,-102.25 615.13,-86.83 659.76,-76.41"/>
<polygon fill="#63b8ff" stroke="#63b8ff" points="660.84,-79.75 669.78,-74.07 659.25,-72.94 660.84,-79.75"/>
</a>
</g>
</g>
<!-- Node13 -->
<g id="Node000013" class="node">
<title>Node13</title>
<g id="a_Node000013"><a xlink:href="no__os__irq_8h.html" target="_top" xlink:title="Header file of IRQ interface.">
<polygon fill="white" stroke="#666666" points="836.5,-74 764.5,-74 764.5,-55 836.5,-55 836.5,-74"/>
<text text-anchor="middle" x="800.5" y="-62" font-family="Helvetica,sans-Serif" font-size="10.00">no_os_irq.h</text>
</a>
</g>
</g>
<!-- Node6&#45;&gt;Node13 -->
<g id="edge18_Node000006_Node000013" class="edge">
<title>Node6&#45;&gt;Node13</title>
<g id="a_edge18_Node000006_Node000013"><a xlink:title=" ">
<path fill="none" stroke="#63b8ff" d="M510.91,-111.65C513.81,-111.07 516.71,-110.51 519.5,-110 620.72,-91.54 649.2,-91.81 754.12,-74.18"/>
<polygon fill="#63b8ff" stroke="#63b8ff" points="754.9,-77.6 764.17,-72.48 753.73,-70.7 754.9,-77.6"/>
</a>
</g>
</g>
<!-- Node8&#45;&gt;Node5 -->
<g id="edge9_Node000008_Node000005" class="edge">
<title>Node8&#45;&gt;Node5</title>
<g id="a_edge9_Node000008_Node000005"><a xlink:title=" ">
<path fill="none" stroke="#63b8ff" d="M367.9,-54.98C358.04,-47.07 343.15,-35.11 331.28,-25.58"/>
<polygon fill="#63b8ff" stroke="#63b8ff" points="333.29,-22.7 323.3,-19.17 328.9,-28.16 333.29,-22.7"/>
</a>
</g>
</g>
<!-- Node8&#45;&gt;Node7 -->
<g id="edge10_Node000008_Node000007" class="edge">
<title>Node8&#45;&gt;Node7</title>
<g id="a_edge10_Node000008_Node000007"><a xlink:title=" ">
<path fill="none" stroke="#63b8ff" d="M389.1,-54.98C398.96,-47.07 413.85,-35.11 425.72,-25.58"/>
<polygon fill="#63b8ff" stroke="#63b8ff" points="428.1,-28.16 433.7,-19.17 423.71,-22.7 428.1,-28.16"/>
</a>
</g>
</g>
<!-- Node9 -->
<g id="Node000009" class="node">
<title>Node9</title>
<g id="a_Node000009"><a xlink:title=" ">
<polygon fill="#e0e0e0" stroke="#999999" points="685,-19 632,-19 632,0 685,0 685,-19"/>
<text text-anchor="middle" x="658.5" y="-7" font-family="Helvetica,sans-Serif" font-size="10.00">stdint.h</text>
</a>
</g>
</g>
<!-- Node8&#45;&gt;Node9 -->
<g id="edge8_Node000008_Node000009" class="edge">
<title>Node8&#45;&gt;Node9</title>
<g id="a_edge8_Node000008_Node000009"><a xlink:title=" ">
<path fill="none" stroke="#63b8ff" d="M416.26,-56.35C470.14,-46.15 568.44,-27.55 621.75,-17.46"/>
<polygon fill="#63b8ff" stroke="#63b8ff" points="622.61,-20.85 631.79,-15.56 621.31,-13.98 622.61,-20.85"/>
</a>
</g>
</g>
<!-- Node10&#45;&gt;Node7 -->
<g id="edge13_Node000010_Node000007" class="edge">
<title>Node10&#45;&gt;Node7</title>
<g id="a_edge13_Node000010_Node000007"><a xlink:title=" ">
<path fill="none" stroke="#63b8ff" d="M503.25,-54.98C492.7,-47 476.7,-34.88 464.06,-25.31"/>
<polygon fill="#63b8ff" stroke="#63b8ff" points="466.04,-22.42 455.95,-19.17 461.81,-28 466.04,-22.42"/>
</a>
</g>
</g>
<!-- Node10&#45;&gt;Node9 -->
<g id="edge12_Node000010_Node000009" class="edge">
<title>Node10&#45;&gt;Node9</title>
<g id="a_edge12_Node000010_Node000009"><a xlink:title=" ">
<path fill="none" stroke="#63b8ff" d="M537.64,-54.98C561.32,-46.27 598.37,-32.63 625.21,-22.75"/>
<polygon fill="#63b8ff" stroke="#63b8ff" points="626.77,-25.91 634.94,-19.17 624.35,-19.34 626.77,-25.91"/>
</a>
</g>
</g>
<!-- Node11&#45;&gt;Node9 -->
<g id="edge15_Node000011_Node000009" class="edge">
<title>Node11&#45;&gt;Node9</title>
<g id="a_edge15_Node000011_Node000009"><a xlink:title=" ">
<path fill="none" stroke="#63b8ff" d="M619.26,-54.75C625.97,-47.18 635.84,-36.05 644.01,-26.84"/>
<polygon fill="#63b8ff" stroke="#63b8ff" points="646.87,-28.89 650.88,-19.09 641.63,-24.25 646.87,-28.89"/>
</a>
</g>
</g>
<!-- Node12&#45;&gt;Node9 -->
<g id="edge17_Node000012_Node000009" class="edge">
<title>Node12&#45;&gt;Node9</title>
<g id="a_edge17_Node000012_Node000009"><a xlink:title=" ">
<path fill="none" stroke="#63b8ff" d="M698.57,-54.75C691.65,-47.11 681.43,-35.82 673.05,-26.56"/>
<polygon fill="#63b8ff" stroke="#63b8ff" points="675.59,-24.15 666.28,-19.09 670.4,-28.85 675.59,-24.15"/>
</a>
</g>
</g>
<!-- Node13&#45;&gt;Node9 -->
<g id="edge19_Node000013_Node000009" class="edge">
<title>Node13&#45;&gt;Node9</title>
<g id="a_edge19_Node000013_Node000009"><a xlink:title=" ">
<path fill="none" stroke="#63b8ff" d="M777.69,-54.98C754.33,-46.27 717.8,-32.63 691.33,-22.75"/>
<polygon fill="#63b8ff" stroke="#63b8ff" points="692.32,-19.39 681.73,-19.17 689.87,-25.95 692.32,-19.39"/>
</a>
</g>
</g>
<!-- Node14&#45;&gt;Node9 -->
<g id="edge21_Node000014_Node000009" class="edge">
<title>Node14&#45;&gt;Node9</title>
<g id="a_edge21_Node000014_Node000009"><a xlink:title=" ">
<path fill="none" stroke="#63b8ff" d="M614.07,-111.39C616.93,-110.92 619.75,-110.45 622.5,-110 672.04,-101.87 812.96,-112.22 845.5,-74 888.24,-23.8 761.26,-13.19 695.42,-11.01"/>
<polygon fill="#63b8ff" stroke="#63b8ff" points="695.12,-7.5 685.03,-10.72 694.93,-14.5 695.12,-7.5"/>
</a>
</g>
</g>
<!-- Node15&#45;&gt;Node2 -->
<g id="edge23_Node000015_Node000002" class="edge">
<title>Node15&#45;&gt;Node2</title>
<g id="a_edge23_Node000015_Node000002"><a xlink:title=" ">
<path fill="none" stroke="#63b8ff" d="M53.89,-109.75C49.18,-102.42 42.33,-91.73 36.53,-82.7"/>
<polygon fill="#63b8ff" stroke="#63b8ff" points="39.36,-80.62 31.01,-74.09 33.46,-84.4 39.36,-80.62"/>
</a>
</g>
</g>
<!-- Node16&#45;&gt;Node4 -->
<g id="edge26_Node000016_Node000004" class="edge">
<title>Node16&#45;&gt;Node4</title>
<g id="a_edge26_Node000016_Node000004"><a xlink:title=" ">
<path fill="none" stroke="#63b8ff" d="M260.54,-109.98C251.37,-102.15 237.56,-90.34 226.47,-80.86"/>
<polygon fill="#63b8ff" stroke="#63b8ff" points="228.52,-78.01 218.64,-74.17 223.97,-83.33 228.52,-78.01"/>
</a>
</g>
</g>
<!-- Node16&#45;&gt;Node5 -->
<g id="edge27_Node000016_Node000005" class="edge">
<title>Node16&#45;&gt;Node5</title>
<g id="a_edge27_Node000016_Node000005"><a xlink:title=" ">
<path fill="none" stroke="#63b8ff" d="M273.94,-109.66C280.8,-92.01 296.33,-52.09 305.45,-28.64"/>
<polygon fill="#63b8ff" stroke="#63b8ff" points="308.77,-29.75 309.13,-19.16 302.25,-27.21 308.77,-29.75"/>
</a>
</g>
</g>
</g>
</svg>
