<?xml version="1.0" encoding="UTF-8" standalone="no"?>
<!DOCTYPE svg PUBLIC "-//W3C//DTD SVG 1.1//EN"
 "http://www.w3.org/Graphics/SVG/1.1/DTD/svg11.dtd">
<!-- Generated by graphviz version 2.43.0 (0)
 -->
<!-- Title: /home/runner/work/no&#45;OS/no&#45;OS/drivers/adc&#45;dac/ad5592r/ad5592r&#45;base.h Pages: 1 -->
<svg width="647pt" height="159pt"
 viewBox="0.00 0.00 646.50 159.00" xmlns="http://www.w3.org/2000/svg" xmlns:xlink="http://www.w3.org/1999/xlink">
<g id="graph0" class="graph" transform="scale(1 1) rotate(0) translate(4 155)">
<title>/home/runner/work/no&#45;OS/no&#45;OS/drivers/adc&#45;dac/ad5592r/ad5592r&#45;base.h</title>
<!-- Node1 -->
<g id="Node000001" class="node">
<title>Node1</title>
<g id="a_Node000001"><a xlink:title="Header file of AD5592R Base Driver.">
<polygon fill="#999999" stroke="#666666" points="402.5,-151 243.5,-151 243.5,-110 402.5,-110 402.5,-151"/>
<text text-anchor="start" x="251.5" y="-139" font-family="Helvetica,sans-Serif" font-size="10.00">/home/runner/work/no</text>
<text text-anchor="start" x="251.5" y="-128" font-family="Helvetica,sans-Serif" font-size="10.00">&#45;OS/no&#45;OS/drivers/adc</text>
<text text-anchor="middle" x="323" y="-117" font-family="Helvetica,sans-Serif" font-size="10.00">&#45;dac/ad5592r/ad5592r&#45;base.h</text>
</a>
</g>
</g>
<!-- Node2 -->
<g id="Node000002" class="node">
<title>Node2</title>
<g id="a_Node000002"><a xlink:title=" ">
<polygon fill="#e0e0e0" stroke="#999999" points="254.5,-19 201.5,-19 201.5,0 254.5,0 254.5,-19"/>
<text text-anchor="middle" x="228" y="-7" font-family="Helvetica,sans-Serif" font-size="10.00">stdint.h</text>
</a>
</g>
</g>
<!-- Node1&#45;&gt;Node2 -->
<g id="edge1_Node000001_Node000002" class="edge">
<title>Node1&#45;&gt;Node2</title>
<g id="a_edge1_Node000001_Node000002"><a xlink:title=" ">
<path fill="none" stroke="#63b8ff" d="M243.47,-116.94C195.71,-107.59 141.48,-93.15 127,-74 106.33,-46.67 154.56,-28.14 191.27,-18.46"/>
<polygon fill="#63b8ff" stroke="#63b8ff" points="192.4,-21.78 201.25,-15.96 190.7,-14.99 192.4,-21.78"/>
</a>
</g>
</g>
<!-- Node3 -->
<g id="Node000003" class="node">
<title>Node3</title>
<g id="a_Node000003"><a xlink:href="no__os__delay_8h.html" target="_top" xlink:title="Header file of Delay functions.">
<polygon fill="white" stroke="#666666" points="221.5,-74 136.5,-74 136.5,-55 221.5,-55 221.5,-74"/>
<text text-anchor="middle" x="179" y="-62" font-family="Helvetica,sans-Serif" font-size="10.00">no_os_delay.h</text>
</a>
</g>
</g>
<!-- Node1&#45;&gt;Node3 -->
<g id="edge2_Node000001_Node000003" class="edge">
<title>Node1&#45;&gt;Node3</title>
<g id="a_edge2_Node000001_Node000003"><a xlink:title=" ">
<path fill="none" stroke="#63b8ff" d="M279.01,-109.95C255.84,-99.65 228.08,-87.31 207.7,-78.25"/>
<polygon fill="#63b8ff" stroke="#63b8ff" points="208.89,-74.95 198.33,-74.09 206.05,-81.35 208.89,-74.95"/>
</a>
</g>
</g>
<!-- Node4 -->
<g id="Node000004" class="node">
<title>Node4</title>
<g id="a_Node000004"><a xlink:href="no__os__spi_8h.html" target="_top" xlink:title="Header file of SPI Interface.">
<polygon fill="white" stroke="#666666" points="314,-74 240,-74 240,-55 314,-55 314,-74"/>
<text text-anchor="middle" x="277" y="-62" font-family="Helvetica,sans-Serif" font-size="10.00">no_os_spi.h</text>
</a>
</g>
</g>
<!-- Node1&#45;&gt;Node4 -->
<g id="edge4_Node000001_Node000004" class="edge">
<title>Node1&#45;&gt;Node4</title>
<g id="a_edge4_Node000001_Node000004"><a xlink:title=" ">
<path fill="none" stroke="#63b8ff" d="M308.95,-109.95C302.66,-101.2 295.32,-90.99 289.26,-82.56"/>
<polygon fill="#63b8ff" stroke="#63b8ff" points="291.98,-80.34 283.3,-74.26 286.29,-84.42 291.98,-80.34"/>
</a>
</g>
</g>
<!-- Node5 -->
<g id="Node000005" class="node">
<title>Node5</title>
<g id="a_Node000005"><a xlink:href="no__os__i2c_8h.html" target="_top" xlink:title="Header file of I2C Interface.">
<polygon fill="white" stroke="#666666" points="406,-74 332,-74 332,-55 406,-55 406,-74"/>
<text text-anchor="middle" x="369" y="-62" font-family="Helvetica,sans-Serif" font-size="10.00">no_os_i2c.h</text>
</a>
</g>
</g>
<!-- Node1&#45;&gt;Node5 -->
<g id="edge6_Node000001_Node000005" class="edge">
<title>Node1&#45;&gt;Node5</title>
<g id="a_edge6_Node000001_Node000005"><a xlink:title=" ">
<path fill="none" stroke="#63b8ff" d="M337.05,-109.95C343.34,-101.2 350.68,-90.99 356.74,-82.56"/>
<polygon fill="#63b8ff" stroke="#63b8ff" points="359.71,-84.42 362.7,-74.26 354.02,-80.34 359.71,-84.42"/>
</a>
</g>
</g>
<!-- Node6 -->
<g id="Node000006" class="node">
<title>Node6</title>
<g id="a_Node000006"><a xlink:href="no__os__gpio_8h.html" target="_top" xlink:title="Header file of GPIO Interface.">
<polygon fill="white" stroke="#666666" points="80,-74 0,-74 0,-55 80,-55 80,-74"/>
<text text-anchor="middle" x="40" y="-62" font-family="Helvetica,sans-Serif" font-size="10.00">no_os_gpio.h</text>
</a>
</g>
</g>
<!-- Node1&#45;&gt;Node6 -->
<g id="edge8_Node000001_Node000006" class="edge">
<title>Node1&#45;&gt;Node6</title>
<g id="a_edge8_Node000001_Node000006"><a xlink:title=" ">
<path fill="none" stroke="#63b8ff" d="M243.42,-111.5C193.17,-100.14 129.94,-85.84 87.43,-76.23"/>
<polygon fill="#63b8ff" stroke="#63b8ff" points="88.15,-72.8 77.62,-74.01 86.6,-79.63 88.15,-72.8"/>
</a>
</g>
</g>
<!-- Node7 -->
<g id="Node000007" class="node">
<title>Node7</title>
<g id="a_Node000007"><a xlink:href="no__os__util_8h.html" target="_top" xlink:title="Header file of utility functions.">
<polygon fill="white" stroke="#666666" points="537.5,-74 462.5,-74 462.5,-55 537.5,-55 537.5,-74"/>
<text text-anchor="middle" x="500" y="-62" font-family="Helvetica,sans-Serif" font-size="10.00">no_os_util.h</text>
</a>
</g>
</g>
<!-- Node1&#45;&gt;Node7 -->
<g id="edge10_Node000001_Node000007" class="edge">
<title>Node1&#45;&gt;Node7</title>
<g id="a_edge10_Node000001_Node000007"><a xlink:title=" ">
<path fill="none" stroke="#63b8ff" d="M377.07,-109.95C406.33,-99.37 441.53,-86.64 466.76,-77.52"/>
<polygon fill="#63b8ff" stroke="#63b8ff" points="468.02,-80.78 476.24,-74.09 465.64,-74.2 468.02,-80.78"/>
</a>
</g>
</g>
<!-- Node9 -->
<g id="Node000009" class="node">
<title>Node9</title>
<g id="a_Node000009"><a xlink:title=" ">
<polygon fill="#e0e0e0" stroke="#999999" points="469,-19 407,-19 407,0 469,0 469,-19"/>
<text text-anchor="middle" x="438" y="-7" font-family="Helvetica,sans-Serif" font-size="10.00">stdbool.h</text>
</a>
</g>
</g>
<!-- Node1&#45;&gt;Node9 -->
<g id="edge17_Node000001_Node000009" class="edge">
<title>Node1&#45;&gt;Node9</title>
<g id="a_edge17_Node000001_Node000009"><a xlink:title=" ">
<path fill="none" stroke="#63b8ff" d="M368.76,-109.89C385.19,-100.96 402.69,-88.99 415,-74 425.58,-61.12 431.51,-42.96 434.68,-29.35"/>
<polygon fill="#63b8ff" stroke="#63b8ff" points="438.18,-29.71 436.74,-19.22 431.32,-28.32 438.18,-29.71"/>
</a>
</g>
</g>
<!-- Node10 -->
<g id="Node000010" class="node">
<title>Node10</title>
<g id="a_Node000010"><a xlink:href="no__os__alloc_8h.html" target="_top" xlink:title=" ">
<polygon fill="white" stroke="#666666" points="638.5,-74 555.5,-74 555.5,-55 638.5,-55 638.5,-74"/>
<text text-anchor="middle" x="597" y="-62" font-family="Helvetica,sans-Serif" font-size="10.00">no_os_alloc.h</text>
</a>
</g>
</g>
<!-- Node1&#45;&gt;Node10 -->
<g id="edge14_Node000001_Node000010" class="edge">
<title>Node1&#45;&gt;Node10</title>
<g id="a_edge14_Node000001_Node000010"><a xlink:title=" ">
<path fill="none" stroke="#63b8ff" d="M402.62,-110.9C450.69,-99.67 510.26,-85.76 550.69,-76.32"/>
<polygon fill="#63b8ff" stroke="#63b8ff" points="551.6,-79.7 560.54,-74.02 550.01,-72.88 551.6,-79.7"/>
</a>
</g>
</g>
<!-- Node3&#45;&gt;Node2 -->
<g id="edge3_Node000003_Node000002" class="edge">
<title>Node3&#45;&gt;Node2</title>
<g id="a_edge3_Node000003_Node000002"><a xlink:title=" ">
<path fill="none" stroke="#63b8ff" d="M187.09,-54.75C194.16,-47.11 204.59,-35.82 213.15,-26.56"/>
<polygon fill="#63b8ff" stroke="#63b8ff" points="215.84,-28.81 220.06,-19.09 210.7,-24.06 215.84,-28.81"/>
</a>
</g>
</g>
<!-- Node4&#45;&gt;Node2 -->
<g id="edge5_Node000004_Node000002" class="edge">
<title>Node4&#45;&gt;Node2</title>
<g id="a_edge5_Node000004_Node000002"><a xlink:title=" ">
<path fill="none" stroke="#63b8ff" d="M268.91,-54.75C261.84,-47.11 251.41,-35.82 242.85,-26.56"/>
<polygon fill="#63b8ff" stroke="#63b8ff" points="245.3,-24.06 235.94,-19.09 240.16,-28.81 245.3,-24.06"/>
</a>
</g>
</g>
<!-- Node5&#45;&gt;Node2 -->
<g id="edge7_Node000005_Node000002" class="edge">
<title>Node5&#45;&gt;Node2</title>
<g id="a_edge7_Node000005_Node000002"><a xlink:title=" ">
<path fill="none" stroke="#63b8ff" d="M346.35,-54.98C323.15,-46.27 286.88,-32.63 260.6,-22.75"/>
<polygon fill="#63b8ff" stroke="#63b8ff" points="261.66,-19.41 251.07,-19.17 259.2,-25.97 261.66,-19.41"/>
</a>
</g>
</g>
<!-- Node6&#45;&gt;Node2 -->
<g id="edge9_Node000006_Node000002" class="edge">
<title>Node6&#45;&gt;Node2</title>
<g id="a_edge9_Node000006_Node000002"><a xlink:title=" ">
<path fill="none" stroke="#63b8ff" d="M70.21,-54.98C103.18,-45.69 155.97,-30.81 191.3,-20.85"/>
<polygon fill="#63b8ff" stroke="#63b8ff" points="192.54,-24.13 201.22,-18.05 190.64,-17.39 192.54,-24.13"/>
</a>
</g>
</g>
<!-- Node7&#45;&gt;Node2 -->
<g id="edge11_Node000007_Node000002" class="edge">
<title>Node7&#45;&gt;Node2</title>
<g id="a_edge11_Node000007_Node000002"><a xlink:title=" ">
<path fill="none" stroke="#63b8ff" d="M462.47,-56.19C410.25,-46.01 316.28,-27.7 264.58,-17.63"/>
<polygon fill="#63b8ff" stroke="#63b8ff" points="265.01,-14.15 254.52,-15.67 263.67,-21.02 265.01,-14.15"/>
</a>
</g>
</g>
<!-- Node8 -->
<g id="Node000008" class="node">
<title>Node8</title>
<g id="a_Node000008"><a xlink:title=" ">
<polygon fill="#e0e0e0" stroke="#999999" points="545.5,-19 492.5,-19 492.5,0 545.5,0 545.5,-19"/>
<text text-anchor="middle" x="519" y="-7" font-family="Helvetica,sans-Serif" font-size="10.00">stdlib.h</text>
</a>
</g>
</g>
<!-- Node7&#45;&gt;Node8 -->
<g id="edge12_Node000007_Node000008" class="edge">
<title>Node7&#45;&gt;Node8</title>
<g id="a_edge12_Node000007_Node000008"><a xlink:title=" ">
<path fill="none" stroke="#63b8ff" d="M503.14,-54.75C505.68,-47.65 509.36,-37.4 512.53,-28.56"/>
<polygon fill="#63b8ff" stroke="#63b8ff" points="515.84,-29.68 515.92,-19.09 509.25,-27.32 515.84,-29.68"/>
</a>
</g>
</g>
<!-- Node7&#45;&gt;Node9 -->
<g id="edge13_Node000007_Node000009" class="edge">
<title>Node7&#45;&gt;Node9</title>
<g id="a_edge13_Node000007_Node000009"><a xlink:title=" ">
<path fill="none" stroke="#63b8ff" d="M490.04,-54.98C480.87,-47.15 467.06,-35.34 455.97,-25.86"/>
<polygon fill="#63b8ff" stroke="#63b8ff" points="458.02,-23.01 448.14,-19.17 453.47,-28.33 458.02,-23.01"/>
</a>
</g>
</g>
<!-- Node10&#45;&gt;Node8 -->
<g id="edge16_Node000010_Node000008" class="edge">
<title>Node10&#45;&gt;Node8</title>
<g id="a_edge16_Node000010_Node000008"><a xlink:title=" ">
<path fill="none" stroke="#63b8ff" d="M584.47,-54.98C572.6,-46.92 554.54,-34.65 540.39,-25.03"/>
<polygon fill="#63b8ff" stroke="#63b8ff" points="542,-21.9 531.76,-19.17 538.06,-27.69 542,-21.9"/>
</a>
</g>
</g>
<!-- Node11 -->
<g id="Node000011" class="node">
<title>Node11</title>
<g id="a_Node000011"><a xlink:title=" ">
<polygon fill="#e0e0e0" stroke="#999999" points="622,-19 572,-19 572,0 622,0 622,-19"/>
<text text-anchor="middle" x="597" y="-7" font-family="Helvetica,sans-Serif" font-size="10.00">stdio.h</text>
</a>
</g>
</g>
<!-- Node10&#45;&gt;Node11 -->
<g id="edge15_Node000010_Node000011" class="edge">
<title>Node10&#45;&gt;Node11</title>
<g id="a_edge15_Node000010_Node000011"><a xlink:title=" ">
<path fill="none" stroke="#63b8ff" d="M597,-54.75C597,-47.8 597,-37.85 597,-29.13"/>
<polygon fill="#63b8ff" stroke="#63b8ff" points="600.5,-29.09 597,-19.09 593.5,-29.09 600.5,-29.09"/>
</a>
</g>
</g>
</g>
</svg>
