<?xml version="1.0" encoding="UTF-8" standalone="no"?>
<!DOCTYPE svg PUBLIC "-//W3C//DTD SVG 1.1//EN"
 "http://www.w3.org/Graphics/SVG/1.1/DTD/svg11.dtd">
<!-- Generated by graphviz version 2.43.0 (0)
 -->
<!-- Title: /home/runner/work/no&#45;OS/no&#45;OS/drivers/adc&#45;dac/ad5592r/ad5592r.h Pages: 1 -->
<svg width="665pt" height="214pt"
 viewBox="0.00 0.00 664.86 214.00" xmlns="http://www.w3.org/2000/svg" xmlns:xlink="http://www.w3.org/1999/xlink">
<g id="graph0" class="graph" transform="scale(1 1) rotate(0) translate(4 210)">
<title>/home/runner/work/no&#45;OS/no&#45;OS/drivers/adc&#45;dac/ad5592r/ad5592r.h</title>
<!-- Node1 -->
<g id="Node000001" class="node">
<title>Node1</title>
<g id="a_Node000001"><a xlink:title="Header file of AD5592R driver.">
<polygon fill="#999999" stroke="#666666" points="207.86,-206 76.86,-206 76.86,-165 207.86,-165 207.86,-206"/>
<text text-anchor="start" x="84.86" y="-194" font-family="Helvetica,sans-Serif" font-size="10.00">/home/runner/work/no</text>
<text text-anchor="start" x="84.86" y="-183" font-family="Helvetica,sans-Serif" font-size="10.00">&#45;OS/no&#45;OS/drivers/adc</text>
<text text-anchor="middle" x="142.36" y="-172" font-family="Helvetica,sans-Serif" font-size="10.00">&#45;dac/ad5592r/ad5592r.h</text>
</a>
</g>
</g>
<!-- Node2 -->
<g id="Node000002" class="node">
<title>Node2</title>
<g id="a_Node000002"><a xlink:title=" ">
<polygon fill="#e0e0e0" stroke="#999999" points="223.86,-19 170.86,-19 170.86,0 223.86,0 223.86,-19"/>
<text text-anchor="middle" x="197.36" y="-7" font-family="Helvetica,sans-Serif" font-size="10.00">stdint.h</text>
</a>
</g>
</g>
<!-- Node1&#45;&gt;Node2 -->
<g id="edge1_Node000001_Node000002" class="edge">
<title>Node1&#45;&gt;Node2</title>
<g id="a_edge1_Node000001_Node000002"><a xlink:title=" ">
<path fill="none" stroke="#63b8ff" d="M95.46,-164.81C44.76,-140.73 -24.53,-97.84 9.36,-55 27.86,-31.61 111.39,-19.24 160.67,-13.87"/>
<polygon fill="#63b8ff" stroke="#63b8ff" points="161.04,-17.35 170.63,-12.83 160.32,-10.39 161.04,-17.35"/>
</a>
</g>
</g>
<!-- Node3 -->
<g id="Node000003" class="node">
<title>Node3</title>
<g id="a_Node000003"><a xlink:href="ad5592r-base_8h.html" target="_top" xlink:title="Header file of AD5592R Base Driver.">
<polygon fill="white" stroke="#666666" points="341.36,-129 249.36,-129 249.36,-110 341.36,-110 341.36,-129"/>
<text text-anchor="middle" x="295.36" y="-117" font-family="Helvetica,sans-Serif" font-size="10.00">ad5592r&#45;base.h</text>
</a>
</g>
</g>
<!-- Node1&#45;&gt;Node3 -->
<g id="edge2_Node000001_Node000003" class="edge">
<title>Node1&#45;&gt;Node3</title>
<g id="a_edge2_Node000001_Node000003"><a xlink:title=" ">
<path fill="none" stroke="#63b8ff" d="M189.09,-164.95C213.94,-154.56 243.74,-142.09 265.46,-133.01"/>
<polygon fill="#63b8ff" stroke="#63b8ff" points="266.94,-136.18 274.82,-129.09 264.24,-129.72 266.94,-136.18"/>
</a>
</g>
</g>
<!-- Node3&#45;&gt;Node2 -->
<g id="edge3_Node000003_Node000002" class="edge">
<title>Node3&#45;&gt;Node2</title>
<g id="a_edge3_Node000003_Node000002"><a xlink:title=" ">
<path fill="none" stroke="#63b8ff" d="M249.21,-118.52C214.53,-115.79 169.08,-105.78 145.36,-74 132.28,-56.47 153.58,-37.14 172.73,-24.46"/>
<polygon fill="#63b8ff" stroke="#63b8ff" points="174.62,-27.4 181.25,-19.13 170.91,-21.47 174.62,-27.4"/>
</a>
</g>
</g>
<!-- Node4 -->
<g id="Node000004" class="node">
<title>Node4</title>
<g id="a_Node000004"><a xlink:href="no__os__delay_8h.html" target="_top" xlink:title="Header file of Delay functions.">
<polygon fill="white" stroke="#666666" points="239.86,-74 154.86,-74 154.86,-55 239.86,-55 239.86,-74"/>
<text text-anchor="middle" x="197.36" y="-62" font-family="Helvetica,sans-Serif" font-size="10.00">no_os_delay.h</text>
</a>
</g>
</g>
<!-- Node3&#45;&gt;Node4 -->
<g id="edge4_Node000003_Node000004" class="edge">
<title>Node3&#45;&gt;Node4</title>
<g id="a_edge4_Node000003_Node000004"><a xlink:title=" ">
<path fill="none" stroke="#63b8ff" d="M279.61,-109.98C264.13,-101.61 240.27,-88.7 222.22,-78.95"/>
<polygon fill="#63b8ff" stroke="#63b8ff" points="223.85,-75.85 213.39,-74.17 220.52,-82.01 223.85,-75.85"/>
</a>
</g>
</g>
<!-- Node5 -->
<g id="Node000005" class="node">
<title>Node5</title>
<g id="a_Node000005"><a xlink:href="no__os__spi_8h.html" target="_top" xlink:title="Header file of SPI Interface.">
<polygon fill="white" stroke="#666666" points="332.36,-74 258.36,-74 258.36,-55 332.36,-55 332.36,-74"/>
<text text-anchor="middle" x="295.36" y="-62" font-family="Helvetica,sans-Serif" font-size="10.00">no_os_spi.h</text>
</a>
</g>
</g>
<!-- Node3&#45;&gt;Node5 -->
<g id="edge6_Node000003_Node000005" class="edge">
<title>Node3&#45;&gt;Node5</title>
<g id="a_edge6_Node000003_Node000005"><a xlink:title=" ">
<path fill="none" stroke="#63b8ff" d="M295.36,-109.75C295.36,-102.8 295.36,-92.85 295.36,-84.13"/>
<polygon fill="#63b8ff" stroke="#63b8ff" points="298.86,-84.09 295.36,-74.09 291.86,-84.09 298.86,-84.09"/>
</a>
</g>
</g>
<!-- Node6 -->
<g id="Node000006" class="node">
<title>Node6</title>
<g id="a_Node000006"><a xlink:href="no__os__i2c_8h.html" target="_top" xlink:title="Header file of I2C Interface.">
<polygon fill="white" stroke="#666666" points="424.36,-74 350.36,-74 350.36,-55 424.36,-55 424.36,-74"/>
<text text-anchor="middle" x="387.36" y="-62" font-family="Helvetica,sans-Serif" font-size="10.00">no_os_i2c.h</text>
</a>
</g>
</g>
<!-- Node3&#45;&gt;Node6 -->
<g id="edge8_Node000003_Node000006" class="edge">
<title>Node3&#45;&gt;Node6</title>
<g id="a_edge8_Node000003_Node000006"><a xlink:title=" ">
<path fill="none" stroke="#63b8ff" d="M310.14,-109.98C324.54,-101.69 346.67,-88.94 363.55,-79.22"/>
<polygon fill="#63b8ff" stroke="#63b8ff" points="365.39,-82.19 372.31,-74.17 361.9,-76.13 365.39,-82.19"/>
</a>
</g>
</g>
<!-- Node7 -->
<g id="Node000007" class="node">
<title>Node7</title>
<g id="a_Node000007"><a xlink:href="no__os__gpio_8h.html" target="_top" xlink:title="Header file of GPIO Interface.">
<polygon fill="white" stroke="#666666" points="98.36,-74 18.36,-74 18.36,-55 98.36,-55 98.36,-74"/>
<text text-anchor="middle" x="58.36" y="-62" font-family="Helvetica,sans-Serif" font-size="10.00">no_os_gpio.h</text>
</a>
</g>
</g>
<!-- Node3&#45;&gt;Node7 -->
<g id="edge10_Node000003_Node000007" class="edge">
<title>Node3&#45;&gt;Node7</title>
<g id="a_edge10_Node000003_Node000007"><a xlink:title=" ">
<path fill="none" stroke="#63b8ff" d="M257.28,-109.98C216.37,-100.84 151.25,-86.27 106.74,-76.32"/>
<polygon fill="#63b8ff" stroke="#63b8ff" points="107.26,-72.85 96.73,-74.08 105.73,-79.68 107.26,-72.85"/>
</a>
</g>
</g>
<!-- Node8 -->
<g id="Node000008" class="node">
<title>Node8</title>
<g id="a_Node000008"><a xlink:href="no__os__util_8h.html" target="_top" xlink:title="Header file of utility functions.">
<polygon fill="white" stroke="#666666" points="555.86,-74 480.86,-74 480.86,-55 555.86,-55 555.86,-74"/>
<text text-anchor="middle" x="518.36" y="-62" font-family="Helvetica,sans-Serif" font-size="10.00">no_os_util.h</text>
</a>
</g>
</g>
<!-- Node3&#45;&gt;Node8 -->
<g id="edge12_Node000003_Node000008" class="edge">
<title>Node3&#45;&gt;Node8</title>
<g id="a_edge12_Node000003_Node000008"><a xlink:title=" ">
<path fill="none" stroke="#63b8ff" d="M331.19,-109.98C369.52,-100.87 430.44,-86.4 472.3,-76.45"/>
<polygon fill="#63b8ff" stroke="#63b8ff" points="473.33,-79.8 482.25,-74.08 471.71,-72.99 473.33,-79.8"/>
</a>
</g>
</g>
<!-- Node10 -->
<g id="Node000010" class="node">
<title>Node10</title>
<g id="a_Node000010"><a xlink:title=" ">
<polygon fill="#e0e0e0" stroke="#999999" points="487.36,-19 425.36,-19 425.36,0 487.36,0 487.36,-19"/>
<text text-anchor="middle" x="456.36" y="-7" font-family="Helvetica,sans-Serif" font-size="10.00">stdbool.h</text>
</a>
</g>
</g>
<!-- Node3&#45;&gt;Node10 -->
<g id="edge19_Node000003_Node000010" class="edge">
<title>Node3&#45;&gt;Node10</title>
<g id="a_edge19_Node000003_Node000010"><a xlink:title=" ">
<path fill="none" stroke="#63b8ff" d="M341.66,-114C371.32,-108.85 408.72,-97.77 433.36,-74 445.61,-62.18 451.36,-43.34 454.05,-29.25"/>
<polygon fill="#63b8ff" stroke="#63b8ff" points="457.53,-29.61 455.61,-19.19 450.62,-28.53 457.53,-29.61"/>
</a>
</g>
</g>
<!-- Node11 -->
<g id="Node000011" class="node">
<title>Node11</title>
<g id="a_Node000011"><a xlink:href="no__os__alloc_8h.html" target="_top" xlink:title=" ">
<polygon fill="white" stroke="#666666" points="656.86,-74 573.86,-74 573.86,-55 656.86,-55 656.86,-74"/>
<text text-anchor="middle" x="615.36" y="-62" font-family="Helvetica,sans-Serif" font-size="10.00">no_os_alloc.h</text>
</a>
</g>
</g>
<!-- Node3&#45;&gt;Node11 -->
<g id="edge16_Node000003_Node000011" class="edge">
<title>Node3&#45;&gt;Node11</title>
<g id="a_edge16_Node000003_Node000011"><a xlink:title=" ">
<path fill="none" stroke="#63b8ff" d="M341.53,-110.88C393.08,-102.37 479.26,-88.12 563.6,-74.12"/>
<polygon fill="#63b8ff" stroke="#63b8ff" points="564.32,-77.55 573.61,-72.46 563.17,-70.65 564.32,-77.55"/>
</a>
</g>
</g>
<!-- Node4&#45;&gt;Node2 -->
<g id="edge5_Node000004_Node000002" class="edge">
<title>Node4&#45;&gt;Node2</title>
<g id="a_edge5_Node000004_Node000002"><a xlink:title=" ">
<path fill="none" stroke="#63b8ff" d="M197.36,-54.75C197.36,-47.8 197.36,-37.85 197.36,-29.13"/>
<polygon fill="#63b8ff" stroke="#63b8ff" points="200.86,-29.09 197.36,-19.09 193.86,-29.09 200.86,-29.09"/>
</a>
</g>
</g>
<!-- Node5&#45;&gt;Node2 -->
<g id="edge7_Node000005_Node000002" class="edge">
<title>Node5&#45;&gt;Node2</title>
<g id="a_edge7_Node000005_Node000002"><a xlink:title=" ">
<path fill="none" stroke="#63b8ff" d="M279.61,-54.98C264.13,-46.61 240.27,-33.7 222.22,-23.95"/>
<polygon fill="#63b8ff" stroke="#63b8ff" points="223.85,-20.85 213.39,-19.17 220.52,-27.01 223.85,-20.85"/>
</a>
</g>
</g>
<!-- Node6&#45;&gt;Node2 -->
<g id="edge9_Node000006_Node000002" class="edge">
<title>Node6&#45;&gt;Node2</title>
<g id="a_edge9_Node000006_Node000002"><a xlink:title=" ">
<path fill="none" stroke="#63b8ff" d="M356.83,-54.98C323.42,-45.66 269.85,-30.72 234.14,-20.76"/>
<polygon fill="#63b8ff" stroke="#63b8ff" points="234.7,-17.28 224.12,-17.97 232.82,-24.02 234.7,-17.28"/>
</a>
</g>
</g>
<!-- Node7&#45;&gt;Node2 -->
<g id="edge11_Node000007_Node000002" class="edge">
<title>Node7&#45;&gt;Node2</title>
<g id="a_edge11_Node000007_Node000002"><a xlink:title=" ">
<path fill="none" stroke="#63b8ff" d="M80.69,-54.98C103.56,-46.27 139.32,-32.63 165.22,-22.75"/>
<polygon fill="#63b8ff" stroke="#63b8ff" points="166.52,-26 174.62,-19.17 164.03,-19.46 166.52,-26"/>
</a>
</g>
</g>
<!-- Node8&#45;&gt;Node2 -->
<g id="edge13_Node000008_Node000002" class="edge">
<title>Node8&#45;&gt;Node2</title>
<g id="a_edge13_Node000008_Node000002"><a xlink:title=" ">
<path fill="none" stroke="#63b8ff" d="M480.59,-57.26C418.55,-47.02 295.82,-26.76 234.32,-16.6"/>
<polygon fill="#63b8ff" stroke="#63b8ff" points="234.72,-13.12 224.28,-14.94 233.58,-20.03 234.72,-13.12"/>
</a>
</g>
</g>
<!-- Node9 -->
<g id="Node000009" class="node">
<title>Node9</title>
<g id="a_Node000009"><a xlink:title=" ">
<polygon fill="#e0e0e0" stroke="#999999" points="563.86,-19 510.86,-19 510.86,0 563.86,0 563.86,-19"/>
<text text-anchor="middle" x="537.36" y="-7" font-family="Helvetica,sans-Serif" font-size="10.00">stdlib.h</text>
</a>
</g>
</g>
<!-- Node8&#45;&gt;Node9 -->
<g id="edge14_Node000008_Node000009" class="edge">
<title>Node8&#45;&gt;Node9</title>
<g id="a_edge14_Node000008_Node000009"><a xlink:title=" ">
<path fill="none" stroke="#63b8ff" d="M521.5,-54.75C524.04,-47.65 527.71,-37.4 530.89,-28.56"/>
<polygon fill="#63b8ff" stroke="#63b8ff" points="534.2,-29.68 534.28,-19.09 527.61,-27.32 534.2,-29.68"/>
</a>
</g>
</g>
<!-- Node8&#45;&gt;Node10 -->
<g id="edge15_Node000008_Node000010" class="edge">
<title>Node8&#45;&gt;Node10</title>
<g id="a_edge15_Node000008_Node000010"><a xlink:title=" ">
<path fill="none" stroke="#63b8ff" d="M508.4,-54.98C499.23,-47.15 485.42,-35.34 474.33,-25.86"/>
<polygon fill="#63b8ff" stroke="#63b8ff" points="476.38,-23.01 466.5,-19.17 471.83,-28.33 476.38,-23.01"/>
</a>
</g>
</g>
<!-- Node11&#45;&gt;Node9 -->
<g id="edge18_Node000011_Node000009" class="edge">
<title>Node11&#45;&gt;Node9</title>
<g id="a_edge18_Node000011_Node000009"><a xlink:title=" ">
<path fill="none" stroke="#63b8ff" d="M602.83,-54.98C590.96,-46.92 572.89,-34.65 558.75,-25.03"/>
<polygon fill="#63b8ff" stroke="#63b8ff" points="560.36,-21.9 550.12,-19.17 556.42,-27.69 560.36,-21.9"/>
</a>
</g>
</g>
<!-- Node12 -->
<g id="Node000012" class="node">
<title>Node12</title>
<g id="a_Node000012"><a xlink:title=" ">
<polygon fill="#e0e0e0" stroke="#999999" points="640.36,-19 590.36,-19 590.36,0 640.36,0 640.36,-19"/>
<text text-anchor="middle" x="615.36" y="-7" font-family="Helvetica,sans-Serif" font-size="10.00">stdio.h</text>
</a>
</g>
</g>
<!-- Node11&#45;&gt;Node12 -->
<g id="edge17_Node000011_Node000012" class="edge">
<title>Node11&#45;&gt;Node12</title>
<g id="a_edge17_Node000011_Node000012"><a xlink:title=" ">
<path fill="none" stroke="#63b8ff" d="M615.36,-54.75C615.36,-47.8 615.36,-37.85 615.36,-29.13"/>
<polygon fill="#63b8ff" stroke="#63b8ff" points="618.86,-29.09 615.36,-19.09 611.86,-29.09 618.86,-29.09"/>
</a>
</g>
</g>
</g>
</svg>
