<?xml version="1.0" encoding="UTF-8" standalone="no"?>
<!DOCTYPE svg PUBLIC "-//W3C//DTD SVG 1.1//EN"
 "http://www.w3.org/Graphics/SVG/1.1/DTD/svg11.dtd">
<!-- Generated by graphviz version 2.43.0 (0)
 -->
<!-- Title: /home/runner/work/no&#45;OS/no&#45;OS/drivers/adc&#45;dac/ad5592r/ad5592r&#45;base.h Pages: 1 -->
<!--zoomable 291 -->

<svg id="main" version="1.1" xmlns="http://www.w3.org/2000/svg" xmlns:xlink="http://www.w3.org/1999/xlink" xml:space="preserve" onload="init(evt)">

<style type="text/css"><![CDATA[
.node, .edge {opacity: 0.7;}
.node.selected, .edge.selected {opacity: 1;}
.edge:hover path { stroke: red; }
.edge:hover polygon { stroke: red; fill: red; }
]]></style>

<defs>
  <circle id="rim" cx="0" cy="0" r="7"/>
  <circle id="rim2" cx="0" cy="0" r="3.5"/>
  <g id="zoomPlus">
    <use xlink:href="#rim" fill="#404040"><set attributeName="fill" to="#808080" begin="zoomplus.mouseover" end="zoomplus.mouseout"/></use>
    <path d="M-4,0h8M0,-4v8" fill="none" stroke="white" stroke-width="1.5" pointer-events="none"/>
  </g>
  <g id="zoomMin">
    <use xlink:href="#rim" fill="#404040"><set attributeName="fill" to="#808080" begin="zoomminus.mouseover" end="zoomminus.mouseout"/></use>
    <path d="M-4,0h8" fill="none" stroke="white" stroke-width="1.5" pointer-events="none"/>
  </g>
  <g id="arrowUp" transform="translate(30 24)">
    <use xlink:href="#rim"/>
    <path pointer-events="none" fill="none" stroke="white" stroke-width="1.5" d="M0,-3.0v7 M-2.5,-0.5L0,-3.0L2.5,-0.5"/>
  </g>
  <g id="arrowRight" transform="rotate(90) translate(36 -43)">
    <use xlink:href="#rim"/>
    <path pointer-events="none" fill="none" stroke="white" stroke-width="1.5" d="M0,-3.0v7 M-2.5,-0.5L0,-3.0L2.5,-0.5"/>
  </g>
  <g id="arrowDown" transform="rotate(180) translate(-30 -48)">
    <use xlink:href="#rim"/>
    <path pointer-events="none" fill="none" stroke="white" stroke-width="1.5" d="M0,-3.0v7 M-2.5,-0.5L0,-3.0L2.5,-0.5"/>
  </g>
  <g id="arrowLeft" transform="rotate(270) translate(-36 17)">
    <use xlink:href="#rim"/>
    <path pointer-events="none" fill="none" stroke="white" stroke-width="1.5" d="M0,-3.0v7 M-2.5,-0.5L0,-3.0L2.5,-0.5"/>
  </g>
  <g id="resetDef">
    <use xlink:href="#rim2" fill="#404040"><set attributeName="fill" to="#808080" begin="reset.mouseover" end="reset.mouseout"/></use>
  </g>
</defs>
<script type="application/ecmascript">
var viewWidth = 645;
var viewHeight = 291;
var sectionId = 'dynsection-1';
</script>
<script type="application/ecmascript" xlink:href="svg.min.js"/>
<svg id="graph" class="graph">
<g id="viewport">
<title>/home/runner/work/no&#45;OS/no&#45;OS/drivers/adc&#45;dac/ad5592r/ad5592r&#45;base.h</title>
<!-- Node1 -->
<g id="Node000001" class="node">
<title>Node1</title>
<g id="a_Node000001"><a xlink:title="Header file of AD5592R Base Driver.">
<polygon fill="#999999" stroke="#666666" points="359.5,-283 200.5,-283 200.5,-242 359.5,-242 359.5,-283"/>
<text text-anchor="start" x="208.5" y="-271" font-family="Helvetica,sans-Serif" font-size="10.00">/home/runner/work/no</text>
<text text-anchor="start" x="208.5" y="-260" font-family="Helvetica,sans-Serif" font-size="10.00">&#45;OS/no&#45;OS/drivers/adc</text>
<text text-anchor="middle" x="280" y="-249" font-family="Helvetica,sans-Serif" font-size="10.00">&#45;dac/ad5592r/ad5592r&#45;base.h</text>
</a>
</g>
</g>
<!-- Node2 -->
<g id="Node000002" class="node">
<title>Node2</title>
<g id="a_Node000002"><a xlink:href="ad5592r-base_8c.html" target="_top" xlink:title="Implementation of AD5592R Base Driver.">
<polygon fill="white" stroke="#666666" points="158,-206 0,-206 0,-165 158,-165 158,-206"/>
<text text-anchor="start" x="8" y="-194" font-family="Helvetica,sans-Serif" font-size="10.00">/home/runner/work/no</text>
<text text-anchor="start" x="8" y="-183" font-family="Helvetica,sans-Serif" font-size="10.00">&#45;OS/no&#45;OS/drivers/adc</text>
<text text-anchor="middle" x="79" y="-172" font-family="Helvetica,sans-Serif" font-size="10.00">&#45;dac/ad5592r/ad5592r&#45;base.c</text>
</a>
</g>
</g>
<!-- Node1&#45;&gt;Node2 -->
<g id="edge1_Node000001_Node000002" class="edge">
<title>Node1&#45;&gt;Node2</title>
<g id="a_edge1_Node000001_Node000002"><a xlink:title=" ">
<path fill="none" stroke="#63b8ff" d="M218.1,-238.4C190.33,-228.04 157.92,-215.95 131.37,-206.04"/>
<polygon fill="#63b8ff" stroke="#63b8ff" points="217.12,-241.77 227.71,-241.99 219.57,-235.22 217.12,-241.77"/>
</a>
</g>
</g>
<!-- Node3 -->
<g id="Node000003" class="node">
<title>Node3</title>
<g id="a_Node000003"><a xlink:href="ad5592r_8c.html" target="_top" xlink:title="Implementation of AD5592R driver.">
<polygon fill="white" stroke="#666666" points="244.5,-129 113.5,-129 113.5,-88 244.5,-88 244.5,-129"/>
<text text-anchor="start" x="121.5" y="-117" font-family="Helvetica,sans-Serif" font-size="10.00">/home/runner/work/no</text>
<text text-anchor="start" x="121.5" y="-106" font-family="Helvetica,sans-Serif" font-size="10.00">&#45;OS/no&#45;OS/drivers/adc</text>
<text text-anchor="middle" x="179" y="-95" font-family="Helvetica,sans-Serif" font-size="10.00">&#45;dac/ad5592r/ad5592r.c</text>
</a>
</g>
</g>
<!-- Node1&#45;&gt;Node3 -->
<g id="edge2_Node000001_Node000003" class="edge">
<title>Node1&#45;&gt;Node3</title>
<g id="a_edge2_Node000001_Node000003"><a xlink:title=" ">
<path fill="none" stroke="#63b8ff" d="M235.44,-236.07C224.12,-227.76 212.93,-217.63 205,-206 189.07,-182.63 182.88,-149.9 180.49,-129.2"/>
<polygon fill="#63b8ff" stroke="#63b8ff" points="233.46,-238.95 243.66,-241.79 237.46,-233.21 233.46,-238.95"/>
</a>
</g>
</g>
<!-- Node4 -->
<g id="Node000004" class="node">
<title>Node4</title>
<g id="a_Node000004"><a xlink:href="ad5592r_8h.html" target="_top" xlink:title="Header file of AD5592R driver.">
<polygon fill="white" stroke="#666666" points="345.5,-206 214.5,-206 214.5,-165 345.5,-165 345.5,-206"/>
<text text-anchor="start" x="222.5" y="-194" font-family="Helvetica,sans-Serif" font-size="10.00">/home/runner/work/no</text>
<text text-anchor="start" x="222.5" y="-183" font-family="Helvetica,sans-Serif" font-size="10.00">&#45;OS/no&#45;OS/drivers/adc</text>
<text text-anchor="middle" x="280" y="-172" font-family="Helvetica,sans-Serif" font-size="10.00">&#45;dac/ad5592r/ad5592r.h</text>
</a>
</g>
</g>
<!-- Node1&#45;&gt;Node4 -->
<g id="edge3_Node000001_Node000004" class="edge">
<title>Node1&#45;&gt;Node4</title>
<g id="a_edge3_Node000001_Node000004"><a xlink:title=" ">
<path fill="none" stroke="#63b8ff" d="M280,-231.69C280,-223.08 280,-213.9 280,-206.07"/>
<polygon fill="#63b8ff" stroke="#63b8ff" points="276.5,-231.79 280,-241.79 283.5,-231.79 276.5,-231.79"/>
</a>
</g>
</g>
<!-- Node8 -->
<g id="Node000008" class="node">
<title>Node8</title>
<g id="a_Node000008"><a xlink:href="ad5593r_8c.html" target="_top" xlink:title="Implementation of AD5593R driver.">
<polygon fill="white" stroke="#666666" points="636.5,-129 505.5,-129 505.5,-88 636.5,-88 636.5,-129"/>
<text text-anchor="start" x="513.5" y="-117" font-family="Helvetica,sans-Serif" font-size="10.00">/home/runner/work/no</text>
<text text-anchor="start" x="513.5" y="-106" font-family="Helvetica,sans-Serif" font-size="10.00">&#45;OS/no&#45;OS/drivers/adc</text>
<text text-anchor="middle" x="571" y="-95" font-family="Helvetica,sans-Serif" font-size="10.00">&#45;dac/ad5592r/ad5593r.c</text>
</a>
</g>
</g>
<!-- Node1&#45;&gt;Node8 -->
<g id="edge9_Node000001_Node000008" class="edge">
<title>Node1&#45;&gt;Node8</title>
<g id="a_edge9_Node000001_Node000008"><a xlink:title=" ">
<path fill="none" stroke="#63b8ff" d="M369.81,-250.5C431.55,-241.33 506.62,-226.44 531,-206 554.21,-186.54 564.16,-151.4 568.27,-129.33"/>
<polygon fill="#63b8ff" stroke="#63b8ff" points="369.03,-247.08 359.64,-251.98 370.04,-254.01 369.03,-247.08"/>
</a>
</g>
</g>
<!-- Node9 -->
<g id="Node000009" class="node">
<title>Node9</title>
<g id="a_Node000009"><a xlink:href="ad5593r_8h.html" target="_top" xlink:title="Header file of AD5593R driver.">
<polygon fill="white" stroke="#666666" points="521.5,-206 390.5,-206 390.5,-165 521.5,-165 521.5,-206"/>
<text text-anchor="start" x="398.5" y="-194" font-family="Helvetica,sans-Serif" font-size="10.00">/home/runner/work/no</text>
<text text-anchor="start" x="398.5" y="-183" font-family="Helvetica,sans-Serif" font-size="10.00">&#45;OS/no&#45;OS/drivers/adc</text>
<text text-anchor="middle" x="456" y="-172" font-family="Helvetica,sans-Serif" font-size="10.00">&#45;dac/ad5592r/ad5593r.h</text>
</a>
</g>
</g>
<!-- Node1&#45;&gt;Node9 -->
<g id="edge10_Node000001_Node000009" class="edge">
<title>Node1&#45;&gt;Node9</title>
<g id="a_edge10_Node000001_Node000009"><a xlink:title=" ">
<path fill="none" stroke="#63b8ff" d="M335.16,-238C359.26,-227.72 387.2,-215.82 410.14,-206.04"/>
<polygon fill="#63b8ff" stroke="#63b8ff" points="333.61,-234.85 325.78,-241.99 336.35,-241.29 333.61,-234.85"/>
</a>
</g>
</g>
<!-- Node4&#45;&gt;Node3 -->
<g id="edge4_Node000004_Node000003" class="edge">
<title>Node4&#45;&gt;Node3</title>
<g id="a_edge4_Node000004_Node000003"><a xlink:title=" ">
<path fill="none" stroke="#63b8ff" d="M245.41,-158.82C232.35,-149.11 217.7,-138.24 205.49,-129.17"/>
<polygon fill="#63b8ff" stroke="#63b8ff" points="243.61,-161.84 253.73,-164.99 247.79,-156.22 243.61,-161.84"/>
</a>
</g>
</g>
<!-- Node5 -->
<g id="Node000005" class="node">
<title>Node5</title>
<g id="a_Node000005"><a xlink:href="iio__ad559xr_8c.html" target="_top" xlink:title="Implementation of AD5592R/AD5593R IIO driver.">
<polygon fill="white" stroke="#666666" points="500,-46.5 352,-46.5 352,-5.5 500,-5.5 500,-46.5"/>
<text text-anchor="start" x="360" y="-34.5" font-family="Helvetica,sans-Serif" font-size="10.00">/home/runner/work/no</text>
<text text-anchor="start" x="360" y="-23.5" font-family="Helvetica,sans-Serif" font-size="10.00">&#45;OS/no&#45;OS/drivers/adc</text>
<text text-anchor="middle" x="426" y="-12.5" font-family="Helvetica,sans-Serif" font-size="10.00">&#45;dac/ad5592r/iio_ad559xr.c</text>
</a>
</g>
</g>
<!-- Node4&#45;&gt;Node5 -->
<g id="edge5_Node000004_Node000005" class="edge">
<title>Node4&#45;&gt;Node5</title>
<g id="a_edge5_Node000004_Node000005"><a xlink:title=" ">
<path fill="none" stroke="#63b8ff" d="M276.15,-154.61C275.12,-134.01 277.13,-107.03 291,-88 300.96,-74.34 336.31,-58.61 368.34,-46.55"/>
<polygon fill="#63b8ff" stroke="#63b8ff" points="272.68,-155.02 276.93,-164.73 279.66,-154.49 272.68,-155.02"/>
</a>
</g>
</g>
<!-- Node6 -->
<g id="Node000006" class="node">
<title>Node6</title>
<g id="a_Node000006"><a xlink:href="iio__ad559xr_8h.html" target="_top" xlink:title="Header file implementation of AD5592R/AD5593R IIO driver.">
<polygon fill="white" stroke="#666666" points="449.5,-129 300.5,-129 300.5,-88 449.5,-88 449.5,-129"/>
<text text-anchor="start" x="308.5" y="-117" font-family="Helvetica,sans-Serif" font-size="10.00">/home/runner/work/no</text>
<text text-anchor="start" x="308.5" y="-106" font-family="Helvetica,sans-Serif" font-size="10.00">&#45;OS/no&#45;OS/drivers/adc</text>
<text text-anchor="middle" x="375" y="-95" font-family="Helvetica,sans-Serif" font-size="10.00">&#45;dac/ad5592r/iio_ad559xr.h</text>
</a>
</g>
</g>
<!-- Node4&#45;&gt;Node6 -->
<g id="edge6_Node000004_Node000006" class="edge">
<title>Node4&#45;&gt;Node6</title>
<g id="a_edge6_Node000004_Node000006"><a xlink:title=" ">
<path fill="none" stroke="#63b8ff" d="M313.13,-158.35C325.31,-148.73 338.88,-138.01 350.21,-129.07"/>
<polygon fill="#63b8ff" stroke="#63b8ff" points="310.64,-155.85 304.96,-164.79 314.98,-161.35 310.64,-155.85"/>
</a>
</g>
</g>
<!-- Node6&#45;&gt;Node5 -->
<g id="edge7_Node000006_Node000005" class="edge">
<title>Node6&#45;&gt;Node5</title>
<g id="a_edge7_Node000006_Node000005"><a xlink:title=" ">
<path fill="none" stroke="#63b8ff" d="M393.07,-78.98C399.84,-68.29 407.38,-56.38 413.54,-46.67"/>
<polygon fill="#63b8ff" stroke="#63b8ff" points="390,-77.28 387.61,-87.6 395.92,-81.03 390,-77.28"/>
</a>
</g>
</g>
<!-- Node7 -->
<g id="Node000007" class="node">
<title>Node7</title>
<g id="a_Node000007"><a xlink:href="adalm-lsmspg_2src_2examples_2iio__example_2iio__example_8c.html" target="_top" xlink:title=" ">
<polygon fill="white" stroke="#666666" points="334,-52 192,-52 192,0 334,0 334,-52"/>
<text text-anchor="start" x="200" y="-40" font-family="Helvetica,sans-Serif" font-size="10.00">/home/runner/work/no</text>
<text text-anchor="start" x="200" y="-29" font-family="Helvetica,sans-Serif" font-size="10.00">&#45;OS/no&#45;OS/projects/adalm</text>
<text text-anchor="start" x="200" y="-18" font-family="Helvetica,sans-Serif" font-size="10.00">&#45;lsmspg/src/examples/iio</text>
<text text-anchor="middle" x="263" y="-7" font-family="Helvetica,sans-Serif" font-size="10.00">_example/iio_example.c</text>
</a>
</g>
</g>
<!-- Node6&#45;&gt;Node7 -->
<g id="edge8_Node000006_Node000007" class="edge">
<title>Node6&#45;&gt;Node7</title>
<g id="a_edge8_Node000006_Node000007"><a xlink:title=" ">
<path fill="none" stroke="#63b8ff" d="M339.25,-81.81C326.11,-72.36 311.25,-61.68 298.17,-52.28"/>
<polygon fill="#63b8ff" stroke="#63b8ff" points="337.44,-84.81 347.6,-87.81 341.52,-79.13 337.44,-84.81"/>
</a>
</g>
</g>
<!-- Node9&#45;&gt;Node5 -->
<g id="edge12_Node000009_Node000005" class="edge">
<title>Node9&#45;&gt;Node5</title>
<g id="a_edge12_Node000009_Node000005"><a xlink:title=" ">
<path fill="none" stroke="#63b8ff" d="M460.55,-154.93C462.56,-135.6 463.41,-109.97 458,-88 454.37,-73.25 446.46,-58.13 439.42,-46.62"/>
<polygon fill="#63b8ff" stroke="#63b8ff" points="457.06,-154.6 459.34,-164.95 464.01,-155.44 457.06,-154.6"/>
</a>
</g>
</g>
<!-- Node9&#45;&gt;Node6 -->
<g id="edge13_Node000009_Node000006" class="edge">
<title>Node9&#45;&gt;Node6</title>
<g id="a_edge13_Node000009_Node000006"><a xlink:title=" ">
<path fill="none" stroke="#63b8ff" d="M427.15,-157.79C416.92,-148.32 405.61,-137.84 396.14,-129.07"/>
<polygon fill="#63b8ff" stroke="#63b8ff" points="425,-160.57 434.72,-164.79 429.76,-155.43 425,-160.57"/>
</a>
</g>
</g>
<!-- Node9&#45;&gt;Node8 -->
<g id="edge11_Node000009_Node000008" class="edge">
<title>Node9&#45;&gt;Node8</title>
<g id="a_edge11_Node000009_Node000008"><a xlink:title=" ">
<path fill="none" stroke="#63b8ff" d="M494.53,-159.37C509.62,-149.53 526.67,-138.41 540.84,-129.17"/>
<polygon fill="#63b8ff" stroke="#63b8ff" points="492.38,-156.6 485.91,-164.99 496.2,-162.46 492.38,-156.6"/>
</a>
</g>
</g>
</g>
</svg>

<g id="navigator" transform="translate(0 0)" fill="#404254">
  <rect fill="#f2f5e9" fill-opacity="0.5" stroke="#606060" stroke-width=".5" x="0" y="0" width="60" height="60"/>
  <use id="zoomplus" xlink:href="#zoomPlus" x="17" y="9" onmousedown="handleZoom(evt,'in')"/>
  <use id="zoomminus" xlink:href="#zoomMin" x="42" y="9" onmousedown="handleZoom(evt,'out')"/>
  <use id="reset" xlink:href="#resetDef" x="30" y="36" onmousedown="handleReset()"/>
   <use id="arrowup" xlink:href="#arrowUp" x="0" y="0" onmousedown="handlePan(0,-1)"/>
  <use id="arrowright" xlink:href="#arrowRight" x="0" y="0" onmousedown="handlePan(1,0)"/>
  <use id="arrowdown" xlink:href="#arrowDown" x="0" y="0" onmousedown="handlePan(0,1)"/>
  <use id="arrowleft" xlink:href="#arrowLeft" x="0" y="0" onmousedown="handlePan(-1,0)"/>
</g>
<svg viewBox="0 0 15 15" width="100%" height="30px" preserveAspectRatio="xMaxYMin meet">
 <g id="arrow_out" transform="scale(0.3 0.3)">
  <a xlink:href="ad5592r-base_8h__dep__incl_org.svg" target="_base">
   <rect id="button" ry="5" rx="5" y="6" x="6" height="38" width="38"
        fill="#f2f5e9" fill-opacity="0.5" stroke="#606060" stroke-width="1.0"/>
   <path id="arrow"
     d="M 11.500037,31.436501 C 11.940474,20.09759 22.043105,11.32322 32.158766,21.979434 L 37.068811,17.246167 C 37.068811,17.246167 37.088388,32 37.088388,32 L 22.160133,31.978069 C 22.160133,31.978069 26.997745,27.140456 26.997745,27.140456 C 18.528582,18.264221 13.291696,25.230495 11.500037,31.436501 z"
     style="fill:#404040;"/>
  </a>
 </g>
</svg>

<style type='text/css'>
<![CDATA[
[data-mouse-over-selected='false'] { opacity: 0.7; }
[data-mouse-over-selected='true']  { opacity: 1.0; }
]]>
</style>
<script type="application/ecmascript"><![CDATA[
document.addEventListener('DOMContentLoaded', (event) => {
  highlightEdges();
  highlightAdjacentNodes();
});
]]></script>
</svg>
