<?xml version="1.0" encoding="UTF-8" standalone="no"?>
<!DOCTYPE svg PUBLIC "-//W3C//DTD SVG 1.1//EN"
 "http://www.w3.org/Graphics/SVG/1.1/DTD/svg11.dtd">
<!-- Generated by graphviz version 2.43.0 (0)
 -->
<!-- Title: /home/runner/work/no&#45;OS/no&#45;OS/drivers/dac/ad5754r/ad5754r.h Pages: 1 -->
<svg width="387pt" height="159pt"
 viewBox="0.00 0.00 387.23 159.00" xmlns="http://www.w3.org/2000/svg" xmlns:xlink="http://www.w3.org/1999/xlink">
<g id="graph0" class="graph" transform="scale(1 1) rotate(0) translate(4 155)">
<title>/home/runner/work/no&#45;OS/no&#45;OS/drivers/dac/ad5754r/ad5754r.h</title>
<!-- Node1 -->
<g id="Node000001" class="node">
<title>Node1</title>
<g id="a_Node000001"><a xlink:title="Header file of AD5754R Driver.">
<polygon fill="#999999" stroke="#666666" points="210.23,-151 86.23,-151 86.23,-110 210.23,-110 210.23,-151"/>
<text text-anchor="start" x="94.23" y="-139" font-family="Helvetica,sans-Serif" font-size="10.00">/home/runner/work/no</text>
<text text-anchor="start" x="94.23" y="-128" font-family="Helvetica,sans-Serif" font-size="10.00">&#45;OS/no&#45;OS/drivers/dac</text>
<text text-anchor="middle" x="148.23" y="-117" font-family="Helvetica,sans-Serif" font-size="10.00">/ad5754r/ad5754r.h</text>
</a>
</g>
</g>
<!-- Node2 -->
<g id="Node000002" class="node">
<title>Node2</title>
<g id="a_Node000002"><a xlink:title=" ">
<polygon fill="#e0e0e0" stroke="#999999" points="111.73,-19 58.73,-19 58.73,0 111.73,0 111.73,-19"/>
<text text-anchor="middle" x="85.23" y="-7" font-family="Helvetica,sans-Serif" font-size="10.00">stdint.h</text>
</a>
</g>
</g>
<!-- Node1&#45;&gt;Node2 -->
<g id="edge1_Node000001_Node000002" class="edge">
<title>Node1&#45;&gt;Node2</title>
<g id="a_edge1_Node000001_Node000002"><a xlink:title=" ">
<path fill="none" stroke="#63b8ff" d="M86,-121.86C56.02,-114.7 22.65,-100.84 4.23,-74 -11.24,-51.46 20.7,-33.19 48.91,-22.13"/>
<polygon fill="#63b8ff" stroke="#63b8ff" points="50.49,-25.28 58.65,-18.52 48.06,-18.71 50.49,-25.28"/>
</a>
</g>
</g>
<!-- Node3 -->
<g id="Node000003" class="node">
<title>Node3</title>
<g id="a_Node000003"><a xlink:href="no__os__gpio_8h.html" target="_top" xlink:title="Header file of GPIO Interface.">
<polygon fill="white" stroke="#666666" points="93.23,-74 13.23,-74 13.23,-55 93.23,-55 93.23,-74"/>
<text text-anchor="middle" x="53.23" y="-62" font-family="Helvetica,sans-Serif" font-size="10.00">no_os_gpio.h</text>
</a>
</g>
</g>
<!-- Node1&#45;&gt;Node3 -->
<g id="edge2_Node000001_Node000003" class="edge">
<title>Node1&#45;&gt;Node3</title>
<g id="a_edge2_Node000001_Node000003"><a xlink:title=" ">
<path fill="none" stroke="#63b8ff" d="M119.21,-109.95C104.85,-100.27 87.81,-88.8 74.65,-79.93"/>
<polygon fill="#63b8ff" stroke="#63b8ff" points="76.48,-76.95 66.23,-74.26 72.57,-82.75 76.48,-76.95"/>
</a>
</g>
</g>
<!-- Node4 -->
<g id="Node000004" class="node">
<title>Node4</title>
<g id="a_Node000004"><a xlink:href="no__os__spi_8h.html" target="_top" xlink:title="Header file of SPI Interface.">
<polygon fill="white" stroke="#666666" points="185.23,-74 111.23,-74 111.23,-55 185.23,-55 185.23,-74"/>
<text text-anchor="middle" x="148.23" y="-62" font-family="Helvetica,sans-Serif" font-size="10.00">no_os_spi.h</text>
</a>
</g>
</g>
<!-- Node1&#45;&gt;Node4 -->
<g id="edge4_Node000001_Node000004" class="edge">
<title>Node1&#45;&gt;Node4</title>
<g id="a_edge4_Node000001_Node000004"><a xlink:title=" ">
<path fill="none" stroke="#63b8ff" d="M148.23,-109.95C148.23,-101.85 148.23,-92.5 148.23,-84.47"/>
<polygon fill="#63b8ff" stroke="#63b8ff" points="151.73,-84.26 148.23,-74.26 144.73,-84.26 151.73,-84.26"/>
</a>
</g>
</g>
<!-- Node5 -->
<g id="Node000005" class="node">
<title>Node5</title>
<g id="a_Node000005"><a xlink:href="no__os__util_8h.html" target="_top" xlink:title="Header file of utility functions.">
<polygon fill="white" stroke="#666666" points="278.73,-74 203.73,-74 203.73,-55 278.73,-55 278.73,-74"/>
<text text-anchor="middle" x="241.23" y="-62" font-family="Helvetica,sans-Serif" font-size="10.00">no_os_util.h</text>
</a>
</g>
</g>
<!-- Node1&#45;&gt;Node5 -->
<g id="edge6_Node000001_Node000005" class="edge">
<title>Node1&#45;&gt;Node5</title>
<g id="a_edge6_Node000001_Node000005"><a xlink:title=" ">
<path fill="none" stroke="#63b8ff" d="M176.64,-109.95C190.56,-100.37 207.06,-89.02 219.89,-80.19"/>
<polygon fill="#63b8ff" stroke="#63b8ff" points="222.25,-82.81 228.5,-74.26 218.28,-77.05 222.25,-82.81"/>
</a>
</g>
</g>
<!-- Node8 -->
<g id="Node000008" class="node">
<title>Node8</title>
<g id="a_Node000008"><a xlink:href="no__os__error_8h.html" target="_top" xlink:title="Error codes definition.">
<polygon fill="white" stroke="#666666" points="379.23,-74 297.23,-74 297.23,-55 379.23,-55 379.23,-74"/>
<text text-anchor="middle" x="338.23" y="-62" font-family="Helvetica,sans-Serif" font-size="10.00">no_os_error.h</text>
</a>
</g>
</g>
<!-- Node1&#45;&gt;Node8 -->
<g id="edge10_Node000001_Node000008" class="edge">
<title>Node1&#45;&gt;Node8</title>
<g id="a_edge10_Node000001_Node000008"><a xlink:title=" ">
<path fill="none" stroke="#63b8ff" d="M206.27,-109.95C237.91,-99.29 276.04,-86.45 303.15,-77.31"/>
<polygon fill="#63b8ff" stroke="#63b8ff" points="304.61,-80.52 312.97,-74.01 302.38,-73.88 304.61,-80.52"/>
</a>
</g>
</g>
<!-- Node3&#45;&gt;Node2 -->
<g id="edge3_Node000003_Node000002" class="edge">
<title>Node3&#45;&gt;Node2</title>
<g id="a_edge3_Node000003_Node000002"><a xlink:title=" ">
<path fill="none" stroke="#63b8ff" d="M58.51,-54.75C62.94,-47.42 69.39,-36.73 74.85,-27.7"/>
<polygon fill="#63b8ff" stroke="#63b8ff" points="77.87,-29.46 80.04,-19.09 71.88,-25.84 77.87,-29.46"/>
</a>
</g>
</g>
<!-- Node4&#45;&gt;Node2 -->
<g id="edge5_Node000004_Node000002" class="edge">
<title>Node4&#45;&gt;Node2</title>
<g id="a_edge5_Node000004_Node000002"><a xlink:title=" ">
<path fill="none" stroke="#63b8ff" d="M138.11,-54.98C128.79,-47.15 114.76,-35.34 103.49,-25.86"/>
<polygon fill="#63b8ff" stroke="#63b8ff" points="105.44,-22.93 95.54,-19.17 100.93,-28.29 105.44,-22.93"/>
</a>
</g>
</g>
<!-- Node5&#45;&gt;Node2 -->
<g id="edge7_Node000005_Node000002" class="edge">
<title>Node5&#45;&gt;Node2</title>
<g id="a_edge7_Node000005_Node000002"><a xlink:title=" ">
<path fill="none" stroke="#63b8ff" d="M216.17,-54.98C190.2,-46.16 149.42,-32.31 120.27,-22.41"/>
<polygon fill="#63b8ff" stroke="#63b8ff" points="121.08,-18.99 110.49,-19.08 118.83,-25.61 121.08,-18.99"/>
</a>
</g>
</g>
<!-- Node6 -->
<g id="Node000006" class="node">
<title>Node6</title>
<g id="a_Node000006"><a xlink:title=" ">
<polygon fill="#e0e0e0" stroke="#999999" points="202.73,-19 149.73,-19 149.73,0 202.73,0 202.73,-19"/>
<text text-anchor="middle" x="176.23" y="-7" font-family="Helvetica,sans-Serif" font-size="10.00">stdlib.h</text>
</a>
</g>
</g>
<!-- Node5&#45;&gt;Node6 -->
<g id="edge8_Node000005_Node000006" class="edge">
<title>Node5&#45;&gt;Node6</title>
<g id="a_edge8_Node000005_Node000006"><a xlink:title=" ">
<path fill="none" stroke="#63b8ff" d="M230.79,-54.98C221.08,-47.07 206.41,-35.11 194.73,-25.58"/>
<polygon fill="#63b8ff" stroke="#63b8ff" points="196.82,-22.78 186.86,-19.17 192.4,-28.2 196.82,-22.78"/>
</a>
</g>
</g>
<!-- Node7 -->
<g id="Node000007" class="node">
<title>Node7</title>
<g id="a_Node000007"><a xlink:title=" ">
<polygon fill="#e0e0e0" stroke="#999999" points="283.23,-19 221.23,-19 221.23,0 283.23,0 283.23,-19"/>
<text text-anchor="middle" x="252.23" y="-7" font-family="Helvetica,sans-Serif" font-size="10.00">stdbool.h</text>
</a>
</g>
</g>
<!-- Node5&#45;&gt;Node7 -->
<g id="edge9_Node000005_Node000007" class="edge">
<title>Node5&#45;&gt;Node7</title>
<g id="a_edge9_Node000005_Node000007"><a xlink:title=" ">
<path fill="none" stroke="#63b8ff" d="M243.05,-54.75C244.49,-47.8 246.55,-37.85 248.36,-29.13"/>
<polygon fill="#63b8ff" stroke="#63b8ff" points="251.84,-29.59 250.45,-19.09 244.99,-28.17 251.84,-29.59"/>
</a>
</g>
</g>
<!-- Node9 -->
<g id="Node000009" class="node">
<title>Node9</title>
<g id="a_Node000009"><a xlink:href="errno_8h.html" target="_top" xlink:title="Error macro definition for ARM Compiler.">
<polygon fill="white" stroke="#666666" points="363.73,-19 312.73,-19 312.73,0 363.73,0 363.73,-19"/>
<text text-anchor="middle" x="338.23" y="-7" font-family="Helvetica,sans-Serif" font-size="10.00">errno.h</text>
</a>
</g>
</g>
<!-- Node8&#45;&gt;Node9 -->
<g id="edge11_Node000008_Node000009" class="edge">
<title>Node8&#45;&gt;Node9</title>
<g id="a_edge11_Node000008_Node000009"><a xlink:title=" ">
<path fill="none" stroke="#63b8ff" d="M338.23,-54.75C338.23,-47.8 338.23,-37.85 338.23,-29.13"/>
<polygon fill="#63b8ff" stroke="#63b8ff" points="341.73,-29.09 338.23,-19.09 334.73,-29.09 341.73,-29.09"/>
</a>
</g>
</g>
</g>
</svg>
