<?xml version="1.0" encoding="UTF-8" standalone="no"?>
<!DOCTYPE svg PUBLIC "-//W3C//DTD SVG 1.1//EN"
 "http://www.w3.org/Graphics/SVG/1.1/DTD/svg11.dtd">
<!-- Generated by graphviz version 2.43.0 (0)
 -->
<!-- Title: /home/runner/work/no&#45;OS/no&#45;OS/drivers/dac/ad5758/ad5758.c Pages: 1 -->
<svg width="803pt" height="214pt"
 viewBox="0.00 0.00 803.00 214.00" xmlns="http://www.w3.org/2000/svg" xmlns:xlink="http://www.w3.org/1999/xlink">
<g id="graph0" class="graph" transform="scale(1 1) rotate(0) translate(4 210)">
<title>/home/runner/work/no&#45;OS/no&#45;OS/drivers/dac/ad5758/ad5758.c</title>
<!-- Node1 -->
<g id="Node000001" class="node">
<title>Node1</title>
<g id="a_Node000001"><a xlink:title="Implementation of ad5758 Driver.">
<polygon fill="#999999" stroke="#666666" points="446,-206 322,-206 322,-165 446,-165 446,-206"/>
<text text-anchor="start" x="330" y="-194" font-family="Helvetica,sans-Serif" font-size="10.00">/home/runner/work/no</text>
<text text-anchor="start" x="330" y="-183" font-family="Helvetica,sans-Serif" font-size="10.00">&#45;OS/no&#45;OS/drivers/dac</text>
<text text-anchor="middle" x="384" y="-172" font-family="Helvetica,sans-Serif" font-size="10.00">/ad5758/ad5758.c</text>
</a>
</g>
</g>
<!-- Node2 -->
<g id="Node000002" class="node">
<title>Node2</title>
<g id="a_Node000002"><a xlink:href="ad5758_8h.html" target="_top" xlink:title="Header file for ad5758 Driver.">
<polygon fill="white" stroke="#666666" points="157,-129 95,-129 95,-110 157,-110 157,-129"/>
<text text-anchor="middle" x="126" y="-117" font-family="Helvetica,sans-Serif" font-size="10.00">ad5758.h</text>
</a>
</g>
</g>
<!-- Node1&#45;&gt;Node2 -->
<g id="edge1_Node000001_Node000002" class="edge">
<title>Node1&#45;&gt;Node2</title>
<g id="a_edge1_Node000001_Node000002"><a xlink:title=" ">
<path fill="none" stroke="#63b8ff" d="M321.87,-169.09C273.8,-157.16 208.6,-140.99 166.91,-130.65"/>
<polygon fill="#63b8ff" stroke="#63b8ff" points="167.64,-127.22 157.09,-128.21 165.96,-134.02 167.64,-127.22"/>
</a>
</g>
</g>
<!-- Node3 -->
<g id="Node000003" class="node">
<title>Node3</title>
<g id="a_Node000003"><a xlink:href="no__os__gpio_8h.html" target="_top" xlink:title="Header file of GPIO Interface.">
<polygon fill="white" stroke="#666666" points="80,-74 0,-74 0,-55 80,-55 80,-74"/>
<text text-anchor="middle" x="40" y="-62" font-family="Helvetica,sans-Serif" font-size="10.00">no_os_gpio.h</text>
</a>
</g>
</g>
<!-- Node1&#45;&gt;Node3 -->
<g id="edge10_Node000001_Node000003" class="edge">
<title>Node1&#45;&gt;Node3</title>
<g id="a_edge10_Node000001_Node000003"><a xlink:title=" ">
<path fill="none" stroke="#63b8ff" d="M321.81,-178.38C246.33,-170.03 124.36,-153.26 86,-129 68.61,-118 55.72,-97.86 48.08,-83.2"/>
<polygon fill="#63b8ff" stroke="#63b8ff" points="51.17,-81.56 43.64,-74.11 44.88,-84.63 51.17,-81.56"/>
</a>
</g>
</g>
<!-- Node5 -->
<g id="Node000005" class="node">
<title>Node5</title>
<g id="a_Node000005"><a xlink:href="no__os__spi_8h.html" target="_top" xlink:title="Header file of SPI Interface.">
<polygon fill="white" stroke="#666666" points="172,-74 98,-74 98,-55 172,-55 172,-74"/>
<text text-anchor="middle" x="135" y="-62" font-family="Helvetica,sans-Serif" font-size="10.00">no_os_spi.h</text>
</a>
</g>
</g>
<!-- Node1&#45;&gt;Node5 -->
<g id="edge14_Node000001_Node000005" class="edge">
<title>Node1&#45;&gt;Node5</title>
<g id="a_edge14_Node000001_Node000005"><a xlink:title=" ">
<path fill="none" stroke="#63b8ff" d="M321.86,-165.94C293.21,-156.43 259.17,-143.73 230,-129 202.15,-114.94 172.67,-94.19 154.07,-80.28"/>
<polygon fill="#63b8ff" stroke="#63b8ff" points="155.95,-77.31 145.86,-74.05 151.72,-82.89 155.95,-77.31"/>
</a>
</g>
</g>
<!-- Node6 -->
<g id="Node000006" class="node">
<title>Node6</title>
<g id="a_Node000006"><a xlink:href="no__os__delay_8h.html" target="_top" xlink:title="Header file of Delay functions.">
<polygon fill="white" stroke="#666666" points="275.5,-74 190.5,-74 190.5,-55 275.5,-55 275.5,-74"/>
<text text-anchor="middle" x="233" y="-62" font-family="Helvetica,sans-Serif" font-size="10.00">no_os_delay.h</text>
</a>
</g>
</g>
<!-- Node1&#45;&gt;Node6 -->
<g id="edge6_Node000001_Node000006" class="edge">
<title>Node1&#45;&gt;Node6</title>
<g id="a_edge6_Node000001_Node000006"><a xlink:title=" ">
<path fill="none" stroke="#63b8ff" d="M321.96,-174.95C293.34,-167.31 261.47,-153.59 242,-129 232.17,-116.59 230.49,-98.37 230.93,-84.63"/>
<polygon fill="#63b8ff" stroke="#63b8ff" points="234.44,-84.59 231.67,-74.37 227.46,-84.09 234.44,-84.59"/>
</a>
</g>
</g>
<!-- Node7 -->
<g id="Node000007" class="node">
<title>Node7</title>
<g id="a_Node000007"><a xlink:href="no__os__error_8h.html" target="_top" xlink:title="Error codes definition.">
<polygon fill="white" stroke="#666666" points="333,-129 251,-129 251,-110 333,-110 333,-129"/>
<text text-anchor="middle" x="292" y="-117" font-family="Helvetica,sans-Serif" font-size="10.00">no_os_error.h</text>
</a>
</g>
</g>
<!-- Node1&#45;&gt;Node7 -->
<g id="edge8_Node000001_Node000007" class="edge">
<title>Node1&#45;&gt;Node7</title>
<g id="a_edge8_Node000001_Node000007"><a xlink:title=" ">
<path fill="none" stroke="#63b8ff" d="M355.9,-164.95C342.12,-155.37 325.81,-144.02 313.11,-135.19"/>
<polygon fill="#63b8ff" stroke="#63b8ff" points="314.8,-132.1 304.59,-129.26 310.8,-137.84 314.8,-132.1"/>
</a>
</g>
</g>
<!-- Node9 -->
<g id="Node000009" class="node">
<title>Node9</title>
<g id="a_Node000009"><a xlink:title=" ">
<polygon fill="#e0e0e0" stroke="#999999" points="416.5,-129 351.5,-129 351.5,-110 416.5,-110 416.5,-129"/>
<text text-anchor="middle" x="384" y="-117" font-family="Helvetica,sans-Serif" font-size="10.00">inttypes.h</text>
</a>
</g>
</g>
<!-- Node1&#45;&gt;Node9 -->
<g id="edge11_Node000001_Node000009" class="edge">
<title>Node1&#45;&gt;Node9</title>
<g id="a_edge11_Node000001_Node000009"><a xlink:title=" ">
<path fill="none" stroke="#63b8ff" d="M384,-164.95C384,-156.85 384,-147.5 384,-139.47"/>
<polygon fill="#63b8ff" stroke="#63b8ff" points="387.5,-139.26 384,-129.26 380.5,-139.26 387.5,-139.26"/>
</a>
</g>
</g>
<!-- Node10 -->
<g id="Node000010" class="node">
<title>Node10</title>
<g id="a_Node000010"><a xlink:href="no__os__print__log_8h.html" target="_top" xlink:title="Print messages helpers.">
<polygon fill="white" stroke="#666666" points="537,-129 435,-129 435,-110 537,-110 537,-129"/>
<text text-anchor="middle" x="486" y="-117" font-family="Helvetica,sans-Serif" font-size="10.00">no_os_print_log.h</text>
</a>
</g>
</g>
<!-- Node1&#45;&gt;Node10 -->
<g id="edge12_Node000001_Node000010" class="edge">
<title>Node1&#45;&gt;Node10</title>
<g id="a_edge12_Node000001_Node000010"><a xlink:title=" ">
<path fill="none" stroke="#63b8ff" d="M415.16,-164.95C430.82,-155.12 449.45,-143.43 463.67,-134.51"/>
<polygon fill="#63b8ff" stroke="#63b8ff" points="465.7,-137.37 472.31,-129.09 461.98,-131.44 465.7,-137.37"/>
</a>
</g>
</g>
<!-- Node11 -->
<g id="Node000011" class="node">
<title>Node11</title>
<g id="a_Node000011"><a xlink:title=" ">
<polygon fill="#e0e0e0" stroke="#999999" points="590,-74 540,-74 540,-55 590,-55 590,-74"/>
<text text-anchor="middle" x="565" y="-62" font-family="Helvetica,sans-Serif" font-size="10.00">stdio.h</text>
</a>
</g>
</g>
<!-- Node1&#45;&gt;Node11 -->
<g id="edge19_Node000001_Node000011" class="edge">
<title>Node1&#45;&gt;Node11</title>
<g id="a_edge19_Node000001_Node000011"><a xlink:title=" ">
<path fill="none" stroke="#63b8ff" d="M446.02,-177.16C479.76,-170.09 519.83,-156.22 546,-129 557.58,-116.96 562.14,-98.15 563.91,-84.12"/>
<polygon fill="#63b8ff" stroke="#63b8ff" points="567.4,-84.4 564.82,-74.12 560.43,-83.76 567.4,-84.4"/>
</a>
</g>
</g>
<!-- Node12 -->
<g id="Node000012" class="node">
<title>Node12</title>
<g id="a_Node000012"><a xlink:href="no__os__alloc_8h.html" target="_top" xlink:title=" ">
<polygon fill="white" stroke="#666666" points="676.5,-129 593.5,-129 593.5,-110 676.5,-110 676.5,-129"/>
<text text-anchor="middle" x="635" y="-117" font-family="Helvetica,sans-Serif" font-size="10.00">no_os_alloc.h</text>
</a>
</g>
</g>
<!-- Node1&#45;&gt;Node12 -->
<g id="edge15_Node000001_Node000012" class="edge">
<title>Node1&#45;&gt;Node12</title>
<g id="a_edge15_Node000001_Node000012"><a xlink:title=" ">
<path fill="none" stroke="#63b8ff" d="M446.04,-168.68C491.28,-157.15 551.44,-141.81 591.61,-131.56"/>
<polygon fill="#63b8ff" stroke="#63b8ff" points="592.54,-134.94 601.36,-129.08 590.81,-128.16 592.54,-134.94"/>
</a>
</g>
</g>
<!-- Node13 -->
<g id="Node000013" class="node">
<title>Node13</title>
<g id="a_Node000013"><a xlink:title=" ">
<polygon fill="#e0e0e0" stroke="#999999" points="696.5,-74 643.5,-74 643.5,-55 696.5,-55 696.5,-74"/>
<text text-anchor="middle" x="670" y="-62" font-family="Helvetica,sans-Serif" font-size="10.00">stdlib.h</text>
</a>
</g>
</g>
<!-- Node1&#45;&gt;Node13 -->
<g id="edge20_Node000001_Node000013" class="edge">
<title>Node1&#45;&gt;Node13</title>
<g id="a_edge20_Node000001_Node000013"><a xlink:title=" ">
<path fill="none" stroke="#63b8ff" d="M446.26,-182.13C525.61,-177.65 656.1,-164.89 686,-129 696.76,-116.08 689.75,-96.9 681.91,-83"/>
<polygon fill="#63b8ff" stroke="#63b8ff" points="684.8,-81.02 676.56,-74.36 678.85,-84.71 684.8,-81.02"/>
</a>
</g>
</g>
<!-- Node14 -->
<g id="Node000014" class="node">
<title>Node14</title>
<g id="a_Node000014"><a xlink:title=" ">
<polygon fill="#e0e0e0" stroke="#999999" points="795,-129 733,-129 733,-110 795,-110 795,-129"/>
<text text-anchor="middle" x="764" y="-117" font-family="Helvetica,sans-Serif" font-size="10.00">stdbool.h</text>
</a>
</g>
</g>
<!-- Node1&#45;&gt;Node14 -->
<g id="edge18_Node000001_Node000014" class="edge">
<title>Node1&#45;&gt;Node14</title>
<g id="a_edge18_Node000001_Node000014"><a xlink:title=" ">
<path fill="none" stroke="#63b8ff" d="M446.12,-174.64C513.43,-163.85 623.95,-145.85 719,-129 720.1,-128.81 721.21,-128.61 722.33,-128.41"/>
<polygon fill="#63b8ff" stroke="#63b8ff" points="723.34,-131.78 732.55,-126.53 722.08,-124.89 723.34,-131.78"/>
</a>
</g>
</g>
<!-- Node2&#45;&gt;Node3 -->
<g id="edge2_Node000002_Node000003" class="edge">
<title>Node2&#45;&gt;Node3</title>
<g id="a_edge2_Node000002_Node000003"><a xlink:title=" ">
<path fill="none" stroke="#63b8ff" d="M112.18,-109.98C98.85,-101.77 78.42,-89.18 62.69,-79.49"/>
<polygon fill="#63b8ff" stroke="#63b8ff" points="64.42,-76.44 54.07,-74.17 60.75,-82.4 64.42,-76.44"/>
</a>
</g>
</g>
<!-- Node2&#45;&gt;Node5 -->
<g id="edge4_Node000002_Node000005" class="edge">
<title>Node2&#45;&gt;Node5</title>
<g id="a_edge4_Node000002_Node000005"><a xlink:title=" ">
<path fill="none" stroke="#63b8ff" d="M127.49,-109.75C128.67,-102.8 130.36,-92.85 131.84,-84.13"/>
<polygon fill="#63b8ff" stroke="#63b8ff" points="135.32,-84.53 133.54,-74.09 128.42,-83.36 135.32,-84.53"/>
</a>
</g>
</g>
<!-- Node4 -->
<g id="Node000004" class="node">
<title>Node4</title>
<g id="a_Node000004"><a xlink:title=" ">
<polygon fill="#e0e0e0" stroke="#999999" points="161.5,-19 108.5,-19 108.5,0 161.5,0 161.5,-19"/>
<text text-anchor="middle" x="135" y="-7" font-family="Helvetica,sans-Serif" font-size="10.00">stdint.h</text>
</a>
</g>
</g>
<!-- Node3&#45;&gt;Node4 -->
<g id="edge3_Node000003_Node000004" class="edge">
<title>Node3&#45;&gt;Node4</title>
<g id="a_edge3_Node000003_Node000004"><a xlink:title=" ">
<path fill="none" stroke="#63b8ff" d="M55.26,-54.98C70.13,-46.69 92.98,-33.94 110.42,-24.22"/>
<polygon fill="#63b8ff" stroke="#63b8ff" points="112.43,-27.1 119.46,-19.17 109.02,-20.99 112.43,-27.1"/>
</a>
</g>
</g>
<!-- Node5&#45;&gt;Node4 -->
<g id="edge5_Node000005_Node000004" class="edge">
<title>Node5&#45;&gt;Node4</title>
<g id="a_edge5_Node000005_Node000004"><a xlink:title=" ">
<path fill="none" stroke="#63b8ff" d="M135,-54.75C135,-47.8 135,-37.85 135,-29.13"/>
<polygon fill="#63b8ff" stroke="#63b8ff" points="138.5,-29.09 135,-19.09 131.5,-29.09 138.5,-29.09"/>
</a>
</g>
</g>
<!-- Node6&#45;&gt;Node4 -->
<g id="edge7_Node000006_Node000004" class="edge">
<title>Node6&#45;&gt;Node4</title>
<g id="a_edge7_Node000006_Node000004"><a xlink:title=" ">
<path fill="none" stroke="#63b8ff" d="M217.25,-54.98C201.77,-46.61 177.91,-33.7 159.86,-23.95"/>
<polygon fill="#63b8ff" stroke="#63b8ff" points="161.49,-20.85 151.03,-19.17 158.16,-27.01 161.49,-20.85"/>
</a>
</g>
</g>
<!-- Node8 -->
<g id="Node000008" class="node">
<title>Node8</title>
<g id="a_Node000008"><a xlink:href="errno_8h.html" target="_top" xlink:title="Error macro definition for ARM Compiler.">
<polygon fill="white" stroke="#666666" points="344.5,-74 293.5,-74 293.5,-55 344.5,-55 344.5,-74"/>
<text text-anchor="middle" x="319" y="-62" font-family="Helvetica,sans-Serif" font-size="10.00">errno.h</text>
</a>
</g>
</g>
<!-- Node7&#45;&gt;Node8 -->
<g id="edge9_Node000007_Node000008" class="edge">
<title>Node7&#45;&gt;Node8</title>
<g id="a_edge9_Node000007_Node000008"><a xlink:title=" ">
<path fill="none" stroke="#63b8ff" d="M296.46,-109.75C300.12,-102.57 305.41,-92.18 309.95,-83.27"/>
<polygon fill="#63b8ff" stroke="#63b8ff" points="313.2,-84.59 314.62,-74.09 306.97,-81.41 313.2,-84.59"/>
</a>
</g>
</g>
<!-- Node10&#45;&gt;Node11 -->
<g id="edge13_Node000010_Node000011" class="edge">
<title>Node10&#45;&gt;Node11</title>
<g id="a_edge13_Node000010_Node000011"><a xlink:title=" ">
<path fill="none" stroke="#63b8ff" d="M498.69,-109.98C510.83,-101.84 529.36,-89.41 543.75,-79.76"/>
<polygon fill="#63b8ff" stroke="#63b8ff" points="545.72,-82.65 552.08,-74.17 541.82,-76.84 545.72,-82.65"/>
</a>
</g>
</g>
<!-- Node12&#45;&gt;Node11 -->
<g id="edge16_Node000012_Node000011" class="edge">
<title>Node12&#45;&gt;Node11</title>
<g id="a_edge16_Node000012_Node000011"><a xlink:title=" ">
<path fill="none" stroke="#63b8ff" d="M623.75,-109.98C613.2,-102 597.2,-89.88 584.56,-80.31"/>
<polygon fill="#63b8ff" stroke="#63b8ff" points="586.54,-77.42 576.45,-74.17 582.31,-83 586.54,-77.42"/>
</a>
</g>
</g>
<!-- Node12&#45;&gt;Node13 -->
<g id="edge17_Node000012_Node000013" class="edge">
<title>Node12&#45;&gt;Node13</title>
<g id="a_edge17_Node000012_Node000013"><a xlink:title=" ">
<path fill="none" stroke="#63b8ff" d="M640.78,-109.75C645.62,-102.42 652.68,-91.73 658.64,-82.7"/>
<polygon fill="#63b8ff" stroke="#63b8ff" points="661.74,-84.36 664.33,-74.09 655.9,-80.5 661.74,-84.36"/>
</a>
</g>
</g>
</g>
</svg>
