<?xml version="1.0" encoding="UTF-8" standalone="no"?>
<!DOCTYPE svg PUBLIC "-//W3C//DTD SVG 1.1//EN"
 "http://www.w3.org/Graphics/SVG/1.1/DTD/svg11.dtd">
<!-- Generated by graphviz version 2.43.0 (0)
 -->
<!-- Title: /home/runner/work/no&#45;OS/no&#45;OS/drivers/adc/ad7124/ad7124.h Pages: 1 -->
<svg width="835pt" height="203pt"
 viewBox="0.00 0.00 834.50 203.00" xmlns="http://www.w3.org/2000/svg" xmlns:xlink="http://www.w3.org/1999/xlink">
<g id="graph0" class="graph" transform="scale(1 1) rotate(0) translate(4 199)">
<title>/home/runner/work/no&#45;OS/no&#45;OS/drivers/adc/ad7124/ad7124.h</title>
<!-- Node1 -->
<g id="Node000001" class="node">
<title>Node1</title>
<g id="a_Node000001"><a xlink:title="AD7124 header file. Devices: AD7124&#45;4, AD7124&#45;8.">
<polygon fill="#999999" stroke="#666666" points="414,-195 290,-195 290,-154 414,-154 414,-195"/>
<text text-anchor="start" x="298" y="-183" font-family="Helvetica,sans-Serif" font-size="10.00">/home/runner/work/no</text>
<text text-anchor="start" x="298" y="-172" font-family="Helvetica,sans-Serif" font-size="10.00">&#45;OS/no&#45;OS/drivers/adc</text>
<text text-anchor="middle" x="352" y="-161" font-family="Helvetica,sans-Serif" font-size="10.00">/ad7124/ad7124.h</text>
</a>
</g>
</g>
<!-- Node2 -->
<g id="Node000002" class="node">
<title>Node2</title>
<g id="a_Node000002"><a xlink:href="ad7124_8c.html" target="_top" xlink:title="AD7124 implementation file. Devices: AD7124&#45;4, AD7124&#45;8.">
<polygon fill="white" stroke="#666666" points="124,-118 0,-118 0,-77 124,-77 124,-118"/>
<text text-anchor="start" x="8" y="-106" font-family="Helvetica,sans-Serif" font-size="10.00">/home/runner/work/no</text>
<text text-anchor="start" x="8" y="-95" font-family="Helvetica,sans-Serif" font-size="10.00">&#45;OS/no&#45;OS/drivers/adc</text>
<text text-anchor="middle" x="62" y="-84" font-family="Helvetica,sans-Serif" font-size="10.00">/ad7124/ad7124.c</text>
</a>
</g>
</g>
<!-- Node1&#45;&gt;Node2 -->
<g id="edge1_Node000001_Node000002" class="edge">
<title>Node1&#45;&gt;Node2</title>
<g id="a_edge1_Node000001_Node000002"><a xlink:title=" ">
<path fill="none" stroke="#63b8ff" d="M279.86,-155.6C237.11,-144.9 181.9,-130.91 133,-118 130.16,-117.25 127.25,-116.48 124.32,-115.69"/>
<polygon fill="#63b8ff" stroke="#63b8ff" points="279.06,-159.01 289.61,-158.04 280.76,-152.22 279.06,-159.01"/>
</a>
</g>
</g>
<!-- Node3 -->
<g id="Node000003" class="node">
<title>Node3</title>
<g id="a_Node000003"><a xlink:href="drivers_2adc_2ad7124_2ad7124__regs_8h.html" target="_top" xlink:title="AD7124 register file. Devices: AD7124&#45;4, AD7124&#45;8.">
<polygon fill="white" stroke="#666666" points="272,-118 142,-118 142,-77 272,-77 272,-118"/>
<text text-anchor="start" x="150" y="-106" font-family="Helvetica,sans-Serif" font-size="10.00">/home/runner/work/no</text>
<text text-anchor="start" x="150" y="-95" font-family="Helvetica,sans-Serif" font-size="10.00">&#45;OS/no&#45;OS/drivers/adc</text>
<text text-anchor="middle" x="207" y="-84" font-family="Helvetica,sans-Serif" font-size="10.00">/ad7124/ad7124_regs.h</text>
</a>
</g>
</g>
<!-- Node1&#45;&gt;Node3 -->
<g id="edge2_Node000001_Node000003" class="edge">
<title>Node1&#45;&gt;Node3</title>
<g id="a_edge2_Node000001_Node000003"><a xlink:title=" ">
<path fill="none" stroke="#63b8ff" d="M305.24,-149.31C285.68,-139.2 263.26,-127.6 244.78,-118.04"/>
<polygon fill="#63b8ff" stroke="#63b8ff" points="303.79,-152.5 314.28,-153.99 307.01,-146.29 303.79,-152.5"/>
</a>
</g>
</g>
<!-- Node5 -->
<g id="Node000005" class="node">
<title>Node5</title>
<g id="a_Node000005"><a xlink:href="iio__ad7124_8c.html" target="_top" xlink:title="Implementation of iio_ad7124.c.">
<polygon fill="white" stroke="#666666" points="414,-118 290,-118 290,-77 414,-77 414,-118"/>
<text text-anchor="start" x="298" y="-106" font-family="Helvetica,sans-Serif" font-size="10.00">/home/runner/work/no</text>
<text text-anchor="start" x="298" y="-95" font-family="Helvetica,sans-Serif" font-size="10.00">&#45;OS/no&#45;OS/drivers/adc</text>
<text text-anchor="middle" x="352" y="-84" font-family="Helvetica,sans-Serif" font-size="10.00">/ad7124/iio_ad7124.c</text>
</a>
</g>
</g>
<!-- Node1&#45;&gt;Node5 -->
<g id="edge4_Node000001_Node000005" class="edge">
<title>Node1&#45;&gt;Node5</title>
<g id="a_edge4_Node000001_Node000005"><a xlink:title=" ">
<path fill="none" stroke="#63b8ff" d="M352,-143.69C352,-135.08 352,-125.9 352,-118.07"/>
<polygon fill="#63b8ff" stroke="#63b8ff" points="348.5,-143.79 352,-153.79 355.5,-143.79 348.5,-143.79"/>
</a>
</g>
</g>
<!-- Node6 -->
<g id="Node000006" class="node">
<title>Node6</title>
<g id="a_Node000006"><a xlink:href="ad7124-4sdz_8c.html" target="_top" xlink:title="ad7124 application example.">
<polygon fill="white" stroke="#666666" points="579.5,-118 432.5,-118 432.5,-77 579.5,-77 579.5,-118"/>
<text text-anchor="start" x="440.5" y="-106" font-family="Helvetica,sans-Serif" font-size="10.00">/home/runner/work/no</text>
<text text-anchor="start" x="440.5" y="-95" font-family="Helvetica,sans-Serif" font-size="10.00">&#45;OS/no&#45;OS/projects/ad7124</text>
<text text-anchor="middle" x="506" y="-84" font-family="Helvetica,sans-Serif" font-size="10.00">&#45;4sdz/src/ad7124&#45;4sdz.c</text>
</a>
</g>
</g>
<!-- Node1&#45;&gt;Node6 -->
<g id="edge5_Node000001_Node000006" class="edge">
<title>Node1&#45;&gt;Node6</title>
<g id="a_edge5_Node000001_Node000006"><a xlink:title=" ">
<path fill="none" stroke="#63b8ff" d="M401.1,-149.59C422,-139.41 446.07,-127.69 465.87,-118.04"/>
<polygon fill="#63b8ff" stroke="#63b8ff" points="399.52,-146.47 392.06,-153.99 402.58,-152.76 399.52,-146.47"/>
</a>
</g>
</g>
<!-- Node7 -->
<g id="Node000007" class="node">
<title>Node7</title>
<g id="a_Node000007"><a xlink:href="projects_2ad7124-8pmdz_2src_2ad7124__regs_8h.html" target="_top" xlink:title="AD7124 register file.">
<polygon fill="white" stroke="#666666" points="744.5,-118 597.5,-118 597.5,-77 744.5,-77 744.5,-118"/>
<text text-anchor="start" x="605.5" y="-106" font-family="Helvetica,sans-Serif" font-size="10.00">/home/runner/work/no</text>
<text text-anchor="start" x="605.5" y="-95" font-family="Helvetica,sans-Serif" font-size="10.00">&#45;OS/no&#45;OS/projects/ad7124</text>
<text text-anchor="middle" x="671" y="-84" font-family="Helvetica,sans-Serif" font-size="10.00">&#45;8pmdz/src/ad7124_regs.h</text>
</a>
</g>
</g>
<!-- Node1&#45;&gt;Node7 -->
<g id="edge6_Node000001_Node000007" class="edge">
<title>Node1&#45;&gt;Node7</title>
<g id="a_edge6_Node000001_Node000007"><a xlink:title=" ">
<path fill="none" stroke="#63b8ff" d="M424.16,-156.67C471.13,-145.7 533.71,-131.05 589,-118 591.71,-117.36 594.46,-116.71 597.25,-116.05"/>
<polygon fill="#63b8ff" stroke="#63b8ff" points="423.33,-153.27 414.39,-158.95 424.92,-160.09 423.33,-153.27"/>
</a>
</g>
</g>
<!-- Node4 -->
<g id="Node000004" class="node">
<title>Node4</title>
<g id="a_Node000004"><a xlink:href="drivers_2adc_2ad7124_2ad7124__regs_8c.html" target="_top" xlink:title="AD7124 register file. Devices: AD7124&#45;4, AD7124&#45;8.">
<polygon fill="white" stroke="#666666" points="271.5,-41 142.5,-41 142.5,0 271.5,0 271.5,-41"/>
<text text-anchor="start" x="150.5" y="-29" font-family="Helvetica,sans-Serif" font-size="10.00">/home/runner/work/no</text>
<text text-anchor="start" x="150.5" y="-18" font-family="Helvetica,sans-Serif" font-size="10.00">&#45;OS/no&#45;OS/drivers/adc</text>
<text text-anchor="middle" x="207" y="-7" font-family="Helvetica,sans-Serif" font-size="10.00">/ad7124/ad7124_regs.c</text>
</a>
</g>
</g>
<!-- Node3&#45;&gt;Node4 -->
<g id="edge3_Node000003_Node000004" class="edge">
<title>Node3&#45;&gt;Node4</title>
<g id="a_edge3_Node000003_Node000004"><a xlink:title=" ">
<path fill="none" stroke="#63b8ff" d="M207,-66.69C207,-58.08 207,-48.9 207,-41.07"/>
<polygon fill="#63b8ff" stroke="#63b8ff" points="203.5,-66.79 207,-76.79 210.5,-66.79 203.5,-66.79"/>
</a>
</g>
</g>
<!-- Node8 -->
<g id="Node000008" class="node">
<title>Node8</title>
<g id="a_Node000008"><a xlink:href="projects_2ad7124-8pmdz_2src_2ad7124__regs_8c.html" target="_top" xlink:title="AD7124 register file.">
<polygon fill="white" stroke="#666666" points="661.5,-41 514.5,-41 514.5,0 661.5,0 661.5,-41"/>
<text text-anchor="start" x="522.5" y="-29" font-family="Helvetica,sans-Serif" font-size="10.00">/home/runner/work/no</text>
<text text-anchor="start" x="522.5" y="-18" font-family="Helvetica,sans-Serif" font-size="10.00">&#45;OS/no&#45;OS/projects/ad7124</text>
<text text-anchor="middle" x="588" y="-7" font-family="Helvetica,sans-Serif" font-size="10.00">&#45;8pmdz/src/ad7124_regs.c</text>
</a>
</g>
</g>
<!-- Node7&#45;&gt;Node8 -->
<g id="edge7_Node000007_Node000008" class="edge">
<title>Node7&#45;&gt;Node8</title>
<g id="a_edge7_Node000007_Node000008"><a xlink:title=" ">
<path fill="none" stroke="#63b8ff" d="M641.75,-70.07C631.19,-60.52 619.46,-49.93 609.66,-41.07"/>
<polygon fill="#63b8ff" stroke="#63b8ff" points="639.43,-72.69 649.19,-76.79 644.12,-67.49 639.43,-72.69"/>
</a>
</g>
</g>
<!-- Node9 -->
<g id="Node000009" class="node">
<title>Node9</title>
<g id="a_Node000009"><a xlink:href="ad7124-8pmdz_2src_2main_8c.html" target="_top" xlink:title="Implementation of Main Function.">
<polygon fill="white" stroke="#666666" points="826.5,-41 679.5,-41 679.5,0 826.5,0 826.5,-41"/>
<text text-anchor="start" x="687.5" y="-29" font-family="Helvetica,sans-Serif" font-size="10.00">/home/runner/work/no</text>
<text text-anchor="start" x="687.5" y="-18" font-family="Helvetica,sans-Serif" font-size="10.00">&#45;OS/no&#45;OS/projects/ad7124</text>
<text text-anchor="middle" x="753" y="-7" font-family="Helvetica,sans-Serif" font-size="10.00">&#45;8pmdz/src/main.c</text>
</a>
</g>
</g>
<!-- Node7&#45;&gt;Node9 -->
<g id="edge8_Node000007_Node000009" class="edge">
<title>Node7&#45;&gt;Node9</title>
<g id="a_edge8_Node000007_Node000009"><a xlink:title=" ">
<path fill="none" stroke="#63b8ff" d="M700.2,-69.79C710.56,-60.32 722.01,-49.84 731.6,-41.07"/>
<polygon fill="#63b8ff" stroke="#63b8ff" points="697.56,-67.46 692.54,-76.79 702.29,-72.63 697.56,-67.46"/>
</a>
</g>
</g>
</g>
</svg>
