<?xml version="1.0" encoding="UTF-8" standalone="no"?>
<!DOCTYPE svg PUBLIC "-//W3C//DTD SVG 1.1//EN"
 "http://www.w3.org/Graphics/SVG/1.1/DTD/svg11.dtd">
<!-- Generated by graphviz version 2.43.0 (0)
 -->
<!-- Title: /home/runner/work/no&#45;OS/no&#45;OS/drivers/adc/ad717x/ad717x.h Pages: 1 -->
<svg width="1394pt" height="126pt"
 viewBox="0.00 0.00 1394.00 126.00" xmlns="http://www.w3.org/2000/svg" xmlns:xlink="http://www.w3.org/1999/xlink">
<g id="graph0" class="graph" transform="scale(1 1) rotate(0) translate(4 122)">
<title>/home/runner/work/no&#45;OS/no&#45;OS/drivers/adc/ad717x/ad717x.h</title>
<!-- Node1 -->
<g id="Node000001" class="node">
<title>Node1</title>
<g id="a_Node000001"><a xlink:title="AD717X header file. Devices: AD7172&#45;2, AD7172&#45;4, AD7173&#45;8, AD7175&#45;2, AD7175&#45;8, AD7176&#45;2,...">
<polygon fill="#999999" stroke="#666666" points="758,-118 634,-118 634,-77 758,-77 758,-118"/>
<text text-anchor="start" x="642" y="-106" font-family="Helvetica,sans-Serif" font-size="10.00">/home/runner/work/no</text>
<text text-anchor="start" x="642" y="-95" font-family="Helvetica,sans-Serif" font-size="10.00">&#45;OS/no&#45;OS/drivers/adc</text>
<text text-anchor="middle" x="696" y="-84" font-family="Helvetica,sans-Serif" font-size="10.00">/ad717x/ad717x.h</text>
</a>
</g>
</g>
<!-- Node2 -->
<g id="Node000002" class="node">
<title>Node2</title>
<g id="a_Node000002"><a xlink:href="ad411x__regs_8h.html" target="_top" xlink:title="ad4111 Registers Definitions.">
<polygon fill="white" stroke="#666666" points="130,-41 0,-41 0,0 130,0 130,-41"/>
<text text-anchor="start" x="8" y="-29" font-family="Helvetica,sans-Serif" font-size="10.00">/home/runner/work/no</text>
<text text-anchor="start" x="8" y="-18" font-family="Helvetica,sans-Serif" font-size="10.00">&#45;OS/no&#45;OS/drivers/adc</text>
<text text-anchor="middle" x="65" y="-7" font-family="Helvetica,sans-Serif" font-size="10.00">/ad717x/ad411x_regs.h</text>
</a>
</g>
</g>
<!-- Node1&#45;&gt;Node2 -->
<g id="edge1_Node000001_Node000002" class="edge">
<title>Node1&#45;&gt;Node2</title>
<g id="a_edge1_Node000001_Node000002"><a xlink:title=" ">
<path fill="none" stroke="#63b8ff" d="M623.72,-92.96C517.01,-86.91 311.32,-72.09 139,-41 136.12,-40.48 133.19,-39.91 130.24,-39.29"/>
<polygon fill="#63b8ff" stroke="#63b8ff" points="623.56,-96.46 633.74,-93.52 623.95,-89.47 623.56,-96.46"/>
</a>
</g>
</g>
<!-- Node3 -->
<g id="Node000003" class="node">
<title>Node3</title>
<g id="a_Node000003"><a xlink:href="ad7172__2__regs_8h.html" target="_top" xlink:title="AD7172_2 Registers Definitions.">
<polygon fill="white" stroke="#666666" points="289.5,-41 148.5,-41 148.5,0 289.5,0 289.5,-41"/>
<text text-anchor="start" x="156.5" y="-29" font-family="Helvetica,sans-Serif" font-size="10.00">/home/runner/work/no</text>
<text text-anchor="start" x="156.5" y="-18" font-family="Helvetica,sans-Serif" font-size="10.00">&#45;OS/no&#45;OS/drivers/adc</text>
<text text-anchor="middle" x="219" y="-7" font-family="Helvetica,sans-Serif" font-size="10.00">/ad717x/ad7172_2_regs.h</text>
</a>
</g>
</g>
<!-- Node1&#45;&gt;Node3 -->
<g id="edge2_Node000001_Node000003" class="edge">
<title>Node1&#45;&gt;Node3</title>
<g id="a_edge2_Node000001_Node000003"><a xlink:title=" ">
<path fill="none" stroke="#63b8ff" d="M624,-88.73C544,-79.57 411.16,-62.8 298,-41 295.23,-40.47 292.4,-39.9 289.56,-39.3"/>
<polygon fill="#63b8ff" stroke="#63b8ff" points="623.64,-92.21 633.97,-89.86 624.43,-85.26 623.64,-92.21"/>
</a>
</g>
</g>
<!-- Node4 -->
<g id="Node000004" class="node">
<title>Node4</title>
<g id="a_Node000004"><a xlink:href="ad7172__4__regs_8h.html" target="_top" xlink:title="AD7172_4 Registers Definitions.">
<polygon fill="white" stroke="#666666" points="448.5,-41 307.5,-41 307.5,0 448.5,0 448.5,-41"/>
<text text-anchor="start" x="315.5" y="-29" font-family="Helvetica,sans-Serif" font-size="10.00">/home/runner/work/no</text>
<text text-anchor="start" x="315.5" y="-18" font-family="Helvetica,sans-Serif" font-size="10.00">&#45;OS/no&#45;OS/drivers/adc</text>
<text text-anchor="middle" x="378" y="-7" font-family="Helvetica,sans-Serif" font-size="10.00">/ad717x/ad7172_4_regs.h</text>
</a>
</g>
</g>
<!-- Node1&#45;&gt;Node4 -->
<g id="edge3_Node000001_Node000004" class="edge">
<title>Node1&#45;&gt;Node4</title>
<g id="a_edge3_Node000001_Node000004"><a xlink:title=" ">
<path fill="none" stroke="#63b8ff" d="M623.92,-80.03C576.46,-69.13 512.98,-54.41 457,-41 454.25,-40.34 451.45,-39.67 448.62,-38.98"/>
<polygon fill="#63b8ff" stroke="#63b8ff" points="623.27,-83.48 633.8,-82.3 624.83,-76.65 623.27,-83.48"/>
</a>
</g>
</g>
<!-- Node5 -->
<g id="Node000005" class="node">
<title>Node5</title>
<g id="a_Node000005"><a xlink:href="ad7173__8__regs_8h.html" target="_top" xlink:title="AD7173_8 Registers Definitions.">
<polygon fill="white" stroke="#666666" points="607.5,-41 466.5,-41 466.5,0 607.5,0 607.5,-41"/>
<text text-anchor="start" x="474.5" y="-29" font-family="Helvetica,sans-Serif" font-size="10.00">/home/runner/work/no</text>
<text text-anchor="start" x="474.5" y="-18" font-family="Helvetica,sans-Serif" font-size="10.00">&#45;OS/no&#45;OS/drivers/adc</text>
<text text-anchor="middle" x="537" y="-7" font-family="Helvetica,sans-Serif" font-size="10.00">/ad717x/ad7173_8_regs.h</text>
</a>
</g>
</g>
<!-- Node1&#45;&gt;Node5 -->
<g id="edge4_Node000001_Node000005" class="edge">
<title>Node1&#45;&gt;Node5</title>
<g id="a_edge4_Node000001_Node000005"><a xlink:title=" ">
<path fill="none" stroke="#63b8ff" d="M645.59,-72.72C623.95,-62.51 598.97,-50.73 578.43,-41.04"/>
<polygon fill="#63b8ff" stroke="#63b8ff" points="644.1,-75.89 654.64,-76.99 647.09,-69.56 644.1,-75.89"/>
</a>
</g>
</g>
<!-- Node6 -->
<g id="Node000006" class="node">
<title>Node6</title>
<g id="a_Node000006"><a xlink:href="ad7175__2__regs_8h.html" target="_top" xlink:title="AD7175_2 Registers Definitions.">
<polygon fill="white" stroke="#666666" points="766.5,-41 625.5,-41 625.5,0 766.5,0 766.5,-41"/>
<text text-anchor="start" x="633.5" y="-29" font-family="Helvetica,sans-Serif" font-size="10.00">/home/runner/work/no</text>
<text text-anchor="start" x="633.5" y="-18" font-family="Helvetica,sans-Serif" font-size="10.00">&#45;OS/no&#45;OS/drivers/adc</text>
<text text-anchor="middle" x="696" y="-7" font-family="Helvetica,sans-Serif" font-size="10.00">/ad717x/ad7175_2_regs.h</text>
</a>
</g>
</g>
<!-- Node1&#45;&gt;Node6 -->
<g id="edge5_Node000001_Node000006" class="edge">
<title>Node1&#45;&gt;Node6</title>
<g id="a_edge5_Node000001_Node000006"><a xlink:title=" ">
<path fill="none" stroke="#63b8ff" d="M696,-66.69C696,-58.08 696,-48.9 696,-41.07"/>
<polygon fill="#63b8ff" stroke="#63b8ff" points="692.5,-66.79 696,-76.79 699.5,-66.79 692.5,-66.79"/>
</a>
</g>
</g>
<!-- Node7 -->
<g id="Node000007" class="node">
<title>Node7</title>
<g id="a_Node000007"><a xlink:href="ad7175__8__regs_8h.html" target="_top" xlink:title="AD7175_8 Registers Definitions.">
<polygon fill="white" stroke="#666666" points="925.5,-41 784.5,-41 784.5,0 925.5,0 925.5,-41"/>
<text text-anchor="start" x="792.5" y="-29" font-family="Helvetica,sans-Serif" font-size="10.00">/home/runner/work/no</text>
<text text-anchor="start" x="792.5" y="-18" font-family="Helvetica,sans-Serif" font-size="10.00">&#45;OS/no&#45;OS/drivers/adc</text>
<text text-anchor="middle" x="855" y="-7" font-family="Helvetica,sans-Serif" font-size="10.00">/ad717x/ad7175_8_regs.h</text>
</a>
</g>
</g>
<!-- Node1&#45;&gt;Node7 -->
<g id="edge6_Node000001_Node000007" class="edge">
<title>Node1&#45;&gt;Node7</title>
<g id="a_edge6_Node000001_Node000007"><a xlink:title=" ">
<path fill="none" stroke="#63b8ff" d="M746.41,-72.72C768.05,-62.51 793.03,-50.73 813.57,-41.04"/>
<polygon fill="#63b8ff" stroke="#63b8ff" points="744.91,-69.56 737.36,-76.99 747.9,-75.89 744.91,-69.56"/>
</a>
</g>
</g>
<!-- Node8 -->
<g id="Node000008" class="node">
<title>Node8</title>
<g id="a_Node000008"><a xlink:href="ad7176__2__regs_8h.html" target="_top" xlink:title="AD7176_2 Registers Definitions.">
<polygon fill="white" stroke="#666666" points="1084.5,-41 943.5,-41 943.5,0 1084.5,0 1084.5,-41"/>
<text text-anchor="start" x="951.5" y="-29" font-family="Helvetica,sans-Serif" font-size="10.00">/home/runner/work/no</text>
<text text-anchor="start" x="951.5" y="-18" font-family="Helvetica,sans-Serif" font-size="10.00">&#45;OS/no&#45;OS/drivers/adc</text>
<text text-anchor="middle" x="1014" y="-7" font-family="Helvetica,sans-Serif" font-size="10.00">/ad717x/ad7176_2_regs.h</text>
</a>
</g>
</g>
<!-- Node1&#45;&gt;Node8 -->
<g id="edge7_Node000001_Node000008" class="edge">
<title>Node1&#45;&gt;Node8</title>
<g id="a_edge7_Node000001_Node000008"><a xlink:title=" ">
<path fill="none" stroke="#63b8ff" d="M768.08,-80.03C815.54,-69.13 879.02,-54.41 935,-41 937.75,-40.34 940.55,-39.67 943.38,-38.98"/>
<polygon fill="#63b8ff" stroke="#63b8ff" points="767.17,-76.65 758.2,-82.3 768.73,-83.48 767.17,-76.65"/>
</a>
</g>
</g>
<!-- Node9 -->
<g id="Node000009" class="node">
<title>Node9</title>
<g id="a_Node000009"><a xlink:href="ad7177__2__regs_8h.html" target="_top" xlink:title=" ">
<polygon fill="white" stroke="#666666" points="1243.5,-41 1102.5,-41 1102.5,0 1243.5,0 1243.5,-41"/>
<text text-anchor="start" x="1110.5" y="-29" font-family="Helvetica,sans-Serif" font-size="10.00">/home/runner/work/no</text>
<text text-anchor="start" x="1110.5" y="-18" font-family="Helvetica,sans-Serif" font-size="10.00">&#45;OS/no&#45;OS/drivers/adc</text>
<text text-anchor="middle" x="1173" y="-7" font-family="Helvetica,sans-Serif" font-size="10.00">/ad717x/ad7177_2_regs.h</text>
</a>
</g>
</g>
<!-- Node1&#45;&gt;Node9 -->
<g id="edge8_Node000001_Node000009" class="edge">
<title>Node1&#45;&gt;Node9</title>
<g id="a_edge8_Node000001_Node000009"><a xlink:title=" ">
<path fill="none" stroke="#63b8ff" d="M768,-88.73C848,-79.57 980.84,-62.8 1094,-41 1096.77,-40.47 1099.6,-39.9 1102.44,-39.3"/>
<polygon fill="#63b8ff" stroke="#63b8ff" points="767.57,-85.26 758.03,-89.86 768.36,-92.21 767.57,-85.26"/>
</a>
</g>
</g>
<!-- Node10 -->
<g id="Node000010" class="node">
<title>Node10</title>
<g id="a_Node000010"><a xlink:href="ad717x_8c.html" target="_top" xlink:title="AD717X implementation file. Devices: AD7172&#45;2, AD7172&#45;4, AD7173&#45;8, AD7175&#45;2, AD7175&#45;8,...">
<polygon fill="white" stroke="#666666" points="1386,-41 1262,-41 1262,0 1386,0 1386,-41"/>
<text text-anchor="start" x="1270" y="-29" font-family="Helvetica,sans-Serif" font-size="10.00">/home/runner/work/no</text>
<text text-anchor="start" x="1270" y="-18" font-family="Helvetica,sans-Serif" font-size="10.00">&#45;OS/no&#45;OS/drivers/adc</text>
<text text-anchor="middle" x="1324" y="-7" font-family="Helvetica,sans-Serif" font-size="10.00">/ad717x/ad717x.c</text>
</a>
</g>
</g>
<!-- Node1&#45;&gt;Node10 -->
<g id="edge9_Node000001_Node000010" class="edge">
<title>Node1&#45;&gt;Node10</title>
<g id="a_edge9_Node000001_Node000010"><a xlink:title=" ">
<path fill="none" stroke="#63b8ff" d="M768.32,-93.2C875.09,-87.44 1080.84,-72.98 1253,-41 1255.89,-40.46 1258.83,-39.87 1261.8,-39.22"/>
<polygon fill="#63b8ff" stroke="#63b8ff" points="768.1,-89.7 758.3,-93.73 768.47,-96.69 768.1,-89.7"/>
</a>
</g>
</g>
</g>
</svg>
