<?xml version="1.0" encoding="UTF-8" standalone="no"?>
<!DOCTYPE svg PUBLIC "-//W3C//DTD SVG 1.1//EN"
 "http://www.w3.org/Graphics/SVG/1.1/DTD/svg11.dtd">
<!-- Generated by graphviz version 2.43.0 (0)
 -->
<!-- Title: /home/runner/work/no&#45;OS/no&#45;OS/drivers/adc/ad719x/ad719x.h Pages: 1 -->
<svg width="318pt" height="159pt"
 viewBox="0.00 0.00 317.78 159.00" xmlns="http://www.w3.org/2000/svg" xmlns:xlink="http://www.w3.org/1999/xlink">

<svg id="main" version="1.1" xmlns="http://www.w3.org/2000/svg" xmlns:xlink="http://www.w3.org/1999/xlink" xml:space="preserve">

<style type="text/css"><![CDATA[
.node, .edge {opacity: 0.7;}
.node.selected, .edge.selected {opacity: 1;}
.edge:hover path { stroke: red; }
.edge:hover polygon { stroke: red; fill: red; }
]]></style>
<script type="application/ecmascript" xlink:href="svg.min.js"/>
<svg id="graph" class="graph">
<g id="graph0" class="graph" transform="scale(1 1) rotate(0) translate(4 155)">
<title>/home/runner/work/no&#45;OS/no&#45;OS/drivers/adc/ad719x/ad719x.h</title>
<!-- Node1 -->
<g id="Node000001" class="node">
<title>Node1</title>
<g id="a_Node000001"><a xlink:title="Header file of AD7190/2/3/4/5 Driver.">
<polygon fill="#999999" stroke="#666666" points="162.78,-151 38.78,-151 38.78,-110 162.78,-110 162.78,-151"/>
<text text-anchor="start" x="46.78" y="-139" font-family="Helvetica,sans-Serif" font-size="10.00">/home/runner/work/no</text>
<text text-anchor="start" x="46.78" y="-128" font-family="Helvetica,sans-Serif" font-size="10.00">&#45;OS/no&#45;OS/drivers/adc</text>
<text text-anchor="middle" x="100.78" y="-117" font-family="Helvetica,sans-Serif" font-size="10.00">/ad719x/ad719x.h</text>
</a>
</g>
</g>
<!-- Node2 -->
<g id="Node000002" class="node">
<title>Node2</title>
<g id="a_Node000002"><a xlink:title=" ">
<polygon fill="#e0e0e0" stroke="#999999" points="138.28,-19 85.28,-19 85.28,0 138.28,0 138.28,-19"/>
<text text-anchor="middle" x="111.78" y="-7" font-family="Helvetica,sans-Serif" font-size="10.00">stdint.h</text>
</a>
</g>
</g>
<!-- Node1&#45;&gt;Node2 -->
<g id="edge1_Node000001_Node000002" class="edge">
<title>Node1&#45;&gt;Node2</title>
<g id="a_edge1_Node000001_Node000002"><a xlink:title=" ">
<path fill="none" stroke="#63b8ff" d="M43.17,-109.85C14.74,-96.81 -10.5,-77.9 4.78,-55 20.31,-31.72 50.56,-20.6 74.95,-15.3"/>
<polygon fill="#63b8ff" stroke="#63b8ff" points="75.82,-18.69 84.98,-13.36 74.5,-11.82 75.82,-18.69"/>
</a>
</g>
</g>
<!-- Node3 -->
<g id="Node000003" class="node">
<title>Node3</title>
<g id="a_Node000003"><a xlink:href="no__os__gpio_8h.html" target="_top" xlink:title="Header file of GPIO Interface.">
<polygon fill="white" stroke="#666666" points="93.78,-74 13.78,-74 13.78,-55 93.78,-55 93.78,-74"/>
<text text-anchor="middle" x="53.78" y="-62" font-family="Helvetica,sans-Serif" font-size="10.00">no_os_gpio.h</text>
</a>
</g>
</g>
<!-- Node1&#45;&gt;Node3 -->
<g id="edge2_Node000001_Node000003" class="edge">
<title>Node1&#45;&gt;Node3</title>
<g id="a_edge2_Node000001_Node000003"><a xlink:title=" ">
<path fill="none" stroke="#63b8ff" d="M86.42,-109.95C80,-101.2 72.49,-90.99 66.3,-82.56"/>
<polygon fill="#63b8ff" stroke="#63b8ff" points="68.95,-80.25 60.21,-74.26 63.31,-84.39 68.95,-80.25"/>
</a>
</g>
</g>
<!-- Node4 -->
<g id="Node000004" class="node">
<title>Node4</title>
<g id="a_Node000004"><a xlink:href="no__os__spi_8h.html" target="_top" xlink:title="Header file of SPI Interface.">
<polygon fill="white" stroke="#666666" points="185.78,-74 111.78,-74 111.78,-55 185.78,-55 185.78,-74"/>
<text text-anchor="middle" x="148.78" y="-62" font-family="Helvetica,sans-Serif" font-size="10.00">no_os_spi.h</text>
</a>
</g>
</g>
<!-- Node1&#45;&gt;Node4 -->
<g id="edge4_Node000001_Node000004" class="edge">
<title>Node1&#45;&gt;Node4</title>
<g id="a_edge4_Node000001_Node000004"><a xlink:title=" ">
<path fill="none" stroke="#63b8ff" d="M115.44,-109.95C122.07,-101.11 129.82,-90.77 136.19,-82.29"/>
<polygon fill="#63b8ff" stroke="#63b8ff" points="139.01,-84.36 142.21,-74.26 133.41,-80.16 139.01,-84.36"/>
</a>
</g>
</g>
<!-- Node5 -->
<g id="Node000005" class="node">
<title>Node5</title>
<g id="a_Node000005"><a xlink:href="no__os__util_8h.html" target="_top" xlink:title="Header file of utility functions.">
<polygon fill="white" stroke="#666666" points="279.28,-74 204.28,-74 204.28,-55 279.28,-55 279.28,-74"/>
<text text-anchor="middle" x="241.78" y="-62" font-family="Helvetica,sans-Serif" font-size="10.00">no_os_util.h</text>
</a>
</g>
</g>
<!-- Node1&#45;&gt;Node5 -->
<g id="edge6_Node000001_Node000005" class="edge">
<title>Node1&#45;&gt;Node5</title>
<g id="a_edge6_Node000001_Node000005"><a xlink:title=" ">
<path fill="none" stroke="#63b8ff" d="M143.85,-109.95C166.54,-99.65 193.72,-87.31 213.68,-78.25"/>
<polygon fill="#63b8ff" stroke="#63b8ff" points="215.19,-81.41 222.85,-74.09 212.29,-75.04 215.19,-81.41"/>
</a>
</g>
</g>
<!-- Node3&#45;&gt;Node2 -->
<g id="edge3_Node000003_Node000002" class="edge">
<title>Node3&#45;&gt;Node2</title>
<g id="a_edge3_Node000003_Node000002"><a xlink:title=" ">
<path fill="none" stroke="#63b8ff" d="M63.09,-54.98C71.58,-47.23 84.33,-35.58 94.66,-26.14"/>
<polygon fill="#63b8ff" stroke="#63b8ff" points="97.27,-28.5 102.29,-19.17 92.54,-23.33 97.27,-28.5"/>
</a>
</g>
</g>
<!-- Node4&#45;&gt;Node2 -->
<g id="edge5_Node000004_Node000002" class="edge">
<title>Node4&#45;&gt;Node2</title>
<g id="a_edge5_Node000004_Node000002"><a xlink:title=" ">
<path fill="none" stroke="#63b8ff" d="M142.67,-54.75C137.49,-47.34 129.93,-36.5 123.58,-27.41"/>
<polygon fill="#63b8ff" stroke="#63b8ff" points="126.37,-25.29 117.77,-19.09 120.63,-29.29 126.37,-25.29"/>
</a>
</g>
</g>
<!-- Node5&#45;&gt;Node2 -->
<g id="edge7_Node000005_Node000002" class="edge">
<title>Node5&#45;&gt;Node2</title>
<g id="a_edge7_Node000005_Node000002"><a xlink:title=" ">
<path fill="none" stroke="#63b8ff" d="M220.89,-54.98C199.69,-46.34 166.65,-32.87 142.47,-23.02"/>
<polygon fill="#63b8ff" stroke="#63b8ff" points="143.62,-19.7 133.04,-19.17 140.98,-26.19 143.62,-19.7"/>
</a>
</g>
</g>
<!-- Node6 -->
<g id="Node000006" class="node">
<title>Node6</title>
<g id="a_Node000006"><a xlink:title=" ">
<polygon fill="#e0e0e0" stroke="#999999" points="229.28,-19 176.28,-19 176.28,0 229.28,0 229.28,-19"/>
<text text-anchor="middle" x="202.78" y="-7" font-family="Helvetica,sans-Serif" font-size="10.00">stdlib.h</text>
</a>
</g>
</g>
<!-- Node5&#45;&gt;Node6 -->
<g id="edge8_Node000005_Node000006" class="edge">
<title>Node5&#45;&gt;Node6</title>
<g id="a_edge8_Node000005_Node000006"><a xlink:title=" ">
<path fill="none" stroke="#63b8ff" d="M235.34,-54.75C229.88,-47.34 221.91,-36.5 215.22,-27.41"/>
<polygon fill="#63b8ff" stroke="#63b8ff" points="217.84,-25.07 209.1,-19.09 212.2,-29.22 217.84,-25.07"/>
</a>
</g>
</g>
<!-- Node7 -->
<g id="Node000007" class="node">
<title>Node7</title>
<g id="a_Node000007"><a xlink:title=" ">
<polygon fill="#e0e0e0" stroke="#999999" points="309.78,-19 247.78,-19 247.78,0 309.78,0 309.78,-19"/>
<text text-anchor="middle" x="278.78" y="-7" font-family="Helvetica,sans-Serif" font-size="10.00">stdbool.h</text>
</a>
</g>
</g>
<!-- Node5&#45;&gt;Node7 -->
<g id="edge9_Node000005_Node000007" class="edge">
<title>Node5&#45;&gt;Node7</title>
<g id="a_edge9_Node000005_Node000007"><a xlink:title=" ">
<path fill="none" stroke="#63b8ff" d="M247.89,-54.75C253.06,-47.34 260.62,-36.5 266.97,-27.41"/>
<polygon fill="#63b8ff" stroke="#63b8ff" points="269.93,-29.29 272.78,-19.09 264.19,-25.29 269.93,-29.29"/>
</a>
</g>
</g>
</g>
</svg>
</svg>

<style type='text/css'>
<![CDATA[
[data-mouse-over-selected='false'] { opacity: 0.7; }
[data-mouse-over-selected='true']  { opacity: 1.0; }
]]>
</style>
<script type="application/ecmascript"><![CDATA[
document.addEventListener('DOMContentLoaded', (event) => {
  highlightEdges();
  highlightAdjacentNodes();
});
]]></script>
</svg>
