<?xml version="1.0" encoding="UTF-8" standalone="no"?>
<!DOCTYPE svg PUBLIC "-//W3C//DTD SVG 1.1//EN"
 "http://www.w3.org/Graphics/SVG/1.1/DTD/svg11.dtd">
<!-- Generated by graphviz version 2.43.0 (0)
 -->
<!-- Title: /home/runner/work/no&#45;OS/no&#45;OS/drivers/adc&#45;dac/ad74413r/ad74413r.h Pages: 1 -->
<!--zoomable 302 -->

<svg id="main" version="1.1" xmlns="http://www.w3.org/2000/svg" xmlns:xlink="http://www.w3.org/1999/xlink" xml:space="preserve" onload="init(evt)">

<style type="text/css"><![CDATA[
.node, .edge {opacity: 0.7;}
.node.selected, .edge.selected {opacity: 1;}
.edge:hover path { stroke: red; }
.edge:hover polygon { stroke: red; fill: red; }
]]></style>

<defs>
  <circle id="rim" cx="0" cy="0" r="7"/>
  <circle id="rim2" cx="0" cy="0" r="3.5"/>
  <g id="zoomPlus">
    <use xlink:href="#rim" fill="#404040"><set attributeName="fill" to="#808080" begin="zoomplus.mouseover" end="zoomplus.mouseout"/></use>
    <path d="M-4,0h8M0,-4v8" fill="none" stroke="white" stroke-width="1.5" pointer-events="none"/>
  </g>
  <g id="zoomMin">
    <use xlink:href="#rim" fill="#404040"><set attributeName="fill" to="#808080" begin="zoomminus.mouseover" end="zoomminus.mouseout"/></use>
    <path d="M-4,0h8" fill="none" stroke="white" stroke-width="1.5" pointer-events="none"/>
  </g>
  <g id="arrowUp" transform="translate(30 24)">
    <use xlink:href="#rim"/>
    <path pointer-events="none" fill="none" stroke="white" stroke-width="1.5" d="M0,-3.0v7 M-2.5,-0.5L0,-3.0L2.5,-0.5"/>
  </g>
  <g id="arrowRight" transform="rotate(90) translate(36 -43)">
    <use xlink:href="#rim"/>
    <path pointer-events="none" fill="none" stroke="white" stroke-width="1.5" d="M0,-3.0v7 M-2.5,-0.5L0,-3.0L2.5,-0.5"/>
  </g>
  <g id="arrowDown" transform="rotate(180) translate(-30 -48)">
    <use xlink:href="#rim"/>
    <path pointer-events="none" fill="none" stroke="white" stroke-width="1.5" d="M0,-3.0v7 M-2.5,-0.5L0,-3.0L2.5,-0.5"/>
  </g>
  <g id="arrowLeft" transform="rotate(270) translate(-36 17)">
    <use xlink:href="#rim"/>
    <path pointer-events="none" fill="none" stroke="white" stroke-width="1.5" d="M0,-3.0v7 M-2.5,-0.5L0,-3.0L2.5,-0.5"/>
  </g>
  <g id="resetDef">
    <use xlink:href="#rim2" fill="#404040"><set attributeName="fill" to="#808080" begin="reset.mouseover" end="reset.mouseout"/></use>
  </g>
</defs>
<script type="application/ecmascript">
var viewWidth = 1157;
var viewHeight = 302;
var sectionId = 'dynsection-1';
</script>
<script type="application/ecmascript" xlink:href="svg.min.js"/>
<svg id="graph" class="graph">
<g id="viewport">
<title>/home/runner/work/no&#45;OS/no&#45;OS/drivers/adc&#45;dac/ad74413r/ad74413r.h</title>
<!-- Node1 -->
<g id="Node000001" class="node">
<title>Node1</title>
<g id="a_Node000001"><a xlink:title="Header file of AD74413r Driver.">
<polygon fill="#999999" stroke="#666666" points="666.5,-294 523.5,-294 523.5,-253 666.5,-253 666.5,-294"/>
<text text-anchor="start" x="531.5" y="-282" font-family="Helvetica,sans-Serif" font-size="10.00">/home/runner/work/no</text>
<text text-anchor="start" x="531.5" y="-271" font-family="Helvetica,sans-Serif" font-size="10.00">&#45;OS/no&#45;OS/drivers/adc</text>
<text text-anchor="middle" x="595" y="-260" font-family="Helvetica,sans-Serif" font-size="10.00">&#45;dac/ad74413r/ad74413r.h</text>
</a>
</g>
</g>
<!-- Node2 -->
<g id="Node000002" class="node">
<title>Node2</title>
<g id="a_Node000002"><a xlink:href="ad74413r_8c.html" target="_top" xlink:title="Source file of AD74413r Driver.">
<polygon fill="white" stroke="#666666" points="348.5,-211.5 205.5,-211.5 205.5,-170.5 348.5,-170.5 348.5,-211.5"/>
<text text-anchor="start" x="213.5" y="-199.5" font-family="Helvetica,sans-Serif" font-size="10.00">/home/runner/work/no</text>
<text text-anchor="start" x="213.5" y="-188.5" font-family="Helvetica,sans-Serif" font-size="10.00">&#45;OS/no&#45;OS/drivers/adc</text>
<text text-anchor="middle" x="277" y="-177.5" font-family="Helvetica,sans-Serif" font-size="10.00">&#45;dac/ad74413r/ad74413r.c</text>
</a>
</g>
</g>
<!-- Node1&#45;&gt;Node2 -->
<g id="edge1_Node000001_Node000002" class="edge">
<title>Node1&#45;&gt;Node2</title>
<g id="a_edge1_Node000001_Node000002"><a xlink:title=" ">
<path fill="none" stroke="#63b8ff" d="M513.53,-254.02C468.94,-243.65 412.78,-230.18 363,-217 356.54,-215.29 349.82,-213.45 343.11,-211.57"/>
<polygon fill="#63b8ff" stroke="#63b8ff" points="512.91,-257.47 523.44,-256.32 514.49,-250.65 512.91,-257.47"/>
</a>
</g>
</g>
<!-- Node3 -->
<g id="Node000003" class="node">
<title>Node3</title>
<g id="a_Node000003"><a xlink:href="iio__ad74413r_8c.html" target="_top" xlink:title="Source file of the IIO AD74413r Driver.">
<polygon fill="white" stroke="#666666" points="160,-123.5 0,-123.5 0,-82.5 160,-82.5 160,-123.5"/>
<text text-anchor="start" x="8" y="-111.5" font-family="Helvetica,sans-Serif" font-size="10.00">/home/runner/work/no</text>
<text text-anchor="start" x="8" y="-100.5" font-family="Helvetica,sans-Serif" font-size="10.00">&#45;OS/no&#45;OS/drivers/adc</text>
<text text-anchor="middle" x="80" y="-89.5" font-family="Helvetica,sans-Serif" font-size="10.00">&#45;dac/ad74413r/iio_ad74413r.c</text>
</a>
</g>
</g>
<!-- Node1&#45;&gt;Node3 -->
<g id="edge2_Node000001_Node000003" class="edge">
<title>Node1&#45;&gt;Node3</title>
<g id="a_edge2_Node000001_Node000003"><a xlink:title=" ">
<path fill="none" stroke="#63b8ff" d="M513.39,-262.14C475.22,-254.32 430.66,-240.69 396,-217 372.15,-200.7 381.3,-180.63 357,-165 294.24,-124.62 265.88,-145.06 193,-129 182.4,-126.66 171.25,-124.2 160.25,-121.77"/>
<polygon fill="#63b8ff" stroke="#63b8ff" points="512.97,-265.62 523.45,-264.09 514.31,-258.75 512.97,-265.62"/>
</a>
</g>
</g>
<!-- Node4 -->
<g id="Node000004" class="node">
<title>Node4</title>
<g id="a_Node000004"><a xlink:href="iio__ad74413r_8h.html" target="_top" xlink:title="Header file of the IIO AD74413r Driver.">
<polygon fill="white" stroke="#666666" points="566.5,-211.5 405.5,-211.5 405.5,-170.5 566.5,-170.5 566.5,-211.5"/>
<text text-anchor="start" x="413.5" y="-199.5" font-family="Helvetica,sans-Serif" font-size="10.00">/home/runner/work/no</text>
<text text-anchor="start" x="413.5" y="-188.5" font-family="Helvetica,sans-Serif" font-size="10.00">&#45;OS/no&#45;OS/drivers/adc</text>
<text text-anchor="middle" x="486" y="-177.5" font-family="Helvetica,sans-Serif" font-size="10.00">&#45;dac/ad74413r/iio_ad74413r.h</text>
</a>
</g>
</g>
<!-- Node1&#45;&gt;Node4 -->
<g id="edge3_Node000001_Node000004" class="edge">
<title>Node1&#45;&gt;Node4</title>
<g id="a_edge3_Node000001_Node000004"><a xlink:title=" ">
<path fill="none" stroke="#63b8ff" d="M560.1,-246.72C544.76,-235.4 527.04,-222.31 512.77,-211.77"/>
<polygon fill="#63b8ff" stroke="#63b8ff" points="558.21,-249.68 568.34,-252.81 562.37,-244.05 558.21,-249.68"/>
</a>
</g>
</g>
<!-- Node8 -->
<g id="Node000008" class="node">
<title>Node8</title>
<g id="a_Node000008"><a xlink:href="swiot_8h.html" target="_top" xlink:title="Header file for the swiot IIO device.">
<polygon fill="white" stroke="#666666" points="767,-123.5 621,-123.5 621,-82.5 767,-82.5 767,-123.5"/>
<text text-anchor="start" x="629" y="-111.5" font-family="Helvetica,sans-Serif" font-size="10.00">/home/runner/work/no</text>
<text text-anchor="start" x="629" y="-100.5" font-family="Helvetica,sans-Serif" font-size="10.00">&#45;OS/no&#45;OS/projects/swiot1l</text>
<text text-anchor="middle" x="694" y="-89.5" font-family="Helvetica,sans-Serif" font-size="10.00">/src/common/swiot.h</text>
</a>
</g>
</g>
<!-- Node1&#45;&gt;Node8 -->
<g id="edge17_Node000001_Node000008" class="edge">
<title>Node1&#45;&gt;Node8</title>
<g id="a_edge17_Node000001_Node000008"><a xlink:title=" ">
<path fill="none" stroke="#63b8ff" d="M594.55,-242.65C595.5,-219.85 599.7,-188.47 614,-165 624.45,-147.85 641.65,-133.79 657.44,-123.52"/>
<polygon fill="#63b8ff" stroke="#63b8ff" points="591.05,-242.69 594.32,-252.76 598.05,-242.85 591.05,-242.69"/>
</a>
</g>
</g>
<!-- Node10 -->
<g id="Node000010" class="node">
<title>Node10</title>
<g id="a_Node000010"><a xlink:href="ad74413r_2src_2common_2common__data_8h.html" target="_top" xlink:title="Defines common data to be used by ad74413r examples.">
<polygon fill="white" stroke="#666666" points="784.5,-211.5 623.5,-211.5 623.5,-170.5 784.5,-170.5 784.5,-211.5"/>
<text text-anchor="start" x="631.5" y="-199.5" font-family="Helvetica,sans-Serif" font-size="10.00">/home/runner/work/no</text>
<text text-anchor="start" x="631.5" y="-188.5" font-family="Helvetica,sans-Serif" font-size="10.00">&#45;OS/no&#45;OS/projects/ad74413r</text>
<text text-anchor="middle" x="704" y="-177.5" font-family="Helvetica,sans-Serif" font-size="10.00">/src/common/common_data.h</text>
</a>
</g>
</g>
<!-- Node1&#45;&gt;Node10 -->
<g id="edge12_Node000001_Node000010" class="edge">
<title>Node1&#45;&gt;Node10</title>
<g id="a_edge12_Node000001_Node000010"><a xlink:title=" ">
<path fill="none" stroke="#63b8ff" d="M629.9,-246.72C645.24,-235.4 662.96,-222.31 677.23,-211.77"/>
<polygon fill="#63b8ff" stroke="#63b8ff" points="627.63,-244.05 621.66,-252.81 631.79,-249.68 627.63,-244.05"/>
</a>
</g>
</g>
<!-- Node12 -->
<g id="Node000012" class="node">
<title>Node12</title>
<g id="a_Node000012"><a xlink:href="ad74413r_2src_2examples_2dummy_2dummy__example_8c.html" target="_top" xlink:title="DUMMY example header for ad74413r project.">
<polygon fill="white" stroke="#666666" points="969,-217 803,-217 803,-165 969,-165 969,-217"/>
<text text-anchor="start" x="811" y="-205" font-family="Helvetica,sans-Serif" font-size="10.00">/home/runner/work/no</text>
<text text-anchor="start" x="811" y="-194" font-family="Helvetica,sans-Serif" font-size="10.00">&#45;OS/no&#45;OS/projects/ad74413r</text>
<text text-anchor="start" x="811" y="-183" font-family="Helvetica,sans-Serif" font-size="10.00">/src/examples/dummy/dummy</text>
<text text-anchor="middle" x="886" y="-172" font-family="Helvetica,sans-Serif" font-size="10.00">_example.c</text>
</a>
</g>
</g>
<!-- Node1&#45;&gt;Node12 -->
<g id="edge14_Node000001_Node000012" class="edge">
<title>Node1&#45;&gt;Node12</title>
<g id="a_edge14_Node000001_Node000012"><a xlink:title=" ">
<path fill="none" stroke="#63b8ff" d="M675.46,-250.24C715.14,-239.27 762.95,-226.04 802.97,-214.97"/>
<polygon fill="#63b8ff" stroke="#63b8ff" points="674.52,-246.87 665.81,-252.91 676.39,-253.62 674.52,-246.87"/>
</a>
</g>
</g>
<!-- Node13 -->
<g id="Node000013" class="node">
<title>Node13</title>
<g id="a_Node000013"><a xlink:href="swiot1l_2src_2common_2common__data_8h.html" target="_top" xlink:title="Defines common data to be used by the swiot1l project.">
<polygon fill="white" stroke="#666666" points="1148.5,-211.5 987.5,-211.5 987.5,-170.5 1148.5,-170.5 1148.5,-211.5"/>
<text text-anchor="start" x="995.5" y="-199.5" font-family="Helvetica,sans-Serif" font-size="10.00">/home/runner/work/no</text>
<text text-anchor="start" x="995.5" y="-188.5" font-family="Helvetica,sans-Serif" font-size="10.00">&#45;OS/no&#45;OS/projects/swiot1l</text>
<text text-anchor="middle" x="1068" y="-177.5" font-family="Helvetica,sans-Serif" font-size="10.00">/src/common/common_data.h</text>
</a>
</g>
</g>
<!-- Node1&#45;&gt;Node13 -->
<g id="edge15_Node000001_Node000013" class="edge">
<title>Node1&#45;&gt;Node13</title>
<g id="a_edge15_Node000001_Node000013"><a xlink:title=" ">
<path fill="none" stroke="#63b8ff" d="M677.01,-263.67C754.92,-254.57 875.12,-238.65 978,-217 985.62,-215.4 993.54,-213.52 1001.39,-211.52"/>
<polygon fill="#63b8ff" stroke="#63b8ff" points="676.3,-260.23 666.77,-264.86 677.11,-267.19 676.3,-260.23"/>
</a>
</g>
</g>
<!-- Node4&#45;&gt;Node3 -->
<g id="edge4_Node000004_Node000003" class="edge">
<title>Node4&#45;&gt;Node3</title>
<g id="a_edge4_Node000004_Node000003"><a xlink:title=" ">
<path fill="none" stroke="#63b8ff" d="M404.55,-168.04C399.97,-166.97 395.43,-165.95 391,-165 295.4,-144.54 269.57,-149.59 174,-129 166.32,-127.35 158.33,-125.47 150.4,-123.5"/>
<polygon fill="#63b8ff" stroke="#63b8ff" points="404.05,-171.52 414.59,-170.45 405.68,-164.71 404.05,-171.52"/>
</a>
</g>
</g>
<!-- Node5 -->
<g id="Node000005" class="node">
<title>Node5</title>
<g id="a_Node000005"><a xlink:href="ad74413r_2src_2examples_2iio__example_2iio__example_8c.html" target="_top" xlink:title="Implementation of IIO example for AD74413R project.">
<polygon fill="white" stroke="#666666" points="564.5,-129 407.5,-129 407.5,-77 564.5,-77 564.5,-129"/>
<text text-anchor="start" x="415.5" y="-117" font-family="Helvetica,sans-Serif" font-size="10.00">/home/runner/work/no</text>
<text text-anchor="start" x="415.5" y="-106" font-family="Helvetica,sans-Serif" font-size="10.00">&#45;OS/no&#45;OS/projects/ad74413r</text>
<text text-anchor="start" x="415.5" y="-95" font-family="Helvetica,sans-Serif" font-size="10.00">/src/examples/iio_example</text>
<text text-anchor="middle" x="486" y="-84" font-family="Helvetica,sans-Serif" font-size="10.00">/iio_example.c</text>
</a>
</g>
</g>
<!-- Node4&#45;&gt;Node5 -->
<g id="edge5_Node000004_Node000005" class="edge">
<title>Node4&#45;&gt;Node5</title>
<g id="a_edge5_Node000004_Node000005"><a xlink:title=" ">
<path fill="none" stroke="#63b8ff" d="M486,-160.44C486,-150.31 486,-139.08 486,-129.32"/>
<polygon fill="#63b8ff" stroke="#63b8ff" points="482.5,-160.49 486,-170.49 489.5,-160.49 482.5,-160.49"/>
</a>
</g>
</g>
<!-- Node6 -->
<g id="Node000006" class="node">
<title>Node6</title>
<g id="a_Node000006"><a xlink:href="ad74413r_2src_2examples_2iio__trigger__example_2iio__trigger__example_8c.html" target="_top" xlink:title="Implementation of IIO trigger example for AD74413R project.">
<polygon fill="white" stroke="#666666" points="389.5,-129 216.5,-129 216.5,-77 389.5,-77 389.5,-129"/>
<text text-anchor="start" x="224.5" y="-117" font-family="Helvetica,sans-Serif" font-size="10.00">/home/runner/work/no</text>
<text text-anchor="start" x="224.5" y="-106" font-family="Helvetica,sans-Serif" font-size="10.00">&#45;OS/no&#45;OS/projects/ad74413r</text>
<text text-anchor="start" x="224.5" y="-95" font-family="Helvetica,sans-Serif" font-size="10.00">/src/examples/iio_trigger</text>
<text text-anchor="middle" x="303" y="-84" font-family="Helvetica,sans-Serif" font-size="10.00">_example/iio_trigger_example.c</text>
</a>
</g>
</g>
<!-- Node4&#45;&gt;Node6 -->
<g id="edge6_Node000004_Node000006" class="edge">
<title>Node4&#45;&gt;Node6</title>
<g id="a_edge6_Node000004_Node000006"><a xlink:title=" ">
<path fill="none" stroke="#63b8ff" d="M435.34,-166.19C410.83,-154.68 381.41,-140.85 356.53,-129.16"/>
<polygon fill="#63b8ff" stroke="#63b8ff" points="433.94,-169.4 444.47,-170.49 436.91,-163.06 433.94,-169.4"/>
</a>
</g>
</g>
<!-- Node7 -->
<g id="Node000007" class="node">
<title>Node7</title>
<g id="a_Node000007"><a xlink:href="swiot_8c.html" target="_top" xlink:title="Source file for the swiot IIO driver.">
<polygon fill="white" stroke="#666666" points="716,-41 570,-41 570,0 716,0 716,-41"/>
<text text-anchor="start" x="578" y="-29" font-family="Helvetica,sans-Serif" font-size="10.00">/home/runner/work/no</text>
<text text-anchor="start" x="578" y="-18" font-family="Helvetica,sans-Serif" font-size="10.00">&#45;OS/no&#45;OS/projects/swiot1l</text>
<text text-anchor="middle" x="643" y="-7" font-family="Helvetica,sans-Serif" font-size="10.00">/src/common/swiot.c</text>
</a>
</g>
</g>
<!-- Node4&#45;&gt;Node7 -->
<g id="edge7_Node000004_Node000007" class="edge">
<title>Node4&#45;&gt;Node7</title>
<g id="a_edge7_Node000004_Node000007"><a xlink:title=" ">
<path fill="none" stroke="#63b8ff" d="M528.76,-164.77C543.73,-154.76 560.03,-142.42 573,-129 586.77,-114.75 615.24,-68.34 631.3,-41.39"/>
<polygon fill="#63b8ff" stroke="#63b8ff" points="526.6,-162 520.13,-170.39 530.41,-167.87 526.6,-162"/>
</a>
</g>
</g>
<!-- Node4&#45;&gt;Node8 -->
<g id="edge8_Node000004_Node000008" class="edge">
<title>Node4&#45;&gt;Node8</title>
<g id="a_edge8_Node000004_Node000008"><a xlink:title=" ">
<path fill="none" stroke="#63b8ff" d="M542.61,-166.6C575.21,-153.12 615.72,-136.37 646.63,-123.59"/>
<polygon fill="#63b8ff" stroke="#63b8ff" points="541.1,-163.43 533.2,-170.49 543.78,-169.9 541.1,-163.43"/>
</a>
</g>
</g>
<!-- Node9 -->
<g id="Node000009" class="node">
<title>Node9</title>
<g id="a_Node000009"><a xlink:href="swiot__fw_8c.html" target="_top" xlink:title="Main project file for the swiot1l project.">
<polygon fill="white" stroke="#666666" points="432,-41 286,-41 286,0 432,0 432,-41"/>
<text text-anchor="start" x="294" y="-29" font-family="Helvetica,sans-Serif" font-size="10.00">/home/runner/work/no</text>
<text text-anchor="start" x="294" y="-18" font-family="Helvetica,sans-Serif" font-size="10.00">&#45;OS/no&#45;OS/projects/swiot1l</text>
<text text-anchor="middle" x="359" y="-7" font-family="Helvetica,sans-Serif" font-size="10.00">/src/swiot_fw.c</text>
</a>
</g>
</g>
<!-- Node4&#45;&gt;Node9 -->
<g id="edge11_Node000004_Node000009" class="edge">
<title>Node4&#45;&gt;Node9</title>
<g id="a_edge11_Node000004_Node000009"><a xlink:title=" ">
<path fill="none" stroke="#63b8ff" d="M403.71,-168C399.42,-166.96 395.16,-165.95 391,-165 309.78,-146.39 259.96,-193.33 207,-129 192.31,-111.16 193.75,-95.94 207,-77 225.03,-51.22 256.38,-37.37 285.94,-29.95"/>
<polygon fill="#63b8ff" stroke="#63b8ff" points="403.21,-171.48 413.76,-170.47 404.89,-164.68 403.21,-171.48"/>
</a>
</g>
</g>
<!-- Node8&#45;&gt;Node7 -->
<g id="edge9_Node000008_Node000007" class="edge">
<title>Node8&#45;&gt;Node7</title>
<g id="a_edge9_Node000008_Node000007"><a xlink:title=" ">
<path fill="none" stroke="#63b8ff" d="M675.93,-73.48C669.16,-62.79 661.62,-50.88 655.46,-41.17"/>
<polygon fill="#63b8ff" stroke="#63b8ff" points="673.08,-75.53 681.39,-82.1 679,-71.78 673.08,-75.53"/>
</a>
</g>
</g>
<!-- Node8&#45;&gt;Node9 -->
<g id="edge10_Node000008_Node000009" class="edge">
<title>Node8&#45;&gt;Node9</title>
<g id="a_edge10_Node000008_Node000009"><a xlink:title=" ">
<path fill="none" stroke="#63b8ff" d="M610.86,-82.02C556.04,-68.85 484.92,-51.76 432.24,-39.1"/>
<polygon fill="#63b8ff" stroke="#63b8ff" points="610.36,-85.5 620.9,-84.43 611.99,-78.69 610.36,-85.5"/>
</a>
</g>
</g>
<!-- Node11 -->
<g id="Node000011" class="node">
<title>Node11</title>
<g id="a_Node000011"><a xlink:href="ad74413r_2src_2common_2common__data_8c.html" target="_top" xlink:title="Defines common data to be used by ad74413r examples.">
<polygon fill="white" stroke="#666666" points="946.5,-123.5 785.5,-123.5 785.5,-82.5 946.5,-82.5 946.5,-123.5"/>
<text text-anchor="start" x="793.5" y="-111.5" font-family="Helvetica,sans-Serif" font-size="10.00">/home/runner/work/no</text>
<text text-anchor="start" x="793.5" y="-100.5" font-family="Helvetica,sans-Serif" font-size="10.00">&#45;OS/no&#45;OS/projects/ad74413r</text>
<text text-anchor="middle" x="866" y="-89.5" font-family="Helvetica,sans-Serif" font-size="10.00">/src/common/common_data.c</text>
</a>
</g>
</g>
<!-- Node10&#45;&gt;Node11 -->
<g id="edge13_Node000010_Node000011" class="edge">
<title>Node10&#45;&gt;Node11</title>
<g id="a_edge13_Node000010_Node000011"><a xlink:title=" ">
<path fill="none" stroke="#63b8ff" d="M749.73,-165.72C774.83,-152.4 805.55,-136.09 829.11,-123.59"/>
<polygon fill="#63b8ff" stroke="#63b8ff" points="747.95,-162.7 740.76,-170.49 751.23,-168.89 747.95,-162.7"/>
</a>
</g>
</g>
<!-- Node14 -->
<g id="Node000014" class="node">
<title>Node14</title>
<g id="a_Node000014"><a xlink:href="swiot1l_2src_2common_2common__data_8c.html" target="_top" xlink:title="Defines common data to be used by the SWIOT1L firmware.">
<polygon fill="white" stroke="#666666" points="1148.5,-123.5 987.5,-123.5 987.5,-82.5 1148.5,-82.5 1148.5,-123.5"/>
<text text-anchor="start" x="995.5" y="-111.5" font-family="Helvetica,sans-Serif" font-size="10.00">/home/runner/work/no</text>
<text text-anchor="start" x="995.5" y="-100.5" font-family="Helvetica,sans-Serif" font-size="10.00">&#45;OS/no&#45;OS/projects/swiot1l</text>
<text text-anchor="middle" x="1068" y="-89.5" font-family="Helvetica,sans-Serif" font-size="10.00">/src/common/common_data.c</text>
</a>
</g>
</g>
<!-- Node13&#45;&gt;Node14 -->
<g id="edge16_Node000013_Node000014" class="edge">
<title>Node13&#45;&gt;Node14</title>
<g id="a_edge16_Node000013_Node000014"><a xlink:title=" ">
<path fill="none" stroke="#63b8ff" d="M1068,-160.36C1068,-148.26 1068,-134.58 1068,-123.74"/>
<polygon fill="#63b8ff" stroke="#63b8ff" points="1064.5,-160.49 1068,-170.49 1071.5,-160.49 1064.5,-160.49"/>
</a>
</g>
</g>
</g>
</svg>

<g id="navigator" transform="translate(0 0)" fill="#404254">
  <rect fill="#f2f5e9" fill-opacity="0.5" stroke="#606060" stroke-width=".5" x="0" y="0" width="60" height="60"/>
  <use id="zoomplus" xlink:href="#zoomPlus" x="17" y="9" onmousedown="handleZoom(evt,'in')"/>
  <use id="zoomminus" xlink:href="#zoomMin" x="42" y="9" onmousedown="handleZoom(evt,'out')"/>
  <use id="reset" xlink:href="#resetDef" x="30" y="36" onmousedown="handleReset()"/>
   <use id="arrowup" xlink:href="#arrowUp" x="0" y="0" onmousedown="handlePan(0,-1)"/>
  <use id="arrowright" xlink:href="#arrowRight" x="0" y="0" onmousedown="handlePan(1,0)"/>
  <use id="arrowdown" xlink:href="#arrowDown" x="0" y="0" onmousedown="handlePan(0,1)"/>
  <use id="arrowleft" xlink:href="#arrowLeft" x="0" y="0" onmousedown="handlePan(-1,0)"/>
</g>
<svg viewBox="0 0 15 15" width="100%" height="30px" preserveAspectRatio="xMaxYMin meet">
 <g id="arrow_out" transform="scale(0.3 0.3)">
  <a xlink:href="ad74413r_8h__dep__incl_org.svg" target="_base">
   <rect id="button" ry="5" rx="5" y="6" x="6" height="38" width="38"
        fill="#f2f5e9" fill-opacity="0.5" stroke="#606060" stroke-width="1.0"/>
   <path id="arrow"
     d="M 11.500037,31.436501 C 11.940474,20.09759 22.043105,11.32322 32.158766,21.979434 L 37.068811,17.246167 C 37.068811,17.246167 37.088388,32 37.088388,32 L 22.160133,31.978069 C 22.160133,31.978069 26.997745,27.140456 26.997745,27.140456 C 18.528582,18.264221 13.291696,25.230495 11.500037,31.436501 z"
     style="fill:#404040;"/>
  </a>
 </g>
</svg>

<style type='text/css'>
<![CDATA[
[data-mouse-over-selected='false'] { opacity: 0.7; }
[data-mouse-over-selected='true']  { opacity: 1.0; }
]]>
</style>
<script type="application/ecmascript"><![CDATA[
document.addEventListener('DOMContentLoaded', (event) => {
  highlightEdges();
  highlightAdjacentNodes();
});
]]></script>
</svg>
