<?xml version="1.0" encoding="UTF-8" standalone="no"?>
<!DOCTYPE svg PUBLIC "-//W3C//DTD SVG 1.1//EN"
 "http://www.w3.org/Graphics/SVG/1.1/DTD/svg11.dtd">
<!-- Generated by graphviz version 2.43.0 (0)
 -->
<!-- Title: /home/runner/work/no&#45;OS/no&#45;OS/drivers/adc/ad7490/ad7490.h Pages: 1 -->
<svg width="670pt" height="214pt"
 viewBox="0.00 0.00 669.50 214.00" xmlns="http://www.w3.org/2000/svg" xmlns:xlink="http://www.w3.org/1999/xlink">
<g id="graph0" class="graph" transform="scale(1 1) rotate(0) translate(4 210)">
<title>/home/runner/work/no&#45;OS/no&#45;OS/drivers/adc/ad7490/ad7490.h</title>
<!-- Node1 -->
<g id="Node000001" class="node">
<title>Node1</title>
<g id="a_Node000001"><a xlink:title="Header file of AD7490 Driver.">
<polygon fill="#999999" stroke="#666666" points="360,-206 236,-206 236,-165 360,-165 360,-206"/>
<text text-anchor="start" x="244" y="-194" font-family="Helvetica,sans-Serif" font-size="10.00">/home/runner/work/no</text>
<text text-anchor="start" x="244" y="-183" font-family="Helvetica,sans-Serif" font-size="10.00">&#45;OS/no&#45;OS/drivers/adc</text>
<text text-anchor="middle" x="298" y="-172" font-family="Helvetica,sans-Serif" font-size="10.00">/ad7490/ad7490.h</text>
</a>
</g>
</g>
<!-- Node2 -->
<g id="Node000002" class="node">
<title>Node2</title>
<g id="a_Node000002"><a xlink:href="ad7490_8c.html" target="_top" xlink:title="Source file of AD7490 Driver.">
<polygon fill="white" stroke="#666666" points="124,-123.5 0,-123.5 0,-82.5 124,-82.5 124,-123.5"/>
<text text-anchor="start" x="8" y="-111.5" font-family="Helvetica,sans-Serif" font-size="10.00">/home/runner/work/no</text>
<text text-anchor="start" x="8" y="-100.5" font-family="Helvetica,sans-Serif" font-size="10.00">&#45;OS/no&#45;OS/drivers/adc</text>
<text text-anchor="middle" x="62" y="-89.5" font-family="Helvetica,sans-Serif" font-size="10.00">/ad7490/ad7490.c</text>
</a>
</g>
</g>
<!-- Node1&#45;&gt;Node2 -->
<g id="edge1_Node000001_Node000002" class="edge">
<title>Node1&#45;&gt;Node2</title>
<g id="a_edge1_Node000001_Node000002"><a xlink:title=" ">
<path fill="none" stroke="#63b8ff" d="M229.29,-161.63C199.64,-151.7 164.58,-139.87 133,-129 127.93,-127.26 122.67,-125.43 117.4,-123.59"/>
<polygon fill="#63b8ff" stroke="#63b8ff" points="228.54,-165.07 239.13,-164.92 230.76,-158.43 228.54,-165.07"/>
</a>
</g>
</g>
<!-- Node3 -->
<g id="Node000003" class="node">
<title>Node3</title>
<g id="a_Node000003"><a xlink:href="iio__ad7490_8h.html" target="_top" xlink:title="Header file of iio_ad7490.">
<polygon fill="white" stroke="#666666" points="266,-123.5 142,-123.5 142,-82.5 266,-82.5 266,-123.5"/>
<text text-anchor="start" x="150" y="-111.5" font-family="Helvetica,sans-Serif" font-size="10.00">/home/runner/work/no</text>
<text text-anchor="start" x="150" y="-100.5" font-family="Helvetica,sans-Serif" font-size="10.00">&#45;OS/no&#45;OS/drivers/adc</text>
<text text-anchor="middle" x="204" y="-89.5" font-family="Helvetica,sans-Serif" font-size="10.00">/ad7490/iio_ad7490.h</text>
</a>
</g>
</g>
<!-- Node1&#45;&gt;Node3 -->
<g id="edge2_Node000001_Node000003" class="edge">
<title>Node1&#45;&gt;Node3</title>
<g id="a_edge2_Node000001_Node000003"><a xlink:title=" ">
<path fill="none" stroke="#63b8ff" d="M266.93,-157.89C253.89,-146.72 238.99,-133.97 226.97,-123.67"/>
<polygon fill="#63b8ff" stroke="#63b8ff" points="264.89,-160.75 274.76,-164.6 269.45,-155.44 264.89,-160.75"/>
</a>
</g>
</g>
<!-- Node5 -->
<g id="Node000005" class="node">
<title>Node5</title>
<g id="a_Node000005"><a xlink:href="eval-ad7490sdz_2src_2common_2common__data_8h.html" target="_top" xlink:title=" ">
<polygon fill="white" stroke="#666666" points="502,-123.5 284,-123.5 284,-82.5 502,-82.5 502,-123.5"/>
<text text-anchor="start" x="292" y="-111.5" font-family="Helvetica,sans-Serif" font-size="10.00">/home/runner/work/no</text>
<text text-anchor="start" x="292" y="-100.5" font-family="Helvetica,sans-Serif" font-size="10.00">&#45;OS/no&#45;OS/projects/eval</text>
<text text-anchor="middle" x="393" y="-89.5" font-family="Helvetica,sans-Serif" font-size="10.00">&#45;ad7490sdz/src/common/common_data.h</text>
</a>
</g>
</g>
<!-- Node1&#45;&gt;Node5 -->
<g id="edge4_Node000001_Node000005" class="edge">
<title>Node1&#45;&gt;Node5</title>
<g id="a_edge4_Node000001_Node000005"><a xlink:title=" ">
<path fill="none" stroke="#63b8ff" d="M329.4,-157.89C342.58,-146.72 357.64,-133.97 369.79,-123.67"/>
<polygon fill="#63b8ff" stroke="#63b8ff" points="326.85,-155.47 321.48,-164.6 331.38,-160.81 326.85,-155.47"/>
</a>
</g>
</g>
<!-- Node7 -->
<g id="Node000007" class="node">
<title>Node7</title>
<g id="a_Node000007"><a xlink:href="eval-ad7490sdz_2src_2examples_2basic_2basic__example_8c.html" target="_top" xlink:title=" ">
<polygon fill="white" stroke="#666666" points="661.5,-129 520.5,-129 520.5,-77 661.5,-77 661.5,-129"/>
<text text-anchor="start" x="528.5" y="-117" font-family="Helvetica,sans-Serif" font-size="10.00">/home/runner/work/no</text>
<text text-anchor="start" x="528.5" y="-106" font-family="Helvetica,sans-Serif" font-size="10.00">&#45;OS/no&#45;OS/projects/eval</text>
<text text-anchor="start" x="528.5" y="-95" font-family="Helvetica,sans-Serif" font-size="10.00">&#45;ad7490sdz/src/examples</text>
<text text-anchor="middle" x="591" y="-84" font-family="Helvetica,sans-Serif" font-size="10.00">/basic/basic_example.c</text>
</a>
</g>
</g>
<!-- Node1&#45;&gt;Node7 -->
<g id="edge6_Node000001_Node000007" class="edge">
<title>Node1&#45;&gt;Node7</title>
<g id="a_edge6_Node000001_Node000007"><a xlink:title=" ">
<path fill="none" stroke="#63b8ff" d="M369.92,-166.68C411.31,-156.19 464.24,-142.39 511,-129 514.08,-128.12 517.22,-127.2 520.38,-126.27"/>
<polygon fill="#63b8ff" stroke="#63b8ff" points="369.03,-163.29 360.19,-169.13 370.75,-170.08 369.03,-163.29"/>
</a>
</g>
</g>
<!-- Node4 -->
<g id="Node000004" class="node">
<title>Node4</title>
<g id="a_Node000004"><a xlink:href="iio__ad7490_8c.html" target="_top" xlink:title="Source file of iio_ad7490.">
<polygon fill="white" stroke="#666666" points="266,-41 142,-41 142,0 266,0 266,-41"/>
<text text-anchor="start" x="150" y="-29" font-family="Helvetica,sans-Serif" font-size="10.00">/home/runner/work/no</text>
<text text-anchor="start" x="150" y="-18" font-family="Helvetica,sans-Serif" font-size="10.00">&#45;OS/no&#45;OS/drivers/adc</text>
<text text-anchor="middle" x="204" y="-7" font-family="Helvetica,sans-Serif" font-size="10.00">/ad7490/iio_ad7490.c</text>
</a>
</g>
</g>
<!-- Node3&#45;&gt;Node4 -->
<g id="edge3_Node000003_Node000004" class="edge">
<title>Node3&#45;&gt;Node4</title>
<g id="a_edge3_Node000003_Node000004"><a xlink:title=" ">
<path fill="none" stroke="#63b8ff" d="M204,-71.87C204,-61.6 204,-50.4 204,-41.17"/>
<polygon fill="#63b8ff" stroke="#63b8ff" points="200.5,-72.1 204,-82.1 207.5,-72.1 200.5,-72.1"/>
</a>
</g>
</g>
<!-- Node6 -->
<g id="Node000006" class="node">
<title>Node6</title>
<g id="a_Node000006"><a xlink:href="eval-ad7490sdz_2src_2common_2common__data_8c.html" target="_top" xlink:title=" ">
<polygon fill="white" stroke="#666666" points="501.5,-41 284.5,-41 284.5,0 501.5,0 501.5,-41"/>
<text text-anchor="start" x="292.5" y="-29" font-family="Helvetica,sans-Serif" font-size="10.00">/home/runner/work/no</text>
<text text-anchor="start" x="292.5" y="-18" font-family="Helvetica,sans-Serif" font-size="10.00">&#45;OS/no&#45;OS/projects/eval</text>
<text text-anchor="middle" x="393" y="-7" font-family="Helvetica,sans-Serif" font-size="10.00">&#45;ad7490sdz/src/common/common_data.c</text>
</a>
</g>
</g>
<!-- Node5&#45;&gt;Node6 -->
<g id="edge5_Node000005_Node000006" class="edge">
<title>Node5&#45;&gt;Node6</title>
<g id="a_edge5_Node000005_Node000006"><a xlink:title=" ">
<path fill="none" stroke="#63b8ff" d="M393,-71.87C393,-61.6 393,-50.4 393,-41.17"/>
<polygon fill="#63b8ff" stroke="#63b8ff" points="389.5,-72.1 393,-82.1 396.5,-72.1 389.5,-72.1"/>
</a>
</g>
</g>
</g>
</svg>
