<?xml version="1.0" encoding="UTF-8" standalone="no"?>
<!DOCTYPE svg PUBLIC "-//W3C//DTD SVG 1.1//EN"
 "http://www.w3.org/Graphics/SVG/1.1/DTD/svg11.dtd">
<!-- Generated by graphviz version 2.43.0 (0)
 -->
<!-- Title: /home/runner/work/no&#45;OS/no&#45;OS/drivers/adc&#45;dac/ad74416h/ad74416h.h Pages: 1 -->
<!--zoomable 214 -->

<svg id="main" version="1.1" xmlns="http://www.w3.org/2000/svg" xmlns:xlink="http://www.w3.org/1999/xlink" xml:space="preserve" onload="init(evt)">

<style type="text/css"><![CDATA[
.node, .edge {opacity: 0.7;}
.node.selected, .edge.selected {opacity: 1;}
.edge:hover path { stroke: red; }
.edge:hover polygon { stroke: red; fill: red; }
]]></style>

<defs>
  <circle id="rim" cx="0" cy="0" r="7"/>
  <circle id="rim2" cx="0" cy="0" r="3.5"/>
  <g id="zoomPlus">
    <use xlink:href="#rim" fill="#404040"><set attributeName="fill" to="#808080" begin="zoomplus.mouseover" end="zoomplus.mouseout"/></use>
    <path d="M-4,0h8M0,-4v8" fill="none" stroke="white" stroke-width="1.5" pointer-events="none"/>
  </g>
  <g id="zoomMin">
    <use xlink:href="#rim" fill="#404040"><set attributeName="fill" to="#808080" begin="zoomminus.mouseover" end="zoomminus.mouseout"/></use>
    <path d="M-4,0h8" fill="none" stroke="white" stroke-width="1.5" pointer-events="none"/>
  </g>
  <g id="arrowUp" transform="translate(30 24)">
    <use xlink:href="#rim"/>
    <path pointer-events="none" fill="none" stroke="white" stroke-width="1.5" d="M0,-3.0v7 M-2.5,-0.5L0,-3.0L2.5,-0.5"/>
  </g>
  <g id="arrowRight" transform="rotate(90) translate(36 -43)">
    <use xlink:href="#rim"/>
    <path pointer-events="none" fill="none" stroke="white" stroke-width="1.5" d="M0,-3.0v7 M-2.5,-0.5L0,-3.0L2.5,-0.5"/>
  </g>
  <g id="arrowDown" transform="rotate(180) translate(-30 -48)">
    <use xlink:href="#rim"/>
    <path pointer-events="none" fill="none" stroke="white" stroke-width="1.5" d="M0,-3.0v7 M-2.5,-0.5L0,-3.0L2.5,-0.5"/>
  </g>
  <g id="arrowLeft" transform="rotate(270) translate(-36 17)">
    <use xlink:href="#rim"/>
    <path pointer-events="none" fill="none" stroke="white" stroke-width="1.5" d="M0,-3.0v7 M-2.5,-0.5L0,-3.0L2.5,-0.5"/>
  </g>
  <g id="resetDef">
    <use xlink:href="#rim2" fill="#404040"><set attributeName="fill" to="#808080" begin="reset.mouseover" end="reset.mouseout"/></use>
  </g>
</defs>
<script type="application/ecmascript">
var viewWidth = 2715;
var viewHeight = 214;
var sectionId = 'dynsection-1';
</script>
<script type="application/ecmascript" xlink:href="svg.min.js"/>
<svg id="graph" class="graph">
<g id="viewport">
<title>/home/runner/work/no&#45;OS/no&#45;OS/drivers/adc&#45;dac/ad74416h/ad74416h.h</title>
<!-- Node1 -->
<g id="Node000001" class="node">
<title>Node1</title>
<g id="a_Node000001"><a xlink:title="Header file of AD74416h Driver.">
<polygon fill="#999999" stroke="#666666" points="1384.5,-206 1235.5,-206 1235.5,-165 1384.5,-165 1384.5,-206"/>
<text text-anchor="start" x="1243.5" y="-194" font-family="Helvetica,sans-Serif" font-size="10.00">/home/runner/work/no</text>
<text text-anchor="start" x="1243.5" y="-183" font-family="Helvetica,sans-Serif" font-size="10.00">&#45;OS/no&#45;OS/drivers/adc</text>
<text text-anchor="middle" x="1310" y="-172" font-family="Helvetica,sans-Serif" font-size="10.00">&#45;dac/ad74416h/ad74416h.h</text>
</a>
</g>
</g>
<!-- Node2 -->
<g id="Node000002" class="node">
<title>Node2</title>
<g id="a_Node000002"><a xlink:href="ad74416h_8c.html" target="_top" xlink:title="Source file of AD74416H Driver.">
<polygon fill="white" stroke="#666666" points="148,-123.5 0,-123.5 0,-82.5 148,-82.5 148,-123.5"/>
<text text-anchor="start" x="8" y="-111.5" font-family="Helvetica,sans-Serif" font-size="10.00">/home/runner/work/no</text>
<text text-anchor="start" x="8" y="-100.5" font-family="Helvetica,sans-Serif" font-size="10.00">&#45;OS/no&#45;OS/drivers/adc</text>
<text text-anchor="middle" x="74" y="-89.5" font-family="Helvetica,sans-Serif" font-size="10.00">&#45;dac/ad74416h/ad74416h.c</text>
</a>
</g>
</g>
<!-- Node1&#45;&gt;Node2 -->
<g id="edge1_Node000001_Node000002" class="edge">
<title>Node1&#45;&gt;Node2</title>
<g id="a_edge1_Node000001_Node000002"><a xlink:title=" ">
<path fill="none" stroke="#63b8ff" d="M1225.1,-183.06C995.05,-178.74 363.22,-163.95 158,-129 149.9,-127.62 141.48,-125.71 133.23,-123.56"/>
<polygon fill="#63b8ff" stroke="#63b8ff" points="1225.36,-186.57 1235.42,-183.25 1225.49,-179.57 1225.36,-186.57"/>
</a>
</g>
</g>
<!-- Node3 -->
<g id="Node000003" class="node">
<title>Node3</title>
<g id="a_Node000003"><a xlink:href="ad74416h_2src_2common_2common__data_8h.html" target="_top" xlink:title="Defines common data to be used by eval&#45;ad74416h examples.">
<polygon fill="white" stroke="#666666" points="327.5,-123.5 166.5,-123.5 166.5,-82.5 327.5,-82.5 327.5,-123.5"/>
<text text-anchor="start" x="174.5" y="-111.5" font-family="Helvetica,sans-Serif" font-size="10.00">/home/runner/work/no</text>
<text text-anchor="start" x="174.5" y="-100.5" font-family="Helvetica,sans-Serif" font-size="10.00">&#45;OS/no&#45;OS/projects/ad74416h</text>
<text text-anchor="middle" x="247" y="-89.5" font-family="Helvetica,sans-Serif" font-size="10.00">/src/common/common_data.h</text>
</a>
</g>
</g>
<!-- Node1&#45;&gt;Node3 -->
<g id="edge2_Node000001_Node000003" class="edge">
<title>Node1&#45;&gt;Node3</title>
<g id="a_edge2_Node000001_Node000003"><a xlink:title=" ">
<path fill="none" stroke="#63b8ff" d="M1225.27,-181.99C1021.2,-175.59 506.8,-157.09 337,-129 328.52,-127.6 319.69,-125.7 311.03,-123.58"/>
<polygon fill="#63b8ff" stroke="#63b8ff" points="1225.23,-185.5 1235.34,-182.31 1225.45,-178.5 1225.23,-185.5"/>
</a>
</g>
</g>
<!-- Node5 -->
<g id="Node000005" class="node">
<title>Node5</title>
<g id="a_Node000005"><a xlink:href="ad74416h_2src_2examples_2basic_2basic__example_8c.html" target="_top" xlink:title="Basic example header for eval&#45;ad74416h project.">
<polygon fill="white" stroke="#666666" points="504.5,-129 345.5,-129 345.5,-77 504.5,-77 504.5,-129"/>
<text text-anchor="start" x="353.5" y="-117" font-family="Helvetica,sans-Serif" font-size="10.00">/home/runner/work/no</text>
<text text-anchor="start" x="353.5" y="-106" font-family="Helvetica,sans-Serif" font-size="10.00">&#45;OS/no&#45;OS/projects/ad74416h</text>
<text text-anchor="start" x="353.5" y="-95" font-family="Helvetica,sans-Serif" font-size="10.00">/src/examples/basic/basic</text>
<text text-anchor="middle" x="425" y="-84" font-family="Helvetica,sans-Serif" font-size="10.00">_example.c</text>
</a>
</g>
</g>
<!-- Node1&#45;&gt;Node5 -->
<g id="edge4_Node000001_Node000005" class="edge">
<title>Node1&#45;&gt;Node5</title>
<g id="a_edge4_Node000001_Node000005"><a xlink:title=" ">
<path fill="none" stroke="#63b8ff" d="M1225.07,-184.25C1078.77,-182.55 770.26,-173.44 514,-129 511,-128.48 507.95,-127.9 504.88,-127.27"/>
<polygon fill="#63b8ff" stroke="#63b8ff" points="1225.28,-187.75 1235.32,-184.36 1225.35,-180.75 1225.28,-187.75"/>
</a>
</g>
</g>
<!-- Node6 -->
<g id="Node000006" class="node">
<title>Node6</title>
<g id="a_Node000006"><a xlink:href="current__input__ext_8c.html" target="_top" xlink:title="Current input in External power mode example for ad74416h&#45;pmdz.">
<polygon fill="white" stroke="#666666" points="681.5,-129 522.5,-129 522.5,-77 681.5,-77 681.5,-129"/>
<text text-anchor="start" x="530.5" y="-117" font-family="Helvetica,sans-Serif" font-size="10.00">/home/runner/work/no</text>
<text text-anchor="start" x="530.5" y="-106" font-family="Helvetica,sans-Serif" font-size="10.00">&#45;OS/no&#45;OS/projects/ad74416h</text>
<text text-anchor="start" x="530.5" y="-95" font-family="Helvetica,sans-Serif" font-size="10.00">/src/examples/current_input</text>
<text text-anchor="middle" x="602" y="-84" font-family="Helvetica,sans-Serif" font-size="10.00">_ext/current_input_ext.c</text>
</a>
</g>
</g>
<!-- Node1&#45;&gt;Node6 -->
<g id="edge5_Node000001_Node000006" class="edge">
<title>Node1&#45;&gt;Node6</title>
<g id="a_edge5_Node000001_Node000006"><a xlink:title=" ">
<path fill="none" stroke="#63b8ff" d="M1224.86,-181.83C1104.91,-176.95 879.7,-163.66 691,-129 688,-128.45 684.96,-127.84 681.89,-127.19"/>
<polygon fill="#63b8ff" stroke="#63b8ff" points="1224.95,-185.34 1235.08,-182.24 1225.23,-178.34 1224.95,-185.34"/>
</a>
</g>
</g>
<!-- Node7 -->
<g id="Node000007" class="node">
<title>Node7</title>
<g id="a_Node000007"><a xlink:href="current__input__loop_8c.html" target="_top" xlink:title="Current input in Loop power mode example code for ad74416h&#45;pmdz.">
<polygon fill="white" stroke="#666666" points="858.5,-129 699.5,-129 699.5,-77 858.5,-77 858.5,-129"/>
<text text-anchor="start" x="707.5" y="-117" font-family="Helvetica,sans-Serif" font-size="10.00">/home/runner/work/no</text>
<text text-anchor="start" x="707.5" y="-106" font-family="Helvetica,sans-Serif" font-size="10.00">&#45;OS/no&#45;OS/projects/ad74416h</text>
<text text-anchor="start" x="707.5" y="-95" font-family="Helvetica,sans-Serif" font-size="10.00">/src/examples/current_input</text>
<text text-anchor="middle" x="779" y="-84" font-family="Helvetica,sans-Serif" font-size="10.00">_loop/current_input_loop.c</text>
</a>
</g>
</g>
<!-- Node1&#45;&gt;Node7 -->
<g id="edge6_Node000001_Node000007" class="edge">
<title>Node1&#45;&gt;Node7</title>
<g id="a_edge6_Node000001_Node000007"><a xlink:title=" ">
<path fill="none" stroke="#63b8ff" d="M1225.07,-177.62C1135.63,-169.5 990.99,-153.85 868,-129 865.01,-128.4 861.98,-127.74 858.92,-127.05"/>
<polygon fill="#63b8ff" stroke="#63b8ff" points="1224.88,-181.12 1235.16,-178.53 1225.51,-174.15 1224.88,-181.12"/>
</a>
</g>
</g>
<!-- Node8 -->
<g id="Node000008" class="node">
<title>Node8</title>
<g id="a_Node000008"><a xlink:href="current__output_8c.html" target="_top" xlink:title="Current Output example code for ad74416h&#45;pmdz project.">
<polygon fill="white" stroke="#666666" points="1035.5,-129 876.5,-129 876.5,-77 1035.5,-77 1035.5,-129"/>
<text text-anchor="start" x="884.5" y="-117" font-family="Helvetica,sans-Serif" font-size="10.00">/home/runner/work/no</text>
<text text-anchor="start" x="884.5" y="-106" font-family="Helvetica,sans-Serif" font-size="10.00">&#45;OS/no&#45;OS/projects/ad74416h</text>
<text text-anchor="start" x="884.5" y="-95" font-family="Helvetica,sans-Serif" font-size="10.00">/src/examples/current_output</text>
<text text-anchor="middle" x="956" y="-84" font-family="Helvetica,sans-Serif" font-size="10.00">/current_output.c</text>
</a>
</g>
</g>
<!-- Node1&#45;&gt;Node8 -->
<g id="edge7_Node000001_Node000008" class="edge">
<title>Node1&#45;&gt;Node8</title>
<g id="a_edge7_Node000001_Node000008"><a xlink:title=" ">
<path fill="none" stroke="#63b8ff" d="M1225.56,-168.32C1173.34,-157.95 1105.05,-143.7 1045,-129 1041.88,-128.24 1038.71,-127.44 1035.51,-126.62"/>
<polygon fill="#63b8ff" stroke="#63b8ff" points="1224.96,-171.77 1235.45,-170.28 1226.32,-164.91 1224.96,-171.77"/>
</a>
</g>
</g>
<!-- Node9 -->
<g id="Node000009" class="node">
<title>Node9</title>
<g id="a_Node000009"><a xlink:href="digital__input__logic_8c.html" target="_top" xlink:title="Digital Input Logic example code for ad74416h&#45;pmdz project This example configures Channel A as a Dig...">
<polygon fill="white" stroke="#666666" points="1212.5,-129 1053.5,-129 1053.5,-77 1212.5,-77 1212.5,-129"/>
<text text-anchor="start" x="1061.5" y="-117" font-family="Helvetica,sans-Serif" font-size="10.00">/home/runner/work/no</text>
<text text-anchor="start" x="1061.5" y="-106" font-family="Helvetica,sans-Serif" font-size="10.00">&#45;OS/no&#45;OS/projects/ad74416h</text>
<text text-anchor="start" x="1061.5" y="-95" font-family="Helvetica,sans-Serif" font-size="10.00">/src/examples/digital_input</text>
<text text-anchor="middle" x="1133" y="-84" font-family="Helvetica,sans-Serif" font-size="10.00">_logic/digital_input_logic.c</text>
</a>
</g>
</g>
<!-- Node1&#45;&gt;Node9 -->
<g id="edge8_Node000001_Node000009" class="edge">
<title>Node1&#45;&gt;Node9</title>
<g id="a_edge8_Node000001_Node000009"><a xlink:title=" ">
<path fill="none" stroke="#63b8ff" d="M1257.58,-160.66C1235.74,-150.73 1210.37,-139.19 1188.25,-129.13"/>
<polygon fill="#63b8ff" stroke="#63b8ff" points="1256.15,-163.85 1266.7,-164.81 1259.05,-157.48 1256.15,-163.85"/>
</a>
</g>
</g>
<!-- Node10 -->
<g id="Node000010" class="node">
<title>Node10</title>
<g id="a_Node000010"><a xlink:href="digital__input__loop_8c.html" target="_top" xlink:title="Digital Input Loop Powered example code for ad74416h&#45;pmdz project This example configures Channel A a...">
<polygon fill="white" stroke="#666666" points="1389.5,-129 1230.5,-129 1230.5,-77 1389.5,-77 1389.5,-129"/>
<text text-anchor="start" x="1238.5" y="-117" font-family="Helvetica,sans-Serif" font-size="10.00">/home/runner/work/no</text>
<text text-anchor="start" x="1238.5" y="-106" font-family="Helvetica,sans-Serif" font-size="10.00">&#45;OS/no&#45;OS/projects/ad74416h</text>
<text text-anchor="start" x="1238.5" y="-95" font-family="Helvetica,sans-Serif" font-size="10.00">/src/examples/digital_input</text>
<text text-anchor="middle" x="1310" y="-84" font-family="Helvetica,sans-Serif" font-size="10.00">_loop/digital_input_loop.c</text>
</a>
</g>
</g>
<!-- Node1&#45;&gt;Node10 -->
<g id="edge9_Node000001_Node000010" class="edge">
<title>Node1&#45;&gt;Node10</title>
<g id="a_edge9_Node000001_Node000010"><a xlink:title=" ">
<path fill="none" stroke="#63b8ff" d="M1310,-154.49C1310,-146.15 1310,-137.19 1310,-129.16"/>
<polygon fill="#63b8ff" stroke="#63b8ff" points="1306.5,-154.6 1310,-164.6 1313.5,-154.6 1306.5,-154.6"/>
</a>
</g>
</g>
<!-- Node11 -->
<g id="Node000011" class="node">
<title>Node11</title>
<g id="a_Node000011"><a xlink:href="digital__output_8c.html" target="_top" xlink:title="Digital Output example code for ad74416h&#45;pmdz project.">
<polygon fill="white" stroke="#666666" points="1566.5,-129 1407.5,-129 1407.5,-77 1566.5,-77 1566.5,-129"/>
<text text-anchor="start" x="1415.5" y="-117" font-family="Helvetica,sans-Serif" font-size="10.00">/home/runner/work/no</text>
<text text-anchor="start" x="1415.5" y="-106" font-family="Helvetica,sans-Serif" font-size="10.00">&#45;OS/no&#45;OS/projects/ad74416h</text>
<text text-anchor="start" x="1415.5" y="-95" font-family="Helvetica,sans-Serif" font-size="10.00">/src/examples/digital_output</text>
<text text-anchor="middle" x="1487" y="-84" font-family="Helvetica,sans-Serif" font-size="10.00">/digital_output.c</text>
</a>
</g>
</g>
<!-- Node1&#45;&gt;Node11 -->
<g id="edge10_Node000001_Node000011" class="edge">
<title>Node1&#45;&gt;Node11</title>
<g id="a_edge10_Node000001_Node000011"><a xlink:title=" ">
<path fill="none" stroke="#63b8ff" d="M1362.42,-160.66C1384.26,-150.73 1409.63,-139.19 1431.75,-129.13"/>
<polygon fill="#63b8ff" stroke="#63b8ff" points="1360.95,-157.48 1353.3,-164.81 1363.85,-163.85 1360.95,-157.48"/>
</a>
</g>
</g>
<!-- Node12 -->
<g id="Node000012" class="node">
<title>Node12</title>
<g id="a_Node000012"><a xlink:href="multiple__devices_8c.html" target="_top" xlink:title="Example code with multiple AD74416H devices for ad74416h&#45;pmdz project.">
<polygon fill="white" stroke="#666666" points="1755.5,-129 1584.5,-129 1584.5,-77 1755.5,-77 1755.5,-129"/>
<text text-anchor="start" x="1592.5" y="-117" font-family="Helvetica,sans-Serif" font-size="10.00">/home/runner/work/no</text>
<text text-anchor="start" x="1592.5" y="-106" font-family="Helvetica,sans-Serif" font-size="10.00">&#45;OS/no&#45;OS/projects/ad74416h</text>
<text text-anchor="start" x="1592.5" y="-95" font-family="Helvetica,sans-Serif" font-size="10.00">/src/examples/multiple_devices</text>
<text text-anchor="middle" x="1670" y="-84" font-family="Helvetica,sans-Serif" font-size="10.00">/multiple_devices.c</text>
</a>
</g>
</g>
<!-- Node1&#45;&gt;Node12 -->
<g id="edge11_Node000001_Node000012" class="edge">
<title>Node1&#45;&gt;Node12</title>
<g id="a_edge11_Node000001_Node000012"><a xlink:title=" ">
<path fill="none" stroke="#63b8ff" d="M1394.69,-168.05C1447.08,-157.57 1515.63,-143.32 1576,-129 1578.79,-128.34 1581.63,-127.65 1584.49,-126.95"/>
<polygon fill="#63b8ff" stroke="#63b8ff" points="1393.89,-164.64 1384.77,-170.03 1395.26,-171.5 1393.89,-164.64"/>
</a>
</g>
</g>
<!-- Node13 -->
<g id="Node000013" class="node">
<title>Node13</title>
<g id="a_Node000013"><a xlink:href="temperature__2wire__rtd_8c.html" target="_top" xlink:title="Temperature measurement 2&#45;Wire RTD Pt&#45;1000 example code for ad74416h&#45;pmdz project.">
<polygon fill="white" stroke="#666666" points="1964.5,-129 1773.5,-129 1773.5,-77 1964.5,-77 1964.5,-129"/>
<text text-anchor="start" x="1781.5" y="-117" font-family="Helvetica,sans-Serif" font-size="10.00">/home/runner/work/no</text>
<text text-anchor="start" x="1781.5" y="-106" font-family="Helvetica,sans-Serif" font-size="10.00">&#45;OS/no&#45;OS/projects/ad74416h</text>
<text text-anchor="start" x="1781.5" y="-95" font-family="Helvetica,sans-Serif" font-size="10.00">/src/examples/temperature</text>
<text text-anchor="middle" x="1869" y="-84" font-family="Helvetica,sans-Serif" font-size="10.00">_2wire_rtd/temperature_2wire_rtd.c</text>
</a>
</g>
</g>
<!-- Node1&#45;&gt;Node13 -->
<g id="edge12_Node000001_Node000013" class="edge">
<title>Node1&#45;&gt;Node13</title>
<g id="a_edge12_Node000001_Node000013"><a xlink:title=" ">
<path fill="none" stroke="#63b8ff" d="M1394.94,-177.07C1486.66,-168.37 1636.87,-152.14 1765,-129 1767.74,-128.51 1770.52,-127.98 1773.32,-127.44"/>
<polygon fill="#63b8ff" stroke="#63b8ff" points="1394.5,-173.6 1384.87,-178.02 1395.16,-180.57 1394.5,-173.6"/>
</a>
</g>
</g>
<!-- Node14 -->
<g id="Node000014" class="node">
<title>Node14</title>
<g id="a_Node000014"><a xlink:href="temperature__3wire__rtd_8c.html" target="_top" xlink:title="Temperature measurement 3&#45;Wire RTD Pt&#45;1000 example code for ad74416h&#45;pmdz project.">
<polygon fill="white" stroke="#666666" points="2173.5,-129 1982.5,-129 1982.5,-77 2173.5,-77 2173.5,-129"/>
<text text-anchor="start" x="1990.5" y="-117" font-family="Helvetica,sans-Serif" font-size="10.00">/home/runner/work/no</text>
<text text-anchor="start" x="1990.5" y="-106" font-family="Helvetica,sans-Serif" font-size="10.00">&#45;OS/no&#45;OS/projects/ad74416h</text>
<text text-anchor="start" x="1990.5" y="-95" font-family="Helvetica,sans-Serif" font-size="10.00">/src/examples/temperature</text>
<text text-anchor="middle" x="2078" y="-84" font-family="Helvetica,sans-Serif" font-size="10.00">_3wire_rtd/temperature_3wire_rtd.c</text>
</a>
</g>
</g>
<!-- Node1&#45;&gt;Node14 -->
<g id="edge13_Node000001_Node000014" class="edge">
<title>Node1&#45;&gt;Node14</title>
<g id="a_edge13_Node000001_Node000014"><a xlink:title=" ">
<path fill="none" stroke="#63b8ff" d="M1394.66,-181.56C1521.35,-176.22 1767.45,-162.26 1974,-129 1976.75,-128.56 1979.53,-128.08 1982.34,-127.58"/>
<polygon fill="#63b8ff" stroke="#63b8ff" points="1394.48,-178.06 1384.64,-181.97 1394.77,-185.06 1394.48,-178.06"/>
</a>
</g>
</g>
<!-- Node15 -->
<g id="Node000015" class="node">
<title>Node15</title>
<g id="a_Node000015"><a xlink:href="voltage__input_8c.html" target="_top" xlink:title="Voltage input example code for ad74416h&#45;pmdz project.">
<polygon fill="white" stroke="#666666" points="2350.5,-129 2191.5,-129 2191.5,-77 2350.5,-77 2350.5,-129"/>
<text text-anchor="start" x="2199.5" y="-117" font-family="Helvetica,sans-Serif" font-size="10.00">/home/runner/work/no</text>
<text text-anchor="start" x="2199.5" y="-106" font-family="Helvetica,sans-Serif" font-size="10.00">&#45;OS/no&#45;OS/projects/ad74416h</text>
<text text-anchor="start" x="2199.5" y="-95" font-family="Helvetica,sans-Serif" font-size="10.00">/src/examples/voltage_input</text>
<text text-anchor="middle" x="2271" y="-84" font-family="Helvetica,sans-Serif" font-size="10.00">/voltage_input.c</text>
</a>
</g>
</g>
<!-- Node1&#45;&gt;Node15 -->
<g id="edge14_Node000001_Node000015" class="edge">
<title>Node1&#45;&gt;Node15</title>
<g id="a_edge14_Node000001_Node000015"><a xlink:title=" ">
<path fill="none" stroke="#63b8ff" d="M1394.84,-185.08C1551.67,-184.84 1897.04,-178.13 2183,-129 2185.66,-128.54 2188.36,-128.04 2191.07,-127.49"/>
<polygon fill="#63b8ff" stroke="#63b8ff" points="1394.78,-181.58 1384.78,-185.09 1394.78,-188.58 1394.78,-181.58"/>
</a>
</g>
</g>
<!-- Node16 -->
<g id="Node000016" class="node">
<title>Node16</title>
<g id="a_Node000016"><a xlink:href="voltage__input__irq_8c.html" target="_top" xlink:title="Voltage input with interrupt example code for ad74416h&#45;pmdz project.">
<polygon fill="white" stroke="#666666" points="2527.5,-129 2368.5,-129 2368.5,-77 2527.5,-77 2527.5,-129"/>
<text text-anchor="start" x="2376.5" y="-117" font-family="Helvetica,sans-Serif" font-size="10.00">/home/runner/work/no</text>
<text text-anchor="start" x="2376.5" y="-106" font-family="Helvetica,sans-Serif" font-size="10.00">&#45;OS/no&#45;OS/projects/ad74416h</text>
<text text-anchor="start" x="2376.5" y="-95" font-family="Helvetica,sans-Serif" font-size="10.00">/src/examples/voltage_input</text>
<text text-anchor="middle" x="2448" y="-84" font-family="Helvetica,sans-Serif" font-size="10.00">_irq/voltage_input_irq.c</text>
</a>
</g>
</g>
<!-- Node1&#45;&gt;Node16 -->
<g id="edge15_Node000001_Node000016" class="edge">
<title>Node1&#45;&gt;Node16</title>
<g id="a_edge15_Node000001_Node000016"><a xlink:title=" ">
<path fill="none" stroke="#63b8ff" d="M1394.83,-182.47C1610.35,-176.91 2174.97,-159.77 2360,-129 2362.66,-128.56 2365.36,-128.06 2368.08,-127.53"/>
<polygon fill="#63b8ff" stroke="#63b8ff" points="1394.43,-178.97 1384.52,-182.73 1394.61,-185.97 1394.43,-178.97"/>
</a>
</g>
</g>
<!-- Node17 -->
<g id="Node000017" class="node">
<title>Node17</title>
<g id="a_Node000017"><a xlink:href="voltage__output_8c.html" target="_top" xlink:title="Voltage Output example code for ad74416h&#45;pmdz project.">
<polygon fill="white" stroke="#666666" points="2706.5,-129 2545.5,-129 2545.5,-77 2706.5,-77 2706.5,-129"/>
<text text-anchor="start" x="2553.5" y="-117" font-family="Helvetica,sans-Serif" font-size="10.00">/home/runner/work/no</text>
<text text-anchor="start" x="2553.5" y="-106" font-family="Helvetica,sans-Serif" font-size="10.00">&#45;OS/no&#45;OS/projects/ad74416h</text>
<text text-anchor="start" x="2553.5" y="-95" font-family="Helvetica,sans-Serif" font-size="10.00">/src/examples/voltage_output</text>
<text text-anchor="middle" x="2626" y="-84" font-family="Helvetica,sans-Serif" font-size="10.00">/voltage_output.c</text>
</a>
</g>
</g>
<!-- Node1&#45;&gt;Node17 -->
<g id="edge16_Node000001_Node000017" class="edge">
<title>Node1&#45;&gt;Node17</title>
<g id="a_edge16_Node000001_Node000017"><a xlink:title=" ">
<path fill="none" stroke="#63b8ff" d="M1394.94,-183.18C1635.21,-179.06 2316.48,-164.48 2537,-129 2539.69,-128.57 2542.42,-128.08 2545.17,-127.55"/>
<polygon fill="#63b8ff" stroke="#63b8ff" points="1394.81,-179.68 1384.87,-183.35 1394.93,-186.68 1394.81,-179.68"/>
</a>
</g>
</g>
<!-- Node4 -->
<g id="Node000004" class="node">
<title>Node4</title>
<g id="a_Node000004"><a xlink:href="ad74416h_2src_2common_2common__data_8c.html" target="_top" xlink:title="Defines common data to be used by eval&#45;ad74416h examples.">
<polygon fill="white" stroke="#666666" points="327.5,-41 166.5,-41 166.5,0 327.5,0 327.5,-41"/>
<text text-anchor="start" x="174.5" y="-29" font-family="Helvetica,sans-Serif" font-size="10.00">/home/runner/work/no</text>
<text text-anchor="start" x="174.5" y="-18" font-family="Helvetica,sans-Serif" font-size="10.00">&#45;OS/no&#45;OS/projects/ad74416h</text>
<text text-anchor="middle" x="247" y="-7" font-family="Helvetica,sans-Serif" font-size="10.00">/src/common/common_data.c</text>
</a>
</g>
</g>
<!-- Node3&#45;&gt;Node4 -->
<g id="edge3_Node000003_Node000004" class="edge">
<title>Node3&#45;&gt;Node4</title>
<g id="a_edge3_Node000003_Node000004"><a xlink:title=" ">
<path fill="none" stroke="#63b8ff" d="M247,-71.87C247,-61.6 247,-50.4 247,-41.17"/>
<polygon fill="#63b8ff" stroke="#63b8ff" points="243.5,-72.1 247,-82.1 250.5,-72.1 243.5,-72.1"/>
</a>
</g>
</g>
</g>
</svg>

<g id="navigator" transform="translate(0 0)" fill="#404254">
  <rect fill="#f2f5e9" fill-opacity="0.5" stroke="#606060" stroke-width=".5" x="0" y="0" width="60" height="60"/>
  <use id="zoomplus" xlink:href="#zoomPlus" x="17" y="9" onmousedown="handleZoom(evt,'in')"/>
  <use id="zoomminus" xlink:href="#zoomMin" x="42" y="9" onmousedown="handleZoom(evt,'out')"/>
  <use id="reset" xlink:href="#resetDef" x="30" y="36" onmousedown="handleReset()"/>
   <use id="arrowup" xlink:href="#arrowUp" x="0" y="0" onmousedown="handlePan(0,-1)"/>
  <use id="arrowright" xlink:href="#arrowRight" x="0" y="0" onmousedown="handlePan(1,0)"/>
  <use id="arrowdown" xlink:href="#arrowDown" x="0" y="0" onmousedown="handlePan(0,1)"/>
  <use id="arrowleft" xlink:href="#arrowLeft" x="0" y="0" onmousedown="handlePan(-1,0)"/>
</g>
<svg viewBox="0 0 15 15" width="100%" height="30px" preserveAspectRatio="xMaxYMin meet">
 <g id="arrow_out" transform="scale(0.3 0.3)">
  <a xlink:href="ad74416h_8h__dep__incl_org.svg" target="_base">
   <rect id="button" ry="5" rx="5" y="6" x="6" height="38" width="38"
        fill="#f2f5e9" fill-opacity="0.5" stroke="#606060" stroke-width="1.0"/>
   <path id="arrow"
     d="M 11.500037,31.436501 C 11.940474,20.09759 22.043105,11.32322 32.158766,21.979434 L 37.068811,17.246167 C 37.068811,17.246167 37.088388,32 37.088388,32 L 22.160133,31.978069 C 22.160133,31.978069 26.997745,27.140456 26.997745,27.140456 C 18.528582,18.264221 13.291696,25.230495 11.500037,31.436501 z"
     style="fill:#404040;"/>
  </a>
 </g>
</svg>

<style type='text/css'>
<![CDATA[
[data-mouse-over-selected='false'] { opacity: 0.7; }
[data-mouse-over-selected='true']  { opacity: 1.0; }
]]>
</style>
<script type="application/ecmascript"><![CDATA[
document.addEventListener('DOMContentLoaded', (event) => {
  highlightEdges();
  highlightAdjacentNodes();
});
]]></script>
</svg>
