<?xml version="1.0" encoding="UTF-8" standalone="no"?>
<!DOCTYPE svg PUBLIC "-//W3C//DTD SVG 1.1//EN"
 "http://www.w3.org/Graphics/SVG/1.1/DTD/svg11.dtd">
<!-- Generated by graphviz version 2.43.0 (0)
 -->
<!-- Title: /home/runner/work/no&#45;OS/no&#45;OS/drivers/adc/ad7606/ad7606.h Pages: 1 -->
<svg width="530pt" height="159pt"
 viewBox="0.00 0.00 530.01 159.00" xmlns="http://www.w3.org/2000/svg" xmlns:xlink="http://www.w3.org/1999/xlink">
<g id="graph0" class="graph" transform="scale(1 1) rotate(0) translate(4 155)">
<title>/home/runner/work/no&#45;OS/no&#45;OS/drivers/adc/ad7606/ad7606.h</title>
<!-- Node1 -->
<g id="Node000001" class="node">
<title>Node1</title>
<g id="a_Node000001"><a xlink:title="Header file for the ad7606 Driver.">
<polygon fill="#999999" stroke="#666666" points="365.5,-151 241.5,-151 241.5,-110 365.5,-110 365.5,-151"/>
<text text-anchor="start" x="249.5" y="-139" font-family="Helvetica,sans-Serif" font-size="10.00">/home/runner/work/no</text>
<text text-anchor="start" x="249.5" y="-128" font-family="Helvetica,sans-Serif" font-size="10.00">&#45;OS/no&#45;OS/drivers/adc</text>
<text text-anchor="middle" x="303.5" y="-117" font-family="Helvetica,sans-Serif" font-size="10.00">/ad7606/ad7606.h</text>
</a>
</g>
</g>
<!-- Node2 -->
<g id="Node000002" class="node">
<title>Node2</title>
<g id="a_Node000002"><a xlink:title=" ">
<polygon fill="#e0e0e0" stroke="#999999" points="295,-19 242,-19 242,0 295,0 295,-19"/>
<text text-anchor="middle" x="268.5" y="-7" font-family="Helvetica,sans-Serif" font-size="10.00">stdint.h</text>
</a>
</g>
</g>
<!-- Node1&#45;&gt;Node2 -->
<g id="edge1_Node000001_Node000002" class="edge">
<title>Node1&#45;&gt;Node2</title>
<g id="a_edge1_Node000001_Node000002"><a xlink:title=" ">
<path fill="none" stroke="#63b8ff" d="M299.01,-109.75C295.44,-94.65 290.13,-73.38 284.5,-55 281.82,-46.27 278.45,-36.72 275.49,-28.72"/>
<polygon fill="#63b8ff" stroke="#63b8ff" points="278.74,-27.41 271.94,-19.28 272.19,-29.87 278.74,-27.41"/>
</a>
</g>
</g>
<!-- Node3 -->
<g id="Node000003" class="node">
<title>Node3</title>
<g id="a_Node000003"><a xlink:title=" ">
<polygon fill="#e0e0e0" stroke="#999999" points="497.5,-19 435.5,-19 435.5,0 497.5,0 497.5,-19"/>
<text text-anchor="middle" x="466.5" y="-7" font-family="Helvetica,sans-Serif" font-size="10.00">stdbool.h</text>
</a>
</g>
</g>
<!-- Node1&#45;&gt;Node3 -->
<g id="edge2_Node000001_Node000003" class="edge">
<title>Node1&#45;&gt;Node3</title>
<g id="a_edge2_Node000001_Node000003"><a xlink:title=" ">
<path fill="none" stroke="#63b8ff" d="M365.68,-121.83C422.02,-113.45 498.97,-97.94 517.5,-74 530.86,-56.74 509.56,-37.21 490.55,-24.42"/>
<polygon fill="#63b8ff" stroke="#63b8ff" points="492.42,-21.46 482.11,-19.05 488.67,-27.37 492.42,-21.46"/>
</a>
</g>
</g>
<!-- Node4 -->
<g id="Node000004" class="node">
<title>Node4</title>
<g id="a_Node000004"><a xlink:href="no__os__delay_8h.html" target="_top" xlink:title="Header file of Delay functions.">
<polygon fill="white" stroke="#666666" points="85,-74 0,-74 0,-55 85,-55 85,-74"/>
<text text-anchor="middle" x="42.5" y="-62" font-family="Helvetica,sans-Serif" font-size="10.00">no_os_delay.h</text>
</a>
</g>
</g>
<!-- Node1&#45;&gt;Node4 -->
<g id="edge3_Node000001_Node000004" class="edge">
<title>Node1&#45;&gt;Node4</title>
<g id="a_edge3_Node000001_Node000004"><a xlink:title=" ">
<path fill="none" stroke="#63b8ff" d="M241.32,-114.25C193.86,-102.61 129.61,-86.86 87.15,-76.45"/>
<polygon fill="#63b8ff" stroke="#63b8ff" points="87.93,-73.04 77.38,-74.05 86.26,-79.83 87.93,-73.04"/>
</a>
</g>
</g>
<!-- Node5 -->
<g id="Node000005" class="node">
<title>Node5</title>
<g id="a_Node000005"><a xlink:href="no__os__gpio_8h.html" target="_top" xlink:title="Header file of GPIO Interface.">
<polygon fill="white" stroke="#666666" points="183.5,-74 103.5,-74 103.5,-55 183.5,-55 183.5,-74"/>
<text text-anchor="middle" x="143.5" y="-62" font-family="Helvetica,sans-Serif" font-size="10.00">no_os_gpio.h</text>
</a>
</g>
</g>
<!-- Node1&#45;&gt;Node5 -->
<g id="edge5_Node000001_Node000005" class="edge">
<title>Node1&#45;&gt;Node5</title>
<g id="a_edge5_Node000001_Node000005"><a xlink:title=" ">
<path fill="none" stroke="#63b8ff" d="M254.63,-109.95C228.53,-99.51 197.19,-86.98 174.46,-77.88"/>
<polygon fill="#63b8ff" stroke="#63b8ff" points="175.56,-74.56 164.98,-74.09 172.96,-81.06 175.56,-74.56"/>
</a>
</g>
</g>
<!-- Node6 -->
<g id="Node000006" class="node">
<title>Node6</title>
<g id="a_Node000006"><a xlink:href="no__os__spi_8h.html" target="_top" xlink:title="Header file of SPI Interface.">
<polygon fill="white" stroke="#666666" points="275.5,-74 201.5,-74 201.5,-55 275.5,-55 275.5,-74"/>
<text text-anchor="middle" x="238.5" y="-62" font-family="Helvetica,sans-Serif" font-size="10.00">no_os_spi.h</text>
</a>
</g>
</g>
<!-- Node1&#45;&gt;Node6 -->
<g id="edge7_Node000001_Node000006" class="edge">
<title>Node1&#45;&gt;Node6</title>
<g id="a_edge7_Node000001_Node000006"><a xlink:title=" ">
<path fill="none" stroke="#63b8ff" d="M283.64,-109.95C274.38,-100.83 263.5,-90.11 254.74,-81.49"/>
<polygon fill="#63b8ff" stroke="#63b8ff" points="256.98,-78.78 247.4,-74.26 252.07,-83.77 256.98,-78.78"/>
</a>
</g>
</g>
<!-- Node7 -->
<g id="Node000007" class="node">
<title>Node7</title>
<g id="a_Node000007"><a xlink:href="no__os__util_8h.html" target="_top" xlink:title="Header file of utility functions.">
<polygon fill="white" stroke="#666666" points="407,-74 332,-74 332,-55 407,-55 407,-74"/>
<text text-anchor="middle" x="369.5" y="-62" font-family="Helvetica,sans-Serif" font-size="10.00">no_os_util.h</text>
</a>
</g>
</g>
<!-- Node1&#45;&gt;Node7 -->
<g id="edge9_Node000001_Node000007" class="edge">
<title>Node1&#45;&gt;Node7</title>
<g id="a_edge9_Node000001_Node000007"><a xlink:title=" ">
<path fill="none" stroke="#63b8ff" d="M323.66,-109.95C333.16,-100.74 344.34,-89.9 353.28,-81.23"/>
<polygon fill="#63b8ff" stroke="#63b8ff" points="355.72,-83.73 360.47,-74.26 350.85,-78.71 355.72,-83.73"/>
</a>
</g>
</g>
<!-- Node9 -->
<g id="Node000009" class="node">
<title>Node9</title>
<g id="a_Node000009"><a xlink:href="no__os__pwm_8h.html" target="_top" xlink:title="Header file of PWM Interface.">
<polygon fill="white" stroke="#666666" points="508,-74 425,-74 425,-55 508,-55 508,-74"/>
<text text-anchor="middle" x="466.5" y="-62" font-family="Helvetica,sans-Serif" font-size="10.00">no_os_pwm.h</text>
</a>
</g>
</g>
<!-- Node1&#45;&gt;Node9 -->
<g id="edge13_Node000001_Node000009" class="edge">
<title>Node1&#45;&gt;Node9</title>
<g id="a_edge13_Node000001_Node000009"><a xlink:title=" ">
<path fill="none" stroke="#63b8ff" d="M353.29,-109.95C380,-99.46 412.09,-86.87 435.27,-77.76"/>
<polygon fill="#63b8ff" stroke="#63b8ff" points="436.59,-81 444.62,-74.09 434.03,-74.49 436.59,-81"/>
</a>
</g>
</g>
<!-- Node4&#45;&gt;Node2 -->
<g id="edge4_Node000004_Node000002" class="edge">
<title>Node4&#45;&gt;Node2</title>
<g id="a_edge4_Node000004_Node000002"><a xlink:title=" ">
<path fill="none" stroke="#63b8ff" d="M78.81,-54.98C120.88,-45.12 189.82,-28.95 231.98,-19.06"/>
<polygon fill="#63b8ff" stroke="#63b8ff" points="232.9,-22.44 241.83,-16.75 231.3,-15.63 232.9,-22.44"/>
</a>
</g>
</g>
<!-- Node5&#45;&gt;Node2 -->
<g id="edge6_Node000005_Node000002" class="edge">
<title>Node5&#45;&gt;Node2</title>
<g id="a_edge6_Node000005_Node000002"><a xlink:title=" ">
<path fill="none" stroke="#63b8ff" d="M163.58,-54.98C183.87,-46.38 215.46,-32.99 238.67,-23.15"/>
<polygon fill="#63b8ff" stroke="#63b8ff" points="240.21,-26.3 248.05,-19.17 237.48,-19.85 240.21,-26.3"/>
</a>
</g>
</g>
<!-- Node6&#45;&gt;Node2 -->
<g id="edge8_Node000006_Node000002" class="edge">
<title>Node6&#45;&gt;Node2</title>
<g id="a_edge8_Node000006_Node000002"><a xlink:title=" ">
<path fill="none" stroke="#63b8ff" d="M243.45,-54.75C247.56,-47.49 253.53,-36.95 258.6,-27.98"/>
<polygon fill="#63b8ff" stroke="#63b8ff" points="261.76,-29.52 263.64,-19.09 255.67,-26.07 261.76,-29.52"/>
</a>
</g>
</g>
<!-- Node7&#45;&gt;Node2 -->
<g id="edge10_Node000007_Node000002" class="edge">
<title>Node7&#45;&gt;Node2</title>
<g id="a_edge10_Node000007_Node000002"><a xlink:title=" ">
<path fill="none" stroke="#63b8ff" d="M353.27,-54.98C337.32,-46.61 312.72,-33.7 294.12,-23.95"/>
<polygon fill="#63b8ff" stroke="#63b8ff" points="295.5,-20.72 285.02,-19.17 292.25,-26.92 295.5,-20.72"/>
</a>
</g>
</g>
<!-- Node7&#45;&gt;Node3 -->
<g id="edge12_Node000007_Node000003" class="edge">
<title>Node7&#45;&gt;Node3</title>
<g id="a_edge12_Node000007_Node000003"><a xlink:title=" ">
<path fill="none" stroke="#63b8ff" d="M385.08,-54.98C400.27,-46.69 423.6,-33.94 441.4,-24.22"/>
<polygon fill="#63b8ff" stroke="#63b8ff" points="443.53,-27.04 450.63,-19.17 440.18,-20.89 443.53,-27.04"/>
</a>
</g>
</g>
<!-- Node8 -->
<g id="Node000008" class="node">
<title>Node8</title>
<g id="a_Node000008"><a xlink:title=" ">
<polygon fill="#e0e0e0" stroke="#999999" points="396,-19 343,-19 343,0 396,0 396,-19"/>
<text text-anchor="middle" x="369.5" y="-7" font-family="Helvetica,sans-Serif" font-size="10.00">stdlib.h</text>
</a>
</g>
</g>
<!-- Node7&#45;&gt;Node8 -->
<g id="edge11_Node000007_Node000008" class="edge">
<title>Node7&#45;&gt;Node8</title>
<g id="a_edge11_Node000007_Node000008"><a xlink:title=" ">
<path fill="none" stroke="#63b8ff" d="M369.5,-54.75C369.5,-47.8 369.5,-37.85 369.5,-29.13"/>
<polygon fill="#63b8ff" stroke="#63b8ff" points="373,-29.09 369.5,-19.09 366,-29.09 373,-29.09"/>
</a>
</g>
</g>
<!-- Node9&#45;&gt;Node2 -->
<g id="edge14_Node000009_Node000002" class="edge">
<title>Node9&#45;&gt;Node2</title>
<g id="a_edge14_Node000009_Node000002"><a xlink:title=" ">
<path fill="none" stroke="#63b8ff" d="M434.69,-54.98C399.32,-45.52 342.28,-30.25 305.08,-20.29"/>
<polygon fill="#63b8ff" stroke="#63b8ff" points="305.72,-16.84 295.15,-17.63 303.91,-23.6 305.72,-16.84"/>
</a>
</g>
</g>
<!-- Node9&#45;&gt;Node3 -->
<g id="edge15_Node000009_Node000003" class="edge">
<title>Node9&#45;&gt;Node3</title>
<g id="a_edge15_Node000009_Node000003"><a xlink:title=" ">
<path fill="none" stroke="#63b8ff" d="M466.5,-54.75C466.5,-47.8 466.5,-37.85 466.5,-29.13"/>
<polygon fill="#63b8ff" stroke="#63b8ff" points="470,-29.09 466.5,-19.09 463,-29.09 470,-29.09"/>
</a>
</g>
</g>
</g>
</svg>
