<?xml version="1.0" encoding="UTF-8" standalone="no"?>
<!DOCTYPE svg PUBLIC "-//W3C//DTD SVG 1.1//EN"
 "http://www.w3.org/Graphics/SVG/1.1/DTD/svg11.dtd">
<!-- Generated by graphviz version 2.43.0 (0)
 -->
<!-- Title: /home/runner/work/no&#45;OS/no&#45;OS/drivers/adc/ad7799/ad7799.c Pages: 1 -->
<svg width="510pt" height="214pt"
 viewBox="0.00 0.00 509.50 214.00" xmlns="http://www.w3.org/2000/svg" xmlns:xlink="http://www.w3.org/1999/xlink">
<g id="graph0" class="graph" transform="scale(1 1) rotate(0) translate(4 210)">
<title>/home/runner/work/no&#45;OS/no&#45;OS/drivers/adc/ad7799/ad7799.c</title>
<!-- Node1 -->
<g id="Node000001" class="node">
<title>Node1</title>
<g id="a_Node000001"><a xlink:title="Implementation of AD7798/AD7799 Driver.">
<polygon fill="#999999" stroke="#666666" points="236.5,-206 112.5,-206 112.5,-165 236.5,-165 236.5,-206"/>
<text text-anchor="start" x="120.5" y="-194" font-family="Helvetica,sans-Serif" font-size="10.00">/home/runner/work/no</text>
<text text-anchor="start" x="120.5" y="-183" font-family="Helvetica,sans-Serif" font-size="10.00">&#45;OS/no&#45;OS/drivers/adc</text>
<text text-anchor="middle" x="174.5" y="-172" font-family="Helvetica,sans-Serif" font-size="10.00">/ad7799/ad7799.c</text>
</a>
</g>
</g>
<!-- Node2 -->
<g id="Node000002" class="node">
<title>Node2</title>
<g id="a_Node000002"><a xlink:title=" ">
<polygon fill="#e0e0e0" stroke="#999999" points="53,-74 0,-74 0,-55 53,-55 53,-74"/>
<text text-anchor="middle" x="26.5" y="-62" font-family="Helvetica,sans-Serif" font-size="10.00">stdlib.h</text>
</a>
</g>
</g>
<!-- Node1&#45;&gt;Node2 -->
<g id="edge1_Node000001_Node000002" class="edge">
<title>Node1&#45;&gt;Node2</title>
<g id="a_edge1_Node000001_Node000002"><a xlink:title=" ">
<path fill="none" stroke="#63b8ff" d="M112.21,-180.68C76.18,-174.88 33.54,-161.12 10.5,-129 0.8,-115.47 7.43,-96.64 14.89,-83"/>
<polygon fill="#63b8ff" stroke="#63b8ff" points="18.07,-84.51 20.24,-74.14 12.07,-80.89 18.07,-84.51"/>
</a>
</g>
</g>
<!-- Node3 -->
<g id="Node000003" class="node">
<title>Node3</title>
<g id="a_Node000003"><a xlink:title=" ">
<polygon fill="#e0e0e0" stroke="#999999" points="121.5,-74 71.5,-74 71.5,-55 121.5,-55 121.5,-74"/>
<text text-anchor="middle" x="96.5" y="-62" font-family="Helvetica,sans-Serif" font-size="10.00">stdio.h</text>
</a>
</g>
</g>
<!-- Node1&#45;&gt;Node3 -->
<g id="edge2_Node000001_Node000003" class="edge">
<title>Node1&#45;&gt;Node3</title>
<g id="a_edge2_Node000001_Node000003"><a xlink:title=" ">
<path fill="none" stroke="#63b8ff" d="M182.91,-164.69C188.27,-148.78 192.51,-126.45 182.5,-110 171.39,-91.74 150.1,-80.64 131.48,-74.09"/>
<polygon fill="#63b8ff" stroke="#63b8ff" points="132.37,-70.7 121.78,-70.99 130.24,-77.37 132.37,-70.7"/>
</a>
</g>
</g>
<!-- Node4 -->
<g id="Node000004" class="node">
<title>Node4</title>
<g id="a_Node000004"><a xlink:title=" ">
<polygon fill="#e0e0e0" stroke="#999999" points="174,-129 121,-129 121,-110 174,-110 174,-129"/>
<text text-anchor="middle" x="147.5" y="-117" font-family="Helvetica,sans-Serif" font-size="10.00">string.h</text>
</a>
</g>
</g>
<!-- Node1&#45;&gt;Node4 -->
<g id="edge3_Node000001_Node000004" class="edge">
<title>Node1&#45;&gt;Node4</title>
<g id="a_edge3_Node000001_Node000004"><a xlink:title=" ">
<path fill="none" stroke="#63b8ff" d="M166.25,-164.95C162.72,-156.58 158.62,-146.85 155.15,-138.64"/>
<polygon fill="#63b8ff" stroke="#63b8ff" points="158.31,-137.11 151.2,-129.26 151.86,-139.83 158.31,-137.11"/>
</a>
</g>
</g>
<!-- Node5 -->
<g id="Node000005" class="node">
<title>Node5</title>
<g id="a_Node000005"><a xlink:href="no__os__error_8h.html" target="_top" xlink:title="Error codes definition.">
<polygon fill="white" stroke="#666666" points="312.5,-129 230.5,-129 230.5,-110 312.5,-110 312.5,-129"/>
<text text-anchor="middle" x="271.5" y="-117" font-family="Helvetica,sans-Serif" font-size="10.00">no_os_error.h</text>
</a>
</g>
</g>
<!-- Node1&#45;&gt;Node5 -->
<g id="edge4_Node000001_Node000005" class="edge">
<title>Node1&#45;&gt;Node5</title>
<g id="a_edge4_Node000001_Node000005"><a xlink:title=" ">
<path fill="none" stroke="#63b8ff" d="M204.13,-164.95C218.89,-155.21 236.41,-143.65 249.88,-134.76"/>
<polygon fill="#63b8ff" stroke="#63b8ff" points="252.06,-137.52 258.48,-129.09 248.2,-131.68 252.06,-137.52"/>
</a>
</g>
</g>
<!-- Node7 -->
<g id="Node000007" class="node">
<title>Node7</title>
<g id="a_Node000007"><a xlink:href="ad7799_8h.html" target="_top" xlink:title="Header file of AD7798/AD7799 Driver.">
<polygon fill="white" stroke="#666666" points="403.5,-129 341.5,-129 341.5,-110 403.5,-110 403.5,-129"/>
<text text-anchor="middle" x="372.5" y="-117" font-family="Helvetica,sans-Serif" font-size="10.00">ad7799.h</text>
</a>
</g>
</g>
<!-- Node1&#45;&gt;Node7 -->
<g id="edge6_Node000001_Node000007" class="edge">
<title>Node1&#45;&gt;Node7</title>
<g id="a_edge6_Node000001_Node000007"><a xlink:title=" ">
<path fill="none" stroke="#63b8ff" d="M234.98,-164.95C268.1,-154.24 308.04,-141.34 336.32,-132.19"/>
<polygon fill="#63b8ff" stroke="#63b8ff" points="337.74,-135.41 346.18,-129.01 335.59,-128.75 337.74,-135.41"/>
</a>
</g>
</g>
<!-- Node11 -->
<g id="Node000011" class="node">
<title>Node11</title>
<g id="a_Node000011"><a xlink:href="no__os__alloc_8h.html" target="_top" xlink:title=" ">
<polygon fill="white" stroke="#666666" points="103,-129 20,-129 20,-110 103,-110 103,-129"/>
<text text-anchor="middle" x="61.5" y="-117" font-family="Helvetica,sans-Serif" font-size="10.00">no_os_alloc.h</text>
</a>
</g>
</g>
<!-- Node1&#45;&gt;Node11 -->
<g id="edge11_Node000001_Node000011" class="edge">
<title>Node1&#45;&gt;Node11</title>
<g id="a_edge11_Node000001_Node000011"><a xlink:title=" ">
<path fill="none" stroke="#63b8ff" d="M139.98,-164.95C122.46,-155.03 101.6,-143.21 85.79,-134.25"/>
<polygon fill="#63b8ff" stroke="#63b8ff" points="87.1,-130.97 76.67,-129.09 83.65,-137.07 87.1,-130.97"/>
</a>
</g>
</g>
<!-- Node6 -->
<g id="Node000006" class="node">
<title>Node6</title>
<g id="a_Node000006"><a xlink:href="errno_8h.html" target="_top" xlink:title="Error macro definition for ARM Compiler.">
<polygon fill="white" stroke="#666666" points="291,-74 240,-74 240,-55 291,-55 291,-74"/>
<text text-anchor="middle" x="265.5" y="-62" font-family="Helvetica,sans-Serif" font-size="10.00">errno.h</text>
</a>
</g>
</g>
<!-- Node5&#45;&gt;Node6 -->
<g id="edge5_Node000005_Node000006" class="edge">
<title>Node5&#45;&gt;Node6</title>
<g id="a_edge5_Node000005_Node000006"><a xlink:title=" ">
<path fill="none" stroke="#63b8ff" d="M270.51,-109.75C269.72,-102.8 268.6,-92.85 267.61,-84.13"/>
<polygon fill="#63b8ff" stroke="#63b8ff" points="271.08,-83.63 266.47,-74.09 264.12,-84.42 271.08,-83.63"/>
</a>
</g>
</g>
<!-- Node8 -->
<g id="Node000008" class="node">
<title>Node8</title>
<g id="a_Node000008"><a xlink:title=" ">
<polygon fill="#e0e0e0" stroke="#999999" points="418,-19 365,-19 365,0 418,0 418,-19"/>
<text text-anchor="middle" x="391.5" y="-7" font-family="Helvetica,sans-Serif" font-size="10.00">stdint.h</text>
</a>
</g>
</g>
<!-- Node7&#45;&gt;Node8 -->
<g id="edge7_Node000007_Node000008" class="edge">
<title>Node7&#45;&gt;Node8</title>
<g id="a_edge7_Node000007_Node000008"><a xlink:title=" ">
<path fill="none" stroke="#63b8ff" d="M361.89,-109.62C348.76,-97.48 329.2,-74.95 338.5,-55 344.33,-42.49 355.59,-32.25 366.25,-24.76"/>
<polygon fill="#63b8ff" stroke="#63b8ff" points="368.44,-27.51 374.92,-19.13 364.62,-21.64 368.44,-27.51"/>
</a>
</g>
</g>
<!-- Node9 -->
<g id="Node000009" class="node">
<title>Node9</title>
<g id="a_Node000009"><a xlink:title=" ">
<polygon fill="#e0e0e0" stroke="#999999" points="409.5,-74 347.5,-74 347.5,-55 409.5,-55 409.5,-74"/>
<text text-anchor="middle" x="378.5" y="-62" font-family="Helvetica,sans-Serif" font-size="10.00">stdbool.h</text>
</a>
</g>
</g>
<!-- Node7&#45;&gt;Node9 -->
<g id="edge8_Node000007_Node000009" class="edge">
<title>Node7&#45;&gt;Node9</title>
<g id="a_edge8_Node000007_Node000009"><a xlink:title=" ">
<path fill="none" stroke="#63b8ff" d="M373.49,-109.75C374.28,-102.8 375.4,-92.85 376.39,-84.13"/>
<polygon fill="#63b8ff" stroke="#63b8ff" points="379.88,-84.42 377.53,-74.09 372.92,-83.63 379.88,-84.42"/>
</a>
</g>
</g>
<!-- Node10 -->
<g id="Node000010" class="node">
<title>Node10</title>
<g id="a_Node000010"><a xlink:href="no__os__spi_8h.html" target="_top" xlink:title="Header file of SPI Interface.">
<polygon fill="white" stroke="#666666" points="501.5,-74 427.5,-74 427.5,-55 501.5,-55 501.5,-74"/>
<text text-anchor="middle" x="464.5" y="-62" font-family="Helvetica,sans-Serif" font-size="10.00">no_os_spi.h</text>
</a>
</g>
</g>
<!-- Node7&#45;&gt;Node10 -->
<g id="edge9_Node000007_Node000010" class="edge">
<title>Node7&#45;&gt;Node10</title>
<g id="a_edge9_Node000007_Node000010"><a xlink:title=" ">
<path fill="none" stroke="#63b8ff" d="M387.28,-109.98C401.68,-101.69 423.81,-88.94 440.69,-79.22"/>
<polygon fill="#63b8ff" stroke="#63b8ff" points="442.53,-82.19 449.45,-74.17 439.04,-76.13 442.53,-82.19"/>
</a>
</g>
</g>
<!-- Node10&#45;&gt;Node8 -->
<g id="edge10_Node000010_Node000008" class="edge">
<title>Node10&#45;&gt;Node8</title>
<g id="a_edge10_Node000010_Node000008"><a xlink:title=" ">
<path fill="none" stroke="#63b8ff" d="M452.77,-54.98C441.77,-47 425.08,-34.88 411.9,-25.31"/>
<polygon fill="#63b8ff" stroke="#63b8ff" points="413.59,-22.21 403.44,-19.17 409.48,-27.88 413.59,-22.21"/>
</a>
</g>
</g>
<!-- Node11&#45;&gt;Node2 -->
<g id="edge13_Node000011_Node000002" class="edge">
<title>Node11&#45;&gt;Node2</title>
<g id="a_edge13_Node000011_Node000002"><a xlink:title=" ">
<path fill="none" stroke="#63b8ff" d="M55.72,-109.75C50.88,-102.42 43.82,-91.73 37.86,-82.7"/>
<polygon fill="#63b8ff" stroke="#63b8ff" points="40.6,-80.5 32.17,-74.09 34.76,-84.36 40.6,-80.5"/>
</a>
</g>
</g>
<!-- Node11&#45;&gt;Node3 -->
<g id="edge12_Node000011_Node000003" class="edge">
<title>Node11&#45;&gt;Node3</title>
<g id="a_edge12_Node000011_Node000003"><a xlink:title=" ">
<path fill="none" stroke="#63b8ff" d="M67.28,-109.75C72.12,-102.42 79.18,-91.73 85.14,-82.7"/>
<polygon fill="#63b8ff" stroke="#63b8ff" points="88.24,-84.36 90.83,-74.09 82.4,-80.5 88.24,-84.36"/>
</a>
</g>
</g>
</g>
</svg>
