<?xml version="1.0" encoding="UTF-8" standalone="no"?>
<!DOCTYPE svg PUBLIC "-//W3C//DTD SVG 1.1//EN"
 "http://www.w3.org/Graphics/SVG/1.1/DTD/svg11.dtd">
<!-- Generated by graphviz version 2.43.0 (0)
 -->
<!-- Title: /home/runner/work/no&#45;OS/no&#45;OS/drivers/adc/ad796x/ad796x.h Pages: 1 -->
<svg width="445pt" height="214pt"
 viewBox="0.00 0.00 444.50 214.00" xmlns="http://www.w3.org/2000/svg" xmlns:xlink="http://www.w3.org/1999/xlink">

<svg id="main" version="1.1" xmlns="http://www.w3.org/2000/svg" xmlns:xlink="http://www.w3.org/1999/xlink" xml:space="preserve">

<style type="text/css"><![CDATA[
.node, .edge {opacity: 0.7;}
.node.selected, .edge.selected {opacity: 1;}
.edge:hover path { stroke: red; }
.edge:hover polygon { stroke: red; fill: red; }
]]></style>
<script type="application/ecmascript" xlink:href="svg.min.js"/>
<svg id="graph" class="graph">
<g id="graph0" class="graph" transform="scale(1 1) rotate(0) translate(4 210)">
<title>/home/runner/work/no&#45;OS/no&#45;OS/drivers/adc/ad796x/ad796x.h</title>
<!-- Node1 -->
<g id="Node000001" class="node">
<title>Node1</title>
<g id="a_Node000001"><a xlink:title="Header file of AD796X Driver.">
<polygon fill="#999999" stroke="#666666" points="299.5,-206 175.5,-206 175.5,-165 299.5,-165 299.5,-206"/>
<text text-anchor="start" x="183.5" y="-194" font-family="Helvetica,sans-Serif" font-size="10.00">/home/runner/work/no</text>
<text text-anchor="start" x="183.5" y="-183" font-family="Helvetica,sans-Serif" font-size="10.00">&#45;OS/no&#45;OS/drivers/adc</text>
<text text-anchor="middle" x="237.5" y="-172" font-family="Helvetica,sans-Serif" font-size="10.00">/ad796x/ad796x.h</text>
</a>
</g>
</g>
<!-- Node2 -->
<g id="Node000002" class="node">
<title>Node2</title>
<g id="a_Node000002"><a xlink:href="no__os__gpio_8h.html" target="_top" xlink:title="Header file of GPIO Interface.">
<polygon fill="white" stroke="#666666" points="350.5,-74 270.5,-74 270.5,-55 350.5,-55 350.5,-74"/>
<text text-anchor="middle" x="310.5" y="-62" font-family="Helvetica,sans-Serif" font-size="10.00">no_os_gpio.h</text>
</a>
</g>
</g>
<!-- Node1&#45;&gt;Node2 -->
<g id="edge1_Node000001_Node000002" class="edge">
<title>Node1&#45;&gt;Node2</title>
<g id="a_edge1_Node000001_Node000002"><a xlink:title=" ">
<path fill="none" stroke="#63b8ff" d="M261.2,-164.92C271.77,-155.1 283.6,-142.45 291.5,-129 299.62,-115.19 304.52,-97.62 307.31,-84.46"/>
<polygon fill="#63b8ff" stroke="#63b8ff" points="310.83,-84.72 309.24,-74.24 303.95,-83.42 310.83,-84.72"/>
</a>
</g>
</g>
<!-- Node4 -->
<g id="Node000004" class="node">
<title>Node4</title>
<g id="a_Node000004"><a xlink:href="no__os__pwm_8h.html" target="_top" xlink:title="Header file of PWM Interface.">
<polygon fill="white" stroke="#666666" points="83,-74 0,-74 0,-55 83,-55 83,-74"/>
<text text-anchor="middle" x="41.5" y="-62" font-family="Helvetica,sans-Serif" font-size="10.00">no_os_pwm.h</text>
</a>
</g>
</g>
<!-- Node1&#45;&gt;Node4 -->
<g id="edge3_Node000001_Node000004" class="edge">
<title>Node1&#45;&gt;Node4</title>
<g id="a_edge3_Node000001_Node000004"><a xlink:title=" ">
<path fill="none" stroke="#63b8ff" d="M175.36,-168.69C148.25,-159.86 117.11,-146.94 92.5,-129 75.42,-116.55 60.89,-96.98 51.77,-82.86"/>
<polygon fill="#63b8ff" stroke="#63b8ff" points="54.59,-80.77 46.34,-74.11 48.63,-84.45 54.59,-80.77"/>
</a>
</g>
</g>
<!-- Node6 -->
<g id="Node000006" class="node">
<title>Node6</title>
<g id="a_Node000006"><a xlink:href="axi__dmac_8h.html" target="_top" xlink:title="Driver for the Analog Devices AXI&#45;DMAC core.">
<polygon fill="white" stroke="#666666" points="175,-129 102,-129 102,-110 175,-110 175,-129"/>
<text text-anchor="middle" x="138.5" y="-117" font-family="Helvetica,sans-Serif" font-size="10.00">axi_dmac.h</text>
</a>
</g>
</g>
<!-- Node1&#45;&gt;Node6 -->
<g id="edge6_Node000001_Node000006" class="edge">
<title>Node1&#45;&gt;Node6</title>
<g id="a_edge6_Node000001_Node000006"><a xlink:title=" ">
<path fill="none" stroke="#63b8ff" d="M207.26,-164.95C192.2,-155.21 174.32,-143.65 160.57,-134.76"/>
<polygon fill="#63b8ff" stroke="#63b8ff" points="162.09,-131.58 151.79,-129.09 158.29,-137.46 162.09,-131.58"/>
</a>
</g>
</g>
<!-- Node9 -->
<g id="Node000009" class="node">
<title>Node9</title>
<g id="a_Node000009"><a xlink:href="clk__axi__clkgen_8h.html" target="_top" xlink:title="Driver for the Analog Devices AXI CLKGEN.">
<polygon fill="white" stroke="#666666" points="436.5,-129 338.5,-129 338.5,-110 436.5,-110 436.5,-129"/>
<text text-anchor="middle" x="387.5" y="-117" font-family="Helvetica,sans-Serif" font-size="10.00">clk_axi_clkgen.h</text>
</a>
</g>
</g>
<!-- Node1&#45;&gt;Node9 -->
<g id="edge12_Node000001_Node000009" class="edge">
<title>Node1&#45;&gt;Node9</title>
<g id="a_edge12_Node000001_Node000009"><a xlink:title=" ">
<path fill="none" stroke="#63b8ff" d="M283.32,-164.95C307.57,-154.6 336.63,-142.2 357.9,-133.13"/>
<polygon fill="#63b8ff" stroke="#63b8ff" points="359.54,-136.24 367.36,-129.09 356.79,-129.8 359.54,-136.24"/>
</a>
</g>
</g>
<!-- Node10 -->
<g id="Node000010" class="node">
<title>Node10</title>
<g id="a_Node000010"><a xlink:href="axi__adc__core_8h.html" target="_top" xlink:title="Driver for the Analog Devices AXI&#45;ADC&#45;CORE module.">
<polygon fill="white" stroke="#666666" points="282,-129 193,-129 193,-110 282,-110 282,-129"/>
<text text-anchor="middle" x="237.5" y="-117" font-family="Helvetica,sans-Serif" font-size="10.00">axi_adc_core.h</text>
</a>
</g>
</g>
<!-- Node1&#45;&gt;Node10 -->
<g id="edge14_Node000001_Node000010" class="edge">
<title>Node1&#45;&gt;Node10</title>
<g id="a_edge14_Node000001_Node000010"><a xlink:title=" ">
<path fill="none" stroke="#63b8ff" d="M237.5,-164.95C237.5,-156.85 237.5,-147.5 237.5,-139.47"/>
<polygon fill="#63b8ff" stroke="#63b8ff" points="241,-139.26 237.5,-129.26 234,-139.26 241,-139.26"/>
</a>
</g>
</g>
<!-- Node3 -->
<g id="Node000003" class="node">
<title>Node3</title>
<g id="a_Node000003"><a xlink:title=" ">
<polygon fill="#e0e0e0" stroke="#999999" points="252,-19 199,-19 199,0 252,0 252,-19"/>
<text text-anchor="middle" x="225.5" y="-7" font-family="Helvetica,sans-Serif" font-size="10.00">stdint.h</text>
</a>
</g>
</g>
<!-- Node2&#45;&gt;Node3 -->
<g id="edge2_Node000002_Node000003" class="edge">
<title>Node2&#45;&gt;Node3</title>
<g id="a_edge2_Node000002_Node000003"><a xlink:title=" ">
<path fill="none" stroke="#63b8ff" d="M296.84,-54.98C283.66,-46.77 263.47,-34.18 247.93,-24.49"/>
<polygon fill="#63b8ff" stroke="#63b8ff" points="249.74,-21.49 239.41,-19.17 246.04,-27.43 249.74,-21.49"/>
</a>
</g>
</g>
<!-- Node4&#45;&gt;Node3 -->
<g id="edge4_Node000004_Node000003" class="edge">
<title>Node4&#45;&gt;Node3</title>
<g id="a_edge4_Node000004_Node000003"><a xlink:title=" ">
<path fill="none" stroke="#63b8ff" d="M71.06,-54.98C103.24,-45.72 154.71,-30.89 189.29,-20.93"/>
<polygon fill="#63b8ff" stroke="#63b8ff" points="190.36,-24.27 199,-18.13 188.42,-17.54 190.36,-24.27"/>
</a>
</g>
</g>
<!-- Node5 -->
<g id="Node000005" class="node">
<title>Node5</title>
<g id="a_Node000005"><a xlink:title=" ">
<polygon fill="#e0e0e0" stroke="#999999" points="83.5,-19 21.5,-19 21.5,0 83.5,0 83.5,-19"/>
<text text-anchor="middle" x="52.5" y="-7" font-family="Helvetica,sans-Serif" font-size="10.00">stdbool.h</text>
</a>
</g>
</g>
<!-- Node4&#45;&gt;Node5 -->
<g id="edge5_Node000004_Node000005" class="edge">
<title>Node4&#45;&gt;Node5</title>
<g id="a_edge5_Node000004_Node000005"><a xlink:title=" ">
<path fill="none" stroke="#63b8ff" d="M43.32,-54.75C44.76,-47.8 46.82,-37.85 48.63,-29.13"/>
<polygon fill="#63b8ff" stroke="#63b8ff" points="52.11,-29.59 50.72,-19.09 45.26,-28.17 52.11,-29.59"/>
</a>
</g>
</g>
<!-- Node6&#45;&gt;Node3 -->
<g id="edge7_Node000006_Node000003" class="edge">
<title>Node6&#45;&gt;Node3</title>
<g id="a_edge7_Node000006_Node000003"><a xlink:title=" ">
<path fill="none" stroke="#63b8ff" d="M148.66,-109.89C158.45,-101.34 173.36,-87.57 184.5,-74 196.45,-59.45 207.88,-41.27 215.62,-28.1"/>
<polygon fill="#63b8ff" stroke="#63b8ff" points="218.82,-29.55 220.77,-19.14 212.75,-26.07 218.82,-29.55"/>
</a>
</g>
</g>
<!-- Node7 -->
<g id="Node000007" class="node">
<title>Node7</title>
<g id="a_Node000007"><a xlink:href="no__os__util_8h.html" target="_top" xlink:title="Header file of utility functions.">
<polygon fill="white" stroke="#666666" points="176,-74 101,-74 101,-55 176,-55 176,-74"/>
<text text-anchor="middle" x="138.5" y="-62" font-family="Helvetica,sans-Serif" font-size="10.00">no_os_util.h</text>
</a>
</g>
</g>
<!-- Node6&#45;&gt;Node7 -->
<g id="edge8_Node000006_Node000007" class="edge">
<title>Node6&#45;&gt;Node7</title>
<g id="a_edge8_Node000006_Node000007"><a xlink:title=" ">
<path fill="none" stroke="#63b8ff" d="M138.5,-109.75C138.5,-102.8 138.5,-92.85 138.5,-84.13"/>
<polygon fill="#63b8ff" stroke="#63b8ff" points="142,-84.09 138.5,-74.09 135,-84.09 142,-84.09"/>
</a>
</g>
</g>
<!-- Node7&#45;&gt;Node3 -->
<g id="edge9_Node000007_Node000003" class="edge">
<title>Node7&#45;&gt;Node3</title>
<g id="a_edge9_Node000007_Node000003"><a xlink:title=" ">
<path fill="none" stroke="#63b8ff" d="M152.48,-54.98C165.97,-46.77 186.63,-34.18 202.54,-24.49"/>
<polygon fill="#63b8ff" stroke="#63b8ff" points="204.55,-27.36 211.27,-19.17 200.91,-21.38 204.55,-27.36"/>
</a>
</g>
</g>
<!-- Node7&#45;&gt;Node5 -->
<g id="edge11_Node000007_Node000005" class="edge">
<title>Node7&#45;&gt;Node5</title>
<g id="a_edge11_Node000007_Node000005"><a xlink:title=" ">
<path fill="none" stroke="#63b8ff" d="M124.68,-54.98C111.35,-46.77 90.92,-34.18 75.19,-24.49"/>
<polygon fill="#63b8ff" stroke="#63b8ff" points="76.92,-21.44 66.57,-19.17 73.25,-27.4 76.92,-21.44"/>
</a>
</g>
</g>
<!-- Node8 -->
<g id="Node000008" class="node">
<title>Node8</title>
<g id="a_Node000008"><a xlink:title=" ">
<polygon fill="#e0e0e0" stroke="#999999" points="165,-19 112,-19 112,0 165,0 165,-19"/>
<text text-anchor="middle" x="138.5" y="-7" font-family="Helvetica,sans-Serif" font-size="10.00">stdlib.h</text>
</a>
</g>
</g>
<!-- Node7&#45;&gt;Node8 -->
<g id="edge10_Node000007_Node000008" class="edge">
<title>Node7&#45;&gt;Node8</title>
<g id="a_edge10_Node000007_Node000008"><a xlink:title=" ">
<path fill="none" stroke="#63b8ff" d="M138.5,-54.75C138.5,-47.8 138.5,-37.85 138.5,-29.13"/>
<polygon fill="#63b8ff" stroke="#63b8ff" points="142,-29.09 138.5,-19.09 135,-29.09 142,-29.09"/>
</a>
</g>
</g>
<!-- Node9&#45;&gt;Node3 -->
<g id="edge13_Node000009_Node000003" class="edge">
<title>Node9&#45;&gt;Node3</title>
<g id="a_edge13_Node000009_Node000003"><a xlink:title=" ">
<path fill="none" stroke="#63b8ff" d="M385.99,-109.8C383.19,-96.19 375.9,-69.92 359.5,-55 332.49,-30.43 291.55,-19.39 262.03,-14.45"/>
<polygon fill="#63b8ff" stroke="#63b8ff" points="262.52,-10.98 252.11,-12.94 261.47,-17.9 262.52,-10.98"/>
</a>
</g>
</g>
<!-- Node10&#45;&gt;Node3 -->
<g id="edge15_Node000010_Node000003" class="edge">
<title>Node10&#45;&gt;Node3</title>
<g id="a_edge15_Node000010_Node000003"><a xlink:title=" ">
<path fill="none" stroke="#63b8ff" d="M236.52,-109.66C234.57,-92.17 230.2,-52.8 227.59,-29.27"/>
<polygon fill="#63b8ff" stroke="#63b8ff" points="231.05,-28.71 226.46,-19.16 224.09,-29.48 231.05,-28.71"/>
</a>
</g>
</g>
<!-- Node10&#45;&gt;Node7 -->
<g id="edge16_Node000010_Node000007" class="edge">
<title>Node10&#45;&gt;Node7</title>
<g id="a_edge16_Node000010_Node000007"><a xlink:title=" ">
<path fill="none" stroke="#63b8ff" d="M221.59,-109.98C205.95,-101.61 181.84,-88.7 163.62,-78.95"/>
<polygon fill="#63b8ff" stroke="#63b8ff" points="165.16,-75.8 154.7,-74.17 161.86,-81.98 165.16,-75.8"/>
</a>
</g>
</g>
</g>
</svg>
</svg>

<style type='text/css'>
<![CDATA[
[data-mouse-over-selected='false'] { opacity: 0.7; }
[data-mouse-over-selected='true']  { opacity: 1.0; }
]]>
</style>
<script type="application/ecmascript"><![CDATA[
document.addEventListener('DOMContentLoaded', (event) => {
  highlightEdges();
  highlightAdjacentNodes();
});
]]></script>
</svg>
