<?xml version="1.0" encoding="UTF-8" standalone="no"?>
<!DOCTYPE svg PUBLIC "-//W3C//DTD SVG 1.1//EN"
 "http://www.w3.org/Graphics/SVG/1.1/DTD/svg11.dtd">
<!-- Generated by graphviz version 2.43.0 (0)
 -->
<!-- Title: /home/runner/work/no&#45;OS/no&#45;OS/drivers/adc/ad9083/ad9083.h Pages: 1 -->
<svg width="548pt" height="203pt"
 viewBox="0.00 0.00 547.50 203.00" xmlns="http://www.w3.org/2000/svg" xmlns:xlink="http://www.w3.org/1999/xlink">
<g id="graph0" class="graph" transform="scale(1 1) rotate(0) translate(4 199)">
<title>/home/runner/work/no&#45;OS/no&#45;OS/drivers/adc/ad9083/ad9083.h</title>
<!-- Node1 -->
<g id="Node000001" class="node">
<title>Node1</title>
<g id="a_Node000001"><a xlink:title="Header file of ad9083 Driver.">
<polygon fill="#999999" stroke="#666666" points="214,-195 90,-195 90,-154 214,-154 214,-195"/>
<text text-anchor="start" x="98" y="-183" font-family="Helvetica,sans-Serif" font-size="10.00">/home/runner/work/no</text>
<text text-anchor="start" x="98" y="-172" font-family="Helvetica,sans-Serif" font-size="10.00">&#45;OS/no&#45;OS/drivers/adc</text>
<text text-anchor="middle" x="152" y="-161" font-family="Helvetica,sans-Serif" font-size="10.00">/ad9083/ad9083.h</text>
</a>
</g>
</g>
<!-- Node2 -->
<g id="Node000002" class="node">
<title>Node2</title>
<g id="a_Node000002"><a xlink:href="ad9083_8c.html" target="_top" xlink:title="Implementation of ad9083 Driver.">
<polygon fill="white" stroke="#666666" points="124,-118 0,-118 0,-77 124,-77 124,-118"/>
<text text-anchor="start" x="8" y="-106" font-family="Helvetica,sans-Serif" font-size="10.00">/home/runner/work/no</text>
<text text-anchor="start" x="8" y="-95" font-family="Helvetica,sans-Serif" font-size="10.00">&#45;OS/no&#45;OS/drivers/adc</text>
<text text-anchor="middle" x="62" y="-84" font-family="Helvetica,sans-Serif" font-size="10.00">/ad9083/ad9083.c</text>
</a>
</g>
</g>
<!-- Node1&#45;&gt;Node2 -->
<g id="edge1_Node000001_Node000002" class="edge">
<title>Node1&#45;&gt;Node2</title>
<g id="a_edge1_Node000001_Node000002"><a xlink:title=" ">
<path fill="none" stroke="#63b8ff" d="M120.62,-147.35C109.08,-137.73 96.22,-127.01 85.49,-118.07"/>
<polygon fill="#63b8ff" stroke="#63b8ff" points="118.43,-150.08 128.35,-153.79 122.91,-144.7 118.43,-150.08"/>
</a>
</g>
</g>
<!-- Node3 -->
<g id="Node000003" class="node">
<title>Node3</title>
<g id="a_Node000003"><a xlink:href="ad9083_2src_2app_8c.html" target="_top" xlink:title="AD9083 application example.">
<polygon fill="white" stroke="#666666" points="209.5,-41 62.5,-41 62.5,0 209.5,0 209.5,-41"/>
<text text-anchor="start" x="70.5" y="-29" font-family="Helvetica,sans-Serif" font-size="10.00">/home/runner/work/no</text>
<text text-anchor="start" x="70.5" y="-18" font-family="Helvetica,sans-Serif" font-size="10.00">&#45;OS/no&#45;OS/projects/ad9083</text>
<text text-anchor="middle" x="136" y="-7" font-family="Helvetica,sans-Serif" font-size="10.00">/src/app.c</text>
</a>
</g>
</g>
<!-- Node1&#45;&gt;Node3 -->
<g id="edge2_Node000001_Node000003" class="edge">
<title>Node1&#45;&gt;Node3</title>
<g id="a_edge2_Node000001_Node000003"><a xlink:title=" ">
<path fill="none" stroke="#63b8ff" d="M148.89,-143.98C145.71,-113.76 140.86,-67.64 138.1,-41.47"/>
<polygon fill="#63b8ff" stroke="#63b8ff" points="145.41,-144.36 149.94,-153.94 152.37,-143.63 145.41,-144.36"/>
</a>
</g>
</g>
<!-- Node4 -->
<g id="Node000004" class="node">
<title>Node4</title>
<g id="a_Node000004"><a xlink:href="app__ad9083_8h.html" target="_top" xlink:title=" ">
<polygon fill="white" stroke="#666666" points="358.5,-118 211.5,-118 211.5,-77 358.5,-77 358.5,-118"/>
<text text-anchor="start" x="219.5" y="-106" font-family="Helvetica,sans-Serif" font-size="10.00">/home/runner/work/no</text>
<text text-anchor="start" x="219.5" y="-95" font-family="Helvetica,sans-Serif" font-size="10.00">&#45;OS/no&#45;OS/projects/ad9083</text>
<text text-anchor="middle" x="285" y="-84" font-family="Helvetica,sans-Serif" font-size="10.00">/src/app_ad9083.h</text>
</a>
</g>
</g>
<!-- Node1&#45;&gt;Node4 -->
<g id="edge3_Node000001_Node000004" class="edge">
<title>Node1&#45;&gt;Node4</title>
<g id="a_edge3_Node000001_Node000004"><a xlink:title=" ">
<path fill="none" stroke="#63b8ff" d="M195.59,-148.92C213.28,-138.95 233.43,-127.58 250.11,-118.17"/>
<polygon fill="#63b8ff" stroke="#63b8ff" points="193.59,-146.03 186.6,-153.99 197.03,-152.13 193.59,-146.03"/>
</a>
</g>
</g>
<!-- Node4&#45;&gt;Node3 -->
<g id="edge4_Node000004_Node000003" class="edge">
<title>Node4&#45;&gt;Node3</title>
<g id="a_edge4_Node000004_Node000003"><a xlink:title=" ">
<path fill="none" stroke="#63b8ff" d="M237.22,-72.45C217.06,-62.3 193.9,-50.64 174.82,-41.04"/>
<polygon fill="#63b8ff" stroke="#63b8ff" points="235.74,-75.62 246.24,-76.99 238.88,-69.37 235.74,-75.62"/>
</a>
</g>
</g>
<!-- Node5 -->
<g id="Node000005" class="node">
<title>Node5</title>
<g id="a_Node000005"><a xlink:href="app__ad9083_8c.html" target="_top" xlink:title="Implementation of app_ad9083.">
<polygon fill="white" stroke="#666666" points="374.5,-41 227.5,-41 227.5,0 374.5,0 374.5,-41"/>
<text text-anchor="start" x="235.5" y="-29" font-family="Helvetica,sans-Serif" font-size="10.00">/home/runner/work/no</text>
<text text-anchor="start" x="235.5" y="-18" font-family="Helvetica,sans-Serif" font-size="10.00">&#45;OS/no&#45;OS/projects/ad9083</text>
<text text-anchor="middle" x="301" y="-7" font-family="Helvetica,sans-Serif" font-size="10.00">/src/app_ad9083.c</text>
</a>
</g>
</g>
<!-- Node4&#45;&gt;Node5 -->
<g id="edge5_Node000004_Node000005" class="edge">
<title>Node4&#45;&gt;Node5</title>
<g id="a_edge5_Node000004_Node000005"><a xlink:title=" ">
<path fill="none" stroke="#63b8ff" d="M291.3,-66.98C293.15,-58.28 295.14,-48.98 296.82,-41.07"/>
<polygon fill="#63b8ff" stroke="#63b8ff" points="287.87,-66.28 289.2,-76.79 294.71,-67.74 287.87,-66.28"/>
</a>
</g>
</g>
<!-- Node6 -->
<g id="Node000006" class="node">
<title>Node6</title>
<g id="a_Node000006"><a xlink:href="ad9083_2src_2app__clocking_8c.html" target="_top" xlink:title="Clock setup and initialization routines.">
<polygon fill="white" stroke="#666666" points="539.5,-41 392.5,-41 392.5,0 539.5,0 539.5,-41"/>
<text text-anchor="start" x="400.5" y="-29" font-family="Helvetica,sans-Serif" font-size="10.00">/home/runner/work/no</text>
<text text-anchor="start" x="400.5" y="-18" font-family="Helvetica,sans-Serif" font-size="10.00">&#45;OS/no&#45;OS/projects/ad9083</text>
<text text-anchor="middle" x="466" y="-7" font-family="Helvetica,sans-Serif" font-size="10.00">/src/app_clocking.c</text>
</a>
</g>
</g>
<!-- Node4&#45;&gt;Node6 -->
<g id="edge6_Node000004_Node000006" class="edge">
<title>Node4&#45;&gt;Node6</title>
<g id="a_edge6_Node000004_Node000006"><a xlink:title=" ">
<path fill="none" stroke="#63b8ff" d="M341.4,-73.13C366.26,-62.83 395.14,-50.86 418.84,-41.04"/>
<polygon fill="#63b8ff" stroke="#63b8ff" points="339.98,-69.93 332.08,-76.99 342.66,-76.4 339.98,-69.93"/>
</a>
</g>
</g>
</g>
</svg>
