<?xml version="1.0" encoding="UTF-8" standalone="no"?>
<!DOCTYPE svg PUBLIC "-//W3C//DTD SVG 1.1//EN"
 "http://www.w3.org/Graphics/SVG/1.1/DTD/svg11.dtd">
<!-- Generated by graphviz version 2.43.0 (0)
 -->
<!-- Title: /home/runner/work/no&#45;OS/no&#45;OS/drivers/dac/ad9152/ad9152.h Pages: 1 -->
<svg width="446pt" height="203pt"
 viewBox="0.00 0.00 446.00 203.00" xmlns="http://www.w3.org/2000/svg" xmlns:xlink="http://www.w3.org/1999/xlink">
<g id="graph0" class="graph" transform="scale(1 1) rotate(0) translate(4 199)">
<title>/home/runner/work/no&#45;OS/no&#45;OS/drivers/dac/ad9152/ad9152.h</title>
<!-- Node1 -->
<g id="Node000001" class="node">
<title>Node1</title>
<g id="a_Node000001"><a xlink:title="Header file of AD9152 Driver.">
<polygon fill="#999999" stroke="#666666" points="266,-195 142,-195 142,-154 266,-154 266,-195"/>
<text text-anchor="start" x="150" y="-183" font-family="Helvetica,sans-Serif" font-size="10.00">/home/runner/work/no</text>
<text text-anchor="start" x="150" y="-172" font-family="Helvetica,sans-Serif" font-size="10.00">&#45;OS/no&#45;OS/drivers/dac</text>
<text text-anchor="middle" x="204" y="-161" font-family="Helvetica,sans-Serif" font-size="10.00">/ad9152/ad9152.h</text>
</a>
</g>
</g>
<!-- Node2 -->
<g id="Node000002" class="node">
<title>Node2</title>
<g id="a_Node000002"><a xlink:href="ad9152_8c.html" target="_top" xlink:title="Implementation of AD9152 Driver.">
<polygon fill="white" stroke="#666666" points="124,-118 0,-118 0,-77 124,-77 124,-118"/>
<text text-anchor="start" x="8" y="-106" font-family="Helvetica,sans-Serif" font-size="10.00">/home/runner/work/no</text>
<text text-anchor="start" x="8" y="-95" font-family="Helvetica,sans-Serif" font-size="10.00">&#45;OS/no&#45;OS/drivers/dac</text>
<text text-anchor="middle" x="62" y="-84" font-family="Helvetica,sans-Serif" font-size="10.00">/ad9152/ad9152.c</text>
</a>
</g>
</g>
<!-- Node1&#45;&gt;Node2 -->
<g id="edge1_Node000001_Node000002" class="edge">
<title>Node1&#45;&gt;Node2</title>
<g id="a_edge1_Node000001_Node000002"><a xlink:title=" ">
<path fill="none" stroke="#63b8ff" d="M157.98,-149.19C138.97,-139.15 117.23,-127.67 99.25,-118.17"/>
<polygon fill="#63b8ff" stroke="#63b8ff" points="156.58,-152.41 167.06,-153.99 159.85,-146.23 156.58,-152.41"/>
</a>
</g>
</g>
<!-- Node3 -->
<g id="Node000003" class="node">
<title>Node3</title>
<g id="a_Node000003"><a xlink:href="iio__ad9152_8h.html" target="_top" xlink:title="Header file of AD9152 iio.">
<polygon fill="white" stroke="#666666" points="266,-118 142,-118 142,-77 266,-77 266,-118"/>
<text text-anchor="start" x="150" y="-106" font-family="Helvetica,sans-Serif" font-size="10.00">/home/runner/work/no</text>
<text text-anchor="start" x="150" y="-95" font-family="Helvetica,sans-Serif" font-size="10.00">&#45;OS/no&#45;OS/drivers/dac</text>
<text text-anchor="middle" x="204" y="-84" font-family="Helvetica,sans-Serif" font-size="10.00">/ad9152/iio_ad9152.h</text>
</a>
</g>
</g>
<!-- Node1&#45;&gt;Node3 -->
<g id="edge2_Node000001_Node000003" class="edge">
<title>Node1&#45;&gt;Node3</title>
<g id="a_edge2_Node000001_Node000003"><a xlink:title=" ">
<path fill="none" stroke="#63b8ff" d="M204,-143.69C204,-135.08 204,-125.9 204,-118.07"/>
<polygon fill="#63b8ff" stroke="#63b8ff" points="200.5,-143.79 204,-153.79 207.5,-143.79 200.5,-143.79"/>
</a>
</g>
</g>
<!-- Node5 -->
<g id="Node000005" class="node">
<title>Node5</title>
<g id="a_Node000005"><a xlink:href="fmcdaq3_8c.html" target="_top" xlink:title="Implementation of Main Function.">
<polygon fill="white" stroke="#666666" points="438,-118 284,-118 284,-77 438,-77 438,-118"/>
<text text-anchor="start" x="292" y="-106" font-family="Helvetica,sans-Serif" font-size="10.00">/home/runner/work/no</text>
<text text-anchor="start" x="292" y="-95" font-family="Helvetica,sans-Serif" font-size="10.00">&#45;OS/no&#45;OS/projects/fmcdaq3</text>
<text text-anchor="middle" x="361" y="-84" font-family="Helvetica,sans-Serif" font-size="10.00">/src/app/fmcdaq3.c</text>
</a>
</g>
</g>
<!-- Node1&#45;&gt;Node5 -->
<g id="edge4_Node000001_Node000005" class="edge">
<title>Node1&#45;&gt;Node5</title>
<g id="a_edge4_Node000001_Node000005"><a xlink:title=" ">
<path fill="none" stroke="#63b8ff" d="M254.06,-149.59C275.37,-139.41 299.9,-127.69 320.09,-118.04"/>
<polygon fill="#63b8ff" stroke="#63b8ff" points="252.35,-146.52 244.84,-153.99 255.37,-152.84 252.35,-146.52"/>
</a>
</g>
</g>
<!-- Node4 -->
<g id="Node000004" class="node">
<title>Node4</title>
<g id="a_Node000004"><a xlink:href="iio__ad9152_8c.html" target="_top" xlink:title="Implementation of AD9152 IIO Driver.">
<polygon fill="white" stroke="#666666" points="266,-41 142,-41 142,0 266,0 266,-41"/>
<text text-anchor="start" x="150" y="-29" font-family="Helvetica,sans-Serif" font-size="10.00">/home/runner/work/no</text>
<text text-anchor="start" x="150" y="-18" font-family="Helvetica,sans-Serif" font-size="10.00">&#45;OS/no&#45;OS/drivers/dac</text>
<text text-anchor="middle" x="204" y="-7" font-family="Helvetica,sans-Serif" font-size="10.00">/ad9152/iio_ad9152.c</text>
</a>
</g>
</g>
<!-- Node3&#45;&gt;Node4 -->
<g id="edge3_Node000003_Node000004" class="edge">
<title>Node3&#45;&gt;Node4</title>
<g id="a_edge3_Node000003_Node000004"><a xlink:title=" ">
<path fill="none" stroke="#63b8ff" d="M204,-66.69C204,-58.08 204,-48.9 204,-41.07"/>
<polygon fill="#63b8ff" stroke="#63b8ff" points="200.5,-66.79 204,-76.79 207.5,-66.79 200.5,-66.79"/>
</a>
</g>
</g>
</g>
</svg>
