<?xml version="1.0" encoding="UTF-8" standalone="no"?>
<!DOCTYPE svg PUBLIC "-//W3C//DTD SVG 1.1//EN"
 "http://www.w3.org/Graphics/SVG/1.1/DTD/svg11.dtd">
<!-- Generated by graphviz version 2.43.0 (0)
 -->
<!-- Title: /home/runner/work/no&#45;OS/no&#45;OS/drivers/dac/ad917x/ad9172.c Pages: 1 -->
<svg width="778pt" height="269pt"
 viewBox="0.00 0.00 778.00 269.00" xmlns="http://www.w3.org/2000/svg" xmlns:xlink="http://www.w3.org/1999/xlink">
<g id="graph0" class="graph" transform="scale(1 1) rotate(0) translate(4 265)">
<title>/home/runner/work/no&#45;OS/no&#45;OS/drivers/dac/ad917x/ad9172.c</title>
<!-- Node1 -->
<g id="Node000001" class="node">
<title>Node1</title>
<g id="a_Node000001"><a xlink:title="Implementation of AD9172 Driver.">
<polygon fill="#999999" stroke="#666666" points="414,-261 290,-261 290,-220 414,-220 414,-261"/>
<text text-anchor="start" x="298" y="-249" font-family="Helvetica,sans-Serif" font-size="10.00">/home/runner/work/no</text>
<text text-anchor="start" x="298" y="-238" font-family="Helvetica,sans-Serif" font-size="10.00">&#45;OS/no&#45;OS/drivers/dac</text>
<text text-anchor="middle" x="352" y="-227" font-family="Helvetica,sans-Serif" font-size="10.00">/ad917x/ad9172.c</text>
</a>
</g>
</g>
<!-- Node2 -->
<g id="Node000002" class="node">
<title>Node2</title>
<g id="a_Node000002"><a xlink:href="no__os__print__log_8h.html" target="_top" xlink:title="Print messages helpers.">
<polygon fill="white" stroke="#666666" points="102,-184 0,-184 0,-165 102,-165 102,-184"/>
<text text-anchor="middle" x="51" y="-172" font-family="Helvetica,sans-Serif" font-size="10.00">no_os_print_log.h</text>
</a>
</g>
</g>
<!-- Node1&#45;&gt;Node2 -->
<g id="edge1_Node000001_Node000002" class="edge">
<title>Node1&#45;&gt;Node2</title>
<g id="a_edge1_Node000001_Node000002"><a xlink:title=" ">
<path fill="none" stroke="#63b8ff" d="M290,-226.32C234.17,-214.45 153.15,-197.22 101.27,-186.19"/>
<polygon fill="#63b8ff" stroke="#63b8ff" points="101.81,-182.73 91.3,-184.07 100.35,-189.57 101.81,-182.73"/>
</a>
</g>
</g>
<!-- Node3 -->
<g id="Node000003" class="node">
<title>Node3</title>
<g id="a_Node000003"><a xlink:title=" ">
<polygon fill="#e0e0e0" stroke="#999999" points="155,-129 105,-129 105,-110 155,-110 155,-129"/>
<text text-anchor="middle" x="130" y="-117" font-family="Helvetica,sans-Serif" font-size="10.00">stdio.h</text>
</a>
</g>
</g>
<!-- Node1&#45;&gt;Node3 -->
<g id="edge31_Node000001_Node000003" class="edge">
<title>Node1&#45;&gt;Node3</title>
<g id="a_edge31_Node000001_Node000003"><a xlink:title=" ">
<path fill="none" stroke="#63b8ff" d="M289.64,-237.89C244.93,-233.45 186.25,-220.37 149,-184 137.05,-172.33 132.54,-153.47 130.88,-139.33"/>
<polygon fill="#63b8ff" stroke="#63b8ff" points="134.36,-138.92 130.07,-129.23 127.38,-139.48 134.36,-138.92"/>
</a>
</g>
</g>
<!-- Node4 -->
<g id="Node000004" class="node">
<title>Node4</title>
<g id="a_Node000004"><a xlink:href="no__os__delay_8h.html" target="_top" xlink:title="Header file of Delay functions.">
<polygon fill="white" stroke="#666666" points="432.5,-129 347.5,-129 347.5,-110 432.5,-110 432.5,-129"/>
<text text-anchor="middle" x="390" y="-117" font-family="Helvetica,sans-Serif" font-size="10.00">no_os_delay.h</text>
</a>
</g>
</g>
<!-- Node1&#45;&gt;Node4 -->
<g id="edge3_Node000001_Node000004" class="edge">
<title>Node1&#45;&gt;Node4</title>
<g id="a_edge3_Node000001_Node000004"><a xlink:title=" ">
<path fill="none" stroke="#63b8ff" d="M356.62,-219.7C360.31,-204.57 365.87,-183.29 372,-165 374.95,-156.21 378.73,-146.65 382.07,-138.66"/>
<polygon fill="#63b8ff" stroke="#63b8ff" points="385.38,-139.82 386.09,-129.25 378.94,-137.07 385.38,-139.82"/>
</a>
</g>
</g>
<!-- Node6 -->
<g id="Node000006" class="node">
<title>Node6</title>
<g id="a_Node000006"><a xlink:href="no__os__alloc_8h.html" target="_top" xlink:title=" ">
<polygon fill="white" stroke="#666666" points="241.5,-184 158.5,-184 158.5,-165 241.5,-165 241.5,-184"/>
<text text-anchor="middle" x="200" y="-172" font-family="Helvetica,sans-Serif" font-size="10.00">no_os_alloc.h</text>
</a>
</g>
</g>
<!-- Node1&#45;&gt;Node6 -->
<g id="edge5_Node000001_Node000006" class="edge">
<title>Node1&#45;&gt;Node6</title>
<g id="a_edge5_Node000001_Node000006"><a xlink:title=" ">
<path fill="none" stroke="#63b8ff" d="M305.57,-219.95C280.89,-209.56 251.28,-197.09 229.7,-188.01"/>
<polygon fill="#63b8ff" stroke="#63b8ff" points="230.98,-184.75 220.41,-184.09 228.26,-191.2 230.98,-184.75"/>
</a>
</g>
</g>
<!-- Node7 -->
<g id="Node000007" class="node">
<title>Node7</title>
<g id="a_Node000007"><a xlink:title=" ">
<polygon fill="#e0e0e0" stroke="#999999" points="264.5,-19 211.5,-19 211.5,0 264.5,0 264.5,-19"/>
<text text-anchor="middle" x="238" y="-7" font-family="Helvetica,sans-Serif" font-size="10.00">stdlib.h</text>
</a>
</g>
</g>
<!-- Node1&#45;&gt;Node7 -->
<g id="edge15_Node000001_Node000007" class="edge">
<title>Node1&#45;&gt;Node7</title>
<g id="a_edge15_Node000001_Node000007"><a xlink:title=" ">
<path fill="none" stroke="#63b8ff" d="M339,-219.83C319.4,-189.52 282.02,-129.14 258,-74 251.65,-59.41 246.34,-42.15 242.8,-29.31"/>
<polygon fill="#63b8ff" stroke="#63b8ff" points="246.1,-28.11 240.15,-19.34 239.33,-29.9 246.1,-28.11"/>
</a>
</g>
</g>
<!-- Node8 -->
<g id="Node000008" class="node">
<title>Node8</title>
<g id="a_Node000008"><a xlink:href="no__os__clk_8h.html" target="_top" xlink:title="Header file of Clock Driver.">
<polygon fill="white" stroke="#666666" points="770,-74 696,-74 696,-55 770,-55 770,-74"/>
<text text-anchor="middle" x="733" y="-62" font-family="Helvetica,sans-Serif" font-size="10.00">no_os_clk.h</text>
</a>
</g>
</g>
<!-- Node1&#45;&gt;Node8 -->
<g id="edge8_Node000001_Node000008" class="edge">
<title>Node1&#45;&gt;Node8</title>
<g id="a_edge8_Node000001_Node000008"><a xlink:title=" ">
<path fill="none" stroke="#63b8ff" d="M414.15,-235.32C467.85,-229.58 546.16,-216.02 607,-184 655.73,-158.35 699.3,-108.64 720.1,-82.51"/>
<polygon fill="#63b8ff" stroke="#63b8ff" points="723.09,-84.36 726.48,-74.32 717.57,-80.06 723.09,-84.36"/>
</a>
</g>
</g>
<!-- Node9 -->
<g id="Node000009" class="node">
<title>Node9</title>
<g id="a_Node000009"><a xlink:title=" ">
<polygon fill="#e0e0e0" stroke="#999999" points="445.5,-184 380.5,-184 380.5,-165 445.5,-165 445.5,-184"/>
<text text-anchor="middle" x="413" y="-172" font-family="Helvetica,sans-Serif" font-size="10.00">inttypes.h</text>
</a>
</g>
</g>
<!-- Node1&#45;&gt;Node9 -->
<g id="edge10_Node000001_Node000009" class="edge">
<title>Node1&#45;&gt;Node9</title>
<g id="a_edge10_Node000001_Node000009"><a xlink:title=" ">
<path fill="none" stroke="#63b8ff" d="M370.63,-219.95C379.24,-210.92 389.33,-200.33 397.51,-191.75"/>
<polygon fill="#63b8ff" stroke="#63b8ff" points="400.28,-193.91 404.65,-184.26 395.22,-189.08 400.28,-193.91"/>
</a>
</g>
</g>
<!-- Node10 -->
<g id="Node000010" class="node">
<title>Node10</title>
<g id="a_Node000010"><a xlink:href="jesd204_8h.html" target="_top" xlink:title=" ">
<polygon fill="white" stroke="#666666" points="424,-74 360,-74 360,-55 424,-55 424,-74"/>
<text text-anchor="middle" x="392" y="-62" font-family="Helvetica,sans-Serif" font-size="10.00">jesd204.h</text>
</a>
</g>
</g>
<!-- Node1&#45;&gt;Node10 -->
<g id="edge11_Node000001_Node000010" class="edge">
<title>Node1&#45;&gt;Node10</title>
<g id="a_edge11_Node000001_Node000010"><a xlink:title=" ">
<path fill="none" stroke="#63b8ff" d="M343.9,-219.57C334.5,-193.2 322.29,-145.84 339,-110 344.83,-97.49 356.09,-87.25 366.75,-79.76"/>
<polygon fill="#63b8ff" stroke="#63b8ff" points="368.94,-82.51 375.42,-74.13 365.12,-76.64 368.94,-82.51"/>
</a>
</g>
</g>
<!-- Node13 -->
<g id="Node000013" class="node">
<title>Node13</title>
<g id="a_Node000013"><a xlink:title=" ">
<polygon fill="#e0e0e0" stroke="#999999" points="597.5,-184 544.5,-184 544.5,-165 597.5,-165 597.5,-184"/>
<text text-anchor="middle" x="571" y="-172" font-family="Helvetica,sans-Serif" font-size="10.00">string.h</text>
</a>
</g>
</g>
<!-- Node1&#45;&gt;Node13 -->
<g id="edge16_Node000001_Node000013" class="edge">
<title>Node1&#45;&gt;Node13</title>
<g id="a_edge16_Node000001_Node000013"><a xlink:title=" ">
<path fill="none" stroke="#63b8ff" d="M414.17,-221.33C453.14,-209.94 502,-195.66 534.74,-186.1"/>
<polygon fill="#63b8ff" stroke="#63b8ff" points="535.73,-189.45 544.35,-183.29 533.77,-182.73 535.73,-189.45"/>
</a>
</g>
</g>
<!-- Node14 -->
<g id="Node000014" class="node">
<title>Node14</title>
<g id="a_Node000014"><a xlink:href="ad9172_8h.html" target="_top" xlink:title="Header file of ad9172 Driver.">
<polygon fill="white" stroke="#666666" points="526,-184 464,-184 464,-165 526,-165 526,-184"/>
<text text-anchor="middle" x="495" y="-172" font-family="Helvetica,sans-Serif" font-size="10.00">ad9172.h</text>
</a>
</g>
</g>
<!-- Node1&#45;&gt;Node14 -->
<g id="edge17_Node000001_Node000014" class="edge">
<title>Node1&#45;&gt;Node14</title>
<g id="a_edge17_Node000001_Node000014"><a xlink:title=" ">
<path fill="none" stroke="#63b8ff" d="M395.68,-219.95C418.69,-209.65 446.26,-197.31 466.5,-188.25"/>
<polygon fill="#63b8ff" stroke="#63b8ff" points="468.1,-191.37 475.8,-184.09 465.25,-184.98 468.1,-191.37"/>
</a>
</g>
</g>
<!-- Node20 -->
<g id="Node000020" class="node">
<title>Node20</title>
<g id="a_Node000020"><a xlink:href="errno_8h.html" target="_top" xlink:title="Error macro definition for ARM Compiler.">
<polygon fill="white" stroke="#666666" points="752.5,-184 701.5,-184 701.5,-165 752.5,-165 752.5,-184"/>
<text text-anchor="middle" x="727" y="-172" font-family="Helvetica,sans-Serif" font-size="10.00">errno.h</text>
</a>
</g>
</g>
<!-- Node1&#45;&gt;Node20 -->
<g id="edge30_Node000001_Node000020" class="edge">
<title>Node1&#45;&gt;Node20</title>
<g id="a_edge30_Node000001_Node000020"><a xlink:title=" ">
<path fill="none" stroke="#63b8ff" d="M414.2,-230.06C481.57,-219.63 592.14,-201.93 687,-184 688.44,-183.73 689.91,-183.44 691.39,-183.15"/>
<polygon fill="#63b8ff" stroke="#63b8ff" points="692.11,-186.58 701.21,-181.16 690.72,-179.72 692.11,-186.58"/>
</a>
</g>
</g>
<!-- Node2&#45;&gt;Node3 -->
<g id="edge2_Node000002_Node000003" class="edge">
<title>Node2&#45;&gt;Node3</title>
<g id="a_edge2_Node000002_Node000003"><a xlink:title=" ">
<path fill="none" stroke="#63b8ff" d="M63.69,-164.98C75.83,-156.84 94.36,-144.41 108.75,-134.76"/>
<polygon fill="#63b8ff" stroke="#63b8ff" points="110.72,-137.65 117.08,-129.17 106.82,-131.84 110.72,-137.65"/>
</a>
</g>
</g>
<!-- Node5 -->
<g id="Node000005" class="node">
<title>Node5</title>
<g id="a_Node000005"><a xlink:title=" ">
<polygon fill="#e0e0e0" stroke="#999999" points="537.5,-19 484.5,-19 484.5,0 537.5,0 537.5,-19"/>
<text text-anchor="middle" x="511" y="-7" font-family="Helvetica,sans-Serif" font-size="10.00">stdint.h</text>
</a>
</g>
</g>
<!-- Node4&#45;&gt;Node5 -->
<g id="edge4_Node000004_Node000005" class="edge">
<title>Node4&#45;&gt;Node5</title>
<g id="a_edge4_Node000004_Node000005"><a xlink:title=" ">
<path fill="none" stroke="#63b8ff" d="M399.9,-109.66C420.48,-91.3 468.07,-48.81 493.78,-25.87"/>
<polygon fill="#63b8ff" stroke="#63b8ff" points="496.17,-28.43 501.3,-19.16 491.51,-23.21 496.17,-28.43"/>
</a>
</g>
</g>
<!-- Node6&#45;&gt;Node3 -->
<g id="edge6_Node000006_Node000003" class="edge">
<title>Node6&#45;&gt;Node3</title>
<g id="a_edge6_Node000006_Node000003"><a xlink:title=" ">
<path fill="none" stroke="#63b8ff" d="M188.75,-164.98C178.2,-157 162.2,-144.88 149.56,-135.31"/>
<polygon fill="#63b8ff" stroke="#63b8ff" points="151.54,-132.42 141.45,-129.17 147.31,-138 151.54,-132.42"/>
</a>
</g>
</g>
<!-- Node6&#45;&gt;Node7 -->
<g id="edge7_Node000006_Node000007" class="edge">
<title>Node6&#45;&gt;Node7</title>
<g id="a_edge7_Node000006_Node000007"><a xlink:title=" ">
<path fill="none" stroke="#63b8ff" d="M201.44,-164.81C204.77,-145.11 213.52,-95.65 224,-55 226.22,-46.37 229.12,-36.94 231.7,-28.99"/>
<polygon fill="#63b8ff" stroke="#63b8ff" points="235.1,-29.88 234.94,-19.29 228.46,-27.67 235.1,-29.88"/>
</a>
</g>
</g>
<!-- Node8&#45;&gt;Node5 -->
<g id="edge9_Node000008_Node000005" class="edge">
<title>Node8&#45;&gt;Node5</title>
<g id="a_edge9_Node000008_Node000005"><a xlink:title=" ">
<path fill="none" stroke="#63b8ff" d="M697.33,-54.98C656.2,-45.17 588.95,-29.11 547.48,-19.21"/>
<polygon fill="#63b8ff" stroke="#63b8ff" points="548.06,-15.75 537.52,-16.83 546.44,-22.56 548.06,-15.75"/>
</a>
</g>
</g>
<!-- Node10&#45;&gt;Node5 -->
<g id="edge14_Node000010_Node000005" class="edge">
<title>Node10&#45;&gt;Node5</title>
<g id="a_edge14_Node000010_Node000005"><a xlink:title=" ">
<path fill="none" stroke="#63b8ff" d="M411.12,-54.98C430.35,-46.42 460.23,-33.11 482.31,-23.28"/>
<polygon fill="#63b8ff" stroke="#63b8ff" points="483.82,-26.44 491.53,-19.17 480.97,-20.04 483.82,-26.44"/>
</a>
</g>
</g>
<!-- Node11 -->
<g id="Node000011" class="node">
<title>Node11</title>
<g id="a_Node000011"><a xlink:title=" ">
<polygon fill="#e0e0e0" stroke="#999999" points="346,-19 284,-19 284,0 346,0 346,-19"/>
<text text-anchor="middle" x="315" y="-7" font-family="Helvetica,sans-Serif" font-size="10.00">stdbool.h</text>
</a>
</g>
</g>
<!-- Node10&#45;&gt;Node11 -->
<g id="edge12_Node000010_Node000011" class="edge">
<title>Node10&#45;&gt;Node11</title>
<g id="a_edge12_Node000010_Node000011"><a xlink:title=" ">
<path fill="none" stroke="#63b8ff" d="M379.63,-54.98C367.91,-46.92 350.08,-34.65 336.11,-25.03"/>
<polygon fill="#63b8ff" stroke="#63b8ff" points="337.82,-21.96 327.6,-19.17 333.85,-27.72 337.82,-21.96"/>
</a>
</g>
</g>
<!-- Node12 -->
<g id="Node000012" class="node">
<title>Node12</title>
<g id="a_Node000012"><a xlink:title=" ">
<polygon fill="#e0e0e0" stroke="#999999" points="420,-19 364,-19 364,0 420,0 420,-19"/>
<text text-anchor="middle" x="392" y="-7" font-family="Helvetica,sans-Serif" font-size="10.00">stddef.h</text>
</a>
</g>
</g>
<!-- Node10&#45;&gt;Node12 -->
<g id="edge13_Node000010_Node000012" class="edge">
<title>Node10&#45;&gt;Node12</title>
<g id="a_edge13_Node000010_Node000012"><a xlink:title=" ">
<path fill="none" stroke="#63b8ff" d="M392,-54.75C392,-47.8 392,-37.85 392,-29.13"/>
<polygon fill="#63b8ff" stroke="#63b8ff" points="395.5,-29.09 392,-19.09 388.5,-29.09 395.5,-29.09"/>
</a>
</g>
</g>
<!-- Node14&#45;&gt;Node4 -->
<g id="edge25_Node000014_Node000004" class="edge">
<title>Node14&#45;&gt;Node4</title>
<g id="a_edge25_Node000014_Node000004"><a xlink:title=" ">
<path fill="none" stroke="#63b8ff" d="M478.13,-164.98C461.39,-156.54 435.5,-143.47 416.11,-133.68"/>
<polygon fill="#63b8ff" stroke="#63b8ff" points="417.68,-130.55 407.18,-129.17 414.53,-136.8 417.68,-130.55"/>
</a>
</g>
</g>
<!-- Node15 -->
<g id="Node000015" class="node">
<title>Node15</title>
<g id="a_Node000015"><a xlink:href="_a_d917x_8h.html" target="_top" xlink:title="AD917X API interface header file.">
<polygon fill="white" stroke="#666666" points="515,-129 451,-129 451,-110 515,-110 515,-129"/>
<text text-anchor="middle" x="483" y="-117" font-family="Helvetica,sans-Serif" font-size="10.00">AD917x.h</text>
</a>
</g>
</g>
<!-- Node14&#45;&gt;Node15 -->
<g id="edge18_Node000014_Node000015" class="edge">
<title>Node14&#45;&gt;Node15</title>
<g id="a_edge18_Node000014_Node000015"><a xlink:title=" ">
<path fill="none" stroke="#63b8ff" d="M493.02,-164.75C491.43,-157.72 489.14,-147.62 487.15,-138.84"/>
<polygon fill="#63b8ff" stroke="#63b8ff" points="490.57,-138.07 484.94,-129.09 483.74,-139.62 490.57,-138.07"/>
</a>
</g>
</g>
<!-- Node18 -->
<g id="Node000018" class="node">
<title>Node18</title>
<g id="a_Node000018"><a xlink:href="no__os__gpio_8h.html" target="_top" xlink:title="Header file of GPIO Interface.">
<polygon fill="white" stroke="#666666" points="678,-74 598,-74 598,-55 678,-55 678,-74"/>
<text text-anchor="middle" x="638" y="-62" font-family="Helvetica,sans-Serif" font-size="10.00">no_os_gpio.h</text>
</a>
</g>
</g>
<!-- Node14&#45;&gt;Node18 -->
<g id="edge26_Node000014_Node000018" class="edge">
<title>Node14&#45;&gt;Node18</title>
<g id="a_edge26_Node000014_Node000018"><a xlink:title=" ">
<path fill="none" stroke="#63b8ff" d="M526.25,-165.3C557.66,-156.5 603.22,-142.02 616,-129 627.86,-116.91 633.35,-98.11 635.87,-84.1"/>
<polygon fill="#63b8ff" stroke="#63b8ff" points="639.35,-84.51 637.33,-74.11 632.42,-83.5 639.35,-84.51"/>
</a>
</g>
</g>
<!-- Node19 -->
<g id="Node000019" class="node">
<title>Node19</title>
<g id="a_Node000019"><a xlink:href="no__os__spi_8h.html" target="_top" xlink:title="Header file of SPI Interface.">
<polygon fill="white" stroke="#666666" points="607,-129 533,-129 533,-110 607,-110 607,-129"/>
<text text-anchor="middle" x="570" y="-117" font-family="Helvetica,sans-Serif" font-size="10.00">no_os_spi.h</text>
</a>
</g>
</g>
<!-- Node14&#45;&gt;Node19 -->
<g id="edge28_Node000014_Node000019" class="edge">
<title>Node14&#45;&gt;Node19</title>
<g id="a_edge28_Node000014_Node000019"><a xlink:title=" ">
<path fill="none" stroke="#63b8ff" d="M507.05,-164.98C518.46,-156.92 535.83,-144.65 549.43,-135.03"/>
<polygon fill="#63b8ff" stroke="#63b8ff" points="551.58,-137.8 557.73,-129.17 547.54,-132.08 551.58,-137.8"/>
</a>
</g>
</g>
<!-- Node16 -->
<g id="Node000016" class="node">
<title>Node16</title>
<g id="a_Node000016"><a xlink:href="dac_2ad917x_2ad917x__api_2api__def_8h.html" target="_top" xlink:title="API definitions header file.">
<polygon fill="white" stroke="#666666" points="541.5,-74 480.5,-74 480.5,-55 541.5,-55 541.5,-74"/>
<text text-anchor="middle" x="511" y="-62" font-family="Helvetica,sans-Serif" font-size="10.00">api_def.h</text>
</a>
</g>
</g>
<!-- Node15&#45;&gt;Node16 -->
<g id="edge19_Node000015_Node000016" class="edge">
<title>Node15&#45;&gt;Node16</title>
<g id="a_edge19_Node000015_Node000016"><a xlink:title=" ">
<path fill="none" stroke="#63b8ff" d="M487.62,-109.75C491.46,-102.49 497.02,-91.95 501.76,-82.98"/>
<polygon fill="#63b8ff" stroke="#63b8ff" points="504.89,-84.57 506.46,-74.09 498.7,-81.3 504.89,-84.57"/>
</a>
</g>
</g>
<!-- Node17 -->
<g id="Node000017" class="node">
<title>Node17</title>
<g id="a_Node000017"><a xlink:href="no__os__util_8h.html" target="_top" xlink:title="Header file of utility functions.">
<polygon fill="white" stroke="#666666" points="341.5,-74 266.5,-74 266.5,-55 341.5,-55 341.5,-74"/>
<text text-anchor="middle" x="304" y="-62" font-family="Helvetica,sans-Serif" font-size="10.00">no_os_util.h</text>
</a>
</g>
</g>
<!-- Node15&#45;&gt;Node17 -->
<g id="edge21_Node000015_Node000017" class="edge">
<title>Node15&#45;&gt;Node17</title>
<g id="a_edge21_Node000015_Node000017"><a xlink:title=" ">
<path fill="none" stroke="#63b8ff" d="M454.24,-109.98C424.06,-101.05 376.43,-86.94 342.9,-77.02"/>
<polygon fill="#63b8ff" stroke="#63b8ff" points="343.57,-73.57 332.98,-74.08 341.58,-80.28 343.57,-73.57"/>
</a>
</g>
</g>
<!-- Node16&#45;&gt;Node5 -->
<g id="edge20_Node000016_Node000005" class="edge">
<title>Node16&#45;&gt;Node5</title>
<g id="a_edge20_Node000016_Node000005"><a xlink:title=" ">
<path fill="none" stroke="#63b8ff" d="M511,-54.75C511,-47.8 511,-37.85 511,-29.13"/>
<polygon fill="#63b8ff" stroke="#63b8ff" points="514.5,-29.09 511,-19.09 507.5,-29.09 514.5,-29.09"/>
</a>
</g>
</g>
<!-- Node17&#45;&gt;Node5 -->
<g id="edge22_Node000017_Node000005" class="edge">
<title>Node17&#45;&gt;Node5</title>
<g id="a_edge22_Node000017_Node000005"><a xlink:title=" ">
<path fill="none" stroke="#63b8ff" d="M337.26,-54.98C374.82,-45.37 435.74,-29.77 474.56,-19.83"/>
<polygon fill="#63b8ff" stroke="#63b8ff" points="475.59,-23.18 484.41,-17.31 473.85,-16.4 475.59,-23.18"/>
</a>
</g>
</g>
<!-- Node17&#45;&gt;Node7 -->
<g id="edge23_Node000017_Node000007" class="edge">
<title>Node17&#45;&gt;Node7</title>
<g id="a_edge23_Node000017_Node000007"><a xlink:title=" ">
<path fill="none" stroke="#63b8ff" d="M293.4,-54.98C283.54,-47.07 268.65,-35.11 256.78,-25.58"/>
<polygon fill="#63b8ff" stroke="#63b8ff" points="258.79,-22.7 248.8,-19.17 254.4,-28.16 258.79,-22.7"/>
</a>
</g>
</g>
<!-- Node17&#45;&gt;Node11 -->
<g id="edge24_Node000017_Node000011" class="edge">
<title>Node17&#45;&gt;Node11</title>
<g id="a_edge24_Node000017_Node000011"><a xlink:title=" ">
<path fill="none" stroke="#63b8ff" d="M305.82,-54.75C307.26,-47.8 309.32,-37.85 311.13,-29.13"/>
<polygon fill="#63b8ff" stroke="#63b8ff" points="314.61,-29.59 313.22,-19.09 307.76,-28.17 314.61,-29.59"/>
</a>
</g>
</g>
<!-- Node18&#45;&gt;Node5 -->
<g id="edge27_Node000018_Node000005" class="edge">
<title>Node18&#45;&gt;Node5</title>
<g id="a_edge27_Node000018_Node000005"><a xlink:title=" ">
<path fill="none" stroke="#63b8ff" d="M617.6,-54.98C596.98,-46.38 564.89,-32.99 541.31,-23.15"/>
<polygon fill="#63b8ff" stroke="#63b8ff" points="542.35,-19.79 531.78,-19.17 539.66,-26.25 542.35,-19.79"/>
</a>
</g>
</g>
<!-- Node19&#45;&gt;Node5 -->
<g id="edge29_Node000019_Node000005" class="edge">
<title>Node19&#45;&gt;Node5</title>
<g id="a_edge29_Node000019_Node000005"><a xlink:title=" ">
<path fill="none" stroke="#63b8ff" d="M568.65,-109.81C566.41,-97.12 561.14,-73.06 551,-55 545.05,-44.4 536.18,-34.2 528.31,-26.24"/>
<polygon fill="#63b8ff" stroke="#63b8ff" points="530.54,-23.52 520.91,-19.1 525.68,-28.56 530.54,-23.52"/>
</a>
</g>
</g>
</g>
</svg>
