<?xml version="1.0" encoding="UTF-8" standalone="no"?>
<!DOCTYPE svg PUBLIC "-//W3C//DTD SVG 1.1//EN"
 "http://www.w3.org/Graphics/SVG/1.1/DTD/svg11.dtd">
<!-- Generated by graphviz version 2.43.0 (0)
 -->
<!-- Title: /home/runner/work/no&#45;OS/no&#45;OS/drivers/dac/ad917x/ad917x_api/ad917x_reg.h Pages: 1 -->
<svg width="736pt" height="137pt"
 viewBox="0.00 0.00 735.50 137.00" xmlns="http://www.w3.org/2000/svg" xmlns:xlink="http://www.w3.org/1999/xlink">
<g id="graph0" class="graph" transform="scale(1 1) rotate(0) translate(4 133)">
<title>/home/runner/work/no&#45;OS/no&#45;OS/drivers/dac/ad917x/ad917x_api/ad917x_reg.h</title>
<!-- Node1 -->
<g id="Node000001" class="node">
<title>Node1</title>
<g id="a_Node000001"><a xlink:title="AD917x SPI Register Definition Header File.">
<polygon fill="#999999" stroke="#666666" points="455,-129 271,-129 271,-88 455,-88 455,-129"/>
<text text-anchor="start" x="279" y="-117" font-family="Helvetica,sans-Serif" font-size="10.00">/home/runner/work/no</text>
<text text-anchor="start" x="279" y="-106" font-family="Helvetica,sans-Serif" font-size="10.00">&#45;OS/no&#45;OS/drivers/dac</text>
<text text-anchor="middle" x="363" y="-95" font-family="Helvetica,sans-Serif" font-size="10.00">/ad917x/ad917x_api/ad917x_reg.h</text>
</a>
</g>
</g>
<!-- Node2 -->
<g id="Node000002" class="node">
<title>Node2</title>
<g id="a_Node000002"><a xlink:href="ad917x__api_8c.html" target="_top" xlink:title="Contains AD917x APIs for DAC configuration and control.">
<polygon fill="white" stroke="#666666" points="182,-46.5 0,-46.5 0,-5.5 182,-5.5 182,-46.5"/>
<text text-anchor="start" x="8" y="-34.5" font-family="Helvetica,sans-Serif" font-size="10.00">/home/runner/work/no</text>
<text text-anchor="start" x="8" y="-23.5" font-family="Helvetica,sans-Serif" font-size="10.00">&#45;OS/no&#45;OS/drivers/dac</text>
<text text-anchor="middle" x="91" y="-12.5" font-family="Helvetica,sans-Serif" font-size="10.00">/ad917x/ad917x_api/ad917x_api.c</text>
</a>
</g>
</g>
<!-- Node1&#45;&gt;Node2 -->
<g id="edge1_Node000001_Node000002" class="edge">
<title>Node1&#45;&gt;Node2</title>
<g id="a_edge1_Node000001_Node000002"><a xlink:title=" ">
<path fill="none" stroke="#63b8ff" d="M287.16,-85.05C246.27,-72.95 196.29,-58.16 157.02,-46.54"/>
<polygon fill="#63b8ff" stroke="#63b8ff" points="286.23,-88.43 296.81,-87.91 288.21,-81.72 286.23,-88.43"/>
</a>
</g>
</g>
<!-- Node3 -->
<g id="Node000003" class="node">
<title>Node3</title>
<g id="a_Node000003"><a xlink:href="ad917x__jesd__api_8c.html" target="_top" xlink:title="Contains AD917x APIs for JESD configuration and control.">
<polygon fill="white" stroke="#666666" points="354,-52 200,-52 200,0 354,0 354,-52"/>
<text text-anchor="start" x="208" y="-40" font-family="Helvetica,sans-Serif" font-size="10.00">/home/runner/work/no</text>
<text text-anchor="start" x="208" y="-29" font-family="Helvetica,sans-Serif" font-size="10.00">&#45;OS/no&#45;OS/drivers/dac</text>
<text text-anchor="start" x="208" y="-18" font-family="Helvetica,sans-Serif" font-size="10.00">/ad917x/ad917x_api/ad917x</text>
<text text-anchor="middle" x="277" y="-7" font-family="Helvetica,sans-Serif" font-size="10.00">_jesd_api.c</text>
</a>
</g>
</g>
<!-- Node1&#45;&gt;Node3 -->
<g id="edge2_Node000001_Node000003" class="edge">
<title>Node1&#45;&gt;Node3</title>
<g id="a_edge2_Node000001_Node000003"><a xlink:title=" ">
<path fill="none" stroke="#63b8ff" d="M334.18,-80.52C324.39,-71.36 313.5,-61.17 303.87,-52.16"/>
<polygon fill="#63b8ff" stroke="#63b8ff" points="332.05,-83.32 341.74,-87.6 336.83,-78.21 332.05,-83.32"/>
</a>
</g>
</g>
<!-- Node4 -->
<g id="Node000004" class="node">
<title>Node4</title>
<g id="a_Node000004"><a xlink:href="ad917x__nco__api_8c.html" target="_top" xlink:title="Contains AD917x APIs for NCO configuration and control.">
<polygon fill="white" stroke="#666666" points="526,-52 372,-52 372,0 526,0 526,-52"/>
<text text-anchor="start" x="380" y="-40" font-family="Helvetica,sans-Serif" font-size="10.00">/home/runner/work/no</text>
<text text-anchor="start" x="380" y="-29" font-family="Helvetica,sans-Serif" font-size="10.00">&#45;OS/no&#45;OS/drivers/dac</text>
<text text-anchor="start" x="380" y="-18" font-family="Helvetica,sans-Serif" font-size="10.00">/ad917x/ad917x_api/ad917x</text>
<text text-anchor="middle" x="449" y="-7" font-family="Helvetica,sans-Serif" font-size="10.00">_nco_api.c</text>
</a>
</g>
</g>
<!-- Node1&#45;&gt;Node4 -->
<g id="edge3_Node000001_Node000004" class="edge">
<title>Node1&#45;&gt;Node4</title>
<g id="a_edge3_Node000001_Node000004"><a xlink:title=" ">
<path fill="none" stroke="#63b8ff" d="M391.82,-80.52C401.61,-71.36 412.5,-61.17 422.13,-52.16"/>
<polygon fill="#63b8ff" stroke="#63b8ff" points="389.17,-78.21 384.26,-87.6 393.95,-83.32 389.17,-78.21"/>
</a>
</g>
</g>
<!-- Node5 -->
<g id="Node000005" class="node">
<title>Node5</title>
<g id="a_Node000005"><a xlink:href="ad917x__reg_8c.html" target="_top" xlink:title="Contains AD917x APIs for SPI Register configuration and control.">
<polygon fill="white" stroke="#666666" points="727.5,-46.5 544.5,-46.5 544.5,-5.5 727.5,-5.5 727.5,-46.5"/>
<text text-anchor="start" x="552.5" y="-34.5" font-family="Helvetica,sans-Serif" font-size="10.00">/home/runner/work/no</text>
<text text-anchor="start" x="552.5" y="-23.5" font-family="Helvetica,sans-Serif" font-size="10.00">&#45;OS/no&#45;OS/drivers/dac</text>
<text text-anchor="middle" x="636" y="-12.5" font-family="Helvetica,sans-Serif" font-size="10.00">/ad917x/ad917x_api/ad917x_reg.c</text>
</a>
</g>
</g>
<!-- Node1&#45;&gt;Node5 -->
<g id="edge4_Node000001_Node000005" class="edge">
<title>Node1&#45;&gt;Node5</title>
<g id="a_edge4_Node000001_Node000005"><a xlink:title=" ">
<path fill="none" stroke="#63b8ff" d="M439.12,-85.05C480.16,-72.95 530.32,-58.16 569.74,-46.54"/>
<polygon fill="#63b8ff" stroke="#63b8ff" points="438.04,-81.72 429.43,-87.91 440.02,-88.44 438.04,-81.72"/>
</a>
</g>
</g>
</g>
</svg>
