<?xml version="1.0" encoding="UTF-8" standalone="no"?>
<!DOCTYPE svg PUBLIC "-//W3C//DTD SVG 1.1//EN"
 "http://www.w3.org/Graphics/SVG/1.1/DTD/svg11.dtd">
<!-- Generated by graphviz version 2.43.0 (0)
 -->
<!-- Title: /home/runner/work/no&#45;OS/no&#45;OS/drivers/dac/ad917x/ad917x_api/ad917x_nco_api.c Pages: 1 -->
<svg width="340pt" height="225pt"
 viewBox="0.00 0.00 339.50 225.00" xmlns="http://www.w3.org/2000/svg" xmlns:xlink="http://www.w3.org/1999/xlink">

<svg id="main" version="1.1" xmlns="http://www.w3.org/2000/svg" xmlns:xlink="http://www.w3.org/1999/xlink" xml:space="preserve">

<style type="text/css"><![CDATA[
.node, .edge {opacity: 0.7;}
.node.selected, .edge.selected {opacity: 1;}
.edge:hover path { stroke: red; }
.edge:hover polygon { stroke: red; fill: red; }
]]></style>
<script type="application/ecmascript" xlink:href="svg.min.js"/>
<svg id="graph" class="graph">
<g id="graph0" class="graph" transform="scale(1 1) rotate(0) translate(4 221)">
<title>/home/runner/work/no&#45;OS/no&#45;OS/drivers/dac/ad917x/ad917x_api/ad917x_nco_api.c</title>
<!-- Node1 -->
<g id="Node000001" class="node">
<title>Node1</title>
<g id="a_Node000001"><a xlink:title="Contains AD917x APIs for NCO configuration and control.">
<polygon fill="#999999" stroke="#666666" points="253.5,-217 99.5,-217 99.5,-165 253.5,-165 253.5,-217"/>
<text text-anchor="start" x="107.5" y="-205" font-family="Helvetica,sans-Serif" font-size="10.00">/home/runner/work/no</text>
<text text-anchor="start" x="107.5" y="-194" font-family="Helvetica,sans-Serif" font-size="10.00">&#45;OS/no&#45;OS/drivers/dac</text>
<text text-anchor="start" x="107.5" y="-183" font-family="Helvetica,sans-Serif" font-size="10.00">/ad917x/ad917x_api/ad917x</text>
<text text-anchor="middle" x="176.5" y="-172" font-family="Helvetica,sans-Serif" font-size="10.00">_nco_api.c</text>
</a>
</g>
</g>
<!-- Node2 -->
<g id="Node000002" class="node">
<title>Node2</title>
<g id="a_Node000002"><a xlink:href="_a_d917x_8h.html" target="_top" xlink:title="AD917X API interface header file.">
<polygon fill="white" stroke="#666666" points="165.5,-129 101.5,-129 101.5,-110 165.5,-110 165.5,-129"/>
<text text-anchor="middle" x="133.5" y="-117" font-family="Helvetica,sans-Serif" font-size="10.00">AD917x.h</text>
</a>
</g>
</g>
<!-- Node1&#45;&gt;Node2 -->
<g id="edge1_Node000001_Node000002" class="edge">
<title>Node1&#45;&gt;Node2</title>
<g id="a_edge1_Node000001_Node000002"><a xlink:title=" ">
<path fill="none" stroke="#63b8ff" d="M160.98,-164.91C155.44,-155.97 149.34,-146.1 144.29,-137.94"/>
<polygon fill="#63b8ff" stroke="#63b8ff" points="147.18,-135.96 138.95,-129.3 141.23,-139.65 147.18,-135.96"/>
</a>
</g>
</g>
<!-- Node8 -->
<g id="Node000008" class="node">
<title>Node8</title>
<g id="a_Node000008"><a xlink:href="ad917x__reg_8h.html" target="_top" xlink:title="AD917x SPI Register Definition Header File.">
<polygon fill="white" stroke="#666666" points="83,-129 0,-129 0,-110 83,-110 83,-129"/>
<text text-anchor="middle" x="41.5" y="-117" font-family="Helvetica,sans-Serif" font-size="10.00">ad917x_reg.h</text>
</a>
</g>
</g>
<!-- Node1&#45;&gt;Node8 -->
<g id="edge8_Node000001_Node000008" class="edge">
<title>Node1&#45;&gt;Node8</title>
<g id="a_edge8_Node000001_Node000008"><a xlink:title=" ">
<path fill="none" stroke="#63b8ff" d="M127.76,-164.91C107.43,-154.44 84.64,-142.71 67.59,-133.93"/>
<polygon fill="#63b8ff" stroke="#63b8ff" points="68.77,-130.6 58.27,-129.14 65.56,-136.82 68.77,-130.6"/>
</a>
</g>
</g>
<!-- Node9 -->
<g id="Node000009" class="node">
<title>Node9</title>
<g id="a_Node000009"><a xlink:href="dac_2ad917x_2ad917x__api_2api__errors_8h.html" target="_top" xlink:title="API error codes header file.">
<polygon fill="white" stroke="#666666" points="257.5,-129 183.5,-129 183.5,-110 257.5,-110 257.5,-129"/>
<text text-anchor="middle" x="220.5" y="-117" font-family="Helvetica,sans-Serif" font-size="10.00">api_errors.h</text>
</a>
</g>
</g>
<!-- Node1&#45;&gt;Node9 -->
<g id="edge10_Node000001_Node000009" class="edge">
<title>Node1&#45;&gt;Node9</title>
<g id="a_edge10_Node000001_Node000009"><a xlink:title=" ">
<path fill="none" stroke="#63b8ff" d="M192.39,-164.91C198.05,-155.97 204.3,-146.1 209.46,-137.94"/>
<polygon fill="#63b8ff" stroke="#63b8ff" points="212.54,-139.62 214.93,-129.3 206.62,-135.88 212.54,-139.62"/>
</a>
</g>
</g>
<!-- Node11 -->
<g id="Node000011" class="node">
<title>Node11</title>
<g id="a_Node000011"><a xlink:title=" ">
<polygon fill="#e0e0e0" stroke="#999999" points="331.5,-129 275.5,-129 275.5,-110 331.5,-110 331.5,-129"/>
<text text-anchor="middle" x="303.5" y="-117" font-family="Helvetica,sans-Serif" font-size="10.00">stddef.h</text>
</a>
</g>
</g>
<!-- Node1&#45;&gt;Node11 -->
<g id="edge12_Node000001_Node000011" class="edge">
<title>Node1&#45;&gt;Node11</title>
<g id="a_edge12_Node000001_Node000011"><a xlink:title=" ">
<path fill="none" stroke="#63b8ff" d="M222.35,-164.91C241.3,-154.54 262.52,-142.93 278.51,-134.18"/>
<polygon fill="#63b8ff" stroke="#63b8ff" points="280.63,-137.01 287.72,-129.14 277.27,-130.87 280.63,-137.01"/>
</a>
</g>
</g>
<!-- Node3 -->
<g id="Node000003" class="node">
<title>Node3</title>
<g id="a_Node000003"><a xlink:href="dac_2ad917x_2ad917x__api_2api__def_8h.html" target="_top" xlink:title="API definitions header file.">
<polygon fill="white" stroke="#666666" points="78,-74 17,-74 17,-55 78,-55 78,-74"/>
<text text-anchor="middle" x="47.5" y="-62" font-family="Helvetica,sans-Serif" font-size="10.00">api_def.h</text>
</a>
</g>
</g>
<!-- Node2&#45;&gt;Node3 -->
<g id="edge2_Node000002_Node000003" class="edge">
<title>Node2&#45;&gt;Node3</title>
<g id="a_edge2_Node000002_Node000003"><a xlink:title=" ">
<path fill="none" stroke="#63b8ff" d="M119.68,-109.98C106.35,-101.77 85.92,-89.18 70.19,-79.49"/>
<polygon fill="#63b8ff" stroke="#63b8ff" points="71.92,-76.44 61.57,-74.17 68.25,-82.4 71.92,-76.44"/>
</a>
</g>
</g>
<!-- Node5 -->
<g id="Node000005" class="node">
<title>Node5</title>
<g id="a_Node000005"><a xlink:href="no__os__util_8h.html" target="_top" xlink:title="Header file of utility functions.">
<polygon fill="white" stroke="#666666" points="171,-74 96,-74 96,-55 171,-55 171,-74"/>
<text text-anchor="middle" x="133.5" y="-62" font-family="Helvetica,sans-Serif" font-size="10.00">no_os_util.h</text>
</a>
</g>
</g>
<!-- Node2&#45;&gt;Node5 -->
<g id="edge4_Node000002_Node000005" class="edge">
<title>Node2&#45;&gt;Node5</title>
<g id="a_edge4_Node000002_Node000005"><a xlink:title=" ">
<path fill="none" stroke="#63b8ff" d="M133.5,-109.75C133.5,-102.8 133.5,-92.85 133.5,-84.13"/>
<polygon fill="#63b8ff" stroke="#63b8ff" points="137,-84.09 133.5,-74.09 130,-84.09 137,-84.09"/>
</a>
</g>
</g>
<!-- Node4 -->
<g id="Node000004" class="node">
<title>Node4</title>
<g id="a_Node000004"><a xlink:title=" ">
<polygon fill="#e0e0e0" stroke="#999999" points="81,-19 28,-19 28,0 81,0 81,-19"/>
<text text-anchor="middle" x="54.5" y="-7" font-family="Helvetica,sans-Serif" font-size="10.00">stdint.h</text>
</a>
</g>
</g>
<!-- Node3&#45;&gt;Node4 -->
<g id="edge3_Node000003_Node000004" class="edge">
<title>Node3&#45;&gt;Node4</title>
<g id="a_edge3_Node000003_Node000004"><a xlink:title=" ">
<path fill="none" stroke="#63b8ff" d="M48.66,-54.75C49.57,-47.8 50.89,-37.85 52.04,-29.13"/>
<polygon fill="#63b8ff" stroke="#63b8ff" points="55.53,-29.46 53.37,-19.09 48.59,-28.54 55.53,-29.46"/>
</a>
</g>
</g>
<!-- Node5&#45;&gt;Node4 -->
<g id="edge5_Node000005_Node000004" class="edge">
<title>Node5&#45;&gt;Node4</title>
<g id="a_edge5_Node000005_Node000004"><a xlink:title=" ">
<path fill="none" stroke="#63b8ff" d="M120.81,-54.98C108.67,-46.84 90.14,-34.41 75.75,-24.76"/>
<polygon fill="#63b8ff" stroke="#63b8ff" points="77.68,-21.84 67.42,-19.17 73.78,-27.65 77.68,-21.84"/>
</a>
</g>
</g>
<!-- Node6 -->
<g id="Node000006" class="node">
<title>Node6</title>
<g id="a_Node000006"><a xlink:title=" ">
<polygon fill="#e0e0e0" stroke="#999999" points="156,-19 103,-19 103,0 156,0 156,-19"/>
<text text-anchor="middle" x="129.5" y="-7" font-family="Helvetica,sans-Serif" font-size="10.00">stdlib.h</text>
</a>
</g>
</g>
<!-- Node5&#45;&gt;Node6 -->
<g id="edge6_Node000005_Node000006" class="edge">
<title>Node5&#45;&gt;Node6</title>
<g id="a_edge6_Node000005_Node000006"><a xlink:title=" ">
<path fill="none" stroke="#63b8ff" d="M132.84,-54.75C132.32,-47.8 131.56,-37.85 130.91,-29.13"/>
<polygon fill="#63b8ff" stroke="#63b8ff" points="134.39,-28.8 130.15,-19.09 127.41,-29.32 134.39,-28.8"/>
</a>
</g>
</g>
<!-- Node7 -->
<g id="Node000007" class="node">
<title>Node7</title>
<g id="a_Node000007"><a xlink:title=" ">
<polygon fill="#e0e0e0" stroke="#999999" points="236.5,-19 174.5,-19 174.5,0 236.5,0 236.5,-19"/>
<text text-anchor="middle" x="205.5" y="-7" font-family="Helvetica,sans-Serif" font-size="10.00">stdbool.h</text>
</a>
</g>
</g>
<!-- Node5&#45;&gt;Node7 -->
<g id="edge7_Node000005_Node000007" class="edge">
<title>Node5&#45;&gt;Node7</title>
<g id="a_edge7_Node000005_Node000007"><a xlink:title=" ">
<path fill="none" stroke="#63b8ff" d="M145.07,-54.98C155.92,-47 172.38,-34.88 185.38,-25.31"/>
<polygon fill="#63b8ff" stroke="#63b8ff" points="187.74,-27.92 193.72,-19.17 183.59,-22.28 187.74,-27.92"/>
</a>
</g>
</g>
<!-- Node8&#45;&gt;Node3 -->
<g id="edge9_Node000008_Node000003" class="edge">
<title>Node8&#45;&gt;Node3</title>
<g id="a_edge9_Node000008_Node000003"><a xlink:title=" ">
<path fill="none" stroke="#63b8ff" d="M42.49,-109.75C43.28,-102.8 44.4,-92.85 45.39,-84.13"/>
<polygon fill="#63b8ff" stroke="#63b8ff" points="48.88,-84.42 46.53,-74.09 41.92,-83.63 48.88,-84.42"/>
</a>
</g>
</g>
<!-- Node10 -->
<g id="Node000010" class="node">
<title>Node10</title>
<g id="a_Node000010"><a xlink:href="errno_8h.html" target="_top" xlink:title="Error macro definition for ARM Compiler.">
<polygon fill="white" stroke="#666666" points="246,-74 195,-74 195,-55 246,-55 246,-74"/>
<text text-anchor="middle" x="220.5" y="-62" font-family="Helvetica,sans-Serif" font-size="10.00">errno.h</text>
</a>
</g>
</g>
<!-- Node9&#45;&gt;Node10 -->
<g id="edge11_Node000009_Node000010" class="edge">
<title>Node9&#45;&gt;Node10</title>
<g id="a_edge11_Node000009_Node000010"><a xlink:title=" ">
<path fill="none" stroke="#63b8ff" d="M220.5,-109.75C220.5,-102.8 220.5,-92.85 220.5,-84.13"/>
<polygon fill="#63b8ff" stroke="#63b8ff" points="224,-84.09 220.5,-74.09 217,-84.09 224,-84.09"/>
</a>
</g>
</g>
</g>
</svg>
</svg>

<style type='text/css'>
<![CDATA[
[data-mouse-over-selected='false'] { opacity: 0.7; }
[data-mouse-over-selected='true']  { opacity: 1.0; }
]]>
</style>
<script type="application/ecmascript"><![CDATA[
document.addEventListener('DOMContentLoaded', (event) => {
  highlightEdges();
  highlightAdjacentNodes();
});
]]></script>
</svg>
