<?xml version="1.0" encoding="UTF-8" standalone="no"?>
<!DOCTYPE svg PUBLIC "-//W3C//DTD SVG 1.1//EN"
 "http://www.w3.org/Graphics/SVG/1.1/DTD/svg11.dtd">
<!-- Generated by graphviz version 2.43.0 (0)
 -->
<!-- Title: /home/runner/work/no&#45;OS/no&#45;OS/drivers/adc/ad9208/ad9208.h Pages: 1 -->
<!--zoomable 269 -->

<svg id="main" version="1.1" xmlns="http://www.w3.org/2000/svg" xmlns:xlink="http://www.w3.org/1999/xlink" xml:space="preserve" onload="init(evt)">

<style type="text/css"><![CDATA[
.node, .edge {opacity: 0.7;}
.node.selected, .edge.selected {opacity: 1;}
.edge:hover path { stroke: red; }
.edge:hover polygon { stroke: red; fill: red; }
]]></style>

<defs>
  <circle id="rim" cx="0" cy="0" r="7"/>
  <circle id="rim2" cx="0" cy="0" r="3.5"/>
  <g id="zoomPlus">
    <use xlink:href="#rim" fill="#404040"><set attributeName="fill" to="#808080" begin="zoomplus.mouseover" end="zoomplus.mouseout"/></use>
    <path d="M-4,0h8M0,-4v8" fill="none" stroke="white" stroke-width="1.5" pointer-events="none"/>
  </g>
  <g id="zoomMin">
    <use xlink:href="#rim" fill="#404040"><set attributeName="fill" to="#808080" begin="zoomminus.mouseover" end="zoomminus.mouseout"/></use>
    <path d="M-4,0h8" fill="none" stroke="white" stroke-width="1.5" pointer-events="none"/>
  </g>
  <g id="arrowUp" transform="translate(30 24)">
    <use xlink:href="#rim"/>
    <path pointer-events="none" fill="none" stroke="white" stroke-width="1.5" d="M0,-3.0v7 M-2.5,-0.5L0,-3.0L2.5,-0.5"/>
  </g>
  <g id="arrowRight" transform="rotate(90) translate(36 -43)">
    <use xlink:href="#rim"/>
    <path pointer-events="none" fill="none" stroke="white" stroke-width="1.5" d="M0,-3.0v7 M-2.5,-0.5L0,-3.0L2.5,-0.5"/>
  </g>
  <g id="arrowDown" transform="rotate(180) translate(-30 -48)">
    <use xlink:href="#rim"/>
    <path pointer-events="none" fill="none" stroke="white" stroke-width="1.5" d="M0,-3.0v7 M-2.5,-0.5L0,-3.0L2.5,-0.5"/>
  </g>
  <g id="arrowLeft" transform="rotate(270) translate(-36 17)">
    <use xlink:href="#rim"/>
    <path pointer-events="none" fill="none" stroke="white" stroke-width="1.5" d="M0,-3.0v7 M-2.5,-0.5L0,-3.0L2.5,-0.5"/>
  </g>
  <g id="resetDef">
    <use xlink:href="#rim2" fill="#404040"><set attributeName="fill" to="#808080" begin="reset.mouseover" end="reset.mouseout"/></use>
  </g>
</defs>
<script type="application/ecmascript">
var viewWidth = 591;
var viewHeight = 269;
var sectionId = 'dynsection-0';
</script>
<script type="application/ecmascript" xlink:href="svg.min.js"/>
<svg id="graph" class="graph">
<g id="viewport">
<title>/home/runner/work/no&#45;OS/no&#45;OS/drivers/adc/ad9208/ad9208.h</title>
<!-- Node1 -->
<g id="Node000001" class="node">
<title>Node1</title>
<g id="a_Node000001"><a xlink:title="Header file of AD9208 Driver.">
<polygon fill="#999999" stroke="#666666" points="321.4,-261 197.4,-261 197.4,-220 321.4,-220 321.4,-261"/>
<text text-anchor="start" x="205.4" y="-249" font-family="Helvetica,sans-Serif" font-size="10.00">/home/runner/work/no</text>
<text text-anchor="start" x="205.4" y="-238" font-family="Helvetica,sans-Serif" font-size="10.00">&#45;OS/no&#45;OS/drivers/adc</text>
<text text-anchor="middle" x="259.4" y="-227" font-family="Helvetica,sans-Serif" font-size="10.00">/ad9208/ad9208.h</text>
</a>
</g>
</g>
<!-- Node2 -->
<g id="Node000002" class="node">
<title>Node2</title>
<g id="a_Node000002"><a xlink:title=" ">
<polygon fill="#e0e0e0" stroke="#999999" points="106.4,-19 44.4,-19 44.4,0 106.4,0 106.4,-19"/>
<text text-anchor="middle" x="75.4" y="-7" font-family="Helvetica,sans-Serif" font-size="10.00">stdbool.h</text>
</a>
</g>
</g>
<!-- Node1&#45;&gt;Node2 -->
<g id="edge1_Node000001_Node000002" class="edge">
<title>Node1&#45;&gt;Node2</title>
<g id="a_edge1_Node000001_Node000002"><a xlink:title=" ">
<path fill="none" stroke="#63b8ff" d="M197.39,-234.21C132.21,-227.2 36.02,-212.3 13.4,-184 -25.66,-135.15 31.11,-59.71 60.11,-26.79"/>
<polygon fill="#63b8ff" stroke="#63b8ff" points="63.02,-28.8 67.14,-19.04 57.83,-24.1 63.02,-28.8"/>
</a>
</g>
</g>
<!-- Node3 -->
<g id="Node000003" class="node">
<title>Node3</title>
<g id="a_Node000003"><a xlink:title=" ">
<polygon fill="#e0e0e0" stroke="#999999" points="78.4,-184 22.4,-184 22.4,-165 78.4,-165 78.4,-184"/>
<text text-anchor="middle" x="50.4" y="-172" font-family="Helvetica,sans-Serif" font-size="10.00">stddef.h</text>
</a>
</g>
</g>
<!-- Node1&#45;&gt;Node3 -->
<g id="edge2_Node000001_Node000003" class="edge">
<title>Node1&#45;&gt;Node3</title>
<g id="a_edge2_Node000001_Node000003"><a xlink:title=" ">
<path fill="none" stroke="#63b8ff" d="M197.26,-220.47C161.8,-209.61 118.51,-196.36 88.14,-187.06"/>
<polygon fill="#63b8ff" stroke="#63b8ff" points="88.96,-183.65 78.37,-184.07 86.91,-190.34 88.96,-183.65"/>
</a>
</g>
</g>
<!-- Node4 -->
<g id="Node000004" class="node">
<title>Node4</title>
<g id="a_Node000004"><a xlink:title=" ">
<polygon fill="#e0e0e0" stroke="#999999" points="149.9,-184 96.9,-184 96.9,-165 149.9,-165 149.9,-184"/>
<text text-anchor="middle" x="123.4" y="-172" font-family="Helvetica,sans-Serif" font-size="10.00">string.h</text>
</a>
</g>
</g>
<!-- Node1&#45;&gt;Node4 -->
<g id="edge3_Node000001_Node000004" class="edge">
<title>Node1&#45;&gt;Node4</title>
<g id="a_edge3_Node000001_Node000004"><a xlink:title=" ">
<path fill="none" stroke="#63b8ff" d="M217.85,-219.95C196.07,-209.7 169.99,-197.43 150.76,-188.38"/>
<polygon fill="#63b8ff" stroke="#63b8ff" points="152.19,-185.18 141.65,-184.09 149.21,-191.52 152.19,-185.18"/>
</a>
</g>
</g>
<!-- Node5 -->
<g id="Node000005" class="node">
<title>Node5</title>
<g id="a_Node000005"><a xlink:href="ad9208__api_8h.html" target="_top" xlink:title=" ">
<polygon fill="white" stroke="#666666" points="250.4,-184 168.4,-184 168.4,-165 250.4,-165 250.4,-184"/>
<text text-anchor="middle" x="209.4" y="-172" font-family="Helvetica,sans-Serif" font-size="10.00">ad9208_api.h</text>
</a>
</g>
</g>
<!-- Node1&#45;&gt;Node5 -->
<g id="edge4_Node000001_Node000005" class="edge">
<title>Node1&#45;&gt;Node5</title>
<g id="a_edge4_Node000001_Node000005"><a xlink:title=" ">
<path fill="none" stroke="#63b8ff" d="M244.12,-219.95C237.22,-211.11 229.14,-200.77 222.51,-192.29"/>
<polygon fill="#63b8ff" stroke="#63b8ff" points="225.16,-189.99 216.24,-184.26 219.64,-194.3 225.16,-189.99"/>
</a>
</g>
</g>
<!-- Node10 -->
<g id="Node000010" class="node">
<title>Node10</title>
<g id="a_Node000010"><a xlink:href="ad9208__reg_8h.html" target="_top" xlink:title="AD9208 SPI Register Definition Header File.">
<polygon fill="white" stroke="#666666" points="351.9,-184 268.9,-184 268.9,-165 351.9,-165 351.9,-184"/>
<text text-anchor="middle" x="310.4" y="-172" font-family="Helvetica,sans-Serif" font-size="10.00">ad9208_reg.h</text>
</a>
</g>
</g>
<!-- Node1&#45;&gt;Node10 -->
<g id="edge12_Node000001_Node000010" class="edge">
<title>Node1&#45;&gt;Node10</title>
<g id="a_edge12_Node000001_Node000010"><a xlink:title=" ">
<path fill="none" stroke="#63b8ff" d="M274.98,-219.95C282.02,-211.11 290.26,-200.77 297.02,-192.29"/>
<polygon fill="#63b8ff" stroke="#63b8ff" points="299.92,-194.26 303.42,-184.26 294.45,-189.9 299.92,-194.26"/>
</a>
</g>
</g>
<!-- Node11 -->
<g id="Node000011" class="node">
<title>Node11</title>
<g id="a_Node000011"><a xlink:href="no__os__gpio_8h.html" target="_top" xlink:title="Header file of GPIO Interface.">
<polygon fill="white" stroke="#666666" points="583.4,-129 503.4,-129 503.4,-110 583.4,-110 583.4,-129"/>
<text text-anchor="middle" x="543.4" y="-117" font-family="Helvetica,sans-Serif" font-size="10.00">no_os_gpio.h</text>
</a>
</g>
</g>
<!-- Node1&#45;&gt;Node11 -->
<g id="edge14_Node000001_Node000011" class="edge">
<title>Node1&#45;&gt;Node11</title>
<g id="a_edge14_Node000001_Node000011"><a xlink:title=" ">
<path fill="none" stroke="#63b8ff" d="M321.67,-219.92C351.32,-210.05 387.06,-197.36 418.4,-184 454.18,-168.75 493.99,-147.8 518.86,-134.2"/>
<polygon fill="#63b8ff" stroke="#63b8ff" points="520.86,-137.1 527.93,-129.21 517.48,-130.97 520.86,-137.1"/>
</a>
</g>
</g>
<!-- Node12 -->
<g id="Node000012" class="node">
<title>Node12</title>
<g id="a_Node000012"><a xlink:href="no__os__spi_8h.html" target="_top" xlink:title="Header file of SPI Interface.">
<polygon fill="white" stroke="#666666" points="408.4,-74 334.4,-74 334.4,-55 408.4,-55 408.4,-74"/>
<text text-anchor="middle" x="371.4" y="-62" font-family="Helvetica,sans-Serif" font-size="10.00">no_os_spi.h</text>
</a>
</g>
</g>
<!-- Node1&#45;&gt;Node12 -->
<g id="edge16_Node000001_Node000012" class="edge">
<title>Node1&#45;&gt;Node12</title>
<g id="a_edge16_Node000001_Node000012"><a xlink:title=" ">
<path fill="none" stroke="#63b8ff" d="M316.89,-219.98C333.55,-211.51 350.03,-199.81 360.4,-184 380.34,-153.59 378.06,-108.97 374.69,-84.06"/>
<polygon fill="#63b8ff" stroke="#63b8ff" points="378.14,-83.47 373.14,-74.12 371.22,-84.54 378.14,-83.47"/>
</a>
</g>
</g>
<!-- Node13 -->
<g id="Node000013" class="node">
<title>Node13</title>
<g id="a_Node000013"><a xlink:href="no__os__delay_8h.html" target="_top" xlink:title="Header file of Delay functions.">
<polygon fill="white" stroke="#666666" points="484.9,-129 399.9,-129 399.9,-110 484.9,-110 484.9,-129"/>
<text text-anchor="middle" x="442.4" y="-117" font-family="Helvetica,sans-Serif" font-size="10.00">no_os_delay.h</text>
</a>
</g>
</g>
<!-- Node1&#45;&gt;Node13 -->
<g id="edge18_Node000001_Node000013" class="edge">
<title>Node1&#45;&gt;Node13</title>
<g id="a_edge18_Node000001_Node000013"><a xlink:title=" ">
<path fill="none" stroke="#63b8ff" d="M321.54,-221.81C345.82,-212.97 372.92,-200.56 394.4,-184 410.76,-171.39 424.38,-151.85 432.88,-137.78"/>
<polygon fill="#63b8ff" stroke="#63b8ff" points="435.95,-139.47 437.92,-129.06 429.89,-135.97 435.95,-139.47"/>
</a>
</g>
</g>
<!-- Node6 -->
<g id="Node000006" class="node">
<title>Node6</title>
<g id="a_Node000006"><a xlink:href="adc_2ad9208_2ad9208__api_2api__def_8h.html" target="_top" xlink:title="API definitions header file.">
<polygon fill="white" stroke="#666666" points="320.9,-129 259.9,-129 259.9,-110 320.9,-110 320.9,-129"/>
<text text-anchor="middle" x="290.4" y="-117" font-family="Helvetica,sans-Serif" font-size="10.00">api_def.h</text>
</a>
</g>
</g>
<!-- Node5&#45;&gt;Node6 -->
<g id="edge5_Node000005_Node000006" class="edge">
<title>Node5&#45;&gt;Node6</title>
<g id="a_edge5_Node000005_Node000006"><a xlink:title=" ">
<path fill="none" stroke="#63b8ff" d="M222.41,-164.98C234.85,-156.84 253.85,-144.41 268.61,-134.76"/>
<polygon fill="#63b8ff" stroke="#63b8ff" points="270.69,-137.57 277.15,-129.17 266.86,-131.72 270.69,-137.57"/>
</a>
</g>
</g>
<!-- Node8 -->
<g id="Node000008" class="node">
<title>Node8</title>
<g id="a_Node000008"><a xlink:href="no__os__util_8h.html" target="_top" xlink:title="Header file of utility functions.">
<polygon fill="white" stroke="#666666" points="260.9,-74 185.9,-74 185.9,-55 260.9,-55 260.9,-74"/>
<text text-anchor="middle" x="223.4" y="-62" font-family="Helvetica,sans-Serif" font-size="10.00">no_os_util.h</text>
</a>
</g>
</g>
<!-- Node5&#45;&gt;Node8 -->
<g id="edge11_Node000005_Node000008" class="edge">
<title>Node5&#45;&gt;Node8</title>
<g id="a_edge11_Node000005_Node000008"><a xlink:title=" ">
<path fill="none" stroke="#63b8ff" d="M210.54,-164.66C212.81,-147.17 217.91,-107.8 220.96,-84.27"/>
<polygon fill="#63b8ff" stroke="#63b8ff" points="224.46,-84.53 222.27,-74.16 217.52,-83.63 224.46,-84.53"/>
</a>
</g>
</g>
<!-- Node7 -->
<g id="Node000007" class="node">
<title>Node7</title>
<g id="a_Node000007"><a xlink:title=" ">
<polygon fill="#e0e0e0" stroke="#999999" points="397.9,-19 344.9,-19 344.9,0 397.9,0 397.9,-19"/>
<text text-anchor="middle" x="371.4" y="-7" font-family="Helvetica,sans-Serif" font-size="10.00">stdint.h</text>
</a>
</g>
</g>
<!-- Node6&#45;&gt;Node7 -->
<g id="edge6_Node000006_Node000007" class="edge">
<title>Node6&#45;&gt;Node7</title>
<g id="a_edge6_Node000006_Node000007"><a xlink:title=" ">
<path fill="none" stroke="#63b8ff" d="M294.18,-109.79C299.92,-97.08 311.63,-73 325.4,-55 333.46,-44.46 344.01,-34.07 352.98,-25.98"/>
<polygon fill="#63b8ff" stroke="#63b8ff" points="355.43,-28.48 360.64,-19.26 350.82,-23.22 355.43,-28.48"/>
</a>
</g>
</g>
<!-- Node6&#45;&gt;Node8 -->
<g id="edge7_Node000006_Node000008" class="edge">
<title>Node6&#45;&gt;Node8</title>
<g id="a_edge7_Node000006_Node000008"><a xlink:title=" ">
<path fill="none" stroke="#63b8ff" d="M279.63,-109.98C269.63,-102.07 254.51,-90.11 242.47,-80.58"/>
<polygon fill="#63b8ff" stroke="#63b8ff" points="244.37,-77.63 234.36,-74.17 240.03,-83.12 244.37,-77.63"/>
</a>
</g>
</g>
<!-- Node8&#45;&gt;Node2 -->
<g id="edge10_Node000008_Node000002" class="edge">
<title>Node8&#45;&gt;Node2</title>
<g id="a_edge10_Node000008_Node000002"><a xlink:title=" ">
<path fill="none" stroke="#63b8ff" d="M199.62,-54.98C175.17,-46.23 136.86,-32.51 109.25,-22.62"/>
<polygon fill="#63b8ff" stroke="#63b8ff" points="110.2,-19.25 99.61,-19.17 107.84,-25.84 110.2,-19.25"/>
</a>
</g>
</g>
<!-- Node8&#45;&gt;Node7 -->
<g id="edge8_Node000008_Node000007" class="edge">
<title>Node8&#45;&gt;Node7</title>
<g id="a_edge8_Node000008_Node000007"><a xlink:title=" ">
<path fill="none" stroke="#63b8ff" d="M247.18,-54.98C271.63,-46.23 309.93,-32.51 337.54,-22.62"/>
<polygon fill="#63b8ff" stroke="#63b8ff" points="338.95,-25.84 347.19,-19.17 336.59,-19.25 338.95,-25.84"/>
</a>
</g>
</g>
<!-- Node9 -->
<g id="Node000009" class="node">
<title>Node9</title>
<g id="a_Node000009"><a xlink:title=" ">
<polygon fill="#e0e0e0" stroke="#999999" points="249.9,-19 196.9,-19 196.9,0 249.9,0 249.9,-19"/>
<text text-anchor="middle" x="223.4" y="-7" font-family="Helvetica,sans-Serif" font-size="10.00">stdlib.h</text>
</a>
</g>
</g>
<!-- Node8&#45;&gt;Node9 -->
<g id="edge9_Node000008_Node000009" class="edge">
<title>Node8&#45;&gt;Node9</title>
<g id="a_edge9_Node000008_Node000009"><a xlink:title=" ">
<path fill="none" stroke="#63b8ff" d="M223.4,-54.75C223.4,-47.8 223.4,-37.85 223.4,-29.13"/>
<polygon fill="#63b8ff" stroke="#63b8ff" points="226.9,-29.09 223.4,-19.09 219.9,-29.09 226.9,-29.09"/>
</a>
</g>
</g>
<!-- Node10&#45;&gt;Node6 -->
<g id="edge13_Node000010_Node000006" class="edge">
<title>Node10&#45;&gt;Node6</title>
<g id="a_edge13_Node000010_Node000006"><a xlink:title=" ">
<path fill="none" stroke="#63b8ff" d="M307.09,-164.75C304.42,-157.65 300.55,-147.4 297.21,-138.56"/>
<polygon fill="#63b8ff" stroke="#63b8ff" points="300.44,-137.21 293.64,-129.09 293.89,-139.68 300.44,-137.21"/>
</a>
</g>
</g>
<!-- Node11&#45;&gt;Node7 -->
<g id="edge15_Node000011_Node000007" class="edge">
<title>Node11&#45;&gt;Node7</title>
<g id="a_edge15_Node000011_Node000007"><a xlink:title=" ">
<path fill="none" stroke="#63b8ff" d="M529.61,-109.84C500.05,-91.28 430.3,-47.49 394.1,-24.75"/>
<polygon fill="#63b8ff" stroke="#63b8ff" points="395.58,-21.55 385.25,-19.2 391.86,-27.48 395.58,-21.55"/>
</a>
</g>
</g>
<!-- Node12&#45;&gt;Node7 -->
<g id="edge17_Node000012_Node000007" class="edge">
<title>Node12&#45;&gt;Node7</title>
<g id="a_edge17_Node000012_Node000007"><a xlink:title=" ">
<path fill="none" stroke="#63b8ff" d="M371.4,-54.75C371.4,-47.8 371.4,-37.85 371.4,-29.13"/>
<polygon fill="#63b8ff" stroke="#63b8ff" points="374.9,-29.09 371.4,-19.09 367.9,-29.09 374.9,-29.09"/>
</a>
</g>
</g>
<!-- Node13&#45;&gt;Node7 -->
<g id="edge19_Node000013_Node000007" class="edge">
<title>Node13&#45;&gt;Node7</title>
<g id="a_edge19_Node000013_Node000007"><a xlink:title=" ">
<path fill="none" stroke="#63b8ff" d="M440.23,-109.72C436.79,-96.93 429.24,-72.74 417.4,-55 410.12,-44.1 399.79,-33.8 390.76,-25.86"/>
<polygon fill="#63b8ff" stroke="#63b8ff" points="392.86,-23.06 382.96,-19.29 388.35,-28.41 392.86,-23.06"/>
</a>
</g>
</g>
</g>
</svg>

<g id="navigator" transform="translate(0 0)" fill="#404254">
  <rect fill="#f2f5e9" fill-opacity="0.5" stroke="#606060" stroke-width=".5" x="0" y="0" width="60" height="60"/>
  <use id="zoomplus" xlink:href="#zoomPlus" x="17" y="9" onmousedown="handleZoom(evt,'in')"/>
  <use id="zoomminus" xlink:href="#zoomMin" x="42" y="9" onmousedown="handleZoom(evt,'out')"/>
  <use id="reset" xlink:href="#resetDef" x="30" y="36" onmousedown="handleReset()"/>
   <use id="arrowup" xlink:href="#arrowUp" x="0" y="0" onmousedown="handlePan(0,-1)"/>
  <use id="arrowright" xlink:href="#arrowRight" x="0" y="0" onmousedown="handlePan(1,0)"/>
  <use id="arrowdown" xlink:href="#arrowDown" x="0" y="0" onmousedown="handlePan(0,1)"/>
  <use id="arrowleft" xlink:href="#arrowLeft" x="0" y="0" onmousedown="handlePan(-1,0)"/>
</g>
<svg viewBox="0 0 15 15" width="100%" height="30px" preserveAspectRatio="xMaxYMin meet">
 <g id="arrow_out" transform="scale(0.3 0.3)">
  <a xlink:href="ad9208_8h__incl_org.svg" target="_base">
   <rect id="button" ry="5" rx="5" y="6" x="6" height="38" width="38"
        fill="#f2f5e9" fill-opacity="0.5" stroke="#606060" stroke-width="1.0"/>
   <path id="arrow"
     d="M 11.500037,31.436501 C 11.940474,20.09759 22.043105,11.32322 32.158766,21.979434 L 37.068811,17.246167 C 37.068811,17.246167 37.088388,32 37.088388,32 L 22.160133,31.978069 C 22.160133,31.978069 26.997745,27.140456 26.997745,27.140456 C 18.528582,18.264221 13.291696,25.230495 11.500037,31.436501 z"
     style="fill:#404040;"/>
  </a>
 </g>
</svg>

<style type='text/css'>
<![CDATA[
[data-mouse-over-selected='false'] { opacity: 0.7; }
[data-mouse-over-selected='true']  { opacity: 1.0; }
]]>
</style>
<script type="application/ecmascript"><![CDATA[
document.addEventListener('DOMContentLoaded', (event) => {
  highlightEdges();
  highlightAdjacentNodes();
});
]]></script>
</svg>
