<?xml version="1.0" encoding="UTF-8" standalone="no"?>
<!DOCTYPE svg PUBLIC "-//W3C//DTD SVG 1.1//EN"
 "http://www.w3.org/Graphics/SVG/1.1/DTD/svg11.dtd">
<!-- Generated by graphviz version 2.43.0 (0)
 -->
<!-- Title: /home/runner/work/no&#45;OS/no&#45;OS/drivers/rf&#45;transceiver/ad9361/ad9361.h Pages: 1 -->
<!--zoomable 313 -->

<svg id="main" version="1.1" xmlns="http://www.w3.org/2000/svg" xmlns:xlink="http://www.w3.org/1999/xlink" xml:space="preserve" onload="init(evt)">

<style type="text/css"><![CDATA[
.node, .edge {opacity: 0.7;}
.node.selected, .edge.selected {opacity: 1;}
.edge:hover path { stroke: red; }
.edge:hover polygon { stroke: red; fill: red; }
]]></style>

<defs>
  <circle id="rim" cx="0" cy="0" r="7"/>
  <circle id="rim2" cx="0" cy="0" r="3.5"/>
  <g id="zoomPlus">
    <use xlink:href="#rim" fill="#404040"><set attributeName="fill" to="#808080" begin="zoomplus.mouseover" end="zoomplus.mouseout"/></use>
    <path d="M-4,0h8M0,-4v8" fill="none" stroke="white" stroke-width="1.5" pointer-events="none"/>
  </g>
  <g id="zoomMin">
    <use xlink:href="#rim" fill="#404040"><set attributeName="fill" to="#808080" begin="zoomminus.mouseover" end="zoomminus.mouseout"/></use>
    <path d="M-4,0h8" fill="none" stroke="white" stroke-width="1.5" pointer-events="none"/>
  </g>
  <g id="arrowUp" transform="translate(30 24)">
    <use xlink:href="#rim"/>
    <path pointer-events="none" fill="none" stroke="white" stroke-width="1.5" d="M0,-3.0v7 M-2.5,-0.5L0,-3.0L2.5,-0.5"/>
  </g>
  <g id="arrowRight" transform="rotate(90) translate(36 -43)">
    <use xlink:href="#rim"/>
    <path pointer-events="none" fill="none" stroke="white" stroke-width="1.5" d="M0,-3.0v7 M-2.5,-0.5L0,-3.0L2.5,-0.5"/>
  </g>
  <g id="arrowDown" transform="rotate(180) translate(-30 -48)">
    <use xlink:href="#rim"/>
    <path pointer-events="none" fill="none" stroke="white" stroke-width="1.5" d="M0,-3.0v7 M-2.5,-0.5L0,-3.0L2.5,-0.5"/>
  </g>
  <g id="arrowLeft" transform="rotate(270) translate(-36 17)">
    <use xlink:href="#rim"/>
    <path pointer-events="none" fill="none" stroke="white" stroke-width="1.5" d="M0,-3.0v7 M-2.5,-0.5L0,-3.0L2.5,-0.5"/>
  </g>
  <g id="resetDef">
    <use xlink:href="#rim2" fill="#404040"><set attributeName="fill" to="#808080" begin="reset.mouseover" end="reset.mouseout"/></use>
  </g>
</defs>
<script type="application/ecmascript">
var viewWidth = 805;
var viewHeight = 313;
var sectionId = 'dynsection-1';
</script>
<script type="application/ecmascript" xlink:href="svg.min.js"/>
<svg id="graph" class="graph">
<g id="viewport">
<title>/home/runner/work/no&#45;OS/no&#45;OS/drivers/rf&#45;transceiver/ad9361/ad9361.h</title>
<!-- Node1 -->
<g id="Node000001" class="node">
<title>Node1</title>
<g id="a_Node000001"><a xlink:title="Header file of AD9361 Driver.">
<polygon fill="#999999" stroke="#666666" points="388.5,-305 226.5,-305 226.5,-264 388.5,-264 388.5,-305"/>
<text text-anchor="start" x="234.5" y="-293" font-family="Helvetica,sans-Serif" font-size="10.00">/home/runner/work/no</text>
<text text-anchor="start" x="234.5" y="-282" font-family="Helvetica,sans-Serif" font-size="10.00">&#45;OS/no&#45;OS/drivers/rf</text>
<text text-anchor="middle" x="307.5" y="-271" font-family="Helvetica,sans-Serif" font-size="10.00">&#45;transceiver/ad9361/ad9361.h</text>
</a>
</g>
</g>
<!-- Node2 -->
<g id="Node000002" class="node">
<title>Node2</title>
<g id="a_Node000002"><a xlink:href="ad9361_8c.html" target="_top" xlink:title="Implementation of AD9361 Driver.">
<polygon fill="white" stroke="#666666" points="161,-134.5 0,-134.5 0,-93.5 161,-93.5 161,-134.5"/>
<text text-anchor="start" x="8" y="-122.5" font-family="Helvetica,sans-Serif" font-size="10.00">/home/runner/work/no</text>
<text text-anchor="start" x="8" y="-111.5" font-family="Helvetica,sans-Serif" font-size="10.00">&#45;OS/no&#45;OS/drivers/rf</text>
<text text-anchor="middle" x="80.5" y="-100.5" font-family="Helvetica,sans-Serif" font-size="10.00">&#45;transceiver/ad9361/ad9361.c</text>
</a>
</g>
</g>
<!-- Node1&#45;&gt;Node2 -->
<g id="edge1_Node000001_Node000002" class="edge">
<title>Node1&#45;&gt;Node2</title>
<g id="a_edge1_Node000001_Node000002"><a xlink:title=" ">
<path fill="none" stroke="#63b8ff" d="M272.9,-257.82C227.25,-223.93 147.89,-165.02 106.82,-134.53"/>
<polygon fill="#63b8ff" stroke="#63b8ff" points="270.9,-260.69 281.02,-263.84 275.07,-255.07 270.9,-260.69"/>
</a>
</g>
</g>
<!-- Node3 -->
<g id="Node000003" class="node">
<title>Node3</title>
<g id="a_Node000003"><a xlink:href="ad9361__api_8c.html" target="_top" xlink:title="Implementation of AD9361 API Driver.">
<polygon fill="white" stroke="#666666" points="796.5,-46.5 614.5,-46.5 614.5,-5.5 796.5,-5.5 796.5,-46.5"/>
<text text-anchor="start" x="622.5" y="-34.5" font-family="Helvetica,sans-Serif" font-size="10.00">/home/runner/work/no</text>
<text text-anchor="start" x="622.5" y="-23.5" font-family="Helvetica,sans-Serif" font-size="10.00">&#45;OS/no&#45;OS/drivers/rf</text>
<text text-anchor="middle" x="705.5" y="-12.5" font-family="Helvetica,sans-Serif" font-size="10.00">&#45;transceiver/ad9361/ad9361_api.c</text>
</a>
</g>
</g>
<!-- Node1&#45;&gt;Node3 -->
<g id="edge2_Node000001_Node000003" class="edge">
<title>Node1&#45;&gt;Node3</title>
<g id="a_edge2_Node000001_Node000003"><a xlink:title=" ">
<path fill="none" stroke="#63b8ff" d="M398.71,-280C494.78,-270.87 641.72,-240.17 712.5,-140 732.01,-112.39 722.14,-70.87 713.57,-46.6"/>
<polygon fill="#63b8ff" stroke="#63b8ff" points="398.36,-276.52 388.71,-280.9 398.98,-283.49 398.36,-276.52"/>
</a>
</g>
</g>
<!-- Node4 -->
<g id="Node000004" class="node">
<title>Node4</title>
<g id="a_Node000004"><a xlink:href="ad9361__conv_8c.html" target="_top" xlink:title="Implementation of AD9361 Conv Driver.">
<polygon fill="white" stroke="#666666" points="332,-140 179,-140 179,-88 332,-88 332,-140"/>
<text text-anchor="start" x="187" y="-128" font-family="Helvetica,sans-Serif" font-size="10.00">/home/runner/work/no</text>
<text text-anchor="start" x="187" y="-117" font-family="Helvetica,sans-Serif" font-size="10.00">&#45;OS/no&#45;OS/drivers/rf</text>
<text text-anchor="start" x="187" y="-106" font-family="Helvetica,sans-Serif" font-size="10.00">&#45;transceiver/ad9361/ad9361</text>
<text text-anchor="middle" x="255.5" y="-95" font-family="Helvetica,sans-Serif" font-size="10.00">_conv.c</text>
</a>
</g>
</g>
<!-- Node1&#45;&gt;Node4 -->
<g id="edge3_Node000001_Node000004" class="edge">
<title>Node1&#45;&gt;Node4</title>
<g id="a_edge3_Node000001_Node000004"><a xlink:title=" ">
<path fill="none" stroke="#63b8ff" d="M287.93,-255.17C282.87,-246.74 277.9,-237.27 274.5,-228 263.88,-199.05 259.16,-163.73 257.08,-140.37"/>
<polygon fill="#63b8ff" stroke="#63b8ff" points="285.09,-257.24 293.38,-263.84 291.02,-253.51 285.09,-257.24"/>
</a>
</g>
</g>
<!-- Node5 -->
<g id="Node000005" class="node">
<title>Node5</title>
<g id="a_Node000005"><a xlink:href="ad9361__util_8h.html" target="_top" xlink:title="AD9361 Header file of Util driver.">
<polygon fill="white" stroke="#666666" points="437,-228 284,-228 284,-176 437,-176 437,-228"/>
<text text-anchor="start" x="292" y="-216" font-family="Helvetica,sans-Serif" font-size="10.00">/home/runner/work/no</text>
<text text-anchor="start" x="292" y="-205" font-family="Helvetica,sans-Serif" font-size="10.00">&#45;OS/no&#45;OS/drivers/rf</text>
<text text-anchor="start" x="292" y="-194" font-family="Helvetica,sans-Serif" font-size="10.00">&#45;transceiver/ad9361/ad9361</text>
<text text-anchor="middle" x="360.5" y="-183" font-family="Helvetica,sans-Serif" font-size="10.00">_util.h</text>
</a>
</g>
</g>
<!-- Node1&#45;&gt;Node5 -->
<g id="edge4_Node000001_Node000005" class="edge">
<title>Node1&#45;&gt;Node5</title>
<g id="a_edge4_Node000001_Node000005"><a xlink:title=" ">
<path fill="none" stroke="#63b8ff" d="M326.16,-255.15C331.96,-246.35 338.3,-236.72 343.94,-228.16"/>
<polygon fill="#63b8ff" stroke="#63b8ff" points="323.18,-253.32 320.6,-263.6 329.02,-257.17 323.18,-253.32"/>
</a>
</g>
</g>
<!-- Node5&#45;&gt;Node2 -->
<g id="edge5_Node000005_Node000002" class="edge">
<title>Node5&#45;&gt;Node2</title>
<g id="a_edge5_Node000005_Node000002"><a xlink:title=" ">
<path fill="none" stroke="#63b8ff" d="M274.32,-174.53C232.31,-161.63 182.67,-146.38 144.15,-134.55"/>
<polygon fill="#63b8ff" stroke="#63b8ff" points="273.4,-177.91 283.99,-177.5 275.46,-171.22 273.4,-177.91"/>
</a>
</g>
</g>
<!-- Node5&#45;&gt;Node4 -->
<g id="edge10_Node000005_Node000004" class="edge">
<title>Node5&#45;&gt;Node4</title>
<g id="a_edge10_Node000005_Node000004"><a xlink:title=" ">
<path fill="none" stroke="#63b8ff" d="M321.93,-169.41C310.22,-159.82 297.51,-149.41 286.37,-140.29"/>
<polygon fill="#63b8ff" stroke="#63b8ff" points="319.89,-172.27 329.85,-175.89 324.33,-166.85 319.89,-172.27"/>
</a>
</g>
</g>
<!-- Node6 -->
<g id="Node000006" class="node">
<title>Node6</title>
<g id="a_Node000006"><a xlink:href="ad9361__api_8h.html" target="_top" xlink:title="Header file of AD9361 API Driver.">
<polygon fill="white" stroke="#666666" points="532.5,-134.5 350.5,-134.5 350.5,-93.5 532.5,-93.5 532.5,-134.5"/>
<text text-anchor="start" x="358.5" y="-122.5" font-family="Helvetica,sans-Serif" font-size="10.00">/home/runner/work/no</text>
<text text-anchor="start" x="358.5" y="-111.5" font-family="Helvetica,sans-Serif" font-size="10.00">&#45;OS/no&#45;OS/drivers/rf</text>
<text text-anchor="middle" x="441.5" y="-100.5" font-family="Helvetica,sans-Serif" font-size="10.00">&#45;transceiver/ad9361/ad9361_api.h</text>
</a>
</g>
</g>
<!-- Node5&#45;&gt;Node6 -->
<g id="edge6_Node000005_Node000006" class="edge">
<title>Node5&#45;&gt;Node6</title>
<g id="a_edge6_Node000005_Node000006"><a xlink:title=" ">
<path fill="none" stroke="#63b8ff" d="M391.52,-168.07C402.12,-156.81 413.64,-144.58 422.94,-134.7"/>
<polygon fill="#63b8ff" stroke="#63b8ff" points="388.67,-165.98 384.36,-175.66 393.77,-170.78 388.67,-165.98"/>
</a>
</g>
</g>
<!-- Node9 -->
<g id="Node000009" class="node">
<title>Node9</title>
<g id="a_Node000009"><a xlink:href="ad9361__util_8c.html" target="_top" xlink:title="AD9361 Implementation of Util Driver.">
<polygon fill="white" stroke="#666666" points="704,-140 551,-140 551,-88 704,-88 704,-140"/>
<text text-anchor="start" x="559" y="-128" font-family="Helvetica,sans-Serif" font-size="10.00">/home/runner/work/no</text>
<text text-anchor="start" x="559" y="-117" font-family="Helvetica,sans-Serif" font-size="10.00">&#45;OS/no&#45;OS/drivers/rf</text>
<text text-anchor="start" x="559" y="-106" font-family="Helvetica,sans-Serif" font-size="10.00">&#45;transceiver/ad9361/ad9361</text>
<text text-anchor="middle" x="627.5" y="-95" font-family="Helvetica,sans-Serif" font-size="10.00">_util.c</text>
</a>
</g>
</g>
<!-- Node5&#45;&gt;Node9 -->
<g id="edge11_Node000005_Node000009" class="edge">
<title>Node5&#45;&gt;Node9</title>
<g id="a_edge11_Node000005_Node000009"><a xlink:title=" ">
<path fill="none" stroke="#63b8ff" d="M446.8,-173.2C480.34,-162.4 518.44,-150.13 550.98,-139.65"/>
<polygon fill="#63b8ff" stroke="#63b8ff" points="445.46,-169.96 437.01,-176.36 447.6,-176.62 445.46,-169.96"/>
</a>
</g>
</g>
<!-- Node6&#45;&gt;Node3 -->
<g id="edge7_Node000006_Node000003" class="edge">
<title>Node6&#45;&gt;Node3</title>
<g id="a_edge7_Node000006_Node000003"><a xlink:title=" ">
<path fill="none" stroke="#63b8ff" d="M510.96,-90.37C552.74,-76.76 605.39,-59.61 645.38,-46.59"/>
<polygon fill="#63b8ff" stroke="#63b8ff" points="509.83,-87.06 501.41,-93.49 512,-93.72 509.83,-87.06"/>
</a>
</g>
</g>
<!-- Node7 -->
<g id="Node000007" class="node">
<title>Node7</title>
<g id="a_Node000007"><a xlink:href="iio__ad9361_8c.html" target="_top" xlink:title="Implementation of iio_ad9361 This module is a wrapper over &quot;ad9361_api&quot;, and it is used by &quot;iio&quot;.">
<polygon fill="white" stroke="#666666" points="377,-52 248,-52 248,0 377,0 377,-52"/>
<text text-anchor="start" x="256" y="-40" font-family="Helvetica,sans-Serif" font-size="10.00">/home/runner/work/no</text>
<text text-anchor="start" x="256" y="-29" font-family="Helvetica,sans-Serif" font-size="10.00">&#45;OS/no&#45;OS/drivers/rf</text>
<text text-anchor="start" x="256" y="-18" font-family="Helvetica,sans-Serif" font-size="10.00">&#45;transceiver/ad9361/iio</text>
<text text-anchor="middle" x="312.5" y="-7" font-family="Helvetica,sans-Serif" font-size="10.00">_ad9361.c</text>
</a>
</g>
</g>
<!-- Node6&#45;&gt;Node7 -->
<g id="edge8_Node000006_Node000007" class="edge">
<title>Node6&#45;&gt;Node7</title>
<g id="a_edge8_Node000006_Node000007"><a xlink:title=" ">
<path fill="none" stroke="#63b8ff" d="M403.76,-87.84C386.98,-76.66 367.28,-63.52 350.48,-52.32"/>
<polygon fill="#63b8ff" stroke="#63b8ff" points="401.97,-90.85 412.23,-93.49 405.85,-85.03 401.97,-90.85"/>
</a>
</g>
</g>
<!-- Node8 -->
<g id="Node000008" class="node">
<title>Node8</title>
<g id="a_Node000008"><a xlink:href="ad9361_2src_2main_8c.html" target="_top" xlink:title="Implementation of Main Function.">
<polygon fill="white" stroke="#666666" points="542,-46.5 395,-46.5 395,-5.5 542,-5.5 542,-46.5"/>
<text text-anchor="start" x="403" y="-34.5" font-family="Helvetica,sans-Serif" font-size="10.00">/home/runner/work/no</text>
<text text-anchor="start" x="403" y="-23.5" font-family="Helvetica,sans-Serif" font-size="10.00">&#45;OS/no&#45;OS/projects/ad9361</text>
<text text-anchor="middle" x="468.5" y="-12.5" font-family="Helvetica,sans-Serif" font-size="10.00">/src/main.c</text>
</a>
</g>
</g>
<!-- Node6&#45;&gt;Node8 -->
<g id="edge9_Node000006_Node000008" class="edge">
<title>Node6&#45;&gt;Node8</title>
<g id="a_edge9_Node000006_Node000008"><a xlink:title=" ">
<path fill="none" stroke="#63b8ff" d="M450.69,-83.73C454.52,-71.53 458.86,-57.69 462.3,-46.74"/>
<polygon fill="#63b8ff" stroke="#63b8ff" points="447.28,-82.9 447.63,-93.49 453.96,-84.99 447.28,-82.9"/>
</a>
</g>
</g>
</g>
</svg>

<g id="navigator" transform="translate(0 0)" fill="#404254">
  <rect fill="#f2f5e9" fill-opacity="0.5" stroke="#606060" stroke-width=".5" x="0" y="0" width="60" height="60"/>
  <use id="zoomplus" xlink:href="#zoomPlus" x="17" y="9" onmousedown="handleZoom(evt,'in')"/>
  <use id="zoomminus" xlink:href="#zoomMin" x="42" y="9" onmousedown="handleZoom(evt,'out')"/>
  <use id="reset" xlink:href="#resetDef" x="30" y="36" onmousedown="handleReset()"/>
   <use id="arrowup" xlink:href="#arrowUp" x="0" y="0" onmousedown="handlePan(0,-1)"/>
  <use id="arrowright" xlink:href="#arrowRight" x="0" y="0" onmousedown="handlePan(1,0)"/>
  <use id="arrowdown" xlink:href="#arrowDown" x="0" y="0" onmousedown="handlePan(0,1)"/>
  <use id="arrowleft" xlink:href="#arrowLeft" x="0" y="0" onmousedown="handlePan(-1,0)"/>
</g>
<svg viewBox="0 0 15 15" width="100%" height="30px" preserveAspectRatio="xMaxYMin meet">
 <g id="arrow_out" transform="scale(0.3 0.3)">
  <a xlink:href="ad9361_8h__dep__incl_org.svg" target="_base">
   <rect id="button" ry="5" rx="5" y="6" x="6" height="38" width="38"
        fill="#f2f5e9" fill-opacity="0.5" stroke="#606060" stroke-width="1.0"/>
   <path id="arrow"
     d="M 11.500037,31.436501 C 11.940474,20.09759 22.043105,11.32322 32.158766,21.979434 L 37.068811,17.246167 C 37.068811,17.246167 37.088388,32 37.088388,32 L 22.160133,31.978069 C 22.160133,31.978069 26.997745,27.140456 26.997745,27.140456 C 18.528582,18.264221 13.291696,25.230495 11.500037,31.436501 z"
     style="fill:#404040;"/>
  </a>
 </g>
</svg>

<style type='text/css'>
<![CDATA[
[data-mouse-over-selected='false'] { opacity: 0.7; }
[data-mouse-over-selected='true']  { opacity: 1.0; }
]]>
</style>
<script type="application/ecmascript"><![CDATA[
document.addEventListener('DOMContentLoaded', (event) => {
  highlightEdges();
  highlightAdjacentNodes();
});
]]></script>
</svg>
