<?xml version="1.0" encoding="UTF-8" standalone="no"?>
<!DOCTYPE svg PUBLIC "-//W3C//DTD SVG 1.1//EN"
 "http://www.w3.org/Graphics/SVG/1.1/DTD/svg11.dtd">
<!-- Generated by graphviz version 2.43.0 (0)
 -->
<!-- Title: /home/runner/work/no&#45;OS/no&#45;OS/drivers/frequency/ad9545/ad9545.h Pages: 1 -->
<svg width="613pt" height="159pt"
 viewBox="0.00 0.00 613.04 159.00" xmlns="http://www.w3.org/2000/svg" xmlns:xlink="http://www.w3.org/1999/xlink">
<g id="graph0" class="graph" transform="scale(1 1) rotate(0) translate(4 155)">
<title>/home/runner/work/no&#45;OS/no&#45;OS/drivers/frequency/ad9545/ad9545.h</title>
<!-- Node1 -->
<g id="Node000001" class="node">
<title>Node1</title>
<g id="a_Node000001"><a xlink:title="Header file for ad9545 Driver.">
<polygon fill="#999999" stroke="#666666" points="333.54,-151 178.54,-151 178.54,-110 333.54,-110 333.54,-151"/>
<text text-anchor="start" x="186.54" y="-139" font-family="Helvetica,sans-Serif" font-size="10.00">/home/runner/work/no</text>
<text text-anchor="start" x="186.54" y="-128" font-family="Helvetica,sans-Serif" font-size="10.00">&#45;OS/no&#45;OS/drivers/frequency</text>
<text text-anchor="middle" x="256.04" y="-117" font-family="Helvetica,sans-Serif" font-size="10.00">/ad9545/ad9545.h</text>
</a>
</g>
</g>
<!-- Node2 -->
<g id="Node000002" class="node">
<title>Node2</title>
<g id="a_Node000002"><a xlink:title=" ">
<polygon fill="#e0e0e0" stroke="#999999" points="282.54,-19 229.54,-19 229.54,0 282.54,0 282.54,-19"/>
<text text-anchor="middle" x="256.04" y="-7" font-family="Helvetica,sans-Serif" font-size="10.00">stdint.h</text>
</a>
</g>
</g>
<!-- Node1&#45;&gt;Node2 -->
<g id="edge1_Node000001_Node000002" class="edge">
<title>Node1&#45;&gt;Node2</title>
<g id="a_edge1_Node000001_Node000002"><a xlink:title=" ">
<path fill="none" stroke="#63b8ff" d="M178.39,-129.66C89.48,-127.15 -37.96,-113.7 11.04,-55 37.1,-23.78 157.15,-14.42 218.99,-11.64"/>
<polygon fill="#63b8ff" stroke="#63b8ff" points="219.26,-15.13 229.11,-11.22 218.97,-8.14 219.26,-15.13"/>
</a>
</g>
</g>
<!-- Node3 -->
<g id="Node000003" class="node">
<title>Node3</title>
<g id="a_Node000003"><a xlink:href="no__os__util_8h.html" target="_top" xlink:title="Header file of utility functions.">
<polygon fill="white" stroke="#666666" points="573.54,-74 498.54,-74 498.54,-55 573.54,-55 573.54,-74"/>
<text text-anchor="middle" x="536.04" y="-62" font-family="Helvetica,sans-Serif" font-size="10.00">no_os_util.h</text>
</a>
</g>
</g>
<!-- Node1&#45;&gt;Node3 -->
<g id="edge2_Node000001_Node000003" class="edge">
<title>Node1&#45;&gt;Node3</title>
<g id="a_edge2_Node000001_Node000003"><a xlink:title=" ">
<path fill="none" stroke="#63b8ff" d="M333.66,-111.76C383.41,-100.39 446.36,-86 488.73,-76.31"/>
<polygon fill="#63b8ff" stroke="#63b8ff" points="489.54,-79.72 498.51,-74.08 487.98,-72.89 489.54,-79.72"/>
</a>
</g>
</g>
<!-- Node6 -->
<g id="Node000006" class="node">
<title>Node6</title>
<g id="a_Node000006"><a xlink:href="no__os__delay_8h.html" target="_top" xlink:title="Header file of Delay functions.">
<polygon fill="white" stroke="#666666" points="105.54,-74 20.54,-74 20.54,-55 105.54,-55 105.54,-74"/>
<text text-anchor="middle" x="63.04" y="-62" font-family="Helvetica,sans-Serif" font-size="10.00">no_os_delay.h</text>
</a>
</g>
</g>
<!-- Node1&#45;&gt;Node6 -->
<g id="edge6_Node000001_Node000006" class="edge">
<title>Node1&#45;&gt;Node6</title>
<g id="a_edge6_Node000001_Node000006"><a xlink:title=" ">
<path fill="none" stroke="#63b8ff" d="M197.09,-109.95C164.8,-99.24 125.87,-86.34 98.31,-77.19"/>
<polygon fill="#63b8ff" stroke="#63b8ff" points="99.29,-73.83 88.7,-74.01 97.09,-80.48 99.29,-73.83"/>
</a>
</g>
</g>
<!-- Node7 -->
<g id="Node000007" class="node">
<title>Node7</title>
<g id="a_Node000007"><a xlink:href="no__os__clk_8h.html" target="_top" xlink:title="Header file of Clock Driver.">
<polygon fill="white" stroke="#666666" points="198.04,-74 124.04,-74 124.04,-55 198.04,-55 198.04,-74"/>
<text text-anchor="middle" x="161.04" y="-62" font-family="Helvetica,sans-Serif" font-size="10.00">no_os_clk.h</text>
</a>
</g>
</g>
<!-- Node1&#45;&gt;Node7 -->
<g id="edge8_Node000001_Node000007" class="edge">
<title>Node1&#45;&gt;Node7</title>
<g id="a_edge8_Node000001_Node000007"><a xlink:title=" ">
<path fill="none" stroke="#63b8ff" d="M227.02,-109.95C212.66,-100.27 195.62,-88.8 182.46,-79.93"/>
<polygon fill="#63b8ff" stroke="#63b8ff" points="184.29,-76.95 174.04,-74.26 180.38,-82.75 184.29,-76.95"/>
</a>
</g>
</g>
<!-- Node8 -->
<g id="Node000008" class="node">
<title>Node8</title>
<g id="a_Node000008"><a xlink:href="no__os__gpio_8h.html" target="_top" xlink:title="Header file of GPIO Interface.">
<polygon fill="white" stroke="#666666" points="296.04,-74 216.04,-74 216.04,-55 296.04,-55 296.04,-74"/>
<text text-anchor="middle" x="256.04" y="-62" font-family="Helvetica,sans-Serif" font-size="10.00">no_os_gpio.h</text>
</a>
</g>
</g>
<!-- Node1&#45;&gt;Node8 -->
<g id="edge10_Node000001_Node000008" class="edge">
<title>Node1&#45;&gt;Node8</title>
<g id="a_edge10_Node000001_Node000008"><a xlink:title=" ">
<path fill="none" stroke="#63b8ff" d="M256.04,-109.95C256.04,-101.85 256.04,-92.5 256.04,-84.47"/>
<polygon fill="#63b8ff" stroke="#63b8ff" points="259.54,-84.26 256.04,-74.26 252.54,-84.26 259.54,-84.26"/>
</a>
</g>
</g>
<!-- Node9 -->
<g id="Node000009" class="node">
<title>Node9</title>
<g id="a_Node000009"><a xlink:href="no__os__i2c_8h.html" target="_top" xlink:title="Header file of I2C Interface.">
<polygon fill="white" stroke="#666666" points="388.04,-74 314.04,-74 314.04,-55 388.04,-55 388.04,-74"/>
<text text-anchor="middle" x="351.04" y="-62" font-family="Helvetica,sans-Serif" font-size="10.00">no_os_i2c.h</text>
</a>
</g>
</g>
<!-- Node1&#45;&gt;Node9 -->
<g id="edge12_Node000001_Node000009" class="edge">
<title>Node1&#45;&gt;Node9</title>
<g id="a_edge12_Node000001_Node000009"><a xlink:title=" ">
<path fill="none" stroke="#63b8ff" d="M285.06,-109.95C299.42,-100.27 316.46,-88.8 329.62,-79.93"/>
<polygon fill="#63b8ff" stroke="#63b8ff" points="331.7,-82.75 338.04,-74.26 327.79,-76.95 331.7,-82.75"/>
</a>
</g>
</g>
<!-- Node10 -->
<g id="Node000010" class="node">
<title>Node10</title>
<g id="a_Node000010"><a xlink:href="no__os__spi_8h.html" target="_top" xlink:title="Header file of SPI Interface.">
<polygon fill="white" stroke="#666666" points="480.04,-74 406.04,-74 406.04,-55 480.04,-55 480.04,-74"/>
<text text-anchor="middle" x="443.04" y="-62" font-family="Helvetica,sans-Serif" font-size="10.00">no_os_spi.h</text>
</a>
</g>
</g>
<!-- Node1&#45;&gt;Node10 -->
<g id="edge14_Node000001_Node000010" class="edge">
<title>Node1&#45;&gt;Node10</title>
<g id="a_edge14_Node000001_Node000010"><a xlink:title=" ">
<path fill="none" stroke="#63b8ff" d="M313.16,-109.95C344.21,-99.32 381.6,-86.53 408.27,-77.4"/>
<polygon fill="#63b8ff" stroke="#63b8ff" points="409.61,-80.64 417.94,-74.09 407.34,-74.02 409.61,-80.64"/>
</a>
</g>
</g>
<!-- Node3&#45;&gt;Node2 -->
<g id="edge3_Node000003_Node000002" class="edge">
<title>Node3&#45;&gt;Node2</title>
<g id="a_edge3_Node000003_Node000002"><a xlink:title=" ">
<path fill="none" stroke="#63b8ff" d="M498.28,-56.35C444.4,-46.15 346.1,-27.55 292.79,-17.46"/>
<polygon fill="#63b8ff" stroke="#63b8ff" points="293.23,-13.98 282.75,-15.56 291.93,-20.85 293.23,-13.98"/>
</a>
</g>
</g>
<!-- Node4 -->
<g id="Node000004" class="node">
<title>Node4</title>
<g id="a_Node000004"><a xlink:title=" ">
<polygon fill="#e0e0e0" stroke="#999999" points="524.54,-19 471.54,-19 471.54,0 524.54,0 524.54,-19"/>
<text text-anchor="middle" x="498.04" y="-7" font-family="Helvetica,sans-Serif" font-size="10.00">stdlib.h</text>
</a>
</g>
</g>
<!-- Node3&#45;&gt;Node4 -->
<g id="edge4_Node000003_Node000004" class="edge">
<title>Node3&#45;&gt;Node4</title>
<g id="a_edge4_Node000003_Node000004"><a xlink:title=" ">
<path fill="none" stroke="#63b8ff" d="M529.77,-54.75C524.45,-47.34 516.68,-36.5 510.16,-27.41"/>
<polygon fill="#63b8ff" stroke="#63b8ff" points="512.87,-25.18 504.2,-19.09 507.18,-29.26 512.87,-25.18"/>
</a>
</g>
</g>
<!-- Node5 -->
<g id="Node000005" class="node">
<title>Node5</title>
<g id="a_Node000005"><a xlink:title=" ">
<polygon fill="#e0e0e0" stroke="#999999" points="605.04,-19 543.04,-19 543.04,0 605.04,0 605.04,-19"/>
<text text-anchor="middle" x="574.04" y="-7" font-family="Helvetica,sans-Serif" font-size="10.00">stdbool.h</text>
</a>
</g>
</g>
<!-- Node3&#45;&gt;Node5 -->
<g id="edge5_Node000003_Node000005" class="edge">
<title>Node3&#45;&gt;Node5</title>
<g id="a_edge5_Node000003_Node000005"><a xlink:title=" ">
<path fill="none" stroke="#63b8ff" d="M542.32,-54.75C547.63,-47.34 555.4,-36.5 561.92,-27.41"/>
<polygon fill="#63b8ff" stroke="#63b8ff" points="564.9,-29.26 567.88,-19.09 559.21,-25.18 564.9,-29.26"/>
</a>
</g>
</g>
<!-- Node6&#45;&gt;Node2 -->
<g id="edge7_Node000006_Node000002" class="edge">
<title>Node6&#45;&gt;Node2</title>
<g id="a_edge7_Node000006_Node000002"><a xlink:title=" ">
<path fill="none" stroke="#63b8ff" d="M94.05,-54.98C128.33,-45.57 183.5,-30.42 219.76,-20.46"/>
<polygon fill="#63b8ff" stroke="#63b8ff" points="220.74,-23.82 229.46,-17.8 218.89,-17.07 220.74,-23.82"/>
</a>
</g>
</g>
<!-- Node7&#45;&gt;Node2 -->
<g id="edge9_Node000007_Node000002" class="edge">
<title>Node7&#45;&gt;Node2</title>
<g id="a_edge9_Node000007_Node000002"><a xlink:title=" ">
<path fill="none" stroke="#63b8ff" d="M176.3,-54.98C191.17,-46.69 214.02,-33.94 231.46,-24.22"/>
<polygon fill="#63b8ff" stroke="#63b8ff" points="233.47,-27.1 240.5,-19.17 230.06,-20.99 233.47,-27.1"/>
</a>
</g>
</g>
<!-- Node8&#45;&gt;Node2 -->
<g id="edge11_Node000008_Node000002" class="edge">
<title>Node8&#45;&gt;Node2</title>
<g id="a_edge11_Node000008_Node000002"><a xlink:title=" ">
<path fill="none" stroke="#63b8ff" d="M256.04,-54.75C256.04,-47.8 256.04,-37.85 256.04,-29.13"/>
<polygon fill="#63b8ff" stroke="#63b8ff" points="259.54,-29.09 256.04,-19.09 252.54,-29.09 259.54,-29.09"/>
</a>
</g>
</g>
<!-- Node9&#45;&gt;Node2 -->
<g id="edge13_Node000009_Node000002" class="edge">
<title>Node9&#45;&gt;Node2</title>
<g id="a_edge13_Node000009_Node000002"><a xlink:title=" ">
<path fill="none" stroke="#63b8ff" d="M335.78,-54.98C320.91,-46.69 298.06,-33.94 280.62,-24.22"/>
<polygon fill="#63b8ff" stroke="#63b8ff" points="282.02,-20.99 271.58,-19.17 278.61,-27.1 282.02,-20.99"/>
</a>
</g>
</g>
<!-- Node10&#45;&gt;Node2 -->
<g id="edge15_Node000010_Node000002" class="edge">
<title>Node10&#45;&gt;Node2</title>
<g id="a_edge15_Node000010_Node000002"><a xlink:title=" ">
<path fill="none" stroke="#63b8ff" d="M413,-54.98C380.2,-45.69 327.69,-30.81 292.54,-20.85"/>
<polygon fill="#63b8ff" stroke="#63b8ff" points="293.25,-17.41 282.68,-18.05 291.35,-24.14 293.25,-17.41"/>
</a>
</g>
</g>
</g>
</svg>
