<?xml version="1.0" encoding="UTF-8" standalone="no"?>
<!DOCTYPE svg PUBLIC "-//W3C//DTD SVG 1.1//EN"
 "http://www.w3.org/Graphics/SVG/1.1/DTD/svg11.dtd">
<!-- Generated by graphviz version 2.43.0 (0)
 -->
<!-- Title: /home/runner/work/no&#45;OS/no&#45;OS/drivers/frequency/ad9545/ad9545.h Pages: 1 -->
<svg width="892pt" height="214pt"
 viewBox="0.00 0.00 892.00 214.00" xmlns="http://www.w3.org/2000/svg" xmlns:xlink="http://www.w3.org/1999/xlink">
<g id="graph0" class="graph" transform="scale(1 1) rotate(0) translate(4 210)">
<title>/home/runner/work/no&#45;OS/no&#45;OS/drivers/frequency/ad9545/ad9545.h</title>
<!-- Node1 -->
<g id="Node000001" class="node">
<title>Node1</title>
<g id="a_Node000001"><a xlink:title="Header file for ad9545 Driver.">
<polygon fill="#999999" stroke="#666666" points="554,-206 399,-206 399,-165 554,-165 554,-206"/>
<text text-anchor="start" x="407" y="-194" font-family="Helvetica,sans-Serif" font-size="10.00">/home/runner/work/no</text>
<text text-anchor="start" x="407" y="-183" font-family="Helvetica,sans-Serif" font-size="10.00">&#45;OS/no&#45;OS/drivers/frequency</text>
<text text-anchor="middle" x="476.5" y="-172" font-family="Helvetica,sans-Serif" font-size="10.00">/ad9545/ad9545.h</text>
</a>
</g>
</g>
<!-- Node2 -->
<g id="Node000002" class="node">
<title>Node2</title>
<g id="a_Node000002"><a xlink:href="ad9545_8c.html" target="_top" xlink:title="Implementation of ad9545 Clock Driver.">
<polygon fill="white" stroke="#666666" points="155,-123.5 0,-123.5 0,-82.5 155,-82.5 155,-123.5"/>
<text text-anchor="start" x="8" y="-111.5" font-family="Helvetica,sans-Serif" font-size="10.00">/home/runner/work/no</text>
<text text-anchor="start" x="8" y="-100.5" font-family="Helvetica,sans-Serif" font-size="10.00">&#45;OS/no&#45;OS/drivers/frequency</text>
<text text-anchor="middle" x="77.5" y="-89.5" font-family="Helvetica,sans-Serif" font-size="10.00">/ad9545/ad9545.c</text>
</a>
</g>
</g>
<!-- Node1&#45;&gt;Node2 -->
<g id="edge1_Node000001_Node000002" class="edge">
<title>Node1&#45;&gt;Node2</title>
<g id="a_edge1_Node000001_Node000002"><a xlink:title=" ">
<path fill="none" stroke="#63b8ff" d="M388.53,-171.35C325.76,-161.36 239.51,-146.4 164.5,-129 157.46,-127.37 150.14,-125.51 142.87,-123.57"/>
<polygon fill="#63b8ff" stroke="#63b8ff" points="388.37,-174.87 398.79,-172.97 389.46,-167.96 388.37,-174.87"/>
</a>
</g>
</g>
<!-- Node3 -->
<g id="Node000003" class="node">
<title>Node3</title>
<g id="a_Node000003"><a xlink:href="ad9545__i2c_8c.html" target="_top" xlink:title="Implementation of ad9545 I2C Driver.">
<polygon fill="white" stroke="#666666" points="328,-123.5 173,-123.5 173,-82.5 328,-82.5 328,-123.5"/>
<text text-anchor="start" x="181" y="-111.5" font-family="Helvetica,sans-Serif" font-size="10.00">/home/runner/work/no</text>
<text text-anchor="start" x="181" y="-100.5" font-family="Helvetica,sans-Serif" font-size="10.00">&#45;OS/no&#45;OS/drivers/frequency</text>
<text text-anchor="middle" x="250.5" y="-89.5" font-family="Helvetica,sans-Serif" font-size="10.00">/ad9545/ad9545_i2c.c</text>
</a>
</g>
</g>
<!-- Node1&#45;&gt;Node3 -->
<g id="edge2_Node000001_Node000003" class="edge">
<title>Node1&#45;&gt;Node3</title>
<g id="a_edge2_Node000001_Node000003"><a xlink:title=" ">
<path fill="none" stroke="#63b8ff" d="M411.76,-161.44C378.11,-149.45 337.43,-134.97 305.35,-123.54"/>
<polygon fill="#63b8ff" stroke="#63b8ff" points="410.91,-164.85 421.5,-164.91 413.26,-158.26 410.91,-164.85"/>
</a>
</g>
</g>
<!-- Node4 -->
<g id="Node000004" class="node">
<title>Node4</title>
<g id="a_Node000004"><a xlink:href="ad9545__spi_8c.html" target="_top" xlink:title="Implementation of ad9545 SPI Driver.">
<polygon fill="white" stroke="#666666" points="501,-123.5 346,-123.5 346,-82.5 501,-82.5 501,-123.5"/>
<text text-anchor="start" x="354" y="-111.5" font-family="Helvetica,sans-Serif" font-size="10.00">/home/runner/work/no</text>
<text text-anchor="start" x="354" y="-100.5" font-family="Helvetica,sans-Serif" font-size="10.00">&#45;OS/no&#45;OS/drivers/frequency</text>
<text text-anchor="middle" x="423.5" y="-89.5" font-family="Helvetica,sans-Serif" font-size="10.00">/ad9545/ad9545_spi.c</text>
</a>
</g>
</g>
<!-- Node1&#45;&gt;Node4 -->
<g id="edge3_Node000001_Node000004" class="edge">
<title>Node1&#45;&gt;Node4</title>
<g id="a_edge3_Node000001_Node000004"><a xlink:title=" ">
<path fill="none" stroke="#63b8ff" d="M457.72,-155.98C450.68,-145.29 442.85,-133.38 436.45,-123.67"/>
<polygon fill="#63b8ff" stroke="#63b8ff" points="454.98,-158.17 463.4,-164.6 460.82,-154.32 454.98,-158.17"/>
</a>
</g>
</g>
<!-- Node5 -->
<g id="Node000005" class="node">
<title>Node5</title>
<g id="a_Node000005"><a xlink:href="ad9545_2src_2common_2common__data_8c.html" target="_top" xlink:title="Defines common data to be used by ad9545 example.">
<polygon fill="white" stroke="#666666" points="664,-41 503,-41 503,0 664,0 664,-41"/>
<text text-anchor="start" x="511" y="-29" font-family="Helvetica,sans-Serif" font-size="10.00">/home/runner/work/no</text>
<text text-anchor="start" x="511" y="-18" font-family="Helvetica,sans-Serif" font-size="10.00">&#45;OS/no&#45;OS/projects/ad9545</text>
<text text-anchor="middle" x="583.5" y="-7" font-family="Helvetica,sans-Serif" font-size="10.00">/src/common/common_data.c</text>
</a>
</g>
</g>
<!-- Node1&#45;&gt;Node5 -->
<g id="edge4_Node000001_Node000005" class="edge">
<title>Node1&#45;&gt;Node5</title>
<g id="a_edge4_Node000001_Node000005"><a xlink:title=" ">
<path fill="none" stroke="#63b8ff" d="M495.11,-156.14C516.7,-123.26 551.72,-69.91 570.55,-41.23"/>
<polygon fill="#63b8ff" stroke="#63b8ff" points="491.97,-154.56 489.41,-164.84 497.82,-158.4 491.97,-154.56"/>
</a>
</g>
</g>
<!-- Node6 -->
<g id="Node000006" class="node">
<title>Node6</title>
<g id="a_Node000006"><a xlink:href="ad9545_2src_2common_2common__data_8h.html" target="_top" xlink:title="Defines common data to be used by ad9545 example.">
<polygon fill="white" stroke="#666666" points="719,-123.5 558,-123.5 558,-82.5 719,-82.5 719,-123.5"/>
<text text-anchor="start" x="566" y="-111.5" font-family="Helvetica,sans-Serif" font-size="10.00">/home/runner/work/no</text>
<text text-anchor="start" x="566" y="-100.5" font-family="Helvetica,sans-Serif" font-size="10.00">&#45;OS/no&#45;OS/projects/ad9545</text>
<text text-anchor="middle" x="638.5" y="-89.5" font-family="Helvetica,sans-Serif" font-size="10.00">/src/common/common_data.h</text>
</a>
</g>
</g>
<!-- Node1&#45;&gt;Node6 -->
<g id="edge5_Node000001_Node000006" class="edge">
<title>Node1&#45;&gt;Node6</title>
<g id="a_edge5_Node000001_Node000006"><a xlink:title=" ">
<path fill="none" stroke="#63b8ff" d="M525.27,-160.27C548.84,-148.55 576.78,-134.67 599,-123.63"/>
<polygon fill="#63b8ff" stroke="#63b8ff" points="523.53,-157.22 516.13,-164.81 526.64,-163.49 523.53,-157.22"/>
</a>
</g>
</g>
<!-- Node7 -->
<g id="Node000007" class="node">
<title>Node7</title>
<g id="a_Node000007"><a xlink:href="ad9545_2src_2examples_2basic_2basic__example_8c.html" target="_top" xlink:title="Basic example header for ad9545 project.">
<polygon fill="white" stroke="#666666" points="884,-129 737,-129 737,-77 884,-77 884,-129"/>
<text text-anchor="start" x="745" y="-117" font-family="Helvetica,sans-Serif" font-size="10.00">/home/runner/work/no</text>
<text text-anchor="start" x="745" y="-106" font-family="Helvetica,sans-Serif" font-size="10.00">&#45;OS/no&#45;OS/projects/ad9545</text>
<text text-anchor="start" x="745" y="-95" font-family="Helvetica,sans-Serif" font-size="10.00">/src/examples/basic/basic</text>
<text text-anchor="middle" x="810.5" y="-84" font-family="Helvetica,sans-Serif" font-size="10.00">_example.c</text>
</a>
</g>
</g>
<!-- Node1&#45;&gt;Node7 -->
<g id="edge7_Node000001_Node000007" class="edge">
<title>Node1&#45;&gt;Node7</title>
<g id="a_edge7_Node000001_Node000007"><a xlink:title=" ">
<path fill="none" stroke="#63b8ff" d="M563.95,-167.02C612.62,-156.84 674.17,-143.24 728.5,-129 731.24,-128.28 734.02,-127.53 736.82,-126.76"/>
<polygon fill="#63b8ff" stroke="#63b8ff" points="563.16,-163.61 554.08,-169.07 564.59,-170.46 563.16,-163.61"/>
</a>
</g>
</g>
<!-- Node6&#45;&gt;Node5 -->
<g id="edge6_Node000006_Node000005" class="edge">
<title>Node6&#45;&gt;Node5</title>
<g id="a_edge6_Node000006_Node000005"><a xlink:title=" ">
<path fill="none" stroke="#63b8ff" d="M619.23,-73.8C611.87,-63.02 603.64,-50.98 596.94,-41.17"/>
<polygon fill="#63b8ff" stroke="#63b8ff" points="616.37,-75.82 624.9,-82.1 622.15,-71.87 616.37,-75.82"/>
</a>
</g>
</g>
</g>
</svg>
