<?xml version="1.0" encoding="UTF-8" standalone="no"?>
<!DOCTYPE svg PUBLIC "-//W3C//DTD SVG 1.1//EN"
 "http://www.w3.org/Graphics/SVG/1.1/DTD/svg11.dtd">
<!-- Generated by graphviz version 2.43.0 (0)
 -->
<!-- Title: /home/runner/work/no&#45;OS/no&#45;OS/drivers/adc/adaq8092/adaq8092.c Pages: 1 -->
<svg width="520pt" height="214pt"
 viewBox="0.00 0.00 519.92 214.00" xmlns="http://www.w3.org/2000/svg" xmlns:xlink="http://www.w3.org/1999/xlink">
<g id="graph0" class="graph" transform="scale(1 1) rotate(0) translate(4 210)">
<title>/home/runner/work/no&#45;OS/no&#45;OS/drivers/adc/adaq8092/adaq8092.c</title>
<!-- Node1 -->
<g id="Node000001" class="node">
<title>Node1</title>
<g id="a_Node000001"><a xlink:title="Implementation of ADAQ8092 Driver.">
<polygon fill="#999999" stroke="#666666" points="192.31,-206 65.31,-206 65.31,-165 192.31,-165 192.31,-206"/>
<text text-anchor="start" x="73.31" y="-194" font-family="Helvetica,sans-Serif" font-size="10.00">/home/runner/work/no</text>
<text text-anchor="start" x="73.31" y="-183" font-family="Helvetica,sans-Serif" font-size="10.00">&#45;OS/no&#45;OS/drivers/adc</text>
<text text-anchor="middle" x="128.81" y="-172" font-family="Helvetica,sans-Serif" font-size="10.00">/adaq8092/adaq8092.c</text>
</a>
</g>
</g>
<!-- Node2 -->
<g id="Node000002" class="node">
<title>Node2</title>
<g id="a_Node000002"><a xlink:title=" ">
<polygon fill="#e0e0e0" stroke="#999999" points="54.31,-19 1.31,-19 1.31,0 54.31,0 54.31,-19"/>
<text text-anchor="middle" x="27.81" y="-7" font-family="Helvetica,sans-Serif" font-size="10.00">stdlib.h</text>
</a>
</g>
</g>
<!-- Node1&#45;&gt;Node2 -->
<g id="edge1_Node000001_Node000002" class="edge">
<title>Node1&#45;&gt;Node2</title>
<g id="a_edge1_Node000001_Node000002"><a xlink:title=" ">
<path fill="none" stroke="#63b8ff" d="M65.31,-169.82C43.94,-161.53 22.36,-148.71 9.81,-129 -10.05,-97.83 6.32,-52.86 18.2,-28.25"/>
<polygon fill="#63b8ff" stroke="#63b8ff" points="21.47,-29.55 22.9,-19.05 15.23,-26.37 21.47,-29.55"/>
</a>
</g>
</g>
<!-- Node3 -->
<g id="Node000003" class="node">
<title>Node3</title>
<g id="a_Node000003"><a xlink:href="errno_8h.html" target="_top" xlink:title="Error macro definition for ARM Compiler.">
<polygon fill="white" stroke="#666666" points="69.31,-129 18.31,-129 18.31,-110 69.31,-110 69.31,-129"/>
<text text-anchor="middle" x="43.81" y="-117" font-family="Helvetica,sans-Serif" font-size="10.00">errno.h</text>
</a>
</g>
</g>
<!-- Node1&#45;&gt;Node3 -->
<g id="edge2_Node000001_Node000003" class="edge">
<title>Node1&#45;&gt;Node3</title>
<g id="a_edge2_Node000001_Node000003"><a xlink:title=" ">
<path fill="none" stroke="#63b8ff" d="M102.85,-164.95C90.24,-155.46 75.34,-144.24 63.66,-135.44"/>
<polygon fill="#63b8ff" stroke="#63b8ff" points="65.54,-132.48 55.45,-129.26 61.33,-138.07 65.54,-132.48"/>
</a>
</g>
</g>
<!-- Node4 -->
<g id="Node000004" class="node">
<title>Node4</title>
<g id="a_Node000004"><a xlink:href="adaq8092_8h.html" target="_top" xlink:title="Header file of ADAQ8092 Driver.">
<polygon fill="white" stroke="#666666" points="307.81,-129 233.81,-129 233.81,-110 307.81,-110 307.81,-129"/>
<text text-anchor="middle" x="270.81" y="-117" font-family="Helvetica,sans-Serif" font-size="10.00">adaq8092.h</text>
</a>
</g>
</g>
<!-- Node1&#45;&gt;Node4 -->
<g id="edge3_Node000001_Node000004" class="edge">
<title>Node1&#45;&gt;Node4</title>
<g id="a_edge3_Node000001_Node000004"><a xlink:title=" ">
<path fill="none" stroke="#63b8ff" d="M172.19,-164.95C195.04,-154.65 222.41,-142.31 242.51,-133.25"/>
<polygon fill="#63b8ff" stroke="#63b8ff" points="244.07,-136.39 251.75,-129.09 241.19,-130.01 244.07,-136.39"/>
</a>
</g>
</g>
<!-- Node11 -->
<g id="Node000011" class="node">
<title>Node11</title>
<g id="a_Node000011"><a xlink:href="no__os__delay_8h.html" target="_top" xlink:title="Header file of Delay functions.">
<polygon fill="white" stroke="#666666" points="503.31,-129 418.31,-129 418.31,-110 503.31,-110 503.31,-129"/>
<text text-anchor="middle" x="460.81" y="-117" font-family="Helvetica,sans-Serif" font-size="10.00">no_os_delay.h</text>
</a>
</g>
</g>
<!-- Node1&#45;&gt;Node11 -->
<g id="edge14_Node000001_Node000011" class="edge">
<title>Node1&#45;&gt;Node11</title>
<g id="a_edge14_Node000001_Node000011"><a xlink:title=" ">
<path fill="none" stroke="#63b8ff" d="M192.43,-172.24C254.95,-160.18 349.27,-142 407.83,-130.71"/>
<polygon fill="#63b8ff" stroke="#63b8ff" points="408.82,-134.09 417.98,-128.76 407.5,-127.21 408.82,-134.09"/>
</a>
</g>
</g>
<!-- Node12 -->
<g id="Node000012" class="node">
<title>Node12</title>
<g id="a_Node000012"><a xlink:href="no__os__alloc_8h.html" target="_top" xlink:title=" ">
<polygon fill="white" stroke="#666666" points="170.31,-129 87.31,-129 87.31,-110 170.31,-110 170.31,-129"/>
<text text-anchor="middle" x="128.81" y="-117" font-family="Helvetica,sans-Serif" font-size="10.00">no_os_alloc.h</text>
</a>
</g>
</g>
<!-- Node1&#45;&gt;Node12 -->
<g id="edge16_Node000001_Node000012" class="edge">
<title>Node1&#45;&gt;Node12</title>
<g id="a_edge16_Node000001_Node000012"><a xlink:title=" ">
<path fill="none" stroke="#63b8ff" d="M128.81,-164.95C128.81,-156.85 128.81,-147.5 128.81,-139.47"/>
<polygon fill="#63b8ff" stroke="#63b8ff" points="132.31,-139.26 128.81,-129.26 125.31,-139.26 132.31,-139.26"/>
</a>
</g>
</g>
<!-- Node5 -->
<g id="Node000005" class="node">
<title>Node5</title>
<g id="a_Node000005"><a xlink:title=" ">
<polygon fill="#e0e0e0" stroke="#999999" points="390.31,-19 337.31,-19 337.31,0 390.31,0 390.31,-19"/>
<text text-anchor="middle" x="363.81" y="-7" font-family="Helvetica,sans-Serif" font-size="10.00">stdint.h</text>
</a>
</g>
</g>
<!-- Node4&#45;&gt;Node5 -->
<g id="edge4_Node000004_Node000005" class="edge">
<title>Node4&#45;&gt;Node5</title>
<g id="a_edge4_Node000004_Node000005"><a xlink:title=" ">
<path fill="none" stroke="#63b8ff" d="M276.48,-109.94C284.91,-97.42 301.54,-73.57 317.81,-55 326.67,-44.89 337.43,-34.4 346.31,-26.14"/>
<polygon fill="#63b8ff" stroke="#63b8ff" points="348.82,-28.6 353.84,-19.27 344.09,-23.43 348.82,-28.6"/>
</a>
</g>
</g>
<!-- Node6 -->
<g id="Node000006" class="node">
<title>Node6</title>
<g id="a_Node000006"><a xlink:title=" ">
<polygon fill="#e0e0e0" stroke="#999999" points="270.31,-74 217.31,-74 217.31,-55 270.31,-55 270.31,-74"/>
<text text-anchor="middle" x="243.81" y="-62" font-family="Helvetica,sans-Serif" font-size="10.00">string.h</text>
</a>
</g>
</g>
<!-- Node4&#45;&gt;Node6 -->
<g id="edge5_Node000004_Node000006" class="edge">
<title>Node4&#45;&gt;Node6</title>
<g id="a_edge5_Node000004_Node000006"><a xlink:title=" ">
<path fill="none" stroke="#63b8ff" d="M266.35,-109.75C262.7,-102.57 257.4,-92.18 252.86,-83.27"/>
<polygon fill="#63b8ff" stroke="#63b8ff" points="255.84,-81.41 248.19,-74.09 249.61,-84.59 255.84,-81.41"/>
</a>
</g>
</g>
<!-- Node7 -->
<g id="Node000007" class="node">
<title>Node7</title>
<g id="a_Node000007"><a xlink:href="no__os__util_8h.html" target="_top" xlink:title="Header file of utility functions.">
<polygon fill="white" stroke="#666666" points="199.31,-74 124.31,-74 124.31,-55 199.31,-55 199.31,-74"/>
<text text-anchor="middle" x="161.81" y="-62" font-family="Helvetica,sans-Serif" font-size="10.00">no_os_util.h</text>
</a>
</g>
</g>
<!-- Node4&#45;&gt;Node7 -->
<g id="edge6_Node000004_Node000007" class="edge">
<title>Node4&#45;&gt;Node7</title>
<g id="a_edge6_Node000004_Node000007"><a xlink:title=" ">
<path fill="none" stroke="#63b8ff" d="M253.3,-109.98C235.84,-101.5 208.8,-88.35 188.64,-78.54"/>
<polygon fill="#63b8ff" stroke="#63b8ff" points="190.17,-75.4 179.64,-74.17 187.1,-81.69 190.17,-75.4"/>
</a>
</g>
</g>
<!-- Node9 -->
<g id="Node000009" class="node">
<title>Node9</title>
<g id="a_Node000009"><a xlink:href="no__os__spi_8h.html" target="_top" xlink:title="Header file of SPI Interface.">
<polygon fill="white" stroke="#666666" points="400.81,-74 326.81,-74 326.81,-55 400.81,-55 400.81,-74"/>
<text text-anchor="middle" x="363.81" y="-62" font-family="Helvetica,sans-Serif" font-size="10.00">no_os_spi.h</text>
</a>
</g>
</g>
<!-- Node4&#45;&gt;Node9 -->
<g id="edge10_Node000004_Node000009" class="edge">
<title>Node4&#45;&gt;Node9</title>
<g id="a_edge10_Node000004_Node000009"><a xlink:title=" ">
<path fill="none" stroke="#63b8ff" d="M285.75,-109.98C300.31,-101.69 322.68,-88.94 339.74,-79.22"/>
<polygon fill="#63b8ff" stroke="#63b8ff" points="341.64,-82.16 348.6,-74.17 338.18,-76.08 341.64,-82.16"/>
</a>
</g>
</g>
<!-- Node10 -->
<g id="Node000010" class="node">
<title>Node10</title>
<g id="a_Node000010"><a xlink:href="no__os__gpio_8h.html" target="_top" xlink:title="Header file of GPIO Interface.">
<polygon fill="white" stroke="#666666" points="498.81,-74 418.81,-74 418.81,-55 498.81,-55 498.81,-74"/>
<text text-anchor="middle" x="458.81" y="-62" font-family="Helvetica,sans-Serif" font-size="10.00">no_os_gpio.h</text>
</a>
</g>
</g>
<!-- Node4&#45;&gt;Node10 -->
<g id="edge12_Node000004_Node000010" class="edge">
<title>Node4&#45;&gt;Node10</title>
<g id="a_edge12_Node000004_Node000010"><a xlink:title=" ">
<path fill="none" stroke="#63b8ff" d="M301.02,-109.98C332.85,-101.01 383.17,-86.82 418.41,-76.89"/>
<polygon fill="#63b8ff" stroke="#63b8ff" points="419.69,-80.16 428.37,-74.08 417.79,-73.43 419.69,-80.16"/>
</a>
</g>
</g>
<!-- Node7&#45;&gt;Node2 -->
<g id="edge8_Node000007_Node000002" class="edge">
<title>Node7&#45;&gt;Node2</title>
<g id="a_edge8_Node000007_Node000002"><a xlink:title=" ">
<path fill="none" stroke="#63b8ff" d="M140.28,-54.98C118.34,-46.3 84.07,-32.75 59.12,-22.88"/>
<polygon fill="#63b8ff" stroke="#63b8ff" points="60.32,-19.59 49.73,-19.17 57.74,-26.1 60.32,-19.59"/>
</a>
</g>
</g>
<!-- Node7&#45;&gt;Node5 -->
<g id="edge7_Node000007_Node000005" class="edge">
<title>Node7&#45;&gt;Node5</title>
<g id="a_edge7_Node000007_Node000005"><a xlink:title=" ">
<path fill="none" stroke="#63b8ff" d="M194.27,-54.98C230.56,-45.46 289.2,-30.08 327.13,-20.12"/>
<polygon fill="#63b8ff" stroke="#63b8ff" points="328.46,-23.39 337.24,-17.47 326.68,-16.62 328.46,-23.39"/>
</a>
</g>
</g>
<!-- Node8 -->
<g id="Node000008" class="node">
<title>Node8</title>
<g id="a_Node000008"><a xlink:title=" ">
<polygon fill="#e0e0e0" stroke="#999999" points="192.81,-19 130.81,-19 130.81,0 192.81,0 192.81,-19"/>
<text text-anchor="middle" x="161.81" y="-7" font-family="Helvetica,sans-Serif" font-size="10.00">stdbool.h</text>
</a>
</g>
</g>
<!-- Node7&#45;&gt;Node8 -->
<g id="edge9_Node000007_Node000008" class="edge">
<title>Node7&#45;&gt;Node8</title>
<g id="a_edge9_Node000007_Node000008"><a xlink:title=" ">
<path fill="none" stroke="#63b8ff" d="M161.81,-54.75C161.81,-47.8 161.81,-37.85 161.81,-29.13"/>
<polygon fill="#63b8ff" stroke="#63b8ff" points="165.31,-29.09 161.81,-19.09 158.31,-29.09 165.31,-29.09"/>
</a>
</g>
</g>
<!-- Node9&#45;&gt;Node5 -->
<g id="edge11_Node000009_Node000005" class="edge">
<title>Node9&#45;&gt;Node5</title>
<g id="a_edge11_Node000009_Node000005"><a xlink:title=" ">
<path fill="none" stroke="#63b8ff" d="M363.81,-54.75C363.81,-47.8 363.81,-37.85 363.81,-29.13"/>
<polygon fill="#63b8ff" stroke="#63b8ff" points="367.31,-29.09 363.81,-19.09 360.31,-29.09 367.31,-29.09"/>
</a>
</g>
</g>
<!-- Node10&#45;&gt;Node5 -->
<g id="edge13_Node000010_Node000005" class="edge">
<title>Node10&#45;&gt;Node5</title>
<g id="a_edge13_Node000010_Node000005"><a xlink:title=" ">
<path fill="none" stroke="#63b8ff" d="M443.55,-54.98C428.68,-46.69 405.83,-33.94 388.39,-24.22"/>
<polygon fill="#63b8ff" stroke="#63b8ff" points="389.79,-20.99 379.35,-19.17 386.38,-27.1 389.79,-20.99"/>
</a>
</g>
</g>
<!-- Node11&#45;&gt;Node5 -->
<g id="edge15_Node000011_Node000005" class="edge">
<title>Node11&#45;&gt;Node5</title>
<g id="a_edge15_Node000011_Node000005"><a xlink:title=" ">
<path fill="none" stroke="#63b8ff" d="M475.28,-109.88C493.92,-97.67 522.3,-74.65 507.81,-55 483.32,-21.79 434.36,-12.61 400.37,-10.46"/>
<polygon fill="#63b8ff" stroke="#63b8ff" points="400.5,-6.96 390.35,-9.99 400.18,-13.95 400.5,-6.96"/>
</a>
</g>
</g>
<!-- Node12&#45;&gt;Node2 -->
<g id="edge18_Node000012_Node000002" class="edge">
<title>Node12&#45;&gt;Node2</title>
<g id="a_edge18_Node000012_Node000002"><a xlink:title=" ">
<path fill="none" stroke="#63b8ff" d="M101.59,-109.91C83.63,-102.93 60.9,-91.35 46.81,-74 36.5,-61.3 31.78,-43.12 29.62,-29.46"/>
<polygon fill="#63b8ff" stroke="#63b8ff" points="33.06,-28.76 28.35,-19.28 26.12,-29.63 33.06,-28.76"/>
</a>
</g>
</g>
<!-- Node13 -->
<g id="Node000013" class="node">
<title>Node13</title>
<g id="a_Node000013"><a xlink:title=" ">
<polygon fill="#e0e0e0" stroke="#999999" points="105.81,-74 55.81,-74 55.81,-55 105.81,-55 105.81,-74"/>
<text text-anchor="middle" x="80.81" y="-62" font-family="Helvetica,sans-Serif" font-size="10.00">stdio.h</text>
</a>
</g>
</g>
<!-- Node12&#45;&gt;Node13 -->
<g id="edge17_Node000012_Node000013" class="edge">
<title>Node12&#45;&gt;Node13</title>
<g id="a_edge17_Node000012_Node000013"><a xlink:title=" ">
<path fill="none" stroke="#63b8ff" d="M120.88,-109.75C113.96,-102.11 103.75,-90.82 95.36,-81.56"/>
<polygon fill="#63b8ff" stroke="#63b8ff" points="97.9,-79.15 88.59,-74.09 92.71,-83.85 97.9,-79.15"/>
</a>
</g>
</g>
</g>
</svg>
