<?xml version="1.0" encoding="UTF-8" standalone="no"?>
<!DOCTYPE svg PUBLIC "-//W3C//DTD SVG 1.1//EN"
 "http://www.w3.org/Graphics/SVG/1.1/DTD/svg11.dtd">
<!-- Generated by graphviz version 2.43.0 (0)
 -->
<!-- Title: /home/runner/work/no&#45;OS/no&#45;OS/drivers/adc/ad9208/ad9208_api/api_errors.h Pages: 1 -->
<svg width="908pt" height="148pt"
 viewBox="0.00 0.00 908.00 148.00" xmlns="http://www.w3.org/2000/svg" xmlns:xlink="http://www.w3.org/1999/xlink">
<g id="graph0" class="graph" transform="scale(1 1) rotate(0) translate(4 144)">
<title>/home/runner/work/no&#45;OS/no&#45;OS/drivers/adc/ad9208/ad9208_api/api_errors.h</title>
<!-- Node1 -->
<g id="Node000001" class="node">
<title>Node1</title>
<g id="a_Node000001"><a xlink:title="API error codes header file.">
<polygon fill="#999999" stroke="#666666" points="515.5,-140 382.5,-140 382.5,-88 515.5,-88 515.5,-140"/>
<text text-anchor="start" x="390.5" y="-128" font-family="Helvetica,sans-Serif" font-size="10.00">/home/runner/work/no</text>
<text text-anchor="start" x="390.5" y="-117" font-family="Helvetica,sans-Serif" font-size="10.00">&#45;OS/no&#45;OS/drivers/adc</text>
<text text-anchor="start" x="390.5" y="-106" font-family="Helvetica,sans-Serif" font-size="10.00">/ad9208/ad9208_api/api</text>
<text text-anchor="middle" x="449" y="-95" font-family="Helvetica,sans-Serif" font-size="10.00">_errors.h</text>
</a>
</g>
</g>
<!-- Node2 -->
<g id="Node000002" class="node">
<title>Node2</title>
<g id="a_Node000002"><a xlink:href="ad9208__adc__api_8c.html" target="_top" xlink:title="Contains AD9208 APIs for ADC, DDC, NCO configuration and control.">
<polygon fill="white" stroke="#666666" points="154,-52 0,-52 0,0 154,0 154,-52"/>
<text text-anchor="start" x="8" y="-40" font-family="Helvetica,sans-Serif" font-size="10.00">/home/runner/work/no</text>
<text text-anchor="start" x="8" y="-29" font-family="Helvetica,sans-Serif" font-size="10.00">&#45;OS/no&#45;OS/drivers/adc</text>
<text text-anchor="start" x="8" y="-18" font-family="Helvetica,sans-Serif" font-size="10.00">/ad9208/ad9208_api/ad9208</text>
<text text-anchor="middle" x="77" y="-7" font-family="Helvetica,sans-Serif" font-size="10.00">_adc_api.c</text>
</a>
</g>
</g>
<!-- Node1&#45;&gt;Node2 -->
<g id="edge1_Node000001_Node000002" class="edge">
<title>Node1&#45;&gt;Node2</title>
<g id="a_edge1_Node000001_Node000002"><a xlink:title=" ">
<path fill="none" stroke="#63b8ff" d="M372.08,-98.17C314.3,-86.65 233.37,-69.71 163,-52 160.14,-51.28 157.22,-50.53 154.28,-49.75"/>
<polygon fill="#63b8ff" stroke="#63b8ff" points="371.74,-101.67 382.23,-100.19 373.1,-94.81 371.74,-101.67"/>
</a>
</g>
</g>
<!-- Node3 -->
<g id="Node000003" class="node">
<title>Node3</title>
<g id="a_Node000003"><a xlink:href="ad9208__api_8c.html" target="_top" xlink:title="Contains AD9208 APIs for ADC Chip Level Configuration and Control.">
<polygon fill="white" stroke="#666666" points="354,-46.5 172,-46.5 172,-5.5 354,-5.5 354,-46.5"/>
<text text-anchor="start" x="180" y="-34.5" font-family="Helvetica,sans-Serif" font-size="10.00">/home/runner/work/no</text>
<text text-anchor="start" x="180" y="-23.5" font-family="Helvetica,sans-Serif" font-size="10.00">&#45;OS/no&#45;OS/drivers/adc</text>
<text text-anchor="middle" x="263" y="-12.5" font-family="Helvetica,sans-Serif" font-size="10.00">/ad9208/ad9208_api/ad9208_api.c</text>
</a>
</g>
</g>
<!-- Node1&#45;&gt;Node3 -->
<g id="edge2_Node000001_Node000003" class="edge">
<title>Node1&#45;&gt;Node3</title>
<g id="a_edge2_Node000001_Node000003"><a xlink:title=" ">
<path fill="none" stroke="#63b8ff" d="M385.5,-83.64C359,-71.39 328.95,-57.49 305.24,-46.53"/>
<polygon fill="#63b8ff" stroke="#63b8ff" points="384.16,-86.87 394.7,-87.89 387.09,-80.52 384.16,-86.87"/>
</a>
</g>
</g>
<!-- Node4 -->
<g id="Node000004" class="node">
<title>Node4</title>
<g id="a_Node000004"><a xlink:href="ad9208__jesd__api_8c.html" target="_top" xlink:title="Contains AD9208 APIs for ADC JESD Configuration and Control.">
<polygon fill="white" stroke="#666666" points="526,-52 372,-52 372,0 526,0 526,-52"/>
<text text-anchor="start" x="380" y="-40" font-family="Helvetica,sans-Serif" font-size="10.00">/home/runner/work/no</text>
<text text-anchor="start" x="380" y="-29" font-family="Helvetica,sans-Serif" font-size="10.00">&#45;OS/no&#45;OS/drivers/adc</text>
<text text-anchor="start" x="380" y="-18" font-family="Helvetica,sans-Serif" font-size="10.00">/ad9208/ad9208_api/ad9208</text>
<text text-anchor="middle" x="449" y="-7" font-family="Helvetica,sans-Serif" font-size="10.00">_jesd_api.c</text>
</a>
</g>
</g>
<!-- Node1&#45;&gt;Node4 -->
<g id="edge3_Node000001_Node000004" class="edge">
<title>Node1&#45;&gt;Node4</title>
<g id="a_edge3_Node000001_Node000004"><a xlink:title=" ">
<path fill="none" stroke="#63b8ff" d="M449,-77.56C449,-69.04 449,-60.1 449,-52.16"/>
<polygon fill="#63b8ff" stroke="#63b8ff" points="445.5,-77.66 449,-87.66 452.5,-77.66 445.5,-77.66"/>
</a>
</g>
</g>
<!-- Node5 -->
<g id="Node000005" class="node">
<title>Node5</title>
<g id="a_Node000005"><a xlink:href="ad9208__reg_8c.html" target="_top" xlink:title="Contains AD9208 APIs for ADC Register Configuration and Control.">
<polygon fill="white" stroke="#666666" points="727.5,-46.5 544.5,-46.5 544.5,-5.5 727.5,-5.5 727.5,-46.5"/>
<text text-anchor="start" x="552.5" y="-34.5" font-family="Helvetica,sans-Serif" font-size="10.00">/home/runner/work/no</text>
<text text-anchor="start" x="552.5" y="-23.5" font-family="Helvetica,sans-Serif" font-size="10.00">&#45;OS/no&#45;OS/drivers/adc</text>
<text text-anchor="middle" x="636" y="-12.5" font-family="Helvetica,sans-Serif" font-size="10.00">/ad9208/ad9208_api/ad9208_reg.c</text>
</a>
</g>
</g>
<!-- Node1&#45;&gt;Node5 -->
<g id="edge4_Node000001_Node000005" class="edge">
<title>Node1&#45;&gt;Node5</title>
<g id="a_edge4_Node000001_Node000005"><a xlink:title=" ">
<path fill="none" stroke="#63b8ff" d="M512.85,-83.64C539.48,-71.39 569.7,-57.49 593.53,-46.53"/>
<polygon fill="#63b8ff" stroke="#63b8ff" points="511.21,-80.54 503.59,-87.89 514.14,-86.9 511.21,-80.54"/>
</a>
</g>
</g>
<!-- Node6 -->
<g id="Node000006" class="node">
<title>Node6</title>
<g id="a_Node000006"><a xlink:href="ad9208__signal__monitor__api_8c.html" target="_top" xlink:title="Contains AD9208 APIs for Signal Monitoring Features.">
<polygon fill="white" stroke="#666666" points="900,-52 746,-52 746,0 900,0 900,-52"/>
<text text-anchor="start" x="754" y="-40" font-family="Helvetica,sans-Serif" font-size="10.00">/home/runner/work/no</text>
<text text-anchor="start" x="754" y="-29" font-family="Helvetica,sans-Serif" font-size="10.00">&#45;OS/no&#45;OS/drivers/adc</text>
<text text-anchor="start" x="754" y="-18" font-family="Helvetica,sans-Serif" font-size="10.00">/ad9208/ad9208_api/ad9208</text>
<text text-anchor="middle" x="823" y="-7" font-family="Helvetica,sans-Serif" font-size="10.00">_signal_monitor_api.c</text>
</a>
</g>
</g>
<!-- Node1&#45;&gt;Node6 -->
<g id="edge5_Node000001_Node000006" class="edge">
<title>Node1&#45;&gt;Node6</title>
<g id="a_edge5_Node000001_Node000006"><a xlink:title=" ">
<path fill="none" stroke="#63b8ff" d="M525.53,-98.4C583.77,-86.9 665.77,-69.87 737,-52 739.87,-51.28 742.78,-50.53 745.72,-49.76"/>
<polygon fill="#63b8ff" stroke="#63b8ff" points="524.8,-94.97 515.67,-100.34 526.15,-101.84 524.8,-94.97"/>
</a>
</g>
</g>
</g>
</svg>
