<?xml version="1.0" encoding="UTF-8" standalone="no"?>
<!DOCTYPE svg PUBLIC "-//W3C//DTD SVG 1.1//EN"
 "http://www.w3.org/Graphics/SVG/1.1/DTD/svg11.dtd">
<!-- Generated by graphviz version 2.43.0 (0)
 -->
<!-- Title: /home/runner/work/no&#45;OS/no&#45;OS/drivers/meter/ade7816/ade7816.h Pages: 1 -->
<svg width="628pt" height="203pt"
 viewBox="0.00 0.00 628.00 203.00" xmlns="http://www.w3.org/2000/svg" xmlns:xlink="http://www.w3.org/1999/xlink">
<g id="graph0" class="graph" transform="scale(1 1) rotate(0) translate(4 199)">
<title>/home/runner/work/no&#45;OS/no&#45;OS/drivers/meter/ade7816/ade7816.h</title>
<!-- Node1 -->
<g id="Node000001" class="node">
<title>Node1</title>
<g id="a_Node000001"><a xlink:title="Header file of ADE7816 Driver.">
<polygon fill="#999999" stroke="#666666" points="364,-195 229,-195 229,-154 364,-154 364,-195"/>
<text text-anchor="start" x="237" y="-183" font-family="Helvetica,sans-Serif" font-size="10.00">/home/runner/work/no</text>
<text text-anchor="start" x="237" y="-172" font-family="Helvetica,sans-Serif" font-size="10.00">&#45;OS/no&#45;OS/drivers/meter</text>
<text text-anchor="middle" x="296.5" y="-161" font-family="Helvetica,sans-Serif" font-size="10.00">/ade7816/ade7816.h</text>
</a>
</g>
</g>
<!-- Node2 -->
<g id="Node000002" class="node">
<title>Node2</title>
<g id="a_Node000002"><a xlink:href="ade7816_8c.html" target="_top" xlink:title="Source file of ADE7816 Driver.">
<polygon fill="white" stroke="#666666" points="135,-118 0,-118 0,-77 135,-77 135,-118"/>
<text text-anchor="start" x="8" y="-106" font-family="Helvetica,sans-Serif" font-size="10.00">/home/runner/work/no</text>
<text text-anchor="start" x="8" y="-95" font-family="Helvetica,sans-Serif" font-size="10.00">&#45;OS/no&#45;OS/drivers/meter</text>
<text text-anchor="middle" x="67.5" y="-84" font-family="Helvetica,sans-Serif" font-size="10.00">/ade7816/ade7816.c</text>
</a>
</g>
</g>
<!-- Node1&#45;&gt;Node2 -->
<g id="edge1_Node000001_Node000002" class="edge">
<title>Node1&#45;&gt;Node2</title>
<g id="a_edge1_Node000001_Node000002"><a xlink:title=" ">
<path fill="none" stroke="#63b8ff" d="M227.22,-150.81C195.31,-140.36 157.81,-128.08 127.17,-118.04"/>
<polygon fill="#63b8ff" stroke="#63b8ff" points="226.34,-154.2 236.93,-153.99 228.52,-147.55 226.34,-154.2"/>
</a>
</g>
</g>
<!-- Node3 -->
<g id="Node000003" class="node">
<title>Node3</title>
<g id="a_Node000003"><a xlink:href="ade7816__i2c_8c.html" target="_top" xlink:title="Source file of ADE7816 I2C Driver.">
<polygon fill="white" stroke="#666666" points="288,-118 153,-118 153,-77 288,-77 288,-118"/>
<text text-anchor="start" x="161" y="-106" font-family="Helvetica,sans-Serif" font-size="10.00">/home/runner/work/no</text>
<text text-anchor="start" x="161" y="-95" font-family="Helvetica,sans-Serif" font-size="10.00">&#45;OS/no&#45;OS/drivers/meter</text>
<text text-anchor="middle" x="220.5" y="-84" font-family="Helvetica,sans-Serif" font-size="10.00">/ade7816/ade7816_i2c.c</text>
</a>
</g>
</g>
<!-- Node1&#45;&gt;Node3 -->
<g id="edge2_Node000001_Node000003" class="edge">
<title>Node1&#45;&gt;Node3</title>
<g id="a_edge2_Node000001_Node000003"><a xlink:title=" ">
<path fill="none" stroke="#63b8ff" d="M269.15,-146.51C259.63,-137.11 249.13,-126.76 240.33,-118.07"/>
<polygon fill="#63b8ff" stroke="#63b8ff" points="266.96,-149.26 276.53,-153.79 271.87,-144.28 266.96,-149.26"/>
</a>
</g>
</g>
<!-- Node4 -->
<g id="Node000004" class="node">
<title>Node4</title>
<g id="a_Node000004"><a xlink:href="ade7816__spi_8c.html" target="_top" xlink:title="Source file of ADE7816 SPI Driver.">
<polygon fill="white" stroke="#666666" points="441,-118 306,-118 306,-77 441,-77 441,-118"/>
<text text-anchor="start" x="314" y="-106" font-family="Helvetica,sans-Serif" font-size="10.00">/home/runner/work/no</text>
<text text-anchor="start" x="314" y="-95" font-family="Helvetica,sans-Serif" font-size="10.00">&#45;OS/no&#45;OS/drivers/meter</text>
<text text-anchor="middle" x="373.5" y="-84" font-family="Helvetica,sans-Serif" font-size="10.00">/ade7816/ade7816_spi.c</text>
</a>
</g>
</g>
<!-- Node1&#45;&gt;Node4 -->
<g id="edge3_Node000001_Node000004" class="edge">
<title>Node1&#45;&gt;Node4</title>
<g id="a_edge3_Node000001_Node000004"><a xlink:title=" ">
<path fill="none" stroke="#63b8ff" d="M323.92,-146.79C333.65,-137.32 344.4,-126.84 353.4,-118.07"/>
<polygon fill="#63b8ff" stroke="#63b8ff" points="321.45,-144.31 316.73,-153.79 326.34,-149.32 321.45,-144.31"/>
</a>
</g>
</g>
<!-- Node5 -->
<g id="Node000005" class="node">
<title>Node5</title>
<g id="a_Node000005"><a xlink:href="ade7816_2src_2common_2common__data_8h.html" target="_top" xlink:title="Defines common data to be used by ade7816 example.">
<polygon fill="white" stroke="#666666" points="620,-118 459,-118 459,-77 620,-77 620,-118"/>
<text text-anchor="start" x="467" y="-106" font-family="Helvetica,sans-Serif" font-size="10.00">/home/runner/work/no</text>
<text text-anchor="start" x="467" y="-95" font-family="Helvetica,sans-Serif" font-size="10.00">&#45;OS/no&#45;OS/projects/ade7816</text>
<text text-anchor="middle" x="539.5" y="-84" font-family="Helvetica,sans-Serif" font-size="10.00">/src/common/common_data.h</text>
</a>
</g>
</g>
<!-- Node1&#45;&gt;Node5 -->
<g id="edge4_Node000001_Node000005" class="edge">
<title>Node1&#45;&gt;Node5</title>
<g id="a_edge4_Node000001_Node000005"><a xlink:title=" ">
<path fill="none" stroke="#63b8ff" d="M369.58,-150.94C403.54,-140.46 443.53,-128.12 476.18,-118.04"/>
<polygon fill="#63b8ff" stroke="#63b8ff" points="368.23,-147.7 359.71,-153.99 370.3,-154.39 368.23,-147.7"/>
</a>
</g>
</g>
<!-- Node6 -->
<g id="Node000006" class="node">
<title>Node6</title>
<g id="a_Node000006"><a xlink:href="ade7816_2src_2common_2common__data_8c.html" target="_top" xlink:title="Defines common data to be used by ade7816 example.">
<polygon fill="white" stroke="#666666" points="620,-41 459,-41 459,0 620,0 620,-41"/>
<text text-anchor="start" x="467" y="-29" font-family="Helvetica,sans-Serif" font-size="10.00">/home/runner/work/no</text>
<text text-anchor="start" x="467" y="-18" font-family="Helvetica,sans-Serif" font-size="10.00">&#45;OS/no&#45;OS/projects/ade7816</text>
<text text-anchor="middle" x="539.5" y="-7" font-family="Helvetica,sans-Serif" font-size="10.00">/src/common/common_data.c</text>
</a>
</g>
</g>
<!-- Node5&#45;&gt;Node6 -->
<g id="edge5_Node000005_Node000006" class="edge">
<title>Node5&#45;&gt;Node6</title>
<g id="a_edge5_Node000005_Node000006"><a xlink:title=" ">
<path fill="none" stroke="#63b8ff" d="M539.5,-66.69C539.5,-58.08 539.5,-48.9 539.5,-41.07"/>
<polygon fill="#63b8ff" stroke="#63b8ff" points="536,-66.79 539.5,-76.79 543,-66.79 536,-66.79"/>
</a>
</g>
</g>
</g>
</svg>
