<?xml version="1.0" encoding="UTF-8" standalone="no"?>
<!DOCTYPE svg PUBLIC "-//W3C//DTD SVG 1.1//EN"
 "http://www.w3.org/Graphics/SVG/1.1/DTD/svg11.dtd">
<!-- Generated by graphviz version 2.43.0 (0)
 -->
<!-- Title: /home/runner/work/no&#45;OS/no&#45;OS/drivers/meter/ade7753/ade7753.h Pages: 1 -->
<svg width="716pt" height="203pt"
 viewBox="0.00 0.00 716.00 203.00" xmlns="http://www.w3.org/2000/svg" xmlns:xlink="http://www.w3.org/1999/xlink">
<g id="graph0" class="graph" transform="scale(1 1) rotate(0) translate(4 199)">
<title>/home/runner/work/no&#45;OS/no&#45;OS/drivers/meter/ade7753/ade7753.h</title>
<!-- Node1 -->
<g id="Node000001" class="node">
<title>Node1</title>
<g id="a_Node000001"><a xlink:title="Header file of ADE7753 Driver.">
<polygon fill="#999999" stroke="#666666" points="418,-195 283,-195 283,-154 418,-154 418,-195"/>
<text text-anchor="start" x="291" y="-183" font-family="Helvetica,sans-Serif" font-size="10.00">/home/runner/work/no</text>
<text text-anchor="start" x="291" y="-172" font-family="Helvetica,sans-Serif" font-size="10.00">&#45;OS/no&#45;OS/drivers/meter</text>
<text text-anchor="middle" x="350.5" y="-161" font-family="Helvetica,sans-Serif" font-size="10.00">/ade7753/ade7753.h</text>
</a>
</g>
</g>
<!-- Node2 -->
<g id="Node000002" class="node">
<title>Node2</title>
<g id="a_Node000002"><a xlink:href="ade7753_8c.html" target="_top" xlink:title="Implementation of ADE7753 Driver.">
<polygon fill="white" stroke="#666666" points="135,-118 0,-118 0,-77 135,-77 135,-118"/>
<text text-anchor="start" x="8" y="-106" font-family="Helvetica,sans-Serif" font-size="10.00">/home/runner/work/no</text>
<text text-anchor="start" x="8" y="-95" font-family="Helvetica,sans-Serif" font-size="10.00">&#45;OS/no&#45;OS/drivers/meter</text>
<text text-anchor="middle" x="67.5" y="-84" font-family="Helvetica,sans-Serif" font-size="10.00">/ade7753/ade7753.c</text>
</a>
</g>
</g>
<!-- Node1&#45;&gt;Node2 -->
<g id="edge1_Node000001_Node000002" class="edge">
<title>Node1&#45;&gt;Node2</title>
<g id="a_edge1_Node000001_Node000002"><a xlink:title=" ">
<path fill="none" stroke="#63b8ff" d="M272.83,-152.92C229.73,-141.49 176.63,-127.42 135.22,-116.45"/>
<polygon fill="#63b8ff" stroke="#63b8ff" points="272.15,-156.36 282.71,-155.54 273.94,-149.59 272.15,-156.36"/>
</a>
</g>
</g>
<!-- Node3 -->
<g id="Node000003" class="node">
<title>Node3</title>
<g id="a_Node000003"><a xlink:href="eval-ade7753_2src_2common_2common__data_8h.html" target="_top" xlink:title="Defines common data to be used by ADE7753 example project.">
<polygon fill="white" stroke="#666666" points="360,-118 153,-118 153,-77 360,-77 360,-118"/>
<text text-anchor="start" x="161" y="-106" font-family="Helvetica,sans-Serif" font-size="10.00">/home/runner/work/no</text>
<text text-anchor="start" x="161" y="-95" font-family="Helvetica,sans-Serif" font-size="10.00">&#45;OS/no&#45;OS/projects/eval</text>
<text text-anchor="middle" x="256.5" y="-84" font-family="Helvetica,sans-Serif" font-size="10.00">&#45;ade7753/src/common/common_data.h</text>
</a>
</g>
</g>
<!-- Node1&#45;&gt;Node3 -->
<g id="edge2_Node000001_Node000003" class="edge">
<title>Node1&#45;&gt;Node3</title>
<g id="a_edge2_Node000001_Node000003"><a xlink:title=" ">
<path fill="none" stroke="#63b8ff" d="M317.72,-147.35C305.67,-137.73 292.24,-127.01 281.03,-118.07"/>
<polygon fill="#63b8ff" stroke="#63b8ff" points="315.8,-150.29 325.8,-153.79 320.17,-144.82 315.8,-150.29"/>
</a>
</g>
</g>
<!-- Node5 -->
<g id="Node000005" class="node">
<title>Node5</title>
<g id="a_Node000005"><a xlink:href="eval-ade7753_2src_2main_8c.html" target="_top" xlink:title="Main function of ADE7753 example.">
<polygon fill="white" stroke="#666666" points="510.5,-118 378.5,-118 378.5,-77 510.5,-77 510.5,-118"/>
<text text-anchor="start" x="386.5" y="-106" font-family="Helvetica,sans-Serif" font-size="10.00">/home/runner/work/no</text>
<text text-anchor="start" x="386.5" y="-95" font-family="Helvetica,sans-Serif" font-size="10.00">&#45;OS/no&#45;OS/projects/eval</text>
<text text-anchor="middle" x="444.5" y="-84" font-family="Helvetica,sans-Serif" font-size="10.00">&#45;ade7753/src/main.c</text>
</a>
</g>
</g>
<!-- Node1&#45;&gt;Node5 -->
<g id="edge4_Node000001_Node000005" class="edge">
<title>Node1&#45;&gt;Node5</title>
<g id="a_edge4_Node000001_Node000005"><a xlink:title=" ">
<path fill="none" stroke="#63b8ff" d="M383.28,-147.35C395.33,-137.73 408.76,-127.01 419.97,-118.07"/>
<polygon fill="#63b8ff" stroke="#63b8ff" points="380.83,-144.82 375.2,-153.79 385.2,-150.29 380.83,-144.82"/>
</a>
</g>
</g>
<!-- Node6 -->
<g id="Node000006" class="node">
<title>Node6</title>
<g id="a_Node000006"><a xlink:href="eval-ade7753_2src_2platform_2platform_8h.html" target="_top" xlink:title="Defines platform data to be used by ADE7753 example project.">
<polygon fill="white" stroke="#666666" points="708,-118 529,-118 529,-77 708,-77 708,-118"/>
<text text-anchor="start" x="537" y="-106" font-family="Helvetica,sans-Serif" font-size="10.00">/home/runner/work/no</text>
<text text-anchor="start" x="537" y="-95" font-family="Helvetica,sans-Serif" font-size="10.00">&#45;OS/no&#45;OS/projects/eval</text>
<text text-anchor="middle" x="618.5" y="-84" font-family="Helvetica,sans-Serif" font-size="10.00">&#45;ade7753/src/platform/platform.h</text>
</a>
</g>
</g>
<!-- Node1&#45;&gt;Node6 -->
<g id="edge5_Node000001_Node000006" class="edge">
<title>Node1&#45;&gt;Node6</title>
<g id="a_edge5_Node000001_Node000006"><a xlink:title=" ">
<path fill="none" stroke="#63b8ff" d="M428.14,-151.77C466.17,-141.13 511.61,-128.41 548.56,-118.07"/>
<polygon fill="#63b8ff" stroke="#63b8ff" points="426.81,-148.51 418.13,-154.57 428.7,-155.25 426.81,-148.51"/>
</a>
</g>
</g>
<!-- Node4 -->
<g id="Node000004" class="node">
<title>Node4</title>
<g id="a_Node000004"><a xlink:href="eval-ade7753_2src_2common_2common__data_8c.html" target="_top" xlink:title="Defines common data to be used by ADE7753 example project.">
<polygon fill="white" stroke="#666666" points="359.5,-41 153.5,-41 153.5,0 359.5,0 359.5,-41"/>
<text text-anchor="start" x="161.5" y="-29" font-family="Helvetica,sans-Serif" font-size="10.00">/home/runner/work/no</text>
<text text-anchor="start" x="161.5" y="-18" font-family="Helvetica,sans-Serif" font-size="10.00">&#45;OS/no&#45;OS/projects/eval</text>
<text text-anchor="middle" x="256.5" y="-7" font-family="Helvetica,sans-Serif" font-size="10.00">&#45;ade7753/src/common/common_data.c</text>
</a>
</g>
</g>
<!-- Node3&#45;&gt;Node4 -->
<g id="edge3_Node000003_Node000004" class="edge">
<title>Node3&#45;&gt;Node4</title>
<g id="a_edge3_Node000003_Node000004"><a xlink:title=" ">
<path fill="none" stroke="#63b8ff" d="M256.5,-66.69C256.5,-58.08 256.5,-48.9 256.5,-41.07"/>
<polygon fill="#63b8ff" stroke="#63b8ff" points="253,-66.79 256.5,-76.79 260,-66.79 253,-66.79"/>
</a>
</g>
</g>
<!-- Node7 -->
<g id="Node000007" class="node">
<title>Node7</title>
<g id="a_Node000007"><a xlink:href="eval-ade7753_2src_2platform_2platform_8c.html" target="_top" xlink:title="Defines platform data to be used by ADE7753 example project.">
<polygon fill="white" stroke="#666666" points="707.5,-41 529.5,-41 529.5,0 707.5,0 707.5,-41"/>
<text text-anchor="start" x="537.5" y="-29" font-family="Helvetica,sans-Serif" font-size="10.00">/home/runner/work/no</text>
<text text-anchor="start" x="537.5" y="-18" font-family="Helvetica,sans-Serif" font-size="10.00">&#45;OS/no&#45;OS/projects/eval</text>
<text text-anchor="middle" x="618.5" y="-7" font-family="Helvetica,sans-Serif" font-size="10.00">&#45;ade7753/src/platform/platform.c</text>
</a>
</g>
</g>
<!-- Node6&#45;&gt;Node7 -->
<g id="edge6_Node000006_Node000007" class="edge">
<title>Node6&#45;&gt;Node7</title>
<g id="a_edge6_Node000006_Node000007"><a xlink:title=" ">
<path fill="none" stroke="#63b8ff" d="M618.5,-66.69C618.5,-58.08 618.5,-48.9 618.5,-41.07"/>
<polygon fill="#63b8ff" stroke="#63b8ff" points="615,-66.79 618.5,-76.79 622,-66.79 615,-66.79"/>
</a>
</g>
</g>
</g>
</svg>
