<?xml version="1.0" encoding="UTF-8" standalone="no"?>
<!DOCTYPE svg PUBLIC "-//W3C//DTD SVG 1.1//EN"
 "http://www.w3.org/Graphics/SVG/1.1/DTD/svg11.dtd">
<!-- Generated by graphviz version 2.43.0 (0)
 -->
<!-- Title: /home/runner/work/no&#45;OS/no&#45;OS/drivers/meter/ade9113/ade9113.h Pages: 1 -->
<svg width="644pt" height="225pt"
 viewBox="0.00 0.00 644.00 225.00" xmlns="http://www.w3.org/2000/svg" xmlns:xlink="http://www.w3.org/1999/xlink">
<g id="graph0" class="graph" transform="scale(1 1) rotate(0) translate(4 221)">
<title>/home/runner/work/no&#45;OS/no&#45;OS/drivers/meter/ade9113/ade9113.h</title>
<!-- Node1 -->
<g id="Node000001" class="node">
<title>Node1</title>
<g id="a_Node000001"><a xlink:title="Header file of ADE9113 Driver.">
<polygon fill="#999999" stroke="#666666" points="385,-217 250,-217 250,-176 385,-176 385,-217"/>
<text text-anchor="start" x="258" y="-205" font-family="Helvetica,sans-Serif" font-size="10.00">/home/runner/work/no</text>
<text text-anchor="start" x="258" y="-194" font-family="Helvetica,sans-Serif" font-size="10.00">&#45;OS/no&#45;OS/drivers/meter</text>
<text text-anchor="middle" x="317.5" y="-183" font-family="Helvetica,sans-Serif" font-size="10.00">/ade9113/ade9113.h</text>
</a>
</g>
</g>
<!-- Node2 -->
<g id="Node000002" class="node">
<title>Node2</title>
<g id="a_Node000002"><a xlink:href="ade9113_8c.html" target="_top" xlink:title="Implementation of ADE9113 Driver.">
<polygon fill="white" stroke="#666666" points="135,-134.5 0,-134.5 0,-93.5 135,-93.5 135,-134.5"/>
<text text-anchor="start" x="8" y="-122.5" font-family="Helvetica,sans-Serif" font-size="10.00">/home/runner/work/no</text>
<text text-anchor="start" x="8" y="-111.5" font-family="Helvetica,sans-Serif" font-size="10.00">&#45;OS/no&#45;OS/drivers/meter</text>
<text text-anchor="middle" x="67.5" y="-100.5" font-family="Helvetica,sans-Serif" font-size="10.00">/ade9113/ade9113.c</text>
</a>
</g>
</g>
<!-- Node1&#45;&gt;Node2 -->
<g id="edge1_Node000001_Node000002" class="edge">
<title>Node1&#45;&gt;Node2</title>
<g id="a_edge1_Node000001_Node000002"><a xlink:title=" ">
<path fill="none" stroke="#63b8ff" d="M246.31,-172.72C215.06,-162.71 177.95,-150.8 144.5,-140 139.02,-138.23 133.31,-136.39 127.6,-134.54"/>
<polygon fill="#63b8ff" stroke="#63b8ff" points="245.64,-176.18 256.23,-175.9 247.78,-169.52 245.64,-176.18"/>
</a>
</g>
</g>
<!-- Node3 -->
<g id="Node000003" class="node">
<title>Node3</title>
<g id="a_Node000003"><a xlink:href="ad-acevsecrdset-sl_2src_2common_2common__data_8h.html" target="_top" xlink:title="Defines common data to be used by the STOUT project.">
<polygon fill="white" stroke="#666666" points="313.5,-140 153.5,-140 153.5,-88 313.5,-88 313.5,-140"/>
<text text-anchor="start" x="161.5" y="-128" font-family="Helvetica,sans-Serif" font-size="10.00">/home/runner/work/no</text>
<text text-anchor="start" x="161.5" y="-117" font-family="Helvetica,sans-Serif" font-size="10.00">&#45;OS/no&#45;OS/projects/ad</text>
<text text-anchor="start" x="161.5" y="-106" font-family="Helvetica,sans-Serif" font-size="10.00">&#45;acevsecrdset&#45;sl/src/common</text>
<text text-anchor="middle" x="233.5" y="-95" font-family="Helvetica,sans-Serif" font-size="10.00">/common_data.h</text>
</a>
</g>
</g>
<!-- Node1&#45;&gt;Node3 -->
<g id="edge2_Node000001_Node000003" class="edge">
<title>Node1&#45;&gt;Node3</title>
<g id="a_edge2_Node000001_Node000003"><a xlink:title=" ">
<path fill="none" stroke="#63b8ff" d="M289.35,-168.52C279.79,-159.36 269.15,-149.17 259.75,-140.16"/>
<polygon fill="#63b8ff" stroke="#63b8ff" points="287.09,-171.21 296.74,-175.6 291.94,-166.16 287.09,-171.21"/>
</a>
</g>
</g>
<!-- Node5 -->
<g id="Node000005" class="node">
<title>Node5</title>
<g id="a_Node000005"><a xlink:href="pilot_8c.html" target="_top" xlink:title="Pilot phase implementation file.">
<polygon fill="white" stroke="#666666" points="471,-140 332,-140 332,-88 471,-88 471,-140"/>
<text text-anchor="start" x="340" y="-128" font-family="Helvetica,sans-Serif" font-size="10.00">/home/runner/work/no</text>
<text text-anchor="start" x="340" y="-117" font-family="Helvetica,sans-Serif" font-size="10.00">&#45;OS/no&#45;OS/projects/ad</text>
<text text-anchor="start" x="340" y="-106" font-family="Helvetica,sans-Serif" font-size="10.00">&#45;acevsecrdset&#45;sl/src/pilot</text>
<text text-anchor="middle" x="401.5" y="-95" font-family="Helvetica,sans-Serif" font-size="10.00">/pilot.c</text>
</a>
</g>
</g>
<!-- Node1&#45;&gt;Node5 -->
<g id="edge4_Node000001_Node000005" class="edge">
<title>Node1&#45;&gt;Node5</title>
<g id="a_edge4_Node000001_Node000005"><a xlink:title=" ">
<path fill="none" stroke="#63b8ff" d="M345.65,-168.52C355.21,-159.36 365.85,-149.17 375.25,-140.16"/>
<polygon fill="#63b8ff" stroke="#63b8ff" points="343.06,-166.16 338.26,-175.6 347.91,-171.21 343.06,-166.16"/>
</a>
</g>
</g>
<!-- Node6 -->
<g id="Node000006" class="node">
<title>Node6</title>
<g id="a_Node000006"><a xlink:href="state__machine_8c.html" target="_top" xlink:title="STOUT state machine implementation file.">
<polygon fill="white" stroke="#666666" points="636,-140 489,-140 489,-88 636,-88 636,-140"/>
<text text-anchor="start" x="497" y="-128" font-family="Helvetica,sans-Serif" font-size="10.00">/home/runner/work/no</text>
<text text-anchor="start" x="497" y="-117" font-family="Helvetica,sans-Serif" font-size="10.00">&#45;OS/no&#45;OS/projects/ad</text>
<text text-anchor="start" x="497" y="-106" font-family="Helvetica,sans-Serif" font-size="10.00">&#45;acevsecrdset&#45;sl/src/state</text>
<text text-anchor="middle" x="562.5" y="-95" font-family="Helvetica,sans-Serif" font-size="10.00">_machine/state_machine.c</text>
</a>
</g>
</g>
<!-- Node1&#45;&gt;Node6 -->
<g id="edge5_Node000001_Node000006" class="edge">
<title>Node1&#45;&gt;Node6</title>
<g id="a_edge5_Node000001_Node000006"><a xlink:title=" ">
<path fill="none" stroke="#63b8ff" d="M386.78,-172.74C418.55,-162.3 456.25,-149.91 488.56,-139.29"/>
<polygon fill="#63b8ff" stroke="#63b8ff" points="385.53,-169.46 377.12,-175.91 387.71,-176.11 385.53,-169.46"/>
</a>
</g>
</g>
<!-- Node4 -->
<g id="Node000004" class="node">
<title>Node4</title>
<g id="a_Node000004"><a xlink:href="ad-acevsecrdset-sl_2src_2common_2common__data_8c.html" target="_top" xlink:title="Defines common data to be used by the STOUT project.">
<polygon fill="white" stroke="#666666" points="313.5,-52 153.5,-52 153.5,0 313.5,0 313.5,-52"/>
<text text-anchor="start" x="161.5" y="-40" font-family="Helvetica,sans-Serif" font-size="10.00">/home/runner/work/no</text>
<text text-anchor="start" x="161.5" y="-29" font-family="Helvetica,sans-Serif" font-size="10.00">&#45;OS/no&#45;OS/projects/ad</text>
<text text-anchor="start" x="161.5" y="-18" font-family="Helvetica,sans-Serif" font-size="10.00">&#45;acevsecrdset&#45;sl/src/common</text>
<text text-anchor="middle" x="233.5" y="-7" font-family="Helvetica,sans-Serif" font-size="10.00">/common_data.c</text>
</a>
</g>
</g>
<!-- Node3&#45;&gt;Node4 -->
<g id="edge3_Node000003_Node000004" class="edge">
<title>Node3&#45;&gt;Node4</title>
<g id="a_edge3_Node000003_Node000004"><a xlink:title=" ">
<path fill="none" stroke="#63b8ff" d="M233.5,-77.56C233.5,-69.04 233.5,-60.1 233.5,-52.16"/>
<polygon fill="#63b8ff" stroke="#63b8ff" points="230,-77.66 233.5,-87.66 237,-77.66 230,-77.66"/>
</a>
</g>
</g>
</g>
</svg>
