<?xml version="1.0" encoding="UTF-8" standalone="no"?>
<!DOCTYPE svg PUBLIC "-//W3C//DTD SVG 1.1//EN"
 "http://www.w3.org/Graphics/SVG/1.1/DTD/svg11.dtd">
<!-- Generated by graphviz version 2.43.0 (0)
 -->
<!-- Title: /home/runner/work/no&#45;OS/no&#45;OS/drivers/meter/ade9153a/ade9153a.h Pages: 1 -->
<svg width="525pt" height="203pt"
 viewBox="0.00 0.00 524.50 203.00" xmlns="http://www.w3.org/2000/svg" xmlns:xlink="http://www.w3.org/1999/xlink">
<g id="graph0" class="graph" transform="scale(1 1) rotate(0) translate(4 199)">
<title>/home/runner/work/no&#45;OS/no&#45;OS/drivers/meter/ade9153a/ade9153a.h</title>
<!-- Node1 -->
<g id="Node000001" class="node">
<title>Node1</title>
<g id="a_Node000001"><a xlink:title="Header file of ADE9153A Driver.">
<polygon fill="#999999" stroke="#666666" points="327,-195 192,-195 192,-154 327,-154 327,-195"/>
<text text-anchor="start" x="200" y="-183" font-family="Helvetica,sans-Serif" font-size="10.00">/home/runner/work/no</text>
<text text-anchor="start" x="200" y="-172" font-family="Helvetica,sans-Serif" font-size="10.00">&#45;OS/no&#45;OS/drivers/meter</text>
<text text-anchor="middle" x="259.5" y="-161" font-family="Helvetica,sans-Serif" font-size="10.00">/ade9153a/ade9153a.h</text>
</a>
</g>
</g>
<!-- Node2 -->
<g id="Node000002" class="node">
<title>Node2</title>
<g id="a_Node000002"><a xlink:href="ade9153a_8c.html" target="_top" xlink:title="Implementation of ADE9153A Driver.">
<polygon fill="white" stroke="#666666" points="135,-118 0,-118 0,-77 135,-77 135,-118"/>
<text text-anchor="start" x="8" y="-106" font-family="Helvetica,sans-Serif" font-size="10.00">/home/runner/work/no</text>
<text text-anchor="start" x="8" y="-95" font-family="Helvetica,sans-Serif" font-size="10.00">&#45;OS/no&#45;OS/drivers/meter</text>
<text text-anchor="middle" x="67.5" y="-84" font-family="Helvetica,sans-Serif" font-size="10.00">/ade9153a/ade9153a.c</text>
</a>
</g>
</g>
<!-- Node1&#45;&gt;Node2 -->
<g id="edge1_Node000001_Node000002" class="edge">
<title>Node1&#45;&gt;Node2</title>
<g id="a_edge1_Node000001_Node000002"><a xlink:title=" ">
<path fill="none" stroke="#63b8ff" d="M200.03,-150.27C173.57,-139.94 142.77,-127.9 117.53,-118.04"/>
<polygon fill="#63b8ff" stroke="#63b8ff" points="198.97,-153.61 209.56,-153.99 201.51,-147.09 198.97,-153.61"/>
</a>
</g>
</g>
<!-- Node3 -->
<g id="Node000003" class="node">
<title>Node3</title>
<g id="a_Node000003"><a xlink:href="eval-ade9153a_2src_2common_2common__data_8h.html" target="_top" xlink:title="Defines common data to be used by ADE9153A example project.">
<polygon fill="white" stroke="#666666" points="366,-118 153,-118 153,-77 366,-77 366,-118"/>
<text text-anchor="start" x="161" y="-106" font-family="Helvetica,sans-Serif" font-size="10.00">/home/runner/work/no</text>
<text text-anchor="start" x="161" y="-95" font-family="Helvetica,sans-Serif" font-size="10.00">&#45;OS/no&#45;OS/projects/eval</text>
<text text-anchor="middle" x="259.5" y="-84" font-family="Helvetica,sans-Serif" font-size="10.00">&#45;ade9153a/src/common/common_data.h</text>
</a>
</g>
</g>
<!-- Node1&#45;&gt;Node3 -->
<g id="edge2_Node000001_Node000003" class="edge">
<title>Node1&#45;&gt;Node3</title>
<g id="a_edge2_Node000001_Node000003"><a xlink:title=" ">
<path fill="none" stroke="#63b8ff" d="M259.5,-143.69C259.5,-135.08 259.5,-125.9 259.5,-118.07"/>
<polygon fill="#63b8ff" stroke="#63b8ff" points="256,-143.79 259.5,-153.79 263,-143.79 256,-143.79"/>
</a>
</g>
</g>
<!-- Node5 -->
<g id="Node000005" class="node">
<title>Node5</title>
<g id="a_Node000005"><a xlink:href="eval-ade9153a_2src_2main_8c.html" target="_top" xlink:title="Main function of ADE9153A example.">
<polygon fill="white" stroke="#666666" points="516.5,-118 384.5,-118 384.5,-77 516.5,-77 516.5,-118"/>
<text text-anchor="start" x="392.5" y="-106" font-family="Helvetica,sans-Serif" font-size="10.00">/home/runner/work/no</text>
<text text-anchor="start" x="392.5" y="-95" font-family="Helvetica,sans-Serif" font-size="10.00">&#45;OS/no&#45;OS/projects/eval</text>
<text text-anchor="middle" x="450.5" y="-84" font-family="Helvetica,sans-Serif" font-size="10.00">&#45;ade9153a/src/main.c</text>
</a>
</g>
</g>
<!-- Node1&#45;&gt;Node5 -->
<g id="edge4_Node000001_Node000005" class="edge">
<title>Node1&#45;&gt;Node5</title>
<g id="a_edge4_Node000001_Node000005"><a xlink:title=" ">
<path fill="none" stroke="#63b8ff" d="M318.67,-150.27C344.98,-139.94 375.62,-127.9 400.73,-118.04"/>
<polygon fill="#63b8ff" stroke="#63b8ff" points="317.21,-147.08 309.18,-153.99 319.77,-153.59 317.21,-147.08"/>
</a>
</g>
</g>
<!-- Node4 -->
<g id="Node000004" class="node">
<title>Node4</title>
<g id="a_Node000004"><a xlink:href="eval-ade9153a_2src_2common_2common__data_8c.html" target="_top" xlink:title="Defines common data to be used by ADE9153A example project.">
<polygon fill="white" stroke="#666666" points="365.5,-41 153.5,-41 153.5,0 365.5,0 365.5,-41"/>
<text text-anchor="start" x="161.5" y="-29" font-family="Helvetica,sans-Serif" font-size="10.00">/home/runner/work/no</text>
<text text-anchor="start" x="161.5" y="-18" font-family="Helvetica,sans-Serif" font-size="10.00">&#45;OS/no&#45;OS/projects/eval</text>
<text text-anchor="middle" x="259.5" y="-7" font-family="Helvetica,sans-Serif" font-size="10.00">&#45;ade9153a/src/common/common_data.c</text>
</a>
</g>
</g>
<!-- Node3&#45;&gt;Node4 -->
<g id="edge3_Node000003_Node000004" class="edge">
<title>Node3&#45;&gt;Node4</title>
<g id="a_edge3_Node000003_Node000004"><a xlink:title=" ">
<path fill="none" stroke="#63b8ff" d="M259.5,-66.69C259.5,-58.08 259.5,-48.9 259.5,-41.07"/>
<polygon fill="#63b8ff" stroke="#63b8ff" points="256,-66.79 259.5,-76.79 263,-66.79 256,-66.79"/>
</a>
</g>
</g>
</g>
</svg>
