<?xml version="1.0" encoding="UTF-8" standalone="no"?>
<!DOCTYPE svg PUBLIC "-//W3C//DTD SVG 1.1//EN"
 "http://www.w3.org/Graphics/SVG/1.1/DTD/svg11.dtd">
<!-- Generated by graphviz version 2.43.0 (0)
 -->
<!-- Title: /home/runner/work/no&#45;OS/no&#45;OS/drivers/meter/ade9078/ade9078.h Pages: 1 -->
<svg width="491pt" height="203pt"
 viewBox="0.00 0.00 491.00 203.00" xmlns="http://www.w3.org/2000/svg" xmlns:xlink="http://www.w3.org/1999/xlink">
<g id="graph0" class="graph" transform="scale(1 1) rotate(0) translate(4 199)">
<title>/home/runner/work/no&#45;OS/no&#45;OS/drivers/meter/ade9078/ade9078.h</title>
<!-- Node1 -->
<g id="Node000001" class="node">
<title>Node1</title>
<g id="a_Node000001"><a xlink:title="Header file of ADE9078 Driver.">
<polygon fill="#999999" stroke="#666666" points="287,-195 152,-195 152,-154 287,-154 287,-195"/>
<text text-anchor="start" x="160" y="-183" font-family="Helvetica,sans-Serif" font-size="10.00">/home/runner/work/no</text>
<text text-anchor="start" x="160" y="-172" font-family="Helvetica,sans-Serif" font-size="10.00">&#45;OS/no&#45;OS/drivers/meter</text>
<text text-anchor="middle" x="219.5" y="-161" font-family="Helvetica,sans-Serif" font-size="10.00">/ade9078/ade9078.h</text>
</a>
</g>
</g>
<!-- Node2 -->
<g id="Node000002" class="node">
<title>Node2</title>
<g id="a_Node000002"><a xlink:href="ade9078_8c.html" target="_top" xlink:title="Implementation of ADE9078 Driver.">
<polygon fill="white" stroke="#666666" points="135,-118 0,-118 0,-77 135,-77 135,-118"/>
<text text-anchor="start" x="8" y="-106" font-family="Helvetica,sans-Serif" font-size="10.00">/home/runner/work/no</text>
<text text-anchor="start" x="8" y="-95" font-family="Helvetica,sans-Serif" font-size="10.00">&#45;OS/no&#45;OS/drivers/meter</text>
<text text-anchor="middle" x="67.5" y="-84" font-family="Helvetica,sans-Serif" font-size="10.00">/ade9078/ade9078.c</text>
</a>
</g>
</g>
<!-- Node1&#45;&gt;Node2 -->
<g id="edge1_Node000001_Node000002" class="edge">
<title>Node1&#45;&gt;Node2</title>
<g id="a_edge1_Node000001_Node000002"><a xlink:title=" ">
<path fill="none" stroke="#63b8ff" d="M170.76,-149.45C150.19,-139.3 126.57,-127.64 107.11,-118.04"/>
<polygon fill="#63b8ff" stroke="#63b8ff" points="169.44,-152.7 179.96,-153.99 172.54,-146.43 169.44,-152.7"/>
</a>
</g>
</g>
<!-- Node3 -->
<g id="Node000003" class="node">
<title>Node3</title>
<g id="a_Node000003"><a xlink:href="eval-ade9078_2src_2main_8c.html" target="_top" xlink:title="Main function of ADE9078 example.">
<polygon fill="white" stroke="#666666" points="285.5,-118 153.5,-118 153.5,-77 285.5,-77 285.5,-118"/>
<text text-anchor="start" x="161.5" y="-106" font-family="Helvetica,sans-Serif" font-size="10.00">/home/runner/work/no</text>
<text text-anchor="start" x="161.5" y="-95" font-family="Helvetica,sans-Serif" font-size="10.00">&#45;OS/no&#45;OS/projects/eval</text>
<text text-anchor="middle" x="219.5" y="-84" font-family="Helvetica,sans-Serif" font-size="10.00">&#45;ade9078/src/main.c</text>
</a>
</g>
</g>
<!-- Node1&#45;&gt;Node3 -->
<g id="edge2_Node000001_Node000003" class="edge">
<title>Node1&#45;&gt;Node3</title>
<g id="a_edge2_Node000001_Node000003"><a xlink:title=" ">
<path fill="none" stroke="#63b8ff" d="M219.5,-143.69C219.5,-135.08 219.5,-125.9 219.5,-118.07"/>
<polygon fill="#63b8ff" stroke="#63b8ff" points="216,-143.79 219.5,-153.79 223,-143.79 216,-143.79"/>
</a>
</g>
</g>
<!-- Node4 -->
<g id="Node000004" class="node">
<title>Node4</title>
<g id="a_Node000004"><a xlink:href="eval-ade9078_2src_2platform_2platform_8h.html" target="_top" xlink:title="Defines common data to be used by ADE9078 example project.">
<polygon fill="white" stroke="#666666" points="483,-118 304,-118 304,-77 483,-77 483,-118"/>
<text text-anchor="start" x="312" y="-106" font-family="Helvetica,sans-Serif" font-size="10.00">/home/runner/work/no</text>
<text text-anchor="start" x="312" y="-95" font-family="Helvetica,sans-Serif" font-size="10.00">&#45;OS/no&#45;OS/projects/eval</text>
<text text-anchor="middle" x="393.5" y="-84" font-family="Helvetica,sans-Serif" font-size="10.00">&#45;ade9078/src/platform/platform.h</text>
</a>
</g>
</g>
<!-- Node1&#45;&gt;Node4 -->
<g id="edge3_Node000001_Node000004" class="edge">
<title>Node1&#45;&gt;Node4</title>
<g id="a_edge3_Node000001_Node000004"><a xlink:title=" ">
<path fill="none" stroke="#63b8ff" d="M274.03,-150C297.86,-139.72 325.48,-127.82 348.16,-118.04"/>
<polygon fill="#63b8ff" stroke="#63b8ff" points="272.56,-146.82 264.76,-153.99 275.33,-153.25 272.56,-146.82"/>
</a>
</g>
</g>
<!-- Node5 -->
<g id="Node000005" class="node">
<title>Node5</title>
<g id="a_Node000005"><a xlink:href="eval-ade9078_2src_2platform_2platform_8c.html" target="_top" xlink:title="Defines common data to be used by ADE9078 example project.">
<polygon fill="white" stroke="#666666" points="482.5,-41 304.5,-41 304.5,0 482.5,0 482.5,-41"/>
<text text-anchor="start" x="312.5" y="-29" font-family="Helvetica,sans-Serif" font-size="10.00">/home/runner/work/no</text>
<text text-anchor="start" x="312.5" y="-18" font-family="Helvetica,sans-Serif" font-size="10.00">&#45;OS/no&#45;OS/projects/eval</text>
<text text-anchor="middle" x="393.5" y="-7" font-family="Helvetica,sans-Serif" font-size="10.00">&#45;ade9078/src/platform/platform.c</text>
</a>
</g>
</g>
<!-- Node4&#45;&gt;Node5 -->
<g id="edge4_Node000004_Node000005" class="edge">
<title>Node4&#45;&gt;Node5</title>
<g id="a_edge4_Node000004_Node000005"><a xlink:title=" ">
<path fill="none" stroke="#63b8ff" d="M393.5,-66.69C393.5,-58.08 393.5,-48.9 393.5,-41.07"/>
<polygon fill="#63b8ff" stroke="#63b8ff" points="390,-66.79 393.5,-76.79 397,-66.79 390,-66.79"/>
</a>
</g>
</g>
</g>
</svg>
