<?xml version="1.0" encoding="UTF-8" standalone="no"?>
<!DOCTYPE svg PUBLIC "-//W3C//DTD SVG 1.1//EN"
 "http://www.w3.org/Graphics/SVG/1.1/DTD/svg11.dtd">
<!-- Generated by graphviz version 2.43.0 (0)
 -->
<!-- Title: /home/runner/work/no&#45;OS/no&#45;OS/drivers/meter/ade9430/ade9430.h Pages: 1 -->
<!--zoomable 478 -->

<svg id="main" version="1.1" xmlns="http://www.w3.org/2000/svg" xmlns:xlink="http://www.w3.org/1999/xlink" xml:space="preserve" onload="init(evt)">

<style type="text/css"><![CDATA[
.node, .edge {opacity: 0.7;}
.node.selected, .edge.selected {opacity: 1;}
.edge:hover path { stroke: red; }
.edge:hover polygon { stroke: red; fill: red; }
]]></style>

<defs>
  <circle id="rim" cx="0" cy="0" r="7"/>
  <circle id="rim2" cx="0" cy="0" r="3.5"/>
  <g id="zoomPlus">
    <use xlink:href="#rim" fill="#404040"><set attributeName="fill" to="#808080" begin="zoomplus.mouseover" end="zoomplus.mouseout"/></use>
    <path d="M-4,0h8M0,-4v8" fill="none" stroke="white" stroke-width="1.5" pointer-events="none"/>
  </g>
  <g id="zoomMin">
    <use xlink:href="#rim" fill="#404040"><set attributeName="fill" to="#808080" begin="zoomminus.mouseover" end="zoomminus.mouseout"/></use>
    <path d="M-4,0h8" fill="none" stroke="white" stroke-width="1.5" pointer-events="none"/>
  </g>
  <g id="arrowUp" transform="translate(30 24)">
    <use xlink:href="#rim"/>
    <path pointer-events="none" fill="none" stroke="white" stroke-width="1.5" d="M0,-3.0v7 M-2.5,-0.5L0,-3.0L2.5,-0.5"/>
  </g>
  <g id="arrowRight" transform="rotate(90) translate(36 -43)">
    <use xlink:href="#rim"/>
    <path pointer-events="none" fill="none" stroke="white" stroke-width="1.5" d="M0,-3.0v7 M-2.5,-0.5L0,-3.0L2.5,-0.5"/>
  </g>
  <g id="arrowDown" transform="rotate(180) translate(-30 -48)">
    <use xlink:href="#rim"/>
    <path pointer-events="none" fill="none" stroke="white" stroke-width="1.5" d="M0,-3.0v7 M-2.5,-0.5L0,-3.0L2.5,-0.5"/>
  </g>
  <g id="arrowLeft" transform="rotate(270) translate(-36 17)">
    <use xlink:href="#rim"/>
    <path pointer-events="none" fill="none" stroke="white" stroke-width="1.5" d="M0,-3.0v7 M-2.5,-0.5L0,-3.0L2.5,-0.5"/>
  </g>
  <g id="resetDef">
    <use xlink:href="#rim2" fill="#404040"><set attributeName="fill" to="#808080" begin="reset.mouseover" end="reset.mouseout"/></use>
  </g>
</defs>
<script type="application/ecmascript">
var viewWidth = 1094;
var viewHeight = 478;
var sectionId = 'dynsection-1';
</script>
<script type="application/ecmascript" xlink:href="svg.min.js"/>
<svg id="graph" class="graph">
<g id="viewport">
<title>/home/runner/work/no&#45;OS/no&#45;OS/drivers/meter/ade9430/ade9430.h</title>
<!-- Node1 -->
<g id="Node000001" class="node">
<title>Node1</title>
<g id="a_Node000001"><a xlink:title="Header file of ADE9430 Driver.">
<polygon fill="#999999" stroke="#666666" points="593.5,-470 458.5,-470 458.5,-429 593.5,-429 593.5,-470"/>
<text text-anchor="start" x="466.5" y="-458" font-family="Helvetica,sans-Serif" font-size="10.00">/home/runner/work/no</text>
<text text-anchor="start" x="466.5" y="-447" font-family="Helvetica,sans-Serif" font-size="10.00">&#45;OS/no&#45;OS/drivers/meter</text>
<text text-anchor="middle" x="526" y="-436" font-family="Helvetica,sans-Serif" font-size="10.00">/ade9430/ade9430.h</text>
</a>
</g>
</g>
<!-- Node2 -->
<g id="Node000002" class="node">
<title>Node2</title>
<g id="a_Node000002"><a xlink:href="ade9430_8c.html" target="_top" xlink:title="Implementation of ADE9430 Driver.">
<polygon fill="white" stroke="#666666" points="180.5,-387.5 45.5,-387.5 45.5,-346.5 180.5,-346.5 180.5,-387.5"/>
<text text-anchor="start" x="53.5" y="-375.5" font-family="Helvetica,sans-Serif" font-size="10.00">/home/runner/work/no</text>
<text text-anchor="start" x="53.5" y="-364.5" font-family="Helvetica,sans-Serif" font-size="10.00">&#45;OS/no&#45;OS/drivers/meter</text>
<text text-anchor="middle" x="113" y="-353.5" font-family="Helvetica,sans-Serif" font-size="10.00">/ade9430/ade9430.c</text>
</a>
</g>
</g>
<!-- Node1&#45;&gt;Node2 -->
<g id="edge1_Node000001_Node000002" class="edge">
<title>Node1&#45;&gt;Node2</title>
<g id="a_edge1_Node000001_Node000002"><a xlink:title=" ">
<path fill="none" stroke="#63b8ff" d="M448.18,-439.02C379.65,-429.88 277.43,-414.29 190,-393 183.45,-391.4 176.64,-389.53 169.91,-387.53"/>
<polygon fill="#63b8ff" stroke="#63b8ff" points="448.09,-442.54 458.46,-440.38 449.01,-435.6 448.09,-442.54"/>
</a>
</g>
</g>
<!-- Node3 -->
<g id="Node000003" class="node">
<title>Node3</title>
<g id="a_Node000003"><a xlink:href="eval-ade9430_2src_2app_2main_8c.html" target="_top" xlink:title="Main file for EVAL&#45;ADE9430 project.">
<polygon fill="white" stroke="#666666" points="335.5,-387.5 198.5,-387.5 198.5,-346.5 335.5,-346.5 335.5,-387.5"/>
<text text-anchor="start" x="206.5" y="-375.5" font-family="Helvetica,sans-Serif" font-size="10.00">/home/runner/work/no</text>
<text text-anchor="start" x="206.5" y="-364.5" font-family="Helvetica,sans-Serif" font-size="10.00">&#45;OS/no&#45;OS/projects/eval</text>
<text text-anchor="middle" x="267" y="-353.5" font-family="Helvetica,sans-Serif" font-size="10.00">&#45;ade9430/src/app/main.c</text>
</a>
</g>
</g>
<!-- Node1&#45;&gt;Node3 -->
<g id="edge2_Node000001_Node000003" class="edge">
<title>Node1&#45;&gt;Node3</title>
<g id="a_edge2_Node000001_Node000003"><a xlink:title=" ">
<path fill="none" stroke="#63b8ff" d="M451.49,-425.89C418.79,-415.9 379.96,-403.96 345,-393 339.44,-391.26 333.65,-389.43 327.87,-387.59"/>
<polygon fill="#63b8ff" stroke="#63b8ff" points="450.85,-429.35 461.44,-428.92 452.89,-422.65 450.85,-429.35"/>
</a>
</g>
</g>
<!-- Node4 -->
<g id="Node000004" class="node">
<title>Node4</title>
<g id="a_Node000004"><a xlink:href="afe__calibration_8c.html" target="_top" xlink:title=" ">
<polygon fill="white" stroke="#666666" points="513.5,-299.5 312.5,-299.5 312.5,-258.5 513.5,-258.5 513.5,-299.5"/>
<text text-anchor="start" x="320.5" y="-287.5" font-family="Helvetica,sans-Serif" font-size="10.00">/home/runner/work/no</text>
<text text-anchor="start" x="320.5" y="-276.5" font-family="Helvetica,sans-Serif" font-size="10.00">&#45;OS/no&#45;OS/projects/eval</text>
<text text-anchor="middle" x="413" y="-265.5" font-family="Helvetica,sans-Serif" font-size="10.00">&#45;pqmon/src/common/afe_calibration.c</text>
</a>
</g>
</g>
<!-- Node1&#45;&gt;Node4 -->
<g id="edge3_Node000001_Node000004" class="edge">
<title>Node1&#45;&gt;Node4</title>
<g id="a_edge3_Node000001_Node000004"><a xlink:title=" ">
<path fill="none" stroke="#63b8ff" d="M526.95,-418.74C526.31,-395.74 522.27,-364.05 507,-341 495.29,-323.32 476.51,-309.64 458.8,-299.75"/>
<polygon fill="#63b8ff" stroke="#63b8ff" points="523.45,-418.97 527.04,-428.94 530.45,-418.92 523.45,-418.97"/>
</a>
</g>
</g>
<!-- Node5 -->
<g id="Node000005" class="node">
<title>Node5</title>
<g id="a_Node000005"><a xlink:href="afe__config_8h.html" target="_top" xlink:title=" ">
<polygon fill="white" stroke="#666666" points="864.5,-387.5 685.5,-387.5 685.5,-346.5 864.5,-346.5 864.5,-387.5"/>
<text text-anchor="start" x="693.5" y="-375.5" font-family="Helvetica,sans-Serif" font-size="10.00">/home/runner/work/no</text>
<text text-anchor="start" x="693.5" y="-364.5" font-family="Helvetica,sans-Serif" font-size="10.00">&#45;OS/no&#45;OS/projects/eval</text>
<text text-anchor="middle" x="775" y="-353.5" font-family="Helvetica,sans-Serif" font-size="10.00">&#45;pqmon/src/common/afe_config.h</text>
</a>
</g>
</g>
<!-- Node1&#45;&gt;Node5 -->
<g id="edge4_Node000001_Node000005" class="edge">
<title>Node1&#45;&gt;Node5</title>
<g id="a_edge4_Node000001_Node000005"><a xlink:title=" ">
<path fill="none" stroke="#63b8ff" d="M596.38,-425.75C633.63,-413.7 678.92,-399.06 714.57,-387.54"/>
<polygon fill="#63b8ff" stroke="#63b8ff" points="595.03,-422.5 586.59,-428.91 597.19,-429.16 595.03,-422.5"/>
</a>
</g>
</g>
<!-- Node7 -->
<g id="Node000007" class="node">
<title>Node7</title>
<g id="a_Node000007"><a xlink:href="flash__storage_8c.html" target="_top" xlink:title=" ">
<polygon fill="white" stroke="#666666" points="674.5,-305 531.5,-305 531.5,-253 674.5,-253 674.5,-305"/>
<text text-anchor="start" x="539.5" y="-293" font-family="Helvetica,sans-Serif" font-size="10.00">/home/runner/work/no</text>
<text text-anchor="start" x="539.5" y="-282" font-family="Helvetica,sans-Serif" font-size="10.00">&#45;OS/no&#45;OS/projects/eval</text>
<text text-anchor="start" x="539.5" y="-271" font-family="Helvetica,sans-Serif" font-size="10.00">&#45;pqmon/src/common/flash</text>
<text text-anchor="middle" x="603" y="-260" font-family="Helvetica,sans-Serif" font-size="10.00">_storage.c</text>
</a>
</g>
</g>
<!-- Node1&#45;&gt;Node7 -->
<g id="edge19_Node000001_Node000007" class="edge">
<title>Node1&#45;&gt;Node7</title>
<g id="a_edge19_Node000001_Node000007"><a xlink:title=" ">
<path fill="none" stroke="#63b8ff" d="M539.25,-419.52C553.95,-387.33 577.46,-335.89 591.45,-305.28"/>
<polygon fill="#63b8ff" stroke="#63b8ff" points="535.96,-418.29 534.98,-428.84 542.32,-421.2 535.96,-418.29"/>
</a>
</g>
</g>
<!-- Node8 -->
<g id="Node000008" class="node">
<title>Node8</title>
<g id="a_Node000008"><a xlink:href="pqlib__afe_8h.html" target="_top" xlink:title=" ">
<polygon fill="white" stroke="#666666" points="867,-299.5 693,-299.5 693,-258.5 867,-258.5 867,-299.5"/>
<text text-anchor="start" x="701" y="-287.5" font-family="Helvetica,sans-Serif" font-size="10.00">/home/runner/work/no</text>
<text text-anchor="start" x="701" y="-276.5" font-family="Helvetica,sans-Serif" font-size="10.00">&#45;OS/no&#45;OS/projects/eval</text>
<text text-anchor="middle" x="780" y="-265.5" font-family="Helvetica,sans-Serif" font-size="10.00">&#45;pqmon/src/common/pqlib_afe.h</text>
</a>
</g>
</g>
<!-- Node1&#45;&gt;Node8 -->
<g id="edge20_Node000001_Node000008" class="edge">
<title>Node1&#45;&gt;Node8</title>
<g id="a_edge20_Node000001_Node000008"><a xlink:title=" ">
<path fill="none" stroke="#63b8ff" d="M560.1,-422.98C590.34,-400.65 635.95,-367.7 677,-341 699.3,-326.5 725.05,-311.25 745.22,-299.62"/>
<polygon fill="#63b8ff" stroke="#63b8ff" points="557.95,-420.22 551.99,-428.98 562.11,-425.84 557.95,-420.22"/>
</a>
</g>
</g>
<!-- Node16 -->
<g id="Node000016" class="node">
<title>Node16</title>
<g id="a_Node000016"><a xlink:href="pqlib__example_8h.html" target="_top" xlink:title=" ">
<polygon fill="white" stroke="#666666" points="498,-393 354,-393 354,-341 498,-341 498,-393"/>
<text text-anchor="start" x="362" y="-381" font-family="Helvetica,sans-Serif" font-size="10.00">/home/runner/work/no</text>
<text text-anchor="start" x="362" y="-370" font-family="Helvetica,sans-Serif" font-size="10.00">&#45;OS/no&#45;OS/projects/eval</text>
<text text-anchor="start" x="362" y="-359" font-family="Helvetica,sans-Serif" font-size="10.00">&#45;pqmon/src/common/pqlib</text>
<text text-anchor="middle" x="426" y="-348" font-family="Helvetica,sans-Serif" font-size="10.00">_example.h</text>
</a>
</g>
</g>
<!-- Node1&#45;&gt;Node16 -->
<g id="edge21_Node000001_Node000016" class="edge">
<title>Node1&#45;&gt;Node16</title>
<g id="a_edge21_Node000001_Node000016"><a xlink:title=" ">
<path fill="none" stroke="#63b8ff" d="M493.75,-422.54C482.1,-413.16 468.97,-402.59 457.4,-393.28"/>
<polygon fill="#63b8ff" stroke="#63b8ff" points="491.55,-425.26 501.54,-428.81 495.94,-419.81 491.55,-425.26"/>
</a>
</g>
</g>
<!-- Node5&#45;&gt;Node4 -->
<g id="edge5_Node000005_Node000004" class="edge">
<title>Node5&#45;&gt;Node4</title>
<g id="a_edge5_Node000005_Node000004"><a xlink:title=" ">
<path fill="none" stroke="#63b8ff" d="M682.98,-344.14C625.09,-330.39 551.03,-312.79 495.13,-299.51"/>
<polygon fill="#63b8ff" stroke="#63b8ff" points="682.32,-347.58 692.86,-346.49 683.94,-340.77 682.32,-347.58"/>
</a>
</g>
</g>
<!-- Node6 -->
<g id="Node000006" class="node">
<title>Node6</title>
<g id="a_Node000006"><a xlink:href="afe__config_8c.html" target="_top" xlink:title=" ">
<polygon fill="white" stroke="#666666" points="1064.5,-299.5 885.5,-299.5 885.5,-258.5 1064.5,-258.5 1064.5,-299.5"/>
<text text-anchor="start" x="893.5" y="-287.5" font-family="Helvetica,sans-Serif" font-size="10.00">/home/runner/work/no</text>
<text text-anchor="start" x="893.5" y="-276.5" font-family="Helvetica,sans-Serif" font-size="10.00">&#45;OS/no&#45;OS/projects/eval</text>
<text text-anchor="middle" x="975" y="-265.5" font-family="Helvetica,sans-Serif" font-size="10.00">&#45;pqmon/src/common/afe_config.c</text>
</a>
</g>
</g>
<!-- Node5&#45;&gt;Node6 -->
<g id="edge6_Node000005_Node000006" class="edge">
<title>Node5&#45;&gt;Node6</title>
<g id="a_edge6_Node000005_Node000006"><a xlink:title=" ">
<path fill="none" stroke="#63b8ff" d="M829.83,-342.42C861.11,-328.97 899.86,-312.31 929.45,-299.59"/>
<polygon fill="#63b8ff" stroke="#63b8ff" points="828.19,-339.32 820.38,-346.49 830.95,-345.75 828.19,-339.32"/>
</a>
</g>
</g>
<!-- Node5&#45;&gt;Node7 -->
<g id="edge7_Node000005_Node000007" class="edge">
<title>Node5&#45;&gt;Node7</title>
<g id="a_edge7_Node000005_Node000007"><a xlink:title=" ">
<path fill="none" stroke="#63b8ff" d="M726.78,-341.89C703.87,-330.43 676.49,-316.74 653.31,-305.16"/>
<polygon fill="#63b8ff" stroke="#63b8ff" points="725.46,-345.14 735.97,-346.49 728.59,-338.88 725.46,-345.14"/>
</a>
</g>
</g>
<!-- Node5&#45;&gt;Node8 -->
<g id="edge8_Node000005_Node000008" class="edge">
<title>Node5&#45;&gt;Node8</title>
<g id="a_edge8_Node000005_Node000008"><a xlink:title=" ">
<path fill="none" stroke="#63b8ff" d="M776.72,-336.36C777.43,-324.26 778.22,-310.58 778.85,-299.74"/>
<polygon fill="#63b8ff" stroke="#63b8ff" points="773.22,-336.3 776.13,-346.49 780.21,-336.71 773.22,-336.3"/>
</a>
</g>
</g>
<!-- Node9 -->
<g id="Node000009" class="node">
<title>Node9</title>
<g id="a_Node000009"><a xlink:href="iio__pqm_8h.html" target="_top" xlink:title=" ">
<polygon fill="white" stroke="#666666" points="330,-217 162,-217 162,-176 330,-176 330,-217"/>
<text text-anchor="start" x="170" y="-205" font-family="Helvetica,sans-Serif" font-size="10.00">/home/runner/work/no</text>
<text text-anchor="start" x="170" y="-194" font-family="Helvetica,sans-Serif" font-size="10.00">&#45;OS/no&#45;OS/projects/eval</text>
<text text-anchor="middle" x="246" y="-183" font-family="Helvetica,sans-Serif" font-size="10.00">&#45;pqmon/src/common/iio_pqm.h</text>
</a>
</g>
</g>
<!-- Node8&#45;&gt;Node9 -->
<g id="edge9_Node000008_Node000009" class="edge">
<title>Node8&#45;&gt;Node9</title>
<g id="a_edge9_Node000008_Node000009"><a xlink:title=" ">
<path fill="none" stroke="#63b8ff" d="M699.28,-256.18C694.12,-255.04 689,-253.96 684,-253 561.88,-229.46 418.62,-213.47 330.07,-204.91"/>
<polygon fill="#63b8ff" stroke="#63b8ff" points="698.67,-259.64 709.2,-258.47 700.24,-252.81 698.67,-259.64"/>
</a>
</g>
</g>
<!-- Node14 -->
<g id="Node000014" class="node">
<title>Node14</title>
<g id="a_Node000014"><a xlink:href="pqlib__afe_8c.html" target="_top" xlink:title=" ">
<polygon fill="white" stroke="#666666" points="520.5,-134.5 347.5,-134.5 347.5,-93.5 520.5,-93.5 520.5,-134.5"/>
<text text-anchor="start" x="355.5" y="-122.5" font-family="Helvetica,sans-Serif" font-size="10.00">/home/runner/work/no</text>
<text text-anchor="start" x="355.5" y="-111.5" font-family="Helvetica,sans-Serif" font-size="10.00">&#45;OS/no&#45;OS/projects/eval</text>
<text text-anchor="middle" x="434" y="-100.5" font-family="Helvetica,sans-Serif" font-size="10.00">&#45;pqmon/src/common/pqlib_afe.c</text>
</a>
</g>
</g>
<!-- Node8&#45;&gt;Node14 -->
<g id="edge18_Node000008_Node000014" class="edge">
<title>Node8&#45;&gt;Node14</title>
<g id="a_edge18_Node000008_Node000014"><a xlink:title=" ">
<path fill="none" stroke="#63b8ff" d="M728.92,-253.94C660.16,-221.54 539.14,-164.53 475.61,-134.6"/>
<polygon fill="#63b8ff" stroke="#63b8ff" points="727.73,-257.24 738.26,-258.34 730.71,-250.91 727.73,-257.24"/>
</a>
</g>
</g>
<!-- Node10 -->
<g id="Node000010" class="node">
<title>Node10</title>
<g id="a_Node000010"><a xlink:href="eval-pqmon_2src_2common_2common__data_8h.html" target="_top" xlink:title=" ">
<polygon fill="white" stroke="#666666" points="737.5,-134.5 538.5,-134.5 538.5,-93.5 737.5,-93.5 737.5,-134.5"/>
<text text-anchor="start" x="546.5" y="-122.5" font-family="Helvetica,sans-Serif" font-size="10.00">/home/runner/work/no</text>
<text text-anchor="start" x="546.5" y="-111.5" font-family="Helvetica,sans-Serif" font-size="10.00">&#45;OS/no&#45;OS/projects/eval</text>
<text text-anchor="middle" x="638" y="-100.5" font-family="Helvetica,sans-Serif" font-size="10.00">&#45;pqmon/src/common/common_data.h</text>
</a>
</g>
</g>
<!-- Node9&#45;&gt;Node10 -->
<g id="edge10_Node000009_Node000010" class="edge">
<title>Node9&#45;&gt;Node10</title>
<g id="a_edge10_Node000009_Node000010"><a xlink:title=" ">
<path fill="none" stroke="#63b8ff" d="M340.07,-175.01C419.36,-159.58 441.85,-156.81 521,-140 529.1,-138.28 537.52,-136.43 545.97,-134.55"/>
<polygon fill="#63b8ff" stroke="#63b8ff" points="339.25,-171.61 330.11,-176.96 340.59,-178.48 339.25,-171.61"/>
</a>
</g>
</g>
<!-- Node13 -->
<g id="Node000013" class="node">
<title>Node13</title>
<g id="a_Node000013"><a xlink:href="iio__pqm_8c.html" target="_top" xlink:title=" ">
<polygon fill="white" stroke="#666666" points="329.5,-134.5 162.5,-134.5 162.5,-93.5 329.5,-93.5 329.5,-134.5"/>
<text text-anchor="start" x="170.5" y="-122.5" font-family="Helvetica,sans-Serif" font-size="10.00">/home/runner/work/no</text>
<text text-anchor="start" x="170.5" y="-111.5" font-family="Helvetica,sans-Serif" font-size="10.00">&#45;OS/no&#45;OS/projects/eval</text>
<text text-anchor="middle" x="246" y="-100.5" font-family="Helvetica,sans-Serif" font-size="10.00">&#45;pqmon/src/common/iio_pqm.c</text>
</a>
</g>
</g>
<!-- Node9&#45;&gt;Node13 -->
<g id="edge15_Node000009_Node000013" class="edge">
<title>Node9&#45;&gt;Node13</title>
<g id="a_edge15_Node000009_Node000013"><a xlink:title=" ">
<path fill="none" stroke="#63b8ff" d="M246,-165.37C246,-155.1 246,-143.9 246,-134.67"/>
<polygon fill="#63b8ff" stroke="#63b8ff" points="242.5,-165.6 246,-175.6 249.5,-165.6 242.5,-165.6"/>
</a>
</g>
</g>
<!-- Node9&#45;&gt;Node14 -->
<g id="edge16_Node000009_Node000014" class="edge">
<title>Node9&#45;&gt;Node14</title>
<g id="a_edge16_Node000009_Node000014"><a xlink:title=" ">
<path fill="none" stroke="#63b8ff" d="M301.51,-171.73C329.09,-159.92 362.03,-145.82 388.16,-134.63"/>
<polygon fill="#63b8ff" stroke="#63b8ff" points="299.8,-168.65 291.99,-175.81 302.56,-175.09 299.8,-168.65"/>
</a>
</g>
</g>
<!-- Node15 -->
<g id="Node000015" class="node">
<title>Node15</title>
<g id="a_Node000015"><a xlink:href="pqlib__example_8c.html" target="_top" xlink:title=" ">
<polygon fill="white" stroke="#666666" points="144,-140 0,-140 0,-88 144,-88 144,-140"/>
<text text-anchor="start" x="8" y="-128" font-family="Helvetica,sans-Serif" font-size="10.00">/home/runner/work/no</text>
<text text-anchor="start" x="8" y="-117" font-family="Helvetica,sans-Serif" font-size="10.00">&#45;OS/no&#45;OS/projects/eval</text>
<text text-anchor="start" x="8" y="-106" font-family="Helvetica,sans-Serif" font-size="10.00">&#45;pqmon/src/common/pqlib</text>
<text text-anchor="middle" x="72" y="-95" font-family="Helvetica,sans-Serif" font-size="10.00">_example.c</text>
</a>
</g>
</g>
<!-- Node9&#45;&gt;Node15 -->
<g id="edge17_Node000009_Node000015" class="edge">
<title>Node9&#45;&gt;Node15</title>
<g id="a_edge17_Node000009_Node000015"><a xlink:title=" ">
<path fill="none" stroke="#63b8ff" d="M194.18,-171.53C172.78,-161.63 147.97,-150.14 126.31,-140.13"/>
<polygon fill="#63b8ff" stroke="#63b8ff" points="192.89,-174.79 203.43,-175.81 195.83,-168.43 192.89,-174.79"/>
</a>
</g>
</g>
<!-- Node10&#45;&gt;Node5 -->
<g id="edge11_Node000010_Node000005" class="edge">
<title>Node10&#45;&gt;Node5</title>
<g id="a_edge11_Node000010_Node000005"><a xlink:title=" ">
<path fill="none" stroke="#63b8ff" d="M747.52,-134.5C863.47,-157.64 1035.08,-199.86 1074,-253 1131.05,-330.9 972.42,-355.11 864.94,-362.62"/>
<polygon fill="#63b8ff" stroke="#63b8ff" points="748.01,-131.03 737.52,-132.52 746.66,-137.9 748.01,-131.03"/>
</a>
</g>
</g>
<!-- Node10&#45;&gt;Node9 -->
<g id="edge13_Node000010_Node000009" class="edge">
<title>Node10&#45;&gt;Node9</title>
<g id="a_edge13_Node000010_Node000009"><a xlink:title=" ">
<path fill="none" stroke="#63b8ff" d="M554.08,-136.73C548.99,-137.86 543.93,-138.95 539,-140 456.64,-157.5 435.62,-159.78 353,-176 345.6,-177.45 337.88,-178.98 330.12,-180.5"/>
<polygon fill="#63b8ff" stroke="#63b8ff" points="554.89,-140.14 563.89,-134.55 553.37,-133.31 554.89,-140.14"/>
</a>
</g>
</g>
<!-- Node11 -->
<g id="Node000011" class="node">
<title>Node11</title>
<g id="a_Node000011"><a xlink:href="eval-pqmon_2src_2common_2common__data_8c.html" target="_top" xlink:title=" ">
<polygon fill="white" stroke="#666666" points="642,-46.5 444,-46.5 444,-5.5 642,-5.5 642,-46.5"/>
<text text-anchor="start" x="452" y="-34.5" font-family="Helvetica,sans-Serif" font-size="10.00">/home/runner/work/no</text>
<text text-anchor="start" x="452" y="-23.5" font-family="Helvetica,sans-Serif" font-size="10.00">&#45;OS/no&#45;OS/projects/eval</text>
<text text-anchor="middle" x="543" y="-12.5" font-family="Helvetica,sans-Serif" font-size="10.00">&#45;pqmon/src/common/common_data.c</text>
</a>
</g>
</g>
<!-- Node10&#45;&gt;Node11 -->
<g id="edge12_Node000010_Node000011" class="edge">
<title>Node10&#45;&gt;Node11</title>
<g id="a_edge12_Node000010_Node000011"><a xlink:title=" ">
<path fill="none" stroke="#63b8ff" d="M608.86,-86.62C594.66,-73.77 577.87,-58.57 564.8,-46.74"/>
<polygon fill="#63b8ff" stroke="#63b8ff" points="606.68,-89.37 616.44,-93.49 611.38,-84.18 606.68,-89.37"/>
</a>
</g>
</g>
<!-- Node12 -->
<g id="Node000012" class="node">
<title>Node12</title>
<g id="a_Node000012"><a xlink:href="pqlib__convert_8c.html" target="_top" xlink:title=" ">
<polygon fill="white" stroke="#666666" points="804,-52 660,-52 660,0 804,0 804,-52"/>
<text text-anchor="start" x="668" y="-40" font-family="Helvetica,sans-Serif" font-size="10.00">/home/runner/work/no</text>
<text text-anchor="start" x="668" y="-29" font-family="Helvetica,sans-Serif" font-size="10.00">&#45;OS/no&#45;OS/projects/eval</text>
<text text-anchor="start" x="668" y="-18" font-family="Helvetica,sans-Serif" font-size="10.00">&#45;pqmon/src/common/pqlib</text>
<text text-anchor="middle" x="732" y="-7" font-family="Helvetica,sans-Serif" font-size="10.00">_convert.c</text>
</a>
</g>
</g>
<!-- Node10&#45;&gt;Node12 -->
<g id="edge14_Node000010_Node000012" class="edge">
<title>Node10&#45;&gt;Node12</title>
<g id="a_edge14_Node000010_Node000012"><a xlink:title=" ">
<path fill="none" stroke="#63b8ff" d="M666.86,-86.6C678.78,-75.69 692.53,-63.11 704.33,-52.32"/>
<polygon fill="#63b8ff" stroke="#63b8ff" points="664.35,-84.15 659.33,-93.49 669.07,-89.32 664.35,-84.15"/>
</a>
</g>
</g>
<!-- Node16&#45;&gt;Node4 -->
<g id="edge22_Node000016_Node000004" class="edge">
<title>Node16&#45;&gt;Node4</title>
<g id="a_edge22_Node000016_Node000004"><a xlink:title=" ">
<path fill="none" stroke="#63b8ff" d="M420.63,-330.45C419.04,-319.94 417.36,-308.82 415.98,-299.7"/>
<polygon fill="#63b8ff" stroke="#63b8ff" points="417.21,-331.3 422.17,-340.66 424.14,-330.25 417.21,-331.3"/>
</a>
</g>
</g>
<!-- Node16&#45;&gt;Node7 -->
<g id="edge24_Node000016_Node000007" class="edge">
<title>Node16&#45;&gt;Node7</title>
<g id="a_edge24_Node000016_Node000007"><a xlink:title=" ">
<path fill="none" stroke="#63b8ff" d="M486.82,-336.45C507.79,-326.26 531.08,-314.94 551.26,-305.14"/>
<polygon fill="#63b8ff" stroke="#63b8ff" points="485.14,-333.38 477.67,-340.89 488.2,-339.67 485.14,-333.38"/>
</a>
</g>
</g>
<!-- Node16&#45;&gt;Node8 -->
<g id="edge26_Node000016_Node000008" class="edge">
<title>Node16&#45;&gt;Node8</title>
<g id="a_edge26_Node000016_Node000008"><a xlink:title=" ">
<path fill="none" stroke="#63b8ff" d="M508.05,-347.1C558.81,-335.28 625.27,-319.59 684,-305 691.02,-303.26 698.32,-301.41 705.62,-299.55"/>
<polygon fill="#63b8ff" stroke="#63b8ff" points="507.06,-343.74 498.11,-349.41 508.65,-350.55 507.06,-343.74"/>
</a>
</g>
</g>
<!-- Node16&#45;&gt;Node9 -->
<g id="edge25_Node000016_Node000009" class="edge">
<title>Node16&#45;&gt;Node9</title>
<g id="a_edge25_Node000016_Node000009"><a xlink:title=" ">
<path fill="none" stroke="#63b8ff" d="M344.07,-337.73C309.38,-325.07 275.6,-311.53 270,-305 248.84,-280.32 245.2,-241.01 245.14,-217.39"/>
<polygon fill="#63b8ff" stroke="#63b8ff" points="343.27,-341.16 353.86,-341.27 345.65,-334.58 343.27,-341.16"/>
</a>
</g>
</g>
<!-- Node16&#45;&gt;Node10 -->
<g id="edge23_Node000016_Node000010" class="edge">
<title>Node16&#45;&gt;Node10</title>
<g id="a_edge23_Node000016_Node000010"><a xlink:title=" ">
<path fill="none" stroke="#63b8ff" d="M352.08,-336.8C330.1,-326.53 310.21,-315.05 304,-305 291.85,-285.34 291.15,-272.21 304,-253 334.3,-207.69 477.33,-160.32 566.11,-134.55"/>
<polygon fill="#63b8ff" stroke="#63b8ff" points="350.69,-340.01 361.25,-340.97 353.59,-333.64 350.69,-340.01"/>
</a>
</g>
</g>
<!-- Node16&#45;&gt;Node15 -->
<g id="edge27_Node000016_Node000015" class="edge">
<title>Node16&#45;&gt;Node15</title>
<g id="a_edge27_Node000016_Node000015"><a xlink:title=" ">
<path fill="none" stroke="#63b8ff" d="M344.29,-340.44C300.35,-326.37 253.29,-310.64 244,-305 173.27,-262.02 114.52,-181.2 87.68,-140.21"/>
<polygon fill="#63b8ff" stroke="#63b8ff" points="343.31,-343.8 353.9,-343.51 345.44,-337.13 343.31,-343.8"/>
</a>
</g>
</g>
</g>
</svg>

<g id="navigator" transform="translate(0 0)" fill="#404254">
  <rect fill="#f2f5e9" fill-opacity="0.5" stroke="#606060" stroke-width=".5" x="0" y="0" width="60" height="60"/>
  <use id="zoomplus" xlink:href="#zoomPlus" x="17" y="9" onmousedown="handleZoom(evt,'in')"/>
  <use id="zoomminus" xlink:href="#zoomMin" x="42" y="9" onmousedown="handleZoom(evt,'out')"/>
  <use id="reset" xlink:href="#resetDef" x="30" y="36" onmousedown="handleReset()"/>
   <use id="arrowup" xlink:href="#arrowUp" x="0" y="0" onmousedown="handlePan(0,-1)"/>
  <use id="arrowright" xlink:href="#arrowRight" x="0" y="0" onmousedown="handlePan(1,0)"/>
  <use id="arrowdown" xlink:href="#arrowDown" x="0" y="0" onmousedown="handlePan(0,1)"/>
  <use id="arrowleft" xlink:href="#arrowLeft" x="0" y="0" onmousedown="handlePan(-1,0)"/>
</g>
<svg viewBox="0 0 15 15" width="100%" height="30px" preserveAspectRatio="xMaxYMin meet">
 <g id="arrow_out" transform="scale(0.3 0.3)">
  <a xlink:href="ade9430_8h__dep__incl_org.svg" target="_base">
   <rect id="button" ry="5" rx="5" y="6" x="6" height="38" width="38"
        fill="#f2f5e9" fill-opacity="0.5" stroke="#606060" stroke-width="1.0"/>
   <path id="arrow"
     d="M 11.500037,31.436501 C 11.940474,20.09759 22.043105,11.32322 32.158766,21.979434 L 37.068811,17.246167 C 37.068811,17.246167 37.088388,32 37.088388,32 L 22.160133,31.978069 C 22.160133,31.978069 26.997745,27.140456 26.997745,27.140456 C 18.528582,18.264221 13.291696,25.230495 11.500037,31.436501 z"
     style="fill:#404040;"/>
  </a>
 </g>
</svg>

<style type='text/css'>
<![CDATA[
[data-mouse-over-selected='false'] { opacity: 0.7; }
[data-mouse-over-selected='true']  { opacity: 1.0; }
]]>
</style>
<script type="application/ecmascript"><![CDATA[
document.addEventListener('DOMContentLoaded', (event) => {
  highlightEdges();
  highlightAdjacentNodes();
});
]]></script>
</svg>
