<?xml version="1.0" encoding="UTF-8" standalone="no"?>
<!DOCTYPE svg PUBLIC "-//W3C//DTD SVG 1.1//EN"
 "http://www.w3.org/Graphics/SVG/1.1/DTD/svg11.dtd">
<!-- Generated by graphviz version 2.43.0 (0)
 -->
<!-- Title: /home/runner/work/no&#45;OS/no&#45;OS/projects/adf4377_sdz/src/examples/basic/basic_example.c Pages: 1 -->
<svg width="684pt" height="225pt"
 viewBox="0.00 0.00 683.50 225.00" xmlns="http://www.w3.org/2000/svg" xmlns:xlink="http://www.w3.org/1999/xlink">
<g id="graph0" class="graph" transform="scale(1 1) rotate(0) translate(4 221)">
<title>/home/runner/work/no&#45;OS/no&#45;OS/projects/adf4377_sdz/src/examples/basic/basic_example.c</title>
<!-- Node1 -->
<g id="Node000001" class="node">
<title>Node1</title>
<g id="a_Node000001"><a xlink:title="Basic example eval&#45;adf4377 project.">
<polygon fill="#999999" stroke="#666666" points="392,-217 228,-217 228,-165 392,-165 392,-217"/>
<text text-anchor="start" x="236" y="-205" font-family="Helvetica,sans-Serif" font-size="10.00">/home/runner/work/no</text>
<text text-anchor="start" x="236" y="-194" font-family="Helvetica,sans-Serif" font-size="10.00">&#45;OS/no&#45;OS/projects/adf4377</text>
<text text-anchor="start" x="236" y="-183" font-family="Helvetica,sans-Serif" font-size="10.00">_sdz/src/examples/basic/basic</text>
<text text-anchor="middle" x="310" y="-172" font-family="Helvetica,sans-Serif" font-size="10.00">_example.c</text>
</a>
</g>
</g>
<!-- Node2 -->
<g id="Node000002" class="node">
<title>Node2</title>
<g id="a_Node000002"><a xlink:title=" ">
<polygon fill="#e0e0e0" stroke="#999999" points="168,-74 118,-74 118,-55 168,-55 168,-74"/>
<text text-anchor="middle" x="143" y="-62" font-family="Helvetica,sans-Serif" font-size="10.00">stdio.h</text>
</a>
</g>
</g>
<!-- Node1&#45;&gt;Node2 -->
<g id="edge1_Node000001_Node000002" class="edge">
<title>Node1&#45;&gt;Node2</title>
<g id="a_edge1_Node000001_Node000002"><a xlink:title=" ">
<path fill="none" stroke="#63b8ff" d="M345.85,-164.78C364.39,-148.66 380.41,-127.57 366,-110 354.16,-95.57 238.08,-78.17 178.26,-70.07"/>
<polygon fill="#63b8ff" stroke="#63b8ff" points="178.51,-66.57 168.13,-68.71 177.58,-73.51 178.51,-66.57"/>
</a>
</g>
</g>
<!-- Node3 -->
<g id="Node000003" class="node">
<title>Node3</title>
<g id="a_Node000003"><a xlink:title=" ">
<polygon fill="#e0e0e0" stroke="#999999" points="173.5,-129 120.5,-129 120.5,-110 173.5,-110 173.5,-129"/>
<text text-anchor="middle" x="147" y="-117" font-family="Helvetica,sans-Serif" font-size="10.00">string.h</text>
</a>
</g>
</g>
<!-- Node1&#45;&gt;Node3 -->
<g id="edge2_Node000001_Node000003" class="edge">
<title>Node1&#45;&gt;Node3</title>
<g id="a_edge2_Node000001_Node000003"><a xlink:title=" ">
<path fill="none" stroke="#63b8ff" d="M251.15,-164.91C225.8,-154.1 197.28,-141.94 176.5,-133.08"/>
<polygon fill="#63b8ff" stroke="#63b8ff" points="177.82,-129.84 167.25,-129.14 175.08,-136.28 177.82,-129.84"/>
</a>
</g>
</g>
<!-- Node4 -->
<g id="Node000004" class="node">
<title>Node4</title>
<g id="a_Node000004"><a xlink:title=" ">
<polygon fill="#e0e0e0" stroke="#999999" points="244.5,-129 191.5,-129 191.5,-110 244.5,-110 244.5,-129"/>
<text text-anchor="middle" x="218" y="-117" font-family="Helvetica,sans-Serif" font-size="10.00">ctype.h</text>
</a>
</g>
</g>
<!-- Node1&#45;&gt;Node4 -->
<g id="edge3_Node000001_Node000004" class="edge">
<title>Node1&#45;&gt;Node4</title>
<g id="a_edge3_Node000001_Node000004"><a xlink:title=" ">
<path fill="none" stroke="#63b8ff" d="M276.79,-164.91C263.66,-154.99 249.03,-143.94 237.64,-135.34"/>
<polygon fill="#63b8ff" stroke="#63b8ff" points="239.74,-132.54 229.65,-129.3 235.52,-138.12 239.74,-132.54"/>
</a>
</g>
</g>
<!-- Node5 -->
<g id="Node000005" class="node">
<title>Node5</title>
<g id="a_Node000005"><a xlink:title=" ">
<polygon fill="#e0e0e0" stroke="#999999" points="357.5,-129 262.5,-129 262.5,-110 357.5,-110 357.5,-129"/>
<text text-anchor="middle" x="310" y="-117" font-family="Helvetica,sans-Serif" font-size="10.00">common_data.h</text>
</a>
</g>
</g>
<!-- Node1&#45;&gt;Node5 -->
<g id="edge4_Node000001_Node000005" class="edge">
<title>Node1&#45;&gt;Node5</title>
<g id="a_edge4_Node000001_Node000005"><a xlink:title=" ">
<path fill="none" stroke="#63b8ff" d="M310,-164.91C310,-156.55 310,-147.38 310,-139.55"/>
<polygon fill="#63b8ff" stroke="#63b8ff" points="313.5,-139.3 310,-129.3 306.5,-139.3 313.5,-139.3"/>
</a>
</g>
</g>
<!-- Node6 -->
<g id="Node000006" class="node">
<title>Node6</title>
<g id="a_Node000006"><a xlink:href="no__os__delay_8h.html" target="_top" xlink:title="Header file of Delay functions.">
<polygon fill="white" stroke="#666666" points="675.5,-74 590.5,-74 590.5,-55 675.5,-55 675.5,-74"/>
<text text-anchor="middle" x="633" y="-62" font-family="Helvetica,sans-Serif" font-size="10.00">no_os_delay.h</text>
</a>
</g>
</g>
<!-- Node1&#45;&gt;Node6 -->
<g id="edge5_Node000001_Node000006" class="edge">
<title>Node1&#45;&gt;Node6</title>
<g id="a_edge5_Node000001_Node000006"><a xlink:title=" ">
<path fill="none" stroke="#63b8ff" d="M387.61,-164.96C418.99,-154.43 455.43,-141.69 488,-129 529.46,-112.85 576.48,-91.73 605.44,-78.38"/>
<polygon fill="#63b8ff" stroke="#63b8ff" points="607.29,-81.38 614.89,-74.01 604.35,-75.03 607.29,-81.38"/>
</a>
</g>
</g>
<!-- Node8 -->
<g id="Node000008" class="node">
<title>Node8</title>
<g id="a_Node000008"><a xlink:href="no__os__print__log_8h.html" target="_top" xlink:title="Print messages helpers.">
<polygon fill="white" stroke="#666666" points="102,-129 0,-129 0,-110 102,-110 102,-129"/>
<text text-anchor="middle" x="51" y="-117" font-family="Helvetica,sans-Serif" font-size="10.00">no_os_print_log.h</text>
</a>
</g>
</g>
<!-- Node1&#45;&gt;Node8 -->
<g id="edge7_Node000001_Node000008" class="edge">
<title>Node1&#45;&gt;Node8</title>
<g id="a_edge7_Node000001_Node000008"><a xlink:title=" ">
<path fill="none" stroke="#63b8ff" d="M227.69,-167.91C182.74,-155.85 129,-141.43 92.69,-131.69"/>
<polygon fill="#63b8ff" stroke="#63b8ff" points="93.49,-128.28 82.93,-129.07 91.68,-135.04 93.49,-128.28"/>
</a>
</g>
</g>
<!-- Node9 -->
<g id="Node000009" class="node">
<title>Node9</title>
<g id="a_Node000009"><a xlink:href="adf4377_8h.html" target="_top" xlink:title="Header file for adf4377 Driver.">
<polygon fill="white" stroke="#666666" points="479.5,-129 414.5,-129 414.5,-110 479.5,-110 479.5,-129"/>
<text text-anchor="middle" x="447" y="-117" font-family="Helvetica,sans-Serif" font-size="10.00">adf4377.h</text>
</a>
</g>
</g>
<!-- Node1&#45;&gt;Node9 -->
<g id="edge9_Node000001_Node000009" class="edge">
<title>Node1&#45;&gt;Node9</title>
<g id="a_edge9_Node000001_Node000009"><a xlink:title=" ">
<path fill="none" stroke="#63b8ff" d="M359.46,-164.91C380.28,-154.35 403.66,-142.49 421.01,-133.68"/>
<polygon fill="#63b8ff" stroke="#63b8ff" points="422.64,-136.78 429.98,-129.14 419.48,-130.54 422.64,-136.78"/>
</a>
</g>
</g>
<!-- Node7 -->
<g id="Node000007" class="node">
<title>Node7</title>
<g id="a_Node000007"><a xlink:title=" ">
<polygon fill="#e0e0e0" stroke="#999999" points="520.5,-19 467.5,-19 467.5,0 520.5,0 520.5,-19"/>
<text text-anchor="middle" x="494" y="-7" font-family="Helvetica,sans-Serif" font-size="10.00">stdint.h</text>
</a>
</g>
</g>
<!-- Node6&#45;&gt;Node7 -->
<g id="edge6_Node000006_Node000007" class="edge">
<title>Node6&#45;&gt;Node7</title>
<g id="a_edge6_Node000006_Node000007"><a xlink:title=" ">
<path fill="none" stroke="#63b8ff" d="M610.67,-54.98C587.8,-46.27 552.04,-32.63 526.14,-22.75"/>
<polygon fill="#63b8ff" stroke="#63b8ff" points="527.33,-19.46 516.74,-19.17 524.84,-26 527.33,-19.46"/>
</a>
</g>
</g>
<!-- Node8&#45;&gt;Node2 -->
<g id="edge8_Node000008_Node000002" class="edge">
<title>Node8&#45;&gt;Node2</title>
<g id="a_edge8_Node000008_Node000002"><a xlink:title=" ">
<path fill="none" stroke="#63b8ff" d="M65.78,-109.98C80.18,-101.69 102.31,-88.94 119.19,-79.22"/>
<polygon fill="#63b8ff" stroke="#63b8ff" points="121.03,-82.19 127.95,-74.17 117.54,-76.13 121.03,-82.19"/>
</a>
</g>
</g>
<!-- Node9&#45;&gt;Node7 -->
<g id="edge10_Node000009_Node000007" class="edge">
<title>Node9&#45;&gt;Node7</title>
<g id="a_edge10_Node000009_Node000007"><a xlink:title=" ">
<path fill="none" stroke="#63b8ff" d="M479.74,-112.72C501.74,-106.95 529.16,-95.67 543,-74 554.34,-56.25 535.17,-37.31 517.59,-24.78"/>
<polygon fill="#63b8ff" stroke="#63b8ff" points="519.49,-21.83 509.23,-19.18 515.59,-27.65 519.49,-21.83"/>
</a>
</g>
</g>
<!-- Node10 -->
<g id="Node000010" class="node">
<title>Node10</title>
<g id="a_Node000010"><a xlink:title=" ">
<polygon fill="#e0e0e0" stroke="#999999" points="271,-19 209,-19 209,0 271,0 271,-19"/>
<text text-anchor="middle" x="240" y="-7" font-family="Helvetica,sans-Serif" font-size="10.00">stdbool.h</text>
</a>
</g>
</g>
<!-- Node9&#45;&gt;Node10 -->
<g id="edge11_Node000009_Node000010" class="edge">
<title>Node9&#45;&gt;Node10</title>
<g id="a_edge11_Node000009_Node000010"><a xlink:title=" ">
<path fill="none" stroke="#63b8ff" d="M414.24,-112.59C363.44,-103.14 270.28,-84.64 259,-74 246.85,-62.54 242.37,-43.65 240.77,-29.45"/>
<polygon fill="#63b8ff" stroke="#63b8ff" points="244.24,-29.01 240.01,-19.3 237.26,-29.53 244.24,-29.01"/>
</a>
</g>
</g>
<!-- Node11 -->
<g id="Node000011" class="node">
<title>Node11</title>
<g id="a_Node000011"><a xlink:href="no__os__spi_8h.html" target="_top" xlink:title="Header file of SPI Interface.">
<polygon fill="white" stroke="#666666" points="436,-74 362,-74 362,-55 436,-55 436,-74"/>
<text text-anchor="middle" x="399" y="-62" font-family="Helvetica,sans-Serif" font-size="10.00">no_os_spi.h</text>
</a>
</g>
</g>
<!-- Node9&#45;&gt;Node11 -->
<g id="edge12_Node000009_Node000011" class="edge">
<title>Node9&#45;&gt;Node11</title>
<g id="a_edge12_Node000009_Node000011"><a xlink:title=" ">
<path fill="none" stroke="#63b8ff" d="M439.07,-109.75C432.15,-102.11 421.93,-90.82 413.55,-81.56"/>
<polygon fill="#63b8ff" stroke="#63b8ff" points="416.09,-79.15 406.78,-74.09 410.9,-83.85 416.09,-79.15"/>
</a>
</g>
</g>
<!-- Node12 -->
<g id="Node000012" class="node">
<title>Node12</title>
<g id="a_Node000012"><a xlink:href="no__os__gpio_8h.html" target="_top" xlink:title="Header file of GPIO Interface.">
<polygon fill="white" stroke="#666666" points="534,-74 454,-74 454,-55 534,-55 534,-74"/>
<text text-anchor="middle" x="494" y="-62" font-family="Helvetica,sans-Serif" font-size="10.00">no_os_gpio.h</text>
</a>
</g>
</g>
<!-- Node9&#45;&gt;Node12 -->
<g id="edge14_Node000009_Node000012" class="edge">
<title>Node9&#45;&gt;Node12</title>
<g id="a_edge14_Node000009_Node000012"><a xlink:title=" ">
<path fill="none" stroke="#63b8ff" d="M454.76,-109.75C461.47,-102.18 471.34,-91.05 479.51,-81.84"/>
<polygon fill="#63b8ff" stroke="#63b8ff" points="482.37,-83.89 486.38,-74.09 477.13,-79.25 482.37,-83.89"/>
</a>
</g>
</g>
<!-- Node13 -->
<g id="Node000013" class="node">
<title>Node13</title>
<g id="a_Node000013"><a xlink:href="no__os__util_8h.html" target="_top" xlink:title="Header file of utility functions.">
<polygon fill="white" stroke="#666666" points="343.5,-74 268.5,-74 268.5,-55 343.5,-55 343.5,-74"/>
<text text-anchor="middle" x="306" y="-62" font-family="Helvetica,sans-Serif" font-size="10.00">no_os_util.h</text>
</a>
</g>
</g>
<!-- Node9&#45;&gt;Node13 -->
<g id="edge16_Node000009_Node000013" class="edge">
<title>Node9&#45;&gt;Node13</title>
<g id="a_edge16_Node000009_Node000013"><a xlink:title=" ">
<path fill="none" stroke="#63b8ff" d="M424.35,-109.98C401.15,-101.27 364.88,-87.63 338.6,-77.75"/>
<polygon fill="#63b8ff" stroke="#63b8ff" points="339.66,-74.41 329.07,-74.17 337.2,-80.97 339.66,-74.41"/>
</a>
</g>
</g>
<!-- Node11&#45;&gt;Node7 -->
<g id="edge13_Node000011_Node000007" class="edge">
<title>Node11&#45;&gt;Node7</title>
<g id="a_edge13_Node000011_Node000007"><a xlink:title=" ">
<path fill="none" stroke="#63b8ff" d="M414.26,-54.98C429.13,-46.69 451.98,-33.94 469.42,-24.22"/>
<polygon fill="#63b8ff" stroke="#63b8ff" points="471.43,-27.1 478.46,-19.17 468.02,-20.99 471.43,-27.1"/>
</a>
</g>
</g>
<!-- Node12&#45;&gt;Node7 -->
<g id="edge15_Node000012_Node000007" class="edge">
<title>Node12&#45;&gt;Node7</title>
<g id="a_edge15_Node000012_Node000007"><a xlink:title=" ">
<path fill="none" stroke="#63b8ff" d="M494,-54.75C494,-47.8 494,-37.85 494,-29.13"/>
<polygon fill="#63b8ff" stroke="#63b8ff" points="497.5,-29.09 494,-19.09 490.5,-29.09 497.5,-29.09"/>
</a>
</g>
</g>
<!-- Node13&#45;&gt;Node7 -->
<g id="edge17_Node000013_Node000007" class="edge">
<title>Node13&#45;&gt;Node7</title>
<g id="a_edge17_Node000013_Node000007"><a xlink:title=" ">
<path fill="none" stroke="#63b8ff" d="M336.21,-54.98C369.18,-45.69 421.97,-30.81 457.3,-20.85"/>
<polygon fill="#63b8ff" stroke="#63b8ff" points="458.54,-24.13 467.22,-18.05 456.64,-17.39 458.54,-24.13"/>
</a>
</g>
</g>
<!-- Node13&#45;&gt;Node10 -->
<g id="edge19_Node000013_Node000010" class="edge">
<title>Node13&#45;&gt;Node10</title>
<g id="a_edge19_Node000013_Node000010"><a xlink:title=" ">
<path fill="none" stroke="#63b8ff" d="M295.4,-54.98C285.54,-47.07 270.65,-35.11 258.78,-25.58"/>
<polygon fill="#63b8ff" stroke="#63b8ff" points="260.79,-22.7 250.8,-19.17 256.4,-28.16 260.79,-22.7"/>
</a>
</g>
</g>
<!-- Node14 -->
<g id="Node000014" class="node">
<title>Node14</title>
<g id="a_Node000014"><a xlink:title=" ">
<polygon fill="#e0e0e0" stroke="#999999" points="342.5,-19 289.5,-19 289.5,0 342.5,0 342.5,-19"/>
<text text-anchor="middle" x="316" y="-7" font-family="Helvetica,sans-Serif" font-size="10.00">stdlib.h</text>
</a>
</g>
</g>
<!-- Node13&#45;&gt;Node14 -->
<g id="edge18_Node000013_Node000014" class="edge">
<title>Node13&#45;&gt;Node14</title>
<g id="a_edge18_Node000013_Node000014"><a xlink:title=" ">
<path fill="none" stroke="#63b8ff" d="M307.65,-54.75C308.96,-47.8 310.84,-37.85 312.48,-29.13"/>
<polygon fill="#63b8ff" stroke="#63b8ff" points="315.96,-29.56 314.38,-19.09 309.09,-28.27 315.96,-29.56"/>
</a>
</g>
</g>
</g>
</svg>
