<?xml version="1.0" encoding="UTF-8" standalone="no"?>
<!DOCTYPE svg PUBLIC "-//W3C//DTD SVG 1.1//EN"
 "http://www.w3.org/Graphics/SVG/1.1/DTD/svg11.dtd">
<!-- Generated by graphviz version 2.43.0 (0)
 -->
<!-- Title: /home/runner/work/no&#45;OS/no&#45;OS/drivers/frequency/adf4030/adf4030.h Pages: 1 -->
<svg width="515pt" height="203pt"
 viewBox="0.00 0.00 515.00 203.00" xmlns="http://www.w3.org/2000/svg" xmlns:xlink="http://www.w3.org/1999/xlink">
<g id="graph0" class="graph" transform="scale(1 1) rotate(0) translate(4 199)">
<title>/home/runner/work/no&#45;OS/no&#45;OS/drivers/frequency/adf4030/adf4030.h</title>
<!-- Node1 -->
<g id="Node000001" class="node">
<title>Node1</title>
<g id="a_Node000001"><a xlink:title="Implementation of ADF4030 Driver.">
<polygon fill="#999999" stroke="#666666" points="328,-195 173,-195 173,-154 328,-154 328,-195"/>
<text text-anchor="start" x="181" y="-183" font-family="Helvetica,sans-Serif" font-size="10.00">/home/runner/work/no</text>
<text text-anchor="start" x="181" y="-172" font-family="Helvetica,sans-Serif" font-size="10.00">&#45;OS/no&#45;OS/drivers/frequency</text>
<text text-anchor="middle" x="250.5" y="-161" font-family="Helvetica,sans-Serif" font-size="10.00">/adf4030/adf4030.h</text>
</a>
</g>
</g>
<!-- Node2 -->
<g id="Node000002" class="node">
<title>Node2</title>
<g id="a_Node000002"><a xlink:href="adf4030_8c.html" target="_top" xlink:title="Implementation of ADF4030 Driver.">
<polygon fill="white" stroke="#666666" points="155,-118 0,-118 0,-77 155,-77 155,-118"/>
<text text-anchor="start" x="8" y="-106" font-family="Helvetica,sans-Serif" font-size="10.00">/home/runner/work/no</text>
<text text-anchor="start" x="8" y="-95" font-family="Helvetica,sans-Serif" font-size="10.00">&#45;OS/no&#45;OS/drivers/frequency</text>
<text text-anchor="middle" x="77.5" y="-84" font-family="Helvetica,sans-Serif" font-size="10.00">/adf4030/adf4030.c</text>
</a>
</g>
</g>
<!-- Node1&#45;&gt;Node2 -->
<g id="edge1_Node000001_Node000002" class="edge">
<title>Node1&#45;&gt;Node2</title>
<g id="a_edge1_Node000001_Node000002"><a xlink:title=" ">
<path fill="none" stroke="#63b8ff" d="M196.28,-150C172.59,-139.72 145.13,-127.82 122.58,-118.04"/>
<polygon fill="#63b8ff" stroke="#63b8ff" points="194.93,-153.22 205.5,-153.99 197.72,-146.8 194.93,-153.22"/>
</a>
</g>
</g>
<!-- Node3 -->
<g id="Node000003" class="node">
<title>Node3</title>
<g id="a_Node000003"><a xlink:href="iio__adf4030_8c.html" target="_top" xlink:title="Implementation of IIO ADF4030 Driver.">
<polygon fill="white" stroke="#666666" points="328,-118 173,-118 173,-77 328,-77 328,-118"/>
<text text-anchor="start" x="181" y="-106" font-family="Helvetica,sans-Serif" font-size="10.00">/home/runner/work/no</text>
<text text-anchor="start" x="181" y="-95" font-family="Helvetica,sans-Serif" font-size="10.00">&#45;OS/no&#45;OS/drivers/frequency</text>
<text text-anchor="middle" x="250.5" y="-84" font-family="Helvetica,sans-Serif" font-size="10.00">/adf4030/iio_adf4030.c</text>
</a>
</g>
</g>
<!-- Node1&#45;&gt;Node3 -->
<g id="edge2_Node000001_Node000003" class="edge">
<title>Node1&#45;&gt;Node3</title>
<g id="a_edge2_Node000001_Node000003"><a xlink:title=" ">
<path fill="none" stroke="#63b8ff" d="M250.5,-143.69C250.5,-135.08 250.5,-125.9 250.5,-118.07"/>
<polygon fill="#63b8ff" stroke="#63b8ff" points="247,-143.79 250.5,-153.79 254,-143.79 247,-143.79"/>
</a>
</g>
</g>
<!-- Node4 -->
<g id="Node000004" class="node">
<title>Node4</title>
<g id="a_Node000004"><a xlink:href="adf4030_2src_2common_2common__data_8h.html" target="_top" xlink:title="Defines common data to be used by ADF4030 examples.">
<polygon fill="white" stroke="#666666" points="507,-118 346,-118 346,-77 507,-77 507,-118"/>
<text text-anchor="start" x="354" y="-106" font-family="Helvetica,sans-Serif" font-size="10.00">/home/runner/work/no</text>
<text text-anchor="start" x="354" y="-95" font-family="Helvetica,sans-Serif" font-size="10.00">&#45;OS/no&#45;OS/projects/adf4030</text>
<text text-anchor="middle" x="426.5" y="-84" font-family="Helvetica,sans-Serif" font-size="10.00">/src/common/common_data.h</text>
</a>
</g>
</g>
<!-- Node1&#45;&gt;Node4 -->
<g id="edge3_Node000001_Node000004" class="edge">
<title>Node1&#45;&gt;Node4</title>
<g id="a_edge3_Node000001_Node000004"><a xlink:title=" ">
<path fill="none" stroke="#63b8ff" d="M305.66,-150C329.76,-139.72 357.7,-127.82 380.64,-118.04"/>
<polygon fill="#63b8ff" stroke="#63b8ff" points="304.11,-146.85 296.28,-153.99 306.85,-153.29 304.11,-146.85"/>
</a>
</g>
</g>
<!-- Node5 -->
<g id="Node000005" class="node">
<title>Node5</title>
<g id="a_Node000005"><a xlink:href="adf4030_2src_2common_2common__data_8c.html" target="_top" xlink:title="Defines common data to be used by ADF4030 examples.">
<polygon fill="white" stroke="#666666" points="507,-41 346,-41 346,0 507,0 507,-41"/>
<text text-anchor="start" x="354" y="-29" font-family="Helvetica,sans-Serif" font-size="10.00">/home/runner/work/no</text>
<text text-anchor="start" x="354" y="-18" font-family="Helvetica,sans-Serif" font-size="10.00">&#45;OS/no&#45;OS/projects/adf4030</text>
<text text-anchor="middle" x="426.5" y="-7" font-family="Helvetica,sans-Serif" font-size="10.00">/src/common/common_data.c</text>
</a>
</g>
</g>
<!-- Node4&#45;&gt;Node5 -->
<g id="edge4_Node000004_Node000005" class="edge">
<title>Node4&#45;&gt;Node5</title>
<g id="a_edge4_Node000004_Node000005"><a xlink:title=" ">
<path fill="none" stroke="#63b8ff" d="M426.5,-66.69C426.5,-58.08 426.5,-48.9 426.5,-41.07"/>
<polygon fill="#63b8ff" stroke="#63b8ff" points="423,-66.79 426.5,-76.79 430,-66.79 423,-66.79"/>
</a>
</g>
</g>
</g>
</svg>
