<?xml version="1.0" encoding="UTF-8" standalone="no"?>
<!DOCTYPE svg PUBLIC "-//W3C//DTD SVG 1.1//EN"
 "http://www.w3.org/Graphics/SVG/1.1/DTD/svg11.dtd">
<!-- Generated by graphviz version 2.43.0 (0)
 -->
<!-- Title: /home/runner/work/no&#45;OS/no&#45;OS/projects/adf5902_sdz/src/adf5902_sdz.c Pages: 1 -->
<svg width="880pt" height="214pt"
 viewBox="0.00 0.00 880.00 214.00" xmlns="http://www.w3.org/2000/svg" xmlns:xlink="http://www.w3.org/1999/xlink">
<g id="graph0" class="graph" transform="scale(1 1) rotate(0) translate(4 210)">
<title>/home/runner/work/no&#45;OS/no&#45;OS/projects/adf5902_sdz/src/adf5902_sdz.c</title>
<!-- Node1 -->
<g id="Node000001" class="node">
<title>Node1</title>
<g id="a_Node000001"><a xlink:title="Implementation of Main Function.">
<polygon fill="#999999" stroke="#666666" points="464.5,-206 313.5,-206 313.5,-165 464.5,-165 464.5,-206"/>
<text text-anchor="start" x="321.5" y="-194" font-family="Helvetica,sans-Serif" font-size="10.00">/home/runner/work/no</text>
<text text-anchor="start" x="321.5" y="-183" font-family="Helvetica,sans-Serif" font-size="10.00">&#45;OS/no&#45;OS/projects/adf5902</text>
<text text-anchor="middle" x="389" y="-172" font-family="Helvetica,sans-Serif" font-size="10.00">_sdz/src/adf5902_sdz.c</text>
</a>
</g>
</g>
<!-- Node2 -->
<g id="Node000002" class="node">
<title>Node2</title>
<g id="a_Node000002"><a xlink:title=" ">
<polygon fill="#e0e0e0" stroke="#999999" points="151,-74 63,-74 63,-55 151,-55 151,-74"/>
<text text-anchor="middle" x="107" y="-62" font-family="Helvetica,sans-Serif" font-size="10.00">xparameters.h</text>
</a>
</g>
</g>
<!-- Node1&#45;&gt;Node2 -->
<g id="edge1_Node000001_Node000002" class="edge">
<title>Node1&#45;&gt;Node2</title>
<g id="a_edge1_Node000001_Node000002"><a xlink:title=" ">
<path fill="none" stroke="#63b8ff" d="M318.34,-164.9C287.33,-155.42 250.81,-143.04 219,-129 186.26,-114.55 150.66,-93.33 128.58,-79.47"/>
<polygon fill="#63b8ff" stroke="#63b8ff" points="130.32,-76.42 120,-74.02 126.56,-82.33 130.32,-76.42"/>
</a>
</g>
</g>
<!-- Node3 -->
<g id="Node000003" class="node">
<title>Node3</title>
<g id="a_Node000003"><a xlink:title=" ">
<polygon fill="#e0e0e0" stroke="#999999" points="171.5,-129 100.5,-129 100.5,-110 171.5,-110 171.5,-129"/>
<text text-anchor="middle" x="136" y="-117" font-family="Helvetica,sans-Serif" font-size="10.00">xil_cache.h</text>
</a>
</g>
</g>
<!-- Node1&#45;&gt;Node3 -->
<g id="edge2_Node000001_Node000003" class="edge">
<title>Node1&#45;&gt;Node3</title>
<g id="a_edge2_Node000001_Node000003"><a xlink:title=" ">
<path fill="none" stroke="#63b8ff" d="M313.43,-165.38C269.78,-154.34 216.41,-140.84 179.67,-131.55"/>
<polygon fill="#63b8ff" stroke="#63b8ff" points="180.33,-128.1 169.77,-129.04 178.61,-134.89 180.33,-128.1"/>
</a>
</g>
</g>
<!-- Node4 -->
<g id="Node000004" class="node">
<title>Node4</title>
<g id="a_Node000004"><a xlink:href="no__os__spi_8h.html" target="_top" xlink:title="Header file of SPI Interface.">
<polygon fill="white" stroke="#666666" points="345,-74 271,-74 271,-55 345,-55 345,-74"/>
<text text-anchor="middle" x="308" y="-62" font-family="Helvetica,sans-Serif" font-size="10.00">no_os_spi.h</text>
</a>
</g>
</g>
<!-- Node1&#45;&gt;Node4 -->
<g id="edge3_Node000001_Node000004" class="edge">
<title>Node1&#45;&gt;Node4</title>
<g id="a_edge3_Node000001_Node000004"><a xlink:title=" ">
<path fill="none" stroke="#63b8ff" d="M373.36,-164.81C365.24,-154.35 355.32,-141.17 347,-129 336.65,-113.85 325.8,-95.99 318.17,-83.08"/>
<polygon fill="#63b8ff" stroke="#63b8ff" points="321.11,-81.16 313.04,-74.3 315.06,-84.7 321.11,-81.16"/>
</a>
</g>
</g>
<!-- Node6 -->
<g id="Node000006" class="node">
<title>Node6</title>
<g id="a_Node000006"><a xlink:href="xilinx__spi_8h.html" target="_top" xlink:title=" ">
<polygon fill="white" stroke="#666666" points="300,-129 228,-129 228,-110 300,-110 300,-129"/>
<text text-anchor="middle" x="264" y="-117" font-family="Helvetica,sans-Serif" font-size="10.00">xilinx_spi.h</text>
</a>
</g>
</g>
<!-- Node1&#45;&gt;Node6 -->
<g id="edge5_Node000001_Node000006" class="edge">
<title>Node1&#45;&gt;Node6</title>
<g id="a_edge5_Node000001_Node000006"><a xlink:title=" ">
<path fill="none" stroke="#63b8ff" d="M350.82,-164.95C331.07,-154.84 307.48,-142.76 289.88,-133.75"/>
<polygon fill="#63b8ff" stroke="#63b8ff" points="291.28,-130.53 280.78,-129.09 288.09,-136.76 291.28,-130.53"/>
</a>
</g>
</g>
<!-- Node7 -->
<g id="Node000007" class="node">
<title>Node7</title>
<g id="a_Node000007"><a xlink:href="no__os__gpio_8h.html" target="_top" xlink:title="Header file of GPIO Interface.">
<polygon fill="white" stroke="#666666" points="481,-74 401,-74 401,-55 481,-55 481,-74"/>
<text text-anchor="middle" x="441" y="-62" font-family="Helvetica,sans-Serif" font-size="10.00">no_os_gpio.h</text>
</a>
</g>
</g>
<!-- Node1&#45;&gt;Node7 -->
<g id="edge8_Node000001_Node000007" class="edge">
<title>Node1&#45;&gt;Node7</title>
<g id="a_edge8_Node000001_Node000007"><a xlink:title=" ">
<path fill="none" stroke="#63b8ff" d="M407.05,-164.84C415.3,-154.81 424.44,-142 430,-129 436.12,-114.68 438.84,-97.15 440.04,-84.14"/>
<polygon fill="#63b8ff" stroke="#63b8ff" points="443.54,-84.29 440.76,-74.07 436.56,-83.8 443.54,-84.29"/>
</a>
</g>
</g>
<!-- Node8 -->
<g id="Node000008" class="node">
<title>Node8</title>
<g id="a_Node000008"><a xlink:href="xilinx__gpio_8h.html" target="_top" xlink:title=" ">
<polygon fill="white" stroke="#666666" points="750.5,-129 671.5,-129 671.5,-110 750.5,-110 750.5,-129"/>
<text text-anchor="middle" x="711" y="-117" font-family="Helvetica,sans-Serif" font-size="10.00">xilinx_gpio.h</text>
</a>
</g>
</g>
<!-- Node1&#45;&gt;Node8 -->
<g id="edge10_Node000001_Node000008" class="edge">
<title>Node1&#45;&gt;Node8</title>
<g id="a_edge10_Node000001_Node000008"><a xlink:title=" ">
<path fill="none" stroke="#63b8ff" d="M464.9,-169.41C525.56,-157.36 608.84,-140.81 661.28,-130.38"/>
<polygon fill="#63b8ff" stroke="#63b8ff" points="662.22,-133.76 671.34,-128.38 660.85,-126.9 662.22,-133.76"/>
</a>
</g>
</g>
<!-- Node10 -->
<g id="Node000010" class="node">
<title>Node10</title>
<g id="a_Node000010"><a xlink:href="no__os__error_8h.html" target="_top" xlink:title="Error codes definition.">
<polygon fill="white" stroke="#666666" points="560,-129 478,-129 478,-110 560,-110 560,-129"/>
<text text-anchor="middle" x="519" y="-117" font-family="Helvetica,sans-Serif" font-size="10.00">no_os_error.h</text>
</a>
</g>
</g>
<!-- Node1&#45;&gt;Node10 -->
<g id="edge13_Node000001_Node000010" class="edge">
<title>Node1&#45;&gt;Node10</title>
<g id="a_edge13_Node000001_Node000010"><a xlink:title=" ">
<path fill="none" stroke="#63b8ff" d="M428.71,-164.95C449.34,-154.79 474.01,-142.65 492.34,-133.63"/>
<polygon fill="#63b8ff" stroke="#63b8ff" points="494.12,-136.65 501.55,-129.09 491.03,-130.37 494.12,-136.65"/>
</a>
</g>
</g>
<!-- Node12 -->
<g id="Node000012" class="node">
<title>Node12</title>
<g id="a_Node000012"><a xlink:href="adf5902_8h.html" target="_top" xlink:title="Header file for adf5902 Driver.">
<polygon fill="white" stroke="#666666" points="421.5,-129 356.5,-129 356.5,-110 421.5,-110 421.5,-129"/>
<text text-anchor="middle" x="389" y="-117" font-family="Helvetica,sans-Serif" font-size="10.00">adf5902.h</text>
</a>
</g>
</g>
<!-- Node1&#45;&gt;Node12 -->
<g id="edge15_Node000001_Node000012" class="edge">
<title>Node1&#45;&gt;Node12</title>
<g id="a_edge15_Node000001_Node000012"><a xlink:title=" ">
<path fill="none" stroke="#63b8ff" d="M389,-164.95C389,-156.85 389,-147.5 389,-139.47"/>
<polygon fill="#63b8ff" stroke="#63b8ff" points="392.5,-139.26 389,-129.26 385.5,-139.26 392.5,-139.26"/>
</a>
</g>
</g>
<!-- Node13 -->
<g id="Node000013" class="node">
<title>Node13</title>
<g id="a_Node000013"><a xlink:href="adf5902__sdz_2src_2parameters_8h.html" target="_top" xlink:title="Platform dependent parameters.">
<polygon fill="white" stroke="#666666" points="82,-129 0,-129 0,-110 82,-110 82,-129"/>
<text text-anchor="middle" x="41" y="-117" font-family="Helvetica,sans-Serif" font-size="10.00">parameters.h</text>
</a>
</g>
</g>
<!-- Node1&#45;&gt;Node13 -->
<g id="edge19_Node000001_Node000013" class="edge">
<title>Node1&#45;&gt;Node13</title>
<g id="a_edge19_Node000001_Node000013"><a xlink:title=" ">
<path fill="none" stroke="#63b8ff" d="M313.49,-170.61C246.54,-158.3 150.6,-140.66 92.23,-129.92"/>
<polygon fill="#63b8ff" stroke="#63b8ff" points="92.6,-126.43 82.13,-128.06 91.34,-133.32 92.6,-126.43"/>
</a>
</g>
</g>
<!-- Node14 -->
<g id="Node000014" class="node">
<title>Node14</title>
<g id="a_Node000014"><a xlink:href="no__os__util_8h.html" target="_top" xlink:title="Header file of utility functions.">
<polygon fill="white" stroke="#666666" points="653.5,-129 578.5,-129 578.5,-110 653.5,-110 653.5,-129"/>
<text text-anchor="middle" x="616" y="-117" font-family="Helvetica,sans-Serif" font-size="10.00">no_os_util.h</text>
</a>
</g>
</g>
<!-- Node1&#45;&gt;Node14 -->
<g id="edge21_Node000001_Node000014" class="edge">
<title>Node1&#45;&gt;Node14</title>
<g id="a_edge21_Node000001_Node000014"><a xlink:title=" ">
<path fill="none" stroke="#63b8ff" d="M458.34,-164.95C496.81,-154.1 543.3,-141 575.79,-131.84"/>
<polygon fill="#63b8ff" stroke="#63b8ff" points="577.15,-135.09 585.82,-129.01 575.25,-128.35 577.15,-135.09"/>
</a>
</g>
</g>
<!-- Node16 -->
<g id="Node000016" class="node">
<title>Node16</title>
<g id="a_Node000016"><a xlink:href="no__os__print__log_8h.html" target="_top" xlink:title="Print messages helpers.">
<polygon fill="white" stroke="#666666" points="872,-129 770,-129 770,-110 872,-110 872,-129"/>
<text text-anchor="middle" x="821" y="-117" font-family="Helvetica,sans-Serif" font-size="10.00">no_os_print_log.h</text>
</a>
</g>
</g>
<!-- Node1&#45;&gt;Node16 -->
<g id="edge25_Node000001_Node000016" class="edge">
<title>Node1&#45;&gt;Node16</title>
<g id="a_edge25_Node000001_Node000016"><a xlink:title=" ">
<path fill="none" stroke="#63b8ff" d="M464.74,-173.28C548.58,-160.86 682.07,-141.08 759.64,-129.59"/>
<polygon fill="#63b8ff" stroke="#63b8ff" points="760.36,-133.02 769.74,-128.09 759.33,-126.1 760.36,-133.02"/>
</a>
</g>
</g>
<!-- Node5 -->
<g id="Node000005" class="node">
<title>Node5</title>
<g id="a_Node000005"><a xlink:title=" ">
<polygon fill="#e0e0e0" stroke="#999999" points="433.5,-19 380.5,-19 380.5,0 433.5,0 433.5,-19"/>
<text text-anchor="middle" x="407" y="-7" font-family="Helvetica,sans-Serif" font-size="10.00">stdint.h</text>
</a>
</g>
</g>
<!-- Node4&#45;&gt;Node5 -->
<g id="edge4_Node000004_Node000005" class="edge">
<title>Node4&#45;&gt;Node5</title>
<g id="a_edge4_Node000004_Node000005"><a xlink:title=" ">
<path fill="none" stroke="#63b8ff" d="M323.91,-54.98C339.55,-46.61 363.66,-33.7 381.88,-23.95"/>
<polygon fill="#63b8ff" stroke="#63b8ff" points="383.64,-26.98 390.8,-19.17 380.34,-20.8 383.64,-26.98"/>
</a>
</g>
</g>
<!-- Node6&#45;&gt;Node4 -->
<g id="edge7_Node000006_Node000004" class="edge">
<title>Node6&#45;&gt;Node4</title>
<g id="a_edge7_Node000006_Node000004"><a xlink:title=" ">
<path fill="none" stroke="#63b8ff" d="M271.27,-109.75C277.54,-102.18 286.79,-91.05 294.43,-81.84"/>
<polygon fill="#63b8ff" stroke="#63b8ff" points="297.17,-84.02 300.87,-74.09 291.79,-79.55 297.17,-84.02"/>
</a>
</g>
</g>
<!-- Node6&#45;&gt;Node5 -->
<g id="edge6_Node000006_Node000005" class="edge">
<title>Node6&#45;&gt;Node5</title>
<g id="a_edge6_Node000006_Node000005"><a xlink:title=" ">
<path fill="none" stroke="#63b8ff" d="M260.6,-109.7C256.11,-96.43 250.07,-71.14 262,-55 286.68,-21.61 335.97,-12.47 370.19,-10.37"/>
<polygon fill="#63b8ff" stroke="#63b8ff" points="370.45,-13.87 380.28,-9.93 370.14,-6.87 370.45,-13.87"/>
</a>
</g>
</g>
<!-- Node7&#45;&gt;Node5 -->
<g id="edge9_Node000007_Node000005" class="edge">
<title>Node7&#45;&gt;Node5</title>
<g id="a_edge9_Node000007_Node000005"><a xlink:title=" ">
<path fill="none" stroke="#63b8ff" d="M435.39,-54.75C430.68,-47.42 423.83,-36.73 418.03,-27.7"/>
<polygon fill="#63b8ff" stroke="#63b8ff" points="420.86,-25.62 412.51,-19.09 414.96,-29.4 420.86,-25.62"/>
</a>
</g>
</g>
<!-- Node8&#45;&gt;Node5 -->
<g id="edge11_Node000008_Node000005" class="edge">
<title>Node8&#45;&gt;Node5</title>
<g id="a_edge11_Node000008_Node000005"><a xlink:title=" ">
<path fill="none" stroke="#63b8ff" d="M723.06,-109.87C739.56,-97.05 765.46,-72.59 750,-55 730,-32.24 528.26,-17.7 443.84,-12.57"/>
<polygon fill="#63b8ff" stroke="#63b8ff" points="443.87,-9.07 433.68,-11.97 443.45,-16.06 443.87,-9.07"/>
</a>
</g>
</g>
<!-- Node9 -->
<g id="Node000009" class="node">
<title>Node9</title>
<g id="a_Node000009"><a xlink:title=" ">
<polygon fill="#e0e0e0" stroke="#999999" points="741,-74 679,-74 679,-55 741,-55 741,-74"/>
<text text-anchor="middle" x="710" y="-62" font-family="Helvetica,sans-Serif" font-size="10.00">stdbool.h</text>
</a>
</g>
</g>
<!-- Node8&#45;&gt;Node9 -->
<g id="edge12_Node000008_Node000009" class="edge">
<title>Node8&#45;&gt;Node9</title>
<g id="a_edge12_Node000008_Node000009"><a xlink:title=" ">
<path fill="none" stroke="#63b8ff" d="M710.83,-109.75C710.7,-102.8 710.52,-92.85 710.35,-84.13"/>
<polygon fill="#63b8ff" stroke="#63b8ff" points="713.85,-84.02 710.16,-74.09 706.85,-84.15 713.85,-84.02"/>
</a>
</g>
</g>
<!-- Node11 -->
<g id="Node000011" class="node">
<title>Node11</title>
<g id="a_Node000011"><a xlink:href="errno_8h.html" target="_top" xlink:title="Error macro definition for ARM Compiler.">
<polygon fill="white" stroke="#666666" points="550.5,-74 499.5,-74 499.5,-55 550.5,-55 550.5,-74"/>
<text text-anchor="middle" x="525" y="-62" font-family="Helvetica,sans-Serif" font-size="10.00">errno.h</text>
</a>
</g>
</g>
<!-- Node10&#45;&gt;Node11 -->
<g id="edge14_Node000010_Node000011" class="edge">
<title>Node10&#45;&gt;Node11</title>
<g id="a_edge14_Node000010_Node000011"><a xlink:title=" ">
<path fill="none" stroke="#63b8ff" d="M519.99,-109.75C520.78,-102.8 521.9,-92.85 522.89,-84.13"/>
<polygon fill="#63b8ff" stroke="#63b8ff" points="526.38,-84.42 524.03,-74.09 519.42,-83.63 526.38,-84.42"/>
</a>
</g>
</g>
<!-- Node12&#45;&gt;Node4 -->
<g id="edge17_Node000012_Node000004" class="edge">
<title>Node12&#45;&gt;Node4</title>
<g id="a_edge17_Node000012_Node000004"><a xlink:title=" ">
<path fill="none" stroke="#63b8ff" d="M375.99,-109.98C363.54,-101.84 344.54,-89.41 329.79,-79.76"/>
<polygon fill="#63b8ff" stroke="#63b8ff" points="331.54,-76.72 321.25,-74.17 327.7,-82.57 331.54,-76.72"/>
</a>
</g>
</g>
<!-- Node12&#45;&gt;Node5 -->
<g id="edge16_Node000012_Node000005" class="edge">
<title>Node12&#45;&gt;Node5</title>
<g id="a_edge16_Node000012_Node000005"><a xlink:title=" ">
<path fill="none" stroke="#63b8ff" d="M388.65,-109.78C388.33,-97.46 388.36,-74.31 392,-55 393.68,-46.09 396.73,-36.52 399.65,-28.54"/>
<polygon fill="#63b8ff" stroke="#63b8ff" points="402.93,-29.76 403.27,-19.17 396.4,-27.24 402.93,-29.76"/>
</a>
</g>
</g>
<!-- Node12&#45;&gt;Node7 -->
<g id="edge18_Node000012_Node000007" class="edge">
<title>Node12&#45;&gt;Node7</title>
<g id="a_edge18_Node000012_Node000007"><a xlink:title=" ">
<path fill="none" stroke="#63b8ff" d="M397.59,-109.75C405.16,-102.03 416.38,-90.6 425.51,-81.28"/>
<polygon fill="#63b8ff" stroke="#63b8ff" points="428.07,-83.68 432.57,-74.09 423.07,-78.78 428.07,-83.68"/>
</a>
</g>
</g>
<!-- Node13&#45;&gt;Node2 -->
<g id="edge20_Node000013_Node000002" class="edge">
<title>Node13&#45;&gt;Node2</title>
<g id="a_edge20_Node000013_Node000002"><a xlink:title=" ">
<path fill="none" stroke="#63b8ff" d="M51.6,-109.98C61.46,-102.07 76.35,-90.11 88.22,-80.58"/>
<polygon fill="#63b8ff" stroke="#63b8ff" points="90.6,-83.16 96.2,-74.17 86.21,-77.7 90.6,-83.16"/>
</a>
</g>
</g>
<!-- Node14&#45;&gt;Node5 -->
<g id="edge22_Node000014_Node000005" class="edge">
<title>Node14&#45;&gt;Node5</title>
<g id="a_edge22_Node000014_Node000005"><a xlink:title=" ">
<path fill="none" stroke="#63b8ff" d="M610.62,-109.7C601.77,-95.96 582.83,-69.49 560,-55 524.17,-32.26 476.35,-20.79 443.76,-15.26"/>
<polygon fill="#63b8ff" stroke="#63b8ff" points="444.18,-11.78 433.76,-13.66 443.08,-18.69 444.18,-11.78"/>
</a>
</g>
</g>
<!-- Node14&#45;&gt;Node9 -->
<g id="edge24_Node000014_Node000009" class="edge">
<title>Node14&#45;&gt;Node9</title>
<g id="a_edge24_Node000014_Node000009"><a xlink:title=" ">
<path fill="none" stroke="#63b8ff" d="M631.1,-109.98C645.82,-101.69 668.42,-88.94 685.67,-79.22"/>
<polygon fill="#63b8ff" stroke="#63b8ff" points="687.63,-82.13 694.62,-74.17 684.19,-76.03 687.63,-82.13"/>
</a>
</g>
</g>
<!-- Node15 -->
<g id="Node000015" class="node">
<title>Node15</title>
<g id="a_Node000015"><a xlink:title=" ">
<polygon fill="#e0e0e0" stroke="#999999" points="660.5,-74 607.5,-74 607.5,-55 660.5,-55 660.5,-74"/>
<text text-anchor="middle" x="634" y="-62" font-family="Helvetica,sans-Serif" font-size="10.00">stdlib.h</text>
</a>
</g>
</g>
<!-- Node14&#45;&gt;Node15 -->
<g id="edge23_Node000014_Node000015" class="edge">
<title>Node14&#45;&gt;Node15</title>
<g id="a_edge23_Node000014_Node000015"><a xlink:title=" ">
<path fill="none" stroke="#63b8ff" d="M618.97,-109.75C621.36,-102.72 624.79,-92.62 627.77,-83.84"/>
<polygon fill="#63b8ff" stroke="#63b8ff" points="631.18,-84.68 631.08,-74.09 624.55,-82.43 631.18,-84.68"/>
</a>
</g>
</g>
<!-- Node17 -->
<g id="Node000017" class="node">
<title>Node17</title>
<g id="a_Node000017"><a xlink:title=" ">
<polygon fill="#e0e0e0" stroke="#999999" points="847,-74 797,-74 797,-55 847,-55 847,-74"/>
<text text-anchor="middle" x="822" y="-62" font-family="Helvetica,sans-Serif" font-size="10.00">stdio.h</text>
</a>
</g>
</g>
<!-- Node16&#45;&gt;Node17 -->
<g id="edge26_Node000016_Node000017" class="edge">
<title>Node16&#45;&gt;Node17</title>
<g id="a_edge26_Node000016_Node000017"><a xlink:title=" ">
<path fill="none" stroke="#63b8ff" d="M821.17,-109.75C821.3,-102.8 821.48,-92.85 821.65,-84.13"/>
<polygon fill="#63b8ff" stroke="#63b8ff" points="825.15,-84.15 821.84,-74.09 818.15,-84.02 825.15,-84.15"/>
</a>
</g>
</g>
</g>
</svg>
