<?xml version="1.0" encoding="UTF-8" standalone="no"?>
<!DOCTYPE svg PUBLIC "-//W3C//DTD SVG 1.1//EN"
 "http://www.w3.org/Graphics/SVG/1.1/DTD/svg11.dtd">
<!-- Generated by graphviz version 2.43.0 (0)
 -->
<!-- Title: /home/runner/work/no&#45;OS/no&#45;OS/projects/adf5611/src/examples/iio_example/iio_example.c Pages: 1 -->
<svg width="663pt" height="335pt"
 viewBox="0.00 0.00 663.07 335.00" xmlns="http://www.w3.org/2000/svg" xmlns:xlink="http://www.w3.org/1999/xlink">
<g id="graph0" class="graph" transform="scale(1 1) rotate(0) translate(4 331)">
<title>/home/runner/work/no&#45;OS/no&#45;OS/projects/adf5611/src/examples/iio_example/iio_example.c</title>
<!-- Node1 -->
<g id="Node000001" class="node">
<title>Node1</title>
<g id="a_Node000001"><a xlink:title="Implementation of IIO example for adf5611 project.">
<polygon fill="#999999" stroke="#666666" points="307.57,-327 156.57,-327 156.57,-275 307.57,-275 307.57,-327"/>
<text text-anchor="start" x="164.57" y="-315" font-family="Helvetica,sans-Serif" font-size="10.00">/home/runner/work/no</text>
<text text-anchor="start" x="164.57" y="-304" font-family="Helvetica,sans-Serif" font-size="10.00">&#45;OS/no&#45;OS/projects/adf5611</text>
<text text-anchor="start" x="164.57" y="-293" font-family="Helvetica,sans-Serif" font-size="10.00">/src/examples/iio_example</text>
<text text-anchor="middle" x="232.07" y="-282" font-family="Helvetica,sans-Serif" font-size="10.00">/iio_example.c</text>
</a>
</g>
</g>
<!-- Node2 -->
<g id="Node000002" class="node">
<title>Node2</title>
<g id="a_Node000002"><a xlink:title=" ">
<polygon fill="#e0e0e0" stroke="#999999" points="51.07,-184 1.07,-184 1.07,-165 51.07,-165 51.07,-184"/>
<text text-anchor="middle" x="26.07" y="-172" font-family="Helvetica,sans-Serif" font-size="10.00">stdio.h</text>
</a>
</g>
</g>
<!-- Node1&#45;&gt;Node2 -->
<g id="edge1_Node000001_Node000002" class="edge">
<title>Node1&#45;&gt;Node2</title>
<g id="a_edge1_Node000001_Node000002"><a xlink:title=" ">
<path fill="none" stroke="#63b8ff" d="M156.53,-289.68C97.93,-279.94 23.63,-263.21 5.07,-239 -5.48,-225.24 3.42,-205.93 12.67,-192.23"/>
<polygon fill="#63b8ff" stroke="#63b8ff" points="15.5,-194.28 18.6,-184.15 9.86,-190.14 15.5,-194.28"/>
</a>
</g>
</g>
<!-- Node3 -->
<g id="Node000003" class="node">
<title>Node3</title>
<g id="a_Node000003"><a xlink:title=" ">
<polygon fill="#e0e0e0" stroke="#999999" points="187.57,-239 134.57,-239 134.57,-220 187.57,-220 187.57,-239"/>
<text text-anchor="middle" x="161.07" y="-227" font-family="Helvetica,sans-Serif" font-size="10.00">string.h</text>
</a>
</g>
</g>
<!-- Node1&#45;&gt;Node3 -->
<g id="edge2_Node000001_Node000003" class="edge">
<title>Node1&#45;&gt;Node3</title>
<g id="a_edge2_Node000001_Node000003"><a xlink:title=" ">
<path fill="none" stroke="#63b8ff" d="M206.44,-274.91C196.7,-265.38 185.9,-254.8 177.27,-246.36"/>
<polygon fill="#63b8ff" stroke="#63b8ff" points="179.65,-243.8 170.06,-239.3 174.76,-248.8 179.65,-243.8"/>
</a>
</g>
</g>
<!-- Node4 -->
<g id="Node000004" class="node">
<title>Node4</title>
<g id="a_Node000004"><a xlink:title=" ">
<polygon fill="#e0e0e0" stroke="#999999" points="258.57,-239 205.57,-239 205.57,-220 258.57,-220 258.57,-239"/>
<text text-anchor="middle" x="232.07" y="-227" font-family="Helvetica,sans-Serif" font-size="10.00">ctype.h</text>
</a>
</g>
</g>
<!-- Node1&#45;&gt;Node4 -->
<g id="edge3_Node000001_Node000004" class="edge">
<title>Node1&#45;&gt;Node4</title>
<g id="a_edge3_Node000001_Node000004"><a xlink:title=" ">
<path fill="none" stroke="#63b8ff" d="M232.07,-274.91C232.07,-266.55 232.07,-257.38 232.07,-249.55"/>
<polygon fill="#63b8ff" stroke="#63b8ff" points="235.57,-249.3 232.07,-239.3 228.57,-249.3 235.57,-249.3"/>
</a>
</g>
</g>
<!-- Node5 -->
<g id="Node000005" class="node">
<title>Node5</title>
<g id="a_Node000005"><a xlink:href="iio__adf5611_8h.html" target="_top" xlink:title="Implementation of IIO ADF5611 Driver.">
<polygon fill="white" stroke="#666666" points="438.57,-239 355.57,-239 355.57,-220 438.57,-220 438.57,-239"/>
<text text-anchor="middle" x="397.07" y="-227" font-family="Helvetica,sans-Serif" font-size="10.00">iio_adf5611.h</text>
</a>
</g>
</g>
<!-- Node1&#45;&gt;Node5 -->
<g id="edge4_Node000001_Node000005" class="edge">
<title>Node1&#45;&gt;Node5</title>
<g id="a_edge4_Node000001_Node000005"><a xlink:title=" ">
<path fill="none" stroke="#63b8ff" d="M291.64,-274.91C317.3,-264.1 346.17,-251.94 367.21,-243.08"/>
<polygon fill="#63b8ff" stroke="#63b8ff" points="368.71,-246.24 376.57,-239.14 365.99,-239.79 368.71,-246.24"/>
</a>
</g>
</g>
<!-- Node14 -->
<g id="Node000014" class="node">
<title>Node14</title>
<g id="a_Node000014"><a xlink:title=" ">
<polygon fill="#e0e0e0" stroke="#999999" points="551.57,-239 456.57,-239 456.57,-220 551.57,-220 551.57,-239"/>
<text text-anchor="middle" x="504.07" y="-227" font-family="Helvetica,sans-Serif" font-size="10.00">common_data.h</text>
</a>
</g>
</g>
<!-- Node1&#45;&gt;Node14 -->
<g id="edge19_Node000001_Node000014" class="edge">
<title>Node1&#45;&gt;Node14</title>
<g id="a_edge19_Node000001_Node000014"><a xlink:title=" ">
<path fill="none" stroke="#63b8ff" d="M307.84,-280.64C357.21,-268.02 419.86,-252.02 460.91,-241.53"/>
<polygon fill="#63b8ff" stroke="#63b8ff" points="461.78,-244.92 470.6,-239.05 460.05,-238.13 461.78,-244.92"/>
</a>
</g>
</g>
<!-- Node15 -->
<g id="Node000015" class="node">
<title>Node15</title>
<g id="a_Node000015"><a xlink:href="no__os__print__log_8h.html" target="_top" xlink:title="Print messages helpers.">
<polygon fill="white" stroke="#666666" points="116.07,-239 14.07,-239 14.07,-220 116.07,-220 116.07,-239"/>
<text text-anchor="middle" x="65.07" y="-227" font-family="Helvetica,sans-Serif" font-size="10.00">no_os_print_log.h</text>
</a>
</g>
</g>
<!-- Node1&#45;&gt;Node15 -->
<g id="edge20_Node000001_Node000015" class="edge">
<title>Node1&#45;&gt;Node15</title>
<g id="a_edge20_Node000001_Node000015"><a xlink:title=" ">
<path fill="none" stroke="#63b8ff" d="M171.78,-274.91C145.81,-264.1 116.58,-251.94 95.29,-243.08"/>
<polygon fill="#63b8ff" stroke="#63b8ff" points="96.4,-239.75 85.82,-239.14 93.71,-246.21 96.4,-239.75"/>
</a>
</g>
</g>
<!-- Node16 -->
<g id="Node000016" class="node">
<title>Node16</title>
<g id="a_Node000016"><a xlink:href="iio__app_8h.html" target="_top" xlink:title="Header file of iio_app.">
<polygon fill="white" stroke="#666666" points="337.57,-239 276.57,-239 276.57,-220 337.57,-220 337.57,-239"/>
<text text-anchor="middle" x="307.07" y="-227" font-family="Helvetica,sans-Serif" font-size="10.00">iio_app.h</text>
</a>
</g>
</g>
<!-- Node1&#45;&gt;Node16 -->
<g id="edge22_Node000001_Node000016" class="edge">
<title>Node1&#45;&gt;Node16</title>
<g id="a_edge22_Node000001_Node000016"><a xlink:title=" ">
<path fill="none" stroke="#63b8ff" d="M259.14,-274.91C269.53,-265.29 281.07,-254.59 290.23,-246.11"/>
<polygon fill="#63b8ff" stroke="#63b8ff" points="292.61,-248.67 297.57,-239.3 287.86,-243.53 292.61,-248.67"/>
</a>
</g>
</g>
<!-- Node6 -->
<g id="Node000006" class="node">
<title>Node6</title>
<g id="a_Node000006"><a xlink:href="iio__types_8h.html" target="_top" xlink:title="Header file for iio_types.">
<polygon fill="white" stroke="#666666" points="503.07,-129 433.07,-129 433.07,-110 503.07,-110 503.07,-129"/>
<text text-anchor="middle" x="468.07" y="-117" font-family="Helvetica,sans-Serif" font-size="10.00">iio_types.h</text>
</a>
</g>
</g>
<!-- Node5&#45;&gt;Node6 -->
<g id="edge5_Node000005_Node000006" class="edge">
<title>Node5&#45;&gt;Node6</title>
<g id="a_edge5_Node000005_Node000006"><a xlink:title=" ">
<path fill="none" stroke="#63b8ff" d="M402.88,-219.66C414.64,-201.77 441.44,-161 456.76,-137.69"/>
<polygon fill="#63b8ff" stroke="#63b8ff" points="459.81,-139.44 462.38,-129.16 453.96,-135.59 459.81,-139.44"/>
</a>
</g>
</g>
<!-- Node10 -->
<g id="Node000010" class="node">
<title>Node10</title>
<g id="a_Node000010"><a xlink:href="iio_8h.html" target="_top" xlink:title="Header file of iio.">
<polygon fill="white" stroke="#666666" points="414.07,-184 376.07,-184 376.07,-165 414.07,-165 414.07,-184"/>
<text text-anchor="middle" x="395.07" y="-172" font-family="Helvetica,sans-Serif" font-size="10.00">iio.h</text>
</a>
</g>
</g>
<!-- Node5&#45;&gt;Node10 -->
<g id="edge10_Node000005_Node000010" class="edge">
<title>Node5&#45;&gt;Node10</title>
<g id="a_edge10_Node000005_Node000010"><a xlink:title=" ">
<path fill="none" stroke="#63b8ff" d="M396.74,-219.75C396.48,-212.8 396.1,-202.85 395.77,-194.13"/>
<polygon fill="#63b8ff" stroke="#63b8ff" points="399.27,-193.95 395.39,-184.09 392.27,-194.21 399.27,-193.95"/>
</a>
</g>
</g>
<!-- Node7 -->
<g id="Node000007" class="node">
<title>Node7</title>
<g id="a_Node000007"><a xlink:title=" ">
<polygon fill="#e0e0e0" stroke="#999999" points="655.07,-19 593.07,-19 593.07,0 655.07,0 655.07,-19"/>
<text text-anchor="middle" x="624.07" y="-7" font-family="Helvetica,sans-Serif" font-size="10.00">stdbool.h</text>
</a>
</g>
</g>
<!-- Node6&#45;&gt;Node7 -->
<g id="edge6_Node000006_Node000007" class="edge">
<title>Node6&#45;&gt;Node7</title>
<g id="a_edge6_Node000006_Node000007"><a xlink:title=" ">
<path fill="none" stroke="#63b8ff" d="M503.07,-114.35C547.88,-108.24 621.71,-95.19 638.07,-74 648.17,-60.91 642.13,-42.02 635.11,-28.24"/>
<polygon fill="#63b8ff" stroke="#63b8ff" points="638.01,-26.26 630.05,-19.27 631.92,-29.7 638.01,-26.26"/>
</a>
</g>
</g>
<!-- Node8 -->
<g id="Node000008" class="node">
<title>Node8</title>
<g id="a_Node000008"><a xlink:title=" ">
<polygon fill="#e0e0e0" stroke="#999999" points="356.57,-19 303.57,-19 303.57,0 356.57,0 356.57,-19"/>
<text text-anchor="middle" x="330.07" y="-7" font-family="Helvetica,sans-Serif" font-size="10.00">stdint.h</text>
</a>
</g>
</g>
<!-- Node6&#45;&gt;Node8 -->
<g id="edge7_Node000006_Node000008" class="edge">
<title>Node6&#45;&gt;Node8</title>
<g id="a_edge7_Node000006_Node000008"><a xlink:title=" ">
<path fill="none" stroke="#63b8ff" d="M467.84,-109.93C467.02,-96.5 463.53,-70.47 449.07,-55 427.59,-32.03 393.13,-20.84 366.8,-15.44"/>
<polygon fill="#63b8ff" stroke="#63b8ff" points="367.27,-11.97 356.8,-13.58 365.99,-18.85 367.27,-11.97"/>
</a>
</g>
</g>
<!-- Node9 -->
<g id="Node000009" class="node">
<title>Node9</title>
<g id="a_Node000009"><a xlink:href="no__os__circular__buffer_8h.html" target="_top" xlink:title="Circular buffer library header.">
<polygon fill="white" stroke="#666666" points="440.07,-74 312.07,-74 312.07,-55 440.07,-55 440.07,-74"/>
<text text-anchor="middle" x="376.07" y="-62" font-family="Helvetica,sans-Serif" font-size="10.00">no_os_circular_buffer.h</text>
</a>
</g>
</g>
<!-- Node6&#45;&gt;Node9 -->
<g id="edge8_Node000006_Node000009" class="edge">
<title>Node6&#45;&gt;Node9</title>
<g id="a_edge8_Node000006_Node000009"><a xlink:title=" ">
<path fill="none" stroke="#63b8ff" d="M453.29,-109.98C438.89,-101.69 416.76,-88.94 399.88,-79.22"/>
<polygon fill="#63b8ff" stroke="#63b8ff" points="401.53,-76.13 391.12,-74.17 398.04,-82.19 401.53,-76.13"/>
</a>
</g>
</g>
<!-- Node9&#45;&gt;Node8 -->
<g id="edge9_Node000009_Node000008" class="edge">
<title>Node9&#45;&gt;Node8</title>
<g id="a_edge9_Node000009_Node000008"><a xlink:title=" ">
<path fill="none" stroke="#63b8ff" d="M368.47,-54.75C361.91,-47.18 352.24,-36.05 344.25,-26.84"/>
<polygon fill="#63b8ff" stroke="#63b8ff" points="346.72,-24.35 337.52,-19.09 341.43,-28.94 346.72,-24.35"/>
</a>
</g>
</g>
<!-- Node10&#45;&gt;Node6 -->
<g id="edge11_Node000010_Node000006" class="edge">
<title>Node10&#45;&gt;Node6</title>
<g id="a_edge11_Node000010_Node000006"><a xlink:title=" ">
<path fill="none" stroke="#63b8ff" d="M406.8,-164.98C417.8,-157 434.49,-144.88 447.67,-135.31"/>
<polygon fill="#63b8ff" stroke="#63b8ff" points="450.09,-137.88 456.13,-129.17 445.98,-132.21 450.09,-137.88"/>
</a>
</g>
</g>
<!-- Node11 -->
<g id="Node000011" class="node">
<title>Node11</title>
<g id="a_Node000011"><a xlink:href="no__os__uart_8h.html" target="_top" xlink:title="Header file of UART interface.">
<polygon fill="white" stroke="#666666" points="414.57,-129 335.57,-129 335.57,-110 414.57,-110 414.57,-129"/>
<text text-anchor="middle" x="375.07" y="-117" font-family="Helvetica,sans-Serif" font-size="10.00">no_os_uart.h</text>
</a>
</g>
</g>
<!-- Node10&#45;&gt;Node11 -->
<g id="edge12_Node000010_Node000011" class="edge">
<title>Node10&#45;&gt;Node11</title>
<g id="a_edge12_Node000010_Node000011"><a xlink:title=" ">
<path fill="none" stroke="#63b8ff" d="M391.77,-164.75C389.09,-157.65 385.22,-147.4 381.88,-138.56"/>
<polygon fill="#63b8ff" stroke="#63b8ff" points="385.11,-137.21 378.31,-129.09 378.57,-139.68 385.11,-137.21"/>
</a>
</g>
</g>
<!-- Node11&#45;&gt;Node7 -->
<g id="edge14_Node000011_Node000007" class="edge">
<title>Node11&#45;&gt;Node7</title>
<g id="a_edge14_Node000011_Node000007"><a xlink:title=" ">
<path fill="none" stroke="#63b8ff" d="M414.64,-111.38C479.47,-99.64 601.53,-77.2 605.07,-74 617.46,-62.79 621.9,-43.87 623.43,-29.59"/>
<polygon fill="#63b8ff" stroke="#63b8ff" points="626.94,-29.59 624.13,-19.37 619.96,-29.11 626.94,-29.59"/>
</a>
</g>
</g>
<!-- Node11&#45;&gt;Node8 -->
<g id="edge13_Node000011_Node000008" class="edge">
<title>Node11&#45;&gt;Node8</title>
<g id="a_edge13_Node000011_Node000008"><a xlink:title=" ">
<path fill="none" stroke="#63b8ff" d="M349.21,-109.99C332.8,-103.09 312.87,-91.58 303.07,-74 294.55,-58.72 304.53,-40.21 314.68,-27.13"/>
<polygon fill="#63b8ff" stroke="#63b8ff" points="317.42,-29.31 321.18,-19.41 312.07,-24.8 317.42,-29.31"/>
</a>
</g>
</g>
<!-- Node12 -->
<g id="Node000012" class="node">
<title>Node12</title>
<g id="a_Node000012"><a xlink:href="no__os__lf256fifo_8h.html" target="_top" xlink:title="SPSC lock&#45;free fifo of fixed size (256), specialized for UART.">
<polygon fill="white" stroke="#666666" points="596.07,-74 496.07,-74 496.07,-55 596.07,-55 596.07,-74"/>
<text text-anchor="middle" x="546.07" y="-62" font-family="Helvetica,sans-Serif" font-size="10.00">no_os_lf256fifo.h</text>
</a>
</g>
</g>
<!-- Node11&#45;&gt;Node12 -->
<g id="edge15_Node000011_Node000012" class="edge">
<title>Node11&#45;&gt;Node12</title>
<g id="a_edge15_Node000011_Node000012"><a xlink:title=" ">
<path fill="none" stroke="#63b8ff" d="M402.54,-109.98C431.25,-101.09 476.49,-87.07 508.49,-77.15"/>
<polygon fill="#63b8ff" stroke="#63b8ff" points="509.86,-80.39 518.38,-74.08 507.79,-73.7 509.86,-80.39"/>
</a>
</g>
</g>
<!-- Node12&#45;&gt;Node7 -->
<g id="edge18_Node000012_Node000007" class="edge">
<title>Node12&#45;&gt;Node7</title>
<g id="a_edge18_Node000012_Node000007"><a xlink:title=" ">
<path fill="none" stroke="#63b8ff" d="M558.6,-54.98C570.47,-46.92 588.53,-34.65 602.68,-25.03"/>
<polygon fill="#63b8ff" stroke="#63b8ff" points="605,-27.69 611.31,-19.17 601.07,-21.9 605,-27.69"/>
</a>
</g>
</g>
<!-- Node12&#45;&gt;Node8 -->
<g id="edge17_Node000012_Node000008" class="edge">
<title>Node12&#45;&gt;Node8</title>
<g id="a_edge17_Node000012_Node000008"><a xlink:title=" ">
<path fill="none" stroke="#63b8ff" d="M511.36,-54.98C471.68,-45.25 406.99,-29.37 366.56,-19.46"/>
<polygon fill="#63b8ff" stroke="#63b8ff" points="367.39,-16.05 356.84,-17.07 365.72,-22.85 367.39,-16.05"/>
</a>
</g>
</g>
<!-- Node13 -->
<g id="Node000013" class="node">
<title>Node13</title>
<g id="a_Node000013"><a xlink:title=" ">
<polygon fill="#e0e0e0" stroke="#999999" points="572.57,-19 519.57,-19 519.57,0 572.57,0 572.57,-19"/>
<text text-anchor="middle" x="546.07" y="-7" font-family="Helvetica,sans-Serif" font-size="10.00">stdlib.h</text>
</a>
</g>
</g>
<!-- Node12&#45;&gt;Node13 -->
<g id="edge16_Node000012_Node000013" class="edge">
<title>Node12&#45;&gt;Node13</title>
<g id="a_edge16_Node000012_Node000013"><a xlink:title=" ">
<path fill="none" stroke="#63b8ff" d="M546.07,-54.75C546.07,-47.8 546.07,-37.85 546.07,-29.13"/>
<polygon fill="#63b8ff" stroke="#63b8ff" points="549.57,-29.09 546.07,-19.09 542.57,-29.09 549.57,-29.09"/>
</a>
</g>
</g>
<!-- Node15&#45;&gt;Node2 -->
<g id="edge21_Node000015_Node000002" class="edge">
<title>Node15&#45;&gt;Node2</title>
<g id="a_edge21_Node000015_Node000002"><a xlink:title=" ">
<path fill="none" stroke="#63b8ff" d="M58.63,-219.75C53.18,-212.34 45.2,-201.5 38.51,-192.41"/>
<polygon fill="#63b8ff" stroke="#63b8ff" points="41.13,-190.07 32.39,-184.09 35.5,-194.22 41.13,-190.07"/>
</a>
</g>
</g>
<!-- Node16&#45;&gt;Node10 -->
<g id="edge23_Node000016_Node000010" class="edge">
<title>Node16&#45;&gt;Node10</title>
<g id="a_edge23_Node000016_Node000010"><a xlink:title=" ">
<path fill="none" stroke="#63b8ff" d="M321.21,-219.98C334.85,-211.77 355.76,-199.18 371.85,-189.49"/>
<polygon fill="#63b8ff" stroke="#63b8ff" points="373.91,-192.33 380.67,-184.17 370.3,-186.33 373.91,-192.33"/>
</a>
</g>
</g>
<!-- Node16&#45;&gt;Node11 -->
<g id="edge26_Node000016_Node000011" class="edge">
<title>Node16&#45;&gt;Node11</title>
<g id="a_edge26_Node000016_Node000011"><a xlink:title=" ">
<path fill="none" stroke="#63b8ff" d="M312.63,-219.66C323.9,-201.77 349.57,-161 364.24,-137.69"/>
<polygon fill="#63b8ff" stroke="#63b8ff" points="367.25,-139.49 369.62,-129.16 361.33,-135.76 367.25,-139.49"/>
</a>
</g>
</g>
<!-- Node17 -->
<g id="Node000017" class="node">
<title>Node17</title>
<g id="a_Node000017"><a xlink:href="no__os__irq_8h.html" target="_top" xlink:title="Header file of IRQ interface.">
<polygon fill="white" stroke="#666666" points="256.07,-74 184.07,-74 184.07,-55 256.07,-55 256.07,-74"/>
<text text-anchor="middle" x="220.07" y="-62" font-family="Helvetica,sans-Serif" font-size="10.00">no_os_irq.h</text>
</a>
</g>
</g>
<!-- Node16&#45;&gt;Node17 -->
<g id="edge24_Node000016_Node000017" class="edge">
<title>Node16&#45;&gt;Node17</title>
<g id="a_edge24_Node000016_Node000017"><a xlink:title=" ">
<path fill="none" stroke="#63b8ff" d="M306.75,-219.7C305.63,-198.93 300.49,-145.91 277.07,-110 269,-97.64 256.33,-87.24 244.97,-79.62"/>
<polygon fill="#63b8ff" stroke="#63b8ff" points="246.58,-76.5 236.26,-74.11 242.84,-82.41 246.58,-76.5"/>
</a>
</g>
</g>
<!-- Node18 -->
<g id="Node000018" class="node">
<title>Node18</title>
<g id="a_Node000018"><a xlink:href="no__os__error_8h.html" target="_top" xlink:title="Error codes definition.">
<polygon fill="white" stroke="#666666" points="279.07,-184 197.07,-184 197.07,-165 279.07,-165 279.07,-184"/>
<text text-anchor="middle" x="238.07" y="-172" font-family="Helvetica,sans-Serif" font-size="10.00">no_os_error.h</text>
</a>
</g>
</g>
<!-- Node16&#45;&gt;Node18 -->
<g id="edge27_Node000016_Node000018" class="edge">
<title>Node16&#45;&gt;Node18</title>
<g id="a_edge27_Node000016_Node000018"><a xlink:title=" ">
<path fill="none" stroke="#63b8ff" d="M295.98,-219.98C285.58,-212 269.81,-199.88 257.35,-190.31"/>
<polygon fill="#63b8ff" stroke="#63b8ff" points="259.42,-187.49 249.36,-184.17 255.15,-193.04 259.42,-187.49"/>
</a>
</g>
</g>
<!-- Node20 -->
<g id="Node000020" class="node">
<title>Node20</title>
<g id="a_Node000020"><a xlink:href="no__os__delay_8h.html" target="_top" xlink:title="Header file of Delay functions.">
<polygon fill="white" stroke="#666666" points="198.57,-129 113.57,-129 113.57,-110 198.57,-110 198.57,-129"/>
<text text-anchor="middle" x="156.07" y="-117" font-family="Helvetica,sans-Serif" font-size="10.00">no_os_delay.h</text>
</a>
</g>
</g>
<!-- Node16&#45;&gt;Node20 -->
<g id="edge29_Node000016_Node000020" class="edge">
<title>Node16&#45;&gt;Node20</title>
<g id="a_edge29_Node000016_Node000020"><a xlink:title=" ">
<path fill="none" stroke="#63b8ff" d="M276.94,-219.98C246.31,-210.85 201.49,-196.04 188.07,-184 174.59,-171.92 166.05,-152.84 161.22,-138.75"/>
<polygon fill="#63b8ff" stroke="#63b8ff" points="164.54,-137.65 158.22,-129.15 157.86,-139.73 164.54,-137.65"/>
</a>
</g>
</g>
<!-- Node17&#45;&gt;Node8 -->
<g id="edge25_Node000017_Node000008" class="edge">
<title>Node17&#45;&gt;Node8</title>
<g id="a_edge25_Node000017_Node000008"><a xlink:title=" ">
<path fill="none" stroke="#63b8ff" d="M237.74,-54.98C255.36,-46.5 282.65,-33.35 302.99,-23.54"/>
<polygon fill="#63b8ff" stroke="#63b8ff" points="304.58,-26.66 312.07,-19.17 301.55,-20.36 304.58,-26.66"/>
</a>
</g>
</g>
<!-- Node19 -->
<g id="Node000019" class="node">
<title>Node19</title>
<g id="a_Node000019"><a xlink:href="errno_8h.html" target="_top" xlink:title="Error macro definition for ARM Compiler.">
<polygon fill="white" stroke="#666666" points="267.57,-129 216.57,-129 216.57,-110 267.57,-110 267.57,-129"/>
<text text-anchor="middle" x="242.07" y="-117" font-family="Helvetica,sans-Serif" font-size="10.00">errno.h</text>
</a>
</g>
</g>
<!-- Node18&#45;&gt;Node19 -->
<g id="edge28_Node000018_Node000019" class="edge">
<title>Node18&#45;&gt;Node19</title>
<g id="a_edge28_Node000018_Node000019"><a xlink:title=" ">
<path fill="none" stroke="#63b8ff" d="M238.73,-164.75C239.25,-157.8 240,-147.85 240.66,-139.13"/>
<polygon fill="#63b8ff" stroke="#63b8ff" points="244.16,-139.32 241.42,-129.09 237.18,-138.8 244.16,-139.32"/>
</a>
</g>
</g>
<!-- Node20&#45;&gt;Node8 -->
<g id="edge30_Node000020_Node000008" class="edge">
<title>Node20&#45;&gt;Node8</title>
<g id="a_edge30_Node000020_Node000008"><a xlink:title=" ">
<path fill="none" stroke="#63b8ff" d="M156.16,-109.79C156.78,-96.18 160.01,-69.89 175.07,-55 206.55,-23.87 258.28,-14.22 293.24,-11.39"/>
<polygon fill="#63b8ff" stroke="#63b8ff" points="293.76,-14.86 303.5,-10.71 293.3,-7.88 293.76,-14.86"/>
</a>
</g>
</g>
</g>
</svg>
