<?xml version="1.0" encoding="UTF-8" standalone="no"?>
<!DOCTYPE svg PUBLIC "-//W3C//DTD SVG 1.1//EN"
 "http://www.w3.org/Graphics/SVG/1.1/DTD/svg11.dtd">
<!-- Generated by graphviz version 2.43.0 (0)
 -->
<!-- Title: /home/runner/work/no&#45;OS/no&#45;OS/drivers/mux/adg2404/adg2404.h Pages: 1 -->
<svg width="539pt" height="214pt"
 viewBox="0.00 0.00 538.50 214.00" xmlns="http://www.w3.org/2000/svg" xmlns:xlink="http://www.w3.org/1999/xlink">
<g id="graph0" class="graph" transform="scale(1 1) rotate(0) translate(4 210)">
<title>/home/runner/work/no&#45;OS/no&#45;OS/drivers/mux/adg2404/adg2404.h</title>
<!-- Node1 -->
<g id="Node000001" class="node">
<title>Node1</title>
<g id="a_Node000001"><a xlink:title="Header file of ADG2404 Driver.">
<polygon fill="#999999" stroke="#666666" points="314,-206 186,-206 186,-165 314,-165 314,-206"/>
<text text-anchor="start" x="194" y="-194" font-family="Helvetica,sans-Serif" font-size="10.00">/home/runner/work/no</text>
<text text-anchor="start" x="194" y="-183" font-family="Helvetica,sans-Serif" font-size="10.00">&#45;OS/no&#45;OS/drivers/mux</text>
<text text-anchor="middle" x="250" y="-172" font-family="Helvetica,sans-Serif" font-size="10.00">/adg2404/adg2404.h</text>
</a>
</g>
</g>
<!-- Node2 -->
<g id="Node000002" class="node">
<title>Node2</title>
<g id="a_Node000002"><a xlink:href="adg2404_8c.html" target="_top" xlink:title="Implementation of ADG2404 Driver.">
<polygon fill="white" stroke="#666666" points="128,-123.5 0,-123.5 0,-82.5 128,-82.5 128,-123.5"/>
<text text-anchor="start" x="8" y="-111.5" font-family="Helvetica,sans-Serif" font-size="10.00">/home/runner/work/no</text>
<text text-anchor="start" x="8" y="-100.5" font-family="Helvetica,sans-Serif" font-size="10.00">&#45;OS/no&#45;OS/drivers/mux</text>
<text text-anchor="middle" x="64" y="-89.5" font-family="Helvetica,sans-Serif" font-size="10.00">/adg2404/adg2404.c</text>
</a>
</g>
</g>
<!-- Node1&#45;&gt;Node2 -->
<g id="edge1_Node000001_Node000002" class="edge">
<title>Node1&#45;&gt;Node2</title>
<g id="a_edge1_Node000001_Node000002"><a xlink:title=" ">
<path fill="none" stroke="#63b8ff" d="M195.09,-160.73C167.79,-148.92 135.21,-134.82 109.35,-123.63"/>
<polygon fill="#63b8ff" stroke="#63b8ff" points="193.93,-164.05 204.5,-164.81 196.71,-157.62 193.93,-164.05"/>
</a>
</g>
</g>
<!-- Node3 -->
<g id="Node000003" class="node">
<title>Node3</title>
<g id="a_Node000003"><a xlink:href="eval-adg2404_2src_2common_2common__data_8h.html" target="_top" xlink:title="Defines common data to be used by eval&#45;adg2404 project.">
<polygon fill="white" stroke="#666666" points="353.5,-123.5 146.5,-123.5 146.5,-82.5 353.5,-82.5 353.5,-123.5"/>
<text text-anchor="start" x="154.5" y="-111.5" font-family="Helvetica,sans-Serif" font-size="10.00">/home/runner/work/no</text>
<text text-anchor="start" x="154.5" y="-100.5" font-family="Helvetica,sans-Serif" font-size="10.00">&#45;OS/no&#45;OS/projects/eval</text>
<text text-anchor="middle" x="250" y="-89.5" font-family="Helvetica,sans-Serif" font-size="10.00">&#45;adg2404/src/common/common_data.h</text>
</a>
</g>
</g>
<!-- Node1&#45;&gt;Node3 -->
<g id="edge2_Node000001_Node000003" class="edge">
<title>Node1&#45;&gt;Node3</title>
<g id="a_edge2_Node000001_Node000003"><a xlink:title=" ">
<path fill="none" stroke="#63b8ff" d="M250,-154.37C250,-144.1 250,-132.9 250,-123.67"/>
<polygon fill="#63b8ff" stroke="#63b8ff" points="246.5,-154.6 250,-164.6 253.5,-154.6 246.5,-154.6"/>
</a>
</g>
</g>
<!-- Node5 -->
<g id="Node000005" class="node">
<title>Node5</title>
<g id="a_Node000005"><a xlink:href="eval-adg2404_2src_2examples_2basic_2basic__example_8c.html" target="_top" xlink:title="Basic example for eval&#45;adg2404 project.">
<polygon fill="white" stroke="#666666" points="530.5,-129 371.5,-129 371.5,-77 530.5,-77 530.5,-129"/>
<text text-anchor="start" x="379.5" y="-117" font-family="Helvetica,sans-Serif" font-size="10.00">/home/runner/work/no</text>
<text text-anchor="start" x="379.5" y="-106" font-family="Helvetica,sans-Serif" font-size="10.00">&#45;OS/no&#45;OS/projects/eval</text>
<text text-anchor="start" x="379.5" y="-95" font-family="Helvetica,sans-Serif" font-size="10.00">&#45;adg2404/src/examples/basic</text>
<text text-anchor="middle" x="451" y="-84" font-family="Helvetica,sans-Serif" font-size="10.00">/basic_example.c</text>
</a>
</g>
</g>
<!-- Node1&#45;&gt;Node5 -->
<g id="edge4_Node000001_Node000005" class="edge">
<title>Node1&#45;&gt;Node5</title>
<g id="a_edge4_Node000001_Node000005"><a xlink:title=" ">
<path fill="none" stroke="#63b8ff" d="M308.32,-161.14C333.46,-151.08 362.9,-139.29 388.48,-129.04"/>
<polygon fill="#63b8ff" stroke="#63b8ff" points="306.9,-157.94 298.91,-164.91 309.5,-164.44 306.9,-157.94"/>
</a>
</g>
</g>
<!-- Node4 -->
<g id="Node000004" class="node">
<title>Node4</title>
<g id="a_Node000004"><a xlink:href="eval-adg2404_2src_2common_2common__data_8c.html" target="_top" xlink:title="Defines common data to be used by eval&#45;adg2404 project.">
<polygon fill="white" stroke="#666666" points="353,-41 147,-41 147,0 353,0 353,-41"/>
<text text-anchor="start" x="155" y="-29" font-family="Helvetica,sans-Serif" font-size="10.00">/home/runner/work/no</text>
<text text-anchor="start" x="155" y="-18" font-family="Helvetica,sans-Serif" font-size="10.00">&#45;OS/no&#45;OS/projects/eval</text>
<text text-anchor="middle" x="250" y="-7" font-family="Helvetica,sans-Serif" font-size="10.00">&#45;adg2404/src/common/common_data.c</text>
</a>
</g>
</g>
<!-- Node3&#45;&gt;Node4 -->
<g id="edge3_Node000003_Node000004" class="edge">
<title>Node3&#45;&gt;Node4</title>
<g id="a_edge3_Node000003_Node000004"><a xlink:title=" ">
<path fill="none" stroke="#63b8ff" d="M250,-71.87C250,-61.6 250,-50.4 250,-41.17"/>
<polygon fill="#63b8ff" stroke="#63b8ff" points="246.5,-72.1 250,-82.1 253.5,-72.1 246.5,-72.1"/>
</a>
</g>
</g>
</g>
</svg>
