<?xml version="1.0" encoding="UTF-8" standalone="no"?>
<!DOCTYPE svg PUBLIC "-//W3C//DTD SVG 1.1//EN"
 "http://www.w3.org/Graphics/SVG/1.1/DTD/svg11.dtd">
<!-- Generated by graphviz version 2.43.0 (0)
 -->
<!-- Title: /home/runner/work/no&#45;OS/no&#45;OS/drivers/switch/adgm3121/adgm3121.h Pages: 1 -->
<svg width="539pt" height="214pt"
 viewBox="0.00 0.00 538.50 214.00" xmlns="http://www.w3.org/2000/svg" xmlns:xlink="http://www.w3.org/1999/xlink">
<g id="graph0" class="graph" transform="scale(1 1) rotate(0) translate(4 210)">
<title>/home/runner/work/no&#45;OS/no&#45;OS/drivers/switch/adgm3121/adgm3121.h</title>
<!-- Node1 -->
<g id="Node000001" class="node">
<title>Node1</title>
<g id="a_Node000001"><a xlink:title="Header file of ADGM3121 Driver.">
<polygon fill="#999999" stroke="#666666" points="332,-206 195,-206 195,-165 332,-165 332,-206"/>
<text text-anchor="start" x="203" y="-194" font-family="Helvetica,sans-Serif" font-size="10.00">/home/runner/work/no</text>
<text text-anchor="start" x="203" y="-183" font-family="Helvetica,sans-Serif" font-size="10.00">&#45;OS/no&#45;OS/drivers/switch</text>
<text text-anchor="middle" x="263.5" y="-172" font-family="Helvetica,sans-Serif" font-size="10.00">/adgm3121/adgm3121.h</text>
</a>
</g>
</g>
<!-- Node2 -->
<g id="Node000002" class="node">
<title>Node2</title>
<g id="a_Node000002"><a xlink:href="adgm3121_8c.html" target="_top" xlink:title="Implementation of ADGM3121 Driver.">
<polygon fill="white" stroke="#666666" points="137,-123.5 0,-123.5 0,-82.5 137,-82.5 137,-123.5"/>
<text text-anchor="start" x="8" y="-111.5" font-family="Helvetica,sans-Serif" font-size="10.00">/home/runner/work/no</text>
<text text-anchor="start" x="8" y="-100.5" font-family="Helvetica,sans-Serif" font-size="10.00">&#45;OS/no&#45;OS/drivers/switch</text>
<text text-anchor="middle" x="68.5" y="-89.5" font-family="Helvetica,sans-Serif" font-size="10.00">/adgm3121/adgm3121.c</text>
</a>
</g>
</g>
<!-- Node1&#45;&gt;Node2 -->
<g id="edge1_Node000001_Node000002" class="edge">
<title>Node1&#45;&gt;Node2</title>
<g id="a_edge1_Node000001_Node000002"><a xlink:title=" ">
<path fill="none" stroke="#63b8ff" d="M206.3,-160.89C177.61,-149.04 143.27,-134.87 116.05,-123.63"/>
<polygon fill="#63b8ff" stroke="#63b8ff" points="205.22,-164.23 215.8,-164.81 207.89,-157.76 205.22,-164.23"/>
</a>
</g>
</g>
<!-- Node3 -->
<g id="Node000003" class="node">
<title>Node3</title>
<g id="a_Node000003"><a xlink:href="eval-adgm3121_2src_2common_2common__data_8h.html" target="_top" xlink:title="Defines common data to be used by eval&#45;adgm3121 example.">
<polygon fill="white" stroke="#666666" points="372,-123.5 155,-123.5 155,-82.5 372,-82.5 372,-123.5"/>
<text text-anchor="start" x="163" y="-111.5" font-family="Helvetica,sans-Serif" font-size="10.00">/home/runner/work/no</text>
<text text-anchor="start" x="163" y="-100.5" font-family="Helvetica,sans-Serif" font-size="10.00">&#45;OS/no&#45;OS/projects/eval</text>
<text text-anchor="middle" x="263.5" y="-89.5" font-family="Helvetica,sans-Serif" font-size="10.00">&#45;adgm3121/src/common/common_data.h</text>
</a>
</g>
</g>
<!-- Node1&#45;&gt;Node3 -->
<g id="edge2_Node000001_Node000003" class="edge">
<title>Node1&#45;&gt;Node3</title>
<g id="a_edge2_Node000001_Node000003"><a xlink:title=" ">
<path fill="none" stroke="#63b8ff" d="M263.5,-154.37C263.5,-144.1 263.5,-132.9 263.5,-123.67"/>
<polygon fill="#63b8ff" stroke="#63b8ff" points="260,-154.6 263.5,-164.6 267,-154.6 260,-154.6"/>
</a>
</g>
</g>
<!-- Node5 -->
<g id="Node000005" class="node">
<title>Node5</title>
<g id="a_Node000005"><a xlink:href="eval-adgm3121_2src_2examples_2basic_2basic__example_8c.html" target="_top" xlink:title="Source file for basic example.">
<polygon fill="white" stroke="#666666" points="530.5,-129 390.5,-129 390.5,-77 530.5,-77 530.5,-129"/>
<text text-anchor="start" x="398.5" y="-117" font-family="Helvetica,sans-Serif" font-size="10.00">/home/runner/work/no</text>
<text text-anchor="start" x="398.5" y="-106" font-family="Helvetica,sans-Serif" font-size="10.00">&#45;OS/no&#45;OS/projects/eval</text>
<text text-anchor="start" x="398.5" y="-95" font-family="Helvetica,sans-Serif" font-size="10.00">&#45;adgm3121/src/examples</text>
<text text-anchor="middle" x="460.5" y="-84" font-family="Helvetica,sans-Serif" font-size="10.00">/basic/basic_example.c</text>
</a>
</g>
</g>
<!-- Node1&#45;&gt;Node5 -->
<g id="edge4_Node000001_Node000005" class="edge">
<title>Node1&#45;&gt;Node5</title>
<g id="a_edge4_Node000001_Node000005"><a xlink:title=" ">
<path fill="none" stroke="#63b8ff" d="M320.98,-161.01C345.55,-150.97 374.26,-139.24 399.23,-129.04"/>
<polygon fill="#63b8ff" stroke="#63b8ff" points="319.37,-157.89 311.44,-164.91 322.02,-164.37 319.37,-157.89"/>
</a>
</g>
</g>
<!-- Node4 -->
<g id="Node000004" class="node">
<title>Node4</title>
<g id="a_Node000004"><a xlink:href="eval-adgm3121_2src_2common_2common__data_8c.html" target="_top" xlink:title="Defines common data to be used by eval&#45;adgm3121 example.">
<polygon fill="white" stroke="#666666" points="371.5,-41 155.5,-41 155.5,0 371.5,0 371.5,-41"/>
<text text-anchor="start" x="163.5" y="-29" font-family="Helvetica,sans-Serif" font-size="10.00">/home/runner/work/no</text>
<text text-anchor="start" x="163.5" y="-18" font-family="Helvetica,sans-Serif" font-size="10.00">&#45;OS/no&#45;OS/projects/eval</text>
<text text-anchor="middle" x="263.5" y="-7" font-family="Helvetica,sans-Serif" font-size="10.00">&#45;adgm3121/src/common/common_data.c</text>
</a>
</g>
</g>
<!-- Node3&#45;&gt;Node4 -->
<g id="edge3_Node000003_Node000004" class="edge">
<title>Node3&#45;&gt;Node4</title>
<g id="a_edge3_Node000003_Node000004"><a xlink:title=" ">
<path fill="none" stroke="#63b8ff" d="M263.5,-71.87C263.5,-61.6 263.5,-50.4 263.5,-41.17"/>
<polygon fill="#63b8ff" stroke="#63b8ff" points="260,-72.1 263.5,-82.1 267,-72.1 260,-72.1"/>
</a>
</g>
</g>
</g>
</svg>
