<?xml version="1.0" encoding="UTF-8" standalone="no"?>
<!DOCTYPE svg PUBLIC "-//W3C//DTD SVG 1.1//EN"
 "http://www.w3.org/Graphics/SVG/1.1/DTD/svg11.dtd">
<!-- Generated by graphviz version 2.43.0 (0)
 -->
<!-- Title: /home/runner/work/no&#45;OS/no&#45;OS/drivers/switch/adgs6414d/adgs6414d.c Pages: 1 -->
<svg width="419pt" height="214pt"
 viewBox="0.00 0.00 418.50 214.00" xmlns="http://www.w3.org/2000/svg" xmlns:xlink="http://www.w3.org/1999/xlink">
<g id="graph0" class="graph" transform="scale(1 1) rotate(0) translate(4 210)">
<title>/home/runner/work/no&#45;OS/no&#45;OS/drivers/switch/adgs6414d/adgs6414d.c</title>
<!-- Node1 -->
<g id="Node000001" class="node">
<title>Node1</title>
<g id="a_Node000001"><a xlink:title="Implementation of ADGS6414D Driver.">
<polygon fill="#999999" stroke="#666666" points="221.5,-206 84.5,-206 84.5,-165 221.5,-165 221.5,-206"/>
<text text-anchor="start" x="92.5" y="-194" font-family="Helvetica,sans-Serif" font-size="10.00">/home/runner/work/no</text>
<text text-anchor="start" x="92.5" y="-183" font-family="Helvetica,sans-Serif" font-size="10.00">&#45;OS/no&#45;OS/drivers/switch</text>
<text text-anchor="middle" x="153" y="-172" font-family="Helvetica,sans-Serif" font-size="10.00">/adgs6414d/adgs6414d.c</text>
</a>
</g>
</g>
<!-- Node2 -->
<g id="Node000002" class="node">
<title>Node2</title>
<g id="a_Node000002"><a xlink:title=" ">
<polygon fill="#e0e0e0" stroke="#999999" points="50,-74 0,-74 0,-55 50,-55 50,-74"/>
<text text-anchor="middle" x="25" y="-62" font-family="Helvetica,sans-Serif" font-size="10.00">stdio.h</text>
</a>
</g>
</g>
<!-- Node1&#45;&gt;Node2 -->
<g id="edge1_Node000001_Node000002" class="edge">
<title>Node1&#45;&gt;Node2</title>
<g id="a_edge1_Node000001_Node000002"><a xlink:title=" ">
<path fill="none" stroke="#63b8ff" d="M84.24,-167.11C64.41,-158.78 44.72,-146.61 32,-129 22.77,-116.21 21.63,-98.04 22.45,-84.41"/>
<polygon fill="#63b8ff" stroke="#63b8ff" points="25.95,-84.54 23.45,-74.25 18.99,-83.85 25.95,-84.54"/>
</a>
</g>
</g>
<!-- Node3 -->
<g id="Node000003" class="node">
<title>Node3</title>
<g id="a_Node000003"><a xlink:title=" ">
<polygon fill="#e0e0e0" stroke="#999999" points="127.5,-74 74.5,-74 74.5,-55 127.5,-55 127.5,-74"/>
<text text-anchor="middle" x="101" y="-62" font-family="Helvetica,sans-Serif" font-size="10.00">stdlib.h</text>
</a>
</g>
</g>
<!-- Node1&#45;&gt;Node3 -->
<g id="edge2_Node000001_Node000003" class="edge">
<title>Node1&#45;&gt;Node3</title>
<g id="a_edge2_Node000001_Node000003"><a xlink:title=" ">
<path fill="none" stroke="#63b8ff" d="M149.74,-164.84C146.71,-149.41 141.38,-127.67 133,-110 128.27,-100.02 121.25,-89.95 114.99,-81.91"/>
<polygon fill="#63b8ff" stroke="#63b8ff" points="117.67,-79.65 108.65,-74.1 112.23,-84.07 117.67,-79.65"/>
</a>
</g>
</g>
<!-- Node4 -->
<g id="Node000004" class="node">
<title>Node4</title>
<g id="a_Node000004"><a xlink:href="adgs6414d_8h.html" target="_top" xlink:title="Header file for ADGS6414D Driver.">
<polygon fill="white" stroke="#666666" points="260.5,-129 181.5,-129 181.5,-110 260.5,-110 260.5,-129"/>
<text text-anchor="middle" x="221" y="-117" font-family="Helvetica,sans-Serif" font-size="10.00">adgs6414d.h</text>
</a>
</g>
</g>
<!-- Node1&#45;&gt;Node4 -->
<g id="edge3_Node000001_Node000004" class="edge">
<title>Node1&#45;&gt;Node4</title>
<g id="a_edge3_Node000001_Node000004"><a xlink:title=" ">
<path fill="none" stroke="#63b8ff" d="M173.77,-164.95C183.56,-155.74 195.08,-144.9 204.29,-136.23"/>
<polygon fill="#63b8ff" stroke="#63b8ff" points="206.81,-138.66 211.69,-129.26 202.01,-133.57 206.81,-138.66"/>
</a>
</g>
</g>
<!-- Node8 -->
<g id="Node000008" class="node">
<title>Node8</title>
<g id="a_Node000008"><a xlink:href="no__os__error_8h.html" target="_top" xlink:title="Error codes definition.">
<polygon fill="white" stroke="#666666" points="389,-129 307,-129 307,-110 389,-110 389,-129"/>
<text text-anchor="middle" x="348" y="-117" font-family="Helvetica,sans-Serif" font-size="10.00">no_os_error.h</text>
</a>
</g>
</g>
<!-- Node1&#45;&gt;Node8 -->
<g id="edge8_Node000001_Node000008" class="edge">
<title>Node1&#45;&gt;Node8</title>
<g id="a_edge8_Node000001_Node000008"><a xlink:title=" ">
<path fill="none" stroke="#63b8ff" d="M212.57,-164.95C245.19,-154.24 284.52,-141.34 312.37,-132.19"/>
<polygon fill="#63b8ff" stroke="#63b8ff" points="313.67,-135.45 322.08,-129.01 311.48,-128.8 313.67,-135.45"/>
</a>
</g>
</g>
<!-- Node10 -->
<g id="Node000010" class="node">
<title>Node10</title>
<g id="a_Node000010"><a xlink:href="no__os__alloc_8h.html" target="_top" xlink:title=" ">
<polygon fill="white" stroke="#666666" points="124.5,-129 41.5,-129 41.5,-110 124.5,-110 124.5,-129"/>
<text text-anchor="middle" x="83" y="-117" font-family="Helvetica,sans-Serif" font-size="10.00">no_os_alloc.h</text>
</a>
</g>
</g>
<!-- Node1&#45;&gt;Node10 -->
<g id="edge10_Node000001_Node000010" class="edge">
<title>Node1&#45;&gt;Node10</title>
<g id="a_edge10_Node000001_Node000010"><a xlink:title=" ">
<path fill="none" stroke="#63b8ff" d="M131.62,-164.95C121.54,-155.74 109.68,-144.9 100.2,-136.23"/>
<polygon fill="#63b8ff" stroke="#63b8ff" points="102.32,-133.43 92.58,-129.26 97.6,-138.59 102.32,-133.43"/>
</a>
</g>
</g>
<!-- Node5 -->
<g id="Node000005" class="node">
<title>Node5</title>
<g id="a_Node000005"><a xlink:title=" ">
<polygon fill="#e0e0e0" stroke="#999999" points="257.5,-19 204.5,-19 204.5,0 257.5,0 257.5,-19"/>
<text text-anchor="middle" x="231" y="-7" font-family="Helvetica,sans-Serif" font-size="10.00">stdint.h</text>
</a>
</g>
</g>
<!-- Node4&#45;&gt;Node5 -->
<g id="edge4_Node000004_Node000005" class="edge">
<title>Node4&#45;&gt;Node5</title>
<g id="a_edge4_Node000004_Node000005"><a xlink:title=" ">
<path fill="none" stroke="#63b8ff" d="M208.13,-109.99C192.14,-98.29 168.1,-76.24 178,-55 183.83,-42.49 195.09,-32.25 205.75,-24.76"/>
<polygon fill="#63b8ff" stroke="#63b8ff" points="207.94,-27.51 214.42,-19.13 204.12,-21.64 207.94,-27.51"/>
</a>
</g>
</g>
<!-- Node6 -->
<g id="Node000006" class="node">
<title>Node6</title>
<g id="a_Node000006"><a xlink:title=" ">
<polygon fill="#e0e0e0" stroke="#999999" points="249,-74 187,-74 187,-55 249,-55 249,-74"/>
<text text-anchor="middle" x="218" y="-62" font-family="Helvetica,sans-Serif" font-size="10.00">stdbool.h</text>
</a>
</g>
</g>
<!-- Node4&#45;&gt;Node6 -->
<g id="edge5_Node000004_Node000006" class="edge">
<title>Node4&#45;&gt;Node6</title>
<g id="a_edge5_Node000004_Node000006"><a xlink:title=" ">
<path fill="none" stroke="#63b8ff" d="M220.5,-109.75C220.11,-102.8 219.55,-92.85 219.05,-84.13"/>
<polygon fill="#63b8ff" stroke="#63b8ff" points="222.55,-83.88 218.49,-74.09 215.56,-84.27 222.55,-83.88"/>
</a>
</g>
</g>
<!-- Node7 -->
<g id="Node000007" class="node">
<title>Node7</title>
<g id="a_Node000007"><a xlink:href="no__os__spi_8h.html" target="_top" xlink:title="Header file of SPI Interface.">
<polygon fill="white" stroke="#666666" points="341,-74 267,-74 267,-55 341,-55 341,-74"/>
<text text-anchor="middle" x="304" y="-62" font-family="Helvetica,sans-Serif" font-size="10.00">no_os_spi.h</text>
</a>
</g>
</g>
<!-- Node4&#45;&gt;Node7 -->
<g id="edge6_Node000004_Node000007" class="edge">
<title>Node4&#45;&gt;Node7</title>
<g id="a_edge6_Node000004_Node000007"><a xlink:title=" ">
<path fill="none" stroke="#63b8ff" d="M234.34,-109.98C247.09,-101.84 266.55,-89.41 281.67,-79.76"/>
<polygon fill="#63b8ff" stroke="#63b8ff" points="283.88,-82.5 290.42,-74.17 280.11,-76.6 283.88,-82.5"/>
</a>
</g>
</g>
<!-- Node7&#45;&gt;Node5 -->
<g id="edge7_Node000007_Node000005" class="edge">
<title>Node7&#45;&gt;Node5</title>
<g id="a_edge7_Node000007_Node000005"><a xlink:title=" ">
<path fill="none" stroke="#63b8ff" d="M292.27,-54.98C281.27,-47 264.58,-34.88 251.4,-25.31"/>
<polygon fill="#63b8ff" stroke="#63b8ff" points="253.09,-22.21 242.94,-19.17 248.98,-27.88 253.09,-22.21"/>
</a>
</g>
</g>
<!-- Node9 -->
<g id="Node000009" class="node">
<title>Node9</title>
<g id="a_Node000009"><a xlink:href="errno_8h.html" target="_top" xlink:title="Error macro definition for ARM Compiler.">
<polygon fill="white" stroke="#666666" points="410.5,-74 359.5,-74 359.5,-55 410.5,-55 410.5,-74"/>
<text text-anchor="middle" x="385" y="-62" font-family="Helvetica,sans-Serif" font-size="10.00">errno.h</text>
</a>
</g>
</g>
<!-- Node8&#45;&gt;Node9 -->
<g id="edge9_Node000008_Node000009" class="edge">
<title>Node8&#45;&gt;Node9</title>
<g id="a_edge9_Node000008_Node000009"><a xlink:title=" ">
<path fill="none" stroke="#63b8ff" d="M354.11,-109.75C359.28,-102.34 366.85,-91.5 373.19,-82.41"/>
<polygon fill="#63b8ff" stroke="#63b8ff" points="376.15,-84.29 379,-74.09 370.41,-80.29 376.15,-84.29"/>
</a>
</g>
</g>
<!-- Node10&#45;&gt;Node2 -->
<g id="edge11_Node000010_Node000002" class="edge">
<title>Node10&#45;&gt;Node2</title>
<g id="a_edge11_Node000010_Node000002"><a xlink:title=" ">
<path fill="none" stroke="#63b8ff" d="M73.68,-109.98C65.19,-102.23 52.44,-90.58 42.12,-81.14"/>
<polygon fill="#63b8ff" stroke="#63b8ff" points="44.23,-78.33 34.49,-74.17 39.51,-83.5 44.23,-78.33"/>
</a>
</g>
</g>
<!-- Node10&#45;&gt;Node3 -->
<g id="edge12_Node000010_Node000003" class="edge">
<title>Node10&#45;&gt;Node3</title>
<g id="a_edge12_Node000010_Node000003"><a xlink:title=" ">
<path fill="none" stroke="#63b8ff" d="M85.97,-109.75C88.36,-102.72 91.79,-92.62 94.77,-83.84"/>
<polygon fill="#63b8ff" stroke="#63b8ff" points="98.18,-84.68 98.08,-74.09 91.55,-82.43 98.18,-84.68"/>
</a>
</g>
</g>
</g>
</svg>
