<?xml version="1.0" encoding="UTF-8" standalone="no"?>
<!DOCTYPE svg PUBLIC "-//W3C//DTD SVG 1.1//EN"
 "http://www.w3.org/Graphics/SVG/1.1/DTD/svg11.dtd">
<!-- Generated by graphviz version 2.43.0 (0)
 -->
<!-- Title: /home/runner/work/no&#45;OS/no&#45;OS/drivers/mux/adgs5412/adgs5412.c Pages: 1 -->
<svg width="364pt" height="214pt"
 viewBox="0.00 0.00 364.00 214.00" xmlns="http://www.w3.org/2000/svg" xmlns:xlink="http://www.w3.org/1999/xlink">
<g id="graph0" class="graph" transform="scale(1 1) rotate(0) translate(4 210)">
<title>/home/runner/work/no&#45;OS/no&#45;OS/drivers/mux/adgs5412/adgs5412.c</title>
<!-- Node1 -->
<g id="Node000001" class="node">
<title>Node1</title>
<g id="a_Node000001"><a xlink:title="Implementation of ADGS5412 Driver.">
<polygon fill="#999999" stroke="#666666" points="218,-206 90,-206 90,-165 218,-165 218,-206"/>
<text text-anchor="start" x="98" y="-194" font-family="Helvetica,sans-Serif" font-size="10.00">/home/runner/work/no</text>
<text text-anchor="start" x="98" y="-183" font-family="Helvetica,sans-Serif" font-size="10.00">&#45;OS/no&#45;OS/drivers/mux</text>
<text text-anchor="middle" x="154" y="-172" font-family="Helvetica,sans-Serif" font-size="10.00">/adgs5412/adgs5412.c</text>
</a>
</g>
</g>
<!-- Node2 -->
<g id="Node000002" class="node">
<title>Node2</title>
<g id="a_Node000002"><a xlink:title=" ">
<polygon fill="#e0e0e0" stroke="#999999" points="50,-74 0,-74 0,-55 50,-55 50,-74"/>
<text text-anchor="middle" x="25" y="-62" font-family="Helvetica,sans-Serif" font-size="10.00">stdio.h</text>
</a>
</g>
</g>
<!-- Node1&#45;&gt;Node2 -->
<g id="edge1_Node000001_Node000002" class="edge">
<title>Node1&#45;&gt;Node2</title>
<g id="a_edge1_Node000001_Node000002"><a xlink:title=" ">
<path fill="none" stroke="#63b8ff" d="M89.83,-168.8C68.56,-160.43 46.81,-147.82 33,-129 23.65,-116.26 22.22,-98.08 22.8,-84.44"/>
<polygon fill="#63b8ff" stroke="#63b8ff" points="26.3,-84.51 23.62,-74.26 19.32,-83.95 26.3,-84.51"/>
</a>
</g>
</g>
<!-- Node3 -->
<g id="Node000003" class="node">
<title>Node3</title>
<g id="a_Node000003"><a xlink:title=" ">
<polygon fill="#e0e0e0" stroke="#999999" points="128.5,-74 75.5,-74 75.5,-55 128.5,-55 128.5,-74"/>
<text text-anchor="middle" x="102" y="-62" font-family="Helvetica,sans-Serif" font-size="10.00">stdlib.h</text>
</a>
</g>
</g>
<!-- Node1&#45;&gt;Node3 -->
<g id="edge2_Node000001_Node000003" class="edge">
<title>Node1&#45;&gt;Node3</title>
<g id="a_edge2_Node000001_Node000003"><a xlink:title=" ">
<path fill="none" stroke="#63b8ff" d="M150.74,-164.84C147.71,-149.41 142.38,-127.67 134,-110 129.27,-100.02 122.25,-89.95 115.99,-81.91"/>
<polygon fill="#63b8ff" stroke="#63b8ff" points="118.67,-79.65 109.65,-74.1 113.23,-84.07 118.67,-79.65"/>
</a>
</g>
</g>
<!-- Node4 -->
<g id="Node000004" class="node">
<title>Node4</title>
<g id="a_Node000004"><a xlink:href="adgs5412_8h.html" target="_top" xlink:title="Header file of ADGS5412 Driver.">
<polygon fill="white" stroke="#666666" points="255.5,-129 182.5,-129 182.5,-110 255.5,-110 255.5,-129"/>
<text text-anchor="middle" x="219" y="-117" font-family="Helvetica,sans-Serif" font-size="10.00">adgs5412.h</text>
</a>
</g>
</g>
<!-- Node1&#45;&gt;Node4 -->
<g id="edge3_Node000001_Node000004" class="edge">
<title>Node1&#45;&gt;Node4</title>
<g id="a_edge3_Node000001_Node000004"><a xlink:title=" ">
<path fill="none" stroke="#63b8ff" d="M173.86,-164.95C183.12,-155.83 194,-145.11 202.76,-136.49"/>
<polygon fill="#63b8ff" stroke="#63b8ff" points="205.43,-138.77 210.1,-129.26 200.52,-133.78 205.43,-138.77"/>
</a>
</g>
</g>
<!-- Node7 -->
<g id="Node000007" class="node">
<title>Node7</title>
<g id="a_Node000007"><a xlink:href="no__os__error_8h.html" target="_top" xlink:title="Error codes definition.">
<polygon fill="white" stroke="#666666" points="356,-129 274,-129 274,-110 356,-110 356,-129"/>
<text text-anchor="middle" x="315" y="-117" font-family="Helvetica,sans-Serif" font-size="10.00">no_os_error.h</text>
</a>
</g>
</g>
<!-- Node1&#45;&gt;Node7 -->
<g id="edge7_Node000001_Node000007" class="edge">
<title>Node1&#45;&gt;Node7</title>
<g id="a_edge7_Node000001_Node000007"><a xlink:title=" ">
<path fill="none" stroke="#63b8ff" d="M203.18,-164.95C229.44,-154.51 260.97,-141.98 283.84,-132.88"/>
<polygon fill="#63b8ff" stroke="#63b8ff" points="285.39,-136.04 293.39,-129.09 282.8,-129.53 285.39,-136.04"/>
</a>
</g>
</g>
<!-- Node9 -->
<g id="Node000009" class="node">
<title>Node9</title>
<g id="a_Node000009"><a xlink:href="no__os__alloc_8h.html" target="_top" xlink:title=" ">
<polygon fill="white" stroke="#666666" points="125.5,-129 42.5,-129 42.5,-110 125.5,-110 125.5,-129"/>
<text text-anchor="middle" x="84" y="-117" font-family="Helvetica,sans-Serif" font-size="10.00">no_os_alloc.h</text>
</a>
</g>
</g>
<!-- Node1&#45;&gt;Node9 -->
<g id="edge9_Node000001_Node000009" class="edge">
<title>Node1&#45;&gt;Node9</title>
<g id="a_edge9_Node000001_Node000009"><a xlink:title=" ">
<path fill="none" stroke="#63b8ff" d="M132.62,-164.95C122.54,-155.74 110.68,-144.9 101.2,-136.23"/>
<polygon fill="#63b8ff" stroke="#63b8ff" points="103.32,-133.43 93.58,-129.26 98.6,-138.59 103.32,-133.43"/>
</a>
</g>
</g>
<!-- Node5 -->
<g id="Node000005" class="node">
<title>Node5</title>
<g id="a_Node000005"><a xlink:title=" ">
<polygon fill="#e0e0e0" stroke="#999999" points="219.5,-19 166.5,-19 166.5,0 219.5,0 219.5,-19"/>
<text text-anchor="middle" x="193" y="-7" font-family="Helvetica,sans-Serif" font-size="10.00">stdint.h</text>
</a>
</g>
</g>
<!-- Node4&#45;&gt;Node5 -->
<g id="edge4_Node000004_Node000005" class="edge">
<title>Node4&#45;&gt;Node5</title>
<g id="a_edge4_Node000004_Node000005"><a xlink:title=" ">
<path fill="none" stroke="#63b8ff" d="M208.01,-109.99C198.55,-101.9 185.57,-88.81 180,-74 174.44,-59.21 178.89,-41.53 184.04,-28.59"/>
<polygon fill="#63b8ff" stroke="#63b8ff" points="187.28,-29.93 188.15,-19.37 180.88,-27.08 187.28,-29.93"/>
</a>
</g>
</g>
<!-- Node6 -->
<g id="Node000006" class="node">
<title>Node6</title>
<g id="a_Node000006"><a xlink:href="no__os__spi_8h.html" target="_top" xlink:title="Header file of SPI Interface.">
<polygon fill="white" stroke="#666666" points="263,-74 189,-74 189,-55 263,-55 263,-74"/>
<text text-anchor="middle" x="226" y="-62" font-family="Helvetica,sans-Serif" font-size="10.00">no_os_spi.h</text>
</a>
</g>
</g>
<!-- Node4&#45;&gt;Node6 -->
<g id="edge5_Node000004_Node000006" class="edge">
<title>Node4&#45;&gt;Node6</title>
<g id="a_edge5_Node000004_Node000006"><a xlink:title=" ">
<path fill="none" stroke="#63b8ff" d="M220.16,-109.75C221.07,-102.8 222.39,-92.85 223.54,-84.13"/>
<polygon fill="#63b8ff" stroke="#63b8ff" points="227.03,-84.46 224.87,-74.09 220.09,-83.54 227.03,-84.46"/>
</a>
</g>
</g>
<!-- Node6&#45;&gt;Node5 -->
<g id="edge6_Node000006_Node000005" class="edge">
<title>Node6&#45;&gt;Node5</title>
<g id="a_edge6_Node000006_Node000005"><a xlink:title=" ">
<path fill="none" stroke="#63b8ff" d="M220.55,-54.75C215.99,-47.42 209.33,-36.73 203.71,-27.7"/>
<polygon fill="#63b8ff" stroke="#63b8ff" points="206.6,-25.73 198.35,-19.09 200.66,-29.43 206.6,-25.73"/>
</a>
</g>
</g>
<!-- Node8 -->
<g id="Node000008" class="node">
<title>Node8</title>
<g id="a_Node000008"><a xlink:href="errno_8h.html" target="_top" xlink:title="Error macro definition for ARM Compiler.">
<polygon fill="white" stroke="#666666" points="340.5,-74 289.5,-74 289.5,-55 340.5,-55 340.5,-74"/>
<text text-anchor="middle" x="315" y="-62" font-family="Helvetica,sans-Serif" font-size="10.00">errno.h</text>
</a>
</g>
</g>
<!-- Node7&#45;&gt;Node8 -->
<g id="edge8_Node000007_Node000008" class="edge">
<title>Node7&#45;&gt;Node8</title>
<g id="a_edge8_Node000007_Node000008"><a xlink:title=" ">
<path fill="none" stroke="#63b8ff" d="M315,-109.75C315,-102.8 315,-92.85 315,-84.13"/>
<polygon fill="#63b8ff" stroke="#63b8ff" points="318.5,-84.09 315,-74.09 311.5,-84.09 318.5,-84.09"/>
</a>
</g>
</g>
<!-- Node9&#45;&gt;Node2 -->
<g id="edge10_Node000009_Node000002" class="edge">
<title>Node9&#45;&gt;Node2</title>
<g id="a_edge10_Node000009_Node000002"><a xlink:title=" ">
<path fill="none" stroke="#63b8ff" d="M74.52,-109.98C65.8,-102.15 52.66,-90.34 42.1,-80.86"/>
<polygon fill="#63b8ff" stroke="#63b8ff" points="44.43,-78.25 34.65,-74.17 39.75,-83.46 44.43,-78.25"/>
</a>
</g>
</g>
<!-- Node9&#45;&gt;Node3 -->
<g id="edge11_Node000009_Node000003" class="edge">
<title>Node9&#45;&gt;Node3</title>
<g id="a_edge11_Node000009_Node000003"><a xlink:title=" ">
<path fill="none" stroke="#63b8ff" d="M86.97,-109.75C89.36,-102.72 92.79,-92.62 95.77,-83.84"/>
<polygon fill="#63b8ff" stroke="#63b8ff" points="99.18,-84.68 99.08,-74.09 92.55,-82.43 99.18,-84.68"/>
</a>
</g>
</g>
</g>
</svg>
