<?xml version="1.0" encoding="UTF-8" standalone="no"?>
<!DOCTYPE svg PUBLIC "-//W3C//DTD SVG 1.1//EN"
 "http://www.w3.org/Graphics/SVG/1.1/DTD/svg11.dtd">
<!-- Generated by graphviz version 2.43.0 (0)
 -->
<!-- Title: /home/runner/work/no&#45;OS/no&#45;OS/drivers/amplifiers/adhv4710/adhv4710.h Pages: 1 -->
<svg width="695pt" height="225pt"
 viewBox="0.00 0.00 694.50 225.00" xmlns="http://www.w3.org/2000/svg" xmlns:xlink="http://www.w3.org/1999/xlink">
<g id="graph0" class="graph" transform="scale(1 1) rotate(0) translate(4 221)">
<title>/home/runner/work/no&#45;OS/no&#45;OS/drivers/amplifiers/adhv4710/adhv4710.h</title>
<!-- Node1 -->
<g id="Node000001" class="node">
<title>Node1</title>
<g id="a_Node000001"><a xlink:title="Header file of ADHV4710 Driver.">
<polygon fill="#999999" stroke="#666666" points="452,-217 297,-217 297,-176 452,-176 452,-217"/>
<text text-anchor="start" x="305" y="-205" font-family="Helvetica,sans-Serif" font-size="10.00">/home/runner/work/no</text>
<text text-anchor="start" x="305" y="-194" font-family="Helvetica,sans-Serif" font-size="10.00">&#45;OS/no&#45;OS/drivers/amplifiers</text>
<text text-anchor="middle" x="374.5" y="-183" font-family="Helvetica,sans-Serif" font-size="10.00">/adhv4710/adhv4710.h</text>
</a>
</g>
</g>
<!-- Node2 -->
<g id="Node000002" class="node">
<title>Node2</title>
<g id="a_Node000002"><a xlink:href="adhv4710_8c.html" target="_top" xlink:title="Implementation of ADHV4710 Driver.">
<polygon fill="white" stroke="#666666" points="155,-134.5 0,-134.5 0,-93.5 155,-93.5 155,-134.5"/>
<text text-anchor="start" x="8" y="-122.5" font-family="Helvetica,sans-Serif" font-size="10.00">/home/runner/work/no</text>
<text text-anchor="start" x="8" y="-111.5" font-family="Helvetica,sans-Serif" font-size="10.00">&#45;OS/no&#45;OS/drivers/amplifiers</text>
<text text-anchor="middle" x="77.5" y="-100.5" font-family="Helvetica,sans-Serif" font-size="10.00">/adhv4710/adhv4710.c</text>
</a>
</g>
</g>
<!-- Node1&#45;&gt;Node2 -->
<g id="edge1_Node000001_Node000002" class="edge">
<title>Node1&#45;&gt;Node2</title>
<g id="a_edge1_Node000001_Node000002"><a xlink:title=" ">
<path fill="none" stroke="#63b8ff" d="M289.02,-173.35C250.86,-163.35 205.38,-151.27 164.5,-140 158.14,-138.25 151.52,-136.39 144.9,-134.52"/>
<polygon fill="#63b8ff" stroke="#63b8ff" points="288.51,-176.84 299.07,-175.98 290.28,-170.06 288.51,-176.84"/>
</a>
</g>
</g>
<!-- Node3 -->
<g id="Node000003" class="node">
<title>Node3</title>
<g id="a_Node000003"><a xlink:href="eval-adhv4710_2src_2common_2common__data_8h.html" target="_top" xlink:title="Defines common data to be used by ADHV4710 example project.">
<polygon fill="white" stroke="#666666" points="386,-134.5 173,-134.5 173,-93.5 386,-93.5 386,-134.5"/>
<text text-anchor="start" x="181" y="-122.5" font-family="Helvetica,sans-Serif" font-size="10.00">/home/runner/work/no</text>
<text text-anchor="start" x="181" y="-111.5" font-family="Helvetica,sans-Serif" font-size="10.00">&#45;OS/no&#45;OS/projects/eval</text>
<text text-anchor="middle" x="279.5" y="-100.5" font-family="Helvetica,sans-Serif" font-size="10.00">&#45;adhv4710/src/common/common_data.h</text>
</a>
</g>
</g>
<!-- Node1&#45;&gt;Node3 -->
<g id="edge2_Node000001_Node000003" class="edge">
<title>Node1&#45;&gt;Node3</title>
<g id="a_edge2_Node000001_Node000003"><a xlink:title=" ">
<path fill="none" stroke="#63b8ff" d="M343.1,-168.89C329.92,-157.72 314.86,-144.97 302.71,-134.67"/>
<polygon fill="#63b8ff" stroke="#63b8ff" points="341.12,-171.81 351.02,-175.6 345.65,-166.47 341.12,-171.81"/>
</a>
</g>
</g>
<!-- Node4 -->
<g id="Node000004" class="node">
<title>Node4</title>
<g id="a_Node000004"><a xlink:href="eval-adhv4710_2src_2main_8c.html" target="_top" xlink:title="Main function of ADHV4710 example.">
<polygon fill="white" stroke="#666666" points="536.5,-134.5 404.5,-134.5 404.5,-93.5 536.5,-93.5 536.5,-134.5"/>
<text text-anchor="start" x="412.5" y="-122.5" font-family="Helvetica,sans-Serif" font-size="10.00">/home/runner/work/no</text>
<text text-anchor="start" x="412.5" y="-111.5" font-family="Helvetica,sans-Serif" font-size="10.00">&#45;OS/no&#45;OS/projects/eval</text>
<text text-anchor="middle" x="470.5" y="-100.5" font-family="Helvetica,sans-Serif" font-size="10.00">&#45;adhv4710/src/main.c</text>
</a>
</g>
</g>
<!-- Node1&#45;&gt;Node4 -->
<g id="edge3_Node000001_Node000004" class="edge">
<title>Node1&#45;&gt;Node4</title>
<g id="a_edge3_Node000001_Node000004"><a xlink:title=" ">
<path fill="none" stroke="#63b8ff" d="M406.23,-168.89C419.55,-157.72 434.76,-144.97 447.04,-134.67"/>
<polygon fill="#63b8ff" stroke="#63b8ff" points="403.64,-166.49 398.23,-175.6 408.14,-171.86 403.64,-166.49"/>
</a>
</g>
</g>
<!-- Node5 -->
<g id="Node000005" class="node">
<title>Node5</title>
<g id="a_Node000005"><a xlink:href="eval-adhv4710_2src_2platform_2platform_8h.html" target="_top" xlink:title="Defines platform data to be used by ADHV4710 example project.">
<polygon fill="white" stroke="#666666" points="686.5,-140 554.5,-140 554.5,-88 686.5,-88 686.5,-140"/>
<text text-anchor="start" x="562.5" y="-128" font-family="Helvetica,sans-Serif" font-size="10.00">/home/runner/work/no</text>
<text text-anchor="start" x="562.5" y="-117" font-family="Helvetica,sans-Serif" font-size="10.00">&#45;OS/no&#45;OS/projects/eval</text>
<text text-anchor="start" x="562.5" y="-106" font-family="Helvetica,sans-Serif" font-size="10.00">&#45;adhv4710/src/platform</text>
<text text-anchor="middle" x="620.5" y="-95" font-family="Helvetica,sans-Serif" font-size="10.00">/platform.h</text>
</a>
</g>
</g>
<!-- Node1&#45;&gt;Node5 -->
<g id="edge4_Node000001_Node000005" class="edge">
<title>Node1&#45;&gt;Node5</title>
<g id="a_edge4_Node000001_Node000005"><a xlink:title=" ">
<path fill="none" stroke="#63b8ff" d="M444.89,-172.79C475.78,-162.79 512.46,-150.87 545.5,-140 548.37,-139.06 551.3,-138.09 554.26,-137.11"/>
<polygon fill="#63b8ff" stroke="#63b8ff" points="443.52,-169.56 435.08,-175.97 445.67,-176.22 443.52,-169.56"/>
</a>
</g>
</g>
<!-- Node6 -->
<g id="Node000006" class="node">
<title>Node6</title>
<g id="a_Node000006"><a xlink:href="eval-adhv4710_2src_2platform_2platform_8c.html" target="_top" xlink:title="Defines platform data to be used by ADHV4710 example project.">
<polygon fill="white" stroke="#666666" points="686.5,-52 554.5,-52 554.5,0 686.5,0 686.5,-52"/>
<text text-anchor="start" x="562.5" y="-40" font-family="Helvetica,sans-Serif" font-size="10.00">/home/runner/work/no</text>
<text text-anchor="start" x="562.5" y="-29" font-family="Helvetica,sans-Serif" font-size="10.00">&#45;OS/no&#45;OS/projects/eval</text>
<text text-anchor="start" x="562.5" y="-18" font-family="Helvetica,sans-Serif" font-size="10.00">&#45;adhv4710/src/platform</text>
<text text-anchor="middle" x="620.5" y="-7" font-family="Helvetica,sans-Serif" font-size="10.00">/platform.c</text>
</a>
</g>
</g>
<!-- Node5&#45;&gt;Node6 -->
<g id="edge5_Node000005_Node000006" class="edge">
<title>Node5&#45;&gt;Node6</title>
<g id="a_edge5_Node000005_Node000006"><a xlink:title=" ">
<path fill="none" stroke="#63b8ff" d="M620.5,-77.56C620.5,-69.04 620.5,-60.1 620.5,-52.16"/>
<polygon fill="#63b8ff" stroke="#63b8ff" points="617,-77.66 620.5,-87.66 624,-77.66 617,-77.66"/>
</a>
</g>
</g>
</g>
</svg>
