<?xml version="1.0" encoding="UTF-8" standalone="no"?>
<!DOCTYPE svg PUBLIC "-//W3C//DTD SVG 1.1//EN"
 "http://www.w3.org/Graphics/SVG/1.1/DTD/svg11.dtd">
<!-- Generated by graphviz version 2.43.0 (0)
 -->
<!-- Title: /home/runner/work/no&#45;OS/no&#45;OS/projects/adrv9009/src/devices/adi_hal/adi_hal.h Pages: 1 -->
<!--zoomable 203 -->

<svg id="main" version="1.1" xmlns="http://www.w3.org/2000/svg" xmlns:xlink="http://www.w3.org/1999/xlink" xml:space="preserve" onload="init(evt)">

<style type="text/css"><![CDATA[
.node, .edge {opacity: 0.7;}
.node.selected, .edge.selected {opacity: 1;}
.edge:hover path { stroke: red; }
.edge:hover polygon { stroke: red; fill: red; }
]]></style>

<defs>
  <circle id="rim" cx="0" cy="0" r="7"/>
  <circle id="rim2" cx="0" cy="0" r="3.5"/>
  <g id="zoomPlus">
    <use xlink:href="#rim" fill="#404040"><set attributeName="fill" to="#808080" begin="zoomplus.mouseover" end="zoomplus.mouseout"/></use>
    <path d="M-4,0h8M0,-4v8" fill="none" stroke="white" stroke-width="1.5" pointer-events="none"/>
  </g>
  <g id="zoomMin">
    <use xlink:href="#rim" fill="#404040"><set attributeName="fill" to="#808080" begin="zoomminus.mouseover" end="zoomminus.mouseout"/></use>
    <path d="M-4,0h8" fill="none" stroke="white" stroke-width="1.5" pointer-events="none"/>
  </g>
  <g id="arrowUp" transform="translate(30 24)">
    <use xlink:href="#rim"/>
    <path pointer-events="none" fill="none" stroke="white" stroke-width="1.5" d="M0,-3.0v7 M-2.5,-0.5L0,-3.0L2.5,-0.5"/>
  </g>
  <g id="arrowRight" transform="rotate(90) translate(36 -43)">
    <use xlink:href="#rim"/>
    <path pointer-events="none" fill="none" stroke="white" stroke-width="1.5" d="M0,-3.0v7 M-2.5,-0.5L0,-3.0L2.5,-0.5"/>
  </g>
  <g id="arrowDown" transform="rotate(180) translate(-30 -48)">
    <use xlink:href="#rim"/>
    <path pointer-events="none" fill="none" stroke="white" stroke-width="1.5" d="M0,-3.0v7 M-2.5,-0.5L0,-3.0L2.5,-0.5"/>
  </g>
  <g id="arrowLeft" transform="rotate(270) translate(-36 17)">
    <use xlink:href="#rim"/>
    <path pointer-events="none" fill="none" stroke="white" stroke-width="1.5" d="M0,-3.0v7 M-2.5,-0.5L0,-3.0L2.5,-0.5"/>
  </g>
  <g id="resetDef">
    <use xlink:href="#rim2" fill="#404040"><set attributeName="fill" to="#808080" begin="reset.mouseover" end="reset.mouseout"/></use>
  </g>
</defs>
<script type="application/ecmascript">
var viewWidth = 1404;
var viewHeight = 203;
var sectionId = 'dynsection-1';
</script>
<script type="application/ecmascript" xlink:href="svg.min.js"/>
<svg id="graph" class="graph">
<g id="viewport">
<title>/home/runner/work/no&#45;OS/no&#45;OS/projects/adrv9009/src/devices/adi_hal/adi_hal.h</title>
<!-- Node1 -->
<g id="Node000001" class="node">
<title>Node1</title>
<g id="a_Node000001"><a xlink:title="Contains Talise ADI HAL function prototypes type definitions for adi_hal.c.">
<polygon fill="#999999" stroke="#666666" points="725.14,-195 565.14,-195 565.14,-154 725.14,-154 725.14,-195"/>
<text text-anchor="start" x="573.14" y="-183" font-family="Helvetica,sans-Serif" font-size="10.00">/home/runner/work/no</text>
<text text-anchor="start" x="573.14" y="-172" font-family="Helvetica,sans-Serif" font-size="10.00">&#45;OS/no&#45;OS/projects/adrv9009</text>
<text text-anchor="middle" x="645.14" y="-161" font-family="Helvetica,sans-Serif" font-size="10.00">/src/devices/adi_hal/adi_hal.h</text>
</a>
</g>
</g>
<!-- Node2 -->
<g id="Node000002" class="node">
<title>Node2</title>
<g id="a_Node000002"><a xlink:href="adrv9009_2src_2app_2app__clocking_8c.html" target="_top" xlink:title="Clock setup and initialization routines.">
<polygon fill="white" stroke="#666666" points="174.64,-41 17.64,-41 17.64,0 174.64,0 174.64,-41"/>
<text text-anchor="start" x="25.64" y="-29" font-family="Helvetica,sans-Serif" font-size="10.00">/home/runner/work/no</text>
<text text-anchor="start" x="25.64" y="-18" font-family="Helvetica,sans-Serif" font-size="10.00">&#45;OS/no&#45;OS/projects/adrv9009</text>
<text text-anchor="middle" x="96.14" y="-7" font-family="Helvetica,sans-Serif" font-size="10.00">/src/app/app_clocking.c</text>
</a>
</g>
</g>
<!-- Node1&#45;&gt;Node2 -->
<g id="edge1_Node000001_Node000002" class="edge">
<title>Node1&#45;&gt;Node2</title>
<g id="a_edge1_Node000001_Node000002"><a xlink:title=" ">
<path fill="none" stroke="#63b8ff" d="M555.11,-172.25C388.21,-168.98 44.34,-157.5 8.14,-118 -4.18,-104.57 -0.66,-92.96 8.14,-77 16.69,-61.5 31.59,-49.73 46.72,-41.11"/>
<polygon fill="#63b8ff" stroke="#63b8ff" points="555.05,-175.75 565.12,-172.44 555.18,-168.75 555.05,-175.75"/>
</a>
</g>
</g>
<!-- Node3 -->
<g id="Node000003" class="node">
<title>Node3</title>
<g id="a_Node000003"><a xlink:href="adrv9009_2src_2app_2app__clocking_8h.html" target="_top" xlink:title="Clock setup and initialization routines.">
<polygon fill="white" stroke="#666666" points="174.64,-118 17.64,-118 17.64,-77 174.64,-77 174.64,-118"/>
<text text-anchor="start" x="25.64" y="-106" font-family="Helvetica,sans-Serif" font-size="10.00">/home/runner/work/no</text>
<text text-anchor="start" x="25.64" y="-95" font-family="Helvetica,sans-Serif" font-size="10.00">&#45;OS/no&#45;OS/projects/adrv9009</text>
<text text-anchor="middle" x="96.14" y="-84" font-family="Helvetica,sans-Serif" font-size="10.00">/src/app/app_clocking.h</text>
</a>
</g>
</g>
<!-- Node1&#45;&gt;Node3 -->
<g id="edge2_Node000001_Node000003" class="edge">
<title>Node1&#45;&gt;Node3</title>
<g id="a_edge2_Node000001_Node000003"><a xlink:title=" ">
<path fill="none" stroke="#63b8ff" d="M555.09,-165.4C461.7,-156.36 311.62,-140.06 183.14,-118 180.39,-117.53 177.6,-117.03 174.79,-116.5"/>
<polygon fill="#63b8ff" stroke="#63b8ff" points="554.78,-168.88 565.07,-166.36 555.45,-161.92 554.78,-168.88"/>
</a>
</g>
</g>
<!-- Node4 -->
<g id="Node000004" class="node">
<title>Node4</title>
<g id="a_Node000004"><a xlink:href="headless__arm_8c.html" target="_top" xlink:title="Contains example code for user integration with their application. This file contains code for ARM.">
<polygon fill="white" stroke="#666666" points="441.64,-41 284.64,-41 284.64,0 441.64,0 441.64,-41"/>
<text text-anchor="start" x="292.64" y="-29" font-family="Helvetica,sans-Serif" font-size="10.00">/home/runner/work/no</text>
<text text-anchor="start" x="292.64" y="-18" font-family="Helvetica,sans-Serif" font-size="10.00">&#45;OS/no&#45;OS/projects/adrv9009</text>
<text text-anchor="middle" x="363.14" y="-7" font-family="Helvetica,sans-Serif" font-size="10.00">/src/app/headless_arm.c</text>
</a>
</g>
</g>
<!-- Node1&#45;&gt;Node4 -->
<g id="edge19_Node000001_Node000004" class="edge">
<title>Node1&#45;&gt;Node4</title>
<g id="a_edge19_Node000001_Node000004"><a xlink:title=" ">
<path fill="none" stroke="#63b8ff" d="M554.84,-162.58C493.91,-153.52 420.5,-138.74 397.14,-118 374.96,-98.3 367.25,-63.24 364.57,-41.24"/>
<polygon fill="#63b8ff" stroke="#63b8ff" points="554.49,-166.07 564.89,-164.05 555.5,-159.14 554.49,-166.07"/>
</a>
</g>
</g>
<!-- Node5 -->
<g id="Node000005" class="node">
<title>Node5</title>
<g id="a_Node000005"><a xlink:href="adrv9009_2src_2app_2app__jesd_8c.html" target="_top" xlink:title="JESD setup and initialization routines.">
<polygon fill="white" stroke="#666666" points="616.64,-41 459.64,-41 459.64,0 616.64,0 616.64,-41"/>
<text text-anchor="start" x="467.64" y="-29" font-family="Helvetica,sans-Serif" font-size="10.00">/home/runner/work/no</text>
<text text-anchor="start" x="467.64" y="-18" font-family="Helvetica,sans-Serif" font-size="10.00">&#45;OS/no&#45;OS/projects/adrv9009</text>
<text text-anchor="middle" x="538.14" y="-7" font-family="Helvetica,sans-Serif" font-size="10.00">/src/app/app_jesd.c</text>
</a>
</g>
</g>
<!-- Node1&#45;&gt;Node5 -->
<g id="edge5_Node000001_Node000005" class="edge">
<title>Node1&#45;&gt;Node5</title>
<g id="a_edge5_Node000001_Node000005"><a xlink:title=" ">
<path fill="none" stroke="#63b8ff" d="M625.46,-145.54C604.22,-115.38 570.94,-68.1 552.19,-41.47"/>
<polygon fill="#63b8ff" stroke="#63b8ff" points="622.75,-147.78 631.37,-153.94 628.47,-143.75 622.75,-147.78"/>
</a>
</g>
</g>
<!-- Node6 -->
<g id="Node000006" class="node">
<title>Node6</title>
<g id="a_Node000006"><a xlink:href="adrv9009_2src_2app_2app__jesd_8h.html" target="_top" xlink:title="JESD setup and initialization routines.">
<polygon fill="white" stroke="#666666" points="777.64,-118 620.64,-118 620.64,-77 777.64,-77 777.64,-118"/>
<text text-anchor="start" x="628.64" y="-106" font-family="Helvetica,sans-Serif" font-size="10.00">/home/runner/work/no</text>
<text text-anchor="start" x="628.64" y="-95" font-family="Helvetica,sans-Serif" font-size="10.00">&#45;OS/no&#45;OS/projects/adrv9009</text>
<text text-anchor="middle" x="699.14" y="-84" font-family="Helvetica,sans-Serif" font-size="10.00">/src/app/app_jesd.h</text>
</a>
</g>
</g>
<!-- Node1&#45;&gt;Node6 -->
<g id="edge6_Node000001_Node000006" class="edge">
<title>Node1&#45;&gt;Node6</title>
<g id="a_edge6_Node000001_Node000006"><a xlink:title=" ">
<path fill="none" stroke="#63b8ff" d="M665.17,-145.67C671.78,-136.5 678.98,-126.5 685.04,-118.07"/>
<polygon fill="#63b8ff" stroke="#63b8ff" points="662.33,-143.63 659.33,-153.79 668.01,-147.72 662.33,-143.63"/>
</a>
</g>
</g>
<!-- Node7 -->
<g id="Node000007" class="node">
<title>Node7</title>
<g id="a_Node000007"><a xlink:href="app__talise_8c.html" target="_top" xlink:title="Talise initialization and control routines.">
<polygon fill="white" stroke="#666666" points="791.64,-41 634.64,-41 634.64,0 791.64,0 791.64,-41"/>
<text text-anchor="start" x="642.64" y="-29" font-family="Helvetica,sans-Serif" font-size="10.00">/home/runner/work/no</text>
<text text-anchor="start" x="642.64" y="-18" font-family="Helvetica,sans-Serif" font-size="10.00">&#45;OS/no&#45;OS/projects/adrv9009</text>
<text text-anchor="middle" x="713.14" y="-7" font-family="Helvetica,sans-Serif" font-size="10.00">/src/app/app_talise.c</text>
</a>
</g>
</g>
<!-- Node1&#45;&gt;Node7 -->
<g id="edge11_Node000001_Node000007" class="edge">
<title>Node1&#45;&gt;Node7</title>
<g id="a_edge11_Node000001_Node000007"><a xlink:title=" ">
<path fill="none" stroke="#63b8ff" d="M734.85,-156.28C754.96,-148.06 773.93,-135.93 786.14,-118 796.39,-102.94 794.23,-93.33 786.14,-77 778.71,-62.02 765.1,-50 751.62,-41.02"/>
<polygon fill="#63b8ff" stroke="#63b8ff" points="733.36,-153.1 725.23,-159.89 735.83,-159.65 733.36,-153.1"/>
</a>
</g>
</g>
<!-- Node8 -->
<g id="Node000008" class="node">
<title>Node8</title>
<g id="a_Node000008"><a xlink:href="app__transceiver_8c.html" target="_top" xlink:title="FPGA XCVR setup and initialization routines.">
<polygon fill="white" stroke="#666666" points="966.64,-41 809.64,-41 809.64,0 966.64,0 966.64,-41"/>
<text text-anchor="start" x="817.64" y="-29" font-family="Helvetica,sans-Serif" font-size="10.00">/home/runner/work/no</text>
<text text-anchor="start" x="817.64" y="-18" font-family="Helvetica,sans-Serif" font-size="10.00">&#45;OS/no&#45;OS/projects/adrv9009</text>
<text text-anchor="middle" x="888.14" y="-7" font-family="Helvetica,sans-Serif" font-size="10.00">/src/app/app_transceiver.c</text>
</a>
</g>
</g>
<!-- Node1&#45;&gt;Node8 -->
<g id="edge16_Node000001_Node000008" class="edge">
<title>Node1&#45;&gt;Node8</title>
<g id="a_edge16_Node000001_Node000008"><a xlink:title=" ">
<path fill="none" stroke="#63b8ff" d="M735.07,-151.14C758.72,-142.91 783.39,-132.05 804.14,-118 834.67,-97.33 860.92,-62.89 875.61,-41.23"/>
<polygon fill="#63b8ff" stroke="#63b8ff" points="733.74,-147.9 725.37,-154.4 735.96,-154.54 733.74,-147.9"/>
</a>
</g>
</g>
<!-- Node9 -->
<g id="Node000009" class="node">
<title>Node9</title>
<g id="a_Node000009"><a xlink:href="app__talise_8h.html" target="_top" xlink:title="Talise initialization and control routines.">
<polygon fill="white" stroke="#666666" points="349.64,-118 192.64,-118 192.64,-77 349.64,-77 349.64,-118"/>
<text text-anchor="start" x="200.64" y="-106" font-family="Helvetica,sans-Serif" font-size="10.00">/home/runner/work/no</text>
<text text-anchor="start" x="200.64" y="-95" font-family="Helvetica,sans-Serif" font-size="10.00">&#45;OS/no&#45;OS/projects/adrv9009</text>
<text text-anchor="middle" x="271.14" y="-84" font-family="Helvetica,sans-Serif" font-size="10.00">/src/app/app_talise.h</text>
</a>
</g>
</g>
<!-- Node1&#45;&gt;Node9 -->
<g id="edge12_Node000001_Node000009" class="edge">
<title>Node1&#45;&gt;Node9</title>
<g id="a_edge12_Node000001_Node000009"><a xlink:title=" ">
<path fill="none" stroke="#63b8ff" d="M554.75,-155.93C499.64,-145.14 427.79,-130.96 364.14,-118 359.45,-117.05 354.63,-116.06 349.77,-115.05"/>
<polygon fill="#63b8ff" stroke="#63b8ff" points="554.36,-159.42 564.84,-157.9 555.7,-152.55 554.36,-159.42"/>
</a>
</g>
</g>
<!-- Node10 -->
<g id="Node000010" class="node">
<title>Node10</title>
<g id="a_Node000010"><a xlink:href="app__transceiver_8h.html" target="_top" xlink:title="FPGA XCVR setup and initialization routines.">
<polygon fill="white" stroke="#666666" points="563.64,-118 406.64,-118 406.64,-77 563.64,-77 563.64,-118"/>
<text text-anchor="start" x="414.64" y="-106" font-family="Helvetica,sans-Serif" font-size="10.00">/home/runner/work/no</text>
<text text-anchor="start" x="414.64" y="-95" font-family="Helvetica,sans-Serif" font-size="10.00">&#45;OS/no&#45;OS/projects/adrv9009</text>
<text text-anchor="middle" x="485.14" y="-84" font-family="Helvetica,sans-Serif" font-size="10.00">/src/app/app_transceiver.h</text>
</a>
</g>
</g>
<!-- Node1&#45;&gt;Node10 -->
<g id="edge17_Node000001_Node000010" class="edge">
<title>Node1&#45;&gt;Node10</title>
<g id="a_edge17_Node000001_Node000010"><a xlink:title=" ">
<path fill="none" stroke="#63b8ff" d="M594.41,-149.72C572.63,-139.51 547.5,-127.73 526.83,-118.04"/>
<polygon fill="#63b8ff" stroke="#63b8ff" points="592.98,-152.92 603.52,-153.99 595.95,-146.58 592.98,-152.92"/>
</a>
</g>
</g>
<!-- Node11 -->
<g id="Node000011" class="node">
<title>Node11</title>
<g id="a_Node000011"><a xlink:href="headless__mb_8c.html" target="_top" xlink:title="Contains example code for user integration with their application. This file contains code for MicroB...">
<polygon fill="white" stroke="#666666" points="1029.64,-118 872.64,-118 872.64,-77 1029.64,-77 1029.64,-118"/>
<text text-anchor="start" x="880.64" y="-106" font-family="Helvetica,sans-Serif" font-size="10.00">/home/runner/work/no</text>
<text text-anchor="start" x="880.64" y="-95" font-family="Helvetica,sans-Serif" font-size="10.00">&#45;OS/no&#45;OS/projects/adrv9009</text>
<text text-anchor="middle" x="951.14" y="-84" font-family="Helvetica,sans-Serif" font-size="10.00">/src/app/headless_mb.c</text>
</a>
</g>
</g>
<!-- Node1&#45;&gt;Node11 -->
<g id="edge20_Node000001_Node000011" class="edge">
<title>Node1&#45;&gt;Node11</title>
<g id="a_edge20_Node000001_Node000011"><a xlink:title=" ">
<path fill="none" stroke="#63b8ff" d="M734.5,-151.6C778.19,-140.89 830.3,-128.12 872.47,-117.78"/>
<polygon fill="#63b8ff" stroke="#63b8ff" points="733.62,-148.21 724.74,-153.99 735.28,-155.01 733.62,-148.21"/>
</a>
</g>
</g>
<!-- Node12 -->
<g id="Node000012" class="node">
<title>Node12</title>
<g id="a_Node000012"><a xlink:href="headless__zu_8c.html" target="_top" xlink:title="Contains example code for user integration with their application. This file contains code for ZU11EG...">
<polygon fill="white" stroke="#666666" points="1204.64,-118 1047.64,-118 1047.64,-77 1204.64,-77 1204.64,-118"/>
<text text-anchor="start" x="1055.64" y="-106" font-family="Helvetica,sans-Serif" font-size="10.00">/home/runner/work/no</text>
<text text-anchor="start" x="1055.64" y="-95" font-family="Helvetica,sans-Serif" font-size="10.00">&#45;OS/no&#45;OS/projects/adrv9009</text>
<text text-anchor="middle" x="1126.14" y="-84" font-family="Helvetica,sans-Serif" font-size="10.00">/src/app/headless_zu.c</text>
</a>
</g>
</g>
<!-- Node1&#45;&gt;Node12 -->
<g id="edge21_Node000001_Node000012" class="edge">
<title>Node1&#45;&gt;Node12</title>
<g id="a_edge21_Node000001_Node000012"><a xlink:title=" ">
<path fill="none" stroke="#63b8ff" d="M735.48,-162.88C815.55,-152.96 935.51,-136.88 1039.14,-118 1041.88,-117.5 1044.66,-116.98 1047.47,-116.43"/>
<polygon fill="#63b8ff" stroke="#63b8ff" points="734.93,-159.42 725.43,-164.11 735.78,-166.36 734.93,-159.42"/>
</a>
</g>
</g>
<!-- Node13 -->
<g id="Node000013" class="node">
<title>Node13</title>
<g id="a_Node000013"><a xlink:href="no__os__hal_8c.html" target="_top" xlink:title="No&#45;OS Hardware Abstraction Layer.">
<polygon fill="white" stroke="#666666" points="1395.64,-118 1222.64,-118 1222.64,-77 1395.64,-77 1395.64,-118"/>
<text text-anchor="start" x="1230.64" y="-106" font-family="Helvetica,sans-Serif" font-size="10.00">/home/runner/work/no</text>
<text text-anchor="start" x="1230.64" y="-95" font-family="Helvetica,sans-Serif" font-size="10.00">&#45;OS/no&#45;OS/projects/adrv9009</text>
<text text-anchor="middle" x="1309.14" y="-84" font-family="Helvetica,sans-Serif" font-size="10.00">/src/devices/adi_hal/no_os_hal.c</text>
</a>
</g>
</g>
<!-- Node1&#45;&gt;Node13 -->
<g id="edge22_Node000001_Node000013" class="edge">
<title>Node1&#45;&gt;Node13</title>
<g id="a_edge22_Node000001_Node000013"><a xlink:title=" ">
<path fill="none" stroke="#63b8ff" d="M735.86,-167.61C848.45,-159.62 1046.16,-143.36 1214.14,-118 1216.88,-117.59 1219.67,-117.14 1222.48,-116.68"/>
<polygon fill="#63b8ff" stroke="#63b8ff" points="735.29,-164.14 725.56,-168.33 735.78,-171.12 735.29,-164.14"/>
</a>
</g>
</g>
<!-- Node3&#45;&gt;Node2 -->
<g id="edge3_Node000003_Node000002" class="edge">
<title>Node3&#45;&gt;Node2</title>
<g id="a_edge3_Node000003_Node000002"><a xlink:title=" ">
<path fill="none" stroke="#63b8ff" d="M96.14,-66.69C96.14,-58.08 96.14,-48.9 96.14,-41.07"/>
<polygon fill="#63b8ff" stroke="#63b8ff" points="92.64,-66.79 96.14,-76.79 99.64,-66.79 92.64,-66.79"/>
</a>
</g>
</g>
<!-- Node3&#45;&gt;Node4 -->
<g id="edge4_Node000003_Node000004" class="edge">
<title>Node3&#45;&gt;Node4</title>
<g id="a_edge4_Node000003_Node000004"><a xlink:title=" ">
<path fill="none" stroke="#63b8ff" d="M175.47,-74.21C212.99,-63.68 257.38,-51.21 293.57,-41.04"/>
<polygon fill="#63b8ff" stroke="#63b8ff" points="174.27,-70.92 165.59,-76.99 176.17,-77.66 174.27,-70.92"/>
</a>
</g>
</g>
<!-- Node6&#45;&gt;Node4 -->
<g id="edge10_Node000006_Node000004" class="edge">
<title>Node6&#45;&gt;Node4</title>
<g id="a_edge10_Node000006_Node000004"><a xlink:title=" ">
<path fill="none" stroke="#63b8ff" d="M610.67,-76.81C563.09,-66.21 503.4,-52.91 450.14,-41 447.42,-40.39 444.65,-39.77 441.86,-39.15"/>
<polygon fill="#63b8ff" stroke="#63b8ff" points="610.11,-80.27 620.63,-79.03 611.63,-73.44 610.11,-80.27"/>
</a>
</g>
</g>
<!-- Node6&#45;&gt;Node5 -->
<g id="edge7_Node000006_Node000005" class="edge">
<title>Node6&#45;&gt;Node5</title>
<g id="a_edge7_Node000006_Node000005"><a xlink:title=" ">
<path fill="none" stroke="#63b8ff" d="M648.09,-72.72C626.18,-62.51 600.89,-50.73 580.09,-41.04"/>
<polygon fill="#63b8ff" stroke="#63b8ff" points="646.71,-75.94 657.26,-76.99 649.67,-69.6 646.71,-75.94"/>
</a>
</g>
</g>
<!-- Node6&#45;&gt;Node7 -->
<g id="edge8_Node000006_Node000007" class="edge">
<title>Node6&#45;&gt;Node7</title>
<g id="a_edge8_Node000006_Node000007"><a xlink:title=" ">
<path fill="none" stroke="#63b8ff" d="M704.7,-66.69C706.31,-58.08 708.02,-48.9 709.48,-41.07"/>
<polygon fill="#63b8ff" stroke="#63b8ff" points="701.21,-66.32 702.82,-76.79 708.09,-67.61 701.21,-66.32"/>
</a>
</g>
</g>
<!-- Node6&#45;&gt;Node8 -->
<g id="edge9_Node000006_Node000008" class="edge">
<title>Node6&#45;&gt;Node8</title>
<g id="a_edge9_Node000006_Node000008"><a xlink:title=" ">
<path fill="none" stroke="#63b8ff" d="M757.68,-73.27C783.72,-62.94 814.04,-50.9 838.89,-41.04"/>
<polygon fill="#63b8ff" stroke="#63b8ff" points="756.31,-70.05 748.3,-76.99 758.89,-76.56 756.31,-70.05"/>
</a>
</g>
</g>
<!-- Node9&#45;&gt;Node2 -->
<g id="edge13_Node000009_Node000002" class="edge">
<title>Node9&#45;&gt;Node2</title>
<g id="a_edge13_Node000009_Node000002"><a xlink:title=" ">
<path fill="none" stroke="#63b8ff" d="M216.29,-73C192.33,-62.72 164.54,-50.82 141.74,-41.04"/>
<polygon fill="#63b8ff" stroke="#63b8ff" points="215.04,-76.27 225.61,-76.99 217.8,-69.83 215.04,-76.27"/>
</a>
</g>
</g>
<!-- Node9&#45;&gt;Node4 -->
<g id="edge15_Node000009_Node000004" class="edge">
<title>Node9&#45;&gt;Node4</title>
<g id="a_edge15_Node000009_Node000004"><a xlink:title=" ">
<path fill="none" stroke="#63b8ff" d="M303.22,-70.35C315.02,-60.73 328.16,-50.01 339.13,-41.07"/>
<polygon fill="#63b8ff" stroke="#63b8ff" points="300.85,-67.76 295.31,-76.79 305.27,-73.19 300.85,-67.76"/>
</a>
</g>
</g>
<!-- Node9&#45;&gt;Node7 -->
<g id="edge14_Node000009_Node000007" class="edge">
<title>Node9&#45;&gt;Node7</title>
<g id="a_edge14_Node000009_Node000007"><a xlink:title=" ">
<path fill="none" stroke="#63b8ff" d="M359.9,-82.73C460.46,-67.1 612.15,-43.45 625.14,-41 628.21,-40.42 631.34,-39.81 634.51,-39.18"/>
<polygon fill="#63b8ff" stroke="#63b8ff" points="359.07,-79.31 349.73,-84.31 360.15,-86.23 359.07,-79.31"/>
</a>
</g>
</g>
<!-- Node10&#45;&gt;Node4 -->
<g id="edge18_Node000010_Node000004" class="edge">
<title>Node10&#45;&gt;Node4</title>
<g id="a_edge18_Node000010_Node000004"><a xlink:title=" ">
<path fill="none" stroke="#63b8ff" d="M444.71,-71.64C428.59,-61.74 410.31,-50.5 395.14,-41.17"/>
<polygon fill="#63b8ff" stroke="#63b8ff" points="443.05,-74.73 453.4,-76.99 446.72,-68.77 443.05,-74.73"/>
</a>
</g>
</g>
</g>
</svg>

<g id="navigator" transform="translate(0 0)" fill="#404254">
  <rect fill="#f2f5e9" fill-opacity="0.5" stroke="#606060" stroke-width=".5" x="0" y="0" width="60" height="60"/>
  <use id="zoomplus" xlink:href="#zoomPlus" x="17" y="9" onmousedown="handleZoom(evt,'in')"/>
  <use id="zoomminus" xlink:href="#zoomMin" x="42" y="9" onmousedown="handleZoom(evt,'out')"/>
  <use id="reset" xlink:href="#resetDef" x="30" y="36" onmousedown="handleReset()"/>
   <use id="arrowup" xlink:href="#arrowUp" x="0" y="0" onmousedown="handlePan(0,-1)"/>
  <use id="arrowright" xlink:href="#arrowRight" x="0" y="0" onmousedown="handlePan(1,0)"/>
  <use id="arrowdown" xlink:href="#arrowDown" x="0" y="0" onmousedown="handlePan(0,1)"/>
  <use id="arrowleft" xlink:href="#arrowLeft" x="0" y="0" onmousedown="handlePan(-1,0)"/>
</g>
<svg viewBox="0 0 15 15" width="100%" height="30px" preserveAspectRatio="xMaxYMin meet">
 <g id="arrow_out" transform="scale(0.3 0.3)">
  <a xlink:href="adi__hal_8h__dep__incl_org.svg" target="_base">
   <rect id="button" ry="5" rx="5" y="6" x="6" height="38" width="38"
        fill="#f2f5e9" fill-opacity="0.5" stroke="#606060" stroke-width="1.0"/>
   <path id="arrow"
     d="M 11.500037,31.436501 C 11.940474,20.09759 22.043105,11.32322 32.158766,21.979434 L 37.068811,17.246167 C 37.068811,17.246167 37.088388,32 37.088388,32 L 22.160133,31.978069 C 22.160133,31.978069 26.997745,27.140456 26.997745,27.140456 C 18.528582,18.264221 13.291696,25.230495 11.500037,31.436501 z"
     style="fill:#404040;"/>
  </a>
 </g>
</svg>

<style type='text/css'>
<![CDATA[
[data-mouse-over-selected='false'] { opacity: 0.7; }
[data-mouse-over-selected='true']  { opacity: 1.0; }
]]>
</style>
<script type="application/ecmascript"><![CDATA[
document.addEventListener('DOMContentLoaded', (event) => {
  highlightEdges();
  highlightAdjacentNodes();
});
]]></script>
</svg>
