<?xml version="1.0" encoding="UTF-8" standalone="no"?>
<!DOCTYPE svg PUBLIC "-//W3C//DTD SVG 1.1//EN"
 "http://www.w3.org/Graphics/SVG/1.1/DTD/svg11.dtd">
<!-- Generated by graphviz version 2.43.0 (0)
 -->
<!-- Title: /home/runner/work/no&#45;OS/no&#45;OS/drivers/amplifiers/adl8113/adl8113.h Pages: 1 -->
<svg width="733pt" height="225pt"
 viewBox="0.00 0.00 732.50 225.00" xmlns="http://www.w3.org/2000/svg" xmlns:xlink="http://www.w3.org/1999/xlink">
<g id="graph0" class="graph" transform="scale(1 1) rotate(0) translate(4 221)">
<title>/home/runner/work/no&#45;OS/no&#45;OS/drivers/amplifiers/adl8113/adl8113.h</title>
<!-- Node1 -->
<g id="Node000001" class="node">
<title>Node1</title>
<g id="a_Node000001"><a xlink:title="Header file for ADL8113 Driver.">
<polygon fill="#999999" stroke="#666666" points="427,-217 272,-217 272,-176 427,-176 427,-217"/>
<text text-anchor="start" x="280" y="-205" font-family="Helvetica,sans-Serif" font-size="10.00">/home/runner/work/no</text>
<text text-anchor="start" x="280" y="-194" font-family="Helvetica,sans-Serif" font-size="10.00">&#45;OS/no&#45;OS/drivers/amplifiers</text>
<text text-anchor="middle" x="349.5" y="-183" font-family="Helvetica,sans-Serif" font-size="10.00">/adl8113/adl8113.h</text>
</a>
</g>
</g>
<!-- Node2 -->
<g id="Node000002" class="node">
<title>Node2</title>
<g id="a_Node000002"><a xlink:href="adl8113_8c.html" target="_top" xlink:title="Implementation of ADL8113 Driver.">
<polygon fill="white" stroke="#666666" points="155,-134.5 0,-134.5 0,-93.5 155,-93.5 155,-134.5"/>
<text text-anchor="start" x="8" y="-122.5" font-family="Helvetica,sans-Serif" font-size="10.00">/home/runner/work/no</text>
<text text-anchor="start" x="8" y="-111.5" font-family="Helvetica,sans-Serif" font-size="10.00">&#45;OS/no&#45;OS/drivers/amplifiers</text>
<text text-anchor="middle" x="77.5" y="-100.5" font-family="Helvetica,sans-Serif" font-size="10.00">/adl8113/adl8113.c</text>
</a>
</g>
</g>
<!-- Node1&#45;&gt;Node2 -->
<g id="edge1_Node000001_Node000002" class="edge">
<title>Node1&#45;&gt;Node2</title>
<g id="a_edge1_Node000001_Node000002"><a xlink:title=" ">
<path fill="none" stroke="#63b8ff" d="M273.66,-173.05C232.77,-160.95 182.79,-146.16 143.52,-134.54"/>
<polygon fill="#63b8ff" stroke="#63b8ff" points="272.73,-176.43 283.31,-175.91 274.71,-169.72 272.73,-176.43"/>
</a>
</g>
</g>
<!-- Node3 -->
<g id="Node000003" class="node">
<title>Node3</title>
<g id="a_Node000003"><a xlink:href="iio__adl8113_8h.html" target="_top" xlink:title="Header file for ADL8113 IIO Driver.">
<polygon fill="white" stroke="#666666" points="328,-134.5 173,-134.5 173,-93.5 328,-93.5 328,-134.5"/>
<text text-anchor="start" x="181" y="-122.5" font-family="Helvetica,sans-Serif" font-size="10.00">/home/runner/work/no</text>
<text text-anchor="start" x="181" y="-111.5" font-family="Helvetica,sans-Serif" font-size="10.00">&#45;OS/no&#45;OS/drivers/amplifiers</text>
<text text-anchor="middle" x="250.5" y="-100.5" font-family="Helvetica,sans-Serif" font-size="10.00">/adl8113/iio_adl8113.h</text>
</a>
</g>
</g>
<!-- Node1&#45;&gt;Node3 -->
<g id="edge2_Node000001_Node000003" class="edge">
<title>Node1&#45;&gt;Node3</title>
<g id="a_edge2_Node000001_Node000003"><a xlink:title=" ">
<path fill="none" stroke="#63b8ff" d="M317.41,-169.41C303.57,-158.15 287.65,-145.21 274.81,-134.77"/>
<polygon fill="#63b8ff" stroke="#63b8ff" points="315.31,-172.21 325.28,-175.81 319.73,-166.78 315.31,-172.21"/>
</a>
</g>
</g>
<!-- Node6 -->
<g id="Node000006" class="node">
<title>Node6</title>
<g id="a_Node000006"><a xlink:href="eval-adl8113_2src_2common_2common__data_8h.html" target="_top" xlink:title="Defines common data to be used by eval&#45;adl8113 project.">
<polygon fill="white" stroke="#666666" points="550.5,-134.5 346.5,-134.5 346.5,-93.5 550.5,-93.5 550.5,-134.5"/>
<text text-anchor="start" x="354.5" y="-122.5" font-family="Helvetica,sans-Serif" font-size="10.00">/home/runner/work/no</text>
<text text-anchor="start" x="354.5" y="-111.5" font-family="Helvetica,sans-Serif" font-size="10.00">&#45;OS/no&#45;OS/projects/eval</text>
<text text-anchor="middle" x="448.5" y="-100.5" font-family="Helvetica,sans-Serif" font-size="10.00">&#45;adl8113/src/common/common_data.h</text>
</a>
</g>
</g>
<!-- Node1&#45;&gt;Node6 -->
<g id="edge5_Node000001_Node000006" class="edge">
<title>Node1&#45;&gt;Node6</title>
<g id="a_edge5_Node000001_Node000006"><a xlink:title=" ">
<path fill="none" stroke="#63b8ff" d="M381.59,-169.41C395.43,-158.15 411.35,-145.21 424.19,-134.77"/>
<polygon fill="#63b8ff" stroke="#63b8ff" points="379.27,-166.78 373.72,-175.81 383.69,-172.21 379.27,-166.78"/>
</a>
</g>
</g>
<!-- Node8 -->
<g id="Node000008" class="node">
<title>Node8</title>
<g id="a_Node000008"><a xlink:href="eval-adl8113_2src_2examples_2basic_2basic__example_8c.html" target="_top" xlink:title="Basic example for eval&#45;adl8113 project.">
<polygon fill="white" stroke="#666666" points="724.5,-140 568.5,-140 568.5,-88 724.5,-88 724.5,-140"/>
<text text-anchor="start" x="576.5" y="-128" font-family="Helvetica,sans-Serif" font-size="10.00">/home/runner/work/no</text>
<text text-anchor="start" x="576.5" y="-117" font-family="Helvetica,sans-Serif" font-size="10.00">&#45;OS/no&#45;OS/projects/eval</text>
<text text-anchor="start" x="576.5" y="-106" font-family="Helvetica,sans-Serif" font-size="10.00">&#45;adl8113/src/examples/basic</text>
<text text-anchor="middle" x="646.5" y="-95" font-family="Helvetica,sans-Serif" font-size="10.00">/basic_example.c</text>
</a>
</g>
</g>
<!-- Node1&#45;&gt;Node8 -->
<g id="edge7_Node000001_Node000008" class="edge">
<title>Node1&#45;&gt;Node8</title>
<g id="a_edge7_Node000001_Node000008"><a xlink:title=" ">
<path fill="none" stroke="#63b8ff" d="M434.98,-173.35C473.14,-163.35 518.62,-151.27 559.5,-140 562.38,-139.21 565.31,-138.39 568.27,-137.57"/>
<polygon fill="#63b8ff" stroke="#63b8ff" points="433.72,-170.06 424.93,-175.98 435.49,-176.84 433.72,-170.06"/>
</a>
</g>
</g>
<!-- Node4 -->
<g id="Node000004" class="node">
<title>Node4</title>
<g id="a_Node000004"><a xlink:href="iio__adl8113_8c.html" target="_top" xlink:title="Implementation of ADL8113 IIO Driver.">
<polygon fill="white" stroke="#666666" points="165,-46.5 10,-46.5 10,-5.5 165,-5.5 165,-46.5"/>
<text text-anchor="start" x="18" y="-34.5" font-family="Helvetica,sans-Serif" font-size="10.00">/home/runner/work/no</text>
<text text-anchor="start" x="18" y="-23.5" font-family="Helvetica,sans-Serif" font-size="10.00">&#45;OS/no&#45;OS/drivers/amplifiers</text>
<text text-anchor="middle" x="87.5" y="-12.5" font-family="Helvetica,sans-Serif" font-size="10.00">/adl8113/iio_adl8113.c</text>
</a>
</g>
</g>
<!-- Node3&#45;&gt;Node4 -->
<g id="edge3_Node000003_Node000004" class="edge">
<title>Node3&#45;&gt;Node4</title>
<g id="a_edge3_Node000003_Node000004"><a xlink:title=" ">
<path fill="none" stroke="#63b8ff" d="M204.49,-88.72C179.23,-75.4 148.32,-59.09 124.62,-46.59"/>
<polygon fill="#63b8ff" stroke="#63b8ff" points="203.04,-91.91 213.51,-93.49 206.3,-85.72 203.04,-91.91"/>
</a>
</g>
</g>
<!-- Node5 -->
<g id="Node000005" class="node">
<title>Node5</title>
<g id="a_Node000005"><a xlink:href="eval-adl8113_2src_2examples_2iio__example_2iio__example_8c.html" target="_top" xlink:title="IIO example source file for eval&#45;adl8113 project.">
<polygon fill="white" stroke="#666666" points="326,-52 183,-52 183,0 326,0 326,-52"/>
<text text-anchor="start" x="191" y="-40" font-family="Helvetica,sans-Serif" font-size="10.00">/home/runner/work/no</text>
<text text-anchor="start" x="191" y="-29" font-family="Helvetica,sans-Serif" font-size="10.00">&#45;OS/no&#45;OS/projects/eval</text>
<text text-anchor="start" x="191" y="-18" font-family="Helvetica,sans-Serif" font-size="10.00">&#45;adl8113/src/examples/iio</text>
<text text-anchor="middle" x="254.5" y="-7" font-family="Helvetica,sans-Serif" font-size="10.00">_example/iio_example.c</text>
</a>
</g>
</g>
<!-- Node3&#45;&gt;Node5 -->
<g id="edge4_Node000003_Node000005" class="edge">
<title>Node3&#45;&gt;Node5</title>
<g id="a_edge4_Node000003_Node000005"><a xlink:title=" ">
<path fill="none" stroke="#63b8ff" d="M251.87,-83.44C252.35,-73.31 252.87,-62.08 253.32,-52.32"/>
<polygon fill="#63b8ff" stroke="#63b8ff" points="248.38,-83.33 251.41,-93.49 255.37,-83.66 248.38,-83.33"/>
</a>
</g>
</g>
<!-- Node7 -->
<g id="Node000007" class="node">
<title>Node7</title>
<g id="a_Node000007"><a xlink:href="eval-adl8113_2src_2common_2common__data_8c.html" target="_top" xlink:title="Defines common data to be used by eval&#45;adl8113 project.">
<polygon fill="white" stroke="#666666" points="550,-46.5 347,-46.5 347,-5.5 550,-5.5 550,-46.5"/>
<text text-anchor="start" x="355" y="-34.5" font-family="Helvetica,sans-Serif" font-size="10.00">/home/runner/work/no</text>
<text text-anchor="start" x="355" y="-23.5" font-family="Helvetica,sans-Serif" font-size="10.00">&#45;OS/no&#45;OS/projects/eval</text>
<text text-anchor="middle" x="448.5" y="-12.5" font-family="Helvetica,sans-Serif" font-size="10.00">&#45;adl8113/src/common/common_data.c</text>
</a>
</g>
</g>
<!-- Node6&#45;&gt;Node7 -->
<g id="edge6_Node000006_Node000007" class="edge">
<title>Node6&#45;&gt;Node7</title>
<g id="a_edge6_Node000006_Node000007"><a xlink:title=" ">
<path fill="none" stroke="#63b8ff" d="M448.5,-83.36C448.5,-71.26 448.5,-57.58 448.5,-46.74"/>
<polygon fill="#63b8ff" stroke="#63b8ff" points="445,-83.49 448.5,-93.49 452,-83.49 445,-83.49"/>
</a>
</g>
</g>
</g>
</svg>
