<?xml version="1.0" encoding="UTF-8" standalone="no"?>
<!DOCTYPE svg PUBLIC "-//W3C//DTD SVG 1.1//EN"
 "http://www.w3.org/Graphics/SVG/1.1/DTD/svg11.dtd">
<!-- Generated by graphviz version 2.43.0 (0)
 -->
<!-- Title: /home/runner/work/no&#45;OS/no&#45;OS/drivers/adc/adm1177/adm1177.h Pages: 1 -->
<svg width="462pt" height="126pt"
 viewBox="0.00 0.00 461.50 126.00" xmlns="http://www.w3.org/2000/svg" xmlns:xlink="http://www.w3.org/1999/xlink">
<g id="graph0" class="graph" transform="scale(1 1) rotate(0) translate(4 122)">
<title>/home/runner/work/no&#45;OS/no&#45;OS/drivers/adc/adm1177/adm1177.h</title>
<!-- Node1 -->
<g id="Node000001" class="node">
<title>Node1</title>
<g id="a_Node000001"><a xlink:title=" ">
<polygon fill="#999999" stroke="#666666" points="274,-118 150,-118 150,-77 274,-77 274,-118"/>
<text text-anchor="start" x="158" y="-106" font-family="Helvetica,sans-Serif" font-size="10.00">/home/runner/work/no</text>
<text text-anchor="start" x="158" y="-95" font-family="Helvetica,sans-Serif" font-size="10.00">&#45;OS/no&#45;OS/drivers/adc</text>
<text text-anchor="middle" x="212" y="-84" font-family="Helvetica,sans-Serif" font-size="10.00">/adm1177/adm1177.h</text>
</a>
</g>
</g>
<!-- Node2 -->
<g id="Node000002" class="node">
<title>Node2</title>
<g id="a_Node000002"><a xlink:href="adm1177_8c.html" target="_top" xlink:title="Source file of ADM1177 Driver.">
<polygon fill="white" stroke="#666666" points="124,-41 0,-41 0,0 124,0 124,-41"/>
<text text-anchor="start" x="8" y="-29" font-family="Helvetica,sans-Serif" font-size="10.00">/home/runner/work/no</text>
<text text-anchor="start" x="8" y="-18" font-family="Helvetica,sans-Serif" font-size="10.00">&#45;OS/no&#45;OS/drivers/adc</text>
<text text-anchor="middle" x="62" y="-7" font-family="Helvetica,sans-Serif" font-size="10.00">/adm1177/adm1177.c</text>
</a>
</g>
</g>
<!-- Node1&#45;&gt;Node2 -->
<g id="edge1_Node000001_Node000002" class="edge">
<title>Node1&#45;&gt;Node2</title>
<g id="a_edge1_Node000001_Node000002"><a xlink:title=" ">
<path fill="none" stroke="#63b8ff" d="M163.9,-72.45C143.61,-62.3 120.29,-50.64 101.08,-41.04"/>
<polygon fill="#63b8ff" stroke="#63b8ff" points="162.47,-75.65 172.98,-76.99 165.6,-69.39 162.47,-75.65"/>
</a>
</g>
</g>
<!-- Node3 -->
<g id="Node000003" class="node">
<title>Node3</title>
<g id="a_Node000003"><a xlink:href="iio__adm1177_8c.html" target="_top" xlink:title="Source file of iio_adm1177.">
<polygon fill="white" stroke="#666666" points="282,-41 142,-41 142,0 282,0 282,-41"/>
<text text-anchor="start" x="150" y="-29" font-family="Helvetica,sans-Serif" font-size="10.00">/home/runner/work/no</text>
<text text-anchor="start" x="150" y="-18" font-family="Helvetica,sans-Serif" font-size="10.00">&#45;OS/no&#45;OS/drivers/adc</text>
<text text-anchor="middle" x="212" y="-7" font-family="Helvetica,sans-Serif" font-size="10.00">/adm1177/iio_adm1177.c</text>
</a>
</g>
</g>
<!-- Node1&#45;&gt;Node3 -->
<g id="edge2_Node000001_Node000003" class="edge">
<title>Node1&#45;&gt;Node3</title>
<g id="a_edge2_Node000001_Node000003"><a xlink:title=" ">
<path fill="none" stroke="#63b8ff" d="M212,-66.69C212,-58.08 212,-48.9 212,-41.07"/>
<polygon fill="#63b8ff" stroke="#63b8ff" points="208.5,-66.79 212,-76.79 215.5,-66.79 208.5,-66.79"/>
</a>
</g>
</g>
<!-- Node4 -->
<g id="Node000004" class="node">
<title>Node4</title>
<g id="a_Node000004"><a xlink:href="wethlink_2src_2app_2main_8c.html" target="_top" xlink:title=" ">
<polygon fill="white" stroke="#666666" points="453.5,-41 300.5,-41 300.5,0 453.5,0 453.5,-41"/>
<text text-anchor="start" x="308.5" y="-29" font-family="Helvetica,sans-Serif" font-size="10.00">/home/runner/work/no</text>
<text text-anchor="start" x="308.5" y="-18" font-family="Helvetica,sans-Serif" font-size="10.00">&#45;OS/no&#45;OS/projects/wethlink</text>
<text text-anchor="middle" x="377" y="-7" font-family="Helvetica,sans-Serif" font-size="10.00">/src/app/main.c</text>
</a>
</g>
</g>
<!-- Node1&#45;&gt;Node4 -->
<g id="edge3_Node000001_Node000004" class="edge">
<title>Node1&#45;&gt;Node4</title>
<g id="a_edge3_Node000001_Node000004"><a xlink:title=" ">
<path fill="none" stroke="#63b8ff" d="M264.31,-72.72C286.77,-62.51 312.69,-50.73 334.01,-41.04"/>
<polygon fill="#63b8ff" stroke="#63b8ff" points="262.58,-69.67 254.92,-76.99 265.47,-76.04 262.58,-69.67"/>
</a>
</g>
</g>
</g>
</svg>
