<?xml version="1.0" encoding="UTF-8" standalone="no"?>
<!DOCTYPE svg PUBLIC "-//W3C//DTD SVG 1.1//EN"
 "http://www.w3.org/Graphics/SVG/1.1/DTD/svg11.dtd">
<!-- Generated by graphviz version 2.43.0 (0)
 -->
<!-- Title: /home/runner/work/no&#45;OS/no&#45;OS/drivers/frequency/admv1013/admv1013.c Pages: 1 -->
<svg width="407pt" height="214pt"
 viewBox="0.00 0.00 407.20 214.00" xmlns="http://www.w3.org/2000/svg" xmlns:xlink="http://www.w3.org/1999/xlink">
<g id="graph0" class="graph" transform="scale(1 1) rotate(0) translate(4 210)">
<title>/home/runner/work/no&#45;OS/no&#45;OS/drivers/frequency/admv1013/admv1013.c</title>
<!-- Node1 -->
<g id="Node000001" class="node">
<title>Node1</title>
<g id="a_Node000001"><a xlink:title="Implementation of admv1013 Driver.">
<polygon fill="#999999" stroke="#666666" points="275.7,-206 120.7,-206 120.7,-165 275.7,-165 275.7,-206"/>
<text text-anchor="start" x="128.7" y="-194" font-family="Helvetica,sans-Serif" font-size="10.00">/home/runner/work/no</text>
<text text-anchor="start" x="128.7" y="-183" font-family="Helvetica,sans-Serif" font-size="10.00">&#45;OS/no&#45;OS/drivers/frequency</text>
<text text-anchor="middle" x="198.2" y="-172" font-family="Helvetica,sans-Serif" font-size="10.00">/admv1013/admv1013.c</text>
</a>
</g>
</g>
<!-- Node2 -->
<g id="Node000002" class="node">
<title>Node2</title>
<g id="a_Node000002"><a xlink:title=" ">
<polygon fill="#e0e0e0" stroke="#999999" points="89.7,-129 30.7,-129 30.7,-110 89.7,-110 89.7,-129"/>
<text text-anchor="middle" x="60.2" y="-117" font-family="Helvetica,sans-Serif" font-size="10.00">malloc.h</text>
</a>
</g>
</g>
<!-- Node1&#45;&gt;Node2 -->
<g id="edge1_Node000001_Node000002" class="edge">
<title>Node1&#45;&gt;Node2</title>
<g id="a_edge1_Node000001_Node000002"><a xlink:title=" ">
<path fill="none" stroke="#63b8ff" d="M156.04,-164.95C133.94,-154.7 107.48,-142.43 87.96,-133.38"/>
<polygon fill="#63b8ff" stroke="#63b8ff" points="89.27,-130.12 78.72,-129.09 86.32,-136.47 89.27,-130.12"/>
</a>
</g>
</g>
<!-- Node3 -->
<g id="Node000003" class="node">
<title>Node3</title>
<g id="a_Node000003"><a xlink:href="admv1013_8h.html" target="_top" xlink:title="Header file for admv1013 Driver.">
<polygon fill="white" stroke="#666666" points="184.7,-129 107.7,-129 107.7,-110 184.7,-110 184.7,-129"/>
<text text-anchor="middle" x="146.2" y="-117" font-family="Helvetica,sans-Serif" font-size="10.00">admv1013.h</text>
</a>
</g>
</g>
<!-- Node1&#45;&gt;Node3 -->
<g id="edge2_Node000001_Node000003" class="edge">
<title>Node1&#45;&gt;Node3</title>
<g id="a_edge2_Node000001_Node000003"><a xlink:title=" ">
<path fill="none" stroke="#63b8ff" d="M182.31,-164.95C175.13,-156.11 166.73,-145.77 159.83,-137.29"/>
<polygon fill="#63b8ff" stroke="#63b8ff" points="162.34,-134.81 153.31,-129.26 156.9,-139.23 162.34,-134.81"/>
</a>
</g>
</g>
<!-- Node9 -->
<g id="Node000009" class="node">
<title>Node9</title>
<g id="a_Node000009"><a xlink:href="no__os__error_8h.html" target="_top" xlink:title="Error codes definition.">
<polygon fill="white" stroke="#666666" points="399.2,-129 317.2,-129 317.2,-110 399.2,-110 399.2,-129"/>
<text text-anchor="middle" x="358.2" y="-117" font-family="Helvetica,sans-Serif" font-size="10.00">no_os_error.h</text>
</a>
</g>
</g>
<!-- Node1&#45;&gt;Node9 -->
<g id="edge11_Node000001_Node000009" class="edge">
<title>Node1&#45;&gt;Node9</title>
<g id="a_edge11_Node000001_Node000009"><a xlink:title=" ">
<path fill="none" stroke="#63b8ff" d="M247.07,-164.95C273.17,-154.51 304.5,-141.98 327.23,-132.88"/>
<polygon fill="#63b8ff" stroke="#63b8ff" points="328.73,-136.06 336.72,-129.09 326.13,-129.56 328.73,-136.06"/>
</a>
</g>
</g>
<!-- Node11 -->
<g id="Node000011" class="node">
<title>Node11</title>
<g id="a_Node000011"><a xlink:href="no__os__alloc_8h.html" target="_top" xlink:title=" ">
<polygon fill="white" stroke="#666666" points="288.7,-129 205.7,-129 205.7,-110 288.7,-110 288.7,-129"/>
<text text-anchor="middle" x="247.2" y="-117" font-family="Helvetica,sans-Serif" font-size="10.00">no_os_alloc.h</text>
</a>
</g>
</g>
<!-- Node1&#45;&gt;Node11 -->
<g id="edge13_Node000001_Node000011" class="edge">
<title>Node1&#45;&gt;Node11</title>
<g id="a_edge13_Node000001_Node000011"><a xlink:title=" ">
<path fill="none" stroke="#63b8ff" d="M213.16,-164.95C219.93,-156.11 227.85,-145.77 234.34,-137.29"/>
<polygon fill="#63b8ff" stroke="#63b8ff" points="237.19,-139.33 240.49,-129.26 231.63,-135.07 237.19,-139.33"/>
</a>
</g>
</g>
<!-- Node4 -->
<g id="Node000004" class="node">
<title>Node4</title>
<g id="a_Node000004"><a xlink:title=" ">
<polygon fill="#e0e0e0" stroke="#999999" points="76.7,-19 23.7,-19 23.7,0 76.7,0 76.7,-19"/>
<text text-anchor="middle" x="50.2" y="-7" font-family="Helvetica,sans-Serif" font-size="10.00">stdint.h</text>
</a>
</g>
</g>
<!-- Node3&#45;&gt;Node4 -->
<g id="edge3_Node000003_Node000004" class="edge">
<title>Node3&#45;&gt;Node4</title>
<g id="a_edge3_Node000003_Node000004"><a xlink:title=" ">
<path fill="none" stroke="#63b8ff" d="M107.48,-111.66C69.83,-104.12 16.55,-90.81 4.2,-74 -8.02,-57.37 10.36,-38.17 27.38,-25.28"/>
<polygon fill="#63b8ff" stroke="#63b8ff" points="29.87,-27.8 35.99,-19.15 25.81,-22.1 29.87,-27.8"/>
</a>
</g>
</g>
<!-- Node5 -->
<g id="Node000005" class="node">
<title>Node5</title>
<g id="a_Node000005"><a xlink:title=" ">
<polygon fill="#e0e0e0" stroke="#999999" points="181.2,-19 119.2,-19 119.2,0 181.2,0 181.2,-19"/>
<text text-anchor="middle" x="150.2" y="-7" font-family="Helvetica,sans-Serif" font-size="10.00">stdbool.h</text>
</a>
</g>
</g>
<!-- Node3&#45;&gt;Node5 -->
<g id="edge4_Node000003_Node000005" class="edge">
<title>Node3&#45;&gt;Node5</title>
<g id="a_edge4_Node000003_Node000005"><a xlink:title=" ">
<path fill="none" stroke="#63b8ff" d="M158.69,-109.93C169.06,-101.99 183.08,-89.14 189.2,-74 196.26,-56.52 182.64,-38.36 169.6,-25.96"/>
<polygon fill="#63b8ff" stroke="#63b8ff" points="171.56,-23.02 161.74,-19.04 166.93,-28.28 171.56,-23.02"/>
</a>
</g>
</g>
<!-- Node6 -->
<g id="Node000006" class="node">
<title>Node6</title>
<g id="a_Node000006"><a xlink:href="no__os__spi_8h.html" target="_top" xlink:title="Header file of SPI Interface.">
<polygon fill="white" stroke="#666666" points="87.2,-74 13.2,-74 13.2,-55 87.2,-55 87.2,-74"/>
<text text-anchor="middle" x="50.2" y="-62" font-family="Helvetica,sans-Serif" font-size="10.00">no_os_spi.h</text>
</a>
</g>
</g>
<!-- Node3&#45;&gt;Node6 -->
<g id="edge5_Node000003_Node000006" class="edge">
<title>Node3&#45;&gt;Node6</title>
<g id="a_edge5_Node000003_Node000006"><a xlink:title=" ">
<path fill="none" stroke="#63b8ff" d="M130.77,-109.98C115.75,-101.69 92.66,-88.94 75.04,-79.22"/>
<polygon fill="#63b8ff" stroke="#63b8ff" points="76.35,-75.94 65.9,-74.17 72.96,-82.07 76.35,-75.94"/>
</a>
</g>
</g>
<!-- Node7 -->
<g id="Node000007" class="node">
<title>Node7</title>
<g id="a_Node000007"><a xlink:href="no__os__util_8h.html" target="_top" xlink:title="Header file of utility functions.">
<polygon fill="white" stroke="#666666" points="180.7,-74 105.7,-74 105.7,-55 180.7,-55 180.7,-74"/>
<text text-anchor="middle" x="143.2" y="-62" font-family="Helvetica,sans-Serif" font-size="10.00">no_os_util.h</text>
</a>
</g>
</g>
<!-- Node3&#45;&gt;Node7 -->
<g id="edge7_Node000003_Node000007" class="edge">
<title>Node3&#45;&gt;Node7</title>
<g id="a_edge7_Node000003_Node000007"><a xlink:title=" ">
<path fill="none" stroke="#63b8ff" d="M145.7,-109.75C145.31,-102.8 144.74,-92.85 144.25,-84.13"/>
<polygon fill="#63b8ff" stroke="#63b8ff" points="147.74,-83.88 143.68,-74.09 140.75,-84.27 147.74,-83.88"/>
</a>
</g>
</g>
<!-- Node6&#45;&gt;Node4 -->
<g id="edge6_Node000006_Node000004" class="edge">
<title>Node6&#45;&gt;Node4</title>
<g id="a_edge6_Node000006_Node000004"><a xlink:title=" ">
<path fill="none" stroke="#63b8ff" d="M50.2,-54.75C50.2,-47.8 50.2,-37.85 50.2,-29.13"/>
<polygon fill="#63b8ff" stroke="#63b8ff" points="53.7,-29.09 50.2,-19.09 46.7,-29.09 53.7,-29.09"/>
</a>
</g>
</g>
<!-- Node7&#45;&gt;Node4 -->
<g id="edge8_Node000007_Node000004" class="edge">
<title>Node7&#45;&gt;Node4</title>
<g id="a_edge8_Node000007_Node000004"><a xlink:title=" ">
<path fill="none" stroke="#63b8ff" d="M128.25,-54.98C113.7,-46.69 91.33,-33.94 74.26,-24.22"/>
<polygon fill="#63b8ff" stroke="#63b8ff" points="75.83,-21.08 65.41,-19.17 72.36,-27.16 75.83,-21.08"/>
</a>
</g>
</g>
<!-- Node7&#45;&gt;Node5 -->
<g id="edge10_Node000007_Node000005" class="edge">
<title>Node7&#45;&gt;Node5</title>
<g id="a_edge10_Node000007_Node000005"><a xlink:title=" ">
<path fill="none" stroke="#63b8ff" d="M144.35,-54.75C145.27,-47.8 146.58,-37.85 147.73,-29.13"/>
<polygon fill="#63b8ff" stroke="#63b8ff" points="151.22,-29.46 149.06,-19.09 144.28,-28.54 151.22,-29.46"/>
</a>
</g>
</g>
<!-- Node8 -->
<g id="Node000008" class="node">
<title>Node8</title>
<g id="a_Node000008"><a xlink:title=" ">
<polygon fill="#e0e0e0" stroke="#999999" points="266.7,-19 213.7,-19 213.7,0 266.7,0 266.7,-19"/>
<text text-anchor="middle" x="240.2" y="-7" font-family="Helvetica,sans-Serif" font-size="10.00">stdlib.h</text>
</a>
</g>
</g>
<!-- Node7&#45;&gt;Node8 -->
<g id="edge9_Node000007_Node000008" class="edge">
<title>Node7&#45;&gt;Node8</title>
<g id="a_edge9_Node000007_Node000008"><a xlink:title=" ">
<path fill="none" stroke="#63b8ff" d="M158.78,-54.98C173.96,-46.69 197.29,-33.94 215.09,-24.22"/>
<polygon fill="#63b8ff" stroke="#63b8ff" points="217.23,-27.04 224.33,-19.17 213.87,-20.89 217.23,-27.04"/>
</a>
</g>
</g>
<!-- Node10 -->
<g id="Node000010" class="node">
<title>Node10</title>
<g id="a_Node000010"><a xlink:href="errno_8h.html" target="_top" xlink:title="Error macro definition for ARM Compiler.">
<polygon fill="white" stroke="#666666" points="394.7,-74 343.7,-74 343.7,-55 394.7,-55 394.7,-74"/>
<text text-anchor="middle" x="369.2" y="-62" font-family="Helvetica,sans-Serif" font-size="10.00">errno.h</text>
</a>
</g>
</g>
<!-- Node9&#45;&gt;Node10 -->
<g id="edge12_Node000009_Node000010" class="edge">
<title>Node9&#45;&gt;Node10</title>
<g id="a_edge12_Node000009_Node000010"><a xlink:title=" ">
<path fill="none" stroke="#63b8ff" d="M360.01,-109.75C361.45,-102.8 363.52,-92.85 365.33,-84.13"/>
<polygon fill="#63b8ff" stroke="#63b8ff" points="368.81,-84.59 367.41,-74.09 361.95,-83.17 368.81,-84.59"/>
</a>
</g>
</g>
<!-- Node11&#45;&gt;Node8 -->
<g id="edge15_Node000011_Node000008" class="edge">
<title>Node11&#45;&gt;Node8</title>
<g id="a_edge15_Node000011_Node000008"><a xlink:title=" ">
<path fill="none" stroke="#63b8ff" d="M246.62,-109.66C245.49,-92.17 242.94,-52.8 241.41,-29.27"/>
<polygon fill="#63b8ff" stroke="#63b8ff" points="244.9,-28.91 240.76,-19.16 237.91,-29.36 244.9,-28.91"/>
</a>
</g>
</g>
<!-- Node12 -->
<g id="Node000012" class="node">
<title>Node12</title>
<g id="a_Node000012"><a xlink:title=" ">
<polygon fill="#e0e0e0" stroke="#999999" points="325.2,-74 275.2,-74 275.2,-55 325.2,-55 325.2,-74"/>
<text text-anchor="middle" x="300.2" y="-62" font-family="Helvetica,sans-Serif" font-size="10.00">stdio.h</text>
</a>
</g>
</g>
<!-- Node11&#45;&gt;Node12 -->
<g id="edge14_Node000011_Node000012" class="edge">
<title>Node11&#45;&gt;Node12</title>
<g id="a_edge14_Node000011_Node000012"><a xlink:title=" ">
<path fill="none" stroke="#63b8ff" d="M255.95,-109.75C263.67,-102.03 275.1,-90.6 284.41,-81.28"/>
<polygon fill="#63b8ff" stroke="#63b8ff" points="287.01,-83.64 291.61,-74.09 282.06,-78.69 287.01,-83.64"/>
</a>
</g>
</g>
</g>
</svg>
