<?xml version="1.0" encoding="UTF-8" standalone="no"?>
<!DOCTYPE svg PUBLIC "-//W3C//DTD SVG 1.1//EN"
 "http://www.w3.org/Graphics/SVG/1.1/DTD/svg11.dtd">
<!-- Generated by graphviz version 2.43.0 (0)
 -->
<!-- Title: /home/runner/work/no&#45;OS/no&#45;OS/drivers/power/adp1055/adp1055.h Pages: 1 -->
<!--zoomable 159 -->

<svg id="main" version="1.1" xmlns="http://www.w3.org/2000/svg" xmlns:xlink="http://www.w3.org/1999/xlink" xml:space="preserve" onload="init(evt)">

<style type="text/css"><![CDATA[
.node, .edge {opacity: 0.7;}
.node.selected, .edge.selected {opacity: 1;}
.edge:hover path { stroke: red; }
.edge:hover polygon { stroke: red; fill: red; }
]]></style>

<defs>
  <circle id="rim" cx="0" cy="0" r="7"/>
  <circle id="rim2" cx="0" cy="0" r="3.5"/>
  <g id="zoomPlus">
    <use xlink:href="#rim" fill="#404040"><set attributeName="fill" to="#808080" begin="zoomplus.mouseover" end="zoomplus.mouseout"/></use>
    <path d="M-4,0h8M0,-4v8" fill="none" stroke="white" stroke-width="1.5" pointer-events="none"/>
  </g>
  <g id="zoomMin">
    <use xlink:href="#rim" fill="#404040"><set attributeName="fill" to="#808080" begin="zoomminus.mouseover" end="zoomminus.mouseout"/></use>
    <path d="M-4,0h8" fill="none" stroke="white" stroke-width="1.5" pointer-events="none"/>
  </g>
  <g id="arrowUp" transform="translate(30 24)">
    <use xlink:href="#rim"/>
    <path pointer-events="none" fill="none" stroke="white" stroke-width="1.5" d="M0,-3.0v7 M-2.5,-0.5L0,-3.0L2.5,-0.5"/>
  </g>
  <g id="arrowRight" transform="rotate(90) translate(36 -43)">
    <use xlink:href="#rim"/>
    <path pointer-events="none" fill="none" stroke="white" stroke-width="1.5" d="M0,-3.0v7 M-2.5,-0.5L0,-3.0L2.5,-0.5"/>
  </g>
  <g id="arrowDown" transform="rotate(180) translate(-30 -48)">
    <use xlink:href="#rim"/>
    <path pointer-events="none" fill="none" stroke="white" stroke-width="1.5" d="M0,-3.0v7 M-2.5,-0.5L0,-3.0L2.5,-0.5"/>
  </g>
  <g id="arrowLeft" transform="rotate(270) translate(-36 17)">
    <use xlink:href="#rim"/>
    <path pointer-events="none" fill="none" stroke="white" stroke-width="1.5" d="M0,-3.0v7 M-2.5,-0.5L0,-3.0L2.5,-0.5"/>
  </g>
  <g id="resetDef">
    <use xlink:href="#rim2" fill="#404040"><set attributeName="fill" to="#808080" begin="reset.mouseover" end="reset.mouseout"/></use>
  </g>
</defs>
<script type="application/ecmascript">
var viewWidth = 599;
var viewHeight = 159;
var sectionId = 'dynsection-0';
</script>
<script type="application/ecmascript" xlink:href="svg.min.js"/>
<svg id="graph" class="graph">
<g id="viewport">
<title>/home/runner/work/no&#45;OS/no&#45;OS/drivers/power/adp1055/adp1055.h</title>
<!-- Node1 -->
<g id="Node000001" class="node">
<title>Node1</title>
<g id="a_Node000001"><a xlink:title="Header file for the ADP1055 Driver.">
<polygon fill="#999999" stroke="#666666" points="364.22,-151 228.22,-151 228.22,-110 364.22,-110 364.22,-151"/>
<text text-anchor="start" x="236.22" y="-139" font-family="Helvetica,sans-Serif" font-size="10.00">/home/runner/work/no</text>
<text text-anchor="start" x="236.22" y="-128" font-family="Helvetica,sans-Serif" font-size="10.00">&#45;OS/no&#45;OS/drivers/power</text>
<text text-anchor="middle" x="296.22" y="-117" font-family="Helvetica,sans-Serif" font-size="10.00">/adp1055/adp1055.h</text>
</a>
</g>
</g>
<!-- Node2 -->
<g id="Node000002" class="node">
<title>Node2</title>
<g id="a_Node000002"><a xlink:title=" ">
<polygon fill="#e0e0e0" stroke="#999999" points="177.72,-19 124.72,-19 124.72,0 177.72,0 177.72,-19"/>
<text text-anchor="middle" x="151.22" y="-7" font-family="Helvetica,sans-Serif" font-size="10.00">stdint.h</text>
</a>
</g>
</g>
<!-- Node1&#45;&gt;Node2 -->
<g id="edge1_Node000001_Node000002" class="edge">
<title>Node1&#45;&gt;Node2</title>
<g id="a_edge1_Node000001_Node000002"><a xlink:title=" ">
<path fill="none" stroke="#63b8ff" d="M227.96,-126.13C151.51,-120.77 34.68,-107.23 7.22,-74 -24.51,-35.59 62.02,-19.68 114.44,-13.71"/>
<polygon fill="#63b8ff" stroke="#63b8ff" points="114.85,-17.18 124.42,-12.64 114.11,-10.22 114.85,-17.18"/>
</a>
</g>
</g>
<!-- Node3 -->
<g id="Node000003" class="node">
<title>Node3</title>
<g id="a_Node000003"><a xlink:title=" ">
<polygon fill="#e0e0e0" stroke="#999999" points="338.22,-19 276.22,-19 276.22,0 338.22,0 338.22,-19"/>
<text text-anchor="middle" x="307.22" y="-7" font-family="Helvetica,sans-Serif" font-size="10.00">stdbool.h</text>
</a>
</g>
</g>
<!-- Node1&#45;&gt;Node3 -->
<g id="edge2_Node000001_Node000003" class="edge">
<title>Node1&#45;&gt;Node3</title>
<g id="a_edge2_Node000001_Node000003"><a xlink:title=" ">
<path fill="none" stroke="#63b8ff" d="M351.78,-109.92C367.67,-101.44 383.13,-89.76 392.22,-74 405.73,-50.59 375.84,-33.16 347.86,-22.54"/>
<polygon fill="#63b8ff" stroke="#63b8ff" points="348.71,-19.13 338.12,-19.07 346.36,-25.72 348.71,-19.13"/>
</a>
</g>
</g>
<!-- Node4 -->
<g id="Node000004" class="node">
<title>Node4</title>
<g id="a_Node000004"><a xlink:title=" ">
<polygon fill="#e0e0e0" stroke="#999999" points="489.22,-74 439.22,-74 439.22,-55 489.22,-55 489.22,-74"/>
<text text-anchor="middle" x="464.22" y="-62" font-family="Helvetica,sans-Serif" font-size="10.00">stdio.h</text>
</a>
</g>
</g>
<!-- Node1&#45;&gt;Node4 -->
<g id="edge3_Node000001_Node000004" class="edge">
<title>Node1&#45;&gt;Node4</title>
<g id="a_edge3_Node000001_Node000004"><a xlink:title=" ">
<path fill="none" stroke="#63b8ff" d="M347.54,-109.95C375.07,-99.46 408.14,-86.87 432.03,-77.76"/>
<polygon fill="#63b8ff" stroke="#63b8ff" points="433.57,-80.92 441.67,-74.09 431.08,-74.38 433.57,-80.92"/>
</a>
</g>
</g>
<!-- Node5 -->
<g id="Node000005" class="node">
<title>Node5</title>
<g id="a_Node000005"><a xlink:href="no__os__gpio_8h.html" target="_top" xlink:title="Header file of GPIO Interface.">
<polygon fill="white" stroke="#666666" points="96.22,-74 16.22,-74 16.22,-55 96.22,-55 96.22,-74"/>
<text text-anchor="middle" x="56.22" y="-62" font-family="Helvetica,sans-Serif" font-size="10.00">no_os_gpio.h</text>
</a>
</g>
</g>
<!-- Node1&#45;&gt;Node5 -->
<g id="edge4_Node000001_Node000005" class="edge">
<title>Node1&#45;&gt;Node5</title>
<g id="a_edge4_Node000001_Node000005"><a xlink:title=" ">
<path fill="none" stroke="#63b8ff" d="M228.09,-111.33C186.34,-100.2 134.22,-86.3 98.38,-76.74"/>
<polygon fill="#63b8ff" stroke="#63b8ff" points="98.84,-73.24 88.28,-74.05 97.04,-80.01 98.84,-73.24"/>
</a>
</g>
</g>
<!-- Node6 -->
<g id="Node000006" class="node">
<title>Node6</title>
<g id="a_Node000006"><a xlink:href="no__os__i2c_8h.html" target="_top" xlink:title="Header file of I2C Interface.">
<polygon fill="white" stroke="#666666" points="188.22,-74 114.22,-74 114.22,-55 188.22,-55 188.22,-74"/>
<text text-anchor="middle" x="151.22" y="-62" font-family="Helvetica,sans-Serif" font-size="10.00">no_os_i2c.h</text>
</a>
</g>
</g>
<!-- Node1&#45;&gt;Node6 -->
<g id="edge6_Node000001_Node000006" class="edge">
<title>Node1&#45;&gt;Node6</title>
<g id="a_edge6_Node000001_Node000006"><a xlink:title=" ">
<path fill="none" stroke="#63b8ff" d="M251.93,-109.95C228.49,-99.6 200.39,-87.2 179.84,-78.13"/>
<polygon fill="#63b8ff" stroke="#63b8ff" points="181.25,-74.93 170.69,-74.09 178.42,-81.33 181.25,-74.93"/>
</a>
</g>
</g>
<!-- Node7 -->
<g id="Node000007" class="node">
<title>Node7</title>
<g id="a_Node000007"><a xlink:href="no__os__pwm_8h.html" target="_top" xlink:title="Header file of PWM Interface.">
<polygon fill="white" stroke="#666666" points="289.72,-74 206.72,-74 206.72,-55 289.72,-55 289.72,-74"/>
<text text-anchor="middle" x="248.22" y="-62" font-family="Helvetica,sans-Serif" font-size="10.00">no_os_pwm.h</text>
</a>
</g>
</g>
<!-- Node1&#45;&gt;Node7 -->
<g id="edge8_Node000001_Node000007" class="edge">
<title>Node1&#45;&gt;Node7</title>
<g id="a_edge8_Node000001_Node000007"><a xlink:title=" ">
<path fill="none" stroke="#63b8ff" d="M281.56,-109.95C274.93,-101.11 267.17,-90.77 260.81,-82.29"/>
<polygon fill="#63b8ff" stroke="#63b8ff" points="263.59,-80.16 254.79,-74.26 257.99,-84.36 263.59,-80.16"/>
</a>
</g>
</g>
<!-- Node8 -->
<g id="Node000008" class="node">
<title>Node8</title>
<g id="a_Node000008"><a xlink:href="no__os__util_8h.html" target="_top" xlink:title="Header file of utility functions.">
<polygon fill="white" stroke="#666666" points="382.72,-74 307.72,-74 307.72,-55 382.72,-55 382.72,-74"/>
<text text-anchor="middle" x="345.22" y="-62" font-family="Helvetica,sans-Serif" font-size="10.00">no_os_util.h</text>
</a>
</g>
</g>
<!-- Node1&#45;&gt;Node8 -->
<g id="edge11_Node000001_Node000008" class="edge">
<title>Node1&#45;&gt;Node8</title>
<g id="a_edge11_Node000001_Node000008"><a xlink:title=" ">
<path fill="none" stroke="#63b8ff" d="M311.19,-109.95C317.96,-101.11 325.88,-90.77 332.37,-82.29"/>
<polygon fill="#63b8ff" stroke="#63b8ff" points="335.22,-84.33 338.52,-74.26 329.66,-80.07 335.22,-84.33"/>
</a>
</g>
</g>
<!-- Node10 -->
<g id="Node000010" class="node">
<title>Node10</title>
<g id="a_Node000010"><a xlink:href="no__os__units_8h.html" target="_top" xlink:title="Header file of Units.">
<polygon fill="white" stroke="#666666" points="590.72,-74 507.72,-74 507.72,-55 590.72,-55 590.72,-74"/>
<text text-anchor="middle" x="549.22" y="-62" font-family="Helvetica,sans-Serif" font-size="10.00">no_os_units.h</text>
</a>
</g>
</g>
<!-- Node1&#45;&gt;Node10 -->
<g id="edge15_Node000001_Node000010" class="edge">
<title>Node1&#45;&gt;Node10</title>
<g id="a_edge15_Node000001_Node000010"><a xlink:title=" ">
<path fill="none" stroke="#63b8ff" d="M364.35,-112.26C409.23,-100.91 466.65,-86.39 505.5,-76.56"/>
<polygon fill="#63b8ff" stroke="#63b8ff" points="506.62,-79.89 515.45,-74.04 504.9,-73.1 506.62,-79.89"/>
</a>
</g>
</g>
<!-- Node5&#45;&gt;Node2 -->
<g id="edge5_Node000005_Node000002" class="edge">
<title>Node5&#45;&gt;Node2</title>
<g id="a_edge5_Node000005_Node000002"><a xlink:title=" ">
<path fill="none" stroke="#63b8ff" d="M71.49,-54.98C86.36,-46.69 109.21,-33.94 126.64,-24.22"/>
<polygon fill="#63b8ff" stroke="#63b8ff" points="128.65,-27.1 135.68,-19.17 125.24,-20.99 128.65,-27.1"/>
</a>
</g>
</g>
<!-- Node6&#45;&gt;Node2 -->
<g id="edge7_Node000006_Node000002" class="edge">
<title>Node6&#45;&gt;Node2</title>
<g id="a_edge7_Node000006_Node000002"><a xlink:title=" ">
<path fill="none" stroke="#63b8ff" d="M151.22,-54.75C151.22,-47.8 151.22,-37.85 151.22,-29.13"/>
<polygon fill="#63b8ff" stroke="#63b8ff" points="154.72,-29.09 151.22,-19.09 147.72,-29.09 154.72,-29.09"/>
</a>
</g>
</g>
<!-- Node7&#45;&gt;Node2 -->
<g id="edge9_Node000007_Node000002" class="edge">
<title>Node7&#45;&gt;Node2</title>
<g id="a_edge9_Node000007_Node000002"><a xlink:title=" ">
<path fill="none" stroke="#63b8ff" d="M232.64,-54.98C217.46,-46.69 194.12,-33.94 176.32,-24.22"/>
<polygon fill="#63b8ff" stroke="#63b8ff" points="177.54,-20.89 167.09,-19.17 174.19,-27.04 177.54,-20.89"/>
</a>
</g>
</g>
<!-- Node7&#45;&gt;Node3 -->
<g id="edge10_Node000007_Node000003" class="edge">
<title>Node7&#45;&gt;Node3</title>
<g id="a_edge10_Node000007_Node000003"><a xlink:title=" ">
<path fill="none" stroke="#63b8ff" d="M257.7,-54.98C266.42,-47.15 279.57,-35.34 290.12,-25.86"/>
<polygon fill="#63b8ff" stroke="#63b8ff" points="292.47,-28.46 297.57,-19.17 287.79,-23.25 292.47,-28.46"/>
</a>
</g>
</g>
<!-- Node8&#45;&gt;Node2 -->
<g id="edge12_Node000008_Node000002" class="edge">
<title>Node8&#45;&gt;Node2</title>
<g id="a_edge12_Node000008_Node000002"><a xlink:title=" ">
<path fill="none" stroke="#63b8ff" d="M314.05,-54.98C279.59,-45.57 224.14,-30.42 187.69,-20.46"/>
<polygon fill="#63b8ff" stroke="#63b8ff" points="188.51,-17.06 177.94,-17.8 186.67,-23.81 188.51,-17.06"/>
</a>
</g>
</g>
<!-- Node8&#45;&gt;Node3 -->
<g id="edge14_Node000008_Node000003" class="edge">
<title>Node8&#45;&gt;Node3</title>
<g id="a_edge14_Node000008_Node000003"><a xlink:title=" ">
<path fill="none" stroke="#63b8ff" d="M338.95,-54.75C333.64,-47.34 325.87,-36.5 319.35,-27.41"/>
<polygon fill="#63b8ff" stroke="#63b8ff" points="322.05,-25.18 313.38,-19.09 316.36,-29.26 322.05,-25.18"/>
</a>
</g>
</g>
<!-- Node9 -->
<g id="Node000009" class="node">
<title>Node9</title>
<g id="a_Node000009"><a xlink:title=" ">
<polygon fill="#e0e0e0" stroke="#999999" points="409.72,-19 356.72,-19 356.72,0 409.72,0 409.72,-19"/>
<text text-anchor="middle" x="383.22" y="-7" font-family="Helvetica,sans-Serif" font-size="10.00">stdlib.h</text>
</a>
</g>
</g>
<!-- Node8&#45;&gt;Node9 -->
<g id="edge13_Node000008_Node000009" class="edge">
<title>Node8&#45;&gt;Node9</title>
<g id="a_edge13_Node000008_Node000009"><a xlink:title=" ">
<path fill="none" stroke="#63b8ff" d="M351.5,-54.75C356.81,-47.34 364.58,-36.5 371.1,-27.41"/>
<polygon fill="#63b8ff" stroke="#63b8ff" points="374.08,-29.26 377.06,-19.09 368.39,-25.18 374.08,-29.26"/>
</a>
</g>
</g>
</g>
</svg>

<g id="navigator" transform="translate(0 0)" fill="#404254">
  <rect fill="#f2f5e9" fill-opacity="0.5" stroke="#606060" stroke-width=".5" x="0" y="0" width="60" height="60"/>
  <use id="zoomplus" xlink:href="#zoomPlus" x="17" y="9" onmousedown="handleZoom(evt,'in')"/>
  <use id="zoomminus" xlink:href="#zoomMin" x="42" y="9" onmousedown="handleZoom(evt,'out')"/>
  <use id="reset" xlink:href="#resetDef" x="30" y="36" onmousedown="handleReset()"/>
   <use id="arrowup" xlink:href="#arrowUp" x="0" y="0" onmousedown="handlePan(0,-1)"/>
  <use id="arrowright" xlink:href="#arrowRight" x="0" y="0" onmousedown="handlePan(1,0)"/>
  <use id="arrowdown" xlink:href="#arrowDown" x="0" y="0" onmousedown="handlePan(0,1)"/>
  <use id="arrowleft" xlink:href="#arrowLeft" x="0" y="0" onmousedown="handlePan(-1,0)"/>
</g>
<svg viewBox="0 0 15 15" width="100%" height="30px" preserveAspectRatio="xMaxYMin meet">
 <g id="arrow_out" transform="scale(0.3 0.3)">
  <a xlink:href="adp1055_8h__incl_org.svg" target="_base">
   <rect id="button" ry="5" rx="5" y="6" x="6" height="38" width="38"
        fill="#f2f5e9" fill-opacity="0.5" stroke="#606060" stroke-width="1.0"/>
   <path id="arrow"
     d="M 11.500037,31.436501 C 11.940474,20.09759 22.043105,11.32322 32.158766,21.979434 L 37.068811,17.246167 C 37.068811,17.246167 37.088388,32 37.088388,32 L 22.160133,31.978069 C 22.160133,31.978069 26.997745,27.140456 26.997745,27.140456 C 18.528582,18.264221 13.291696,25.230495 11.500037,31.436501 z"
     style="fill:#404040;"/>
  </a>
 </g>
</svg>

<style type='text/css'>
<![CDATA[
[data-mouse-over-selected='false'] { opacity: 0.7; }
[data-mouse-over-selected='true']  { opacity: 1.0; }
]]>
</style>
<script type="application/ecmascript"><![CDATA[
document.addEventListener('DOMContentLoaded', (event) => {
  highlightEdges();
  highlightAdjacentNodes();
});
]]></script>
</svg>
