<?xml version="1.0" encoding="UTF-8" standalone="no"?>
<!DOCTYPE svg PUBLIC "-//W3C//DTD SVG 1.1//EN"
 "http://www.w3.org/Graphics/SVG/1.1/DTD/svg11.dtd">
<!-- Generated by graphviz version 2.43.0 (0)
 -->
<!-- Title: /home/runner/work/no&#45;OS/no&#45;OS/drivers/photo&#45;electronic/adpd188/adpd188.h Pages: 1 -->
<svg width="367pt" height="159pt"
 viewBox="0.00 0.00 367.34 159.00" xmlns="http://www.w3.org/2000/svg" xmlns:xlink="http://www.w3.org/1999/xlink">

<svg id="main" version="1.1" xmlns="http://www.w3.org/2000/svg" xmlns:xlink="http://www.w3.org/1999/xlink" xml:space="preserve">

<style type="text/css"><![CDATA[
.node, .edge {opacity: 0.7;}
.node.selected, .edge.selected {opacity: 1;}
.edge:hover path { stroke: red; }
.edge:hover polygon { stroke: red; fill: red; }
]]></style>
<script type="application/ecmascript" xlink:href="svg.min.js"/>
<svg id="graph" class="graph">
<g id="graph0" class="graph" transform="scale(1 1) rotate(0) translate(4 155)">
<title>/home/runner/work/no&#45;OS/no&#45;OS/drivers/photo&#45;electronic/adpd188/adpd188.h</title>
<!-- Node1 -->
<g id="Node000001" class="node">
<title>Node1</title>
<g id="a_Node000001"><a xlink:title="ADPD188 driver header file.">
<polygon fill="#999999" stroke="#666666" points="215.84,-151 48.84,-151 48.84,-110 215.84,-110 215.84,-151"/>
<text text-anchor="start" x="56.84" y="-139" font-family="Helvetica,sans-Serif" font-size="10.00">/home/runner/work/no</text>
<text text-anchor="start" x="56.84" y="-128" font-family="Helvetica,sans-Serif" font-size="10.00">&#45;OS/no&#45;OS/drivers/photo</text>
<text text-anchor="middle" x="132.34" y="-117" font-family="Helvetica,sans-Serif" font-size="10.00">&#45;electronic/adpd188/adpd188.h</text>
</a>
</g>
</g>
<!-- Node2 -->
<g id="Node000002" class="node">
<title>Node2</title>
<g id="a_Node000002"><a xlink:title=" ">
<polygon fill="#e0e0e0" stroke="#999999" points="204.84,-19 151.84,-19 151.84,0 204.84,0 204.84,-19"/>
<text text-anchor="middle" x="178.34" y="-7" font-family="Helvetica,sans-Serif" font-size="10.00">stdint.h</text>
</a>
</g>
</g>
<!-- Node1&#45;&gt;Node2 -->
<g id="edge1_Node000001_Node000002" class="edge">
<title>Node1&#45;&gt;Node2</title>
<g id="a_edge1_Node000001_Node000002"><a xlink:title=" ">
<path fill="none" stroke="#63b8ff" d="M49.74,-109.93C15.32,-97.73 -12.71,-79.62 6.34,-55 22.77,-33.79 96.28,-20.86 141.72,-14.75"/>
<polygon fill="#63b8ff" stroke="#63b8ff" points="142.32,-18.2 151.79,-13.44 141.42,-11.26 142.32,-18.2"/>
</a>
</g>
</g>
<!-- Node3 -->
<g id="Node000003" class="node">
<title>Node3</title>
<g id="a_Node000003"><a xlink:title=" ">
<polygon fill="#e0e0e0" stroke="#999999" points="77.34,-74 15.34,-74 15.34,-55 77.34,-55 77.34,-74"/>
<text text-anchor="middle" x="46.34" y="-62" font-family="Helvetica,sans-Serif" font-size="10.00">stdbool.h</text>
</a>
</g>
</g>
<!-- Node1&#45;&gt;Node3 -->
<g id="edge2_Node000001_Node000003" class="edge">
<title>Node1&#45;&gt;Node3</title>
<g id="a_edge2_Node000001_Node000003"><a xlink:title=" ">
<path fill="none" stroke="#63b8ff" d="M106.07,-109.95C93.32,-100.46 78.24,-89.24 66.42,-80.44"/>
<polygon fill="#63b8ff" stroke="#63b8ff" points="68.23,-77.42 58.11,-74.26 64.05,-83.04 68.23,-77.42"/>
</a>
</g>
</g>
<!-- Node4 -->
<g id="Node000004" class="node">
<title>Node4</title>
<g id="a_Node000004"><a xlink:href="no__os__i2c_8h.html" target="_top" xlink:title="Header file of I2C Interface.">
<polygon fill="white" stroke="#666666" points="169.34,-74 95.34,-74 95.34,-55 169.34,-55 169.34,-74"/>
<text text-anchor="middle" x="132.34" y="-62" font-family="Helvetica,sans-Serif" font-size="10.00">no_os_i2c.h</text>
</a>
</g>
</g>
<!-- Node1&#45;&gt;Node4 -->
<g id="edge3_Node000001_Node000004" class="edge">
<title>Node1&#45;&gt;Node4</title>
<g id="a_edge3_Node000001_Node000004"><a xlink:title=" ">
<path fill="none" stroke="#63b8ff" d="M132.34,-109.95C132.34,-101.85 132.34,-92.5 132.34,-84.47"/>
<polygon fill="#63b8ff" stroke="#63b8ff" points="135.84,-84.26 132.34,-74.26 128.84,-84.26 135.84,-84.26"/>
</a>
</g>
</g>
<!-- Node5 -->
<g id="Node000005" class="node">
<title>Node5</title>
<g id="a_Node000005"><a xlink:href="no__os__spi_8h.html" target="_top" xlink:title="Header file of SPI Interface.">
<polygon fill="white" stroke="#666666" points="261.34,-74 187.34,-74 187.34,-55 261.34,-55 261.34,-74"/>
<text text-anchor="middle" x="224.34" y="-62" font-family="Helvetica,sans-Serif" font-size="10.00">no_os_spi.h</text>
</a>
</g>
</g>
<!-- Node1&#45;&gt;Node5 -->
<g id="edge5_Node000001_Node000005" class="edge">
<title>Node1&#45;&gt;Node5</title>
<g id="a_edge5_Node000001_Node000005"><a xlink:title=" ">
<path fill="none" stroke="#63b8ff" d="M160.45,-109.95C174.22,-100.37 190.54,-89.02 203.23,-80.19"/>
<polygon fill="#63b8ff" stroke="#63b8ff" points="205.54,-82.84 211.75,-74.26 201.54,-77.1 205.54,-82.84"/>
</a>
</g>
</g>
<!-- Node6 -->
<g id="Node000006" class="node">
<title>Node6</title>
<g id="a_Node000006"><a xlink:href="no__os__gpio_8h.html" target="_top" xlink:title="Header file of GPIO Interface.">
<polygon fill="white" stroke="#666666" points="359.34,-74 279.34,-74 279.34,-55 359.34,-55 359.34,-74"/>
<text text-anchor="middle" x="319.34" y="-62" font-family="Helvetica,sans-Serif" font-size="10.00">no_os_gpio.h</text>
</a>
</g>
</g>
<!-- Node1&#45;&gt;Node6 -->
<g id="edge7_Node000001_Node000006" class="edge">
<title>Node1&#45;&gt;Node6</title>
<g id="a_edge7_Node000001_Node000006"><a xlink:title=" ">
<path fill="none" stroke="#63b8ff" d="M189.46,-109.95C220.51,-99.32 257.9,-86.53 284.58,-77.4"/>
<polygon fill="#63b8ff" stroke="#63b8ff" points="285.91,-80.64 294.24,-74.09 283.64,-74.02 285.91,-80.64"/>
</a>
</g>
</g>
<!-- Node4&#45;&gt;Node2 -->
<g id="edge4_Node000004_Node000002" class="edge">
<title>Node4&#45;&gt;Node2</title>
<g id="a_edge4_Node000004_Node000002"><a xlink:title=" ">
<path fill="none" stroke="#63b8ff" d="M139.94,-54.75C146.5,-47.18 156.17,-36.05 164.16,-26.84"/>
<polygon fill="#63b8ff" stroke="#63b8ff" points="166.98,-28.94 170.89,-19.09 161.69,-24.35 166.98,-28.94"/>
</a>
</g>
</g>
<!-- Node5&#45;&gt;Node2 -->
<g id="edge6_Node000005_Node000002" class="edge">
<title>Node5&#45;&gt;Node2</title>
<g id="a_edge6_Node000005_Node000002"><a xlink:title=" ">
<path fill="none" stroke="#63b8ff" d="M216.75,-54.75C210.18,-47.18 200.52,-36.05 192.53,-26.84"/>
<polygon fill="#63b8ff" stroke="#63b8ff" points="195,-24.35 185.8,-19.09 189.71,-28.94 195,-24.35"/>
</a>
</g>
</g>
<!-- Node6&#45;&gt;Node2 -->
<g id="edge8_Node000006_Node000002" class="edge">
<title>Node6&#45;&gt;Node2</title>
<g id="a_edge8_Node000006_Node000002"><a xlink:title=" ">
<path fill="none" stroke="#63b8ff" d="M296.69,-54.98C273.5,-46.27 237.22,-32.63 210.94,-22.75"/>
<polygon fill="#63b8ff" stroke="#63b8ff" points="212,-19.41 201.41,-19.17 209.54,-25.97 212,-19.41"/>
</a>
</g>
</g>
</g>
</svg>
</svg>

<style type='text/css'>
<![CDATA[
[data-mouse-over-selected='false'] { opacity: 0.7; }
[data-mouse-over-selected='true']  { opacity: 1.0; }
]]>
</style>
<script type="application/ecmascript"><![CDATA[
document.addEventListener('DOMContentLoaded', (event) => {
  highlightEdges();
  highlightAdjacentNodes();
});
]]></script>
</svg>
