<?xml version="1.0" encoding="UTF-8" standalone="no"?>
<!DOCTYPE svg PUBLIC "-//W3C//DTD SVG 1.1//EN"
 "http://www.w3.org/Graphics/SVG/1.1/DTD/svg11.dtd">
<!-- Generated by graphviz version 2.43.0 (0)
 -->
<!-- Title: /home/runner/work/no&#45;OS/no&#45;OS/projects/adrv9009/src/app/app_clocking.c Pages: 1 -->
<!--zoomable 269 -->

<svg id="main" version="1.1" xmlns="http://www.w3.org/2000/svg" xmlns:xlink="http://www.w3.org/1999/xlink" xml:space="preserve" onload="init(evt)">

<style type="text/css"><![CDATA[
.node, .edge {opacity: 0.7;}
.node.selected, .edge.selected {opacity: 1;}
.edge:hover path { stroke: red; }
.edge:hover polygon { stroke: red; fill: red; }
]]></style>

<defs>
  <circle id="rim" cx="0" cy="0" r="7"/>
  <circle id="rim2" cx="0" cy="0" r="3.5"/>
  <g id="zoomPlus">
    <use xlink:href="#rim" fill="#404040"><set attributeName="fill" to="#808080" begin="zoomplus.mouseover" end="zoomplus.mouseout"/></use>
    <path d="M-4,0h8M0,-4v8" fill="none" stroke="white" stroke-width="1.5" pointer-events="none"/>
  </g>
  <g id="zoomMin">
    <use xlink:href="#rim" fill="#404040"><set attributeName="fill" to="#808080" begin="zoomminus.mouseover" end="zoomminus.mouseout"/></use>
    <path d="M-4,0h8" fill="none" stroke="white" stroke-width="1.5" pointer-events="none"/>
  </g>
  <g id="arrowUp" transform="translate(30 24)">
    <use xlink:href="#rim"/>
    <path pointer-events="none" fill="none" stroke="white" stroke-width="1.5" d="M0,-3.0v7 M-2.5,-0.5L0,-3.0L2.5,-0.5"/>
  </g>
  <g id="arrowRight" transform="rotate(90) translate(36 -43)">
    <use xlink:href="#rim"/>
    <path pointer-events="none" fill="none" stroke="white" stroke-width="1.5" d="M0,-3.0v7 M-2.5,-0.5L0,-3.0L2.5,-0.5"/>
  </g>
  <g id="arrowDown" transform="rotate(180) translate(-30 -48)">
    <use xlink:href="#rim"/>
    <path pointer-events="none" fill="none" stroke="white" stroke-width="1.5" d="M0,-3.0v7 M-2.5,-0.5L0,-3.0L2.5,-0.5"/>
  </g>
  <g id="arrowLeft" transform="rotate(270) translate(-36 17)">
    <use xlink:href="#rim"/>
    <path pointer-events="none" fill="none" stroke="white" stroke-width="1.5" d="M0,-3.0v7 M-2.5,-0.5L0,-3.0L2.5,-0.5"/>
  </g>
  <g id="resetDef">
    <use xlink:href="#rim2" fill="#404040"><set attributeName="fill" to="#808080" begin="reset.mouseover" end="reset.mouseout"/></use>
  </g>
</defs>
<script type="application/ecmascript">
var viewWidth = 1282;
var viewHeight = 269;
var sectionId = 'dynsection-0';
</script>
<script type="application/ecmascript" xlink:href="svg.min.js"/>
<svg id="graph" class="graph">
<g id="viewport">
<title>/home/runner/work/no&#45;OS/no&#45;OS/projects/adrv9009/src/app/app_clocking.c</title>
<!-- Node1 -->
<g id="Node000001" class="node">
<title>Node1</title>
<g id="a_Node000001"><a xlink:title="Clock setup and initialization routines.">
<polygon fill="#999999" stroke="#666666" points="691,-261 534,-261 534,-220 691,-220 691,-261"/>
<text text-anchor="start" x="542" y="-249" font-family="Helvetica,sans-Serif" font-size="10.00">/home/runner/work/no</text>
<text text-anchor="start" x="542" y="-238" font-family="Helvetica,sans-Serif" font-size="10.00">&#45;OS/no&#45;OS/projects/adrv9009</text>
<text text-anchor="middle" x="612.5" y="-227" font-family="Helvetica,sans-Serif" font-size="10.00">/src/app/app_clocking.c</text>
</a>
</g>
</g>
<!-- Node2 -->
<g id="Node000002" class="node">
<title>Node2</title>
<g id="a_Node000002"><a xlink:title=" ">
<polygon fill="#e0e0e0" stroke="#999999" points="53,-184 0,-184 0,-165 53,-165 53,-184"/>
<text text-anchor="middle" x="26.5" y="-172" font-family="Helvetica,sans-Serif" font-size="10.00">string.h</text>
</a>
</g>
</g>
<!-- Node1&#45;&gt;Node2 -->
<g id="edge1_Node000001_Node000002" class="edge">
<title>Node1&#45;&gt;Node2</title>
<g id="a_edge1_Node000001_Node000002"><a xlink:title=" ">
<path fill="none" stroke="#63b8ff" d="M533.74,-234.82C428.61,-227.83 236.57,-212.54 63.23,-183.89"/>
<polygon fill="#63b8ff" stroke="#63b8ff" points="63.6,-180.4 53.16,-182.21 62.44,-187.31 63.6,-180.4"/>
</a>
</g>
</g>
<!-- Node3 -->
<g id="Node000003" class="node">
<title>Node3</title>
<g id="a_Node000003"><a xlink:title=" ">
<polygon fill="#e0e0e0" stroke="#999999" points="121.5,-184 71.5,-184 71.5,-165 121.5,-165 121.5,-184"/>
<text text-anchor="middle" x="96.5" y="-172" font-family="Helvetica,sans-Serif" font-size="10.00">stdio.h</text>
</a>
</g>
</g>
<!-- Node1&#45;&gt;Node3 -->
<g id="edge2_Node000001_Node000003" class="edge">
<title>Node1&#45;&gt;Node3</title>
<g id="a_edge2_Node000001_Node000003"><a xlink:title=" ">
<path fill="none" stroke="#63b8ff" d="M533.67,-232.73C438.81,-224.04 274.89,-207.24 135.5,-184 134.23,-183.79 132.94,-183.56 131.64,-183.33"/>
<polygon fill="#63b8ff" stroke="#63b8ff" points="132.09,-179.85 121.6,-181.35 130.74,-186.72 132.09,-179.85"/>
</a>
</g>
</g>
<!-- Node4 -->
<g id="Node000004" class="node">
<title>Node4</title>
<g id="a_Node000004"><a xlink:title=" ">
<polygon fill="#e0e0e0" stroke="#999999" points="209,-19 156,-19 156,0 209,0 209,-19"/>
<text text-anchor="middle" x="182.5" y="-7" font-family="Helvetica,sans-Serif" font-size="10.00">stdlib.h</text>
</a>
</g>
</g>
<!-- Node1&#45;&gt;Node4 -->
<g id="edge3_Node000001_Node000004" class="edge">
<title>Node1&#45;&gt;Node4</title>
<g id="a_edge3_Node000001_Node000004"><a xlink:title=" ">
<path fill="none" stroke="#63b8ff" d="M533.98,-238.08C466.38,-234.1 367.8,-221.55 290.5,-184 224.83,-152.1 198.17,-140.71 168.5,-74 161.98,-59.35 167.01,-41.41 172.77,-28.34"/>
<polygon fill="#63b8ff" stroke="#63b8ff" points="176.07,-29.57 177.35,-19.06 169.79,-26.48 176.07,-29.57"/>
</a>
</g>
</g>
<!-- Node5 -->
<g id="Node000005" class="node">
<title>Node5</title>
<g id="a_Node000005"><a xlink:href="adrv9009_2src_2app_2app__config_8h.html" target="_top" xlink:title="Config file for ADRV9009 project.">
<polygon fill="white" stroke="#666666" points="903.5,-184 825.5,-184 825.5,-165 903.5,-165 903.5,-184"/>
<text text-anchor="middle" x="864.5" y="-172" font-family="Helvetica,sans-Serif" font-size="10.00">app_config.h</text>
</a>
</g>
</g>
<!-- Node1&#45;&gt;Node5 -->
<g id="edge4_Node000001_Node000005" class="edge">
<title>Node1&#45;&gt;Node5</title>
<g id="a_edge4_Node000001_Node000005"><a xlink:title=" ">
<path fill="none" stroke="#63b8ff" d="M689.48,-219.95C732.74,-208.96 785.14,-195.65 821.26,-186.48"/>
<polygon fill="#63b8ff" stroke="#63b8ff" points="822.17,-189.86 831,-184.01 820.45,-183.08 822.17,-189.86"/>
</a>
</g>
</g>
<!-- Node6 -->
<g id="Node000006" class="node">
<title>Node6</title>
<g id="a_Node000006"><a xlink:title=" ">
<polygon fill="#e0e0e0" stroke="#999999" points="983.5,-184 921.5,-184 921.5,-165 983.5,-165 983.5,-184"/>
<text text-anchor="middle" x="952.5" y="-172" font-family="Helvetica,sans-Serif" font-size="10.00">ad9528.h</text>
</a>
</g>
</g>
<!-- Node1&#45;&gt;Node6 -->
<g id="edge5_Node000001_Node000006" class="edge">
<title>Node1&#45;&gt;Node6</title>
<g id="a_edge5_Node000001_Node000006"><a xlink:title=" ">
<path fill="none" stroke="#63b8ff" d="M691.25,-225.52C749.34,-215.07 830.57,-200.17 910.79,-184.3"/>
<polygon fill="#63b8ff" stroke="#63b8ff" points="911.95,-187.64 921.07,-182.26 910.58,-180.77 911.95,-187.64"/>
</a>
</g>
</g>
<!-- Node7 -->
<g id="Node000007" class="node">
<title>Node7</title>
<g id="a_Node000007"><a xlink:href="no__os__spi_8h.html" target="_top" xlink:title="Header file of SPI Interface.">
<polygon fill="white" stroke="#666666" points="837.5,-129 763.5,-129 763.5,-110 837.5,-110 837.5,-129"/>
<text text-anchor="middle" x="800.5" y="-117" font-family="Helvetica,sans-Serif" font-size="10.00">no_os_spi.h</text>
</a>
</g>
</g>
<!-- Node1&#45;&gt;Node7 -->
<g id="edge6_Node000001_Node000007" class="edge">
<title>Node1&#45;&gt;Node7</title>
<g id="a_edge6_Node000001_Node000007"><a xlink:title=" ">
<path fill="none" stroke="#63b8ff" d="M641.83,-219.9C664.74,-204.7 697.46,-183.21 726.5,-165 743.27,-154.48 762.44,-142.97 777.06,-134.29"/>
<polygon fill="#63b8ff" stroke="#63b8ff" points="779.11,-137.14 785.94,-129.04 775.55,-131.12 779.11,-137.14"/>
</a>
</g>
</g>
<!-- Node9 -->
<g id="Node000009" class="node">
<title>Node9</title>
<g id="a_Node000009"><a xlink:href="no__os__gpio_8h.html" target="_top" xlink:title="Header file of GPIO Interface.">
<polygon fill="white" stroke="#666666" points="636.5,-74 556.5,-74 556.5,-55 636.5,-55 636.5,-74"/>
<text text-anchor="middle" x="596.5" y="-62" font-family="Helvetica,sans-Serif" font-size="10.00">no_os_gpio.h</text>
</a>
</g>
</g>
<!-- Node1&#45;&gt;Node9 -->
<g id="edge8_Node000001_Node000009" class="edge">
<title>Node1&#45;&gt;Node9</title>
<g id="a_edge8_Node000001_Node000009"><a xlink:title=" ">
<path fill="none" stroke="#63b8ff" d="M610.7,-219.88C607.6,-186.17 601.3,-117.69 598.24,-84.45"/>
<polygon fill="#63b8ff" stroke="#63b8ff" points="601.71,-83.91 597.31,-74.27 594.74,-84.55 601.71,-83.91"/>
</a>
</g>
</g>
<!-- Node10 -->
<g id="Node000010" class="node">
<title>Node10</title>
<g id="a_Node000010"><a xlink:href="no__os__error_8h.html" target="_top" xlink:title="Error codes definition.">
<polygon fill="white" stroke="#666666" points="1083.5,-184 1001.5,-184 1001.5,-165 1083.5,-165 1083.5,-184"/>
<text text-anchor="middle" x="1042.5" y="-172" font-family="Helvetica,sans-Serif" font-size="10.00">no_os_error.h</text>
</a>
</g>
</g>
<!-- Node1&#45;&gt;Node10 -->
<g id="edge10_Node000001_Node000010" class="edge">
<title>Node1&#45;&gt;Node10</title>
<g id="a_edge10_Node000001_Node000010"><a xlink:title=" ">
<path fill="none" stroke="#63b8ff" d="M691.18,-228.56C765.83,-218.05 881.43,-201.45 991.37,-184.15"/>
<polygon fill="#63b8ff" stroke="#63b8ff" points="991.98,-187.6 1001.31,-182.58 990.89,-180.68 991.98,-187.6"/>
</a>
</g>
</g>
<!-- Node12 -->
<g id="Node000012" class="node">
<title>Node12</title>
<g id="a_Node000012"><a xlink:href="no__os__delay_8h.html" target="_top" xlink:title="Header file of Delay functions.">
<polygon fill="white" stroke="#666666" points="707,-129 622,-129 622,-110 707,-110 707,-129"/>
<text text-anchor="middle" x="664.5" y="-117" font-family="Helvetica,sans-Serif" font-size="10.00">no_os_delay.h</text>
</a>
</g>
</g>
<!-- Node1&#45;&gt;Node12 -->
<g id="edge12_Node000001_Node000012" class="edge">
<title>Node1&#45;&gt;Node12</title>
<g id="a_edge12_Node000001_Node000012"><a xlink:title=" ">
<path fill="none" stroke="#63b8ff" d="M621.09,-219.85C630.95,-197.27 647.01,-160.52 656.59,-138.61"/>
<polygon fill="#63b8ff" stroke="#63b8ff" points="659.91,-139.74 660.71,-129.18 653.5,-136.94 659.91,-139.74"/>
</a>
</g>
</g>
<!-- Node13 -->
<g id="Node000013" class="node">
<title>Node13</title>
<g id="a_Node000013"><a xlink:href="no__os__util_8h.html" target="_top" xlink:title="Header file of utility functions.">
<polygon fill="white" stroke="#666666" points="253,-74 178,-74 178,-55 253,-55 253,-74"/>
<text text-anchor="middle" x="215.5" y="-62" font-family="Helvetica,sans-Serif" font-size="10.00">no_os_util.h</text>
</a>
</g>
</g>
<!-- Node1&#45;&gt;Node13 -->
<g id="edge14_Node000001_Node000013" class="edge">
<title>Node1&#45;&gt;Node13</title>
<g id="a_edge14_Node000001_Node000013"><a xlink:title=" ">
<path fill="none" stroke="#63b8ff" d="M533.69,-238.53C471.54,-234.62 384.62,-221.94 318.5,-184 275.31,-159.22 241.32,-109.47 225.38,-83"/>
<polygon fill="#63b8ff" stroke="#63b8ff" points="228.25,-80.96 220.18,-74.1 222.2,-84.5 228.25,-80.96"/>
</a>
</g>
</g>
<!-- Node15 -->
<g id="Node000015" class="node">
<title>Node15</title>
<g id="a_Node000015"><a xlink:title=" ">
<polygon fill="#e0e0e0" stroke="#999999" points="1173,-184 1102,-184 1102,-165 1173,-165 1173,-184"/>
<text text-anchor="middle" x="1137.5" y="-172" font-family="Helvetica,sans-Serif" font-size="10.00">xil_cache.h</text>
</a>
</g>
</g>
<!-- Node1&#45;&gt;Node15 -->
<g id="edge18_Node000001_Node000015" class="edge">
<title>Node1&#45;&gt;Node15</title>
<g id="a_edge18_Node000001_Node000015"><a xlink:title=" ">
<path fill="none" stroke="#63b8ff" d="M691.3,-232.14C784.45,-223.04 944.33,-206.19 1091.55,-184.04"/>
<polygon fill="#63b8ff" stroke="#63b8ff" points="1092.32,-187.46 1101.68,-182.51 1091.27,-180.54 1092.32,-187.46"/>
</a>
</g>
</g>
<!-- Node16 -->
<g id="Node000016" class="node">
<title>Node16</title>
<g id="a_Node000016"><a xlink:href="xilinx__spi_8h.html" target="_top" xlink:title=" ">
<polygon fill="white" stroke="#666666" points="807.5,-184 735.5,-184 735.5,-165 807.5,-165 807.5,-184"/>
<text text-anchor="middle" x="771.5" y="-172" font-family="Helvetica,sans-Serif" font-size="10.00">xilinx_spi.h</text>
</a>
</g>
</g>
<!-- Node1&#45;&gt;Node16 -->
<g id="edge19_Node000001_Node000016" class="edge">
<title>Node1&#45;&gt;Node16</title>
<g id="a_edge19_Node000001_Node000016"><a xlink:title=" ">
<path fill="none" stroke="#63b8ff" d="M661.07,-219.95C687,-209.51 718.14,-196.98 740.73,-187.88"/>
<polygon fill="#63b8ff" stroke="#63b8ff" points="742.18,-191.07 750.15,-184.09 739.57,-184.58 742.18,-191.07"/>
</a>
</g>
</g>
<!-- Node17 -->
<g id="Node000017" class="node">
<title>Node17</title>
<g id="a_Node000017"><a xlink:href="clk__axi__clkgen_8h.html" target="_top" xlink:title="Driver for the Analog Devices AXI CLKGEN.">
<polygon fill="white" stroke="#666666" points="790.5,-74 692.5,-74 692.5,-55 790.5,-55 790.5,-74"/>
<text text-anchor="middle" x="741.5" y="-62" font-family="Helvetica,sans-Serif" font-size="10.00">clk_axi_clkgen.h</text>
</a>
</g>
</g>
<!-- Node1&#45;&gt;Node17 -->
<g id="edge22_Node000001_Node000017" class="edge">
<title>Node1&#45;&gt;Node17</title>
<g id="a_edge22_Node000001_Node000017"><a xlink:title=" ">
<path fill="none" stroke="#63b8ff" d="M635.45,-219.94C658.51,-199.29 693.79,-164.82 716.5,-129 725.42,-114.93 732.09,-97.16 736.28,-83.99"/>
<polygon fill="#63b8ff" stroke="#63b8ff" points="739.7,-84.79 739.22,-74.2 732.99,-82.78 739.7,-84.79"/>
</a>
</g>
</g>
<!-- Node18 -->
<g id="Node000018" class="node">
<title>Node18</title>
<g id="a_Node000018"><a xlink:href="xilinx__gpio_8h.html" target="_top" xlink:title=" ">
<polygon fill="white" stroke="#666666" points="350,-74 271,-74 271,-55 350,-55 350,-74"/>
<text text-anchor="middle" x="310.5" y="-62" font-family="Helvetica,sans-Serif" font-size="10.00">xilinx_gpio.h</text>
</a>
</g>
</g>
<!-- Node1&#45;&gt;Node18 -->
<g id="edge24_Node000001_Node000018" class="edge">
<title>Node1&#45;&gt;Node18</title>
<g id="a_edge24_Node000001_Node000018"><a xlink:title=" ">
<path fill="none" stroke="#63b8ff" d="M533.91,-233.31C462.1,-226.01 363.04,-211.26 335.5,-184 308.82,-157.59 307.19,-110.36 308.65,-84.21"/>
<polygon fill="#63b8ff" stroke="#63b8ff" points="312.15,-84.36 309.43,-74.12 305.17,-83.83 312.15,-84.36"/>
</a>
</g>
</g>
<!-- Node19 -->
<g id="Node000019" class="node">
<title>Node19</title>
<g id="a_Node000019"><a xlink:title=" ">
<polygon fill="#e0e0e0" stroke="#999999" points="1273.5,-184 1191.5,-184 1191.5,-165 1273.5,-165 1273.5,-184"/>
<text text-anchor="middle" x="1232.5" y="-172" font-family="Helvetica,sans-Serif" font-size="10.00">parameters.h</text>
</a>
</g>
</g>
<!-- Node1&#45;&gt;Node19 -->
<g id="edge27_Node000001_Node000019" class="edge">
<title>Node1&#45;&gt;Node19</title>
<g id="a_edge27_Node000001_Node000019"><a xlink:title=" ">
<path fill="none" stroke="#63b8ff" d="M691.07,-233.63C799.2,-225.16 1000.14,-207.99 1181.35,-184.06"/>
<polygon fill="#63b8ff" stroke="#63b8ff" points="1181.88,-187.53 1191.33,-182.74 1180.96,-180.59 1181.88,-187.53"/>
</a>
</g>
</g>
<!-- Node20 -->
<g id="Node000020" class="node">
<title>Node20</title>
<g id="a_Node000020"><a xlink:href="adi__hal_8h.html" target="_top" xlink:title="Contains Talise ADI HAL function prototypes type definitions for adi_hal.c.">
<polygon fill="white" stroke="#666666" points="424,-129 363,-129 363,-110 424,-110 424,-129"/>
<text text-anchor="middle" x="393.5" y="-117" font-family="Helvetica,sans-Serif" font-size="10.00">adi_hal.h</text>
</a>
</g>
</g>
<!-- Node1&#45;&gt;Node20 -->
<g id="edge28_Node000001_Node000020" class="edge">
<title>Node1&#45;&gt;Node20</title>
<g id="a_edge28_Node000001_Node000020"><a xlink:title=" ">
<path fill="none" stroke="#63b8ff" d="M558.17,-219.96C533.8,-210.36 505.07,-197.88 480.5,-184 455.27,-169.74 428.7,-149.48 411.66,-135.7"/>
<polygon fill="#63b8ff" stroke="#63b8ff" points="413.63,-132.79 403.68,-129.15 409.19,-138.2 413.63,-132.79"/>
</a>
</g>
</g>
<!-- Node22 -->
<g id="Node000022" class="node">
<title>Node22</title>
<g id="a_Node000022"><a xlink:href="app__talise_8h.html" target="_top" xlink:title="Talise initialization and control routines.">
<polygon fill="white" stroke="#666666" points="565.5,-184 489.5,-184 489.5,-165 565.5,-165 565.5,-184"/>
<text text-anchor="middle" x="527.5" y="-172" font-family="Helvetica,sans-Serif" font-size="10.00">app_talise.h</text>
</a>
</g>
</g>
<!-- Node1&#45;&gt;Node22 -->
<g id="edge32_Node000001_Node000022" class="edge">
<title>Node1&#45;&gt;Node22</title>
<g id="a_edge32_Node000001_Node000022"><a xlink:title=" ">
<path fill="none" stroke="#63b8ff" d="M586.54,-219.95C573.93,-210.46 559.03,-199.24 547.35,-190.44"/>
<polygon fill="#63b8ff" stroke="#63b8ff" points="549.23,-187.48 539.14,-184.26 545.02,-193.07 549.23,-187.48"/>
</a>
</g>
</g>
<!-- Node24 -->
<g id="Node000024" class="node">
<title>Node24</title>
<g id="a_Node000024"><a xlink:href="adrv9009_2src_2app_2app__clocking_8h.html" target="_top" xlink:title="Clock setup and initialization routines.">
<polygon fill="white" stroke="#666666" points="433,-184 344,-184 344,-165 433,-165 433,-184"/>
<text text-anchor="middle" x="388.5" y="-172" font-family="Helvetica,sans-Serif" font-size="10.00">app_clocking.h</text>
</a>
</g>
</g>
<!-- Node1&#45;&gt;Node24 -->
<g id="edge36_Node000001_Node000024" class="edge">
<title>Node1&#45;&gt;Node24</title>
<g id="a_edge36_Node000001_Node000024"><a xlink:title=" ">
<path fill="none" stroke="#63b8ff" d="M544.08,-219.95C506.11,-209.1 460.24,-196 428.17,-186.84"/>
<polygon fill="#63b8ff" stroke="#63b8ff" points="428.85,-183.39 418.28,-184.01 426.93,-190.12 428.85,-183.39"/>
</a>
</g>
</g>
<!-- Node8 -->
<g id="Node000008" class="node">
<title>Node8</title>
<g id="a_Node000008"><a xlink:title=" ">
<polygon fill="#e0e0e0" stroke="#999999" points="589,-19 536,-19 536,0 589,0 589,-19"/>
<text text-anchor="middle" x="562.5" y="-7" font-family="Helvetica,sans-Serif" font-size="10.00">stdint.h</text>
</a>
</g>
</g>
<!-- Node7&#45;&gt;Node8 -->
<g id="edge7_Node000007_Node000008" class="edge">
<title>Node7&#45;&gt;Node8</title>
<g id="a_edge7_Node000007_Node000008"><a xlink:title=" ">
<path fill="none" stroke="#63b8ff" d="M803.41,-109.94C807.37,-96.53 812.58,-70.51 799.5,-55 774.3,-25.11 659.7,-15.15 599.58,-11.94"/>
<polygon fill="#63b8ff" stroke="#63b8ff" points="599.53,-8.44 589.37,-11.44 599.18,-15.43 599.53,-8.44"/>
</a>
</g>
</g>
<!-- Node9&#45;&gt;Node8 -->
<g id="edge9_Node000009_Node000008" class="edge">
<title>Node9&#45;&gt;Node8</title>
<g id="a_edge9_Node000009_Node000008"><a xlink:title=" ">
<path fill="none" stroke="#63b8ff" d="M590.89,-54.75C586.18,-47.42 579.33,-36.73 573.53,-27.7"/>
<polygon fill="#63b8ff" stroke="#63b8ff" points="576.36,-25.62 568.01,-19.09 570.46,-29.4 576.36,-25.62"/>
</a>
</g>
</g>
<!-- Node11 -->
<g id="Node000011" class="node">
<title>Node11</title>
<g id="a_Node000011"><a xlink:href="errno_8h.html" target="_top" xlink:title="Error macro definition for ARM Compiler.">
<polygon fill="white" stroke="#666666" points="1068,-129 1017,-129 1017,-110 1068,-110 1068,-129"/>
<text text-anchor="middle" x="1042.5" y="-117" font-family="Helvetica,sans-Serif" font-size="10.00">errno.h</text>
</a>
</g>
</g>
<!-- Node10&#45;&gt;Node11 -->
<g id="edge11_Node000010_Node000011" class="edge">
<title>Node10&#45;&gt;Node11</title>
<g id="a_edge11_Node000010_Node000011"><a xlink:title=" ">
<path fill="none" stroke="#63b8ff" d="M1042.5,-164.75C1042.5,-157.8 1042.5,-147.85 1042.5,-139.13"/>
<polygon fill="#63b8ff" stroke="#63b8ff" points="1046,-139.09 1042.5,-129.09 1039,-139.09 1046,-139.09"/>
</a>
</g>
</g>
<!-- Node12&#45;&gt;Node8 -->
<g id="edge13_Node000012_Node000008" class="edge">
<title>Node12&#45;&gt;Node8</title>
<g id="a_edge13_Node000012_Node000008"><a xlink:title=" ">
<path fill="none" stroke="#63b8ff" d="M663.98,-109.72C662.76,-96.47 658.75,-71.22 645.5,-55 633.4,-40.18 615.02,-29.61 598.62,-22.5"/>
<polygon fill="#63b8ff" stroke="#63b8ff" points="599.85,-19.22 589.26,-18.71 597.22,-25.71 599.85,-19.22"/>
</a>
</g>
</g>
<!-- Node13&#45;&gt;Node4 -->
<g id="edge16_Node000013_Node000004" class="edge">
<title>Node13&#45;&gt;Node4</title>
<g id="a_edge16_Node000013_Node000004"><a xlink:title=" ">
<path fill="none" stroke="#63b8ff" d="M210.05,-54.75C205.49,-47.42 198.83,-36.73 193.21,-27.7"/>
<polygon fill="#63b8ff" stroke="#63b8ff" points="196.1,-25.73 187.85,-19.09 190.16,-29.43 196.1,-25.73"/>
</a>
</g>
</g>
<!-- Node13&#45;&gt;Node8 -->
<g id="edge15_Node000013_Node000008" class="edge">
<title>Node13&#45;&gt;Node8</title>
<g id="a_edge15_Node000013_Node000008"><a xlink:title=" ">
<path fill="none" stroke="#63b8ff" d="M253.14,-56.43C255.96,-55.94 258.78,-55.45 261.5,-55 356.67,-39.18 469.24,-23.28 525.95,-15.47"/>
<polygon fill="#63b8ff" stroke="#63b8ff" points="526.44,-18.94 535.88,-14.11 525.49,-12 526.44,-18.94"/>
</a>
</g>
</g>
<!-- Node14 -->
<g id="Node000014" class="node">
<title>Node14</title>
<g id="a_Node000014"><a xlink:title=" ">
<polygon fill="#e0e0e0" stroke="#999999" points="315.5,-19 253.5,-19 253.5,0 315.5,0 315.5,-19"/>
<text text-anchor="middle" x="284.5" y="-7" font-family="Helvetica,sans-Serif" font-size="10.00">stdbool.h</text>
</a>
</g>
</g>
<!-- Node13&#45;&gt;Node14 -->
<g id="edge17_Node000013_Node000014" class="edge">
<title>Node13&#45;&gt;Node14</title>
<g id="a_edge17_Node000013_Node000014"><a xlink:title=" ">
<path fill="none" stroke="#63b8ff" d="M226.59,-54.98C236.99,-47 252.76,-34.88 265.22,-25.31"/>
<polygon fill="#63b8ff" stroke="#63b8ff" points="267.41,-28.04 273.21,-19.17 263.15,-22.49 267.41,-28.04"/>
</a>
</g>
</g>
<!-- Node16&#45;&gt;Node7 -->
<g id="edge21_Node000016_Node000007" class="edge">
<title>Node16&#45;&gt;Node7</title>
<g id="a_edge21_Node000016_Node000007"><a xlink:title=" ">
<path fill="none" stroke="#63b8ff" d="M776.29,-164.75C780.26,-157.49 786.03,-146.95 790.93,-137.98"/>
<polygon fill="#63b8ff" stroke="#63b8ff" points="794.07,-139.54 795.8,-129.09 787.93,-136.18 794.07,-139.54"/>
</a>
</g>
</g>
<!-- Node16&#45;&gt;Node8 -->
<g id="edge20_Node000016_Node000008" class="edge">
<title>Node16&#45;&gt;Node8</title>
<g id="a_edge20_Node000016_Node000008"><a xlink:title=" ">
<path fill="none" stroke="#63b8ff" d="M799.15,-164.98C816.08,-158.17 836.39,-146.76 846.5,-129 861.97,-101.83 823.47,-60.01 816.5,-55 782.29,-30.45 661.2,-17.95 599.39,-13.05"/>
<polygon fill="#63b8ff" stroke="#63b8ff" points="599.53,-9.55 589.29,-12.27 598.99,-16.53 599.53,-9.55"/>
</a>
</g>
</g>
<!-- Node17&#45;&gt;Node8 -->
<g id="edge23_Node000017_Node000008" class="edge">
<title>Node17&#45;&gt;Node8</title>
<g id="a_edge23_Node000017_Node000008"><a xlink:title=" ">
<path fill="none" stroke="#63b8ff" d="M712.74,-54.98C681.84,-45.84 632.66,-31.27 599.04,-21.32"/>
<polygon fill="#63b8ff" stroke="#63b8ff" points="599.72,-17.87 589.14,-18.39 597.74,-24.58 599.72,-17.87"/>
</a>
</g>
</g>
<!-- Node18&#45;&gt;Node8 -->
<g id="edge25_Node000018_Node000008" class="edge">
<title>Node18&#45;&gt;Node8</title>
<g id="a_edge25_Node000018_Node000008"><a xlink:title=" ">
<path fill="none" stroke="#63b8ff" d="M350.15,-55.16C398.35,-45.02 479.01,-28.06 525.82,-18.21"/>
<polygon fill="#63b8ff" stroke="#63b8ff" points="526.77,-21.59 535.83,-16.11 525.33,-14.74 526.77,-21.59"/>
</a>
</g>
</g>
<!-- Node18&#45;&gt;Node14 -->
<g id="edge26_Node000018_Node000014" class="edge">
<title>Node18&#45;&gt;Node14</title>
<g id="a_edge26_Node000018_Node000014"><a xlink:title=" ">
<path fill="none" stroke="#63b8ff" d="M306.21,-54.75C302.69,-47.57 297.59,-37.18 293.22,-28.27"/>
<polygon fill="#63b8ff" stroke="#63b8ff" points="296.26,-26.53 288.71,-19.09 289.98,-29.61 296.26,-26.53"/>
</a>
</g>
</g>
<!-- Node20&#45;&gt;Node8 -->
<g id="edge29_Node000020_Node000008" class="edge">
<title>Node20&#45;&gt;Node8</title>
<g id="a_edge29_Node000020_Node000008"><a xlink:title=" ">
<path fill="none" stroke="#63b8ff" d="M397.04,-109.8C403.01,-96.21 416.31,-69.94 435.5,-55 461.98,-34.38 498.73,-22.89 525.89,-16.77"/>
<polygon fill="#63b8ff" stroke="#63b8ff" points="526.72,-20.17 535.78,-14.69 525.28,-13.33 526.72,-20.17"/>
</a>
</g>
</g>
<!-- Node20&#45;&gt;Node13 -->
<g id="edge31_Node000020_Node000013" class="edge">
<title>Node20&#45;&gt;Node13</title>
<g id="a_edge31_Node000020_Node000013"><a xlink:title=" ">
<path fill="none" stroke="#63b8ff" d="M364.9,-109.98C334.89,-101.05 287.52,-86.94 254.18,-77.02"/>
<polygon fill="#63b8ff" stroke="#63b8ff" points="254.91,-73.58 244.32,-74.08 252.91,-80.29 254.91,-73.58"/>
</a>
</g>
</g>
<!-- Node21 -->
<g id="Node000021" class="node">
<title>Node21</title>
<g id="a_Node000021"><a xlink:title=" ">
<polygon fill="#e0e0e0" stroke="#999999" points="500.5,-74 444.5,-74 444.5,-55 500.5,-55 500.5,-74"/>
<text text-anchor="middle" x="472.5" y="-62" font-family="Helvetica,sans-Serif" font-size="10.00">stddef.h</text>
</a>
</g>
</g>
<!-- Node20&#45;&gt;Node21 -->
<g id="edge30_Node000020_Node000021" class="edge">
<title>Node20&#45;&gt;Node21</title>
<g id="a_edge30_Node000020_Node000021"><a xlink:title=" ">
<path fill="none" stroke="#63b8ff" d="M406.19,-109.98C418.33,-101.84 436.86,-89.41 451.25,-79.76"/>
<polygon fill="#63b8ff" stroke="#63b8ff" points="453.22,-82.65 459.58,-74.17 449.32,-76.84 453.22,-82.65"/>
</a>
</g>
</g>
<!-- Node22&#45;&gt;Node8 -->
<g id="edge33_Node000022_Node000008" class="edge">
<title>Node22&#45;&gt;Node8</title>
<g id="a_edge33_Node000022_Node000008"><a xlink:title=" ">
<path fill="none" stroke="#63b8ff" d="M529.36,-164.99C531.28,-156.06 534.29,-141.58 536.5,-129 542.24,-96.25 539.71,-87.33 547.5,-55 549.62,-46.18 552.73,-36.62 555.57,-28.64"/>
<polygon fill="#63b8ff" stroke="#63b8ff" points="558.87,-29.82 559.04,-19.23 552.3,-27.4 558.87,-29.82"/>
</a>
</g>
</g>
<!-- Node22&#45;&gt;Node20 -->
<g id="edge35_Node000022_Node000020" class="edge">
<title>Node22&#45;&gt;Node20</title>
<g id="a_edge35_Node000022_Node000020"><a xlink:title=" ">
<path fill="none" stroke="#63b8ff" d="M505.97,-164.98C484.03,-156.3 449.76,-142.75 424.81,-132.88"/>
<polygon fill="#63b8ff" stroke="#63b8ff" points="426.01,-129.59 415.42,-129.17 423.43,-136.1 426.01,-129.59"/>
</a>
</g>
</g>
<!-- Node23 -->
<g id="Node000023" class="node">
<title>Node23</title>
<g id="a_Node000023"><a xlink:title=" ">
<polygon fill="#e0e0e0" stroke="#999999" points="527,-129 442,-129 442,-110 527,-110 527,-129"/>
<text text-anchor="middle" x="484.5" y="-117" font-family="Helvetica,sans-Serif" font-size="10.00">talise_types.h</text>
</a>
</g>
</g>
<!-- Node22&#45;&gt;Node23 -->
<g id="edge34_Node000022_Node000023" class="edge">
<title>Node22&#45;&gt;Node23</title>
<g id="a_edge34_Node000022_Node000023"><a xlink:title=" ">
<path fill="none" stroke="#63b8ff" d="M520.4,-164.75C514.33,-157.26 505.41,-146.28 497.99,-137.13"/>
<polygon fill="#63b8ff" stroke="#63b8ff" points="500.49,-134.65 491.47,-129.09 495.05,-139.06 500.49,-134.65"/>
</a>
</g>
</g>
<!-- Node24&#45;&gt;Node8 -->
<g id="edge37_Node000024_Node000008" class="edge">
<title>Node24&#45;&gt;Node8</title>
<g id="a_edge37_Node000024_Node000008"><a xlink:title=" ">
<path fill="none" stroke="#63b8ff" d="M377.77,-164.71C364.47,-152.69 344.58,-130.28 353.5,-110 368.07,-76.89 382.04,-72.85 413.5,-55 448.94,-34.89 494.39,-23.03 525.72,-16.67"/>
<polygon fill="#63b8ff" stroke="#63b8ff" points="526.62,-20.06 535.77,-14.73 525.29,-13.19 526.62,-20.06"/>
</a>
</g>
</g>
<!-- Node24&#45;&gt;Node20 -->
<g id="edge38_Node000024_Node000020" class="edge">
<title>Node24&#45;&gt;Node20</title>
<g id="a_edge38_Node000024_Node000020"><a xlink:title=" ">
<path fill="none" stroke="#63b8ff" d="M389.33,-164.75C389.98,-157.8 390.92,-147.85 391.74,-139.13"/>
<polygon fill="#63b8ff" stroke="#63b8ff" points="395.23,-139.37 392.69,-129.09 388.27,-138.72 395.23,-139.37"/>
</a>
</g>
</g>
</g>
</svg>

<g id="navigator" transform="translate(0 0)" fill="#404254">
  <rect fill="#f2f5e9" fill-opacity="0.5" stroke="#606060" stroke-width=".5" x="0" y="0" width="60" height="60"/>
  <use id="zoomplus" xlink:href="#zoomPlus" x="17" y="9" onmousedown="handleZoom(evt,'in')"/>
  <use id="zoomminus" xlink:href="#zoomMin" x="42" y="9" onmousedown="handleZoom(evt,'out')"/>
  <use id="reset" xlink:href="#resetDef" x="30" y="36" onmousedown="handleReset()"/>
   <use id="arrowup" xlink:href="#arrowUp" x="0" y="0" onmousedown="handlePan(0,-1)"/>
  <use id="arrowright" xlink:href="#arrowRight" x="0" y="0" onmousedown="handlePan(1,0)"/>
  <use id="arrowdown" xlink:href="#arrowDown" x="0" y="0" onmousedown="handlePan(0,1)"/>
  <use id="arrowleft" xlink:href="#arrowLeft" x="0" y="0" onmousedown="handlePan(-1,0)"/>
</g>
<svg viewBox="0 0 15 15" width="100%" height="30px" preserveAspectRatio="xMaxYMin meet">
 <g id="arrow_out" transform="scale(0.3 0.3)">
  <a xlink:href="adrv9009_2src_2app_2app__clocking_8c__incl_org.svg" target="_base">
   <rect id="button" ry="5" rx="5" y="6" x="6" height="38" width="38"
        fill="#f2f5e9" fill-opacity="0.5" stroke="#606060" stroke-width="1.0"/>
   <path id="arrow"
     d="M 11.500037,31.436501 C 11.940474,20.09759 22.043105,11.32322 32.158766,21.979434 L 37.068811,17.246167 C 37.068811,17.246167 37.088388,32 37.088388,32 L 22.160133,31.978069 C 22.160133,31.978069 26.997745,27.140456 26.997745,27.140456 C 18.528582,18.264221 13.291696,25.230495 11.500037,31.436501 z"
     style="fill:#404040;"/>
  </a>
 </g>
</svg>

<style type='text/css'>
<![CDATA[
[data-mouse-over-selected='false'] { opacity: 0.7; }
[data-mouse-over-selected='true']  { opacity: 1.0; }
]]>
</style>
<script type="application/ecmascript"><![CDATA[
document.addEventListener('DOMContentLoaded', (event) => {
  highlightEdges();
  highlightAdjacentNodes();
});
]]></script>
</svg>
