<?xml version="1.0" encoding="UTF-8" standalone="no"?>
<!DOCTYPE svg PUBLIC "-//W3C//DTD SVG 1.1//EN"
 "http://www.w3.org/Graphics/SVG/1.1/DTD/svg11.dtd">
<!-- Generated by graphviz version 2.43.0 (0)
 -->
<!-- Title: /home/runner/work/no&#45;OS/no&#45;OS/projects/adrv902x/src/examples/dma_example/dma_example.c Pages: 1 -->
<!--zoomable 225 -->

<svg id="main" version="1.1" xmlns="http://www.w3.org/2000/svg" xmlns:xlink="http://www.w3.org/1999/xlink" xml:space="preserve" onload="init(evt)">

<style type="text/css"><![CDATA[
.node, .edge {opacity: 0.7;}
.node.selected, .edge.selected {opacity: 1;}
.edge:hover path { stroke: red; }
.edge:hover polygon { stroke: red; fill: red; }
]]></style>

<defs>
  <circle id="rim" cx="0" cy="0" r="7"/>
  <circle id="rim2" cx="0" cy="0" r="3.5"/>
  <g id="zoomPlus">
    <use xlink:href="#rim" fill="#404040"><set attributeName="fill" to="#808080" begin="zoomplus.mouseover" end="zoomplus.mouseout"/></use>
    <path d="M-4,0h8M0,-4v8" fill="none" stroke="white" stroke-width="1.5" pointer-events="none"/>
  </g>
  <g id="zoomMin">
    <use xlink:href="#rim" fill="#404040"><set attributeName="fill" to="#808080" begin="zoomminus.mouseover" end="zoomminus.mouseout"/></use>
    <path d="M-4,0h8" fill="none" stroke="white" stroke-width="1.5" pointer-events="none"/>
  </g>
  <g id="arrowUp" transform="translate(30 24)">
    <use xlink:href="#rim"/>
    <path pointer-events="none" fill="none" stroke="white" stroke-width="1.5" d="M0,-3.0v7 M-2.5,-0.5L0,-3.0L2.5,-0.5"/>
  </g>
  <g id="arrowRight" transform="rotate(90) translate(36 -43)">
    <use xlink:href="#rim"/>
    <path pointer-events="none" fill="none" stroke="white" stroke-width="1.5" d="M0,-3.0v7 M-2.5,-0.5L0,-3.0L2.5,-0.5"/>
  </g>
  <g id="arrowDown" transform="rotate(180) translate(-30 -48)">
    <use xlink:href="#rim"/>
    <path pointer-events="none" fill="none" stroke="white" stroke-width="1.5" d="M0,-3.0v7 M-2.5,-0.5L0,-3.0L2.5,-0.5"/>
  </g>
  <g id="arrowLeft" transform="rotate(270) translate(-36 17)">
    <use xlink:href="#rim"/>
    <path pointer-events="none" fill="none" stroke="white" stroke-width="1.5" d="M0,-3.0v7 M-2.5,-0.5L0,-3.0L2.5,-0.5"/>
  </g>
  <g id="resetDef">
    <use xlink:href="#rim2" fill="#404040"><set attributeName="fill" to="#808080" begin="reset.mouseover" end="reset.mouseout"/></use>
  </g>
</defs>
<script type="application/ecmascript">
var viewWidth = 1933;
var viewHeight = 225;
var sectionId = 'dynsection-0';
</script>
<script type="application/ecmascript" xlink:href="svg.min.js"/>
<svg id="graph" class="graph">
<g id="viewport">
<title>/home/runner/work/no&#45;OS/no&#45;OS/projects/adrv902x/src/examples/dma_example/dma_example.c</title>
<!-- Node1 -->
<g id="Node000001" class="node">
<title>Node1</title>
<g id="a_Node000001"><a xlink:title="DMA example for the adrv902x project.">
<polygon fill="#999999" stroke="#666666" points="992.5,-217 834.5,-217 834.5,-165 992.5,-165 992.5,-217"/>
<text text-anchor="start" x="842.5" y="-205" font-family="Helvetica,sans-Serif" font-size="10.00">/home/runner/work/no</text>
<text text-anchor="start" x="842.5" y="-194" font-family="Helvetica,sans-Serif" font-size="10.00">&#45;OS/no&#45;OS/projects/adrv902x</text>
<text text-anchor="start" x="842.5" y="-183" font-family="Helvetica,sans-Serif" font-size="10.00">/src/examples/dma_example</text>
<text text-anchor="middle" x="913.5" y="-172" font-family="Helvetica,sans-Serif" font-size="10.00">/dma_example.c</text>
</a>
</g>
</g>
<!-- Node2 -->
<g id="Node000002" class="node">
<title>Node2</title>
<g id="a_Node000002"><a xlink:href="adrv902x_2src_2examples_2dma__example_2dma__example_8h.html" target="_top" xlink:title="DMA example header for the adrv902x project.">
<polygon fill="white" stroke="#666666" points="95,-129 0,-129 0,-110 95,-110 95,-129"/>
<text text-anchor="middle" x="47.5" y="-117" font-family="Helvetica,sans-Serif" font-size="10.00">dma_example.h</text>
</a>
</g>
</g>
<!-- Node1&#45;&gt;Node2 -->
<g id="edge1_Node000001_Node000002" class="edge">
<title>Node1&#45;&gt;Node2</title>
<g id="a_edge1_Node000001_Node000002"><a xlink:title=" ">
<path fill="none" stroke="#63b8ff" d="M834.27,-186.02C690.82,-178.39 378.36,-159.75 105.23,-129.12"/>
<polygon fill="#63b8ff" stroke="#63b8ff" points="105.46,-125.62 95.13,-127.98 104.67,-132.58 105.46,-125.62"/>
</a>
</g>
</g>
<!-- Node3 -->
<g id="Node000003" class="node">
<title>Node3</title>
<g id="a_Node000003"><a xlink:title=" ">
<polygon fill="#e0e0e0" stroke="#999999" points="208,-129 113,-129 113,-110 208,-110 208,-129"/>
<text text-anchor="middle" x="160.5" y="-117" font-family="Helvetica,sans-Serif" font-size="10.00">common_data.h</text>
</a>
</g>
</g>
<!-- Node1&#45;&gt;Node3 -->
<g id="edge2_Node000001_Node000003" class="edge">
<title>Node1&#45;&gt;Node3</title>
<g id="a_edge2_Node000001_Node000003"><a xlink:title=" ">
<path fill="none" stroke="#63b8ff" d="M834.27,-184.63C706.83,-175.64 448.21,-155.96 218.29,-129.02"/>
<polygon fill="#63b8ff" stroke="#63b8ff" points="218.4,-125.51 208.06,-127.81 217.58,-132.46 218.4,-125.51"/>
</a>
</g>
</g>
<!-- Node4 -->
<g id="Node000004" class="node">
<title>Node4</title>
<g id="a_Node000004"><a xlink:title=" ">
<polygon fill="#e0e0e0" stroke="#999999" points="308.5,-129 226.5,-129 226.5,-110 308.5,-110 308.5,-129"/>
<text text-anchor="middle" x="267.5" y="-117" font-family="Helvetica,sans-Serif" font-size="10.00">parameters.h</text>
</a>
</g>
</g>
<!-- Node1&#45;&gt;Node4 -->
<g id="edge3_Node000001_Node000004" class="edge">
<title>Node1&#45;&gt;Node4</title>
<g id="a_edge3_Node000001_Node000004"><a xlink:title=" ">
<path fill="none" stroke="#63b8ff" d="M834.25,-183.57C721.82,-174.08 509.4,-154.77 318.6,-129.07"/>
<polygon fill="#63b8ff" stroke="#63b8ff" points="319.05,-125.6 308.67,-127.72 318.11,-132.53 319.05,-125.6"/>
</a>
</g>
</g>
<!-- Node5 -->
<g id="Node000005" class="node">
<title>Node5</title>
<g id="a_Node000005"><a xlink:title=" ">
<polygon fill="#e0e0e0" stroke="#999999" points="404.5,-129 326.5,-129 326.5,-110 404.5,-110 404.5,-129"/>
<text text-anchor="middle" x="365.5" y="-117" font-family="Helvetica,sans-Serif" font-size="10.00">app_config.h</text>
</a>
</g>
</g>
<!-- Node1&#45;&gt;Node5 -->
<g id="edge4_Node000001_Node000005" class="edge">
<title>Node1&#45;&gt;Node5</title>
<g id="a_edge4_Node000001_Node000005"><a xlink:title=" ">
<path fill="none" stroke="#63b8ff" d="M834.08,-181.12C736.21,-169.96 564.88,-149.75 418.5,-129 417.23,-128.82 415.94,-128.63 414.64,-128.44"/>
<polygon fill="#63b8ff" stroke="#63b8ff" points="414.96,-124.95 404.55,-126.93 413.92,-131.88 414.96,-124.95"/>
</a>
</g>
</g>
<!-- Node6 -->
<g id="Node000006" class="node">
<title>Node6</title>
<g id="a_Node000006"><a xlink:title=" ">
<polygon fill="#e0e0e0" stroke="#999999" points="588,-19 535,-19 535,0 588,0 588,-19"/>
<text text-anchor="middle" x="561.5" y="-7" font-family="Helvetica,sans-Serif" font-size="10.00">stdlib.h</text>
</a>
</g>
</g>
<!-- Node1&#45;&gt;Node6 -->
<g id="edge5_Node000001_Node000006" class="edge">
<title>Node1&#45;&gt;Node6</title>
<g id="a_edge5_Node000001_Node000006"><a xlink:title=" ">
<path fill="none" stroke="#63b8ff" d="M834.49,-188.81C747.9,-185.19 606.18,-172.38 492.5,-129 451.16,-113.22 430.44,-112.99 409.5,-74 384.88,-28.15 472.06,-15.4 524.54,-11.86"/>
<polygon fill="#63b8ff" stroke="#63b8ff" points="525.07,-15.33 534.84,-11.25 524.65,-8.34 525.07,-15.33"/>
</a>
</g>
</g>
<!-- Node7 -->
<g id="Node000007" class="node">
<title>Node7</title>
<g id="a_Node000007"><a xlink:title=" ">
<polygon fill="#e0e0e0" stroke="#999999" points="1286,-129 1233,-129 1233,-110 1286,-110 1286,-129"/>
<text text-anchor="middle" x="1259.5" y="-117" font-family="Helvetica,sans-Serif" font-size="10.00">string.h</text>
</a>
</g>
</g>
<!-- Node1&#45;&gt;Node7 -->
<g id="edge6_Node000001_Node000007" class="edge">
<title>Node1&#45;&gt;Node7</title>
<g id="a_edge6_Node000001_Node000007"><a xlink:title=" ">
<path fill="none" stroke="#63b8ff" d="M992.52,-174.35C1054.12,-162.12 1141.77,-144.63 1218.5,-129 1219.78,-128.74 1221.09,-128.47 1222.4,-128.2"/>
<polygon fill="#63b8ff" stroke="#63b8ff" points="1223.51,-131.55 1232.6,-126.11 1222.1,-124.69 1223.51,-131.55"/>
</a>
</g>
</g>
<!-- Node8 -->
<g id="Node000008" class="node">
<title>Node8</title>
<g id="a_Node000008"><a xlink:title=" ">
<polygon fill="#e0e0e0" stroke="#999999" points="1506.5,-74 1456.5,-74 1456.5,-55 1506.5,-55 1506.5,-74"/>
<text text-anchor="middle" x="1481.5" y="-62" font-family="Helvetica,sans-Serif" font-size="10.00">stdio.h</text>
</a>
</g>
</g>
<!-- Node1&#45;&gt;Node8 -->
<g id="edge7_Node000001_Node000008" class="edge">
<title>Node1&#45;&gt;Node8</title>
<g id="a_edge7_Node000001_Node000008"><a xlink:title=" ">
<path fill="none" stroke="#63b8ff" d="M992.98,-186.46C1115.13,-180.01 1342.54,-163.66 1415.5,-129 1437.83,-118.39 1457.38,-97.24 1469.29,-82.27"/>
<polygon fill="#63b8ff" stroke="#63b8ff" points="1472.1,-84.37 1475.39,-74.3 1466.53,-80.12 1472.1,-84.37"/>
</a>
</g>
</g>
<!-- Node9 -->
<g id="Node000009" class="node">
<title>Node9</title>
<g id="a_Node000009"><a xlink:href="no__os__print__log_8h.html" target="_top" xlink:title="Print messages helpers.">
<polygon fill="white" stroke="#666666" points="1406.5,-129 1304.5,-129 1304.5,-110 1406.5,-110 1406.5,-129"/>
<text text-anchor="middle" x="1355.5" y="-117" font-family="Helvetica,sans-Serif" font-size="10.00">no_os_print_log.h</text>
</a>
</g>
</g>
<!-- Node1&#45;&gt;Node9 -->
<g id="edge8_Node000001_Node000009" class="edge">
<title>Node1&#45;&gt;Node9</title>
<g id="a_edge8_Node000001_Node000009"><a xlink:title=" ">
<path fill="none" stroke="#63b8ff" d="M992.52,-177.57C1078.9,-163.99 1215.47,-142.52 1294.15,-130.15"/>
<polygon fill="#63b8ff" stroke="#63b8ff" points="1295.05,-133.55 1304.39,-128.54 1293.96,-126.63 1295.05,-133.55"/>
</a>
</g>
</g>
<!-- Node10 -->
<g id="Node000010" class="node">
<title>Node10</title>
<g id="a_Node000010"><a xlink:href="no__os__error_8h.html" target="_top" xlink:title="Error codes definition.">
<polygon fill="white" stroke="#666666" points="1544.5,-129 1462.5,-129 1462.5,-110 1544.5,-110 1544.5,-129"/>
<text text-anchor="middle" x="1503.5" y="-117" font-family="Helvetica,sans-Serif" font-size="10.00">no_os_error.h</text>
</a>
</g>
</g>
<!-- Node1&#45;&gt;Node10 -->
<g id="edge10_Node000001_Node000010" class="edge">
<title>Node1&#45;&gt;Node10</title>
<g id="a_edge10_Node000001_Node000010"><a xlink:title=" ">
<path fill="none" stroke="#63b8ff" d="M992.94,-181.94C1097.52,-171.1 1287.05,-150.67 1448.5,-129 1449.77,-128.83 1451.05,-128.66 1452.34,-128.48"/>
<polygon fill="#63b8ff" stroke="#63b8ff" points="1452.98,-131.92 1462.38,-127.04 1451.99,-124.99 1452.98,-131.92"/>
</a>
</g>
</g>
<!-- Node12 -->
<g id="Node000012" class="node">
<title>Node12</title>
<g id="a_Node000012"><a xlink:href="no__os__util_8h.html" target="_top" xlink:title="Header file of utility functions.">
<polygon fill="white" stroke="#666666" points="770,-74 695,-74 695,-55 770,-55 770,-74"/>
<text text-anchor="middle" x="732.5" y="-62" font-family="Helvetica,sans-Serif" font-size="10.00">no_os_util.h</text>
</a>
</g>
</g>
<!-- Node1&#45;&gt;Node12 -->
<g id="edge12_Node000001_Node000012" class="edge">
<title>Node1&#45;&gt;Node12</title>
<g id="a_edge12_Node000001_Node000012"><a xlink:title=" ">
<path fill="none" stroke="#63b8ff" d="M834.12,-177.53C803.09,-168.82 769.7,-154.04 747.5,-129 736.7,-116.82 733.3,-98.29 732.39,-84.39"/>
<polygon fill="#63b8ff" stroke="#63b8ff" points="735.88,-83.94 732.11,-74.04 728.88,-84.13 735.88,-83.94"/>
</a>
</g>
</g>
<!-- Node15 -->
<g id="Node000015" class="node">
<title>Node15</title>
<g id="a_Node000015"><a xlink:href="no__os__spi_8h.html" target="_top" xlink:title="Header file of SPI Interface.">
<polygon fill="white" stroke="#666666" points="600.5,-74 526.5,-74 526.5,-55 600.5,-55 600.5,-74"/>
<text text-anchor="middle" x="563.5" y="-62" font-family="Helvetica,sans-Serif" font-size="10.00">no_os_spi.h</text>
</a>
</g>
</g>
<!-- Node1&#45;&gt;Node15 -->
<g id="edge16_Node000001_Node000015" class="edge">
<title>Node1&#45;&gt;Node15</title>
<g id="a_edge16_Node000001_Node000015"><a xlink:title=" ">
<path fill="none" stroke="#63b8ff" d="M834.47,-189.13C733.23,-186.14 566.17,-174.26 527.5,-129 514.93,-114.29 530.17,-94.53 544.51,-80.98"/>
<polygon fill="#63b8ff" stroke="#63b8ff" points="547.04,-83.42 552.2,-74.17 542.4,-78.18 547.04,-83.42"/>
</a>
</g>
</g>
<!-- Node16 -->
<g id="Node000016" class="node">
<title>Node16</title>
<g id="a_Node000016"><a xlink:href="axi__jesd204__rx_8h.html" target="_top" xlink:title="Driver for the Analog Devices AXI&#45;JESD204&#45;RX peripheral.">
<polygon fill="white" stroke="#666666" points="963,-129 864,-129 864,-110 963,-110 963,-129"/>
<text text-anchor="middle" x="913.5" y="-117" font-family="Helvetica,sans-Serif" font-size="10.00">axi_jesd204_rx.h</text>
</a>
</g>
</g>
<!-- Node1&#45;&gt;Node16 -->
<g id="edge18_Node000001_Node000016" class="edge">
<title>Node1&#45;&gt;Node16</title>
<g id="a_edge18_Node000001_Node000016"><a xlink:title=" ">
<path fill="none" stroke="#63b8ff" d="M913.5,-164.91C913.5,-156.55 913.5,-147.38 913.5,-139.55"/>
<polygon fill="#63b8ff" stroke="#63b8ff" points="917,-139.3 913.5,-129.3 910,-139.3 917,-139.3"/>
</a>
</g>
</g>
<!-- Node20 -->
<g id="Node000020" class="node">
<title>Node20</title>
<g id="a_Node000020"><a xlink:href="axi__jesd204__tx_8h.html" target="_top" xlink:title="Driver for the Analog Devices AXI&#45;JESD204&#45;TX peripheral.">
<polygon fill="white" stroke="#666666" points="1080,-129 981,-129 981,-110 1080,-110 1080,-129"/>
<text text-anchor="middle" x="1030.5" y="-117" font-family="Helvetica,sans-Serif" font-size="10.00">axi_jesd204_tx.h</text>
</a>
</g>
</g>
<!-- Node1&#45;&gt;Node20 -->
<g id="edge27_Node000001_Node000020" class="edge">
<title>Node1&#45;&gt;Node20</title>
<g id="a_edge27_Node000001_Node000020"><a xlink:title=" ">
<path fill="none" stroke="#63b8ff" d="M955.74,-164.91C973.03,-154.64 992.38,-143.15 1007.06,-134.43"/>
<polygon fill="#63b8ff" stroke="#63b8ff" points="1009.15,-137.25 1015.96,-129.14 1005.58,-131.23 1009.15,-137.25"/>
</a>
</g>
</g>
<!-- Node21 -->
<g id="Node000021" class="node">
<title>Node21</title>
<g id="a_Node000021"><a xlink:href="axi__adc__core_8h.html" target="_top" xlink:title="Driver for the Analog Devices AXI&#45;ADC&#45;CORE module.">
<polygon fill="white" stroke="#666666" points="846,-129 757,-129 757,-110 846,-110 846,-129"/>
<text text-anchor="middle" x="801.5" y="-117" font-family="Helvetica,sans-Serif" font-size="10.00">axi_adc_core.h</text>
</a>
</g>
</g>
<!-- Node1&#45;&gt;Node21 -->
<g id="edge32_Node000001_Node000021" class="edge">
<title>Node1&#45;&gt;Node21</title>
<g id="a_edge32_Node000001_Node000021"><a xlink:title=" ">
<path fill="none" stroke="#63b8ff" d="M873.07,-164.91C856.51,-154.64 837.99,-143.15 823.94,-134.43"/>
<polygon fill="#63b8ff" stroke="#63b8ff" points="825.76,-131.43 815.42,-129.14 822.07,-137.38 825.76,-131.43"/>
</a>
</g>
</g>
<!-- Node22 -->
<g id="Node000022" class="node">
<title>Node22</title>
<g id="a_Node000022"><a xlink:href="axi__dac__core_8h.html" target="_top" xlink:title="Driver for the Analog Devices AXI&#45;DAC&#45;CORE module.">
<polygon fill="white" stroke="#666666" points="508,-74 419,-74 419,-55 508,-55 508,-74"/>
<text text-anchor="middle" x="463.5" y="-62" font-family="Helvetica,sans-Serif" font-size="10.00">axi_dac_core.h</text>
</a>
</g>
</g>
<!-- Node1&#45;&gt;Node22 -->
<g id="edge35_Node000001_Node000022" class="edge">
<title>Node1&#45;&gt;Node22</title>
<g id="a_edge35_Node000001_Node000022"><a xlink:title=" ">
<path fill="none" stroke="#63b8ff" d="M834.38,-184.13C735.36,-175.7 572.32,-157.92 519.5,-129 499.83,-118.23 483.71,-97.74 473.9,-82.94"/>
<polygon fill="#63b8ff" stroke="#63b8ff" points="476.68,-80.8 468.39,-74.2 470.76,-84.53 476.68,-80.8"/>
</a>
</g>
</g>
<!-- Node23 -->
<g id="Node000023" class="node">
<title>Node23</title>
<g id="a_Node000023"><a xlink:href="axi__adxcvr_8h.html" target="_top" xlink:title="Driver for the ADI AXI&#45;ADXCVR Module.">
<polygon fill="white" stroke="#666666" points="1176.5,-129 1098.5,-129 1098.5,-110 1176.5,-110 1176.5,-129"/>
<text text-anchor="middle" x="1137.5" y="-117" font-family="Helvetica,sans-Serif" font-size="10.00">axi_adxcvr.h</text>
</a>
</g>
</g>
<!-- Node1&#45;&gt;Node23 -->
<g id="edge37_Node000001_Node000023" class="edge">
<title>Node1&#45;&gt;Node23</title>
<g id="a_edge37_Node000001_Node000023"><a xlink:title=" ">
<path fill="none" stroke="#63b8ff" d="M992.79,-165.4C1029.38,-154.05 1071.07,-141.11 1100.28,-132.05"/>
<polygon fill="#63b8ff" stroke="#63b8ff" points="1101.54,-135.32 1110.06,-129.01 1099.47,-128.63 1101.54,-135.32"/>
</a>
</g>
</g>
<!-- Node25 -->
<g id="Node000025" class="node">
<title>Node25</title>
<g id="a_Node000025"><a xlink:href="axi__dmac_8h.html" target="_top" xlink:title="Driver for the Analog Devices AXI&#45;DMAC core.">
<polygon fill="white" stroke="#666666" points="700,-129 627,-129 627,-110 700,-110 700,-129"/>
<text text-anchor="middle" x="663.5" y="-117" font-family="Helvetica,sans-Serif" font-size="10.00">axi_dmac.h</text>
</a>
</g>
</g>
<!-- Node1&#45;&gt;Node25 -->
<g id="edge43_Node000001_Node000025" class="edge">
<title>Node1&#45;&gt;Node25</title>
<g id="a_edge43_Node000001_Node000025"><a xlink:title=" ">
<path fill="none" stroke="#63b8ff" d="M834.4,-168.01C791.04,-155.96 739.13,-141.53 703.99,-131.76"/>
<polygon fill="#63b8ff" stroke="#63b8ff" points="704.66,-128.31 694.09,-129 702.79,-135.06 704.66,-128.31"/>
</a>
</g>
</g>
<!-- Node26 -->
<g id="Node000026" class="node">
<title>Node26</title>
<g id="a_Node000026"><a xlink:href="xilinx__gpio_8h.html" target="_top" xlink:title=" ">
<polygon fill="white" stroke="#666666" points="1438,-74 1359,-74 1359,-55 1438,-55 1438,-74"/>
<text text-anchor="middle" x="1398.5" y="-62" font-family="Helvetica,sans-Serif" font-size="10.00">xilinx_gpio.h</text>
</a>
</g>
</g>
<!-- Node1&#45;&gt;Node26 -->
<g id="edge46_Node000001_Node000026" class="edge">
<title>Node1&#45;&gt;Node26</title>
<g id="a_edge46_Node000001_Node000026"><a xlink:title=" ">
<path fill="none" stroke="#63b8ff" d="M992.6,-177.51C1047.65,-167.56 1122.24,-151.53 1185.5,-129 1203.29,-122.67 1205.8,-116.59 1223.5,-110 1264.68,-94.67 1313.23,-82.79 1348.73,-75.17"/>
<polygon fill="#63b8ff" stroke="#63b8ff" points="1349.78,-78.53 1358.84,-73.04 1348.33,-71.68 1349.78,-78.53"/>
</a>
</g>
</g>
<!-- Node27 -->
<g id="Node000027" class="node">
<title>Node27</title>
<g id="a_Node000027"><a xlink:href="xilinx__spi_8h.html" target="_top" xlink:title=" ">
<polygon fill="white" stroke="#666666" points="608.5,-129 536.5,-129 536.5,-110 608.5,-110 608.5,-129"/>
<text text-anchor="middle" x="572.5" y="-117" font-family="Helvetica,sans-Serif" font-size="10.00">xilinx_spi.h</text>
</a>
</g>
</g>
<!-- Node1&#45;&gt;Node27 -->
<g id="edge49_Node000001_Node000027" class="edge">
<title>Node1&#45;&gt;Node27</title>
<g id="a_edge49_Node000001_Node000027"><a xlink:title=" ">
<path fill="none" stroke="#63b8ff" d="M834.41,-173.88C767.55,-160.25 674.05,-141.2 618.74,-129.92"/>
<polygon fill="#63b8ff" stroke="#63b8ff" points="619.37,-126.48 608.87,-127.91 617.97,-133.34 619.37,-126.48"/>
</a>
</g>
</g>
<!-- Node28 -->
<g id="Node000028" class="node">
<title>Node28</title>
<g id="a_Node000028"><a xlink:title=" ">
<polygon fill="#e0e0e0" stroke="#999999" points="1634,-129 1563,-129 1563,-110 1634,-110 1634,-129"/>
<text text-anchor="middle" x="1598.5" y="-117" font-family="Helvetica,sans-Serif" font-size="10.00">xil_cache.h</text>
</a>
</g>
</g>
<!-- Node1&#45;&gt;Node28 -->
<g id="edge52_Node000001_Node000028" class="edge">
<title>Node1&#45;&gt;Node28</title>
<g id="a_edge52_Node000001_Node000028"><a xlink:title=" ">
<path fill="none" stroke="#63b8ff" d="M992.6,-184.8C1111.79,-176.46 1344.71,-158.12 1552.5,-129.01"/>
<polygon fill="#63b8ff" stroke="#63b8ff" points="1553.28,-132.44 1562.69,-127.57 1552.3,-125.5 1553.28,-132.44"/>
</a>
</g>
</g>
<!-- Node29 -->
<g id="Node000029" class="node">
<title>Node29</title>
<g id="a_Node000029"><a xlink:title=" ">
<polygon fill="#e0e0e0" stroke="#999999" points="1755,-129 1652,-129 1652,-110 1755,-110 1755,-129"/>
<text text-anchor="middle" x="1703.5" y="-117" font-family="Helvetica,sans-Serif" font-size="10.00">clkgen_routines.h</text>
</a>
</g>
</g>
<!-- Node1&#45;&gt;Node29 -->
<g id="edge53_Node000001_Node000029" class="edge">
<title>Node1&#45;&gt;Node29</title>
<g id="a_edge53_Node000001_Node000029"><a xlink:title=" ">
<path fill="none" stroke="#63b8ff" d="M992.5,-184.89C1124.75,-176.01 1399.52,-156.14 1641.76,-129.14"/>
<polygon fill="#63b8ff" stroke="#63b8ff" points="1642.27,-132.61 1651.81,-128.01 1641.49,-125.65 1642.27,-132.61"/>
</a>
</g>
</g>
<!-- Node30 -->
<g id="Node000030" class="node">
<title>Node30</title>
<g id="a_Node000030"><a xlink:title=" ">
<polygon fill="#e0e0e0" stroke="#999999" points="1844,-129 1773,-129 1773,-110 1844,-110 1844,-129"/>
<text text-anchor="middle" x="1808.5" y="-117" font-family="Helvetica,sans-Serif" font-size="10.00">adrv9025.h</text>
</a>
</g>
</g>
<!-- Node1&#45;&gt;Node30 -->
<g id="edge54_Node000001_Node000030" class="edge">
<title>Node1&#45;&gt;Node30</title>
<g id="a_edge54_Node000001_Node000030"><a xlink:title=" ">
<path fill="none" stroke="#63b8ff" d="M992.72,-187.48C1141.75,-182.04 1474.09,-166.64 1762.31,-129.15"/>
<polygon fill="#63b8ff" stroke="#63b8ff" points="1763.08,-132.58 1772.54,-127.81 1762.17,-125.64 1763.08,-132.58"/>
</a>
</g>
</g>
<!-- Node31 -->
<g id="Node000031" class="node">
<title>Node31</title>
<g id="a_Node000031"><a xlink:title=" ">
<polygon fill="#e0e0e0" stroke="#999999" points="1924.5,-129 1862.5,-129 1862.5,-110 1924.5,-110 1924.5,-129"/>
<text text-anchor="middle" x="1893.5" y="-117" font-family="Helvetica,sans-Serif" font-size="10.00">ad9528.h</text>
</a>
</g>
</g>
<!-- Node1&#45;&gt;Node31 -->
<g id="edge55_Node000001_Node000031" class="edge">
<title>Node1&#45;&gt;Node31</title>
<g id="a_edge55_Node000001_Node000031"><a xlink:title=" ">
<path fill="none" stroke="#63b8ff" d="M992.81,-188.72C1153.45,-185.28 1528.78,-172.98 1852.1,-128.99"/>
<polygon fill="#63b8ff" stroke="#63b8ff" points="1852.7,-132.44 1862.13,-127.61 1851.75,-125.51 1852.7,-132.44"/>
</a>
</g>
</g>
<!-- Node9&#45;&gt;Node8 -->
<g id="edge9_Node000009_Node000008" class="edge">
<title>Node9&#45;&gt;Node8</title>
<g id="a_edge9_Node000009_Node000008"><a xlink:title=" ">
<path fill="none" stroke="#63b8ff" d="M1375.74,-109.98C1396.2,-101.38 1428.03,-87.99 1451.43,-78.15"/>
<polygon fill="#63b8ff" stroke="#63b8ff" points="1453.03,-81.27 1460.89,-74.17 1450.31,-74.82 1453.03,-81.27"/>
</a>
</g>
</g>
<!-- Node11 -->
<g id="Node000011" class="node">
<title>Node11</title>
<g id="a_Node000011"><a xlink:href="errno_8h.html" target="_top" xlink:title="Error macro definition for ARM Compiler.">
<polygon fill="white" stroke="#666666" points="1576,-74 1525,-74 1525,-55 1576,-55 1576,-74"/>
<text text-anchor="middle" x="1550.5" y="-62" font-family="Helvetica,sans-Serif" font-size="10.00">errno.h</text>
</a>
</g>
</g>
<!-- Node10&#45;&gt;Node11 -->
<g id="edge11_Node000010_Node000011" class="edge">
<title>Node10&#45;&gt;Node11</title>
<g id="a_edge11_Node000010_Node000011"><a xlink:title=" ">
<path fill="none" stroke="#63b8ff" d="M1511.26,-109.75C1517.97,-102.18 1527.84,-91.05 1536.01,-81.84"/>
<polygon fill="#63b8ff" stroke="#63b8ff" points="1538.87,-83.89 1542.88,-74.09 1533.63,-79.25 1538.87,-83.89"/>
</a>
</g>
</g>
<!-- Node12&#45;&gt;Node6 -->
<g id="edge14_Node000012_Node000006" class="edge">
<title>Node12&#45;&gt;Node6</title>
<g id="a_edge14_Node000012_Node000006"><a xlink:title=" ">
<path fill="none" stroke="#63b8ff" d="M705.03,-54.98C675.98,-45.98 630.01,-31.73 597.94,-21.8"/>
<polygon fill="#63b8ff" stroke="#63b8ff" points="598.65,-18.35 588.06,-18.73 596.58,-25.04 598.65,-18.35"/>
</a>
</g>
</g>
<!-- Node13 -->
<g id="Node000013" class="node">
<title>Node13</title>
<g id="a_Node000013"><a xlink:title=" ">
<polygon fill="#e0e0e0" stroke="#999999" points="863,-19 810,-19 810,0 863,0 863,-19"/>
<text text-anchor="middle" x="836.5" y="-7" font-family="Helvetica,sans-Serif" font-size="10.00">stdint.h</text>
</a>
</g>
</g>
<!-- Node12&#45;&gt;Node13 -->
<g id="edge13_Node000012_Node000013" class="edge">
<title>Node12&#45;&gt;Node13</title>
<g id="a_edge13_Node000012_Node000013"><a xlink:title=" ">
<path fill="none" stroke="#63b8ff" d="M749.21,-54.98C765.71,-46.57 791.2,-33.59 810.38,-23.81"/>
<polygon fill="#63b8ff" stroke="#63b8ff" points="812.17,-26.83 819.49,-19.17 808.99,-20.59 812.17,-26.83"/>
</a>
</g>
</g>
<!-- Node14 -->
<g id="Node000014" class="node">
<title>Node14</title>
<g id="a_Node000014"><a xlink:title=" ">
<polygon fill="#e0e0e0" stroke="#999999" points="1285.5,-19 1223.5,-19 1223.5,0 1285.5,0 1285.5,-19"/>
<text text-anchor="middle" x="1254.5" y="-7" font-family="Helvetica,sans-Serif" font-size="10.00">stdbool.h</text>
</a>
</g>
</g>
<!-- Node12&#45;&gt;Node14 -->
<g id="edge15_Node000012_Node000014" class="edge">
<title>Node12&#45;&gt;Node14</title>
<g id="a_edge15_Node000012_Node000014"><a xlink:title=" ">
<path fill="none" stroke="#63b8ff" d="M770.04,-59.69C865,-50.05 1114.21,-24.74 1213.15,-14.7"/>
<polygon fill="#63b8ff" stroke="#63b8ff" points="1213.76,-18.15 1223.36,-13.66 1213.05,-11.19 1213.76,-18.15"/>
</a>
</g>
</g>
<!-- Node15&#45;&gt;Node13 -->
<g id="edge17_Node000015_Node000013" class="edge">
<title>Node15&#45;&gt;Node13</title>
<g id="a_edge17_Node000015_Node000013"><a xlink:title=" ">
<path fill="none" stroke="#63b8ff" d="M600.6,-56.3C652.84,-46.16 747.5,-27.78 799.62,-17.66"/>
<polygon fill="#63b8ff" stroke="#63b8ff" points="800.61,-21.03 809.75,-15.69 799.27,-14.16 800.61,-21.03"/>
</a>
</g>
</g>
<!-- Node16&#45;&gt;Node13 -->
<g id="edge19_Node000016_Node000013" class="edge">
<title>Node16&#45;&gt;Node13</title>
<g id="a_edge19_Node000016_Node000013"><a xlink:title=" ">
<path fill="none" stroke="#63b8ff" d="M897.46,-109.99C884.36,-102.26 866.31,-89.67 855.5,-74 846.21,-60.53 841.38,-42.43 838.92,-29.01"/>
<polygon fill="#63b8ff" stroke="#63b8ff" points="842.36,-28.37 837.37,-19.03 835.45,-29.45 842.36,-28.37"/>
</a>
</g>
</g>
<!-- Node16&#45;&gt;Node14 -->
<g id="edge20_Node000016_Node000014" class="edge">
<title>Node16&#45;&gt;Node14</title>
<g id="a_edge20_Node000016_Node000014"><a xlink:title=" ">
<path fill="none" stroke="#63b8ff" d="M963.17,-111.19C965.99,-110.78 968.78,-110.38 971.5,-110 1030.13,-101.71 1190.51,-112.5 1235.5,-74 1248.33,-63.02 1252.7,-43.76 1254.08,-29.32"/>
<polygon fill="#63b8ff" stroke="#63b8ff" points="1257.59,-29.21 1254.66,-19.03 1250.61,-28.81 1257.59,-29.21"/>
</a>
</g>
</g>
<!-- Node17 -->
<g id="Node000017" class="node">
<title>Node17</title>
<g id="a_Node000017"><a xlink:href="jesd204_8h.html" target="_top" xlink:title=" ">
<polygon fill="white" stroke="#666666" points="1058.5,-74 994.5,-74 994.5,-55 1058.5,-55 1058.5,-74"/>
<text text-anchor="middle" x="1026.5" y="-62" font-family="Helvetica,sans-Serif" font-size="10.00">jesd204.h</text>
</a>
</g>
</g>
<!-- Node16&#45;&gt;Node17 -->
<g id="edge21_Node000016_Node000017" class="edge">
<title>Node16&#45;&gt;Node17</title>
<g id="a_edge21_Node000016_Node000017"><a xlink:title=" ">
<path fill="none" stroke="#63b8ff" d="M931.66,-109.98C949.75,-101.5 977.78,-88.35 998.69,-78.54"/>
<polygon fill="#63b8ff" stroke="#63b8ff" points="1000.45,-81.59 1008.01,-74.17 997.47,-75.25 1000.45,-81.59"/>
</a>
</g>
</g>
<!-- Node19 -->
<g id="Node000019" class="node">
<title>Node19</title>
<g id="a_Node000019"><a xlink:href="no__os__clk_8h.html" target="_top" xlink:title="Header file of Clock Driver.">
<polygon fill="white" stroke="#666666" points="938.5,-74 864.5,-74 864.5,-55 938.5,-55 938.5,-74"/>
<text text-anchor="middle" x="901.5" y="-62" font-family="Helvetica,sans-Serif" font-size="10.00">no_os_clk.h</text>
</a>
</g>
</g>
<!-- Node16&#45;&gt;Node19 -->
<g id="edge25_Node000016_Node000019" class="edge">
<title>Node16&#45;&gt;Node19</title>
<g id="a_edge25_Node000016_Node000019"><a xlink:title=" ">
<path fill="none" stroke="#63b8ff" d="M911.52,-109.75C909.93,-102.72 907.64,-92.62 905.65,-83.84"/>
<polygon fill="#63b8ff" stroke="#63b8ff" points="909.07,-83.07 903.44,-74.09 902.24,-84.62 909.07,-83.07"/>
</a>
</g>
</g>
<!-- Node17&#45;&gt;Node13 -->
<g id="edge24_Node000017_Node000013" class="edge">
<title>Node17&#45;&gt;Node13</title>
<g id="a_edge24_Node000017_Node000013"><a xlink:title=" ">
<path fill="none" stroke="#63b8ff" d="M995.97,-54.98C962.56,-45.66 908.99,-30.72 873.28,-20.76"/>
<polygon fill="#63b8ff" stroke="#63b8ff" points="873.84,-17.28 863.27,-17.97 871.96,-24.02 873.84,-17.28"/>
</a>
</g>
</g>
<!-- Node17&#45;&gt;Node14 -->
<g id="edge22_Node000017_Node000014" class="edge">
<title>Node17&#45;&gt;Node14</title>
<g id="a_edge22_Node000017_Node000014"><a xlink:title=" ">
<path fill="none" stroke="#63b8ff" d="M1058.68,-56.02C1099.22,-46.59 1168.94,-30.39 1213.33,-20.07"/>
<polygon fill="#63b8ff" stroke="#63b8ff" points="1214.26,-23.45 1223.21,-17.77 1212.68,-16.63 1214.26,-23.45"/>
</a>
</g>
</g>
<!-- Node18 -->
<g id="Node000018" class="node">
<title>Node18</title>
<g id="a_Node000018"><a xlink:title=" ">
<polygon fill="#e0e0e0" stroke="#999999" points="1054.5,-19 998.5,-19 998.5,0 1054.5,0 1054.5,-19"/>
<text text-anchor="middle" x="1026.5" y="-7" font-family="Helvetica,sans-Serif" font-size="10.00">stddef.h</text>
</a>
</g>
</g>
<!-- Node17&#45;&gt;Node18 -->
<g id="edge23_Node000017_Node000018" class="edge">
<title>Node17&#45;&gt;Node18</title>
<g id="a_edge23_Node000017_Node000018"><a xlink:title=" ">
<path fill="none" stroke="#63b8ff" d="M1026.5,-54.75C1026.5,-47.8 1026.5,-37.85 1026.5,-29.13"/>
<polygon fill="#63b8ff" stroke="#63b8ff" points="1030,-29.09 1026.5,-19.09 1023,-29.09 1030,-29.09"/>
</a>
</g>
</g>
<!-- Node19&#45;&gt;Node13 -->
<g id="edge26_Node000019_Node000013" class="edge">
<title>Node19&#45;&gt;Node13</title>
<g id="a_edge26_Node000019_Node000013"><a xlink:title=" ">
<path fill="none" stroke="#63b8ff" d="M891.06,-54.98C881.35,-47.07 866.68,-35.11 855,-25.58"/>
<polygon fill="#63b8ff" stroke="#63b8ff" points="857.1,-22.78 847.13,-19.17 852.67,-28.2 857.1,-22.78"/>
</a>
</g>
</g>
<!-- Node20&#45;&gt;Node13 -->
<g id="edge28_Node000020_Node000013" class="edge">
<title>Node20&#45;&gt;Node13</title>
<g id="a_edge28_Node000020_Node000013"><a xlink:title=" ">
<path fill="none" stroke="#63b8ff" d="M1020.9,-109.74C1006.04,-96.53 976.2,-71.33 947.5,-55 923.87,-41.56 895.37,-30.22 873.17,-22.36"/>
<polygon fill="#63b8ff" stroke="#63b8ff" points="874.04,-18.96 863.45,-18.99 871.75,-25.57 874.04,-18.96"/>
</a>
</g>
</g>
<!-- Node20&#45;&gt;Node14 -->
<g id="edge29_Node000020_Node000014" class="edge">
<title>Node20&#45;&gt;Node14</title>
<g id="a_edge29_Node000020_Node000014"><a xlink:title=" ">
<path fill="none" stroke="#63b8ff" d="M1080.23,-110.85C1148.21,-100.16 1262.48,-81.25 1268.5,-74 1279.06,-61.28 1272.96,-42.33 1265.8,-28.44"/>
<polygon fill="#63b8ff" stroke="#63b8ff" points="1268.62,-26.33 1260.62,-19.39 1262.55,-29.81 1268.62,-26.33"/>
</a>
</g>
</g>
<!-- Node20&#45;&gt;Node17 -->
<g id="edge30_Node000020_Node000017" class="edge">
<title>Node20&#45;&gt;Node17</title>
<g id="a_edge30_Node000020_Node000017"><a xlink:title=" ">
<path fill="none" stroke="#63b8ff" d="M1029.84,-109.75C1029.32,-102.8 1028.56,-92.85 1027.91,-84.13"/>
<polygon fill="#63b8ff" stroke="#63b8ff" points="1031.39,-83.8 1027.15,-74.09 1024.41,-84.32 1031.39,-83.8"/>
</a>
</g>
</g>
<!-- Node20&#45;&gt;Node19 -->
<g id="edge31_Node000020_Node000019" class="edge">
<title>Node20&#45;&gt;Node19</title>
<g id="a_edge31_Node000020_Node000019"><a xlink:title=" ">
<path fill="none" stroke="#63b8ff" d="M1009.77,-109.98C988.74,-101.34 955.95,-87.87 931.96,-78.02"/>
<polygon fill="#63b8ff" stroke="#63b8ff" points="933.18,-74.73 922.6,-74.17 930.52,-81.21 933.18,-74.73"/>
</a>
</g>
</g>
<!-- Node21&#45;&gt;Node12 -->
<g id="edge34_Node000021_Node000012" class="edge">
<title>Node21&#45;&gt;Node12</title>
<g id="a_edge34_Node000021_Node000012"><a xlink:title=" ">
<path fill="none" stroke="#63b8ff" d="M790.41,-109.98C780.01,-102 764.24,-89.88 751.78,-80.31"/>
<polygon fill="#63b8ff" stroke="#63b8ff" points="753.85,-77.49 743.79,-74.17 749.59,-83.04 753.85,-77.49"/>
</a>
</g>
</g>
<!-- Node21&#45;&gt;Node13 -->
<g id="edge33_Node000021_Node000013" class="edge">
<title>Node21&#45;&gt;Node13</title>
<g id="a_edge33_Node000021_Node000013"><a xlink:title=" ">
<path fill="none" stroke="#63b8ff" d="M804.36,-109.66C810.06,-92.09 822.91,-52.45 830.52,-28.95"/>
<polygon fill="#63b8ff" stroke="#63b8ff" points="833.94,-29.75 833.69,-19.16 827.28,-27.59 833.94,-29.75"/>
</a>
</g>
</g>
<!-- Node22&#45;&gt;Node13 -->
<g id="edge36_Node000022_Node000013" class="edge">
<title>Node22&#45;&gt;Node13</title>
<g id="a_edge36_Node000022_Node000013"><a xlink:title=" ">
<path fill="none" stroke="#63b8ff" d="M508.28,-56.39C511.4,-55.91 514.5,-55.45 517.5,-55 619.51,-39.86 740.1,-23.44 799.56,-15.44"/>
<polygon fill="#63b8ff" stroke="#63b8ff" points="800.15,-18.89 809.59,-14.09 799.21,-11.95 800.15,-18.89"/>
</a>
</g>
</g>
<!-- Node23&#45;&gt;Node13 -->
<g id="edge38_Node000023_Node000013" class="edge">
<title>Node23&#45;&gt;Node13</title>
<g id="a_edge38_Node000023_Node000013"><a xlink:title=" ">
<path fill="none" stroke="#63b8ff" d="M1130.78,-109.91C1119.38,-95.98 1094.8,-68.65 1067.5,-55 1004.16,-23.34 920.65,-14.15 873.35,-11.52"/>
<polygon fill="#63b8ff" stroke="#63b8ff" points="873.43,-8.02 863.27,-11.03 873.09,-15.01 873.43,-8.02"/>
</a>
</g>
</g>
<!-- Node23&#45;&gt;Node14 -->
<g id="edge39_Node000023_Node000014" class="edge">
<title>Node23&#45;&gt;Node14</title>
<g id="a_edge39_Node000023_Node000014"><a xlink:title=" ">
<path fill="none" stroke="#63b8ff" d="M1176.75,-110.78C1224.13,-101.06 1298.49,-84.39 1306.5,-74 1319.85,-56.68 1298.5,-37.3 1279.26,-24.56"/>
<polygon fill="#63b8ff" stroke="#63b8ff" points="1281.03,-21.54 1270.7,-19.2 1277.32,-27.47 1281.03,-21.54"/>
</a>
</g>
</g>
<!-- Node24 -->
<g id="Node000024" class="node">
<title>Node24</title>
<g id="a_Node000024"><a xlink:href="xilinx__transceiver_8h.html" target="_top" xlink:title="Driver for the Xilinx High&#45;speed transceiver dynamic reconfiguration.">
<polygon fill="white" stroke="#666666" points="1226.5,-74 1114.5,-74 1114.5,-55 1226.5,-55 1226.5,-74"/>
<text text-anchor="middle" x="1170.5" y="-62" font-family="Helvetica,sans-Serif" font-size="10.00">xilinx_transceiver.h</text>
</a>
</g>
</g>
<!-- Node23&#45;&gt;Node24 -->
<g id="edge40_Node000023_Node000024" class="edge">
<title>Node23&#45;&gt;Node24</title>
<g id="a_edge40_Node000023_Node000024"><a xlink:title=" ">
<path fill="none" stroke="#63b8ff" d="M1142.95,-109.75C1147.51,-102.42 1154.17,-91.73 1159.79,-82.7"/>
<polygon fill="#63b8ff" stroke="#63b8ff" points="1162.84,-84.43 1165.15,-74.09 1156.9,-80.73 1162.84,-84.43"/>
</a>
</g>
</g>
<!-- Node24&#45;&gt;Node13 -->
<g id="edge41_Node000024_Node000013" class="edge">
<title>Node24&#45;&gt;Node13</title>
<g id="a_edge41_Node000024_Node000013"><a xlink:title=" ">
<path fill="none" stroke="#63b8ff" d="M1116.84,-54.98C1048.47,-44.14 932.13,-25.67 873.13,-16.31"/>
<polygon fill="#63b8ff" stroke="#63b8ff" points="873.57,-12.84 863.15,-14.73 872.48,-19.75 873.57,-12.84"/>
</a>
</g>
</g>
<!-- Node24&#45;&gt;Node14 -->
<g id="edge42_Node000024_Node000014" class="edge">
<title>Node24&#45;&gt;Node14</title>
<g id="a_edge42_Node000024_Node000014"><a xlink:title=" ">
<path fill="none" stroke="#63b8ff" d="M1184,-54.98C1196.9,-46.84 1216.6,-34.41 1231.9,-24.76"/>
<polygon fill="#63b8ff" stroke="#63b8ff" points="1234.17,-27.47 1240.76,-19.17 1230.43,-21.55 1234.17,-27.47"/>
</a>
</g>
</g>
<!-- Node25&#45;&gt;Node12 -->
<g id="edge45_Node000025_Node000012" class="edge">
<title>Node25&#45;&gt;Node12</title>
<g id="a_edge45_Node000025_Node000012"><a xlink:title=" ">
<path fill="none" stroke="#63b8ff" d="M674.59,-109.98C684.99,-102 700.76,-89.88 713.22,-80.31"/>
<polygon fill="#63b8ff" stroke="#63b8ff" points="715.41,-83.04 721.21,-74.17 711.15,-77.49 715.41,-83.04"/>
</a>
</g>
</g>
<!-- Node25&#45;&gt;Node13 -->
<g id="edge44_Node000025_Node000013" class="edge">
<title>Node25&#45;&gt;Node13</title>
<g id="a_edge44_Node000025_Node000013"><a xlink:title=" ">
<path fill="none" stroke="#63b8ff" d="M664.06,-109.77C665.4,-96.14 669.97,-69.82 685.5,-55 716.37,-25.55 765.74,-15.47 799.57,-12.09"/>
<polygon fill="#63b8ff" stroke="#63b8ff" points="800.29,-15.54 809.96,-11.21 799.7,-8.56 800.29,-15.54"/>
</a>
</g>
</g>
<!-- Node26&#45;&gt;Node13 -->
<g id="edge47_Node000026_Node000013" class="edge">
<title>Node26&#45;&gt;Node13</title>
<g id="a_edge47_Node000026_Node000013"><a xlink:title=" ">
<path fill="none" stroke="#63b8ff" d="M1358.98,-59.77C1254.86,-49.95 974.07,-23.47 873.21,-13.96"/>
<polygon fill="#63b8ff" stroke="#63b8ff" points="873.48,-10.47 863.19,-13.02 872.82,-17.44 873.48,-10.47"/>
</a>
</g>
</g>
<!-- Node26&#45;&gt;Node14 -->
<g id="edge48_Node000026_Node000014" class="edge">
<title>Node26&#45;&gt;Node14</title>
<g id="a_edge48_Node000026_Node000014"><a xlink:title=" ">
<path fill="none" stroke="#63b8ff" d="M1375.36,-54.98C1351.68,-46.27 1314.63,-32.63 1287.79,-22.75"/>
<polygon fill="#63b8ff" stroke="#63b8ff" points="1288.65,-19.34 1278.06,-19.17 1286.23,-25.91 1288.65,-19.34"/>
</a>
</g>
</g>
<!-- Node27&#45;&gt;Node13 -->
<g id="edge50_Node000027_Node000013" class="edge">
<title>Node27&#45;&gt;Node13</title>
<g id="a_edge50_Node000027_Node000013"><a xlink:title=" ">
<path fill="none" stroke="#63b8ff" d="M583.18,-109.84C600.37,-96.3 635.68,-70.1 669.5,-55 712.33,-35.87 765.12,-23.51 799.74,-16.79"/>
<polygon fill="#63b8ff" stroke="#63b8ff" points="800.69,-20.17 809.87,-14.88 799.4,-13.29 800.69,-20.17"/>
</a>
</g>
</g>
<!-- Node27&#45;&gt;Node15 -->
<g id="edge51_Node000027_Node000015" class="edge">
<title>Node27&#45;&gt;Node15</title>
<g id="a_edge51_Node000027_Node000015"><a xlink:title=" ">
<path fill="none" stroke="#63b8ff" d="M571.01,-109.75C569.83,-102.8 568.14,-92.85 566.66,-84.13"/>
<polygon fill="#63b8ff" stroke="#63b8ff" points="570.08,-83.36 564.96,-74.09 563.18,-84.53 570.08,-83.36"/>
</a>
</g>
</g>
</g>
</svg>

<g id="navigator" transform="translate(0 0)" fill="#404254">
  <rect fill="#f2f5e9" fill-opacity="0.5" stroke="#606060" stroke-width=".5" x="0" y="0" width="60" height="60"/>
  <use id="zoomplus" xlink:href="#zoomPlus" x="17" y="9" onmousedown="handleZoom(evt,'in')"/>
  <use id="zoomminus" xlink:href="#zoomMin" x="42" y="9" onmousedown="handleZoom(evt,'out')"/>
  <use id="reset" xlink:href="#resetDef" x="30" y="36" onmousedown="handleReset()"/>
   <use id="arrowup" xlink:href="#arrowUp" x="0" y="0" onmousedown="handlePan(0,-1)"/>
  <use id="arrowright" xlink:href="#arrowRight" x="0" y="0" onmousedown="handlePan(1,0)"/>
  <use id="arrowdown" xlink:href="#arrowDown" x="0" y="0" onmousedown="handlePan(0,1)"/>
  <use id="arrowleft" xlink:href="#arrowLeft" x="0" y="0" onmousedown="handlePan(-1,0)"/>
</g>
<svg viewBox="0 0 15 15" width="100%" height="30px" preserveAspectRatio="xMaxYMin meet">
 <g id="arrow_out" transform="scale(0.3 0.3)">
  <a xlink:href="adrv902x_2src_2examples_2dma__example_2dma__example_8c__incl_org.svg" target="_base">
   <rect id="button" ry="5" rx="5" y="6" x="6" height="38" width="38"
        fill="#f2f5e9" fill-opacity="0.5" stroke="#606060" stroke-width="1.0"/>
   <path id="arrow"
     d="M 11.500037,31.436501 C 11.940474,20.09759 22.043105,11.32322 32.158766,21.979434 L 37.068811,17.246167 C 37.068811,17.246167 37.088388,32 37.088388,32 L 22.160133,31.978069 C 22.160133,31.978069 26.997745,27.140456 26.997745,27.140456 C 18.528582,18.264221 13.291696,25.230495 11.500037,31.436501 z"
     style="fill:#404040;"/>
  </a>
 </g>
</svg>

<style type='text/css'>
<![CDATA[
[data-mouse-over-selected='false'] { opacity: 0.7; }
[data-mouse-over-selected='true']  { opacity: 1.0; }
]]>
</style>
<script type="application/ecmascript"><![CDATA[
document.addEventListener('DOMContentLoaded', (event) => {
  highlightEdges();
  highlightAdjacentNodes();
});
]]></script>
</svg>
