<?xml version="1.0" encoding="UTF-8" standalone="no"?>
<!DOCTYPE svg PUBLIC "-//W3C//DTD SVG 1.1//EN"
 "http://www.w3.org/Graphics/SVG/1.1/DTD/svg11.dtd">
<!-- Generated by graphviz version 2.43.0 (0)
 -->
<!-- Title: /home/runner/work/no&#45;OS/no&#45;OS/projects/adrv902x/src/examples/basic_example/basic_example.c Pages: 1 -->
<!--zoomable 225 -->

<svg id="main" version="1.1" xmlns="http://www.w3.org/2000/svg" xmlns:xlink="http://www.w3.org/1999/xlink" xml:space="preserve" onload="init(evt)">

<style type="text/css"><![CDATA[
.node, .edge {opacity: 0.7;}
.node.selected, .edge.selected {opacity: 1;}
.edge:hover path { stroke: red; }
.edge:hover polygon { stroke: red; fill: red; }
]]></style>

<defs>
  <circle id="rim" cx="0" cy="0" r="7"/>
  <circle id="rim2" cx="0" cy="0" r="3.5"/>
  <g id="zoomPlus">
    <use xlink:href="#rim" fill="#404040"><set attributeName="fill" to="#808080" begin="zoomplus.mouseover" end="zoomplus.mouseout"/></use>
    <path d="M-4,0h8M0,-4v8" fill="none" stroke="white" stroke-width="1.5" pointer-events="none"/>
  </g>
  <g id="zoomMin">
    <use xlink:href="#rim" fill="#404040"><set attributeName="fill" to="#808080" begin="zoomminus.mouseover" end="zoomminus.mouseout"/></use>
    <path d="M-4,0h8" fill="none" stroke="white" stroke-width="1.5" pointer-events="none"/>
  </g>
  <g id="arrowUp" transform="translate(30 24)">
    <use xlink:href="#rim"/>
    <path pointer-events="none" fill="none" stroke="white" stroke-width="1.5" d="M0,-3.0v7 M-2.5,-0.5L0,-3.0L2.5,-0.5"/>
  </g>
  <g id="arrowRight" transform="rotate(90) translate(36 -43)">
    <use xlink:href="#rim"/>
    <path pointer-events="none" fill="none" stroke="white" stroke-width="1.5" d="M0,-3.0v7 M-2.5,-0.5L0,-3.0L2.5,-0.5"/>
  </g>
  <g id="arrowDown" transform="rotate(180) translate(-30 -48)">
    <use xlink:href="#rim"/>
    <path pointer-events="none" fill="none" stroke="white" stroke-width="1.5" d="M0,-3.0v7 M-2.5,-0.5L0,-3.0L2.5,-0.5"/>
  </g>
  <g id="arrowLeft" transform="rotate(270) translate(-36 17)">
    <use xlink:href="#rim"/>
    <path pointer-events="none" fill="none" stroke="white" stroke-width="1.5" d="M0,-3.0v7 M-2.5,-0.5L0,-3.0L2.5,-0.5"/>
  </g>
  <g id="resetDef">
    <use xlink:href="#rim2" fill="#404040"><set attributeName="fill" to="#808080" begin="reset.mouseover" end="reset.mouseout"/></use>
  </g>
</defs>
<script type="application/ecmascript">
var viewWidth = 2008;
var viewHeight = 225;
var sectionId = 'dynsection-0';
</script>
<script type="application/ecmascript" xlink:href="svg.min.js"/>
<svg id="graph" class="graph">
<g id="viewport">
<title>/home/runner/work/no&#45;OS/no&#45;OS/projects/adrv902x/src/examples/basic_example/basic_example.c</title>
<!-- Node1 -->
<g id="Node000001" class="node">
<title>Node1</title>
<g id="a_Node000001"><a xlink:title="Basic example for the adrv902x project.">
<polygon fill="#999999" stroke="#666666" points="1111,-217 950,-217 950,-165 1111,-165 1111,-217"/>
<text text-anchor="start" x="958" y="-205" font-family="Helvetica,sans-Serif" font-size="10.00">/home/runner/work/no</text>
<text text-anchor="start" x="958" y="-194" font-family="Helvetica,sans-Serif" font-size="10.00">&#45;OS/no&#45;OS/projects/adrv902x</text>
<text text-anchor="start" x="958" y="-183" font-family="Helvetica,sans-Serif" font-size="10.00">/src/examples/basic_example</text>
<text text-anchor="middle" x="1030.5" y="-172" font-family="Helvetica,sans-Serif" font-size="10.00">/basic_example.c</text>
</a>
</g>
</g>
<!-- Node2 -->
<g id="Node000002" class="node">
<title>Node2</title>
<g id="a_Node000002"><a xlink:href="adrv902x_2src_2examples_2basic__example_2basic__example_8h.html" target="_top" xlink:title="Basic example header for the adrv902x project.">
<polygon fill="white" stroke="#666666" points="99,-129 0,-129 0,-110 99,-110 99,-129"/>
<text text-anchor="middle" x="49.5" y="-117" font-family="Helvetica,sans-Serif" font-size="10.00">basic_example.h</text>
</a>
</g>
</g>
<!-- Node1&#45;&gt;Node2 -->
<g id="edge1_Node000001_Node000002" class="edge">
<title>Node1&#45;&gt;Node2</title>
<g id="a_edge1_Node000001_Node000002"><a xlink:title=" ">
<path fill="none" stroke="#63b8ff" d="M949.76,-186.83C790.78,-180.1 425.86,-162.34 109.43,-129.13"/>
<polygon fill="#63b8ff" stroke="#63b8ff" points="109.45,-125.61 99.14,-128.04 108.72,-132.57 109.45,-125.61"/>
</a>
</g>
</g>
<!-- Node3 -->
<g id="Node000003" class="node">
<title>Node3</title>
<g id="a_Node000003"><a xlink:title=" ">
<polygon fill="#e0e0e0" stroke="#999999" points="212,-129 117,-129 117,-110 212,-110 212,-129"/>
<text text-anchor="middle" x="164.5" y="-117" font-family="Helvetica,sans-Serif" font-size="10.00">common_data.h</text>
</a>
</g>
</g>
<!-- Node1&#45;&gt;Node3 -->
<g id="edge2_Node000001_Node000003" class="edge">
<title>Node1&#45;&gt;Node3</title>
<g id="a_edge2_Node000001_Node000003"><a xlink:title=" ">
<path fill="none" stroke="#63b8ff" d="M949.94,-185.87C806.04,-178.07 495.16,-159.28 222.16,-128.98"/>
<polygon fill="#63b8ff" stroke="#63b8ff" points="222.38,-125.49 212.05,-127.86 221.6,-132.44 222.38,-125.49"/>
</a>
</g>
</g>
<!-- Node4 -->
<g id="Node000004" class="node">
<title>Node4</title>
<g id="a_Node000004"><a xlink:title=" ">
<polygon fill="#e0e0e0" stroke="#999999" points="312.5,-129 230.5,-129 230.5,-110 312.5,-110 312.5,-129"/>
<text text-anchor="middle" x="271.5" y="-117" font-family="Helvetica,sans-Serif" font-size="10.00">parameters.h</text>
</a>
</g>
</g>
<!-- Node1&#45;&gt;Node4 -->
<g id="edge3_Node000001_Node000004" class="edge">
<title>Node1&#45;&gt;Node4</title>
<g id="a_edge3_Node000001_Node000004"><a xlink:title=" ">
<path fill="none" stroke="#63b8ff" d="M949.99,-185.25C820.11,-177.1 556.13,-158.55 322.7,-129.05"/>
<polygon fill="#63b8ff" stroke="#63b8ff" points="323.02,-125.56 312.66,-127.77 322.14,-132.51 323.02,-125.56"/>
</a>
</g>
</g>
<!-- Node5 -->
<g id="Node000005" class="node">
<title>Node5</title>
<g id="a_Node000005"><a xlink:title=" ">
<polygon fill="#e0e0e0" stroke="#999999" points="408.5,-129 330.5,-129 330.5,-110 408.5,-110 408.5,-129"/>
<text text-anchor="middle" x="369.5" y="-117" font-family="Helvetica,sans-Serif" font-size="10.00">app_config.h</text>
</a>
</g>
</g>
<!-- Node1&#45;&gt;Node5 -->
<g id="edge4_Node000001_Node000005" class="edge">
<title>Node1&#45;&gt;Node5</title>
<g id="a_edge4_Node000001_Node000005"><a xlink:title=" ">
<path fill="none" stroke="#63b8ff" d="M949.68,-183.42C833.03,-173.58 610.8,-153.52 422.5,-129 421.23,-128.83 419.94,-128.66 418.64,-128.48"/>
<polygon fill="#63b8ff" stroke="#63b8ff" points="418.93,-124.99 408.54,-127.03 417.94,-131.92 418.93,-124.99"/>
</a>
</g>
</g>
<!-- Node6 -->
<g id="Node000006" class="node">
<title>Node6</title>
<g id="a_Node000006"><a xlink:title=" ">
<polygon fill="#e0e0e0" stroke="#999999" points="339.5,-19 289.5,-19 289.5,0 339.5,0 339.5,-19"/>
<text text-anchor="middle" x="314.5" y="-7" font-family="Helvetica,sans-Serif" font-size="10.00">stdio.h</text>
</a>
</g>
</g>
<!-- Node1&#45;&gt;Node6 -->
<g id="edge5_Node000001_Node000006" class="edge">
<title>Node1&#45;&gt;Node6</title>
<g id="a_edge5_Node000001_Node000006"><a xlink:title=" ">
<path fill="none" stroke="#63b8ff" d="M949.98,-185.26C813.88,-176.63 544.27,-156.63 453.5,-129 436.19,-123.73 434.27,-116.78 417.5,-110 364.29,-88.5 327.96,-119.89 293.5,-74 283.19,-60.27 291.8,-41.21 300.91,-27.57"/>
<polygon fill="#63b8ff" stroke="#63b8ff" points="304.01,-29.26 307.07,-19.11 298.35,-25.13 304.01,-29.26"/>
</a>
</g>
</g>
<!-- Node7 -->
<g id="Node000007" class="node">
<title>Node7</title>
<g id="a_Node000007"><a xlink:title=" ">
<polygon fill="#e0e0e0" stroke="#999999" points="1704,-19 1651,-19 1651,0 1704,0 1704,-19"/>
<text text-anchor="middle" x="1677.5" y="-7" font-family="Helvetica,sans-Serif" font-size="10.00">stdlib.h</text>
</a>
</g>
</g>
<!-- Node1&#45;&gt;Node7 -->
<g id="edge6_Node000001_Node000007" class="edge">
<title>Node1&#45;&gt;Node7</title>
<g id="a_edge6_Node000001_Node000007"><a xlink:title=" ">
<path fill="none" stroke="#63b8ff" d="M1111.12,-187.45C1262.11,-181.85 1581.67,-165.94 1685.5,-129 1731.75,-112.54 1793.4,-96.7 1767.5,-55 1755.83,-36.21 1733.62,-25.12 1714.18,-18.7"/>
<polygon fill="#63b8ff" stroke="#63b8ff" points="1714.93,-15.27 1704.34,-15.76 1712.92,-21.98 1714.93,-15.27"/>
</a>
</g>
</g>
<!-- Node8 -->
<g id="Node000008" class="node">
<title>Node8</title>
<g id="a_Node000008"><a xlink:title=" ">
<polygon fill="#e0e0e0" stroke="#999999" points="1819,-129 1766,-129 1766,-110 1819,-110 1819,-129"/>
<text text-anchor="middle" x="1792.5" y="-117" font-family="Helvetica,sans-Serif" font-size="10.00">string.h</text>
</a>
</g>
</g>
<!-- Node1&#45;&gt;Node8 -->
<g id="edge7_Node000001_Node000008" class="edge">
<title>Node1&#45;&gt;Node8</title>
<g id="a_edge7_Node000001_Node000008"><a xlink:title=" ">
<path fill="none" stroke="#63b8ff" d="M1111.15,-186.34C1244.81,-179.57 1520.43,-162.6 1751.5,-129 1752.79,-128.81 1754.11,-128.61 1755.44,-128.39"/>
<polygon fill="#63b8ff" stroke="#63b8ff" points="1756.46,-131.76 1765.68,-126.54 1755.21,-124.88 1756.46,-131.76"/>
</a>
</g>
</g>
<!-- Node9 -->
<g id="Node000009" class="node">
<title>Node9</title>
<g id="a_Node000009"><a xlink:href="no__os__print__log_8h.html" target="_top" xlink:title="Print messages helpers.">
<polygon fill="white" stroke="#666666" points="404.5,-74 302.5,-74 302.5,-55 404.5,-55 404.5,-74"/>
<text text-anchor="middle" x="353.5" y="-62" font-family="Helvetica,sans-Serif" font-size="10.00">no_os_print_log.h</text>
</a>
</g>
</g>
<!-- Node1&#45;&gt;Node9 -->
<g id="edge8_Node000001_Node000009" class="edge">
<title>Node1&#45;&gt;Node9</title>
<g id="a_edge8_Node000001_Node000009"><a xlink:title=" ">
<path fill="none" stroke="#63b8ff" d="M949.96,-188.12C844.71,-184 655.44,-170.87 499.5,-129 487.5,-125.78 420.36,-95.77 381.44,-78.18"/>
<polygon fill="#63b8ff" stroke="#63b8ff" points="382.76,-74.94 372.2,-74 379.87,-81.31 382.76,-74.94"/>
</a>
</g>
</g>
<!-- Node10 -->
<g id="Node000010" class="node">
<title>Node10</title>
<g id="a_Node000010"><a xlink:href="no__os__error_8h.html" target="_top" xlink:title="Error codes definition.">
<polygon fill="white" stroke="#666666" points="1919.5,-129 1837.5,-129 1837.5,-110 1919.5,-110 1919.5,-129"/>
<text text-anchor="middle" x="1878.5" y="-117" font-family="Helvetica,sans-Serif" font-size="10.00">no_os_error.h</text>
</a>
</g>
</g>
<!-- Node1&#45;&gt;Node10 -->
<g id="edge10_Node000001_Node000010" class="edge">
<title>Node1&#45;&gt;Node10</title>
<g id="a_edge10_Node000001_Node000010"><a xlink:title=" ">
<path fill="none" stroke="#63b8ff" d="M1111.16,-186.29C1253.64,-179.21 1559.28,-161.59 1827.03,-129.07"/>
<polygon fill="#63b8ff" stroke="#63b8ff" points="1827.84,-132.49 1837.34,-127.81 1826.99,-125.55 1827.84,-132.49"/>
</a>
</g>
</g>
<!-- Node12 -->
<g id="Node000012" class="node">
<title>Node12</title>
<g id="a_Node000012"><a xlink:href="no__os__util_8h.html" target="_top" xlink:title="Header file of utility functions.">
<polygon fill="white" stroke="#666666" points="1574,-74 1499,-74 1499,-55 1574,-55 1574,-74"/>
<text text-anchor="middle" x="1536.5" y="-62" font-family="Helvetica,sans-Serif" font-size="10.00">no_os_util.h</text>
</a>
</g>
</g>
<!-- Node1&#45;&gt;Node12 -->
<g id="edge12_Node000001_Node000012" class="edge">
<title>Node1&#45;&gt;Node12</title>
<g id="a_edge12_Node000001_Node000012"><a xlink:title=" ">
<path fill="none" stroke="#63b8ff" d="M1111.36,-186.78C1225.58,-180.98 1427.18,-165.75 1489.5,-129 1507.35,-118.47 1520.51,-98.24 1528.29,-83.44"/>
<polygon fill="#63b8ff" stroke="#63b8ff" points="1531.54,-84.76 1532.81,-74.24 1525.26,-81.67 1531.54,-84.76"/>
</a>
</g>
</g>
<!-- Node15 -->
<g id="Node000015" class="node">
<title>Node15</title>
<g id="a_Node000015"><a xlink:href="no__os__spi_8h.html" target="_top" xlink:title="Header file of SPI Interface.">
<polygon fill="white" stroke="#666666" points="496.5,-74 422.5,-74 422.5,-55 496.5,-55 496.5,-74"/>
<text text-anchor="middle" x="459.5" y="-62" font-family="Helvetica,sans-Serif" font-size="10.00">no_os_spi.h</text>
</a>
</g>
</g>
<!-- Node1&#45;&gt;Node15 -->
<g id="edge16_Node000001_Node000015" class="edge">
<title>Node1&#45;&gt;Node15</title>
<g id="a_edge16_Node000001_Node000015"><a xlink:title=" ">
<path fill="none" stroke="#63b8ff" d="M949.68,-185.93C828.03,-178.83 604.35,-161.72 531.5,-129 507.86,-118.38 486.38,-97.24 473.15,-82.27"/>
<polygon fill="#63b8ff" stroke="#63b8ff" points="475.51,-79.64 466.36,-74.3 470.18,-84.18 475.51,-79.64"/>
</a>
</g>
</g>
<!-- Node16 -->
<g id="Node000016" class="node">
<title>Node16</title>
<g id="a_Node000016"><a xlink:href="axi__jesd204__rx_8h.html" target="_top" xlink:title="Driver for the Analog Devices AXI&#45;JESD204&#45;RX peripheral.">
<polygon fill="white" stroke="#666666" points="1022,-129 923,-129 923,-110 1022,-110 1022,-129"/>
<text text-anchor="middle" x="972.5" y="-117" font-family="Helvetica,sans-Serif" font-size="10.00">axi_jesd204_rx.h</text>
</a>
</g>
</g>
<!-- Node1&#45;&gt;Node16 -->
<g id="edge18_Node000001_Node000016" class="edge">
<title>Node1&#45;&gt;Node16</title>
<g id="a_edge18_Node000001_Node000016"><a xlink:title=" ">
<path fill="none" stroke="#63b8ff" d="M1009.56,-164.91C1001.85,-155.67 993.32,-145.45 986.39,-137.14"/>
<polygon fill="#63b8ff" stroke="#63b8ff" points="988.94,-134.74 979.85,-129.3 983.57,-139.22 988.94,-134.74"/>
</a>
</g>
</g>
<!-- Node20 -->
<g id="Node000020" class="node">
<title>Node20</title>
<g id="a_Node000020"><a xlink:href="axi__jesd204__tx_8h.html" target="_top" xlink:title="Driver for the Analog Devices AXI&#45;JESD204&#45;TX peripheral.">
<polygon fill="white" stroke="#666666" points="1139,-129 1040,-129 1040,-110 1139,-110 1139,-129"/>
<text text-anchor="middle" x="1089.5" y="-117" font-family="Helvetica,sans-Serif" font-size="10.00">axi_jesd204_tx.h</text>
</a>
</g>
</g>
<!-- Node1&#45;&gt;Node20 -->
<g id="edge27_Node000001_Node000020" class="edge">
<title>Node1&#45;&gt;Node20</title>
<g id="a_edge27_Node000001_Node000020"><a xlink:title=" ">
<path fill="none" stroke="#63b8ff" d="M1051.8,-164.91C1059.64,-155.67 1068.32,-145.45 1075.37,-137.14"/>
<polygon fill="#63b8ff" stroke="#63b8ff" points="1078.22,-139.19 1082.03,-129.3 1072.89,-134.66 1078.22,-139.19"/>
</a>
</g>
</g>
<!-- Node21 -->
<g id="Node000021" class="node">
<title>Node21</title>
<g id="a_Node000021"><a xlink:href="axi__adc__core_8h.html" target="_top" xlink:title="Driver for the Analog Devices AXI&#45;ADC&#45;CORE module.">
<polygon fill="white" stroke="#666666" points="1389,-129 1300,-129 1300,-110 1389,-110 1389,-129"/>
<text text-anchor="middle" x="1344.5" y="-117" font-family="Helvetica,sans-Serif" font-size="10.00">axi_adc_core.h</text>
</a>
</g>
</g>
<!-- Node1&#45;&gt;Node21 -->
<g id="edge32_Node000001_Node000021" class="edge">
<title>Node1&#45;&gt;Node21</title>
<g id="a_edge32_Node000001_Node000021"><a xlink:title=" ">
<path fill="none" stroke="#63b8ff" d="M1111.36,-172.1C1169.72,-159.19 1246.6,-142.17 1295.8,-131.28"/>
<polygon fill="#63b8ff" stroke="#63b8ff" points="1296.85,-134.63 1305.86,-129.05 1295.34,-127.8 1296.85,-134.63"/>
</a>
</g>
</g>
<!-- Node22 -->
<g id="Node000022" class="node">
<title>Node22</title>
<g id="a_Node000022"><a xlink:href="axi__dac__core_8h.html" target="_top" xlink:title="Driver for the Analog Devices AXI&#45;DAC&#45;CORE module.">
<polygon fill="white" stroke="#666666" points="1230,-74 1141,-74 1141,-55 1230,-55 1230,-74"/>
<text text-anchor="middle" x="1185.5" y="-62" font-family="Helvetica,sans-Serif" font-size="10.00">axi_dac_core.h</text>
</a>
</g>
</g>
<!-- Node1&#45;&gt;Node22 -->
<g id="edge35_Node000001_Node000022" class="edge">
<title>Node1&#45;&gt;Node22</title>
<g id="a_edge35_Node000001_Node000022"><a xlink:title=" ">
<path fill="none" stroke="#63b8ff" d="M1094.8,-164.97C1113.56,-155.61 1133.12,-143.62 1148.5,-129 1161.91,-116.25 1172,-97.57 1178.23,-83.76"/>
<polygon fill="#63b8ff" stroke="#63b8ff" points="1181.54,-84.91 1182.23,-74.34 1175.1,-82.18 1181.54,-84.91"/>
</a>
</g>
</g>
<!-- Node23 -->
<g id="Node000023" class="node">
<title>Node23</title>
<g id="a_Node000023"><a xlink:href="axi__adxcvr_8h.html" target="_top" xlink:title="Driver for the ADI AXI&#45;ADXCVR Module.">
<polygon fill="white" stroke="#666666" points="1676.5,-129 1598.5,-129 1598.5,-110 1676.5,-110 1676.5,-129"/>
<text text-anchor="middle" x="1637.5" y="-117" font-family="Helvetica,sans-Serif" font-size="10.00">axi_adxcvr.h</text>
</a>
</g>
</g>
<!-- Node1&#45;&gt;Node23 -->
<g id="edge37_Node000001_Node000023" class="edge">
<title>Node1&#45;&gt;Node23</title>
<g id="a_edge37_Node000001_Node000023"><a xlink:title=" ">
<path fill="none" stroke="#63b8ff" d="M1111.1,-180.77C1238.75,-166.16 1483.64,-138.12 1588.21,-126.14"/>
<polygon fill="#63b8ff" stroke="#63b8ff" points="1588.64,-129.62 1598.18,-125 1587.84,-122.66 1588.64,-129.62"/>
</a>
</g>
</g>
<!-- Node25 -->
<g id="Node000025" class="node">
<title>Node25</title>
<g id="a_Node000025"><a xlink:href="axi__dmac_8h.html" target="_top" xlink:title="Driver for the Analog Devices AXI&#45;DMAC core.">
<polygon fill="white" stroke="#666666" points="1480,-129 1407,-129 1407,-110 1480,-110 1480,-129"/>
<text text-anchor="middle" x="1443.5" y="-117" font-family="Helvetica,sans-Serif" font-size="10.00">axi_dmac.h</text>
</a>
</g>
</g>
<!-- Node1&#45;&gt;Node25 -->
<g id="edge43_Node000001_Node000025" class="edge">
<title>Node1&#45;&gt;Node25</title>
<g id="a_edge43_Node000001_Node000025"><a xlink:title=" ">
<path fill="none" stroke="#63b8ff" d="M1111.35,-177.13C1183.64,-165.5 1292.74,-147.65 1396.64,-129.3"/>
<polygon fill="#63b8ff" stroke="#63b8ff" points="1397.44,-132.72 1406.68,-127.53 1396.22,-125.82 1397.44,-132.72"/>
</a>
</g>
</g>
<!-- Node26 -->
<g id="Node000026" class="node">
<title>Node26</title>
<g id="a_Node000026"><a xlink:href="xilinx__gpio_8h.html" target="_top" xlink:title=" ">
<polygon fill="white" stroke="#666666" points="1366,-74 1287,-74 1287,-55 1366,-55 1366,-74"/>
<text text-anchor="middle" x="1326.5" y="-62" font-family="Helvetica,sans-Serif" font-size="10.00">xilinx_gpio.h</text>
</a>
</g>
</g>
<!-- Node1&#45;&gt;Node26 -->
<g id="edge46_Node000001_Node000026" class="edge">
<title>Node1&#45;&gt;Node26</title>
<g id="a_edge46_Node000001_Node000026"><a xlink:title=" ">
<path fill="none" stroke="#63b8ff" d="M1090.04,-164.96C1152.75,-138.58 1248.91,-98.14 1296.99,-77.91"/>
<polygon fill="#63b8ff" stroke="#63b8ff" points="1298.35,-81.14 1306.22,-74.03 1295.64,-74.68 1298.35,-81.14"/>
</a>
</g>
</g>
<!-- Node27 -->
<g id="Node000027" class="node">
<title>Node27</title>
<g id="a_Node000027"><a xlink:href="xilinx__spi_8h.html" target="_top" xlink:title=" ">
<polygon fill="white" stroke="#666666" points="612.5,-129 540.5,-129 540.5,-110 612.5,-110 612.5,-129"/>
<text text-anchor="middle" x="576.5" y="-117" font-family="Helvetica,sans-Serif" font-size="10.00">xilinx_spi.h</text>
</a>
</g>
</g>
<!-- Node1&#45;&gt;Node27 -->
<g id="edge49_Node000001_Node000027" class="edge">
<title>Node1&#45;&gt;Node27</title>
<g id="a_edge49_Node000001_Node000027"><a xlink:title=" ">
<path fill="none" stroke="#63b8ff" d="M949.86,-177.65C854.7,-163.09 699.74,-139.37 622.83,-127.59"/>
<polygon fill="#63b8ff" stroke="#63b8ff" points="622.92,-124.07 612.51,-126.01 621.86,-130.99 622.92,-124.07"/>
</a>
</g>
</g>
<!-- Node28 -->
<g id="Node000028" class="node">
<title>Node28</title>
<g id="a_Node000028"><a xlink:href="clkgen__routines_8h.html" target="_top" xlink:title="Defines clkgen init and settings to be used by adrv902x examples.">
<polygon fill="white" stroke="#666666" points="785,-129 682,-129 682,-110 785,-110 785,-129"/>
<text text-anchor="middle" x="733.5" y="-117" font-family="Helvetica,sans-Serif" font-size="10.00">clkgen_routines.h</text>
</a>
</g>
</g>
<!-- Node1&#45;&gt;Node28 -->
<g id="edge52_Node000001_Node000028" class="edge">
<title>Node1&#45;&gt;Node28</title>
<g id="a_edge52_Node000001_Node000028"><a xlink:title=" ">
<path fill="none" stroke="#63b8ff" d="M949.74,-171.1C895.28,-158.36 825.36,-142 780,-131.38"/>
<polygon fill="#63b8ff" stroke="#63b8ff" points="780.68,-127.95 770.15,-129.08 779.09,-134.76 780.68,-127.95"/>
</a>
</g>
</g>
<!-- Node31 -->
<g id="Node000031" class="node">
<title>Node31</title>
<g id="a_Node000031"><a xlink:title=" ">
<polygon fill="#e0e0e0" stroke="#999999" points="872,-74 801,-74 801,-55 872,-55 872,-74"/>
<text text-anchor="middle" x="836.5" y="-62" font-family="Helvetica,sans-Serif" font-size="10.00">adrv9025.h</text>
</a>
</g>
</g>
<!-- Node1&#45;&gt;Node31 -->
<g id="edge58_Node000001_Node000031" class="edge">
<title>Node1&#45;&gt;Node31</title>
<g id="a_edge58_Node000001_Node000031"><a xlink:title=" ">
<path fill="none" stroke="#63b8ff" d="M977.55,-164.96C957.31,-154.67 934.34,-142.1 914.5,-129 892.37,-114.38 869.05,-94.76 853.73,-81.22"/>
<polygon fill="#63b8ff" stroke="#63b8ff" points="855.89,-78.45 846.11,-74.39 851.22,-83.67 855.89,-78.45"/>
</a>
</g>
</g>
<!-- Node32 -->
<g id="Node000032" class="node">
<title>Node32</title>
<g id="a_Node000032"><a xlink:title=" ">
<polygon fill="#e0e0e0" stroke="#999999" points="1999.5,-129 1937.5,-129 1937.5,-110 1999.5,-110 1999.5,-129"/>
<text text-anchor="middle" x="1968.5" y="-117" font-family="Helvetica,sans-Serif" font-size="10.00">ad9528.h</text>
</a>
</g>
</g>
<!-- Node1&#45;&gt;Node32 -->
<g id="edge59_Node000001_Node000032" class="edge">
<title>Node1&#45;&gt;Node32</title>
<g id="a_edge59_Node000001_Node000032"><a xlink:title=" ">
<path fill="none" stroke="#63b8ff" d="M1111.09,-188.35C1267.07,-184.31 1621.13,-171.09 1927.18,-128.99"/>
<polygon fill="#63b8ff" stroke="#63b8ff" points="1927.71,-132.45 1937.13,-127.6 1926.75,-125.51 1927.71,-132.45"/>
</a>
</g>
</g>
<!-- Node9&#45;&gt;Node6 -->
<g id="edge9_Node000009_Node000006" class="edge">
<title>Node9&#45;&gt;Node6</title>
<g id="a_edge9_Node000009_Node000006"><a xlink:title=" ">
<path fill="none" stroke="#63b8ff" d="M347.06,-54.75C341.61,-47.34 333.64,-36.5 326.94,-27.41"/>
<polygon fill="#63b8ff" stroke="#63b8ff" points="329.57,-25.07 320.82,-19.09 323.93,-29.22 329.57,-25.07"/>
</a>
</g>
</g>
<!-- Node11 -->
<g id="Node000011" class="node">
<title>Node11</title>
<g id="a_Node000011"><a xlink:href="errno_8h.html" target="_top" xlink:title="Error macro definition for ARM Compiler.">
<polygon fill="white" stroke="#666666" points="1904,-74 1853,-74 1853,-55 1904,-55 1904,-74"/>
<text text-anchor="middle" x="1878.5" y="-62" font-family="Helvetica,sans-Serif" font-size="10.00">errno.h</text>
</a>
</g>
</g>
<!-- Node10&#45;&gt;Node11 -->
<g id="edge11_Node000010_Node000011" class="edge">
<title>Node10&#45;&gt;Node11</title>
<g id="a_edge11_Node000010_Node000011"><a xlink:title=" ">
<path fill="none" stroke="#63b8ff" d="M1878.5,-109.75C1878.5,-102.8 1878.5,-92.85 1878.5,-84.13"/>
<polygon fill="#63b8ff" stroke="#63b8ff" points="1882,-84.09 1878.5,-74.09 1875,-84.09 1882,-84.09"/>
</a>
</g>
</g>
<!-- Node12&#45;&gt;Node7 -->
<g id="edge14_Node000012_Node000007" class="edge">
<title>Node12&#45;&gt;Node7</title>
<g id="a_edge14_Node000012_Node000007"><a xlink:title=" ">
<path fill="none" stroke="#63b8ff" d="M1559.15,-54.98C1582.35,-46.27 1618.62,-32.63 1644.9,-22.75"/>
<polygon fill="#63b8ff" stroke="#63b8ff" points="1646.3,-25.97 1654.43,-19.17 1643.84,-19.41 1646.3,-25.97"/>
</a>
</g>
</g>
<!-- Node13 -->
<g id="Node000013" class="node">
<title>Node13</title>
<g id="a_Node000013"><a xlink:title=" ">
<polygon fill="#e0e0e0" stroke="#999999" points="1182,-19 1129,-19 1129,0 1182,0 1182,-19"/>
<text text-anchor="middle" x="1155.5" y="-7" font-family="Helvetica,sans-Serif" font-size="10.00">stdint.h</text>
</a>
</g>
</g>
<!-- Node12&#45;&gt;Node13 -->
<g id="edge13_Node000012_Node000013" class="edge">
<title>Node12&#45;&gt;Node13</title>
<g id="a_edge13_Node000012_Node000013"><a xlink:title=" ">
<path fill="none" stroke="#63b8ff" d="M1498.93,-58.27C1425.74,-48.09 1264.91,-25.72 1192.33,-15.62"/>
<polygon fill="#63b8ff" stroke="#63b8ff" points="1192.67,-12.14 1182.28,-14.23 1191.7,-19.07 1192.67,-12.14"/>
</a>
</g>
</g>
<!-- Node14 -->
<g id="Node000014" class="node">
<title>Node14</title>
<g id="a_Node000014"><a xlink:title=" ">
<polygon fill="#e0e0e0" stroke="#999999" points="1501.5,-19 1439.5,-19 1439.5,0 1501.5,0 1501.5,-19"/>
<text text-anchor="middle" x="1470.5" y="-7" font-family="Helvetica,sans-Serif" font-size="10.00">stdbool.h</text>
</a>
</g>
</g>
<!-- Node12&#45;&gt;Node14 -->
<g id="edge15_Node000012_Node000014" class="edge">
<title>Node12&#45;&gt;Node14</title>
<g id="a_edge15_Node000012_Node000014"><a xlink:title=" ">
<path fill="none" stroke="#63b8ff" d="M1525.9,-54.98C1516.04,-47.07 1501.15,-35.11 1489.28,-25.58"/>
<polygon fill="#63b8ff" stroke="#63b8ff" points="1491.29,-22.7 1481.3,-19.17 1486.9,-28.16 1491.29,-22.7"/>
</a>
</g>
</g>
<!-- Node15&#45;&gt;Node13 -->
<g id="edge17_Node000015_Node000013" class="edge">
<title>Node15&#45;&gt;Node13</title>
<g id="a_edge17_Node000015_Node000013"><a xlink:title=" ">
<path fill="none" stroke="#63b8ff" d="M496.76,-56.83C501.38,-56.14 506.04,-55.51 510.5,-55 766.67,-25.77 832.83,-43.48 1089.5,-19 1099.04,-18.09 1109.34,-16.88 1118.89,-15.65"/>
<polygon fill="#63b8ff" stroke="#63b8ff" points="1119.43,-19.11 1128.89,-14.33 1118.52,-12.17 1119.43,-19.11"/>
</a>
</g>
</g>
<!-- Node16&#45;&gt;Node13 -->
<g id="edge19_Node000016_Node000013" class="edge">
<title>Node16&#45;&gt;Node13</title>
<g id="a_edge19_Node000016_Node000013"><a xlink:title=" ">
<path fill="none" stroke="#63b8ff" d="M956.19,-109.89C935.18,-97.69 903.19,-74.68 919.5,-55 925.85,-47.34 1053.93,-26.36 1118.68,-16.19"/>
<polygon fill="#63b8ff" stroke="#63b8ff" points="1119.54,-19.6 1128.88,-14.59 1118.46,-12.68 1119.54,-19.6"/>
</a>
</g>
</g>
<!-- Node16&#45;&gt;Node14 -->
<g id="edge20_Node000016_Node000014" class="edge">
<title>Node16&#45;&gt;Node14</title>
<g id="a_edge20_Node000016_Node000014"><a xlink:title=" ">
<path fill="none" stroke="#63b8ff" d="M1022.02,-111.04C1093.47,-100.15 1219.19,-80.49 1239.5,-74 1257.87,-68.13 1260.33,-61.44 1278.5,-55 1329.13,-37.06 1389.86,-24.39 1429.26,-17.27"/>
<polygon fill="#63b8ff" stroke="#63b8ff" points="1430.06,-20.69 1439.3,-15.5 1428.84,-13.79 1430.06,-20.69"/>
</a>
</g>
</g>
<!-- Node17 -->
<g id="Node000017" class="node">
<title>Node17</title>
<g id="a_Node000017"><a xlink:href="jesd204_8h.html" target="_top" xlink:title=" ">
<polygon fill="white" stroke="#666666" points="1084.5,-74 1020.5,-74 1020.5,-55 1084.5,-55 1084.5,-74"/>
<text text-anchor="middle" x="1052.5" y="-62" font-family="Helvetica,sans-Serif" font-size="10.00">jesd204.h</text>
</a>
</g>
</g>
<!-- Node16&#45;&gt;Node17 -->
<g id="edge21_Node000016_Node000017" class="edge">
<title>Node16&#45;&gt;Node17</title>
<g id="a_edge21_Node000016_Node000017"><a xlink:title=" ">
<path fill="none" stroke="#63b8ff" d="M985.35,-109.98C997.64,-101.84 1016.41,-89.41 1030.98,-79.76"/>
<polygon fill="#63b8ff" stroke="#63b8ff" points="1033.01,-82.61 1039.41,-74.17 1029.14,-76.78 1033.01,-82.61"/>
</a>
</g>
</g>
<!-- Node19 -->
<g id="Node000019" class="node">
<title>Node19</title>
<g id="a_Node000019"><a xlink:href="no__os__clk_8h.html" target="_top" xlink:title="Header file of Clock Driver.">
<polygon fill="white" stroke="#666666" points="1002.5,-74 928.5,-74 928.5,-55 1002.5,-55 1002.5,-74"/>
<text text-anchor="middle" x="965.5" y="-62" font-family="Helvetica,sans-Serif" font-size="10.00">no_os_clk.h</text>
</a>
</g>
</g>
<!-- Node16&#45;&gt;Node19 -->
<g id="edge25_Node000016_Node000019" class="edge">
<title>Node16&#45;&gt;Node19</title>
<g id="a_edge25_Node000016_Node000019"><a xlink:title=" ">
<path fill="none" stroke="#63b8ff" d="M971.34,-109.75C970.43,-102.8 969.11,-92.85 967.96,-84.13"/>
<polygon fill="#63b8ff" stroke="#63b8ff" points="971.41,-83.54 966.63,-74.09 964.47,-84.46 971.41,-83.54"/>
</a>
</g>
</g>
<!-- Node17&#45;&gt;Node13 -->
<g id="edge24_Node000017_Node000013" class="edge">
<title>Node17&#45;&gt;Node13</title>
<g id="a_edge24_Node000017_Node000013"><a xlink:title=" ">
<path fill="none" stroke="#63b8ff" d="M1069.05,-54.98C1085.39,-46.57 1110.63,-33.59 1129.63,-23.81"/>
<polygon fill="#63b8ff" stroke="#63b8ff" points="1131.36,-26.86 1138.65,-19.17 1128.16,-20.63 1131.36,-26.86"/>
</a>
</g>
</g>
<!-- Node17&#45;&gt;Node14 -->
<g id="edge22_Node000017_Node000014" class="edge">
<title>Node17&#45;&gt;Node14</title>
<g id="a_edge22_Node000017_Node000014"><a xlink:title=" ">
<path fill="none" stroke="#63b8ff" d="M1084.61,-59.43C1159.59,-49.92 1346.15,-26.27 1429.34,-15.72"/>
<polygon fill="#63b8ff" stroke="#63b8ff" points="1429.94,-19.17 1439.42,-14.44 1429.06,-12.23 1429.94,-19.17"/>
</a>
</g>
</g>
<!-- Node18 -->
<g id="Node000018" class="node">
<title>Node18</title>
<g id="a_Node000018"><a xlink:title=" ">
<polygon fill="#e0e0e0" stroke="#999999" points="1080.5,-19 1024.5,-19 1024.5,0 1080.5,0 1080.5,-19"/>
<text text-anchor="middle" x="1052.5" y="-7" font-family="Helvetica,sans-Serif" font-size="10.00">stddef.h</text>
</a>
</g>
</g>
<!-- Node17&#45;&gt;Node18 -->
<g id="edge23_Node000017_Node000018" class="edge">
<title>Node17&#45;&gt;Node18</title>
<g id="a_edge23_Node000017_Node000018"><a xlink:title=" ">
<path fill="none" stroke="#63b8ff" d="M1052.5,-54.75C1052.5,-47.8 1052.5,-37.85 1052.5,-29.13"/>
<polygon fill="#63b8ff" stroke="#63b8ff" points="1056,-29.09 1052.5,-19.09 1049,-29.09 1056,-29.09"/>
</a>
</g>
</g>
<!-- Node19&#45;&gt;Node13 -->
<g id="edge26_Node000019_Node000013" class="edge">
<title>Node19&#45;&gt;Node13</title>
<g id="a_edge26_Node000019_Node000013"><a xlink:title=" ">
<path fill="none" stroke="#63b8ff" d="M996.03,-54.98C1029.44,-45.66 1083.01,-30.72 1118.72,-20.76"/>
<polygon fill="#63b8ff" stroke="#63b8ff" points="1120.04,-24.02 1128.73,-17.97 1118.16,-17.28 1120.04,-24.02"/>
</a>
</g>
</g>
<!-- Node20&#45;&gt;Node13 -->
<g id="edge28_Node000020_Node000013" class="edge">
<title>Node20&#45;&gt;Node13</title>
<g id="a_edge28_Node000020_Node000013"><a xlink:title=" ">
<path fill="none" stroke="#63b8ff" d="M1094.9,-109.66C1105.83,-91.77 1130.75,-51 1144.99,-27.69"/>
<polygon fill="#63b8ff" stroke="#63b8ff" points="1147.98,-29.52 1150.21,-19.16 1142.01,-25.87 1147.98,-29.52"/>
</a>
</g>
</g>
<!-- Node20&#45;&gt;Node14 -->
<g id="edge29_Node000020_Node000014" class="edge">
<title>Node20&#45;&gt;Node14</title>
<g id="a_edge29_Node000020_Node000014"><a xlink:title=" ">
<path fill="none" stroke="#63b8ff" d="M1139.25,-117.24C1197.67,-114.31 1296.61,-104.76 1375.5,-74 1405.04,-62.48 1434.73,-40.59 1452.86,-25.77"/>
<polygon fill="#63b8ff" stroke="#63b8ff" points="1455.36,-28.24 1460.79,-19.14 1450.87,-22.87 1455.36,-28.24"/>
</a>
</g>
</g>
<!-- Node20&#45;&gt;Node17 -->
<g id="edge30_Node000020_Node000017" class="edge">
<title>Node20&#45;&gt;Node17</title>
<g id="a_edge30_Node000020_Node000017"><a xlink:title=" ">
<path fill="none" stroke="#63b8ff" d="M1083.39,-109.75C1078.22,-102.34 1070.65,-91.5 1064.31,-82.41"/>
<polygon fill="#63b8ff" stroke="#63b8ff" points="1067.09,-80.29 1058.5,-74.09 1061.35,-84.29 1067.09,-80.29"/>
</a>
</g>
</g>
<!-- Node20&#45;&gt;Node19 -->
<g id="edge31_Node000020_Node000019" class="edge">
<title>Node20&#45;&gt;Node19</title>
<g id="a_edge31_Node000020_Node000019"><a xlink:title=" ">
<path fill="none" stroke="#63b8ff" d="M1069.58,-109.98C1049.45,-101.38 1018.12,-87.99 995.09,-78.15"/>
<polygon fill="#63b8ff" stroke="#63b8ff" points="996.36,-74.88 985.79,-74.17 993.6,-81.32 996.36,-74.88"/>
</a>
</g>
</g>
<!-- Node21&#45;&gt;Node12 -->
<g id="edge34_Node000021_Node000012" class="edge">
<title>Node21&#45;&gt;Node12</title>
<g id="a_edge34_Node000021_Node000012"><a xlink:title=" ">
<path fill="none" stroke="#63b8ff" d="M1375.35,-109.98C1408,-100.97 1459.7,-86.7 1495.7,-76.76"/>
<polygon fill="#63b8ff" stroke="#63b8ff" points="1496.7,-80.12 1505.41,-74.08 1494.84,-73.37 1496.7,-80.12"/>
</a>
</g>
</g>
<!-- Node21&#45;&gt;Node13 -->
<g id="edge33_Node000021_Node000013" class="edge">
<title>Node21&#45;&gt;Node13</title>
<g id="a_edge33_Node000021_Node000013"><a xlink:title=" ">
<path fill="none" stroke="#63b8ff" d="M1354.32,-109.98C1368,-97.09 1389.64,-72.28 1375.5,-55 1352.79,-27.23 1248.93,-16.39 1192.41,-12.49"/>
<polygon fill="#63b8ff" stroke="#63b8ff" points="1192.31,-8.97 1182.11,-11.82 1191.86,-15.96 1192.31,-8.97"/>
</a>
</g>
</g>
<!-- Node22&#45;&gt;Node13 -->
<g id="edge36_Node000022_Node000013" class="edge">
<title>Node22&#45;&gt;Node13</title>
<g id="a_edge36_Node000022_Node000013"><a xlink:title=" ">
<path fill="none" stroke="#63b8ff" d="M1180.55,-54.75C1176.44,-47.49 1170.47,-36.95 1165.4,-27.98"/>
<polygon fill="#63b8ff" stroke="#63b8ff" points="1168.33,-26.07 1160.36,-19.09 1162.24,-29.52 1168.33,-26.07"/>
</a>
</g>
</g>
<!-- Node23&#45;&gt;Node13 -->
<g id="edge38_Node000023_Node000013" class="edge">
<title>Node23&#45;&gt;Node13</title>
<g id="a_edge38_Node000023_Node000013"><a xlink:title=" ">
<path fill="none" stroke="#63b8ff" d="M1632.94,-109.67C1625.03,-95.38 1607.31,-67.55 1583.5,-55 1515.87,-19.37 1282.85,-12.27 1192.09,-10.85"/>
<polygon fill="#63b8ff" stroke="#63b8ff" points="1192.05,-7.35 1182,-10.71 1191.95,-14.35 1192.05,-7.35"/>
</a>
</g>
</g>
<!-- Node23&#45;&gt;Node14 -->
<g id="edge39_Node000023_Node000014" class="edge">
<title>Node23&#45;&gt;Node14</title>
<g id="a_edge39_Node000023_Node000014"><a xlink:title=" ">
<path fill="none" stroke="#63b8ff" d="M1676.67,-111.57C1718.72,-102.46 1776.37,-84.11 1751.5,-55 1721.18,-19.5 1582.4,-12.16 1511.89,-10.75"/>
<polygon fill="#63b8ff" stroke="#63b8ff" points="1511.65,-7.25 1501.59,-10.58 1511.53,-14.25 1511.65,-7.25"/>
</a>
</g>
</g>
<!-- Node24 -->
<g id="Node000024" class="node">
<title>Node24</title>
<g id="a_Node000024"><a xlink:href="xilinx__transceiver_8h.html" target="_top" xlink:title="Driver for the Xilinx High&#45;speed transceiver dynamic reconfiguration.">
<polygon fill="white" stroke="#666666" points="1742.5,-74 1630.5,-74 1630.5,-55 1742.5,-55 1742.5,-74"/>
<text text-anchor="middle" x="1686.5" y="-62" font-family="Helvetica,sans-Serif" font-size="10.00">xilinx_transceiver.h</text>
</a>
</g>
</g>
<!-- Node23&#45;&gt;Node24 -->
<g id="edge40_Node000023_Node000024" class="edge">
<title>Node23&#45;&gt;Node24</title>
<g id="a_edge40_Node000023_Node000024"><a xlink:title=" ">
<path fill="none" stroke="#63b8ff" d="M1645.59,-109.75C1652.66,-102.11 1663.09,-90.82 1671.65,-81.56"/>
<polygon fill="#63b8ff" stroke="#63b8ff" points="1674.34,-83.81 1678.56,-74.09 1669.2,-79.06 1674.34,-83.81"/>
</a>
</g>
</g>
<!-- Node24&#45;&gt;Node13 -->
<g id="edge41_Node000024_Node000013" class="edge">
<title>Node24&#45;&gt;Node13</title>
<g id="a_edge41_Node000024_Node000013"><a xlink:title=" ">
<path fill="none" stroke="#63b8ff" d="M1630.35,-56.56C1625.67,-56.02 1621,-55.49 1616.5,-55 1458.85,-37.82 1270.5,-20.7 1192.31,-13.74"/>
<polygon fill="#63b8ff" stroke="#63b8ff" points="1192.3,-10.23 1182.03,-12.83 1191.68,-17.2 1192.3,-10.23"/>
</a>
</g>
</g>
<!-- Node24&#45;&gt;Node14 -->
<g id="edge42_Node000024_Node000014" class="edge">
<title>Node24&#45;&gt;Node14</title>
<g id="a_edge42_Node000024_Node000014"><a xlink:title=" ">
<path fill="none" stroke="#63b8ff" d="M1651.8,-54.98C1613.54,-45.6 1552.04,-30.51 1511.46,-20.55"/>
<polygon fill="#63b8ff" stroke="#63b8ff" points="1512.16,-17.12 1501.61,-18.13 1510.49,-23.92 1512.16,-17.12"/>
</a>
</g>
</g>
<!-- Node25&#45;&gt;Node12 -->
<g id="edge45_Node000025_Node000012" class="edge">
<title>Node25&#45;&gt;Node12</title>
<g id="a_edge45_Node000025_Node000012"><a xlink:title=" ">
<path fill="none" stroke="#63b8ff" d="M1458.44,-109.98C1473,-101.69 1495.37,-88.94 1512.43,-79.22"/>
<polygon fill="#63b8ff" stroke="#63b8ff" points="1514.33,-82.16 1521.29,-74.17 1510.86,-76.08 1514.33,-82.16"/>
</a>
</g>
</g>
<!-- Node25&#45;&gt;Node13 -->
<g id="edge44_Node000025_Node000013" class="edge">
<title>Node25&#45;&gt;Node13</title>
<g id="a_edge44_Node000025_Node000013"><a xlink:title=" ">
<path fill="none" stroke="#63b8ff" d="M1439.07,-109.89C1431.42,-95.92 1414.29,-68.52 1391.5,-55 1328.7,-17.74 1241.36,-10.63 1192.46,-9.86"/>
<polygon fill="#63b8ff" stroke="#63b8ff" points="1192.37,-6.36 1182.34,-9.78 1192.31,-13.36 1192.37,-6.36"/>
</a>
</g>
</g>
<!-- Node26&#45;&gt;Node13 -->
<g id="edge47_Node000026_Node000013" class="edge">
<title>Node26&#45;&gt;Node13</title>
<g id="a_edge47_Node000026_Node000013"><a xlink:title=" ">
<path fill="none" stroke="#63b8ff" d="M1299.03,-54.98C1269.98,-45.98 1224.01,-31.73 1191.94,-21.8"/>
<polygon fill="#63b8ff" stroke="#63b8ff" points="1192.65,-18.35 1182.06,-18.73 1190.58,-25.04 1192.65,-18.35"/>
</a>
</g>
</g>
<!-- Node26&#45;&gt;Node14 -->
<g id="edge48_Node000026_Node000014" class="edge">
<title>Node26&#45;&gt;Node14</title>
<g id="a_edge48_Node000026_Node000014"><a xlink:title=" ">
<path fill="none" stroke="#63b8ff" d="M1349.64,-54.98C1373.32,-46.27 1410.37,-32.63 1437.21,-22.75"/>
<polygon fill="#63b8ff" stroke="#63b8ff" points="1438.77,-25.91 1446.94,-19.17 1436.35,-19.34 1438.77,-25.91"/>
</a>
</g>
</g>
<!-- Node27&#45;&gt;Node13 -->
<g id="edge50_Node000027_Node000013" class="edge">
<title>Node27&#45;&gt;Node13</title>
<g id="a_edge50_Node000027_Node000013"><a xlink:title=" ">
<path fill="none" stroke="#63b8ff" d="M565.95,-109.79C551.24,-96.64 528.05,-71.51 543.5,-55 585.05,-10.62 1028.99,-24.89 1089.5,-19 1099.04,-18.07 1109.33,-16.85 1118.88,-15.63"/>
<polygon fill="#63b8ff" stroke="#63b8ff" points="1119.43,-19.09 1128.89,-14.31 1118.52,-12.15 1119.43,-19.09"/>
</a>
</g>
</g>
<!-- Node27&#45;&gt;Node15 -->
<g id="edge51_Node000027_Node000015" class="edge">
<title>Node27&#45;&gt;Node15</title>
<g id="a_edge51_Node000027_Node000015"><a xlink:title=" ">
<path fill="none" stroke="#63b8ff" d="M557.7,-109.98C538.88,-101.46 509.68,-88.23 488,-78.41"/>
<polygon fill="#63b8ff" stroke="#63b8ff" points="489.19,-75.11 478.64,-74.17 486.3,-81.48 489.19,-75.11"/>
</a>
</g>
</g>
<!-- Node28&#45;&gt;Node9 -->
<g id="edge54_Node000028_Node000009" class="edge">
<title>Node28&#45;&gt;Node9</title>
<g id="a_edge54_Node000028_Node000009"><a xlink:title=" ">
<path fill="none" stroke="#63b8ff" d="M681.95,-111.37C620.74,-102.9 515.28,-88.27 414.6,-74.15"/>
<polygon fill="#63b8ff" stroke="#63b8ff" points="414.95,-70.67 404.56,-72.74 413.98,-77.6 414.95,-70.67"/>
</a>
</g>
</g>
<!-- Node29 -->
<g id="Node000029" class="node">
<title>Node29</title>
<g id="a_Node000029"><a xlink:title=" ">
<polygon fill="#e0e0e0" stroke="#999999" points="666,-74 553,-74 553,-55 666,-55 666,-74"/>
<text text-anchor="middle" x="609.5" y="-62" font-family="Helvetica,sans-Serif" font-size="10.00">platform_includes.h</text>
</a>
</g>
</g>
<!-- Node28&#45;&gt;Node29 -->
<g id="edge53_Node000028_Node000029" class="edge">
<title>Node28&#45;&gt;Node29</title>
<g id="a_edge53_Node000028_Node000029"><a xlink:title=" ">
<path fill="none" stroke="#63b8ff" d="M713.58,-109.98C693.45,-101.38 662.12,-87.99 639.09,-78.15"/>
<polygon fill="#63b8ff" stroke="#63b8ff" points="640.36,-74.88 629.79,-74.17 637.6,-81.32 640.36,-74.88"/>
</a>
</g>
</g>
<!-- Node30 -->
<g id="Node000030" class="node">
<title>Node30</title>
<g id="a_Node000030"><a xlink:href="clk__axi__clkgen_8h.html" target="_top" xlink:title="Driver for the Analog Devices AXI CLKGEN.">
<polygon fill="white" stroke="#666666" points="782.5,-74 684.5,-74 684.5,-55 782.5,-55 782.5,-74"/>
<text text-anchor="middle" x="733.5" y="-62" font-family="Helvetica,sans-Serif" font-size="10.00">clk_axi_clkgen.h</text>
</a>
</g>
</g>
<!-- Node28&#45;&gt;Node30 -->
<g id="edge55_Node000028_Node000030" class="edge">
<title>Node28&#45;&gt;Node30</title>
<g id="a_edge55_Node000028_Node000030"><a xlink:title=" ">
<path fill="none" stroke="#63b8ff" d="M733.5,-109.75C733.5,-102.8 733.5,-92.85 733.5,-84.13"/>
<polygon fill="#63b8ff" stroke="#63b8ff" points="737,-84.09 733.5,-74.09 730,-84.09 737,-84.09"/>
</a>
</g>
</g>
<!-- Node28&#45;&gt;Node31 -->
<g id="edge57_Node000028_Node000031" class="edge">
<title>Node28&#45;&gt;Node31</title>
<g id="a_edge57_Node000028_Node000031"><a xlink:title=" ">
<path fill="none" stroke="#63b8ff" d="M750.05,-109.98C766.39,-101.57 791.63,-88.59 810.63,-78.81"/>
<polygon fill="#63b8ff" stroke="#63b8ff" points="812.36,-81.86 819.65,-74.17 809.16,-75.63 812.36,-81.86"/>
</a>
</g>
</g>
<!-- Node30&#45;&gt;Node13 -->
<g id="edge56_Node000030_Node000013" class="edge">
<title>Node30&#45;&gt;Node13</title>
<g id="a_edge56_Node000030_Node000013"><a xlink:title=" ">
<path fill="none" stroke="#63b8ff" d="M782.54,-56.22C785.57,-55.8 788.57,-55.39 791.5,-55 923.73,-37.33 957.12,-35.52 1089.5,-19 1099.01,-17.81 1109.29,-16.5 1118.85,-15.27"/>
<polygon fill="#63b8ff" stroke="#63b8ff" points="1119.38,-18.73 1128.85,-13.98 1118.49,-11.79 1119.38,-18.73"/>
</a>
</g>
</g>
</g>
</svg>

<g id="navigator" transform="translate(0 0)" fill="#404254">
  <rect fill="#f2f5e9" fill-opacity="0.5" stroke="#606060" stroke-width=".5" x="0" y="0" width="60" height="60"/>
  <use id="zoomplus" xlink:href="#zoomPlus" x="17" y="9" onmousedown="handleZoom(evt,'in')"/>
  <use id="zoomminus" xlink:href="#zoomMin" x="42" y="9" onmousedown="handleZoom(evt,'out')"/>
  <use id="reset" xlink:href="#resetDef" x="30" y="36" onmousedown="handleReset()"/>
   <use id="arrowup" xlink:href="#arrowUp" x="0" y="0" onmousedown="handlePan(0,-1)"/>
  <use id="arrowright" xlink:href="#arrowRight" x="0" y="0" onmousedown="handlePan(1,0)"/>
  <use id="arrowdown" xlink:href="#arrowDown" x="0" y="0" onmousedown="handlePan(0,1)"/>
  <use id="arrowleft" xlink:href="#arrowLeft" x="0" y="0" onmousedown="handlePan(-1,0)"/>
</g>
<svg viewBox="0 0 15 15" width="100%" height="30px" preserveAspectRatio="xMaxYMin meet">
 <g id="arrow_out" transform="scale(0.3 0.3)">
  <a xlink:href="adrv902x_2src_2examples_2basic__example_2basic__example_8c__incl_org.svg" target="_base">
   <rect id="button" ry="5" rx="5" y="6" x="6" height="38" width="38"
        fill="#f2f5e9" fill-opacity="0.5" stroke="#606060" stroke-width="1.0"/>
   <path id="arrow"
     d="M 11.500037,31.436501 C 11.940474,20.09759 22.043105,11.32322 32.158766,21.979434 L 37.068811,17.246167 C 37.068811,17.246167 37.088388,32 37.088388,32 L 22.160133,31.978069 C 22.160133,31.978069 26.997745,27.140456 26.997745,27.140456 C 18.528582,18.264221 13.291696,25.230495 11.500037,31.436501 z"
     style="fill:#404040;"/>
  </a>
 </g>
</svg>

<style type='text/css'>
<![CDATA[
[data-mouse-over-selected='false'] { opacity: 0.7; }
[data-mouse-over-selected='true']  { opacity: 1.0; }
]]>
</style>
<script type="application/ecmascript"><![CDATA[
document.addEventListener('DOMContentLoaded', (event) => {
  highlightEdges();
  highlightAdjacentNodes();
});
]]></script>
</svg>
