<?xml version="1.0" encoding="UTF-8" standalone="no"?>
<!DOCTYPE svg PUBLIC "-//W3C//DTD SVG 1.1//EN"
 "http://www.w3.org/Graphics/SVG/1.1/DTD/svg11.dtd">
<!-- Generated by graphviz version 2.43.0 (0)
 -->
<!-- Title: /home/runner/work/no&#45;OS/no&#45;OS/drivers/temperature/adt75/adt75.h Pages: 1 -->
<svg width="1126pt" height="225pt"
 viewBox="0.00 0.00 1126.00 225.00" xmlns="http://www.w3.org/2000/svg" xmlns:xlink="http://www.w3.org/1999/xlink">
<g id="graph0" class="graph" transform="scale(1 1) rotate(0) translate(4 221)">
<title>/home/runner/work/no&#45;OS/no&#45;OS/drivers/temperature/adt75/adt75.h</title>
<!-- Node1 -->
<g id="Node000001" class="node">
<title>Node1</title>
<g id="a_Node000001"><a xlink:title="Header file of ADT75 Driver.">
<polygon fill="#999999" stroke="#666666" points="602,-217 435,-217 435,-176 602,-176 602,-217"/>
<text text-anchor="start" x="443" y="-205" font-family="Helvetica,sans-Serif" font-size="10.00">/home/runner/work/no</text>
<text text-anchor="start" x="443" y="-194" font-family="Helvetica,sans-Serif" font-size="10.00">&#45;OS/no&#45;OS/drivers/temperature</text>
<text text-anchor="middle" x="518.5" y="-183" font-family="Helvetica,sans-Serif" font-size="10.00">/adt75/adt75.h</text>
</a>
</g>
</g>
<!-- Node2 -->
<g id="Node000002" class="node">
<title>Node2</title>
<g id="a_Node000002"><a xlink:href="adt75_8c.html" target="_top" xlink:title="Source file of ADT75 Driver.">
<polygon fill="white" stroke="#666666" points="198,-134.5 31,-134.5 31,-93.5 198,-93.5 198,-134.5"/>
<text text-anchor="start" x="39" y="-122.5" font-family="Helvetica,sans-Serif" font-size="10.00">/home/runner/work/no</text>
<text text-anchor="start" x="39" y="-111.5" font-family="Helvetica,sans-Serif" font-size="10.00">&#45;OS/no&#45;OS/drivers/temperature</text>
<text text-anchor="middle" x="114.5" y="-100.5" font-family="Helvetica,sans-Serif" font-size="10.00">/adt75/adt75.c</text>
</a>
</g>
</g>
<!-- Node1&#45;&gt;Node2 -->
<g id="edge1_Node000001_Node000002" class="edge">
<title>Node1&#45;&gt;Node2</title>
<g id="a_edge1_Node000001_Node000002"><a xlink:title=" ">
<path fill="none" stroke="#63b8ff" d="M424.79,-180.39C363.81,-170.11 282.67,-155.58 211.5,-140 203.86,-138.33 195.9,-136.47 187.98,-134.54"/>
<polygon fill="#63b8ff" stroke="#63b8ff" points="424.34,-183.87 434.78,-182.07 425.5,-176.96 424.34,-183.87"/>
</a>
</g>
</g>
<!-- Node3 -->
<g id="Node000003" class="node">
<title>Node3</title>
<g id="a_Node000003"><a xlink:href="iio__adt75_8c.html" target="_top" xlink:title="Source file of IIO ADT75 Driver.">
<polygon fill="white" stroke="#666666" points="167,-46.5 0,-46.5 0,-5.5 167,-5.5 167,-46.5"/>
<text text-anchor="start" x="8" y="-34.5" font-family="Helvetica,sans-Serif" font-size="10.00">/home/runner/work/no</text>
<text text-anchor="start" x="8" y="-23.5" font-family="Helvetica,sans-Serif" font-size="10.00">&#45;OS/no&#45;OS/drivers/temperature</text>
<text text-anchor="middle" x="83.5" y="-12.5" font-family="Helvetica,sans-Serif" font-size="10.00">/adt75/iio_adt75.c</text>
</a>
</g>
</g>
<!-- Node1&#45;&gt;Node3 -->
<g id="edge2_Node000001_Node000003" class="edge">
<title>Node1&#45;&gt;Node3</title>
<g id="a_edge2_Node000001_Node000003"><a xlink:title=" ">
<path fill="none" stroke="#63b8ff" d="M424.88,-193.64C368.42,-188.58 297.26,-174.9 243.5,-140 219.71,-124.56 228.08,-106.41 206.5,-88 186.1,-70.59 159.88,-56.71 136.89,-46.61"/>
<polygon fill="#63b8ff" stroke="#63b8ff" points="424.64,-197.13 434.89,-194.46 425.21,-190.16 424.64,-197.13"/>
</a>
</g>
</g>
<!-- Node4 -->
<g id="Node000004" class="node">
<title>Node4</title>
<g id="a_Node000004"><a xlink:href="iio__adt75_8h.html" target="_top" xlink:title="Header file of the IIO ADT75 Driver.">
<polygon fill="white" stroke="#666666" points="420,-134.5 253,-134.5 253,-93.5 420,-93.5 420,-134.5"/>
<text text-anchor="start" x="261" y="-122.5" font-family="Helvetica,sans-Serif" font-size="10.00">/home/runner/work/no</text>
<text text-anchor="start" x="261" y="-111.5" font-family="Helvetica,sans-Serif" font-size="10.00">&#45;OS/no&#45;OS/drivers/temperature</text>
<text text-anchor="middle" x="336.5" y="-100.5" font-family="Helvetica,sans-Serif" font-size="10.00">/adt75/iio_adt75.h</text>
</a>
</g>
</g>
<!-- Node1&#45;&gt;Node4 -->
<g id="edge3_Node000001_Node000004" class="edge">
<title>Node1&#45;&gt;Node4</title>
<g id="a_edge3_Node000001_Node000004"><a xlink:title=" ">
<path fill="none" stroke="#63b8ff" d="M464.77,-171.73C438.06,-159.92 406.18,-145.82 380.88,-134.63"/>
<polygon fill="#63b8ff" stroke="#63b8ff" points="463.42,-174.96 473.98,-175.81 466.25,-168.56 463.42,-174.96"/>
</a>
</g>
</g>
<!-- Node7 -->
<g id="Node000007" class="node">
<title>Node7</title>
<g id="a_Node000007"><a xlink:href="ad-acevsecrdset-sl_2src_2common_2common__data_8h.html" target="_top" xlink:title="Defines common data to be used by the STOUT project.">
<polygon fill="white" stroke="#666666" points="598.5,-140 438.5,-140 438.5,-88 598.5,-88 598.5,-140"/>
<text text-anchor="start" x="446.5" y="-128" font-family="Helvetica,sans-Serif" font-size="10.00">/home/runner/work/no</text>
<text text-anchor="start" x="446.5" y="-117" font-family="Helvetica,sans-Serif" font-size="10.00">&#45;OS/no&#45;OS/projects/ad</text>
<text text-anchor="start" x="446.5" y="-106" font-family="Helvetica,sans-Serif" font-size="10.00">&#45;acevsecrdset&#45;sl/src/common</text>
<text text-anchor="middle" x="518.5" y="-95" font-family="Helvetica,sans-Serif" font-size="10.00">/common_data.h</text>
</a>
</g>
</g>
<!-- Node1&#45;&gt;Node7 -->
<g id="edge7_Node000001_Node000007" class="edge">
<title>Node1&#45;&gt;Node7</title>
<g id="a_edge7_Node000001_Node000007"><a xlink:title=" ">
<path fill="none" stroke="#63b8ff" d="M518.5,-165.49C518.5,-157.15 518.5,-148.19 518.5,-140.16"/>
<polygon fill="#63b8ff" stroke="#63b8ff" points="515,-165.6 518.5,-175.6 522,-165.6 515,-165.6"/>
</a>
</g>
</g>
<!-- Node9 -->
<g id="Node000009" class="node">
<title>Node9</title>
<g id="a_Node000009"><a xlink:href="adt75_2src_2common_2common__data_8h.html" target="_top" xlink:title="Defines common data to be used by ad74413r examples.">
<polygon fill="white" stroke="#666666" points="778,-134.5 617,-134.5 617,-93.5 778,-93.5 778,-134.5"/>
<text text-anchor="start" x="625" y="-122.5" font-family="Helvetica,sans-Serif" font-size="10.00">/home/runner/work/no</text>
<text text-anchor="start" x="625" y="-111.5" font-family="Helvetica,sans-Serif" font-size="10.00">&#45;OS/no&#45;OS/projects/adt75</text>
<text text-anchor="middle" x="697.5" y="-100.5" font-family="Helvetica,sans-Serif" font-size="10.00">/src/common/common_data.h</text>
</a>
</g>
</g>
<!-- Node1&#45;&gt;Node9 -->
<g id="edge9_Node000001_Node000009" class="edge">
<title>Node1&#45;&gt;Node9</title>
<g id="a_edge9_Node000001_Node000009"><a xlink:title=" ">
<path fill="none" stroke="#63b8ff" d="M571.69,-171.58C597.89,-159.8 629.08,-145.77 653.85,-134.63"/>
<polygon fill="#63b8ff" stroke="#63b8ff" points="569.97,-168.51 562.29,-175.81 572.84,-174.9 569.97,-168.51"/>
</a>
</g>
</g>
<!-- Node11 -->
<g id="Node000011" class="node">
<title>Node11</title>
<g id="a_Node000011"><a xlink:href="adt75_2src_2examples_2basic_2basic__example_8c.html" target="_top" xlink:title="BASIC example header for ad74413r project.">
<polygon fill="white" stroke="#666666" points="938.5,-140 796.5,-140 796.5,-88 938.5,-88 938.5,-140"/>
<text text-anchor="start" x="804.5" y="-128" font-family="Helvetica,sans-Serif" font-size="10.00">/home/runner/work/no</text>
<text text-anchor="start" x="804.5" y="-117" font-family="Helvetica,sans-Serif" font-size="10.00">&#45;OS/no&#45;OS/projects/adt75</text>
<text text-anchor="start" x="804.5" y="-106" font-family="Helvetica,sans-Serif" font-size="10.00">/src/examples/basic/basic</text>
<text text-anchor="middle" x="867.5" y="-95" font-family="Helvetica,sans-Serif" font-size="10.00">_example.c</text>
</a>
</g>
</g>
<!-- Node1&#45;&gt;Node11 -->
<g id="edge11_Node000001_Node000011" class="edge">
<title>Node1&#45;&gt;Node11</title>
<g id="a_edge11_Node000001_Node000011"><a xlink:title=" ">
<path fill="none" stroke="#63b8ff" d="M611.88,-178.6C663.87,-168.6 729.6,-154.98 787.5,-140 790.32,-139.27 793.18,-138.5 796.07,-137.71"/>
<polygon fill="#63b8ff" stroke="#63b8ff" points="611.17,-175.18 602,-180.49 612.48,-182.05 611.17,-175.18"/>
</a>
</g>
</g>
<!-- Node12 -->
<g id="Node000012" class="node">
<title>Node12</title>
<g id="a_Node000012"><a xlink:href="swiot1l_2src_2common_2common__data_8h.html" target="_top" xlink:title="Defines common data to be used by the swiot1l project.">
<polygon fill="white" stroke="#666666" points="1118,-134.5 957,-134.5 957,-93.5 1118,-93.5 1118,-134.5"/>
<text text-anchor="start" x="965" y="-122.5" font-family="Helvetica,sans-Serif" font-size="10.00">/home/runner/work/no</text>
<text text-anchor="start" x="965" y="-111.5" font-family="Helvetica,sans-Serif" font-size="10.00">&#45;OS/no&#45;OS/projects/swiot1l</text>
<text text-anchor="middle" x="1037.5" y="-100.5" font-family="Helvetica,sans-Serif" font-size="10.00">/src/common/common_data.h</text>
</a>
</g>
</g>
<!-- Node1&#45;&gt;Node12 -->
<g id="edge12_Node000001_Node000012" class="edge">
<title>Node1&#45;&gt;Node12</title>
<g id="a_edge12_Node000001_Node000012"><a xlink:title=" ">
<path fill="none" stroke="#63b8ff" d="M612.27,-187.25C699.61,-178.65 833.15,-163.16 947.5,-140 955.29,-138.42 963.39,-136.53 971.41,-134.51"/>
<polygon fill="#63b8ff" stroke="#63b8ff" points="611.73,-183.78 602.12,-188.24 612.41,-190.75 611.73,-183.78"/>
</a>
</g>
</g>
<!-- Node4&#45;&gt;Node3 -->
<g id="edge4_Node000004_Node000003" class="edge">
<title>Node4&#45;&gt;Node3</title>
<g id="a_edge4_Node000004_Node000003"><a xlink:title=" ">
<path fill="none" stroke="#63b8ff" d="M269.43,-90.2C229.47,-76.62 179.28,-59.56 141.12,-46.59"/>
<polygon fill="#63b8ff" stroke="#63b8ff" points="268.5,-93.58 279.09,-93.49 270.75,-86.95 268.5,-93.58"/>
</a>
</g>
</g>
<!-- Node5 -->
<g id="Node000005" class="node">
<title>Node5</title>
<g id="a_Node000005"><a xlink:href="adt75_2src_2examples_2iio__example_2iio__example_8c.html" target="_top" xlink:title="Implementation of IIO example for AD74413R project.">
<polygon fill="white" stroke="#666666" points="333.5,-52 185.5,-52 185.5,0 333.5,0 333.5,-52"/>
<text text-anchor="start" x="193.5" y="-40" font-family="Helvetica,sans-Serif" font-size="10.00">/home/runner/work/no</text>
<text text-anchor="start" x="193.5" y="-29" font-family="Helvetica,sans-Serif" font-size="10.00">&#45;OS/no&#45;OS/projects/adt75</text>
<text text-anchor="start" x="193.5" y="-18" font-family="Helvetica,sans-Serif" font-size="10.00">/src/examples/iio_example</text>
<text text-anchor="middle" x="259.5" y="-7" font-family="Helvetica,sans-Serif" font-size="10.00">/iio_example.c</text>
</a>
</g>
</g>
<!-- Node4&#45;&gt;Node5 -->
<g id="edge5_Node000004_Node000005" class="edge">
<title>Node4&#45;&gt;Node5</title>
<g id="a_edge5_Node000004_Node000005"><a xlink:title=" ">
<path fill="none" stroke="#63b8ff" d="M312.3,-85.97C302.67,-75.21 291.64,-62.9 282.17,-52.32"/>
<polygon fill="#63b8ff" stroke="#63b8ff" points="309.75,-88.37 319.03,-93.49 314.96,-83.7 309.75,-88.37"/>
</a>
</g>
</g>
<!-- Node6 -->
<g id="Node000006" class="node">
<title>Node6</title>
<g id="a_Node000006"><a xlink:href="swiot__fw_8c.html" target="_top" xlink:title="Main project file for the swiot1l project.">
<polygon fill="white" stroke="#666666" points="497.5,-46.5 351.5,-46.5 351.5,-5.5 497.5,-5.5 497.5,-46.5"/>
<text text-anchor="start" x="359.5" y="-34.5" font-family="Helvetica,sans-Serif" font-size="10.00">/home/runner/work/no</text>
<text text-anchor="start" x="359.5" y="-23.5" font-family="Helvetica,sans-Serif" font-size="10.00">&#45;OS/no&#45;OS/projects/swiot1l</text>
<text text-anchor="middle" x="424.5" y="-12.5" font-family="Helvetica,sans-Serif" font-size="10.00">/src/swiot_fw.c</text>
</a>
</g>
</g>
<!-- Node4&#45;&gt;Node6 -->
<g id="edge6_Node000004_Node000006" class="edge">
<title>Node4&#45;&gt;Node6</title>
<g id="a_edge6_Node000004_Node000006"><a xlink:title=" ">
<path fill="none" stroke="#63b8ff" d="M363.86,-86.26C376.93,-73.48 392.31,-58.46 404.31,-46.74"/>
<polygon fill="#63b8ff" stroke="#63b8ff" points="361.17,-83.99 356.47,-93.49 366.07,-89 361.17,-83.99"/>
</a>
</g>
</g>
<!-- Node8 -->
<g id="Node000008" class="node">
<title>Node8</title>
<g id="a_Node000008"><a xlink:href="ad-acevsecrdset-sl_2src_2common_2common__data_8c.html" target="_top" xlink:title="Defines common data to be used by the STOUT project.">
<polygon fill="white" stroke="#666666" points="675.5,-52 515.5,-52 515.5,0 675.5,0 675.5,-52"/>
<text text-anchor="start" x="523.5" y="-40" font-family="Helvetica,sans-Serif" font-size="10.00">/home/runner/work/no</text>
<text text-anchor="start" x="523.5" y="-29" font-family="Helvetica,sans-Serif" font-size="10.00">&#45;OS/no&#45;OS/projects/ad</text>
<text text-anchor="start" x="523.5" y="-18" font-family="Helvetica,sans-Serif" font-size="10.00">&#45;acevsecrdset&#45;sl/src/common</text>
<text text-anchor="middle" x="595.5" y="-7" font-family="Helvetica,sans-Serif" font-size="10.00">/common_data.c</text>
</a>
</g>
</g>
<!-- Node7&#45;&gt;Node8 -->
<g id="edge8_Node000007_Node000008" class="edge">
<title>Node7&#45;&gt;Node8</title>
<g id="a_edge8_Node000007_Node000008"><a xlink:title=" ">
<path fill="none" stroke="#63b8ff" d="M547.98,-80.08C556.27,-70.81 565.16,-60.89 572.98,-52.16"/>
<polygon fill="#63b8ff" stroke="#63b8ff" points="545.25,-77.88 541.19,-87.66 550.46,-82.55 545.25,-77.88"/>
</a>
</g>
</g>
<!-- Node10 -->
<g id="Node000010" class="node">
<title>Node10</title>
<g id="a_Node000010"><a xlink:href="adt75_2src_2common_2common__data_8c.html" target="_top" xlink:title="Defines common data to be used by ad74413r examples.">
<polygon fill="white" stroke="#666666" points="855,-46.5 694,-46.5 694,-5.5 855,-5.5 855,-46.5"/>
<text text-anchor="start" x="702" y="-34.5" font-family="Helvetica,sans-Serif" font-size="10.00">/home/runner/work/no</text>
<text text-anchor="start" x="702" y="-23.5" font-family="Helvetica,sans-Serif" font-size="10.00">&#45;OS/no&#45;OS/projects/adt75</text>
<text text-anchor="middle" x="774.5" y="-12.5" font-family="Helvetica,sans-Serif" font-size="10.00">/src/common/common_data.c</text>
</a>
</g>
</g>
<!-- Node9&#45;&gt;Node10 -->
<g id="edge10_Node000009_Node000010" class="edge">
<title>Node9&#45;&gt;Node10</title>
<g id="a_edge10_Node000009_Node000010"><a xlink:title=" ">
<path fill="none" stroke="#63b8ff" d="M721.76,-85.9C733.13,-73.2 746.43,-58.35 756.83,-46.74"/>
<polygon fill="#63b8ff" stroke="#63b8ff" points="719.04,-83.7 714.97,-93.49 724.25,-88.37 719.04,-83.7"/>
</a>
</g>
</g>
<!-- Node13 -->
<g id="Node000013" class="node">
<title>Node13</title>
<g id="a_Node000013"><a xlink:href="swiot1l_2src_2common_2common__data_8c.html" target="_top" xlink:title="Defines common data to be used by the SWIOT1L firmware.">
<polygon fill="white" stroke="#666666" points="1118,-46.5 957,-46.5 957,-5.5 1118,-5.5 1118,-46.5"/>
<text text-anchor="start" x="965" y="-34.5" font-family="Helvetica,sans-Serif" font-size="10.00">/home/runner/work/no</text>
<text text-anchor="start" x="965" y="-23.5" font-family="Helvetica,sans-Serif" font-size="10.00">&#45;OS/no&#45;OS/projects/swiot1l</text>
<text text-anchor="middle" x="1037.5" y="-12.5" font-family="Helvetica,sans-Serif" font-size="10.00">/src/common/common_data.c</text>
</a>
</g>
</g>
<!-- Node12&#45;&gt;Node13 -->
<g id="edge13_Node000012_Node000013" class="edge">
<title>Node12&#45;&gt;Node13</title>
<g id="a_edge13_Node000012_Node000013"><a xlink:title=" ">
<path fill="none" stroke="#63b8ff" d="M1037.5,-83.36C1037.5,-71.26 1037.5,-57.58 1037.5,-46.74"/>
<polygon fill="#63b8ff" stroke="#63b8ff" points="1034,-83.49 1037.5,-93.49 1041,-83.49 1034,-83.49"/>
</a>
</g>
</g>
</g>
</svg>
