<?xml version="1.0" encoding="UTF-8" standalone="no"?>
<!DOCTYPE svg PUBLIC "-//W3C//DTD SVG 1.1//EN"
 "http://www.w3.org/Graphics/SVG/1.1/DTD/svg11.dtd">
<!-- Generated by graphviz version 2.43.0 (0)
 -->
<!-- Title: /home/runner/work/no&#45;OS/no&#45;OS/drivers/temperature/adt7420/adt7420.c Pages: 1 -->
<svg width="569pt" height="214pt"
 viewBox="0.00 0.00 568.99 214.00" xmlns="http://www.w3.org/2000/svg" xmlns:xlink="http://www.w3.org/1999/xlink">
<g id="graph0" class="graph" transform="scale(1 1) rotate(0) translate(4 210)">
<title>/home/runner/work/no&#45;OS/no&#45;OS/drivers/temperature/adt7420/adt7420.c</title>
<!-- Node1 -->
<g id="Node000001" class="node">
<title>Node1</title>
<g id="a_Node000001"><a xlink:title="Implementation of ADT7420 Driver.">
<polygon fill="#999999" stroke="#666666" points="366.49,-206 199.49,-206 199.49,-165 366.49,-165 366.49,-206"/>
<text text-anchor="start" x="207.49" y="-194" font-family="Helvetica,sans-Serif" font-size="10.00">/home/runner/work/no</text>
<text text-anchor="start" x="207.49" y="-183" font-family="Helvetica,sans-Serif" font-size="10.00">&#45;OS/no&#45;OS/drivers/temperature</text>
<text text-anchor="middle" x="282.99" y="-172" font-family="Helvetica,sans-Serif" font-size="10.00">/adt7420/adt7420.c</text>
</a>
</g>
</g>
<!-- Node2 -->
<g id="Node000002" class="node">
<title>Node2</title>
<g id="a_Node000002"><a xlink:title=" ">
<polygon fill="#e0e0e0" stroke="#999999" points="86.49,-19 33.49,-19 33.49,0 86.49,0 86.49,-19"/>
<text text-anchor="middle" x="59.99" y="-7" font-family="Helvetica,sans-Serif" font-size="10.00">stdint.h</text>
</a>
</g>
</g>
<!-- Node1&#45;&gt;Node2 -->
<g id="edge1_Node000001_Node000002" class="edge">
<title>Node1&#45;&gt;Node2</title>
<g id="a_edge1_Node000001_Node000002"><a xlink:title=" ">
<path fill="none" stroke="#63b8ff" d="M199.2,-175.88C133.53,-167.46 49.19,-152.46 23.99,-129 -0.65,-106.08 -6.09,-85.56 7.99,-55 13.73,-42.52 24.89,-32.24 35.41,-24.71"/>
<polygon fill="#63b8ff" stroke="#63b8ff" points="37.55,-27.49 43.96,-19.05 33.69,-21.65 37.55,-27.49"/>
</a>
</g>
</g>
<!-- Node3 -->
<g id="Node000003" class="node">
<title>Node3</title>
<g id="a_Node000003"><a xlink:title=" ">
<polygon fill="#e0e0e0" stroke="#999999" points="375.49,-19 322.49,-19 322.49,0 375.49,0 375.49,-19"/>
<text text-anchor="middle" x="348.99" y="-7" font-family="Helvetica,sans-Serif" font-size="10.00">stdlib.h</text>
</a>
</g>
</g>
<!-- Node1&#45;&gt;Node3 -->
<g id="edge2_Node000001_Node000003" class="edge">
<title>Node1&#45;&gt;Node3</title>
<g id="a_edge2_Node000001_Node000003"><a xlink:title=" ">
<path fill="none" stroke="#63b8ff" d="M292.15,-164.8C302.16,-142.91 318.31,-106.35 329.99,-74 335.36,-59.1 340.45,-41.86 344.01,-29.11"/>
<polygon fill="#63b8ff" stroke="#63b8ff" points="347.45,-29.8 346.71,-19.23 340.7,-27.95 347.45,-29.8"/>
</a>
</g>
</g>
<!-- Node4 -->
<g id="Node000004" class="node">
<title>Node4</title>
<g id="a_Node000004"><a xlink:href="no__os__error_8h.html" target="_top" xlink:title="Error codes definition.">
<polygon fill="white" stroke="#666666" points="560.99,-129 478.99,-129 478.99,-110 560.99,-110 560.99,-129"/>
<text text-anchor="middle" x="519.99" y="-117" font-family="Helvetica,sans-Serif" font-size="10.00">no_os_error.h</text>
</a>
</g>
</g>
<!-- Node1&#45;&gt;Node4 -->
<g id="edge3_Node000001_Node000004" class="edge">
<title>Node1&#45;&gt;Node4</title>
<g id="a_edge3_Node000001_Node000004"><a xlink:title=" ">
<path fill="none" stroke="#63b8ff" d="M355.38,-164.95C395.72,-154.06 444.51,-140.88 478.45,-131.72"/>
<polygon fill="#63b8ff" stroke="#63b8ff" points="479.74,-134.99 488.48,-129.01 477.91,-128.24 479.74,-134.99"/>
</a>
</g>
</g>
<!-- Node6 -->
<g id="Node000006" class="node">
<title>Node6</title>
<g id="a_Node000006"><a xlink:href="no__os__alloc_8h.html" target="_top" xlink:title=" ">
<polygon fill="white" stroke="#666666" points="460.49,-129 377.49,-129 377.49,-110 460.49,-110 460.49,-129"/>
<text text-anchor="middle" x="418.99" y="-117" font-family="Helvetica,sans-Serif" font-size="10.00">no_os_alloc.h</text>
</a>
</g>
</g>
<!-- Node1&#45;&gt;Node6 -->
<g id="edge5_Node000001_Node000006" class="edge">
<title>Node1&#45;&gt;Node6</title>
<g id="a_edge5_Node000001_Node000006"><a xlink:title=" ">
<path fill="none" stroke="#63b8ff" d="M324.53,-164.95C346.31,-154.7 372.39,-142.43 391.62,-133.38"/>
<polygon fill="#63b8ff" stroke="#63b8ff" points="393.17,-136.52 400.73,-129.09 390.19,-130.18 393.17,-136.52"/>
</a>
</g>
</g>
<!-- Node8 -->
<g id="Node000008" class="node">
<title>Node8</title>
<g id="a_Node000008"><a xlink:href="no__os__delay_8h.html" target="_top" xlink:title="Header file of Delay functions.">
<polygon fill="white" stroke="#666666" points="118.49,-129 33.49,-129 33.49,-110 118.49,-110 118.49,-129"/>
<text text-anchor="middle" x="75.99" y="-117" font-family="Helvetica,sans-Serif" font-size="10.00">no_os_delay.h</text>
</a>
</g>
</g>
<!-- Node1&#45;&gt;Node8 -->
<g id="edge8_Node000001_Node000008" class="edge">
<title>Node1&#45;&gt;Node8</title>
<g id="a_edge8_Node000001_Node000008"><a xlink:title=" ">
<path fill="none" stroke="#63b8ff" d="M219.75,-164.95C184.98,-154.2 143.01,-141.22 113.42,-132.07"/>
<polygon fill="#63b8ff" stroke="#63b8ff" points="114.09,-128.62 103.5,-129.01 112.02,-135.31 114.09,-128.62"/>
</a>
</g>
</g>
<!-- Node9 -->
<g id="Node000009" class="node">
<title>Node9</title>
<g id="a_Node000009"><a xlink:href="adt7420_8h.html" target="_top" xlink:title="Header file of ADT7420 Driver.">
<polygon fill="white" stroke="#666666" points="249.49,-129 184.49,-129 184.49,-110 249.49,-110 249.49,-129"/>
<text text-anchor="middle" x="216.99" y="-117" font-family="Helvetica,sans-Serif" font-size="10.00">adt7420.h</text>
</a>
</g>
</g>
<!-- Node1&#45;&gt;Node9 -->
<g id="edge10_Node000001_Node000009" class="edge">
<title>Node1&#45;&gt;Node9</title>
<g id="a_edge10_Node000001_Node000009"><a xlink:title=" ">
<path fill="none" stroke="#63b8ff" d="M262.82,-164.95C253.32,-155.74 242.14,-144.9 233.2,-136.23"/>
<polygon fill="#63b8ff" stroke="#63b8ff" points="235.64,-133.71 226.02,-129.26 230.76,-138.73 235.64,-133.71"/>
</a>
</g>
</g>
<!-- Node5 -->
<g id="Node000005" class="node">
<title>Node5</title>
<g id="a_Node000005"><a xlink:href="errno_8h.html" target="_top" xlink:title="Error macro definition for ARM Compiler.">
<polygon fill="white" stroke="#666666" points="545.49,-74 494.49,-74 494.49,-55 545.49,-55 545.49,-74"/>
<text text-anchor="middle" x="519.99" y="-62" font-family="Helvetica,sans-Serif" font-size="10.00">errno.h</text>
</a>
</g>
</g>
<!-- Node4&#45;&gt;Node5 -->
<g id="edge4_Node000004_Node000005" class="edge">
<title>Node4&#45;&gt;Node5</title>
<g id="a_edge4_Node000004_Node000005"><a xlink:title=" ">
<path fill="none" stroke="#63b8ff" d="M519.99,-109.75C519.99,-102.8 519.99,-92.85 519.99,-84.13"/>
<polygon fill="#63b8ff" stroke="#63b8ff" points="523.49,-84.09 519.99,-74.09 516.49,-84.09 523.49,-84.09"/>
</a>
</g>
</g>
<!-- Node6&#45;&gt;Node3 -->
<g id="edge7_Node000006_Node000003" class="edge">
<title>Node6&#45;&gt;Node3</title>
<g id="a_edge7_Node000006_Node000003"><a xlink:title=" ">
<path fill="none" stroke="#63b8ff" d="M413.26,-109.66C401.66,-91.77 375.24,-51 360.13,-27.69"/>
<polygon fill="#63b8ff" stroke="#63b8ff" points="362.97,-25.65 354.6,-19.16 357.1,-29.45 362.97,-25.65"/>
</a>
</g>
</g>
<!-- Node7 -->
<g id="Node000007" class="node">
<title>Node7</title>
<g id="a_Node000007"><a xlink:title=" ">
<polygon fill="#e0e0e0" stroke="#999999" points="464.99,-74 414.99,-74 414.99,-55 464.99,-55 464.99,-74"/>
<text text-anchor="middle" x="439.99" y="-62" font-family="Helvetica,sans-Serif" font-size="10.00">stdio.h</text>
</a>
</g>
</g>
<!-- Node6&#45;&gt;Node7 -->
<g id="edge6_Node000006_Node000007" class="edge">
<title>Node6&#45;&gt;Node7</title>
<g id="a_edge6_Node000006_Node000007"><a xlink:title=" ">
<path fill="none" stroke="#63b8ff" d="M422.45,-109.75C425.27,-102.65 429.33,-92.4 432.83,-83.56"/>
<polygon fill="#63b8ff" stroke="#63b8ff" points="436.15,-84.68 436.58,-74.09 429.64,-82.1 436.15,-84.68"/>
</a>
</g>
</g>
<!-- Node8&#45;&gt;Node2 -->
<g id="edge9_Node000008_Node000002" class="edge">
<title>Node8&#45;&gt;Node2</title>
<g id="a_edge9_Node000008_Node000002"><a xlink:title=" ">
<path fill="none" stroke="#63b8ff" d="M55.47,-110C40.97,-102.77 22.64,-90.86 13.99,-74 4.81,-56.12 21.52,-37.74 37.31,-25.38"/>
<polygon fill="#63b8ff" stroke="#63b8ff" points="39.8,-27.9 45.82,-19.18 35.67,-22.25 39.8,-27.9"/>
</a>
</g>
</g>
<!-- Node10 -->
<g id="Node000010" class="node">
<title>Node10</title>
<g id="a_Node000010"><a xlink:href="no__os__spi_8h.html" target="_top" xlink:title="Header file of SPI Interface.">
<polygon fill="white" stroke="#666666" points="96.99,-74 22.99,-74 22.99,-55 96.99,-55 96.99,-74"/>
<text text-anchor="middle" x="59.99" y="-62" font-family="Helvetica,sans-Serif" font-size="10.00">no_os_spi.h</text>
</a>
</g>
</g>
<!-- Node9&#45;&gt;Node10 -->
<g id="edge11_Node000009_Node000010" class="edge">
<title>Node9&#45;&gt;Node10</title>
<g id="a_edge11_Node000009_Node000010"><a xlink:title=" ">
<path fill="none" stroke="#63b8ff" d="M191.76,-109.98C165.63,-101.16 124.59,-87.31 95.25,-77.41"/>
<polygon fill="#63b8ff" stroke="#63b8ff" points="96,-73.96 85.41,-74.08 93.76,-80.6 96,-73.96"/>
</a>
</g>
</g>
<!-- Node11 -->
<g id="Node000011" class="node">
<title>Node11</title>
<g id="a_Node000011"><a xlink:href="no__os__i2c_8h.html" target="_top" xlink:title="Header file of I2C Interface.">
<polygon fill="white" stroke="#666666" points="188.99,-74 114.99,-74 114.99,-55 188.99,-55 188.99,-74"/>
<text text-anchor="middle" x="151.99" y="-62" font-family="Helvetica,sans-Serif" font-size="10.00">no_os_i2c.h</text>
</a>
</g>
</g>
<!-- Node9&#45;&gt;Node11 -->
<g id="edge13_Node000009_Node000011" class="edge">
<title>Node9&#45;&gt;Node11</title>
<g id="a_edge13_Node000009_Node000011"><a xlink:title=" ">
<path fill="none" stroke="#63b8ff" d="M206.54,-109.98C196.84,-102.07 182.17,-90.11 170.49,-80.58"/>
<polygon fill="#63b8ff" stroke="#63b8ff" points="172.58,-77.78 162.62,-74.17 168.16,-83.2 172.58,-77.78"/>
</a>
</g>
</g>
<!-- Node12 -->
<g id="Node000012" class="node">
<title>Node12</title>
<g id="a_Node000012"><a xlink:href="no__os__util_8h.html" target="_top" xlink:title="Header file of utility functions.">
<polygon fill="white" stroke="#666666" points="320.49,-74 245.49,-74 245.49,-55 320.49,-55 320.49,-74"/>
<text text-anchor="middle" x="282.99" y="-62" font-family="Helvetica,sans-Serif" font-size="10.00">no_os_util.h</text>
</a>
</g>
</g>
<!-- Node9&#45;&gt;Node12 -->
<g id="edge15_Node000009_Node000012" class="edge">
<title>Node9&#45;&gt;Node12</title>
<g id="a_edge15_Node000009_Node000012"><a xlink:title=" ">
<path fill="none" stroke="#63b8ff" d="M227.59,-109.98C237.44,-102.07 252.34,-90.11 264.2,-80.58"/>
<polygon fill="#63b8ff" stroke="#63b8ff" points="266.58,-83.16 272.19,-74.17 262.2,-77.7 266.58,-83.16"/>
</a>
</g>
</g>
<!-- Node13 -->
<g id="Node000013" class="node">
<title>Node13</title>
<g id="a_Node000013"><a xlink:title=" ">
<polygon fill="#e0e0e0" stroke="#999999" points="275.99,-19 213.99,-19 213.99,0 275.99,0 275.99,-19"/>
<text text-anchor="middle" x="244.99" y="-7" font-family="Helvetica,sans-Serif" font-size="10.00">stdbool.h</text>
</a>
</g>
</g>
<!-- Node9&#45;&gt;Node13 -->
<g id="edge19_Node000009_Node000013" class="edge">
<title>Node9&#45;&gt;Node13</title>
<g id="a_edge19_Node000009_Node000013"><a xlink:title=" ">
<path fill="none" stroke="#63b8ff" d="M219.28,-109.66C223.83,-92.09 234.11,-52.45 240.2,-28.95"/>
<polygon fill="#63b8ff" stroke="#63b8ff" points="243.62,-29.72 242.74,-19.16 236.84,-27.96 243.62,-29.72"/>
</a>
</g>
</g>
<!-- Node10&#45;&gt;Node2 -->
<g id="edge12_Node000010_Node000002" class="edge">
<title>Node10&#45;&gt;Node2</title>
<g id="a_edge12_Node000010_Node000002"><a xlink:title=" ">
<path fill="none" stroke="#63b8ff" d="M59.99,-54.75C59.99,-47.8 59.99,-37.85 59.99,-29.13"/>
<polygon fill="#63b8ff" stroke="#63b8ff" points="63.49,-29.09 59.99,-19.09 56.49,-29.09 63.49,-29.09"/>
</a>
</g>
</g>
<!-- Node11&#45;&gt;Node2 -->
<g id="edge14_Node000011_Node000002" class="edge">
<title>Node11&#45;&gt;Node2</title>
<g id="a_edge14_Node000011_Node000002"><a xlink:title=" ">
<path fill="none" stroke="#63b8ff" d="M137.2,-54.98C122.8,-46.69 100.68,-33.94 83.79,-24.22"/>
<polygon fill="#63b8ff" stroke="#63b8ff" points="85.45,-21.13 75.04,-19.17 81.95,-27.19 85.45,-21.13"/>
</a>
</g>
</g>
<!-- Node12&#45;&gt;Node2 -->
<g id="edge16_Node000012_Node000002" class="edge">
<title>Node12&#45;&gt;Node2</title>
<g id="a_edge16_Node000012_Node000002"><a xlink:title=" ">
<path fill="none" stroke="#63b8ff" d="M247.16,-54.98C205.75,-45.14 138,-29.04 96.36,-19.15"/>
<polygon fill="#63b8ff" stroke="#63b8ff" points="97.17,-15.74 86.63,-16.83 95.55,-22.55 97.17,-15.74"/>
</a>
</g>
</g>
<!-- Node12&#45;&gt;Node3 -->
<g id="edge17_Node000012_Node000003" class="edge">
<title>Node12&#45;&gt;Node3</title>
<g id="a_edge17_Node000012_Node000003"><a xlink:title=" ">
<path fill="none" stroke="#63b8ff" d="M293.59,-54.98C303.44,-47.07 318.34,-35.11 330.2,-25.58"/>
<polygon fill="#63b8ff" stroke="#63b8ff" points="332.58,-28.16 338.19,-19.17 328.2,-22.7 332.58,-28.16"/>
</a>
</g>
</g>
<!-- Node12&#45;&gt;Node13 -->
<g id="edge18_Node000012_Node000013" class="edge">
<title>Node12&#45;&gt;Node13</title>
<g id="a_edge18_Node000012_Node000013"><a xlink:title=" ">
<path fill="none" stroke="#63b8ff" d="M276.71,-54.75C271.4,-47.34 263.63,-36.5 257.11,-27.41"/>
<polygon fill="#63b8ff" stroke="#63b8ff" points="259.81,-25.18 251.14,-19.09 254.13,-29.26 259.81,-25.18"/>
</a>
</g>
</g>
</g>
</svg>
