<?xml version="1.0" encoding="UTF-8" standalone="no"?>
<!DOCTYPE svg PUBLIC "-//W3C//DTD SVG 1.1//EN"
 "http://www.w3.org/Graphics/SVG/1.1/DTD/svg11.dtd">
<!-- Generated by graphviz version 2.43.0 (0)
 -->
<!-- Title: /home/runner/work/no&#45;OS/no&#45;OS/drivers/temperature/adt75/adt75.c Pages: 1 -->
<svg width="561pt" height="214pt"
 viewBox="0.00 0.00 561.04 214.00" xmlns="http://www.w3.org/2000/svg" xmlns:xlink="http://www.w3.org/1999/xlink">
<g id="graph0" class="graph" transform="scale(1 1) rotate(0) translate(4 210)">
<title>/home/runner/work/no&#45;OS/no&#45;OS/drivers/temperature/adt75/adt75.c</title>
<!-- Node1 -->
<g id="Node000001" class="node">
<title>Node1</title>
<g id="a_Node000001"><a xlink:title="Source file of ADT75 Driver.">
<polygon fill="#999999" stroke="#666666" points="348.04,-206 181.04,-206 181.04,-165 348.04,-165 348.04,-206"/>
<text text-anchor="start" x="189.04" y="-194" font-family="Helvetica,sans-Serif" font-size="10.00">/home/runner/work/no</text>
<text text-anchor="start" x="189.04" y="-183" font-family="Helvetica,sans-Serif" font-size="10.00">&#45;OS/no&#45;OS/drivers/temperature</text>
<text text-anchor="middle" x="264.54" y="-172" font-family="Helvetica,sans-Serif" font-size="10.00">/adt75/adt75.c</text>
</a>
</g>
</g>
<!-- Node2 -->
<g id="Node000002" class="node">
<title>Node2</title>
<g id="a_Node000002"><a xlink:href="adt75_8h.html" target="_top" xlink:title="Header file of ADT75 Driver.">
<polygon fill="white" stroke="#666666" points="76.04,-129 23.04,-129 23.04,-110 76.04,-110 76.04,-129"/>
<text text-anchor="middle" x="49.54" y="-117" font-family="Helvetica,sans-Serif" font-size="10.00">adt75.h</text>
</a>
</g>
</g>
<!-- Node1&#45;&gt;Node2 -->
<g id="edge1_Node000001_Node000002" class="edge">
<title>Node1&#45;&gt;Node2</title>
<g id="a_edge1_Node000001_Node000002"><a xlink:title=" ">
<path fill="none" stroke="#63b8ff" d="M198.87,-164.95C161.81,-153.92 116.9,-140.55 86.06,-131.37"/>
<polygon fill="#63b8ff" stroke="#63b8ff" points="86.76,-127.93 76.18,-128.43 84.77,-134.64 86.76,-127.93"/>
</a>
</g>
</g>
<!-- Node5 -->
<g id="Node000005" class="node">
<title>Node5</title>
<g id="a_Node000005"><a xlink:href="no__os__delay_8h.html" target="_top" xlink:title="Header file of Delay functions.">
<polygon fill="white" stroke="#666666" points="190.04,-74 105.04,-74 105.04,-55 190.04,-55 190.04,-74"/>
<text text-anchor="middle" x="147.54" y="-62" font-family="Helvetica,sans-Serif" font-size="10.00">no_os_delay.h</text>
</a>
</g>
</g>
<!-- Node1&#45;&gt;Node5 -->
<g id="edge5_Node000001_Node000005" class="edge">
<title>Node1&#45;&gt;Node5</title>
<g id="a_edge5_Node000001_Node000005"><a xlink:title=" ">
<path fill="none" stroke="#63b8ff" d="M213.55,-164.95C196.53,-156.22 178.79,-144.36 166.54,-129 156.34,-116.21 151.61,-98.04 149.42,-84.41"/>
<polygon fill="#63b8ff" stroke="#63b8ff" points="152.86,-83.72 148.11,-74.25 145.92,-84.61 152.86,-83.72"/>
</a>
</g>
</g>
<!-- Node6 -->
<g id="Node000006" class="node">
<title>Node6</title>
<g id="a_Node000006"><a xlink:href="no__os__error_8h.html" target="_top" xlink:title="Error codes definition.">
<polygon fill="white" stroke="#666666" points="257.54,-129 175.54,-129 175.54,-110 257.54,-110 257.54,-129"/>
<text text-anchor="middle" x="216.54" y="-117" font-family="Helvetica,sans-Serif" font-size="10.00">no_os_error.h</text>
</a>
</g>
</g>
<!-- Node1&#45;&gt;Node6 -->
<g id="edge7_Node000001_Node000006" class="edge">
<title>Node1&#45;&gt;Node6</title>
<g id="a_edge7_Node000001_Node000006"><a xlink:title=" ">
<path fill="none" stroke="#63b8ff" d="M249.88,-164.95C243.25,-156.11 235.49,-145.77 229.13,-137.29"/>
<polygon fill="#63b8ff" stroke="#63b8ff" points="231.91,-135.16 223.11,-129.26 226.31,-139.36 231.91,-135.16"/>
</a>
</g>
</g>
<!-- Node8 -->
<g id="Node000008" class="node">
<title>Node8</title>
<g id="a_Node000008"><a xlink:href="no__os__util_8h.html" target="_top" xlink:title="Header file of utility functions.">
<polygon fill="white" stroke="#666666" points="351.04,-129 276.04,-129 276.04,-110 351.04,-110 351.04,-129"/>
<text text-anchor="middle" x="313.54" y="-117" font-family="Helvetica,sans-Serif" font-size="10.00">no_os_util.h</text>
</a>
</g>
</g>
<!-- Node1&#45;&gt;Node8 -->
<g id="edge9_Node000001_Node000008" class="edge">
<title>Node1&#45;&gt;Node8</title>
<g id="a_edge9_Node000001_Node000008"><a xlink:title=" ">
<path fill="none" stroke="#63b8ff" d="M279.51,-164.95C286.28,-156.11 294.19,-145.77 300.69,-137.29"/>
<polygon fill="#63b8ff" stroke="#63b8ff" points="303.53,-139.33 306.83,-129.26 297.98,-135.07 303.53,-139.33"/>
</a>
</g>
</g>
<!-- Node11 -->
<g id="Node000011" class="node">
<title>Node11</title>
<g id="a_Node000011"><a xlink:href="no__os__units_8h.html" target="_top" xlink:title="Header file of Units.">
<polygon fill="white" stroke="#666666" points="452.04,-129 369.04,-129 369.04,-110 452.04,-110 452.04,-129"/>
<text text-anchor="middle" x="410.54" y="-117" font-family="Helvetica,sans-Serif" font-size="10.00">no_os_units.h</text>
</a>
</g>
</g>
<!-- Node1&#45;&gt;Node11 -->
<g id="edge13_Node000001_Node000011" class="edge">
<title>Node1&#45;&gt;Node11</title>
<g id="a_edge13_Node000001_Node000011"><a xlink:title=" ">
<path fill="none" stroke="#63b8ff" d="M309.14,-164.95C332.74,-154.6 361.03,-142.2 381.73,-133.13"/>
<polygon fill="#63b8ff" stroke="#63b8ff" points="383.19,-136.31 390.94,-129.09 380.38,-129.9 383.19,-136.31"/>
</a>
</g>
</g>
<!-- Node12 -->
<g id="Node000012" class="node">
<title>Node12</title>
<g id="a_Node000012"><a xlink:href="no__os__alloc_8h.html" target="_top" xlink:title=" ">
<polygon fill="white" stroke="#666666" points="553.04,-129 470.04,-129 470.04,-110 553.04,-110 553.04,-129"/>
<text text-anchor="middle" x="511.54" y="-117" font-family="Helvetica,sans-Serif" font-size="10.00">no_os_alloc.h</text>
</a>
</g>
</g>
<!-- Node1&#45;&gt;Node12 -->
<g id="edge14_Node000001_Node000012" class="edge">
<title>Node1&#45;&gt;Node12</title>
<g id="a_edge14_Node000001_Node000012"><a xlink:title=" ">
<path fill="none" stroke="#63b8ff" d="M339.99,-164.95C382.22,-154.01 433.32,-140.77 468.71,-131.6"/>
<polygon fill="#63b8ff" stroke="#63b8ff" points="469.9,-134.9 478.71,-129.01 468.15,-128.13 469.9,-134.9"/>
</a>
</g>
</g>
<!-- Node3 -->
<g id="Node000003" class="node">
<title>Node3</title>
<g id="a_Node000003"><a xlink:title=" ">
<polygon fill="#e0e0e0" stroke="#999999" points="125.04,-19 72.04,-19 72.04,0 125.04,0 125.04,-19"/>
<text text-anchor="middle" x="98.54" y="-7" font-family="Helvetica,sans-Serif" font-size="10.00">stdint.h</text>
</a>
</g>
</g>
<!-- Node2&#45;&gt;Node3 -->
<g id="edge2_Node000002_Node000003" class="edge">
<title>Node2&#45;&gt;Node3</title>
<g id="a_edge2_Node000002_Node000003"><a xlink:title=" ">
<path fill="none" stroke="#63b8ff" d="M35.41,-109.9C17.55,-97.9 -9.39,-75.33 3.54,-55 16.31,-34.92 40.78,-23.75 61.69,-17.62"/>
<polygon fill="#63b8ff" stroke="#63b8ff" points="62.83,-20.94 71.6,-15 61.04,-14.17 62.83,-20.94"/>
</a>
</g>
</g>
<!-- Node4 -->
<g id="Node000004" class="node">
<title>Node4</title>
<g id="a_Node000004"><a xlink:href="no__os__i2c_8h.html" target="_top" xlink:title="Header file of I2C Interface.">
<polygon fill="white" stroke="#666666" points="86.54,-74 12.54,-74 12.54,-55 86.54,-55 86.54,-74"/>
<text text-anchor="middle" x="49.54" y="-62" font-family="Helvetica,sans-Serif" font-size="10.00">no_os_i2c.h</text>
</a>
</g>
</g>
<!-- Node2&#45;&gt;Node4 -->
<g id="edge3_Node000002_Node000004" class="edge">
<title>Node2&#45;&gt;Node4</title>
<g id="a_edge3_Node000002_Node000004"><a xlink:title=" ">
<path fill="none" stroke="#63b8ff" d="M49.54,-109.75C49.54,-102.8 49.54,-92.85 49.54,-84.13"/>
<polygon fill="#63b8ff" stroke="#63b8ff" points="53.04,-84.09 49.54,-74.09 46.04,-84.09 53.04,-84.09"/>
</a>
</g>
</g>
<!-- Node4&#45;&gt;Node3 -->
<g id="edge4_Node000004_Node000003" class="edge">
<title>Node4&#45;&gt;Node3</title>
<g id="a_edge4_Node000004_Node000003"><a xlink:title=" ">
<path fill="none" stroke="#63b8ff" d="M57.63,-54.75C64.7,-47.11 75.13,-35.82 83.69,-26.56"/>
<polygon fill="#63b8ff" stroke="#63b8ff" points="86.38,-28.81 90.6,-19.09 81.24,-24.06 86.38,-28.81"/>
</a>
</g>
</g>
<!-- Node5&#45;&gt;Node3 -->
<g id="edge6_Node000005_Node000003" class="edge">
<title>Node5&#45;&gt;Node3</title>
<g id="a_edge6_Node000005_Node000003"><a xlink:title=" ">
<path fill="none" stroke="#63b8ff" d="M139.45,-54.75C132.39,-47.11 121.95,-35.82 113.39,-26.56"/>
<polygon fill="#63b8ff" stroke="#63b8ff" points="115.84,-24.06 106.48,-19.09 110.7,-28.81 115.84,-24.06"/>
</a>
</g>
</g>
<!-- Node7 -->
<g id="Node000007" class="node">
<title>Node7</title>
<g id="a_Node000007"><a xlink:href="errno_8h.html" target="_top" xlink:title="Error macro definition for ARM Compiler.">
<polygon fill="white" stroke="#666666" points="259.04,-74 208.04,-74 208.04,-55 259.04,-55 259.04,-74"/>
<text text-anchor="middle" x="233.54" y="-62" font-family="Helvetica,sans-Serif" font-size="10.00">errno.h</text>
</a>
</g>
</g>
<!-- Node6&#45;&gt;Node7 -->
<g id="edge8_Node000006_Node000007" class="edge">
<title>Node6&#45;&gt;Node7</title>
<g id="a_edge8_Node000006_Node000007"><a xlink:title=" ">
<path fill="none" stroke="#63b8ff" d="M219.35,-109.75C221.6,-102.72 224.84,-92.62 227.66,-83.84"/>
<polygon fill="#63b8ff" stroke="#63b8ff" points="231.06,-84.68 230.79,-74.09 224.4,-82.54 231.06,-84.68"/>
</a>
</g>
</g>
<!-- Node8&#45;&gt;Node3 -->
<g id="edge10_Node000008_Node000003" class="edge">
<title>Node8&#45;&gt;Node3</title>
<g id="a_edge10_Node000008_Node000003"><a xlink:title=" ">
<path fill="none" stroke="#63b8ff" d="M309.58,-109.62C302.93,-95.77 288.2,-69.16 267.54,-55 227.56,-27.61 171.68,-17.07 135.3,-13.03"/>
<polygon fill="#63b8ff" stroke="#63b8ff" points="135.43,-9.52 125.13,-12.01 134.73,-16.49 135.43,-9.52"/>
</a>
</g>
</g>
<!-- Node9 -->
<g id="Node000009" class="node">
<title>Node9</title>
<g id="a_Node000009"><a xlink:title=" ">
<polygon fill="#e0e0e0" stroke="#999999" points="459.04,-74 406.04,-74 406.04,-55 459.04,-55 459.04,-74"/>
<text text-anchor="middle" x="432.54" y="-62" font-family="Helvetica,sans-Serif" font-size="10.00">stdlib.h</text>
</a>
</g>
</g>
<!-- Node8&#45;&gt;Node9 -->
<g id="edge11_Node000008_Node000009" class="edge">
<title>Node8&#45;&gt;Node9</title>
<g id="a_edge11_Node000008_Node000009"><a xlink:title=" ">
<path fill="none" stroke="#63b8ff" d="M332.66,-109.98C351.89,-101.42 381.77,-88.11 403.85,-78.28"/>
<polygon fill="#63b8ff" stroke="#63b8ff" points="405.36,-81.44 413.07,-74.17 402.51,-75.04 405.36,-81.44"/>
</a>
</g>
</g>
<!-- Node10 -->
<g id="Node000010" class="node">
<title>Node10</title>
<g id="a_Node000010"><a xlink:title=" ">
<polygon fill="#e0e0e0" stroke="#999999" points="377.54,-74 315.54,-74 315.54,-55 377.54,-55 377.54,-74"/>
<text text-anchor="middle" x="346.54" y="-62" font-family="Helvetica,sans-Serif" font-size="10.00">stdbool.h</text>
</a>
</g>
</g>
<!-- Node8&#45;&gt;Node10 -->
<g id="edge12_Node000008_Node000010" class="edge">
<title>Node8&#45;&gt;Node10</title>
<g id="a_edge12_Node000008_Node000010"><a xlink:title=" ">
<path fill="none" stroke="#63b8ff" d="M318.99,-109.75C323.56,-102.42 330.21,-91.73 335.83,-82.7"/>
<polygon fill="#63b8ff" stroke="#63b8ff" points="338.88,-84.43 341.19,-74.09 332.94,-80.73 338.88,-84.43"/>
</a>
</g>
</g>
<!-- Node12&#45;&gt;Node9 -->
<g id="edge16_Node000012_Node000009" class="edge">
<title>Node12&#45;&gt;Node9</title>
<g id="a_edge16_Node000012_Node000009"><a xlink:title=" ">
<path fill="none" stroke="#63b8ff" d="M498.85,-109.98C486.71,-101.84 468.18,-89.41 453.79,-79.76"/>
<polygon fill="#63b8ff" stroke="#63b8ff" points="455.72,-76.84 445.46,-74.17 451.82,-82.65 455.72,-76.84"/>
</a>
</g>
</g>
<!-- Node13 -->
<g id="Node000013" class="node">
<title>Node13</title>
<g id="a_Node000013"><a xlink:title=" ">
<polygon fill="#e0e0e0" stroke="#999999" points="536.54,-74 486.54,-74 486.54,-55 536.54,-55 536.54,-74"/>
<text text-anchor="middle" x="511.54" y="-62" font-family="Helvetica,sans-Serif" font-size="10.00">stdio.h</text>
</a>
</g>
</g>
<!-- Node12&#45;&gt;Node13 -->
<g id="edge15_Node000012_Node000013" class="edge">
<title>Node12&#45;&gt;Node13</title>
<g id="a_edge15_Node000012_Node000013"><a xlink:title=" ">
<path fill="none" stroke="#63b8ff" d="M511.54,-109.75C511.54,-102.8 511.54,-92.85 511.54,-84.13"/>
<polygon fill="#63b8ff" stroke="#63b8ff" points="515.04,-84.09 511.54,-74.09 508.04,-84.09 515.04,-84.09"/>
</a>
</g>
</g>
</g>
</svg>
