<?xml version="1.0" encoding="UTF-8" standalone="no"?>
<!DOCTYPE svg PUBLIC "-//W3C//DTD SVG 1.1//EN"
 "http://www.w3.org/Graphics/SVG/1.1/DTD/svg11.dtd">
<!-- Generated by graphviz version 2.43.0 (0)
 -->
<!-- Title: /home/runner/work/no&#45;OS/no&#45;OS/drivers/platform/aducm3029/aducm3029_timer.h Pages: 1 -->
<svg width="336pt" height="159pt"
 viewBox="0.00 0.00 336.03 159.00" xmlns="http://www.w3.org/2000/svg" xmlns:xlink="http://www.w3.org/1999/xlink">

<svg id="main" version="1.1" xmlns="http://www.w3.org/2000/svg" xmlns:xlink="http://www.w3.org/1999/xlink" xml:space="preserve">

<style type="text/css"><![CDATA[
.node, .edge {opacity: 0.7;}
.node.selected, .edge.selected {opacity: 1;}
.edge:hover path { stroke: red; }
.edge:hover polygon { stroke: red; fill: red; }
]]></style>
<script type="application/ecmascript" xlink:href="svg.min.js"/>
<svg id="graph" class="graph">
<g id="graph0" class="graph" transform="scale(1 1) rotate(0) translate(4 155)">
<title>/home/runner/work/no&#45;OS/no&#45;OS/drivers/platform/aducm3029/aducm3029_timer.h</title>
<!-- Node1 -->
<g id="Node000001" class="node">
<title>Node1</title>
<g id="a_Node000001"><a xlink:title="Header file of TIMER driver for ADuCM302x.">
<polygon fill="#999999" stroke="#666666" points="192.53,-151 16.53,-151 16.53,-110 192.53,-110 192.53,-151"/>
<text text-anchor="start" x="24.53" y="-139" font-family="Helvetica,sans-Serif" font-size="10.00">/home/runner/work/no</text>
<text text-anchor="start" x="24.53" y="-128" font-family="Helvetica,sans-Serif" font-size="10.00">&#45;OS/no&#45;OS/drivers/platform</text>
<text text-anchor="middle" x="104.53" y="-117" font-family="Helvetica,sans-Serif" font-size="10.00">/aducm3029/aducm3029_timer.h</text>
</a>
</g>
</g>
<!-- Node2 -->
<g id="Node000002" class="node">
<title>Node2</title>
<g id="a_Node000002"><a xlink:title=" ">
<polygon fill="#e0e0e0" stroke="#999999" points="82.03,-19 29.03,-19 29.03,0 82.03,0 82.03,-19"/>
<text text-anchor="middle" x="55.53" y="-7" font-family="Helvetica,sans-Serif" font-size="10.00">stdint.h</text>
</a>
</g>
</g>
<!-- Node1&#45;&gt;Node2 -->
<g id="edge1_Node000001_Node000002" class="edge">
<title>Node1&#45;&gt;Node2</title>
<g id="a_edge1_Node000001_Node000002"><a xlink:title=" ">
<path fill="none" stroke="#63b8ff" d="M45.09,-109.99C28.75,-101.59 12.95,-89.93 3.53,-74 -7.38,-55.56 12.48,-36.87 30.71,-24.59"/>
<polygon fill="#63b8ff" stroke="#63b8ff" points="32.81,-27.4 39.4,-19.1 29.07,-21.48 32.81,-27.4"/>
</a>
</g>
</g>
<!-- Node3 -->
<g id="Node000003" class="node">
<title>Node3</title>
<g id="a_Node000003"><a xlink:href="no__os__util_8h.html" target="_top" xlink:title="Header file of utility functions.">
<polygon fill="white" stroke="#666666" points="191.03,-74 116.03,-74 116.03,-55 191.03,-55 191.03,-74"/>
<text text-anchor="middle" x="153.53" y="-62" font-family="Helvetica,sans-Serif" font-size="10.00">no_os_util.h</text>
</a>
</g>
</g>
<!-- Node1&#45;&gt;Node3 -->
<g id="edge2_Node000001_Node000003" class="edge">
<title>Node1&#45;&gt;Node3</title>
<g id="a_edge2_Node000001_Node000003"><a xlink:title=" ">
<path fill="none" stroke="#63b8ff" d="M119.5,-109.95C126.27,-101.11 134.19,-90.77 140.68,-82.29"/>
<polygon fill="#63b8ff" stroke="#63b8ff" points="143.52,-84.33 146.82,-74.26 137.97,-80.07 143.52,-84.33"/>
</a>
</g>
</g>
<!-- Node6 -->
<g id="Node000006" class="node">
<title>Node6</title>
<g id="a_Node000006"><a xlink:href="no__os__timer_8h.html" target="_top" xlink:title="Timer control module header.">
<polygon fill="white" stroke="#666666" points="98.03,-74 13.03,-74 13.03,-55 98.03,-55 98.03,-74"/>
<text text-anchor="middle" x="55.53" y="-62" font-family="Helvetica,sans-Serif" font-size="10.00">no_os_timer.h</text>
</a>
</g>
</g>
<!-- Node1&#45;&gt;Node6 -->
<g id="edge6_Node000001_Node000006" class="edge">
<title>Node1&#45;&gt;Node6</title>
<g id="a_edge6_Node000001_Node000006"><a xlink:title=" ">
<path fill="none" stroke="#63b8ff" d="M89.56,-109.95C82.8,-101.11 74.88,-90.77 68.38,-82.29"/>
<polygon fill="#63b8ff" stroke="#63b8ff" points="71.1,-80.07 62.24,-74.26 65.54,-84.33 71.1,-80.07"/>
</a>
</g>
</g>
<!-- Node7 -->
<g id="Node000007" class="node">
<title>Node7</title>
<g id="a_Node000007"><a xlink:title=" ">
<polygon fill="#e0e0e0" stroke="#999999" points="328.03,-74 209.03,-74 209.03,-55 328.03,-55 328.03,-74"/>
<text text-anchor="middle" x="268.53" y="-62" font-family="Helvetica,sans-Serif" font-size="10.00">drivers/tmr/adi_tmr.h</text>
</a>
</g>
</g>
<!-- Node1&#45;&gt;Node7 -->
<g id="edge8_Node000001_Node000007" class="edge">
<title>Node1&#45;&gt;Node7</title>
<g id="a_edge8_Node000001_Node000007"><a xlink:title=" ">
<path fill="none" stroke="#63b8ff" d="M154.63,-109.95C181.5,-99.46 213.78,-86.87 237.11,-77.76"/>
<polygon fill="#63b8ff" stroke="#63b8ff" points="238.47,-80.99 246.52,-74.09 235.93,-74.47 238.47,-80.99"/>
</a>
</g>
</g>
<!-- Node3&#45;&gt;Node2 -->
<g id="edge3_Node000003_Node000002" class="edge">
<title>Node3&#45;&gt;Node2</title>
<g id="a_edge3_Node000003_Node000002"><a xlink:title=" ">
<path fill="none" stroke="#63b8ff" d="M137.79,-54.98C122.31,-46.61 98.44,-33.7 80.39,-23.95"/>
<polygon fill="#63b8ff" stroke="#63b8ff" points="82.03,-20.85 71.56,-19.17 78.7,-27.01 82.03,-20.85"/>
</a>
</g>
</g>
<!-- Node4 -->
<g id="Node000004" class="node">
<title>Node4</title>
<g id="a_Node000004"><a xlink:title=" ">
<polygon fill="#e0e0e0" stroke="#999999" points="166.03,-19 113.03,-19 113.03,0 166.03,0 166.03,-19"/>
<text text-anchor="middle" x="139.53" y="-7" font-family="Helvetica,sans-Serif" font-size="10.00">stdlib.h</text>
</a>
</g>
</g>
<!-- Node3&#45;&gt;Node4 -->
<g id="edge4_Node000003_Node000004" class="edge">
<title>Node3&#45;&gt;Node4</title>
<g id="a_edge4_Node000003_Node000004"><a xlink:title=" ">
<path fill="none" stroke="#63b8ff" d="M151.22,-54.75C149.37,-47.72 146.7,-37.62 144.38,-28.84"/>
<polygon fill="#63b8ff" stroke="#63b8ff" points="147.74,-27.86 141.8,-19.09 140.97,-29.65 147.74,-27.86"/>
</a>
</g>
</g>
<!-- Node5 -->
<g id="Node000005" class="node">
<title>Node5</title>
<g id="a_Node000005"><a xlink:title=" ">
<polygon fill="#e0e0e0" stroke="#999999" points="246.53,-19 184.53,-19 184.53,0 246.53,0 246.53,-19"/>
<text text-anchor="middle" x="215.53" y="-7" font-family="Helvetica,sans-Serif" font-size="10.00">stdbool.h</text>
</a>
</g>
</g>
<!-- Node3&#45;&gt;Node5 -->
<g id="edge5_Node000003_Node000005" class="edge">
<title>Node3&#45;&gt;Node5</title>
<g id="a_edge5_Node000003_Node000005"><a xlink:title=" ">
<path fill="none" stroke="#63b8ff" d="M163.49,-54.98C172.66,-47.15 186.47,-35.34 197.56,-25.86"/>
<polygon fill="#63b8ff" stroke="#63b8ff" points="200.06,-28.33 205.39,-19.17 195.51,-23.01 200.06,-28.33"/>
</a>
</g>
</g>
<!-- Node6&#45;&gt;Node2 -->
<g id="edge7_Node000006_Node000002" class="edge">
<title>Node6&#45;&gt;Node2</title>
<g id="a_edge7_Node000006_Node000002"><a xlink:title=" ">
<path fill="none" stroke="#63b8ff" d="M55.53,-54.75C55.53,-47.8 55.53,-37.85 55.53,-29.13"/>
<polygon fill="#63b8ff" stroke="#63b8ff" points="59.03,-29.09 55.53,-19.09 52.03,-29.09 59.03,-29.09"/>
</a>
</g>
</g>
</g>
</svg>
</svg>

<style type='text/css'>
<![CDATA[
[data-mouse-over-selected='false'] { opacity: 0.7; }
[data-mouse-over-selected='true']  { opacity: 1.0; }
]]>
</style>
<script type="application/ecmascript"><![CDATA[
document.addEventListener('DOMContentLoaded', (event) => {
  highlightEdges();
  highlightAdjacentNodes();
});
]]></script>
</svg>
