<?xml version="1.0" encoding="UTF-8" standalone="no"?>
<!DOCTYPE svg PUBLIC "-//W3C//DTD SVG 1.1//EN"
 "http://www.w3.org/Graphics/SVG/1.1/DTD/svg11.dtd">
<!-- Generated by graphviz version 2.43.0 (0)
 -->
<!-- Title: /home/runner/work/no&#45;OS/no&#45;OS/drivers/platform/aducm3029/aducm3029_irq.h Pages: 1 -->
<!--zoomable 225 -->

<svg id="main" version="1.1" xmlns="http://www.w3.org/2000/svg" xmlns:xlink="http://www.w3.org/1999/xlink" xml:space="preserve" onload="init(evt)">

<style type="text/css"><![CDATA[
.node, .edge {opacity: 0.7;}
.node.selected, .edge.selected {opacity: 1;}
.edge:hover path { stroke: red; }
.edge:hover polygon { stroke: red; fill: red; }
]]></style>

<defs>
  <circle id="rim" cx="0" cy="0" r="7"/>
  <circle id="rim2" cx="0" cy="0" r="3.5"/>
  <g id="zoomPlus">
    <use xlink:href="#rim" fill="#404040"><set attributeName="fill" to="#808080" begin="zoomplus.mouseover" end="zoomplus.mouseout"/></use>
    <path d="M-4,0h8M0,-4v8" fill="none" stroke="white" stroke-width="1.5" pointer-events="none"/>
  </g>
  <g id="zoomMin">
    <use xlink:href="#rim" fill="#404040"><set attributeName="fill" to="#808080" begin="zoomminus.mouseover" end="zoomminus.mouseout"/></use>
    <path d="M-4,0h8" fill="none" stroke="white" stroke-width="1.5" pointer-events="none"/>
  </g>
  <g id="arrowUp" transform="translate(30 24)">
    <use xlink:href="#rim"/>
    <path pointer-events="none" fill="none" stroke="white" stroke-width="1.5" d="M0,-3.0v7 M-2.5,-0.5L0,-3.0L2.5,-0.5"/>
  </g>
  <g id="arrowRight" transform="rotate(90) translate(36 -43)">
    <use xlink:href="#rim"/>
    <path pointer-events="none" fill="none" stroke="white" stroke-width="1.5" d="M0,-3.0v7 M-2.5,-0.5L0,-3.0L2.5,-0.5"/>
  </g>
  <g id="arrowDown" transform="rotate(180) translate(-30 -48)">
    <use xlink:href="#rim"/>
    <path pointer-events="none" fill="none" stroke="white" stroke-width="1.5" d="M0,-3.0v7 M-2.5,-0.5L0,-3.0L2.5,-0.5"/>
  </g>
  <g id="arrowLeft" transform="rotate(270) translate(-36 17)">
    <use xlink:href="#rim"/>
    <path pointer-events="none" fill="none" stroke="white" stroke-width="1.5" d="M0,-3.0v7 M-2.5,-0.5L0,-3.0L2.5,-0.5"/>
  </g>
  <g id="resetDef">
    <use xlink:href="#rim2" fill="#404040"><set attributeName="fill" to="#808080" begin="reset.mouseover" end="reset.mouseout"/></use>
  </g>
</defs>
<script type="application/ecmascript">
var viewWidth = 2668;
var viewHeight = 225;
var sectionId = 'dynsection-1';
</script>
<script type="application/ecmascript" xlink:href="svg.min.js"/>
<svg id="graph" class="graph">
<g id="viewport">
<title>/home/runner/work/no&#45;OS/no&#45;OS/drivers/platform/aducm3029/aducm3029_irq.h</title>
<!-- Node1 -->
<g id="Node000001" class="node">
<title>Node1</title>
<g id="a_Node000001"><a xlink:title="Header file of IRQ driver for ADuCM302x.">
<polygon fill="#999999" stroke="#666666" points="1442.5,-217 1278.5,-217 1278.5,-176 1442.5,-176 1442.5,-217"/>
<text text-anchor="start" x="1286.5" y="-205" font-family="Helvetica,sans-Serif" font-size="10.00">/home/runner/work/no</text>
<text text-anchor="start" x="1286.5" y="-194" font-family="Helvetica,sans-Serif" font-size="10.00">&#45;OS/no&#45;OS/drivers/platform</text>
<text text-anchor="middle" x="1360.5" y="-183" font-family="Helvetica,sans-Serif" font-size="10.00">/aducm3029/aducm3029_irq.h</text>
</a>
</g>
</g>
<!-- Node2 -->
<g id="Node000002" class="node">
<title>Node2</title>
<g id="a_Node000002"><a xlink:href="aducm3029__gpio__irq_8c.html" target="_top" xlink:title="Source file for GPIO IRQ driver.">
<polygon fill="white" stroke="#666666" points="189,-134.5 0,-134.5 0,-93.5 189,-93.5 189,-134.5"/>
<text text-anchor="start" x="8" y="-122.5" font-family="Helvetica,sans-Serif" font-size="10.00">/home/runner/work/no</text>
<text text-anchor="start" x="8" y="-111.5" font-family="Helvetica,sans-Serif" font-size="10.00">&#45;OS/no&#45;OS/drivers/platform</text>
<text text-anchor="middle" x="94.5" y="-100.5" font-family="Helvetica,sans-Serif" font-size="10.00">/aducm3029/aducm3029_gpio_irq.c</text>
</a>
</g>
</g>
<!-- Node1&#45;&gt;Node2 -->
<g id="edge1_Node000001_Node000002" class="edge">
<title>Node1&#45;&gt;Node2</title>
<g id="a_edge1_Node000001_Node000002"><a xlink:title=" ">
<path fill="none" stroke="#63b8ff" d="M1268.11,-193.36C1030.69,-187.51 403.52,-169.64 197.5,-140 187.76,-138.6 177.59,-136.69 167.59,-134.55"/>
<polygon fill="#63b8ff" stroke="#63b8ff" points="1268.35,-196.87 1278.43,-193.62 1268.52,-189.87 1268.35,-196.87"/>
</a>
</g>
</g>
<!-- Node3 -->
<g id="Node000003" class="node">
<title>Node3</title>
<g id="a_Node000003"><a xlink:href="aducm3029__irq_8c.html" target="_top" xlink:title="Implementation of External IRQ driver for ADuCM302x.">
<polygon fill="white" stroke="#666666" points="370,-134.5 207,-134.5 207,-93.5 370,-93.5 370,-134.5"/>
<text text-anchor="start" x="215" y="-122.5" font-family="Helvetica,sans-Serif" font-size="10.00">/home/runner/work/no</text>
<text text-anchor="start" x="215" y="-111.5" font-family="Helvetica,sans-Serif" font-size="10.00">&#45;OS/no&#45;OS/drivers/platform</text>
<text text-anchor="middle" x="288.5" y="-100.5" font-family="Helvetica,sans-Serif" font-size="10.00">/aducm3029/aducm3029_irq.c</text>
</a>
</g>
</g>
<!-- Node1&#45;&gt;Node3 -->
<g id="edge2_Node000001_Node000003" class="edge">
<title>Node1&#45;&gt;Node3</title>
<g id="a_edge2_Node000001_Node000003"><a xlink:title=" ">
<path fill="none" stroke="#63b8ff" d="M1268.18,-192.77C1057.99,-186.16 548.86,-167.73 379.5,-140 370.93,-138.6 362.01,-136.7 353.25,-134.58"/>
<polygon fill="#63b8ff" stroke="#63b8ff" points="1268.16,-196.27 1278.27,-193.09 1268.38,-189.28 1268.16,-196.27"/>
</a>
</g>
</g>
<!-- Node4 -->
<g id="Node000004" class="node">
<title>Node4</title>
<g id="a_Node000004"><a xlink:href="aducm3029__uart_8c.html" target="_top" xlink:title="Implementation of UART driver for ADuCM302x.">
<polygon fill="white" stroke="#666666" points="558.5,-134.5 388.5,-134.5 388.5,-93.5 558.5,-93.5 558.5,-134.5"/>
<text text-anchor="start" x="396.5" y="-122.5" font-family="Helvetica,sans-Serif" font-size="10.00">/home/runner/work/no</text>
<text text-anchor="start" x="396.5" y="-111.5" font-family="Helvetica,sans-Serif" font-size="10.00">&#45;OS/no&#45;OS/drivers/platform</text>
<text text-anchor="middle" x="473.5" y="-100.5" font-family="Helvetica,sans-Serif" font-size="10.00">/aducm3029/aducm3029_uart.c</text>
</a>
</g>
</g>
<!-- Node1&#45;&gt;Node4 -->
<g id="edge3_Node000001_Node000004" class="edge">
<title>Node1&#45;&gt;Node4</title>
<g id="a_edge3_Node000001_Node000004"><a xlink:title=" ">
<path fill="none" stroke="#63b8ff" d="M1267.84,-194.71C1119.13,-192.16 818.44,-181.76 567.5,-140 558.75,-138.54 549.64,-136.63 540.68,-134.52"/>
<polygon fill="#63b8ff" stroke="#63b8ff" points="1268.22,-198.21 1278.28,-194.88 1268.34,-191.21 1268.22,-198.21"/>
</a>
</g>
</g>
<!-- Node5 -->
<g id="Node000005" class="node">
<title>Node5</title>
<g id="a_Node000005"><a xlink:href="ad7746-ebz_2src_2app_2parameters_8h.html" target="_top" xlink:title="Configuration parameters for AD7746&#45;EBZ demo project.">
<polygon fill="white" stroke="#666666" points="724,-134.5 577,-134.5 577,-93.5 724,-93.5 724,-134.5"/>
<text text-anchor="start" x="585" y="-122.5" font-family="Helvetica,sans-Serif" font-size="10.00">/home/runner/work/no</text>
<text text-anchor="start" x="585" y="-111.5" font-family="Helvetica,sans-Serif" font-size="10.00">&#45;OS/no&#45;OS/projects/ad7746</text>
<text text-anchor="middle" x="650.5" y="-100.5" font-family="Helvetica,sans-Serif" font-size="10.00">&#45;ebz/src/app/parameters.h</text>
</a>
</g>
</g>
<!-- Node1&#45;&gt;Node5 -->
<g id="edge4_Node000001_Node000005" class="edge">
<title>Node1&#45;&gt;Node5</title>
<g id="a_edge4_Node000001_Node000005"><a xlink:title=" ">
<path fill="none" stroke="#63b8ff" d="M1268.31,-193.33C1145.15,-189.08 920.61,-176.57 732.5,-140 724.9,-138.52 717.01,-136.61 709.25,-134.51"/>
<polygon fill="#63b8ff" stroke="#63b8ff" points="1268.34,-196.84 1278.45,-193.67 1268.57,-189.84 1268.34,-196.84"/>
</a>
</g>
</g>
<!-- Node7 -->
<g id="Node000007" class="node">
<title>Node7</title>
<g id="a_Node000007"><a xlink:href="ada4250__ardz_2src_2parameters_8h.html" target="_top" xlink:title="ADA4250_ardz Parameters Definitions.">
<polygon fill="white" stroke="#666666" points="895,-134.5 742,-134.5 742,-93.5 895,-93.5 895,-134.5"/>
<text text-anchor="start" x="750" y="-122.5" font-family="Helvetica,sans-Serif" font-size="10.00">/home/runner/work/no</text>
<text text-anchor="start" x="750" y="-111.5" font-family="Helvetica,sans-Serif" font-size="10.00">&#45;OS/no&#45;OS/projects/ada4250</text>
<text text-anchor="middle" x="818.5" y="-100.5" font-family="Helvetica,sans-Serif" font-size="10.00">_ardz/src/parameters.h</text>
</a>
</g>
</g>
<!-- Node1&#45;&gt;Node7 -->
<g id="edge6_Node000001_Node000007" class="edge">
<title>Node1&#45;&gt;Node7</title>
<g id="a_edge6_Node000001_Node000007"><a xlink:title=" ">
<path fill="none" stroke="#63b8ff" d="M1268.12,-188.67C1175.5,-180.79 1029.13,-165.52 904.5,-140 897.04,-138.47 889.28,-136.61 881.61,-134.6"/>
<polygon fill="#63b8ff" stroke="#63b8ff" points="1268.05,-192.18 1278.31,-189.52 1268.64,-185.2 1268.05,-192.18"/>
</a>
</g>
</g>
<!-- Node9 -->
<g id="Node000009" class="node">
<title>Node9</title>
<g id="a_Node000009"><a xlink:href="aducm3029__flash__demo_2src_2main_8c.html" target="_top" xlink:title="Implementation of Main Function.">
<polygon fill="white" stroke="#666666" points="1081.5,-134.5 913.5,-134.5 913.5,-93.5 1081.5,-93.5 1081.5,-134.5"/>
<text text-anchor="start" x="921.5" y="-122.5" font-family="Helvetica,sans-Serif" font-size="10.00">/home/runner/work/no</text>
<text text-anchor="start" x="921.5" y="-111.5" font-family="Helvetica,sans-Serif" font-size="10.00">&#45;OS/no&#45;OS/projects/aducm3029</text>
<text text-anchor="middle" x="997.5" y="-100.5" font-family="Helvetica,sans-Serif" font-size="10.00">_flash_demo/src/main.c</text>
</a>
</g>
</g>
<!-- Node1&#45;&gt;Node9 -->
<g id="edge8_Node000001_Node000009" class="edge">
<title>Node1&#45;&gt;Node9</title>
<g id="a_edge8_Node000001_Node000009"><a xlink:title=" ">
<path fill="none" stroke="#63b8ff" d="M1268.46,-178C1216.12,-167.69 1149.45,-153.97 1090.5,-140 1083.34,-138.3 1075.9,-136.45 1068.48,-134.55"/>
<polygon fill="#63b8ff" stroke="#63b8ff" points="1267.91,-181.46 1278.4,-179.95 1269.26,-174.59 1267.91,-181.46"/>
</a>
</g>
</g>
<!-- Node10 -->
<g id="Node000010" class="node">
<title>Node10</title>
<g id="a_Node000010"><a xlink:href="adxrs290-pmdz_2src_2platform_2aducm3029_2parameters_8h.html" target="_top" xlink:title="Definitions specific to STM32 platform used by eval&#45;adxrs290&#45;pmdz project.">
<polygon fill="white" stroke="#666666" points="1269.5,-140 1099.5,-140 1099.5,-88 1269.5,-88 1269.5,-140"/>
<text text-anchor="start" x="1107.5" y="-128" font-family="Helvetica,sans-Serif" font-size="10.00">/home/runner/work/no</text>
<text text-anchor="start" x="1107.5" y="-117" font-family="Helvetica,sans-Serif" font-size="10.00">&#45;OS/no&#45;OS/projects/adxrs290</text>
<text text-anchor="start" x="1107.5" y="-106" font-family="Helvetica,sans-Serif" font-size="10.00">&#45;pmdz/src/platform/aducm3029</text>
<text text-anchor="middle" x="1184.5" y="-95" font-family="Helvetica,sans-Serif" font-size="10.00">/parameters.h</text>
</a>
</g>
</g>
<!-- Node1&#45;&gt;Node10 -->
<g id="edge9_Node000001_Node000010" class="edge">
<title>Node1&#45;&gt;Node10</title>
<g id="a_edge9_Node000001_Node000010"><a xlink:title=" ">
<path fill="none" stroke="#63b8ff" d="M1308.08,-171.53C1286.44,-161.63 1261.34,-150.14 1239.44,-140.13"/>
<polygon fill="#63b8ff" stroke="#63b8ff" points="1306.9,-174.83 1317.45,-175.81 1309.81,-168.47 1306.9,-174.83"/>
</a>
</g>
</g>
<!-- Node13 -->
<g id="Node000013" class="node">
<title>Node13</title>
<g id="a_Node000013"><a xlink:href="cn0531_2src_2main_8c.html" target="_top" xlink:title="Implementation of Main Function.">
<polygon fill="white" stroke="#666666" points="1433.5,-134.5 1287.5,-134.5 1287.5,-93.5 1433.5,-93.5 1433.5,-134.5"/>
<text text-anchor="start" x="1295.5" y="-122.5" font-family="Helvetica,sans-Serif" font-size="10.00">/home/runner/work/no</text>
<text text-anchor="start" x="1295.5" y="-111.5" font-family="Helvetica,sans-Serif" font-size="10.00">&#45;OS/no&#45;OS/projects/cn0531</text>
<text text-anchor="middle" x="1360.5" y="-100.5" font-family="Helvetica,sans-Serif" font-size="10.00">/src/main.c</text>
</a>
</g>
</g>
<!-- Node1&#45;&gt;Node13 -->
<g id="edge12_Node000001_Node000013" class="edge">
<title>Node1&#45;&gt;Node13</title>
<g id="a_edge12_Node000001_Node000013"><a xlink:title=" ">
<path fill="none" stroke="#63b8ff" d="M1360.5,-165.37C1360.5,-155.1 1360.5,-143.9 1360.5,-134.67"/>
<polygon fill="#63b8ff" stroke="#63b8ff" points="1357,-165.6 1360.5,-175.6 1364,-165.6 1357,-165.6"/>
</a>
</g>
</g>
<!-- Node14 -->
<g id="Node000014" class="node">
<title>Node14</title>
<g id="a_Node000014"><a xlink:href="cn0552_2src_2app_2parameters_8h.html" target="_top" xlink:title="Configuration parameters for AD7746&#45;EBZ demo project.">
<polygon fill="white" stroke="#666666" points="1597.5,-134.5 1451.5,-134.5 1451.5,-93.5 1597.5,-93.5 1597.5,-134.5"/>
<text text-anchor="start" x="1459.5" y="-122.5" font-family="Helvetica,sans-Serif" font-size="10.00">/home/runner/work/no</text>
<text text-anchor="start" x="1459.5" y="-111.5" font-family="Helvetica,sans-Serif" font-size="10.00">&#45;OS/no&#45;OS/projects/cn0552</text>
<text text-anchor="middle" x="1524.5" y="-100.5" font-family="Helvetica,sans-Serif" font-size="10.00">/src/app/parameters.h</text>
</a>
</g>
</g>
<!-- Node1&#45;&gt;Node14 -->
<g id="edge13_Node000001_Node000014" class="edge">
<title>Node1&#45;&gt;Node14</title>
<g id="a_edge13_Node000001_Node000014"><a xlink:title=" ">
<path fill="none" stroke="#63b8ff" d="M1409.87,-171.27C1433.74,-159.55 1462.01,-145.67 1484.51,-134.63"/>
<polygon fill="#63b8ff" stroke="#63b8ff" points="1408.05,-168.26 1400.62,-175.81 1411.14,-174.54 1408.05,-168.26"/>
</a>
</g>
</g>
<!-- Node16 -->
<g id="Node000016" class="node">
<title>Node16</title>
<g id="a_Node000016"><a xlink:href="demo__esp_2src_2platform_2aducm3029_2parameters_8h.html" target="_top" xlink:title="Definitions specific to aducm3029 platform used by demo_esp project.">
<polygon fill="white" stroke="#666666" points="1777,-140 1616,-140 1616,-88 1777,-88 1777,-140"/>
<text text-anchor="start" x="1624" y="-128" font-family="Helvetica,sans-Serif" font-size="10.00">/home/runner/work/no</text>
<text text-anchor="start" x="1624" y="-117" font-family="Helvetica,sans-Serif" font-size="10.00">&#45;OS/no&#45;OS/projects/demo</text>
<text text-anchor="start" x="1624" y="-106" font-family="Helvetica,sans-Serif" font-size="10.00">_esp/src/platform/aducm3029</text>
<text text-anchor="middle" x="1696.5" y="-95" font-family="Helvetica,sans-Serif" font-size="10.00">/parameters.h</text>
</a>
</g>
</g>
<!-- Node1&#45;&gt;Node16 -->
<g id="edge15_Node000001_Node000016" class="edge">
<title>Node1&#45;&gt;Node16</title>
<g id="a_edge15_Node000001_Node000016"><a xlink:title=" ">
<path fill="none" stroke="#63b8ff" d="M1452.75,-175.81C1499.03,-165.65 1555.87,-152.74 1606.5,-140 1609.49,-139.25 1612.53,-138.47 1615.6,-137.67"/>
<polygon fill="#63b8ff" stroke="#63b8ff" points="1451.76,-172.45 1442.74,-178 1453.26,-179.28 1451.76,-172.45"/>
</a>
</g>
</g>
<!-- Node18 -->
<g id="Node000018" class="node">
<title>Node18</title>
<g id="a_Node000018"><a xlink:href="eval-adxl355-pmdz_2src_2platform_2aducm3029_2parameters_8h.html" target="_top" xlink:title="Definitions specific to aducm3029 platform used by eval&#45;adxl355&#45;pmdz project.">
<polygon fill="white" stroke="#666666" points="1947.5,-140 1795.5,-140 1795.5,-88 1947.5,-88 1947.5,-140"/>
<text text-anchor="start" x="1803.5" y="-128" font-family="Helvetica,sans-Serif" font-size="10.00">/home/runner/work/no</text>
<text text-anchor="start" x="1803.5" y="-117" font-family="Helvetica,sans-Serif" font-size="10.00">&#45;OS/no&#45;OS/projects/eval</text>
<text text-anchor="start" x="1803.5" y="-106" font-family="Helvetica,sans-Serif" font-size="10.00">&#45;adxl355&#45;pmdz/src/platform</text>
<text text-anchor="middle" x="1871.5" y="-95" font-family="Helvetica,sans-Serif" font-size="10.00">/aducm3029/parameters.h</text>
</a>
</g>
</g>
<!-- Node1&#45;&gt;Node18 -->
<g id="edge17_Node000001_Node000018" class="edge">
<title>Node1&#45;&gt;Node18</title>
<g id="a_edge17_Node000001_Node000018"><a xlink:title=" ">
<path fill="none" stroke="#63b8ff" d="M1452.66,-187.57C1539.21,-179.16 1672.01,-163.76 1785.5,-140 1788.7,-139.33 1791.95,-138.6 1795.22,-137.83"/>
<polygon fill="#63b8ff" stroke="#63b8ff" points="1452.22,-184.1 1442.6,-188.54 1452.89,-191.07 1452.22,-184.1"/>
</a>
</g>
</g>
<!-- Node21 -->
<g id="Node000021" class="node">
<title>Node21</title>
<g id="a_Node000021"><a xlink:href="eval-ltc4306_2src_2platform_2aducm3029_2parameters_8h.html" target="_top" xlink:title="Definitions specific to aducm3029 platform used by eval&#45;ltc4306&#45;pmdz project.">
<polygon fill="white" stroke="#666666" points="2145,-140 1966,-140 1966,-88 2145,-88 2145,-140"/>
<text text-anchor="start" x="1974" y="-128" font-family="Helvetica,sans-Serif" font-size="10.00">/home/runner/work/no</text>
<text text-anchor="start" x="1974" y="-117" font-family="Helvetica,sans-Serif" font-size="10.00">&#45;OS/no&#45;OS/projects/eval</text>
<text text-anchor="start" x="1974" y="-106" font-family="Helvetica,sans-Serif" font-size="10.00">&#45;ltc4306/src/platform/aducm3029</text>
<text text-anchor="middle" x="2055.5" y="-95" font-family="Helvetica,sans-Serif" font-size="10.00">/parameters.h</text>
</a>
</g>
</g>
<!-- Node1&#45;&gt;Node21 -->
<g id="edge20_Node000001_Node000021" class="edge">
<title>Node1&#45;&gt;Node21</title>
<g id="a_edge20_Node000001_Node000021"><a xlink:title=" ">
<path fill="none" stroke="#63b8ff" d="M1453.03,-191.32C1570.7,-184.99 1779.85,-170.34 1956.5,-140 1959.56,-139.47 1962.66,-138.9 1965.79,-138.3"/>
<polygon fill="#63b8ff" stroke="#63b8ff" points="1452.77,-187.83 1442.97,-191.85 1453.14,-194.82 1452.77,-187.83"/>
</a>
</g>
</g>
<!-- Node22 -->
<g id="Node000022" class="node">
<title>Node22</title>
<g id="a_Node000022"><a xlink:href="iio__adpd1080_2src_2main_8c.html" target="_top" xlink:title="Implementation of Main Function.">
<polygon fill="white" stroke="#666666" points="2287.5,-134.5 2163.5,-134.5 2163.5,-93.5 2287.5,-93.5 2287.5,-134.5"/>
<text text-anchor="start" x="2171.5" y="-122.5" font-family="Helvetica,sans-Serif" font-size="10.00">/home/runner/work/no</text>
<text text-anchor="start" x="2171.5" y="-111.5" font-family="Helvetica,sans-Serif" font-size="10.00">&#45;OS/no&#45;OS/projects/iio</text>
<text text-anchor="middle" x="2225.5" y="-100.5" font-family="Helvetica,sans-Serif" font-size="10.00">_adpd1080/src/main.c</text>
</a>
</g>
</g>
<!-- Node1&#45;&gt;Node22 -->
<g id="edge21_Node000001_Node000022" class="edge">
<title>Node1&#45;&gt;Node22</title>
<g id="a_edge21_Node000001_Node000022"><a xlink:title=" ">
<path fill="none" stroke="#63b8ff" d="M1452.77,-192.1C1632.18,-185 2021.95,-166.95 2153.5,-140 2160.37,-138.59 2167.48,-136.7 2174.44,-134.57"/>
<polygon fill="#63b8ff" stroke="#63b8ff" points="1452.42,-188.61 1442.57,-192.51 1452.7,-195.61 1452.42,-188.61"/>
</a>
</g>
</g>
<!-- Node23 -->
<g id="Node000023" class="node">
<title>Node23</title>
<g id="a_Node000023"><a xlink:href="iio__aducm3029_2src_2parameters_8h.html" target="_top" xlink:title="Parameters Definitions.">
<polygon fill="white" stroke="#666666" points="2469.5,-134.5 2305.5,-134.5 2305.5,-93.5 2469.5,-93.5 2469.5,-134.5"/>
<text text-anchor="start" x="2313.5" y="-122.5" font-family="Helvetica,sans-Serif" font-size="10.00">/home/runner/work/no</text>
<text text-anchor="start" x="2313.5" y="-111.5" font-family="Helvetica,sans-Serif" font-size="10.00">&#45;OS/no&#45;OS/projects/iio</text>
<text text-anchor="middle" x="2387.5" y="-100.5" font-family="Helvetica,sans-Serif" font-size="10.00">_aducm3029/src/parameters.h</text>
</a>
</g>
</g>
<!-- Node1&#45;&gt;Node23 -->
<g id="edge22_Node000001_Node000023" class="edge">
<title>Node1&#45;&gt;Node23</title>
<g id="a_edge22_Node000001_Node000023"><a xlink:title=" ">
<path fill="none" stroke="#63b8ff" d="M1452.6,-196.38C1621.22,-196.6 1990.37,-190.56 2296.5,-140 2305.07,-138.59 2313.99,-136.68 2322.75,-134.56"/>
<polygon fill="#63b8ff" stroke="#63b8ff" points="1452.52,-192.88 1442.52,-196.36 1452.51,-199.88 1452.52,-192.88"/>
</a>
</g>
</g>
<!-- Node25 -->
<g id="Node000025" class="node">
<title>Node25</title>
<g id="a_Node000025"><a xlink:href="iio__demo_2src_2platform_2aducm3029_2parameters_8h.html" target="_top" xlink:title="Definitions specific to aducm3029 platform used by iio_demo project.">
<polygon fill="white" stroke="#666666" points="2659.5,-140 2487.5,-140 2487.5,-88 2659.5,-88 2659.5,-140"/>
<text text-anchor="start" x="2495.5" y="-128" font-family="Helvetica,sans-Serif" font-size="10.00">/home/runner/work/no</text>
<text text-anchor="start" x="2495.5" y="-117" font-family="Helvetica,sans-Serif" font-size="10.00">&#45;OS/no&#45;OS/projects/iio</text>
<text text-anchor="start" x="2495.5" y="-106" font-family="Helvetica,sans-Serif" font-size="10.00">_demo/src/platform/aducm3029</text>
<text text-anchor="middle" x="2573.5" y="-95" font-family="Helvetica,sans-Serif" font-size="10.00">/parameters.h</text>
</a>
</g>
</g>
<!-- Node1&#45;&gt;Node25 -->
<g id="edge24_Node000001_Node000025" class="edge">
<title>Node1&#45;&gt;Node25</title>
<g id="a_edge24_Node000001_Node000025"><a xlink:title=" ">
<path fill="none" stroke="#63b8ff" d="M1452.65,-193.39C1683.42,-187.71 2281.69,-170.44 2478.5,-140 2481.45,-139.54 2484.44,-139.03 2487.45,-138.48"/>
<polygon fill="#63b8ff" stroke="#63b8ff" points="1452.52,-189.89 1442.61,-193.64 1452.69,-196.89 1452.52,-189.89"/>
</a>
</g>
</g>
<!-- Node6 -->
<g id="Node000006" class="node">
<title>Node6</title>
<g id="a_Node000006"><a xlink:href="ad7746-ebz_2src_2app_2headless_8c.html" target="_top" xlink:title="AD7746&#45;EBZ demo project main file.">
<polygon fill="white" stroke="#666666" points="724,-46.5 577,-46.5 577,-5.5 724,-5.5 724,-46.5"/>
<text text-anchor="start" x="585" y="-34.5" font-family="Helvetica,sans-Serif" font-size="10.00">/home/runner/work/no</text>
<text text-anchor="start" x="585" y="-23.5" font-family="Helvetica,sans-Serif" font-size="10.00">&#45;OS/no&#45;OS/projects/ad7746</text>
<text text-anchor="middle" x="650.5" y="-12.5" font-family="Helvetica,sans-Serif" font-size="10.00">&#45;ebz/src/app/headless.c</text>
</a>
</g>
</g>
<!-- Node5&#45;&gt;Node6 -->
<g id="edge5_Node000005_Node000006" class="edge">
<title>Node5&#45;&gt;Node6</title>
<g id="a_edge5_Node000005_Node000006"><a xlink:title=" ">
<path fill="none" stroke="#63b8ff" d="M650.5,-83.36C650.5,-71.26 650.5,-57.58 650.5,-46.74"/>
<polygon fill="#63b8ff" stroke="#63b8ff" points="647,-83.49 650.5,-93.49 654,-83.49 647,-83.49"/>
</a>
</g>
</g>
<!-- Node8 -->
<g id="Node000008" class="node">
<title>Node8</title>
<g id="a_Node000008"><a xlink:href="ada4250__ardz_8c.html" target="_top" xlink:title="Implementation of Main Function.">
<polygon fill="white" stroke="#666666" points="895,-46.5 742,-46.5 742,-5.5 895,-5.5 895,-46.5"/>
<text text-anchor="start" x="750" y="-34.5" font-family="Helvetica,sans-Serif" font-size="10.00">/home/runner/work/no</text>
<text text-anchor="start" x="750" y="-23.5" font-family="Helvetica,sans-Serif" font-size="10.00">&#45;OS/no&#45;OS/projects/ada4250</text>
<text text-anchor="middle" x="818.5" y="-12.5" font-family="Helvetica,sans-Serif" font-size="10.00">_ardz/src/ada4250_ardz.c</text>
</a>
</g>
</g>
<!-- Node7&#45;&gt;Node8 -->
<g id="edge7_Node000007_Node000008" class="edge">
<title>Node7&#45;&gt;Node8</title>
<g id="a_edge7_Node000007_Node000008"><a xlink:title=" ">
<path fill="none" stroke="#63b8ff" d="M818.5,-83.36C818.5,-71.26 818.5,-57.58 818.5,-46.74"/>
<polygon fill="#63b8ff" stroke="#63b8ff" points="815,-83.49 818.5,-93.49 822,-83.49 815,-83.49"/>
</a>
</g>
</g>
<!-- Node11 -->
<g id="Node000011" class="node">
<title>Node11</title>
<g id="a_Node000011"><a xlink:href="adxrs290-pmdz_2src_2platform_2aducm3029_2main_8c.html" target="_top" xlink:title="Main file for STM32 platform of eval&#45;adxrs290&#45;pmdz project.">
<polygon fill="white" stroke="#666666" points="1182.5,-46.5 976.5,-46.5 976.5,-5.5 1182.5,-5.5 1182.5,-46.5"/>
<text text-anchor="start" x="984.5" y="-34.5" font-family="Helvetica,sans-Serif" font-size="10.00">/home/runner/work/no</text>
<text text-anchor="start" x="984.5" y="-23.5" font-family="Helvetica,sans-Serif" font-size="10.00">&#45;OS/no&#45;OS/projects/adxrs290</text>
<text text-anchor="middle" x="1079.5" y="-12.5" font-family="Helvetica,sans-Serif" font-size="10.00">&#45;pmdz/src/platform/aducm3029/main.c</text>
</a>
</g>
</g>
<!-- Node10&#45;&gt;Node11 -->
<g id="edge10_Node000010_Node000011" class="edge">
<title>Node10&#45;&gt;Node11</title>
<g id="a_edge10_Node000010_Node000011"><a xlink:title=" ">
<path fill="none" stroke="#63b8ff" d="M1146.09,-81.54C1131.78,-69.82 1115.97,-56.87 1103.35,-46.53"/>
<polygon fill="#63b8ff" stroke="#63b8ff" points="1143.89,-84.27 1153.85,-87.89 1148.33,-78.85 1143.89,-84.27"/>
</a>
</g>
</g>
<!-- Node12 -->
<g id="Node000012" class="node">
<title>Node12</title>
<g id="a_Node000012"><a xlink:href="adxrs290-pmdz_2src_2platform_2aducm3029_2parameters_8c.html" target="_top" xlink:title="Definition of STM32 platform data used by eval&#45;adxrs290&#45;pmdz project.">
<polygon fill="white" stroke="#666666" points="1370.5,-52 1200.5,-52 1200.5,0 1370.5,0 1370.5,-52"/>
<text text-anchor="start" x="1208.5" y="-40" font-family="Helvetica,sans-Serif" font-size="10.00">/home/runner/work/no</text>
<text text-anchor="start" x="1208.5" y="-29" font-family="Helvetica,sans-Serif" font-size="10.00">&#45;OS/no&#45;OS/projects/adxrs290</text>
<text text-anchor="start" x="1208.5" y="-18" font-family="Helvetica,sans-Serif" font-size="10.00">&#45;pmdz/src/platform/aducm3029</text>
<text text-anchor="middle" x="1285.5" y="-7" font-family="Helvetica,sans-Serif" font-size="10.00">/parameters.c</text>
</a>
</g>
</g>
<!-- Node10&#45;&gt;Node12 -->
<g id="edge11_Node000010_Node000012" class="edge">
<title>Node10&#45;&gt;Node12</title>
<g id="a_edge11_Node000010_Node000012"><a xlink:title=" ">
<path fill="none" stroke="#63b8ff" d="M1221.6,-81.41C1232.87,-71.82 1245.09,-61.41 1255.8,-52.29"/>
<polygon fill="#63b8ff" stroke="#63b8ff" points="1219.33,-78.75 1213.98,-87.89 1223.87,-84.08 1219.33,-78.75"/>
</a>
</g>
</g>
<!-- Node15 -->
<g id="Node000015" class="node">
<title>Node15</title>
<g id="a_Node000015"><a xlink:href="cn0552_2src_2app_2headless_8c.html" target="_top" xlink:title="CN0552 IIO demo project main file.">
<polygon fill="white" stroke="#666666" points="1597.5,-46.5 1451.5,-46.5 1451.5,-5.5 1597.5,-5.5 1597.5,-46.5"/>
<text text-anchor="start" x="1459.5" y="-34.5" font-family="Helvetica,sans-Serif" font-size="10.00">/home/runner/work/no</text>
<text text-anchor="start" x="1459.5" y="-23.5" font-family="Helvetica,sans-Serif" font-size="10.00">&#45;OS/no&#45;OS/projects/cn0552</text>
<text text-anchor="middle" x="1524.5" y="-12.5" font-family="Helvetica,sans-Serif" font-size="10.00">/src/app/headless.c</text>
</a>
</g>
</g>
<!-- Node14&#45;&gt;Node15 -->
<g id="edge14_Node000014_Node000015" class="edge">
<title>Node14&#45;&gt;Node15</title>
<g id="a_edge14_Node000014_Node000015"><a xlink:title=" ">
<path fill="none" stroke="#63b8ff" d="M1524.5,-83.36C1524.5,-71.26 1524.5,-57.58 1524.5,-46.74"/>
<polygon fill="#63b8ff" stroke="#63b8ff" points="1521,-83.49 1524.5,-93.49 1528,-83.49 1521,-83.49"/>
</a>
</g>
</g>
<!-- Node17 -->
<g id="Node000017" class="node">
<title>Node17</title>
<g id="a_Node000017"><a xlink:href="demo__esp_2src_2platform_2aducm3029_2parameters_8c.html" target="_top" xlink:title="Definition of aducm3029 platform data used by demo_esp.">
<polygon fill="white" stroke="#666666" points="1777,-52 1616,-52 1616,0 1777,0 1777,-52"/>
<text text-anchor="start" x="1624" y="-40" font-family="Helvetica,sans-Serif" font-size="10.00">/home/runner/work/no</text>
<text text-anchor="start" x="1624" y="-29" font-family="Helvetica,sans-Serif" font-size="10.00">&#45;OS/no&#45;OS/projects/demo</text>
<text text-anchor="start" x="1624" y="-18" font-family="Helvetica,sans-Serif" font-size="10.00">_esp/src/platform/aducm3029</text>
<text text-anchor="middle" x="1696.5" y="-7" font-family="Helvetica,sans-Serif" font-size="10.00">/parameters.c</text>
</a>
</g>
</g>
<!-- Node16&#45;&gt;Node17 -->
<g id="edge16_Node000016_Node000017" class="edge">
<title>Node16&#45;&gt;Node17</title>
<g id="a_edge16_Node000016_Node000017"><a xlink:title=" ">
<path fill="none" stroke="#63b8ff" d="M1696.5,-77.56C1696.5,-69.04 1696.5,-60.1 1696.5,-52.16"/>
<polygon fill="#63b8ff" stroke="#63b8ff" points="1693,-77.66 1696.5,-87.66 1700,-77.66 1693,-77.66"/>
</a>
</g>
</g>
<!-- Node19 -->
<g id="Node000019" class="node">
<title>Node19</title>
<g id="a_Node000019"><a xlink:href="eval-adxl355-pmdz_2src_2platform_2aducm3029_2main_8c.html" target="_top" xlink:title="Main file for aducm3029 platform of eval&#45;adxl355&#45;pmdz project.">
<polygon fill="white" stroke="#666666" points="1947.5,-52 1795.5,-52 1795.5,0 1947.5,0 1947.5,-52"/>
<text text-anchor="start" x="1803.5" y="-40" font-family="Helvetica,sans-Serif" font-size="10.00">/home/runner/work/no</text>
<text text-anchor="start" x="1803.5" y="-29" font-family="Helvetica,sans-Serif" font-size="10.00">&#45;OS/no&#45;OS/projects/eval</text>
<text text-anchor="start" x="1803.5" y="-18" font-family="Helvetica,sans-Serif" font-size="10.00">&#45;adxl355&#45;pmdz/src/platform</text>
<text text-anchor="middle" x="1871.5" y="-7" font-family="Helvetica,sans-Serif" font-size="10.00">/aducm3029/main.c</text>
</a>
</g>
</g>
<!-- Node18&#45;&gt;Node19 -->
<g id="edge18_Node000018_Node000019" class="edge">
<title>Node18&#45;&gt;Node19</title>
<g id="a_edge18_Node000018_Node000019"><a xlink:title=" ">
<path fill="none" stroke="#63b8ff" d="M1871.5,-77.56C1871.5,-69.04 1871.5,-60.1 1871.5,-52.16"/>
<polygon fill="#63b8ff" stroke="#63b8ff" points="1868,-77.66 1871.5,-87.66 1875,-77.66 1868,-77.66"/>
</a>
</g>
</g>
<!-- Node20 -->
<g id="Node000020" class="node">
<title>Node20</title>
<g id="a_Node000020"><a xlink:href="eval-adxl355-pmdz_2src_2platform_2aducm3029_2parameters_8c.html" target="_top" xlink:title="Definition of aducm3029 platform data used by eval&#45;adxl355&#45;pmdz project.">
<polygon fill="white" stroke="#666666" points="2117.5,-52 1965.5,-52 1965.5,0 2117.5,0 2117.5,-52"/>
<text text-anchor="start" x="1973.5" y="-40" font-family="Helvetica,sans-Serif" font-size="10.00">/home/runner/work/no</text>
<text text-anchor="start" x="1973.5" y="-29" font-family="Helvetica,sans-Serif" font-size="10.00">&#45;OS/no&#45;OS/projects/eval</text>
<text text-anchor="start" x="1973.5" y="-18" font-family="Helvetica,sans-Serif" font-size="10.00">&#45;adxl355&#45;pmdz/src/platform</text>
<text text-anchor="middle" x="2041.5" y="-7" font-family="Helvetica,sans-Serif" font-size="10.00">/aducm3029/parameters.c</text>
</a>
</g>
</g>
<!-- Node18&#45;&gt;Node20 -->
<g id="edge19_Node000018_Node000020" class="edge">
<title>Node18&#45;&gt;Node20</title>
<g id="a_edge19_Node000018_Node000020"><a xlink:title=" ">
<path fill="none" stroke="#63b8ff" d="M1930.18,-83.31C1950.26,-73.16 1972.51,-61.9 1991.81,-52.14"/>
<polygon fill="#63b8ff" stroke="#63b8ff" points="1928.47,-80.26 1921.13,-87.89 1931.63,-86.5 1928.47,-80.26"/>
</a>
</g>
</g>
<!-- Node24 -->
<g id="Node000024" class="node">
<title>Node24</title>
<g id="a_Node000024"><a xlink:href="iio__aducm3029_2src_2main_8c.html" target="_top" xlink:title="Implementation of Main Function.">
<polygon fill="white" stroke="#666666" points="2453.5,-46.5 2321.5,-46.5 2321.5,-5.5 2453.5,-5.5 2453.5,-46.5"/>
<text text-anchor="start" x="2329.5" y="-34.5" font-family="Helvetica,sans-Serif" font-size="10.00">/home/runner/work/no</text>
<text text-anchor="start" x="2329.5" y="-23.5" font-family="Helvetica,sans-Serif" font-size="10.00">&#45;OS/no&#45;OS/projects/iio</text>
<text text-anchor="middle" x="2387.5" y="-12.5" font-family="Helvetica,sans-Serif" font-size="10.00">_aducm3029/src/main.c</text>
</a>
</g>
</g>
<!-- Node23&#45;&gt;Node24 -->
<g id="edge23_Node000023_Node000024" class="edge">
<title>Node23&#45;&gt;Node24</title>
<g id="a_edge23_Node000023_Node000024"><a xlink:title=" ">
<path fill="none" stroke="#63b8ff" d="M2387.5,-83.36C2387.5,-71.26 2387.5,-57.58 2387.5,-46.74"/>
<polygon fill="#63b8ff" stroke="#63b8ff" points="2384,-83.49 2387.5,-93.49 2391,-83.49 2384,-83.49"/>
</a>
</g>
</g>
<!-- Node26 -->
<g id="Node000026" class="node">
<title>Node26</title>
<g id="a_Node000026"><a xlink:href="iio__demo_2src_2platform_2aducm3029_2parameters_8c.html" target="_top" xlink:title="Definition of aducm3029 platform data used by iio_demo project.">
<polygon fill="white" stroke="#666666" points="2659.5,-52 2487.5,-52 2487.5,0 2659.5,0 2659.5,-52"/>
<text text-anchor="start" x="2495.5" y="-40" font-family="Helvetica,sans-Serif" font-size="10.00">/home/runner/work/no</text>
<text text-anchor="start" x="2495.5" y="-29" font-family="Helvetica,sans-Serif" font-size="10.00">&#45;OS/no&#45;OS/projects/iio</text>
<text text-anchor="start" x="2495.5" y="-18" font-family="Helvetica,sans-Serif" font-size="10.00">_demo/src/platform/aducm3029</text>
<text text-anchor="middle" x="2573.5" y="-7" font-family="Helvetica,sans-Serif" font-size="10.00">/parameters.c</text>
</a>
</g>
</g>
<!-- Node25&#45;&gt;Node26 -->
<g id="edge25_Node000025_Node000026" class="edge">
<title>Node25&#45;&gt;Node26</title>
<g id="a_edge25_Node000025_Node000026"><a xlink:title=" ">
<path fill="none" stroke="#63b8ff" d="M2573.5,-77.56C2573.5,-69.04 2573.5,-60.1 2573.5,-52.16"/>
<polygon fill="#63b8ff" stroke="#63b8ff" points="2570,-77.66 2573.5,-87.66 2577,-77.66 2570,-77.66"/>
</a>
</g>
</g>
</g>
</svg>

<g id="navigator" transform="translate(0 0)" fill="#404254">
  <rect fill="#f2f5e9" fill-opacity="0.5" stroke="#606060" stroke-width=".5" x="0" y="0" width="60" height="60"/>
  <use id="zoomplus" xlink:href="#zoomPlus" x="17" y="9" onmousedown="handleZoom(evt,'in')"/>
  <use id="zoomminus" xlink:href="#zoomMin" x="42" y="9" onmousedown="handleZoom(evt,'out')"/>
  <use id="reset" xlink:href="#resetDef" x="30" y="36" onmousedown="handleReset()"/>
   <use id="arrowup" xlink:href="#arrowUp" x="0" y="0" onmousedown="handlePan(0,-1)"/>
  <use id="arrowright" xlink:href="#arrowRight" x="0" y="0" onmousedown="handlePan(1,0)"/>
  <use id="arrowdown" xlink:href="#arrowDown" x="0" y="0" onmousedown="handlePan(0,1)"/>
  <use id="arrowleft" xlink:href="#arrowLeft" x="0" y="0" onmousedown="handlePan(-1,0)"/>
</g>
<svg viewBox="0 0 15 15" width="100%" height="30px" preserveAspectRatio="xMaxYMin meet">
 <g id="arrow_out" transform="scale(0.3 0.3)">
  <a xlink:href="aducm3029__irq_8h__dep__incl_org.svg" target="_base">
   <rect id="button" ry="5" rx="5" y="6" x="6" height="38" width="38"
        fill="#f2f5e9" fill-opacity="0.5" stroke="#606060" stroke-width="1.0"/>
   <path id="arrow"
     d="M 11.500037,31.436501 C 11.940474,20.09759 22.043105,11.32322 32.158766,21.979434 L 37.068811,17.246167 C 37.068811,17.246167 37.088388,32 37.088388,32 L 22.160133,31.978069 C 22.160133,31.978069 26.997745,27.140456 26.997745,27.140456 C 18.528582,18.264221 13.291696,25.230495 11.500037,31.436501 z"
     style="fill:#404040;"/>
  </a>
 </g>
</svg>

<style type='text/css'>
<![CDATA[
[data-mouse-over-selected='false'] { opacity: 0.7; }
[data-mouse-over-selected='true']  { opacity: 1.0; }
]]>
</style>
<script type="application/ecmascript"><![CDATA[
document.addEventListener('DOMContentLoaded', (event) => {
  highlightEdges();
  highlightAdjacentNodes();
});
]]></script>
</svg>
