<?xml version="1.0" encoding="UTF-8" standalone="no"?>
<!DOCTYPE svg PUBLIC "-//W3C//DTD SVG 1.1//EN"
 "http://www.w3.org/Graphics/SVG/1.1/DTD/svg11.dtd">
<!-- Generated by graphviz version 2.43.0 (0)
 -->
<!-- Title: /home/runner/work/no&#45;OS/no&#45;OS/drivers/platform/aducm3029/aducm3029_gpio_irq.c Pages: 1 -->
<svg width="1107pt" height="214pt"
 viewBox="0.00 0.00 1106.50 214.00" xmlns="http://www.w3.org/2000/svg" xmlns:xlink="http://www.w3.org/1999/xlink">
<g id="graph0" class="graph" transform="scale(1 1) rotate(0) translate(4 210)">
<title>/home/runner/work/no&#45;OS/no&#45;OS/drivers/platform/aducm3029/aducm3029_gpio_irq.c</title>
<!-- Node1 -->
<g id="Node000001" class="node">
<title>Node1</title>
<g id="a_Node000001"><a xlink:title="Source file for GPIO IRQ driver.">
<polygon fill="#999999" stroke="#666666" points="594.5,-206 405.5,-206 405.5,-165 594.5,-165 594.5,-206"/>
<text text-anchor="start" x="413.5" y="-194" font-family="Helvetica,sans-Serif" font-size="10.00">/home/runner/work/no</text>
<text text-anchor="start" x="413.5" y="-183" font-family="Helvetica,sans-Serif" font-size="10.00">&#45;OS/no&#45;OS/drivers/platform</text>
<text text-anchor="middle" x="500" y="-172" font-family="Helvetica,sans-Serif" font-size="10.00">/aducm3029/aducm3029_gpio_irq.c</text>
</a>
</g>
</g>
<!-- Node2 -->
<g id="Node000002" class="node">
<title>Node2</title>
<g id="a_Node000002"><a xlink:href="errno_8h.html" target="_top" xlink:title="Error macro definition for ARM Compiler.">
<polygon fill="white" stroke="#666666" points="101.5,-74 50.5,-74 50.5,-55 101.5,-55 101.5,-74"/>
<text text-anchor="middle" x="76" y="-62" font-family="Helvetica,sans-Serif" font-size="10.00">errno.h</text>
</a>
</g>
</g>
<!-- Node1&#45;&gt;Node2 -->
<g id="edge1_Node000001_Node000002" class="edge">
<title>Node1&#45;&gt;Node2</title>
<g id="a_edge1_Node000001_Node000002"><a xlink:title=" ">
<path fill="none" stroke="#63b8ff" d="M405.27,-178C311.34,-170.2 174.99,-154.84 129,-129 109.9,-118.27 94.74,-97.77 85.61,-82.96"/>
<polygon fill="#63b8ff" stroke="#63b8ff" points="88.56,-81.08 80.5,-74.21 82.52,-84.61 88.56,-81.08"/>
</a>
</g>
</g>
<!-- Node3 -->
<g id="Node000003" class="node">
<title>Node3</title>
<g id="a_Node000003"><a xlink:title=" ">
<polygon fill="#e0e0e0" stroke="#999999" points="266,-129 138,-129 138,-110 266,-110 266,-129"/>
<text text-anchor="middle" x="202" y="-117" font-family="Helvetica,sans-Serif" font-size="10.00">drivers/gpio/adi_gpio.h</text>
</a>
</g>
</g>
<!-- Node1&#45;&gt;Node3 -->
<g id="edge2_Node000001_Node000003" class="edge">
<title>Node1&#45;&gt;Node3</title>
<g id="a_edge2_Node000001_Node000003"><a xlink:title=" ">
<path fill="none" stroke="#63b8ff" d="M408.97,-164.95C357.15,-153.82 294.26,-140.31 251.5,-131.13"/>
<polygon fill="#63b8ff" stroke="#63b8ff" points="252.13,-127.69 241.62,-129.01 250.66,-134.53 252.13,-127.69"/>
</a>
</g>
</g>
<!-- Node4 -->
<g id="Node000004" class="node">
<title>Node4</title>
<g id="a_Node000004"><a xlink:title=" ">
<polygon fill="#e0e0e0" stroke="#999999" points="405.5,-74 352.5,-74 352.5,-55 405.5,-55 405.5,-74"/>
<text text-anchor="middle" x="379" y="-62" font-family="Helvetica,sans-Serif" font-size="10.00">stdlib.h</text>
</a>
</g>
</g>
<!-- Node1&#45;&gt;Node4 -->
<g id="edge3_Node000001_Node000004" class="edge">
<title>Node1&#45;&gt;Node4</title>
<g id="a_edge3_Node000001_Node000004"><a xlink:title=" ">
<path fill="none" stroke="#63b8ff" d="M465.83,-165C450.73,-155.37 433.4,-142.85 420,-129 406.77,-115.32 395.37,-96.76 387.97,-83.24"/>
<polygon fill="#63b8ff" stroke="#63b8ff" points="390.89,-81.27 383.13,-74.05 384.7,-84.53 390.89,-81.27"/>
</a>
</g>
</g>
<!-- Node5 -->
<g id="Node000005" class="node">
<title>Node5</title>
<g id="a_Node000005"><a xlink:title=" ">
<polygon fill="#e0e0e0" stroke="#999999" points="669.5,-19 616.5,-19 616.5,0 669.5,0 669.5,-19"/>
<text text-anchor="middle" x="643" y="-7" font-family="Helvetica,sans-Serif" font-size="10.00">stdint.h</text>
</a>
</g>
</g>
<!-- Node1&#45;&gt;Node5 -->
<g id="edge4_Node000001_Node000005" class="edge">
<title>Node1&#45;&gt;Node5</title>
<g id="a_edge4_Node000001_Node000005"><a xlink:title=" ">
<path fill="none" stroke="#63b8ff" d="M475.29,-164.87C460.43,-150.52 445.69,-130.12 453,-110 475.49,-48.05 557.72,-24.2 606.32,-15.38"/>
<polygon fill="#63b8ff" stroke="#63b8ff" points="607.16,-18.79 616.44,-13.67 606,-11.88 607.16,-18.79"/>
</a>
</g>
</g>
<!-- Node6 -->
<g id="Node000006" class="node">
<title>Node6</title>
<g id="a_Node000006"><a xlink:href="aducm3029__gpio_8h.html" target="_top" xlink:title=" ">
<polygon fill="white" stroke="#666666" points="1098.5,-129 989.5,-129 989.5,-110 1098.5,-110 1098.5,-129"/>
<text text-anchor="middle" x="1044" y="-117" font-family="Helvetica,sans-Serif" font-size="10.00">aducm3029_gpio.h</text>
</a>
</g>
</g>
<!-- Node1&#45;&gt;Node6 -->
<g id="edge5_Node000001_Node000006" class="edge">
<title>Node1&#45;&gt;Node6</title>
<g id="a_edge5_Node000001_Node000006"><a xlink:title=" ">
<path fill="none" stroke="#63b8ff" d="M594.65,-173.62C690.53,-162.55 843.1,-144.83 975,-129 976.46,-128.82 977.94,-128.65 979.43,-128.47"/>
<polygon fill="#63b8ff" stroke="#63b8ff" points="979.88,-131.94 989.39,-127.26 979.04,-124.99 979.88,-131.94"/>
</a>
</g>
</g>
<!-- Node7 -->
<g id="Node000007" class="node">
<title>Node7</title>
<g id="a_Node000007"><a xlink:href="aducm3029__gpio__irq_8h.html" target="_top" xlink:title="Header file of GPIO IRQ interface for ADuCM3029 platform.">
<polygon fill="white" stroke="#666666" points="932.5,-129 805.5,-129 805.5,-110 932.5,-110 932.5,-129"/>
<text text-anchor="middle" x="869" y="-117" font-family="Helvetica,sans-Serif" font-size="10.00">aducm3029_gpio_irq.h</text>
</a>
</g>
</g>
<!-- Node1&#45;&gt;Node7 -->
<g id="edge6_Node000001_Node000007" class="edge">
<title>Node1&#45;&gt;Node7</title>
<g id="a_edge6_Node000001_Node000007"><a xlink:title=" ">
<path fill="none" stroke="#63b8ff" d="M594.55,-168.1C662.43,-156.33 751.83,-140.82 809.85,-130.76"/>
<polygon fill="#63b8ff" stroke="#63b8ff" points="810.7,-134.16 819.95,-129.01 809.5,-127.27 810.7,-134.16"/>
</a>
</g>
</g>
<!-- Node9 -->
<g id="Node000009" class="node">
<title>Node9</title>
<g id="a_Node000009"><a xlink:href="aducm3029__irq_8h.html" target="_top" xlink:title="Header file of IRQ driver for ADuCM302x.">
<polygon fill="white" stroke="#666666" points="787.5,-129 686.5,-129 686.5,-110 787.5,-110 787.5,-129"/>
<text text-anchor="middle" x="737" y="-117" font-family="Helvetica,sans-Serif" font-size="10.00">aducm3029_irq.h</text>
</a>
</g>
</g>
<!-- Node1&#45;&gt;Node9 -->
<g id="edge8_Node000001_Node000009" class="edge">
<title>Node1&#45;&gt;Node9</title>
<g id="a_edge8_Node000001_Node000009"><a xlink:title=" ">
<path fill="none" stroke="#63b8ff" d="M572.4,-164.95C612.74,-154.06 661.52,-140.88 695.46,-131.72"/>
<polygon fill="#63b8ff" stroke="#63b8ff" points="696.75,-134.99 705.49,-129.01 694.93,-128.24 696.75,-134.99"/>
</a>
</g>
</g>
<!-- Node11 -->
<g id="Node000011" class="node">
<title>Node11</title>
<g id="a_Node000011"><a xlink:href="no__os__irq_8h.html" target="_top" xlink:title="Header file of IRQ interface.">
<polygon fill="white" stroke="#666666" points="711,-74 639,-74 639,-55 711,-55 711,-74"/>
<text text-anchor="middle" x="675" y="-62" font-family="Helvetica,sans-Serif" font-size="10.00">no_os_irq.h</text>
</a>
</g>
</g>
<!-- Node1&#45;&gt;Node11 -->
<g id="edge18_Node000001_Node000011" class="edge">
<title>Node1&#45;&gt;Node11</title>
<g id="a_edge18_Node000001_Node000011"><a xlink:title=" ">
<path fill="none" stroke="#63b8ff" d="M575.15,-164.98C597.47,-156.56 620.79,-144.89 639,-129 653,-116.78 662.77,-97.73 668.57,-83.68"/>
<polygon fill="#63b8ff" stroke="#63b8ff" points="671.93,-84.7 672.23,-74.11 665.39,-82.2 671.93,-84.7"/>
</a>
</g>
</g>
<!-- Node12 -->
<g id="Node000012" class="node">
<title>Node12</title>
<g id="a_Node000012"><a xlink:href="no__os__error_8h.html" target="_top" xlink:title="Error codes definition.">
<polygon fill="white" stroke="#666666" points="82,-129 0,-129 0,-110 82,-110 82,-129"/>
<text text-anchor="middle" x="41" y="-117" font-family="Helvetica,sans-Serif" font-size="10.00">no_os_error.h</text>
</a>
</g>
</g>
<!-- Node1&#45;&gt;Node12 -->
<g id="edge14_Node000001_Node000012" class="edge">
<title>Node1&#45;&gt;Node12</title>
<g id="a_edge14_Node000001_Node000012"><a xlink:title=" ">
<path fill="none" stroke="#63b8ff" d="M405.25,-171.94C323.33,-160.97 201.78,-144.44 96,-129 94.74,-128.82 93.46,-128.63 92.17,-128.44"/>
<polygon fill="#63b8ff" stroke="#63b8ff" points="92.54,-124.95 82.13,-126.93 91.51,-131.88 92.54,-124.95"/>
</a>
</g>
</g>
<!-- Node13 -->
<g id="Node000013" class="node">
<title>Node13</title>
<g id="a_Node000013"><a xlink:href="no__os__gpio_8h.html" target="_top" xlink:title="Header file of GPIO Interface.">
<polygon fill="white" stroke="#666666" points="999,-74 919,-74 919,-55 999,-55 999,-74"/>
<text text-anchor="middle" x="959" y="-62" font-family="Helvetica,sans-Serif" font-size="10.00">no_os_gpio.h</text>
</a>
</g>
</g>
<!-- Node1&#45;&gt;Node13 -->
<g id="edge16_Node000001_Node000013" class="edge">
<title>Node1&#45;&gt;Node13</title>
<g id="a_edge16_Node000001_Node000013"><a xlink:title=" ">
<path fill="none" stroke="#63b8ff" d="M594.85,-184.62C709.04,-182.77 891.79,-172.77 942,-129 954.62,-117.99 958.36,-98.74 959.25,-84.31"/>
<polygon fill="#63b8ff" stroke="#63b8ff" points="962.76,-84.09 959.47,-74.02 955.76,-83.94 962.76,-84.09"/>
</a>
</g>
</g>
<!-- Node14 -->
<g id="Node000014" class="node">
<title>Node14</title>
<g id="a_Node000014"><a xlink:href="no__os__list_8h.html" target="_top" xlink:title="List library header.">
<polygon fill="white" stroke="#666666" points="630,-129 556,-129 556,-110 630,-110 630,-129"/>
<text text-anchor="middle" x="593" y="-117" font-family="Helvetica,sans-Serif" font-size="10.00">no_os_list.h</text>
</a>
</g>
</g>
<!-- Node1&#45;&gt;Node14 -->
<g id="edge19_Node000001_Node000014" class="edge">
<title>Node1&#45;&gt;Node14</title>
<g id="a_edge19_Node000001_Node000014"><a xlink:title=" ">
<path fill="none" stroke="#63b8ff" d="M528.41,-164.95C542.34,-155.37 558.83,-144.02 571.66,-135.19"/>
<polygon fill="#63b8ff" stroke="#63b8ff" points="574.02,-137.81 580.27,-129.26 570.05,-132.05 574.02,-137.81"/>
</a>
</g>
</g>
<!-- Node15 -->
<g id="Node000015" class="node">
<title>Node15</title>
<g id="a_Node000015"><a xlink:href="no__os__util_8h.html" target="_top" xlink:title="Header file of utility functions.">
<polygon fill="white" stroke="#666666" points="537.5,-129 462.5,-129 462.5,-110 537.5,-110 537.5,-129"/>
<text text-anchor="middle" x="500" y="-117" font-family="Helvetica,sans-Serif" font-size="10.00">no_os_util.h</text>
</a>
</g>
</g>
<!-- Node1&#45;&gt;Node15 -->
<g id="edge22_Node000001_Node000015" class="edge">
<title>Node1&#45;&gt;Node15</title>
<g id="a_edge22_Node000001_Node000015"><a xlink:title=" ">
<path fill="none" stroke="#63b8ff" d="M500,-164.95C500,-156.85 500,-147.5 500,-139.47"/>
<polygon fill="#63b8ff" stroke="#63b8ff" points="503.5,-139.26 500,-129.26 496.5,-139.26 503.5,-139.26"/>
</a>
</g>
</g>
<!-- Node16 -->
<g id="Node000016" class="node">
<title>Node16</title>
<g id="a_Node000016"><a xlink:href="no__os__alloc_8h.html" target="_top" xlink:title=" ">
<polygon fill="white" stroke="#666666" points="367.5,-129 284.5,-129 284.5,-110 367.5,-110 367.5,-129"/>
<text text-anchor="middle" x="326" y="-117" font-family="Helvetica,sans-Serif" font-size="10.00">no_os_alloc.h</text>
</a>
</g>
</g>
<!-- Node1&#45;&gt;Node16 -->
<g id="edge26_Node000001_Node000016" class="edge">
<title>Node1&#45;&gt;Node16</title>
<g id="a_edge26_Node000001_Node000016"><a xlink:title=" ">
<path fill="none" stroke="#63b8ff" d="M446.85,-164.95C418.21,-154.42 383.78,-141.75 359.01,-132.64"/>
<polygon fill="#63b8ff" stroke="#63b8ff" points="359.95,-129.26 349.36,-129.09 357.54,-135.83 359.95,-129.26"/>
</a>
</g>
</g>
<!-- Node8 -->
<g id="Node000008" class="node">
<title>Node8</title>
<g id="a_Node000008"><a xlink:title=" ">
<polygon fill="#e0e0e0" stroke="#999999" points="897.5,-74 774.5,-74 774.5,-55 897.5,-55 897.5,-74"/>
<text text-anchor="middle" x="836" y="-62" font-family="Helvetica,sans-Serif" font-size="10.00">drivers/xint/adi_xint.h</text>
</a>
</g>
</g>
<!-- Node7&#45;&gt;Node8 -->
<g id="edge7_Node000007_Node000008" class="edge">
<title>Node7&#45;&gt;Node8</title>
<g id="a_edge7_Node000007_Node000008"><a xlink:title=" ">
<path fill="none" stroke="#63b8ff" d="M863.55,-109.75C858.99,-102.42 852.33,-91.73 846.71,-82.7"/>
<polygon fill="#63b8ff" stroke="#63b8ff" points="849.6,-80.73 841.35,-74.09 843.66,-84.43 849.6,-80.73"/>
</a>
</g>
</g>
<!-- Node9&#45;&gt;Node5 -->
<g id="edge11_Node000009_Node000005" class="edge">
<title>Node9&#45;&gt;Node5</title>
<g id="a_edge11_Node000009_Node000005"><a xlink:title=" ">
<path fill="none" stroke="#63b8ff" d="M736.73,-109.78C735.9,-96.62 732.64,-71.48 720,-55 709.11,-40.79 692.29,-30.33 677.14,-23.13"/>
<polygon fill="#63b8ff" stroke="#63b8ff" points="678.56,-19.93 668,-19.06 675.72,-26.32 678.56,-19.93"/>
</a>
</g>
</g>
<!-- Node9&#45;&gt;Node8 -->
<g id="edge9_Node000009_Node000008" class="edge">
<title>Node9&#45;&gt;Node8</title>
<g id="a_edge9_Node000009_Node000008"><a xlink:title=" ">
<path fill="none" stroke="#63b8ff" d="M752.91,-109.98C768.55,-101.61 792.66,-88.7 810.88,-78.95"/>
<polygon fill="#63b8ff" stroke="#63b8ff" points="812.64,-81.98 819.8,-74.17 809.34,-75.8 812.64,-81.98"/>
</a>
</g>
</g>
<!-- Node10 -->
<g id="Node000010" class="node">
<title>Node10</title>
<g id="a_Node000010"><a xlink:title=" ">
<polygon fill="#e0e0e0" stroke="#999999" points="583,-74 521,-74 521,-55 583,-55 583,-74"/>
<text text-anchor="middle" x="552" y="-62" font-family="Helvetica,sans-Serif" font-size="10.00">stdbool.h</text>
</a>
</g>
</g>
<!-- Node9&#45;&gt;Node10 -->
<g id="edge10_Node000009_Node000010" class="edge">
<title>Node9&#45;&gt;Node10</title>
<g id="a_edge10_Node000009_Node000010"><a xlink:title=" ">
<path fill="none" stroke="#63b8ff" d="M707.28,-109.98C675.95,-101.01 626.43,-86.82 591.76,-76.89"/>
<polygon fill="#63b8ff" stroke="#63b8ff" points="592.53,-73.47 581.96,-74.08 590.61,-80.2 592.53,-73.47"/>
</a>
</g>
</g>
<!-- Node9&#45;&gt;Node11 -->
<g id="edge12_Node000009_Node000011" class="edge">
<title>Node9&#45;&gt;Node11</title>
<g id="a_edge12_Node000009_Node000011"><a xlink:title=" ">
<path fill="none" stroke="#63b8ff" d="M727.04,-109.98C717.87,-102.15 704.06,-90.34 692.97,-80.86"/>
<polygon fill="#63b8ff" stroke="#63b8ff" points="695.02,-78.01 685.14,-74.17 690.47,-83.33 695.02,-78.01"/>
</a>
</g>
</g>
<!-- Node11&#45;&gt;Node5 -->
<g id="edge13_Node000011_Node000005" class="edge">
<title>Node11&#45;&gt;Node5</title>
<g id="a_edge13_Node000011_Node000005"><a xlink:title=" ">
<path fill="none" stroke="#63b8ff" d="M669.72,-54.75C665.29,-47.42 658.84,-36.73 653.38,-27.7"/>
<polygon fill="#63b8ff" stroke="#63b8ff" points="656.35,-25.84 648.19,-19.09 650.36,-29.46 656.35,-25.84"/>
</a>
</g>
</g>
<!-- Node12&#45;&gt;Node2 -->
<g id="edge15_Node000012_Node000002" class="edge">
<title>Node12&#45;&gt;Node2</title>
<g id="a_edge15_Node000012_Node000002"><a xlink:title=" ">
<path fill="none" stroke="#63b8ff" d="M46.78,-109.75C51.62,-102.42 58.68,-91.73 64.64,-82.7"/>
<polygon fill="#63b8ff" stroke="#63b8ff" points="67.74,-84.36 70.33,-74.09 61.9,-80.5 67.74,-84.36"/>
</a>
</g>
</g>
<!-- Node13&#45;&gt;Node5 -->
<g id="edge17_Node000013_Node000005" class="edge">
<title>Node13&#45;&gt;Node5</title>
<g id="a_edge17_Node000013_Node000005"><a xlink:title=" ">
<path fill="none" stroke="#63b8ff" d="M918.98,-56.79C857.25,-46.43 739.71,-26.72 679.91,-16.69"/>
<polygon fill="#63b8ff" stroke="#63b8ff" points="680.23,-13.2 669.79,-14.99 679.08,-20.1 680.23,-13.2"/>
</a>
</g>
</g>
<!-- Node14&#45;&gt;Node5 -->
<g id="edge20_Node000014_Node000005" class="edge">
<title>Node14&#45;&gt;Node5</title>
<g id="a_edge20_Node000014_Node000005"><a xlink:title=" ">
<path fill="none" stroke="#63b8ff" d="M597.09,-109.66C605.3,-91.93 623.91,-51.73 634.75,-28.32"/>
<polygon fill="#63b8ff" stroke="#63b8ff" points="637.97,-29.7 638.99,-19.16 631.61,-26.76 637.97,-29.7"/>
</a>
</g>
</g>
<!-- Node14&#45;&gt;Node10 -->
<g id="edge21_Node000014_Node000010" class="edge">
<title>Node14&#45;&gt;Node10</title>
<g id="a_edge21_Node000014_Node000010"><a xlink:title=" ">
<path fill="none" stroke="#63b8ff" d="M586.23,-109.75C580.44,-102.26 571.94,-91.28 564.86,-82.13"/>
<polygon fill="#63b8ff" stroke="#63b8ff" points="567.53,-79.86 558.64,-74.09 561.99,-84.14 567.53,-79.86"/>
</a>
</g>
</g>
<!-- Node15&#45;&gt;Node4 -->
<g id="edge24_Node000015_Node000004" class="edge">
<title>Node15&#45;&gt;Node4</title>
<g id="a_edge24_Node000015_Node000004"><a xlink:title=" ">
<path fill="none" stroke="#63b8ff" d="M480.56,-109.98C461.01,-101.42 430.62,-88.11 408.18,-78.28"/>
<polygon fill="#63b8ff" stroke="#63b8ff" points="409.36,-74.98 398.79,-74.17 406.55,-81.39 409.36,-74.98"/>
</a>
</g>
</g>
<!-- Node15&#45;&gt;Node5 -->
<g id="edge23_Node000015_Node000005" class="edge">
<title>Node15&#45;&gt;Node5</title>
<g id="a_edge23_Node000015_Node000005"><a xlink:title=" ">
<path fill="none" stroke="#63b8ff" d="M499.1,-109.96C498.19,-96.57 498.46,-70.59 512,-55 535.6,-27.83 576.45,-17.22 606.27,-13.09"/>
<polygon fill="#63b8ff" stroke="#63b8ff" points="606.8,-16.55 616.31,-11.89 605.97,-9.6 606.8,-16.55"/>
</a>
</g>
</g>
<!-- Node15&#45;&gt;Node10 -->
<g id="edge25_Node000015_Node000010" class="edge">
<title>Node15&#45;&gt;Node10</title>
<g id="a_edge25_Node000015_Node000010"><a xlink:title=" ">
<path fill="none" stroke="#63b8ff" d="M508.59,-109.75C516.16,-102.03 527.38,-90.6 536.51,-81.28"/>
<polygon fill="#63b8ff" stroke="#63b8ff" points="539.07,-83.68 543.57,-74.09 534.07,-78.78 539.07,-83.68"/>
</a>
</g>
</g>
<!-- Node16&#45;&gt;Node4 -->
<g id="edge28_Node000016_Node000004" class="edge">
<title>Node16&#45;&gt;Node4</title>
<g id="a_edge28_Node000016_Node000004"><a xlink:title=" ">
<path fill="none" stroke="#63b8ff" d="M334.75,-109.75C342.47,-102.03 353.9,-90.6 363.22,-81.28"/>
<polygon fill="#63b8ff" stroke="#63b8ff" points="365.81,-83.64 370.41,-74.09 360.86,-78.69 365.81,-83.64"/>
</a>
</g>
</g>
<!-- Node17 -->
<g id="Node000017" class="node">
<title>Node17</title>
<g id="a_Node000017"><a xlink:title=" ">
<polygon fill="#e0e0e0" stroke="#999999" points="334,-74 284,-74 284,-55 334,-55 334,-74"/>
<text text-anchor="middle" x="309" y="-62" font-family="Helvetica,sans-Serif" font-size="10.00">stdio.h</text>
</a>
</g>
</g>
<!-- Node16&#45;&gt;Node17 -->
<g id="edge27_Node000016_Node000017" class="edge">
<title>Node16&#45;&gt;Node17</title>
<g id="a_edge27_Node000016_Node000017"><a xlink:title=" ">
<path fill="none" stroke="#63b8ff" d="M323.19,-109.75C320.94,-102.72 317.7,-92.62 314.88,-83.84"/>
<polygon fill="#63b8ff" stroke="#63b8ff" points="318.14,-82.54 311.75,-74.09 311.48,-84.68 318.14,-82.54"/>
</a>
</g>
</g>
</g>
</svg>
