<?xml version="1.0" encoding="UTF-8" standalone="no"?>
<!DOCTYPE svg PUBLIC "-//W3C//DTD SVG 1.1//EN"
 "http://www.w3.org/Graphics/SVG/1.1/DTD/svg11.dtd">
<!-- Generated by graphviz version 2.43.0 (0)
 -->
<!-- Title: /home/runner/work/no&#45;OS/no&#45;OS/projects/aducm3029_flash_demo/src/main.c Pages: 1 -->
<svg width="1127pt" height="269pt"
 viewBox="0.00 0.00 1126.50 269.00" xmlns="http://www.w3.org/2000/svg" xmlns:xlink="http://www.w3.org/1999/xlink">
<g id="graph0" class="graph" transform="scale(1 1) rotate(0) translate(4 265)">
<title>/home/runner/work/no&#45;OS/no&#45;OS/projects/aducm3029_flash_demo/src/main.c</title>
<!-- Node1 -->
<g id="Node000001" class="node">
<title>Node1</title>
<g id="a_Node000001"><a xlink:title="Implementation of Main Function.">
<polygon fill="#999999" stroke="#666666" points="566,-261 398,-261 398,-220 566,-220 566,-261"/>
<text text-anchor="start" x="406" y="-249" font-family="Helvetica,sans-Serif" font-size="10.00">/home/runner/work/no</text>
<text text-anchor="start" x="406" y="-238" font-family="Helvetica,sans-Serif" font-size="10.00">&#45;OS/no&#45;OS/projects/aducm3029</text>
<text text-anchor="middle" x="482" y="-227" font-family="Helvetica,sans-Serif" font-size="10.00">_flash_demo/src/main.c</text>
</a>
</g>
</g>
<!-- Node2 -->
<g id="Node000002" class="node">
<title>Node2</title>
<g id="a_Node000002"><a xlink:title=" ">
<polygon fill="#e0e0e0" stroke="#999999" points="50,-184 0,-184 0,-165 50,-165 50,-184"/>
<text text-anchor="middle" x="25" y="-172" font-family="Helvetica,sans-Serif" font-size="10.00">stdio.h</text>
</a>
</g>
</g>
<!-- Node1&#45;&gt;Node2 -->
<g id="edge1_Node000001_Node000002" class="edge">
<title>Node1&#45;&gt;Node2</title>
<g id="a_edge1_Node000001_Node000002"><a xlink:title=" ">
<path fill="none" stroke="#63b8ff" d="M397.68,-231.31C314.24,-222.55 182.76,-207 60.12,-184.02"/>
<polygon fill="#63b8ff" stroke="#63b8ff" points="60.66,-180.56 50.18,-182.14 59.35,-187.44 60.66,-180.56"/>
</a>
</g>
</g>
<!-- Node3 -->
<g id="Node000003" class="node">
<title>Node3</title>
<g id="a_Node000003"><a xlink:title=" ">
<polygon fill="#e0e0e0" stroke="#999999" points="155.5,-184 68.5,-184 68.5,-165 155.5,-165 155.5,-184"/>
<text text-anchor="middle" x="112" y="-172" font-family="Helvetica,sans-Serif" font-size="10.00">sys/platform.h</text>
</a>
</g>
</g>
<!-- Node1&#45;&gt;Node3 -->
<g id="edge2_Node000001_Node000003" class="edge">
<title>Node1&#45;&gt;Node3</title>
<g id="a_edge2_Node000001_Node000003"><a xlink:title=" ">
<path fill="none" stroke="#63b8ff" d="M397.58,-224.9C326.41,-212.59 226.7,-195.34 165.89,-184.82"/>
<polygon fill="#63b8ff" stroke="#63b8ff" points="166.19,-181.32 155.73,-183.06 164.99,-188.22 166.19,-181.32"/>
</a>
</g>
</g>
<!-- Node4 -->
<g id="Node000004" class="node">
<title>Node4</title>
<g id="a_Node000004"><a xlink:title=" ">
<polygon fill="#e0e0e0" stroke="#999999" points="262,-184 174,-184 174,-165 262,-165 262,-184"/>
<text text-anchor="middle" x="218" y="-172" font-family="Helvetica,sans-Serif" font-size="10.00">adi_initialize.h</text>
</a>
</g>
</g>
<!-- Node1&#45;&gt;Node4 -->
<g id="edge3_Node000001_Node000004" class="edge">
<title>Node1&#45;&gt;Node4</title>
<g id="a_edge3_Node000001_Node000004"><a xlink:title=" ">
<path fill="none" stroke="#63b8ff" d="M401.36,-219.95C356.03,-208.96 301.14,-195.65 263.3,-186.48"/>
<polygon fill="#63b8ff" stroke="#63b8ff" points="263.64,-182.96 253.1,-184.01 261.99,-189.77 263.64,-182.96"/>
</a>
</g>
</g>
<!-- Node5 -->
<g id="Node000005" class="node">
<title>Node5</title>
<g id="a_Node000005"><a xlink:href="no__os__flash_8h.html" target="_top" xlink:title="Header file for flash controller driver.">
<polygon fill="white" stroke="#666666" points="1118.5,-74 1035.5,-74 1035.5,-55 1118.5,-55 1118.5,-74"/>
<text text-anchor="middle" x="1077" y="-62" font-family="Helvetica,sans-Serif" font-size="10.00">no_os_flash.h</text>
</a>
</g>
</g>
<!-- Node1&#45;&gt;Node5 -->
<g id="edge4_Node000001_Node000005" class="edge">
<title>Node1&#45;&gt;Node5</title>
<g id="a_edge4_Node000001_Node000005"><a xlink:title=" ">
<path fill="none" stroke="#63b8ff" d="M566.16,-235.4C649.18,-229.64 778.97,-215.98 887,-184 942.1,-167.69 955.86,-160.38 1004,-129 1025.41,-115.04 1047.15,-95.25 1061.27,-81.48"/>
<polygon fill="#63b8ff" stroke="#63b8ff" points="1064.02,-83.69 1068.65,-74.17 1059.08,-78.73 1064.02,-83.69"/>
</a>
</g>
</g>
<!-- Node7 -->
<g id="Node000007" class="node">
<title>Node7</title>
<g id="a_Node000007"><a xlink:href="no__os__irq_8h.html" target="_top" xlink:title="Header file of IRQ interface.">
<polygon fill="white" stroke="#666666" points="799,-129 727,-129 727,-110 799,-110 799,-129"/>
<text text-anchor="middle" x="763" y="-117" font-family="Helvetica,sans-Serif" font-size="10.00">no_os_irq.h</text>
</a>
</g>
</g>
<!-- Node1&#45;&gt;Node7 -->
<g id="edge6_Node000001_Node000007" class="edge">
<title>Node1&#45;&gt;Node7</title>
<g id="a_edge6_Node000001_Node000007"><a xlink:title=" ">
<path fill="none" stroke="#63b8ff" d="M566.09,-228.4C607.73,-220.35 657.59,-206.74 698,-184 718.95,-172.21 737.99,-151.96 749.97,-137.5"/>
<polygon fill="#63b8ff" stroke="#63b8ff" points="752.96,-139.36 756.47,-129.36 747.49,-134.99 752.96,-139.36"/>
</a>
</g>
</g>
<!-- Node8 -->
<g id="Node000008" class="node">
<title>Node8</title>
<g id="a_Node000008"><a xlink:href="platform__init_8h.html" target="_top" xlink:title="ADuCM3029 platform initialization header.">
<polygon fill="white" stroke="#666666" points="563.5,-184 474.5,-184 474.5,-165 563.5,-165 563.5,-184"/>
<text text-anchor="middle" x="519" y="-172" font-family="Helvetica,sans-Serif" font-size="10.00">platform_init.h</text>
</a>
</g>
</g>
<!-- Node1&#45;&gt;Node8 -->
<g id="edge8_Node000001_Node000008" class="edge">
<title>Node1&#45;&gt;Node8</title>
<g id="a_edge8_Node000001_Node000008"><a xlink:title=" ">
<path fill="none" stroke="#63b8ff" d="M493.3,-219.95C498.25,-211.39 504.01,-201.42 508.83,-193.1"/>
<polygon fill="#63b8ff" stroke="#63b8ff" points="511.96,-194.67 513.94,-184.26 505.9,-191.17 511.96,-194.67"/>
</a>
</g>
</g>
<!-- Node9 -->
<g id="Node000009" class="node">
<title>Node9</title>
<g id="a_Node000009"><a xlink:href="no__os__uart_8h.html" target="_top" xlink:title="Header file of UART interface.">
<polygon fill="white" stroke="#666666" points="388.5,-129 309.5,-129 309.5,-110 388.5,-110 388.5,-129"/>
<text text-anchor="middle" x="349" y="-117" font-family="Helvetica,sans-Serif" font-size="10.00">no_os_uart.h</text>
</a>
</g>
</g>
<!-- Node1&#45;&gt;Node9 -->
<g id="edge9_Node000001_Node000009" class="edge">
<title>Node1&#45;&gt;Node9</title>
<g id="a_edge9_Node000001_Node000009"><a xlink:title=" ">
<path fill="none" stroke="#63b8ff" d="M470.79,-220C460.81,-203.85 445.02,-181.02 427,-165 412.53,-152.13 393.73,-141.28 378.22,-133.51"/>
<polygon fill="#63b8ff" stroke="#63b8ff" points="379.58,-130.28 369.05,-129.08 376.54,-136.58 379.58,-130.28"/>
</a>
</g>
</g>
<!-- Node13 -->
<g id="Node000013" class="node">
<title>Node13</title>
<g id="a_Node000013"><a xlink:href="aducm3029__uart_8h.html" target="_top" xlink:title="Header file of UART driver for ADuCM302x.">
<polygon fill="white" stroke="#666666" points="688.5,-184 581.5,-184 581.5,-165 688.5,-165 688.5,-184"/>
<text text-anchor="middle" x="635" y="-172" font-family="Helvetica,sans-Serif" font-size="10.00">aducm3029_uart.h</text>
</a>
</g>
</g>
<!-- Node1&#45;&gt;Node13 -->
<g id="edge16_Node000001_Node000013" class="edge">
<title>Node1&#45;&gt;Node13</title>
<g id="a_edge16_Node000001_Node000013"><a xlink:title=" ">
<path fill="none" stroke="#63b8ff" d="M528.74,-219.95C553.58,-209.56 583.39,-197.09 605.1,-188.01"/>
<polygon fill="#63b8ff" stroke="#63b8ff" points="606.59,-191.18 614.46,-184.09 603.88,-184.72 606.59,-191.18"/>
</a>
</g>
</g>
<!-- Node17 -->
<g id="Node000017" class="node">
<title>Node17</title>
<g id="a_Node000017"><a xlink:href="aducm3029__uart__stdio_8h.html" target="_top" xlink:title="Header file for UART driver stdout/stdin redirection.">
<polygon fill="white" stroke="#666666" points="417.5,-184 280.5,-184 280.5,-165 417.5,-165 417.5,-184"/>
<text text-anchor="middle" x="349" y="-172" font-family="Helvetica,sans-Serif" font-size="10.00">aducm3029_uart_stdio.h</text>
</a>
</g>
</g>
<!-- Node1&#45;&gt;Node17 -->
<g id="edge24_Node000001_Node000017" class="edge">
<title>Node1&#45;&gt;Node17</title>
<g id="a_edge24_Node000001_Node000017"><a xlink:title=" ">
<path fill="none" stroke="#63b8ff" d="M441.37,-219.95C420.17,-209.75 394.8,-197.54 376.02,-188.5"/>
<polygon fill="#63b8ff" stroke="#63b8ff" points="377.38,-185.27 366.85,-184.09 374.35,-191.58 377.38,-185.27"/>
</a>
</g>
</g>
<!-- Node18 -->
<g id="Node000018" class="node">
<title>Node18</title>
<g id="a_Node000018"><a xlink:href="aducm3029__irq_8h.html" target="_top" xlink:title="Header file of IRQ driver for ADuCM302x.">
<polygon fill="white" stroke="#666666" points="877.5,-184 776.5,-184 776.5,-165 877.5,-165 877.5,-184"/>
<text text-anchor="middle" x="827" y="-172" font-family="Helvetica,sans-Serif" font-size="10.00">aducm3029_irq.h</text>
</a>
</g>
</g>
<!-- Node1&#45;&gt;Node18 -->
<g id="edge26_Node000001_Node000018" class="edge">
<title>Node1&#45;&gt;Node18</title>
<g id="a_edge26_Node000001_Node000018"><a xlink:title=" ">
<path fill="none" stroke="#63b8ff" d="M566.4,-223.84C630.06,-212.03 715.61,-196.16 771.02,-185.88"/>
<polygon fill="#63b8ff" stroke="#63b8ff" points="771.82,-189.3 781.01,-184.03 770.54,-182.41 771.82,-189.3"/>
</a>
</g>
</g>
<!-- Node6 -->
<g id="Node000006" class="node">
<title>Node6</title>
<g id="a_Node000006"><a xlink:title=" ">
<polygon fill="#e0e0e0" stroke="#999999" points="768.5,-19 715.5,-19 715.5,0 768.5,0 768.5,-19"/>
<text text-anchor="middle" x="742" y="-7" font-family="Helvetica,sans-Serif" font-size="10.00">stdint.h</text>
</a>
</g>
</g>
<!-- Node5&#45;&gt;Node6 -->
<g id="edge5_Node000005_Node000006" class="edge">
<title>Node5&#45;&gt;Node6</title>
<g id="a_edge5_Node000005_Node000006"><a xlink:title=" ">
<path fill="none" stroke="#63b8ff" d="M1035.25,-56.89C969.26,-46.45 841.9,-26.31 779,-16.35"/>
<polygon fill="#63b8ff" stroke="#63b8ff" points="779.18,-12.84 768.76,-14.73 778.09,-19.75 779.18,-12.84"/>
</a>
</g>
</g>
<!-- Node7&#45;&gt;Node6 -->
<g id="edge7_Node000007_Node000006" class="edge">
<title>Node7&#45;&gt;Node6</title>
<g id="a_edge7_Node000007_Node000006"><a xlink:title=" ">
<path fill="none" stroke="#63b8ff" d="M761.28,-109.66C757.88,-92.17 750.23,-52.8 745.65,-29.27"/>
<polygon fill="#63b8ff" stroke="#63b8ff" points="749.03,-28.31 743.68,-19.16 742.16,-29.64 749.03,-28.31"/>
</a>
</g>
</g>
<!-- Node9&#45;&gt;Node6 -->
<g id="edge10_Node000009_Node000006" class="edge">
<title>Node9&#45;&gt;Node6</title>
<g id="a_edge10_Node000009_Node000006"><a xlink:title=" ">
<path fill="none" stroke="#63b8ff" d="M380.17,-109.94C452.01,-90.19 628.95,-41.57 705.61,-20.5"/>
<polygon fill="#63b8ff" stroke="#63b8ff" points="706.6,-23.86 715.31,-17.83 704.74,-17.11 706.6,-23.86"/>
</a>
</g>
</g>
<!-- Node10 -->
<g id="Node000010" class="node">
<title>Node10</title>
<g id="a_Node000010"><a xlink:title=" ">
<polygon fill="#e0e0e0" stroke="#999999" points="452,-19 390,-19 390,0 452,0 452,-19"/>
<text text-anchor="middle" x="421" y="-7" font-family="Helvetica,sans-Serif" font-size="10.00">stdbool.h</text>
</a>
</g>
</g>
<!-- Node9&#45;&gt;Node10 -->
<g id="edge11_Node000009_Node000010" class="edge">
<title>Node9&#45;&gt;Node10</title>
<g id="a_edge11_Node000009_Node000010"><a xlink:title=" ">
<path fill="none" stroke="#63b8ff" d="M320.37,-109.97C289.63,-99.32 247.55,-79.49 266,-55 279.7,-36.81 338.6,-23.76 379.71,-16.67"/>
<polygon fill="#63b8ff" stroke="#63b8ff" points="380.45,-20.1 389.74,-15 379.3,-13.19 380.45,-20.1"/>
</a>
</g>
</g>
<!-- Node11 -->
<g id="Node000011" class="node">
<title>Node11</title>
<g id="a_Node000011"><a xlink:href="no__os__lf256fifo_8h.html" target="_top" xlink:title="SPSC lock&#45;free fifo of fixed size (256), specialized for UART.">
<polygon fill="white" stroke="#666666" points="375,-74 275,-74 275,-55 375,-55 375,-74"/>
<text text-anchor="middle" x="325" y="-62" font-family="Helvetica,sans-Serif" font-size="10.00">no_os_lf256fifo.h</text>
</a>
</g>
</g>
<!-- Node9&#45;&gt;Node11 -->
<g id="edge12_Node000009_Node000011" class="edge">
<title>Node9&#45;&gt;Node11</title>
<g id="a_edge12_Node000009_Node000011"><a xlink:title=" ">
<path fill="none" stroke="#63b8ff" d="M345.04,-109.75C341.79,-102.57 337.08,-92.18 333.05,-83.27"/>
<polygon fill="#63b8ff" stroke="#63b8ff" points="336.2,-81.75 328.89,-74.09 329.83,-84.64 336.2,-81.75"/>
</a>
</g>
</g>
<!-- Node11&#45;&gt;Node6 -->
<g id="edge14_Node000011_Node000006" class="edge">
<title>Node11&#45;&gt;Node6</title>
<g id="a_edge14_Node000011_Node000006"><a xlink:title=" ">
<path fill="none" stroke="#63b8ff" d="M375.3,-56.79C379.93,-56.18 384.55,-55.58 389,-55 504.48,-40.05 641.29,-22.99 705.41,-15.03"/>
<polygon fill="#63b8ff" stroke="#63b8ff" points="705.93,-18.49 715.42,-13.79 705.07,-11.55 705.93,-18.49"/>
</a>
</g>
</g>
<!-- Node11&#45;&gt;Node10 -->
<g id="edge15_Node000011_Node000010" class="edge">
<title>Node11&#45;&gt;Node10</title>
<g id="a_edge15_Node000011_Node000010"><a xlink:title=" ">
<path fill="none" stroke="#63b8ff" d="M340.42,-54.98C355.45,-46.69 378.54,-33.94 396.16,-24.22"/>
<polygon fill="#63b8ff" stroke="#63b8ff" points="398.23,-27.07 405.3,-19.17 394.85,-20.94 398.23,-27.07"/>
</a>
</g>
</g>
<!-- Node12 -->
<g id="Node000012" class="node">
<title>Node12</title>
<g id="a_Node000012"><a xlink:title=" ">
<polygon fill="#e0e0e0" stroke="#999999" points="351.5,-19 298.5,-19 298.5,0 351.5,0 351.5,-19"/>
<text text-anchor="middle" x="325" y="-7" font-family="Helvetica,sans-Serif" font-size="10.00">stdlib.h</text>
</a>
</g>
</g>
<!-- Node11&#45;&gt;Node12 -->
<g id="edge13_Node000011_Node000012" class="edge">
<title>Node11&#45;&gt;Node12</title>
<g id="a_edge13_Node000011_Node000012"><a xlink:title=" ">
<path fill="none" stroke="#63b8ff" d="M325,-54.75C325,-47.8 325,-37.85 325,-29.13"/>
<polygon fill="#63b8ff" stroke="#63b8ff" points="328.5,-29.09 325,-19.09 321.5,-29.09 328.5,-29.09"/>
</a>
</g>
</g>
<!-- Node13&#45;&gt;Node6 -->
<g id="edge19_Node000013_Node000006" class="edge">
<title>Node13&#45;&gt;Node6</title>
<g id="a_edge19_Node000013_Node000006"><a xlink:title=" ">
<path fill="none" stroke="#63b8ff" d="M645.57,-164.74C655.33,-156.29 669.81,-142.78 680,-129 704.28,-96.14 724.48,-52.47 734.73,-28.37"/>
<polygon fill="#63b8ff" stroke="#63b8ff" points="737.99,-29.64 738.61,-19.06 731.53,-26.94 737.99,-29.64"/>
</a>
</g>
</g>
<!-- Node13&#45;&gt;Node7 -->
<g id="edge22_Node000013_Node000007" class="edge">
<title>Node13&#45;&gt;Node7</title>
<g id="a_edge22_Node000013_Node000007"><a xlink:title=" ">
<path fill="none" stroke="#63b8ff" d="M655.57,-164.98C676.43,-156.34 708.97,-142.87 732.77,-133.02"/>
<polygon fill="#63b8ff" stroke="#63b8ff" points="734.16,-136.23 742.06,-129.17 731.48,-129.76 734.16,-136.23"/>
</a>
</g>
</g>
<!-- Node13&#45;&gt;Node9 -->
<g id="edge23_Node000013_Node000009" class="edge">
<title>Node13&#45;&gt;Node9</title>
<g id="a_edge23_Node000013_Node000009"><a xlink:title=" ">
<path fill="none" stroke="#63b8ff" d="M589.05,-164.98C536.98,-155.34 452.41,-139.66 398.8,-129.73"/>
<polygon fill="#63b8ff" stroke="#63b8ff" points="399.31,-126.26 388.84,-127.88 398.03,-133.15 399.31,-126.26"/>
</a>
</g>
</g>
<!-- Node13&#45;&gt;Node10 -->
<g id="edge18_Node000013_Node000010" class="edge">
<title>Node13&#45;&gt;Node10</title>
<g id="a_edge18_Node000013_Node000010"><a xlink:title=" ">
<path fill="none" stroke="#63b8ff" d="M582.95,-164.95C527.68,-155.38 446.91,-139.81 437,-129 411.95,-101.67 414.06,-54.81 417.63,-28.96"/>
<polygon fill="#63b8ff" stroke="#63b8ff" points="421.1,-29.43 419.23,-19 414.19,-28.32 421.1,-29.43"/>
</a>
</g>
</g>
<!-- Node14 -->
<g id="Node000014" class="node">
<title>Node14</title>
<g id="a_Node000014"><a xlink:title=" ">
<polygon fill="#e0e0e0" stroke="#999999" points="570.5,-129 445.5,-129 445.5,-110 570.5,-110 570.5,-129"/>
<text text-anchor="middle" x="508" y="-117" font-family="Helvetica,sans-Serif" font-size="10.00">drivers/uart/adi_uart.h</text>
</a>
</g>
</g>
<!-- Node13&#45;&gt;Node14 -->
<g id="edge17_Node000013_Node000014" class="edge">
<title>Node13&#45;&gt;Node14</title>
<g id="a_edge17_Node000013_Node000014"><a xlink:title=" ">
<path fill="none" stroke="#63b8ff" d="M614.6,-164.98C593.98,-156.38 561.89,-142.99 538.31,-133.15"/>
<polygon fill="#63b8ff" stroke="#63b8ff" points="539.35,-129.79 528.78,-129.17 536.66,-136.25 539.35,-129.79"/>
</a>
</g>
</g>
<!-- Node15 -->
<g id="Node000015" class="node">
<title>Node15</title>
<g id="a_Node000015"><a xlink:href="no__os__error_8h.html" target="_top" xlink:title="Error codes definition.">
<polygon fill="white" stroke="#666666" points="671,-129 589,-129 589,-110 671,-110 671,-129"/>
<text text-anchor="middle" x="630" y="-117" font-family="Helvetica,sans-Serif" font-size="10.00">no_os_error.h</text>
</a>
</g>
</g>
<!-- Node13&#45;&gt;Node15 -->
<g id="edge20_Node000013_Node000015" class="edge">
<title>Node13&#45;&gt;Node15</title>
<g id="a_edge20_Node000013_Node000015"><a xlink:title=" ">
<path fill="none" stroke="#63b8ff" d="M634.17,-164.75C633.52,-157.8 632.58,-147.85 631.76,-139.13"/>
<polygon fill="#63b8ff" stroke="#63b8ff" points="635.23,-138.72 630.81,-129.09 628.27,-139.37 635.23,-138.72"/>
</a>
</g>
</g>
<!-- Node16 -->
<g id="Node000016" class="node">
<title>Node16</title>
<g id="a_Node000016"><a xlink:href="errno_8h.html" target="_top" xlink:title="Error macro definition for ARM Compiler.">
<polygon fill="white" stroke="#666666" points="655.5,-74 604.5,-74 604.5,-55 655.5,-55 655.5,-74"/>
<text text-anchor="middle" x="630" y="-62" font-family="Helvetica,sans-Serif" font-size="10.00">errno.h</text>
</a>
</g>
</g>
<!-- Node15&#45;&gt;Node16 -->
<g id="edge21_Node000015_Node000016" class="edge">
<title>Node15&#45;&gt;Node16</title>
<g id="a_edge21_Node000015_Node000016"><a xlink:title=" ">
<path fill="none" stroke="#63b8ff" d="M630,-109.75C630,-102.8 630,-92.85 630,-84.13"/>
<polygon fill="#63b8ff" stroke="#63b8ff" points="633.5,-84.09 630,-74.09 626.5,-84.09 633.5,-84.09"/>
</a>
</g>
</g>
<!-- Node17&#45;&gt;Node9 -->
<g id="edge25_Node000017_Node000009" class="edge">
<title>Node17&#45;&gt;Node9</title>
<g id="a_edge25_Node000017_Node000009"><a xlink:title=" ">
<path fill="none" stroke="#63b8ff" d="M349,-164.75C349,-157.8 349,-147.85 349,-139.13"/>
<polygon fill="#63b8ff" stroke="#63b8ff" points="352.5,-139.09 349,-129.09 345.5,-139.09 352.5,-139.09"/>
</a>
</g>
</g>
<!-- Node18&#45;&gt;Node6 -->
<g id="edge29_Node000018_Node000006" class="edge">
<title>Node18&#45;&gt;Node6</title>
<g id="a_edge29_Node000018_Node000006"><a xlink:title=" ">
<path fill="none" stroke="#63b8ff" d="M877.71,-171.26C935,-166.66 1016.77,-152.66 988,-110 940.82,-40.02 835.19,-19.24 778.93,-13.09"/>
<polygon fill="#63b8ff" stroke="#63b8ff" points="778.99,-9.58 768.69,-12.07 778.3,-16.54 778.99,-9.58"/>
</a>
</g>
</g>
<!-- Node18&#45;&gt;Node7 -->
<g id="edge30_Node000018_Node000007" class="edge">
<title>Node18&#45;&gt;Node7</title>
<g id="a_edge30_Node000018_Node000007"><a xlink:title=" ">
<path fill="none" stroke="#63b8ff" d="M816.72,-164.98C807.16,-157.07 792.72,-145.11 781.22,-135.58"/>
<polygon fill="#63b8ff" stroke="#63b8ff" points="783.4,-132.85 773.47,-129.17 778.94,-138.24 783.4,-132.85"/>
</a>
</g>
</g>
<!-- Node18&#45;&gt;Node10 -->
<g id="edge28_Node000018_Node000010" class="edge">
<title>Node18&#45;&gt;Node10</title>
<g id="a_edge28_Node000018_Node000010"><a xlink:title=" ">
<path fill="none" stroke="#63b8ff" d="M826.75,-164.94C825.91,-151.54 822.39,-125.53 808,-110 760.95,-59.21 552.01,-27.13 462.23,-15.47"/>
<polygon fill="#63b8ff" stroke="#63b8ff" points="462.5,-11.97 452.14,-14.18 461.62,-18.92 462.5,-11.97"/>
</a>
</g>
</g>
<!-- Node19 -->
<g id="Node000019" class="node">
<title>Node19</title>
<g id="a_Node000019"><a xlink:title=" ">
<polygon fill="#e0e0e0" stroke="#999999" points="978.5,-129 855.5,-129 855.5,-110 978.5,-110 978.5,-129"/>
<text text-anchor="middle" x="917" y="-117" font-family="Helvetica,sans-Serif" font-size="10.00">drivers/xint/adi_xint.h</text>
</a>
</g>
</g>
<!-- Node18&#45;&gt;Node19 -->
<g id="edge27_Node000018_Node000019" class="edge">
<title>Node18&#45;&gt;Node19</title>
<g id="a_edge27_Node000018_Node000019"><a xlink:title=" ">
<path fill="none" stroke="#63b8ff" d="M841.46,-164.98C855.42,-156.77 876.79,-144.18 893.25,-134.49"/>
<polygon fill="#63b8ff" stroke="#63b8ff" points="895.44,-137.26 902.28,-129.17 891.88,-131.23 895.44,-137.26"/>
</a>
</g>
</g>
</g>
</svg>
