<?xml version="1.0" encoding="UTF-8" standalone="no"?>
<!DOCTYPE svg PUBLIC "-//W3C//DTD SVG 1.1//EN"
 "http://www.w3.org/Graphics/SVG/1.1/DTD/svg11.dtd">
<!-- Generated by graphviz version 2.43.0 (0)
 -->
<!-- Title: /home/runner/work/no&#45;OS/no&#45;OS/drivers/platform/aducm3029/aducm3029_timer.h Pages: 1 -->
<svg width="1070pt" height="225pt"
 viewBox="0.00 0.00 1070.00 225.00" xmlns="http://www.w3.org/2000/svg" xmlns:xlink="http://www.w3.org/1999/xlink">
<g id="graph0" class="graph" transform="scale(1 1) rotate(0) translate(4 221)">
<title>/home/runner/work/no&#45;OS/no&#45;OS/drivers/platform/aducm3029/aducm3029_timer.h</title>
<!-- Node1 -->
<g id="Node000001" class="node">
<title>Node1</title>
<g id="a_Node000001"><a xlink:title="Header file of TIMER driver for ADuCM302x.">
<polygon fill="#999999" stroke="#666666" points="647,-217 471,-217 471,-176 647,-176 647,-217"/>
<text text-anchor="start" x="479" y="-205" font-family="Helvetica,sans-Serif" font-size="10.00">/home/runner/work/no</text>
<text text-anchor="start" x="479" y="-194" font-family="Helvetica,sans-Serif" font-size="10.00">&#45;OS/no&#45;OS/drivers/platform</text>
<text text-anchor="middle" x="559" y="-183" font-family="Helvetica,sans-Serif" font-size="10.00">/aducm3029/aducm3029_timer.h</text>
</a>
</g>
</g>
<!-- Node2 -->
<g id="Node000002" class="node">
<title>Node2</title>
<g id="a_Node000002"><a xlink:href="aducm3029__delay_8c.html" target="_top" xlink:title="Implementation of DELAY functions for ADuCM302x.">
<polygon fill="white" stroke="#666666" points="176,-134.5 0,-134.5 0,-93.5 176,-93.5 176,-134.5"/>
<text text-anchor="start" x="8" y="-122.5" font-family="Helvetica,sans-Serif" font-size="10.00">/home/runner/work/no</text>
<text text-anchor="start" x="8" y="-111.5" font-family="Helvetica,sans-Serif" font-size="10.00">&#45;OS/no&#45;OS/drivers/platform</text>
<text text-anchor="middle" x="88" y="-100.5" font-family="Helvetica,sans-Serif" font-size="10.00">/aducm3029/aducm3029_delay.c</text>
</a>
</g>
</g>
<!-- Node1&#45;&gt;Node2 -->
<g id="edge1_Node000001_Node000002" class="edge">
<title>Node1&#45;&gt;Node2</title>
<g id="a_edge1_Node000001_Node000002"><a xlink:title=" ">
<path fill="none" stroke="#63b8ff" d="M460.88,-183.8C385.16,-174.08 277.97,-158.83 185,-140 176.99,-138.38 168.65,-136.51 160.37,-134.54"/>
<polygon fill="#63b8ff" stroke="#63b8ff" points="460.53,-187.28 470.89,-185.08 461.41,-180.34 460.53,-187.28"/>
</a>
</g>
</g>
<!-- Node3 -->
<g id="Node000003" class="node">
<title>Node3</title>
<g id="a_Node000003"><a xlink:href="aducm3029__irq_8c.html" target="_top" xlink:title="Implementation of External IRQ driver for ADuCM302x.">
<polygon fill="white" stroke="#666666" points="357.5,-134.5 194.5,-134.5 194.5,-93.5 357.5,-93.5 357.5,-134.5"/>
<text text-anchor="start" x="202.5" y="-122.5" font-family="Helvetica,sans-Serif" font-size="10.00">/home/runner/work/no</text>
<text text-anchor="start" x="202.5" y="-111.5" font-family="Helvetica,sans-Serif" font-size="10.00">&#45;OS/no&#45;OS/drivers/platform</text>
<text text-anchor="middle" x="276" y="-100.5" font-family="Helvetica,sans-Serif" font-size="10.00">/aducm3029/aducm3029_irq.c</text>
</a>
</g>
</g>
<!-- Node1&#45;&gt;Node3 -->
<g id="edge2_Node000001_Node000003" class="edge">
<title>Node1&#45;&gt;Node3</title>
<g id="a_edge2_Node000001_Node000003"><a xlink:title=" ">
<path fill="none" stroke="#63b8ff" d="M480.36,-173.13C437.77,-161.02 385.64,-146.19 344.69,-134.54"/>
<polygon fill="#63b8ff" stroke="#63b8ff" points="479.56,-176.54 490.13,-175.91 481.47,-169.81 479.56,-176.54"/>
</a>
</g>
</g>
<!-- Node4 -->
<g id="Node000004" class="node">
<title>Node4</title>
<g id="a_Node000004"><a xlink:href="aducm3029__timer_8c.html" target="_top" xlink:title="Implementation of TIMER driver for ADuCM302x.">
<polygon fill="white" stroke="#666666" points="552,-134.5 376,-134.5 376,-93.5 552,-93.5 552,-134.5"/>
<text text-anchor="start" x="384" y="-122.5" font-family="Helvetica,sans-Serif" font-size="10.00">/home/runner/work/no</text>
<text text-anchor="start" x="384" y="-111.5" font-family="Helvetica,sans-Serif" font-size="10.00">&#45;OS/no&#45;OS/drivers/platform</text>
<text text-anchor="middle" x="464" y="-100.5" font-family="Helvetica,sans-Serif" font-size="10.00">/aducm3029/aducm3029_timer.c</text>
</a>
</g>
</g>
<!-- Node1&#45;&gt;Node4 -->
<g id="edge3_Node000001_Node000004" class="edge">
<title>Node1&#45;&gt;Node4</title>
<g id="a_edge3_Node000001_Node000004"><a xlink:title=" ">
<path fill="none" stroke="#63b8ff" d="M527.6,-168.89C514.42,-157.72 499.36,-144.97 487.21,-134.67"/>
<polygon fill="#63b8ff" stroke="#63b8ff" points="525.62,-171.81 535.52,-175.6 530.15,-166.47 525.62,-171.81"/>
</a>
</g>
</g>
<!-- Node5 -->
<g id="Node000005" class="node">
<title>Node5</title>
<g id="a_Node000005"><a xlink:href="adxrs290-pmdz_2src_2platform_2aducm3029_2parameters_8h.html" target="_top" xlink:title="Definitions specific to STM32 platform used by eval&#45;adxrs290&#45;pmdz project.">
<polygon fill="white" stroke="#666666" points="740,-140 570,-140 570,-88 740,-88 740,-140"/>
<text text-anchor="start" x="578" y="-128" font-family="Helvetica,sans-Serif" font-size="10.00">/home/runner/work/no</text>
<text text-anchor="start" x="578" y="-117" font-family="Helvetica,sans-Serif" font-size="10.00">&#45;OS/no&#45;OS/projects/adxrs290</text>
<text text-anchor="start" x="578" y="-106" font-family="Helvetica,sans-Serif" font-size="10.00">&#45;pmdz/src/platform/aducm3029</text>
<text text-anchor="middle" x="655" y="-95" font-family="Helvetica,sans-Serif" font-size="10.00">/parameters.h</text>
</a>
</g>
</g>
<!-- Node1&#45;&gt;Node5 -->
<g id="edge4_Node000001_Node000005" class="edge">
<title>Node1&#45;&gt;Node5</title>
<g id="a_edge4_Node000001_Node000005"><a xlink:title=" ">
<path fill="none" stroke="#63b8ff" d="M590.53,-169.06C601.62,-159.76 614.04,-149.35 625,-140.16"/>
<polygon fill="#63b8ff" stroke="#63b8ff" points="588.14,-166.49 582.73,-175.6 592.64,-171.86 588.14,-166.49"/>
</a>
</g>
</g>
<!-- Node8 -->
<g id="Node000008" class="node">
<title>Node8</title>
<g id="a_Node000008"><a xlink:href="demo__esp_2src_2platform_2aducm3029_2parameters_8h.html" target="_top" xlink:title="Definitions specific to aducm3029 platform used by demo_esp project.">
<polygon fill="white" stroke="#666666" points="919.5,-140 758.5,-140 758.5,-88 919.5,-88 919.5,-140"/>
<text text-anchor="start" x="766.5" y="-128" font-family="Helvetica,sans-Serif" font-size="10.00">/home/runner/work/no</text>
<text text-anchor="start" x="766.5" y="-117" font-family="Helvetica,sans-Serif" font-size="10.00">&#45;OS/no&#45;OS/projects/demo</text>
<text text-anchor="start" x="766.5" y="-106" font-family="Helvetica,sans-Serif" font-size="10.00">_esp/src/platform/aducm3029</text>
<text text-anchor="middle" x="839" y="-95" font-family="Helvetica,sans-Serif" font-size="10.00">/parameters.h</text>
</a>
</g>
</g>
<!-- Node1&#45;&gt;Node8 -->
<g id="edge7_Node000001_Node000008" class="edge">
<title>Node1&#45;&gt;Node8</title>
<g id="a_edge7_Node000001_Node000008"><a xlink:title=" ">
<path fill="none" stroke="#63b8ff" d="M637.08,-173.05C674.88,-162.19 720.22,-149.15 758.35,-138.19"/>
<polygon fill="#63b8ff" stroke="#63b8ff" points="635.78,-169.78 627.14,-175.91 637.72,-176.51 635.78,-169.78"/>
</a>
</g>
</g>
<!-- Node10 -->
<g id="Node000010" class="node">
<title>Node10</title>
<g id="a_Node000010"><a xlink:href="iio__adpd1080_2src_2main_8c.html" target="_top" xlink:title="Implementation of Main Function.">
<polygon fill="white" stroke="#666666" points="1062,-134.5 938,-134.5 938,-93.5 1062,-93.5 1062,-134.5"/>
<text text-anchor="start" x="946" y="-122.5" font-family="Helvetica,sans-Serif" font-size="10.00">/home/runner/work/no</text>
<text text-anchor="start" x="946" y="-111.5" font-family="Helvetica,sans-Serif" font-size="10.00">&#45;OS/no&#45;OS/projects/iio</text>
<text text-anchor="middle" x="1000" y="-100.5" font-family="Helvetica,sans-Serif" font-size="10.00">_adpd1080/src/main.c</text>
</a>
</g>
</g>
<!-- Node1&#45;&gt;Node10 -->
<g id="edge9_Node000001_Node000010" class="edge">
<title>Node1&#45;&gt;Node10</title>
<g id="a_edge9_Node000001_Node000010"><a xlink:title=" ">
<path fill="none" stroke="#63b8ff" d="M657.41,-185.88C732.54,-177.31 838.24,-162.57 929,-140 935.21,-138.45 941.65,-136.59 948,-134.57"/>
<polygon fill="#63b8ff" stroke="#63b8ff" points="656.56,-182.46 647.01,-187.05 657.34,-189.41 656.56,-182.46"/>
</a>
</g>
</g>
<!-- Node6 -->
<g id="Node000006" class="node">
<title>Node6</title>
<g id="a_Node000006"><a xlink:href="adxrs290-pmdz_2src_2platform_2aducm3029_2main_8c.html" target="_top" xlink:title="Main file for STM32 platform of eval&#45;adxrs290&#45;pmdz project.">
<polygon fill="white" stroke="#666666" points="552,-46.5 346,-46.5 346,-5.5 552,-5.5 552,-46.5"/>
<text text-anchor="start" x="354" y="-34.5" font-family="Helvetica,sans-Serif" font-size="10.00">/home/runner/work/no</text>
<text text-anchor="start" x="354" y="-23.5" font-family="Helvetica,sans-Serif" font-size="10.00">&#45;OS/no&#45;OS/projects/adxrs290</text>
<text text-anchor="middle" x="449" y="-12.5" font-family="Helvetica,sans-Serif" font-size="10.00">&#45;pmdz/src/platform/aducm3029/main.c</text>
</a>
</g>
</g>
<!-- Node5&#45;&gt;Node6 -->
<g id="edge5_Node000005_Node000006" class="edge">
<title>Node5&#45;&gt;Node6</title>
<g id="a_edge5_Node000005_Node000006"><a xlink:title=" ">
<path fill="none" stroke="#63b8ff" d="M585.43,-83.96C555.91,-71.63 522.27,-57.59 495.78,-46.53"/>
<polygon fill="#63b8ff" stroke="#63b8ff" points="584.29,-87.27 594.86,-87.89 586.98,-80.81 584.29,-87.27"/>
</a>
</g>
</g>
<!-- Node7 -->
<g id="Node000007" class="node">
<title>Node7</title>
<g id="a_Node000007"><a xlink:href="adxrs290-pmdz_2src_2platform_2aducm3029_2parameters_8c.html" target="_top" xlink:title="Definition of STM32 platform data used by eval&#45;adxrs290&#45;pmdz project.">
<polygon fill="white" stroke="#666666" points="740,-52 570,-52 570,0 740,0 740,-52"/>
<text text-anchor="start" x="578" y="-40" font-family="Helvetica,sans-Serif" font-size="10.00">/home/runner/work/no</text>
<text text-anchor="start" x="578" y="-29" font-family="Helvetica,sans-Serif" font-size="10.00">&#45;OS/no&#45;OS/projects/adxrs290</text>
<text text-anchor="start" x="578" y="-18" font-family="Helvetica,sans-Serif" font-size="10.00">&#45;pmdz/src/platform/aducm3029</text>
<text text-anchor="middle" x="655" y="-7" font-family="Helvetica,sans-Serif" font-size="10.00">/parameters.c</text>
</a>
</g>
</g>
<!-- Node5&#45;&gt;Node7 -->
<g id="edge6_Node000005_Node000007" class="edge">
<title>Node5&#45;&gt;Node7</title>
<g id="a_edge6_Node000005_Node000007"><a xlink:title=" ">
<path fill="none" stroke="#63b8ff" d="M655,-77.56C655,-69.04 655,-60.1 655,-52.16"/>
<polygon fill="#63b8ff" stroke="#63b8ff" points="651.5,-77.66 655,-87.66 658.5,-77.66 651.5,-77.66"/>
</a>
</g>
</g>
<!-- Node9 -->
<g id="Node000009" class="node">
<title>Node9</title>
<g id="a_Node000009"><a xlink:href="demo__esp_2src_2platform_2aducm3029_2parameters_8c.html" target="_top" xlink:title="Definition of aducm3029 platform data used by demo_esp.">
<polygon fill="white" stroke="#666666" points="919.5,-52 758.5,-52 758.5,0 919.5,0 919.5,-52"/>
<text text-anchor="start" x="766.5" y="-40" font-family="Helvetica,sans-Serif" font-size="10.00">/home/runner/work/no</text>
<text text-anchor="start" x="766.5" y="-29" font-family="Helvetica,sans-Serif" font-size="10.00">&#45;OS/no&#45;OS/projects/demo</text>
<text text-anchor="start" x="766.5" y="-18" font-family="Helvetica,sans-Serif" font-size="10.00">_esp/src/platform/aducm3029</text>
<text text-anchor="middle" x="839" y="-7" font-family="Helvetica,sans-Serif" font-size="10.00">/parameters.c</text>
</a>
</g>
</g>
<!-- Node8&#45;&gt;Node9 -->
<g id="edge8_Node000008_Node000009" class="edge">
<title>Node8&#45;&gt;Node9</title>
<g id="a_edge8_Node000008_Node000009"><a xlink:title=" ">
<path fill="none" stroke="#63b8ff" d="M839,-77.56C839,-69.04 839,-60.1 839,-52.16"/>
<polygon fill="#63b8ff" stroke="#63b8ff" points="835.5,-77.66 839,-87.66 842.5,-77.66 835.5,-77.66"/>
</a>
</g>
</g>
</g>
</svg>
