<?xml version="1.0" encoding="UTF-8" standalone="no"?>
<!DOCTYPE svg PUBLIC "-//W3C//DTD SVG 1.1//EN"
 "http://www.w3.org/Graphics/SVG/1.1/DTD/svg11.dtd">
<!-- Generated by graphviz version 2.43.0 (0)
 -->
<!-- Title: /home/runner/work/no&#45;OS/no&#45;OS/drivers/platform/aducm3029/aducm3029_adc.c Pages: 1 -->
<svg width="623pt" height="159pt"
 viewBox="0.00 0.00 623.00 159.00" xmlns="http://www.w3.org/2000/svg" xmlns:xlink="http://www.w3.org/1999/xlink">
<g id="graph0" class="graph" transform="scale(1 1) rotate(0) translate(4 155)">
<title>/home/runner/work/no&#45;OS/no&#45;OS/drivers/platform/aducm3029/aducm3029_adc.c</title>
<!-- Node1 -->
<g id="Node000001" class="node">
<title>Node1</title>
<g id="a_Node000001"><a xlink:title="Implementation of aducm3029_adc.c.">
<polygon fill="#999999" stroke="#666666" points="448.5,-151 281.5,-151 281.5,-110 448.5,-110 448.5,-151"/>
<text text-anchor="start" x="289.5" y="-139" font-family="Helvetica,sans-Serif" font-size="10.00">/home/runner/work/no</text>
<text text-anchor="start" x="289.5" y="-128" font-family="Helvetica,sans-Serif" font-size="10.00">&#45;OS/no&#45;OS/drivers/platform</text>
<text text-anchor="middle" x="365" y="-117" font-family="Helvetica,sans-Serif" font-size="10.00">/aducm3029/aducm3029_adc.c</text>
</a>
</g>
</g>
<!-- Node2 -->
<g id="Node000002" class="node">
<title>Node2</title>
<g id="a_Node000002"><a xlink:title=" ">
<polygon fill="#e0e0e0" stroke="#999999" points="120,-74 0,-74 0,-55 120,-55 120,-74"/>
<text text-anchor="middle" x="60" y="-62" font-family="Helvetica,sans-Serif" font-size="10.00">drivers/adc/adi_adc.h</text>
</a>
</g>
</g>
<!-- Node1&#45;&gt;Node2 -->
<g id="edge1_Node000001_Node000002" class="edge">
<title>Node1&#45;&gt;Node2</title>
<g id="a_edge1_Node000001_Node000002"><a xlink:title=" ">
<path fill="none" stroke="#63b8ff" d="M281.25,-111.93C226.54,-100.45 156.9,-85.83 110.51,-76.1"/>
<polygon fill="#63b8ff" stroke="#63b8ff" points="111.19,-72.67 100.69,-74.04 109.76,-79.52 111.19,-72.67"/>
</a>
</g>
</g>
<!-- Node3 -->
<g id="Node000003" class="node">
<title>Node3</title>
<g id="a_Node000003"><a xlink:href="aducm3029__adc_8h.html" target="_top" xlink:title="Interface of aducm3029_adc.c.">
<polygon fill="white" stroke="#666666" points="243.5,-74 138.5,-74 138.5,-55 243.5,-55 243.5,-74"/>
<text text-anchor="middle" x="191" y="-62" font-family="Helvetica,sans-Serif" font-size="10.00">aducm3029_adc.h</text>
</a>
</g>
</g>
<!-- Node1&#45;&gt;Node3 -->
<g id="edge2_Node000001_Node000003" class="edge">
<title>Node1&#45;&gt;Node3</title>
<g id="a_edge2_Node000001_Node000003"><a xlink:title=" ">
<path fill="none" stroke="#63b8ff" d="M311.85,-109.95C283.21,-99.42 248.78,-86.75 224.01,-77.64"/>
<polygon fill="#63b8ff" stroke="#63b8ff" points="224.95,-74.26 214.36,-74.09 222.54,-80.83 224.95,-74.26"/>
</a>
</g>
</g>
<!-- Node5 -->
<g id="Node000005" class="node">
<title>Node5</title>
<g id="a_Node000005"><a xlink:href="no__os__error_8h.html" target="_top" xlink:title="Error codes definition.">
<polygon fill="white" stroke="#666666" points="615,-74 533,-74 533,-55 615,-55 615,-74"/>
<text text-anchor="middle" x="574" y="-62" font-family="Helvetica,sans-Serif" font-size="10.00">no_os_error.h</text>
</a>
</g>
</g>
<!-- Node1&#45;&gt;Node5 -->
<g id="edge4_Node000001_Node000005" class="edge">
<title>Node1&#45;&gt;Node5</title>
<g id="a_edge4_Node000001_Node000005"><a xlink:title=" ">
<path fill="none" stroke="#63b8ff" d="M428.84,-109.95C464.11,-99.15 506.7,-86.11 536.59,-76.95"/>
<polygon fill="#63b8ff" stroke="#63b8ff" points="537.68,-80.28 546.22,-74.01 535.63,-73.59 537.68,-80.28"/>
</a>
</g>
</g>
<!-- Node7 -->
<g id="Node000007" class="node">
<title>Node7</title>
<g id="a_Node000007"><a xlink:title=" ">
<polygon fill="#e0e0e0" stroke="#999999" points="495,-19 445,-19 445,0 495,0 495,-19"/>
<text text-anchor="middle" x="470" y="-7" font-family="Helvetica,sans-Serif" font-size="10.00">stdio.h</text>
</a>
</g>
</g>
<!-- Node1&#45;&gt;Node7 -->
<g id="edge6_Node000001_Node000007" class="edge">
<title>Node1&#45;&gt;Node7</title>
<g id="a_edge6_Node000001_Node000007"><a xlink:title=" ">
<path fill="none" stroke="#63b8ff" d="M440.97,-109.86C458.32,-101.67 474.68,-90.15 485,-74 493.84,-60.18 487.87,-41.67 481.03,-28.2"/>
<polygon fill="#63b8ff" stroke="#63b8ff" points="484.04,-26.42 476.08,-19.42 477.94,-29.86 484.04,-26.42"/>
</a>
</g>
</g>
<!-- Node8 -->
<g id="Node000008" class="node">
<title>Node8</title>
<g id="a_Node000008"><a xlink:title=" ">
<polygon fill="#e0e0e0" stroke="#999999" points="391.5,-19 338.5,-19 338.5,0 391.5,0 391.5,-19"/>
<text text-anchor="middle" x="365" y="-7" font-family="Helvetica,sans-Serif" font-size="10.00">stdlib.h</text>
</a>
</g>
</g>
<!-- Node1&#45;&gt;Node8 -->
<g id="edge7_Node000001_Node000008" class="edge">
<title>Node1&#45;&gt;Node8</title>
<g id="a_edge7_Node000001_Node000008"><a xlink:title=" ">
<path fill="none" stroke="#63b8ff" d="M365,-109.85C365,-87.48 365,-51.19 365,-29.21"/>
<polygon fill="#63b8ff" stroke="#63b8ff" points="368.5,-29.18 365,-19.18 361.5,-29.18 368.5,-29.18"/>
</a>
</g>
</g>
<!-- Node9 -->
<g id="Node000009" class="node">
<title>Node9</title>
<g id="a_Node000009"><a xlink:href="no__os__util_8h.html" target="_top" xlink:title="Header file of utility functions.">
<polygon fill="white" stroke="#666666" points="336.5,-74 261.5,-74 261.5,-55 336.5,-55 336.5,-74"/>
<text text-anchor="middle" x="299" y="-62" font-family="Helvetica,sans-Serif" font-size="10.00">no_os_util.h</text>
</a>
</g>
</g>
<!-- Node1&#45;&gt;Node9 -->
<g id="edge8_Node000001_Node000009" class="edge">
<title>Node1&#45;&gt;Node9</title>
<g id="a_edge8_Node000001_Node000009"><a xlink:title=" ">
<path fill="none" stroke="#63b8ff" d="M344.84,-109.95C335.34,-100.74 324.16,-89.9 315.22,-81.23"/>
<polygon fill="#63b8ff" stroke="#63b8ff" points="317.65,-78.71 308.03,-74.26 312.78,-83.73 317.65,-78.71"/>
</a>
</g>
</g>
<!-- Node11 -->
<g id="Node000011" class="node">
<title>Node11</title>
<g id="a_Node000011"><a xlink:href="no__os__alloc_8h.html" target="_top" xlink:title=" ">
<polygon fill="white" stroke="#666666" points="476.5,-74 393.5,-74 393.5,-55 476.5,-55 476.5,-74"/>
<text text-anchor="middle" x="435" y="-62" font-family="Helvetica,sans-Serif" font-size="10.00">no_os_alloc.h</text>
</a>
</g>
</g>
<!-- Node1&#45;&gt;Node11 -->
<g id="edge12_Node000001_Node000011" class="edge">
<title>Node1&#45;&gt;Node11</title>
<g id="a_edge12_Node000001_Node000011"><a xlink:title=" ">
<path fill="none" stroke="#63b8ff" d="M386.38,-109.95C396.46,-100.74 408.32,-89.9 417.8,-81.23"/>
<polygon fill="#63b8ff" stroke="#63b8ff" points="420.4,-83.59 425.42,-74.26 415.68,-78.43 420.4,-83.59"/>
</a>
</g>
</g>
<!-- Node4 -->
<g id="Node000004" class="node">
<title>Node4</title>
<g id="a_Node000004"><a xlink:title=" ">
<polygon fill="#e0e0e0" stroke="#999999" points="228.5,-19 175.5,-19 175.5,0 228.5,0 228.5,-19"/>
<text text-anchor="middle" x="202" y="-7" font-family="Helvetica,sans-Serif" font-size="10.00">stdint.h</text>
</a>
</g>
</g>
<!-- Node3&#45;&gt;Node4 -->
<g id="edge3_Node000003_Node000004" class="edge">
<title>Node3&#45;&gt;Node4</title>
<g id="a_edge3_Node000003_Node000004"><a xlink:title=" ">
<path fill="none" stroke="#63b8ff" d="M192.82,-54.75C194.26,-47.8 196.32,-37.85 198.13,-29.13"/>
<polygon fill="#63b8ff" stroke="#63b8ff" points="201.61,-29.59 200.22,-19.09 194.76,-28.17 201.61,-29.59"/>
</a>
</g>
</g>
<!-- Node6 -->
<g id="Node000006" class="node">
<title>Node6</title>
<g id="a_Node000006"><a xlink:href="errno_8h.html" target="_top" xlink:title="Error macro definition for ARM Compiler.">
<polygon fill="white" stroke="#666666" points="599.5,-19 548.5,-19 548.5,0 599.5,0 599.5,-19"/>
<text text-anchor="middle" x="574" y="-7" font-family="Helvetica,sans-Serif" font-size="10.00">errno.h</text>
</a>
</g>
</g>
<!-- Node5&#45;&gt;Node6 -->
<g id="edge5_Node000005_Node000006" class="edge">
<title>Node5&#45;&gt;Node6</title>
<g id="a_edge5_Node000005_Node000006"><a xlink:title=" ">
<path fill="none" stroke="#63b8ff" d="M574,-54.75C574,-47.8 574,-37.85 574,-29.13"/>
<polygon fill="#63b8ff" stroke="#63b8ff" points="577.5,-29.09 574,-19.09 570.5,-29.09 577.5,-29.09"/>
</a>
</g>
</g>
<!-- Node9&#45;&gt;Node4 -->
<g id="edge9_Node000009_Node000004" class="edge">
<title>Node9&#45;&gt;Node4</title>
<g id="a_edge9_Node000009_Node000004"><a xlink:title=" ">
<path fill="none" stroke="#63b8ff" d="M283.42,-54.98C268.23,-46.69 244.9,-33.94 227.1,-24.22"/>
<polygon fill="#63b8ff" stroke="#63b8ff" points="228.32,-20.89 217.87,-19.17 224.97,-27.04 228.32,-20.89"/>
</a>
</g>
</g>
<!-- Node9&#45;&gt;Node8 -->
<g id="edge10_Node000009_Node000008" class="edge">
<title>Node9&#45;&gt;Node8</title>
<g id="a_edge10_Node000009_Node000008"><a xlink:title=" ">
<path fill="none" stroke="#63b8ff" d="M309.6,-54.98C319.46,-47.07 334.35,-35.11 346.22,-25.58"/>
<polygon fill="#63b8ff" stroke="#63b8ff" points="348.6,-28.16 354.2,-19.17 344.21,-22.7 348.6,-28.16"/>
</a>
</g>
</g>
<!-- Node10 -->
<g id="Node000010" class="node">
<title>Node10</title>
<g id="a_Node000010"><a xlink:title=" ">
<polygon fill="#e0e0e0" stroke="#999999" points="320,-19 258,-19 258,0 320,0 320,-19"/>
<text text-anchor="middle" x="289" y="-7" font-family="Helvetica,sans-Serif" font-size="10.00">stdbool.h</text>
</a>
</g>
</g>
<!-- Node9&#45;&gt;Node10 -->
<g id="edge11_Node000009_Node000010" class="edge">
<title>Node9&#45;&gt;Node10</title>
<g id="a_edge11_Node000009_Node000010"><a xlink:title=" ">
<path fill="none" stroke="#63b8ff" d="M297.35,-54.75C296.04,-47.8 294.16,-37.85 292.52,-29.13"/>
<polygon fill="#63b8ff" stroke="#63b8ff" points="295.91,-28.27 290.62,-19.09 289.04,-29.56 295.91,-28.27"/>
</a>
</g>
</g>
<!-- Node11&#45;&gt;Node7 -->
<g id="edge13_Node000011_Node000007" class="edge">
<title>Node11&#45;&gt;Node7</title>
<g id="a_edge13_Node000011_Node000007"><a xlink:title=" ">
<path fill="none" stroke="#63b8ff" d="M440.78,-54.75C445.62,-47.42 452.68,-36.73 458.64,-27.7"/>
<polygon fill="#63b8ff" stroke="#63b8ff" points="461.74,-29.36 464.33,-19.09 455.9,-25.5 461.74,-29.36"/>
</a>
</g>
</g>
<!-- Node11&#45;&gt;Node8 -->
<g id="edge14_Node000011_Node000008" class="edge">
<title>Node11&#45;&gt;Node8</title>
<g id="a_edge14_Node000011_Node000008"><a xlink:title=" ">
<path fill="none" stroke="#63b8ff" d="M423.75,-54.98C413.2,-47 397.2,-34.88 384.56,-25.31"/>
<polygon fill="#63b8ff" stroke="#63b8ff" points="386.54,-22.42 376.45,-19.17 382.31,-28 386.54,-22.42"/>
</a>
</g>
</g>
</g>
</svg>
