<?xml version="1.0" encoding="UTF-8" standalone="no"?>
<!DOCTYPE svg PUBLIC "-//W3C//DTD SVG 1.1//EN"
 "http://www.w3.org/Graphics/SVG/1.1/DTD/svg11.dtd">
<!-- Generated by graphviz version 2.43.0 (0)
 -->
<!-- Title: /home/runner/work/no&#45;OS/no&#45;OS/drivers/platform/aducm3029/aducm3029_uart.c Pages: 1 -->
<svg width="788pt" height="269pt"
 viewBox="0.00 0.00 788.19 269.00" xmlns="http://www.w3.org/2000/svg" xmlns:xlink="http://www.w3.org/1999/xlink">
<g id="graph0" class="graph" transform="scale(1 1) rotate(0) translate(4 265)">
<title>/home/runner/work/no&#45;OS/no&#45;OS/drivers/platform/aducm3029/aducm3029_uart.c</title>
<!-- Node1 -->
<g id="Node000001" class="node">
<title>Node1</title>
<g id="a_Node000001"><a xlink:title="Implementation of UART driver for ADuCM302x.">
<polygon fill="#999999" stroke="#666666" points="329.69,-261 159.69,-261 159.69,-220 329.69,-220 329.69,-261"/>
<text text-anchor="start" x="167.69" y="-249" font-family="Helvetica,sans-Serif" font-size="10.00">/home/runner/work/no</text>
<text text-anchor="start" x="167.69" y="-238" font-family="Helvetica,sans-Serif" font-size="10.00">&#45;OS/no&#45;OS/drivers/platform</text>
<text text-anchor="middle" x="244.69" y="-227" font-family="Helvetica,sans-Serif" font-size="10.00">/aducm3029/aducm3029_uart.c</text>
</a>
</g>
</g>
<!-- Node2 -->
<g id="Node000002" class="node">
<title>Node2</title>
<g id="a_Node000002"><a xlink:title=" ">
<polygon fill="#e0e0e0" stroke="#999999" points="54.19,-19 1.19,-19 1.19,0 54.19,0 54.19,-19"/>
<text text-anchor="middle" x="27.69" y="-7" font-family="Helvetica,sans-Serif" font-size="10.00">stdlib.h</text>
</a>
</g>
</g>
<!-- Node1&#45;&gt;Node2 -->
<g id="edge1_Node000001_Node000002" class="edge">
<title>Node1&#45;&gt;Node2</title>
<g id="a_edge1_Node000001_Node000002"><a xlink:title=" ">
<path fill="none" stroke="#63b8ff" d="M159.6,-227.11C107.54,-217.77 47.61,-203.27 29.69,-184 -9.81,-141.51 -1.39,-111.95 9.69,-55 11.48,-45.8 15.18,-36.09 18.76,-28.1"/>
<polygon fill="#63b8ff" stroke="#63b8ff" points="21.92,-29.59 23.07,-19.06 15.6,-26.57 21.92,-29.59"/>
</a>
</g>
</g>
<!-- Node3 -->
<g id="Node000003" class="node">
<title>Node3</title>
<g id="a_Node000003"><a xlink:href="no__os__uart_8h.html" target="_top" xlink:title="Header file of UART interface.">
<polygon fill="white" stroke="#666666" points="284.19,-129 205.19,-129 205.19,-110 284.19,-110 284.19,-129"/>
<text text-anchor="middle" x="244.69" y="-117" font-family="Helvetica,sans-Serif" font-size="10.00">no_os_uart.h</text>
</a>
</g>
</g>
<!-- Node1&#45;&gt;Node3 -->
<g id="edge2_Node000001_Node000003" class="edge">
<title>Node1&#45;&gt;Node3</title>
<g id="a_edge2_Node000001_Node000003"><a xlink:title=" ">
<path fill="none" stroke="#63b8ff" d="M244.69,-219.85C244.69,-197.48 244.69,-161.19 244.69,-139.21"/>
<polygon fill="#63b8ff" stroke="#63b8ff" points="248.19,-139.18 244.69,-129.18 241.19,-139.18 248.19,-139.18"/>
</a>
</g>
</g>
<!-- Node7 -->
<g id="Node000007" class="node">
<title>Node7</title>
<g id="a_Node000007"><a xlink:href="aducm3029__uart_8h.html" target="_top" xlink:title="Header file of UART driver for ADuCM302x.">
<polygon fill="white" stroke="#666666" points="443.19,-184 336.19,-184 336.19,-165 443.19,-165 443.19,-184"/>
<text text-anchor="middle" x="389.69" y="-172" font-family="Helvetica,sans-Serif" font-size="10.00">aducm3029_uart.h</text>
</a>
</g>
</g>
<!-- Node1&#45;&gt;Node7 -->
<g id="edge9_Node000001_Node000007" class="edge">
<title>Node1&#45;&gt;Node7</title>
<g id="a_edge9_Node000001_Node000007"><a xlink:title=" ">
<path fill="none" stroke="#63b8ff" d="M288.99,-219.95C312.43,-209.6 340.52,-197.2 361.08,-188.13"/>
<polygon fill="#63b8ff" stroke="#63b8ff" points="362.49,-191.33 370.23,-184.09 359.67,-184.93 362.49,-191.33"/>
</a>
</g>
</g>
<!-- Node8 -->
<g id="Node000008" class="node">
<title>Node8</title>
<g id="a_Node000008"><a xlink:title=" ">
<polygon fill="#e0e0e0" stroke="#999999" points="650.19,-129 525.19,-129 525.19,-110 650.19,-110 650.19,-129"/>
<text text-anchor="middle" x="587.69" y="-117" font-family="Helvetica,sans-Serif" font-size="10.00">drivers/uart/adi_uart.h</text>
</a>
</g>
</g>
<!-- Node1&#45;&gt;Node8 -->
<g id="edge30_Node000001_Node000008" class="edge">
<title>Node1&#45;&gt;Node8</title>
<g id="a_edge30_Node000001_Node000008"><a xlink:title=" ">
<path fill="none" stroke="#63b8ff" d="M329.76,-220.46C367.85,-211 413.02,-198.49 452.69,-184 492.35,-169.52 536.23,-147.74 562.88,-133.82"/>
<polygon fill="#63b8ff" stroke="#63b8ff" points="564.67,-136.84 571.88,-129.08 561.4,-130.64 564.67,-136.84"/>
</a>
</g>
</g>
<!-- Node12 -->
<g id="Node000012" class="node">
<title>Node12</title>
<g id="a_Node000012"><a xlink:href="aducm3029__irq_8h.html" target="_top" xlink:title="Header file of IRQ driver for ADuCM302x.">
<polygon fill="white" stroke="#666666" points="769.19,-129 668.19,-129 668.19,-110 769.19,-110 769.19,-129"/>
<text text-anchor="middle" x="718.69" y="-117" font-family="Helvetica,sans-Serif" font-size="10.00">aducm3029_irq.h</text>
</a>
</g>
</g>
<!-- Node1&#45;&gt;Node12 -->
<g id="edge18_Node000001_Node000012" class="edge">
<title>Node1&#45;&gt;Node12</title>
<g id="a_edge18_Node000001_Node000012"><a xlink:title=" ">
<path fill="none" stroke="#63b8ff" d="M329.89,-221.12C376.86,-210.74 436.14,-197.23 488.69,-184 556.11,-167.04 633.97,-145.03 679.61,-131.88"/>
<polygon fill="#63b8ff" stroke="#63b8ff" points="680.76,-135.19 689.4,-129.05 678.82,-128.46 680.76,-135.19"/>
</a>
</g>
</g>
<!-- Node14 -->
<g id="Node000014" class="node">
<title>Node14</title>
<g id="a_Node000014"><a xlink:href="no__os__util_8h.html" target="_top" xlink:title="Header file of utility functions.">
<polygon fill="white" stroke="#666666" points="98.19,-74 23.19,-74 23.19,-55 98.19,-55 98.19,-74"/>
<text text-anchor="middle" x="60.69" y="-62" font-family="Helvetica,sans-Serif" font-size="10.00">no_os_util.h</text>
</a>
</g>
</g>
<!-- Node1&#45;&gt;Node14 -->
<g id="edge23_Node000001_Node000014" class="edge">
<title>Node1&#45;&gt;Node14</title>
<g id="a_edge23_Node000001_Node000014"><a xlink:title=" ">
<path fill="none" stroke="#63b8ff" d="M225.87,-219.61C201.06,-193.67 155.76,-147.23 114.69,-110 103.44,-99.8 90.3,-88.95 79.8,-80.52"/>
<polygon fill="#63b8ff" stroke="#63b8ff" points="81.71,-77.56 71.7,-74.07 77.35,-83.04 81.71,-77.56"/>
</a>
</g>
</g>
<!-- Node15 -->
<g id="Node000015" class="node">
<title>Node15</title>
<g id="a_Node000015"><a xlink:href="no__os__alloc_8h.html" target="_top" xlink:title=" ">
<polygon fill="white" stroke="#666666" points="122.19,-184 39.19,-184 39.19,-165 122.19,-165 122.19,-184"/>
<text text-anchor="middle" x="80.69" y="-172" font-family="Helvetica,sans-Serif" font-size="10.00">no_os_alloc.h</text>
</a>
</g>
</g>
<!-- Node1&#45;&gt;Node15 -->
<g id="edge27_Node000001_Node000015" class="edge">
<title>Node1&#45;&gt;Node15</title>
<g id="a_edge27_Node000001_Node000015"><a xlink:title=" ">
<path fill="none" stroke="#63b8ff" d="M194.6,-219.95C167.73,-209.46 135.44,-196.87 112.12,-187.76"/>
<polygon fill="#63b8ff" stroke="#63b8ff" points="113.3,-184.47 102.71,-184.09 110.75,-190.99 113.3,-184.47"/>
</a>
</g>
</g>
<!-- Node4 -->
<g id="Node000004" class="node">
<title>Node4</title>
<g id="a_Node000004"><a xlink:title=" ">
<polygon fill="#e0e0e0" stroke="#999999" points="401.19,-19 348.19,-19 348.19,0 401.19,0 401.19,-19"/>
<text text-anchor="middle" x="374.69" y="-7" font-family="Helvetica,sans-Serif" font-size="10.00">stdint.h</text>
</a>
</g>
</g>
<!-- Node3&#45;&gt;Node4 -->
<g id="edge3_Node000003_Node000004" class="edge">
<title>Node3&#45;&gt;Node4</title>
<g id="a_edge3_Node000003_Node000004"><a xlink:title=" ">
<path fill="none" stroke="#63b8ff" d="M255.33,-109.66C277.53,-91.22 329.02,-48.45 356.55,-25.57"/>
<polygon fill="#63b8ff" stroke="#63b8ff" points="358.82,-28.24 364.27,-19.16 354.34,-22.86 358.82,-28.24"/>
</a>
</g>
</g>
<!-- Node5 -->
<g id="Node000005" class="node">
<title>Node5</title>
<g id="a_Node000005"><a xlink:title=" ">
<polygon fill="#e0e0e0" stroke="#999999" points="235.69,-19 173.69,-19 173.69,0 235.69,0 235.69,-19"/>
<text text-anchor="middle" x="204.69" y="-7" font-family="Helvetica,sans-Serif" font-size="10.00">stdbool.h</text>
</a>
</g>
</g>
<!-- Node3&#45;&gt;Node5 -->
<g id="edge4_Node000003_Node000005" class="edge">
<title>Node3&#45;&gt;Node5</title>
<g id="a_edge4_Node000003_Node000005"><a xlink:title=" ">
<path fill="none" stroke="#63b8ff" d="M205.02,-111.44C183.54,-105.38 158.79,-94.25 145.69,-74 133.31,-54.85 156.27,-36.12 177.07,-24.02"/>
<polygon fill="#63b8ff" stroke="#63b8ff" points="178.95,-26.98 186.03,-19.1 175.58,-20.84 178.95,-26.98"/>
</a>
</g>
</g>
<!-- Node6 -->
<g id="Node000006" class="node">
<title>Node6</title>
<g id="a_Node000006"><a xlink:href="no__os__lf256fifo_8h.html" target="_top" xlink:title="SPSC lock&#45;free fifo of fixed size (256), specialized for UART.">
<polygon fill="white" stroke="#666666" points="254.69,-74 154.69,-74 154.69,-55 254.69,-55 254.69,-74"/>
<text text-anchor="middle" x="204.69" y="-62" font-family="Helvetica,sans-Serif" font-size="10.00">no_os_lf256fifo.h</text>
</a>
</g>
</g>
<!-- Node3&#45;&gt;Node6 -->
<g id="edge5_Node000003_Node000006" class="edge">
<title>Node3&#45;&gt;Node6</title>
<g id="a_edge5_Node000003_Node000006"><a xlink:title=" ">
<path fill="none" stroke="#63b8ff" d="M238.09,-109.75C232.44,-102.26 224.15,-91.28 217.24,-82.13"/>
<polygon fill="#63b8ff" stroke="#63b8ff" points="219.99,-79.96 211.18,-74.09 214.41,-84.18 219.99,-79.96"/>
</a>
</g>
</g>
<!-- Node6&#45;&gt;Node2 -->
<g id="edge6_Node000006_Node000002" class="edge">
<title>Node6&#45;&gt;Node2</title>
<g id="a_edge6_Node000006_Node000002"><a xlink:title=" ">
<path fill="none" stroke="#63b8ff" d="M176.26,-54.98C145.79,-45.86 97.35,-31.36 64.11,-21.41"/>
<polygon fill="#63b8ff" stroke="#63b8ff" points="64.91,-17.99 54.32,-18.47 62.9,-24.7 64.91,-17.99"/>
</a>
</g>
</g>
<!-- Node6&#45;&gt;Node4 -->
<g id="edge7_Node000006_Node000004" class="edge">
<title>Node6&#45;&gt;Node4</title>
<g id="a_edge7_Node000006_Node000004"><a xlink:title=" ">
<path fill="none" stroke="#63b8ff" d="M232.01,-54.98C260.8,-46.01 306.32,-31.82 338.18,-21.88"/>
<polygon fill="#63b8ff" stroke="#63b8ff" points="339.5,-25.14 348.01,-18.82 337.42,-18.45 339.5,-25.14"/>
</a>
</g>
</g>
<!-- Node6&#45;&gt;Node5 -->
<g id="edge8_Node000006_Node000005" class="edge">
<title>Node6&#45;&gt;Node5</title>
<g id="a_edge8_Node000006_Node000005"><a xlink:title=" ">
<path fill="none" stroke="#63b8ff" d="M204.69,-54.75C204.69,-47.8 204.69,-37.85 204.69,-29.13"/>
<polygon fill="#63b8ff" stroke="#63b8ff" points="208.19,-29.09 204.69,-19.09 201.19,-29.09 208.19,-29.09"/>
</a>
</g>
</g>
<!-- Node7&#45;&gt;Node3 -->
<g id="edge17_Node000007_Node000003" class="edge">
<title>Node7&#45;&gt;Node3</title>
<g id="a_edge17_Node000007_Node000003"><a xlink:title=" ">
<path fill="none" stroke="#63b8ff" d="M366.4,-164.98C342.44,-156.23 304.91,-142.51 277.86,-132.62"/>
<polygon fill="#63b8ff" stroke="#63b8ff" points="279.01,-129.32 268.41,-129.17 276.61,-135.89 279.01,-129.32"/>
</a>
</g>
</g>
<!-- Node7&#45;&gt;Node4 -->
<g id="edge12_Node000007_Node000004" class="edge">
<title>Node7&#45;&gt;Node4</title>
<g id="a_edge12_Node000007_Node000004"><a xlink:title=" ">
<path fill="none" stroke="#63b8ff" d="M405.12,-164.8C417.04,-157.11 432.65,-144.69 439.69,-129 443.15,-121.3 441.78,-118.18 439.69,-110 431.25,-76.88 406.52,-44.97 390.12,-26.56"/>
<polygon fill="#63b8ff" stroke="#63b8ff" points="392.6,-24.09 383.25,-19.1 387.45,-28.83 392.6,-24.09"/>
</a>
</g>
</g>
<!-- Node7&#45;&gt;Node5 -->
<g id="edge11_Node000007_Node000005" class="edge">
<title>Node7&#45;&gt;Node5</title>
<g id="a_edge11_Node000007_Node000005"><a xlink:title=" ">
<path fill="none" stroke="#63b8ff" d="M379.61,-164.76C369.43,-155.88 353.3,-141.67 339.69,-129 305.19,-96.88 299.47,-85.7 263.69,-55 251.43,-44.48 236.96,-33.54 225.42,-25.15"/>
<polygon fill="#63b8ff" stroke="#63b8ff" points="227.41,-22.27 217.25,-19.27 223.32,-27.95 227.41,-22.27"/>
</a>
</g>
</g>
<!-- Node7&#45;&gt;Node8 -->
<g id="edge10_Node000007_Node000008" class="edge">
<title>Node7&#45;&gt;Node8</title>
<g id="a_edge10_Node000007_Node000008"><a xlink:title=" ">
<path fill="none" stroke="#63b8ff" d="M421.51,-164.98C455.18,-155.97 508.49,-141.7 545.62,-131.76"/>
<polygon fill="#63b8ff" stroke="#63b8ff" points="546.88,-135.05 555.63,-129.08 545.07,-128.29 546.88,-135.05"/>
</a>
</g>
</g>
<!-- Node9 -->
<g id="Node000009" class="node">
<title>Node9</title>
<g id="a_Node000009"><a xlink:href="no__os__error_8h.html" target="_top" xlink:title="Error codes definition.">
<polygon fill="white" stroke="#666666" points="430.69,-129 348.69,-129 348.69,-110 430.69,-110 430.69,-129"/>
<text text-anchor="middle" x="389.69" y="-117" font-family="Helvetica,sans-Serif" font-size="10.00">no_os_error.h</text>
</a>
</g>
</g>
<!-- Node7&#45;&gt;Node9 -->
<g id="edge13_Node000007_Node000009" class="edge">
<title>Node7&#45;&gt;Node9</title>
<g id="a_edge13_Node000007_Node000009"><a xlink:title=" ">
<path fill="none" stroke="#63b8ff" d="M389.69,-164.75C389.69,-157.8 389.69,-147.85 389.69,-139.13"/>
<polygon fill="#63b8ff" stroke="#63b8ff" points="393.19,-139.09 389.69,-129.09 386.19,-139.09 393.19,-139.09"/>
</a>
</g>
</g>
<!-- Node11 -->
<g id="Node000011" class="node">
<title>Node11</title>
<g id="a_Node000011"><a xlink:href="no__os__irq_8h.html" target="_top" xlink:title="Header file of IRQ interface.">
<polygon fill="white" stroke="#666666" points="566.69,-74 494.69,-74 494.69,-55 566.69,-55 566.69,-74"/>
<text text-anchor="middle" x="530.69" y="-62" font-family="Helvetica,sans-Serif" font-size="10.00">no_os_irq.h</text>
</a>
</g>
</g>
<!-- Node7&#45;&gt;Node11 -->
<g id="edge15_Node000007_Node000011" class="edge">
<title>Node7&#45;&gt;Node11</title>
<g id="a_edge15_Node000007_Node000011"><a xlink:title=" ">
<path fill="none" stroke="#63b8ff" d="M409.95,-164.99C427.5,-157.09 453.08,-144.26 472.69,-129 490.28,-115.31 507.08,-95.99 518.03,-82.26"/>
<polygon fill="#63b8ff" stroke="#63b8ff" points="520.95,-84.21 524.33,-74.17 515.43,-79.91 520.95,-84.21"/>
</a>
</g>
</g>
<!-- Node10 -->
<g id="Node000010" class="node">
<title>Node10</title>
<g id="a_Node000010"><a xlink:href="errno_8h.html" target="_top" xlink:title="Error macro definition for ARM Compiler.">
<polygon fill="white" stroke="#666666" points="400.19,-74 349.19,-74 349.19,-55 400.19,-55 400.19,-74"/>
<text text-anchor="middle" x="374.69" y="-62" font-family="Helvetica,sans-Serif" font-size="10.00">errno.h</text>
</a>
</g>
</g>
<!-- Node9&#45;&gt;Node10 -->
<g id="edge14_Node000009_Node000010" class="edge">
<title>Node9&#45;&gt;Node10</title>
<g id="a_edge14_Node000009_Node000010"><a xlink:title=" ">
<path fill="none" stroke="#63b8ff" d="M387.22,-109.75C385.23,-102.72 382.37,-92.62 379.89,-83.84"/>
<polygon fill="#63b8ff" stroke="#63b8ff" points="383.22,-82.76 377.12,-74.09 376.48,-84.66 383.22,-82.76"/>
</a>
</g>
</g>
<!-- Node11&#45;&gt;Node4 -->
<g id="edge16_Node000011_Node000004" class="edge">
<title>Node11&#45;&gt;Node4</title>
<g id="a_edge16_Node000011_Node000004"><a xlink:title=" ">
<path fill="none" stroke="#63b8ff" d="M505.63,-54.98C479.67,-46.16 438.89,-32.31 409.74,-22.41"/>
<polygon fill="#63b8ff" stroke="#63b8ff" points="410.55,-18.99 399.95,-19.08 408.3,-25.61 410.55,-18.99"/>
</a>
</g>
</g>
<!-- Node12&#45;&gt;Node4 -->
<g id="edge21_Node000012_Node000004" class="edge">
<title>Node12&#45;&gt;Node4</title>
<g id="a_edge21_Node000012_Node000004"><a xlink:title=" ">
<path fill="none" stroke="#63b8ff" d="M702.39,-109.96C676.27,-96.59 623.17,-70.62 575.69,-55 519.63,-36.55 452.27,-23.39 411.5,-16.37"/>
<polygon fill="#63b8ff" stroke="#63b8ff" points="411.93,-12.89 401.49,-14.67 410.76,-19.79 411.93,-12.89"/>
</a>
</g>
</g>
<!-- Node12&#45;&gt;Node5 -->
<g id="edge20_Node000012_Node000005" class="edge">
<title>Node12&#45;&gt;Node5</title>
<g id="a_edge20_Node000012_Node000005"><a xlink:title=" ">
<path fill="none" stroke="#63b8ff" d="M669.44,-109.92C622.17,-101.5 548.84,-87.91 485.69,-74 451.69,-66.51 443.6,-62.92 409.69,-55 353.13,-41.79 287.48,-27.77 246.02,-19.08"/>
<polygon fill="#63b8ff" stroke="#63b8ff" points="246.52,-15.6 236.02,-16.98 245.09,-22.46 246.52,-15.6"/>
</a>
</g>
</g>
<!-- Node12&#45;&gt;Node11 -->
<g id="edge22_Node000012_Node000011" class="edge">
<title>Node12&#45;&gt;Node11</title>
<g id="a_edge22_Node000012_Node000011"><a xlink:title=" ">
<path fill="none" stroke="#63b8ff" d="M688.49,-109.98C656.65,-101.01 606.33,-86.82 571.1,-76.89"/>
<polygon fill="#63b8ff" stroke="#63b8ff" points="571.71,-73.43 561.14,-74.08 569.81,-80.16 571.71,-73.43"/>
</a>
</g>
</g>
<!-- Node13 -->
<g id="Node000013" class="node">
<title>Node13</title>
<g id="a_Node000013"><a xlink:title=" ">
<polygon fill="#e0e0e0" stroke="#999999" points="780.19,-74 657.19,-74 657.19,-55 780.19,-55 780.19,-74"/>
<text text-anchor="middle" x="718.69" y="-62" font-family="Helvetica,sans-Serif" font-size="10.00">drivers/xint/adi_xint.h</text>
</a>
</g>
</g>
<!-- Node12&#45;&gt;Node13 -->
<g id="edge19_Node000012_Node000013" class="edge">
<title>Node12&#45;&gt;Node13</title>
<g id="a_edge19_Node000012_Node000013"><a xlink:title=" ">
<path fill="none" stroke="#63b8ff" d="M718.69,-109.75C718.69,-102.8 718.69,-92.85 718.69,-84.13"/>
<polygon fill="#63b8ff" stroke="#63b8ff" points="722.19,-84.09 718.69,-74.09 715.19,-84.09 722.19,-84.09"/>
</a>
</g>
</g>
<!-- Node14&#45;&gt;Node2 -->
<g id="edge25_Node000014_Node000002" class="edge">
<title>Node14&#45;&gt;Node2</title>
<g id="a_edge25_Node000014_Node000002"><a xlink:title=" ">
<path fill="none" stroke="#63b8ff" d="M55.24,-54.75C50.68,-47.42 44.03,-36.73 38.4,-27.7"/>
<polygon fill="#63b8ff" stroke="#63b8ff" points="41.3,-25.73 33.04,-19.09 35.36,-29.43 41.3,-25.73"/>
</a>
</g>
</g>
<!-- Node14&#45;&gt;Node4 -->
<g id="edge24_Node000014_Node000004" class="edge">
<title>Node14&#45;&gt;Node4</title>
<g id="a_edge24_Node000014_Node000004"><a xlink:title=" ">
<path fill="none" stroke="#63b8ff" d="M98.26,-57.16C158.92,-46.92 277.7,-26.87 337.88,-16.71"/>
<polygon fill="#63b8ff" stroke="#63b8ff" points="338.78,-20.11 348.06,-15 337.62,-13.21 338.78,-20.11"/>
</a>
</g>
</g>
<!-- Node14&#45;&gt;Node5 -->
<g id="edge26_Node000014_Node000005" class="edge">
<title>Node14&#45;&gt;Node5</title>
<g id="a_edge26_Node000014_Node000005"><a xlink:title=" ">
<path fill="none" stroke="#63b8ff" d="M83.83,-54.98C107.52,-46.27 144.56,-32.63 171.4,-22.75"/>
<polygon fill="#63b8ff" stroke="#63b8ff" points="172.96,-25.91 181.14,-19.17 170.54,-19.34 172.96,-25.91"/>
</a>
</g>
</g>
<!-- Node15&#45;&gt;Node2 -->
<g id="edge29_Node000015_Node000002" class="edge">
<title>Node15&#45;&gt;Node2</title>
<g id="a_edge29_Node000015_Node000002"><a xlink:title=" ">
<path fill="none" stroke="#63b8ff" d="M72.08,-164.91C56.67,-148.8 25.01,-112.23 14.69,-74 10.62,-58.89 14.81,-41.46 19.48,-28.69"/>
<polygon fill="#63b8ff" stroke="#63b8ff" points="22.81,-29.79 23.36,-19.21 16.33,-27.14 22.81,-29.79"/>
</a>
</g>
</g>
<!-- Node16 -->
<g id="Node000016" class="node">
<title>Node16</title>
<g id="a_Node000016"><a xlink:title=" ">
<polygon fill="#e0e0e0" stroke="#999999" points="105.69,-129 55.69,-129 55.69,-110 105.69,-110 105.69,-129"/>
<text text-anchor="middle" x="80.69" y="-117" font-family="Helvetica,sans-Serif" font-size="10.00">stdio.h</text>
</a>
</g>
</g>
<!-- Node15&#45;&gt;Node16 -->
<g id="edge28_Node000015_Node000016" class="edge">
<title>Node15&#45;&gt;Node16</title>
<g id="a_edge28_Node000015_Node000016"><a xlink:title=" ">
<path fill="none" stroke="#63b8ff" d="M80.69,-164.75C80.69,-157.8 80.69,-147.85 80.69,-139.13"/>
<polygon fill="#63b8ff" stroke="#63b8ff" points="84.19,-139.09 80.69,-129.09 77.19,-139.09 84.19,-139.09"/>
</a>
</g>
</g>
</g>
</svg>
