<?xml version="1.0" encoding="UTF-8" standalone="no"?>
<!DOCTYPE svg PUBLIC "-//W3C//DTD SVG 1.1//EN"
 "http://www.w3.org/Graphics/SVG/1.1/DTD/svg11.dtd">
<!-- Generated by graphviz version 2.43.0 (0)
 -->
<!-- Title: /home/runner/work/no&#45;OS/no&#45;OS/drivers/accel/adxl313/adxl313.h Pages: 1 -->
<svg width="666pt" height="214pt"
 viewBox="0.00 0.00 666.00 214.00" xmlns="http://www.w3.org/2000/svg" xmlns:xlink="http://www.w3.org/1999/xlink">
<g id="graph0" class="graph" transform="scale(1 1) rotate(0) translate(4 210)">
<title>/home/runner/work/no&#45;OS/no&#45;OS/drivers/accel/adxl313/adxl313.h</title>
<!-- Node1 -->
<g id="Node000001" class="node">
<title>Node1</title>
<g id="a_Node000001"><a xlink:title="Header file of ADXL313 Driver.">
<polygon fill="#999999" stroke="#666666" points="374,-206 243,-206 243,-165 374,-165 374,-206"/>
<text text-anchor="start" x="251" y="-194" font-family="Helvetica,sans-Serif" font-size="10.00">/home/runner/work/no</text>
<text text-anchor="start" x="251" y="-183" font-family="Helvetica,sans-Serif" font-size="10.00">&#45;OS/no&#45;OS/drivers/accel</text>
<text text-anchor="middle" x="308.5" y="-172" font-family="Helvetica,sans-Serif" font-size="10.00">/adxl313/adxl313.h</text>
</a>
</g>
</g>
<!-- Node2 -->
<g id="Node000002" class="node">
<title>Node2</title>
<g id="a_Node000002"><a xlink:href="adxl313_8c.html" target="_top" xlink:title=" ">
<polygon fill="white" stroke="#666666" points="131,-123.5 0,-123.5 0,-82.5 131,-82.5 131,-123.5"/>
<text text-anchor="start" x="8" y="-111.5" font-family="Helvetica,sans-Serif" font-size="10.00">/home/runner/work/no</text>
<text text-anchor="start" x="8" y="-100.5" font-family="Helvetica,sans-Serif" font-size="10.00">&#45;OS/no&#45;OS/drivers/accel</text>
<text text-anchor="middle" x="65.5" y="-89.5" font-family="Helvetica,sans-Serif" font-size="10.00">/adxl313/adxl313.c</text>
</a>
</g>
</g>
<!-- Node1&#45;&gt;Node2 -->
<g id="edge1_Node000001_Node000002" class="edge">
<title>Node1&#45;&gt;Node2</title>
<g id="a_edge1_Node000001_Node000002"><a xlink:title=" ">
<path fill="none" stroke="#63b8ff" d="M239.37,-161.71C209.03,-151.69 172.99,-139.78 140.5,-129 135.16,-127.23 129.61,-125.38 124.04,-123.53"/>
<polygon fill="#63b8ff" stroke="#63b8ff" points="238.41,-165.08 249.01,-164.89 240.61,-158.43 238.41,-165.08"/>
</a>
</g>
</g>
<!-- Node3 -->
<g id="Node000003" class="node">
<title>Node3</title>
<g id="a_Node000003"><a xlink:href="iio__adxl313_8c.html" target="_top" xlink:title=" ">
<polygon fill="white" stroke="#666666" points="280,-123.5 149,-123.5 149,-82.5 280,-82.5 280,-123.5"/>
<text text-anchor="start" x="157" y="-111.5" font-family="Helvetica,sans-Serif" font-size="10.00">/home/runner/work/no</text>
<text text-anchor="start" x="157" y="-100.5" font-family="Helvetica,sans-Serif" font-size="10.00">&#45;OS/no&#45;OS/drivers/accel</text>
<text text-anchor="middle" x="214.5" y="-89.5" font-family="Helvetica,sans-Serif" font-size="10.00">/adxl313/iio_adxl313.c</text>
</a>
</g>
</g>
<!-- Node1&#45;&gt;Node3 -->
<g id="edge2_Node000001_Node000003" class="edge">
<title>Node1&#45;&gt;Node3</title>
<g id="a_edge2_Node000001_Node000003"><a xlink:title=" ">
<path fill="none" stroke="#63b8ff" d="M277.43,-157.89C264.39,-146.72 249.49,-133.97 237.47,-123.67"/>
<polygon fill="#63b8ff" stroke="#63b8ff" points="275.39,-160.75 285.26,-164.6 279.95,-155.44 275.39,-160.75"/>
</a>
</g>
</g>
<!-- Node4 -->
<g id="Node000004" class="node">
<title>Node4</title>
<g id="a_Node000004"><a xlink:href="eval-adxl313z_2src_2common_2common__data_8h.html" target="_top" xlink:title=" ">
<polygon fill="white" stroke="#666666" points="507,-123.5 298,-123.5 298,-82.5 507,-82.5 507,-123.5"/>
<text text-anchor="start" x="306" y="-111.5" font-family="Helvetica,sans-Serif" font-size="10.00">/home/runner/work/no</text>
<text text-anchor="start" x="306" y="-100.5" font-family="Helvetica,sans-Serif" font-size="10.00">&#45;OS/no&#45;OS/projects/eval</text>
<text text-anchor="middle" x="402.5" y="-89.5" font-family="Helvetica,sans-Serif" font-size="10.00">&#45;adxl313z/src/common/common_data.h</text>
</a>
</g>
</g>
<!-- Node1&#45;&gt;Node4 -->
<g id="edge3_Node000001_Node000004" class="edge">
<title>Node1&#45;&gt;Node4</title>
<g id="a_edge3_Node000001_Node000004"><a xlink:title=" ">
<path fill="none" stroke="#63b8ff" d="M339.57,-157.89C352.61,-146.72 367.51,-133.97 379.53,-123.67"/>
<polygon fill="#63b8ff" stroke="#63b8ff" points="337.05,-155.44 331.74,-164.6 341.61,-160.75 337.05,-155.44"/>
</a>
</g>
</g>
<!-- Node6 -->
<g id="Node000006" class="node">
<title>Node6</title>
<g id="a_Node000006"><a xlink:href="eval-adxl313z_2src_2examples_2basic_2basic__example_8c.html" target="_top" xlink:title=" ">
<polygon fill="white" stroke="#666666" points="658,-129 525,-129 525,-77 658,-77 658,-129"/>
<text text-anchor="start" x="533" y="-117" font-family="Helvetica,sans-Serif" font-size="10.00">/home/runner/work/no</text>
<text text-anchor="start" x="533" y="-106" font-family="Helvetica,sans-Serif" font-size="10.00">&#45;OS/no&#45;OS/projects/eval</text>
<text text-anchor="start" x="533" y="-95" font-family="Helvetica,sans-Serif" font-size="10.00">&#45;adxl313z/src/examples</text>
<text text-anchor="middle" x="591.5" y="-84" font-family="Helvetica,sans-Serif" font-size="10.00">/basic/basic_example.c</text>
</a>
</g>
</g>
<!-- Node1&#45;&gt;Node6 -->
<g id="edge5_Node000001_Node000006" class="edge">
<title>Node1&#45;&gt;Node6</title>
<g id="a_edge5_Node000001_Node000006"><a xlink:title=" ">
<path fill="none" stroke="#63b8ff" d="M384.21,-165.48C423.79,-155.24 472.94,-142.06 516.5,-129 519.26,-128.17 522.07,-127.31 524.91,-126.43"/>
<polygon fill="#63b8ff" stroke="#63b8ff" points="383.17,-162.14 374.36,-168.02 384.92,-168.91 383.17,-162.14"/>
</a>
</g>
</g>
<!-- Node5 -->
<g id="Node000005" class="node">
<title>Node5</title>
<g id="a_Node000005"><a xlink:href="eval-adxl313z_2src_2common_2common__data_8c.html" target="_top" xlink:title=" ">
<polygon fill="white" stroke="#666666" points="507,-41 298,-41 298,0 507,0 507,-41"/>
<text text-anchor="start" x="306" y="-29" font-family="Helvetica,sans-Serif" font-size="10.00">/home/runner/work/no</text>
<text text-anchor="start" x="306" y="-18" font-family="Helvetica,sans-Serif" font-size="10.00">&#45;OS/no&#45;OS/projects/eval</text>
<text text-anchor="middle" x="402.5" y="-7" font-family="Helvetica,sans-Serif" font-size="10.00">&#45;adxl313z/src/common/common_data.c</text>
</a>
</g>
</g>
<!-- Node4&#45;&gt;Node5 -->
<g id="edge4_Node000004_Node000005" class="edge">
<title>Node4&#45;&gt;Node5</title>
<g id="a_edge4_Node000004_Node000005"><a xlink:title=" ">
<path fill="none" stroke="#63b8ff" d="M402.5,-71.87C402.5,-61.6 402.5,-50.4 402.5,-41.17"/>
<polygon fill="#63b8ff" stroke="#63b8ff" points="399,-72.1 402.5,-82.1 406,-72.1 399,-72.1"/>
</a>
</g>
</g>
</g>
</svg>
