<?xml version="1.0" encoding="UTF-8" standalone="no"?>
<!DOCTYPE svg PUBLIC "-//W3C//DTD SVG 1.1//EN"
 "http://www.w3.org/Graphics/SVG/1.1/DTD/svg11.dtd">
<!-- Generated by graphviz version 2.43.0 (0)
 -->
<!-- Title: /home/runner/work/no&#45;OS/no&#45;OS/drivers/accel/adxl38x/adxl38x.h Pages: 1 -->
<svg width="932pt" height="214pt"
 viewBox="0.00 0.00 931.50 214.00" xmlns="http://www.w3.org/2000/svg" xmlns:xlink="http://www.w3.org/1999/xlink">
<g id="graph0" class="graph" transform="scale(1 1) rotate(0) translate(4 210)">
<title>/home/runner/work/no&#45;OS/no&#45;OS/drivers/accel/adxl38x/adxl38x.h</title>
<!-- Node1 -->
<g id="Node000001" class="node">
<title>Node1</title>
<g id="a_Node000001"><a xlink:title="Header file of ADXL38X Driver.">
<polygon fill="#999999" stroke="#666666" points="515,-206 384,-206 384,-165 515,-165 515,-206"/>
<text text-anchor="start" x="392" y="-194" font-family="Helvetica,sans-Serif" font-size="10.00">/home/runner/work/no</text>
<text text-anchor="start" x="392" y="-183" font-family="Helvetica,sans-Serif" font-size="10.00">&#45;OS/no&#45;OS/drivers/accel</text>
<text text-anchor="middle" x="449.5" y="-172" font-family="Helvetica,sans-Serif" font-size="10.00">/adxl38x/adxl38x.h</text>
</a>
</g>
</g>
<!-- Node2 -->
<g id="Node000002" class="node">
<title>Node2</title>
<g id="a_Node000002"><a xlink:href="adxl38x_8c.html" target="_top" xlink:title="Implementation of ADXL38X Driver.">
<polygon fill="white" stroke="#666666" points="131,-123.5 0,-123.5 0,-82.5 131,-82.5 131,-123.5"/>
<text text-anchor="start" x="8" y="-111.5" font-family="Helvetica,sans-Serif" font-size="10.00">/home/runner/work/no</text>
<text text-anchor="start" x="8" y="-100.5" font-family="Helvetica,sans-Serif" font-size="10.00">&#45;OS/no&#45;OS/drivers/accel</text>
<text text-anchor="middle" x="65.5" y="-89.5" font-family="Helvetica,sans-Serif" font-size="10.00">/adxl38x/adxl38x.c</text>
</a>
</g>
</g>
<!-- Node1&#45;&gt;Node2 -->
<g id="edge1_Node000001_Node000002" class="edge">
<title>Node1&#45;&gt;Node2</title>
<g id="a_edge1_Node000001_Node000002"><a xlink:title=" ">
<path fill="none" stroke="#63b8ff" d="M373.57,-173.98C310.61,-164.52 219.04,-149.03 140.5,-129 134.25,-127.41 127.77,-125.55 121.35,-123.59"/>
<polygon fill="#63b8ff" stroke="#63b8ff" points="373.4,-177.5 383.81,-175.51 374.43,-170.57 373.4,-177.5"/>
</a>
</g>
</g>
<!-- Node3 -->
<g id="Node000003" class="node">
<title>Node3</title>
<g id="a_Node000003"><a xlink:href="eval-adxl38x_2src_2common_2common__data_8h.html" target="_top" xlink:title="Defines common data to be used by eval&#45;adxl38x examples.">
<polygon fill="white" stroke="#666666" points="353.5,-123.5 149.5,-123.5 149.5,-82.5 353.5,-82.5 353.5,-123.5"/>
<text text-anchor="start" x="157.5" y="-111.5" font-family="Helvetica,sans-Serif" font-size="10.00">/home/runner/work/no</text>
<text text-anchor="start" x="157.5" y="-100.5" font-family="Helvetica,sans-Serif" font-size="10.00">&#45;OS/no&#45;OS/projects/eval</text>
<text text-anchor="middle" x="251.5" y="-89.5" font-family="Helvetica,sans-Serif" font-size="10.00">&#45;adxl38x/src/common/common_data.h</text>
</a>
</g>
</g>
<!-- Node1&#45;&gt;Node3 -->
<g id="edge2_Node000001_Node000003" class="edge">
<title>Node1&#45;&gt;Node3</title>
<g id="a_edge2_Node000001_Node000003"><a xlink:title=" ">
<path fill="none" stroke="#63b8ff" d="M392.02,-161.13C362.69,-149.21 327.42,-134.87 299.56,-123.54"/>
<polygon fill="#63b8ff" stroke="#63b8ff" points="390.74,-164.39 401.32,-164.91 393.37,-157.9 390.74,-164.39"/>
</a>
</g>
</g>
<!-- Node5 -->
<g id="Node000005" class="node">
<title>Node5</title>
<g id="a_Node000005"><a xlink:href="basic__example__main_8c.html" target="_top" xlink:title="Main program for basic example eval&#45;adxl38x project.">
<polygon fill="white" stroke="#666666" points="527.5,-129 371.5,-129 371.5,-77 527.5,-77 527.5,-129"/>
<text text-anchor="start" x="379.5" y="-117" font-family="Helvetica,sans-Serif" font-size="10.00">/home/runner/work/no</text>
<text text-anchor="start" x="379.5" y="-106" font-family="Helvetica,sans-Serif" font-size="10.00">&#45;OS/no&#45;OS/projects/eval</text>
<text text-anchor="start" x="379.5" y="-95" font-family="Helvetica,sans-Serif" font-size="10.00">&#45;adxl38x/src/examples/basic</text>
<text text-anchor="middle" x="449.5" y="-84" font-family="Helvetica,sans-Serif" font-size="10.00">/basic_example_main.c</text>
</a>
</g>
</g>
<!-- Node1&#45;&gt;Node5 -->
<g id="edge4_Node000001_Node000005" class="edge">
<title>Node1&#45;&gt;Node5</title>
<g id="a_edge4_Node000001_Node000005"><a xlink:title=" ">
<path fill="none" stroke="#63b8ff" d="M449.5,-154.49C449.5,-146.15 449.5,-137.19 449.5,-129.16"/>
<polygon fill="#63b8ff" stroke="#63b8ff" points="446,-154.6 449.5,-164.6 453,-154.6 446,-154.6"/>
</a>
</g>
</g>
<!-- Node6 -->
<g id="Node000006" class="node">
<title>Node6</title>
<g id="a_Node000006"><a xlink:href="fifo__example__main_8c.html" target="_top" xlink:title="Main program for FIFO example eval&#45;adxl38x project.">
<polygon fill="white" stroke="#666666" points="715.5,-129 545.5,-129 545.5,-77 715.5,-77 715.5,-129"/>
<text text-anchor="start" x="553.5" y="-117" font-family="Helvetica,sans-Serif" font-size="10.00">/home/runner/work/no</text>
<text text-anchor="start" x="553.5" y="-106" font-family="Helvetica,sans-Serif" font-size="10.00">&#45;OS/no&#45;OS/projects/eval</text>
<text text-anchor="start" x="553.5" y="-95" font-family="Helvetica,sans-Serif" font-size="10.00">&#45;adxl38x/src/examples/fifo</text>
<text text-anchor="middle" x="630.5" y="-84" font-family="Helvetica,sans-Serif" font-size="10.00">_example/fifo_example_main.c</text>
</a>
</g>
</g>
<!-- Node1&#45;&gt;Node6 -->
<g id="edge5_Node000001_Node000006" class="edge">
<title>Node1&#45;&gt;Node6</title>
<g id="a_edge5_Node000001_Node000006"><a xlink:title=" ">
<path fill="none" stroke="#63b8ff" d="M503.11,-160.66C525.43,-150.73 551.38,-139.19 574,-129.13"/>
<polygon fill="#63b8ff" stroke="#63b8ff" points="501.49,-157.55 493.78,-164.81 504.34,-163.94 501.49,-157.55"/>
</a>
</g>
</g>
<!-- Node7 -->
<g id="Node000007" class="node">
<title>Node7</title>
<g id="a_Node000007"><a xlink:href="selftest__example__main_8c.html" target="_top" xlink:title="Main program for self test example eval&#45;adxl38x project.">
<polygon fill="white" stroke="#666666" points="923.5,-129 733.5,-129 733.5,-77 923.5,-77 923.5,-129"/>
<text text-anchor="start" x="741.5" y="-117" font-family="Helvetica,sans-Serif" font-size="10.00">/home/runner/work/no</text>
<text text-anchor="start" x="741.5" y="-106" font-family="Helvetica,sans-Serif" font-size="10.00">&#45;OS/no&#45;OS/projects/eval</text>
<text text-anchor="start" x="741.5" y="-95" font-family="Helvetica,sans-Serif" font-size="10.00">&#45;adxl38x/src/examples/selftest</text>
<text text-anchor="middle" x="828.5" y="-84" font-family="Helvetica,sans-Serif" font-size="10.00">_example/selftest_example_main.c</text>
</a>
</g>
</g>
<!-- Node1&#45;&gt;Node7 -->
<g id="edge6_Node000001_Node000007" class="edge">
<title>Node1&#45;&gt;Node7</title>
<g id="a_edge6_Node000001_Node000007"><a xlink:title=" ">
<path fill="none" stroke="#63b8ff" d="M525.28,-169.98C580.6,-159.2 657.34,-143.84 724.5,-129 727.4,-128.36 730.35,-127.7 733.32,-127.03"/>
<polygon fill="#63b8ff" stroke="#63b8ff" points="524.36,-166.6 515.21,-171.94 525.69,-173.47 524.36,-166.6"/>
</a>
</g>
</g>
<!-- Node4 -->
<g id="Node000004" class="node">
<title>Node4</title>
<g id="a_Node000004"><a xlink:href="eval-adxl38x_2src_2common_2common__data_8c.html" target="_top" xlink:title="Defines common data to be used by eval&#45;adxl38x examples.">
<polygon fill="white" stroke="#666666" points="353,-41 150,-41 150,0 353,0 353,-41"/>
<text text-anchor="start" x="158" y="-29" font-family="Helvetica,sans-Serif" font-size="10.00">/home/runner/work/no</text>
<text text-anchor="start" x="158" y="-18" font-family="Helvetica,sans-Serif" font-size="10.00">&#45;OS/no&#45;OS/projects/eval</text>
<text text-anchor="middle" x="251.5" y="-7" font-family="Helvetica,sans-Serif" font-size="10.00">&#45;adxl38x/src/common/common_data.c</text>
</a>
</g>
</g>
<!-- Node3&#45;&gt;Node4 -->
<g id="edge3_Node000003_Node000004" class="edge">
<title>Node3&#45;&gt;Node4</title>
<g id="a_edge3_Node000003_Node000004"><a xlink:title=" ">
<path fill="none" stroke="#63b8ff" d="M251.5,-71.87C251.5,-61.6 251.5,-50.4 251.5,-41.17"/>
<polygon fill="#63b8ff" stroke="#63b8ff" points="248,-72.1 251.5,-82.1 255,-72.1 248,-72.1"/>
</a>
</g>
</g>
</g>
</svg>
