<?xml version="1.0" encoding="UTF-8" standalone="no"?>
<!DOCTYPE svg PUBLIC "-//W3C//DTD SVG 1.1//EN"
 "http://www.w3.org/Graphics/SVG/1.1/DTD/svg11.dtd">
<!-- Generated by graphviz version 2.43.0 (0)
 -->
<!-- Title: /home/runner/work/no&#45;OS/no&#45;OS/drivers/accel/adxl372/adxl372.h Pages: 1 -->
<svg width="519pt" height="159pt"
 viewBox="0.00 0.00 519.40 159.00" xmlns="http://www.w3.org/2000/svg" xmlns:xlink="http://www.w3.org/1999/xlink">
<g id="graph0" class="graph" transform="scale(1 1) rotate(0) translate(4 155)">
<title>/home/runner/work/no&#45;OS/no&#45;OS/drivers/accel/adxl372/adxl372.h</title>
<!-- Node1 -->
<g id="Node000001" class="node">
<title>Node1</title>
<g id="a_Node000001"><a xlink:title="Header file for adxl372 Driver.">
<polygon fill="#999999" stroke="#666666" points="274.9,-151 143.9,-151 143.9,-110 274.9,-110 274.9,-151"/>
<text text-anchor="start" x="151.9" y="-139" font-family="Helvetica,sans-Serif" font-size="10.00">/home/runner/work/no</text>
<text text-anchor="start" x="151.9" y="-128" font-family="Helvetica,sans-Serif" font-size="10.00">&#45;OS/no&#45;OS/drivers/accel</text>
<text text-anchor="middle" x="209.4" y="-117" font-family="Helvetica,sans-Serif" font-size="10.00">/adxl372/adxl372.h</text>
</a>
</g>
</g>
<!-- Node2 -->
<g id="Node000002" class="node">
<title>Node2</title>
<g id="a_Node000002"><a xlink:title=" ">
<polygon fill="#e0e0e0" stroke="#999999" points="236.9,-19 183.9,-19 183.9,0 236.9,0 236.9,-19"/>
<text text-anchor="middle" x="210.4" y="-7" font-family="Helvetica,sans-Serif" font-size="10.00">stdint.h</text>
</a>
</g>
</g>
<!-- Node1&#45;&gt;Node2 -->
<g id="edge1_Node000001_Node000002" class="edge">
<title>Node1&#45;&gt;Node2</title>
<g id="a_edge1_Node000001_Node000002"><a xlink:title=" ">
<path fill="none" stroke="#63b8ff" d="M143.82,-126.58C71.39,-120.9 -30.1,-104.19 9.4,-55 29.6,-29.84 121.29,-18.03 173.58,-13.26"/>
<polygon fill="#63b8ff" stroke="#63b8ff" points="174.13,-16.73 183.79,-12.37 173.53,-9.75 174.13,-16.73"/>
</a>
</g>
</g>
<!-- Node3 -->
<g id="Node000003" class="node">
<title>Node3</title>
<g id="a_Node000003"><a xlink:href="no__os__util_8h.html" target="_top" xlink:title="Header file of utility functions.">
<polygon fill="white" stroke="#666666" points="479.9,-74 404.9,-74 404.9,-55 479.9,-55 479.9,-74"/>
<text text-anchor="middle" x="442.4" y="-62" font-family="Helvetica,sans-Serif" font-size="10.00">no_os_util.h</text>
</a>
</g>
</g>
<!-- Node1&#45;&gt;Node3 -->
<g id="edge2_Node000001_Node000003" class="edge">
<title>Node1&#45;&gt;Node3</title>
<g id="a_edge2_Node000001_Node000003"><a xlink:title=" ">
<path fill="none" stroke="#63b8ff" d="M274.92,-111.5C315.59,-100.33 366.59,-86.32 401.56,-76.72"/>
<polygon fill="#63b8ff" stroke="#63b8ff" points="402.71,-80.03 411.42,-74.01 400.85,-73.28 402.71,-80.03"/>
</a>
</g>
</g>
<!-- Node6 -->
<g id="Node000006" class="node">
<title>Node6</title>
<g id="a_Node000006"><a xlink:href="no__os__delay_8h.html" target="_top" xlink:title="Header file of Delay functions.">
<polygon fill="white" stroke="#666666" points="103.9,-74 18.9,-74 18.9,-55 103.9,-55 103.9,-74"/>
<text text-anchor="middle" x="61.4" y="-62" font-family="Helvetica,sans-Serif" font-size="10.00">no_os_delay.h</text>
</a>
</g>
</g>
<!-- Node1&#45;&gt;Node6 -->
<g id="edge6_Node000001_Node000006" class="edge">
<title>Node1&#45;&gt;Node6</title>
<g id="a_edge6_Node000001_Node000006"><a xlink:title=" ">
<path fill="none" stroke="#63b8ff" d="M164.19,-109.95C140.26,-99.6 111.58,-87.2 90.6,-78.13"/>
<polygon fill="#63b8ff" stroke="#63b8ff" points="91.83,-74.85 81.26,-74.09 89.05,-81.27 91.83,-74.85"/>
</a>
</g>
</g>
<!-- Node7 -->
<g id="Node000007" class="node">
<title>Node7</title>
<g id="a_Node000007"><a xlink:href="no__os__gpio_8h.html" target="_top" xlink:title="Header file of GPIO Interface.">
<polygon fill="white" stroke="#666666" points="202.4,-74 122.4,-74 122.4,-55 202.4,-55 202.4,-74"/>
<text text-anchor="middle" x="162.4" y="-62" font-family="Helvetica,sans-Serif" font-size="10.00">no_os_gpio.h</text>
</a>
</g>
</g>
<!-- Node1&#45;&gt;Node7 -->
<g id="edge8_Node000001_Node000007" class="edge">
<title>Node1&#45;&gt;Node7</title>
<g id="a_edge8_Node000001_Node000007"><a xlink:title=" ">
<path fill="none" stroke="#63b8ff" d="M195.04,-109.95C188.62,-101.2 181.11,-90.99 174.92,-82.56"/>
<polygon fill="#63b8ff" stroke="#63b8ff" points="177.57,-80.25 168.83,-74.26 171.93,-84.39 177.57,-80.25"/>
</a>
</g>
</g>
<!-- Node8 -->
<g id="Node000008" class="node">
<title>Node8</title>
<g id="a_Node000008"><a xlink:href="no__os__i2c_8h.html" target="_top" xlink:title="Header file of I2C Interface.">
<polygon fill="white" stroke="#666666" points="294.4,-74 220.4,-74 220.4,-55 294.4,-55 294.4,-74"/>
<text text-anchor="middle" x="257.4" y="-62" font-family="Helvetica,sans-Serif" font-size="10.00">no_os_i2c.h</text>
</a>
</g>
</g>
<!-- Node1&#45;&gt;Node8 -->
<g id="edge10_Node000001_Node000008" class="edge">
<title>Node1&#45;&gt;Node8</title>
<g id="a_edge10_Node000001_Node000008"><a xlink:title=" ">
<path fill="none" stroke="#63b8ff" d="M224.06,-109.95C230.69,-101.11 238.44,-90.77 244.81,-82.29"/>
<polygon fill="#63b8ff" stroke="#63b8ff" points="247.63,-84.36 250.83,-74.26 242.03,-80.16 247.63,-84.36"/>
</a>
</g>
</g>
<!-- Node9 -->
<g id="Node000009" class="node">
<title>Node9</title>
<g id="a_Node000009"><a xlink:href="no__os__spi_8h.html" target="_top" xlink:title="Header file of SPI Interface.">
<polygon fill="white" stroke="#666666" points="386.4,-74 312.4,-74 312.4,-55 386.4,-55 386.4,-74"/>
<text text-anchor="middle" x="349.4" y="-62" font-family="Helvetica,sans-Serif" font-size="10.00">no_os_spi.h</text>
</a>
</g>
</g>
<!-- Node1&#45;&gt;Node9 -->
<g id="edge12_Node000001_Node000009" class="edge">
<title>Node1&#45;&gt;Node9</title>
<g id="a_edge12_Node000001_Node000009"><a xlink:title=" ">
<path fill="none" stroke="#63b8ff" d="M252.16,-109.95C274.69,-99.65 301.68,-87.31 321.5,-78.25"/>
<polygon fill="#63b8ff" stroke="#63b8ff" points="322.96,-81.43 330.6,-74.09 320.05,-75.07 322.96,-81.43"/>
</a>
</g>
</g>
<!-- Node3&#45;&gt;Node2 -->
<g id="edge3_Node000003_Node000002" class="edge">
<title>Node3&#45;&gt;Node2</title>
<g id="a_edge3_Node000003_Node000002"><a xlink:title=" ">
<path fill="none" stroke="#63b8ff" d="M405.12,-54.98C361.6,-45.04 290.09,-28.71 246.9,-18.84"/>
<polygon fill="#63b8ff" stroke="#63b8ff" points="247.62,-15.41 237.09,-16.6 246.06,-22.24 247.62,-15.41"/>
</a>
</g>
</g>
<!-- Node4 -->
<g id="Node000004" class="node">
<title>Node4</title>
<g id="a_Node000004"><a xlink:title=" ">
<polygon fill="#e0e0e0" stroke="#999999" points="430.9,-19 377.9,-19 377.9,0 430.9,0 430.9,-19"/>
<text text-anchor="middle" x="404.4" y="-7" font-family="Helvetica,sans-Serif" font-size="10.00">stdlib.h</text>
</a>
</g>
</g>
<!-- Node3&#45;&gt;Node4 -->
<g id="edge4_Node000003_Node000004" class="edge">
<title>Node3&#45;&gt;Node4</title>
<g id="a_edge4_Node000003_Node000004"><a xlink:title=" ">
<path fill="none" stroke="#63b8ff" d="M436.12,-54.75C430.81,-47.34 423.04,-36.5 416.52,-27.41"/>
<polygon fill="#63b8ff" stroke="#63b8ff" points="419.23,-25.18 410.55,-19.09 413.54,-29.26 419.23,-25.18"/>
</a>
</g>
</g>
<!-- Node5 -->
<g id="Node000005" class="node">
<title>Node5</title>
<g id="a_Node000005"><a xlink:title=" ">
<polygon fill="#e0e0e0" stroke="#999999" points="511.4,-19 449.4,-19 449.4,0 511.4,0 511.4,-19"/>
<text text-anchor="middle" x="480.4" y="-7" font-family="Helvetica,sans-Serif" font-size="10.00">stdbool.h</text>
</a>
</g>
</g>
<!-- Node3&#45;&gt;Node5 -->
<g id="edge5_Node000003_Node000005" class="edge">
<title>Node3&#45;&gt;Node5</title>
<g id="a_edge5_Node000003_Node000005"><a xlink:title=" ">
<path fill="none" stroke="#63b8ff" d="M448.67,-54.75C453.98,-47.34 461.75,-36.5 468.27,-27.41"/>
<polygon fill="#63b8ff" stroke="#63b8ff" points="471.26,-29.26 474.24,-19.09 465.57,-25.18 471.26,-29.26"/>
</a>
</g>
</g>
<!-- Node6&#45;&gt;Node2 -->
<g id="edge7_Node000006_Node000002" class="edge">
<title>Node6&#45;&gt;Node2</title>
<g id="a_edge7_Node000006_Node000002"><a xlink:title=" ">
<path fill="none" stroke="#63b8ff" d="M85.34,-54.98C109.95,-46.23 148.52,-32.51 176.31,-22.62"/>
<polygon fill="#63b8ff" stroke="#63b8ff" points="177.77,-25.82 186.02,-19.17 175.43,-19.22 177.77,-25.82"/>
</a>
</g>
</g>
<!-- Node7&#45;&gt;Node2 -->
<g id="edge9_Node000007_Node000002" class="edge">
<title>Node7&#45;&gt;Node2</title>
<g id="a_edge9_Node000007_Node000002"><a xlink:title=" ">
<path fill="none" stroke="#63b8ff" d="M170.32,-54.75C177.24,-47.11 187.46,-35.82 195.85,-26.56"/>
<polygon fill="#63b8ff" stroke="#63b8ff" points="198.5,-28.85 202.62,-19.09 193.31,-24.15 198.5,-28.85"/>
</a>
</g>
</g>
<!-- Node8&#45;&gt;Node2 -->
<g id="edge11_Node000008_Node000002" class="edge">
<title>Node8&#45;&gt;Node2</title>
<g id="a_edge11_Node000008_Node000002"><a xlink:title=" ">
<path fill="none" stroke="#63b8ff" d="M249.63,-54.75C242.93,-47.18 233.05,-36.05 224.89,-26.84"/>
<polygon fill="#63b8ff" stroke="#63b8ff" points="227.27,-24.25 218.01,-19.09 222.03,-28.89 227.27,-24.25"/>
</a>
</g>
</g>
<!-- Node9&#45;&gt;Node2 -->
<g id="edge13_Node000009_Node000002" class="edge">
<title>Node9&#45;&gt;Node2</title>
<g id="a_edge13_Node000009_Node000002"><a xlink:title=" ">
<path fill="none" stroke="#63b8ff" d="M327.06,-54.98C304.2,-46.27 268.44,-32.63 242.53,-22.75"/>
<polygon fill="#63b8ff" stroke="#63b8ff" points="243.73,-19.46 233.14,-19.17 241.23,-26 243.73,-19.46"/>
</a>
</g>
</g>
</g>
</svg>
