<?xml version="1.0" encoding="UTF-8" standalone="no"?>
<!DOCTYPE svg PUBLIC "-//W3C//DTD SVG 1.1//EN"
 "http://www.w3.org/Graphics/SVG/1.1/DTD/svg11.dtd">
<!-- Generated by graphviz version 2.43.0 (0)
 -->
<!-- Title: /home/runner/work/no&#45;OS/no&#45;OS/drivers/gyro/adxrs290/adxrs290.h Pages: 1 -->
<svg width="360pt" height="159pt"
 viewBox="0.00 0.00 359.50 159.00" xmlns="http://www.w3.org/2000/svg" xmlns:xlink="http://www.w3.org/1999/xlink">

<svg id="main" version="1.1" xmlns="http://www.w3.org/2000/svg" xmlns:xlink="http://www.w3.org/1999/xlink" xml:space="preserve">

<style type="text/css"><![CDATA[
.node, .edge {opacity: 0.7;}
.node.selected, .edge.selected {opacity: 1;}
.edge:hover path { stroke: red; }
.edge:hover polygon { stroke: red; fill: red; }
]]></style>
<script type="application/ecmascript" xlink:href="svg.min.js"/>
<svg id="graph" class="graph">
<g id="graph0" class="graph" transform="scale(1 1) rotate(0) translate(4 155)">
<title>/home/runner/work/no&#45;OS/no&#45;OS/drivers/gyro/adxrs290/adxrs290.h</title>
<!-- Node1 -->
<g id="Node000001" class="node">
<title>Node1</title>
<g id="a_Node000001"><a xlink:title="Implementation of ADXRS290 Driver.">
<polygon fill="#999999" stroke="#666666" points="187.5,-151 59.5,-151 59.5,-110 187.5,-110 187.5,-151"/>
<text text-anchor="start" x="67.5" y="-139" font-family="Helvetica,sans-Serif" font-size="10.00">/home/runner/work/no</text>
<text text-anchor="start" x="67.5" y="-128" font-family="Helvetica,sans-Serif" font-size="10.00">&#45;OS/no&#45;OS/drivers/gyro</text>
<text text-anchor="middle" x="123.5" y="-117" font-family="Helvetica,sans-Serif" font-size="10.00">/adxrs290/adxrs290.h</text>
</a>
</g>
</g>
<!-- Node2 -->
<g id="Node000002" class="node">
<title>Node2</title>
<g id="a_Node000002"><a xlink:title=" ">
<polygon fill="#e0e0e0" stroke="#999999" points="53,-19 0,-19 0,0 53,0 53,-19"/>
<text text-anchor="middle" x="26.5" y="-7" font-family="Helvetica,sans-Serif" font-size="10.00">stdlib.h</text>
</a>
</g>
</g>
<!-- Node1&#45;&gt;Node2 -->
<g id="edge1_Node000001_Node000002" class="edge">
<title>Node1&#45;&gt;Node2</title>
<g id="a_edge1_Node000001_Node000002"><a xlink:title=" ">
<path fill="none" stroke="#63b8ff" d="M103.8,-109.8C93.77,-99.45 81.6,-86.38 71.5,-74 59.26,-59.01 46.63,-40.91 37.88,-27.88"/>
<polygon fill="#63b8ff" stroke="#63b8ff" points="40.7,-25.8 32.25,-19.4 34.86,-29.67 40.7,-25.8"/>
</a>
</g>
</g>
<!-- Node3 -->
<g id="Node000003" class="node">
<title>Node3</title>
<g id="a_Node000003"><a xlink:title=" ">
<polygon fill="#e0e0e0" stroke="#999999" points="140.5,-19 78.5,-19 78.5,0 140.5,0 140.5,-19"/>
<text text-anchor="middle" x="109.5" y="-7" font-family="Helvetica,sans-Serif" font-size="10.00">stdbool.h</text>
</a>
</g>
</g>
<!-- Node1&#45;&gt;Node3 -->
<g id="edge2_Node000001_Node000003" class="edge">
<title>Node1&#45;&gt;Node3</title>
<g id="a_edge2_Node000001_Node000003"><a xlink:title=" ">
<path fill="none" stroke="#63b8ff" d="M100.98,-109.94C91.49,-100.22 81.5,-87.63 76.5,-74 70.33,-57.16 81.61,-39.12 92.63,-26.58"/>
<polygon fill="#63b8ff" stroke="#63b8ff" points="95.28,-28.87 99.64,-19.21 90.21,-24.05 95.28,-28.87"/>
</a>
</g>
</g>
<!-- Node4 -->
<g id="Node000004" class="node">
<title>Node4</title>
<g id="a_Node000004"><a xlink:href="no__os__gpio_8h.html" target="_top" xlink:title="Header file of GPIO Interface.">
<polygon fill="white" stroke="#666666" points="351.5,-74 271.5,-74 271.5,-55 351.5,-55 351.5,-74"/>
<text text-anchor="middle" x="311.5" y="-62" font-family="Helvetica,sans-Serif" font-size="10.00">no_os_gpio.h</text>
</a>
</g>
</g>
<!-- Node1&#45;&gt;Node4 -->
<g id="edge3_Node000001_Node000004" class="edge">
<title>Node1&#45;&gt;Node4</title>
<g id="a_edge3_Node000001_Node000004"><a xlink:title=" ">
<path fill="none" stroke="#63b8ff" d="M180.93,-109.95C212.14,-99.32 249.73,-86.53 276.55,-77.4"/>
<polygon fill="#63b8ff" stroke="#63b8ff" points="277.92,-80.63 286.26,-74.09 275.67,-74 277.92,-80.63"/>
</a>
</g>
</g>
<!-- Node6 -->
<g id="Node000006" class="node">
<title>Node6</title>
<g id="a_Node000006"><a xlink:href="no__os__spi_8h.html" target="_top" xlink:title="Header file of SPI Interface.">
<polygon fill="white" stroke="#666666" points="253.5,-74 179.5,-74 179.5,-55 253.5,-55 253.5,-74"/>
<text text-anchor="middle" x="216.5" y="-62" font-family="Helvetica,sans-Serif" font-size="10.00">no_os_spi.h</text>
</a>
</g>
</g>
<!-- Node1&#45;&gt;Node6 -->
<g id="edge5_Node000001_Node000006" class="edge">
<title>Node1&#45;&gt;Node6</title>
<g id="a_edge5_Node000001_Node000006"><a xlink:title=" ">
<path fill="none" stroke="#63b8ff" d="M151.91,-109.95C165.84,-100.37 182.33,-89.02 195.16,-80.19"/>
<polygon fill="#63b8ff" stroke="#63b8ff" points="197.52,-82.81 203.77,-74.26 193.55,-77.05 197.52,-82.81"/>
</a>
</g>
</g>
<!-- Node7 -->
<g id="Node000007" class="node">
<title>Node7</title>
<g id="a_Node000007"><a xlink:href="no__os__util_8h.html" target="_top" xlink:title="Header file of utility functions.">
<polygon fill="white" stroke="#666666" points="161,-74 86,-74 86,-55 161,-55 161,-74"/>
<text text-anchor="middle" x="123.5" y="-62" font-family="Helvetica,sans-Serif" font-size="10.00">no_os_util.h</text>
</a>
</g>
</g>
<!-- Node1&#45;&gt;Node7 -->
<g id="edge7_Node000001_Node000007" class="edge">
<title>Node1&#45;&gt;Node7</title>
<g id="a_edge7_Node000001_Node000007"><a xlink:title=" ">
<path fill="none" stroke="#63b8ff" d="M123.5,-109.95C123.5,-101.85 123.5,-92.5 123.5,-84.47"/>
<polygon fill="#63b8ff" stroke="#63b8ff" points="127,-84.26 123.5,-74.26 120,-84.26 127,-84.26"/>
</a>
</g>
</g>
<!-- Node5 -->
<g id="Node000005" class="node">
<title>Node5</title>
<g id="a_Node000005"><a xlink:title=" ">
<polygon fill="#e0e0e0" stroke="#999999" points="243,-19 190,-19 190,0 243,0 243,-19"/>
<text text-anchor="middle" x="216.5" y="-7" font-family="Helvetica,sans-Serif" font-size="10.00">stdint.h</text>
</a>
</g>
</g>
<!-- Node4&#45;&gt;Node5 -->
<g id="edge4_Node000004_Node000005" class="edge">
<title>Node4&#45;&gt;Node5</title>
<g id="a_edge4_Node000004_Node000005"><a xlink:title=" ">
<path fill="none" stroke="#63b8ff" d="M296.24,-54.98C281.37,-46.69 258.52,-33.94 241.08,-24.22"/>
<polygon fill="#63b8ff" stroke="#63b8ff" points="242.48,-20.99 232.04,-19.17 239.07,-27.1 242.48,-20.99"/>
</a>
</g>
</g>
<!-- Node6&#45;&gt;Node5 -->
<g id="edge6_Node000006_Node000005" class="edge">
<title>Node6&#45;&gt;Node5</title>
<g id="a_edge6_Node000006_Node000005"><a xlink:title=" ">
<path fill="none" stroke="#63b8ff" d="M216.5,-54.75C216.5,-47.8 216.5,-37.85 216.5,-29.13"/>
<polygon fill="#63b8ff" stroke="#63b8ff" points="220,-29.09 216.5,-19.09 213,-29.09 220,-29.09"/>
</a>
</g>
</g>
<!-- Node7&#45;&gt;Node2 -->
<g id="edge9_Node000007_Node000002" class="edge">
<title>Node7&#45;&gt;Node2</title>
<g id="a_edge9_Node000007_Node000002"><a xlink:title=" ">
<path fill="none" stroke="#63b8ff" d="M107.92,-54.98C92.73,-46.69 69.4,-33.94 51.6,-24.22"/>
<polygon fill="#63b8ff" stroke="#63b8ff" points="52.82,-20.89 42.37,-19.17 49.47,-27.04 52.82,-20.89"/>
</a>
</g>
</g>
<!-- Node7&#45;&gt;Node3 -->
<g id="edge10_Node000007_Node000003" class="edge">
<title>Node7&#45;&gt;Node3</title>
<g id="a_edge10_Node000007_Node000003"><a xlink:title=" ">
<path fill="none" stroke="#63b8ff" d="M121.19,-54.75C119.33,-47.72 116.66,-37.62 114.35,-28.84"/>
<polygon fill="#63b8ff" stroke="#63b8ff" points="117.71,-27.86 111.77,-19.09 110.94,-29.65 117.71,-27.86"/>
</a>
</g>
</g>
<!-- Node7&#45;&gt;Node5 -->
<g id="edge8_Node000007_Node000005" class="edge">
<title>Node7&#45;&gt;Node5</title>
<g id="a_edge8_Node000007_Node000005"><a xlink:title=" ">
<path fill="none" stroke="#63b8ff" d="M138.44,-54.98C153,-46.69 175.37,-33.94 192.43,-24.22"/>
<polygon fill="#63b8ff" stroke="#63b8ff" points="194.33,-27.16 201.29,-19.17 190.86,-21.08 194.33,-27.16"/>
</a>
</g>
</g>
</g>
</svg>
</svg>

<style type='text/css'>
<![CDATA[
[data-mouse-over-selected='false'] { opacity: 0.7; }
[data-mouse-over-selected='true']  { opacity: 1.0; }
]]>
</style>
<script type="application/ecmascript"><![CDATA[
document.addEventListener('DOMContentLoaded', (event) => {
  highlightEdges();
  highlightAdjacentNodes();
});
]]></script>
</svg>
