<?xml version="1.0" encoding="UTF-8" standalone="no"?>
<!DOCTYPE svg PUBLIC "-//W3C//DTD SVG 1.1//EN"
 "http://www.w3.org/Graphics/SVG/1.1/DTD/svg11.dtd">
<!-- Generated by graphviz version 2.43.0 (0)
 -->
<!-- Title: /home/runner/work/no&#45;OS/no&#45;OS/projects/eval&#45;pqmon/src/common/afe_calibration.h Pages: 1 -->
<!--zoomable 555 -->

<svg id="main" version="1.1" xmlns="http://www.w3.org/2000/svg" xmlns:xlink="http://www.w3.org/1999/xlink" xml:space="preserve" onload="init(evt)">

<style type="text/css"><![CDATA[
.node, .edge {opacity: 0.7;}
.node.selected, .edge.selected {opacity: 1;}
.edge:hover path { stroke: red; }
.edge:hover polygon { stroke: red; fill: red; }
]]></style>

<defs>
  <circle id="rim" cx="0" cy="0" r="7"/>
  <circle id="rim2" cx="0" cy="0" r="3.5"/>
  <g id="zoomPlus">
    <use xlink:href="#rim" fill="#404040"><set attributeName="fill" to="#808080" begin="zoomplus.mouseover" end="zoomplus.mouseout"/></use>
    <path d="M-4,0h8M0,-4v8" fill="none" stroke="white" stroke-width="1.5" pointer-events="none"/>
  </g>
  <g id="zoomMin">
    <use xlink:href="#rim" fill="#404040"><set attributeName="fill" to="#808080" begin="zoomminus.mouseover" end="zoomminus.mouseout"/></use>
    <path d="M-4,0h8" fill="none" stroke="white" stroke-width="1.5" pointer-events="none"/>
  </g>
  <g id="arrowUp" transform="translate(30 24)">
    <use xlink:href="#rim"/>
    <path pointer-events="none" fill="none" stroke="white" stroke-width="1.5" d="M0,-3.0v7 M-2.5,-0.5L0,-3.0L2.5,-0.5"/>
  </g>
  <g id="arrowRight" transform="rotate(90) translate(36 -43)">
    <use xlink:href="#rim"/>
    <path pointer-events="none" fill="none" stroke="white" stroke-width="1.5" d="M0,-3.0v7 M-2.5,-0.5L0,-3.0L2.5,-0.5"/>
  </g>
  <g id="arrowDown" transform="rotate(180) translate(-30 -48)">
    <use xlink:href="#rim"/>
    <path pointer-events="none" fill="none" stroke="white" stroke-width="1.5" d="M0,-3.0v7 M-2.5,-0.5L0,-3.0L2.5,-0.5"/>
  </g>
  <g id="arrowLeft" transform="rotate(270) translate(-36 17)">
    <use xlink:href="#rim"/>
    <path pointer-events="none" fill="none" stroke="white" stroke-width="1.5" d="M0,-3.0v7 M-2.5,-0.5L0,-3.0L2.5,-0.5"/>
  </g>
  <g id="resetDef">
    <use xlink:href="#rim2" fill="#404040"><set attributeName="fill" to="#808080" begin="reset.mouseover" end="reset.mouseout"/></use>
  </g>
</defs>
<script type="application/ecmascript">
var viewWidth = 1127;
var viewHeight = 555;
var sectionId = 'dynsection-1';
</script>
<script type="application/ecmascript" xlink:href="svg.min.js"/>
<svg id="graph" class="graph">
<g id="viewport">
<title>/home/runner/work/no&#45;OS/no&#45;OS/projects/eval&#45;pqmon/src/common/afe_calibration.h</title>
<!-- Node1 -->
<g id="Node000001" class="node">
<title>Node1</title>
<g id="a_Node000001"><a xlink:title=" ">
<polygon fill="#999999" stroke="#666666" points="990.5,-547 788.5,-547 788.5,-506 990.5,-506 990.5,-547"/>
<text text-anchor="start" x="796.5" y="-535" font-family="Helvetica,sans-Serif" font-size="10.00">/home/runner/work/no</text>
<text text-anchor="start" x="796.5" y="-524" font-family="Helvetica,sans-Serif" font-size="10.00">&#45;OS/no&#45;OS/projects/eval</text>
<text text-anchor="middle" x="889.5" y="-513" font-family="Helvetica,sans-Serif" font-size="10.00">&#45;pqmon/src/common/afe_calibration.h</text>
</a>
</g>
</g>
<!-- Node2 -->
<g id="Node000002" class="node">
<title>Node2</title>
<g id="a_Node000002"><a xlink:href="afe__calibration_8c.html" target="_top" xlink:title=" ">
<polygon fill="white" stroke="#666666" points="201,-211.5 0,-211.5 0,-170.5 201,-170.5 201,-211.5"/>
<text text-anchor="start" x="8" y="-199.5" font-family="Helvetica,sans-Serif" font-size="10.00">/home/runner/work/no</text>
<text text-anchor="start" x="8" y="-188.5" font-family="Helvetica,sans-Serif" font-size="10.00">&#45;OS/no&#45;OS/projects/eval</text>
<text text-anchor="middle" x="100.5" y="-177.5" font-family="Helvetica,sans-Serif" font-size="10.00">&#45;pqmon/src/common/afe_calibration.c</text>
</a>
</g>
</g>
<!-- Node1&#45;&gt;Node2 -->
<g id="edge1_Node000001_Node000002" class="edge">
<title>Node1&#45;&gt;Node2</title>
<g id="a_edge1_Node000001_Node000002"><a xlink:title=" ">
<path fill="none" stroke="#63b8ff" d="M778.18,-515.22C598.19,-496.74 253.52,-453.06 155.5,-382 100.87,-342.39 97.7,-251.65 99.18,-211.6"/>
<polygon fill="#63b8ff" stroke="#63b8ff" points="777.91,-518.71 788.21,-516.24 778.61,-511.75 777.91,-518.71"/>
</a>
</g>
</g>
<!-- Node3 -->
<g id="Node000003" class="node">
<title>Node3</title>
<g id="a_Node000003"><a xlink:href="eval-pqmon_2src_2common_2common__data_8h.html" target="_top" xlink:title=" ">
<polygon fill="white" stroke="#666666" points="835,-382 636,-382 636,-341 835,-341 835,-382"/>
<text text-anchor="start" x="644" y="-370" font-family="Helvetica,sans-Serif" font-size="10.00">/home/runner/work/no</text>
<text text-anchor="start" x="644" y="-359" font-family="Helvetica,sans-Serif" font-size="10.00">&#45;OS/no&#45;OS/projects/eval</text>
<text text-anchor="middle" x="735.5" y="-348" font-family="Helvetica,sans-Serif" font-size="10.00">&#45;pqmon/src/common/common_data.h</text>
</a>
</g>
</g>
<!-- Node1&#45;&gt;Node3 -->
<g id="edge2_Node000001_Node000003" class="edge">
<title>Node1&#45;&gt;Node3</title>
<g id="a_edge2_Node000001_Node000003"><a xlink:title=" ">
<path fill="none" stroke="#63b8ff" d="M800.67,-501.64C784.74,-493.83 769.68,-483.53 758.5,-470 737.84,-444.99 734.47,-405.79 734.55,-382.28"/>
<polygon fill="#63b8ff" stroke="#63b8ff" points="799.58,-504.99 810.13,-505.96 802.49,-498.62 799.58,-504.99"/>
</a>
</g>
</g>
<!-- Node6 -->
<g id="Node000006" class="node">
<title>Node6</title>
<g id="a_Node000006"><a xlink:href="flash__storage_8c.html" target="_top" xlink:title=" ">
<polygon fill="white" stroke="#666666" points="942,-217 799,-217 799,-165 942,-165 942,-217"/>
<text text-anchor="start" x="807" y="-205" font-family="Helvetica,sans-Serif" font-size="10.00">/home/runner/work/no</text>
<text text-anchor="start" x="807" y="-194" font-family="Helvetica,sans-Serif" font-size="10.00">&#45;OS/no&#45;OS/projects/eval</text>
<text text-anchor="start" x="807" y="-183" font-family="Helvetica,sans-Serif" font-size="10.00">&#45;pqmon/src/common/flash</text>
<text text-anchor="middle" x="870.5" y="-172" font-family="Helvetica,sans-Serif" font-size="10.00">_storage.c</text>
</a>
</g>
</g>
<!-- Node1&#45;&gt;Node6 -->
<g id="edge17_Node000001_Node000006" class="edge">
<title>Node1&#45;&gt;Node6</title>
<g id="a_edge17_Node000001_Node000006"><a xlink:title=" ">
<path fill="none" stroke="#63b8ff" d="M908.97,-497.13C913.69,-488.76 918.07,-479.33 920.5,-470 944.41,-378.17 903.61,-266.33 882.26,-217.2"/>
<polygon fill="#63b8ff" stroke="#63b8ff" points="905.94,-495.37 903.79,-505.75 911.94,-498.98 905.94,-495.37"/>
</a>
</g>
</g>
<!-- Node8 -->
<g id="Node000008" class="node">
<title>Node8</title>
<g id="a_Node000008"><a xlink:href="iio__pqm_8h.html" target="_top" xlink:title=" ">
<polygon fill="white" stroke="#666666" points="845.5,-129 677.5,-129 677.5,-88 845.5,-88 845.5,-129"/>
<text text-anchor="start" x="685.5" y="-117" font-family="Helvetica,sans-Serif" font-size="10.00">/home/runner/work/no</text>
<text text-anchor="start" x="685.5" y="-106" font-family="Helvetica,sans-Serif" font-size="10.00">&#45;OS/no&#45;OS/projects/eval</text>
<text text-anchor="middle" x="761.5" y="-95" font-family="Helvetica,sans-Serif" font-size="10.00">&#45;pqmon/src/common/iio_pqm.h</text>
</a>
</g>
</g>
<!-- Node1&#45;&gt;Node8 -->
<g id="edge18_Node000001_Node000008" class="edge">
<title>Node1&#45;&gt;Node8</title>
<g id="a_edge18_Node000001_Node000008"><a xlink:title=" ">
<path fill="none" stroke="#63b8ff" d="M924.95,-499.42C960.02,-470.32 1008.5,-419.75 1008.5,-362.5 1008.5,-362.5 1008.5,-362.5 1008.5,-278 1008.5,-225.55 1012.27,-201.39 974.5,-165 940.3,-132.06 889.13,-118.02 845.51,-112.29"/>
<polygon fill="#63b8ff" stroke="#63b8ff" points="922.38,-496.99 916.8,-506 926.78,-502.44 922.38,-496.99"/>
</a>
</g>
</g>
<!-- Node11 -->
<g id="Node000011" class="node">
<title>Node11</title>
<g id="a_Node000011"><a xlink:href="pqlib__example_8c.html" target="_top" xlink:title=" ">
<polygon fill="white" stroke="#666666" points="1118.5,-52 974.5,-52 974.5,0 1118.5,0 1118.5,-52"/>
<text text-anchor="start" x="982.5" y="-40" font-family="Helvetica,sans-Serif" font-size="10.00">/home/runner/work/no</text>
<text text-anchor="start" x="982.5" y="-29" font-family="Helvetica,sans-Serif" font-size="10.00">&#45;OS/no&#45;OS/projects/eval</text>
<text text-anchor="start" x="982.5" y="-18" font-family="Helvetica,sans-Serif" font-size="10.00">&#45;pqmon/src/common/pqlib</text>
<text text-anchor="middle" x="1046.5" y="-7" font-family="Helvetica,sans-Serif" font-size="10.00">_example.c</text>
</a>
</g>
</g>
<!-- Node1&#45;&gt;Node11 -->
<g id="edge19_Node000001_Node000011" class="edge">
<title>Node1&#45;&gt;Node11</title>
<g id="a_edge19_Node000001_Node000011"><a xlink:title=" ">
<path fill="none" stroke="#63b8ff" d="M955.19,-501.97C1011.81,-476.98 1084.5,-431.47 1084.5,-362.5 1084.5,-362.5 1084.5,-362.5 1084.5,-190 1084.5,-140.17 1067.45,-83.95 1056.19,-52.27"/>
<polygon fill="#63b8ff" stroke="#63b8ff" points="953.71,-498.79 945.9,-505.95 956.47,-505.23 953.71,-498.79"/>
</a>
</g>
</g>
<!-- Node14 -->
<g id="Node000014" class="node">
<title>Node14</title>
<g id="a_Node000014"><a xlink:href="pqlib__example_8h.html" target="_top" xlink:title=" ">
<polygon fill="white" stroke="#666666" points="911.5,-470 767.5,-470 767.5,-418 911.5,-418 911.5,-470"/>
<text text-anchor="start" x="775.5" y="-458" font-family="Helvetica,sans-Serif" font-size="10.00">/home/runner/work/no</text>
<text text-anchor="start" x="775.5" y="-447" font-family="Helvetica,sans-Serif" font-size="10.00">&#45;OS/no&#45;OS/projects/eval</text>
<text text-anchor="start" x="775.5" y="-436" font-family="Helvetica,sans-Serif" font-size="10.00">&#45;pqmon/src/common/pqlib</text>
<text text-anchor="middle" x="839.5" y="-425" font-family="Helvetica,sans-Serif" font-size="10.00">_example.h</text>
</a>
</g>
</g>
<!-- Node1&#45;&gt;Node14 -->
<g id="edge20_Node000001_Node000014" class="edge">
<title>Node1&#45;&gt;Node14</title>
<g id="a_edge20_Node000001_Node000014"><a xlink:title=" ">
<path fill="none" stroke="#63b8ff" d="M871.72,-496.88C866.3,-488.15 860.39,-478.63 855.12,-470.16"/>
<polygon fill="#63b8ff" stroke="#63b8ff" points="868.89,-498.95 877.14,-505.6 874.84,-495.26 868.89,-498.95"/>
</a>
</g>
</g>
<!-- Node4 -->
<g id="Node000004" class="node">
<title>Node4</title>
<g id="a_Node000004"><a xlink:href="afe__config_8h.html" target="_top" xlink:title=" ">
<polygon fill="white" stroke="#666666" points="724,-299.5 545,-299.5 545,-258.5 724,-258.5 724,-299.5"/>
<text text-anchor="start" x="553" y="-287.5" font-family="Helvetica,sans-Serif" font-size="10.00">/home/runner/work/no</text>
<text text-anchor="start" x="553" y="-276.5" font-family="Helvetica,sans-Serif" font-size="10.00">&#45;OS/no&#45;OS/projects/eval</text>
<text text-anchor="middle" x="634.5" y="-265.5" font-family="Helvetica,sans-Serif" font-size="10.00">&#45;pqmon/src/common/afe_config.h</text>
</a>
</g>
</g>
<!-- Node3&#45;&gt;Node4 -->
<g id="edge3_Node000003_Node000004" class="edge">
<title>Node3&#45;&gt;Node4</title>
<g id="a_edge3_Node000003_Node000004"><a xlink:title=" ">
<path fill="none" stroke="#63b8ff" d="M702.76,-334.41C688.64,-323.15 672.4,-310.21 659.3,-299.77"/>
<polygon fill="#63b8ff" stroke="#63b8ff" points="700.79,-337.31 710.79,-340.81 705.15,-331.84 700.79,-337.31"/>
</a>
</g>
</g>
<!-- Node3&#45;&gt;Node8 -->
<g id="edge15_Node000003_Node000008" class="edge">
<title>Node3&#45;&gt;Node8</title>
<g id="a_edge15_Node000003_Node000008"><a xlink:title=" ">
<path fill="none" stroke="#63b8ff" d="M734.04,-330.56C736.29,-278.53 747.48,-172.82 755.63,-129.1"/>
<polygon fill="#63b8ff" stroke="#63b8ff" points="730.53,-330.69 733.7,-340.8 737.53,-330.93 730.53,-330.69"/>
</a>
</g>
</g>
<!-- Node12 -->
<g id="Node000012" class="node">
<title>Node12</title>
<g id="a_Node000012"><a xlink:href="eval-pqmon_2src_2common_2common__data_8c.html" target="_top" xlink:title=" ">
<polygon fill="white" stroke="#666666" points="364.5,-299.5 166.5,-299.5 166.5,-258.5 364.5,-258.5 364.5,-299.5"/>
<text text-anchor="start" x="174.5" y="-287.5" font-family="Helvetica,sans-Serif" font-size="10.00">/home/runner/work/no</text>
<text text-anchor="start" x="174.5" y="-276.5" font-family="Helvetica,sans-Serif" font-size="10.00">&#45;OS/no&#45;OS/projects/eval</text>
<text text-anchor="middle" x="265.5" y="-265.5" font-family="Helvetica,sans-Serif" font-size="10.00">&#45;pqmon/src/common/common_data.c</text>
</a>
</g>
</g>
<!-- Node3&#45;&gt;Node12 -->
<g id="edge14_Node000003_Node000012" class="edge">
<title>Node3&#45;&gt;Node12</title>
<g id="a_edge14_Node000003_Node000012"><a xlink:title=" ">
<path fill="none" stroke="#63b8ff" d="M625.68,-345.86C553.72,-335.72 457.73,-321.18 373.5,-305 364.9,-303.35 355.95,-301.49 347.03,-299.56"/>
<polygon fill="#63b8ff" stroke="#63b8ff" points="625.28,-349.33 635.67,-347.26 626.25,-342.4 625.28,-349.33"/>
</a>
</g>
</g>
<!-- Node13 -->
<g id="Node000013" class="node">
<title>Node13</title>
<g id="a_Node000013"><a xlink:href="pqlib__convert_8c.html" target="_top" xlink:title=" ">
<polygon fill="white" stroke="#666666" points="526.5,-305 382.5,-305 382.5,-253 526.5,-253 526.5,-305"/>
<text text-anchor="start" x="390.5" y="-293" font-family="Helvetica,sans-Serif" font-size="10.00">/home/runner/work/no</text>
<text text-anchor="start" x="390.5" y="-282" font-family="Helvetica,sans-Serif" font-size="10.00">&#45;OS/no&#45;OS/projects/eval</text>
<text text-anchor="start" x="390.5" y="-271" font-family="Helvetica,sans-Serif" font-size="10.00">&#45;pqmon/src/common/pqlib</text>
<text text-anchor="middle" x="454.5" y="-260" font-family="Helvetica,sans-Serif" font-size="10.00">_convert.c</text>
</a>
</g>
</g>
<!-- Node3&#45;&gt;Node13 -->
<g id="edge16_Node000003_Node000013" class="edge">
<title>Node3&#45;&gt;Node13</title>
<g id="a_edge16_Node000003_Node000013"><a xlink:title=" ">
<path fill="none" stroke="#63b8ff" d="M653.14,-338.22C616.98,-328.29 574.06,-316.3 535.5,-305 532.68,-304.17 529.8,-303.32 526.89,-302.46"/>
<polygon fill="#63b8ff" stroke="#63b8ff" points="652.58,-341.69 663.15,-340.96 654.43,-334.94 652.58,-341.69"/>
</a>
</g>
</g>
<!-- Node4&#45;&gt;Node2 -->
<g id="edge4_Node000004_Node000002" class="edge">
<title>Node4&#45;&gt;Node2</title>
<g id="a_edge4_Node000004_Node000002"><a xlink:title=" ">
<path fill="none" stroke="#63b8ff" d="M550.89,-256.21C545.7,-255.07 540.54,-253.99 535.5,-253 421.74,-230.73 289.72,-213.4 201.22,-203"/>
<polygon fill="#63b8ff" stroke="#63b8ff" points="550.38,-259.68 560.9,-258.48 551.93,-252.86 550.38,-259.68"/>
</a>
</g>
</g>
<!-- Node5 -->
<g id="Node000005" class="node">
<title>Node5</title>
<g id="a_Node000005"><a xlink:href="afe__config_8c.html" target="_top" xlink:title=" ">
<polygon fill="white" stroke="#666666" points="724,-211.5 545,-211.5 545,-170.5 724,-170.5 724,-211.5"/>
<text text-anchor="start" x="553" y="-199.5" font-family="Helvetica,sans-Serif" font-size="10.00">/home/runner/work/no</text>
<text text-anchor="start" x="553" y="-188.5" font-family="Helvetica,sans-Serif" font-size="10.00">&#45;OS/no&#45;OS/projects/eval</text>
<text text-anchor="middle" x="634.5" y="-177.5" font-family="Helvetica,sans-Serif" font-size="10.00">&#45;pqmon/src/common/afe_config.c</text>
</a>
</g>
</g>
<!-- Node4&#45;&gt;Node5 -->
<g id="edge5_Node000004_Node000005" class="edge">
<title>Node4&#45;&gt;Node5</title>
<g id="a_edge5_Node000004_Node000005"><a xlink:title=" ">
<path fill="none" stroke="#63b8ff" d="M634.5,-248.36C634.5,-236.26 634.5,-222.58 634.5,-211.74"/>
<polygon fill="#63b8ff" stroke="#63b8ff" points="631,-248.49 634.5,-258.49 638,-248.49 631,-248.49"/>
</a>
</g>
</g>
<!-- Node4&#45;&gt;Node6 -->
<g id="edge6_Node000004_Node000006" class="edge">
<title>Node4&#45;&gt;Node6</title>
<g id="a_edge6_Node000004_Node000006"><a xlink:title=" ">
<path fill="none" stroke="#63b8ff" d="M697.75,-254.95C729.76,-243.29 768.68,-229.11 801.46,-217.16"/>
<polygon fill="#63b8ff" stroke="#63b8ff" points="696.25,-251.77 688.05,-258.49 698.65,-258.35 696.25,-251.77"/>
</a>
</g>
</g>
<!-- Node7 -->
<g id="Node000007" class="node">
<title>Node7</title>
<g id="a_Node000007"><a xlink:href="pqlib__afe_8h.html" target="_top" xlink:title=" ">
<polygon fill="white" stroke="#666666" points="526.5,-211.5 352.5,-211.5 352.5,-170.5 526.5,-170.5 526.5,-211.5"/>
<text text-anchor="start" x="360.5" y="-199.5" font-family="Helvetica,sans-Serif" font-size="10.00">/home/runner/work/no</text>
<text text-anchor="start" x="360.5" y="-188.5" font-family="Helvetica,sans-Serif" font-size="10.00">&#45;OS/no&#45;OS/projects/eval</text>
<text text-anchor="middle" x="439.5" y="-177.5" font-family="Helvetica,sans-Serif" font-size="10.00">&#45;pqmon/src/common/pqlib_afe.h</text>
</a>
</g>
</g>
<!-- Node4&#45;&gt;Node7 -->
<g id="edge7_Node000004_Node000007" class="edge">
<title>Node4&#45;&gt;Node7</title>
<g id="a_edge7_Node000004_Node000007"><a xlink:title=" ">
<path fill="none" stroke="#63b8ff" d="M581.04,-254.42C550.54,-240.97 512.76,-224.31 483.91,-211.59"/>
<polygon fill="#63b8ff" stroke="#63b8ff" points="579.69,-257.65 590.25,-258.49 582.51,-251.25 579.69,-257.65"/>
</a>
</g>
</g>
<!-- Node7&#45;&gt;Node8 -->
<g id="edge8_Node000007_Node000008" class="edge">
<title>Node7&#45;&gt;Node8</title>
<g id="a_edge8_Node000007_Node000008"><a xlink:title=" ">
<path fill="none" stroke="#63b8ff" d="M523.93,-167.94C527.84,-166.94 531.71,-165.96 535.5,-165 583.68,-152.81 637.73,-139.52 680.89,-129.01"/>
<polygon fill="#63b8ff" stroke="#63b8ff" points="522.97,-164.58 514.16,-170.45 524.71,-171.36 522.97,-164.58"/>
</a>
</g>
</g>
<!-- Node10 -->
<g id="Node000010" class="node">
<title>Node10</title>
<g id="a_Node000010"><a xlink:href="pqlib__afe_8c.html" target="_top" xlink:title=" ">
<polygon fill="white" stroke="#666666" points="627,-46.5 454,-46.5 454,-5.5 627,-5.5 627,-46.5"/>
<text text-anchor="start" x="462" y="-34.5" font-family="Helvetica,sans-Serif" font-size="10.00">/home/runner/work/no</text>
<text text-anchor="start" x="462" y="-23.5" font-family="Helvetica,sans-Serif" font-size="10.00">&#45;OS/no&#45;OS/projects/eval</text>
<text text-anchor="middle" x="540.5" y="-12.5" font-family="Helvetica,sans-Serif" font-size="10.00">&#45;pqmon/src/common/pqlib_afe.c</text>
</a>
</g>
</g>
<!-- Node7&#45;&gt;Node10 -->
<g id="edge13_Node000007_Node000010" class="edge">
<title>Node7&#45;&gt;Node10</title>
<g id="a_edge13_Node000007_Node000010"><a xlink:title=" ">
<path fill="none" stroke="#63b8ff" d="M457.07,-161.64C477.45,-128.76 510.5,-75.41 528.27,-46.73"/>
<polygon fill="#63b8ff" stroke="#63b8ff" points="453.97,-159.99 451.68,-170.34 459.93,-163.68 453.97,-159.99"/>
</a>
</g>
</g>
<!-- Node8&#45;&gt;Node3 -->
<g id="edge9_Node000008_Node000003" class="edge">
<title>Node8&#45;&gt;Node3</title>
<g id="a_edge9_Node000008_Node000003"><a xlink:title=" ">
<path fill="none" stroke="#63b8ff" d="M762.97,-139.33C760.73,-191.28 749.54,-297 741.38,-340.8"/>
<polygon fill="#63b8ff" stroke="#63b8ff" points="766.47,-139.21 763.3,-129.1 759.48,-138.98 766.47,-139.21"/>
</a>
</g>
</g>
<!-- Node9 -->
<g id="Node000009" class="node">
<title>Node9</title>
<g id="a_Node000009"><a xlink:href="iio__pqm_8c.html" target="_top" xlink:title=" ">
<polygon fill="white" stroke="#666666" points="845,-46.5 678,-46.5 678,-5.5 845,-5.5 845,-46.5"/>
<text text-anchor="start" x="686" y="-34.5" font-family="Helvetica,sans-Serif" font-size="10.00">/home/runner/work/no</text>
<text text-anchor="start" x="686" y="-23.5" font-family="Helvetica,sans-Serif" font-size="10.00">&#45;OS/no&#45;OS/projects/eval</text>
<text text-anchor="middle" x="761.5" y="-12.5" font-family="Helvetica,sans-Serif" font-size="10.00">&#45;pqmon/src/common/iio_pqm.c</text>
</a>
</g>
</g>
<!-- Node8&#45;&gt;Node9 -->
<g id="edge10_Node000008_Node000009" class="edge">
<title>Node8&#45;&gt;Node9</title>
<g id="a_edge10_Node000008_Node000009"><a xlink:title=" ">
<path fill="none" stroke="#63b8ff" d="M761.5,-77.37C761.5,-67.1 761.5,-55.9 761.5,-46.67"/>
<polygon fill="#63b8ff" stroke="#63b8ff" points="758,-77.6 761.5,-87.6 765,-77.6 758,-77.6"/>
</a>
</g>
</g>
<!-- Node8&#45;&gt;Node10 -->
<g id="edge11_Node000008_Node000010" class="edge">
<title>Node8&#45;&gt;Node10</title>
<g id="a_edge11_Node000008_Node000010"><a xlink:title=" ">
<path fill="none" stroke="#63b8ff" d="M698.19,-84.44C665.29,-72.45 625.51,-57.97 594.14,-46.54"/>
<polygon fill="#63b8ff" stroke="#63b8ff" points="697.13,-87.78 707.72,-87.91 699.52,-81.2 697.13,-87.78"/>
</a>
</g>
</g>
<!-- Node8&#45;&gt;Node11 -->
<g id="edge12_Node000008_Node000011" class="edge">
<title>Node8&#45;&gt;Node11</title>
<g id="a_edge12_Node000008_Node000011"><a xlink:title=" ">
<path fill="none" stroke="#63b8ff" d="M840.74,-85.12C882.6,-73.3 933.59,-58.89 974.35,-47.38"/>
<polygon fill="#63b8ff" stroke="#63b8ff" points="839.53,-81.82 830.85,-87.91 841.43,-88.56 839.53,-81.82"/>
</a>
</g>
</g>
<!-- Node14&#45;&gt;Node2 -->
<g id="edge21_Node000014_Node000002" class="edge">
<title>Node14&#45;&gt;Node2</title>
<g id="a_edge21_Node000014_Node000002"><a xlink:title=" ">
<path fill="none" stroke="#63b8ff" d="M757.38,-442.77C608.14,-441.11 299.19,-431.57 205.5,-382 139.71,-347.19 112.94,-253.01 104.14,-211.78"/>
<polygon fill="#63b8ff" stroke="#63b8ff" points="757.37,-446.27 767.41,-442.87 757.44,-439.27 757.37,-446.27"/>
</a>
</g>
</g>
<!-- Node14&#45;&gt;Node3 -->
<g id="edge22_Node000014_Node000003" class="edge">
<title>Node14&#45;&gt;Node3</title>
<g id="a_edge22_Node000014_Node000003"><a xlink:title=" ">
<path fill="none" stroke="#63b8ff" d="M798.92,-411.59C786.1,-401.67 772.32,-391 760.88,-382.15"/>
<polygon fill="#63b8ff" stroke="#63b8ff" points="797.11,-414.62 807.16,-417.97 801.4,-409.08 797.11,-414.62"/>
</a>
</g>
</g>
<!-- Node14&#45;&gt;Node6 -->
<g id="edge23_Node000014_Node000006" class="edge">
<title>Node14&#45;&gt;Node6</title>
<g id="a_edge23_Node000014_Node000006"><a xlink:title=" ">
<path fill="none" stroke="#63b8ff" d="M843.88,-407.56C850.23,-356.12 861.85,-262.04 867.39,-217.14"/>
<polygon fill="#63b8ff" stroke="#63b8ff" points="840.4,-407.2 842.64,-417.55 847.34,-408.06 840.4,-407.2"/>
</a>
</g>
</g>
<!-- Node14&#45;&gt;Node7 -->
<g id="edge25_Node000014_Node000007" class="edge">
<title>Node14&#45;&gt;Node7</title>
<g id="a_edge25_Node000014_Node000007"><a xlink:title=" ">
<path fill="none" stroke="#63b8ff" d="M757.38,-438.94C592.94,-428.9 232.51,-396.7 157.5,-305 99.56,-234.17 249.69,-207.44 352.46,-197.57"/>
<polygon fill="#63b8ff" stroke="#63b8ff" points="757.26,-442.43 767.45,-439.54 757.68,-435.45 757.26,-442.43"/>
</a>
</g>
</g>
<!-- Node14&#45;&gt;Node8 -->
<g id="edge24_Node000014_Node000008" class="edge">
<title>Node14&#45;&gt;Node8</title>
<g id="a_edge24_Node000014_Node000008"><a xlink:title=" ">
<path fill="none" stroke="#63b8ff" d="M871.88,-410.43C922.49,-355.51 1008.8,-242.88 950.5,-165 937.33,-147.41 889.76,-133.5 845.65,-124"/>
<polygon fill="#63b8ff" stroke="#63b8ff" points="869.27,-408.09 864.99,-417.78 874.38,-412.87 869.27,-408.09"/>
</a>
</g>
</g>
<!-- Node14&#45;&gt;Node11 -->
<g id="edge26_Node000014_Node000011" class="edge">
<title>Node14&#45;&gt;Node11</title>
<g id="a_edge26_Node000014_Node000011"><a xlink:title=" ">
<path fill="none" stroke="#63b8ff" d="M921.17,-415.63C979.07,-390.48 1046.5,-346.84 1046.5,-280 1046.5,-280 1046.5,-280 1046.5,-190 1046.5,-141.18 1046.5,-84.15 1046.5,-52.13"/>
<polygon fill="#63b8ff" stroke="#63b8ff" points="919.47,-412.55 911.61,-419.66 922.18,-419 919.47,-412.55"/>
</a>
</g>
</g>
</g>
</svg>

<g id="navigator" transform="translate(0 0)" fill="#404254">
  <rect fill="#f2f5e9" fill-opacity="0.5" stroke="#606060" stroke-width=".5" x="0" y="0" width="60" height="60"/>
  <use id="zoomplus" xlink:href="#zoomPlus" x="17" y="9" onmousedown="handleZoom(evt,'in')"/>
  <use id="zoomminus" xlink:href="#zoomMin" x="42" y="9" onmousedown="handleZoom(evt,'out')"/>
  <use id="reset" xlink:href="#resetDef" x="30" y="36" onmousedown="handleReset()"/>
   <use id="arrowup" xlink:href="#arrowUp" x="0" y="0" onmousedown="handlePan(0,-1)"/>
  <use id="arrowright" xlink:href="#arrowRight" x="0" y="0" onmousedown="handlePan(1,0)"/>
  <use id="arrowdown" xlink:href="#arrowDown" x="0" y="0" onmousedown="handlePan(0,1)"/>
  <use id="arrowleft" xlink:href="#arrowLeft" x="0" y="0" onmousedown="handlePan(-1,0)"/>
</g>
<svg viewBox="0 0 15 15" width="100%" height="30px" preserveAspectRatio="xMaxYMin meet">
 <g id="arrow_out" transform="scale(0.3 0.3)">
  <a xlink:href="afe__calibration_8h__dep__incl_org.svg" target="_base">
   <rect id="button" ry="5" rx="5" y="6" x="6" height="38" width="38"
        fill="#f2f5e9" fill-opacity="0.5" stroke="#606060" stroke-width="1.0"/>
   <path id="arrow"
     d="M 11.500037,31.436501 C 11.940474,20.09759 22.043105,11.32322 32.158766,21.979434 L 37.068811,17.246167 C 37.068811,17.246167 37.088388,32 37.088388,32 L 22.160133,31.978069 C 22.160133,31.978069 26.997745,27.140456 26.997745,27.140456 C 18.528582,18.264221 13.291696,25.230495 11.500037,31.436501 z"
     style="fill:#404040;"/>
  </a>
 </g>
</svg>

<style type='text/css'>
<![CDATA[
[data-mouse-over-selected='false'] { opacity: 0.7; }
[data-mouse-over-selected='true']  { opacity: 1.0; }
]]>
</style>
<script type="application/ecmascript"><![CDATA[
document.addEventListener('DOMContentLoaded', (event) => {
  highlightEdges();
  highlightAdjacentNodes();
});
]]></script>
</svg>
