<?xml version="1.0" encoding="UTF-8" standalone="no"?>
<!DOCTYPE svg PUBLIC "-//W3C//DTD SVG 1.1//EN"
 "http://www.w3.org/Graphics/SVG/1.1/DTD/svg11.dtd">
<!-- Generated by graphviz version 2.43.0 (0)
 -->
<!-- Title: /home/runner/work/no&#45;OS/no&#45;OS/projects/adrv9009/src/app/app_transceiver.c Pages: 1 -->
<svg width="855pt" height="269pt"
 viewBox="0.00 0.00 854.50 269.00" xmlns="http://www.w3.org/2000/svg" xmlns:xlink="http://www.w3.org/1999/xlink">
<g id="graph0" class="graph" transform="scale(1 1) rotate(0) translate(4 265)">
<title>/home/runner/work/no&#45;OS/no&#45;OS/projects/adrv9009/src/app/app_transceiver.c</title>
<!-- Node1 -->
<g id="Node000001" class="node">
<title>Node1</title>
<g id="a_Node000001"><a xlink:title="FPGA XCVR setup and initialization routines.">
<polygon fill="#999999" stroke="#666666" points="423,-261 266,-261 266,-220 423,-220 423,-261"/>
<text text-anchor="start" x="274" y="-249" font-family="Helvetica,sans-Serif" font-size="10.00">/home/runner/work/no</text>
<text text-anchor="start" x="274" y="-238" font-family="Helvetica,sans-Serif" font-size="10.00">&#45;OS/no&#45;OS/projects/adrv9009</text>
<text text-anchor="middle" x="344.5" y="-227" font-family="Helvetica,sans-Serif" font-size="10.00">/src/app/app_transceiver.c</text>
</a>
</g>
</g>
<!-- Node2 -->
<g id="Node000002" class="node">
<title>Node2</title>
<g id="a_Node000002"><a xlink:title=" ">
<polygon fill="#e0e0e0" stroke="#999999" points="53,-184 0,-184 0,-165 53,-165 53,-184"/>
<text text-anchor="middle" x="26.5" y="-172" font-family="Helvetica,sans-Serif" font-size="10.00">string.h</text>
</a>
</g>
</g>
<!-- Node1&#45;&gt;Node2 -->
<g id="edge1_Node000001_Node000002" class="edge">
<title>Node1&#45;&gt;Node2</title>
<g id="a_edge1_Node000001_Node000002"><a xlink:title=" ">
<path fill="none" stroke="#63b8ff" d="M265.93,-224.86C211.71,-214.56 137.71,-200.13 63.24,-184.09"/>
<polygon fill="#63b8ff" stroke="#63b8ff" points="63.72,-180.62 53.21,-181.92 62.25,-187.46 63.72,-180.62"/>
</a>
</g>
</g>
<!-- Node3 -->
<g id="Node000003" class="node">
<title>Node3</title>
<g id="a_Node000003"><a xlink:title=" ">
<polygon fill="#e0e0e0" stroke="#999999" points="121.5,-184 71.5,-184 71.5,-165 121.5,-165 121.5,-184"/>
<text text-anchor="middle" x="96.5" y="-172" font-family="Helvetica,sans-Serif" font-size="10.00">stdio.h</text>
</a>
</g>
</g>
<!-- Node1&#45;&gt;Node3 -->
<g id="edge2_Node000001_Node000003" class="edge">
<title>Node1&#45;&gt;Node3</title>
<g id="a_edge2_Node000001_Node000003"><a xlink:title=" ">
<path fill="none" stroke="#63b8ff" d="M268.74,-219.95C223.11,-208.17 167.14,-193.73 131.64,-184.57"/>
<polygon fill="#63b8ff" stroke="#63b8ff" points="132.32,-181.13 121.76,-182.02 130.57,-187.91 132.32,-181.13"/>
</a>
</g>
</g>
<!-- Node4 -->
<g id="Node000004" class="node">
<title>Node4</title>
<g id="a_Node000004"><a xlink:title=" ">
<polygon fill="#e0e0e0" stroke="#999999" points="209,-19 156,-19 156,0 209,0 209,-19"/>
<text text-anchor="middle" x="182.5" y="-7" font-family="Helvetica,sans-Serif" font-size="10.00">stdlib.h</text>
</a>
</g>
</g>
<!-- Node1&#45;&gt;Node4 -->
<g id="edge3_Node000001_Node000004" class="edge">
<title>Node1&#45;&gt;Node4</title>
<g id="a_edge3_Node000001_Node000004"><a xlink:title=" ">
<path fill="none" stroke="#63b8ff" d="M310.44,-219.83C267.95,-193.07 197.38,-140.8 168.5,-74 162.14,-59.28 167.14,-41.35 172.86,-28.3"/>
<polygon fill="#63b8ff" stroke="#63b8ff" points="176.15,-29.56 177.4,-19.04 169.86,-26.48 176.15,-29.56"/>
</a>
</g>
</g>
<!-- Node5 -->
<g id="Node000005" class="node">
<title>Node5</title>
<g id="a_Node000005"><a xlink:title=" ">
<polygon fill="#e0e0e0" stroke="#999999" points="587.5,-19 525.5,-19 525.5,0 587.5,0 587.5,-19"/>
<text text-anchor="middle" x="556.5" y="-7" font-family="Helvetica,sans-Serif" font-size="10.00">stdbool.h</text>
</a>
</g>
</g>
<!-- Node1&#45;&gt;Node5 -->
<g id="edge4_Node000001_Node000005" class="edge">
<title>Node1&#45;&gt;Node5</title>
<g id="a_edge4_Node000001_Node000005"><a xlink:title=" ">
<path fill="none" stroke="#63b8ff" d="M408.13,-219.9C470.53,-196.64 561.03,-150.97 594.5,-74 601.97,-56.83 588.62,-38.63 575.73,-26.13"/>
<polygon fill="#63b8ff" stroke="#63b8ff" points="577.73,-23.23 567.96,-19.15 573.06,-28.44 577.73,-23.23"/>
</a>
</g>
</g>
<!-- Node6 -->
<g id="Node000006" class="node">
<title>Node6</title>
<g id="a_Node000006"><a xlink:href="no__os__error_8h.html" target="_top" xlink:title="Error codes definition.">
<polygon fill="white" stroke="#666666" points="746.5,-184 664.5,-184 664.5,-165 746.5,-165 746.5,-184"/>
<text text-anchor="middle" x="705.5" y="-172" font-family="Helvetica,sans-Serif" font-size="10.00">no_os_error.h</text>
</a>
</g>
</g>
<!-- Node1&#45;&gt;Node6 -->
<g id="edge5_Node000001_Node000006" class="edge">
<title>Node1&#45;&gt;Node6</title>
<g id="a_edge5_Node000001_Node000006"><a xlink:title=" ">
<path fill="none" stroke="#63b8ff" d="M423.28,-225.53C493.49,-213.09 594.18,-195.23 654.39,-184.56"/>
<polygon fill="#63b8ff" stroke="#63b8ff" points="655.18,-187.97 664.42,-182.78 653.96,-181.08 655.18,-187.97"/>
</a>
</g>
</g>
<!-- Node8 -->
<g id="Node000008" class="node">
<title>Node8</title>
<g id="a_Node000008"><a xlink:href="no__os__util_8h.html" target="_top" xlink:title="Header file of utility functions.">
<polygon fill="white" stroke="#666666" points="253,-74 178,-74 178,-55 253,-55 253,-74"/>
<text text-anchor="middle" x="215.5" y="-62" font-family="Helvetica,sans-Serif" font-size="10.00">no_os_util.h</text>
</a>
</g>
</g>
<!-- Node1&#45;&gt;Node8 -->
<g id="edge7_Node000001_Node000008" class="edge">
<title>Node1&#45;&gt;Node8</title>
<g id="a_edge7_Node000001_Node000008"><a xlink:title=" ">
<path fill="none" stroke="#63b8ff" d="M329.95,-219.88C304.42,-185.43 251.96,-114.68 227.97,-82.32"/>
<polygon fill="#63b8ff" stroke="#63b8ff" points="230.77,-80.22 222,-74.27 225.15,-84.39 230.77,-80.22"/>
</a>
</g>
</g>
<!-- Node10 -->
<g id="Node000010" class="node">
<title>Node10</title>
<g id="a_Node000010"><a xlink:href="axi__adxcvr_8h.html" target="_top" xlink:title="Driver for the ADI AXI&#45;ADXCVR Module.">
<polygon fill="white" stroke="#666666" points="526.5,-129 448.5,-129 448.5,-110 526.5,-110 526.5,-129"/>
<text text-anchor="middle" x="487.5" y="-117" font-family="Helvetica,sans-Serif" font-size="10.00">axi_adxcvr.h</text>
</a>
</g>
</g>
<!-- Node1&#45;&gt;Node10 -->
<g id="edge11_Node000001_Node000010" class="edge">
<title>Node1&#45;&gt;Node10</title>
<g id="a_edge11_Node000001_Node000010"><a xlink:title=" ">
<path fill="none" stroke="#63b8ff" d="M373.3,-219.78C387.8,-209.53 405.44,-196.55 420.5,-184 438.85,-168.71 458.55,-149.69 471.8,-136.48"/>
<polygon fill="#63b8ff" stroke="#63b8ff" points="474.58,-138.64 479.15,-129.08 469.62,-133.71 474.58,-138.64"/>
</a>
</g>
</g>
<!-- Node12 -->
<g id="Node000012" class="node">
<title>Node12</title>
<g id="a_Node000012"><a xlink:title=" ">
<polygon fill="#e0e0e0" stroke="#999999" points="846.5,-184 764.5,-184 764.5,-165 846.5,-165 846.5,-184"/>
<text text-anchor="middle" x="805.5" y="-172" font-family="Helvetica,sans-Serif" font-size="10.00">parameters.h</text>
</a>
</g>
</g>
<!-- Node1&#45;&gt;Node12 -->
<g id="edge17_Node000001_Node000012" class="edge">
<title>Node1&#45;&gt;Node12</title>
<g id="a_edge17_Node000001_Node000012"><a xlink:title=" ">
<path fill="none" stroke="#63b8ff" d="M423.02,-229.71C503.56,-219.48 632.71,-202.57 754.1,-184.17"/>
<polygon fill="#63b8ff" stroke="#63b8ff" points="754.96,-187.58 764.32,-182.62 753.9,-180.66 754.96,-187.58"/>
</a>
</g>
</g>
<!-- Node13 -->
<g id="Node000013" class="node">
<title>Node13</title>
<g id="a_Node000013"><a xlink:href="adi__hal_8h.html" target="_top" xlink:title="Contains Talise ADI HAL function prototypes type definitions for adi_hal.c.">
<polygon fill="white" stroke="#666666" points="344,-129 283,-129 283,-110 344,-110 344,-129"/>
<text text-anchor="middle" x="313.5" y="-117" font-family="Helvetica,sans-Serif" font-size="10.00">adi_hal.h</text>
</a>
</g>
</g>
<!-- Node1&#45;&gt;Node13 -->
<g id="edge18_Node000001_Node000013" class="edge">
<title>Node1&#45;&gt;Node13</title>
<g id="a_edge18_Node000001_Node000013"><a xlink:title=" ">
<path fill="none" stroke="#63b8ff" d="M339.38,-219.85C333.53,-197.37 324.01,-160.86 318.3,-138.91"/>
<polygon fill="#63b8ff" stroke="#63b8ff" points="321.67,-137.97 315.76,-129.18 314.89,-139.73 321.67,-137.97"/>
</a>
</g>
</g>
<!-- Node15 -->
<g id="Node000015" class="node">
<title>Node15</title>
<g id="a_Node000015"><a xlink:href="adrv9009_2src_2app_2app__jesd_8h.html" target="_top" xlink:title="JESD setup and initialization routines.">
<polygon fill="white" stroke="#666666" points="411,-184 342,-184 342,-165 411,-165 411,-184"/>
<text text-anchor="middle" x="376.5" y="-172" font-family="Helvetica,sans-Serif" font-size="10.00">app_jesd.h</text>
</a>
</g>
</g>
<!-- Node1&#45;&gt;Node15 -->
<g id="edge22_Node000001_Node000015" class="edge">
<title>Node1&#45;&gt;Node15</title>
<g id="a_edge22_Node000001_Node000015"><a xlink:title=" ">
<path fill="none" stroke="#63b8ff" d="M354.27,-219.95C358.51,-211.48 363.43,-201.64 367.57,-193.37"/>
<polygon fill="#63b8ff" stroke="#63b8ff" points="370.78,-194.77 372.12,-184.26 364.52,-191.64 370.78,-194.77"/>
</a>
</g>
</g>
<!-- Node7 -->
<g id="Node000007" class="node">
<title>Node7</title>
<g id="a_Node000007"><a xlink:href="errno_8h.html" target="_top" xlink:title="Error macro definition for ARM Compiler.">
<polygon fill="white" stroke="#666666" points="731,-129 680,-129 680,-110 731,-110 731,-129"/>
<text text-anchor="middle" x="705.5" y="-117" font-family="Helvetica,sans-Serif" font-size="10.00">errno.h</text>
</a>
</g>
</g>
<!-- Node6&#45;&gt;Node7 -->
<g id="edge6_Node000006_Node000007" class="edge">
<title>Node6&#45;&gt;Node7</title>
<g id="a_edge6_Node000006_Node000007"><a xlink:title=" ">
<path fill="none" stroke="#63b8ff" d="M705.5,-164.75C705.5,-157.8 705.5,-147.85 705.5,-139.13"/>
<polygon fill="#63b8ff" stroke="#63b8ff" points="709,-139.09 705.5,-129.09 702,-139.09 709,-139.09"/>
</a>
</g>
</g>
<!-- Node8&#45;&gt;Node4 -->
<g id="edge9_Node000008_Node000004" class="edge">
<title>Node8&#45;&gt;Node4</title>
<g id="a_edge9_Node000008_Node000004"><a xlink:title=" ">
<path fill="none" stroke="#63b8ff" d="M210.05,-54.75C205.49,-47.42 198.83,-36.73 193.21,-27.7"/>
<polygon fill="#63b8ff" stroke="#63b8ff" points="196.1,-25.73 187.85,-19.09 190.16,-29.43 196.1,-25.73"/>
</a>
</g>
</g>
<!-- Node8&#45;&gt;Node5 -->
<g id="edge10_Node000008_Node000005" class="edge">
<title>Node8&#45;&gt;Node5</title>
<g id="a_edge10_Node000008_Node000005"><a xlink:title=" ">
<path fill="none" stroke="#63b8ff" d="M253.14,-56.44C255.97,-55.94 258.78,-55.46 261.5,-55 351.91,-39.83 458.31,-24.37 515.37,-16.27"/>
<polygon fill="#63b8ff" stroke="#63b8ff" points="516.03,-19.71 525.44,-14.84 515.05,-12.78 516.03,-19.71"/>
</a>
</g>
</g>
<!-- Node9 -->
<g id="Node000009" class="node">
<title>Node9</title>
<g id="a_Node000009"><a xlink:title=" ">
<polygon fill="#e0e0e0" stroke="#999999" points="419,-19 366,-19 366,0 419,0 419,-19"/>
<text text-anchor="middle" x="392.5" y="-7" font-family="Helvetica,sans-Serif" font-size="10.00">stdint.h</text>
</a>
</g>
</g>
<!-- Node8&#45;&gt;Node9 -->
<g id="edge8_Node000008_Node000009" class="edge">
<title>Node8&#45;&gt;Node9</title>
<g id="a_edge8_Node000008_Node000009"><a xlink:title=" ">
<path fill="none" stroke="#63b8ff" d="M243.94,-54.98C274.4,-45.86 322.85,-31.36 356.08,-21.41"/>
<polygon fill="#63b8ff" stroke="#63b8ff" points="357.29,-24.7 365.87,-18.47 355.29,-17.99 357.29,-24.7"/>
</a>
</g>
</g>
<!-- Node10&#45;&gt;Node5 -->
<g id="edge13_Node000010_Node000005" class="edge">
<title>Node10&#45;&gt;Node5</title>
<g id="a_edge13_Node000010_Node000005"><a xlink:title=" ">
<path fill="none" stroke="#63b8ff" d="M526.81,-109.92C546.21,-103.48 567.91,-92.49 579.5,-74 588.61,-59.47 579.81,-40.82 570.58,-27.5"/>
<polygon fill="#63b8ff" stroke="#63b8ff" points="573.16,-25.11 564.34,-19.24 567.58,-29.33 573.16,-25.11"/>
</a>
</g>
</g>
<!-- Node10&#45;&gt;Node9 -->
<g id="edge12_Node000010_Node000009" class="edge">
<title>Node10&#45;&gt;Node9</title>
<g id="a_edge12_Node000010_Node000009"><a xlink:title=" ">
<path fill="none" stroke="#63b8ff" d="M479.73,-109.66C463.78,-91.54 427.17,-49.91 406.81,-26.77"/>
<polygon fill="#63b8ff" stroke="#63b8ff" points="409.35,-24.36 400.12,-19.16 404.09,-28.98 409.35,-24.36"/>
</a>
</g>
</g>
<!-- Node11 -->
<g id="Node000011" class="node">
<title>Node11</title>
<g id="a_Node000011"><a xlink:href="xilinx__transceiver_8h.html" target="_top" xlink:title="Driver for the Xilinx High&#45;speed transceiver dynamic reconfiguration.">
<polygon fill="white" stroke="#666666" points="570.5,-74 458.5,-74 458.5,-55 570.5,-55 570.5,-74"/>
<text text-anchor="middle" x="514.5" y="-62" font-family="Helvetica,sans-Serif" font-size="10.00">xilinx_transceiver.h</text>
</a>
</g>
</g>
<!-- Node10&#45;&gt;Node11 -->
<g id="edge14_Node000010_Node000011" class="edge">
<title>Node10&#45;&gt;Node11</title>
<g id="a_edge14_Node000010_Node000011"><a xlink:title=" ">
<path fill="none" stroke="#63b8ff" d="M491.96,-109.75C495.62,-102.57 500.91,-92.18 505.45,-83.27"/>
<polygon fill="#63b8ff" stroke="#63b8ff" points="508.7,-84.59 510.12,-74.09 502.47,-81.41 508.7,-84.59"/>
</a>
</g>
</g>
<!-- Node11&#45;&gt;Node5 -->
<g id="edge16_Node000011_Node000005" class="edge">
<title>Node11&#45;&gt;Node5</title>
<g id="a_edge16_Node000011_Node000005"><a xlink:title=" ">
<path fill="none" stroke="#63b8ff" d="M521.44,-54.75C527.37,-47.26 536.07,-36.28 543.32,-27.13"/>
<polygon fill="#63b8ff" stroke="#63b8ff" points="546.23,-29.1 549.69,-19.09 540.74,-24.75 546.23,-29.1"/>
</a>
</g>
</g>
<!-- Node11&#45;&gt;Node9 -->
<g id="edge15_Node000011_Node000009" class="edge">
<title>Node11&#45;&gt;Node9</title>
<g id="a_edge15_Node000011_Node000009"><a xlink:title=" ">
<path fill="none" stroke="#63b8ff" d="M494.9,-54.98C475.18,-46.42 444.55,-33.11 421.92,-23.28"/>
<polygon fill="#63b8ff" stroke="#63b8ff" points="423.02,-19.94 412.46,-19.17 420.24,-26.37 423.02,-19.94"/>
</a>
</g>
</g>
<!-- Node13&#45;&gt;Node8 -->
<g id="edge21_Node000013_Node000008" class="edge">
<title>Node13&#45;&gt;Node8</title>
<g id="a_edge21_Node000013_Node000008"><a xlink:title=" ">
<path fill="none" stroke="#63b8ff" d="M297.75,-109.98C282.27,-101.61 258.41,-88.7 240.36,-78.95"/>
<polygon fill="#63b8ff" stroke="#63b8ff" points="241.99,-75.85 231.53,-74.17 238.66,-82.01 241.99,-75.85"/>
</a>
</g>
</g>
<!-- Node13&#45;&gt;Node9 -->
<g id="edge19_Node000013_Node000009" class="edge">
<title>Node13&#45;&gt;Node9</title>
<g id="a_edge19_Node000013_Node000009"><a xlink:title=" ">
<path fill="none" stroke="#63b8ff" d="M319.96,-109.66C333.11,-91.69 363.14,-50.64 380.15,-27.38"/>
<polygon fill="#63b8ff" stroke="#63b8ff" points="383.09,-29.3 386.17,-19.16 377.44,-25.16 383.09,-29.3"/>
</a>
</g>
</g>
<!-- Node14 -->
<g id="Node000014" class="node">
<title>Node14</title>
<g id="a_Node000014"><a xlink:title=" ">
<polygon fill="#e0e0e0" stroke="#999999" points="326.5,-74 270.5,-74 270.5,-55 326.5,-55 326.5,-74"/>
<text text-anchor="middle" x="298.5" y="-62" font-family="Helvetica,sans-Serif" font-size="10.00">stddef.h</text>
</a>
</g>
</g>
<!-- Node13&#45;&gt;Node14 -->
<g id="edge20_Node000013_Node000014" class="edge">
<title>Node13&#45;&gt;Node14</title>
<g id="a_edge20_Node000013_Node000014"><a xlink:title=" ">
<path fill="none" stroke="#63b8ff" d="M311.02,-109.75C309.04,-102.72 306.18,-92.62 303.69,-83.84"/>
<polygon fill="#63b8ff" stroke="#63b8ff" points="307.02,-82.76 300.93,-74.09 300.29,-84.66 307.02,-82.76"/>
</a>
</g>
</g>
<!-- Node15&#45;&gt;Node9 -->
<g id="edge23_Node000015_Node000009" class="edge">
<title>Node15&#45;&gt;Node9</title>
<g id="a_edge23_Node000015_Node000009"><a xlink:title=" ">
<path fill="none" stroke="#63b8ff" d="M377.36,-164.74C379.86,-139.31 387.14,-65.08 390.62,-29.69"/>
<polygon fill="#63b8ff" stroke="#63b8ff" points="394.14,-29.6 391.64,-19.31 387.18,-28.92 394.14,-29.6"/>
</a>
</g>
</g>
<!-- Node15&#45;&gt;Node13 -->
<g id="edge24_Node000015_Node000013" class="edge">
<title>Node15&#45;&gt;Node13</title>
<g id="a_edge24_Node000015_Node000013"><a xlink:title=" ">
<path fill="none" stroke="#63b8ff" d="M366.38,-164.98C357.06,-157.15 343.03,-145.34 331.76,-135.86"/>
<polygon fill="#63b8ff" stroke="#63b8ff" points="333.71,-132.93 323.81,-129.17 329.21,-138.29 333.71,-132.93"/>
</a>
</g>
</g>
</g>
</svg>
