<?xml version="1.0" encoding="UTF-8" standalone="no"?>
<!DOCTYPE svg PUBLIC "-//W3C//DTD SVG 1.1//EN"
 "http://www.w3.org/Graphics/SVG/1.1/DTD/svg11.dtd">
<!-- Generated by graphviz version 2.43.0 (0)
 -->
<!-- Title: /home/runner/work/no&#45;OS/no&#45;OS/projects/adrv9009/src/app/app_talise.h Pages: 1 -->
<svg width="300pt" height="214pt"
 viewBox="0.00 0.00 299.50 214.00" xmlns="http://www.w3.org/2000/svg" xmlns:xlink="http://www.w3.org/1999/xlink">
<g id="graph0" class="graph" transform="scale(1 1) rotate(0) translate(4 210)">
<title>/home/runner/work/no&#45;OS/no&#45;OS/projects/adrv9009/src/app/app_talise.h</title>
<!-- Node1 -->
<g id="Node000001" class="node">
<title>Node1</title>
<g id="a_Node000001"><a xlink:title="Talise initialization and control routines.">
<polygon fill="#999999" stroke="#666666" points="157,-206 0,-206 0,-165 157,-165 157,-206"/>
<text text-anchor="start" x="8" y="-194" font-family="Helvetica,sans-Serif" font-size="10.00">/home/runner/work/no</text>
<text text-anchor="start" x="8" y="-183" font-family="Helvetica,sans-Serif" font-size="10.00">&#45;OS/no&#45;OS/projects/adrv9009</text>
<text text-anchor="middle" x="78.5" y="-172" font-family="Helvetica,sans-Serif" font-size="10.00">/src/app/app_talise.h</text>
</a>
</g>
</g>
<!-- Node2 -->
<g id="Node000002" class="node">
<title>Node2</title>
<g id="a_Node000002"><a xlink:title=" ">
<polygon fill="#e0e0e0" stroke="#999999" points="106,-19 53,-19 53,0 106,0 106,-19"/>
<text text-anchor="middle" x="79.5" y="-7" font-family="Helvetica,sans-Serif" font-size="10.00">stdint.h</text>
</a>
</g>
</g>
<!-- Node1&#45;&gt;Node2 -->
<g id="edge1_Node000001_Node000002" class="edge">
<title>Node1&#45;&gt;Node2</title>
<g id="a_edge1_Node000001_Node000002"><a xlink:title=" ">
<path fill="none" stroke="#63b8ff" d="M53.08,-164.88C42.76,-155.32 31.98,-142.88 26.5,-129 23.4,-121.15 24.45,-118.19 26.5,-110 34.32,-78.67 54.08,-46.39 67.14,-27.4"/>
<polygon fill="#63b8ff" stroke="#63b8ff" points="70.01,-29.4 72.93,-19.21 64.3,-25.36 70.01,-29.4"/>
</a>
</g>
</g>
<!-- Node3 -->
<g id="Node000003" class="node">
<title>Node3</title>
<g id="a_Node000003"><a xlink:title=" ">
<polygon fill="#e0e0e0" stroke="#999999" points="121,-129 36,-129 36,-110 121,-110 121,-129"/>
<text text-anchor="middle" x="78.5" y="-117" font-family="Helvetica,sans-Serif" font-size="10.00">talise_types.h</text>
</a>
</g>
</g>
<!-- Node1&#45;&gt;Node3 -->
<g id="edge2_Node000001_Node000003" class="edge">
<title>Node1&#45;&gt;Node3</title>
<g id="a_edge2_Node000001_Node000003"><a xlink:title=" ">
<path fill="none" stroke="#63b8ff" d="M78.5,-164.95C78.5,-156.85 78.5,-147.5 78.5,-139.47"/>
<polygon fill="#63b8ff" stroke="#63b8ff" points="82,-139.26 78.5,-129.26 75,-139.26 82,-139.26"/>
</a>
</g>
</g>
<!-- Node4 -->
<g id="Node000004" class="node">
<title>Node4</title>
<g id="a_Node000004"><a xlink:href="adi__hal_8h.html" target="_top" xlink:title="Contains Talise ADI HAL function prototypes type definitions for adi_hal.c.">
<polygon fill="white" stroke="#666666" points="200,-129 139,-129 139,-110 200,-110 200,-129"/>
<text text-anchor="middle" x="169.5" y="-117" font-family="Helvetica,sans-Serif" font-size="10.00">adi_hal.h</text>
</a>
</g>
</g>
<!-- Node1&#45;&gt;Node4 -->
<g id="edge3_Node000001_Node000004" class="edge">
<title>Node1&#45;&gt;Node4</title>
<g id="a_edge3_Node000001_Node000004"><a xlink:title=" ">
<path fill="none" stroke="#63b8ff" d="M106.3,-164.95C119.92,-155.37 136.06,-144.02 148.62,-135.19"/>
<polygon fill="#63b8ff" stroke="#63b8ff" points="150.88,-137.88 157.04,-129.26 146.85,-132.15 150.88,-137.88"/>
</a>
</g>
</g>
<!-- Node4&#45;&gt;Node2 -->
<g id="edge4_Node000004_Node000002" class="edge">
<title>Node4&#45;&gt;Node2</title>
<g id="a_edge4_Node000004_Node000002"><a xlink:title=" ">
<path fill="none" stroke="#63b8ff" d="M147.91,-109.97C132.07,-102.66 111.19,-90.67 98.5,-74 88.59,-60.98 83.82,-42.84 81.55,-29.27"/>
<polygon fill="#63b8ff" stroke="#63b8ff" points="84.99,-28.61 80.16,-19.17 78.06,-29.56 84.99,-28.61"/>
</a>
</g>
</g>
<!-- Node5 -->
<g id="Node000005" class="node">
<title>Node5</title>
<g id="a_Node000005"><a xlink:title=" ">
<polygon fill="#e0e0e0" stroke="#999999" points="163.5,-74 107.5,-74 107.5,-55 163.5,-55 163.5,-74"/>
<text text-anchor="middle" x="135.5" y="-62" font-family="Helvetica,sans-Serif" font-size="10.00">stddef.h</text>
</a>
</g>
</g>
<!-- Node4&#45;&gt;Node5 -->
<g id="edge5_Node000004_Node000005" class="edge">
<title>Node4&#45;&gt;Node5</title>
<g id="a_edge5_Node000004_Node000005"><a xlink:title=" ">
<path fill="none" stroke="#63b8ff" d="M163.89,-109.75C159.18,-102.42 152.33,-91.73 146.53,-82.7"/>
<polygon fill="#63b8ff" stroke="#63b8ff" points="149.36,-80.62 141.01,-74.09 143.46,-84.4 149.36,-80.62"/>
</a>
</g>
</g>
<!-- Node6 -->
<g id="Node000006" class="node">
<title>Node6</title>
<g id="a_Node000006"><a xlink:href="no__os__util_8h.html" target="_top" xlink:title="Header file of utility functions.">
<polygon fill="white" stroke="#666666" points="257,-74 182,-74 182,-55 257,-55 257,-74"/>
<text text-anchor="middle" x="219.5" y="-62" font-family="Helvetica,sans-Serif" font-size="10.00">no_os_util.h</text>
</a>
</g>
</g>
<!-- Node4&#45;&gt;Node6 -->
<g id="edge6_Node000004_Node000006" class="edge">
<title>Node4&#45;&gt;Node6</title>
<g id="a_edge6_Node000004_Node000006"><a xlink:title=" ">
<path fill="none" stroke="#63b8ff" d="M177.76,-109.75C184.96,-102.11 195.61,-90.82 204.35,-81.56"/>
<polygon fill="#63b8ff" stroke="#63b8ff" points="207.08,-83.76 211.4,-74.09 201.99,-78.96 207.08,-83.76"/>
</a>
</g>
</g>
<!-- Node6&#45;&gt;Node2 -->
<g id="edge7_Node000006_Node000002" class="edge">
<title>Node6&#45;&gt;Node2</title>
<g id="a_edge7_Node000006_Node000002"><a xlink:title=" ">
<path fill="none" stroke="#63b8ff" d="M197.01,-54.98C173.98,-46.27 137.96,-32.63 111.87,-22.75"/>
<polygon fill="#63b8ff" stroke="#63b8ff" points="112.99,-19.44 102.4,-19.17 110.52,-25.98 112.99,-19.44"/>
</a>
</g>
</g>
<!-- Node7 -->
<g id="Node000007" class="node">
<title>Node7</title>
<g id="a_Node000007"><a xlink:title=" ">
<polygon fill="#e0e0e0" stroke="#999999" points="211,-19 158,-19 158,0 211,0 211,-19"/>
<text text-anchor="middle" x="184.5" y="-7" font-family="Helvetica,sans-Serif" font-size="10.00">stdlib.h</text>
</a>
</g>
</g>
<!-- Node6&#45;&gt;Node7 -->
<g id="edge8_Node000006_Node000007" class="edge">
<title>Node6&#45;&gt;Node7</title>
<g id="a_edge8_Node000006_Node000007"><a xlink:title=" ">
<path fill="none" stroke="#63b8ff" d="M213.72,-54.75C208.88,-47.42 201.82,-36.73 195.86,-27.7"/>
<polygon fill="#63b8ff" stroke="#63b8ff" points="198.6,-25.5 190.17,-19.09 192.76,-29.36 198.6,-25.5"/>
</a>
</g>
</g>
<!-- Node8 -->
<g id="Node000008" class="node">
<title>Node8</title>
<g id="a_Node000008"><a xlink:title=" ">
<polygon fill="#e0e0e0" stroke="#999999" points="291.5,-19 229.5,-19 229.5,0 291.5,0 291.5,-19"/>
<text text-anchor="middle" x="260.5" y="-7" font-family="Helvetica,sans-Serif" font-size="10.00">stdbool.h</text>
</a>
</g>
</g>
<!-- Node6&#45;&gt;Node8 -->
<g id="edge9_Node000006_Node000008" class="edge">
<title>Node6&#45;&gt;Node8</title>
<g id="a_edge9_Node000006_Node000008"><a xlink:title=" ">
<path fill="none" stroke="#63b8ff" d="M226.27,-54.75C232.06,-47.26 240.56,-36.28 247.64,-27.13"/>
<polygon fill="#63b8ff" stroke="#63b8ff" points="250.51,-29.14 253.86,-19.09 244.97,-24.86 250.51,-29.14"/>
</a>
</g>
</g>
</g>
</svg>
