<?xml version="1.0" encoding="UTF-8" standalone="no"?>
<!DOCTYPE svg PUBLIC "-//W3C//DTD SVG 1.1//EN"
 "http://www.w3.org/Graphics/SVG/1.1/DTD/svg11.dtd">
<!-- Generated by graphviz version 2.43.0 (0)
 -->
<!-- Title: /home/runner/work/no&#45;OS/no&#45;OS/projects/adrv9009/src/app/app_talise.h Pages: 1 -->
<svg width="515pt" height="126pt"
 viewBox="0.00 0.00 515.00 126.00" xmlns="http://www.w3.org/2000/svg" xmlns:xlink="http://www.w3.org/1999/xlink">
<g id="graph0" class="graph" transform="scale(1 1) rotate(0) translate(4 122)">
<title>/home/runner/work/no&#45;OS/no&#45;OS/projects/adrv9009/src/app/app_talise.h</title>
<!-- Node1 -->
<g id="Node000001" class="node">
<title>Node1</title>
<g id="a_Node000001"><a xlink:title="Talise initialization and control routines.">
<polygon fill="#999999" stroke="#666666" points="332,-118 175,-118 175,-77 332,-77 332,-118"/>
<text text-anchor="start" x="183" y="-106" font-family="Helvetica,sans-Serif" font-size="10.00">/home/runner/work/no</text>
<text text-anchor="start" x="183" y="-95" font-family="Helvetica,sans-Serif" font-size="10.00">&#45;OS/no&#45;OS/projects/adrv9009</text>
<text text-anchor="middle" x="253.5" y="-84" font-family="Helvetica,sans-Serif" font-size="10.00">/src/app/app_talise.h</text>
</a>
</g>
</g>
<!-- Node2 -->
<g id="Node000002" class="node">
<title>Node2</title>
<g id="a_Node000002"><a xlink:href="adrv9009_2src_2app_2app__clocking_8c.html" target="_top" xlink:title="Clock setup and initialization routines.">
<polygon fill="white" stroke="#666666" points="157,-41 0,-41 0,0 157,0 157,-41"/>
<text text-anchor="start" x="8" y="-29" font-family="Helvetica,sans-Serif" font-size="10.00">/home/runner/work/no</text>
<text text-anchor="start" x="8" y="-18" font-family="Helvetica,sans-Serif" font-size="10.00">&#45;OS/no&#45;OS/projects/adrv9009</text>
<text text-anchor="middle" x="78.5" y="-7" font-family="Helvetica,sans-Serif" font-size="10.00">/src/app/app_clocking.c</text>
</a>
</g>
</g>
<!-- Node1&#45;&gt;Node2 -->
<g id="edge1_Node000001_Node000002" class="edge">
<title>Node1&#45;&gt;Node2</title>
<g id="a_edge1_Node000001_Node000002"><a xlink:title=" ">
<path fill="none" stroke="#63b8ff" d="M198.66,-73C174.69,-62.72 146.91,-50.82 124.1,-41.04"/>
<polygon fill="#63b8ff" stroke="#63b8ff" points="197.41,-76.27 207.98,-76.99 200.16,-69.83 197.41,-76.27"/>
</a>
</g>
</g>
<!-- Node3 -->
<g id="Node000003" class="node">
<title>Node3</title>
<g id="a_Node000003"><a xlink:href="app__talise_8c.html" target="_top" xlink:title="Talise initialization and control routines.">
<polygon fill="white" stroke="#666666" points="332,-41 175,-41 175,0 332,0 332,-41"/>
<text text-anchor="start" x="183" y="-29" font-family="Helvetica,sans-Serif" font-size="10.00">/home/runner/work/no</text>
<text text-anchor="start" x="183" y="-18" font-family="Helvetica,sans-Serif" font-size="10.00">&#45;OS/no&#45;OS/projects/adrv9009</text>
<text text-anchor="middle" x="253.5" y="-7" font-family="Helvetica,sans-Serif" font-size="10.00">/src/app/app_talise.c</text>
</a>
</g>
</g>
<!-- Node1&#45;&gt;Node3 -->
<g id="edge2_Node000001_Node000003" class="edge">
<title>Node1&#45;&gt;Node3</title>
<g id="a_edge2_Node000001_Node000003"><a xlink:title=" ">
<path fill="none" stroke="#63b8ff" d="M253.5,-66.69C253.5,-58.08 253.5,-48.9 253.5,-41.07"/>
<polygon fill="#63b8ff" stroke="#63b8ff" points="250,-66.79 253.5,-76.79 257,-66.79 250,-66.79"/>
</a>
</g>
</g>
<!-- Node4 -->
<g id="Node000004" class="node">
<title>Node4</title>
<g id="a_Node000004"><a xlink:href="headless__arm_8c.html" target="_top" xlink:title="Contains example code for user integration with their application. This file contains code for ARM.">
<polygon fill="white" stroke="#666666" points="507,-41 350,-41 350,0 507,0 507,-41"/>
<text text-anchor="start" x="358" y="-29" font-family="Helvetica,sans-Serif" font-size="10.00">/home/runner/work/no</text>
<text text-anchor="start" x="358" y="-18" font-family="Helvetica,sans-Serif" font-size="10.00">&#45;OS/no&#45;OS/projects/adrv9009</text>
<text text-anchor="middle" x="428.5" y="-7" font-family="Helvetica,sans-Serif" font-size="10.00">/src/app/headless_arm.c</text>
</a>
</g>
</g>
<!-- Node1&#45;&gt;Node4 -->
<g id="edge3_Node000001_Node000004" class="edge">
<title>Node1&#45;&gt;Node4</title>
<g id="a_edge3_Node000001_Node000004"><a xlink:title=" ">
<path fill="none" stroke="#63b8ff" d="M308.34,-73C332.31,-62.72 360.09,-50.82 382.9,-41.04"/>
<polygon fill="#63b8ff" stroke="#63b8ff" points="306.84,-69.83 299.02,-76.99 309.59,-76.27 306.84,-69.83"/>
</a>
</g>
</g>
</g>
</svg>
