<?xml version="1.0" encoding="UTF-8" standalone="no"?>
<!DOCTYPE svg PUBLIC "-//W3C//DTD SVG 1.1//EN"
 "http://www.w3.org/Graphics/SVG/1.1/DTD/svg11.dtd">
<!-- Generated by graphviz version 2.43.0 (0)
 -->
<!-- Title: /home/runner/work/no&#45;OS/no&#45;OS/drivers/axi_core/axi_pwmgen/axi_pwm_extra.h Pages: 1 -->
<svg width="1879pt" height="236pt"
 viewBox="0.00 0.00 1878.50 236.00" xmlns="http://www.w3.org/2000/svg" xmlns:xlink="http://www.w3.org/1999/xlink">
<g id="graph0" class="graph" transform="scale(1 1) rotate(0) translate(4 232)">
<title>/home/runner/work/no&#45;OS/no&#45;OS/drivers/axi_core/axi_pwmgen/axi_pwm_extra.h</title>
<!-- Node1 -->
<g id="Node000001" class="node">
<title>Node1</title>
<g id="a_Node000001"><a xlink:title=" ">
<polygon fill="#999999" stroke="#666666" points="996.5,-228 841.5,-228 841.5,-176 996.5,-176 996.5,-228"/>
<text text-anchor="start" x="849.5" y="-216" font-family="Helvetica,sans-Serif" font-size="10.00">/home/runner/work/no</text>
<text text-anchor="start" x="849.5" y="-205" font-family="Helvetica,sans-Serif" font-size="10.00">&#45;OS/no&#45;OS/drivers/axi</text>
<text text-anchor="start" x="849.5" y="-194" font-family="Helvetica,sans-Serif" font-size="10.00">_core/axi_pwmgen/axi_pwm</text>
<text text-anchor="middle" x="919" y="-183" font-family="Helvetica,sans-Serif" font-size="10.00">_extra.h</text>
</a>
</g>
</g>
<!-- Node2 -->
<g id="Node000002" class="node">
<title>Node2</title>
<g id="a_Node000002"><a xlink:href="axi__pwm_8c.html" target="_top" xlink:title=" ">
<polygon fill="white" stroke="#666666" points="164,-134.5 0,-134.5 0,-93.5 164,-93.5 164,-134.5"/>
<text text-anchor="start" x="8" y="-122.5" font-family="Helvetica,sans-Serif" font-size="10.00">/home/runner/work/no</text>
<text text-anchor="start" x="8" y="-111.5" font-family="Helvetica,sans-Serif" font-size="10.00">&#45;OS/no&#45;OS/drivers/axi</text>
<text text-anchor="middle" x="82" y="-100.5" font-family="Helvetica,sans-Serif" font-size="10.00">_core/axi_pwmgen/axi_pwm.c</text>
</a>
</g>
</g>
<!-- Node1&#45;&gt;Node2 -->
<g id="edge1_Node000001_Node000002" class="edge">
<title>Node1&#45;&gt;Node2</title>
<g id="a_edge1_Node000001_Node000002"><a xlink:title=" ">
<path fill="none" stroke="#63b8ff" d="M831.08,-199.11C690.89,-194.91 408.48,-181.6 173,-140 164.61,-138.52 155.87,-136.61 147.28,-134.5"/>
<polygon fill="#63b8ff" stroke="#63b8ff" points="831.24,-202.62 841.34,-199.41 831.44,-195.62 831.24,-202.62"/>
</a>
</g>
</g>
<!-- Node3 -->
<g id="Node000003" class="node">
<title>Node3</title>
<g id="a_Node000003"><a xlink:href="ad463x__fmcz_2src_2platform_2xilinx_2parameters_8h.html" target="_top" xlink:title="Definitions specific to xilinx platform used by ad463x_fmcz project.">
<polygon fill="white" stroke="#666666" points="329.5,-140 182.5,-140 182.5,-88 329.5,-88 329.5,-140"/>
<text text-anchor="start" x="190.5" y="-128" font-family="Helvetica,sans-Serif" font-size="10.00">/home/runner/work/no</text>
<text text-anchor="start" x="190.5" y="-117" font-family="Helvetica,sans-Serif" font-size="10.00">&#45;OS/no&#45;OS/projects/ad463x</text>
<text text-anchor="start" x="190.5" y="-106" font-family="Helvetica,sans-Serif" font-size="10.00">_fmcz/src/platform/xilinx</text>
<text text-anchor="middle" x="256" y="-95" font-family="Helvetica,sans-Serif" font-size="10.00">/parameters.h</text>
</a>
</g>
</g>
<!-- Node1&#45;&gt;Node3 -->
<g id="edge2_Node000001_Node000003" class="edge">
<title>Node1&#45;&gt;Node3</title>
<g id="a_edge2_Node000001_Node000003"><a xlink:title=" ">
<path fill="none" stroke="#63b8ff" d="M831.11,-197.01C716.62,-190.63 510.71,-175.06 338,-140 335.23,-139.44 332.42,-138.82 329.59,-138.16"/>
<polygon fill="#63b8ff" stroke="#63b8ff" points="831.04,-200.51 841.22,-197.57 831.43,-193.52 831.04,-200.51"/>
</a>
</g>
</g>
<!-- Node5 -->
<g id="Node000005" class="node">
<title>Node5</title>
<g id="a_Node000005"><a xlink:href="ad469x__evb_2src_2platform_2xilinx_2parameters_8h.html" target="_top" xlink:title="Definitions specific to xilinx platform used by ad469x_evb project.">
<polygon fill="white" stroke="#666666" points="494.5,-140 347.5,-140 347.5,-88 494.5,-88 494.5,-140"/>
<text text-anchor="start" x="355.5" y="-128" font-family="Helvetica,sans-Serif" font-size="10.00">/home/runner/work/no</text>
<text text-anchor="start" x="355.5" y="-117" font-family="Helvetica,sans-Serif" font-size="10.00">&#45;OS/no&#45;OS/projects/ad469x</text>
<text text-anchor="start" x="355.5" y="-106" font-family="Helvetica,sans-Serif" font-size="10.00">_evb/src/platform/xilinx</text>
<text text-anchor="middle" x="421" y="-95" font-family="Helvetica,sans-Serif" font-size="10.00">/parameters.h</text>
</a>
</g>
</g>
<!-- Node1&#45;&gt;Node5 -->
<g id="edge4_Node000001_Node000005" class="edge">
<title>Node1&#45;&gt;Node5</title>
<g id="a_edge4_Node000001_Node000005"><a xlink:title=" ">
<path fill="none" stroke="#63b8ff" d="M831.22,-192.01C746.54,-182.43 615.07,-165.15 503,-140 500.24,-139.38 497.44,-138.72 494.62,-138.02"/>
<polygon fill="#63b8ff" stroke="#63b8ff" points="830.98,-195.51 841.31,-193.14 831.76,-188.55 830.98,-195.51"/>
</a>
</g>
</g>
<!-- Node7 -->
<g id="Node000007" class="node">
<title>Node7</title>
<g id="a_Node000007"><a xlink:href="ad713x__fmc_8c.html" target="_top" xlink:title="Implementation of Main Function.">
<polygon fill="white" stroke="#666666" points="659.5,-134.5 512.5,-134.5 512.5,-93.5 659.5,-93.5 659.5,-134.5"/>
<text text-anchor="start" x="520.5" y="-122.5" font-family="Helvetica,sans-Serif" font-size="10.00">/home/runner/work/no</text>
<text text-anchor="start" x="520.5" y="-111.5" font-family="Helvetica,sans-Serif" font-size="10.00">&#45;OS/no&#45;OS/projects/ad713x</text>
<text text-anchor="middle" x="586" y="-100.5" font-family="Helvetica,sans-Serif" font-size="10.00">_fmcz/src/ad713x_fmc.c</text>
</a>
</g>
</g>
<!-- Node1&#45;&gt;Node7 -->
<g id="edge6_Node000001_Node000007" class="edge">
<title>Node1&#45;&gt;Node7</title>
<g id="a_edge6_Node000001_Node000007"><a xlink:title=" ">
<path fill="none" stroke="#63b8ff" d="M831.44,-181.02C783.08,-169.66 722.02,-154.79 668,-140 661.83,-138.31 655.41,-136.48 649.02,-134.61"/>
<polygon fill="#63b8ff" stroke="#63b8ff" points="830.72,-184.45 841.25,-183.32 832.31,-177.63 830.72,-184.45"/>
</a>
</g>
</g>
<!-- Node8 -->
<g id="Node000008" class="node">
<title>Node8</title>
<g id="a_Node000008"><a xlink:href="ad738x__fmcz_2src_2platform_2xilinx_2parameters_8h.html" target="_top" xlink:title="Definitions specific to xilinx platform used by ad463x_fmcz project.">
<polygon fill="white" stroke="#666666" points="824.5,-140 677.5,-140 677.5,-88 824.5,-88 824.5,-140"/>
<text text-anchor="start" x="685.5" y="-128" font-family="Helvetica,sans-Serif" font-size="10.00">/home/runner/work/no</text>
<text text-anchor="start" x="685.5" y="-117" font-family="Helvetica,sans-Serif" font-size="10.00">&#45;OS/no&#45;OS/projects/ad738x</text>
<text text-anchor="start" x="685.5" y="-106" font-family="Helvetica,sans-Serif" font-size="10.00">_fmcz/src/platform/xilinx</text>
<text text-anchor="middle" x="751" y="-95" font-family="Helvetica,sans-Serif" font-size="10.00">/parameters.h</text>
</a>
</g>
</g>
<!-- Node1&#45;&gt;Node8 -->
<g id="edge7_Node000001_Node000008" class="edge">
<title>Node1&#45;&gt;Node8</title>
<g id="a_edge7_Node000001_Node000008"><a xlink:title=" ">
<path fill="none" stroke="#63b8ff" d="M861.01,-171.31C841.17,-161.16 819.18,-149.9 800.11,-140.14"/>
<polygon fill="#63b8ff" stroke="#63b8ff" points="859.46,-174.45 869.96,-175.89 862.65,-168.22 859.46,-174.45"/>
</a>
</g>
</g>
<!-- Node10 -->
<g id="Node000010" class="node">
<title>Node10</title>
<g id="a_Node000010"><a xlink:href="ad7606x-fmc_2src_2common__data_8c.html" target="_top" xlink:title="Definitions of initialization parameters common for all project variants.">
<polygon fill="white" stroke="#666666" points="995.5,-134.5 842.5,-134.5 842.5,-93.5 995.5,-93.5 995.5,-134.5"/>
<text text-anchor="start" x="850.5" y="-122.5" font-family="Helvetica,sans-Serif" font-size="10.00">/home/runner/work/no</text>
<text text-anchor="start" x="850.5" y="-111.5" font-family="Helvetica,sans-Serif" font-size="10.00">&#45;OS/no&#45;OS/projects/ad7606x</text>
<text text-anchor="middle" x="919" y="-100.5" font-family="Helvetica,sans-Serif" font-size="10.00">&#45;fmc/src/common_data.c</text>
</a>
</g>
</g>
<!-- Node1&#45;&gt;Node10 -->
<g id="edge9_Node000001_Node000010" class="edge">
<title>Node1&#45;&gt;Node10</title>
<g id="a_edge9_Node000001_Node000010"><a xlink:title=" ">
<path fill="none" stroke="#63b8ff" d="M919,-165.45C919,-154.94 919,-143.82 919,-134.7"/>
<polygon fill="#63b8ff" stroke="#63b8ff" points="915.5,-165.66 919,-175.66 922.5,-165.66 915.5,-165.66"/>
</a>
</g>
</g>
<!-- Node11 -->
<g id="Node000011" class="node">
<title>Node11</title>
<g id="a_Node000011"><a xlink:href="ad7616__sdz_8c.html" target="_top" xlink:title="Implementation of Main Function.">
<polygon fill="white" stroke="#666666" points="1160.5,-134.5 1013.5,-134.5 1013.5,-93.5 1160.5,-93.5 1160.5,-134.5"/>
<text text-anchor="start" x="1021.5" y="-122.5" font-family="Helvetica,sans-Serif" font-size="10.00">/home/runner/work/no</text>
<text text-anchor="start" x="1021.5" y="-111.5" font-family="Helvetica,sans-Serif" font-size="10.00">&#45;OS/no&#45;OS/projects/ad7616</text>
<text text-anchor="middle" x="1087" y="-100.5" font-family="Helvetica,sans-Serif" font-size="10.00">&#45;sdz/src/ad7616_sdz.c</text>
</a>
</g>
</g>
<!-- Node1&#45;&gt;Node11 -->
<g id="edge10_Node000001_Node000011" class="edge">
<title>Node1&#45;&gt;Node11</title>
<g id="a_edge10_Node000001_Node000011"><a xlink:title=" ">
<path fill="none" stroke="#63b8ff" d="M976.99,-171.32C1000.76,-159.15 1027.62,-145.4 1048.85,-134.53"/>
<polygon fill="#63b8ff" stroke="#63b8ff" points="975.35,-168.22 968.04,-175.89 978.54,-174.45 975.35,-168.22"/>
</a>
</g>
</g>
<!-- Node12 -->
<g id="Node000012" class="node">
<title>Node12</title>
<g id="a_Node000012"><a xlink:href="ad796x__fmcz_2src_2common_2common__data_8c.html" target="_top" xlink:title="Defines common data to be used by iio examples.">
<polygon fill="white" stroke="#666666" points="1369,-134.5 1179,-134.5 1179,-93.5 1369,-93.5 1369,-134.5"/>
<text text-anchor="start" x="1187" y="-122.5" font-family="Helvetica,sans-Serif" font-size="10.00">/home/runner/work/no</text>
<text text-anchor="start" x="1187" y="-111.5" font-family="Helvetica,sans-Serif" font-size="10.00">&#45;OS/no&#45;OS/projects/ad796x</text>
<text text-anchor="middle" x="1274" y="-100.5" font-family="Helvetica,sans-Serif" font-size="10.00">_fmcz/src/common/common_data.c</text>
</a>
</g>
</g>
<!-- Node1&#45;&gt;Node12 -->
<g id="edge11_Node000001_Node000012" class="edge">
<title>Node1&#45;&gt;Node12</title>
<g id="a_edge11_Node000001_Node000012"><a xlink:title=" ">
<path fill="none" stroke="#63b8ff" d="M1006.63,-179.77C1063.68,-165.95 1137.56,-148.05 1193.2,-134.57"/>
<polygon fill="#63b8ff" stroke="#63b8ff" points="1005.8,-176.37 996.91,-182.13 1007.45,-183.17 1005.8,-176.37"/>
</a>
</g>
</g>
<!-- Node13 -->
<g id="Node000013" class="node">
<title>Node13</title>
<g id="a_Node000013"><a xlink:href="adaq7980__sdz_8c.html" target="_top" xlink:title="Implementation of Main Function.">
<polygon fill="white" stroke="#666666" points="1546.5,-134.5 1387.5,-134.5 1387.5,-93.5 1546.5,-93.5 1546.5,-134.5"/>
<text text-anchor="start" x="1395.5" y="-122.5" font-family="Helvetica,sans-Serif" font-size="10.00">/home/runner/work/no</text>
<text text-anchor="start" x="1395.5" y="-111.5" font-family="Helvetica,sans-Serif" font-size="10.00">&#45;OS/no&#45;OS/projects/adaq7980</text>
<text text-anchor="middle" x="1467" y="-100.5" font-family="Helvetica,sans-Serif" font-size="10.00">_sdz/src/adaq7980_sdz.c</text>
</a>
</g>
</g>
<!-- Node1&#45;&gt;Node13 -->
<g id="edge12_Node000001_Node000013" class="edge">
<title>Node1&#45;&gt;Node13</title>
<g id="a_edge12_Node000001_Node000013"><a xlink:title=" ">
<path fill="none" stroke="#63b8ff" d="M1006.91,-193.06C1099.76,-183.8 1250.12,-166.32 1378,-140 1385.55,-138.45 1393.39,-136.6 1401.16,-134.62"/>
<polygon fill="#63b8ff" stroke="#63b8ff" points="1006.32,-189.6 996.71,-194.06 1007.01,-196.56 1006.32,-189.6"/>
</a>
</g>
</g>
<!-- Node14 -->
<g id="Node000014" class="node">
<title>Node14</title>
<g id="a_Node000014"><a xlink:href="cn0561_8c.html" target="_top" xlink:title="Implementation of Main Function.">
<polygon fill="white" stroke="#666666" points="1711,-134.5 1565,-134.5 1565,-93.5 1711,-93.5 1711,-134.5"/>
<text text-anchor="start" x="1573" y="-122.5" font-family="Helvetica,sans-Serif" font-size="10.00">/home/runner/work/no</text>
<text text-anchor="start" x="1573" y="-111.5" font-family="Helvetica,sans-Serif" font-size="10.00">&#45;OS/no&#45;OS/projects/cn0561</text>
<text text-anchor="middle" x="1638" y="-100.5" font-family="Helvetica,sans-Serif" font-size="10.00">/src/cn0561.c</text>
</a>
</g>
</g>
<!-- Node1&#45;&gt;Node14 -->
<g id="edge13_Node000001_Node000014" class="edge">
<title>Node1&#45;&gt;Node14</title>
<g id="a_edge13_Node000001_Node000014"><a xlink:title=" ">
<path fill="none" stroke="#63b8ff" d="M1006.71,-198.05C1130.11,-192.66 1361.53,-178.03 1555,-140 1562.53,-138.52 1570.36,-136.64 1578.06,-134.57"/>
<polygon fill="#63b8ff" stroke="#63b8ff" points="1006.4,-194.56 996.56,-198.48 1006.7,-201.55 1006.4,-194.56"/>
</a>
</g>
</g>
<!-- Node15 -->
<g id="Node000015" class="node">
<title>Node15</title>
<g id="a_Node000015"><a xlink:href="pulsar-adc_2src_2platform_2xilinx_2parameters_8h.html" target="_top" xlink:title="Definitions specific to xilinx platform used by pulsar&#45;adc project.">
<polygon fill="white" stroke="#666666" points="1870.5,-140 1729.5,-140 1729.5,-88 1870.5,-88 1870.5,-140"/>
<text text-anchor="start" x="1737.5" y="-128" font-family="Helvetica,sans-Serif" font-size="10.00">/home/runner/work/no</text>
<text text-anchor="start" x="1737.5" y="-117" font-family="Helvetica,sans-Serif" font-size="10.00">&#45;OS/no&#45;OS/projects/pulsar</text>
<text text-anchor="start" x="1737.5" y="-106" font-family="Helvetica,sans-Serif" font-size="10.00">&#45;adc/src/platform/xilinx</text>
<text text-anchor="middle" x="1800" y="-95" font-family="Helvetica,sans-Serif" font-size="10.00">/parameters.h</text>
</a>
</g>
</g>
<!-- Node1&#45;&gt;Node15 -->
<g id="edge14_Node000001_Node000015" class="edge">
<title>Node1&#45;&gt;Node15</title>
<g id="a_edge14_Node000001_Node000015"><a xlink:title=" ">
<path fill="none" stroke="#63b8ff" d="M1006.93,-200.79C1155.3,-199 1464.18,-189.05 1720,-140 1723,-139.42 1726.05,-138.78 1729.11,-138.07"/>
<polygon fill="#63b8ff" stroke="#63b8ff" points="1006.49,-197.3 996.53,-200.91 1006.57,-204.3 1006.49,-197.3"/>
</a>
</g>
</g>
<!-- Node4 -->
<g id="Node000004" class="node">
<title>Node4</title>
<g id="a_Node000004"><a xlink:href="ad463x__fmcz_2src_2platform_2xilinx_2parameters_8c.html" target="_top" xlink:title="Definition of xilinx platform data used by ad463x_fmcz project.">
<polygon fill="white" stroke="#666666" points="329.5,-52 182.5,-52 182.5,0 329.5,0 329.5,-52"/>
<text text-anchor="start" x="190.5" y="-40" font-family="Helvetica,sans-Serif" font-size="10.00">/home/runner/work/no</text>
<text text-anchor="start" x="190.5" y="-29" font-family="Helvetica,sans-Serif" font-size="10.00">&#45;OS/no&#45;OS/projects/ad463x</text>
<text text-anchor="start" x="190.5" y="-18" font-family="Helvetica,sans-Serif" font-size="10.00">_fmcz/src/platform/xilinx</text>
<text text-anchor="middle" x="256" y="-7" font-family="Helvetica,sans-Serif" font-size="10.00">/parameters.c</text>
</a>
</g>
</g>
<!-- Node3&#45;&gt;Node4 -->
<g id="edge3_Node000003_Node000004" class="edge">
<title>Node3&#45;&gt;Node4</title>
<g id="a_edge3_Node000003_Node000004"><a xlink:title=" ">
<path fill="none" stroke="#63b8ff" d="M256,-77.56C256,-69.04 256,-60.1 256,-52.16"/>
<polygon fill="#63b8ff" stroke="#63b8ff" points="252.5,-77.66 256,-87.66 259.5,-77.66 252.5,-77.66"/>
</a>
</g>
</g>
<!-- Node6 -->
<g id="Node000006" class="node">
<title>Node6</title>
<g id="a_Node000006"><a xlink:href="ad469x__evb_2src_2platform_2xilinx_2parameters_8c.html" target="_top" xlink:title="Definition of xilinx platform data used by ad469x_evb project.">
<polygon fill="white" stroke="#666666" points="494.5,-52 347.5,-52 347.5,0 494.5,0 494.5,-52"/>
<text text-anchor="start" x="355.5" y="-40" font-family="Helvetica,sans-Serif" font-size="10.00">/home/runner/work/no</text>
<text text-anchor="start" x="355.5" y="-29" font-family="Helvetica,sans-Serif" font-size="10.00">&#45;OS/no&#45;OS/projects/ad469x</text>
<text text-anchor="start" x="355.5" y="-18" font-family="Helvetica,sans-Serif" font-size="10.00">_evb/src/platform/xilinx</text>
<text text-anchor="middle" x="421" y="-7" font-family="Helvetica,sans-Serif" font-size="10.00">/parameters.c</text>
</a>
</g>
</g>
<!-- Node5&#45;&gt;Node6 -->
<g id="edge5_Node000005_Node000006" class="edge">
<title>Node5&#45;&gt;Node6</title>
<g id="a_edge5_Node000005_Node000006"><a xlink:title=" ">
<path fill="none" stroke="#63b8ff" d="M421,-77.56C421,-69.04 421,-60.1 421,-52.16"/>
<polygon fill="#63b8ff" stroke="#63b8ff" points="417.5,-77.66 421,-87.66 424.5,-77.66 417.5,-77.66"/>
</a>
</g>
</g>
<!-- Node9 -->
<g id="Node000009" class="node">
<title>Node9</title>
<g id="a_Node000009"><a xlink:href="ad738x__fmcz_2src_2platform_2xilinx_2parameters_8c.html" target="_top" xlink:title="Definition of xilinx platform data used by ad463x_fmcz project.">
<polygon fill="white" stroke="#666666" points="824.5,-52 677.5,-52 677.5,0 824.5,0 824.5,-52"/>
<text text-anchor="start" x="685.5" y="-40" font-family="Helvetica,sans-Serif" font-size="10.00">/home/runner/work/no</text>
<text text-anchor="start" x="685.5" y="-29" font-family="Helvetica,sans-Serif" font-size="10.00">&#45;OS/no&#45;OS/projects/ad738x</text>
<text text-anchor="start" x="685.5" y="-18" font-family="Helvetica,sans-Serif" font-size="10.00">_fmcz/src/platform/xilinx</text>
<text text-anchor="middle" x="751" y="-7" font-family="Helvetica,sans-Serif" font-size="10.00">/parameters.c</text>
</a>
</g>
</g>
<!-- Node8&#45;&gt;Node9 -->
<g id="edge8_Node000008_Node000009" class="edge">
<title>Node8&#45;&gt;Node9</title>
<g id="a_edge8_Node000008_Node000009"><a xlink:title=" ">
<path fill="none" stroke="#63b8ff" d="M751,-77.56C751,-69.04 751,-60.1 751,-52.16"/>
<polygon fill="#63b8ff" stroke="#63b8ff" points="747.5,-77.66 751,-87.66 754.5,-77.66 747.5,-77.66"/>
</a>
</g>
</g>
<!-- Node16 -->
<g id="Node000016" class="node">
<title>Node16</title>
<g id="a_Node000016"><a xlink:href="pulsar-adc_2src_2platform_2xilinx_2parameters_8c.html" target="_top" xlink:title="Definition of xilinx platform data used by pulsar&#45;adc project.">
<polygon fill="white" stroke="#666666" points="1870.5,-52 1729.5,-52 1729.5,0 1870.5,0 1870.5,-52"/>
<text text-anchor="start" x="1737.5" y="-40" font-family="Helvetica,sans-Serif" font-size="10.00">/home/runner/work/no</text>
<text text-anchor="start" x="1737.5" y="-29" font-family="Helvetica,sans-Serif" font-size="10.00">&#45;OS/no&#45;OS/projects/pulsar</text>
<text text-anchor="start" x="1737.5" y="-18" font-family="Helvetica,sans-Serif" font-size="10.00">&#45;adc/src/platform/xilinx</text>
<text text-anchor="middle" x="1800" y="-7" font-family="Helvetica,sans-Serif" font-size="10.00">/parameters.c</text>
</a>
</g>
</g>
<!-- Node15&#45;&gt;Node16 -->
<g id="edge15_Node000015_Node000016" class="edge">
<title>Node15&#45;&gt;Node16</title>
<g id="a_edge15_Node000015_Node000016"><a xlink:title=" ">
<path fill="none" stroke="#63b8ff" d="M1800,-77.56C1800,-69.04 1800,-60.1 1800,-52.16"/>
<polygon fill="#63b8ff" stroke="#63b8ff" points="1796.5,-77.66 1800,-87.66 1803.5,-77.66 1796.5,-77.66"/>
</a>
</g>
</g>
</g>
</svg>
