<?xml version="1.0" encoding="UTF-8" standalone="no"?>
<!DOCTYPE svg PUBLIC "-//W3C//DTD SVG 1.1//EN"
 "http://www.w3.org/Graphics/SVG/1.1/DTD/svg11.dtd">
<!-- Generated by graphviz version 2.43.0 (0)
 -->
<!-- Title: /home/runner/work/no&#45;OS/no&#45;OS/drivers/axi_core/axi_adc_core/axi_adc_core.h Pages: 1 -->
<svg width="4697pt" height="313pt"
 viewBox="0.00 0.00 4696.94 313.00" xmlns="http://www.w3.org/2000/svg" xmlns:xlink="http://www.w3.org/1999/xlink">
<g id="graph0" class="graph" transform="scale(1 1) rotate(0) translate(4 309)">
<title>/home/runner/work/no&#45;OS/no&#45;OS/drivers/axi_core/axi_adc_core/axi_adc_core.h</title>
<!-- Node1 -->
<g id="Node000001" class="node">
<title>Node1</title>
<g id="a_Node000001"><a xlink:title="Driver for the Analog Devices AXI&#45;ADC&#45;CORE module.">
<polygon fill="#999999" stroke="#666666" points="2341.94,-305 2213.94,-305 2213.94,-253 2341.94,-253 2341.94,-305"/>
<text text-anchor="start" x="2221.94" y="-293" font-family="Helvetica,sans-Serif" font-size="10.00">/home/runner/work/no</text>
<text text-anchor="start" x="2221.94" y="-282" font-family="Helvetica,sans-Serif" font-size="10.00">&#45;OS/no&#45;OS/drivers/axi</text>
<text text-anchor="start" x="2221.94" y="-271" font-family="Helvetica,sans-Serif" font-size="10.00">_core/axi_adc_core/axi</text>
<text text-anchor="middle" x="2277.94" y="-260" font-family="Helvetica,sans-Serif" font-size="10.00">_adc_core.h</text>
</a>
</g>
</g>
<!-- Node2 -->
<g id="Node000002" class="node">
<title>Node2</title>
<g id="a_Node000002"><a xlink:href="ad796x_8h.html" target="_top" xlink:title="Header file of AD796X Driver.">
<polygon fill="white" stroke="#666666" points="366.94,-211.5 242.94,-211.5 242.94,-170.5 366.94,-170.5 366.94,-211.5"/>
<text text-anchor="start" x="250.94" y="-199.5" font-family="Helvetica,sans-Serif" font-size="10.00">/home/runner/work/no</text>
<text text-anchor="start" x="250.94" y="-188.5" font-family="Helvetica,sans-Serif" font-size="10.00">&#45;OS/no&#45;OS/drivers/adc</text>
<text text-anchor="middle" x="304.94" y="-177.5" font-family="Helvetica,sans-Serif" font-size="10.00">/ad796x/ad796x.h</text>
</a>
</g>
</g>
<!-- Node1&#45;&gt;Node2 -->
<g id="edge1_Node000001_Node000002" class="edge">
<title>Node1&#45;&gt;Node2</title>
<g id="a_edge1_Node000001_Node000002"><a xlink:title=" ">
<path fill="none" stroke="#63b8ff" d="M2203.45,-277.02C1904.42,-272.85 790.48,-255.06 439.94,-217 416,-214.4 389.94,-209.96 367.16,-205.54"/>
<polygon fill="#63b8ff" stroke="#63b8ff" points="2203.69,-280.52 2213.74,-277.16 2203.79,-273.52 2203.69,-280.52"/>
</a>
</g>
</g>
<!-- Node4 -->
<g id="Node000004" class="node">
<title>Node4</title>
<g id="a_Node000004"><a xlink:href="ad796x__fmcz_2src_2common_2common__data_8c.html" target="_top" xlink:title="Defines common data to be used by iio examples.">
<polygon fill="white" stroke="#666666" points="265.94,-41 75.94,-41 75.94,0 265.94,0 265.94,-41"/>
<text text-anchor="start" x="83.94" y="-29" font-family="Helvetica,sans-Serif" font-size="10.00">/home/runner/work/no</text>
<text text-anchor="start" x="83.94" y="-18" font-family="Helvetica,sans-Serif" font-size="10.00">&#45;OS/no&#45;OS/projects/ad796x</text>
<text text-anchor="middle" x="170.94" y="-7" font-family="Helvetica,sans-Serif" font-size="10.00">_fmcz/src/common/common_data.c</text>
</a>
</g>
</g>
<!-- Node1&#45;&gt;Node4 -->
<g id="edge18_Node000001_Node000004" class="edge">
<title>Node1&#45;&gt;Node4</title>
<g id="a_edge18_Node000001_Node000004"><a xlink:title=" ">
<path fill="none" stroke="#63b8ff" d="M2203.77,-277.3C1859.94,-273.82 429.55,-257.08 233.94,-217 129.15,-195.53 70.18,-217.39 9.94,-129 -3.08,-109.9 -3.48,-95.82 9.94,-77 25.47,-55.21 50.14,-41.9 75.55,-33.78"/>
<polygon fill="#63b8ff" stroke="#63b8ff" points="2203.83,-280.8 2213.87,-277.4 2203.9,-273.8 2203.83,-280.8"/>
</a>
</g>
</g>
<!-- Node8 -->
<g id="Node000008" class="node">
<title>Node8</title>
<g id="a_Node000008"><a xlink:href="ad9265_8c.html" target="_top" xlink:title="Implementation of AD9265 Driver.">
<polygon fill="white" stroke="#666666" points="572.94,-211.5 448.94,-211.5 448.94,-170.5 572.94,-170.5 572.94,-211.5"/>
<text text-anchor="start" x="456.94" y="-199.5" font-family="Helvetica,sans-Serif" font-size="10.00">/home/runner/work/no</text>
<text text-anchor="start" x="456.94" y="-188.5" font-family="Helvetica,sans-Serif" font-size="10.00">&#45;OS/no&#45;OS/drivers/adc</text>
<text text-anchor="middle" x="510.94" y="-177.5" font-family="Helvetica,sans-Serif" font-size="10.00">/ad9265/ad9265.c</text>
</a>
</g>
</g>
<!-- Node1&#45;&gt;Node8 -->
<g id="edge8_Node000001_Node000008" class="edge">
<title>Node1&#45;&gt;Node8</title>
<g id="a_edge8_Node000001_Node000008"><a xlink:title=" ">
<path fill="none" stroke="#63b8ff" d="M2203.38,-278.31C1918.58,-279.01 899.52,-277.17 581.94,-217 574.88,-215.66 567.57,-213.74 560.45,-211.56"/>
<polygon fill="#63b8ff" stroke="#63b8ff" points="2203.61,-281.8 2213.6,-278.28 2203.59,-274.81 2203.61,-281.8"/>
</a>
</g>
</g>
<!-- Node9 -->
<g id="Node000009" class="node">
<title>Node9</title>
<g id="a_Node000009"><a xlink:href="axi__adc__core_8c.html" target="_top" xlink:title="Driver for the Analog Devices AXI&#45;ADC&#45;CORE module.">
<polygon fill="white" stroke="#666666" points="718.94,-217 590.94,-217 590.94,-165 718.94,-165 718.94,-217"/>
<text text-anchor="start" x="598.94" y="-205" font-family="Helvetica,sans-Serif" font-size="10.00">/home/runner/work/no</text>
<text text-anchor="start" x="598.94" y="-194" font-family="Helvetica,sans-Serif" font-size="10.00">&#45;OS/no&#45;OS/drivers/axi</text>
<text text-anchor="start" x="598.94" y="-183" font-family="Helvetica,sans-Serif" font-size="10.00">_core/axi_adc_core/axi</text>
<text text-anchor="middle" x="654.94" y="-172" font-family="Helvetica,sans-Serif" font-size="10.00">_adc_core.c</text>
</a>
</g>
</g>
<!-- Node1&#45;&gt;Node9 -->
<g id="edge9_Node000001_Node000009" class="edge">
<title>Node1&#45;&gt;Node9</title>
<g id="a_edge9_Node000001_Node000009"><a xlink:title=" ">
<path fill="none" stroke="#63b8ff" d="M2203.59,-277.93C1935.07,-277.22 1016.09,-270.82 727.94,-217 725.04,-216.46 722.1,-215.83 719.15,-215.12"/>
<polygon fill="#63b8ff" stroke="#63b8ff" points="2203.61,-281.43 2213.62,-277.95 2203.63,-274.43 2203.61,-281.43"/>
</a>
</g>
</g>
<!-- Node10 -->
<g id="Node000010" class="node">
<title>Node10</title>
<g id="a_Node000010"><a xlink:href="iio__axi__adc_8h.html" target="_top" xlink:title="Header file of iio_axi_adc.">
<polygon fill="white" stroke="#666666" points="860.94,-217 736.94,-217 736.94,-165 860.94,-165 860.94,-217"/>
<text text-anchor="start" x="744.94" y="-205" font-family="Helvetica,sans-Serif" font-size="10.00">/home/runner/work/no</text>
<text text-anchor="start" x="744.94" y="-194" font-family="Helvetica,sans-Serif" font-size="10.00">&#45;OS/no&#45;OS/drivers/axi</text>
<text text-anchor="start" x="744.94" y="-183" font-family="Helvetica,sans-Serif" font-size="10.00">_core/iio_axi_adc/iio</text>
<text text-anchor="middle" x="798.94" y="-172" font-family="Helvetica,sans-Serif" font-size="10.00">_axi_adc.h</text>
</a>
</g>
</g>
<!-- Node1&#45;&gt;Node10 -->
<g id="edge10_Node000001_Node000010" class="edge">
<title>Node1&#45;&gt;Node10</title>
<g id="a_edge10_Node000001_Node000010"><a xlink:title=" ">
<path fill="none" stroke="#63b8ff" d="M2203.58,-277.45C1951.93,-275.17 1133.53,-264.22 874.94,-217 870.43,-216.18 865.82,-215.15 861.21,-213.99"/>
<polygon fill="#63b8ff" stroke="#63b8ff" points="2203.69,-280.95 2213.72,-277.54 2203.75,-273.95 2203.69,-280.95"/>
</a>
</g>
</g>
<!-- Node12 -->
<g id="Node000012" class="node">
<title>Node12</title>
<g id="a_Node000012"><a xlink:href="adrv902x_2src_2examples_2iio__example_2iio__example_8c.html" target="_top" xlink:title="IIO example for the adrv902x project.">
<polygon fill="white" stroke="#666666" points="1068.44,-129 911.44,-129 911.44,-77 1068.44,-77 1068.44,-129"/>
<text text-anchor="start" x="919.44" y="-117" font-family="Helvetica,sans-Serif" font-size="10.00">/home/runner/work/no</text>
<text text-anchor="start" x="919.44" y="-106" font-family="Helvetica,sans-Serif" font-size="10.00">&#45;OS/no&#45;OS/projects/adrv902x</text>
<text text-anchor="start" x="919.44" y="-95" font-family="Helvetica,sans-Serif" font-size="10.00">/src/examples/iio_example</text>
<text text-anchor="middle" x="989.94" y="-84" font-family="Helvetica,sans-Serif" font-size="10.00">/iio_example.c</text>
</a>
</g>
</g>
<!-- Node1&#45;&gt;Node12 -->
<g id="edge35_Node000001_Node000012" class="edge">
<title>Node1&#45;&gt;Node12</title>
<g id="a_edge35_Node000001_Node000012"><a xlink:title=" ">
<path fill="none" stroke="#63b8ff" d="M2203.82,-277.5C1925.04,-275.27 953.02,-264.14 907.94,-217 891.96,-200.3 897.56,-185.65 907.94,-165 915.27,-150.41 927.92,-138.43 941.12,-129.07"/>
<polygon fill="#63b8ff" stroke="#63b8ff" points="2203.8,-281 2213.83,-277.58 2203.86,-274 2203.8,-281"/>
</a>
</g>
</g>
<!-- Node13 -->
<g id="Node000013" class="node">
<title>Node13</title>
<g id="a_Node000013"><a xlink:href="ad9361__api_8c.html" target="_top" xlink:title="Implementation of AD9361 API Driver.">
<polygon fill="white" stroke="#666666" points="1098.94,-211.5 916.94,-211.5 916.94,-170.5 1098.94,-170.5 1098.94,-211.5"/>
<text text-anchor="start" x="924.94" y="-199.5" font-family="Helvetica,sans-Serif" font-size="10.00">/home/runner/work/no</text>
<text text-anchor="start" x="924.94" y="-188.5" font-family="Helvetica,sans-Serif" font-size="10.00">&#45;OS/no&#45;OS/drivers/rf</text>
<text text-anchor="middle" x="1007.94" y="-177.5" font-family="Helvetica,sans-Serif" font-size="10.00">&#45;transceiver/ad9361/ad9361_api.c</text>
</a>
</g>
</g>
<!-- Node1&#45;&gt;Node13 -->
<g id="edge14_Node000001_Node000013" class="edge">
<title>Node1&#45;&gt;Node13</title>
<g id="a_edge14_Node000001_Node000013"><a xlink:title=" ">
<path fill="none" stroke="#63b8ff" d="M2203.58,-275.97C1980.87,-269.61 1321.54,-248.56 1108.94,-217 1099.38,-215.58 1089.4,-213.66 1079.6,-211.52"/>
<polygon fill="#63b8ff" stroke="#63b8ff" points="2203.75,-279.48 2213.85,-276.27 2203.95,-272.48 2203.75,-279.48"/>
</a>
</g>
</g>
<!-- Node14 -->
<g id="Node000014" class="node">
<title>Node14</title>
<g id="a_Node000014"><a xlink:href="ad9361__conv_8c.html" target="_top" xlink:title="Implementation of AD9361 Conv Driver.">
<polygon fill="white" stroke="#666666" points="1270.44,-217 1117.44,-217 1117.44,-165 1270.44,-165 1270.44,-217"/>
<text text-anchor="start" x="1125.44" y="-205" font-family="Helvetica,sans-Serif" font-size="10.00">/home/runner/work/no</text>
<text text-anchor="start" x="1125.44" y="-194" font-family="Helvetica,sans-Serif" font-size="10.00">&#45;OS/no&#45;OS/drivers/rf</text>
<text text-anchor="start" x="1125.44" y="-183" font-family="Helvetica,sans-Serif" font-size="10.00">&#45;transceiver/ad9361/ad9361</text>
<text text-anchor="middle" x="1193.94" y="-172" font-family="Helvetica,sans-Serif" font-size="10.00">_conv.c</text>
</a>
</g>
</g>
<!-- Node1&#45;&gt;Node14 -->
<g id="edge15_Node000001_Node000014" class="edge">
<title>Node1&#45;&gt;Node14</title>
<g id="a_edge15_Node000001_Node000014"><a xlink:title=" ">
<path fill="none" stroke="#63b8ff" d="M2203.56,-275.59C2003.58,-268.78 1457.5,-247.84 1279.94,-217 1276.87,-216.47 1273.76,-215.87 1270.63,-215.21"/>
<polygon fill="#63b8ff" stroke="#63b8ff" points="2203.56,-279.1 2213.67,-275.94 2203.8,-272.1 2203.56,-279.1"/>
</a>
</g>
</g>
<!-- Node15 -->
<g id="Node000015" class="node">
<title>Node15</title>
<g id="a_Node000015"><a xlink:href="ad6676__ebz_8c.html" target="_top" xlink:title="Implementation of Main Function.">
<polygon fill="white" stroke="#666666" points="1435.44,-211.5 1288.44,-211.5 1288.44,-170.5 1435.44,-170.5 1435.44,-211.5"/>
<text text-anchor="start" x="1296.44" y="-199.5" font-family="Helvetica,sans-Serif" font-size="10.00">/home/runner/work/no</text>
<text text-anchor="start" x="1296.44" y="-188.5" font-family="Helvetica,sans-Serif" font-size="10.00">&#45;OS/no&#45;OS/projects/ad6676</text>
<text text-anchor="middle" x="1361.94" y="-177.5" font-family="Helvetica,sans-Serif" font-size="10.00">&#45;ebz/src/ad6676_ebz.c</text>
</a>
</g>
</g>
<!-- Node1&#45;&gt;Node15 -->
<g id="edge16_Node000001_Node000015" class="edge">
<title>Node1&#45;&gt;Node15</title>
<g id="a_edge16_Node000001_Node000015"><a xlink:title=" ">
<path fill="none" stroke="#63b8ff" d="M2203.63,-278C2057.2,-276.8 1721.52,-268.14 1444.94,-217 1437.24,-215.58 1429.25,-213.7 1421.4,-211.61"/>
<polygon fill="#63b8ff" stroke="#63b8ff" points="2203.82,-281.5 2213.85,-278.07 2203.87,-274.5 2203.82,-281.5"/>
</a>
</g>
</g>
<!-- Node16 -->
<g id="Node000016" class="node">
<title>Node16</title>
<g id="a_Node000016"><a xlink:href="ad7768__evb_8c.html" target="_top" xlink:title="Implementation of Main Function.">
<polygon fill="white" stroke="#666666" points="1600.44,-211.5 1453.44,-211.5 1453.44,-170.5 1600.44,-170.5 1600.44,-211.5"/>
<text text-anchor="start" x="1461.44" y="-199.5" font-family="Helvetica,sans-Serif" font-size="10.00">/home/runner/work/no</text>
<text text-anchor="start" x="1461.44" y="-188.5" font-family="Helvetica,sans-Serif" font-size="10.00">&#45;OS/no&#45;OS/projects/ad7768</text>
<text text-anchor="middle" x="1526.94" y="-177.5" font-family="Helvetica,sans-Serif" font-size="10.00">&#45;evb/src/ad7768_evb.c</text>
</a>
</g>
</g>
<!-- Node1&#45;&gt;Node16 -->
<g id="edge17_Node000001_Node000016" class="edge">
<title>Node1&#45;&gt;Node16</title>
<g id="a_edge17_Node000001_Node000016"><a xlink:title=" ">
<path fill="none" stroke="#63b8ff" d="M2203.64,-276.09C2079.58,-271.82 1822.87,-258.35 1609.94,-217 1602.4,-215.54 1594.58,-213.66 1586.87,-211.6"/>
<polygon fill="#63b8ff" stroke="#63b8ff" points="2203.67,-279.6 2213.78,-276.43 2203.9,-272.6 2203.67,-279.6"/>
</a>
</g>
</g>
<!-- Node17 -->
<g id="Node000017" class="node">
<title>Node17</title>
<g id="a_Node000017"><a xlink:href="ad9081_2src_2app_8c.html" target="_top" xlink:title="AD9081 application example.">
<polygon fill="white" stroke="#666666" points="1765.44,-211.5 1618.44,-211.5 1618.44,-170.5 1765.44,-170.5 1765.44,-211.5"/>
<text text-anchor="start" x="1626.44" y="-199.5" font-family="Helvetica,sans-Serif" font-size="10.00">/home/runner/work/no</text>
<text text-anchor="start" x="1626.44" y="-188.5" font-family="Helvetica,sans-Serif" font-size="10.00">&#45;OS/no&#45;OS/projects/ad9081</text>
<text text-anchor="middle" x="1691.94" y="-177.5" font-family="Helvetica,sans-Serif" font-size="10.00">/src/app.c</text>
</a>
</g>
</g>
<!-- Node1&#45;&gt;Node17 -->
<g id="edge19_Node000001_Node000017" class="edge">
<title>Node1&#45;&gt;Node17</title>
<g id="a_edge19_Node000001_Node000017"><a xlink:title=" ">
<path fill="none" stroke="#63b8ff" d="M2203.67,-273C2104.95,-265.45 1925.44,-248.55 1774.94,-217 1767.57,-215.46 1759.92,-213.56 1752.37,-211.51"/>
<polygon fill="#63b8ff" stroke="#63b8ff" points="2203.61,-276.51 2213.84,-273.77 2204.13,-269.53 2203.61,-276.51"/>
</a>
</g>
</g>
<!-- Node18 -->
<g id="Node000018" class="node">
<title>Node18</title>
<g id="a_Node000018"><a xlink:href="ad9083_2src_2app_8c.html" target="_top" xlink:title="AD9083 application example.">
<polygon fill="white" stroke="#666666" points="1930.44,-211.5 1783.44,-211.5 1783.44,-170.5 1930.44,-170.5 1930.44,-211.5"/>
<text text-anchor="start" x="1791.44" y="-199.5" font-family="Helvetica,sans-Serif" font-size="10.00">/home/runner/work/no</text>
<text text-anchor="start" x="1791.44" y="-188.5" font-family="Helvetica,sans-Serif" font-size="10.00">&#45;OS/no&#45;OS/projects/ad9083</text>
<text text-anchor="middle" x="1856.94" y="-177.5" font-family="Helvetica,sans-Serif" font-size="10.00">/src/app.c</text>
</a>
</g>
</g>
<!-- Node1&#45;&gt;Node18 -->
<g id="edge20_Node000001_Node000018" class="edge">
<title>Node1&#45;&gt;Node18</title>
<g id="a_edge20_Node000001_Node000018"><a xlink:title=" ">
<path fill="none" stroke="#63b8ff" d="M2203.75,-267.1C2134.92,-256.41 2029.88,-238.59 1939.94,-217 1933.21,-215.38 1926.21,-213.54 1919.27,-211.61"/>
<polygon fill="#63b8ff" stroke="#63b8ff" points="2203.21,-270.56 2213.63,-268.63 2204.28,-263.65 2203.21,-270.56"/>
</a>
</g>
</g>
<!-- Node19 -->
<g id="Node000019" class="node">
<title>Node19</title>
<g id="a_Node000019"><a xlink:href="ad9208_2src_2main_8c.html" target="_top" xlink:title="Implementation of Main Function.">
<polygon fill="white" stroke="#666666" points="2095.44,-211.5 1948.44,-211.5 1948.44,-170.5 2095.44,-170.5 2095.44,-211.5"/>
<text text-anchor="start" x="1956.44" y="-199.5" font-family="Helvetica,sans-Serif" font-size="10.00">/home/runner/work/no</text>
<text text-anchor="start" x="1956.44" y="-188.5" font-family="Helvetica,sans-Serif" font-size="10.00">&#45;OS/no&#45;OS/projects/ad9208</text>
<text text-anchor="middle" x="2021.94" y="-177.5" font-family="Helvetica,sans-Serif" font-size="10.00">/src/main.c</text>
</a>
</g>
</g>
<!-- Node1&#45;&gt;Node19 -->
<g id="edge21_Node000001_Node000019" class="edge">
<title>Node1&#45;&gt;Node19</title>
<g id="a_edge21_Node000001_Node000019"><a xlink:title=" ">
<path fill="none" stroke="#63b8ff" d="M2203.85,-253.11C2164.48,-239.88 2116.78,-223.86 2080.1,-211.54"/>
<polygon fill="#63b8ff" stroke="#63b8ff" points="2203.07,-256.54 2213.67,-256.41 2205.3,-249.91 2203.07,-256.54"/>
</a>
</g>
</g>
<!-- Node20 -->
<g id="Node000020" class="node">
<title>Node20</title>
<g id="a_Node000020"><a xlink:href="ad9265__fmc__125ebz_8c.html" target="_top" xlink:title="Implementation of Main Function.">
<polygon fill="white" stroke="#666666" points="2271.94,-217 2113.94,-217 2113.94,-165 2271.94,-165 2271.94,-217"/>
<text text-anchor="start" x="2121.94" y="-205" font-family="Helvetica,sans-Serif" font-size="10.00">/home/runner/work/no</text>
<text text-anchor="start" x="2121.94" y="-194" font-family="Helvetica,sans-Serif" font-size="10.00">&#45;OS/no&#45;OS/projects/ad9265</text>
<text text-anchor="start" x="2121.94" y="-183" font-family="Helvetica,sans-Serif" font-size="10.00">&#45;fmc&#45;125ebz/src/ad9265_fmc</text>
<text text-anchor="middle" x="2192.94" y="-172" font-family="Helvetica,sans-Serif" font-size="10.00">_125ebz.c</text>
</a>
</g>
</g>
<!-- Node1&#45;&gt;Node20 -->
<g id="edge22_Node000001_Node000020" class="edge">
<title>Node1&#45;&gt;Node20</title>
<g id="a_edge22_Node000001_Node000020"><a xlink:title=" ">
<path fill="none" stroke="#63b8ff" d="M2245.67,-245.35C2236.44,-236.01 2226.52,-225.98 2217.8,-217.16"/>
<polygon fill="#63b8ff" stroke="#63b8ff" points="2243.38,-248.01 2252.89,-252.66 2248.35,-243.09 2243.38,-248.01"/>
</a>
</g>
</g>
<!-- Node21 -->
<g id="Node000021" class="node">
<title>Node21</title>
<g id="a_Node000021"><a xlink:href="ad9361_2src_2main_8c.html" target="_top" xlink:title="Implementation of Main Function.">
<polygon fill="white" stroke="#666666" points="2437.44,-211.5 2290.44,-211.5 2290.44,-170.5 2437.44,-170.5 2437.44,-211.5"/>
<text text-anchor="start" x="2298.44" y="-199.5" font-family="Helvetica,sans-Serif" font-size="10.00">/home/runner/work/no</text>
<text text-anchor="start" x="2298.44" y="-188.5" font-family="Helvetica,sans-Serif" font-size="10.00">&#45;OS/no&#45;OS/projects/ad9361</text>
<text text-anchor="middle" x="2363.94" y="-177.5" font-family="Helvetica,sans-Serif" font-size="10.00">/src/main.c</text>
</a>
</g>
</g>
<!-- Node1&#45;&gt;Node21 -->
<g id="edge23_Node000001_Node000021" class="edge">
<title>Node1&#45;&gt;Node21</title>
<g id="a_edge23_Node000001_Node000021"><a xlink:title=" ">
<path fill="none" stroke="#63b8ff" d="M2310.55,-245.39C2321.89,-234.05 2334.26,-221.68 2344.23,-211.7"/>
<polygon fill="#63b8ff" stroke="#63b8ff" points="2307.87,-243.12 2303.28,-252.66 2312.82,-248.07 2307.87,-243.12"/>
</a>
</g>
</g>
<!-- Node22 -->
<g id="Node000022" class="node">
<title>Node22</title>
<g id="a_Node000022"><a xlink:href="ad9371_2src_2app_2headless_8c.html" target="_top" xlink:title="Implementation of Main Function.">
<polygon fill="white" stroke="#666666" points="2602.44,-211.5 2455.44,-211.5 2455.44,-170.5 2602.44,-170.5 2602.44,-211.5"/>
<text text-anchor="start" x="2463.44" y="-199.5" font-family="Helvetica,sans-Serif" font-size="10.00">/home/runner/work/no</text>
<text text-anchor="start" x="2463.44" y="-188.5" font-family="Helvetica,sans-Serif" font-size="10.00">&#45;OS/no&#45;OS/projects/ad9371</text>
<text text-anchor="middle" x="2528.94" y="-177.5" font-family="Helvetica,sans-Serif" font-size="10.00">/src/app/headless.c</text>
</a>
</g>
</g>
<!-- Node1&#45;&gt;Node22 -->
<g id="edge24_Node000001_Node000022" class="edge">
<title>Node1&#45;&gt;Node22</title>
<g id="a_edge24_Node000001_Node000022"><a xlink:title=" ">
<path fill="none" stroke="#63b8ff" d="M2351.8,-252.69C2390.07,-239.58 2436.1,-223.81 2471.64,-211.63"/>
<polygon fill="#63b8ff" stroke="#63b8ff" points="2350.58,-249.41 2342.25,-255.96 2352.84,-256.03 2350.58,-249.41"/>
</a>
</g>
</g>
<!-- Node23 -->
<g id="Node000023" class="node">
<title>Node23</title>
<g id="a_Node000023"><a xlink:href="ad9434__fmc__500ebz_8c.html" target="_top" xlink:title="Implementation of Main Function.">
<polygon fill="white" stroke="#666666" points="2778.94,-217 2620.94,-217 2620.94,-165 2778.94,-165 2778.94,-217"/>
<text text-anchor="start" x="2628.94" y="-205" font-family="Helvetica,sans-Serif" font-size="10.00">/home/runner/work/no</text>
<text text-anchor="start" x="2628.94" y="-194" font-family="Helvetica,sans-Serif" font-size="10.00">&#45;OS/no&#45;OS/projects/ad9434</text>
<text text-anchor="start" x="2628.94" y="-183" font-family="Helvetica,sans-Serif" font-size="10.00">&#45;fmc&#45;500ebz/src/ad9434_fmc</text>
<text text-anchor="middle" x="2699.94" y="-172" font-family="Helvetica,sans-Serif" font-size="10.00">_500ebz.c</text>
</a>
</g>
</g>
<!-- Node1&#45;&gt;Node23 -->
<g id="edge25_Node000001_Node000023" class="edge">
<title>Node1&#45;&gt;Node23</title>
<g id="a_edge25_Node000001_Node000023"><a xlink:title=" ">
<path fill="none" stroke="#63b8ff" d="M2352.21,-266.54C2420.18,-255.55 2523.34,-237.63 2611.94,-217 2614.88,-216.32 2617.86,-215.6 2620.88,-214.85"/>
<polygon fill="#63b8ff" stroke="#63b8ff" points="2351.35,-263.13 2342.03,-268.17 2352.46,-270.04 2351.35,-263.13"/>
</a>
</g>
</g>
<!-- Node24 -->
<g id="Node000024" class="node">
<title>Node24</title>
<g id="a_Node000024"><a xlink:href="ad9467__fmc_8c.html" target="_top" xlink:title="Implementation of the program&#39;s main function.">
<polygon fill="white" stroke="#666666" points="2944.44,-211.5 2797.44,-211.5 2797.44,-170.5 2944.44,-170.5 2944.44,-211.5"/>
<text text-anchor="start" x="2805.44" y="-199.5" font-family="Helvetica,sans-Serif" font-size="10.00">/home/runner/work/no</text>
<text text-anchor="start" x="2805.44" y="-188.5" font-family="Helvetica,sans-Serif" font-size="10.00">&#45;OS/no&#45;OS/projects/ad9467</text>
<text text-anchor="middle" x="2870.94" y="-177.5" font-family="Helvetica,sans-Serif" font-size="10.00">/src/app/ad9467_fmc.c</text>
</a>
</g>
</g>
<!-- Node1&#45;&gt;Node24 -->
<g id="edge26_Node000001_Node000024" class="edge">
<title>Node1&#45;&gt;Node24</title>
<g id="a_edge26_Node000001_Node000024"><a xlink:title=" ">
<path fill="none" stroke="#63b8ff" d="M2352.11,-273.18C2451.96,-265.78 2634.76,-248.98 2787.94,-217 2795.3,-215.46 2802.96,-213.57 2810.51,-211.52"/>
<polygon fill="#63b8ff" stroke="#63b8ff" points="2351.84,-269.69 2342.12,-273.91 2352.35,-276.67 2351.84,-269.69"/>
</a>
</g>
</g>
<!-- Node25 -->
<g id="Node000025" class="node">
<title>Node25</title>
<g id="a_Node000025"><a xlink:href="ad9656__fmc_8c.html" target="_top" xlink:title="Implementation of Main Function.">
<polygon fill="white" stroke="#666666" points="3112.94,-211.5 2962.94,-211.5 2962.94,-170.5 3112.94,-170.5 3112.94,-211.5"/>
<text text-anchor="start" x="2970.94" y="-199.5" font-family="Helvetica,sans-Serif" font-size="10.00">/home/runner/work/no</text>
<text text-anchor="start" x="2970.94" y="-188.5" font-family="Helvetica,sans-Serif" font-size="10.00">&#45;OS/no&#45;OS/projects/ad9656</text>
<text text-anchor="middle" x="3037.94" y="-177.5" font-family="Helvetica,sans-Serif" font-size="10.00">_fmc/src/app/ad9656_fmc.c</text>
</a>
</g>
</g>
<!-- Node1&#45;&gt;Node25 -->
<g id="edge27_Node000001_Node000025" class="edge">
<title>Node1&#45;&gt;Node25</title>
<g id="a_edge27_Node000001_Node000025"><a xlink:title=" ">
<path fill="none" stroke="#63b8ff" d="M2352.62,-276.11C2477.95,-271.87 2738.1,-258.43 2953.94,-217 2961.56,-215.54 2969.48,-213.67 2977.27,-211.6"/>
<polygon fill="#63b8ff" stroke="#63b8ff" points="2352.25,-272.62 2342.37,-276.45 2352.48,-279.62 2352.25,-272.62"/>
</a>
</g>
</g>
<!-- Node26 -->
<g id="Node000026" class="node">
<title>Node26</title>
<g id="a_Node000026"><a xlink:href="adaq8092__fmc_8c.html" target="_top" xlink:title="ADAQ8092_FMC Application.">
<polygon fill="white" stroke="#666666" points="3289.44,-211.5 3130.44,-211.5 3130.44,-170.5 3289.44,-170.5 3289.44,-211.5"/>
<text text-anchor="start" x="3138.44" y="-199.5" font-family="Helvetica,sans-Serif" font-size="10.00">/home/runner/work/no</text>
<text text-anchor="start" x="3138.44" y="-188.5" font-family="Helvetica,sans-Serif" font-size="10.00">&#45;OS/no&#45;OS/projects/adaq8092</text>
<text text-anchor="middle" x="3209.94" y="-177.5" font-family="Helvetica,sans-Serif" font-size="10.00">_fmc/src/adaq8092_fmc.c</text>
</a>
</g>
</g>
<!-- Node1&#45;&gt;Node26 -->
<g id="edge28_Node000001_Node000026" class="edge">
<title>Node1&#45;&gt;Node26</title>
<g id="a_edge28_Node000001_Node000026"><a xlink:title=" ">
<path fill="none" stroke="#63b8ff" d="M2352.32,-277.71C2500.11,-276.03 2840.77,-266.56 3121.94,-217 3130.07,-215.57 3138.53,-213.68 3146.85,-211.59"/>
<polygon fill="#63b8ff" stroke="#63b8ff" points="2351.97,-274.22 2342.01,-277.82 2352.05,-281.22 2351.97,-274.22"/>
</a>
</g>
</g>
<!-- Node27 -->
<g id="Node000027" class="node">
<title>Node27</title>
<g id="a_Node000027"><a xlink:href="adrv9001_2src_2app_2headless_8c.html" target="_top" xlink:title="adrv9002 main project file.">
<polygon fill="white" stroke="#666666" points="3464.44,-211.5 3307.44,-211.5 3307.44,-170.5 3464.44,-170.5 3464.44,-211.5"/>
<text text-anchor="start" x="3315.44" y="-199.5" font-family="Helvetica,sans-Serif" font-size="10.00">/home/runner/work/no</text>
<text text-anchor="start" x="3315.44" y="-188.5" font-family="Helvetica,sans-Serif" font-size="10.00">&#45;OS/no&#45;OS/projects/adrv9001</text>
<text text-anchor="middle" x="3385.94" y="-177.5" font-family="Helvetica,sans-Serif" font-size="10.00">/src/app/headless.c</text>
</a>
</g>
</g>
<!-- Node1&#45;&gt;Node27 -->
<g id="edge29_Node000001_Node000027" class="edge">
<title>Node1&#45;&gt;Node27</title>
<g id="a_edge29_Node000001_Node000027"><a xlink:title=" ">
<path fill="none" stroke="#63b8ff" d="M2352.22,-275.69C2555.29,-269.02 3116.69,-248.24 3298.94,-217 3307.15,-215.59 3315.69,-213.7 3324.07,-211.57"/>
<polygon fill="#63b8ff" stroke="#63b8ff" points="2351.84,-272.2 2341.95,-276.02 2352.06,-279.19 2351.84,-272.2"/>
</a>
</g>
</g>
<!-- Node28 -->
<g id="Node000028" class="node">
<title>Node28</title>
<g id="a_Node000028"><a xlink:href="headless__arm_8c.html" target="_top" xlink:title="Contains example code for user integration with their application. This file contains code for ARM.">
<polygon fill="white" stroke="#666666" points="3639.44,-211.5 3482.44,-211.5 3482.44,-170.5 3639.44,-170.5 3639.44,-211.5"/>
<text text-anchor="start" x="3490.44" y="-199.5" font-family="Helvetica,sans-Serif" font-size="10.00">/home/runner/work/no</text>
<text text-anchor="start" x="3490.44" y="-188.5" font-family="Helvetica,sans-Serif" font-size="10.00">&#45;OS/no&#45;OS/projects/adrv9009</text>
<text text-anchor="middle" x="3560.94" y="-177.5" font-family="Helvetica,sans-Serif" font-size="10.00">/src/app/headless_arm.c</text>
</a>
</g>
</g>
<!-- Node1&#45;&gt;Node28 -->
<g id="edge30_Node000001_Node000028" class="edge">
<title>Node1&#45;&gt;Node28</title>
<g id="a_edge30_Node000001_Node000028"><a xlink:title=" ">
<path fill="none" stroke="#63b8ff" d="M2352.15,-276.44C2578.27,-271.33 3256.44,-253.3 3473.94,-217 3482.31,-215.6 3491.02,-213.68 3499.55,-211.52"/>
<polygon fill="#63b8ff" stroke="#63b8ff" points="2351.97,-272.94 2342.05,-276.66 2352.13,-279.94 2351.97,-272.94"/>
</a>
</g>
</g>
<!-- Node29 -->
<g id="Node000029" class="node">
<title>Node29</title>
<g id="a_Node000029"><a xlink:href="headless__mb_8c.html" target="_top" xlink:title="Contains example code for user integration with their application. This file contains code for MicroB...">
<polygon fill="white" stroke="#666666" points="3814.44,-211.5 3657.44,-211.5 3657.44,-170.5 3814.44,-170.5 3814.44,-211.5"/>
<text text-anchor="start" x="3665.44" y="-199.5" font-family="Helvetica,sans-Serif" font-size="10.00">/home/runner/work/no</text>
<text text-anchor="start" x="3665.44" y="-188.5" font-family="Helvetica,sans-Serif" font-size="10.00">&#45;OS/no&#45;OS/projects/adrv9009</text>
<text text-anchor="middle" x="3735.94" y="-177.5" font-family="Helvetica,sans-Serif" font-size="10.00">/src/app/headless_mb.c</text>
</a>
</g>
</g>
<!-- Node1&#45;&gt;Node29 -->
<g id="edge31_Node000001_Node000029" class="edge">
<title>Node1&#45;&gt;Node29</title>
<g id="a_edge31_Node000001_Node000029"><a xlink:title=" ">
<path fill="none" stroke="#63b8ff" d="M2352.6,-276.99C2600.69,-273.27 3396.13,-258.35 3648.94,-217 3657.31,-215.63 3666.03,-213.73 3674.56,-211.57"/>
<polygon fill="#63b8ff" stroke="#63b8ff" points="2352.19,-273.5 2342.25,-277.14 2352.3,-280.5 2352.19,-273.5"/>
</a>
</g>
</g>
<!-- Node30 -->
<g id="Node000030" class="node">
<title>Node30</title>
<g id="a_Node000030"><a xlink:href="headless__zu_8c.html" target="_top" xlink:title="Contains example code for user integration with their application. This file contains code for ZU11EG...">
<polygon fill="white" stroke="#666666" points="3989.44,-211.5 3832.44,-211.5 3832.44,-170.5 3989.44,-170.5 3989.44,-211.5"/>
<text text-anchor="start" x="3840.44" y="-199.5" font-family="Helvetica,sans-Serif" font-size="10.00">/home/runner/work/no</text>
<text text-anchor="start" x="3840.44" y="-188.5" font-family="Helvetica,sans-Serif" font-size="10.00">&#45;OS/no&#45;OS/projects/adrv9009</text>
<text text-anchor="middle" x="3910.94" y="-177.5" font-family="Helvetica,sans-Serif" font-size="10.00">/src/app/headless_zu.c</text>
</a>
</g>
</g>
<!-- Node1&#45;&gt;Node30 -->
<g id="edge32_Node000001_Node000030" class="edge">
<title>Node1&#45;&gt;Node30</title>
<g id="a_edge32_Node000001_Node000030"><a xlink:title=" ">
<path fill="none" stroke="#63b8ff" d="M2352.41,-277.43C2620.45,-275.01 3535.41,-263.45 3823.94,-217 3832.32,-215.65 3841.03,-213.76 3849.57,-211.61"/>
<polygon fill="#63b8ff" stroke="#63b8ff" points="2351.98,-273.93 2342.01,-277.52 2352.04,-280.93 2351.98,-273.93"/>
</a>
</g>
</g>
<!-- Node31 -->
<g id="Node000031" class="node">
<title>Node31</title>
<g id="a_Node000031"><a xlink:href="adrv902x_2src_2examples_2basic__example_2basic__example_8c.html" target="_top" xlink:title="Basic example for the adrv902x project.">
<polygon fill="white" stroke="#666666" points="4168.44,-217 4007.44,-217 4007.44,-165 4168.44,-165 4168.44,-217"/>
<text text-anchor="start" x="4015.44" y="-205" font-family="Helvetica,sans-Serif" font-size="10.00">/home/runner/work/no</text>
<text text-anchor="start" x="4015.44" y="-194" font-family="Helvetica,sans-Serif" font-size="10.00">&#45;OS/no&#45;OS/projects/adrv902x</text>
<text text-anchor="start" x="4015.44" y="-183" font-family="Helvetica,sans-Serif" font-size="10.00">/src/examples/basic_example</text>
<text text-anchor="middle" x="4087.94" y="-172" font-family="Helvetica,sans-Serif" font-size="10.00">/basic_example.c</text>
</a>
</g>
</g>
<!-- Node1&#45;&gt;Node31 -->
<g id="edge33_Node000001_Node000031" class="edge">
<title>Node1&#45;&gt;Node31</title>
<g id="a_edge33_Node000001_Node000031"><a xlink:title=" ">
<path fill="none" stroke="#63b8ff" d="M2352.51,-277.72C2639.75,-276.27 3674.49,-267.57 3998.94,-217 4001.63,-216.58 4004.36,-216.11 4007.11,-215.59"/>
<polygon fill="#63b8ff" stroke="#63b8ff" points="2352.19,-274.22 2342.21,-277.77 2352.23,-281.22 2352.19,-274.22"/>
</a>
</g>
</g>
<!-- Node32 -->
<g id="Node000032" class="node">
<title>Node32</title>
<g id="a_Node000032"><a xlink:href="dma__example_8c.html" target="_top" xlink:title="DMA example for the adrv902x project.">
<polygon fill="white" stroke="#666666" points="4344.94,-217 4186.94,-217 4186.94,-165 4344.94,-165 4344.94,-217"/>
<text text-anchor="start" x="4194.94" y="-205" font-family="Helvetica,sans-Serif" font-size="10.00">/home/runner/work/no</text>
<text text-anchor="start" x="4194.94" y="-194" font-family="Helvetica,sans-Serif" font-size="10.00">&#45;OS/no&#45;OS/projects/adrv902x</text>
<text text-anchor="start" x="4194.94" y="-183" font-family="Helvetica,sans-Serif" font-size="10.00">/src/examples/dma_example</text>
<text text-anchor="middle" x="4265.94" y="-172" font-family="Helvetica,sans-Serif" font-size="10.00">/dma_example.c</text>
</a>
</g>
</g>
<!-- Node1&#45;&gt;Node32 -->
<g id="edge34_Node000001_Node000032" class="edge">
<title>Node1&#45;&gt;Node32</title>
<g id="a_edge34_Node000001_Node000032"><a xlink:title=" ">
<path fill="none" stroke="#63b8ff" d="M2352.03,-278.04C2657.07,-277.83 3816.6,-273.25 4177.94,-217 4180.76,-216.56 4183.62,-216.06 4186.51,-215.51"/>
<polygon fill="#63b8ff" stroke="#63b8ff" points="2351.97,-274.54 2341.97,-278.04 2351.98,-281.54 2351.97,-274.54"/>
</a>
</g>
</g>
<!-- Node33 -->
<g id="Node000033" class="node">
<title>Node33</title>
<g id="a_Node000033"><a xlink:href="fmcdaq2_8c.html" target="_top" xlink:title="Implementation of Main Function.">
<polygon fill="white" stroke="#666666" points="4516.94,-211.5 4362.94,-211.5 4362.94,-170.5 4516.94,-170.5 4516.94,-211.5"/>
<text text-anchor="start" x="4370.94" y="-199.5" font-family="Helvetica,sans-Serif" font-size="10.00">/home/runner/work/no</text>
<text text-anchor="start" x="4370.94" y="-188.5" font-family="Helvetica,sans-Serif" font-size="10.00">&#45;OS/no&#45;OS/projects/fmcdaq2</text>
<text text-anchor="middle" x="4439.94" y="-177.5" font-family="Helvetica,sans-Serif" font-size="10.00">/src/app/fmcdaq2.c</text>
</a>
</g>
</g>
<!-- Node1&#45;&gt;Node33 -->
<g id="edge36_Node000001_Node000033" class="edge">
<title>Node1&#45;&gt;Node33</title>
<g id="a_edge36_Node000001_Node000033"><a xlink:title=" ">
<path fill="none" stroke="#63b8ff" d="M2352.13,-278.34C2674.67,-279.4 3956.54,-279.56 4353.94,-217 4362.39,-215.67 4371.17,-213.76 4379.76,-211.57"/>
<polygon fill="#63b8ff" stroke="#63b8ff" points="2351.98,-274.83 2341.96,-278.3 2351.95,-281.83 2351.98,-274.83"/>
</a>
</g>
</g>
<!-- Node34 -->
<g id="Node000034" class="node">
<title>Node34</title>
<g id="a_Node000034"><a xlink:href="fmcdaq3_8c.html" target="_top" xlink:title="Implementation of Main Function.">
<polygon fill="white" stroke="#666666" points="4688.94,-211.5 4534.94,-211.5 4534.94,-170.5 4688.94,-170.5 4688.94,-211.5"/>
<text text-anchor="start" x="4542.94" y="-199.5" font-family="Helvetica,sans-Serif" font-size="10.00">/home/runner/work/no</text>
<text text-anchor="start" x="4542.94" y="-188.5" font-family="Helvetica,sans-Serif" font-size="10.00">&#45;OS/no&#45;OS/projects/fmcdaq3</text>
<text text-anchor="middle" x="4611.94" y="-177.5" font-family="Helvetica,sans-Serif" font-size="10.00">/src/app/fmcdaq3.c</text>
</a>
</g>
</g>
<!-- Node1&#45;&gt;Node34 -->
<g id="edge37_Node000001_Node000034" class="edge">
<title>Node1&#45;&gt;Node34</title>
<g id="a_edge37_Node000001_Node000034"><a xlink:title=" ">
<path fill="none" stroke="#63b8ff" d="M2352.16,-277.11C2716.57,-272.61 4307.56,-251.13 4525.94,-217 4534.39,-215.68 4543.17,-213.77 4551.77,-211.59"/>
<polygon fill="#63b8ff" stroke="#63b8ff" points="2351.95,-273.62 2341.99,-277.24 2352.04,-280.61 2351.95,-273.62"/>
</a>
</g>
</g>
<!-- Node3 -->
<g id="Node000003" class="node">
<title>Node3</title>
<g id="a_Node000003"><a xlink:href="ad796x_8c.html" target="_top" xlink:title="Implementation of AD796X Driver.">
<polygon fill="white" stroke="#666666" points="142.94,-123.5 18.94,-123.5 18.94,-82.5 142.94,-82.5 142.94,-123.5"/>
<text text-anchor="start" x="26.94" y="-111.5" font-family="Helvetica,sans-Serif" font-size="10.00">/home/runner/work/no</text>
<text text-anchor="start" x="26.94" y="-100.5" font-family="Helvetica,sans-Serif" font-size="10.00">&#45;OS/no&#45;OS/drivers/adc</text>
<text text-anchor="middle" x="80.94" y="-89.5" font-family="Helvetica,sans-Serif" font-size="10.00">/ad796x/ad796x.c</text>
</a>
</g>
</g>
<!-- Node2&#45;&gt;Node3 -->
<g id="edge2_Node000002_Node000003" class="edge">
<title>Node2&#45;&gt;Node3</title>
<g id="a_edge2_Node000002_Node000003"><a xlink:title=" ">
<path fill="none" stroke="#63b8ff" d="M244.43,-166.77C209.24,-153.26 165.38,-136.42 131.95,-123.59"/>
<polygon fill="#63b8ff" stroke="#63b8ff" points="243.52,-170.17 254.11,-170.49 246.03,-163.63 243.52,-170.17"/>
</a>
</g>
</g>
<!-- Node2&#45;&gt;Node4 -->
<g id="edge3_Node000002_Node000004" class="edge">
<title>Node2&#45;&gt;Node4</title>
<g id="a_edge3_Node000002_Node000004"><a xlink:title=" ">
<path fill="none" stroke="#63b8ff" d="M234.59,-166C217.26,-156.94 200.41,-144.86 188.94,-129 170.19,-103.09 168.35,-64.54 169.27,-41.33"/>
<polygon fill="#63b8ff" stroke="#63b8ff" points="233.15,-169.2 243.67,-170.47 236.24,-162.92 233.15,-169.2"/>
</a>
</g>
</g>
<!-- Node5 -->
<g id="Node000005" class="node">
<title>Node5</title>
<g id="a_Node000005"><a xlink:href="ad796x__fmcz_2src_2common_2common__data_8h.html" target="_top" xlink:title="Defines common data to be used by iio examples.">
<polygon fill="white" stroke="#666666" points="556.44,-123.5 365.44,-123.5 365.44,-82.5 556.44,-82.5 556.44,-123.5"/>
<text text-anchor="start" x="373.44" y="-111.5" font-family="Helvetica,sans-Serif" font-size="10.00">/home/runner/work/no</text>
<text text-anchor="start" x="373.44" y="-100.5" font-family="Helvetica,sans-Serif" font-size="10.00">&#45;OS/no&#45;OS/projects/ad796x</text>
<text text-anchor="middle" x="460.94" y="-89.5" font-family="Helvetica,sans-Serif" font-size="10.00">_fmcz/src/common/common_data.h</text>
</a>
</g>
</g>
<!-- Node2&#45;&gt;Node5 -->
<g id="edge4_Node000002_Node000005" class="edge">
<title>Node2&#45;&gt;Node5</title>
<g id="a_edge4_Node000002_Node000005"><a xlink:title=" ">
<path fill="none" stroke="#63b8ff" d="M349.29,-165.55C373.41,-152.26 402.82,-136.04 425.41,-123.59"/>
<polygon fill="#63b8ff" stroke="#63b8ff" points="347.4,-162.59 340.34,-170.49 350.78,-168.72 347.4,-162.59"/>
</a>
</g>
</g>
<!-- Node6 -->
<g id="Node000006" class="node">
<title>Node6</title>
<g id="a_Node000006"><a xlink:href="ad796x__fmcz_2src_2examples_2basic__example_2basic__example_8c.html" target="_top" xlink:title="Implementation of BASIC example.">
<polygon fill="white" stroke="#666666" points="347.44,-129 198.44,-129 198.44,-77 347.44,-77 347.44,-129"/>
<text text-anchor="start" x="206.44" y="-117" font-family="Helvetica,sans-Serif" font-size="10.00">/home/runner/work/no</text>
<text text-anchor="start" x="206.44" y="-106" font-family="Helvetica,sans-Serif" font-size="10.00">&#45;OS/no&#45;OS/projects/ad796x</text>
<text text-anchor="start" x="206.44" y="-95" font-family="Helvetica,sans-Serif" font-size="10.00">_fmcz/src/examples/basic</text>
<text text-anchor="middle" x="272.94" y="-84" font-family="Helvetica,sans-Serif" font-size="10.00">_example/basic_example.c</text>
</a>
</g>
</g>
<!-- Node2&#45;&gt;Node6 -->
<g id="edge6_Node000002_Node000006" class="edge">
<title>Node2&#45;&gt;Node6</title>
<g id="a_edge6_Node000002_Node000006"><a xlink:title=" ">
<path fill="none" stroke="#63b8ff" d="M294.18,-161.08C290.35,-150.79 286.07,-139.28 282.36,-129.32"/>
<polygon fill="#63b8ff" stroke="#63b8ff" points="290.91,-162.33 297.68,-170.49 297.47,-159.89 290.91,-162.33"/>
</a>
</g>
</g>
<!-- Node7 -->
<g id="Node000007" class="node">
<title>Node7</title>
<g id="a_Node000007"><a xlink:href="ad796x__fmcz_2src_2examples_2iio__example_2iio__example_8c.html" target="_top" xlink:title="Implementation of IIO example for iio project.">
<polygon fill="white" stroke="#666666" points="751.44,-129 574.44,-129 574.44,-77 751.44,-77 751.44,-129"/>
<text text-anchor="start" x="582.44" y="-117" font-family="Helvetica,sans-Serif" font-size="10.00">/home/runner/work/no</text>
<text text-anchor="start" x="582.44" y="-106" font-family="Helvetica,sans-Serif" font-size="10.00">&#45;OS/no&#45;OS/projects/ad796x</text>
<text text-anchor="start" x="582.44" y="-95" font-family="Helvetica,sans-Serif" font-size="10.00">_fmcz/src/examples/iio_example</text>
<text text-anchor="middle" x="662.94" y="-84" font-family="Helvetica,sans-Serif" font-size="10.00">/iio_example.c</text>
</a>
</g>
</g>
<!-- Node2&#45;&gt;Node7 -->
<g id="edge7_Node000002_Node000007" class="edge">
<title>Node2&#45;&gt;Node7</title>
<g id="a_edge7_Node000002_Node000007"><a xlink:title=" ">
<path fill="none" stroke="#63b8ff" d="M376.85,-173.52C429.1,-161.45 501.48,-144.54 564.94,-129 568.01,-128.25 571.13,-127.48 574.28,-126.7"/>
<polygon fill="#63b8ff" stroke="#63b8ff" points="375.96,-170.13 367.01,-175.79 377.54,-176.95 375.96,-170.13"/>
</a>
</g>
</g>
<!-- Node5&#45;&gt;Node4 -->
<g id="edge5_Node000005_Node000004" class="edge">
<title>Node5&#45;&gt;Node4</title>
<g id="a_edge5_Node000005_Node000004"><a xlink:title=" ">
<path fill="none" stroke="#63b8ff" d="M380.63,-79.71C336.93,-67.58 283.37,-52.71 241.32,-41.04"/>
<polygon fill="#63b8ff" stroke="#63b8ff" points="379.79,-83.11 390.37,-82.41 381.67,-76.36 379.79,-83.11"/>
</a>
</g>
</g>
<!-- Node10&#45;&gt;Node7 -->
<g id="edge12_Node000010_Node000007" class="edge">
<title>Node10&#45;&gt;Node7</title>
<g id="a_edge12_Node000010_Node000007"><a xlink:title=" ">
<path fill="none" stroke="#63b8ff" d="M750.72,-159.51C735.08,-149.62 717.9,-138.76 702.92,-129.29"/>
<polygon fill="#63b8ff" stroke="#63b8ff" points="748.91,-162.51 759.24,-164.89 752.65,-156.59 748.91,-162.51"/>
</a>
</g>
</g>
<!-- Node11 -->
<g id="Node000011" class="node">
<title>Node11</title>
<g id="a_Node000011"><a xlink:href="iio__axi__adc_8c.html" target="_top" xlink:title="Implementation of iio_axi_adc. This instantiates iio_axi_adc and iio_axi_dac devices,...">
<polygon fill="white" stroke="#666666" points="892.94,-129 768.94,-129 768.94,-77 892.94,-77 892.94,-129"/>
<text text-anchor="start" x="776.94" y="-117" font-family="Helvetica,sans-Serif" font-size="10.00">/home/runner/work/no</text>
<text text-anchor="start" x="776.94" y="-106" font-family="Helvetica,sans-Serif" font-size="10.00">&#45;OS/no&#45;OS/drivers/axi</text>
<text text-anchor="start" x="776.94" y="-95" font-family="Helvetica,sans-Serif" font-size="10.00">_core/iio_axi_adc/iio</text>
<text text-anchor="middle" x="830.94" y="-84" font-family="Helvetica,sans-Serif" font-size="10.00">_axi_adc.c</text>
</a>
</g>
</g>
<!-- Node10&#45;&gt;Node11 -->
<g id="edge11_Node000010_Node000011" class="edge">
<title>Node10&#45;&gt;Node11</title>
<g id="a_edge11_Node000010_Node000011"><a xlink:title=" ">
<path fill="none" stroke="#63b8ff" d="M811.92,-155.12C815.15,-146.43 818.56,-137.28 821.58,-129.16"/>
<polygon fill="#63b8ff" stroke="#63b8ff" points="808.57,-154.07 808.37,-164.66 815.13,-156.51 808.57,-154.07"/>
</a>
</g>
</g>
<!-- Node10&#45;&gt;Node12 -->
<g id="edge13_Node000010_Node000012" class="edge">
<title>Node10&#45;&gt;Node12</title>
<g id="a_edge13_Node000010_Node000012"><a xlink:title=" ">
<path fill="none" stroke="#63b8ff" d="M863.96,-160.73C886.75,-150.46 912.13,-139.03 934.11,-129.14"/>
<polygon fill="#63b8ff" stroke="#63b8ff" points="862.38,-157.6 854.7,-164.89 865.25,-163.98 862.38,-157.6"/>
</a>
</g>
</g>
</g>
</svg>
