<?xml version="1.0" encoding="UTF-8" standalone="no"?>
<!DOCTYPE svg PUBLIC "-//W3C//DTD SVG 1.1//EN"
 "http://www.w3.org/Graphics/SVG/1.1/DTD/svg11.dtd">
<!-- Generated by graphviz version 2.43.0 (0)
 -->
<!-- Title: /home/runner/work/no&#45;OS/no&#45;OS/drivers/axi_core/jesd204/axi_jesd204_tx.c Pages: 1 -->
<svg width="996pt" height="214pt"
 viewBox="0.00 0.00 996.00 214.00" xmlns="http://www.w3.org/2000/svg" xmlns:xlink="http://www.w3.org/1999/xlink">
<g id="graph0" class="graph" transform="scale(1 1) rotate(0) translate(4 210)">
<title>/home/runner/work/no&#45;OS/no&#45;OS/drivers/axi_core/jesd204/axi_jesd204_tx.c</title>
<!-- Node1 -->
<g id="Node000001" class="node">
<title>Node1</title>
<g id="a_Node000001"><a xlink:title="Driver for the Analog Devices AXI&#45;JESD204&#45;TX peripheral.">
<polygon fill="#999999" stroke="#666666" points="506.5,-206 337.5,-206 337.5,-165 506.5,-165 506.5,-206"/>
<text text-anchor="start" x="345.5" y="-194" font-family="Helvetica,sans-Serif" font-size="10.00">/home/runner/work/no</text>
<text text-anchor="start" x="345.5" y="-183" font-family="Helvetica,sans-Serif" font-size="10.00">&#45;OS/no&#45;OS/drivers/axi</text>
<text text-anchor="middle" x="422" y="-172" font-family="Helvetica,sans-Serif" font-size="10.00">_core/jesd204/axi_jesd204_tx.c</text>
</a>
</g>
</g>
<!-- Node2 -->
<g id="Node000002" class="node">
<title>Node2</title>
<g id="a_Node000002"><a xlink:title=" ">
<polygon fill="#e0e0e0" stroke="#999999" points="377.5,-74 324.5,-74 324.5,-55 377.5,-55 377.5,-74"/>
<text text-anchor="middle" x="351" y="-62" font-family="Helvetica,sans-Serif" font-size="10.00">stdlib.h</text>
</a>
</g>
</g>
<!-- Node1&#45;&gt;Node2 -->
<g id="edge1_Node000001_Node000002" class="edge">
<title>Node1&#45;&gt;Node2</title>
<g id="a_edge1_Node000001_Node000002"><a xlink:title=" ">
<path fill="none" stroke="#63b8ff" d="M400.53,-164.79C390.72,-154.84 379.62,-142.12 372,-129 363.8,-114.88 358.27,-97.11 354.95,-83.96"/>
<polygon fill="#63b8ff" stroke="#63b8ff" points="358.35,-83.13 352.68,-74.19 351.54,-84.72 358.35,-83.13"/>
</a>
</g>
</g>
<!-- Node3 -->
<g id="Node000003" class="node">
<title>Node3</title>
<g id="a_Node000003"><a xlink:title=" ">
<polygon fill="#e0e0e0" stroke="#999999" points="155,-74 105,-74 105,-55 155,-55 155,-74"/>
<text text-anchor="middle" x="130" y="-62" font-family="Helvetica,sans-Serif" font-size="10.00">stdio.h</text>
</a>
</g>
</g>
<!-- Node1&#45;&gt;Node3 -->
<g id="edge2_Node000001_Node000003" class="edge">
<title>Node1&#45;&gt;Node3</title>
<g id="a_edge2_Node000001_Node000003"><a xlink:title=" ">
<path fill="none" stroke="#63b8ff" d="M337.22,-176.78C267.59,-168.76 176.18,-153.83 149,-129 136.67,-117.73 132.21,-98.82 130.66,-84.56"/>
<polygon fill="#63b8ff" stroke="#63b8ff" points="134.14,-84.09 129.95,-74.35 127.16,-84.57 134.14,-84.09"/>
</a>
</g>
</g>
<!-- Node4 -->
<g id="Node000004" class="node">
<title>Node4</title>
<g id="a_Node000004"><a xlink:title=" ">
<polygon fill="#e0e0e0" stroke="#999999" points="223.5,-129 158.5,-129 158.5,-110 223.5,-110 223.5,-129"/>
<text text-anchor="middle" x="191" y="-117" font-family="Helvetica,sans-Serif" font-size="10.00">inttypes.h</text>
</a>
</g>
</g>
<!-- Node1&#45;&gt;Node4 -->
<g id="edge3_Node000001_Node000004" class="edge">
<title>Node1&#45;&gt;Node4</title>
<g id="a_edge3_Node000001_Node000004"><a xlink:title=" ">
<path fill="none" stroke="#63b8ff" d="M351.44,-164.95C312.12,-154.06 264.57,-140.88 231.49,-131.72"/>
<polygon fill="#63b8ff" stroke="#63b8ff" points="232.28,-128.31 221.71,-129.01 230.41,-135.05 232.28,-128.31"/>
</a>
</g>
</g>
<!-- Node5 -->
<g id="Node000005" class="node">
<title>Node5</title>
<g id="a_Node000005"><a xlink:href="no__os__clk_8h.html" target="_top" xlink:title="Header file of Clock Driver.">
<polygon fill="white" stroke="#666666" points="826,-74 752,-74 752,-55 826,-55 826,-74"/>
<text text-anchor="middle" x="789" y="-62" font-family="Helvetica,sans-Serif" font-size="10.00">no_os_clk.h</text>
</a>
</g>
</g>
<!-- Node1&#45;&gt;Node5 -->
<g id="edge4_Node000001_Node000005" class="edge">
<title>Node1&#45;&gt;Node5</title>
<g id="a_edge4_Node000001_Node000005"><a xlink:title=" ">
<path fill="none" stroke="#63b8ff" d="M495.55,-164.99C532.25,-154.9 577.18,-142 617,-129 666.85,-112.73 723.77,-91.1 758.01,-77.75"/>
<polygon fill="#63b8ff" stroke="#63b8ff" points="759.43,-80.96 767.46,-74.05 756.88,-74.44 759.43,-80.96"/>
</a>
</g>
</g>
<!-- Node7 -->
<g id="Node000007" class="node">
<title>Node7</title>
<g id="a_Node000007"><a xlink:href="no__os__error_8h.html" target="_top" xlink:title="Error codes definition.">
<polygon fill="white" stroke="#666666" points="463,-129 381,-129 381,-110 463,-110 463,-129"/>
<text text-anchor="middle" x="422" y="-117" font-family="Helvetica,sans-Serif" font-size="10.00">no_os_error.h</text>
</a>
</g>
</g>
<!-- Node1&#45;&gt;Node7 -->
<g id="edge6_Node000001_Node000007" class="edge">
<title>Node1&#45;&gt;Node7</title>
<g id="a_edge6_Node000001_Node000007"><a xlink:title=" ">
<path fill="none" stroke="#63b8ff" d="M422,-164.95C422,-156.85 422,-147.5 422,-139.47"/>
<polygon fill="#63b8ff" stroke="#63b8ff" points="425.5,-139.26 422,-129.26 418.5,-139.26 425.5,-139.26"/>
</a>
</g>
</g>
<!-- Node9 -->
<g id="Node000009" class="node">
<title>Node9</title>
<g id="a_Node000009"><a xlink:href="no__os__util_8h.html" target="_top" xlink:title="Header file of utility functions.">
<polygon fill="white" stroke="#666666" points="556.5,-129 481.5,-129 481.5,-110 556.5,-110 556.5,-129"/>
<text text-anchor="middle" x="519" y="-117" font-family="Helvetica,sans-Serif" font-size="10.00">no_os_util.h</text>
</a>
</g>
</g>
<!-- Node1&#45;&gt;Node9 -->
<g id="edge8_Node000001_Node000009" class="edge">
<title>Node1&#45;&gt;Node9</title>
<g id="a_edge8_Node000001_Node000009"><a xlink:title=" ">
<path fill="none" stroke="#63b8ff" d="M451.63,-164.95C466.39,-155.21 483.91,-143.65 497.38,-134.76"/>
<polygon fill="#63b8ff" stroke="#63b8ff" points="499.56,-137.52 505.98,-129.09 495.7,-131.68 499.56,-137.52"/>
</a>
</g>
</g>
<!-- Node11 -->
<g id="Node000011" class="node">
<title>Node11</title>
<g id="a_Node000011"><a xlink:href="no__os__alloc_8h.html" target="_top" xlink:title=" ">
<polygon fill="white" stroke="#666666" points="324.5,-129 241.5,-129 241.5,-110 324.5,-110 324.5,-129"/>
<text text-anchor="middle" x="283" y="-117" font-family="Helvetica,sans-Serif" font-size="10.00">no_os_alloc.h</text>
</a>
</g>
</g>
<!-- Node1&#45;&gt;Node11 -->
<g id="edge12_Node000001_Node000011" class="edge">
<title>Node1&#45;&gt;Node11</title>
<g id="a_edge12_Node000001_Node000011"><a xlink:title=" ">
<path fill="none" stroke="#63b8ff" d="M379.54,-164.95C357.27,-154.7 330.62,-142.43 310.97,-133.38"/>
<polygon fill="#63b8ff" stroke="#63b8ff" points="312.21,-130.1 301.66,-129.09 309.28,-136.45 312.21,-130.1"/>
</a>
</g>
</g>
<!-- Node12 -->
<g id="Node000012" class="node">
<title>Node12</title>
<g id="a_Node000012"><a xlink:href="axi__jesd204__tx_8h.html" target="_top" xlink:title="Driver for the Analog Devices AXI&#45;JESD204&#45;TX peripheral.">
<polygon fill="white" stroke="#666666" points="903.5,-129 804.5,-129 804.5,-110 903.5,-110 903.5,-129"/>
<text text-anchor="middle" x="854" y="-117" font-family="Helvetica,sans-Serif" font-size="10.00">axi_jesd204_tx.h</text>
</a>
</g>
</g>
<!-- Node1&#45;&gt;Node12 -->
<g id="edge15_Node000001_Node000012" class="edge">
<title>Node1&#45;&gt;Node12</title>
<g id="a_edge15_Node000001_Node000012"><a xlink:title=" ">
<path fill="none" stroke="#63b8ff" d="M506.58,-171.97C591.27,-159.42 719.44,-140.43 794.13,-129.37"/>
<polygon fill="#63b8ff" stroke="#63b8ff" points="794.93,-132.79 804.31,-127.86 793.9,-125.87 794.93,-132.79"/>
</a>
</g>
</g>
<!-- Node15 -->
<g id="Node000015" class="node">
<title>Node15</title>
<g id="a_Node000015"><a xlink:href="no__os__axi__io_8h.html" target="_top" xlink:title="Header file of AXI IO.">
<polygon fill="white" stroke="#666666" points="630.5,-74 541.5,-74 541.5,-55 630.5,-55 630.5,-74"/>
<text text-anchor="middle" x="586" y="-62" font-family="Helvetica,sans-Serif" font-size="10.00">no_os_axi_io.h</text>
</a>
</g>
</g>
<!-- Node1&#45;&gt;Node15 -->
<g id="edge23_Node000001_Node000015" class="edge">
<title>Node1&#45;&gt;Node15</title>
<g id="a_edge23_Node000001_Node000015"><a xlink:title=" ">
<path fill="none" stroke="#63b8ff" d="M506.55,-166.09C528.3,-157.84 550.04,-145.99 566,-129 577.49,-116.77 582.38,-97.99 584.46,-84.02"/>
<polygon fill="#63b8ff" stroke="#63b8ff" points="587.94,-84.4 585.6,-74.06 580.98,-83.6 587.94,-84.4"/>
</a>
</g>
</g>
<!-- Node16 -->
<g id="Node000016" class="node">
<title>Node16</title>
<g id="a_Node000016"><a xlink:href="no__os__delay_8h.html" target="_top" xlink:title="Header file of Delay functions.">
<polygon fill="white" stroke="#666666" points="733.5,-74 648.5,-74 648.5,-55 733.5,-55 733.5,-74"/>
<text text-anchor="middle" x="691" y="-62" font-family="Helvetica,sans-Serif" font-size="10.00">no_os_delay.h</text>
</a>
</g>
</g>
<!-- Node1&#45;&gt;Node16 -->
<g id="edge25_Node000001_Node000016" class="edge">
<title>Node1&#45;&gt;Node16</title>
<g id="a_edge25_Node000001_Node000016"><a xlink:title=" ">
<path fill="none" stroke="#63b8ff" d="M489.87,-164.94C519.63,-155.46 554.62,-143.08 585,-129 616.03,-114.62 649.51,-93.53 670.37,-79.66"/>
<polygon fill="#63b8ff" stroke="#63b8ff" points="672.4,-82.51 678.75,-74.02 668.5,-76.7 672.4,-82.51"/>
</a>
</g>
</g>
<!-- Node17 -->
<g id="Node000017" class="node">
<title>Node17</title>
<g id="a_Node000017"><a xlink:href="no__os__print__log_8h.html" target="_top" xlink:title="Print messages helpers.">
<polygon fill="white" stroke="#666666" points="102,-129 0,-129 0,-110 102,-110 102,-129"/>
<text text-anchor="middle" x="51" y="-117" font-family="Helvetica,sans-Serif" font-size="10.00">no_os_print_log.h</text>
</a>
</g>
</g>
<!-- Node1&#45;&gt;Node17 -->
<g id="edge27_Node000001_Node000017" class="edge">
<title>Node1&#45;&gt;Node17</title>
<g id="a_edge27_Node000001_Node000017"><a xlink:title=" ">
<path fill="none" stroke="#63b8ff" d="M337.35,-169.9C267.97,-157.93 171.53,-141.29 110.19,-130.71"/>
<polygon fill="#63b8ff" stroke="#63b8ff" points="110.74,-127.25 100.29,-129 109.55,-134.15 110.74,-127.25"/>
</a>
</g>
</g>
<!-- Node6 -->
<g id="Node000006" class="node">
<title>Node6</title>
<g id="a_Node000006"><a xlink:title=" ">
<polygon fill="#e0e0e0" stroke="#999999" points="766.5,-19 713.5,-19 713.5,0 766.5,0 766.5,-19"/>
<text text-anchor="middle" x="740" y="-7" font-family="Helvetica,sans-Serif" font-size="10.00">stdint.h</text>
</a>
</g>
</g>
<!-- Node5&#45;&gt;Node6 -->
<g id="edge5_Node000005_Node000006" class="edge">
<title>Node5&#45;&gt;Node6</title>
<g id="a_edge5_Node000005_Node000006"><a xlink:title=" ">
<path fill="none" stroke="#63b8ff" d="M780.91,-54.75C773.84,-47.11 763.41,-35.82 754.85,-26.56"/>
<polygon fill="#63b8ff" stroke="#63b8ff" points="757.3,-24.06 747.94,-19.09 752.16,-28.81 757.3,-24.06"/>
</a>
</g>
</g>
<!-- Node8 -->
<g id="Node000008" class="node">
<title>Node8</title>
<g id="a_Node000008"><a xlink:href="errno_8h.html" target="_top" xlink:title="Error macro definition for ARM Compiler.">
<polygon fill="white" stroke="#666666" points="446.5,-74 395.5,-74 395.5,-55 446.5,-55 446.5,-74"/>
<text text-anchor="middle" x="421" y="-62" font-family="Helvetica,sans-Serif" font-size="10.00">errno.h</text>
</a>
</g>
</g>
<!-- Node7&#45;&gt;Node8 -->
<g id="edge7_Node000007_Node000008" class="edge">
<title>Node7&#45;&gt;Node8</title>
<g id="a_edge7_Node000007_Node000008"><a xlink:title=" ">
<path fill="none" stroke="#63b8ff" d="M421.83,-109.75C421.7,-102.8 421.52,-92.85 421.35,-84.13"/>
<polygon fill="#63b8ff" stroke="#63b8ff" points="424.85,-84.02 421.16,-74.09 417.85,-84.15 424.85,-84.02"/>
</a>
</g>
</g>
<!-- Node9&#45;&gt;Node2 -->
<g id="edge10_Node000009_Node000002" class="edge">
<title>Node9&#45;&gt;Node2</title>
<g id="a_edge10_Node000009_Node000002"><a xlink:title=" ">
<path fill="none" stroke="#63b8ff" d="M492.01,-109.98C463.64,-101.03 418.83,-86.9 387.36,-76.97"/>
<polygon fill="#63b8ff" stroke="#63b8ff" points="388.24,-73.58 377.65,-73.91 386.13,-80.25 388.24,-73.58"/>
</a>
</g>
</g>
<!-- Node9&#45;&gt;Node6 -->
<g id="edge9_Node000009_Node000006" class="edge">
<title>Node9&#45;&gt;Node6</title>
<g id="a_edge9_Node000009_Node000006"><a xlink:title=" ">
<path fill="none" stroke="#63b8ff" d="M511.58,-109.7C501.33,-96.44 485.54,-71.17 499,-55 524.48,-24.38 641.63,-14.75 702.71,-11.78"/>
<polygon fill="#63b8ff" stroke="#63b8ff" points="703.24,-15.26 713.08,-11.31 702.93,-8.27 703.24,-15.26"/>
</a>
</g>
</g>
<!-- Node10 -->
<g id="Node000010" class="node">
<title>Node10</title>
<g id="a_Node000010"><a xlink:title=" ">
<polygon fill="#e0e0e0" stroke="#999999" points="914,-19 852,-19 852,0 914,0 914,-19"/>
<text text-anchor="middle" x="883" y="-7" font-family="Helvetica,sans-Serif" font-size="10.00">stdbool.h</text>
</a>
</g>
</g>
<!-- Node9&#45;&gt;Node10 -->
<g id="edge11_Node000009_Node000010" class="edge">
<title>Node9&#45;&gt;Node10</title>
<g id="a_edge11_Node000009_Node000010"><a xlink:title=" ">
<path fill="none" stroke="#63b8ff" d="M518.06,-109.58C517.14,-95.68 517.66,-69.01 533,-55 544.31,-44.67 751.73,-23.3 841.81,-14.46"/>
<polygon fill="#63b8ff" stroke="#63b8ff" points="842.33,-17.93 851.94,-13.47 841.65,-10.96 842.33,-17.93"/>
</a>
</g>
</g>
<!-- Node11&#45;&gt;Node2 -->
<g id="edge14_Node000011_Node000002" class="edge">
<title>Node11&#45;&gt;Node2</title>
<g id="a_edge14_Node000011_Node000002"><a xlink:title=" ">
<path fill="none" stroke="#63b8ff" d="M293.93,-109.98C304.08,-102.07 319.42,-90.11 331.65,-80.58"/>
<polygon fill="#63b8ff" stroke="#63b8ff" points="334.14,-83.08 339.88,-74.17 329.84,-77.56 334.14,-83.08"/>
</a>
</g>
</g>
<!-- Node11&#45;&gt;Node3 -->
<g id="edge13_Node000011_Node000003" class="edge">
<title>Node11&#45;&gt;Node3</title>
<g id="a_edge13_Node000011_Node000003"><a xlink:title=" ">
<path fill="none" stroke="#63b8ff" d="M258.42,-109.98C232.95,-101.16 192.96,-87.31 164.37,-77.41"/>
<polygon fill="#63b8ff" stroke="#63b8ff" points="165.37,-74.05 154.77,-74.08 163.08,-80.66 165.37,-74.05"/>
</a>
</g>
</g>
<!-- Node12&#45;&gt;Node5 -->
<g id="edge22_Node000012_Node000005" class="edge">
<title>Node12&#45;&gt;Node5</title>
<g id="a_edge22_Node000012_Node000005"><a xlink:title=" ">
<path fill="none" stroke="#63b8ff" d="M843.56,-109.98C833.85,-102.07 819.18,-90.11 807.5,-80.58"/>
<polygon fill="#63b8ff" stroke="#63b8ff" points="809.6,-77.78 799.63,-74.17 805.17,-83.2 809.6,-77.78"/>
</a>
</g>
</g>
<!-- Node12&#45;&gt;Node6 -->
<g id="edge16_Node000012_Node000006" class="edge">
<title>Node12&#45;&gt;Node6</title>
<g id="a_edge16_Node000012_Node000006"><a xlink:title=" ">
<path fill="none" stroke="#63b8ff" d="M853.58,-109.63C852.51,-96.26 848.68,-70.86 835,-55 819.84,-37.42 796.22,-26.32 776.33,-19.59"/>
<polygon fill="#63b8ff" stroke="#63b8ff" points="777.22,-16.2 766.63,-16.55 775.12,-22.88 777.22,-16.2"/>
</a>
</g>
</g>
<!-- Node12&#45;&gt;Node10 -->
<g id="edge17_Node000012_Node000010" class="edge">
<title>Node12&#45;&gt;Node10</title>
<g id="a_edge17_Node000012_Node000010"><a xlink:title=" ">
<path fill="none" stroke="#63b8ff" d="M856.98,-109.69C859.95,-100.75 864.56,-86.49 868,-74 872.14,-58.96 876.16,-41.73 879,-29.02"/>
<polygon fill="#63b8ff" stroke="#63b8ff" points="882.43,-29.7 881.16,-19.18 875.6,-28.19 882.43,-29.7"/>
</a>
</g>
</g>
<!-- Node13 -->
<g id="Node000013" class="node">
<title>Node13</title>
<g id="a_Node000013"><a xlink:href="jesd204_8h.html" target="_top" xlink:title=" ">
<polygon fill="white" stroke="#666666" points="984,-74 920,-74 920,-55 984,-55 984,-74"/>
<text text-anchor="middle" x="952" y="-62" font-family="Helvetica,sans-Serif" font-size="10.00">jesd204.h</text>
</a>
</g>
</g>
<!-- Node12&#45;&gt;Node13 -->
<g id="edge18_Node000012_Node000013" class="edge">
<title>Node12&#45;&gt;Node13</title>
<g id="a_edge18_Node000012_Node000013"><a xlink:title=" ">
<path fill="none" stroke="#63b8ff" d="M869.75,-109.98C885.23,-101.61 909.09,-88.7 927.14,-78.95"/>
<polygon fill="#63b8ff" stroke="#63b8ff" points="928.84,-82.01 935.97,-74.17 925.51,-75.85 928.84,-82.01"/>
</a>
</g>
</g>
<!-- Node13&#45;&gt;Node6 -->
<g id="edge21_Node000013_Node000006" class="edge">
<title>Node13&#45;&gt;Node6</title>
<g id="a_edge21_Node000013_Node000006"><a xlink:title=" ">
<path fill="none" stroke="#63b8ff" d="M919.8,-55.45C881.25,-45.81 816.85,-29.71 776.49,-19.62"/>
<polygon fill="#63b8ff" stroke="#63b8ff" points="777.33,-16.23 766.78,-17.2 775.63,-23.02 777.33,-16.23"/>
</a>
</g>
</g>
<!-- Node13&#45;&gt;Node10 -->
<g id="edge19_Node000013_Node000010" class="edge">
<title>Node13&#45;&gt;Node10</title>
<g id="a_edge19_Node000013_Node000010"><a xlink:title=" ">
<path fill="none" stroke="#63b8ff" d="M940.91,-54.98C930.51,-47 914.74,-34.88 902.28,-25.31"/>
<polygon fill="#63b8ff" stroke="#63b8ff" points="904.35,-22.49 894.29,-19.17 900.09,-28.04 904.35,-22.49"/>
</a>
</g>
</g>
<!-- Node14 -->
<g id="Node000014" class="node">
<title>Node14</title>
<g id="a_Node000014"><a xlink:title=" ">
<polygon fill="#e0e0e0" stroke="#999999" points="988,-19 932,-19 932,0 988,0 988,-19"/>
<text text-anchor="middle" x="960" y="-7" font-family="Helvetica,sans-Serif" font-size="10.00">stddef.h</text>
</a>
</g>
</g>
<!-- Node13&#45;&gt;Node14 -->
<g id="edge20_Node000013_Node000014" class="edge">
<title>Node13&#45;&gt;Node14</title>
<g id="a_edge20_Node000013_Node000014"><a xlink:title=" ">
<path fill="none" stroke="#63b8ff" d="M953.32,-54.75C954.37,-47.8 955.87,-37.85 957.19,-29.13"/>
<polygon fill="#63b8ff" stroke="#63b8ff" points="960.67,-29.5 958.7,-19.09 953.75,-28.45 960.67,-29.5"/>
</a>
</g>
</g>
<!-- Node15&#45;&gt;Node6 -->
<g id="edge24_Node000015_Node000006" class="edge">
<title>Node15&#45;&gt;Node6</title>
<g id="a_edge24_Node000015_Node000006"><a xlink:title=" ">
<path fill="none" stroke="#63b8ff" d="M610.74,-54.98C636.37,-46.16 676.63,-32.31 705.41,-22.41"/>
<polygon fill="#63b8ff" stroke="#63b8ff" points="706.75,-25.65 715.06,-19.08 704.47,-19.03 706.75,-25.65"/>
</a>
</g>
</g>
<!-- Node16&#45;&gt;Node6 -->
<g id="edge26_Node000016_Node000006" class="edge">
<title>Node16&#45;&gt;Node6</title>
<g id="a_edge26_Node000016_Node000006"><a xlink:title=" ">
<path fill="none" stroke="#63b8ff" d="M699.09,-54.75C706.16,-47.11 716.59,-35.82 725.15,-26.56"/>
<polygon fill="#63b8ff" stroke="#63b8ff" points="727.84,-28.81 732.06,-19.09 722.7,-24.06 727.84,-28.81"/>
</a>
</g>
</g>
<!-- Node17&#45;&gt;Node3 -->
<g id="edge28_Node000017_Node000003" class="edge">
<title>Node17&#45;&gt;Node3</title>
<g id="a_edge28_Node000017_Node000003"><a xlink:title=" ">
<path fill="none" stroke="#63b8ff" d="M63.69,-109.98C75.83,-101.84 94.36,-89.41 108.75,-79.76"/>
<polygon fill="#63b8ff" stroke="#63b8ff" points="110.72,-82.65 117.08,-74.17 106.82,-76.84 110.72,-82.65"/>
</a>
</g>
</g>
</g>
</svg>
