<?xml version="1.0" encoding="UTF-8" standalone="no"?>
<!DOCTYPE svg PUBLIC "-//W3C//DTD SVG 1.1//EN"
 "http://www.w3.org/Graphics/SVG/1.1/DTD/svg11.dtd">
<!-- Generated by graphviz version 2.43.0 (0)
 -->
<!-- Title: /home/runner/work/no&#45;OS/no&#45;OS/drivers/axi_core/jesd204/axi_jesd204_rx.h Pages: 1 -->
<!--zoomable 291 -->

<svg id="main" version="1.1" xmlns="http://www.w3.org/2000/svg" xmlns:xlink="http://www.w3.org/1999/xlink" xml:space="preserve" onload="init(evt)">

<style type="text/css"><![CDATA[
.node, .edge {opacity: 0.7;}
.node.selected, .edge.selected {opacity: 1;}
.edge:hover path { stroke: red; }
.edge:hover polygon { stroke: red; fill: red; }
]]></style>

<defs>
  <circle id="rim" cx="0" cy="0" r="7"/>
  <circle id="rim2" cx="0" cy="0" r="3.5"/>
  <g id="zoomPlus">
    <use xlink:href="#rim" fill="#404040"><set attributeName="fill" to="#808080" begin="zoomplus.mouseover" end="zoomplus.mouseout"/></use>
    <path d="M-4,0h8M0,-4v8" fill="none" stroke="white" stroke-width="1.5" pointer-events="none"/>
  </g>
  <g id="zoomMin">
    <use xlink:href="#rim" fill="#404040"><set attributeName="fill" to="#808080" begin="zoomminus.mouseover" end="zoomminus.mouseout"/></use>
    <path d="M-4,0h8" fill="none" stroke="white" stroke-width="1.5" pointer-events="none"/>
  </g>
  <g id="arrowUp" transform="translate(30 24)">
    <use xlink:href="#rim"/>
    <path pointer-events="none" fill="none" stroke="white" stroke-width="1.5" d="M0,-3.0v7 M-2.5,-0.5L0,-3.0L2.5,-0.5"/>
  </g>
  <g id="arrowRight" transform="rotate(90) translate(36 -43)">
    <use xlink:href="#rim"/>
    <path pointer-events="none" fill="none" stroke="white" stroke-width="1.5" d="M0,-3.0v7 M-2.5,-0.5L0,-3.0L2.5,-0.5"/>
  </g>
  <g id="arrowDown" transform="rotate(180) translate(-30 -48)">
    <use xlink:href="#rim"/>
    <path pointer-events="none" fill="none" stroke="white" stroke-width="1.5" d="M0,-3.0v7 M-2.5,-0.5L0,-3.0L2.5,-0.5"/>
  </g>
  <g id="arrowLeft" transform="rotate(270) translate(-36 17)">
    <use xlink:href="#rim"/>
    <path pointer-events="none" fill="none" stroke="white" stroke-width="1.5" d="M0,-3.0v7 M-2.5,-0.5L0,-3.0L2.5,-0.5"/>
  </g>
  <g id="resetDef">
    <use xlink:href="#rim2" fill="#404040"><set attributeName="fill" to="#808080" begin="reset.mouseover" end="reset.mouseout"/></use>
  </g>
</defs>
<script type="application/ecmascript">
var viewWidth = 3443;
var viewHeight = 291;
var sectionId = 'dynsection-1';
</script>
<script type="application/ecmascript" xlink:href="svg.min.js"/>
<svg id="graph" class="graph">
<g id="viewport">
<title>/home/runner/work/no&#45;OS/no&#45;OS/drivers/axi_core/jesd204/axi_jesd204_rx.h</title>
<!-- Node1 -->
<g id="Node000001" class="node">
<title>Node1</title>
<g id="a_Node000001"><a xlink:title="Driver for the Analog Devices AXI&#45;JESD204&#45;RX peripheral.">
<polygon fill="#999999" stroke="#666666" points="1595.5,-283 1425.5,-283 1425.5,-242 1595.5,-242 1595.5,-283"/>
<text text-anchor="start" x="1433.5" y="-271" font-family="Helvetica,sans-Serif" font-size="10.00">/home/runner/work/no</text>
<text text-anchor="start" x="1433.5" y="-260" font-family="Helvetica,sans-Serif" font-size="10.00">&#45;OS/no&#45;OS/drivers/axi</text>
<text text-anchor="middle" x="1510.5" y="-249" font-family="Helvetica,sans-Serif" font-size="10.00">_core/jesd204/axi_jesd204_rx.h</text>
</a>
</g>
</g>
<!-- Node2 -->
<g id="Node000002" class="node">
<title>Node2</title>
<g id="a_Node000002"><a xlink:href="axi__jesd204__rx_8c.html" target="_top" xlink:title="Driver for the Analog Devices AXI&#45;JESD204&#45;RX peripheral.">
<polygon fill="white" stroke="#666666" points="169,-200.5 0,-200.5 0,-159.5 169,-159.5 169,-200.5"/>
<text text-anchor="start" x="8" y="-188.5" font-family="Helvetica,sans-Serif" font-size="10.00">/home/runner/work/no</text>
<text text-anchor="start" x="8" y="-177.5" font-family="Helvetica,sans-Serif" font-size="10.00">&#45;OS/no&#45;OS/drivers/axi</text>
<text text-anchor="middle" x="84.5" y="-166.5" font-family="Helvetica,sans-Serif" font-size="10.00">_core/jesd204/axi_jesd204_rx.c</text>
</a>
</g>
</g>
<!-- Node1&#45;&gt;Node2 -->
<g id="edge1_Node000001_Node000002" class="edge">
<title>Node1&#45;&gt;Node2</title>
<g id="a_edge1_Node000001_Node000002"><a xlink:title=" ">
<path fill="none" stroke="#63b8ff" d="M1414.76,-260.08C1151.49,-255.78 420.47,-240.94 182.5,-206 173.12,-204.62 163.33,-202.71 153.74,-200.56"/>
<polygon fill="#63b8ff" stroke="#63b8ff" points="1415,-263.59 1425.06,-260.25 1415.11,-256.59 1415,-263.59"/>
</a>
</g>
</g>
<!-- Node3 -->
<g id="Node000003" class="node">
<title>Node3</title>
<g id="a_Node000003"><a xlink:href="jesd204__clk_8h.html" target="_top" xlink:title="Analog Devices JESD204 clock.">
<polygon fill="white" stroke="#666666" points="594.5,-200.5 440.5,-200.5 440.5,-159.5 594.5,-159.5 594.5,-200.5"/>
<text text-anchor="start" x="448.5" y="-188.5" font-family="Helvetica,sans-Serif" font-size="10.00">/home/runner/work/no</text>
<text text-anchor="start" x="448.5" y="-177.5" font-family="Helvetica,sans-Serif" font-size="10.00">&#45;OS/no&#45;OS/drivers/axi</text>
<text text-anchor="middle" x="517.5" y="-166.5" font-family="Helvetica,sans-Serif" font-size="10.00">_core/jesd204/jesd204_clk.h</text>
</a>
</g>
</g>
<!-- Node1&#45;&gt;Node3 -->
<g id="edge2_Node000001_Node000003" class="edge">
<title>Node1&#45;&gt;Node3</title>
<g id="a_edge2_Node000001_Node000003"><a xlink:title=" ">
<path fill="none" stroke="#63b8ff" d="M1415.14,-262.07C1249.76,-261.64 899.56,-254.4 608.5,-206 599.93,-204.58 591.01,-202.67 582.26,-200.54"/>
<polygon fill="#63b8ff" stroke="#63b8ff" points="1415.27,-265.57 1425.28,-262.09 1415.29,-258.57 1415.27,-265.57"/>
</a>
</g>
</g>
<!-- Node5 -->
<g id="Node000005" class="node">
<title>Node5</title>
<g id="a_Node000005"><a xlink:href="ad9081_2src_2app__jesd_8c.html" target="_top" xlink:title="Application JESD setup.">
<polygon fill="white" stroke="#666666" points="372,-118 225,-118 225,-77 372,-77 372,-118"/>
<text text-anchor="start" x="233" y="-106" font-family="Helvetica,sans-Serif" font-size="10.00">/home/runner/work/no</text>
<text text-anchor="start" x="233" y="-95" font-family="Helvetica,sans-Serif" font-size="10.00">&#45;OS/no&#45;OS/projects/ad9081</text>
<text text-anchor="middle" x="298.5" y="-84" font-family="Helvetica,sans-Serif" font-size="10.00">/src/app_jesd.c</text>
</a>
</g>
</g>
<!-- Node1&#45;&gt;Node5 -->
<g id="edge12_Node000001_Node000005" class="edge">
<title>Node1&#45;&gt;Node5</title>
<g id="a_edge12_Node000001_Node000005"><a xlink:title=" ">
<path fill="none" stroke="#63b8ff" d="M1415.26,-259.96C1168.62,-255.5 521.94,-240.62 431.5,-206 382.98,-187.43 338.64,-144.01 315.45,-118.4"/>
<polygon fill="#63b8ff" stroke="#63b8ff" points="1415.23,-263.46 1425.29,-260.14 1415.35,-256.46 1415.23,-263.46"/>
</a>
</g>
</g>
<!-- Node6 -->
<g id="Node000006" class="node">
<title>Node6</title>
<g id="a_Node000006"><a xlink:href="ad9083_2src_2app__jesd_8c.html" target="_top" xlink:title="Application JESD setup.">
<polygon fill="white" stroke="#666666" points="613,-41 466,-41 466,0 613,0 613,-41"/>
<text text-anchor="start" x="474" y="-29" font-family="Helvetica,sans-Serif" font-size="10.00">/home/runner/work/no</text>
<text text-anchor="start" x="474" y="-18" font-family="Helvetica,sans-Serif" font-size="10.00">&#45;OS/no&#45;OS/projects/ad9083</text>
<text text-anchor="middle" x="539.5" y="-7" font-family="Helvetica,sans-Serif" font-size="10.00">/src/app_jesd.c</text>
</a>
</g>
</g>
<!-- Node1&#45;&gt;Node6 -->
<g id="edge13_Node000001_Node000006" class="edge">
<title>Node1&#45;&gt;Node6</title>
<g id="a_edge13_Node000001_Node000006"><a xlink:title=" ">
<path fill="none" stroke="#63b8ff" d="M1415.25,-259.81C1156,-254.79 450.42,-238.31 350.5,-206 282.35,-183.96 249.62,-180.97 215.5,-118 206.82,-101.98 203.75,-90.93 215.5,-77 246.86,-39.81 380.17,-27.54 465.71,-23.49"/>
<polygon fill="#63b8ff" stroke="#63b8ff" points="1415.33,-263.31 1425.4,-260 1415.47,-256.31 1415.33,-263.31"/>
</a>
</g>
</g>
<!-- Node7 -->
<g id="Node000007" class="node">
<title>Node7</title>
<g id="a_Node000007"><a xlink:href="ad9083_2src_2app__jesd_8h.html" target="_top" xlink:title="Application JESD initialization.">
<polygon fill="white" stroke="#666666" points="747,-118 600,-118 600,-77 747,-77 747,-118"/>
<text text-anchor="start" x="608" y="-106" font-family="Helvetica,sans-Serif" font-size="10.00">/home/runner/work/no</text>
<text text-anchor="start" x="608" y="-95" font-family="Helvetica,sans-Serif" font-size="10.00">&#45;OS/no&#45;OS/projects/ad9083</text>
<text text-anchor="middle" x="673.5" y="-84" font-family="Helvetica,sans-Serif" font-size="10.00">/src/app_jesd.h</text>
</a>
</g>
</g>
<!-- Node1&#45;&gt;Node7 -->
<g id="edge14_Node000001_Node000007" class="edge">
<title>Node1&#45;&gt;Node7</title>
<g id="a_edge14_Node000001_Node000007"><a xlink:title=" ">
<path fill="none" stroke="#63b8ff" d="M1415.12,-258.69C1199.42,-251.88 690.8,-233.02 665.5,-206 643.5,-182.5 654.67,-142.05 664.37,-118.04"/>
<polygon fill="#63b8ff" stroke="#63b8ff" points="1415.07,-262.19 1425.17,-259.01 1415.29,-255.2 1415.07,-262.19"/>
</a>
</g>
</g>
<!-- Node9 -->
<g id="Node000009" class="node">
<title>Node9</title>
<g id="a_Node000009"><a xlink:href="fmcdaq2_8c.html" target="_top" xlink:title="Implementation of Main Function.">
<polygon fill="white" stroke="#666666" points="919.5,-118 765.5,-118 765.5,-77 919.5,-77 919.5,-118"/>
<text text-anchor="start" x="773.5" y="-106" font-family="Helvetica,sans-Serif" font-size="10.00">/home/runner/work/no</text>
<text text-anchor="start" x="773.5" y="-95" font-family="Helvetica,sans-Serif" font-size="10.00">&#45;OS/no&#45;OS/projects/fmcdaq2</text>
<text text-anchor="middle" x="842.5" y="-84" font-family="Helvetica,sans-Serif" font-size="10.00">/src/app/fmcdaq2.c</text>
</a>
</g>
</g>
<!-- Node1&#45;&gt;Node9 -->
<g id="edge28_Node000001_Node000009" class="edge">
<title>Node1&#45;&gt;Node9</title>
<g id="a_edge28_Node000001_Node000009"><a xlink:title=" ">
<path fill="none" stroke="#63b8ff" d="M1415.04,-262.27C1207.49,-262.94 729.77,-258.67 680.5,-206 664.71,-189.12 667.06,-172.8 680.5,-154 691.13,-139.12 728.94,-125.73 765.36,-115.83"/>
<polygon fill="#63b8ff" stroke="#63b8ff" points="1415.33,-265.77 1425.31,-262.23 1415.3,-258.77 1415.33,-265.77"/>
</a>
</g>
</g>
<!-- Node10 -->
<g id="Node000010" class="node">
<title>Node10</title>
<g id="a_Node000010"><a xlink:href="ad6676__ebz_8c.html" target="_top" xlink:title="Implementation of Main Function.">
<polygon fill="white" stroke="#666666" points="836,-200.5 689,-200.5 689,-159.5 836,-159.5 836,-200.5"/>
<text text-anchor="start" x="697" y="-188.5" font-family="Helvetica,sans-Serif" font-size="10.00">/home/runner/work/no</text>
<text text-anchor="start" x="697" y="-177.5" font-family="Helvetica,sans-Serif" font-size="10.00">&#45;OS/no&#45;OS/projects/ad6676</text>
<text text-anchor="middle" x="762.5" y="-166.5" font-family="Helvetica,sans-Serif" font-size="10.00">&#45;ebz/src/ad6676_ebz.c</text>
</a>
</g>
</g>
<!-- Node1&#45;&gt;Node10 -->
<g id="edge10_Node000001_Node000010" class="edge">
<title>Node1&#45;&gt;Node10</title>
<g id="a_edge10_Node000001_Node000010"><a xlink:title=" ">
<path fill="none" stroke="#63b8ff" d="M1415.18,-259.79C1285.3,-256.05 1045.93,-244.11 845.5,-206 837.81,-204.54 829.82,-202.64 821.97,-200.54"/>
<polygon fill="#63b8ff" stroke="#63b8ff" points="1415.4,-263.3 1425.49,-260.08 1415.59,-256.3 1415.4,-263.3"/>
</a>
</g>
</g>
<!-- Node11 -->
<g id="Node000011" class="node">
<title>Node11</title>
<g id="a_Node000011"><a xlink:href="ad9081_2src_2app_8c.html" target="_top" xlink:title="AD9081 application example.">
<polygon fill="white" stroke="#666666" points="1001,-200.5 854,-200.5 854,-159.5 1001,-159.5 1001,-200.5"/>
<text text-anchor="start" x="862" y="-188.5" font-family="Helvetica,sans-Serif" font-size="10.00">/home/runner/work/no</text>
<text text-anchor="start" x="862" y="-177.5" font-family="Helvetica,sans-Serif" font-size="10.00">&#45;OS/no&#45;OS/projects/ad9081</text>
<text text-anchor="middle" x="927.5" y="-166.5" font-family="Helvetica,sans-Serif" font-size="10.00">/src/app.c</text>
</a>
</g>
</g>
<!-- Node1&#45;&gt;Node11 -->
<g id="edge11_Node000001_Node000011" class="edge">
<title>Node1&#45;&gt;Node11</title>
<g id="a_edge11_Node000001_Node000011"><a xlink:title=" ">
<path fill="none" stroke="#63b8ff" d="M1415.08,-256.09C1313.87,-249.15 1149.69,-234.44 1010.5,-206 1003.13,-204.49 995.47,-202.62 987.92,-200.59"/>
<polygon fill="#63b8ff" stroke="#63b8ff" points="1415.07,-259.6 1425.28,-256.78 1415.54,-252.61 1415.07,-259.6"/>
</a>
</g>
</g>
<!-- Node12 -->
<g id="Node000012" class="node">
<title>Node12</title>
<g id="a_Node000012"><a xlink:href="ad9208_2src_2main_8c.html" target="_top" xlink:title="Implementation of Main Function.">
<polygon fill="white" stroke="#666666" points="1166,-200.5 1019,-200.5 1019,-159.5 1166,-159.5 1166,-200.5"/>
<text text-anchor="start" x="1027" y="-188.5" font-family="Helvetica,sans-Serif" font-size="10.00">/home/runner/work/no</text>
<text text-anchor="start" x="1027" y="-177.5" font-family="Helvetica,sans-Serif" font-size="10.00">&#45;OS/no&#45;OS/projects/ad9208</text>
<text text-anchor="middle" x="1092.5" y="-166.5" font-family="Helvetica,sans-Serif" font-size="10.00">/src/main.c</text>
</a>
</g>
</g>
<!-- Node1&#45;&gt;Node12 -->
<g id="edge15_Node000001_Node000012" class="edge">
<title>Node1&#45;&gt;Node12</title>
<g id="a_edge15_Node000001_Node000012"><a xlink:title=" ">
<path fill="none" stroke="#63b8ff" d="M1415.06,-249.02C1347.68,-239.39 1255.52,-224.6 1175.5,-206 1168.61,-204.4 1161.45,-202.54 1154.36,-200.58"/>
<polygon fill="#63b8ff" stroke="#63b8ff" points="1414.84,-252.52 1425.23,-250.46 1415.82,-245.59 1414.84,-252.52"/>
</a>
</g>
</g>
<!-- Node13 -->
<g id="Node000013" class="node">
<title>Node13</title>
<g id="a_Node000013"><a xlink:href="ad9371_2src_2app_2headless_8c.html" target="_top" xlink:title="Implementation of Main Function.">
<polygon fill="white" stroke="#666666" points="1331,-200.5 1184,-200.5 1184,-159.5 1331,-159.5 1331,-200.5"/>
<text text-anchor="start" x="1192" y="-188.5" font-family="Helvetica,sans-Serif" font-size="10.00">/home/runner/work/no</text>
<text text-anchor="start" x="1192" y="-177.5" font-family="Helvetica,sans-Serif" font-size="10.00">&#45;OS/no&#45;OS/projects/ad9371</text>
<text text-anchor="middle" x="1257.5" y="-166.5" font-family="Helvetica,sans-Serif" font-size="10.00">/src/app/headless.c</text>
</a>
</g>
</g>
<!-- Node1&#45;&gt;Node13 -->
<g id="edge16_Node000001_Node000013" class="edge">
<title>Node1&#45;&gt;Node13</title>
<g id="a_edge16_Node000001_Node000013"><a xlink:title=" ">
<path fill="none" stroke="#63b8ff" d="M1438.99,-238.75C1401.14,-226.7 1355.13,-212.06 1318.9,-200.54"/>
<polygon fill="#63b8ff" stroke="#63b8ff" points="1438.34,-242.21 1448.93,-241.91 1440.46,-235.54 1438.34,-242.21"/>
</a>
</g>
</g>
<!-- Node14 -->
<g id="Node000014" class="node">
<title>Node14</title>
<g id="a_Node000014"><a xlink:href="ad9656__fmc_8c.html" target="_top" xlink:title="Implementation of Main Function.">
<polygon fill="white" stroke="#666666" points="1499.5,-200.5 1349.5,-200.5 1349.5,-159.5 1499.5,-159.5 1499.5,-200.5"/>
<text text-anchor="start" x="1357.5" y="-188.5" font-family="Helvetica,sans-Serif" font-size="10.00">/home/runner/work/no</text>
<text text-anchor="start" x="1357.5" y="-177.5" font-family="Helvetica,sans-Serif" font-size="10.00">&#45;OS/no&#45;OS/projects/ad9656</text>
<text text-anchor="middle" x="1424.5" y="-166.5" font-family="Helvetica,sans-Serif" font-size="10.00">_fmc/src/app/ad9656_fmc.c</text>
</a>
</g>
</g>
<!-- Node1&#45;&gt;Node14 -->
<g id="edge17_Node000001_Node000014" class="edge">
<title>Node1&#45;&gt;Node14</title>
<g id="a_edge17_Node000001_Node000014"><a xlink:title=" ">
<path fill="none" stroke="#63b8ff" d="M1481.73,-234.57C1469.88,-223.48 1456.41,-210.87 1445.51,-200.67"/>
<polygon fill="#63b8ff" stroke="#63b8ff" points="1479.55,-237.32 1489.24,-241.6 1484.33,-232.21 1479.55,-237.32"/>
</a>
</g>
</g>
<!-- Node15 -->
<g id="Node000015" class="node">
<title>Node15</title>
<g id="a_Node000015"><a xlink:href="adrv9009_2src_2app_2app__jesd_8c.html" target="_top" xlink:title="JESD setup and initialization routines.">
<polygon fill="white" stroke="#666666" points="1675,-200.5 1518,-200.5 1518,-159.5 1675,-159.5 1675,-200.5"/>
<text text-anchor="start" x="1526" y="-188.5" font-family="Helvetica,sans-Serif" font-size="10.00">/home/runner/work/no</text>
<text text-anchor="start" x="1526" y="-177.5" font-family="Helvetica,sans-Serif" font-size="10.00">&#45;OS/no&#45;OS/projects/adrv9009</text>
<text text-anchor="middle" x="1596.5" y="-166.5" font-family="Helvetica,sans-Serif" font-size="10.00">/src/app/app_jesd.c</text>
</a>
</g>
</g>
<!-- Node1&#45;&gt;Node15 -->
<g id="edge18_Node000001_Node000015" class="edge">
<title>Node1&#45;&gt;Node15</title>
<g id="a_edge18_Node000001_Node000015"><a xlink:title=" ">
<path fill="none" stroke="#63b8ff" d="M1539.27,-234.57C1551.12,-223.48 1564.59,-210.87 1575.49,-200.67"/>
<polygon fill="#63b8ff" stroke="#63b8ff" points="1536.67,-232.21 1531.76,-241.6 1541.45,-237.32 1536.67,-232.21"/>
</a>
</g>
</g>
<!-- Node16 -->
<g id="Node000016" class="node">
<title>Node16</title>
<g id="a_Node000016"><a xlink:href="app__talise_8c.html" target="_top" xlink:title="Talise initialization and control routines.">
<polygon fill="white" stroke="#666666" points="1850,-200.5 1693,-200.5 1693,-159.5 1850,-159.5 1850,-200.5"/>
<text text-anchor="start" x="1701" y="-188.5" font-family="Helvetica,sans-Serif" font-size="10.00">/home/runner/work/no</text>
<text text-anchor="start" x="1701" y="-177.5" font-family="Helvetica,sans-Serif" font-size="10.00">&#45;OS/no&#45;OS/projects/adrv9009</text>
<text text-anchor="middle" x="1771.5" y="-166.5" font-family="Helvetica,sans-Serif" font-size="10.00">/src/app/app_talise.c</text>
</a>
</g>
</g>
<!-- Node1&#45;&gt;Node16 -->
<g id="edge19_Node000001_Node000016" class="edge">
<title>Node1&#45;&gt;Node16</title>
<g id="a_edge19_Node000001_Node000016"><a xlink:title=" ">
<path fill="none" stroke="#63b8ff" d="M1583.77,-238.9C1622.91,-226.83 1670.63,-212.11 1708.15,-200.54"/>
<polygon fill="#63b8ff" stroke="#63b8ff" points="1582.54,-235.62 1574.01,-241.91 1584.6,-242.31 1582.54,-235.62"/>
</a>
</g>
</g>
<!-- Node17 -->
<g id="Node000017" class="node">
<title>Node17</title>
<g id="a_Node000017"><a xlink:href="headless__mb_8c.html" target="_top" xlink:title="Contains example code for user integration with their application. This file contains code for MicroB...">
<polygon fill="white" stroke="#666666" points="2025,-200.5 1868,-200.5 1868,-159.5 2025,-159.5 2025,-200.5"/>
<text text-anchor="start" x="1876" y="-188.5" font-family="Helvetica,sans-Serif" font-size="10.00">/home/runner/work/no</text>
<text text-anchor="start" x="1876" y="-177.5" font-family="Helvetica,sans-Serif" font-size="10.00">&#45;OS/no&#45;OS/projects/adrv9009</text>
<text text-anchor="middle" x="1946.5" y="-166.5" font-family="Helvetica,sans-Serif" font-size="10.00">/src/app/headless_mb.c</text>
</a>
</g>
</g>
<!-- Node1&#45;&gt;Node17 -->
<g id="edge20_Node000001_Node000017" class="edge">
<title>Node1&#45;&gt;Node17</title>
<g id="a_edge20_Node000001_Node000017"><a xlink:title=" ">
<path fill="none" stroke="#63b8ff" d="M1605.87,-249.54C1676.36,-239.92 1774.45,-224.91 1859.5,-206 1866.71,-204.4 1874.21,-202.54 1881.64,-200.58"/>
<polygon fill="#63b8ff" stroke="#63b8ff" points="1605.11,-246.11 1595.67,-250.92 1606.05,-253.04 1605.11,-246.11"/>
</a>
</g>
</g>
<!-- Node18 -->
<g id="Node000018" class="node">
<title>Node18</title>
<g id="a_Node000018"><a xlink:href="headless__zu_8c.html" target="_top" xlink:title="Contains example code for user integration with their application. This file contains code for ZU11EG...">
<polygon fill="white" stroke="#666666" points="2200,-200.5 2043,-200.5 2043,-159.5 2200,-159.5 2200,-200.5"/>
<text text-anchor="start" x="2051" y="-188.5" font-family="Helvetica,sans-Serif" font-size="10.00">/home/runner/work/no</text>
<text text-anchor="start" x="2051" y="-177.5" font-family="Helvetica,sans-Serif" font-size="10.00">&#45;OS/no&#45;OS/projects/adrv9009</text>
<text text-anchor="middle" x="2121.5" y="-166.5" font-family="Helvetica,sans-Serif" font-size="10.00">/src/app/headless_zu.c</text>
</a>
</g>
</g>
<!-- Node1&#45;&gt;Node18 -->
<g id="edge21_Node000001_Node000018" class="edge">
<title>Node1&#45;&gt;Node18</title>
<g id="a_edge21_Node000001_Node000018"><a xlink:title=" ">
<path fill="none" stroke="#63b8ff" d="M1605.57,-256.42C1711.13,-249.63 1886.19,-234.93 2034.5,-206 2042.21,-204.5 2050.23,-202.62 2058.14,-200.59"/>
<polygon fill="#63b8ff" stroke="#63b8ff" points="1605.34,-252.93 1595.58,-257.06 1605.78,-259.92 1605.34,-252.93"/>
</a>
</g>
</g>
<!-- Node19 -->
<g id="Node000019" class="node">
<title>Node19</title>
<g id="a_Node000019"><a xlink:href="adrv902x_2src_2examples_2basic__example_2basic__example_8c.html" target="_top" xlink:title="Basic example for the adrv902x project.">
<polygon fill="white" stroke="#666666" points="2379,-206 2218,-206 2218,-154 2379,-154 2379,-206"/>
<text text-anchor="start" x="2226" y="-194" font-family="Helvetica,sans-Serif" font-size="10.00">/home/runner/work/no</text>
<text text-anchor="start" x="2226" y="-183" font-family="Helvetica,sans-Serif" font-size="10.00">&#45;OS/no&#45;OS/projects/adrv902x</text>
<text text-anchor="start" x="2226" y="-172" font-family="Helvetica,sans-Serif" font-size="10.00">/src/examples/basic_example</text>
<text text-anchor="middle" x="2298.5" y="-161" font-family="Helvetica,sans-Serif" font-size="10.00">/basic_example.c</text>
</a>
</g>
</g>
<!-- Node1&#45;&gt;Node19 -->
<g id="edge22_Node000001_Node000019" class="edge">
<title>Node1&#45;&gt;Node19</title>
<g id="a_edge22_Node000001_Node000019"><a xlink:title=" ">
<path fill="none" stroke="#63b8ff" d="M1605.97,-259.79C1741.25,-256.04 1996.05,-244.08 2209.5,-206 2212.19,-205.52 2214.91,-205 2217.65,-204.43"/>
<polygon fill="#63b8ff" stroke="#63b8ff" points="1605.54,-256.3 1595.64,-260.07 1605.73,-263.3 1605.54,-256.3"/>
</a>
</g>
</g>
<!-- Node20 -->
<g id="Node000020" class="node">
<title>Node20</title>
<g id="a_Node000020"><a xlink:href="adrv902x_2src_2examples_2dma__example_2dma__example_8c.html" target="_top" xlink:title="DMA example for the adrv902x project.">
<polygon fill="white" stroke="#666666" points="2555.5,-206 2397.5,-206 2397.5,-154 2555.5,-154 2555.5,-206"/>
<text text-anchor="start" x="2405.5" y="-194" font-family="Helvetica,sans-Serif" font-size="10.00">/home/runner/work/no</text>
<text text-anchor="start" x="2405.5" y="-183" font-family="Helvetica,sans-Serif" font-size="10.00">&#45;OS/no&#45;OS/projects/adrv902x</text>
<text text-anchor="start" x="2405.5" y="-172" font-family="Helvetica,sans-Serif" font-size="10.00">/src/examples/dma_example</text>
<text text-anchor="middle" x="2476.5" y="-161" font-family="Helvetica,sans-Serif" font-size="10.00">/dma_example.c</text>
</a>
</g>
</g>
<!-- Node1&#45;&gt;Node20 -->
<g id="edge23_Node000001_Node000020" class="edge">
<title>Node1&#45;&gt;Node20</title>
<g id="a_edge23_Node000001_Node000020"><a xlink:title=" ">
<path fill="none" stroke="#63b8ff" d="M1606.07,-262.11C1768.2,-261.66 2106.97,-254.32 2388.5,-206 2391.32,-205.52 2394.17,-204.98 2397.05,-204.39"/>
<polygon fill="#63b8ff" stroke="#63b8ff" points="1605.64,-258.61 1595.65,-262.13 1605.66,-265.61 1605.64,-258.61"/>
</a>
</g>
</g>
<!-- Node21 -->
<g id="Node000021" class="node">
<title>Node21</title>
<g id="a_Node000021"><a xlink:href="adrv902x_2src_2examples_2iio__example_2iio__example_8c.html" target="_top" xlink:title="IIO example for the adrv902x project.">
<polygon fill="white" stroke="#666666" points="2731,-206 2574,-206 2574,-154 2731,-154 2731,-206"/>
<text text-anchor="start" x="2582" y="-194" font-family="Helvetica,sans-Serif" font-size="10.00">/home/runner/work/no</text>
<text text-anchor="start" x="2582" y="-183" font-family="Helvetica,sans-Serif" font-size="10.00">&#45;OS/no&#45;OS/projects/adrv902x</text>
<text text-anchor="start" x="2582" y="-172" font-family="Helvetica,sans-Serif" font-size="10.00">/src/examples/iio_example</text>
<text text-anchor="middle" x="2652.5" y="-161" font-family="Helvetica,sans-Serif" font-size="10.00">/iio_example.c</text>
</a>
</g>
</g>
<!-- Node1&#45;&gt;Node21 -->
<g id="edge24_Node000001_Node000021" class="edge">
<title>Node1&#45;&gt;Node21</title>
<g id="a_edge24_Node000001_Node000021"><a xlink:title=" ">
<path fill="none" stroke="#63b8ff" d="M1605.74,-259.22C1829.11,-253.42 2381.58,-236.4 2564.5,-206 2567.48,-205.51 2570.5,-204.95 2573.54,-204.34"/>
<polygon fill="#63b8ff" stroke="#63b8ff" points="1605.59,-255.72 1595.68,-259.48 1605.77,-262.72 1605.59,-255.72"/>
</a>
</g>
</g>
<!-- Node22 -->
<g id="Node000022" class="node">
<title>Node22</title>
<g id="a_Node000022"><a xlink:href="adrv904x_2src_2examples_2basic__example_2basic__example_8c.html" target="_top" xlink:title="Basic example for the adrv904x project.">
<polygon fill="white" stroke="#666666" points="2910,-206 2749,-206 2749,-154 2910,-154 2910,-206"/>
<text text-anchor="start" x="2757" y="-194" font-family="Helvetica,sans-Serif" font-size="10.00">/home/runner/work/no</text>
<text text-anchor="start" x="2757" y="-183" font-family="Helvetica,sans-Serif" font-size="10.00">&#45;OS/no&#45;OS/projects/adrv904x</text>
<text text-anchor="start" x="2757" y="-172" font-family="Helvetica,sans-Serif" font-size="10.00">/src/examples/basic_example</text>
<text text-anchor="middle" x="2829.5" y="-161" font-family="Helvetica,sans-Serif" font-size="10.00">/basic_example.c</text>
</a>
</g>
</g>
<!-- Node1&#45;&gt;Node22 -->
<g id="edge25_Node000001_Node000022" class="edge">
<title>Node1&#45;&gt;Node22</title>
<g id="a_edge25_Node000001_Node000022"><a xlink:title=" ">
<path fill="none" stroke="#63b8ff" d="M1605.74,-260.02C1855.03,-255.68 2522.45,-241.07 2740.5,-206 2743.19,-205.57 2745.92,-205.08 2748.67,-204.55"/>
<polygon fill="#63b8ff" stroke="#63b8ff" points="1605.56,-256.52 1595.62,-260.19 1605.68,-263.52 1605.56,-256.52"/>
</a>
</g>
</g>
<!-- Node23 -->
<g id="Node000023" class="node">
<title>Node23</title>
<g id="a_Node000023"><a xlink:href="adrv904x_2src_2examples_2dma__example_2dma__example_8c.html" target="_top" xlink:title="DMA example for the adrv904x project.">
<polygon fill="white" stroke="#666666" points="3086.5,-206 2928.5,-206 2928.5,-154 3086.5,-154 3086.5,-206"/>
<text text-anchor="start" x="2936.5" y="-194" font-family="Helvetica,sans-Serif" font-size="10.00">/home/runner/work/no</text>
<text text-anchor="start" x="2936.5" y="-183" font-family="Helvetica,sans-Serif" font-size="10.00">&#45;OS/no&#45;OS/projects/adrv904x</text>
<text text-anchor="start" x="2936.5" y="-172" font-family="Helvetica,sans-Serif" font-size="10.00">/src/examples/dma_example</text>
<text text-anchor="middle" x="3007.5" y="-161" font-family="Helvetica,sans-Serif" font-size="10.00">/dma_example.c</text>
</a>
</g>
</g>
<!-- Node1&#45;&gt;Node23 -->
<g id="edge26_Node000001_Node000023" class="edge">
<title>Node1&#45;&gt;Node23</title>
<g id="a_edge26_Node000001_Node000023"><a xlink:title=" ">
<path fill="none" stroke="#63b8ff" d="M1605.85,-260.69C1879.77,-257.89 2665.6,-246.48 2919.5,-206 2922.32,-205.55 2925.18,-205.04 2928.06,-204.48"/>
<polygon fill="#63b8ff" stroke="#63b8ff" points="1605.5,-257.19 1595.54,-260.79 1605.57,-264.19 1605.5,-257.19"/>
</a>
</g>
</g>
<!-- Node24 -->
<g id="Node000024" class="node">
<title>Node24</title>
<g id="a_Node000024"><a xlink:href="adrv904x_2src_2examples_2iio__example_2iio__example_8c.html" target="_top" xlink:title="IIO example for the adrv904x project.">
<polygon fill="white" stroke="#666666" points="3262,-206 3105,-206 3105,-154 3262,-154 3262,-206"/>
<text text-anchor="start" x="3113" y="-194" font-family="Helvetica,sans-Serif" font-size="10.00">/home/runner/work/no</text>
<text text-anchor="start" x="3113" y="-183" font-family="Helvetica,sans-Serif" font-size="10.00">&#45;OS/no&#45;OS/projects/adrv904x</text>
<text text-anchor="start" x="3113" y="-172" font-family="Helvetica,sans-Serif" font-size="10.00">/src/examples/iio_example</text>
<text text-anchor="middle" x="3183.5" y="-161" font-family="Helvetica,sans-Serif" font-size="10.00">/iio_example.c</text>
</a>
</g>
</g>
<!-- Node1&#45;&gt;Node24 -->
<g id="edge27_Node000001_Node000024" class="edge">
<title>Node1&#45;&gt;Node24</title>
<g id="a_edge27_Node000001_Node000024"><a xlink:title=" ">
<path fill="none" stroke="#63b8ff" d="M1606.25,-261.18C1903.24,-259.7 2806.19,-251.47 3095.5,-206 3098.48,-205.53 3101.5,-204.99 3104.55,-204.4"/>
<polygon fill="#63b8ff" stroke="#63b8ff" points="1605.93,-257.68 1595.94,-261.23 1605.96,-264.68 1605.93,-257.68"/>
</a>
</g>
</g>
<!-- Node25 -->
<g id="Node000025" class="node">
<title>Node25</title>
<g id="a_Node000025"><a xlink:href="fmcdaq3_8c.html" target="_top" xlink:title="Implementation of Main Function.">
<polygon fill="white" stroke="#666666" points="3434.5,-200.5 3280.5,-200.5 3280.5,-159.5 3434.5,-159.5 3434.5,-200.5"/>
<text text-anchor="start" x="3288.5" y="-188.5" font-family="Helvetica,sans-Serif" font-size="10.00">/home/runner/work/no</text>
<text text-anchor="start" x="3288.5" y="-177.5" font-family="Helvetica,sans-Serif" font-size="10.00">&#45;OS/no&#45;OS/projects/fmcdaq3</text>
<text text-anchor="middle" x="3357.5" y="-166.5" font-family="Helvetica,sans-Serif" font-size="10.00">/src/app/fmcdaq3.c</text>
</a>
</g>
</g>
<!-- Node1&#45;&gt;Node25 -->
<g id="edge29_Node000001_Node000025" class="edge">
<title>Node1&#45;&gt;Node25</title>
<g id="a_edge29_Node000001_Node000025"><a xlink:title=" ">
<path fill="none" stroke="#63b8ff" d="M1605.82,-261.65C1923.82,-261.64 2946.49,-257.52 3271.5,-206 3279.95,-204.66 3288.73,-202.74 3297.32,-200.56"/>
<polygon fill="#63b8ff" stroke="#63b8ff" points="1605.72,-258.15 1595.72,-261.65 1605.71,-265.15 1605.72,-258.15"/>
</a>
</g>
</g>
<!-- Node4 -->
<g id="Node000004" class="node">
<title>Node4</title>
<g id="a_Node000004"><a xlink:href="jesd204__clk_8c.html" target="_top" xlink:title="Analog Devices JESD204 clock.">
<polygon fill="white" stroke="#666666" points="543,-118 390,-118 390,-77 543,-77 543,-118"/>
<text text-anchor="start" x="398" y="-106" font-family="Helvetica,sans-Serif" font-size="10.00">/home/runner/work/no</text>
<text text-anchor="start" x="398" y="-95" font-family="Helvetica,sans-Serif" font-size="10.00">&#45;OS/no&#45;OS/drivers/axi</text>
<text text-anchor="middle" x="466.5" y="-84" font-family="Helvetica,sans-Serif" font-size="10.00">_core/jesd204/jesd204_clk.c</text>
</a>
</g>
</g>
<!-- Node3&#45;&gt;Node4 -->
<g id="edge3_Node000003_Node000004" class="edge">
<title>Node3&#45;&gt;Node4</title>
<g id="a_edge3_Node000003_Node000004"><a xlink:title=" ">
<path fill="none" stroke="#63b8ff" d="M499.43,-150.48C492.66,-139.79 485.12,-127.88 478.96,-118.17"/>
<polygon fill="#63b8ff" stroke="#63b8ff" points="496.58,-152.53 504.89,-159.1 502.5,-148.78 496.58,-152.53"/>
</a>
</g>
</g>
<!-- Node3&#45;&gt;Node5 -->
<g id="edge4_Node000003_Node000005" class="edge">
<title>Node3&#45;&gt;Node5</title>
<g id="a_edge4_Node000003_Node000005"><a xlink:title=" ">
<path fill="none" stroke="#63b8ff" d="M454.76,-155.94C422.16,-143.95 382.74,-129.47 351.65,-118.04"/>
<polygon fill="#63b8ff" stroke="#63b8ff" points="453.61,-159.25 464.21,-159.41 456.03,-152.68 453.61,-159.25"/>
</a>
</g>
</g>
<!-- Node3&#45;&gt;Node6 -->
<g id="edge5_Node000003_Node000006" class="edge">
<title>Node3&#45;&gt;Node6</title>
<g id="a_edge5_Node000003_Node000006"><a xlink:title=" ">
<path fill="none" stroke="#63b8ff" d="M537.09,-150.88C542.92,-140.95 548.53,-129.41 551.5,-118 558.29,-91.86 551.91,-60.7 546.16,-41"/>
<polygon fill="#63b8ff" stroke="#63b8ff" points="534.04,-149.15 531.75,-159.49 539.99,-152.84 534.04,-149.15"/>
</a>
</g>
</g>
<!-- Node3&#45;&gt;Node7 -->
<g id="edge6_Node000003_Node000007" class="edge">
<title>Node3&#45;&gt;Node7</title>
<g id="a_edge6_Node000003_Node000007"><a xlink:title=" ">
<path fill="none" stroke="#63b8ff" d="M564.76,-154.61C587.4,-142.93 614.16,-129.12 635.46,-118.13"/>
<polygon fill="#63b8ff" stroke="#63b8ff" points="562.94,-151.61 555.66,-159.31 566.15,-157.83 562.94,-151.61"/>
</a>
</g>
</g>
<!-- Node3&#45;&gt;Node9 -->
<g id="edge9_Node000003_Node000009" class="edge">
<title>Node3&#45;&gt;Node9</title>
<g id="a_edge9_Node000003_Node000009"><a xlink:title=" ">
<path fill="none" stroke="#63b8ff" d="M604.38,-157.48C654.54,-145.06 717.07,-129.57 765.47,-117.58"/>
<polygon fill="#63b8ff" stroke="#63b8ff" points="603.39,-154.12 594.52,-159.92 605.07,-160.92 603.39,-154.12"/>
</a>
</g>
</g>
<!-- Node7&#45;&gt;Node6 -->
<g id="edge8_Node000007_Node000006" class="edge">
<title>Node7&#45;&gt;Node6</title>
<g id="a_edge8_Node000007_Node000006"><a xlink:title=" ">
<path fill="none" stroke="#63b8ff" d="M629.58,-71.92C611.76,-61.95 591.46,-50.58 574.65,-41.17"/>
<polygon fill="#63b8ff" stroke="#63b8ff" points="628.21,-75.16 638.64,-76.99 631.63,-69.05 628.21,-75.16"/>
</a>
</g>
</g>
<!-- Node8 -->
<g id="Node000008" class="node">
<title>Node8</title>
<g id="a_Node000008"><a xlink:href="ad9083_2src_2app_8c.html" target="_top" xlink:title="AD9083 application example.">
<polygon fill="white" stroke="#666666" points="778,-41 631,-41 631,0 778,0 778,-41"/>
<text text-anchor="start" x="639" y="-29" font-family="Helvetica,sans-Serif" font-size="10.00">/home/runner/work/no</text>
<text text-anchor="start" x="639" y="-18" font-family="Helvetica,sans-Serif" font-size="10.00">&#45;OS/no&#45;OS/projects/ad9083</text>
<text text-anchor="middle" x="704.5" y="-7" font-family="Helvetica,sans-Serif" font-size="10.00">/src/app.c</text>
</a>
</g>
</g>
<!-- Node7&#45;&gt;Node8 -->
<g id="edge7_Node000007_Node000008" class="edge">
<title>Node7&#45;&gt;Node8</title>
<g id="a_edge7_Node000007_Node000008"><a xlink:title=" ">
<path fill="none" stroke="#63b8ff" d="M685.47,-67.55C689.13,-58.69 693.07,-49.15 696.41,-41.07"/>
<polygon fill="#63b8ff" stroke="#63b8ff" points="682.23,-66.22 681.64,-76.79 688.7,-68.89 682.23,-66.22"/>
</a>
</g>
</g>
</g>
</svg>

<g id="navigator" transform="translate(0 0)" fill="#404254">
  <rect fill="#f2f5e9" fill-opacity="0.5" stroke="#606060" stroke-width=".5" x="0" y="0" width="60" height="60"/>
  <use id="zoomplus" xlink:href="#zoomPlus" x="17" y="9" onmousedown="handleZoom(evt,'in')"/>
  <use id="zoomminus" xlink:href="#zoomMin" x="42" y="9" onmousedown="handleZoom(evt,'out')"/>
  <use id="reset" xlink:href="#resetDef" x="30" y="36" onmousedown="handleReset()"/>
   <use id="arrowup" xlink:href="#arrowUp" x="0" y="0" onmousedown="handlePan(0,-1)"/>
  <use id="arrowright" xlink:href="#arrowRight" x="0" y="0" onmousedown="handlePan(1,0)"/>
  <use id="arrowdown" xlink:href="#arrowDown" x="0" y="0" onmousedown="handlePan(0,1)"/>
  <use id="arrowleft" xlink:href="#arrowLeft" x="0" y="0" onmousedown="handlePan(-1,0)"/>
</g>
<svg viewBox="0 0 15 15" width="100%" height="30px" preserveAspectRatio="xMaxYMin meet">
 <g id="arrow_out" transform="scale(0.3 0.3)">
  <a xlink:href="axi__jesd204__rx_8h__dep__incl_org.svg" target="_base">
   <rect id="button" ry="5" rx="5" y="6" x="6" height="38" width="38"
        fill="#f2f5e9" fill-opacity="0.5" stroke="#606060" stroke-width="1.0"/>
   <path id="arrow"
     d="M 11.500037,31.436501 C 11.940474,20.09759 22.043105,11.32322 32.158766,21.979434 L 37.068811,17.246167 C 37.068811,17.246167 37.088388,32 37.088388,32 L 22.160133,31.978069 C 22.160133,31.978069 26.997745,27.140456 26.997745,27.140456 C 18.528582,18.264221 13.291696,25.230495 11.500037,31.436501 z"
     style="fill:#404040;"/>
  </a>
 </g>
</svg>

<style type='text/css'>
<![CDATA[
[data-mouse-over-selected='false'] { opacity: 0.7; }
[data-mouse-over-selected='true']  { opacity: 1.0; }
]]>
</style>
<script type="application/ecmascript"><![CDATA[
document.addEventListener('DOMContentLoaded', (event) => {
  highlightEdges();
  highlightAdjacentNodes();
});
]]></script>
</svg>
