<?xml version="1.0" encoding="UTF-8" standalone="no"?>
<!DOCTYPE svg PUBLIC "-//W3C//DTD SVG 1.1//EN"
 "http://www.w3.org/Graphics/SVG/1.1/DTD/svg11.dtd">
<!-- Generated by graphviz version 2.43.0 (0)
 -->
<!-- Title: /home/runner/work/no&#45;OS/no&#45;OS/drivers/axi_core/jesd204/axi_jesd204_tx.h Pages: 1 -->
<!--zoomable 291 -->

<svg id="main" version="1.1" xmlns="http://www.w3.org/2000/svg" xmlns:xlink="http://www.w3.org/1999/xlink" xml:space="preserve" onload="init(evt)">

<style type="text/css"><![CDATA[
.node, .edge {opacity: 0.7;}
.node.selected, .edge.selected {opacity: 1;}
.edge:hover path { stroke: red; }
.edge:hover polygon { stroke: red; fill: red; }
]]></style>

<defs>
  <circle id="rim" cx="0" cy="0" r="7"/>
  <circle id="rim2" cx="0" cy="0" r="3.5"/>
  <g id="zoomPlus">
    <use xlink:href="#rim" fill="#404040"><set attributeName="fill" to="#808080" begin="zoomplus.mouseover" end="zoomplus.mouseout"/></use>
    <path d="M-4,0h8M0,-4v8" fill="none" stroke="white" stroke-width="1.5" pointer-events="none"/>
  </g>
  <g id="zoomMin">
    <use xlink:href="#rim" fill="#404040"><set attributeName="fill" to="#808080" begin="zoomminus.mouseover" end="zoomminus.mouseout"/></use>
    <path d="M-4,0h8" fill="none" stroke="white" stroke-width="1.5" pointer-events="none"/>
  </g>
  <g id="arrowUp" transform="translate(30 24)">
    <use xlink:href="#rim"/>
    <path pointer-events="none" fill="none" stroke="white" stroke-width="1.5" d="M0,-3.0v7 M-2.5,-0.5L0,-3.0L2.5,-0.5"/>
  </g>
  <g id="arrowRight" transform="rotate(90) translate(36 -43)">
    <use xlink:href="#rim"/>
    <path pointer-events="none" fill="none" stroke="white" stroke-width="1.5" d="M0,-3.0v7 M-2.5,-0.5L0,-3.0L2.5,-0.5"/>
  </g>
  <g id="arrowDown" transform="rotate(180) translate(-30 -48)">
    <use xlink:href="#rim"/>
    <path pointer-events="none" fill="none" stroke="white" stroke-width="1.5" d="M0,-3.0v7 M-2.5,-0.5L0,-3.0L2.5,-0.5"/>
  </g>
  <g id="arrowLeft" transform="rotate(270) translate(-36 17)">
    <use xlink:href="#rim"/>
    <path pointer-events="none" fill="none" stroke="white" stroke-width="1.5" d="M0,-3.0v7 M-2.5,-0.5L0,-3.0L2.5,-0.5"/>
  </g>
  <g id="resetDef">
    <use xlink:href="#rim2" fill="#404040"><set attributeName="fill" to="#808080" begin="reset.mouseover" end="reset.mouseout"/></use>
  </g>
</defs>
<script type="application/ecmascript">
var viewWidth = 2369;
var viewHeight = 291;
var sectionId = 'dynsection-1';
</script>
<script type="application/ecmascript" xlink:href="svg.min.js"/>
<svg id="graph" class="graph">
<g id="viewport">
<title>/home/runner/work/no&#45;OS/no&#45;OS/drivers/axi_core/jesd204/axi_jesd204_tx.h</title>
<!-- Node1 -->
<g id="Node000001" class="node">
<title>Node1</title>
<g id="a_Node000001"><a xlink:title="Driver for the Analog Devices AXI&#45;JESD204&#45;TX peripheral.">
<polygon fill="#999999" stroke="#666666" points="1138.5,-283 968.5,-283 968.5,-242 1138.5,-242 1138.5,-283"/>
<text text-anchor="start" x="976.5" y="-271" font-family="Helvetica,sans-Serif" font-size="10.00">/home/runner/work/no</text>
<text text-anchor="start" x="976.5" y="-260" font-family="Helvetica,sans-Serif" font-size="10.00">&#45;OS/no&#45;OS/drivers/axi</text>
<text text-anchor="middle" x="1053.5" y="-249" font-family="Helvetica,sans-Serif" font-size="10.00">_core/jesd204/axi_jesd204_tx.h</text>
</a>
</g>
</g>
<!-- Node2 -->
<g id="Node000002" class="node">
<title>Node2</title>
<g id="a_Node000002"><a xlink:href="axi__jesd204__tx_8c.html" target="_top" xlink:title="Driver for the Analog Devices AXI&#45;JESD204&#45;TX peripheral.">
<polygon fill="white" stroke="#666666" points="214,-200.5 45,-200.5 45,-159.5 214,-159.5 214,-200.5"/>
<text text-anchor="start" x="53" y="-188.5" font-family="Helvetica,sans-Serif" font-size="10.00">/home/runner/work/no</text>
<text text-anchor="start" x="53" y="-177.5" font-family="Helvetica,sans-Serif" font-size="10.00">&#45;OS/no&#45;OS/drivers/axi</text>
<text text-anchor="middle" x="129.5" y="-166.5" font-family="Helvetica,sans-Serif" font-size="10.00">_core/jesd204/axi_jesd204_tx.c</text>
</a>
</g>
</g>
<!-- Node1&#45;&gt;Node2 -->
<g id="edge1_Node000001_Node000002" class="edge">
<title>Node1&#45;&gt;Node2</title>
<g id="a_edge1_Node000001_Node000002"><a xlink:title=" ">
<path fill="none" stroke="#63b8ff" d="M957.8,-260.73C803.26,-258.21 489.54,-247.87 227.5,-206 218.4,-204.55 208.91,-202.64 199.57,-200.52"/>
<polygon fill="#63b8ff" stroke="#63b8ff" points="958.15,-264.23 968.2,-260.89 958.26,-257.23 958.15,-264.23"/>
</a>
</g>
</g>
<!-- Node3 -->
<g id="Node000003" class="node">
<title>Node3</title>
<g id="a_Node000003"><a xlink:href="jesd204__clk_8h.html" target="_top" xlink:title="Analog Devices JESD204 clock.">
<polygon fill="white" stroke="#666666" points="423.5,-200.5 269.5,-200.5 269.5,-159.5 423.5,-159.5 423.5,-200.5"/>
<text text-anchor="start" x="277.5" y="-188.5" font-family="Helvetica,sans-Serif" font-size="10.00">/home/runner/work/no</text>
<text text-anchor="start" x="277.5" y="-177.5" font-family="Helvetica,sans-Serif" font-size="10.00">&#45;OS/no&#45;OS/drivers/axi</text>
<text text-anchor="middle" x="346.5" y="-166.5" font-family="Helvetica,sans-Serif" font-size="10.00">_core/jesd204/jesd204_clk.h</text>
</a>
</g>
</g>
<!-- Node1&#45;&gt;Node3 -->
<g id="edge2_Node000001_Node000003" class="edge">
<title>Node1&#45;&gt;Node3</title>
<g id="a_edge2_Node000001_Node000003"><a xlink:title=" ">
<path fill="none" stroke="#63b8ff" d="M958.39,-258.19C836.76,-252.75 620.05,-239.03 437.5,-206 429.28,-204.51 420.72,-202.63 412.29,-200.56"/>
<polygon fill="#63b8ff" stroke="#63b8ff" points="958.27,-261.69 968.42,-258.63 958.58,-254.69 958.27,-261.69"/>
</a>
</g>
</g>
<!-- Node5 -->
<g id="Node000005" class="node">
<title>Node5</title>
<g id="a_Node000005"><a xlink:href="ad9081_2src_2app__jesd_8c.html" target="_top" xlink:title="Application JESD setup.">
<polygon fill="white" stroke="#666666" points="147,-118 0,-118 0,-77 147,-77 147,-118"/>
<text text-anchor="start" x="8" y="-106" font-family="Helvetica,sans-Serif" font-size="10.00">/home/runner/work/no</text>
<text text-anchor="start" x="8" y="-95" font-family="Helvetica,sans-Serif" font-size="10.00">&#45;OS/no&#45;OS/projects/ad9081</text>
<text text-anchor="middle" x="73.5" y="-84" font-family="Helvetica,sans-Serif" font-size="10.00">/src/app_jesd.c</text>
</a>
</g>
</g>
<!-- Node1&#45;&gt;Node5 -->
<g id="edge11_Node000001_Node000005" class="edge">
<title>Node1&#45;&gt;Node5</title>
<g id="a_edge11_Node000001_Node000005"><a xlink:title=" ">
<path fill="none" stroke="#63b8ff" d="M958.1,-259.31C760.58,-254.12 320.2,-238.99 260.5,-206 235.45,-192.16 245.32,-171.28 222.5,-154 200.38,-137.25 172.67,-125.1 147.16,-116.52"/>
<polygon fill="#63b8ff" stroke="#63b8ff" points="958.1,-262.81 968.18,-259.57 958.28,-255.81 958.1,-262.81"/>
</a>
</g>
</g>
<!-- Node9 -->
<g id="Node000009" class="node">
<title>Node9</title>
<g id="a_Node000009"><a xlink:href="fmcdaq2_8c.html" target="_top" xlink:title="Implementation of Main Function.">
<polygon fill="white" stroke="#666666" points="694.5,-118 540.5,-118 540.5,-77 694.5,-77 694.5,-118"/>
<text text-anchor="start" x="548.5" y="-106" font-family="Helvetica,sans-Serif" font-size="10.00">/home/runner/work/no</text>
<text text-anchor="start" x="548.5" y="-95" font-family="Helvetica,sans-Serif" font-size="10.00">&#45;OS/no&#45;OS/projects/fmcdaq2</text>
<text text-anchor="middle" x="617.5" y="-84" font-family="Helvetica,sans-Serif" font-size="10.00">/src/app/fmcdaq2.c</text>
</a>
</g>
</g>
<!-- Node1&#45;&gt;Node9 -->
<g id="edge21_Node000001_Node000009" class="edge">
<title>Node1&#45;&gt;Node9</title>
<g id="a_edge21_Node000001_Node000009"><a xlink:title=" ">
<path fill="none" stroke="#63b8ff" d="M958.13,-259.3C801.21,-254.68 502.61,-241.31 470.5,-206 454.95,-188.9 457.36,-173.01 470.5,-154 479.61,-140.82 511.33,-128.04 542.98,-118.08"/>
<polygon fill="#63b8ff" stroke="#63b8ff" points="958.17,-262.8 968.26,-259.59 958.37,-255.8 958.17,-262.8"/>
</a>
</g>
</g>
<!-- Node10 -->
<g id="Node000010" class="node">
<title>Node10</title>
<g id="a_Node000010"><a xlink:href="ad9081_2src_2app_8c.html" target="_top" xlink:title="AD9081 application example.">
<polygon fill="white" stroke="#666666" points="627,-200.5 480,-200.5 480,-159.5 627,-159.5 627,-200.5"/>
<text text-anchor="start" x="488" y="-188.5" font-family="Helvetica,sans-Serif" font-size="10.00">/home/runner/work/no</text>
<text text-anchor="start" x="488" y="-177.5" font-family="Helvetica,sans-Serif" font-size="10.00">&#45;OS/no&#45;OS/projects/ad9081</text>
<text text-anchor="middle" x="553.5" y="-166.5" font-family="Helvetica,sans-Serif" font-size="10.00">/src/app.c</text>
</a>
</g>
</g>
<!-- Node1&#45;&gt;Node10 -->
<g id="edge10_Node000001_Node000010" class="edge">
<title>Node1&#45;&gt;Node10</title>
<g id="a_edge10_Node000001_Node000010"><a xlink:title=" ">
<path fill="none" stroke="#63b8ff" d="M958,-253.18C872.99,-244.74 745.58,-229.53 636.5,-206 629.29,-204.45 621.8,-202.57 614.4,-200.55"/>
<polygon fill="#63b8ff" stroke="#63b8ff" points="957.86,-256.69 968.15,-254.18 958.54,-249.72 957.86,-256.69"/>
</a>
</g>
</g>
<!-- Node11 -->
<g id="Node000011" class="node">
<title>Node11</title>
<g id="a_Node000011"><a xlink:href="ad9172_2src_2main_8c.html" target="_top" xlink:title="Implementation of Main Function.">
<polygon fill="white" stroke="#666666" points="792,-200.5 645,-200.5 645,-159.5 792,-159.5 792,-200.5"/>
<text text-anchor="start" x="653" y="-188.5" font-family="Helvetica,sans-Serif" font-size="10.00">/home/runner/work/no</text>
<text text-anchor="start" x="653" y="-177.5" font-family="Helvetica,sans-Serif" font-size="10.00">&#45;OS/no&#45;OS/projects/ad9172</text>
<text text-anchor="middle" x="718.5" y="-166.5" font-family="Helvetica,sans-Serif" font-size="10.00">/src/main.c</text>
</a>
</g>
</g>
<!-- Node1&#45;&gt;Node11 -->
<g id="edge12_Node000001_Node000011" class="edge">
<title>Node1&#45;&gt;Node11</title>
<g id="a_edge12_Node000001_Node000011"><a xlink:title=" ">
<path fill="none" stroke="#63b8ff" d="M958.32,-242.32C910.97,-232.32 853,-219.41 801.5,-206 795.09,-204.33 788.43,-202.5 781.8,-200.61"/>
<polygon fill="#63b8ff" stroke="#63b8ff" points="957.75,-245.77 968.25,-244.4 959.19,-238.92 957.75,-245.77"/>
</a>
</g>
</g>
<!-- Node12 -->
<g id="Node000012" class="node">
<title>Node12</title>
<g id="a_Node000012"><a xlink:href="ad9371_2src_2app_2headless_8c.html" target="_top" xlink:title="Implementation of Main Function.">
<polygon fill="white" stroke="#666666" points="957,-200.5 810,-200.5 810,-159.5 957,-159.5 957,-200.5"/>
<text text-anchor="start" x="818" y="-188.5" font-family="Helvetica,sans-Serif" font-size="10.00">/home/runner/work/no</text>
<text text-anchor="start" x="818" y="-177.5" font-family="Helvetica,sans-Serif" font-size="10.00">&#45;OS/no&#45;OS/projects/ad9371</text>
<text text-anchor="middle" x="883.5" y="-166.5" font-family="Helvetica,sans-Serif" font-size="10.00">/src/app/headless.c</text>
</a>
</g>
</g>
<!-- Node1&#45;&gt;Node12 -->
<g id="edge13_Node000001_Node000012" class="edge">
<title>Node1&#45;&gt;Node12</title>
<g id="a_edge13_Node000001_Node000012"><a xlink:title=" ">
<path fill="none" stroke="#63b8ff" d="M1002.65,-237.42C977.84,-225.67 948.38,-211.72 924.95,-200.63"/>
<polygon fill="#63b8ff" stroke="#63b8ff" points="1001.38,-240.69 1011.91,-241.81 1004.37,-234.36 1001.38,-240.69"/>
</a>
</g>
</g>
<!-- Node13 -->
<g id="Node000013" class="node">
<title>Node13</title>
<g id="a_Node000013"><a xlink:href="adrv9009_2src_2app_2app__jesd_8c.html" target="_top" xlink:title="JESD setup and initialization routines.">
<polygon fill="white" stroke="#666666" points="1132,-200.5 975,-200.5 975,-159.5 1132,-159.5 1132,-200.5"/>
<text text-anchor="start" x="983" y="-188.5" font-family="Helvetica,sans-Serif" font-size="10.00">/home/runner/work/no</text>
<text text-anchor="start" x="983" y="-177.5" font-family="Helvetica,sans-Serif" font-size="10.00">&#45;OS/no&#45;OS/projects/adrv9009</text>
<text text-anchor="middle" x="1053.5" y="-166.5" font-family="Helvetica,sans-Serif" font-size="10.00">/src/app/app_jesd.c</text>
</a>
</g>
</g>
<!-- Node1&#45;&gt;Node13 -->
<g id="edge14_Node000001_Node000013" class="edge">
<title>Node1&#45;&gt;Node13</title>
<g id="a_edge14_Node000001_Node000013"><a xlink:title=" ">
<path fill="none" stroke="#63b8ff" d="M1053.5,-231.37C1053.5,-221.1 1053.5,-209.9 1053.5,-200.67"/>
<polygon fill="#63b8ff" stroke="#63b8ff" points="1050,-231.6 1053.5,-241.6 1057,-231.6 1050,-231.6"/>
</a>
</g>
</g>
<!-- Node14 -->
<g id="Node000014" class="node">
<title>Node14</title>
<g id="a_Node000014"><a xlink:href="app__talise_8c.html" target="_top" xlink:title="Talise initialization and control routines.">
<polygon fill="white" stroke="#666666" points="1307,-200.5 1150,-200.5 1150,-159.5 1307,-159.5 1307,-200.5"/>
<text text-anchor="start" x="1158" y="-188.5" font-family="Helvetica,sans-Serif" font-size="10.00">/home/runner/work/no</text>
<text text-anchor="start" x="1158" y="-177.5" font-family="Helvetica,sans-Serif" font-size="10.00">&#45;OS/no&#45;OS/projects/adrv9009</text>
<text text-anchor="middle" x="1228.5" y="-166.5" font-family="Helvetica,sans-Serif" font-size="10.00">/src/app/app_talise.c</text>
</a>
</g>
</g>
<!-- Node1&#45;&gt;Node14 -->
<g id="edge15_Node000001_Node000014" class="edge">
<title>Node1&#45;&gt;Node14</title>
<g id="a_edge15_Node000001_Node000014"><a xlink:title=" ">
<path fill="none" stroke="#63b8ff" d="M1105.5,-237.58C1131.11,-225.8 1161.61,-211.77 1185.83,-200.63"/>
<polygon fill="#63b8ff" stroke="#63b8ff" points="1103.93,-234.45 1096.31,-241.81 1106.86,-240.81 1103.93,-234.45"/>
</a>
</g>
</g>
<!-- Node15 -->
<g id="Node000015" class="node">
<title>Node15</title>
<g id="a_Node000015"><a xlink:href="headless__mb_8c.html" target="_top" xlink:title="Contains example code for user integration with their application. This file contains code for MicroB...">
<polygon fill="white" stroke="#666666" points="1482,-200.5 1325,-200.5 1325,-159.5 1482,-159.5 1482,-200.5"/>
<text text-anchor="start" x="1333" y="-188.5" font-family="Helvetica,sans-Serif" font-size="10.00">/home/runner/work/no</text>
<text text-anchor="start" x="1333" y="-177.5" font-family="Helvetica,sans-Serif" font-size="10.00">&#45;OS/no&#45;OS/projects/adrv9009</text>
<text text-anchor="middle" x="1403.5" y="-166.5" font-family="Helvetica,sans-Serif" font-size="10.00">/src/app/headless_mb.c</text>
</a>
</g>
</g>
<!-- Node1&#45;&gt;Node15 -->
<g id="edge16_Node000001_Node000015" class="edge">
<title>Node1&#45;&gt;Node15</title>
<g id="a_edge16_Node000001_Node000015"><a xlink:title=" ">
<path fill="none" stroke="#63b8ff" d="M1148.41,-243.19C1198.58,-233.07 1261.1,-219.79 1316.5,-206 1323.21,-204.33 1330.18,-202.5 1337.13,-200.6"/>
<polygon fill="#63b8ff" stroke="#63b8ff" points="1147.66,-239.77 1138.54,-245.17 1149.03,-246.63 1147.66,-239.77"/>
</a>
</g>
</g>
<!-- Node16 -->
<g id="Node000016" class="node">
<title>Node16</title>
<g id="a_Node000016"><a xlink:href="headless__zu_8c.html" target="_top" xlink:title="Contains example code for user integration with their application. This file contains code for ZU11EG...">
<polygon fill="white" stroke="#666666" points="1657,-200.5 1500,-200.5 1500,-159.5 1657,-159.5 1657,-200.5"/>
<text text-anchor="start" x="1508" y="-188.5" font-family="Helvetica,sans-Serif" font-size="10.00">/home/runner/work/no</text>
<text text-anchor="start" x="1508" y="-177.5" font-family="Helvetica,sans-Serif" font-size="10.00">&#45;OS/no&#45;OS/projects/adrv9009</text>
<text text-anchor="middle" x="1578.5" y="-166.5" font-family="Helvetica,sans-Serif" font-size="10.00">/src/app/headless_zu.c</text>
</a>
</g>
</g>
<!-- Node1&#45;&gt;Node16 -->
<g id="edge17_Node000001_Node000016" class="edge">
<title>Node1&#45;&gt;Node16</title>
<g id="a_edge17_Node000001_Node000016"><a xlink:title=" ">
<path fill="none" stroke="#63b8ff" d="M1148.61,-253.7C1237.8,-245.39 1374.57,-230.06 1491.5,-206 1499.04,-204.45 1506.89,-202.57 1514.64,-200.56"/>
<polygon fill="#63b8ff" stroke="#63b8ff" points="1148.15,-250.23 1138.51,-254.63 1148.79,-257.2 1148.15,-250.23"/>
</a>
</g>
</g>
<!-- Node17 -->
<g id="Node000017" class="node">
<title>Node17</title>
<g id="a_Node000017"><a xlink:href="adrv902x_2src_2examples_2basic__example_2basic__example_8c.html" target="_top" xlink:title="Basic example for the adrv902x project.">
<polygon fill="white" stroke="#666666" points="1836,-206 1675,-206 1675,-154 1836,-154 1836,-206"/>
<text text-anchor="start" x="1683" y="-194" font-family="Helvetica,sans-Serif" font-size="10.00">/home/runner/work/no</text>
<text text-anchor="start" x="1683" y="-183" font-family="Helvetica,sans-Serif" font-size="10.00">&#45;OS/no&#45;OS/projects/adrv902x</text>
<text text-anchor="start" x="1683" y="-172" font-family="Helvetica,sans-Serif" font-size="10.00">/src/examples/basic_example</text>
<text text-anchor="middle" x="1755.5" y="-161" font-family="Helvetica,sans-Serif" font-size="10.00">/basic_example.c</text>
</a>
</g>
</g>
<!-- Node1&#45;&gt;Node17 -->
<g id="edge18_Node000001_Node000017" class="edge">
<title>Node1&#45;&gt;Node17</title>
<g id="a_edge18_Node000001_Node000017"><a xlink:title=" ">
<path fill="none" stroke="#63b8ff" d="M1148.69,-258.29C1269.85,-252.98 1485.19,-239.38 1666.5,-206 1669.18,-205.51 1671.9,-204.97 1674.64,-204.39"/>
<polygon fill="#63b8ff" stroke="#63b8ff" points="1148.54,-254.8 1138.7,-258.72 1148.84,-261.79 1148.54,-254.8"/>
</a>
</g>
</g>
<!-- Node18 -->
<g id="Node000018" class="node">
<title>Node18</title>
<g id="a_Node000018"><a xlink:href="dma__example_8c.html" target="_top" xlink:title="DMA example for the adrv902x project.">
<polygon fill="white" stroke="#666666" points="2012.5,-206 1854.5,-206 1854.5,-154 2012.5,-154 2012.5,-206"/>
<text text-anchor="start" x="1862.5" y="-194" font-family="Helvetica,sans-Serif" font-size="10.00">/home/runner/work/no</text>
<text text-anchor="start" x="1862.5" y="-183" font-family="Helvetica,sans-Serif" font-size="10.00">&#45;OS/no&#45;OS/projects/adrv902x</text>
<text text-anchor="start" x="1862.5" y="-172" font-family="Helvetica,sans-Serif" font-size="10.00">/src/examples/dma_example</text>
<text text-anchor="middle" x="1933.5" y="-161" font-family="Helvetica,sans-Serif" font-size="10.00">/dma_example.c</text>
</a>
</g>
</g>
<!-- Node1&#45;&gt;Node18 -->
<g id="edge19_Node000001_Node000018" class="edge">
<title>Node1&#45;&gt;Node18</title>
<g id="a_edge19_Node000001_Node000018"><a xlink:title=" ">
<path fill="none" stroke="#63b8ff" d="M1148.66,-261.16C1298.15,-259.21 1596.65,-249.58 1845.5,-206 1848.32,-205.51 1851.17,-204.96 1854.05,-204.37"/>
<polygon fill="#63b8ff" stroke="#63b8ff" points="1148.55,-257.66 1138.59,-261.28 1148.63,-264.66 1148.55,-257.66"/>
</a>
</g>
</g>
<!-- Node19 -->
<g id="Node000019" class="node">
<title>Node19</title>
<g id="a_Node000019"><a xlink:href="adrv902x_2src_2examples_2iio__example_2iio__example_8c.html" target="_top" xlink:title="IIO example for the adrv902x project.">
<polygon fill="white" stroke="#666666" points="2188,-206 2031,-206 2031,-154 2188,-154 2188,-206"/>
<text text-anchor="start" x="2039" y="-194" font-family="Helvetica,sans-Serif" font-size="10.00">/home/runner/work/no</text>
<text text-anchor="start" x="2039" y="-183" font-family="Helvetica,sans-Serif" font-size="10.00">&#45;OS/no&#45;OS/projects/adrv902x</text>
<text text-anchor="start" x="2039" y="-172" font-family="Helvetica,sans-Serif" font-size="10.00">/src/examples/iio_example</text>
<text text-anchor="middle" x="2109.5" y="-161" font-family="Helvetica,sans-Serif" font-size="10.00">/iio_example.c</text>
</a>
</g>
</g>
<!-- Node1&#45;&gt;Node19 -->
<g id="edge20_Node000001_Node000019" class="edge">
<title>Node1&#45;&gt;Node19</title>
<g id="a_edge20_Node000001_Node000019"><a xlink:title=" ">
<path fill="none" stroke="#63b8ff" d="M1148.83,-258.7C1358.8,-252.09 1855.63,-233.97 2021.5,-206 2024.48,-205.5 2027.49,-204.93 2030.53,-204.32"/>
<polygon fill="#63b8ff" stroke="#63b8ff" points="1148.64,-255.2 1138.75,-259.01 1148.86,-262.2 1148.64,-255.2"/>
</a>
</g>
</g>
<!-- Node20 -->
<g id="Node000020" class="node">
<title>Node20</title>
<g id="a_Node000020"><a xlink:href="fmcdaq3_8c.html" target="_top" xlink:title="Implementation of Main Function.">
<polygon fill="white" stroke="#666666" points="2360.5,-200.5 2206.5,-200.5 2206.5,-159.5 2360.5,-159.5 2360.5,-200.5"/>
<text text-anchor="start" x="2214.5" y="-188.5" font-family="Helvetica,sans-Serif" font-size="10.00">/home/runner/work/no</text>
<text text-anchor="start" x="2214.5" y="-177.5" font-family="Helvetica,sans-Serif" font-size="10.00">&#45;OS/no&#45;OS/projects/fmcdaq3</text>
<text text-anchor="middle" x="2283.5" y="-166.5" font-family="Helvetica,sans-Serif" font-size="10.00">/src/app/fmcdaq3.c</text>
</a>
</g>
</g>
<!-- Node1&#45;&gt;Node20 -->
<g id="edge22_Node000001_Node000020" class="edge">
<title>Node1&#45;&gt;Node20</title>
<g id="a_edge22_Node000001_Node000020"><a xlink:title=" ">
<path fill="none" stroke="#63b8ff" d="M1149.13,-259.74C1386.3,-254.92 1996.88,-239.55 2197.5,-206 2205.78,-204.62 2214.4,-202.7 2222.83,-200.55"/>
<polygon fill="#63b8ff" stroke="#63b8ff" points="1148.73,-256.25 1138.8,-259.95 1148.87,-263.25 1148.73,-256.25"/>
</a>
</g>
</g>
<!-- Node4 -->
<g id="Node000004" class="node">
<title>Node4</title>
<g id="a_Node000004"><a xlink:href="jesd204__clk_8c.html" target="_top" xlink:title="Analog Devices JESD204 clock.">
<polygon fill="white" stroke="#666666" points="318,-118 165,-118 165,-77 318,-77 318,-118"/>
<text text-anchor="start" x="173" y="-106" font-family="Helvetica,sans-Serif" font-size="10.00">/home/runner/work/no</text>
<text text-anchor="start" x="173" y="-95" font-family="Helvetica,sans-Serif" font-size="10.00">&#45;OS/no&#45;OS/drivers/axi</text>
<text text-anchor="middle" x="241.5" y="-84" font-family="Helvetica,sans-Serif" font-size="10.00">_core/jesd204/jesd204_clk.c</text>
</a>
</g>
</g>
<!-- Node3&#45;&gt;Node4 -->
<g id="edge3_Node000003_Node000004" class="edge">
<title>Node3&#45;&gt;Node4</title>
<g id="a_edge3_Node000003_Node000004"><a xlink:title=" ">
<path fill="none" stroke="#63b8ff" d="M312.47,-152.91C297.79,-141.65 280.9,-128.71 267.28,-118.27"/>
<polygon fill="#63b8ff" stroke="#63b8ff" points="310.75,-156 320.81,-159.31 315.01,-150.45 310.75,-156"/>
</a>
</g>
</g>
<!-- Node3&#45;&gt;Node5 -->
<g id="edge4_Node000003_Node000005" class="edge">
<title>Node3&#45;&gt;Node5</title>
<g id="a_edge4_Node000003_Node000005"><a xlink:title=" ">
<path fill="none" stroke="#63b8ff" d="M270.38,-156.55C229.34,-144.45 179.18,-129.66 139.76,-118.04"/>
<polygon fill="#63b8ff" stroke="#63b8ff" points="269.48,-159.94 280.07,-159.41 271.46,-153.22 269.48,-159.94"/>
</a>
</g>
</g>
<!-- Node6 -->
<g id="Node000006" class="node">
<title>Node6</title>
<g id="a_Node000006"><a xlink:href="ad9083_2src_2app__jesd_8c.html" target="_top" xlink:title="Application JESD setup.">
<polygon fill="white" stroke="#666666" points="420,-41 273,-41 273,0 420,0 420,-41"/>
<text text-anchor="start" x="281" y="-29" font-family="Helvetica,sans-Serif" font-size="10.00">/home/runner/work/no</text>
<text text-anchor="start" x="281" y="-18" font-family="Helvetica,sans-Serif" font-size="10.00">&#45;OS/no&#45;OS/projects/ad9083</text>
<text text-anchor="middle" x="346.5" y="-7" font-family="Helvetica,sans-Serif" font-size="10.00">/src/app_jesd.c</text>
</a>
</g>
</g>
<!-- Node3&#45;&gt;Node6 -->
<g id="edge5_Node000003_Node000006" class="edge">
<title>Node3&#45;&gt;Node6</title>
<g id="a_edge5_Node000003_Node000006"><a xlink:title=" ">
<path fill="none" stroke="#63b8ff" d="M346.5,-148.97C346.5,-117.37 346.5,-68.51 346.5,-41.38"/>
<polygon fill="#63b8ff" stroke="#63b8ff" points="343,-149.37 346.5,-159.37 350,-149.37 343,-149.37"/>
</a>
</g>
</g>
<!-- Node7 -->
<g id="Node000007" class="node">
<title>Node7</title>
<g id="a_Node000007"><a xlink:href="ad9083_2src_2app__jesd_8h.html" target="_top" xlink:title="Application JESD initialization.">
<polygon fill="white" stroke="#666666" points="522,-118 375,-118 375,-77 522,-77 522,-118"/>
<text text-anchor="start" x="383" y="-106" font-family="Helvetica,sans-Serif" font-size="10.00">/home/runner/work/no</text>
<text text-anchor="start" x="383" y="-95" font-family="Helvetica,sans-Serif" font-size="10.00">&#45;OS/no&#45;OS/projects/ad9083</text>
<text text-anchor="middle" x="448.5" y="-84" font-family="Helvetica,sans-Serif" font-size="10.00">/src/app_jesd.h</text>
</a>
</g>
</g>
<!-- Node3&#45;&gt;Node7 -->
<g id="edge6_Node000003_Node000007" class="edge">
<title>Node3&#45;&gt;Node7</title>
<g id="a_edge6_Node000003_Node000007"><a xlink:title=" ">
<path fill="none" stroke="#63b8ff" d="M379.56,-152.91C393.82,-141.65 410.22,-128.71 423.45,-118.27"/>
<polygon fill="#63b8ff" stroke="#63b8ff" points="377.13,-150.36 371.45,-159.31 381.47,-155.86 377.13,-150.36"/>
</a>
</g>
</g>
<!-- Node3&#45;&gt;Node9 -->
<g id="edge9_Node000003_Node000009" class="edge">
<title>Node3&#45;&gt;Node9</title>
<g id="a_edge9_Node000003_Node000009"><a xlink:title=" ">
<path fill="none" stroke="#63b8ff" d="M422.06,-156.55C462.8,-144.45 512.6,-129.66 551.73,-118.04"/>
<polygon fill="#63b8ff" stroke="#63b8ff" points="421.04,-153.21 412.45,-159.41 423.03,-159.92 421.04,-153.21"/>
</a>
</g>
</g>
<!-- Node7&#45;&gt;Node6 -->
<g id="edge8_Node000007_Node000006" class="edge">
<title>Node7&#45;&gt;Node6</title>
<g id="a_edge8_Node000007_Node000006"><a xlink:title=" ">
<path fill="none" stroke="#63b8ff" d="M413.57,-70.82C400.38,-61.11 385.58,-50.24 373.25,-41.17"/>
<polygon fill="#63b8ff" stroke="#63b8ff" points="411.84,-73.89 421.97,-76.99 415.98,-68.25 411.84,-73.89"/>
</a>
</g>
</g>
<!-- Node8 -->
<g id="Node000008" class="node">
<title>Node8</title>
<g id="a_Node000008"><a xlink:href="ad9083_2src_2app_8c.html" target="_top" xlink:title="AD9083 application example.">
<polygon fill="white" stroke="#666666" points="585,-41 438,-41 438,0 585,0 585,-41"/>
<text text-anchor="start" x="446" y="-29" font-family="Helvetica,sans-Serif" font-size="10.00">/home/runner/work/no</text>
<text text-anchor="start" x="446" y="-18" font-family="Helvetica,sans-Serif" font-size="10.00">&#45;OS/no&#45;OS/projects/ad9083</text>
<text text-anchor="middle" x="511.5" y="-7" font-family="Helvetica,sans-Serif" font-size="10.00">/src/app.c</text>
</a>
</g>
</g>
<!-- Node7&#45;&gt;Node8 -->
<g id="edge7_Node000007_Node000008" class="edge">
<title>Node7&#45;&gt;Node8</title>
<g id="a_edge7_Node000007_Node000008"><a xlink:title=" ">
<path fill="none" stroke="#63b8ff" d="M471.64,-68.95C479.41,-59.7 487.91,-49.58 495.06,-41.07"/>
<polygon fill="#63b8ff" stroke="#63b8ff" points="468.8,-66.89 465.05,-76.79 474.16,-71.39 468.8,-66.89"/>
</a>
</g>
</g>
</g>
</svg>

<g id="navigator" transform="translate(0 0)" fill="#404254">
  <rect fill="#f2f5e9" fill-opacity="0.5" stroke="#606060" stroke-width=".5" x="0" y="0" width="60" height="60"/>
  <use id="zoomplus" xlink:href="#zoomPlus" x="17" y="9" onmousedown="handleZoom(evt,'in')"/>
  <use id="zoomminus" xlink:href="#zoomMin" x="42" y="9" onmousedown="handleZoom(evt,'out')"/>
  <use id="reset" xlink:href="#resetDef" x="30" y="36" onmousedown="handleReset()"/>
   <use id="arrowup" xlink:href="#arrowUp" x="0" y="0" onmousedown="handlePan(0,-1)"/>
  <use id="arrowright" xlink:href="#arrowRight" x="0" y="0" onmousedown="handlePan(1,0)"/>
  <use id="arrowdown" xlink:href="#arrowDown" x="0" y="0" onmousedown="handlePan(0,1)"/>
  <use id="arrowleft" xlink:href="#arrowLeft" x="0" y="0" onmousedown="handlePan(-1,0)"/>
</g>
<svg viewBox="0 0 15 15" width="100%" height="30px" preserveAspectRatio="xMaxYMin meet">
 <g id="arrow_out" transform="scale(0.3 0.3)">
  <a xlink:href="axi__jesd204__tx_8h__dep__incl_org.svg" target="_base">
   <rect id="button" ry="5" rx="5" y="6" x="6" height="38" width="38"
        fill="#f2f5e9" fill-opacity="0.5" stroke="#606060" stroke-width="1.0"/>
   <path id="arrow"
     d="M 11.500037,31.436501 C 11.940474,20.09759 22.043105,11.32322 32.158766,21.979434 L 37.068811,17.246167 C 37.068811,17.246167 37.088388,32 37.088388,32 L 22.160133,31.978069 C 22.160133,31.978069 26.997745,27.140456 26.997745,27.140456 C 18.528582,18.264221 13.291696,25.230495 11.500037,31.436501 z"
     style="fill:#404040;"/>
  </a>
 </g>
</svg>

<style type='text/css'>
<![CDATA[
[data-mouse-over-selected='false'] { opacity: 0.7; }
[data-mouse-over-selected='true']  { opacity: 1.0; }
]]>
</style>
<script type="application/ecmascript"><![CDATA[
document.addEventListener('DOMContentLoaded', (event) => {
  highlightEdges();
  highlightAdjacentNodes();
});
]]></script>
</svg>
