<?xml version="1.0" encoding="UTF-8" standalone="no"?>
<!DOCTYPE svg PUBLIC "-//W3C//DTD SVG 1.1//EN"
 "http://www.w3.org/Graphics/SVG/1.1/DTD/svg11.dtd">
<!-- Generated by graphviz version 2.43.0 (0)
 -->
<!-- Title: /home/runner/work/no&#45;OS/no&#45;OS/drivers/axi_core/axi_dac_core/axi_dac_core.h Pages: 1 -->
<svg width="2784pt" height="236pt"
 viewBox="0.00 0.00 2784.00 236.00" xmlns="http://www.w3.org/2000/svg" xmlns:xlink="http://www.w3.org/1999/xlink">
<g id="graph0" class="graph" transform="scale(1 1) rotate(0) translate(4 232)">
<title>/home/runner/work/no&#45;OS/no&#45;OS/drivers/axi_core/axi_dac_core/axi_dac_core.h</title>
<!-- Node1 -->
<g id="Node000001" class="node">
<title>Node1</title>
<g id="a_Node000001"><a xlink:title="Driver for the Analog Devices AXI&#45;DAC&#45;CORE module.">
<polygon fill="#999999" stroke="#666666" points="1367,-228 1239,-228 1239,-176 1367,-176 1367,-228"/>
<text text-anchor="start" x="1247" y="-216" font-family="Helvetica,sans-Serif" font-size="10.00">/home/runner/work/no</text>
<text text-anchor="start" x="1247" y="-205" font-family="Helvetica,sans-Serif" font-size="10.00">&#45;OS/no&#45;OS/drivers/axi</text>
<text text-anchor="start" x="1247" y="-194" font-family="Helvetica,sans-Serif" font-size="10.00">_core/axi_dac_core/axi</text>
<text text-anchor="middle" x="1303" y="-183" font-family="Helvetica,sans-Serif" font-size="10.00">_dac_core.h</text>
</a>
</g>
</g>
<!-- Node2 -->
<g id="Node000002" class="node">
<title>Node2</title>
<g id="a_Node000002"><a xlink:href="axi__dac__core_8c.html" target="_top" xlink:title="Driver for the Analog Devices AXI&#45;DAC&#45;CORE module.">
<polygon fill="white" stroke="#666666" points="128,-140 0,-140 0,-88 128,-88 128,-140"/>
<text text-anchor="start" x="8" y="-128" font-family="Helvetica,sans-Serif" font-size="10.00">/home/runner/work/no</text>
<text text-anchor="start" x="8" y="-117" font-family="Helvetica,sans-Serif" font-size="10.00">&#45;OS/no&#45;OS/drivers/axi</text>
<text text-anchor="start" x="8" y="-106" font-family="Helvetica,sans-Serif" font-size="10.00">_core/axi_dac_core/axi</text>
<text text-anchor="middle" x="64" y="-95" font-family="Helvetica,sans-Serif" font-size="10.00">_dac_core.c</text>
</a>
</g>
</g>
<!-- Node1&#45;&gt;Node2 -->
<g id="edge1_Node000001_Node000002" class="edge">
<title>Node1&#45;&gt;Node2</title>
<g id="a_edge1_Node000001_Node000002"><a xlink:title=" ">
<path fill="none" stroke="#63b8ff" d="M1228.69,-199.8C1006.14,-195.79 347.48,-180.72 137,-140 134.11,-139.44 131.17,-138.79 128.22,-138.07"/>
<polygon fill="#63b8ff" stroke="#63b8ff" points="1228.89,-203.31 1238.95,-199.99 1229.01,-196.31 1228.89,-203.31"/>
</a>
</g>
</g>
<!-- Node3 -->
<g id="Node000003" class="node">
<title>Node3</title>
<g id="a_Node000003"><a xlink:href="iio__axi__dac_8h.html" target="_top" xlink:title="Header file of iio_axi_dac.">
<polygon fill="white" stroke="#666666" points="270,-140 146,-140 146,-88 270,-88 270,-140"/>
<text text-anchor="start" x="154" y="-128" font-family="Helvetica,sans-Serif" font-size="10.00">/home/runner/work/no</text>
<text text-anchor="start" x="154" y="-117" font-family="Helvetica,sans-Serif" font-size="10.00">&#45;OS/no&#45;OS/drivers/axi</text>
<text text-anchor="start" x="154" y="-106" font-family="Helvetica,sans-Serif" font-size="10.00">_core/iio_axi_dac/iio</text>
<text text-anchor="middle" x="208" y="-95" font-family="Helvetica,sans-Serif" font-size="10.00">_axi_dac.h</text>
</a>
</g>
</g>
<!-- Node1&#45;&gt;Node3 -->
<g id="edge2_Node000001_Node000003" class="edge">
<title>Node1&#45;&gt;Node3</title>
<g id="a_edge2_Node000001_Node000003"><a xlink:title=" ">
<path fill="none" stroke="#63b8ff" d="M1228.44,-199.03C1025.3,-193.26 465.15,-174.61 284,-140 279.5,-139.14 274.89,-138.09 270.29,-136.9"/>
<polygon fill="#63b8ff" stroke="#63b8ff" points="1228.61,-202.54 1238.71,-199.32 1228.81,-195.54 1228.61,-202.54"/>
</a>
</g>
</g>
<!-- Node5 -->
<g id="Node000005" class="node">
<title>Node5</title>
<g id="a_Node000005"><a xlink:href="adrv902x_2src_2examples_2iio__example_2iio__example_8c.html" target="_top" xlink:title="IIO example for the adrv902x project.">
<polygon fill="white" stroke="#666666" points="376.5,-52 219.5,-52 219.5,0 376.5,0 376.5,-52"/>
<text text-anchor="start" x="227.5" y="-40" font-family="Helvetica,sans-Serif" font-size="10.00">/home/runner/work/no</text>
<text text-anchor="start" x="227.5" y="-29" font-family="Helvetica,sans-Serif" font-size="10.00">&#45;OS/no&#45;OS/projects/adrv902x</text>
<text text-anchor="start" x="227.5" y="-18" font-family="Helvetica,sans-Serif" font-size="10.00">/src/examples/iio_example</text>
<text text-anchor="middle" x="298" y="-7" font-family="Helvetica,sans-Serif" font-size="10.00">/iio_example.c</text>
</a>
</g>
</g>
<!-- Node1&#45;&gt;Node5 -->
<g id="edge17_Node000001_Node000005" class="edge">
<title>Node1&#45;&gt;Node5</title>
<g id="a_edge17_Node000001_Node000005"><a xlink:title=" ">
<path fill="none" stroke="#63b8ff" d="M1228.62,-201.62C1010.61,-202.72 384.24,-200.54 317,-140 292.9,-118.3 291.79,-78.42 294.16,-52.31"/>
<polygon fill="#63b8ff" stroke="#63b8ff" points="1228.71,-205.12 1238.69,-201.56 1228.67,-198.12 1228.71,-205.12"/>
</a>
</g>
</g>
<!-- Node6 -->
<g id="Node000006" class="node">
<title>Node6</title>
<g id="a_Node000006"><a xlink:href="ad9361__api_8c.html" target="_top" xlink:title="Implementation of AD9361 API Driver.">
<polygon fill="white" stroke="#666666" points="508,-134.5 326,-134.5 326,-93.5 508,-93.5 508,-134.5"/>
<text text-anchor="start" x="334" y="-122.5" font-family="Helvetica,sans-Serif" font-size="10.00">/home/runner/work/no</text>
<text text-anchor="start" x="334" y="-111.5" font-family="Helvetica,sans-Serif" font-size="10.00">&#45;OS/no&#45;OS/drivers/rf</text>
<text text-anchor="middle" x="417" y="-100.5" font-family="Helvetica,sans-Serif" font-size="10.00">&#45;transceiver/ad9361/ad9361_api.c</text>
</a>
</g>
</g>
<!-- Node1&#45;&gt;Node6 -->
<g id="edge5_Node000001_Node000006" class="edge">
<title>Node1&#45;&gt;Node6</title>
<g id="a_edge5_Node000001_Node000006"><a xlink:title=" ">
<path fill="none" stroke="#63b8ff" d="M1228.7,-199.37C1088.64,-195.4 776.31,-182.17 517,-140 507.9,-138.52 498.42,-136.62 489.07,-134.54"/>
<polygon fill="#63b8ff" stroke="#63b8ff" points="1228.8,-202.88 1238.89,-199.66 1228.99,-195.88 1228.8,-202.88"/>
</a>
</g>
</g>
<!-- Node7 -->
<g id="Node000007" class="node">
<title>Node7</title>
<g id="a_Node000007"><a xlink:href="ad3552r__fmcz_2src_2common_2common__data_8c.html" target="_top" xlink:title="Defines common data to be used by iio examples.">
<polygon fill="white" stroke="#666666" points="716,-134.5 526,-134.5 526,-93.5 716,-93.5 716,-134.5"/>
<text text-anchor="start" x="534" y="-122.5" font-family="Helvetica,sans-Serif" font-size="10.00">/home/runner/work/no</text>
<text text-anchor="start" x="534" y="-111.5" font-family="Helvetica,sans-Serif" font-size="10.00">&#45;OS/no&#45;OS/projects/ad3552r</text>
<text text-anchor="middle" x="621" y="-100.5" font-family="Helvetica,sans-Serif" font-size="10.00">_fmcz/src/common/common_data.c</text>
</a>
</g>
</g>
<!-- Node1&#45;&gt;Node7 -->
<g id="edge6_Node000001_Node000007" class="edge">
<title>Node1&#45;&gt;Node7</title>
<g id="a_edge6_Node000001_Node000007"><a xlink:title=" ">
<path fill="none" stroke="#63b8ff" d="M1228.57,-196.2C1118.25,-188.39 905.08,-170.66 726,-140 716.86,-138.43 707.32,-136.54 697.89,-134.5"/>
<polygon fill="#63b8ff" stroke="#63b8ff" points="1228.37,-199.7 1238.59,-196.9 1228.86,-192.71 1228.37,-199.7"/>
</a>
</g>
</g>
<!-- Node8 -->
<g id="Node000008" class="node">
<title>Node8</title>
<g id="a_Node000008"><a xlink:href="ad9081_2src_2app_8c.html" target="_top" xlink:title="AD9081 application example.">
<polygon fill="white" stroke="#666666" points="881.5,-134.5 734.5,-134.5 734.5,-93.5 881.5,-93.5 881.5,-134.5"/>
<text text-anchor="start" x="742.5" y="-122.5" font-family="Helvetica,sans-Serif" font-size="10.00">/home/runner/work/no</text>
<text text-anchor="start" x="742.5" y="-111.5" font-family="Helvetica,sans-Serif" font-size="10.00">&#45;OS/no&#45;OS/projects/ad9081</text>
<text text-anchor="middle" x="808" y="-100.5" font-family="Helvetica,sans-Serif" font-size="10.00">/src/app.c</text>
</a>
</g>
</g>
<!-- Node1&#45;&gt;Node8 -->
<g id="edge7_Node000001_Node000008" class="edge">
<title>Node1&#45;&gt;Node8</title>
<g id="a_edge7_Node000001_Node000008"><a xlink:title=" ">
<path fill="none" stroke="#63b8ff" d="M1228.86,-193.32C1145.92,-183.96 1007.86,-166.1 891,-140 883.95,-138.43 876.63,-136.56 869.38,-134.57"/>
<polygon fill="#63b8ff" stroke="#63b8ff" points="1228.62,-196.81 1238.95,-194.44 1229.4,-189.85 1228.62,-196.81"/>
</a>
</g>
</g>
<!-- Node9 -->
<g id="Node000009" class="node">
<title>Node9</title>
<g id="a_Node000009"><a xlink:href="ad9172_2src_2main_8c.html" target="_top" xlink:title="Implementation of Main Function.">
<polygon fill="white" stroke="#666666" points="1046.5,-134.5 899.5,-134.5 899.5,-93.5 1046.5,-93.5 1046.5,-134.5"/>
<text text-anchor="start" x="907.5" y="-122.5" font-family="Helvetica,sans-Serif" font-size="10.00">/home/runner/work/no</text>
<text text-anchor="start" x="907.5" y="-111.5" font-family="Helvetica,sans-Serif" font-size="10.00">&#45;OS/no&#45;OS/projects/ad9172</text>
<text text-anchor="middle" x="973" y="-100.5" font-family="Helvetica,sans-Serif" font-size="10.00">/src/main.c</text>
</a>
</g>
</g>
<!-- Node1&#45;&gt;Node9 -->
<g id="edge8_Node000001_Node000009" class="edge">
<title>Node1&#45;&gt;Node9</title>
<g id="a_edge8_Node000001_Node000009"><a xlink:title=" ">
<path fill="none" stroke="#63b8ff" d="M1228.88,-183.73C1179.69,-172.01 1113.79,-155.83 1056,-140 1049.76,-138.29 1043.27,-136.45 1036.8,-134.57"/>
<polygon fill="#63b8ff" stroke="#63b8ff" points="1228.26,-187.18 1238.8,-186.08 1229.88,-180.37 1228.26,-187.18"/>
</a>
</g>
</g>
<!-- Node10 -->
<g id="Node000010" class="node">
<title>Node10</title>
<g id="a_Node000010"><a xlink:href="ad9361_2src_2main_8c.html" target="_top" xlink:title="Implementation of Main Function.">
<polygon fill="white" stroke="#666666" points="1211.5,-134.5 1064.5,-134.5 1064.5,-93.5 1211.5,-93.5 1211.5,-134.5"/>
<text text-anchor="start" x="1072.5" y="-122.5" font-family="Helvetica,sans-Serif" font-size="10.00">/home/runner/work/no</text>
<text text-anchor="start" x="1072.5" y="-111.5" font-family="Helvetica,sans-Serif" font-size="10.00">&#45;OS/no&#45;OS/projects/ad9361</text>
<text text-anchor="middle" x="1138" y="-100.5" font-family="Helvetica,sans-Serif" font-size="10.00">/src/main.c</text>
</a>
</g>
</g>
<!-- Node1&#45;&gt;Node10 -->
<g id="edge9_Node000001_Node000010" class="edge">
<title>Node1&#45;&gt;Node10</title>
<g id="a_edge9_Node000001_Node000010"><a xlink:title=" ">
<path fill="none" stroke="#63b8ff" d="M1245.74,-171.16C1222.47,-159.03 1196.23,-145.35 1175.47,-134.53"/>
<polygon fill="#63b8ff" stroke="#63b8ff" points="1244.35,-174.38 1254.83,-175.89 1247.58,-168.17 1244.35,-174.38"/>
</a>
</g>
</g>
<!-- Node11 -->
<g id="Node000011" class="node">
<title>Node11</title>
<g id="a_Node000011"><a xlink:href="ad9371_2src_2app_2headless_8c.html" target="_top" xlink:title="Implementation of Main Function.">
<polygon fill="white" stroke="#666666" points="1376.5,-134.5 1229.5,-134.5 1229.5,-93.5 1376.5,-93.5 1376.5,-134.5"/>
<text text-anchor="start" x="1237.5" y="-122.5" font-family="Helvetica,sans-Serif" font-size="10.00">/home/runner/work/no</text>
<text text-anchor="start" x="1237.5" y="-111.5" font-family="Helvetica,sans-Serif" font-size="10.00">&#45;OS/no&#45;OS/projects/ad9371</text>
<text text-anchor="middle" x="1303" y="-100.5" font-family="Helvetica,sans-Serif" font-size="10.00">/src/app/headless.c</text>
</a>
</g>
</g>
<!-- Node1&#45;&gt;Node11 -->
<g id="edge10_Node000001_Node000011" class="edge">
<title>Node1&#45;&gt;Node11</title>
<g id="a_edge10_Node000001_Node000011"><a xlink:title=" ">
<path fill="none" stroke="#63b8ff" d="M1303,-165.45C1303,-154.94 1303,-143.82 1303,-134.7"/>
<polygon fill="#63b8ff" stroke="#63b8ff" points="1299.5,-165.66 1303,-175.66 1306.5,-165.66 1299.5,-165.66"/>
</a>
</g>
</g>
<!-- Node12 -->
<g id="Node000012" class="node">
<title>Node12</title>
<g id="a_Node000012"><a xlink:href="adrv9001_2src_2app_2headless_8c.html" target="_top" xlink:title="adrv9002 main project file.">
<polygon fill="white" stroke="#666666" points="1551.5,-134.5 1394.5,-134.5 1394.5,-93.5 1551.5,-93.5 1551.5,-134.5"/>
<text text-anchor="start" x="1402.5" y="-122.5" font-family="Helvetica,sans-Serif" font-size="10.00">/home/runner/work/no</text>
<text text-anchor="start" x="1402.5" y="-111.5" font-family="Helvetica,sans-Serif" font-size="10.00">&#45;OS/no&#45;OS/projects/adrv9001</text>
<text text-anchor="middle" x="1473" y="-100.5" font-family="Helvetica,sans-Serif" font-size="10.00">/src/app/headless.c</text>
</a>
</g>
</g>
<!-- Node1&#45;&gt;Node12 -->
<g id="edge11_Node000001_Node000012" class="edge">
<title>Node1&#45;&gt;Node12</title>
<g id="a_edge11_Node000001_Node000012"><a xlink:title=" ">
<path fill="none" stroke="#63b8ff" d="M1361.68,-171.32C1385.73,-159.15 1412.91,-145.4 1434.39,-134.53"/>
<polygon fill="#63b8ff" stroke="#63b8ff" points="1359.97,-168.26 1352.63,-175.89 1363.13,-174.5 1359.97,-168.26"/>
</a>
</g>
</g>
<!-- Node13 -->
<g id="Node000013" class="node">
<title>Node13</title>
<g id="a_Node000013"><a xlink:href="headless__arm_8c.html" target="_top" xlink:title="Contains example code for user integration with their application. This file contains code for ARM.">
<polygon fill="white" stroke="#666666" points="1726.5,-134.5 1569.5,-134.5 1569.5,-93.5 1726.5,-93.5 1726.5,-134.5"/>
<text text-anchor="start" x="1577.5" y="-122.5" font-family="Helvetica,sans-Serif" font-size="10.00">/home/runner/work/no</text>
<text text-anchor="start" x="1577.5" y="-111.5" font-family="Helvetica,sans-Serif" font-size="10.00">&#45;OS/no&#45;OS/projects/adrv9009</text>
<text text-anchor="middle" x="1648" y="-100.5" font-family="Helvetica,sans-Serif" font-size="10.00">/src/app/headless_arm.c</text>
</a>
</g>
</g>
<!-- Node1&#45;&gt;Node13 -->
<g id="edge12_Node000001_Node000013" class="edge">
<title>Node1&#45;&gt;Node13</title>
<g id="a_edge12_Node000001_Node000013"><a xlink:title=" ">
<path fill="none" stroke="#63b8ff" d="M1376.85,-184.52C1428.56,-172.74 1499.2,-156.18 1561,-140 1567.54,-138.29 1574.33,-136.45 1581.12,-134.57"/>
<polygon fill="#63b8ff" stroke="#63b8ff" points="1376.07,-181.11 1367.09,-186.74 1377.62,-187.94 1376.07,-181.11"/>
</a>
</g>
</g>
<!-- Node14 -->
<g id="Node000014" class="node">
<title>Node14</title>
<g id="a_Node000014"><a xlink:href="headless__mb_8c.html" target="_top" xlink:title="Contains example code for user integration with their application. This file contains code for MicroB...">
<polygon fill="white" stroke="#666666" points="1901.5,-134.5 1744.5,-134.5 1744.5,-93.5 1901.5,-93.5 1901.5,-134.5"/>
<text text-anchor="start" x="1752.5" y="-122.5" font-family="Helvetica,sans-Serif" font-size="10.00">/home/runner/work/no</text>
<text text-anchor="start" x="1752.5" y="-111.5" font-family="Helvetica,sans-Serif" font-size="10.00">&#45;OS/no&#45;OS/projects/adrv9009</text>
<text text-anchor="middle" x="1823" y="-100.5" font-family="Helvetica,sans-Serif" font-size="10.00">/src/app/headless_mb.c</text>
</a>
</g>
</g>
<!-- Node1&#45;&gt;Node14 -->
<g id="edge13_Node000001_Node000014" class="edge">
<title>Node1&#45;&gt;Node14</title>
<g id="a_edge13_Node000001_Node000014"><a xlink:title=" ">
<path fill="none" stroke="#63b8ff" d="M1377.33,-193.73C1464.02,-184.51 1611.37,-166.55 1736,-140 1743.38,-138.43 1751.05,-136.57 1758.64,-134.58"/>
<polygon fill="#63b8ff" stroke="#63b8ff" points="1376.9,-190.25 1367.32,-194.78 1377.63,-197.21 1376.9,-190.25"/>
</a>
</g>
</g>
<!-- Node15 -->
<g id="Node000015" class="node">
<title>Node15</title>
<g id="a_Node000015"><a xlink:href="headless__zu_8c.html" target="_top" xlink:title="Contains example code for user integration with their application. This file contains code for ZU11EG...">
<polygon fill="white" stroke="#666666" points="2076.5,-134.5 1919.5,-134.5 1919.5,-93.5 2076.5,-93.5 2076.5,-134.5"/>
<text text-anchor="start" x="1927.5" y="-122.5" font-family="Helvetica,sans-Serif" font-size="10.00">/home/runner/work/no</text>
<text text-anchor="start" x="1927.5" y="-111.5" font-family="Helvetica,sans-Serif" font-size="10.00">&#45;OS/no&#45;OS/projects/adrv9009</text>
<text text-anchor="middle" x="1998" y="-100.5" font-family="Helvetica,sans-Serif" font-size="10.00">/src/app/headless_zu.c</text>
</a>
</g>
</g>
<!-- Node1&#45;&gt;Node15 -->
<g id="edge14_Node000001_Node000015" class="edge">
<title>Node1&#45;&gt;Node15</title>
<g id="a_edge14_Node000001_Node000015"><a xlink:title=" ">
<path fill="none" stroke="#63b8ff" d="M1377.11,-197.86C1492.25,-192.03 1720.63,-176.59 1911,-140 1918.87,-138.49 1927.06,-136.58 1935.12,-134.51"/>
<polygon fill="#63b8ff" stroke="#63b8ff" points="1376.82,-194.37 1367,-198.37 1377.17,-201.36 1376.82,-194.37"/>
</a>
</g>
</g>
<!-- Node16 -->
<g id="Node000016" class="node">
<title>Node16</title>
<g id="a_Node000016"><a xlink:href="adrv902x_2src_2examples_2basic__example_2basic__example_8c.html" target="_top" xlink:title="Basic example for the adrv902x project.">
<polygon fill="white" stroke="#666666" points="2255.5,-140 2094.5,-140 2094.5,-88 2255.5,-88 2255.5,-140"/>
<text text-anchor="start" x="2102.5" y="-128" font-family="Helvetica,sans-Serif" font-size="10.00">/home/runner/work/no</text>
<text text-anchor="start" x="2102.5" y="-117" font-family="Helvetica,sans-Serif" font-size="10.00">&#45;OS/no&#45;OS/projects/adrv902x</text>
<text text-anchor="start" x="2102.5" y="-106" font-family="Helvetica,sans-Serif" font-size="10.00">/src/examples/basic_example</text>
<text text-anchor="middle" x="2175" y="-95" font-family="Helvetica,sans-Serif" font-size="10.00">/basic_example.c</text>
</a>
</g>
</g>
<!-- Node1&#45;&gt;Node16 -->
<g id="edge15_Node000001_Node000016" class="edge">
<title>Node1&#45;&gt;Node16</title>
<g id="a_edge15_Node000001_Node000016"><a xlink:title=" ">
<path fill="none" stroke="#63b8ff" d="M1377.4,-200.05C1517.25,-197.18 1828.48,-185.74 2086,-140 2088.69,-139.52 2091.41,-139 2094.15,-138.44"/>
<polygon fill="#63b8ff" stroke="#63b8ff" points="1377.15,-196.55 1367.22,-200.24 1377.29,-203.55 1377.15,-196.55"/>
</a>
</g>
</g>
<!-- Node17 -->
<g id="Node000017" class="node">
<title>Node17</title>
<g id="a_Node000017"><a xlink:href="dma__example_8c.html" target="_top" xlink:title="DMA example for the adrv902x project.">
<polygon fill="white" stroke="#666666" points="2432,-140 2274,-140 2274,-88 2432,-88 2432,-140"/>
<text text-anchor="start" x="2282" y="-128" font-family="Helvetica,sans-Serif" font-size="10.00">/home/runner/work/no</text>
<text text-anchor="start" x="2282" y="-117" font-family="Helvetica,sans-Serif" font-size="10.00">&#45;OS/no&#45;OS/projects/adrv902x</text>
<text text-anchor="start" x="2282" y="-106" font-family="Helvetica,sans-Serif" font-size="10.00">/src/examples/dma_example</text>
<text text-anchor="middle" x="2353" y="-95" font-family="Helvetica,sans-Serif" font-size="10.00">/dma_example.c</text>
</a>
</g>
</g>
<!-- Node1&#45;&gt;Node17 -->
<g id="edge16_Node000001_Node000017" class="edge">
<title>Node1&#45;&gt;Node17</title>
<g id="a_edge16_Node000001_Node000017"><a xlink:title=" ">
<path fill="none" stroke="#63b8ff" d="M1377.5,-201.66C1539.97,-201.92 1937.78,-196.19 2265,-140 2267.82,-139.52 2270.67,-138.98 2273.55,-138.39"/>
<polygon fill="#63b8ff" stroke="#63b8ff" points="1377.16,-198.16 1367.15,-201.63 1377.14,-205.16 1377.16,-198.16"/>
</a>
</g>
</g>
<!-- Node18 -->
<g id="Node000018" class="node">
<title>Node18</title>
<g id="a_Node000018"><a xlink:href="fmcdaq2_8c.html" target="_top" xlink:title="Implementation of Main Function.">
<polygon fill="white" stroke="#666666" points="2604,-134.5 2450,-134.5 2450,-93.5 2604,-93.5 2604,-134.5"/>
<text text-anchor="start" x="2458" y="-122.5" font-family="Helvetica,sans-Serif" font-size="10.00">/home/runner/work/no</text>
<text text-anchor="start" x="2458" y="-111.5" font-family="Helvetica,sans-Serif" font-size="10.00">&#45;OS/no&#45;OS/projects/fmcdaq2</text>
<text text-anchor="middle" x="2527" y="-100.5" font-family="Helvetica,sans-Serif" font-size="10.00">/src/app/fmcdaq2.c</text>
</a>
</g>
</g>
<!-- Node1&#45;&gt;Node18 -->
<g id="edge18_Node000001_Node000018" class="edge">
<title>Node1&#45;&gt;Node18</title>
<g id="a_edge18_Node000001_Node000018"><a xlink:title=" ">
<path fill="none" stroke="#63b8ff" d="M1377.35,-199.24C1596.16,-193.71 2235.31,-174.93 2441,-140 2449.28,-138.59 2457.89,-136.67 2466.33,-134.51"/>
<polygon fill="#63b8ff" stroke="#63b8ff" points="1377.17,-195.74 1367.26,-199.49 1377.34,-202.74 1377.17,-195.74"/>
</a>
</g>
</g>
<!-- Node19 -->
<g id="Node000019" class="node">
<title>Node19</title>
<g id="a_Node000019"><a xlink:href="fmcdaq3_8c.html" target="_top" xlink:title="Implementation of Main Function.">
<polygon fill="white" stroke="#666666" points="2776,-134.5 2622,-134.5 2622,-93.5 2776,-93.5 2776,-134.5"/>
<text text-anchor="start" x="2630" y="-122.5" font-family="Helvetica,sans-Serif" font-size="10.00">/home/runner/work/no</text>
<text text-anchor="start" x="2630" y="-111.5" font-family="Helvetica,sans-Serif" font-size="10.00">&#45;OS/no&#45;OS/projects/fmcdaq3</text>
<text text-anchor="middle" x="2699" y="-100.5" font-family="Helvetica,sans-Serif" font-size="10.00">/src/app/fmcdaq3.c</text>
</a>
</g>
</g>
<!-- Node1&#45;&gt;Node19 -->
<g id="edge19_Node000001_Node000019" class="edge">
<title>Node1&#45;&gt;Node19</title>
<g id="a_edge19_Node000001_Node000019"><a xlink:title=" ">
<path fill="none" stroke="#63b8ff" d="M1377.22,-199.85C1617.5,-195.76 2372.49,-179.98 2613,-140 2621.28,-138.62 2629.9,-136.71 2638.34,-134.56"/>
<polygon fill="#63b8ff" stroke="#63b8ff" points="1377.13,-196.35 1367.19,-200.02 1377.25,-203.35 1377.13,-196.35"/>
</a>
</g>
</g>
<!-- Node4 -->
<g id="Node000004" class="node">
<title>Node4</title>
<g id="a_Node000004"><a xlink:href="iio__axi__dac_8c.html" target="_top" xlink:title="Implementation of iio_axi_dac. Instantiates iio_axi_adc and iio_axi_dac devices, for reading/writing ...">
<polygon fill="white" stroke="#666666" points="201,-52 77,-52 77,0 201,0 201,-52"/>
<text text-anchor="start" x="85" y="-40" font-family="Helvetica,sans-Serif" font-size="10.00">/home/runner/work/no</text>
<text text-anchor="start" x="85" y="-29" font-family="Helvetica,sans-Serif" font-size="10.00">&#45;OS/no&#45;OS/drivers/axi</text>
<text text-anchor="start" x="85" y="-18" font-family="Helvetica,sans-Serif" font-size="10.00">_core/iio_axi_dac/iio</text>
<text text-anchor="middle" x="139" y="-7" font-family="Helvetica,sans-Serif" font-size="10.00">_axi_dac.c</text>
</a>
</g>
</g>
<!-- Node3&#45;&gt;Node4 -->
<g id="edge3_Node000003_Node000004" class="edge">
<title>Node3&#45;&gt;Node4</title>
<g id="a_edge3_Node000003_Node000004"><a xlink:title=" ">
<path fill="none" stroke="#63b8ff" d="M181.36,-79.8C173.99,-70.61 166.12,-60.8 159.18,-52.16"/>
<polygon fill="#63b8ff" stroke="#63b8ff" points="178.68,-82.05 187.67,-87.66 184.14,-77.67 178.68,-82.05"/>
</a>
</g>
</g>
<!-- Node3&#45;&gt;Node5 -->
<g id="edge4_Node000003_Node000005" class="edge">
<title>Node3&#45;&gt;Node5</title>
<g id="a_edge4_Node000003_Node000005"><a xlink:title=" ">
<path fill="none" stroke="#63b8ff" d="M241.87,-80.63C251.73,-71.21 262.35,-61.06 271.67,-52.16"/>
<polygon fill="#63b8ff" stroke="#63b8ff" points="239.33,-78.22 234.52,-87.66 244.16,-83.28 239.33,-78.22"/>
</a>
</g>
</g>
</g>
</svg>
