<?xml version="1.0" encoding="UTF-8" standalone="no"?>
<!DOCTYPE svg PUBLIC "-//W3C//DTD SVG 1.1//EN"
 "http://www.w3.org/Graphics/SVG/1.1/DTD/svg11.dtd">
<!-- Generated by graphviz version 2.43.0 (0)
 -->
<!-- Title: axi_dac_write Pages: 1 -->
<svg width="1122pt" height="494pt"
 viewBox="0.00 0.00 1122.00 493.50" xmlns="http://www.w3.org/2000/svg" xmlns:xlink="http://www.w3.org/1999/xlink">
<g id="graph0" class="graph" transform="scale(1 1) rotate(0) translate(4 489.5)">
<title>axi_dac_write</title>
<!-- Node1 -->
<g id="Node000001" class="node">
<title>Node1</title>
<g id="a_Node000001"><a xlink:title="AXI DAC Data Write.">
<polygon fill="#999999" stroke="#666666" points="1114,-296.5 1030,-296.5 1030,-277.5 1114,-277.5 1114,-296.5"/>
<text text-anchor="middle" x="1072" y="-284.5" font-family="Helvetica,sans-Serif" font-size="10.00">axi_dac_write</text>
</a>
</g>
</g>
<!-- Node2 -->
<g id="Node000002" class="node">
<title>Node2</title>
<g id="a_Node000002"><a xlink:href="axi__dac__core_8c.html#ad2e10485918e87d7d2c6f6a72c971544" target="_top" xlink:title="AXI DAC Data Setup.">
<polygon fill="white" stroke="#666666" points="800,-429.5 687,-429.5 687,-410.5 800,-410.5 800,-429.5"/>
<text text-anchor="middle" x="743.5" y="-417.5" font-family="Helvetica,sans-Serif" font-size="10.00">axi_dac_data_setup</text>
</a>
</g>
</g>
<!-- Node1&#45;&gt;Node2 -->
<g id="edge1_Node000001_Node000002" class="edge">
<title>Node1&#45;&gt;Node2</title>
<g id="a_edge1_Node000001_Node000002"><a xlink:title=" ">
<path fill="none" stroke="#63b8ff" d="M1066.18,-306.32C1057.51,-336.45 1036.12,-393.68 994,-418 925.92,-457.32 828.96,-441.89 778.29,-429.58"/>
<polygon fill="#63b8ff" stroke="#63b8ff" points="1069.59,-307.13 1068.81,-296.56 1062.83,-305.3 1069.59,-307.13"/>
</a>
</g>
</g>
<!-- Node3 -->
<g id="Node000003" class="node">
<title>Node3</title>
<g id="a_Node000003"><a xlink:href="axi__dac__core_8c.html#a88b7d1d48e908b038ef3faea467aaa0c" target="_top" xlink:title="AXI DAC Main Initialization.">
<polygon fill="white" stroke="#666666" points="622.5,-315.5 547.5,-315.5 547.5,-296.5 622.5,-296.5 622.5,-315.5"/>
<text text-anchor="middle" x="585" y="-303.5" font-family="Helvetica,sans-Serif" font-size="10.00">axi_dac_init</text>
</a>
</g>
</g>
<!-- Node1&#45;&gt;Node3 -->
<g id="edge27_Node000001_Node000003" class="edge">
<title>Node1&#45;&gt;Node3</title>
<g id="a_edge27_Node000001_Node000003"><a xlink:title=" ">
<path fill="none" stroke="#63b8ff" d="M1025.21,-298.89C1014.99,-301.21 1004.17,-303.41 994,-305 856.39,-326.45 819.9,-330.18 681,-320 661.71,-318.59 640.4,-315.58 622.86,-312.71"/>
<polygon fill="#63b8ff" stroke="#63b8ff" points="1026.25,-302.24 1035.18,-296.55 1024.64,-295.43 1026.25,-302.24"/>
</a>
</g>
</g>
<!-- Node15 -->
<g id="Node000015" class="node">
<title>Node15</title>
<g id="a_Node000015"><a xlink:href="axi__dac__core_8c.html#a6a695a527794ce81ff7e3872b4bdfbcd" target="_top" xlink:title="AXI DAC Get DDS frequency for specific channel.">
<polygon fill="white" stroke="#666666" points="994,-222.5 842,-222.5 842,-203.5 994,-203.5 994,-222.5"/>
<text text-anchor="middle" x="918" y="-210.5" font-family="Helvetica,sans-Serif" font-size="10.00">axi_dac_dds_get_frequency</text>
</a>
</g>
</g>
<!-- Node1&#45;&gt;Node15 -->
<g id="edge15_Node000001_Node000015" class="edge">
<title>Node1&#45;&gt;Node15</title>
<g id="a_edge15_Node000001_Node000015"><a xlink:title=" ">
<path fill="none" stroke="#63b8ff" d="M1052.54,-270.32C1037.71,-257.78 1015.83,-241.07 994,-231 986.7,-227.63 978.71,-224.86 970.74,-222.58"/>
<polygon fill="#63b8ff" stroke="#63b8ff" points="1050.55,-273.24 1060.4,-277.15 1055.14,-267.95 1050.55,-273.24"/>
</a>
</g>
</g>
<!-- Node16 -->
<g id="Node000016" class="node">
<title>Node16</title>
<g id="a_Node000016"><a xlink:href="axi__dac__core_8c.html#a99ead95ff87dbf47e260a69de786fa7d" target="_top" xlink:title="AXI DAC Get DDS phase for specific channel.">
<polygon fill="white" stroke="#666666" points="984,-185.5 852,-185.5 852,-166.5 984,-166.5 984,-185.5"/>
<text text-anchor="middle" x="918" y="-173.5" font-family="Helvetica,sans-Serif" font-size="10.00">axi_dac_dds_get_phase</text>
</a>
</g>
</g>
<!-- Node1&#45;&gt;Node16 -->
<g id="edge16_Node000001_Node000016" class="edge">
<title>Node1&#45;&gt;Node16</title>
<g id="a_edge16_Node000001_Node000016"><a xlink:title=" ">
<path fill="none" stroke="#63b8ff" d="M1060.8,-268.61C1048.02,-247.31 1024.08,-212.75 994,-194 988.55,-190.6 982.5,-187.84 976.28,-185.61"/>
<polygon fill="#63b8ff" stroke="#63b8ff" points="1057.83,-270.46 1065.88,-277.36 1063.89,-266.95 1057.83,-270.46"/>
</a>
</g>
</g>
<!-- Node17 -->
<g id="Node000017" class="node">
<title>Node17</title>
<g id="a_Node000017"><a xlink:href="axi__dac__core_8c.html#a3055c85d631da576ffe7ba92ba3b99b6" target="_top" xlink:title="AXI DAC Get DDS scale for specific channel.">
<polygon fill="white" stroke="#666666" points="982,-148.5 854,-148.5 854,-129.5 982,-129.5 982,-148.5"/>
<text text-anchor="middle" x="918" y="-136.5" font-family="Helvetica,sans-Serif" font-size="10.00">axi_dac_dds_get_scale</text>
</a>
</g>
</g>
<!-- Node1&#45;&gt;Node17 -->
<g id="edge17_Node000001_Node000017" class="edge">
<title>Node1&#45;&gt;Node17</title>
<g id="a_edge17_Node000001_Node000017"><a xlink:title=" ">
<path fill="none" stroke="#63b8ff" d="M1065.01,-267.69C1055.07,-238.96 1032.37,-185.31 994,-157 989.37,-153.58 984.17,-150.8 978.74,-148.55"/>
<polygon fill="#63b8ff" stroke="#63b8ff" points="1061.75,-268.98 1068.2,-277.38 1068.4,-266.79 1061.75,-268.98"/>
</a>
</g>
</g>
<!-- Node18 -->
<g id="Node000018" class="node">
<title>Node18</title>
<g id="a_Node000018"><a xlink:href="axi__dac__core_8c.html#a76745c5fbac79bf4d5e1ae6fda96dacf" target="_top" xlink:title="Calibrate phase scale for specific AXI DAC channel.">
<polygon fill="white" stroke="#666666" points="980.5,-78 855.5,-78 855.5,-48 980.5,-48 980.5,-78"/>
<text text-anchor="start" x="863.5" y="-66" font-family="Helvetica,sans-Serif" font-size="10.00">axi_dac_dds_set_calib</text>
<text text-anchor="middle" x="918" y="-55" font-family="Helvetica,sans-Serif" font-size="10.00">_phase_scale</text>
</a>
</g>
</g>
<!-- Node1&#45;&gt;Node18 -->
<g id="edge18_Node000001_Node000018" class="edge">
<title>Node1&#45;&gt;Node18</title>
<g id="a_edge18_Node000001_Node000018"><a xlink:title=" ">
<path fill="none" stroke="#63b8ff" d="M1065.51,-267.7C1055.43,-234.76 1031.53,-166.75 994,-120 980.38,-103.04 960.67,-88.32 944.87,-78.08"/>
<polygon fill="#63b8ff" stroke="#63b8ff" points="1062.19,-268.85 1068.39,-277.44 1068.91,-266.86 1062.19,-268.85"/>
</a>
</g>
</g>
<!-- Node21 -->
<g id="Node000021" class="node">
<title>Node21</title>
<g id="a_Node000021"><a xlink:href="axi__dac__core_8c.html#ad7909af351f85cf17569c5bb8af29095" target="_top" xlink:title="AXI DAC Set DDS frequency for specific channel.">
<polygon fill="white" stroke="#666666" points="993.5,-409.5 842.5,-409.5 842.5,-390.5 993.5,-390.5 993.5,-409.5"/>
<text text-anchor="middle" x="918" y="-397.5" font-family="Helvetica,sans-Serif" font-size="10.00">axi_dac_dds_set_frequency</text>
</a>
</g>
</g>
<!-- Node1&#45;&gt;Node21 -->
<g id="edge21_Node000001_Node000021" class="edge">
<title>Node1&#45;&gt;Node21</title>
<g id="a_edge21_Node000001_Node000021"><a xlink:title=" ">
<path fill="none" stroke="#63b8ff" d="M1060.81,-305.52C1048.04,-326.99 1024.1,-361.86 994,-381 987.88,-384.89 981,-387.99 973.96,-390.45"/>
<polygon fill="#63b8ff" stroke="#63b8ff" points="1063.93,-307.12 1065.88,-296.71 1057.86,-303.63 1063.93,-307.12"/>
</a>
</g>
</g>
<!-- Node22 -->
<g id="Node000022" class="node">
<title>Node22</title>
<g id="a_Node000022"><a xlink:href="axi__dac__core_8c.html#aac5b9f0acb2160c1bd2a6bdc23e252f7" target="_top" xlink:title="AXI DAC Set DDS phase for specific channel.">
<polygon fill="white" stroke="#666666" points="983.5,-372.5 852.5,-372.5 852.5,-353.5 983.5,-353.5 983.5,-372.5"/>
<text text-anchor="middle" x="918" y="-360.5" font-family="Helvetica,sans-Serif" font-size="10.00">axi_dac_dds_set_phase</text>
</a>
</g>
</g>
<!-- Node1&#45;&gt;Node22 -->
<g id="edge23_Node000001_Node000022" class="edge">
<title>Node1&#45;&gt;Node22</title>
<g id="a_edge23_Node000001_Node000022"><a xlink:title=" ">
<path fill="none" stroke="#63b8ff" d="M1051.09,-302.78C1036.08,-314.07 1014.62,-328.99 994,-339 982.07,-344.79 968.41,-349.64 956.05,-353.43"/>
<polygon fill="#63b8ff" stroke="#63b8ff" points="1053.32,-305.47 1059.12,-296.61 1049.06,-299.92 1053.32,-305.47"/>
</a>
</g>
</g>
<!-- Node23 -->
<g id="Node000023" class="node">
<title>Node23</title>
<g id="a_Node000023"><a xlink:href="axi__dac__core_8c.html#ada770f78e6c5cd0f59c55a5c4ab17d61" target="_top" xlink:title="AXI DAC Set DDS scale for specific channel.">
<polygon fill="white" stroke="#666666" points="982,-485.5 854,-485.5 854,-466.5 982,-466.5 982,-485.5"/>
<text text-anchor="middle" x="918" y="-473.5" font-family="Helvetica,sans-Serif" font-size="10.00">axi_dac_dds_set_scale</text>
</a>
</g>
</g>
<!-- Node1&#45;&gt;Node23 -->
<g id="edge25_Node000001_Node000023" class="edge">
<title>Node1&#45;&gt;Node23</title>
<g id="a_edge25_Node000001_Node000023"><a xlink:title=" ">
<path fill="none" stroke="#63b8ff" d="M1067.21,-306.61C1059.55,-341.03 1038.96,-412.41 994,-452 986.82,-458.32 977.96,-462.98 968.87,-466.42"/>
<polygon fill="#63b8ff" stroke="#63b8ff" points="1070.64,-307.32 1069.26,-296.82 1063.79,-305.89 1070.64,-307.32"/>
</a>
</g>
</g>
<!-- Node24 -->
<g id="Node000024" class="node">
<title>Node24</title>
<g id="a_Node000024"><a xlink:href="axi__dac__core_8c.html#abd2fd8255a3a77a7ab737e4ac048f337" target="_top" xlink:title="AXI DAC Load custom data.">
<polygon fill="white" stroke="#666666" points="992.5,-259.5 843.5,-259.5 843.5,-240.5 992.5,-240.5 992.5,-259.5"/>
<text text-anchor="middle" x="918" y="-247.5" font-family="Helvetica,sans-Serif" font-size="10.00">axi_dac_load_custom_data</text>
</a>
</g>
</g>
<!-- Node1&#45;&gt;Node24 -->
<g id="edge28_Node000001_Node000024" class="edge">
<title>Node1&#45;&gt;Node24</title>
<g id="a_edge28_Node000001_Node000024"><a xlink:title=" ">
<path fill="none" stroke="#63b8ff" d="M1022.86,-275.07C1013.3,-272.72 1003.33,-270.27 994,-268 982.68,-265.25 970.39,-262.28 959.1,-259.57"/>
<polygon fill="#63b8ff" stroke="#63b8ff" points="1022.08,-278.48 1032.63,-277.48 1023.76,-271.69 1022.08,-278.48"/>
</a>
</g>
</g>
<!-- Node27 -->
<g id="Node000027" class="node">
<title>Node27</title>
<g id="a_Node000027"><a xlink:href="axi__dac__core_8c.html#a7360018a633493f6b484f4998987850a" target="_top" xlink:title="AXI DAC Set Data type for specific channel.">
<polygon fill="white" stroke="#666666" points="976,-296.5 860,-296.5 860,-277.5 976,-277.5 976,-296.5"/>
<text text-anchor="middle" x="918" y="-284.5" font-family="Helvetica,sans-Serif" font-size="10.00">axi_dac_set_datasel</text>
</a>
</g>
</g>
<!-- Node1&#45;&gt;Node27 -->
<g id="edge32_Node000001_Node000027" class="edge">
<title>Node1&#45;&gt;Node27</title>
<g id="a_edge32_Node000001_Node000027"><a xlink:title=" ">
<path fill="none" stroke="#63b8ff" d="M1019.48,-287C1005.54,-287 990.37,-287 976.14,-287"/>
<polygon fill="#63b8ff" stroke="#63b8ff" points="1019.87,-290.5 1029.87,-287 1019.87,-283.5 1019.87,-290.5"/>
</a>
</g>
</g>
<!-- Node2&#45;&gt;Node3 -->
<g id="edge2_Node000002_Node000003" class="edge">
<title>Node2&#45;&gt;Node3</title>
<g id="a_edge2_Node000002_Node000003"><a xlink:title=" ">
<path fill="none" stroke="#63b8ff" d="M701.71,-406.66C694.57,-403.61 687.39,-400.05 681,-396 671.31,-389.85 617.76,-337.37 595.6,-315.5"/>
<polygon fill="#63b8ff" stroke="#63b8ff" points="700.76,-410.05 711.35,-410.5 703.35,-403.55 700.76,-410.05"/>
</a>
</g>
</g>
<!-- Node12 -->
<g id="Node000012" class="node">
<title>Node12</title>
<g id="a_Node000012"><a xlink:href="adrv902x_2src_2examples_2basic__example_2basic__example_8c.html#ac5f0064cb4ac7ddab3ec02b10217b456" target="_top" xlink:title="Basic example main execution.">
<polygon fill="white" stroke="#666666" points="645,-466.5 525,-466.5 525,-447.5 645,-447.5 645,-466.5"/>
<text text-anchor="middle" x="585" y="-454.5" font-family="Helvetica,sans-Serif" font-size="10.00">basic_example_main</text>
</a>
</g>
</g>
<!-- Node2&#45;&gt;Node12 -->
<g id="edge12_Node000002_Node000012" class="edge">
<title>Node2&#45;&gt;Node12</title>
<g id="a_edge12_Node000002_Node000012"><a xlink:title=" ">
<path fill="none" stroke="#63b8ff" d="M692.35,-431.86C671.05,-436.89 646.55,-442.68 626.44,-447.44"/>
<polygon fill="#63b8ff" stroke="#63b8ff" points="693.27,-435.24 702.2,-429.53 691.66,-428.42 693.27,-435.24"/>
</a>
</g>
</g>
<!-- Node13 -->
<g id="Node000013" class="node">
<title>Node13</title>
<g id="a_Node000013"><a xlink:href="adrv902x_2src_2examples_2iio__example_2iio__example_8c.html#a692b15b864d48091dc3d7095bea120b4" target="_top" xlink:title="IIO example main execution.">
<polygon fill="white" stroke="#666666" points="638.5,-429.5 531.5,-429.5 531.5,-410.5 638.5,-410.5 638.5,-429.5"/>
<text text-anchor="middle" x="585" y="-417.5" font-family="Helvetica,sans-Serif" font-size="10.00">iio_example_main</text>
</a>
</g>
</g>
<!-- Node2&#45;&gt;Node13 -->
<g id="edge13_Node000002_Node000013" class="edge">
<title>Node2&#45;&gt;Node13</title>
<g id="a_edge13_Node000002_Node000013"><a xlink:title=" ">
<path fill="none" stroke="#63b8ff" d="M676.78,-420C664.03,-420 650.82,-420 638.56,-420"/>
<polygon fill="#63b8ff" stroke="#63b8ff" points="676.88,-423.5 686.88,-420 676.88,-416.5 676.88,-423.5"/>
</a>
</g>
</g>
<!-- Node14 -->
<g id="Node000014" class="node">
<title>Node14</title>
<g id="a_Node000014"><a xlink:href="headless__mb_8c.html#a840291bc02cba5474a4cb46a9b9566fe" target="_top" xlink:title=" ">
<polygon fill="white" stroke="#666666" points="605.5,-392.5 564.5,-392.5 564.5,-373.5 605.5,-373.5 605.5,-392.5"/>
<text text-anchor="middle" x="585" y="-380.5" font-family="Helvetica,sans-Serif" font-size="10.00">main</text>
</a>
</g>
</g>
<!-- Node2&#45;&gt;Node14 -->
<g id="edge14_Node000002_Node000014" class="edge">
<title>Node2&#45;&gt;Node14</title>
<g id="a_edge14_Node000002_Node000014"><a xlink:title=" ">
<path fill="none" stroke="#63b8ff" d="M692.47,-408.17C662.99,-401.2 627.34,-392.77 605.68,-387.65"/>
<polygon fill="#63b8ff" stroke="#63b8ff" points="691.66,-411.58 702.2,-410.47 693.27,-404.76 691.66,-411.58"/>
</a>
</g>
</g>
<!-- Node4 -->
<g id="Node000004" class="node">
<title>Node4</title>
<g id="a_Node000004"><a xlink:href="ad3552r_8c.html#a99b8d9b1903e38e171e19132336af7fb" target="_top" xlink:title=" ">
<polygon fill="white" stroke="#666666" points="478,-277.5 380,-277.5 380,-258.5 478,-258.5 478,-277.5"/>
<text text-anchor="middle" x="429" y="-265.5" font-family="Helvetica,sans-Serif" font-size="10.00">ad3552r_axi_init</text>
</a>
</g>
</g>
<!-- Node3&#45;&gt;Node4 -->
<g id="edge3_Node000003_Node000004" class="edge">
<title>Node3&#45;&gt;Node4</title>
<g id="a_edge3_Node000003_Node000004"><a xlink:title=" ">
<path fill="none" stroke="#63b8ff" d="M537.34,-294.49C515.41,-289.08 489.57,-282.7 468.73,-277.56"/>
<polygon fill="#63b8ff" stroke="#63b8ff" points="536.57,-297.9 547.11,-296.9 538.24,-291.1 536.57,-297.9"/>
</a>
</g>
</g>
<!-- Node8 -->
<g id="Node000008" class="node">
<title>Node8</title>
<g id="a_Node000008"><a xlink:href="adrv904x_2src_2examples_2basic__example_2basic__example_8c.html#ac5f0064cb4ac7ddab3ec02b10217b456" target="_top" xlink:title="Basic example main execution.">
<polygon fill="white" stroke="#666666" points="489,-215.5 369,-215.5 369,-196.5 489,-196.5 489,-215.5"/>
<text text-anchor="middle" x="429" y="-203.5" font-family="Helvetica,sans-Serif" font-size="10.00">basic_example_main</text>
</a>
</g>
</g>
<!-- Node3&#45;&gt;Node8 -->
<g id="edge8_Node000003_Node000008" class="edge">
<title>Node3&#45;&gt;Node8</title>
<g id="a_edge8_Node000003_Node000008"><a xlink:title=" ">
<path fill="none" stroke="#63b8ff" d="M560.5,-290.74C528.41,-269.9 471.8,-233.15 444.95,-215.71"/>
<polygon fill="#63b8ff" stroke="#63b8ff" points="558.94,-293.9 569.23,-296.41 562.75,-288.03 558.94,-293.9"/>
</a>
</g>
</g>
<!-- Node9 -->
<g id="Node000009" class="node">
<title>Node9</title>
<g id="a_Node000009"><a xlink:href="adrv904x_2src_2examples_2dma__example_2dma__example_8c.html#a6fab3c4f8551a0a277a9058ddb0f1914" target="_top" xlink:title="DMA example main execution.">
<polygon fill="white" stroke="#666666" points="487,-315.5 371,-315.5 371,-296.5 487,-296.5 487,-315.5"/>
<text text-anchor="middle" x="429" y="-303.5" font-family="Helvetica,sans-Serif" font-size="10.00">dma_example_main</text>
</a>
</g>
</g>
<!-- Node3&#45;&gt;Node9 -->
<g id="edge9_Node000003_Node000009" class="edge">
<title>Node3&#45;&gt;Node9</title>
<g id="a_edge9_Node000003_Node000009"><a xlink:title=" ">
<path fill="none" stroke="#63b8ff" d="M537.07,-306C521.29,-306 503.51,-306 487.04,-306"/>
<polygon fill="#63b8ff" stroke="#63b8ff" points="537.11,-309.5 547.11,-306 537.11,-302.5 537.11,-309.5"/>
</a>
</g>
</g>
<!-- Node10 -->
<g id="Node000010" class="node">
<title>Node10</title>
<g id="a_Node000010"><a xlink:href="adrv904x_2src_2examples_2iio__example_2iio__example_8c.html#a692b15b864d48091dc3d7095bea120b4" target="_top" xlink:title="IIO example main execution.">
<polygon fill="white" stroke="#666666" points="482.5,-352.5 375.5,-352.5 375.5,-333.5 482.5,-333.5 482.5,-352.5"/>
<text text-anchor="middle" x="429" y="-340.5" font-family="Helvetica,sans-Serif" font-size="10.00">iio_example_main</text>
</a>
</g>
</g>
<!-- Node3&#45;&gt;Node10 -->
<g id="edge10_Node000003_Node000010" class="edge">
<title>Node3&#45;&gt;Node10</title>
<g id="a_edge10_Node000003_Node000010"><a xlink:title=" ">
<path fill="none" stroke="#63b8ff" d="M537.16,-317.25C515.55,-322.44 490.18,-328.54 469.55,-333.5"/>
<polygon fill="#63b8ff" stroke="#63b8ff" points="538.21,-320.6 547.11,-314.86 536.57,-313.8 538.21,-320.6"/>
</a>
</g>
</g>
<!-- Node11 -->
<g id="Node000011" class="node">
<title>Node11</title>
<g id="a_Node000011"><a xlink:href="ad9371_2src_2app_2headless_8c.html#a840291bc02cba5474a4cb46a9b9566fe" target="_top" xlink:title="main">
<polygon fill="white" stroke="#666666" points="449.5,-159.5 408.5,-159.5 408.5,-140.5 449.5,-140.5 449.5,-159.5"/>
<text text-anchor="middle" x="429" y="-147.5" font-family="Helvetica,sans-Serif" font-size="10.00">main</text>
</a>
</g>
</g>
<!-- Node3&#45;&gt;Node11 -->
<g id="edge11_Node000003_Node000011" class="edge">
<title>Node3&#45;&gt;Node11</title>
<g id="a_edge11_Node000003_Node000011"><a xlink:title=" ">
<path fill="none" stroke="#63b8ff" d="M572.51,-288.04C556.09,-263.29 523.98,-218.22 489,-187 476.73,-176.05 460.85,-166.29 448.65,-159.55"/>
<polygon fill="#63b8ff" stroke="#63b8ff" points="569.61,-290 578.01,-296.46 575.47,-286.18 569.61,-290"/>
</a>
</g>
</g>
<!-- Node5 -->
<g id="Node000005" class="node">
<title>Node5</title>
<g id="a_Node000005"><a xlink:href="ad3552r_8c.html#ae80ba21fae1f11883703b87a0bb676e2" target="_top" xlink:title=" ">
<polygon fill="white" stroke="#666666" points="333,-277.5 256,-277.5 256,-258.5 333,-258.5 333,-277.5"/>
<text text-anchor="middle" x="294.5" y="-265.5" font-family="Helvetica,sans-Serif" font-size="10.00">ad3552r_init</text>
</a>
</g>
</g>
<!-- Node4&#45;&gt;Node5 -->
<g id="edge4_Node000004_Node000005" class="edge">
<title>Node4&#45;&gt;Node5</title>
<g id="a_edge4_Node000004_Node000005"><a xlink:title=" ">
<path fill="none" stroke="#63b8ff" d="M369.53,-268C357.16,-268 344.43,-268 333.08,-268"/>
<polygon fill="#63b8ff" stroke="#63b8ff" points="369.79,-271.5 379.79,-268 369.79,-264.5 369.79,-271.5"/>
</a>
</g>
</g>
<!-- Node6 -->
<g id="Node000006" class="node">
<title>Node6</title>
<g id="a_Node000006"><a xlink:href="axi__qspi__example_8c.html#ac25cbf8ae523e89cb0617e68c98bc697" target="_top" xlink:title="Basic example main execution.">
<polygon fill="white" stroke="#666666" points="89,-277.5 0,-277.5 0,-258.5 89,-258.5 89,-277.5"/>
<text text-anchor="middle" x="44.5" y="-265.5" font-family="Helvetica,sans-Serif" font-size="10.00">example_main</text>
</a>
</g>
</g>
<!-- Node5&#45;&gt;Node6 -->
<g id="edge5_Node000005_Node000006" class="edge">
<title>Node5&#45;&gt;Node6</title>
<g id="a_edge5_Node000005_Node000006"><a xlink:title=" ">
<path fill="none" stroke="#63b8ff" d="M245.7,-268C200.5,-268 133.25,-268 89.39,-268"/>
<polygon fill="#63b8ff" stroke="#63b8ff" points="245.83,-271.5 255.83,-268 245.83,-264.5 245.83,-271.5"/>
</a>
</g>
</g>
<!-- Node7 -->
<g id="Node000007" class="node">
<title>Node7</title>
<g id="a_Node000007"><a xlink:href="iio__ad3552r_8c.html#a690d5a4cec9b9316e0d635113c09e9d6" target="_top" xlink:title=" ">
<polygon fill="white" stroke="#666666" points="220,-258.5 125,-258.5 125,-239.5 220,-239.5 220,-258.5"/>
<text text-anchor="middle" x="172.5" y="-246.5" font-family="Helvetica,sans-Serif" font-size="10.00">iio_ad3552r_init</text>
</a>
</g>
</g>
<!-- Node5&#45;&gt;Node7 -->
<g id="edge6_Node000005_Node000007" class="edge">
<title>Node5&#45;&gt;Node7</title>
<g id="a_edge6_Node000005_Node000007"><a xlink:title=" ">
<path fill="none" stroke="#63b8ff" d="M245.82,-260.45C237.42,-259.12 228.68,-257.74 220.3,-256.41"/>
<polygon fill="#63b8ff" stroke="#63b8ff" points="245.44,-263.93 255.86,-262.04 246.53,-257.02 245.44,-263.93"/>
</a>
</g>
</g>
<!-- Node7&#45;&gt;Node6 -->
<g id="edge7_Node000007_Node000006" class="edge">
<title>Node7&#45;&gt;Node6</title>
<g id="a_edge7_Node000007_Node000006"><a xlink:title=" ">
<path fill="none" stroke="#63b8ff" d="M114.97,-257.52C106.38,-258.82 97.63,-260.14 89.36,-261.39"/>
<polygon fill="#63b8ff" stroke="#63b8ff" points="115.57,-260.97 124.94,-256.02 114.53,-254.05 115.57,-260.97"/>
</a>
</g>
</g>
<!-- Node19 -->
<g id="Node000019" class="node">
<title>Node19</title>
<g id="a_Node000019"><a xlink:href="axi__dac__core_8c.html#a21b69643186832e96542838f0a077637" target="_top" xlink:title="Calibrate phase for specific AXI DAC channel.">
<polygon fill="white" stroke="#666666" points="806,-30 681,-30 681,0 806,0 806,-30"/>
<text text-anchor="start" x="689" y="-18" font-family="Helvetica,sans-Serif" font-size="10.00">axi_dac_dds_set_calib</text>
<text text-anchor="middle" x="743.5" y="-7" font-family="Helvetica,sans-Serif" font-size="10.00">_phase</text>
</a>
</g>
</g>
<!-- Node18&#45;&gt;Node19 -->
<g id="edge19_Node000018_Node000019" class="edge">
<title>Node18&#45;&gt;Node19</title>
<g id="a_edge19_Node000018_Node000019"><a xlink:title=" ">
<path fill="none" stroke="#63b8ff" d="M853.07,-45.21C835.1,-40.21 815.74,-34.82 798.41,-30"/>
<polygon fill="#63b8ff" stroke="#63b8ff" points="852.32,-48.64 862.89,-47.94 854.2,-41.89 852.32,-48.64"/>
</a>
</g>
</g>
<!-- Node20 -->
<g id="Node000020" class="node">
<title>Node20</title>
<g id="a_Node000020"><a xlink:href="axi__dac__core_8c.html#a98dd0822ee22ede7d9fac21d0fac612c" target="_top" xlink:title="Calibrate scale for specific AXI DAC channel.">
<polygon fill="white" stroke="#666666" points="806,-78 681,-78 681,-48 806,-48 806,-78"/>
<text text-anchor="start" x="689" y="-66" font-family="Helvetica,sans-Serif" font-size="10.00">axi_dac_dds_set_calib</text>
<text text-anchor="middle" x="743.5" y="-55" font-family="Helvetica,sans-Serif" font-size="10.00">_scale</text>
</a>
</g>
</g>
<!-- Node18&#45;&gt;Node20 -->
<g id="edge20_Node000018_Node000020" class="edge">
<title>Node18&#45;&gt;Node20</title>
<g id="a_edge20_Node000018_Node000020"><a xlink:title=" ">
<path fill="none" stroke="#63b8ff" d="M844.98,-63C832.07,-63 818.73,-63 806.15,-63"/>
<polygon fill="#63b8ff" stroke="#63b8ff" points="845.21,-66.5 855.21,-63 845.21,-59.5 845.21,-66.5"/>
</a>
</g>
</g>
<!-- Node21&#45;&gt;Node2 -->
<g id="edge22_Node000021_Node000002" class="edge">
<title>Node21&#45;&gt;Node2</title>
<g id="a_edge22_Node000021_Node000002"><a xlink:title=" ">
<path fill="none" stroke="#63b8ff" d="M832.3,-409.82C821.34,-411.09 810.35,-412.37 800.03,-413.56"/>
<polygon fill="#63b8ff" stroke="#63b8ff" points="832.81,-413.28 842.34,-408.66 832.01,-406.33 832.81,-413.28"/>
</a>
</g>
</g>
<!-- Node22&#45;&gt;Node2 -->
<g id="edge24_Node000022_Node000002" class="edge">
<title>Node22&#45;&gt;Node2</title>
<g id="a_edge24_Node000022_Node000002"><a xlink:title=" ">
<path fill="none" stroke="#63b8ff" d="M862.26,-375.06C855.39,-376.89 848.5,-378.88 842,-381 825.52,-386.37 822.07,-389.52 806,-396 793.99,-400.85 780.6,-406.09 769.39,-410.44"/>
<polygon fill="#63b8ff" stroke="#63b8ff" points="863.44,-378.37 872.26,-372.5 861.7,-371.59 863.44,-378.37"/>
</a>
</g>
</g>
<!-- Node23&#45;&gt;Node2 -->
<g id="edge26_Node000023_Node000002" class="edge">
<title>Node23&#45;&gt;Node2</title>
<g id="a_edge26_Node000023_Node000002"><a xlink:title=" ">
<path fill="none" stroke="#63b8ff" d="M877.35,-463.37C865.93,-459.72 853.47,-455.72 842,-452 818.95,-444.53 792.87,-435.97 773.49,-429.58"/>
<polygon fill="#63b8ff" stroke="#63b8ff" points="876.47,-466.76 887.06,-466.47 878.6,-460.1 876.47,-466.76"/>
</a>
</g>
</g>
<!-- Node24&#45;&gt;Node11 -->
<g id="edge31_Node000024_Node000011" class="edge">
<title>Node24&#45;&gt;Node11</title>
<g id="a_edge31_Node000024_Node000011"><a xlink:title=" ">
<path fill="none" stroke="#63b8ff" d="M847.35,-235.31C845.48,-233.99 843.68,-232.56 842,-231 805.45,-197.24 846.44,-153.98 806,-125 693.26,-44.22 509.39,-114.38 449.51,-140.88"/>
<polygon fill="#63b8ff" stroke="#63b8ff" points="845.68,-238.38 856.08,-240.39 849.2,-232.33 845.68,-238.38"/>
</a>
</g>
</g>
<!-- Node25 -->
<g id="Node000025" class="node">
<title>Node25</title>
<g id="a_Node000025"><a xlink:href="adrv902x_2src_2examples_2dma__example_2dma__example_8c.html#a6fab3c4f8551a0a277a9058ddb0f1914" target="_top" xlink:title="DMA example main execution.">
<polygon fill="white" stroke="#666666" points="801.5,-153.5 685.5,-153.5 685.5,-134.5 801.5,-134.5 801.5,-153.5"/>
<text text-anchor="middle" x="743.5" y="-141.5" font-family="Helvetica,sans-Serif" font-size="10.00">dma_example_main</text>
</a>
</g>
</g>
<!-- Node24&#45;&gt;Node25 -->
<g id="edge29_Node000024_Node000025" class="edge">
<title>Node24&#45;&gt;Node25</title>
<g id="a_edge29_Node000024_Node000025"><a xlink:title=" ">
<path fill="none" stroke="#63b8ff" d="M849.91,-236.13C847.14,-234.59 844.49,-232.89 842,-231 816.32,-211.49 830.42,-189.07 806,-168 798.8,-161.79 789.8,-157.08 780.93,-153.55"/>
<polygon fill="#63b8ff" stroke="#63b8ff" points="848.55,-239.36 859.09,-240.48 851.55,-233.03 848.55,-239.36"/>
</a>
</g>
</g>
<!-- Node26 -->
<g id="Node000026" class="node">
<title>Node26</title>
<g id="a_Node000026"><a xlink:href="adrv902x_2src_2platform_2xilinx_2main_8c.html#ae66f6b31b5ad750f1fe042a706a4e3d4" target="_top" xlink:title="Main function execution for XILINX platform.">
<polygon fill="white" stroke="#666666" points="605.5,-153.5 564.5,-153.5 564.5,-134.5 605.5,-134.5 605.5,-153.5"/>
<text text-anchor="middle" x="585" y="-141.5" font-family="Helvetica,sans-Serif" font-size="10.00">main</text>
</a>
</g>
</g>
<!-- Node25&#45;&gt;Node26 -->
<g id="edge30_Node000025_Node000026" class="edge">
<title>Node25&#45;&gt;Node26</title>
<g id="a_edge30_Node000025_Node000026"><a xlink:title=" ">
<path fill="none" stroke="#63b8ff" d="M674.83,-144C649.69,-144 623.05,-144 605.58,-144"/>
<polygon fill="#63b8ff" stroke="#63b8ff" points="675.11,-147.5 685.11,-144 675.11,-140.5 675.11,-147.5"/>
</a>
</g>
</g>
<!-- Node27&#45;&gt;Node2 -->
<g id="edge34_Node000027_Node000002" class="edge">
<title>Node27&#45;&gt;Node2</title>
<g id="a_edge34_Node000027_Node000002"><a xlink:title=" ">
<path fill="none" stroke="#63b8ff" d="M896.08,-302.79C881,-314.2 860.2,-329.99 842,-344 811.22,-367.69 775.22,-395.88 756.78,-410.35"/>
<polygon fill="#63b8ff" stroke="#63b8ff" points="898.36,-305.46 904.22,-296.63 894.14,-299.87 898.36,-305.46"/>
</a>
</g>
</g>
<!-- Node27&#45;&gt;Node4 -->
<g id="edge33_Node000027_Node000004" class="edge">
<title>Node27&#45;&gt;Node4</title>
<g id="a_edge33_Node000027_Node000004"><a xlink:title=" ">
<path fill="none" stroke="#63b8ff" d="M849.65,-288.35C802.42,-288.97 737.83,-289.15 681,-287 610.25,-284.33 528.53,-277.43 478.06,-272.72"/>
<polygon fill="#63b8ff" stroke="#63b8ff" points="849.8,-291.85 859.75,-288.21 849.7,-284.85 849.8,-291.85"/>
</a>
</g>
</g>
<!-- Node27&#45;&gt;Node8 -->
<g id="edge35_Node000027_Node000008" class="edge">
<title>Node27&#45;&gt;Node8</title>
<g id="a_edge35_Node000027_Node000008"><a xlink:title=" ">
<path fill="none" stroke="#63b8ff" d="M850.47,-273.56C847.49,-271.91 844.65,-270.07 842,-268 815.36,-247.2 835.01,-218.35 806,-201 692.82,-133.33 524.15,-175.56 458.02,-196.39"/>
<polygon fill="#63b8ff" stroke="#63b8ff" points="849.21,-276.83 859.75,-277.92 852.19,-270.5 849.21,-276.83"/>
</a>
</g>
</g>
<!-- Node27&#45;&gt;Node10 -->
<g id="edge38_Node000027_Node000010" class="edge">
<title>Node27&#45;&gt;Node10</title>
<g id="a_edge38_Node000027_Node000010"><a xlink:title=" ">
<path fill="none" stroke="#63b8ff" d="M849.82,-297.03C794.84,-305.03 715,-316.15 645,-324 589.7,-330.2 526.21,-335.6 482.64,-339.04"/>
<polygon fill="#63b8ff" stroke="#63b8ff" points="850.4,-300.49 859.79,-295.58 849.39,-293.56 850.4,-300.49"/>
</a>
</g>
</g>
<!-- Node27&#45;&gt;Node25 -->
<g id="edge36_Node000027_Node000025" class="edge">
<title>Node27&#45;&gt;Node25</title>
<g id="a_edge36_Node000027_Node000025"><a xlink:title=" ">
<path fill="none" stroke="#63b8ff" d="M850.71,-274.4C847.6,-272.54 844.67,-270.42 842,-268 807.01,-236.26 838.96,-201.84 806,-168 799.84,-161.68 791.83,-156.99 783.62,-153.52"/>
<polygon fill="#63b8ff" stroke="#63b8ff" points="849.37,-277.64 859.88,-278.97 852.49,-271.38 849.37,-277.64"/>
</a>
</g>
</g>
<!-- Node28 -->
<g id="Node000028" class="node">
<title>Node28</title>
<g id="a_Node000028"><a xlink:href="iio__axi__dac_8c.html#ab94f7695cabc8c75070afd86f3e96780" target="_top" xlink:title="Update active channels.">
<polygon fill="white" stroke="#666666" points="800.5,-278 686.5,-278 686.5,-248 800.5,-248 800.5,-278"/>
<text text-anchor="start" x="694.5" y="-266" font-family="Helvetica,sans-Serif" font-size="10.00">iio_axi_dac_prepare</text>
<text text-anchor="middle" x="743.5" y="-255" font-family="Helvetica,sans-Serif" font-size="10.00">_transfer</text>
</a>
</g>
</g>
<!-- Node27&#45;&gt;Node28 -->
<g id="edge37_Node000027_Node000028" class="edge">
<title>Node27&#45;&gt;Node28</title>
<g id="a_edge37_Node000027_Node000028"><a xlink:title=" ">
<path fill="none" stroke="#63b8ff" d="M849.59,-277.62C833.35,-275.36 816.17,-272.97 800.52,-270.79"/>
<polygon fill="#63b8ff" stroke="#63b8ff" points="849.17,-281.1 859.56,-279.01 850.14,-274.16 849.17,-281.1"/>
</a>
</g>
</g>
<!-- Node29 -->
<g id="Node000029" class="node">
<title>Node29</title>
<g id="a_Node000029"><a xlink:href="headless__arm_8c.html#a840291bc02cba5474a4cb46a9b9566fe" target="_top" xlink:title=" ">
<polygon fill="white" stroke="#666666" points="764,-229.5 723,-229.5 723,-210.5 764,-210.5 764,-229.5"/>
<text text-anchor="middle" x="743.5" y="-217.5" font-family="Helvetica,sans-Serif" font-size="10.00">main</text>
</a>
</g>
</g>
<!-- Node27&#45;&gt;Node29 -->
<g id="edge39_Node000027_Node000029" class="edge">
<title>Node27&#45;&gt;Node29</title>
<g id="a_edge39_Node000027_Node000029"><a xlink:title=" ">
<path fill="none" stroke="#63b8ff" d="M856.79,-274.23C851.69,-272.41 846.69,-270.34 842,-268 823.62,-258.82 824.14,-248.65 806,-239 792.78,-231.97 776.55,-227.09 764.08,-224.04"/>
<polygon fill="#63b8ff" stroke="#63b8ff" points="856.11,-277.69 866.7,-277.45 858.27,-271.03 856.11,-277.69"/>
</a>
</g>
</g>
</g>
</svg>
