<?xml version="1.0" encoding="UTF-8" standalone="no"?>
<!DOCTYPE svg PUBLIC "-//W3C//DTD SVG 1.1//EN"
 "http://www.w3.org/Graphics/SVG/1.1/DTD/svg11.dtd">
<!-- Generated by graphviz version 2.43.0 (0)
 -->
<!-- Title: /home/runner/work/no&#45;OS/no&#45;OS/projects/cn0565/src/app/main.c Pages: 1 -->
<svg width="947pt" height="214pt"
 viewBox="0.00 0.00 946.82 214.00" xmlns="http://www.w3.org/2000/svg" xmlns:xlink="http://www.w3.org/1999/xlink">
<g id="graph0" class="graph" transform="scale(1 1) rotate(0) translate(4 210)">
<title>/home/runner/work/no&#45;OS/no&#45;OS/projects/cn0565/src/app/main.c</title>
<!-- Node1 -->
<g id="Node000001" class="node">
<title>Node1</title>
<g id="a_Node000001"><a xlink:title="EIT main.">
<polygon fill="#999999" stroke="#666666" points="616.82,-206 470.82,-206 470.82,-165 616.82,-165 616.82,-206"/>
<text text-anchor="start" x="478.82" y="-194" font-family="Helvetica,sans-Serif" font-size="10.00">/home/runner/work/no</text>
<text text-anchor="start" x="478.82" y="-183" font-family="Helvetica,sans-Serif" font-size="10.00">&#45;OS/no&#45;OS/projects/cn0565</text>
<text text-anchor="middle" x="543.82" y="-172" font-family="Helvetica,sans-Serif" font-size="10.00">/src/app/main.c</text>
</a>
</g>
</g>
<!-- Node2 -->
<g id="Node000002" class="node">
<title>Node2</title>
<g id="a_Node000002"><a xlink:title=" ">
<polygon fill="#e0e0e0" stroke="#999999" points="77.32,-19 24.32,-19 24.32,0 77.32,0 77.32,-19"/>
<text text-anchor="middle" x="50.82" y="-7" font-family="Helvetica,sans-Serif" font-size="10.00">stdlib.h</text>
</a>
</g>
</g>
<!-- Node1&#45;&gt;Node2 -->
<g id="edge1_Node000001_Node000002" class="edge">
<title>Node1&#45;&gt;Node2</title>
<g id="a_edge1_Node000001_Node000002"><a xlink:title=" ">
<path fill="none" stroke="#63b8ff" d="M470.61,-180.75C387.09,-175.08 247.05,-161.31 130.82,-129 71.56,-112.53 37.58,-125.42 3.82,-74 -7.53,-56.72 10.78,-37.78 27.76,-25.12"/>
<polygon fill="#63b8ff" stroke="#63b8ff" points="30.16,-27.71 36.35,-19.11 26.15,-21.97 30.16,-27.71"/>
</a>
</g>
</g>
<!-- Node3 -->
<g id="Node000003" class="node">
<title>Node3</title>
<g id="a_Node000003"><a xlink:title=" ">
<polygon fill="#e0e0e0" stroke="#999999" points="768.82,-129 718.82,-129 718.82,-110 768.82,-110 768.82,-129"/>
<text text-anchor="middle" x="743.82" y="-117" font-family="Helvetica,sans-Serif" font-size="10.00">stdio.h</text>
</a>
</g>
</g>
<!-- Node1&#45;&gt;Node3 -->
<g id="edge2_Node000001_Node000003" class="edge">
<title>Node1&#45;&gt;Node3</title>
<g id="a_edge2_Node000001_Node000003"><a xlink:title=" ">
<path fill="none" stroke="#63b8ff" d="M604.91,-164.95C639.13,-154 680.55,-140.75 709.21,-131.57"/>
<polygon fill="#63b8ff" stroke="#63b8ff" points="710.33,-134.89 718.78,-128.51 708.19,-128.23 710.33,-134.89"/>
</a>
</g>
</g>
<!-- Node4 -->
<g id="Node000004" class="node">
<title>Node4</title>
<g id="a_Node000004"><a xlink:href="errno_8h.html" target="_top" xlink:title="Error macro definition for ARM Compiler.">
<polygon fill="white" stroke="#666666" points="838.32,-129 787.32,-129 787.32,-110 838.32,-110 838.32,-129"/>
<text text-anchor="middle" x="812.82" y="-117" font-family="Helvetica,sans-Serif" font-size="10.00">errno.h</text>
</a>
</g>
</g>
<!-- Node1&#45;&gt;Node4 -->
<g id="edge3_Node000001_Node000004" class="edge">
<title>Node1&#45;&gt;Node4</title>
<g id="a_edge3_Node000001_Node000004"><a xlink:title=" ">
<path fill="none" stroke="#63b8ff" d="M616.83,-167.29C660.57,-156.95 717.54,-143.45 777.22,-129.13"/>
<polygon fill="#63b8ff" stroke="#63b8ff" points="778.3,-132.47 787.21,-126.74 776.67,-125.67 778.3,-132.47"/>
</a>
</g>
</g>
<!-- Node5 -->
<g id="Node000005" class="node">
<title>Node5</title>
<g id="a_Node000005"><a xlink:href="cn0565_2src_2app_2parameters_8h.html" target="_top" xlink:title="Parameters Definitions.">
<polygon fill="white" stroke="#666666" points="938.82,-129 856.82,-129 856.82,-110 938.82,-110 938.82,-129"/>
<text text-anchor="middle" x="897.82" y="-117" font-family="Helvetica,sans-Serif" font-size="10.00">parameters.h</text>
</a>
</g>
</g>
<!-- Node1&#45;&gt;Node5 -->
<g id="edge4_Node000001_Node000005" class="edge">
<title>Node1&#45;&gt;Node5</title>
<g id="a_edge4_Node000001_Node000005"><a xlink:title=" ">
<path fill="none" stroke="#63b8ff" d="M617.17,-171.24C685.71,-158.85 786.25,-140.67 846.55,-129.77"/>
<polygon fill="#63b8ff" stroke="#63b8ff" points="847.38,-133.18 856.6,-127.95 846.14,-126.29 847.38,-133.18"/>
</a>
</g>
</g>
<!-- Node6 -->
<g id="Node000006" class="node">
<title>Node6</title>
<g id="a_Node000006"><a xlink:href="no__os__uart_8h.html" target="_top" xlink:title="Header file of UART interface.">
<polygon fill="white" stroke="#666666" points="271.32,-129 192.32,-129 192.32,-110 271.32,-110 271.32,-129"/>
<text text-anchor="middle" x="231.82" y="-117" font-family="Helvetica,sans-Serif" font-size="10.00">no_os_uart.h</text>
</a>
</g>
</g>
<!-- Node1&#45;&gt;Node6 -->
<g id="edge5_Node000001_Node000006" class="edge">
<title>Node1&#45;&gt;Node6</title>
<g id="a_edge5_Node000001_Node000006"><a xlink:title=" ">
<path fill="none" stroke="#63b8ff" d="M470.67,-169.49C412.41,-157.55 332.44,-141.14 281.44,-130.68"/>
<polygon fill="#63b8ff" stroke="#63b8ff" points="282.14,-127.25 271.64,-128.67 280.74,-134.11 282.14,-127.25"/>
</a>
</g>
</g>
<!-- Node10 -->
<g id="Node000010" class="node">
<title>Node10</title>
<g id="a_Node000010"><a xlink:href="no__os__gpio_8h.html" target="_top" xlink:title="Header file of GPIO Interface.">
<polygon fill="white" stroke="#666666" points="664.82,-74 584.82,-74 584.82,-55 664.82,-55 664.82,-74"/>
<text text-anchor="middle" x="624.82" y="-62" font-family="Helvetica,sans-Serif" font-size="10.00">no_os_gpio.h</text>
</a>
</g>
</g>
<!-- Node1&#45;&gt;Node10 -->
<g id="edge12_Node000001_Node000010" class="edge">
<title>Node1&#45;&gt;Node10</title>
<g id="a_edge12_Node000001_Node000010"><a xlink:title=" ">
<path fill="none" stroke="#63b8ff" d="M565.3,-164.79C575.42,-154.74 587.14,-141.94 595.82,-129 605.41,-114.7 613.28,-96.72 618.39,-83.55"/>
<polygon fill="#63b8ff" stroke="#63b8ff" points="621.68,-84.77 621.88,-74.18 615.11,-82.33 621.68,-84.77"/>
</a>
</g>
</g>
<!-- Node11 -->
<g id="Node000011" class="node">
<title>Node11</title>
<g id="a_Node000011"><a xlink:href="no__os__i2c_8h.html" target="_top" xlink:title="Header file of I2C Interface.">
<polygon fill="white" stroke="#666666" points="756.82,-74 682.82,-74 682.82,-55 756.82,-55 756.82,-74"/>
<text text-anchor="middle" x="719.82" y="-62" font-family="Helvetica,sans-Serif" font-size="10.00">no_os_i2c.h</text>
</a>
</g>
</g>
<!-- Node1&#45;&gt;Node11 -->
<g id="edge14_Node000001_Node000011" class="edge">
<title>Node1&#45;&gt;Node11</title>
<g id="a_edge14_Node000001_Node000011"><a xlink:title=" ">
<path fill="none" stroke="#63b8ff" d="M572.88,-164.85C608.25,-140.94 667.12,-101.13 698.54,-79.89"/>
<polygon fill="#63b8ff" stroke="#63b8ff" points="700.67,-82.68 706.99,-74.18 696.75,-76.88 700.67,-82.68"/>
</a>
</g>
</g>
<!-- Node12 -->
<g id="Node000012" class="node">
<title>Node12</title>
<g id="a_Node000012"><a xlink:href="no__os__spi_8h.html" target="_top" xlink:title="Header file of SPI Interface.">
<polygon fill="white" stroke="#666666" points="848.82,-74 774.82,-74 774.82,-55 848.82,-55 848.82,-74"/>
<text text-anchor="middle" x="811.82" y="-62" font-family="Helvetica,sans-Serif" font-size="10.00">no_os_spi.h</text>
</a>
</g>
</g>
<!-- Node1&#45;&gt;Node12 -->
<g id="edge16_Node000001_Node000012" class="edge">
<title>Node1&#45;&gt;Node12</title>
<g id="a_edge16_Node000001_Node000012"><a xlink:title=" ">
<path fill="none" stroke="#63b8ff" d="M587.11,-164.92C620.57,-149.83 668.08,-128.47 709.82,-110 734.27,-99.18 762.08,-87.06 782.48,-78.2"/>
<polygon fill="#63b8ff" stroke="#63b8ff" points="784.08,-81.33 791.86,-74.14 781.29,-74.9 784.08,-81.33"/>
</a>
</g>
</g>
<!-- Node13 -->
<g id="Node000013" class="node">
<title>Node13</title>
<g id="a_Node000013"><a xlink:href="no__os__irq_8h.html" target="_top" xlink:title="Header file of IRQ interface.">
<polygon fill="white" stroke="#666666" points="528.82,-74 456.82,-74 456.82,-55 528.82,-55 528.82,-74"/>
<text text-anchor="middle" x="492.82" y="-62" font-family="Helvetica,sans-Serif" font-size="10.00">no_os_irq.h</text>
</a>
</g>
</g>
<!-- Node1&#45;&gt;Node13 -->
<g id="edge18_Node000001_Node000013" class="edge">
<title>Node1&#45;&gt;Node13</title>
<g id="a_edge18_Node000001_Node000013"><a xlink:title=" ">
<path fill="none" stroke="#63b8ff" d="M518.88,-164.79C508.76,-155.21 498.19,-142.78 492.82,-129 487.25,-114.7 487.74,-97.17 489.34,-84.16"/>
<polygon fill="#63b8ff" stroke="#63b8ff" points="492.83,-84.5 490.92,-74.08 485.91,-83.42 492.83,-84.5"/>
</a>
</g>
</g>
<!-- Node14 -->
<g id="Node000014" class="node">
<title>Node14</title>
<g id="a_Node000014"><a xlink:href="no__os__delay_8h.html" target="_top" xlink:title="Header file of Delay functions.">
<polygon fill="white" stroke="#666666" points="586.32,-129 501.32,-129 501.32,-110 586.32,-110 586.32,-129"/>
<text text-anchor="middle" x="543.82" y="-117" font-family="Helvetica,sans-Serif" font-size="10.00">no_os_delay.h</text>
</a>
</g>
</g>
<!-- Node1&#45;&gt;Node14 -->
<g id="edge20_Node000001_Node000014" class="edge">
<title>Node1&#45;&gt;Node14</title>
<g id="a_edge20_Node000001_Node000014"><a xlink:title=" ">
<path fill="none" stroke="#63b8ff" d="M543.82,-164.95C543.82,-156.85 543.82,-147.5 543.82,-139.47"/>
<polygon fill="#63b8ff" stroke="#63b8ff" points="547.32,-139.26 543.82,-129.26 540.32,-139.26 547.32,-139.26"/>
</a>
</g>
</g>
<!-- Node15 -->
<g id="Node000015" class="node">
<title>Node15</title>
<g id="a_Node000015"><a xlink:href="no__os__util_8h.html" target="_top" xlink:title="Header file of utility functions.">
<polygon fill="white" stroke="#666666" points="88.32,-74 13.32,-74 13.32,-55 88.32,-55 88.32,-74"/>
<text text-anchor="middle" x="50.82" y="-62" font-family="Helvetica,sans-Serif" font-size="10.00">no_os_util.h</text>
</a>
</g>
</g>
<!-- Node1&#45;&gt;Node15 -->
<g id="edge22_Node000001_Node000015" class="edge">
<title>Node1&#45;&gt;Node15</title>
<g id="a_edge22_Node000001_Node000015"><a xlink:title=" ">
<path fill="none" stroke="#63b8ff" d="M470.48,-179.61C396.52,-173.2 279.73,-159.03 182.82,-129 142.76,-116.59 99.53,-93.81 73.84,-79.18"/>
<polygon fill="#63b8ff" stroke="#63b8ff" points="75.31,-75.98 64.9,-74.01 71.8,-82.04 75.31,-75.98"/>
</a>
</g>
</g>
<!-- Node16 -->
<g id="Node000016" class="node">
<title>Node16</title>
<g id="a_Node000016"><a xlink:href="app_8h.html" target="_top" xlink:title="EIT application header.">
<polygon fill="white" stroke="#666666" points="374.82,-129 330.82,-129 330.82,-110 374.82,-110 374.82,-129"/>
<text text-anchor="middle" x="352.82" y="-117" font-family="Helvetica,sans-Serif" font-size="10.00">app.h</text>
</a>
</g>
</g>
<!-- Node1&#45;&gt;Node16 -->
<g id="edge26_Node000001_Node000016" class="edge">
<title>Node1&#45;&gt;Node16</title>
<g id="a_edge26_Node000001_Node000016"><a xlink:title=" ">
<path fill="none" stroke="#63b8ff" d="M485.48,-164.95C452.4,-153.87 412.28,-140.42 384.88,-131.24"/>
<polygon fill="#63b8ff" stroke="#63b8ff" points="385.64,-127.81 375.05,-127.95 383.42,-134.44 385.64,-127.81"/>
</a>
</g>
</g>
<!-- Node17 -->
<g id="Node000017" class="node">
<title>Node17</title>
<g id="a_Node000017"><a xlink:title=" ">
<polygon fill="#e0e0e0" stroke="#999999" points="438.82,-74 376.82,-74 376.82,-55 438.82,-55 438.82,-74"/>
<text text-anchor="middle" x="407.82" y="-62" font-family="Helvetica,sans-Serif" font-size="10.00">ad5940.h</text>
</a>
</g>
</g>
<!-- Node1&#45;&gt;Node17 -->
<g id="edge30_Node000001_Node000017" class="edge">
<title>Node1&#45;&gt;Node17</title>
<g id="a_edge30_Node000001_Node000017"><a xlink:title=" ">
<path fill="none" stroke="#63b8ff" d="M521.36,-164.85C494.5,-141.35 450.1,-102.49 425.53,-81"/>
<polygon fill="#63b8ff" stroke="#63b8ff" points="427.57,-78.13 417.73,-74.18 422.96,-83.39 427.57,-78.13"/>
</a>
</g>
</g>
<!-- Node7 -->
<g id="Node000007" class="node">
<title>Node7</title>
<g id="a_Node000007"><a xlink:title=" ">
<polygon fill="#e0e0e0" stroke="#999999" points="519.32,-19 466.32,-19 466.32,0 519.32,0 519.32,-19"/>
<text text-anchor="middle" x="492.82" y="-7" font-family="Helvetica,sans-Serif" font-size="10.00">stdint.h</text>
</a>
</g>
</g>
<!-- Node6&#45;&gt;Node7 -->
<g id="edge6_Node000006_Node000007" class="edge">
<title>Node6&#45;&gt;Node7</title>
<g id="a_edge6_Node000006_Node000007"><a xlink:title=" ">
<path fill="none" stroke="#63b8ff" d="M246.32,-109.82C268.63,-96.71 312.98,-71.64 352.82,-55 387.09,-40.69 427.67,-28.26 456.3,-20.2"/>
<polygon fill="#63b8ff" stroke="#63b8ff" points="457.57,-23.48 466.27,-17.44 455.69,-16.74 457.57,-23.48"/>
</a>
</g>
</g>
<!-- Node8 -->
<g id="Node000008" class="node">
<title>Node8</title>
<g id="a_Node000008"><a xlink:title=" ">
<polygon fill="#e0e0e0" stroke="#999999" points="191.82,-19 129.82,-19 129.82,0 191.82,0 191.82,-19"/>
<text text-anchor="middle" x="160.82" y="-7" font-family="Helvetica,sans-Serif" font-size="10.00">stdbool.h</text>
</a>
</g>
</g>
<!-- Node6&#45;&gt;Node8 -->
<g id="edge7_Node000006_Node000008" class="edge">
<title>Node6&#45;&gt;Node8</title>
<g id="a_edge7_Node000006_Node000008"><a xlink:title=" ">
<path fill="none" stroke="#63b8ff" d="M191.84,-110.67C171.36,-104.42 148.18,-93.35 135.82,-74 126.4,-59.26 136.17,-40.4 146.12,-27.07"/>
<polygon fill="#63b8ff" stroke="#63b8ff" points="148.91,-29.19 152.48,-19.21 143.47,-24.78 148.91,-29.19"/>
</a>
</g>
</g>
<!-- Node9 -->
<g id="Node000009" class="node">
<title>Node9</title>
<g id="a_Node000009"><a xlink:href="no__os__lf256fifo_8h.html" target="_top" xlink:title="SPSC lock&#45;free fifo of fixed size (256), specialized for UART.">
<polygon fill="white" stroke="#666666" points="244.82,-74 144.82,-74 144.82,-55 244.82,-55 244.82,-74"/>
<text text-anchor="middle" x="194.82" y="-62" font-family="Helvetica,sans-Serif" font-size="10.00">no_os_lf256fifo.h</text>
</a>
</g>
</g>
<!-- Node6&#45;&gt;Node9 -->
<g id="edge8_Node000006_Node000009" class="edge">
<title>Node6&#45;&gt;Node9</title>
<g id="a_edge8_Node000006_Node000009"><a xlink:title=" ">
<path fill="none" stroke="#63b8ff" d="M225.71,-109.75C220.54,-102.34 212.97,-91.5 206.63,-82.41"/>
<polygon fill="#63b8ff" stroke="#63b8ff" points="209.41,-80.29 200.82,-74.09 203.67,-84.29 209.41,-80.29"/>
</a>
</g>
</g>
<!-- Node9&#45;&gt;Node2 -->
<g id="edge9_Node000009_Node000002" class="edge">
<title>Node9&#45;&gt;Node2</title>
<g id="a_edge9_Node000009_Node000002"><a xlink:title=" ">
<path fill="none" stroke="#63b8ff" d="M171.68,-54.98C148,-46.27 110.95,-32.63 84.11,-22.75"/>
<polygon fill="#63b8ff" stroke="#63b8ff" points="84.97,-19.34 74.38,-19.17 82.55,-25.91 84.97,-19.34"/>
</a>
</g>
</g>
<!-- Node9&#45;&gt;Node7 -->
<g id="edge10_Node000009_Node000007" class="edge">
<title>Node9&#45;&gt;Node7</title>
<g id="a_edge10_Node000009_Node000007"><a xlink:title=" ">
<path fill="none" stroke="#63b8ff" d="M242.7,-54.98C302.08,-44.42 402.04,-26.65 455.86,-17.07"/>
<polygon fill="#63b8ff" stroke="#63b8ff" points="456.75,-20.47 465.98,-15.27 455.52,-13.58 456.75,-20.47"/>
</a>
</g>
</g>
<!-- Node9&#45;&gt;Node8 -->
<g id="edge11_Node000009_Node000008" class="edge">
<title>Node9&#45;&gt;Node8</title>
<g id="a_edge11_Node000009_Node000008"><a xlink:title=" ">
<path fill="none" stroke="#63b8ff" d="M189.21,-54.75C184.5,-47.42 177.65,-36.73 171.85,-27.7"/>
<polygon fill="#63b8ff" stroke="#63b8ff" points="174.68,-25.62 166.33,-19.09 168.78,-29.4 174.68,-25.62"/>
</a>
</g>
</g>
<!-- Node10&#45;&gt;Node7 -->
<g id="edge13_Node000010_Node000007" class="edge">
<title>Node10&#45;&gt;Node7</title>
<g id="a_edge13_Node000010_Node000007"><a xlink:title=" ">
<path fill="none" stroke="#63b8ff" d="M603.61,-54.98C582.09,-46.34 548.54,-32.87 523.99,-23.02"/>
<polygon fill="#63b8ff" stroke="#63b8ff" points="525,-19.65 514.41,-19.17 522.39,-26.14 525,-19.65"/>
</a>
</g>
</g>
<!-- Node11&#45;&gt;Node7 -->
<g id="edge15_Node000011_Node000007" class="edge">
<title>Node11&#45;&gt;Node7</title>
<g id="a_edge15_Node000011_Node000007"><a xlink:title=" ">
<path fill="none" stroke="#63b8ff" d="M683.35,-54.98C641.09,-45.12 571.85,-28.95 529.5,-19.06"/>
<polygon fill="#63b8ff" stroke="#63b8ff" points="530.14,-15.62 519.61,-16.75 528.55,-22.44 530.14,-15.62"/>
</a>
</g>
</g>
<!-- Node12&#45;&gt;Node7 -->
<g id="edge17_Node000012_Node000007" class="edge">
<title>Node12&#45;&gt;Node7</title>
<g id="a_edge17_Node000012_Node000007"><a xlink:title=" ">
<path fill="none" stroke="#63b8ff" d="M774.68,-56.57C771.68,-56.03 768.7,-55.5 765.82,-55 681.5,-40.34 582.27,-24.52 529.76,-16.27"/>
<polygon fill="#63b8ff" stroke="#63b8ff" points="530.01,-12.76 519.59,-14.67 528.93,-19.68 530.01,-12.76"/>
</a>
</g>
</g>
<!-- Node13&#45;&gt;Node7 -->
<g id="edge19_Node000013_Node000007" class="edge">
<title>Node13&#45;&gt;Node7</title>
<g id="a_edge19_Node000013_Node000007"><a xlink:title=" ">
<path fill="none" stroke="#63b8ff" d="M492.82,-54.75C492.82,-47.8 492.82,-37.85 492.82,-29.13"/>
<polygon fill="#63b8ff" stroke="#63b8ff" points="496.32,-29.09 492.82,-19.09 489.32,-29.09 496.32,-29.09"/>
</a>
</g>
</g>
<!-- Node14&#45;&gt;Node7 -->
<g id="edge21_Node000014_Node000007" class="edge">
<title>Node14&#45;&gt;Node7</title>
<g id="a_edge21_Node000014_Node000007"><a xlink:title=" ">
<path fill="none" stroke="#63b8ff" d="M544.81,-109.8C545.86,-97.09 546.36,-73.01 537.82,-55 532.34,-43.45 522.55,-33.2 513.49,-25.46"/>
<polygon fill="#63b8ff" stroke="#63b8ff" points="515.52,-22.6 505.52,-19.09 511.15,-28.07 515.52,-22.6"/>
</a>
</g>
</g>
<!-- Node15&#45;&gt;Node2 -->
<g id="edge24_Node000015_Node000002" class="edge">
<title>Node15&#45;&gt;Node2</title>
<g id="a_edge24_Node000015_Node000002"><a xlink:title=" ">
<path fill="none" stroke="#63b8ff" d="M50.82,-54.75C50.82,-47.8 50.82,-37.85 50.82,-29.13"/>
<polygon fill="#63b8ff" stroke="#63b8ff" points="54.32,-29.09 50.82,-19.09 47.32,-29.09 54.32,-29.09"/>
</a>
</g>
</g>
<!-- Node15&#45;&gt;Node7 -->
<g id="edge23_Node000015_Node000007" class="edge">
<title>Node15&#45;&gt;Node7</title>
<g id="a_edge23_Node000015_Node000007"><a xlink:title=" ">
<path fill="none" stroke="#63b8ff" d="M88.5,-58.98C172.39,-48.92 373.63,-24.79 456.36,-14.87"/>
<polygon fill="#63b8ff" stroke="#63b8ff" points="456.79,-18.35 466.31,-13.68 455.96,-11.39 456.79,-18.35"/>
</a>
</g>
</g>
<!-- Node15&#45;&gt;Node8 -->
<g id="edge25_Node000015_Node000008" class="edge">
<title>Node15&#45;&gt;Node8</title>
<g id="a_edge25_Node000015_Node000008"><a xlink:title=" ">
<path fill="none" stroke="#63b8ff" d="M68.49,-54.98C86.11,-46.5 113.4,-33.35 133.75,-23.54"/>
<polygon fill="#63b8ff" stroke="#63b8ff" points="135.34,-26.66 142.83,-19.17 132.3,-20.36 135.34,-26.66"/>
</a>
</g>
</g>
<!-- Node16&#45;&gt;Node7 -->
<g id="edge27_Node000016_Node000007" class="edge">
<title>Node16&#45;&gt;Node7</title>
<g id="a_edge27_Node000016_Node000007"><a xlink:title=" ">
<path fill="none" stroke="#63b8ff" d="M352.41,-109.94C352.25,-96.54 353.91,-70.53 367.82,-55 390.31,-29.89 427.92,-18.95 456.02,-14.18"/>
<polygon fill="#63b8ff" stroke="#63b8ff" points="456.91,-17.59 466.28,-12.64 455.87,-10.66 456.91,-17.59"/>
</a>
</g>
</g>
<!-- Node16&#45;&gt;Node8 -->
<g id="edge28_Node000016_Node000008" class="edge">
<title>Node16&#45;&gt;Node8</title>
<g id="a_edge28_Node000016_Node000008"><a xlink:title=" ">
<path fill="none" stroke="#63b8ff" d="M340.62,-109.97C322.23,-97.28 286.11,-72.99 253.82,-55 232.78,-43.28 208.17,-31.59 189.55,-23.13"/>
<polygon fill="#63b8ff" stroke="#63b8ff" points="190.97,-19.93 180.41,-19.02 188.1,-26.31 190.97,-19.93"/>
</a>
</g>
</g>
<!-- Node16&#45;&gt;Node17 -->
<g id="edge29_Node000016_Node000017" class="edge">
<title>Node16&#45;&gt;Node17</title>
<g id="a_edge29_Node000016_Node000017"><a xlink:title=" ">
<path fill="none" stroke="#63b8ff" d="M361.9,-109.75C369.91,-102.03 381.78,-90.6 391.44,-81.28"/>
<polygon fill="#63b8ff" stroke="#63b8ff" points="394.14,-83.55 398.91,-74.09 389.28,-78.51 394.14,-83.55"/>
</a>
</g>
</g>
</g>
</svg>
