<?xml version="1.0" encoding="UTF-8" standalone="no"?>
<!DOCTYPE svg PUBLIC "-//W3C//DTD SVG 1.1//EN"
 "http://www.w3.org/Graphics/SVG/1.1/DTD/svg11.dtd">
<!-- Generated by graphviz version 2.43.0 (0)
 -->
<!-- Title: /home/runner/work/no&#45;OS/no&#45;OS/projects/ad9371/src/devices/adi_hal/common.c Pages: 1 -->
<svg width="927pt" height="214pt"
 viewBox="0.00 0.00 927.00 214.00" xmlns="http://www.w3.org/2000/svg" xmlns:xlink="http://www.w3.org/1999/xlink">
<g id="graph0" class="graph" transform="scale(1 1) rotate(0) translate(4 210)">
<title>/home/runner/work/no&#45;OS/no&#45;OS/projects/ad9371/src/devices/adi_hal/common.c</title>
<!-- Node1 -->
<g id="Node000001" class="node">
<title>Node1</title>
<g id="a_Node000001"><a xlink:title="Contains Mykonos API common wrapper functions for user hardware platform drivers.">
<polygon fill="#999999" stroke="#666666" points="471.5,-206 304.5,-206 304.5,-165 471.5,-165 471.5,-206"/>
<text text-anchor="start" x="312.5" y="-194" font-family="Helvetica,sans-Serif" font-size="10.00">/home/runner/work/no</text>
<text text-anchor="start" x="312.5" y="-183" font-family="Helvetica,sans-Serif" font-size="10.00">&#45;OS/no&#45;OS/projects/ad9371</text>
<text text-anchor="middle" x="388" y="-172" font-family="Helvetica,sans-Serif" font-size="10.00">/src/devices/adi_hal/common.c</text>
</a>
</g>
</g>
<!-- Node2 -->
<g id="Node000002" class="node">
<title>Node2</title>
<g id="a_Node000002"><a xlink:title=" ">
<polygon fill="#e0e0e0" stroke="#999999" points="50,-129 0,-129 0,-110 50,-110 50,-129"/>
<text text-anchor="middle" x="25" y="-117" font-family="Helvetica,sans-Serif" font-size="10.00">stdio.h</text>
</a>
</g>
</g>
<!-- Node1&#45;&gt;Node2 -->
<g id="edge1_Node000001_Node000002" class="edge">
<title>Node1&#45;&gt;Node2</title>
<g id="a_edge1_Node000001_Node000002"><a xlink:title=" ">
<path fill="none" stroke="#63b8ff" d="M304.17,-172.2C239.89,-162.34 148.79,-147.46 60.16,-129.11"/>
<polygon fill="#63b8ff" stroke="#63b8ff" points="60.7,-125.65 50.2,-127.03 59.27,-132.5 60.7,-125.65"/>
</a>
</g>
</g>
<!-- Node3 -->
<g id="Node000003" class="node">
<title>Node3</title>
<g id="a_Node000003"><a xlink:title=" ">
<polygon fill="#e0e0e0" stroke="#999999" points="116,-129 68,-129 68,-110 116,-110 116,-129"/>
<text text-anchor="middle" x="92" y="-117" font-family="Helvetica,sans-Serif" font-size="10.00">time.h</text>
</a>
</g>
</g>
<!-- Node1&#45;&gt;Node3 -->
<g id="edge2_Node000001_Node000003" class="edge">
<title>Node1&#45;&gt;Node3</title>
<g id="a_edge2_Node000001_Node000003"><a xlink:title=" ">
<path fill="none" stroke="#63b8ff" d="M304.29,-167.82C255.04,-157.77 191.33,-144.38 126.17,-129.2"/>
<polygon fill="#63b8ff" stroke="#63b8ff" points="126.65,-125.72 116.12,-126.84 125.06,-132.53 126.65,-125.72"/>
</a>
</g>
</g>
<!-- Node4 -->
<g id="Node000004" class="node">
<title>Node4</title>
<g id="a_Node000004"><a xlink:href="errno_8h.html" target="_top" xlink:title="Error macro definition for ARM Compiler.">
<polygon fill="white" stroke="#666666" points="185.5,-129 134.5,-129 134.5,-110 185.5,-110 185.5,-129"/>
<text text-anchor="middle" x="160" y="-117" font-family="Helvetica,sans-Serif" font-size="10.00">errno.h</text>
</a>
</g>
</g>
<!-- Node1&#45;&gt;Node4 -->
<g id="edge3_Node000001_Node000004" class="edge">
<title>Node1&#45;&gt;Node4</title>
<g id="a_edge3_Node000001_Node000004"><a xlink:title=" ">
<path fill="none" stroke="#63b8ff" d="M318.35,-164.95C277.82,-153.57 228.43,-139.71 195.7,-130.52"/>
<polygon fill="#63b8ff" stroke="#63b8ff" points="196.26,-127.04 185.69,-127.71 194.37,-133.78 196.26,-127.04"/>
</a>
</g>
</g>
<!-- Node5 -->
<g id="Node000005" class="node">
<title>Node5</title>
<g id="a_Node000005"><a xlink:title=" ">
<polygon fill="#e0e0e0" stroke="#999999" points="458.5,-19 405.5,-19 405.5,0 458.5,0 458.5,-19"/>
<text text-anchor="middle" x="432" y="-7" font-family="Helvetica,sans-Serif" font-size="10.00">stdint.h</text>
</a>
</g>
</g>
<!-- Node1&#45;&gt;Node5 -->
<g id="edge4_Node000001_Node000005" class="edge">
<title>Node1&#45;&gt;Node5</title>
<g id="a_edge4_Node000001_Node000005"><a xlink:title=" ">
<path fill="none" stroke="#63b8ff" d="M414.76,-164.85C438.87,-145.11 472.14,-112.21 483,-74 485.31,-65.88 486.49,-62.69 483,-55 477.38,-42.63 466.43,-32.36 456.11,-24.81"/>
<polygon fill="#63b8ff" stroke="#63b8ff" points="457.97,-21.84 447.73,-19.12 454.04,-27.63 457.97,-21.84"/>
</a>
</g>
</g>
<!-- Node6 -->
<g id="Node000006" class="node">
<title>Node6</title>
<g id="a_Node000006"><a xlink:title=" ">
<polygon fill="#e0e0e0" stroke="#999999" points="295.5,-129 242.5,-129 242.5,-110 295.5,-110 295.5,-129"/>
<text text-anchor="middle" x="269" y="-117" font-family="Helvetica,sans-Serif" font-size="10.00">stdlib.h</text>
</a>
</g>
</g>
<!-- Node1&#45;&gt;Node6 -->
<g id="edge5_Node000001_Node000006" class="edge">
<title>Node1&#45;&gt;Node6</title>
<g id="a_edge5_Node000001_Node000006"><a xlink:title=" ">
<path fill="none" stroke="#63b8ff" d="M351.65,-164.95C333.02,-154.93 310.81,-142.99 294.11,-134"/>
<polygon fill="#63b8ff" stroke="#63b8ff" points="295.44,-130.75 284.98,-129.09 292.12,-136.91 295.44,-130.75"/>
</a>
</g>
</g>
<!-- Node7 -->
<g id="Node000007" class="node">
<title>Node7</title>
<g id="a_Node000007"><a xlink:href="projects_2ad9371_2src_2devices_2adi__hal_2common_8h.html" target="_top" xlink:title="Contains type definitions and prototype declarations for common.c.">
<polygon fill="white" stroke="#666666" points="717,-74 649,-74 649,-55 717,-55 717,-74"/>
<text text-anchor="middle" x="683" y="-62" font-family="Helvetica,sans-Serif" font-size="10.00">common.h</text>
</a>
</g>
</g>
<!-- Node1&#45;&gt;Node7 -->
<g id="edge6_Node000001_Node000007" class="edge">
<title>Node1&#45;&gt;Node7</title>
<g id="a_edge6_Node000001_Node000007"><a xlink:title=" ">
<path fill="none" stroke="#63b8ff" d="M471.64,-175.59C517.39,-168.04 573.79,-154.21 619,-129 639.83,-117.39 658.54,-97.1 670.27,-82.58"/>
<polygon fill="#63b8ff" stroke="#63b8ff" points="673.25,-84.46 676.63,-74.42 667.72,-80.15 673.25,-84.46"/>
</a>
</g>
</g>
<!-- Node8 -->
<g id="Node000008" class="node">
<title>Node8</title>
<g id="a_Node000008"><a xlink:href="no__os__spi_8h.html" target="_top" xlink:title="Header file of SPI Interface.">
<polygon fill="white" stroke="#666666" points="333,-74 259,-74 259,-55 333,-55 333,-74"/>
<text text-anchor="middle" x="296" y="-62" font-family="Helvetica,sans-Serif" font-size="10.00">no_os_spi.h</text>
</a>
</g>
</g>
<!-- Node1&#45;&gt;Node8 -->
<g id="edge8_Node000001_Node000008" class="edge">
<title>Node1&#45;&gt;Node8</title>
<g id="a_edge8_Node000001_Node000008"><a xlink:title=" ">
<path fill="none" stroke="#63b8ff" d="M371.75,-164.89C363.1,-154.34 352.35,-141.06 343,-129 330.97,-113.47 317.69,-95.44 308.32,-82.57"/>
<polygon fill="#63b8ff" stroke="#63b8ff" points="310.97,-80.26 302.27,-74.22 305.3,-84.37 310.97,-80.26"/>
</a>
</g>
</g>
<!-- Node9 -->
<g id="Node000009" class="node">
<title>Node9</title>
<g id="a_Node000009"><a xlink:href="xilinx__gpio_8h.html" target="_top" xlink:title=" ">
<polygon fill="white" stroke="#666666" points="610.5,-129 531.5,-129 531.5,-110 610.5,-110 610.5,-129"/>
<text text-anchor="middle" x="571" y="-117" font-family="Helvetica,sans-Serif" font-size="10.00">xilinx_gpio.h</text>
</a>
</g>
</g>
<!-- Node1&#45;&gt;Node9 -->
<g id="edge10_Node000001_Node000009" class="edge">
<title>Node1&#45;&gt;Node9</title>
<g id="a_edge10_Node000001_Node000009"><a xlink:title=" ">
<path fill="none" stroke="#63b8ff" d="M443.9,-164.95C474.28,-154.32 510.87,-141.53 536.98,-132.4"/>
<polygon fill="#63b8ff" stroke="#63b8ff" points="538.15,-135.7 546.43,-129.09 535.84,-129.09 538.15,-135.7"/>
</a>
</g>
</g>
<!-- Node11 -->
<g id="Node000011" class="node">
<title>Node11</title>
<g id="a_Node000011"><a xlink:href="no__os__gpio_8h.html" target="_top" xlink:title="Header file of GPIO Interface.">
<polygon fill="white" stroke="#666666" points="241,-74 161,-74 161,-55 241,-55 241,-74"/>
<text text-anchor="middle" x="201" y="-62" font-family="Helvetica,sans-Serif" font-size="10.00">no_os_gpio.h</text>
</a>
</g>
</g>
<!-- Node1&#45;&gt;Node11 -->
<g id="edge13_Node000001_Node000011" class="edge">
<title>Node1&#45;&gt;Node11</title>
<g id="a_edge13_Node000001_Node000011"><a xlink:title=" ">
<path fill="none" stroke="#63b8ff" d="M304.13,-167.2C279.1,-158.88 253.02,-146.7 233,-129 219.44,-117.01 210.91,-97.92 206.11,-83.8"/>
<polygon fill="#63b8ff" stroke="#63b8ff" points="209.43,-82.69 203.13,-74.17 202.74,-84.76 209.43,-82.69"/>
</a>
</g>
</g>
<!-- Node12 -->
<g id="Node000012" class="node">
<title>Node12</title>
<g id="a_Node000012"><a xlink:href="no__os__delay_8h.html" target="_top" xlink:title="Header file of Delay functions.">
<polygon fill="white" stroke="#666666" points="474.5,-74 389.5,-74 389.5,-55 474.5,-55 474.5,-74"/>
<text text-anchor="middle" x="432" y="-62" font-family="Helvetica,sans-Serif" font-size="10.00">no_os_delay.h</text>
</a>
</g>
</g>
<!-- Node1&#45;&gt;Node12 -->
<g id="edge15_Node000001_Node000012" class="edge">
<title>Node1&#45;&gt;Node12</title>
<g id="a_edge15_Node000001_Node000012"><a xlink:title=" ">
<path fill="none" stroke="#63b8ff" d="M409.58,-164.77C418.67,-155.01 428.23,-142.45 433,-129 438.13,-114.53 437.38,-97.02 435.64,-84.05"/>
<polygon fill="#63b8ff" stroke="#63b8ff" points="439.06,-83.31 433.97,-74.02 432.16,-84.46 439.06,-83.31"/>
</a>
</g>
</g>
<!-- Node13 -->
<g id="Node000013" class="node">
<title>Node13</title>
<g id="a_Node000013"><a xlink:href="ad9371_2src_2devices_2adi__hal_2parameters_8h.html" target="_top" xlink:title="Platform dependent parameters.">
<polygon fill="white" stroke="#666666" points="815,-129 733,-129 733,-110 815,-110 815,-129"/>
<text text-anchor="middle" x="774" y="-117" font-family="Helvetica,sans-Serif" font-size="10.00">parameters.h</text>
</a>
</g>
</g>
<!-- Node1&#45;&gt;Node13 -->
<g id="edge17_Node000001_Node000013" class="edge">
<title>Node1&#45;&gt;Node13</title>
<g id="a_edge17_Node000001_Node000013"><a xlink:title=" ">
<path fill="none" stroke="#63b8ff" d="M471.76,-170.61C548.1,-157.95 658.46,-139.66 722.55,-129.03"/>
<polygon fill="#63b8ff" stroke="#63b8ff" points="723.52,-132.42 732.81,-127.33 722.37,-125.51 723.52,-132.42"/>
</a>
</g>
</g>
<!-- Node15 -->
<g id="Node000015" class="node">
<title>Node15</title>
<g id="a_Node000015"><a xlink:title=" ">
<polygon fill="#e0e0e0" stroke="#999999" points="919,-74 831,-74 831,-55 919,-55 919,-74"/>
<text text-anchor="middle" x="875" y="-62" font-family="Helvetica,sans-Serif" font-size="10.00">xparameters.h</text>
</a>
</g>
</g>
<!-- Node1&#45;&gt;Node15 -->
<g id="edge20_Node000001_Node000015" class="edge">
<title>Node1&#45;&gt;Node15</title>
<g id="a_edge20_Node000001_Node000015"><a xlink:title=" ">
<path fill="none" stroke="#63b8ff" d="M471.96,-181.24C581.3,-175.73 765.41,-161.8 824,-129 842.82,-118.46 857.33,-97.93 865.97,-83.06"/>
<polygon fill="#63b8ff" stroke="#63b8ff" points="869.05,-84.72 870.79,-74.27 862.92,-81.35 869.05,-84.72"/>
</a>
</g>
</g>
<!-- Node16 -->
<g id="Node000016" class="node">
<title>Node16</title>
<g id="a_Node000016"><a xlink:href="xilinx__spi_8h.html" target="_top" xlink:title=" ">
<polygon fill="white" stroke="#666666" points="424,-129 352,-129 352,-110 424,-110 424,-129"/>
<text text-anchor="middle" x="388" y="-117" font-family="Helvetica,sans-Serif" font-size="10.00">xilinx_spi.h</text>
</a>
</g>
</g>
<!-- Node1&#45;&gt;Node16 -->
<g id="edge21_Node000001_Node000016" class="edge">
<title>Node1&#45;&gt;Node16</title>
<g id="a_edge21_Node000001_Node000016"><a xlink:title=" ">
<path fill="none" stroke="#63b8ff" d="M388,-164.95C388,-156.85 388,-147.5 388,-139.47"/>
<polygon fill="#63b8ff" stroke="#63b8ff" points="391.5,-139.26 388,-129.26 384.5,-139.26 391.5,-139.26"/>
</a>
</g>
</g>
<!-- Node7&#45;&gt;Node5 -->
<g id="edge7_Node000007_Node000005" class="edge">
<title>Node7&#45;&gt;Node5</title>
<g id="a_edge7_Node000007_Node000005"><a xlink:title=" ">
<path fill="none" stroke="#63b8ff" d="M648.89,-56.3C601.81,-46.36 517.26,-28.5 468.8,-18.27"/>
<polygon fill="#63b8ff" stroke="#63b8ff" points="469.25,-14.79 458.74,-16.15 467.81,-21.64 469.25,-14.79"/>
</a>
</g>
</g>
<!-- Node8&#45;&gt;Node5 -->
<g id="edge9_Node000008_Node000005" class="edge">
<title>Node8&#45;&gt;Node5</title>
<g id="a_edge9_Node000008_Node000005"><a xlink:title=" ">
<path fill="none" stroke="#63b8ff" d="M317.85,-54.98C340.12,-46.3 374.9,-32.75 400.22,-22.88"/>
<polygon fill="#63b8ff" stroke="#63b8ff" points="401.71,-26.06 409.75,-19.17 399.16,-19.54 401.71,-26.06"/>
</a>
</g>
</g>
<!-- Node9&#45;&gt;Node5 -->
<g id="edge11_Node000009_Node000005" class="edge">
<title>Node9&#45;&gt;Node5</title>
<g id="a_edge11_Node000009_Node000005"><a xlink:title=" ">
<path fill="none" stroke="#63b8ff" d="M581.14,-109.66C594.69,-96.77 615.49,-72.48 602,-55 585.83,-34.05 513.5,-21.06 468.56,-14.86"/>
<polygon fill="#63b8ff" stroke="#63b8ff" points="468.97,-11.38 458.59,-13.53 468.04,-18.32 468.97,-11.38"/>
</a>
</g>
</g>
<!-- Node10 -->
<g id="Node000010" class="node">
<title>Node10</title>
<g id="a_Node000010"><a xlink:title=" ">
<polygon fill="#e0e0e0" stroke="#999999" points="593,-74 531,-74 531,-55 593,-55 593,-74"/>
<text text-anchor="middle" x="562" y="-62" font-family="Helvetica,sans-Serif" font-size="10.00">stdbool.h</text>
</a>
</g>
</g>
<!-- Node9&#45;&gt;Node10 -->
<g id="edge12_Node000009_Node000010" class="edge">
<title>Node9&#45;&gt;Node10</title>
<g id="a_edge12_Node000009_Node000010"><a xlink:title=" ">
<path fill="none" stroke="#63b8ff" d="M569.51,-109.75C568.33,-102.8 566.64,-92.85 565.16,-84.13"/>
<polygon fill="#63b8ff" stroke="#63b8ff" points="568.58,-83.36 563.46,-74.09 561.68,-84.53 568.58,-83.36"/>
</a>
</g>
</g>
<!-- Node11&#45;&gt;Node5 -->
<g id="edge14_Node000011_Node000005" class="edge">
<title>Node11&#45;&gt;Node5</title>
<g id="a_edge14_Node000011_Node000005"><a xlink:title=" ">
<path fill="none" stroke="#63b8ff" d="M238.11,-54.98C281.45,-45.04 352.65,-28.71 395.65,-18.84"/>
<polygon fill="#63b8ff" stroke="#63b8ff" points="396.45,-22.25 405.42,-16.6 394.89,-15.42 396.45,-22.25"/>
</a>
</g>
</g>
<!-- Node12&#45;&gt;Node5 -->
<g id="edge16_Node000012_Node000005" class="edge">
<title>Node12&#45;&gt;Node5</title>
<g id="a_edge16_Node000012_Node000005"><a xlink:title=" ">
<path fill="none" stroke="#63b8ff" d="M432,-54.75C432,-47.8 432,-37.85 432,-29.13"/>
<polygon fill="#63b8ff" stroke="#63b8ff" points="435.5,-29.09 432,-19.09 428.5,-29.09 435.5,-29.09"/>
</a>
</g>
</g>
<!-- Node14 -->
<g id="Node000014" class="node">
<title>Node14</title>
<g id="a_Node000014"><a xlink:title=" ">
<polygon fill="#e0e0e0" stroke="#999999" points="813,-74 735,-74 735,-55 813,-55 813,-74"/>
<text text-anchor="middle" x="774" y="-62" font-family="Helvetica,sans-Serif" font-size="10.00">app_config.h</text>
</a>
</g>
</g>
<!-- Node13&#45;&gt;Node14 -->
<g id="edge18_Node000013_Node000014" class="edge">
<title>Node13&#45;&gt;Node14</title>
<g id="a_edge18_Node000013_Node000014"><a xlink:title=" ">
<path fill="none" stroke="#63b8ff" d="M774,-109.75C774,-102.8 774,-92.85 774,-84.13"/>
<polygon fill="#63b8ff" stroke="#63b8ff" points="777.5,-84.09 774,-74.09 770.5,-84.09 777.5,-84.09"/>
</a>
</g>
</g>
<!-- Node13&#45;&gt;Node15 -->
<g id="edge19_Node000013_Node000015" class="edge">
<title>Node13&#45;&gt;Node15</title>
<g id="a_edge19_Node000013_Node000015"><a xlink:title=" ">
<path fill="none" stroke="#63b8ff" d="M790.23,-109.98C806.18,-101.61 830.78,-88.7 849.38,-78.95"/>
<polygon fill="#63b8ff" stroke="#63b8ff" points="851.25,-81.92 858.48,-74.17 848,-75.72 851.25,-81.92"/>
</a>
</g>
</g>
<!-- Node16&#45;&gt;Node5 -->
<g id="edge22_Node000016_Node000005" class="edge">
<title>Node16&#45;&gt;Node5</title>
<g id="a_edge22_Node000016_Node000005"><a xlink:title=" ">
<path fill="none" stroke="#63b8ff" d="M384.09,-109.84C378.99,-97.18 371.64,-73.17 380,-55 385.75,-42.52 396.91,-32.24 407.42,-24.71"/>
<polygon fill="#63b8ff" stroke="#63b8ff" points="409.57,-27.49 415.97,-19.05 405.7,-21.65 409.57,-27.49"/>
</a>
</g>
</g>
<!-- Node16&#45;&gt;Node8 -->
<g id="edge23_Node000016_Node000008" class="edge">
<title>Node16&#45;&gt;Node8</title>
<g id="a_edge23_Node000016_Node000008"><a xlink:title=" ">
<path fill="none" stroke="#63b8ff" d="M373.22,-109.98C358.82,-101.69 336.69,-88.94 319.81,-79.22"/>
<polygon fill="#63b8ff" stroke="#63b8ff" points="321.46,-76.13 311.05,-74.17 317.97,-82.19 321.46,-76.13"/>
</a>
</g>
</g>
</g>
</svg>
