<?xml version="1.0" encoding="UTF-8" standalone="no"?>
<!DOCTYPE svg PUBLIC "-//W3C//DTD SVG 1.1//EN"
 "http://www.w3.org/Graphics/SVG/1.1/DTD/svg11.dtd">
<!-- Generated by graphviz version 2.43.0 (0)
 -->
<!-- Title: /home/runner/work/no&#45;OS/no&#45;OS/drivers/dac/ad917x/ad917x_api/api_def.h Pages: 1 -->
<!--zoomable 291 -->

<svg id="main" version="1.1" xmlns="http://www.w3.org/2000/svg" xmlns:xlink="http://www.w3.org/1999/xlink" xml:space="preserve" onload="init(evt)">

<style type="text/css"><![CDATA[
.node, .edge {opacity: 0.7;}
.node.selected, .edge.selected {opacity: 1;}
.edge:hover path { stroke: red; }
.edge:hover polygon { stroke: red; fill: red; }
]]></style>

<defs>
  <circle id="rim" cx="0" cy="0" r="7"/>
  <circle id="rim2" cx="0" cy="0" r="3.5"/>
  <g id="zoomPlus">
    <use xlink:href="#rim" fill="#404040"><set attributeName="fill" to="#808080" begin="zoomplus.mouseover" end="zoomplus.mouseout"/></use>
    <path d="M-4,0h8M0,-4v8" fill="none" stroke="white" stroke-width="1.5" pointer-events="none"/>
  </g>
  <g id="zoomMin">
    <use xlink:href="#rim" fill="#404040"><set attributeName="fill" to="#808080" begin="zoomminus.mouseover" end="zoomminus.mouseout"/></use>
    <path d="M-4,0h8" fill="none" stroke="white" stroke-width="1.5" pointer-events="none"/>
  </g>
  <g id="arrowUp" transform="translate(30 24)">
    <use xlink:href="#rim"/>
    <path pointer-events="none" fill="none" stroke="white" stroke-width="1.5" d="M0,-3.0v7 M-2.5,-0.5L0,-3.0L2.5,-0.5"/>
  </g>
  <g id="arrowRight" transform="rotate(90) translate(36 -43)">
    <use xlink:href="#rim"/>
    <path pointer-events="none" fill="none" stroke="white" stroke-width="1.5" d="M0,-3.0v7 M-2.5,-0.5L0,-3.0L2.5,-0.5"/>
  </g>
  <g id="arrowDown" transform="rotate(180) translate(-30 -48)">
    <use xlink:href="#rim"/>
    <path pointer-events="none" fill="none" stroke="white" stroke-width="1.5" d="M0,-3.0v7 M-2.5,-0.5L0,-3.0L2.5,-0.5"/>
  </g>
  <g id="arrowLeft" transform="rotate(270) translate(-36 17)">
    <use xlink:href="#rim"/>
    <path pointer-events="none" fill="none" stroke="white" stroke-width="1.5" d="M0,-3.0v7 M-2.5,-0.5L0,-3.0L2.5,-0.5"/>
  </g>
  <g id="resetDef">
    <use xlink:href="#rim2" fill="#404040"><set attributeName="fill" to="#808080" begin="reset.mouseover" end="reset.mouseout"/></use>
  </g>
</defs>
<script type="application/ecmascript">
var viewWidth = 955;
var viewHeight = 291;
var sectionId = 'dynsection-1';
</script>
<script type="application/ecmascript" xlink:href="svg.min.js"/>
<svg id="graph" class="graph">
<g id="viewport">
<title>/home/runner/work/no&#45;OS/no&#45;OS/drivers/dac/ad917x/ad917x_api/api_def.h</title>
<!-- Node1 -->
<g id="Node000001" class="node">
<title>Node1</title>
<g id="a_Node000001"><a xlink:title="API definitions header file.">
<polygon fill="#999999" stroke="#666666" points="639,-283 477,-283 477,-242 639,-242 639,-283"/>
<text text-anchor="start" x="485" y="-271" font-family="Helvetica,sans-Serif" font-size="10.00">/home/runner/work/no</text>
<text text-anchor="start" x="485" y="-260" font-family="Helvetica,sans-Serif" font-size="10.00">&#45;OS/no&#45;OS/drivers/dac</text>
<text text-anchor="middle" x="558" y="-249" font-family="Helvetica,sans-Serif" font-size="10.00">/ad917x/ad917x_api/api_def.h</text>
</a>
</g>
</g>
<!-- Node2 -->
<g id="Node000002" class="node">
<title>Node2</title>
<g id="a_Node000002"><a xlink:href="_a_d917x_8h.html" target="_top" xlink:title="AD917X API interface header file.">
<polygon fill="white" stroke="#666666" points="544.5,-206 379.5,-206 379.5,-165 544.5,-165 544.5,-206"/>
<text text-anchor="start" x="387.5" y="-194" font-family="Helvetica,sans-Serif" font-size="10.00">/home/runner/work/no</text>
<text text-anchor="start" x="387.5" y="-183" font-family="Helvetica,sans-Serif" font-size="10.00">&#45;OS/no&#45;OS/drivers/dac</text>
<text text-anchor="middle" x="462" y="-172" font-family="Helvetica,sans-Serif" font-size="10.00">/ad917x/ad917x_api/AD917x.h</text>
</a>
</g>
</g>
<!-- Node1&#45;&gt;Node2 -->
<g id="edge1_Node000001_Node000002" class="edge">
<title>Node1&#45;&gt;Node2</title>
<g id="a_edge1_Node000001_Node000002"><a xlink:title=" ">
<path fill="none" stroke="#63b8ff" d="M525.12,-235.82C512.71,-226.11 498.78,-215.24 487.18,-206.17"/>
<polygon fill="#63b8ff" stroke="#63b8ff" points="522.99,-238.59 533.03,-241.99 527.3,-233.08 522.99,-238.59"/>
</a>
</g>
</g>
<!-- Node10 -->
<g id="Node000010" class="node">
<title>Node10</title>
<g id="a_Node000010"><a xlink:href="ad917x__reg_8h.html" target="_top" xlink:title="AD917x SPI Register Definition Header File.">
<polygon fill="white" stroke="#666666" points="747,-206 563,-206 563,-165 747,-165 747,-206"/>
<text text-anchor="start" x="571" y="-194" font-family="Helvetica,sans-Serif" font-size="10.00">/home/runner/work/no</text>
<text text-anchor="start" x="571" y="-183" font-family="Helvetica,sans-Serif" font-size="10.00">&#45;OS/no&#45;OS/drivers/dac</text>
<text text-anchor="middle" x="655" y="-172" font-family="Helvetica,sans-Serif" font-size="10.00">/ad917x/ad917x_api/ad917x_reg.h</text>
</a>
</g>
</g>
<!-- Node1&#45;&gt;Node10 -->
<g id="edge9_Node000001_Node000010" class="edge">
<title>Node1&#45;&gt;Node10</title>
<g id="a_edge9_Node000001_Node000010"><a xlink:title=" ">
<path fill="none" stroke="#63b8ff" d="M591.22,-235.82C603.77,-226.11 617.83,-215.24 629.56,-206.17"/>
<polygon fill="#63b8ff" stroke="#63b8ff" points="589,-233.1 583.23,-241.99 593.28,-238.64 589,-233.1"/>
</a>
</g>
</g>
<!-- Node3 -->
<g id="Node000003" class="node">
<title>Node3</title>
<g id="a_Node000003"><a xlink:href="ad9172_8h.html" target="_top" xlink:title="Header file of ad9172 Driver.">
<polygon fill="white" stroke="#666666" points="201,-123.5 77,-123.5 77,-82.5 201,-82.5 201,-123.5"/>
<text text-anchor="start" x="85" y="-111.5" font-family="Helvetica,sans-Serif" font-size="10.00">/home/runner/work/no</text>
<text text-anchor="start" x="85" y="-100.5" font-family="Helvetica,sans-Serif" font-size="10.00">&#45;OS/no&#45;OS/drivers/dac</text>
<text text-anchor="middle" x="139" y="-89.5" font-family="Helvetica,sans-Serif" font-size="10.00">/ad917x/ad9172.h</text>
</a>
</g>
</g>
<!-- Node2&#45;&gt;Node3 -->
<g id="edge2_Node000002_Node000003" class="edge">
<title>Node2&#45;&gt;Node3</title>
<g id="a_edge2_Node000002_Node000003"><a xlink:title=" ">
<path fill="none" stroke="#63b8ff" d="M369.32,-166.9C321.41,-157.1 262.19,-143.88 210,-129 204.22,-127.35 198.22,-125.49 192.28,-123.54"/>
<polygon fill="#63b8ff" stroke="#63b8ff" points="368.87,-170.38 379.37,-168.94 370.27,-163.52 368.87,-170.38"/>
</a>
</g>
</g>
<!-- Node6 -->
<g id="Node000006" class="node">
<title>Node6</title>
<g id="a_Node000006"><a xlink:href="ad917x__api_8c.html" target="_top" xlink:title="Contains AD917x APIs for DAC configuration and control.">
<polygon fill="white" stroke="#666666" points="947,-123.5 765,-123.5 765,-82.5 947,-82.5 947,-123.5"/>
<text text-anchor="start" x="773" y="-111.5" font-family="Helvetica,sans-Serif" font-size="10.00">/home/runner/work/no</text>
<text text-anchor="start" x="773" y="-100.5" font-family="Helvetica,sans-Serif" font-size="10.00">&#45;OS/no&#45;OS/drivers/dac</text>
<text text-anchor="middle" x="856" y="-89.5" font-family="Helvetica,sans-Serif" font-size="10.00">/ad917x/ad917x_api/ad917x_api.c</text>
</a>
</g>
</g>
<!-- Node2&#45;&gt;Node6 -->
<g id="edge5_Node000002_Node000006" class="edge">
<title>Node2&#45;&gt;Node6</title>
<g id="a_edge5_Node000002_Node000006"><a xlink:title=" ">
<path fill="none" stroke="#63b8ff" d="M554.6,-164.92C645.18,-147.56 669.87,-147.42 756,-129 763.87,-127.32 772.07,-125.45 780.23,-123.52"/>
<polygon fill="#63b8ff" stroke="#63b8ff" points="553.88,-161.5 544.73,-166.83 555.21,-168.37 553.88,-161.5"/>
</a>
</g>
</g>
<!-- Node7 -->
<g id="Node000007" class="node">
<title>Node7</title>
<g id="a_Node000007"><a xlink:href="ad917x__jesd__api_8c.html" target="_top" xlink:title="Contains AD917x APIs for JESD configuration and control.">
<polygon fill="white" stroke="#666666" points="373,-129 219,-129 219,-77 373,-77 373,-129"/>
<text text-anchor="start" x="227" y="-117" font-family="Helvetica,sans-Serif" font-size="10.00">/home/runner/work/no</text>
<text text-anchor="start" x="227" y="-106" font-family="Helvetica,sans-Serif" font-size="10.00">&#45;OS/no&#45;OS/drivers/dac</text>
<text text-anchor="start" x="227" y="-95" font-family="Helvetica,sans-Serif" font-size="10.00">/ad917x/ad917x_api/ad917x</text>
<text text-anchor="middle" x="296" y="-84" font-family="Helvetica,sans-Serif" font-size="10.00">_jesd_api.c</text>
</a>
</g>
</g>
<!-- Node2&#45;&gt;Node7 -->
<g id="edge6_Node000002_Node000007" class="edge">
<title>Node2&#45;&gt;Node7</title>
<g id="a_edge6_Node000002_Node000007"><a xlink:title=" ">
<path fill="none" stroke="#63b8ff" d="M412.29,-160.39C391.93,-150.52 368.38,-139.1 347.81,-129.13"/>
<polygon fill="#63b8ff" stroke="#63b8ff" points="410.87,-163.59 421.39,-164.81 413.92,-157.29 410.87,-163.59"/>
</a>
</g>
</g>
<!-- Node8 -->
<g id="Node000008" class="node">
<title>Node8</title>
<g id="a_Node000008"><a xlink:href="ad917x__nco__api_8c.html" target="_top" xlink:title="Contains AD917x APIs for NCO configuration and control.">
<polygon fill="white" stroke="#666666" points="545,-129 391,-129 391,-77 545,-77 545,-129"/>
<text text-anchor="start" x="399" y="-117" font-family="Helvetica,sans-Serif" font-size="10.00">/home/runner/work/no</text>
<text text-anchor="start" x="399" y="-106" font-family="Helvetica,sans-Serif" font-size="10.00">&#45;OS/no&#45;OS/drivers/dac</text>
<text text-anchor="start" x="399" y="-95" font-family="Helvetica,sans-Serif" font-size="10.00">/ad917x/ad917x_api/ad917x</text>
<text text-anchor="middle" x="468" y="-84" font-family="Helvetica,sans-Serif" font-size="10.00">_nco_api.c</text>
</a>
</g>
</g>
<!-- Node2&#45;&gt;Node8 -->
<g id="edge7_Node000002_Node000008" class="edge">
<title>Node2&#45;&gt;Node8</title>
<g id="a_edge7_Node000002_Node000008"><a xlink:title=" ">
<path fill="none" stroke="#63b8ff" d="M464.24,-154.49C464.86,-146.15 465.53,-137.19 466.13,-129.16"/>
<polygon fill="#63b8ff" stroke="#63b8ff" points="460.74,-154.37 463.48,-164.6 467.72,-154.89 460.74,-154.37"/>
</a>
</g>
</g>
<!-- Node9 -->
<g id="Node000009" class="node">
<title>Node9</title>
<g id="a_Node000009"><a xlink:href="ad917x__reg_8c.html" target="_top" xlink:title="Contains AD917x APIs for SPI Register configuration and control.">
<polygon fill="white" stroke="#666666" points="746.5,-123.5 563.5,-123.5 563.5,-82.5 746.5,-82.5 746.5,-123.5"/>
<text text-anchor="start" x="571.5" y="-111.5" font-family="Helvetica,sans-Serif" font-size="10.00">/home/runner/work/no</text>
<text text-anchor="start" x="571.5" y="-100.5" font-family="Helvetica,sans-Serif" font-size="10.00">&#45;OS/no&#45;OS/drivers/dac</text>
<text text-anchor="middle" x="655" y="-89.5" font-family="Helvetica,sans-Serif" font-size="10.00">/ad917x/ad917x_api/ad917x_reg.c</text>
</a>
</g>
</g>
<!-- Node2&#45;&gt;Node9 -->
<g id="edge8_Node000002_Node000009" class="edge">
<title>Node2&#45;&gt;Node9</title>
<g id="a_edge8_Node000002_Node000009"><a xlink:title=" ">
<path fill="none" stroke="#63b8ff" d="M518.61,-160.89C547.01,-149.04 581,-134.87 607.94,-123.63"/>
<polygon fill="#63b8ff" stroke="#63b8ff" points="517.1,-157.73 509.21,-164.81 519.79,-164.19 517.1,-157.73"/>
</a>
</g>
</g>
<!-- Node4 -->
<g id="Node000004" class="node">
<title>Node4</title>
<g id="a_Node000004"><a xlink:href="ad9172_8c.html" target="_top" xlink:title="Implementation of AD9172 Driver.">
<polygon fill="white" stroke="#666666" points="124,-41 0,-41 0,0 124,0 124,-41"/>
<text text-anchor="start" x="8" y="-29" font-family="Helvetica,sans-Serif" font-size="10.00">/home/runner/work/no</text>
<text text-anchor="start" x="8" y="-18" font-family="Helvetica,sans-Serif" font-size="10.00">&#45;OS/no&#45;OS/drivers/dac</text>
<text text-anchor="middle" x="62" y="-7" font-family="Helvetica,sans-Serif" font-size="10.00">/ad917x/ad9172.c</text>
</a>
</g>
</g>
<!-- Node3&#45;&gt;Node4 -->
<g id="edge3_Node000003_Node000004" class="edge">
<title>Node3&#45;&gt;Node4</title>
<g id="a_edge3_Node000003_Node000004"><a xlink:title=" ">
<path fill="none" stroke="#63b8ff" d="M112.94,-74.76C102.41,-63.74 90.48,-51.27 80.81,-41.17"/>
<polygon fill="#63b8ff" stroke="#63b8ff" points="110.52,-77.29 119.97,-82.1 115.58,-72.46 110.52,-77.29"/>
</a>
</g>
</g>
<!-- Node5 -->
<g id="Node000005" class="node">
<title>Node5</title>
<g id="a_Node000005"><a xlink:href="ad9172_2src_2main_8c.html" target="_top" xlink:title="Implementation of Main Function.">
<polygon fill="white" stroke="#666666" points="289.5,-41 142.5,-41 142.5,0 289.5,0 289.5,-41"/>
<text text-anchor="start" x="150.5" y="-29" font-family="Helvetica,sans-Serif" font-size="10.00">/home/runner/work/no</text>
<text text-anchor="start" x="150.5" y="-18" font-family="Helvetica,sans-Serif" font-size="10.00">&#45;OS/no&#45;OS/projects/ad9172</text>
<text text-anchor="middle" x="216" y="-7" font-family="Helvetica,sans-Serif" font-size="10.00">/src/main.c</text>
</a>
</g>
</g>
<!-- Node3&#45;&gt;Node5 -->
<g id="edge4_Node000003_Node000005" class="edge">
<title>Node3&#45;&gt;Node5</title>
<g id="a_edge4_Node000003_Node000005"><a xlink:title=" ">
<path fill="none" stroke="#63b8ff" d="M165.06,-74.76C175.59,-63.74 187.52,-51.27 197.19,-41.17"/>
<polygon fill="#63b8ff" stroke="#63b8ff" points="162.42,-72.46 158.03,-82.1 167.48,-77.29 162.42,-72.46"/>
</a>
</g>
</g>
<!-- Node10&#45;&gt;Node6 -->
<g id="edge10_Node000010_Node000006" class="edge">
<title>Node10&#45;&gt;Node6</title>
<g id="a_edge10_Node000010_Node000006"><a xlink:title=" ">
<path fill="none" stroke="#63b8ff" d="M713.35,-161.13C743.13,-149.21 778.93,-134.87 807.22,-123.54"/>
<polygon fill="#63b8ff" stroke="#63b8ff" points="711.9,-157.94 703.91,-164.91 714.5,-164.44 711.9,-157.94"/>
</a>
</g>
</g>
<!-- Node10&#45;&gt;Node7 -->
<g id="edge11_Node000010_Node000007" class="edge">
<title>Node10&#45;&gt;Node7</title>
<g id="a_edge11_Node000010_Node000007"><a xlink:title=" ">
<path fill="none" stroke="#63b8ff" d="M552.63,-164.6C489.22,-152.09 413.98,-136.89 382,-129 379.13,-128.29 376.22,-127.55 373.27,-126.79"/>
<polygon fill="#63b8ff" stroke="#63b8ff" points="552.21,-168.08 562.69,-166.58 553.56,-161.21 552.21,-168.08"/>
</a>
</g>
</g>
<!-- Node10&#45;&gt;Node8 -->
<g id="edge12_Node000010_Node000008" class="edge">
<title>Node10&#45;&gt;Node8</title>
<g id="a_edge12_Node000010_Node000008"><a xlink:title=" ">
<path fill="none" stroke="#63b8ff" d="M599.93,-160.79C576.79,-150.83 549.85,-139.23 526.37,-129.13"/>
<polygon fill="#63b8ff" stroke="#63b8ff" points="598.69,-164.07 609.25,-164.81 601.45,-157.64 598.69,-164.07"/>
</a>
</g>
</g>
<!-- Node10&#45;&gt;Node9 -->
<g id="edge13_Node000010_Node000009" class="edge">
<title>Node10&#45;&gt;Node9</title>
<g id="a_edge13_Node000010_Node000009"><a xlink:title=" ">
<path fill="none" stroke="#63b8ff" d="M655,-154.37C655,-144.1 655,-132.9 655,-123.67"/>
<polygon fill="#63b8ff" stroke="#63b8ff" points="651.5,-154.6 655,-164.6 658.5,-154.6 651.5,-154.6"/>
</a>
</g>
</g>
</g>
</svg>

<g id="navigator" transform="translate(0 0)" fill="#404254">
  <rect fill="#f2f5e9" fill-opacity="0.5" stroke="#606060" stroke-width=".5" x="0" y="0" width="60" height="60"/>
  <use id="zoomplus" xlink:href="#zoomPlus" x="17" y="9" onmousedown="handleZoom(evt,'in')"/>
  <use id="zoomminus" xlink:href="#zoomMin" x="42" y="9" onmousedown="handleZoom(evt,'out')"/>
  <use id="reset" xlink:href="#resetDef" x="30" y="36" onmousedown="handleReset()"/>
   <use id="arrowup" xlink:href="#arrowUp" x="0" y="0" onmousedown="handlePan(0,-1)"/>
  <use id="arrowright" xlink:href="#arrowRight" x="0" y="0" onmousedown="handlePan(1,0)"/>
  <use id="arrowdown" xlink:href="#arrowDown" x="0" y="0" onmousedown="handlePan(0,1)"/>
  <use id="arrowleft" xlink:href="#arrowLeft" x="0" y="0" onmousedown="handlePan(-1,0)"/>
</g>
<svg viewBox="0 0 15 15" width="100%" height="30px" preserveAspectRatio="xMaxYMin meet">
 <g id="arrow_out" transform="scale(0.3 0.3)">
  <a xlink:href="dac_2ad917x_2ad917x__api_2api__def_8h__dep__incl_org.svg" target="_base">
   <rect id="button" ry="5" rx="5" y="6" x="6" height="38" width="38"
        fill="#f2f5e9" fill-opacity="0.5" stroke="#606060" stroke-width="1.0"/>
   <path id="arrow"
     d="M 11.500037,31.436501 C 11.940474,20.09759 22.043105,11.32322 32.158766,21.979434 L 37.068811,17.246167 C 37.068811,17.246167 37.088388,32 37.088388,32 L 22.160133,31.978069 C 22.160133,31.978069 26.997745,27.140456 26.997745,27.140456 C 18.528582,18.264221 13.291696,25.230495 11.500037,31.436501 z"
     style="fill:#404040;"/>
  </a>
 </g>
</svg>

<style type='text/css'>
<![CDATA[
[data-mouse-over-selected='false'] { opacity: 0.7; }
[data-mouse-over-selected='true']  { opacity: 1.0; }
]]>
</style>
<script type="application/ecmascript"><![CDATA[
document.addEventListener('DOMContentLoaded', (event) => {
  highlightEdges();
  highlightAdjacentNodes();
});
]]></script>
</svg>
