<?xml version="1.0" encoding="UTF-8" standalone="no"?>
<!DOCTYPE svg PUBLIC "-//W3C//DTD SVG 1.1//EN"
 "http://www.w3.org/Graphics/SVG/1.1/DTD/svg11.dtd">
<!-- Generated by graphviz version 2.43.0 (0)
 -->
<!-- Title: /home/runner/work/no&#45;OS/no&#45;OS/drivers/dac/dac_demo/dac_demo.h Pages: 1 -->
<svg width="1370pt" height="236pt"
 viewBox="0.00 0.00 1370.00 236.00" xmlns="http://www.w3.org/2000/svg" xmlns:xlink="http://www.w3.org/1999/xlink">
<g id="graph0" class="graph" transform="scale(1 1) rotate(0) translate(4 232)">
<title>/home/runner/work/no&#45;OS/no&#45;OS/drivers/dac/dac_demo/dac_demo.h</title>
<!-- Node1 -->
<g id="Node000001" class="node">
<title>Node1</title>
<g id="a_Node000001"><a xlink:title="Header file of DAC Demo Driver.">
<polygon fill="#999999" stroke="#666666" points="837.5,-228 705.5,-228 705.5,-187 837.5,-187 837.5,-228"/>
<text text-anchor="start" x="713.5" y="-216" font-family="Helvetica,sans-Serif" font-size="10.00">/home/runner/work/no</text>
<text text-anchor="start" x="713.5" y="-205" font-family="Helvetica,sans-Serif" font-size="10.00">&#45;OS/no&#45;OS/drivers/dac</text>
<text text-anchor="middle" x="771.5" y="-194" font-family="Helvetica,sans-Serif" font-size="10.00">/dac_demo/dac_demo.h</text>
</a>
</g>
</g>
<!-- Node2 -->
<g id="Node000002" class="node">
<title>Node2</title>
<g id="a_Node000002"><a xlink:href="dac__demo_8c.html" target="_top" xlink:title="Implementation of DAC Demo Driver.">
<polygon fill="white" stroke="#666666" points="498,-145.5 367,-145.5 367,-104.5 498,-104.5 498,-145.5"/>
<text text-anchor="start" x="375" y="-133.5" font-family="Helvetica,sans-Serif" font-size="10.00">/home/runner/work/no</text>
<text text-anchor="start" x="375" y="-122.5" font-family="Helvetica,sans-Serif" font-size="10.00">&#45;OS/no&#45;OS/drivers/dac</text>
<text text-anchor="middle" x="432.5" y="-111.5" font-family="Helvetica,sans-Serif" font-size="10.00">/dac_demo/dac_demo.c</text>
</a>
</g>
</g>
<!-- Node1&#45;&gt;Node2 -->
<g id="edge1_Node000001_Node000002" class="edge">
<title>Node1&#45;&gt;Node2</title>
<g id="a_edge1_Node000001_Node000002"><a xlink:title=" ">
<path fill="none" stroke="#63b8ff" d="M695.31,-193.04C642.04,-183.03 569.45,-168.16 506.5,-151 500.48,-149.36 494.24,-147.5 488.04,-145.56"/>
<polygon fill="#63b8ff" stroke="#63b8ff" points="694.89,-196.53 705.37,-194.92 696.18,-189.64 694.89,-196.53"/>
</a>
</g>
</g>
<!-- Node3 -->
<g id="Node000003" class="node">
<title>Node3</title>
<g id="a_Node000003"><a xlink:href="iio__dac__demo_8h.html" target="_top" xlink:title="Header file of DAC Demo iio.">
<polygon fill="white" stroke="#666666" points="665,-145.5 516,-145.5 516,-104.5 665,-104.5 665,-145.5"/>
<text text-anchor="start" x="524" y="-133.5" font-family="Helvetica,sans-Serif" font-size="10.00">/home/runner/work/no</text>
<text text-anchor="start" x="524" y="-122.5" font-family="Helvetica,sans-Serif" font-size="10.00">&#45;OS/no&#45;OS/drivers/dac</text>
<text text-anchor="middle" x="590.5" y="-111.5" font-family="Helvetica,sans-Serif" font-size="10.00">/dac_demo/iio_dac_demo.h</text>
</a>
</g>
</g>
<!-- Node1&#45;&gt;Node3 -->
<g id="edge2_Node000001_Node000003" class="edge">
<title>Node1&#45;&gt;Node3</title>
<g id="a_edge2_Node000001_Node000003"><a xlink:title=" ">
<path fill="none" stroke="#63b8ff" d="M718.06,-182.73C691.5,-170.92 659.79,-156.82 634.63,-145.63"/>
<polygon fill="#63b8ff" stroke="#63b8ff" points="716.66,-185.94 727.22,-186.81 719.51,-179.55 716.66,-185.94"/>
</a>
</g>
</g>
<!-- Node10 -->
<g id="Node000010" class="node">
<title>Node10</title>
<g id="a_Node000010"><a xlink:href="iio__demo_2src_2common_2common__data_8h.html" target="_top" xlink:title="Defines common data to be used by iio_demo examples.">
<polygon fill="white" stroke="#666666" points="1049.5,-145.5 855.5,-145.5 855.5,-104.5 1049.5,-104.5 1049.5,-145.5"/>
<text text-anchor="start" x="863.5" y="-133.5" font-family="Helvetica,sans-Serif" font-size="10.00">/home/runner/work/no</text>
<text text-anchor="start" x="863.5" y="-122.5" font-family="Helvetica,sans-Serif" font-size="10.00">&#45;OS/no&#45;OS/projects/iio</text>
<text text-anchor="middle" x="952.5" y="-111.5" font-family="Helvetica,sans-Serif" font-size="10.00">_demo/src/common/common_data.h</text>
</a>
</g>
</g>
<!-- Node1&#45;&gt;Node10 -->
<g id="edge9_Node000001_Node000010" class="edge">
<title>Node1&#45;&gt;Node10</title>
<g id="a_edge9_Node000001_Node000010"><a xlink:title=" ">
<path fill="none" stroke="#63b8ff" d="M824.94,-182.73C851.5,-170.92 883.21,-156.82 908.37,-145.63"/>
<polygon fill="#63b8ff" stroke="#63b8ff" points="823.49,-179.55 815.78,-186.81 826.34,-185.94 823.49,-179.55"/>
</a>
</g>
</g>
<!-- Node12 -->
<g id="Node000012" class="node">
<title>Node12</title>
<g id="a_Node000012"><a xlink:href="iio__demo__free_r_t_o_s_2src_2common_2common__data_8h.html" target="_top" xlink:title=" ">
<polygon fill="white" stroke="#666666" points="1318,-151 1155,-151 1155,-99 1318,-99 1318,-151"/>
<text text-anchor="start" x="1163" y="-139" font-family="Helvetica,sans-Serif" font-size="10.00">/home/runner/work/no</text>
<text text-anchor="start" x="1163" y="-128" font-family="Helvetica,sans-Serif" font-size="10.00">&#45;OS/no&#45;OS/projects/iio</text>
<text text-anchor="start" x="1163" y="-117" font-family="Helvetica,sans-Serif" font-size="10.00">_demo_freeRTOS/src/common</text>
<text text-anchor="middle" x="1236.5" y="-106" font-family="Helvetica,sans-Serif" font-size="10.00">/common_data.h</text>
</a>
</g>
</g>
<!-- Node1&#45;&gt;Node12 -->
<g id="edge11_Node000001_Node000012" class="edge">
<title>Node1&#45;&gt;Node12</title>
<g id="a_edge11_Node000001_Node000012"><a xlink:title=" ">
<path fill="none" stroke="#63b8ff" d="M847.68,-193.31C932.26,-178.67 1068.26,-155.13 1154.95,-140.12"/>
<polygon fill="#63b8ff" stroke="#63b8ff" points="846.89,-189.9 837.63,-195.05 848.08,-196.79 846.89,-189.9"/>
</a>
</g>
</g>
<!-- Node4 -->
<g id="Node000004" class="node">
<title>Node4</title>
<g id="a_Node000004"><a xlink:href="iio__dac__demo_8c.html" target="_top" xlink:title="Implementation of iio_dac_demo.">
<polygon fill="white" stroke="#666666" points="149,-52 0,-52 0,-11 149,-11 149,-52"/>
<text text-anchor="start" x="8" y="-40" font-family="Helvetica,sans-Serif" font-size="10.00">/home/runner/work/no</text>
<text text-anchor="start" x="8" y="-29" font-family="Helvetica,sans-Serif" font-size="10.00">&#45;OS/no&#45;OS/drivers/dac</text>
<text text-anchor="middle" x="74.5" y="-18" font-family="Helvetica,sans-Serif" font-size="10.00">/dac_demo/iio_dac_demo.c</text>
</a>
</g>
</g>
<!-- Node3&#45;&gt;Node4 -->
<g id="edge3_Node000003_Node000004" class="edge">
<title>Node3&#45;&gt;Node4</title>
<g id="a_edge3_Node000003_Node000004"><a xlink:title=" ">
<path fill="none" stroke="#63b8ff" d="M519.92,-101.97C515.4,-100.88 510.9,-99.87 506.5,-99 353.99,-68.69 310.05,-97.8 158.5,-63 146.55,-60.26 133.98,-56.3 122.31,-52.15"/>
<polygon fill="#63b8ff" stroke="#63b8ff" points="519.26,-105.42 529.81,-104.49 520.99,-98.63 519.26,-105.42"/>
</a>
</g>
</g>
<!-- Node5 -->
<g id="Node000005" class="node">
<title>Node5</title>
<g id="a_Node000005"><a xlink:href="iio__dac__demo__trig_8c.html" target="_top" xlink:title="Implementation of iio_dac_demo_trig.c.">
<polygon fill="white" stroke="#666666" points="307.5,-57.5 167.5,-57.5 167.5,-5.5 307.5,-5.5 307.5,-57.5"/>
<text text-anchor="start" x="175.5" y="-45.5" font-family="Helvetica,sans-Serif" font-size="10.00">/home/runner/work/no</text>
<text text-anchor="start" x="175.5" y="-34.5" font-family="Helvetica,sans-Serif" font-size="10.00">&#45;OS/no&#45;OS/drivers/dac</text>
<text text-anchor="start" x="175.5" y="-23.5" font-family="Helvetica,sans-Serif" font-size="10.00">/dac_demo/iio_dac_demo</text>
<text text-anchor="middle" x="237.5" y="-12.5" font-family="Helvetica,sans-Serif" font-size="10.00">_trig.c</text>
</a>
</g>
</g>
<!-- Node3&#45;&gt;Node5 -->
<g id="edge4_Node000003_Node000005" class="edge">
<title>Node3&#45;&gt;Node5</title>
<g id="a_edge4_Node000003_Node000005"><a xlink:title=" ">
<path fill="none" stroke="#63b8ff" d="M517.52,-101.79C513.8,-100.82 510.11,-99.88 506.5,-99 422.98,-78.72 399.15,-86.57 316.5,-63 310.84,-61.39 305.03,-59.53 299.24,-57.55"/>
<polygon fill="#63b8ff" stroke="#63b8ff" points="516.82,-105.23 527.39,-104.47 518.65,-98.48 516.82,-105.23"/>
</a>
</g>
</g>
<!-- Node6 -->
<g id="Node000006" class="node">
<title>Node6</title>
<g id="a_Node000006"><a xlink:href="iio__demo_2src_2examples_2iio__example_2iio__example_8c.html" target="_top" xlink:title="Implementation of IIO example for iio_demo project.">
<polygon fill="white" stroke="#666666" points="461.5,-57.5 325.5,-57.5 325.5,-5.5 461.5,-5.5 461.5,-57.5"/>
<text text-anchor="start" x="333.5" y="-45.5" font-family="Helvetica,sans-Serif" font-size="10.00">/home/runner/work/no</text>
<text text-anchor="start" x="333.5" y="-34.5" font-family="Helvetica,sans-Serif" font-size="10.00">&#45;OS/no&#45;OS/projects/iio</text>
<text text-anchor="start" x="333.5" y="-23.5" font-family="Helvetica,sans-Serif" font-size="10.00">_demo/src/examples/iio</text>
<text text-anchor="middle" x="393.5" y="-12.5" font-family="Helvetica,sans-Serif" font-size="10.00">_example/iio_example.c</text>
</a>
</g>
</g>
<!-- Node3&#45;&gt;Node6 -->
<g id="edge5_Node000003_Node000006" class="edge">
<title>Node3&#45;&gt;Node6</title>
<g id="a_edge5_Node000003_Node000006"><a xlink:title=" ">
<path fill="none" stroke="#63b8ff" d="M538.95,-100.06C510.76,-86.96 475.87,-70.76 447.33,-57.5"/>
<polygon fill="#63b8ff" stroke="#63b8ff" points="537.69,-103.33 548.24,-104.37 540.64,-96.98 537.69,-103.33"/>
</a>
</g>
</g>
<!-- Node7 -->
<g id="Node000007" class="node">
<title>Node7</title>
<g id="a_Node000007"><a xlink:href="iio__sw__trigger__example_8c.html" target="_top" xlink:title="Implementation of IIO sw trigger example for iio_demo project.">
<polygon fill="white" stroke="#666666" points="615.5,-63 479.5,-63 479.5,0 615.5,0 615.5,-63"/>
<text text-anchor="start" x="487.5" y="-51" font-family="Helvetica,sans-Serif" font-size="10.00">/home/runner/work/no</text>
<text text-anchor="start" x="487.5" y="-40" font-family="Helvetica,sans-Serif" font-size="10.00">&#45;OS/no&#45;OS/projects/iio</text>
<text text-anchor="start" x="487.5" y="-29" font-family="Helvetica,sans-Serif" font-size="10.00">_demo/src/examples/iio</text>
<text text-anchor="start" x="487.5" y="-18" font-family="Helvetica,sans-Serif" font-size="10.00">_sw_trigger_example/iio</text>
<text text-anchor="middle" x="547.5" y="-7" font-family="Helvetica,sans-Serif" font-size="10.00">_sw_trigger_example.c</text>
</a>
</g>
</g>
<!-- Node3&#45;&gt;Node7 -->
<g id="edge6_Node000003_Node000007" class="edge">
<title>Node3&#45;&gt;Node7</title>
<g id="a_edge6_Node000003_Node000007"><a xlink:title=" ">
<path fill="none" stroke="#63b8ff" d="M576.82,-94.9C572.06,-84.76 566.71,-73.37 561.89,-63.12"/>
<polygon fill="#63b8ff" stroke="#63b8ff" points="573.75,-96.58 581.17,-104.15 580.08,-93.61 573.75,-96.58"/>
</a>
</g>
</g>
<!-- Node8 -->
<g id="Node000008" class="node">
<title>Node8</title>
<g id="a_Node000008"><a xlink:href="iio__demo_2src_2examples_2iio__timer__trigger__example_2iio__timer__trigger__example_8c.html" target="_top" xlink:title=" ">
<polygon fill="white" stroke="#666666" points="783,-63 634,-63 634,0 783,0 783,-63"/>
<text text-anchor="start" x="642" y="-51" font-family="Helvetica,sans-Serif" font-size="10.00">/home/runner/work/no</text>
<text text-anchor="start" x="642" y="-40" font-family="Helvetica,sans-Serif" font-size="10.00">&#45;OS/no&#45;OS/projects/iio</text>
<text text-anchor="start" x="642" y="-29" font-family="Helvetica,sans-Serif" font-size="10.00">_demo/src/examples/iio</text>
<text text-anchor="start" x="642" y="-18" font-family="Helvetica,sans-Serif" font-size="10.00">_timer_trigger_example/iio</text>
<text text-anchor="middle" x="708.5" y="-7" font-family="Helvetica,sans-Serif" font-size="10.00">_timer_trigger_example.c</text>
</a>
</g>
</g>
<!-- Node3&#45;&gt;Node8 -->
<g id="edge7_Node000003_Node000008" class="edge">
<title>Node3&#45;&gt;Node8</title>
<g id="a_edge7_Node000003_Node000008"><a xlink:title=" ">
<path fill="none" stroke="#63b8ff" d="M623.76,-98.21C637.77,-87.35 654.2,-74.61 668.84,-63.26"/>
<polygon fill="#63b8ff" stroke="#63b8ff" points="621.57,-95.48 615.81,-104.37 625.86,-101.01 621.57,-95.48"/>
</a>
</g>
</g>
<!-- Node9 -->
<g id="Node000009" class="node">
<title>Node9</title>
<g id="a_Node000009"><a xlink:href="iio__demo__free_r_t_o_s_2src_2examples_2iio__example_2iio__example_8c.html" target="_top" xlink:title="Implementation of IIO example for iio_demo_freeRTOS project.">
<polygon fill="white" stroke="#666666" points="968.5,-57.5 800.5,-57.5 800.5,-5.5 968.5,-5.5 968.5,-57.5"/>
<text text-anchor="start" x="808.5" y="-45.5" font-family="Helvetica,sans-Serif" font-size="10.00">/home/runner/work/no</text>
<text text-anchor="start" x="808.5" y="-34.5" font-family="Helvetica,sans-Serif" font-size="10.00">&#45;OS/no&#45;OS/projects/iio</text>
<text text-anchor="start" x="808.5" y="-23.5" font-family="Helvetica,sans-Serif" font-size="10.00">_demo_freeRTOS/src/examples</text>
<text text-anchor="middle" x="884.5" y="-12.5" font-family="Helvetica,sans-Serif" font-size="10.00">/iio_example/iio_example.c</text>
</a>
</g>
</g>
<!-- Node3&#45;&gt;Node9 -->
<g id="edge8_Node000003_Node000009" class="edge">
<title>Node3&#45;&gt;Node9</title>
<g id="a_edge8_Node000003_Node000009"><a xlink:title=" ">
<path fill="none" stroke="#63b8ff" d="M666.14,-101.48C703.87,-90.13 750.16,-76.05 791.5,-63 797.09,-61.24 802.86,-59.39 808.67,-57.52"/>
<polygon fill="#63b8ff" stroke="#63b8ff" points="664.82,-98.22 656.24,-104.45 666.83,-104.93 664.82,-98.22"/>
</a>
</g>
</g>
<!-- Node11 -->
<g id="Node000011" class="node">
<title>Node11</title>
<g id="a_Node000011"><a xlink:href="iio__demo_2src_2common_2common__data_8c.html" target="_top" xlink:title="Defines common data to be used by iio_demo examples.">
<polygon fill="white" stroke="#666666" points="1180.5,-52 986.5,-52 986.5,-11 1180.5,-11 1180.5,-52"/>
<text text-anchor="start" x="994.5" y="-40" font-family="Helvetica,sans-Serif" font-size="10.00">/home/runner/work/no</text>
<text text-anchor="start" x="994.5" y="-29" font-family="Helvetica,sans-Serif" font-size="10.00">&#45;OS/no&#45;OS/projects/iio</text>
<text text-anchor="middle" x="1083.5" y="-18" font-family="Helvetica,sans-Serif" font-size="10.00">_demo/src/common/common_data.c</text>
</a>
</g>
</g>
<!-- Node10&#45;&gt;Node11 -->
<g id="edge10_Node000010_Node000011" class="edge">
<title>Node10&#45;&gt;Node11</title>
<g id="a_edge10_Node000010_Node000011"><a xlink:title=" ">
<path fill="none" stroke="#63b8ff" d="M988.98,-98.52C1010,-83.84 1036.03,-65.66 1055.44,-52.1"/>
<polygon fill="#63b8ff" stroke="#63b8ff" points="986.8,-95.78 980.6,-104.37 990.81,-101.51 986.8,-95.78"/>
</a>
</g>
</g>
<!-- Node13 -->
<g id="Node000013" class="node">
<title>Node13</title>
<g id="a_Node000013"><a xlink:href="iio__demo__free_r_t_o_s_2src_2common_2common__data_8c.html" target="_top" xlink:title="Defines common data to be used by iio_demo_freeRTOS examples.">
<polygon fill="white" stroke="#666666" points="1362,-57.5 1199,-57.5 1199,-5.5 1362,-5.5 1362,-57.5"/>
<text text-anchor="start" x="1207" y="-45.5" font-family="Helvetica,sans-Serif" font-size="10.00">/home/runner/work/no</text>
<text text-anchor="start" x="1207" y="-34.5" font-family="Helvetica,sans-Serif" font-size="10.00">&#45;OS/no&#45;OS/projects/iio</text>
<text text-anchor="start" x="1207" y="-23.5" font-family="Helvetica,sans-Serif" font-size="10.00">_demo_freeRTOS/src/common</text>
<text text-anchor="middle" x="1280.5" y="-12.5" font-family="Helvetica,sans-Serif" font-size="10.00">/common_data.c</text>
</a>
</g>
</g>
<!-- Node12&#45;&gt;Node13 -->
<g id="edge12_Node000012_Node000013" class="edge">
<title>Node12&#45;&gt;Node13</title>
<g id="a_edge12_Node000012_Node000013"><a xlink:title=" ">
<path fill="none" stroke="#63b8ff" d="M1252.88,-89.93C1258,-79.28 1263.56,-67.73 1268.34,-57.79"/>
<polygon fill="#63b8ff" stroke="#63b8ff" points="1249.7,-88.47 1248.52,-99 1256.01,-91.5 1249.7,-88.47"/>
</a>
</g>
</g>
</g>
</svg>
