<?xml version="1.0" encoding="UTF-8" standalone="no"?>
<!DOCTYPE svg PUBLIC "-//W3C//DTD SVG 1.1//EN"
 "http://www.w3.org/Graphics/SVG/1.1/DTD/svg11.dtd">
<!-- Generated by graphviz version 2.43.0 (0)
 -->
<!-- Title: /home/runner/work/no&#45;OS/no&#45;OS/projects/ad74416h/src/examples/digital_input_logic/digital_input_logic.c Pages: 1 -->
<svg width="574pt" height="225pt"
 viewBox="0.00 0.00 573.50 225.00" xmlns="http://www.w3.org/2000/svg" xmlns:xlink="http://www.w3.org/1999/xlink">
<g id="graph0" class="graph" transform="scale(1 1) rotate(0) translate(4 221)">
<title>/home/runner/work/no&#45;OS/no&#45;OS/projects/ad74416h/src/examples/digital_input_logic/digital_input_logic.c</title>
<!-- Node1 -->
<g id="Node000001" class="node">
<title>Node1</title>
<g id="a_Node000001"><a xlink:title="Digital Input Logic example code for ad74416h&#45;pmdz project This example configures Channel A as a Dig...">
<polygon fill="#999999" stroke="#666666" points="333,-217 174,-217 174,-165 333,-165 333,-217"/>
<text text-anchor="start" x="182" y="-205" font-family="Helvetica,sans-Serif" font-size="10.00">/home/runner/work/no</text>
<text text-anchor="start" x="182" y="-194" font-family="Helvetica,sans-Serif" font-size="10.00">&#45;OS/no&#45;OS/projects/ad74416h</text>
<text text-anchor="start" x="182" y="-183" font-family="Helvetica,sans-Serif" font-size="10.00">/src/examples/digital_input</text>
<text text-anchor="middle" x="253.5" y="-172" font-family="Helvetica,sans-Serif" font-size="10.00">_logic/digital_input_logic.c</text>
</a>
</g>
</g>
<!-- Node2 -->
<g id="Node000002" class="node">
<title>Node2</title>
<g id="a_Node000002"><a xlink:title=" ">
<polygon fill="#e0e0e0" stroke="#999999" points="95,-129 0,-129 0,-110 95,-110 95,-129"/>
<text text-anchor="middle" x="47.5" y="-117" font-family="Helvetica,sans-Serif" font-size="10.00">common_data.h</text>
</a>
</g>
</g>
<!-- Node1&#45;&gt;Node2 -->
<g id="edge1_Node000001_Node000002" class="edge">
<title>Node1&#45;&gt;Node2</title>
<g id="a_edge1_Node000001_Node000002"><a xlink:title=" ">
<path fill="none" stroke="#63b8ff" d="M179.13,-164.91C146.22,-153.81 109.08,-141.28 82.66,-132.36"/>
<polygon fill="#63b8ff" stroke="#63b8ff" points="83.69,-129.02 73.1,-129.14 81.45,-135.65 83.69,-129.02"/>
</a>
</g>
</g>
<!-- Node3 -->
<g id="Node000003" class="node">
<title>Node3</title>
<g id="a_Node000003"><a xlink:href="ad74416h_8h.html" target="_top" xlink:title="Header file of AD74416h Driver.">
<polygon fill="white" stroke="#666666" points="290.5,-129 216.5,-129 216.5,-110 290.5,-110 290.5,-129"/>
<text text-anchor="middle" x="253.5" y="-117" font-family="Helvetica,sans-Serif" font-size="10.00">ad74416h.h</text>
</a>
</g>
</g>
<!-- Node1&#45;&gt;Node3 -->
<g id="edge2_Node000001_Node000003" class="edge">
<title>Node1&#45;&gt;Node3</title>
<g id="a_edge2_Node000001_Node000003"><a xlink:title=" ">
<path fill="none" stroke="#63b8ff" d="M253.5,-164.91C253.5,-156.55 253.5,-147.38 253.5,-139.55"/>
<polygon fill="#63b8ff" stroke="#63b8ff" points="257,-139.3 253.5,-129.3 250,-139.3 257,-139.3"/>
</a>
</g>
</g>
<!-- Node8 -->
<g id="Node000008" class="node">
<title>Node8</title>
<g id="a_Node000008"><a xlink:href="no__os__delay_8h.html" target="_top" xlink:title="Header file of Delay functions.">
<polygon fill="white" stroke="#666666" points="198,-129 113,-129 113,-110 198,-110 198,-129"/>
<text text-anchor="middle" x="155.5" y="-117" font-family="Helvetica,sans-Serif" font-size="10.00">no_os_delay.h</text>
</a>
</g>
</g>
<!-- Node1&#45;&gt;Node8 -->
<g id="edge9_Node000001_Node000008" class="edge">
<title>Node1&#45;&gt;Node8</title>
<g id="a_edge9_Node000001_Node000008"><a xlink:title=" ">
<path fill="none" stroke="#63b8ff" d="M218.12,-164.91C204,-154.9 188.25,-143.72 176.07,-135.09"/>
<polygon fill="#63b8ff" stroke="#63b8ff" points="178.09,-132.23 167.91,-129.3 174.04,-137.94 178.09,-132.23"/>
</a>
</g>
</g>
<!-- Node9 -->
<g id="Node000009" class="node">
<title>Node9</title>
<g id="a_Node000009"><a xlink:href="no__os__print__log_8h.html" target="_top" xlink:title="Print messages helpers.">
<polygon fill="white" stroke="#666666" points="565.5,-129 463.5,-129 463.5,-110 565.5,-110 565.5,-129"/>
<text text-anchor="middle" x="514.5" y="-117" font-family="Helvetica,sans-Serif" font-size="10.00">no_os_print_log.h</text>
</a>
</g>
</g>
<!-- Node1&#45;&gt;Node9 -->
<g id="edge11_Node000001_Node000009" class="edge">
<title>Node1&#45;&gt;Node9</title>
<g id="a_edge11_Node000001_Node000009"><a xlink:title=" ">
<path fill="none" stroke="#63b8ff" d="M333.23,-168.77C379.13,-156.55 434.97,-141.68 472.43,-131.7"/>
<polygon fill="#63b8ff" stroke="#63b8ff" points="473.73,-134.98 482.49,-129.02 471.93,-128.21 473.73,-134.98"/>
</a>
</g>
</g>
<!-- Node11 -->
<g id="Node000011" class="node">
<title>Node11</title>
<g id="a_Node000011"><a xlink:href="no__os__util_8h.html" target="_top" xlink:title="Header file of utility functions.">
<polygon fill="white" stroke="#666666" points="410,-129 335,-129 335,-110 410,-110 410,-129"/>
<text text-anchor="middle" x="372.5" y="-117" font-family="Helvetica,sans-Serif" font-size="10.00">no_os_util.h</text>
</a>
</g>
</g>
<!-- Node1&#45;&gt;Node11 -->
<g id="edge13_Node000001_Node000011" class="edge">
<title>Node1&#45;&gt;Node11</title>
<g id="a_edge13_Node000001_Node000011"><a xlink:title=" ">
<path fill="none" stroke="#63b8ff" d="M296.46,-164.91C314.05,-154.64 333.73,-143.15 348.66,-134.43"/>
<polygon fill="#63b8ff" stroke="#63b8ff" points="350.84,-137.2 357.71,-129.14 347.31,-131.16 350.84,-137.2"/>
</a>
</g>
</g>
<!-- Node4 -->
<g id="Node000004" class="node">
<title>Node4</title>
<g id="a_Node000004"><a xlink:title=" ">
<polygon fill="#e0e0e0" stroke="#999999" points="215,-19 162,-19 162,0 215,0 215,-19"/>
<text text-anchor="middle" x="188.5" y="-7" font-family="Helvetica,sans-Serif" font-size="10.00">stdint.h</text>
</a>
</g>
</g>
<!-- Node3&#45;&gt;Node4 -->
<g id="edge3_Node000003_Node000004" class="edge">
<title>Node3&#45;&gt;Node4</title>
<g id="a_edge3_Node000003_Node000004"><a xlink:title=" ">
<path fill="none" stroke="#63b8ff" d="M241.65,-109.9C231.23,-101.75 216.39,-88.62 207.5,-74 199.09,-60.17 194.19,-42.38 191.48,-29.14"/>
<polygon fill="#63b8ff" stroke="#63b8ff" points="194.92,-28.5 189.68,-19.29 188.03,-29.75 194.92,-28.5"/>
</a>
</g>
</g>
<!-- Node5 -->
<g id="Node000005" class="node">
<title>Node5</title>
<g id="a_Node000005"><a xlink:title=" ">
<polygon fill="#e0e0e0" stroke="#999999" points="370.5,-74 308.5,-74 308.5,-55 370.5,-55 370.5,-74"/>
<text text-anchor="middle" x="339.5" y="-62" font-family="Helvetica,sans-Serif" font-size="10.00">stdbool.h</text>
</a>
</g>
</g>
<!-- Node3&#45;&gt;Node5 -->
<g id="edge4_Node000003_Node000005" class="edge">
<title>Node3&#45;&gt;Node5</title>
<g id="a_edge4_Node000003_Node000005"><a xlink:title=" ">
<path fill="none" stroke="#63b8ff" d="M267.32,-109.98C280.65,-101.77 301.08,-89.18 316.81,-79.49"/>
<polygon fill="#63b8ff" stroke="#63b8ff" points="318.75,-82.4 325.43,-74.17 315.08,-76.44 318.75,-82.4"/>
</a>
</g>
</g>
<!-- Node6 -->
<g id="Node000006" class="node">
<title>Node6</title>
<g id="a_Node000006"><a xlink:href="no__os__spi_8h.html" target="_top" xlink:title="Header file of SPI Interface.">
<polygon fill="white" stroke="#666666" points="290.5,-74 216.5,-74 216.5,-55 290.5,-55 290.5,-74"/>
<text text-anchor="middle" x="253.5" y="-62" font-family="Helvetica,sans-Serif" font-size="10.00">no_os_spi.h</text>
</a>
</g>
</g>
<!-- Node3&#45;&gt;Node6 -->
<g id="edge5_Node000003_Node000006" class="edge">
<title>Node3&#45;&gt;Node6</title>
<g id="a_edge5_Node000003_Node000006"><a xlink:title=" ">
<path fill="none" stroke="#63b8ff" d="M253.5,-109.75C253.5,-102.8 253.5,-92.85 253.5,-84.13"/>
<polygon fill="#63b8ff" stroke="#63b8ff" points="257,-84.09 253.5,-74.09 250,-84.09 257,-84.09"/>
</a>
</g>
</g>
<!-- Node7 -->
<g id="Node000007" class="node">
<title>Node7</title>
<g id="a_Node000007"><a xlink:href="no__os__gpio_8h.html" target="_top" xlink:title="Header file of GPIO Interface.">
<polygon fill="white" stroke="#666666" points="160.5,-74 80.5,-74 80.5,-55 160.5,-55 160.5,-74"/>
<text text-anchor="middle" x="120.5" y="-62" font-family="Helvetica,sans-Serif" font-size="10.00">no_os_gpio.h</text>
</a>
</g>
</g>
<!-- Node3&#45;&gt;Node7 -->
<g id="edge7_Node000003_Node000007" class="edge">
<title>Node3&#45;&gt;Node7</title>
<g id="a_edge7_Node000003_Node000007"><a xlink:title=" ">
<path fill="none" stroke="#63b8ff" d="M232.13,-109.98C210.35,-101.3 176.34,-87.75 151.58,-77.88"/>
<polygon fill="#63b8ff" stroke="#63b8ff" points="152.84,-74.62 142.26,-74.17 150.25,-81.12 152.84,-74.62"/>
</a>
</g>
</g>
<!-- Node6&#45;&gt;Node4 -->
<g id="edge6_Node000006_Node000004" class="edge">
<title>Node6&#45;&gt;Node4</title>
<g id="a_edge6_Node000006_Node000004"><a xlink:title=" ">
<path fill="none" stroke="#63b8ff" d="M243.06,-54.98C233.35,-47.07 218.68,-35.11 207,-25.58"/>
<polygon fill="#63b8ff" stroke="#63b8ff" points="209.1,-22.78 199.13,-19.17 204.67,-28.2 209.1,-22.78"/>
</a>
</g>
</g>
<!-- Node7&#45;&gt;Node4 -->
<g id="edge8_Node000007_Node000004" class="edge">
<title>Node7&#45;&gt;Node4</title>
<g id="a_edge8_Node000007_Node000004"><a xlink:title=" ">
<path fill="none" stroke="#63b8ff" d="M131.43,-54.98C141.58,-47.07 156.92,-35.11 169.15,-25.58"/>
<polygon fill="#63b8ff" stroke="#63b8ff" points="171.64,-28.08 177.38,-19.17 167.34,-22.56 171.64,-28.08"/>
</a>
</g>
</g>
<!-- Node8&#45;&gt;Node4 -->
<g id="edge10_Node000008_Node000004" class="edge">
<title>Node8&#45;&gt;Node4</title>
<g id="a_edge10_Node000008_Node000004"><a xlink:title=" ">
<path fill="none" stroke="#63b8ff" d="M125.82,-109.93C95.2,-99.5 54.17,-80.13 71.5,-55 89.44,-28.98 124.75,-18.16 151.91,-13.67"/>
<polygon fill="#63b8ff" stroke="#63b8ff" points="152.47,-17.13 161.87,-12.24 151.47,-10.2 152.47,-17.13"/>
</a>
</g>
</g>
<!-- Node10 -->
<g id="Node000010" class="node">
<title>Node10</title>
<g id="a_Node000010"><a xlink:title=" ">
<polygon fill="#e0e0e0" stroke="#999999" points="548.5,-74 498.5,-74 498.5,-55 548.5,-55 548.5,-74"/>
<text text-anchor="middle" x="523.5" y="-62" font-family="Helvetica,sans-Serif" font-size="10.00">stdio.h</text>
</a>
</g>
</g>
<!-- Node9&#45;&gt;Node10 -->
<g id="edge12_Node000009_Node000010" class="edge">
<title>Node9&#45;&gt;Node10</title>
<g id="a_edge12_Node000009_Node000010"><a xlink:title=" ">
<path fill="none" stroke="#63b8ff" d="M515.99,-109.75C517.17,-102.8 518.86,-92.85 520.34,-84.13"/>
<polygon fill="#63b8ff" stroke="#63b8ff" points="523.82,-84.53 522.04,-74.09 516.92,-83.36 523.82,-84.53"/>
</a>
</g>
</g>
<!-- Node11&#45;&gt;Node4 -->
<g id="edge14_Node000011_Node000004" class="edge">
<title>Node11&#45;&gt;Node4</title>
<g id="a_edge14_Node000011_Node000004"><a xlink:title=" ">
<path fill="none" stroke="#63b8ff" d="M377.06,-109.61C383.22,-96.24 392.05,-70.81 379.5,-55 360.63,-31.22 275.38,-18.98 225.38,-13.74"/>
<polygon fill="#63b8ff" stroke="#63b8ff" points="225.58,-10.24 215.28,-12.72 224.88,-17.21 225.58,-10.24"/>
</a>
</g>
</g>
<!-- Node11&#45;&gt;Node5 -->
<g id="edge16_Node000011_Node000005" class="edge">
<title>Node11&#45;&gt;Node5</title>
<g id="a_edge16_Node000011_Node000005"><a xlink:title=" ">
<path fill="none" stroke="#63b8ff" d="M367.05,-109.75C362.49,-102.42 355.83,-91.73 350.21,-82.7"/>
<polygon fill="#63b8ff" stroke="#63b8ff" points="353.1,-80.73 344.85,-74.09 347.16,-84.43 353.1,-80.73"/>
</a>
</g>
</g>
<!-- Node12 -->
<g id="Node000012" class="node">
<title>Node12</title>
<g id="a_Node000012"><a xlink:title=" ">
<polygon fill="#e0e0e0" stroke="#999999" points="480,-74 427,-74 427,-55 480,-55 480,-74"/>
<text text-anchor="middle" x="453.5" y="-62" font-family="Helvetica,sans-Serif" font-size="10.00">stdlib.h</text>
</a>
</g>
</g>
<!-- Node11&#45;&gt;Node12 -->
<g id="edge15_Node000011_Node000012" class="edge">
<title>Node11&#45;&gt;Node12</title>
<g id="a_edge15_Node000011_Node000012"><a xlink:title=" ">
<path fill="none" stroke="#63b8ff" d="M385.51,-109.98C397.96,-101.84 416.96,-89.41 431.71,-79.76"/>
<polygon fill="#63b8ff" stroke="#63b8ff" points="433.8,-82.57 440.25,-74.17 429.96,-76.72 433.8,-82.57"/>
</a>
</g>
</g>
</g>
</svg>
