<?xml version="1.0" encoding="UTF-8" standalone="no"?>
<!DOCTYPE svg PUBLIC "-//W3C//DTD SVG 1.1//EN"
 "http://www.w3.org/Graphics/SVG/1.1/DTD/svg11.dtd">
<!-- Generated by graphviz version 2.43.0 (0)
 -->
<!-- Title: /home/runner/work/no&#45;OS/no&#45;OS/drivers/motor Pages: 1 -->
<svg width="357pt" height="141pt"
 viewBox="0.00 0.00 357.00 141.00" xmlns="http://www.w3.org/2000/svg" xmlns:xlink="http://www.w3.org/1999/xlink">
<g id="graph0" class="graph" transform="scale(1 1) rotate(0) translate(4 137)">
<title>/home/runner/work/no&#45;OS/no&#45;OS/drivers/motor</title>
<g id="clust1" class="cluster">
<title>clusterdir_ae43f2845e5bc2a3c78c585043f3b07d</title>
<g id="a_clust1"><a xlink:href="dir_ae43f2845e5bc2a3c78c585043f3b07d.html" target="_top" xlink:title="drivers">
<polygon fill="#edf0f7" stroke="#7f7f7f" stroke-dasharray="5,2" points="8,-8 8,-125 241,-125 241,-8 8,-8"/>
<text text-anchor="middle" x="124.5" y="-113" font-family="Helvetica,sans-Serif" font-size="10.00">drivers</text>
</a>
</g>
</g>
<g id="clust2" class="cluster">
<title>clusterdir_1b30a73c057a6cdc76c3eef5f0c3622e</title>
<g id="a_clust2"><a xlink:href="dir_1b30a73c057a6cdc76c3eef5f0c3622e.html" target="_top">
<polygon fill="#edf0f7" stroke="#404040" stroke-width="2" points="16,-63 16,-98 233,-98 233,-63 16,-63"/>
</a>
</g>
</g>
<!-- dir_e8fab166c39ad9f1c2b918cbca664257 -->
<g id="node1" class="node">
<title>dir_e8fab166c39ad9f1c2b918cbca664257</title>
<g id="a_node1"><a xlink:href="dir_e8fab166c39ad9f1c2b918cbca664257.html" target="_top" xlink:title="platform">
<polygon fill="#a2b4d6" stroke="red" points="83.5,-35 24.5,-35 24.5,-16 83.5,-16 83.5,-35"/>
<text text-anchor="middle" x="54" y="-23" font-family="Helvetica,sans-Serif" font-size="10.00">platform</text>
</a>
</g>
</g>
<!-- dir_1b30a73c057a6cdc76c3eef5f0c3622e -->
<g id="node2" class="node">
<title>dir_1b30a73c057a6cdc76c3eef5f0c3622e</title>
<text text-anchor="middle" x="202" y="-78" font-family="Helvetica,sans-Serif" font-size="10.00">motor</text>
</g>
<!-- dir_a244e7b8b24b1f65290251287c534fcf -->
<g id="node3" class="node">
<title>dir_a244e7b8b24b1f65290251287c534fcf</title>
<g id="a_node3"><a xlink:href="dir_a244e7b8b24b1f65290251287c534fcf.html" target="_top" xlink:title="tmc5240">
<polygon fill="#a2b4d6" stroke="#404040" points="83.5,-90 24.5,-90 24.5,-71 83.5,-71 83.5,-90"/>
<text text-anchor="middle" x="54" y="-78" font-family="Helvetica,sans-Serif" font-size="10.00">tmc5240</text>
</a>
</g>
</g>
<!-- dir_a244e7b8b24b1f65290251287c534fcf&#45;&gt;dir_e8fab166c39ad9f1c2b918cbca664257 -->
<g id="edge3" class="edge">
<title>dir_a244e7b8b24b1f65290251287c534fcf&#45;&gt;dir_e8fab166c39ad9f1c2b918cbca664257</title>
<g id="a_edge3"><a xlink:href="dir_001275_000966.html" target="_top">
<path fill="none" stroke="#63b8ff" d="M54,-70.75C54,-63.8 54,-53.85 54,-45.13"/>
<polygon fill="#63b8ff" stroke="#63b8ff" points="57.5,-45.09 54,-35.09 50.5,-45.09 57.5,-45.09"/>
</a>
</g>
<g id="a_edge3&#45;headlabel"><a xlink:href="dir_001275_000966.html" target="_top" xlink:title="1">
<text text-anchor="middle" x="60.34" y="-46.18" font-family="Helvetica,sans-Serif" font-size="10.00" fill="#63b8ff">1</text>
</a>
</g>
</g>
<!-- dir_6b32e8ebbe7a92323e8e3528c2c140d7 -->
<g id="node5" class="node">
<title>dir_6b32e8ebbe7a92323e8e3528c2c140d7</title>
<g id="a_node5"><a xlink:href="dir_6b32e8ebbe7a92323e8e3528c2c140d7.html" target="_top" xlink:title="include">
<polygon fill="#edf0f7" stroke="#7f7f7f" points="349,-35 297,-35 297,-16 349,-16 349,-35"/>
<text text-anchor="middle" x="323" y="-23" font-family="Helvetica,sans-Serif" font-size="10.00">include</text>
</a>
</g>
</g>
<!-- dir_a244e7b8b24b1f65290251287c534fcf&#45;&gt;dir_6b32e8ebbe7a92323e8e3528c2c140d7 -->
<g id="edge1" class="edge">
<title>dir_a244e7b8b24b1f65290251287c534fcf&#45;&gt;dir_6b32e8ebbe7a92323e8e3528c2c140d7</title>
<g id="a_edge1"><a xlink:href="dir_001275_000738.html" target="_top">
<path fill="none" stroke="#63b8ff" d="M71.05,-70.94C77.47,-68.02 84.94,-65 92,-63 173.61,-39.91 199.71,-50.76 286.65,-35.06"/>
<polygon fill="#63b8ff" stroke="#63b8ff" points="287.5,-38.46 296.69,-33.18 286.21,-31.58 287.5,-38.46"/>
</a>
</g>
<g id="a_edge1&#45;headlabel"><a xlink:href="dir_001275_000738.html" target="_top" xlink:title="11">
<text text-anchor="middle" x="284.49" y="-39.41" font-family="Helvetica,sans-Serif" font-size="10.00" fill="#63b8ff">11</text>
</a>
</g>
</g>
<!-- dir_81990cfc34a6492ee52a8638792ffab8 -->
<g id="node6" class="node">
<title>dir_81990cfc34a6492ee52a8638792ffab8</title>
<g id="a_node6"><a xlink:href="dir_81990cfc34a6492ee52a8638792ffab8.html" target="_top" xlink:title="iio">
<polygon fill="#edf0f7" stroke="red" stroke-dasharray="5,2" points="278.5,-35 249.5,-35 249.5,-16 278.5,-16 278.5,-35"/>
<text text-anchor="middle" x="264" y="-23" font-family="Helvetica,sans-Serif" font-size="10.00">iio</text>
</a>
</g>
</g>
<!-- dir_a244e7b8b24b1f65290251287c534fcf&#45;&gt;dir_81990cfc34a6492ee52a8638792ffab8 -->
<g id="edge2" class="edge">
<title>dir_a244e7b8b24b1f65290251287c534fcf&#45;&gt;dir_81990cfc34a6492ee52a8638792ffab8</title>
<g id="a_edge2"><a xlink:href="dir_001275_000658.html" target="_top">
<path fill="none" stroke="#63b8ff" d="M71.47,-70.92C77.82,-68.07 85.12,-65.09 92,-63 154.91,-43.86 176.83,-54.33 239.25,-36.5"/>
<polygon fill="#63b8ff" stroke="#63b8ff" points="240.62,-39.75 249.2,-33.53 238.61,-33.04 240.62,-39.75"/>
</a>
</g>
<g id="a_edge2&#45;headlabel"><a xlink:href="dir_001275_000658.html" target="_top" xlink:title="1">
<text text-anchor="middle" x="237.99" y="-41" font-family="Helvetica,sans-Serif" font-size="10.00" fill="#63b8ff">1</text>
</a>
</g>
</g>
<!-- dir_dbade38c2655e58961c6da2000729726 -->
<g id="node4" class="node">
<title>dir_dbade38c2655e58961c6da2000729726</title>
<g id="a_node4"><a xlink:href="dir_dbade38c2655e58961c6da2000729726.html" target="_top" xlink:title="tmc7300">
<polygon fill="#a2b4d6" stroke="#404040" points="160.5,-90 101.5,-90 101.5,-71 160.5,-71 160.5,-90"/>
<text text-anchor="middle" x="131" y="-78" font-family="Helvetica,sans-Serif" font-size="10.00">tmc7300</text>
</a>
</g>
</g>
<!-- dir_dbade38c2655e58961c6da2000729726&#45;&gt;dir_6b32e8ebbe7a92323e8e3528c2c140d7 -->
<g id="edge4" class="edge">
<title>dir_dbade38c2655e58961c6da2000729726&#45;&gt;dir_6b32e8ebbe7a92323e8e3528c2c140d7</title>
<g id="a_edge4"><a xlink:href="dir_001276_000738.html" target="_top">
<path fill="none" stroke="#63b8ff" d="M149.41,-70.97C155.83,-68.19 163.15,-65.24 170,-63 218.32,-47.17 233.84,-47.49 286.69,-35.26"/>
<polygon fill="#63b8ff" stroke="#63b8ff" points="287.7,-38.62 296.63,-32.92 286.09,-31.81 287.7,-38.62"/>
</a>
</g>
<g id="a_edge4&#45;headlabel"><a xlink:href="dir_001276_000738.html" target="_top" xlink:title="6">
<text text-anchor="middle" x="284.85" y="-39.71" font-family="Helvetica,sans-Serif" font-size="10.00" fill="#63b8ff">6</text>
</a>
</g>
</g>
</g>
</svg>
