<?xml version="1.0" encoding="UTF-8" standalone="no"?>
<!DOCTYPE svg PUBLIC "-//W3C//DTD SVG 1.1//EN"
 "http://www.w3.org/Graphics/SVG/1.1/DTD/svg11.dtd">
<!-- Generated by graphviz version 2.43.0 (0)
 -->
<!-- Title: /home/runner/work/no&#45;OS/no&#45;OS/projects/ad5460/src/examples Pages: 1 -->
<svg width="650pt" height="125pt"
 viewBox="0.00 0.00 650.00 125.00" xmlns="http://www.w3.org/2000/svg" xmlns:xlink="http://www.w3.org/1999/xlink">
<g id="graph0" class="graph" transform="scale(1 1) rotate(0) translate(4 121)">
<title>/home/runner/work/no&#45;OS/no&#45;OS/projects/ad5460/src/examples</title>
<g id="clust1" class="cluster">
<title>clusterdir_f910230248787cfbbc5f18af280fdce4</title>
<g id="a_clust1"><a xlink:href="dir_f910230248787cfbbc5f18af280fdce4.html" target="_top" xlink:title="src">
<polygon fill="#edf0f7" stroke="#7f7f7f" stroke-dasharray="5,2" points="8,-39 8,-109 634,-109 634,-39 8,-39"/>
<text text-anchor="middle" x="321" y="-97" font-family="Helvetica,sans-Serif" font-size="10.00">src</text>
</a>
</g>
</g>
<g id="clust2" class="cluster">
<title>clusterdir_2edc4f3eab3590cbefe8b4c8b0611444</title>
<g id="a_clust2"><a xlink:href="dir_2edc4f3eab3590cbefe8b4c8b0611444.html" target="_top">
<polygon fill="#edf0f7" stroke="#404040" stroke-width="2" points="16,-47 16,-82 626,-82 626,-47 16,-47"/>
</a>
</g>
</g>
<!-- dir_2edc4f3eab3590cbefe8b4c8b0611444 -->
<g id="node1" class="node">
<title>dir_2edc4f3eab3590cbefe8b4c8b0611444</title>
<text text-anchor="middle" x="585" y="-62" font-family="Helvetica,sans-Serif" font-size="10.00">examples</text>
</g>
<!-- dir_b2ada4c8b7736b82bc459feeb3e6a7ab -->
<g id="node2" class="node">
<title>dir_b2ada4c8b7736b82bc459feeb3e6a7ab</title>
<g id="a_node2"><a xlink:href="dir_b2ada4c8b7736b82bc459feeb3e6a7ab.html" target="_top" xlink:title="basic">
<polygon fill="#a2b4d6" stroke="#404040" points="534,-74 492,-74 492,-55 534,-55 534,-74"/>
<text text-anchor="middle" x="513" y="-62" font-family="Helvetica,sans-Serif" font-size="10.00">basic</text>
</a>
</g>
</g>
<!-- dir_6b32e8ebbe7a92323e8e3528c2c140d7 -->
<g id="node6" class="node">
<title>dir_6b32e8ebbe7a92323e8e3528c2c140d7</title>
<g id="a_node6"><a xlink:href="dir_6b32e8ebbe7a92323e8e3528c2c140d7.html" target="_top" xlink:title="include">
<polygon fill="#edf0f7" stroke="#7f7f7f" points="317,-19 265,-19 265,0 317,0 317,-19"/>
<text text-anchor="middle" x="291" y="-7" font-family="Helvetica,sans-Serif" font-size="10.00">include</text>
</a>
</g>
</g>
<!-- dir_b2ada4c8b7736b82bc459feeb3e6a7ab&#45;&gt;dir_6b32e8ebbe7a92323e8e3528c2c140d7 -->
<g id="edge1" class="edge">
<title>dir_b2ada4c8b7736b82bc459feeb3e6a7ab&#45;&gt;dir_6b32e8ebbe7a92323e8e3528c2c140d7</title>
<g id="a_edge1"><a xlink:href="dir_000274_000711.html" target="_top">
<path fill="none" stroke="#63b8ff" d="M504.92,-54.83C499.31,-49.38 491.37,-42.7 483,-39 427.52,-14.49 408,-27.92 348,-19 341.22,-17.99 333.98,-16.91 327.02,-15.88"/>
<polygon fill="#63b8ff" stroke="#63b8ff" points="327.51,-12.41 317.11,-14.4 326.48,-19.33 327.51,-12.41"/>
</a>
</g>
<g id="a_edge1&#45;headlabel"><a xlink:href="dir_000274_000711.html" target="_top" xlink:title="3">
<text text-anchor="middle" x="331.49" y="-7.63" font-family="Helvetica,sans-Serif" font-size="10.00" fill="#63b8ff">3</text>
</a>
</g>
</g>
<!-- dir_ae43f2845e5bc2a3c78c585043f3b07d -->
<g id="node7" class="node">
<title>dir_ae43f2845e5bc2a3c78c585043f3b07d</title>
<g id="a_node7"><a xlink:href="dir_ae43f2845e5bc2a3c78c585043f3b07d.html" target="_top" xlink:title="drivers">
<polygon fill="#edf0f7" stroke="red" stroke-dasharray="5,2" points="407,-19 357,-19 357,0 407,0 407,-19"/>
<text text-anchor="middle" x="382" y="-7" font-family="Helvetica,sans-Serif" font-size="10.00">drivers</text>
</a>
</g>
</g>
<!-- dir_b2ada4c8b7736b82bc459feeb3e6a7ab&#45;&gt;dir_ae43f2845e5bc2a3c78c585043f3b07d -->
<g id="edge2" class="edge">
<title>dir_b2ada4c8b7736b82bc459feeb3e6a7ab&#45;&gt;dir_ae43f2845e5bc2a3c78c585043f3b07d</title>
<g id="a_edge2"><a xlink:href="dir_000274_000484.html" target="_top">
<path fill="none" stroke="#63b8ff" d="M504.5,-54.95C498.84,-49.68 490.99,-43.16 483,-39 462.36,-28.25 437.17,-21.14 417.11,-16.7"/>
<polygon fill="#63b8ff" stroke="#63b8ff" points="417.64,-13.24 407.14,-14.62 416.21,-20.09 417.64,-13.24"/>
</a>
</g>
<g id="a_edge2&#45;headlabel"><a xlink:href="dir_000274_000484.html" target="_top" xlink:title="1">
<text text-anchor="middle" x="421.74" y="-8.69" font-family="Helvetica,sans-Serif" font-size="10.00" fill="#63b8ff">1</text>
</a>
</g>
</g>
<!-- dir_8f1839a905cbec0fd11aa8ee2555c215 -->
<g id="node3" class="node">
<title>dir_8f1839a905cbec0fd11aa8ee2555c215</title>
<g id="a_node3"><a xlink:href="dir_8f1839a905cbec0fd11aa8ee2555c215.html" target="_top" xlink:title="channel_output_example">
<polygon fill="#a2b4d6" stroke="#404040" points="474,-74 334,-74 334,-55 474,-55 474,-74"/>
<text text-anchor="middle" x="404" y="-62" font-family="Helvetica,sans-Serif" font-size="10.00">channel_output_example</text>
</a>
</g>
</g>
<!-- dir_8f1839a905cbec0fd11aa8ee2555c215&#45;&gt;dir_6b32e8ebbe7a92323e8e3528c2c140d7 -->
<g id="edge3" class="edge">
<title>dir_8f1839a905cbec0fd11aa8ee2555c215&#45;&gt;dir_6b32e8ebbe7a92323e8e3528c2c140d7</title>
<g id="a_edge3"><a xlink:href="dir_000350_000711.html" target="_top">
<path fill="none" stroke="#63b8ff" d="M385.84,-54.98C367.75,-46.5 339.72,-33.35 318.81,-23.54"/>
<polygon fill="#63b8ff" stroke="#63b8ff" points="320.03,-20.25 309.49,-19.17 317.05,-26.59 320.03,-20.25"/>
</a>
</g>
<g id="a_edge3&#45;headlabel"><a xlink:href="dir_000350_000711.html" target="_top" xlink:title="3">
<text text-anchor="middle" x="324.49" y="-16.7" font-family="Helvetica,sans-Serif" font-size="10.00" fill="#63b8ff">3</text>
</a>
</g>
</g>
<!-- dir_8f1839a905cbec0fd11aa8ee2555c215&#45;&gt;dir_ae43f2845e5bc2a3c78c585043f3b07d -->
<g id="edge4" class="edge">
<title>dir_8f1839a905cbec0fd11aa8ee2555c215&#45;&gt;dir_ae43f2845e5bc2a3c78c585043f3b07d</title>
<g id="a_edge4"><a xlink:href="dir_000350_000484.html" target="_top">
<path fill="none" stroke="#63b8ff" d="M400.37,-54.75C397.42,-47.65 393.17,-37.4 389.49,-28.56"/>
<polygon fill="#63b8ff" stroke="#63b8ff" points="392.63,-26.98 385.57,-19.09 386.17,-29.67 392.63,-26.98"/>
</a>
</g>
<g id="a_edge4&#45;headlabel"><a xlink:href="dir_000350_000484.html" target="_top" xlink:title="1">
<text text-anchor="middle" x="396.63" y="-26.71" font-family="Helvetica,sans-Serif" font-size="10.00" fill="#63b8ff">1</text>
</a>
</g>
</g>
<!-- dir_f0164cd466851daad9467205e1f9f70e -->
<g id="node4" class="node">
<title>dir_f0164cd466851daad9467205e1f9f70e</title>
<g id="a_node4"><a xlink:href="dir_f0164cd466851daad9467205e1f9f70e.html" target="_top" xlink:title="current_output_example">
<polygon fill="#a2b4d6" stroke="#404040" points="316,-74 180,-74 180,-55 316,-55 316,-74"/>
<text text-anchor="middle" x="248" y="-62" font-family="Helvetica,sans-Serif" font-size="10.00">current_output_example</text>
</a>
</g>
</g>
<!-- dir_f0164cd466851daad9467205e1f9f70e&#45;&gt;dir_6b32e8ebbe7a92323e8e3528c2c140d7 -->
<g id="edge5" class="edge">
<title>dir_f0164cd466851daad9467205e1f9f70e&#45;&gt;dir_6b32e8ebbe7a92323e8e3528c2c140d7</title>
<g id="a_edge5"><a xlink:href="dir_000461_000711.html" target="_top">
<path fill="none" stroke="#63b8ff" d="M255.1,-54.75C261.17,-47.26 270.09,-36.28 277.51,-27.13"/>
<polygon fill="#63b8ff" stroke="#63b8ff" points="280.45,-29.06 284.03,-19.09 275.01,-24.65 280.45,-29.06"/>
</a>
</g>
<g id="a_edge5&#45;headlabel"><a xlink:href="dir_000461_000711.html" target="_top" xlink:title="3">
<text text-anchor="middle" x="280.39" y="-31.14" font-family="Helvetica,sans-Serif" font-size="10.00" fill="#63b8ff">3</text>
</a>
</g>
</g>
<!-- dir_f0164cd466851daad9467205e1f9f70e&#45;&gt;dir_ae43f2845e5bc2a3c78c585043f3b07d -->
<g id="edge6" class="edge">
<title>dir_f0164cd466851daad9467205e1f9f70e&#45;&gt;dir_ae43f2845e5bc2a3c78c585043f3b07d</title>
<g id="a_edge6"><a xlink:href="dir_000461_000484.html" target="_top">
<path fill="none" stroke="#63b8ff" d="M269.53,-54.98C291.47,-46.3 325.74,-32.75 350.69,-22.88"/>
<polygon fill="#63b8ff" stroke="#63b8ff" points="352.07,-26.1 360.08,-19.17 349.49,-19.59 352.07,-26.1"/>
</a>
</g>
<g id="a_edge6&#45;headlabel"><a xlink:href="dir_000461_000484.html" target="_top" xlink:title="1">
<text text-anchor="middle" x="349.77" y="-27.57" font-family="Helvetica,sans-Serif" font-size="10.00" fill="#63b8ff">1</text>
</a>
</g>
</g>
<!-- dir_fc3a858d7e91878995ebdba74704b605 -->
<g id="node5" class="node">
<title>dir_fc3a858d7e91878995ebdba74704b605</title>
<g id="a_node5"><a xlink:href="dir_fc3a858d7e91878995ebdba74704b605.html" target="_top" xlink:title="voltage_output_example">
<polygon fill="#a2b4d6" stroke="#404040" points="162,-74 24,-74 24,-55 162,-55 162,-74"/>
<text text-anchor="middle" x="93" y="-62" font-family="Helvetica,sans-Serif" font-size="10.00">voltage_output_example</text>
</a>
</g>
</g>
<!-- dir_fc3a858d7e91878995ebdba74704b605&#45;&gt;dir_6b32e8ebbe7a92323e8e3528c2c140d7 -->
<g id="edge7" class="edge">
<title>dir_fc3a858d7e91878995ebdba74704b605&#45;&gt;dir_6b32e8ebbe7a92323e8e3528c2c140d7</title>
<g id="a_edge7"><a xlink:href="dir_001240_000711.html" target="_top">
<path fill="none" stroke="#63b8ff" d="M118.51,-54.98C133.68,-50.05 153.35,-43.86 171,-39 198.87,-31.32 230.73,-23.82 254.61,-18.44"/>
<polygon fill="#63b8ff" stroke="#63b8ff" points="255.65,-21.79 264.64,-16.19 254.12,-14.96 255.65,-21.79"/>
</a>
</g>
<g id="a_edge7&#45;headlabel"><a xlink:href="dir_001240_000711.html" target="_top" xlink:title="3">
<text text-anchor="middle" x="252.76" y="-22.84" font-family="Helvetica,sans-Serif" font-size="10.00" fill="#63b8ff">3</text>
</a>
</g>
</g>
<!-- dir_fc3a858d7e91878995ebdba74704b605&#45;&gt;dir_ae43f2845e5bc2a3c78c585043f3b07d -->
<g id="edge8" class="edge">
<title>dir_fc3a858d7e91878995ebdba74704b605&#45;&gt;dir_ae43f2845e5bc2a3c78c585043f3b07d</title>
<g id="a_edge8"><a xlink:href="dir_001240_000484.html" target="_top">
<path fill="none" stroke="#63b8ff" d="M116.6,-54.89C131.92,-49.6 152.42,-43.08 171,-39 238.84,-24.09 257.21,-28.66 326,-19 332.8,-18.04 340.07,-16.98 347.03,-15.93"/>
<polygon fill="#63b8ff" stroke="#63b8ff" points="347.57,-19.39 356.93,-14.43 346.52,-12.47 347.57,-19.39"/>
</a>
</g>
<g id="a_edge8&#45;headlabel"><a xlink:href="dir_001240_000484.html" target="_top" xlink:title="1">
<text text-anchor="middle" x="344.44" y="-20.24" font-family="Helvetica,sans-Serif" font-size="10.00" fill="#63b8ff">1</text>
</a>
</g>
</g>
</g>
</svg>
