<?xml version="1.0" encoding="UTF-8" standalone="no"?>
<!DOCTYPE svg PUBLIC "-//W3C//DTD SVG 1.1//EN"
 "http://www.w3.org/Graphics/SVG/1.1/DTD/svg11.dtd">
<!-- Generated by graphviz version 2.43.0 (0)
 -->
<!-- Title: /home/runner/work/no&#45;OS/no&#45;OS/projects/ad405x/src/examples Pages: 1 -->
<!--zoomable 125 -->

<svg id="main" version="1.1" xmlns="http://www.w3.org/2000/svg" xmlns:xlink="http://www.w3.org/1999/xlink" xml:space="preserve" onload="init(evt)">

<style type="text/css"><![CDATA[
.node, .edge {opacity: 0.7;}
.node.selected, .edge.selected {opacity: 1;}
.edge:hover path { stroke: red; }
.edge:hover polygon { stroke: red; fill: red; }
]]></style>

<defs>
  <circle id="rim" cx="0" cy="0" r="7"/>
  <circle id="rim2" cx="0" cy="0" r="3.5"/>
  <g id="zoomPlus">
    <use xlink:href="#rim" fill="#404040"><set attributeName="fill" to="#808080" begin="zoomplus.mouseover" end="zoomplus.mouseout"/></use>
    <path d="M-4,0h8M0,-4v8" fill="none" stroke="white" stroke-width="1.5" pointer-events="none"/>
  </g>
  <g id="zoomMin">
    <use xlink:href="#rim" fill="#404040"><set attributeName="fill" to="#808080" begin="zoomminus.mouseover" end="zoomminus.mouseout"/></use>
    <path d="M-4,0h8" fill="none" stroke="white" stroke-width="1.5" pointer-events="none"/>
  </g>
  <g id="arrowUp" transform="translate(30 24)">
    <use xlink:href="#rim"/>
    <path pointer-events="none" fill="none" stroke="white" stroke-width="1.5" d="M0,-3.0v7 M-2.5,-0.5L0,-3.0L2.5,-0.5"/>
  </g>
  <g id="arrowRight" transform="rotate(90) translate(36 -43)">
    <use xlink:href="#rim"/>
    <path pointer-events="none" fill="none" stroke="white" stroke-width="1.5" d="M0,-3.0v7 M-2.5,-0.5L0,-3.0L2.5,-0.5"/>
  </g>
  <g id="arrowDown" transform="rotate(180) translate(-30 -48)">
    <use xlink:href="#rim"/>
    <path pointer-events="none" fill="none" stroke="white" stroke-width="1.5" d="M0,-3.0v7 M-2.5,-0.5L0,-3.0L2.5,-0.5"/>
  </g>
  <g id="arrowLeft" transform="rotate(270) translate(-36 17)">
    <use xlink:href="#rim"/>
    <path pointer-events="none" fill="none" stroke="white" stroke-width="1.5" d="M0,-3.0v7 M-2.5,-0.5L0,-3.0L2.5,-0.5"/>
  </g>
  <g id="resetDef">
    <use xlink:href="#rim2" fill="#404040"><set attributeName="fill" to="#808080" begin="reset.mouseover" end="reset.mouseout"/></use>
  </g>
</defs>
<script type="application/ecmascript">
var viewWidth = 577;
var viewHeight = 125;
var sectionId = 'dynsection-0';
</script>
<script type="application/ecmascript" xlink:href="svg.min.js"/>
<svg id="graph" class="graph">
<g id="viewport">
<title>/home/runner/work/no&#45;OS/no&#45;OS/projects/ad405x/src/examples</title>
<g id="clust1" class="cluster">
<title>clusterdir_0fb52ab157e09a90f518ffaef2351bd8</title>
<g id="a_clust1"><a xlink:href="dir_0fb52ab157e09a90f518ffaef2351bd8.html" target="_top" xlink:title="src">
<polygon fill="#edf0f7" stroke="#7f7f7f" stroke-dasharray="5,2" points="8,-39 8,-109 561,-109 561,-39 8,-39"/>
<text text-anchor="middle" x="284.5" y="-97" font-family="Helvetica,sans-Serif" font-size="10.00">src</text>
</a>
</g>
</g>
<g id="clust2" class="cluster">
<title>clusterdir_340743bb97ebb2227aa4eaeef201c672</title>
<g id="a_clust2"><a xlink:href="dir_340743bb97ebb2227aa4eaeef201c672.html" target="_top">
<polygon fill="#edf0f7" stroke="#404040" stroke-width="2" points="16,-47 16,-82 553,-82 553,-47 16,-47"/>
</a>
</g>
</g>
<!-- dir_340743bb97ebb2227aa4eaeef201c672 -->
<g id="node1" class="node">
<title>dir_340743bb97ebb2227aa4eaeef201c672</title>
<text text-anchor="middle" x="512" y="-62" font-family="Helvetica,sans-Serif" font-size="10.00">examples</text>
</g>
<!-- dir_12ec22c61358b856ef550b2a2e6a4cb7 -->
<g id="node2" class="node">
<title>dir_12ec22c61358b856ef550b2a2e6a4cb7</title>
<g id="a_node2"><a xlink:href="dir_12ec22c61358b856ef550b2a2e6a4cb7.html" target="_top" xlink:title="basic_example">
<polygon fill="#a2b4d6" stroke="#404040" points="242,-74 152,-74 152,-55 242,-55 242,-74"/>
<text text-anchor="middle" x="197" y="-62" font-family="Helvetica,sans-Serif" font-size="10.00">basic_example</text>
</a>
</g>
</g>
<!-- dir_6b32e8ebbe7a92323e8e3528c2c140d7 -->
<g id="node6" class="node">
<title>dir_6b32e8ebbe7a92323e8e3528c2c140d7</title>
<g id="a_node6"><a xlink:href="dir_6b32e8ebbe7a92323e8e3528c2c140d7.html" target="_top" xlink:title="include">
<polygon fill="#edf0f7" stroke="#7f7f7f" points="235,-19 183,-19 183,0 235,0 235,-19"/>
<text text-anchor="middle" x="209" y="-7" font-family="Helvetica,sans-Serif" font-size="10.00">include</text>
</a>
</g>
</g>
<!-- dir_12ec22c61358b856ef550b2a2e6a4cb7&#45;&gt;dir_6b32e8ebbe7a92323e8e3528c2c140d7 -->
<g id="edge1" class="edge">
<title>dir_12ec22c61358b856ef550b2a2e6a4cb7&#45;&gt;dir_6b32e8ebbe7a92323e8e3528c2c140d7</title>
<g id="a_edge1"><a xlink:href="dir_000335_000711.html" target="_top">
<path fill="none" stroke="#63b8ff" d="M198.98,-54.75C200.57,-47.72 202.86,-37.62 204.85,-28.84"/>
<polygon fill="#63b8ff" stroke="#63b8ff" points="208.26,-29.62 207.06,-19.09 201.43,-28.07 208.26,-29.62"/>
</a>
</g>
<g id="a_edge1&#45;headlabel"><a xlink:href="dir_000335_000711.html" target="_top" xlink:title="1">
<text text-anchor="middle" x="210.24" y="-31.25" font-family="Helvetica,sans-Serif" font-size="10.00" fill="#63b8ff">1</text>
</a>
</g>
</g>
<!-- dir_ae43f2845e5bc2a3c78c585043f3b07d -->
<g id="node7" class="node">
<title>dir_ae43f2845e5bc2a3c78c585043f3b07d</title>
<g id="a_node7"><a xlink:href="dir_ae43f2845e5bc2a3c78c585043f3b07d.html" target="_top" xlink:title="drivers">
<polygon fill="#edf0f7" stroke="red" stroke-dasharray="5,2" points="315,-19 265,-19 265,0 315,0 315,-19"/>
<text text-anchor="middle" x="290" y="-7" font-family="Helvetica,sans-Serif" font-size="10.00">drivers</text>
</a>
</g>
</g>
<!-- dir_12ec22c61358b856ef550b2a2e6a4cb7&#45;&gt;dir_ae43f2845e5bc2a3c78c585043f3b07d -->
<g id="edge2" class="edge">
<title>dir_12ec22c61358b856ef550b2a2e6a4cb7&#45;&gt;dir_ae43f2845e5bc2a3c78c585043f3b07d</title>
<g id="a_edge2"><a xlink:href="dir_000335_000484.html" target="_top">
<path fill="none" stroke="#63b8ff" d="M211.94,-54.98C226.5,-46.69 248.87,-33.94 265.93,-24.22"/>
<polygon fill="#63b8ff" stroke="#63b8ff" points="267.83,-27.16 274.79,-19.17 264.36,-21.08 267.83,-27.16"/>
</a>
</g>
<g id="a_edge2&#45;headlabel"><a xlink:href="dir_000335_000484.html" target="_top" xlink:title="1">
<text text-anchor="middle" x="266.11" y="-28.91" font-family="Helvetica,sans-Serif" font-size="10.00" fill="#63b8ff">1</text>
</a>
</g>
</g>
<!-- dir_5e4723650a483765d8017134d32b5676 -->
<g id="node3" class="node">
<title>dir_5e4723650a483765d8017134d32b5676</title>
<g id="a_node3"><a xlink:href="dir_5e4723650a483765d8017134d32b5676.html" target="_top" xlink:title="basic_i3c_example">
<polygon fill="#a2b4d6" stroke="#404040" points="134,-74 24,-74 24,-55 134,-55 134,-74"/>
<text text-anchor="middle" x="79" y="-62" font-family="Helvetica,sans-Serif" font-size="10.00">basic_i3c_example</text>
</a>
</g>
</g>
<!-- dir_5e4723650a483765d8017134d32b5676&#45;&gt;dir_6b32e8ebbe7a92323e8e3528c2c140d7 -->
<g id="edge3" class="edge">
<title>dir_5e4723650a483765d8017134d32b5676&#45;&gt;dir_6b32e8ebbe7a92323e8e3528c2c140d7</title>
<g id="a_edge3"><a xlink:href="dir_000346_000711.html" target="_top">
<path fill="none" stroke="#63b8ff" d="M99.89,-54.98C121.08,-46.34 154.13,-32.87 178.3,-23.02"/>
<polygon fill="#63b8ff" stroke="#63b8ff" points="179.79,-26.19 187.73,-19.17 177.15,-19.7 179.79,-26.19"/>
</a>
</g>
<g id="a_edge3&#45;headlabel"><a xlink:href="dir_000346_000711.html" target="_top" xlink:title="2">
<text text-anchor="middle" x="177.54" y="-27.67" font-family="Helvetica,sans-Serif" font-size="10.00" fill="#63b8ff">2</text>
</a>
</g>
</g>
<!-- dir_5e4723650a483765d8017134d32b5676&#45;&gt;dir_ae43f2845e5bc2a3c78c585043f3b07d -->
<g id="edge4" class="edge">
<title>dir_5e4723650a483765d8017134d32b5676&#45;&gt;dir_ae43f2845e5bc2a3c78c585043f3b07d</title>
<g id="a_edge4"><a xlink:href="dir_000346_000484.html" target="_top">
<path fill="none" stroke="#63b8ff" d="M98.59,-54.98C111.11,-49.79 127.79,-43.35 143,-39 153.61,-35.97 214.76,-24.43 254.78,-17"/>
<polygon fill="#63b8ff" stroke="#63b8ff" points="255.51,-20.42 264.7,-15.16 254.23,-13.54 255.51,-20.42"/>
</a>
</g>
<g id="a_edge4&#45;headlabel"><a xlink:href="dir_000346_000484.html" target="_top" xlink:title="1">
<text text-anchor="middle" x="252.49" y="-21.37" font-family="Helvetica,sans-Serif" font-size="10.00" fill="#63b8ff">1</text>
</a>
</g>
</g>
<!-- dir_4c6eb10887fec3518e55ae2bce5af4fa -->
<g id="node4" class="node">
<title>dir_4c6eb10887fec3518e55ae2bce5af4fa</title>
<g id="a_node4"><a xlink:href="dir_4c6eb10887fec3518e55ae2bce5af4fa.html" target="_top" xlink:title="i3c_dma_example">
<polygon fill="#a2b4d6" stroke="#404040" points="366,-74 260,-74 260,-55 366,-55 366,-74"/>
<text text-anchor="middle" x="313" y="-62" font-family="Helvetica,sans-Serif" font-size="10.00">i3c_dma_example</text>
</a>
</g>
</g>
<!-- dir_4c6eb10887fec3518e55ae2bce5af4fa&#45;&gt;dir_6b32e8ebbe7a92323e8e3528c2c140d7 -->
<g id="edge5" class="edge">
<title>dir_4c6eb10887fec3518e55ae2bce5af4fa&#45;&gt;dir_6b32e8ebbe7a92323e8e3528c2c140d7</title>
<g id="a_edge5"><a xlink:href="dir_000634_000711.html" target="_top">
<path fill="none" stroke="#63b8ff" d="M296.29,-54.98C279.79,-46.57 254.3,-33.59 235.12,-23.81"/>
<polygon fill="#63b8ff" stroke="#63b8ff" points="236.51,-20.59 226.01,-19.17 233.33,-26.83 236.51,-20.59"/>
</a>
</g>
<g id="a_edge5&#45;headlabel"><a xlink:href="dir_000634_000711.html" target="_top" xlink:title="2">
<text text-anchor="middle" x="241" y="-17.19" font-family="Helvetica,sans-Serif" font-size="10.00" fill="#63b8ff">2</text>
</a>
</g>
</g>
<!-- dir_4c6eb10887fec3518e55ae2bce5af4fa&#45;&gt;dir_ae43f2845e5bc2a3c78c585043f3b07d -->
<g id="edge6" class="edge">
<title>dir_4c6eb10887fec3518e55ae2bce5af4fa&#45;&gt;dir_ae43f2845e5bc2a3c78c585043f3b07d</title>
<g id="a_edge6"><a xlink:href="dir_000634_000484.html" target="_top">
<path fill="none" stroke="#63b8ff" d="M309.2,-54.75C306.09,-47.57 301.58,-37.18 297.71,-28.27"/>
<polygon fill="#63b8ff" stroke="#63b8ff" points="300.92,-26.87 293.73,-19.09 294.5,-29.66 300.92,-26.87"/>
</a>
</g>
<g id="a_edge6&#45;headlabel"><a xlink:href="dir_000634_000484.html" target="_top" xlink:title="1">
<text text-anchor="middle" x="304.95" y="-26.54" font-family="Helvetica,sans-Serif" font-size="10.00" fill="#63b8ff">1</text>
</a>
</g>
</g>
<!-- dir_010224364ccae37cada0270601029b68 -->
<g id="node5" class="node">
<title>dir_010224364ccae37cada0270601029b68</title>
<g id="a_node5"><a xlink:href="dir_010224364ccae37cada0270601029b68.html" target="_top" xlink:title="iio_example">
<polygon fill="#a2b4d6" stroke="#404040" points="461.5,-74 384.5,-74 384.5,-55 461.5,-55 461.5,-74"/>
<text text-anchor="middle" x="423" y="-62" font-family="Helvetica,sans-Serif" font-size="10.00">iio_example</text>
</a>
</g>
</g>
<!-- dir_010224364ccae37cada0270601029b68&#45;&gt;dir_6b32e8ebbe7a92323e8e3528c2c140d7 -->
<g id="edge7" class="edge">
<title>dir_010224364ccae37cada0270601029b68&#45;&gt;dir_6b32e8ebbe7a92323e8e3528c2c140d7</title>
<g id="a_edge7"><a xlink:href="dir_000644_000711.html" target="_top">
<path fill="none" stroke="#63b8ff" d="M408.8,-54.79C399.5,-49.46 386.9,-42.93 375,-39 324.08,-22.17 308.83,-28.22 256,-19 252.55,-18.4 248.95,-17.76 245.36,-17.12"/>
<polygon fill="#63b8ff" stroke="#63b8ff" points="245.8,-13.65 235.34,-15.32 244.56,-20.53 245.8,-13.65"/>
</a>
</g>
<g id="a_edge7&#45;headlabel"><a xlink:href="dir_000644_000711.html" target="_top" xlink:title="3">
<text text-anchor="middle" x="249.84" y="-8.99" font-family="Helvetica,sans-Serif" font-size="10.00" fill="#63b8ff">3</text>
</a>
</g>
</g>
<!-- dir_010224364ccae37cada0270601029b68&#45;&gt;dir_ae43f2845e5bc2a3c78c585043f3b07d -->
<g id="edge9" class="edge">
<title>dir_010224364ccae37cada0270601029b68&#45;&gt;dir_ae43f2845e5bc2a3c78c585043f3b07d</title>
<g id="a_edge9"><a xlink:href="dir_000644_000484.html" target="_top">
<path fill="none" stroke="#63b8ff" d="M407.71,-54.96C398.42,-49.96 386.21,-43.71 375,-39 358.87,-32.23 340.53,-25.91 325.01,-20.95"/>
<polygon fill="#63b8ff" stroke="#63b8ff" points="325.87,-17.55 315.28,-17.9 323.78,-24.23 325.87,-17.55"/>
</a>
</g>
<g id="a_edge9&#45;headlabel"><a xlink:href="dir_000644_000484.html" target="_top" xlink:title="1">
<text text-anchor="middle" x="330.15" y="-13.42" font-family="Helvetica,sans-Serif" font-size="10.00" fill="#63b8ff">1</text>
</a>
</g>
</g>
<!-- dir_81990cfc34a6492ee52a8638792ffab8 -->
<g id="node8" class="node">
<title>dir_81990cfc34a6492ee52a8638792ffab8</title>
<g id="a_node8"><a xlink:href="dir_81990cfc34a6492ee52a8638792ffab8.html" target="_top" xlink:title="iio">
<polygon fill="#edf0f7" stroke="red" stroke-dasharray="5,2" points="437.5,-19 408.5,-19 408.5,0 437.5,0 437.5,-19"/>
<text text-anchor="middle" x="423" y="-7" font-family="Helvetica,sans-Serif" font-size="10.00">iio</text>
</a>
</g>
</g>
<!-- dir_010224364ccae37cada0270601029b68&#45;&gt;dir_81990cfc34a6492ee52a8638792ffab8 -->
<g id="edge8" class="edge">
<title>dir_010224364ccae37cada0270601029b68&#45;&gt;dir_81990cfc34a6492ee52a8638792ffab8</title>
<g id="a_edge8"><a xlink:href="dir_000644_000635.html" target="_top">
<path fill="none" stroke="#63b8ff" d="M423,-54.75C423,-47.8 423,-37.85 423,-29.13"/>
<polygon fill="#63b8ff" stroke="#63b8ff" points="426.5,-29.09 423,-19.09 419.5,-29.09 426.5,-29.09"/>
</a>
</g>
<g id="a_edge8&#45;headlabel"><a xlink:href="dir_000644_000635.html" target="_top" xlink:title="1">
<text text-anchor="middle" x="429.34" y="-30.18" font-family="Helvetica,sans-Serif" font-size="10.00" fill="#63b8ff">1</text>
</a>
</g>
</g>
</g>
</svg>

<g id="navigator" transform="translate(0 0)" fill="#404254">
  <rect fill="#f2f5e9" fill-opacity="0.5" stroke="#606060" stroke-width=".5" x="0" y="0" width="60" height="60"/>
  <use id="zoomplus" xlink:href="#zoomPlus" x="17" y="9" onmousedown="handleZoom(evt,'in')"/>
  <use id="zoomminus" xlink:href="#zoomMin" x="42" y="9" onmousedown="handleZoom(evt,'out')"/>
  <use id="reset" xlink:href="#resetDef" x="30" y="36" onmousedown="handleReset()"/>
   <use id="arrowup" xlink:href="#arrowUp" x="0" y="0" onmousedown="handlePan(0,-1)"/>
  <use id="arrowright" xlink:href="#arrowRight" x="0" y="0" onmousedown="handlePan(1,0)"/>
  <use id="arrowdown" xlink:href="#arrowDown" x="0" y="0" onmousedown="handlePan(0,1)"/>
  <use id="arrowleft" xlink:href="#arrowLeft" x="0" y="0" onmousedown="handlePan(-1,0)"/>
</g>
<svg viewBox="0 0 15 15" width="100%" height="30px" preserveAspectRatio="xMaxYMin meet">
 <g id="arrow_out" transform="scale(0.3 0.3)">
  <a xlink:href="dir_340743bb97ebb2227aa4eaeef201c672_dep_org.svg" target="_base">
   <rect id="button" ry="5" rx="5" y="6" x="6" height="38" width="38"
        fill="#f2f5e9" fill-opacity="0.5" stroke="#606060" stroke-width="1.0"/>
   <path id="arrow"
     d="M 11.500037,31.436501 C 11.940474,20.09759 22.043105,11.32322 32.158766,21.979434 L 37.068811,17.246167 C 37.068811,17.246167 37.088388,32 37.088388,32 L 22.160133,31.978069 C 22.160133,31.978069 26.997745,27.140456 26.997745,27.140456 C 18.528582,18.264221 13.291696,25.230495 11.500037,31.436501 z"
     style="fill:#404040;"/>
  </a>
 </g>
</svg>

<style type='text/css'>
<![CDATA[
[data-mouse-over-selected='false'] { opacity: 0.7; }
[data-mouse-over-selected='true']  { opacity: 1.0; }
]]>
</style>
<script type="application/ecmascript"><![CDATA[
document.addEventListener('DOMContentLoaded', (event) => {
  highlightEdges();
  highlightAdjacentNodes();
});
]]></script>
</svg>
