<?xml version="1.0" encoding="UTF-8" standalone="no"?>
<!DOCTYPE svg PUBLIC "-//W3C//DTD SVG 1.1//EN"
 "http://www.w3.org/Graphics/SVG/1.1/DTD/svg11.dtd">
<!-- Generated by graphviz version 2.43.0 (0)
 -->
<!-- Title: /home/runner/work/no&#45;OS/no&#45;OS/projects/adrv902x/src/examples Pages: 1 -->
<!--zoomable 141 -->

<svg id="main" version="1.1" xmlns="http://www.w3.org/2000/svg" xmlns:xlink="http://www.w3.org/1999/xlink" xml:space="preserve" onload="init(evt)">

<style type="text/css"><![CDATA[
.node, .edge {opacity: 0.7;}
.node.selected, .edge.selected {opacity: 1;}
.edge:hover path { stroke: red; }
.edge:hover polygon { stroke: red; fill: red; }
]]></style>

<defs>
  <circle id="rim" cx="0" cy="0" r="7"/>
  <circle id="rim2" cx="0" cy="0" r="3.5"/>
  <g id="zoomPlus">
    <use xlink:href="#rim" fill="#404040"><set attributeName="fill" to="#808080" begin="zoomplus.mouseover" end="zoomplus.mouseout"/></use>
    <path d="M-4,0h8M0,-4v8" fill="none" stroke="white" stroke-width="1.5" pointer-events="none"/>
  </g>
  <g id="zoomMin">
    <use xlink:href="#rim" fill="#404040"><set attributeName="fill" to="#808080" begin="zoomminus.mouseover" end="zoomminus.mouseout"/></use>
    <path d="M-4,0h8" fill="none" stroke="white" stroke-width="1.5" pointer-events="none"/>
  </g>
  <g id="arrowUp" transform="translate(30 24)">
    <use xlink:href="#rim"/>
    <path pointer-events="none" fill="none" stroke="white" stroke-width="1.5" d="M0,-3.0v7 M-2.5,-0.5L0,-3.0L2.5,-0.5"/>
  </g>
  <g id="arrowRight" transform="rotate(90) translate(36 -43)">
    <use xlink:href="#rim"/>
    <path pointer-events="none" fill="none" stroke="white" stroke-width="1.5" d="M0,-3.0v7 M-2.5,-0.5L0,-3.0L2.5,-0.5"/>
  </g>
  <g id="arrowDown" transform="rotate(180) translate(-30 -48)">
    <use xlink:href="#rim"/>
    <path pointer-events="none" fill="none" stroke="white" stroke-width="1.5" d="M0,-3.0v7 M-2.5,-0.5L0,-3.0L2.5,-0.5"/>
  </g>
  <g id="arrowLeft" transform="rotate(270) translate(-36 17)">
    <use xlink:href="#rim"/>
    <path pointer-events="none" fill="none" stroke="white" stroke-width="1.5" d="M0,-3.0v7 M-2.5,-0.5L0,-3.0L2.5,-0.5"/>
  </g>
  <g id="resetDef">
    <use xlink:href="#rim2" fill="#404040"><set attributeName="fill" to="#808080" begin="reset.mouseover" end="reset.mouseout"/></use>
  </g>
</defs>
<script type="application/ecmascript">
var viewWidth = 597;
var viewHeight = 141;
var sectionId = 'dynsection-0';
</script>
<script type="application/ecmascript" xlink:href="svg.min.js"/>
<svg id="graph" class="graph">
<g id="viewport">
<title>/home/runner/work/no&#45;OS/no&#45;OS/projects/adrv902x/src/examples</title>
<g id="clust1" class="cluster">
<title>clusterdir_dde4fddef469428fe4177f4f40f3adf1</title>
<g id="a_clust1"><a xlink:href="dir_dde4fddef469428fe4177f4f40f3adf1.html" target="_top" xlink:title="src">
<polygon fill="#edf0f7" stroke="#7f7f7f" stroke-dasharray="5,2" points="8,-8 8,-125 413,-125 413,-8 8,-8"/>
<text text-anchor="middle" x="210.5" y="-113" font-family="Helvetica,sans-Serif" font-size="10.00">src</text>
</a>
</g>
</g>
<g id="clust2" class="cluster">
<title>clusterdir_8f6fe675cca4313d5fad73857b0d836e</title>
<g id="a_clust2"><a xlink:href="dir_8f6fe675cca4313d5fad73857b0d836e.html" target="_top">
<polygon fill="#edf0f7" stroke="#404040" stroke-width="2" points="16,-63 16,-98 405,-98 405,-63 16,-63"/>
</a>
</g>
</g>
<!-- dir_accb397a57a228dfe37bf38057a073c1 -->
<g id="node1" class="node">
<title>dir_accb397a57a228dfe37bf38057a073c1</title>
<g id="a_node1"><a xlink:href="dir_accb397a57a228dfe37bf38057a073c1.html" target="_top" xlink:title="common">
<polygon fill="#a2b4d6" stroke="red" points="204.5,-35 145.5,-35 145.5,-16 204.5,-16 204.5,-35"/>
<text text-anchor="middle" x="175" y="-23" font-family="Helvetica,sans-Serif" font-size="10.00">common</text>
</a>
</g>
</g>
<!-- dir_8f6fe675cca4313d5fad73857b0d836e -->
<g id="node2" class="node">
<title>dir_8f6fe675cca4313d5fad73857b0d836e</title>
<text text-anchor="middle" x="364" y="-78" font-family="Helvetica,sans-Serif" font-size="10.00">examples</text>
</g>
<!-- dir_c92ab8527e8bb1aa993f76a5fd3a4843 -->
<g id="node3" class="node">
<title>dir_c92ab8527e8bb1aa993f76a5fd3a4843</title>
<g id="a_node3"><a xlink:href="dir_c92ab8527e8bb1aa993f76a5fd3a4843.html" target="_top" xlink:title="basic_example">
<polygon fill="#a2b4d6" stroke="#404040" points="114,-90 24,-90 24,-71 114,-71 114,-90"/>
<text text-anchor="middle" x="69" y="-78" font-family="Helvetica,sans-Serif" font-size="10.00">basic_example</text>
</a>
</g>
</g>
<!-- dir_c92ab8527e8bb1aa993f76a5fd3a4843&#45;&gt;dir_accb397a57a228dfe37bf38057a073c1 -->
<g id="edge2" class="edge">
<title>dir_c92ab8527e8bb1aa993f76a5fd3a4843&#45;&gt;dir_accb397a57a228dfe37bf38057a073c1</title>
<g id="a_edge2"><a xlink:href="dir_000336_000384.html" target="_top">
<path fill="none" stroke="#63b8ff" d="M86.03,-70.98C102.93,-62.54 129.06,-49.47 148.64,-39.68"/>
<polygon fill="#63b8ff" stroke="#63b8ff" points="150.28,-42.77 157.66,-35.17 147.15,-36.51 150.28,-42.77"/>
</a>
</g>
<g id="a_edge2&#45;headlabel"><a xlink:href="dir_000336_000384.html" target="_top" xlink:title="1">
<text text-anchor="middle" x="148.34" y="-44.42" font-family="Helvetica,sans-Serif" font-size="10.00" fill="#63b8ff">1</text>
</a>
</g>
</g>
<!-- dir_6b32e8ebbe7a92323e8e3528c2c140d7 -->
<g id="node6" class="node">
<title>dir_6b32e8ebbe7a92323e8e3528c2c140d7</title>
<g id="a_node6"><a xlink:href="dir_6b32e8ebbe7a92323e8e3528c2c140d7.html" target="_top" xlink:title="include">
<polygon fill="#edf0f7" stroke="#7f7f7f" points="473,-35 421,-35 421,-16 473,-16 473,-35"/>
<text text-anchor="middle" x="447" y="-23" font-family="Helvetica,sans-Serif" font-size="10.00">include</text>
</a>
</g>
</g>
<!-- dir_c92ab8527e8bb1aa993f76a5fd3a4843&#45;&gt;dir_6b32e8ebbe7a92323e8e3528c2c140d7 -->
<g id="edge1" class="edge">
<title>dir_c92ab8527e8bb1aa993f76a5fd3a4843&#45;&gt;dir_6b32e8ebbe7a92323e8e3528c2c140d7</title>
<g id="a_edge1"><a xlink:href="dir_000336_000691.html" target="_top">
<path fill="none" stroke="#63b8ff" d="M93.2,-70.97C102.42,-68.02 113.1,-64.96 123,-63 248.48,-38.12 286.09,-58.14 410.95,-36.02"/>
<polygon fill="#63b8ff" stroke="#63b8ff" points="411.68,-39.44 420.89,-34.2 410.42,-32.55 411.68,-39.44"/>
</a>
</g>
<g id="a_edge1&#45;headlabel"><a xlink:href="dir_000336_000691.html" target="_top" xlink:title="4">
<text text-anchor="middle" x="408.65" y="-40.38" font-family="Helvetica,sans-Serif" font-size="10.00" fill="#63b8ff">4</text>
</a>
</g>
</g>
<!-- dir_ae43f2845e5bc2a3c78c585043f3b07d -->
<g id="node7" class="node">
<title>dir_ae43f2845e5bc2a3c78c585043f3b07d</title>
<g id="a_node7"><a xlink:href="dir_ae43f2845e5bc2a3c78c585043f3b07d.html" target="_top" xlink:title="drivers">
<polygon fill="#edf0f7" stroke="red" stroke-dasharray="5,2" points="541,-35 491,-35 491,-16 541,-16 541,-35"/>
<text text-anchor="middle" x="516" y="-23" font-family="Helvetica,sans-Serif" font-size="10.00">drivers</text>
</a>
</g>
</g>
<!-- dir_c92ab8527e8bb1aa993f76a5fd3a4843&#45;&gt;dir_ae43f2845e5bc2a3c78c585043f3b07d -->
<g id="edge3" class="edge">
<title>dir_c92ab8527e8bb1aa993f76a5fd3a4843&#45;&gt;dir_ae43f2845e5bc2a3c78c585043f3b07d</title>
<g id="a_edge3"><a xlink:href="dir_000336_000474.html" target="_top">
<path fill="none" stroke="#63b8ff" d="M92.91,-70.96C102.19,-67.98 112.98,-64.9 123,-63 277.02,-33.83 322.2,-59.62 480.74,-34.91"/>
<polygon fill="#63b8ff" stroke="#63b8ff" points="481.53,-38.32 490.85,-33.29 480.42,-31.41 481.53,-38.32"/>
</a>
</g>
<g id="a_edge3&#45;headlabel"><a xlink:href="dir_000336_000474.html" target="_top" xlink:title="8">
<text text-anchor="middle" x="478.43" y="-39.2" font-family="Helvetica,sans-Serif" font-size="10.00" fill="#63b8ff">8</text>
</a>
</g>
</g>
<!-- dir_e2a7fe46af34164ac3654b43c727c85e -->
<g id="node4" class="node">
<title>dir_e2a7fe46af34164ac3654b43c727c85e</title>
<g id="a_node4"><a xlink:href="dir_e2a7fe46af34164ac3654b43c727c85e.html" target="_top" xlink:title="dma_example">
<polygon fill="#a2b4d6" stroke="#404040" points="218,-90 132,-90 132,-71 218,-71 218,-90"/>
<text text-anchor="middle" x="175" y="-78" font-family="Helvetica,sans-Serif" font-size="10.00">dma_example</text>
</a>
</g>
</g>
<!-- dir_e2a7fe46af34164ac3654b43c727c85e&#45;&gt;dir_accb397a57a228dfe37bf38057a073c1 -->
<g id="edge5" class="edge">
<title>dir_e2a7fe46af34164ac3654b43c727c85e&#45;&gt;dir_accb397a57a228dfe37bf38057a073c1</title>
<g id="a_edge5"><a xlink:href="dir_000471_000384.html" target="_top">
<path fill="none" stroke="#63b8ff" d="M175,-70.75C175,-63.8 175,-53.85 175,-45.13"/>
<polygon fill="#63b8ff" stroke="#63b8ff" points="178.5,-45.09 175,-35.09 171.5,-45.09 178.5,-45.09"/>
</a>
</g>
<g id="a_edge5&#45;headlabel"><a xlink:href="dir_000471_000384.html" target="_top" xlink:title="1">
<text text-anchor="middle" x="181.34" y="-46.18" font-family="Helvetica,sans-Serif" font-size="10.00" fill="#63b8ff">1</text>
</a>
</g>
</g>
<!-- dir_e2a7fe46af34164ac3654b43c727c85e&#45;&gt;dir_6b32e8ebbe7a92323e8e3528c2c140d7 -->
<g id="edge4" class="edge">
<title>dir_e2a7fe46af34164ac3654b43c727c85e&#45;&gt;dir_6b32e8ebbe7a92323e8e3528c2c140d7</title>
<g id="a_edge4"><a xlink:href="dir_000471_000691.html" target="_top">
<path fill="none" stroke="#63b8ff" d="M199.11,-70.96C207.82,-68.11 217.77,-65.13 227,-63 306.92,-44.56 331.62,-52.23 410.92,-36.19"/>
<polygon fill="#63b8ff" stroke="#63b8ff" points="411.8,-39.59 420.87,-34.12 410.37,-32.74 411.8,-39.59"/>
</a>
</g>
<g id="a_edge4&#45;headlabel"><a xlink:href="dir_000471_000691.html" target="_top" xlink:title="4">
<text text-anchor="middle" x="408.86" y="-40.6" font-family="Helvetica,sans-Serif" font-size="10.00" fill="#63b8ff">4</text>
</a>
</g>
</g>
<!-- dir_e2a7fe46af34164ac3654b43c727c85e&#45;&gt;dir_ae43f2845e5bc2a3c78c585043f3b07d -->
<g id="edge6" class="edge">
<title>dir_e2a7fe46af34164ac3654b43c727c85e&#45;&gt;dir_ae43f2845e5bc2a3c78c585043f3b07d</title>
<g id="a_edge6"><a xlink:href="dir_000471_000474.html" target="_top">
<path fill="none" stroke="#63b8ff" d="M198.55,-70.94C207.37,-68.02 217.55,-65 227,-63 335.39,-40.09 367.94,-54.24 480.76,-34.97"/>
<polygon fill="#63b8ff" stroke="#63b8ff" points="481.59,-38.38 490.83,-33.2 480.38,-31.48 481.59,-38.38"/>
</a>
</g>
<g id="a_edge6&#45;headlabel"><a xlink:href="dir_000471_000474.html" target="_top" xlink:title="8">
<text text-anchor="middle" x="478.54" y="-39.29" font-family="Helvetica,sans-Serif" font-size="10.00" fill="#63b8ff">8</text>
</a>
</g>
</g>
<!-- dir_687a534115dd5ddd64433493e0a377e4 -->
<g id="node5" class="node">
<title>dir_687a534115dd5ddd64433493e0a377e4</title>
<g id="a_node5"><a xlink:href="dir_687a534115dd5ddd64433493e0a377e4.html" target="_top" xlink:title="iio_example">
<polygon fill="#a2b4d6" stroke="#404040" points="313.5,-90 236.5,-90 236.5,-71 313.5,-71 313.5,-90"/>
<text text-anchor="middle" x="275" y="-78" font-family="Helvetica,sans-Serif" font-size="10.00">iio_example</text>
</a>
</g>
</g>
<!-- dir_687a534115dd5ddd64433493e0a377e4&#45;&gt;dir_accb397a57a228dfe37bf38057a073c1 -->
<g id="edge9" class="edge">
<title>dir_687a534115dd5ddd64433493e0a377e4&#45;&gt;dir_accb397a57a228dfe37bf38057a073c1</title>
<g id="a_edge9"><a xlink:href="dir_000642_000384.html" target="_top">
<path fill="none" stroke="#63b8ff" d="M258.93,-70.98C243.14,-62.61 218.78,-49.7 200.37,-39.95"/>
<polygon fill="#63b8ff" stroke="#63b8ff" points="201.83,-36.76 191.36,-35.17 198.56,-42.95 201.83,-36.76"/>
</a>
</g>
<g id="a_edge9&#45;headlabel"><a xlink:href="dir_000642_000384.html" target="_top" xlink:title="1">
<text text-anchor="middle" x="206.34" y="-33.44" font-family="Helvetica,sans-Serif" font-size="10.00" fill="#63b8ff">1</text>
</a>
</g>
</g>
<!-- dir_687a534115dd5ddd64433493e0a377e4&#45;&gt;dir_6b32e8ebbe7a92323e8e3528c2c140d7 -->
<g id="edge7" class="edge">
<title>dir_687a534115dd5ddd64433493e0a377e4&#45;&gt;dir_6b32e8ebbe7a92323e8e3528c2c140d7</title>
<g id="a_edge7"><a xlink:href="dir_000642_000691.html" target="_top">
<path fill="none" stroke="#63b8ff" d="M299.35,-70.89C306.9,-68.29 315.28,-65.46 323,-63 339.38,-57.78 380.55,-45.74 410.99,-36.91"/>
<polygon fill="#63b8ff" stroke="#63b8ff" points="412.21,-40.2 420.84,-34.05 410.26,-33.47 412.21,-40.2"/>
</a>
</g>
<g id="a_edge7&#45;headlabel"><a xlink:href="dir_000642_000691.html" target="_top" xlink:title="4">
<text text-anchor="middle" x="409.55" y="-41.42" font-family="Helvetica,sans-Serif" font-size="10.00" fill="#63b8ff">4</text>
</a>
</g>
</g>
<!-- dir_687a534115dd5ddd64433493e0a377e4&#45;&gt;dir_ae43f2845e5bc2a3c78c585043f3b07d -->
<g id="edge10" class="edge">
<title>dir_687a534115dd5ddd64433493e0a377e4&#45;&gt;dir_ae43f2845e5bc2a3c78c585043f3b07d</title>
<g id="a_edge10"><a xlink:href="dir_000642_000474.html" target="_top">
<path fill="none" stroke="#63b8ff" d="M297.73,-70.87C305.64,-68.08 314.64,-65.16 323,-63 389.49,-45.83 410.06,-49.56 480.94,-35.08"/>
<polygon fill="#63b8ff" stroke="#63b8ff" points="481.72,-38.49 490.8,-33.01 480.29,-31.64 481.72,-38.49"/>
</a>
</g>
<g id="a_edge10&#45;headlabel"><a xlink:href="dir_000642_000474.html" target="_top" xlink:title="11">
<text text-anchor="middle" x="478.79" y="-39.5" font-family="Helvetica,sans-Serif" font-size="10.00" fill="#63b8ff">11</text>
</a>
</g>
</g>
<!-- dir_81990cfc34a6492ee52a8638792ffab8 -->
<g id="node8" class="node">
<title>dir_81990cfc34a6492ee52a8638792ffab8</title>
<g id="a_node8"><a xlink:href="dir_81990cfc34a6492ee52a8638792ffab8.html" target="_top" xlink:title="iio">
<polygon fill="#edf0f7" stroke="red" stroke-dasharray="5,2" points="588.5,-35 559.5,-35 559.5,-16 588.5,-16 588.5,-35"/>
<text text-anchor="middle" x="574" y="-23" font-family="Helvetica,sans-Serif" font-size="10.00">iio</text>
</a>
</g>
</g>
<!-- dir_687a534115dd5ddd64433493e0a377e4&#45;&gt;dir_81990cfc34a6492ee52a8638792ffab8 -->
<g id="edge8" class="edge">
<title>dir_687a534115dd5ddd64433493e0a377e4&#45;&gt;dir_81990cfc34a6492ee52a8638792ffab8</title>
<g id="a_edge8"><a xlink:href="dir_000642_000616.html" target="_top">
<path fill="none" stroke="#63b8ff" d="M296.7,-70.97C304.84,-68.05 314.24,-65.02 323,-63 418.95,-40.85 449.18,-57.23 549.5,-34.55"/>
<polygon fill="#63b8ff" stroke="#63b8ff" points="550.49,-37.91 559.43,-32.23 548.89,-31.1 550.49,-37.91"/>
</a>
</g>
<g id="a_edge8&#45;headlabel"><a xlink:href="dir_000642_000616.html" target="_top" xlink:title="1">
<text text-anchor="middle" x="547.63" y="-38.99" font-family="Helvetica,sans-Serif" font-size="10.00" fill="#63b8ff">1</text>
</a>
</g>
</g>
</g>
</svg>

<g id="navigator" transform="translate(0 0)" fill="#404254">
  <rect fill="#f2f5e9" fill-opacity="0.5" stroke="#606060" stroke-width=".5" x="0" y="0" width="60" height="60"/>
  <use id="zoomplus" xlink:href="#zoomPlus" x="17" y="9" onmousedown="handleZoom(evt,'in')"/>
  <use id="zoomminus" xlink:href="#zoomMin" x="42" y="9" onmousedown="handleZoom(evt,'out')"/>
  <use id="reset" xlink:href="#resetDef" x="30" y="36" onmousedown="handleReset()"/>
   <use id="arrowup" xlink:href="#arrowUp" x="0" y="0" onmousedown="handlePan(0,-1)"/>
  <use id="arrowright" xlink:href="#arrowRight" x="0" y="0" onmousedown="handlePan(1,0)"/>
  <use id="arrowdown" xlink:href="#arrowDown" x="0" y="0" onmousedown="handlePan(0,1)"/>
  <use id="arrowleft" xlink:href="#arrowLeft" x="0" y="0" onmousedown="handlePan(-1,0)"/>
</g>
<svg viewBox="0 0 15 15" width="100%" height="30px" preserveAspectRatio="xMaxYMin meet">
 <g id="arrow_out" transform="scale(0.3 0.3)">
  <a xlink:href="dir_8f6fe675cca4313d5fad73857b0d836e_dep_org.svg" target="_base">
   <rect id="button" ry="5" rx="5" y="6" x="6" height="38" width="38"
        fill="#f2f5e9" fill-opacity="0.5" stroke="#606060" stroke-width="1.0"/>
   <path id="arrow"
     d="M 11.500037,31.436501 C 11.940474,20.09759 22.043105,11.32322 32.158766,21.979434 L 37.068811,17.246167 C 37.068811,17.246167 37.088388,32 37.088388,32 L 22.160133,31.978069 C 22.160133,31.978069 26.997745,27.140456 26.997745,27.140456 C 18.528582,18.264221 13.291696,25.230495 11.500037,31.436501 z"
     style="fill:#404040;"/>
  </a>
 </g>
</svg>

<style type='text/css'>
<![CDATA[
[data-mouse-over-selected='false'] { opacity: 0.7; }
[data-mouse-over-selected='true']  { opacity: 1.0; }
]]>
</style>
<script type="application/ecmascript"><![CDATA[
document.addEventListener('DOMContentLoaded', (event) => {
  highlightEdges();
  highlightAdjacentNodes();
});
]]></script>
</svg>
