<?xml version="1.0" encoding="UTF-8" standalone="no"?>
<!DOCTYPE svg PUBLIC "-//W3C//DTD SVG 1.1//EN"
 "http://www.w3.org/Graphics/SVG/1.1/DTD/svg11.dtd">
<!-- Generated by graphviz version 2.43.0 (0)
 -->
<!-- Title: /home/runner/work/no&#45;OS/no&#45;OS/projects/ad74416h/src/examples Pages: 1 -->
<svg width="1620pt" height="126pt"
 viewBox="0.00 0.00 1620.00 126.32" xmlns="http://www.w3.org/2000/svg" xmlns:xlink="http://www.w3.org/1999/xlink">
<g id="graph0" class="graph" transform="scale(1 1) rotate(0) translate(4 122.32)">
<title>/home/runner/work/no&#45;OS/no&#45;OS/projects/ad74416h/src/examples</title>
<g id="clust1" class="cluster">
<title>clusterdir_47c3af0b2ca9055ef715d6b6c52f0307</title>
<g id="a_clust1"><a xlink:href="dir_47c3af0b2ca9055ef715d6b6c52f0307.html" target="_top" xlink:title="src">
<polygon fill="#edf0f7" stroke="#7f7f7f" stroke-dasharray="5,2" points="8,-40.32 8,-110.32 1604,-110.32 1604,-40.32 8,-40.32"/>
<text text-anchor="middle" x="806" y="-98.32" font-family="Helvetica,sans-Serif" font-size="10.00">src</text>
</a>
</g>
</g>
<g id="clust2" class="cluster">
<title>clusterdir_43ad31718f3a1430f4315c748420b70d</title>
<g id="a_clust2"><a xlink:href="dir_43ad31718f3a1430f4315c748420b70d.html" target="_top">
<polygon fill="#edf0f7" stroke="#404040" stroke-width="2" points="16,-48.32 16,-83.32 1596,-83.32 1596,-48.32 16,-48.32"/>
</a>
</g>
</g>
<!-- dir_43ad31718f3a1430f4315c748420b70d -->
<g id="node1" class="node">
<title>dir_43ad31718f3a1430f4315c748420b70d</title>
<text text-anchor="middle" x="1555" y="-63.32" font-family="Helvetica,sans-Serif" font-size="10.00">examples</text>
</g>
<!-- dir_c98696cc0f8cb8b6783041cf8a716711 -->
<g id="node2" class="node">
<title>dir_c98696cc0f8cb8b6783041cf8a716711</title>
<g id="a_node2"><a xlink:href="dir_c98696cc0f8cb8b6783041cf8a716711.html" target="_top" xlink:title="basic">
<polygon fill="#a2b4d6" stroke="#404040" points="541,-75.32 499,-75.32 499,-56.32 541,-56.32 541,-75.32"/>
<text text-anchor="middle" x="520" y="-63.32" font-family="Helvetica,sans-Serif" font-size="10.00">basic</text>
</a>
</g>
</g>
<!-- dir_6b32e8ebbe7a92323e8e3528c2c140d7 -->
<g id="node15" class="node">
<title>dir_6b32e8ebbe7a92323e8e3528c2c140d7</title>
<g id="a_node15"><a xlink:href="dir_6b32e8ebbe7a92323e8e3528c2c140d7.html" target="_top" xlink:title="include">
<polygon fill="#edf0f7" stroke="#7f7f7f" points="709,-20.32 657,-20.32 657,-1.32 709,-1.32 709,-20.32"/>
<text text-anchor="middle" x="683" y="-8.32" font-family="Helvetica,sans-Serif" font-size="10.00">include</text>
</a>
</g>
</g>
<!-- dir_c98696cc0f8cb8b6783041cf8a716711&#45;&gt;dir_6b32e8ebbe7a92323e8e3528c2c140d7 -->
<g id="edge1" class="edge">
<title>dir_c98696cc0f8cb8b6783041cf8a716711&#45;&gt;dir_6b32e8ebbe7a92323e8e3528c2c140d7</title>
<g id="a_edge1"><a xlink:href="dir_000276_000711.html" target="_top">
<path fill="none" stroke="#63b8ff" d="M528.41,-56.09C534.04,-50.75 541.88,-44.22 550,-40.32 580.76,-25.53 619.18,-18.36 646.81,-14.91"/>
<polygon fill="#63b8ff" stroke="#63b8ff" points="647.29,-18.38 656.83,-13.77 646.5,-11.43 647.29,-18.38"/>
</a>
</g>
<g id="a_edge1&#45;headlabel"><a xlink:href="dir_000276_000711.html" target="_top" xlink:title="3">
<text text-anchor="middle" x="644.05" y="-19.11" font-family="Helvetica,sans-Serif" font-size="10.00" fill="#63b8ff">3</text>
</a>
</g>
</g>
<!-- dir_ae43f2845e5bc2a3c78c585043f3b07d -->
<g id="node16" class="node">
<title>dir_ae43f2845e5bc2a3c78c585043f3b07d</title>
<g id="a_node16"><a xlink:href="dir_ae43f2845e5bc2a3c78c585043f3b07d.html" target="_top" xlink:title="drivers">
<polygon fill="#edf0f7" stroke="red" stroke-dasharray="5,2" points="777,-20.32 727,-20.32 727,-1.32 777,-1.32 777,-20.32"/>
<text text-anchor="middle" x="752" y="-8.32" font-family="Helvetica,sans-Serif" font-size="10.00">drivers</text>
</a>
</g>
</g>
<!-- dir_c98696cc0f8cb8b6783041cf8a716711&#45;&gt;dir_ae43f2845e5bc2a3c78c585043f3b07d -->
<g id="edge2" class="edge">
<title>dir_c98696cc0f8cb8b6783041cf8a716711&#45;&gt;dir_ae43f2845e5bc2a3c78c585043f3b07d</title>
<g id="a_edge2"><a xlink:href="dir_000276_000484.html" target="_top">
<path fill="none" stroke="#63b8ff" d="M528.05,-56.07C533.64,-50.58 541.58,-43.89 550,-40.32 616.37,-12.13 641.93,-32.11 716.93,-20.2"/>
<polygon fill="#63b8ff" stroke="#63b8ff" points="717.57,-23.64 726.83,-18.49 716.38,-16.74 717.57,-23.64"/>
</a>
</g>
<g id="a_edge2&#45;headlabel"><a xlink:href="dir_000276_000484.html" target="_top" xlink:title="1">
<text text-anchor="middle" x="714.51" y="-24.55" font-family="Helvetica,sans-Serif" font-size="10.00" fill="#63b8ff">1</text>
</a>
</g>
</g>
<!-- dir_a344d761c6c374f65db57a09e238f157 -->
<g id="node3" class="node">
<title>dir_a344d761c6c374f65db57a09e238f157</title>
<g id="a_node3"><a xlink:href="dir_a344d761c6c374f65db57a09e238f157.html" target="_top" xlink:title="current_input_ext">
<polygon fill="#a2b4d6" stroke="#404040" points="481,-75.32 379,-75.32 379,-56.32 481,-56.32 481,-75.32"/>
<text text-anchor="middle" x="430" y="-63.32" font-family="Helvetica,sans-Serif" font-size="10.00">current_input_ext</text>
</a>
</g>
</g>
<!-- dir_a344d761c6c374f65db57a09e238f157&#45;&gt;dir_6b32e8ebbe7a92323e8e3528c2c140d7 -->
<g id="edge3" class="edge">
<title>dir_a344d761c6c374f65db57a09e238f157&#45;&gt;dir_6b32e8ebbe7a92323e8e3528c2c140d7</title>
<g id="a_edge3"><a xlink:href="dir_000458_000711.html" target="_top">
<path fill="none" stroke="#63b8ff" d="M447.72,-56.26C459.46,-50.92 475.35,-44.33 490,-40.32 543.57,-25.66 607.69,-18.08 646.87,-14.53"/>
<polygon fill="#63b8ff" stroke="#63b8ff" points="647.33,-18.01 656.99,-13.66 646.73,-11.03 647.33,-18.01"/>
</a>
</g>
<g id="a_edge3&#45;headlabel"><a xlink:href="dir_000458_000711.html" target="_top" xlink:title="2">
<text text-anchor="middle" x="644" y="-18.65" font-family="Helvetica,sans-Serif" font-size="10.00" fill="#63b8ff">2</text>
</a>
</g>
</g>
<!-- dir_a344d761c6c374f65db57a09e238f157&#45;&gt;dir_ae43f2845e5bc2a3c78c585043f3b07d -->
<g id="edge4" class="edge">
<title>dir_a344d761c6c374f65db57a09e238f157&#45;&gt;dir_ae43f2845e5bc2a3c78c585043f3b07d</title>
<g id="a_edge4"><a xlink:href="dir_000458_000484.html" target="_top">
<path fill="none" stroke="#63b8ff" d="M447.13,-56.21C458.89,-50.71 475.02,-43.94 490,-40.32 585.78,-17.12 615.81,-35.89 716.84,-20.2"/>
<polygon fill="#63b8ff" stroke="#63b8ff" points="717.53,-23.64 726.84,-18.58 716.41,-16.73 717.53,-23.64"/>
</a>
</g>
<g id="a_edge4&#45;headlabel"><a xlink:href="dir_000458_000484.html" target="_top" xlink:title="1">
<text text-anchor="middle" x="714.44" y="-24.52" font-family="Helvetica,sans-Serif" font-size="10.00" fill="#63b8ff">1</text>
</a>
</g>
</g>
<!-- dir_fb36adf831d7b550eb4cd8f53262ebf1 -->
<g id="node4" class="node">
<title>dir_fb36adf831d7b550eb4cd8f53262ebf1</title>
<g id="a_node4"><a xlink:href="dir_fb36adf831d7b550eb4cd8f53262ebf1.html" target="_top" xlink:title="current_input_loop">
<polygon fill="#a2b4d6" stroke="#404040" points="360.5,-75.32 253.5,-75.32 253.5,-56.32 360.5,-56.32 360.5,-75.32"/>
<text text-anchor="middle" x="307" y="-63.32" font-family="Helvetica,sans-Serif" font-size="10.00">current_input_loop</text>
</a>
</g>
</g>
<!-- dir_fb36adf831d7b550eb4cd8f53262ebf1&#45;&gt;dir_6b32e8ebbe7a92323e8e3528c2c140d7 -->
<g id="edge5" class="edge">
<title>dir_fb36adf831d7b550eb4cd8f53262ebf1&#45;&gt;dir_6b32e8ebbe7a92323e8e3528c2c140d7</title>
<g id="a_edge5"><a xlink:href="dir_000459_000711.html" target="_top">
<path fill="none" stroke="#63b8ff" d="M325.04,-56.24C337.41,-50.75 354.35,-44 370,-40.32 468.01,-17.28 587.34,-12.65 646.34,-11.85"/>
<polygon fill="#63b8ff" stroke="#63b8ff" points="646.67,-15.35 656.64,-11.75 646.6,-8.35 646.67,-15.35"/>
</a>
</g>
<g id="a_edge5&#45;headlabel"><a xlink:href="dir_000459_000711.html" target="_top" xlink:title="2">
<text text-anchor="middle" x="643.11" y="-15.73" font-family="Helvetica,sans-Serif" font-size="10.00" fill="#63b8ff">2</text>
</a>
</g>
</g>
<!-- dir_fb36adf831d7b550eb4cd8f53262ebf1&#45;&gt;dir_ae43f2845e5bc2a3c78c585043f3b07d -->
<g id="edge6" class="edge">
<title>dir_fb36adf831d7b550eb4cd8f53262ebf1&#45;&gt;dir_ae43f2845e5bc2a3c78c585043f3b07d</title>
<g id="a_edge6"><a xlink:href="dir_000459_000484.html" target="_top">
<path fill="none" stroke="#63b8ff" d="M324.46,-56.31C336.86,-50.71 354.06,-43.78 370,-40.32 518.13,-8.1 562.93,-42.12 716.58,-20.19"/>
<polygon fill="#63b8ff" stroke="#63b8ff" points="717.48,-23.59 726.86,-18.66 716.45,-16.67 717.48,-23.59"/>
</a>
</g>
<g id="a_edge6&#45;headlabel"><a xlink:href="dir_000459_000484.html" target="_top" xlink:title="1">
<text text-anchor="middle" x="714.34" y="-24.43" font-family="Helvetica,sans-Serif" font-size="10.00" fill="#63b8ff">1</text>
</a>
</g>
</g>
<!-- dir_91234a5d4ed9464a2d4ab723a6eccecd -->
<g id="node5" class="node">
<title>dir_91234a5d4ed9464a2d4ab723a6eccecd</title>
<g id="a_node5"><a xlink:href="dir_91234a5d4ed9464a2d4ab723a6eccecd.html" target="_top" xlink:title="current_output">
<polygon fill="#a2b4d6" stroke="#404040" points="236,-75.32 148,-75.32 148,-56.32 236,-56.32 236,-75.32"/>
<text text-anchor="middle" x="192" y="-63.32" font-family="Helvetica,sans-Serif" font-size="10.00">current_output</text>
</a>
</g>
</g>
<!-- dir_91234a5d4ed9464a2d4ab723a6eccecd&#45;&gt;dir_6b32e8ebbe7a92323e8e3528c2c140d7 -->
<g id="edge7" class="edge">
<title>dir_91234a5d4ed9464a2d4ab723a6eccecd&#45;&gt;dir_6b32e8ebbe7a92323e8e3528c2c140d7</title>
<g id="a_edge7"><a xlink:href="dir_000460_000711.html" target="_top">
<path fill="none" stroke="#63b8ff" d="M206.76,-56.2C217.1,-50.61 231.44,-43.76 245,-40.32 320.66,-21.08 555.77,-14.38 646.64,-12.47"/>
<polygon fill="#63b8ff" stroke="#63b8ff" points="646.81,-15.97 656.74,-12.27 646.67,-8.97 646.81,-15.97"/>
</a>
</g>
<g id="a_edge7&#45;headlabel"><a xlink:href="dir_000460_000711.html" target="_top" xlink:title="2">
<text text-anchor="middle" x="643.27" y="-16.38" font-family="Helvetica,sans-Serif" font-size="10.00" fill="#63b8ff">2</text>
</a>
</g>
</g>
<!-- dir_91234a5d4ed9464a2d4ab723a6eccecd&#45;&gt;dir_ae43f2845e5bc2a3c78c585043f3b07d -->
<g id="edge8" class="edge">
<title>dir_91234a5d4ed9464a2d4ab723a6eccecd&#45;&gt;dir_ae43f2845e5bc2a3c78c585043f3b07d</title>
<g id="a_edge8"><a xlink:href="dir_000460_000484.html" target="_top">
<path fill="none" stroke="#63b8ff" d="M206.73,-56.1C217.07,-50.47 231.4,-43.61 245,-40.32 344.35,-16.25 598.91,-34.29 716.9,-20.03"/>
<polygon fill="#63b8ff" stroke="#63b8ff" points="717.41,-23.5 726.86,-18.7 716.49,-16.56 717.41,-23.5"/>
</a>
</g>
<g id="a_edge8&#45;headlabel"><a xlink:href="dir_000460_000484.html" target="_top" xlink:title="1">
<text text-anchor="middle" x="714.23" y="-24.29" font-family="Helvetica,sans-Serif" font-size="10.00" fill="#63b8ff">1</text>
</a>
</g>
</g>
<!-- dir_2c68c576b525c04c42e8afa009d3379e -->
<g id="node6" class="node">
<title>dir_2c68c576b525c04c42e8afa009d3379e</title>
<g id="a_node6"><a xlink:href="dir_2c68c576b525c04c42e8afa009d3379e.html" target="_top" xlink:title="digital_input_logic">
<polygon fill="#a2b4d6" stroke="#404040" points="130,-75.32 24,-75.32 24,-56.32 130,-56.32 130,-75.32"/>
<text text-anchor="middle" x="77" y="-63.32" font-family="Helvetica,sans-Serif" font-size="10.00">digital_input_logic</text>
</a>
</g>
</g>
<!-- dir_2c68c576b525c04c42e8afa009d3379e&#45;&gt;dir_6b32e8ebbe7a92323e8e3528c2c140d7 -->
<g id="edge9" class="edge">
<title>dir_2c68c576b525c04c42e8afa009d3379e&#45;&gt;dir_6b32e8ebbe7a92323e8e3528c2c140d7</title>
<g id="a_edge9"><a xlink:href="dir_000475_000711.html" target="_top">
<path fill="none" stroke="#63b8ff" d="M94.16,-56.29C106.35,-50.67 123.28,-43.74 139,-40.32 236.27,-19.14 541.44,-13.52 646.8,-12.19"/>
<polygon fill="#63b8ff" stroke="#63b8ff" points="646.98,-15.69 656.93,-12.07 646.89,-8.69 646.98,-15.69"/>
</a>
</g>
<g id="a_edge9&#45;headlabel"><a xlink:href="dir_000475_000711.html" target="_top" xlink:title="3">
<text text-anchor="middle" x="643.42" y="-16.07" font-family="Helvetica,sans-Serif" font-size="10.00" fill="#63b8ff">3</text>
</a>
</g>
</g>
<!-- dir_2c68c576b525c04c42e8afa009d3379e&#45;&gt;dir_ae43f2845e5bc2a3c78c585043f3b07d -->
<g id="edge10" class="edge">
<title>dir_2c68c576b525c04c42e8afa009d3379e&#45;&gt;dir_ae43f2845e5bc2a3c78c585043f3b07d</title>
<g id="a_edge10"><a xlink:href="dir_000475_000484.html" target="_top">
<path fill="none" stroke="#63b8ff" d="M94.14,-56.2C106.33,-50.54 123.25,-43.6 139,-40.32 261.96,-14.7 574.74,-37.1 716.55,-20.08"/>
<polygon fill="#63b8ff" stroke="#63b8ff" points="717.41,-23.5 726.87,-18.73 716.5,-16.56 717.41,-23.5"/>
</a>
</g>
<g id="a_edge10&#45;headlabel"><a xlink:href="dir_000475_000484.html" target="_top" xlink:title="1">
<text text-anchor="middle" x="714.21" y="-24.28" font-family="Helvetica,sans-Serif" font-size="10.00" fill="#63b8ff">1</text>
</a>
</g>
</g>
<!-- dir_256b147e8b11d7956418d815dd39a75d -->
<g id="node7" class="node">
<title>dir_256b147e8b11d7956418d815dd39a75d</title>
<g id="a_node7"><a xlink:href="dir_256b147e8b11d7956418d815dd39a75d.html" target="_top" xlink:title="digital_input_loop">
<polygon fill="#a2b4d6" stroke="#404040" points="1504,-75.32 1400,-75.32 1400,-56.32 1504,-56.32 1504,-75.32"/>
<text text-anchor="middle" x="1452" y="-63.32" font-family="Helvetica,sans-Serif" font-size="10.00">digital_input_loop</text>
</a>
</g>
</g>
<!-- dir_256b147e8b11d7956418d815dd39a75d&#45;&gt;dir_6b32e8ebbe7a92323e8e3528c2c140d7 -->
<g id="edge11" class="edge">
<title>dir_256b147e8b11d7956418d815dd39a75d&#45;&gt;dir_6b32e8ebbe7a92323e8e3528c2c140d7</title>
<g id="a_edge11"><a xlink:href="dir_000476_000711.html" target="_top">
<path fill="none" stroke="#63b8ff" d="M1435.41,-56.3C1423.42,-50.6 1406.64,-43.58 1391,-40.32 1247.54,-10.37 881.7,-39.07 719.2,-20.07"/>
<polygon fill="#63b8ff" stroke="#63b8ff" points="719.62,-16.6 709.26,-18.82 718.74,-23.54 719.62,-16.6"/>
</a>
</g>
<g id="a_edge11&#45;headlabel"><a xlink:href="dir_000476_000711.html" target="_top" xlink:title="3">
<text text-anchor="middle" x="723.54" y="-11.73" font-family="Helvetica,sans-Serif" font-size="10.00" fill="#63b8ff">3</text>
</a>
</g>
</g>
<!-- dir_256b147e8b11d7956418d815dd39a75d&#45;&gt;dir_ae43f2845e5bc2a3c78c585043f3b07d -->
<g id="edge12" class="edge">
<title>dir_256b147e8b11d7956418d815dd39a75d&#45;&gt;dir_ae43f2845e5bc2a3c78c585043f3b07d</title>
<g id="a_edge12"><a xlink:href="dir_000476_000484.html" target="_top">
<path fill="none" stroke="#63b8ff" d="M1435.14,-56.25C1423.16,-50.61 1406.5,-43.67 1391,-40.32 1274.44,-15.08 903.63,-12.13 787.28,-11.83"/>
<polygon fill="#63b8ff" stroke="#63b8ff" points="787.15,-8.33 777.14,-11.81 787.13,-15.33 787.15,-8.33"/>
</a>
</g>
<g id="a_edge12&#45;headlabel"><a xlink:href="dir_000476_000484.html" target="_top" xlink:title="1">
<text text-anchor="middle" x="790.75" y="-3" font-family="Helvetica,sans-Serif" font-size="10.00" fill="#63b8ff">1</text>
</a>
</g>
</g>
<!-- dir_6c71bee9bb8bb735ef6a759f78bf9dd6 -->
<g id="node8" class="node">
<title>dir_6c71bee9bb8bb735ef6a759f78bf9dd6</title>
<g id="a_node8"><a xlink:href="dir_6c71bee9bb8bb735ef6a759f78bf9dd6.html" target="_top" xlink:title="digital_output">
<polygon fill="#a2b4d6" stroke="#404040" points="1382,-75.32 1298,-75.32 1298,-56.32 1382,-56.32 1382,-75.32"/>
<text text-anchor="middle" x="1340" y="-63.32" font-family="Helvetica,sans-Serif" font-size="10.00">digital_output</text>
</a>
</g>
</g>
<!-- dir_6c71bee9bb8bb735ef6a759f78bf9dd6&#45;&gt;dir_6b32e8ebbe7a92323e8e3528c2c140d7 -->
<g id="edge13" class="edge">
<title>dir_6c71bee9bb8bb735ef6a759f78bf9dd6&#45;&gt;dir_6b32e8ebbe7a92323e8e3528c2c140d7</title>
<g id="a_edge13"><a xlink:href="dir_000477_000711.html" target="_top">
<path fill="none" stroke="#63b8ff" d="M1326.3,-56.31C1316.35,-50.62 1302.35,-43.6 1289,-40.32 1168.73,-10.7 859.38,-36.29 719.45,-20.1"/>
<polygon fill="#63b8ff" stroke="#63b8ff" points="719.63,-16.59 709.26,-18.8 718.74,-23.54 719.63,-16.59"/>
</a>
</g>
<g id="a_edge13&#45;headlabel"><a xlink:href="dir_000477_000711.html" target="_top" xlink:title="3">
<text text-anchor="middle" x="723.55" y="-11.73" font-family="Helvetica,sans-Serif" font-size="10.00" fill="#63b8ff">3</text>
</a>
</g>
</g>
<!-- dir_6c71bee9bb8bb735ef6a759f78bf9dd6&#45;&gt;dir_ae43f2845e5bc2a3c78c585043f3b07d -->
<g id="edge14" class="edge">
<title>dir_6c71bee9bb8bb735ef6a759f78bf9dd6&#45;&gt;dir_ae43f2845e5bc2a3c78c585043f3b07d</title>
<g id="a_edge14"><a xlink:href="dir_000477_000484.html" target="_top">
<path fill="none" stroke="#63b8ff" d="M1325.85,-56.14C1315.93,-50.53 1302.13,-43.68 1289,-40.32 1193.67,-15.93 891.25,-12.38 787.41,-11.89"/>
<polygon fill="#63b8ff" stroke="#63b8ff" points="787.16,-8.39 777.15,-11.85 787.13,-15.39 787.16,-8.39"/>
</a>
</g>
<g id="a_edge14&#45;headlabel"><a xlink:href="dir_000477_000484.html" target="_top" xlink:title="1">
<text text-anchor="middle" x="790.77" y="-3.06" font-family="Helvetica,sans-Serif" font-size="10.00" fill="#63b8ff">1</text>
</a>
</g>
</g>
<!-- dir_8f0143935043e620bce0e81899c13447 -->
<g id="node9" class="node">
<title>dir_8f0143935043e620bce0e81899c13447</title>
<g id="a_node9"><a xlink:href="dir_8f0143935043e620bce0e81899c13447.html" target="_top" xlink:title="multiple_devices">
<polygon fill="#a2b4d6" stroke="#404040" points="1280,-75.32 1180,-75.32 1180,-56.32 1280,-56.32 1280,-75.32"/>
<text text-anchor="middle" x="1230" y="-63.32" font-family="Helvetica,sans-Serif" font-size="10.00">multiple_devices</text>
</a>
</g>
</g>
<!-- dir_8f0143935043e620bce0e81899c13447&#45;&gt;dir_6b32e8ebbe7a92323e8e3528c2c140d7 -->
<g id="edge15" class="edge">
<title>dir_8f0143935043e620bce0e81899c13447&#45;&gt;dir_6b32e8ebbe7a92323e8e3528c2c140d7</title>
<g id="a_edge15"><a xlink:href="dir_000906_000711.html" target="_top">
<path fill="none" stroke="#63b8ff" d="M1213.47,-56.12C1201.92,-50.5 1185.94,-43.64 1171,-40.32 977.45,2.73 919.39,-47.02 719.22,-20.16"/>
<polygon fill="#63b8ff" stroke="#63b8ff" points="719.65,-16.68 709.27,-18.77 718.69,-23.62 719.65,-16.68"/>
</a>
</g>
<g id="a_edge15&#45;headlabel"><a xlink:href="dir_000906_000711.html" target="_top" xlink:title="2">
<text text-anchor="middle" x="723.6" y="-11.87" font-family="Helvetica,sans-Serif" font-size="10.00" fill="#63b8ff">2</text>
</a>
</g>
</g>
<!-- dir_8f0143935043e620bce0e81899c13447&#45;&gt;dir_ae43f2845e5bc2a3c78c585043f3b07d -->
<g id="edge16" class="edge">
<title>dir_8f0143935043e620bce0e81899c13447&#45;&gt;dir_ae43f2845e5bc2a3c78c585043f3b07d</title>
<g id="a_edge16"><a xlink:href="dir_000906_000484.html" target="_top">
<path fill="none" stroke="#63b8ff" d="M1213.45,-56.23C1201.88,-50.66 1185.9,-43.82 1171,-40.32 1098.43,-23.27 874.49,-15.27 787.27,-12.74"/>
<polygon fill="#63b8ff" stroke="#63b8ff" points="787.19,-9.24 777.09,-12.46 786.99,-16.24 787.19,-9.24"/>
</a>
</g>
<g id="a_edge16&#45;headlabel"><a xlink:href="dir_000906_000484.html" target="_top" xlink:title="1">
<text text-anchor="middle" x="790.86" y="-4" font-family="Helvetica,sans-Serif" font-size="10.00" fill="#63b8ff">1</text>
</a>
</g>
</g>
<!-- dir_822f8a0c6dafc04e87ade643dde034c0 -->
<g id="node10" class="node">
<title>dir_822f8a0c6dafc04e87ade643dde034c0</title>
<g id="a_node10"><a xlink:href="dir_822f8a0c6dafc04e87ade643dde034c0.html" target="_top" xlink:title="temperature_2wire_rtd">
<polygon fill="#a2b4d6" stroke="#404040" points="1162,-75.32 1034,-75.32 1034,-56.32 1162,-56.32 1162,-75.32"/>
<text text-anchor="middle" x="1098" y="-63.32" font-family="Helvetica,sans-Serif" font-size="10.00">temperature_2wire_rtd</text>
</a>
</g>
</g>
<!-- dir_822f8a0c6dafc04e87ade643dde034c0&#45;&gt;dir_6b32e8ebbe7a92323e8e3528c2c140d7 -->
<g id="edge17" class="edge">
<title>dir_822f8a0c6dafc04e87ade643dde034c0&#45;&gt;dir_6b32e8ebbe7a92323e8e3528c2c140d7</title>
<g id="a_edge17"><a xlink:href="dir_001224_000711.html" target="_top">
<path fill="none" stroke="#63b8ff" d="M1077.31,-56.27C1062.9,-50.72 1043.1,-43.88 1025,-40.32 893.99,-14.52 854.98,-39.73 719.22,-20.2"/>
<polygon fill="#63b8ff" stroke="#63b8ff" points="719.68,-16.73 709.28,-18.71 718.65,-23.65 719.68,-16.73"/>
</a>
</g>
<g id="a_edge17&#45;headlabel"><a xlink:href="dir_001224_000711.html" target="_top" xlink:title="3">
<text text-anchor="middle" x="723.66" y="-11.95" font-family="Helvetica,sans-Serif" font-size="10.00" fill="#63b8ff">3</text>
</a>
</g>
</g>
<!-- dir_822f8a0c6dafc04e87ade643dde034c0&#45;&gt;dir_ae43f2845e5bc2a3c78c585043f3b07d -->
<g id="edge18" class="edge">
<title>dir_822f8a0c6dafc04e87ade643dde034c0&#45;&gt;dir_ae43f2845e5bc2a3c78c585043f3b07d</title>
<g id="a_edge18"><a xlink:href="dir_001224_000484.html" target="_top">
<path fill="none" stroke="#63b8ff" d="M1076.63,-56.26C1062.26,-50.85 1042.77,-44.18 1025,-40.32 940.92,-22.05 839.64,-15.37 787.24,-13.02"/>
<polygon fill="#63b8ff" stroke="#63b8ff" points="787.27,-9.52 777.13,-12.6 786.98,-16.52 787.27,-9.52"/>
</a>
</g>
<g id="a_edge18&#45;headlabel"><a xlink:href="dir_001224_000484.html" target="_top" xlink:title="1">
<text text-anchor="middle" x="790.98" y="-4.34" font-family="Helvetica,sans-Serif" font-size="10.00" fill="#63b8ff">1</text>
</a>
</g>
</g>
<!-- dir_1b0031d0611d3f1ab0622e7408f4c68a -->
<g id="node11" class="node">
<title>dir_1b0031d0611d3f1ab0622e7408f4c68a</title>
<g id="a_node11"><a xlink:href="dir_1b0031d0611d3f1ab0622e7408f4c68a.html" target="_top" xlink:title="temperature_3wire_rtd">
<polygon fill="#a2b4d6" stroke="#404040" points="1016,-75.32 888,-75.32 888,-56.32 1016,-56.32 1016,-75.32"/>
<text text-anchor="middle" x="952" y="-63.32" font-family="Helvetica,sans-Serif" font-size="10.00">temperature_3wire_rtd</text>
</a>
</g>
</g>
<!-- dir_1b0031d0611d3f1ab0622e7408f4c68a&#45;&gt;dir_6b32e8ebbe7a92323e8e3528c2c140d7 -->
<g id="edge19" class="edge">
<title>dir_1b0031d0611d3f1ab0622e7408f4c68a&#45;&gt;dir_6b32e8ebbe7a92323e8e3528c2c140d7</title>
<g id="a_edge19"><a xlink:href="dir_001225_000711.html" target="_top">
<path fill="none" stroke="#63b8ff" d="M930.29,-56.25C915.94,-50.91 896.6,-44.32 879,-40.32 811.71,-25.01 790.72,-32.57 719.25,-20.32"/>
<polygon fill="#63b8ff" stroke="#63b8ff" points="719.76,-16.86 709.3,-18.55 718.53,-23.75 719.76,-16.86"/>
</a>
</g>
<g id="a_edge19&#45;headlabel"><a xlink:href="dir_001225_000711.html" target="_top" xlink:title="3">
<text text-anchor="middle" x="723.8" y="-12.19" font-family="Helvetica,sans-Serif" font-size="10.00" fill="#63b8ff">3</text>
</a>
</g>
</g>
<!-- dir_1b0031d0611d3f1ab0622e7408f4c68a&#45;&gt;dir_ae43f2845e5bc2a3c78c585043f3b07d -->
<g id="edge20" class="edge">
<title>dir_1b0031d0611d3f1ab0622e7408f4c68a&#45;&gt;dir_ae43f2845e5bc2a3c78c585043f3b07d</title>
<g id="a_edge20"><a xlink:href="dir_001225_000484.html" target="_top">
<path fill="none" stroke="#63b8ff" d="M928.52,-56.25C914.3,-51.24 895.74,-44.99 879,-40.32 848.2,-31.72 812.65,-23.92 787.01,-18.66"/>
<polygon fill="#63b8ff" stroke="#63b8ff" points="787.51,-15.19 777.01,-16.64 786.12,-22.05 787.51,-15.19"/>
</a>
</g>
<g id="a_edge20&#45;headlabel"><a xlink:href="dir_001225_000484.html" target="_top" xlink:title="1">
<text text-anchor="middle" x="791.59" y="-10.62" font-family="Helvetica,sans-Serif" font-size="10.00" fill="#63b8ff">1</text>
</a>
</g>
</g>
<!-- dir_9c32829c262e38a4d4269c0bcc27467b -->
<g id="node12" class="node">
<title>dir_9c32829c262e38a4d4269c0bcc27467b</title>
<g id="a_node12"><a xlink:href="dir_9c32829c262e38a4d4269c0bcc27467b.html" target="_top" xlink:title="voltage_input">
<polygon fill="#a2b4d6" stroke="#404040" points="869.5,-75.32 786.5,-75.32 786.5,-56.32 869.5,-56.32 869.5,-75.32"/>
<text text-anchor="middle" x="828" y="-63.32" font-family="Helvetica,sans-Serif" font-size="10.00">voltage_input</text>
</a>
</g>
</g>
<!-- dir_9c32829c262e38a4d4269c0bcc27467b&#45;&gt;dir_6b32e8ebbe7a92323e8e3528c2c140d7 -->
<g id="edge21" class="edge">
<title>dir_9c32829c262e38a4d4269c0bcc27467b&#45;&gt;dir_6b32e8ebbe7a92323e8e3528c2c140d7</title>
<g id="a_edge21"><a xlink:href="dir_001237_000711.html" target="_top">
<path fill="none" stroke="#63b8ff" d="M812.09,-56.19C802.41,-51.15 789.7,-44.9 778,-40.32 758.88,-32.82 736.96,-26.13 718.99,-21.11"/>
<polygon fill="#63b8ff" stroke="#63b8ff" points="719.76,-17.69 709.19,-18.43 717.92,-24.44 719.76,-17.69"/>
</a>
</g>
<g id="a_edge21&#45;headlabel"><a xlink:href="dir_001237_000711.html" target="_top" xlink:title="2">
<text text-anchor="middle" x="723.98" y="-13.4" font-family="Helvetica,sans-Serif" font-size="10.00" fill="#63b8ff">2</text>
</a>
</g>
</g>
<!-- dir_9c32829c262e38a4d4269c0bcc27467b&#45;&gt;dir_ae43f2845e5bc2a3c78c585043f3b07d -->
<g id="edge22" class="edge">
<title>dir_9c32829c262e38a4d4269c0bcc27467b&#45;&gt;dir_ae43f2845e5bc2a3c78c585043f3b07d</title>
<g id="a_edge22"><a xlink:href="dir_001237_000484.html" target="_top">
<path fill="none" stroke="#63b8ff" d="M815.79,-56.3C804.22,-48.24 786.62,-35.96 772.84,-26.35"/>
<polygon fill="#63b8ff" stroke="#63b8ff" points="774.64,-23.34 764.43,-20.49 770.63,-29.08 774.64,-23.34"/>
</a>
</g>
<g id="a_edge22&#45;headlabel"><a xlink:href="dir_001237_000484.html" target="_top" xlink:title="1">
<text text-anchor="middle" x="779.21" y="-20.56" font-family="Helvetica,sans-Serif" font-size="10.00" fill="#63b8ff">1</text>
</a>
</g>
</g>
<!-- dir_84effaafc2fe0d3cbcc2890aba0cb38c -->
<g id="node13" class="node">
<title>dir_84effaafc2fe0d3cbcc2890aba0cb38c</title>
<g id="a_node13"><a xlink:href="dir_84effaafc2fe0d3cbcc2890aba0cb38c.html" target="_top" xlink:title="voltage_input_irq">
<polygon fill="#a2b4d6" stroke="#404040" points="768.5,-75.32 667.5,-75.32 667.5,-56.32 768.5,-56.32 768.5,-75.32"/>
<text text-anchor="middle" x="718" y="-63.32" font-family="Helvetica,sans-Serif" font-size="10.00">voltage_input_irq</text>
</a>
</g>
</g>
<!-- dir_84effaafc2fe0d3cbcc2890aba0cb38c&#45;&gt;dir_6b32e8ebbe7a92323e8e3528c2c140d7 -->
<g id="edge23" class="edge">
<title>dir_84effaafc2fe0d3cbcc2890aba0cb38c&#45;&gt;dir_6b32e8ebbe7a92323e8e3528c2c140d7</title>
<g id="a_edge23"><a xlink:href="dir_001238_000711.html" target="_top">
<path fill="none" stroke="#63b8ff" d="M712.22,-56.06C707.38,-48.73 700.32,-38.05 694.36,-29.01"/>
<polygon fill="#63b8ff" stroke="#63b8ff" points="697.1,-26.82 688.67,-20.41 691.26,-30.68 697.1,-26.82"/>
</a>
</g>
<g id="a_edge23&#45;headlabel"><a xlink:href="dir_001238_000711.html" target="_top" xlink:title="4">
<text text-anchor="middle" x="701.45" y="-25.76" font-family="Helvetica,sans-Serif" font-size="10.00" fill="#63b8ff">4</text>
</a>
</g>
</g>
<!-- dir_84effaafc2fe0d3cbcc2890aba0cb38c&#45;&gt;dir_ae43f2845e5bc2a3c78c585043f3b07d -->
<g id="edge24" class="edge">
<title>dir_84effaafc2fe0d3cbcc2890aba0cb38c&#45;&gt;dir_ae43f2845e5bc2a3c78c585043f3b07d</title>
<g id="a_edge24"><a xlink:href="dir_001238_000484.html" target="_top">
<path fill="none" stroke="#63b8ff" d="M723.61,-56.06C728.32,-48.73 735.17,-38.05 740.97,-29.01"/>
<polygon fill="#63b8ff" stroke="#63b8ff" points="744.04,-30.71 746.49,-20.41 738.14,-26.93 744.04,-30.71"/>
</a>
</g>
<g id="a_edge24&#45;headlabel"><a xlink:href="dir_001238_000484.html" target="_top" xlink:title="1">
<text text-anchor="middle" x="744.49" y="-32.77" font-family="Helvetica,sans-Serif" font-size="10.00" fill="#63b8ff">1</text>
</a>
</g>
</g>
<!-- dir_672537ebef00ef2edc1f3cbe8a23163d -->
<g id="node14" class="node">
<title>dir_672537ebef00ef2edc1f3cbe8a23163d</title>
<g id="a_node14"><a xlink:href="dir_672537ebef00ef2edc1f3cbe8a23163d.html" target="_top" xlink:title="voltage_output">
<polygon fill="#a2b4d6" stroke="#404040" points="649,-75.32 559,-75.32 559,-56.32 649,-56.32 649,-75.32"/>
<text text-anchor="middle" x="604" y="-63.32" font-family="Helvetica,sans-Serif" font-size="10.00">voltage_output</text>
</a>
</g>
</g>
<!-- dir_672537ebef00ef2edc1f3cbe8a23163d&#45;&gt;dir_6b32e8ebbe7a92323e8e3528c2c140d7 -->
<g id="edge25" class="edge">
<title>dir_672537ebef00ef2edc1f3cbe8a23163d&#45;&gt;dir_6b32e8ebbe7a92323e8e3528c2c140d7</title>
<g id="a_edge25"><a xlink:href="dir_001239_000711.html" target="_top">
<path fill="none" stroke="#63b8ff" d="M616.69,-56.3C628.83,-48.16 647.36,-35.73 661.75,-26.08"/>
<polygon fill="#63b8ff" stroke="#63b8ff" points="663.72,-28.96 670.08,-20.49 659.82,-23.15 663.72,-28.96"/>
</a>
</g>
<g id="a_edge25&#45;headlabel"><a xlink:href="dir_001239_000711.html" target="_top" xlink:title="2">
<text text-anchor="middle" x="662.32" y="-30.83" font-family="Helvetica,sans-Serif" font-size="10.00" fill="#63b8ff">2</text>
</a>
</g>
</g>
<!-- dir_672537ebef00ef2edc1f3cbe8a23163d&#45;&gt;dir_ae43f2845e5bc2a3c78c585043f3b07d -->
<g id="edge26" class="edge">
<title>dir_672537ebef00ef2edc1f3cbe8a23163d&#45;&gt;dir_ae43f2845e5bc2a3c78c585043f3b07d</title>
<g id="a_edge26"><a xlink:href="dir_001239_000484.html" target="_top">
<path fill="none" stroke="#63b8ff" d="M621.61,-56.32C632.29,-51.32 646.27,-45.08 659,-40.32 677.91,-33.24 699.43,-26.56 717.01,-21.44"/>
<polygon fill="#63b8ff" stroke="#63b8ff" points="718.21,-24.74 726.86,-18.62 716.28,-18.01 718.21,-24.74"/>
</a>
</g>
<g id="a_edge26&#45;headlabel"><a xlink:href="dir_001239_000484.html" target="_top" xlink:title="1">
<text text-anchor="middle" x="715.53" y="-25.96" font-family="Helvetica,sans-Serif" font-size="10.00" fill="#63b8ff">1</text>
</a>
</g>
</g>
</g>
</svg>
