<?xml version="1.0" encoding="UTF-8" standalone="no"?>
<!DOCTYPE svg PUBLIC "-//W3C//DTD SVG 1.1//EN"
 "http://www.w3.org/Graphics/SVG/1.1/DTD/svg11.dtd">
<!-- Generated by graphviz version 2.43.0 (0)
 -->
<!-- Title: /home/runner/work/no&#45;OS/no&#45;OS/projects/adrv9001/src Pages: 1 -->
<svg width="177pt" height="180pt"
 viewBox="0.00 0.00 177.00 180.00" xmlns="http://www.w3.org/2000/svg" xmlns:xlink="http://www.w3.org/1999/xlink">
<g id="graph0" class="graph" transform="scale(1 1) rotate(0) translate(4 176)">
<title>/home/runner/work/no&#45;OS/no&#45;OS/projects/adrv9001/src</title>
<g id="clust1" class="cluster">
<title>clusterdir_5494fa8f48310e54cdb4e253a988916f</title>
<g id="a_clust1"><a xlink:href="dir_5494fa8f48310e54cdb4e253a988916f.html" target="_top" xlink:title="adrv9001">
<polygon fill="#edf0f7" stroke="#7f7f7f" stroke-dasharray="5,2" points="15,-39 15,-164 161,-164 161,-39 15,-39"/>
<text text-anchor="middle" x="88" y="-152" font-family="Helvetica,sans-Serif" font-size="10.00">adrv9001</text>
</a>
</g>
</g>
<g id="clust2" class="cluster">
<title>clusterdir_5e74943ea4023b1091089ed999df78ca</title>
<g id="a_clust2"><a xlink:href="dir_5e74943ea4023b1091089ed999df78ca.html" target="_top">
<polygon fill="#edf0f7" stroke="#404040" stroke-width="2" points="23,-47 23,-137 153,-137 153,-47 23,-47"/>
</a>
</g>
</g>
<!-- dir_5e74943ea4023b1091089ed999df78ca -->
<g id="node1" class="node">
<title>dir_5e74943ea4023b1091089ed999df78ca</title>
<text text-anchor="middle" x="121" y="-117" font-family="Helvetica,sans-Serif" font-size="10.00">src</text>
</g>
<!-- dir_9024c091b12f632205dba909853dddb7 -->
<g id="node2" class="node">
<title>dir_9024c091b12f632205dba909853dddb7</title>
<g id="a_node2"><a xlink:href="dir_9024c091b12f632205dba909853dddb7.html" target="_top" xlink:title="app">
<polygon fill="#a2b4d6" stroke="#404040" points="66.5,-74 31.5,-74 31.5,-55 66.5,-55 66.5,-74"/>
<text text-anchor="middle" x="49" y="-62" font-family="Helvetica,sans-Serif" font-size="10.00">app</text>
</a>
</g>
</g>
<!-- dir_6b32e8ebbe7a92323e8e3528c2c140d7 -->
<g id="node5" class="node">
<title>dir_6b32e8ebbe7a92323e8e3528c2c140d7</title>
<g id="a_node5"><a xlink:href="dir_6b32e8ebbe7a92323e8e3528c2c140d7.html" target="_top" xlink:title="include">
<polygon fill="#edf0f7" stroke="#7f7f7f" points="52,-19 0,-19 0,0 52,0 52,-19"/>
<text text-anchor="middle" x="26" y="-7" font-family="Helvetica,sans-Serif" font-size="10.00">include</text>
</a>
</g>
</g>
<!-- dir_9024c091b12f632205dba909853dddb7&#45;&gt;dir_6b32e8ebbe7a92323e8e3528c2c140d7 -->
<g id="edge1" class="edge">
<title>dir_9024c091b12f632205dba909853dddb7&#45;&gt;dir_6b32e8ebbe7a92323e8e3528c2c140d7</title>
<g id="a_edge1"><a xlink:href="dir_000257_000711.html" target="_top">
<path fill="none" stroke="#63b8ff" d="M45.2,-54.75C42.09,-47.57 37.58,-37.18 33.71,-28.27"/>
<polygon fill="#63b8ff" stroke="#63b8ff" points="36.92,-26.87 29.73,-19.09 30.5,-29.66 36.92,-26.87"/>
</a>
</g>
<g id="a_edge1&#45;headlabel"><a xlink:href="dir_000257_000711.html" target="_top" xlink:title="4">
<text text-anchor="middle" x="40.95" y="-26.54" font-family="Helvetica,sans-Serif" font-size="10.00" fill="#63b8ff">4</text>
</a>
</g>
</g>
<!-- dir_ae43f2845e5bc2a3c78c585043f3b07d -->
<g id="node6" class="node">
<title>dir_ae43f2845e5bc2a3c78c585043f3b07d</title>
<g id="a_node6"><a xlink:href="dir_ae43f2845e5bc2a3c78c585043f3b07d.html" target="_top" xlink:title="drivers">
<polygon fill="#edf0f7" stroke="red" stroke-dasharray="5,2" points="159,-19 109,-19 109,0 159,0 159,-19"/>
<text text-anchor="middle" x="134" y="-7" font-family="Helvetica,sans-Serif" font-size="10.00">drivers</text>
</a>
</g>
</g>
<!-- dir_9024c091b12f632205dba909853dddb7&#45;&gt;dir_ae43f2845e5bc2a3c78c585043f3b07d -->
<g id="edge2" class="edge">
<title>dir_9024c091b12f632205dba909853dddb7&#45;&gt;dir_ae43f2845e5bc2a3c78c585043f3b07d</title>
<g id="a_edge2"><a xlink:href="dir_000257_000484.html" target="_top">
<path fill="none" stroke="#63b8ff" d="M57.47,-54.67C62.55,-49.68 69.3,-43.55 76,-39 84.61,-33.15 94.6,-27.8 103.83,-23.35"/>
<polygon fill="#63b8ff" stroke="#63b8ff" points="105.49,-26.44 113.09,-19.06 102.55,-20.09 105.49,-26.44"/>
</a>
</g>
<g id="a_edge2&#45;headlabel"><a xlink:href="dir_000257_000484.html" target="_top" xlink:title="3">
<text text-anchor="middle" x="103.42" y="-28.03" font-family="Helvetica,sans-Serif" font-size="10.00" fill="#63b8ff">3</text>
</a>
</g>
</g>
<!-- dir_0468f517759d05942f0f8939aabbb029 -->
<g id="node3" class="node">
<title>dir_0468f517759d05942f0f8939aabbb029</title>
<g id="a_node3"><a xlink:href="dir_0468f517759d05942f0f8939aabbb029.html" target="_top" xlink:title="firmware">
<polygon fill="#a2b4d6" stroke="#404040" points="145,-74 85,-74 85,-55 145,-55 145,-74"/>
<text text-anchor="middle" x="115" y="-62" font-family="Helvetica,sans-Serif" font-size="10.00">firmware</text>
</a>
</g>
</g>
<!-- dir_95ac74f8d3d059c4f216cdcc9c4103d7 -->
<g id="node4" class="node">
<title>dir_95ac74f8d3d059c4f216cdcc9c4103d7</title>
<g id="a_node4"><a xlink:href="dir_95ac74f8d3d059c4f216cdcc9c4103d7.html" target="_top" xlink:title="hal">
<polygon fill="#a2b4d6" stroke="#404040" points="72,-129 40,-129 40,-110 72,-110 72,-129"/>
<text text-anchor="middle" x="56" y="-117" font-family="Helvetica,sans-Serif" font-size="10.00">hal</text>
</a>
</g>
</g>
<!-- dir_95ac74f8d3d059c4f216cdcc9c4103d7&#45;&gt;dir_9024c091b12f632205dba909853dddb7 -->
<g id="edge5" class="edge">
<title>dir_95ac74f8d3d059c4f216cdcc9c4103d7&#45;&gt;dir_9024c091b12f632205dba909853dddb7</title>
<g id="a_edge5"><a xlink:href="dir_000629_000257.html" target="_top">
<path fill="none" stroke="#63b8ff" d="M54.84,-109.75C53.93,-102.8 52.61,-92.85 51.46,-84.13"/>
<polygon fill="#63b8ff" stroke="#63b8ff" points="54.91,-83.54 50.13,-74.09 47.97,-84.46 54.91,-83.54"/>
</a>
</g>
<g id="a_edge5&#45;headlabel"><a xlink:href="dir_000629_000257.html" target="_top" xlink:title="4">
<text text-anchor="middle" x="58.2" y="-84.24" font-family="Helvetica,sans-Serif" font-size="10.00" fill="#63b8ff">4</text>
</a>
</g>
</g>
<!-- dir_95ac74f8d3d059c4f216cdcc9c4103d7&#45;&gt;dir_0468f517759d05942f0f8939aabbb029 -->
<g id="edge3" class="edge">
<title>dir_95ac74f8d3d059c4f216cdcc9c4103d7&#45;&gt;dir_0468f517759d05942f0f8939aabbb029</title>
<g id="a_edge3"><a xlink:href="dir_000629_000614.html" target="_top">
<path fill="none" stroke="#63b8ff" d="M65.48,-109.98C74.2,-102.15 87.34,-90.34 97.9,-80.86"/>
<polygon fill="#63b8ff" stroke="#63b8ff" points="100.25,-83.46 105.35,-74.17 95.57,-78.25 100.25,-83.46"/>
</a>
</g>
<g id="a_edge3&#45;headlabel"><a xlink:href="dir_000629_000614.html" target="_top" xlink:title="2">
<text text-anchor="middle" x="99.47" y="-85.47" font-family="Helvetica,sans-Serif" font-size="10.00" fill="#63b8ff">2</text>
</a>
</g>
</g>
<!-- dir_95ac74f8d3d059c4f216cdcc9c4103d7&#45;&gt;dir_6b32e8ebbe7a92323e8e3528c2c140d7 -->
<g id="edge4" class="edge">
<title>dir_95ac74f8d3d059c4f216cdcc9c4103d7&#45;&gt;dir_6b32e8ebbe7a92323e8e3528c2c140d7</title>
<g id="a_edge4"><a xlink:href="dir_000629_000711.html" target="_top">
<path fill="none" stroke="#63b8ff" d="M46.98,-109.96C38.93,-101.66 27.71,-88.25 23,-74 18.23,-59.57 19.46,-42.3 21.62,-29.41"/>
<polygon fill="#63b8ff" stroke="#63b8ff" points="25.09,-29.89 23.62,-19.4 18.22,-28.52 25.09,-29.89"/>
</a>
</g>
<g id="a_edge4&#45;headlabel"><a xlink:href="dir_000629_000711.html" target="_top" xlink:title="4">
<text text-anchor="middle" x="27.17" y="-31.47" font-family="Helvetica,sans-Serif" font-size="10.00" fill="#63b8ff">4</text>
</a>
</g>
</g>
<!-- dir_95ac74f8d3d059c4f216cdcc9c4103d7&#45;&gt;dir_ae43f2845e5bc2a3c78c585043f3b07d -->
<g id="edge6" class="edge">
<title>dir_95ac74f8d3d059c4f216cdcc9c4103d7&#45;&gt;dir_ae43f2845e5bc2a3c78c585043f3b07d</title>
<g id="a_edge6"><a xlink:href="dir_000629_000484.html" target="_top">
<path fill="none" stroke="#63b8ff" d="M72.27,-113.48C97.63,-105.3 144.64,-88.53 154,-74 162.42,-60.92 158.69,-53.83 154,-39 152.73,-34.97 150.65,-31.01 148.31,-27.38"/>
<polygon fill="#63b8ff" stroke="#63b8ff" points="151.02,-25.16 142.25,-19.22 145.4,-29.33 151.02,-25.16"/>
</a>
</g>
<g id="a_edge6&#45;headlabel"><a xlink:href="dir_000629_000484.html" target="_top" xlink:title="3">
<text text-anchor="middle" x="155.44" y="-23.85" font-family="Helvetica,sans-Serif" font-size="10.00" fill="#63b8ff">3</text>
</a>
</g>
</g>
</g>
</svg>
