<?xml version="1.0" encoding="UTF-8" standalone="no"?>
<!DOCTYPE svg PUBLIC "-//W3C//DTD SVG 1.1//EN"
 "http://www.w3.org/Graphics/SVG/1.1/DTD/svg11.dtd">
<!-- Generated by graphviz version 2.43.0 (0)
 -->
<!-- Title: /home/runner/work/no&#45;OS/no&#45;OS/projects/adrv902x/src/examples/dma_example/dma_example.c Pages: 1 -->
<!--zoomable 225 -->

<svg id="main" version="1.1" xmlns="http://www.w3.org/2000/svg" xmlns:xlink="http://www.w3.org/1999/xlink" xml:space="preserve" onload="init(evt)">

<style type="text/css"><![CDATA[
.node, .edge {opacity: 0.7;}
.node.selected, .edge.selected {opacity: 1;}
.edge:hover path { stroke: red; }
.edge:hover polygon { stroke: red; fill: red; }
]]></style>

<defs>
  <circle id="rim" cx="0" cy="0" r="7"/>
  <circle id="rim2" cx="0" cy="0" r="3.5"/>
  <g id="zoomPlus">
    <use xlink:href="#rim" fill="#404040"><set attributeName="fill" to="#808080" begin="zoomplus.mouseover" end="zoomplus.mouseout"/></use>
    <path d="M-4,0h8M0,-4v8" fill="none" stroke="white" stroke-width="1.5" pointer-events="none"/>
  </g>
  <g id="zoomMin">
    <use xlink:href="#rim" fill="#404040"><set attributeName="fill" to="#808080" begin="zoomminus.mouseover" end="zoomminus.mouseout"/></use>
    <path d="M-4,0h8" fill="none" stroke="white" stroke-width="1.5" pointer-events="none"/>
  </g>
  <g id="arrowUp" transform="translate(30 24)">
    <use xlink:href="#rim"/>
    <path pointer-events="none" fill="none" stroke="white" stroke-width="1.5" d="M0,-3.0v7 M-2.5,-0.5L0,-3.0L2.5,-0.5"/>
  </g>
  <g id="arrowRight" transform="rotate(90) translate(36 -43)">
    <use xlink:href="#rim"/>
    <path pointer-events="none" fill="none" stroke="white" stroke-width="1.5" d="M0,-3.0v7 M-2.5,-0.5L0,-3.0L2.5,-0.5"/>
  </g>
  <g id="arrowDown" transform="rotate(180) translate(-30 -48)">
    <use xlink:href="#rim"/>
    <path pointer-events="none" fill="none" stroke="white" stroke-width="1.5" d="M0,-3.0v7 M-2.5,-0.5L0,-3.0L2.5,-0.5"/>
  </g>
  <g id="arrowLeft" transform="rotate(270) translate(-36 17)">
    <use xlink:href="#rim"/>
    <path pointer-events="none" fill="none" stroke="white" stroke-width="1.5" d="M0,-3.0v7 M-2.5,-0.5L0,-3.0L2.5,-0.5"/>
  </g>
  <g id="resetDef">
    <use xlink:href="#rim2" fill="#404040"><set attributeName="fill" to="#808080" begin="reset.mouseover" end="reset.mouseout"/></use>
  </g>
</defs>
<script type="application/ecmascript">
var viewWidth = 2150;
var viewHeight = 225;
var sectionId = 'dynsection-0';
</script>
<script type="application/ecmascript" xlink:href="svg.min.js"/>
<svg id="graph" class="graph">
<g id="viewport">
<title>/home/runner/work/no&#45;OS/no&#45;OS/projects/adrv902x/src/examples/dma_example/dma_example.c</title>
<!-- Node1 -->
<g id="Node000001" class="node">
<title>Node1</title>
<g id="a_Node000001"><a xlink:title="DMA example for the adrv902x project.">
<polygon fill="#999999" stroke="#666666" points="992.5,-217 834.5,-217 834.5,-165 992.5,-165 992.5,-217"/>
<text text-anchor="start" x="842.5" y="-205" font-family="Helvetica,sans-Serif" font-size="10.00">/home/runner/work/no</text>
<text text-anchor="start" x="842.5" y="-194" font-family="Helvetica,sans-Serif" font-size="10.00">&#45;OS/no&#45;OS/projects/adrv902x</text>
<text text-anchor="start" x="842.5" y="-183" font-family="Helvetica,sans-Serif" font-size="10.00">/src/examples/dma_example</text>
<text text-anchor="middle" x="913.5" y="-172" font-family="Helvetica,sans-Serif" font-size="10.00">/dma_example.c</text>
</a>
</g>
</g>
<!-- Node2 -->
<g id="Node000002" class="node">
<title>Node2</title>
<g id="a_Node000002"><a xlink:href="dma__example_8h.html" target="_top" xlink:title="DMA example header for the adrv902x project.">
<polygon fill="white" stroke="#666666" points="95,-129 0,-129 0,-110 95,-110 95,-129"/>
<text text-anchor="middle" x="47.5" y="-117" font-family="Helvetica,sans-Serif" font-size="10.00">dma_example.h</text>
</a>
</g>
</g>
<!-- Node1&#45;&gt;Node2 -->
<g id="edge1_Node000001_Node000002" class="edge">
<title>Node1&#45;&gt;Node2</title>
<g id="a_edge1_Node000001_Node000002"><a xlink:title=" ">
<path fill="none" stroke="#63b8ff" d="M834.27,-186.02C690.82,-178.39 378.36,-159.75 105.23,-129.12"/>
<polygon fill="#63b8ff" stroke="#63b8ff" points="105.46,-125.62 95.13,-127.98 104.67,-132.58 105.46,-125.62"/>
</a>
</g>
</g>
<!-- Node3 -->
<g id="Node000003" class="node">
<title>Node3</title>
<g id="a_Node000003"><a xlink:title=" ">
<polygon fill="#e0e0e0" stroke="#999999" points="208,-129 113,-129 113,-110 208,-110 208,-129"/>
<text text-anchor="middle" x="160.5" y="-117" font-family="Helvetica,sans-Serif" font-size="10.00">common_data.h</text>
</a>
</g>
</g>
<!-- Node1&#45;&gt;Node3 -->
<g id="edge2_Node000001_Node000003" class="edge">
<title>Node1&#45;&gt;Node3</title>
<g id="a_edge2_Node000001_Node000003"><a xlink:title=" ">
<path fill="none" stroke="#63b8ff" d="M834.27,-184.63C706.83,-175.64 448.21,-155.96 218.29,-129.02"/>
<polygon fill="#63b8ff" stroke="#63b8ff" points="218.4,-125.51 208.06,-127.81 217.58,-132.46 218.4,-125.51"/>
</a>
</g>
</g>
<!-- Node4 -->
<g id="Node000004" class="node">
<title>Node4</title>
<g id="a_Node000004"><a xlink:title=" ">
<polygon fill="#e0e0e0" stroke="#999999" points="308.5,-129 226.5,-129 226.5,-110 308.5,-110 308.5,-129"/>
<text text-anchor="middle" x="267.5" y="-117" font-family="Helvetica,sans-Serif" font-size="10.00">parameters.h</text>
</a>
</g>
</g>
<!-- Node1&#45;&gt;Node4 -->
<g id="edge3_Node000001_Node000004" class="edge">
<title>Node1&#45;&gt;Node4</title>
<g id="a_edge3_Node000001_Node000004"><a xlink:title=" ">
<path fill="none" stroke="#63b8ff" d="M834.25,-183.57C721.82,-174.08 509.4,-154.77 318.6,-129.07"/>
<polygon fill="#63b8ff" stroke="#63b8ff" points="319.05,-125.6 308.67,-127.72 318.11,-132.53 319.05,-125.6"/>
</a>
</g>
</g>
<!-- Node5 -->
<g id="Node000005" class="node">
<title>Node5</title>
<g id="a_Node000005"><a xlink:title=" ">
<polygon fill="#e0e0e0" stroke="#999999" points="404.5,-129 326.5,-129 326.5,-110 404.5,-110 404.5,-129"/>
<text text-anchor="middle" x="365.5" y="-117" font-family="Helvetica,sans-Serif" font-size="10.00">app_config.h</text>
</a>
</g>
</g>
<!-- Node1&#45;&gt;Node5 -->
<g id="edge4_Node000001_Node000005" class="edge">
<title>Node1&#45;&gt;Node5</title>
<g id="a_edge4_Node000001_Node000005"><a xlink:title=" ">
<path fill="none" stroke="#63b8ff" d="M834.08,-181.12C736.21,-169.96 564.88,-149.75 418.5,-129 417.23,-128.82 415.94,-128.63 414.64,-128.44"/>
<polygon fill="#63b8ff" stroke="#63b8ff" points="414.96,-124.95 404.55,-126.93 413.92,-131.88 414.96,-124.95"/>
</a>
</g>
</g>
<!-- Node6 -->
<g id="Node000006" class="node">
<title>Node6</title>
<g id="a_Node000006"><a xlink:title=" ">
<polygon fill="#e0e0e0" stroke="#999999" points="542,-19 489,-19 489,0 542,0 542,-19"/>
<text text-anchor="middle" x="515.5" y="-7" font-family="Helvetica,sans-Serif" font-size="10.00">stdlib.h</text>
</a>
</g>
</g>
<!-- Node1&#45;&gt;Node6 -->
<g id="edge5_Node000001_Node000006" class="edge">
<title>Node1&#45;&gt;Node6</title>
<g id="a_edge5_Node000001_Node000006"><a xlink:title=" ">
<path fill="none" stroke="#63b8ff" d="M834.13,-186.64C744.91,-181.11 596.56,-166.63 474.5,-129 448.19,-120.89 378.01,-97.39 363.5,-74 335.93,-29.58 425.25,-16.22 478.57,-12.21"/>
<polygon fill="#63b8ff" stroke="#63b8ff" points="478.97,-15.69 488.71,-11.53 478.5,-8.71 478.97,-15.69"/>
</a>
</g>
</g>
<!-- Node7 -->
<g id="Node000007" class="node">
<title>Node7</title>
<g id="a_Node000007"><a xlink:title=" ">
<polygon fill="#e0e0e0" stroke="#999999" points="1871,-129 1818,-129 1818,-110 1871,-110 1871,-129"/>
<text text-anchor="middle" x="1844.5" y="-117" font-family="Helvetica,sans-Serif" font-size="10.00">string.h</text>
</a>
</g>
</g>
<!-- Node1&#45;&gt;Node7 -->
<g id="edge6_Node000001_Node000007" class="edge">
<title>Node1&#45;&gt;Node7</title>
<g id="a_edge6_Node000001_Node000007"><a xlink:title=" ">
<path fill="none" stroke="#63b8ff" d="M992.74,-188.18C1148.67,-183.81 1506.02,-169.84 1803.5,-129 1804.8,-128.82 1806.11,-128.63 1807.44,-128.42"/>
<polygon fill="#63b8ff" stroke="#63b8ff" points="1808.45,-131.79 1817.68,-126.6 1807.23,-124.9 1808.45,-131.79"/>
</a>
</g>
</g>
<!-- Node8 -->
<g id="Node000008" class="node">
<title>Node8</title>
<g id="a_Node000008"><a xlink:title=" ">
<polygon fill="#e0e0e0" stroke="#999999" points="1817.5,-19 1767.5,-19 1767.5,0 1817.5,0 1817.5,-19"/>
<text text-anchor="middle" x="1792.5" y="-7" font-family="Helvetica,sans-Serif" font-size="10.00">stdio.h</text>
</a>
</g>
</g>
<!-- Node1&#45;&gt;Node8 -->
<g id="edge7_Node000001_Node000008" class="edge">
<title>Node1&#45;&gt;Node8</title>
<g id="a_edge7_Node000001_Node000008"><a xlink:title=" ">
<path fill="none" stroke="#63b8ff" d="M992.75,-186.75C1166.29,-179.17 1575.21,-158.7 1710.5,-129 1744.77,-121.48 1838.47,-102.81 1858.5,-74 1872.36,-54.06 1846.19,-35.31 1822.82,-23.43"/>
<polygon fill="#63b8ff" stroke="#63b8ff" points="1824.3,-20.25 1813.77,-19.07 1821.26,-26.56 1824.3,-20.25"/>
</a>
</g>
</g>
<!-- Node9 -->
<g id="Node000009" class="node">
<title>Node9</title>
<g id="a_Node000009"><a xlink:href="no__os__print__log_8h.html" target="_top" xlink:title="Print messages helpers.">
<polygon fill="white" stroke="#666666" points="1759.5,-74 1657.5,-74 1657.5,-55 1759.5,-55 1759.5,-74"/>
<text text-anchor="middle" x="1708.5" y="-62" font-family="Helvetica,sans-Serif" font-size="10.00">no_os_print_log.h</text>
</a>
</g>
</g>
<!-- Node1&#45;&gt;Node9 -->
<g id="edge8_Node000001_Node000009" class="edge">
<title>Node1&#45;&gt;Node9</title>
<g id="a_edge8_Node000001_Node000009"><a xlink:title=" ">
<path fill="none" stroke="#63b8ff" d="M992.54,-190.08C1156.81,-189.16 1529.27,-181.19 1643.5,-129 1665.81,-118.81 1685,-97.57 1696.63,-82.47"/>
<polygon fill="#63b8ff" stroke="#63b8ff" points="1699.45,-84.54 1702.56,-74.41 1693.81,-80.38 1699.45,-84.54"/>
</a>
</g>
</g>
<!-- Node10 -->
<g id="Node000010" class="node">
<title>Node10</title>
<g id="a_Node000010"><a xlink:href="no__os__error_8h.html" target="_top" xlink:title="Error codes definition.">
<polygon fill="white" stroke="#666666" points="1971.5,-129 1889.5,-129 1889.5,-110 1971.5,-110 1971.5,-129"/>
<text text-anchor="middle" x="1930.5" y="-117" font-family="Helvetica,sans-Serif" font-size="10.00">no_os_error.h</text>
</a>
</g>
</g>
<!-- Node1&#45;&gt;Node10 -->
<g id="edge10_Node000001_Node000010" class="edge">
<title>Node1&#45;&gt;Node10</title>
<g id="a_edge10_Node000001_Node000010"><a xlink:title=" ">
<path fill="none" stroke="#63b8ff" d="M992.72,-187.83C1156.45,-182.73 1544.11,-167.47 1878.96,-129.05"/>
<polygon fill="#63b8ff" stroke="#63b8ff" points="1879.82,-132.47 1889.35,-127.85 1879.01,-125.52 1879.82,-132.47"/>
</a>
</g>
</g>
<!-- Node12 -->
<g id="Node000012" class="node">
<title>Node12</title>
<g id="a_Node000012"><a xlink:href="no__os__util_8h.html" target="_top" xlink:title="Header file of utility functions.">
<polygon fill="white" stroke="#666666" points="724,-74 649,-74 649,-55 724,-55 724,-74"/>
<text text-anchor="middle" x="686.5" y="-62" font-family="Helvetica,sans-Serif" font-size="10.00">no_os_util.h</text>
</a>
</g>
</g>
<!-- Node1&#45;&gt;Node12 -->
<g id="edge12_Node000001_Node000012" class="edge">
<title>Node1&#45;&gt;Node12</title>
<g id="a_edge12_Node000001_Node000012"><a xlink:title=" ">
<path fill="none" stroke="#63b8ff" d="M834.16,-168.61C805.82,-158.96 774.5,-145.88 748.5,-129 728.81,-116.22 710.59,-96.16 699.07,-82.01"/>
<polygon fill="#63b8ff" stroke="#63b8ff" points="701.76,-79.76 692.81,-74.08 696.26,-84.1 701.76,-79.76"/>
</a>
</g>
</g>
<!-- Node15 -->
<g id="Node000015" class="node">
<title>Node15</title>
<g id="a_Node000015"><a xlink:href="no__os__spi_8h.html" target="_top" xlink:title="Header file of SPI Interface.">
<polygon fill="white" stroke="#666666" points="554.5,-74 480.5,-74 480.5,-55 554.5,-55 554.5,-74"/>
<text text-anchor="middle" x="517.5" y="-62" font-family="Helvetica,sans-Serif" font-size="10.00">no_os_spi.h</text>
</a>
</g>
</g>
<!-- Node1&#45;&gt;Node15 -->
<g id="edge16_Node000001_Node000015" class="edge">
<title>Node1&#45;&gt;Node15</title>
<g id="a_edge16_Node000001_Node000015"><a xlink:title=" ">
<path fill="none" stroke="#63b8ff" d="M834.2,-188.14C733.96,-184.04 569.41,-170.93 527.5,-129 516.05,-117.54 514.37,-98.65 515.06,-84.45"/>
<polygon fill="#63b8ff" stroke="#63b8ff" points="518.56,-84.57 515.98,-74.3 511.59,-83.94 518.56,-84.57"/>
</a>
</g>
</g>
<!-- Node16 -->
<g id="Node000016" class="node">
<title>Node16</title>
<g id="a_Node000016"><a xlink:href="axi__jesd204__rx_8h.html" target="_top" xlink:title="Driver for the Analog Devices AXI&#45;JESD204&#45;RX peripheral.">
<polygon fill="white" stroke="#666666" points="963,-129 864,-129 864,-110 963,-110 963,-129"/>
<text text-anchor="middle" x="913.5" y="-117" font-family="Helvetica,sans-Serif" font-size="10.00">axi_jesd204_rx.h</text>
</a>
</g>
</g>
<!-- Node1&#45;&gt;Node16 -->
<g id="edge18_Node000001_Node000016" class="edge">
<title>Node1&#45;&gt;Node16</title>
<g id="a_edge18_Node000001_Node000016"><a xlink:title=" ">
<path fill="none" stroke="#63b8ff" d="M913.5,-164.91C913.5,-156.55 913.5,-147.38 913.5,-139.55"/>
<polygon fill="#63b8ff" stroke="#63b8ff" points="917,-139.3 913.5,-129.3 910,-139.3 917,-139.3"/>
</a>
</g>
</g>
<!-- Node20 -->
<g id="Node000020" class="node">
<title>Node20</title>
<g id="a_Node000020"><a xlink:href="axi__jesd204__tx_8h.html" target="_top" xlink:title="Driver for the Analog Devices AXI&#45;JESD204&#45;TX peripheral.">
<polygon fill="white" stroke="#666666" points="1080,-129 981,-129 981,-110 1080,-110 1080,-129"/>
<text text-anchor="middle" x="1030.5" y="-117" font-family="Helvetica,sans-Serif" font-size="10.00">axi_jesd204_tx.h</text>
</a>
</g>
</g>
<!-- Node1&#45;&gt;Node20 -->
<g id="edge27_Node000001_Node000020" class="edge">
<title>Node1&#45;&gt;Node20</title>
<g id="a_edge27_Node000001_Node000020"><a xlink:title=" ">
<path fill="none" stroke="#63b8ff" d="M955.74,-164.91C973.03,-154.64 992.38,-143.15 1007.06,-134.43"/>
<polygon fill="#63b8ff" stroke="#63b8ff" points="1009.15,-137.25 1015.96,-129.14 1005.58,-131.23 1009.15,-137.25"/>
</a>
</g>
</g>
<!-- Node21 -->
<g id="Node000021" class="node">
<title>Node21</title>
<g id="a_Node000021"><a xlink:href="axi__adc__core_8h.html" target="_top" xlink:title="Driver for the Analog Devices AXI&#45;ADC&#45;CORE module.">
<polygon fill="white" stroke="#666666" points="846,-129 757,-129 757,-110 846,-110 846,-129"/>
<text text-anchor="middle" x="801.5" y="-117" font-family="Helvetica,sans-Serif" font-size="10.00">axi_adc_core.h</text>
</a>
</g>
</g>
<!-- Node1&#45;&gt;Node21 -->
<g id="edge32_Node000001_Node000021" class="edge">
<title>Node1&#45;&gt;Node21</title>
<g id="a_edge32_Node000001_Node000021"><a xlink:title=" ">
<path fill="none" stroke="#63b8ff" d="M873.07,-164.91C856.51,-154.64 837.99,-143.15 823.94,-134.43"/>
<polygon fill="#63b8ff" stroke="#63b8ff" points="825.76,-131.43 815.42,-129.14 822.07,-137.38 825.76,-131.43"/>
</a>
</g>
</g>
<!-- Node22 -->
<g id="Node000022" class="node">
<title>Node22</title>
<g id="a_Node000022"><a xlink:href="axi__dac__core_8h.html" target="_top" xlink:title="Driver for the Analog Devices AXI&#45;DAC&#45;CORE module.">
<polygon fill="white" stroke="#666666" points="462,-74 373,-74 373,-55 462,-55 462,-74"/>
<text text-anchor="middle" x="417.5" y="-62" font-family="Helvetica,sans-Serif" font-size="10.00">axi_dac_core.h</text>
</a>
</g>
</g>
<!-- Node1&#45;&gt;Node22 -->
<g id="edge35_Node000001_Node000022" class="edge">
<title>Node1&#45;&gt;Node22</title>
<g id="a_edge35_Node000001_Node000022"><a xlink:title=" ">
<path fill="none" stroke="#63b8ff" d="M834.12,-187.76C751.73,-183.2 620.35,-169.53 514.5,-129 484.32,-117.44 453.84,-95.4 435.31,-80.58"/>
<polygon fill="#63b8ff" stroke="#63b8ff" points="437.4,-77.77 427.45,-74.14 432.97,-83.19 437.4,-77.77"/>
</a>
</g>
</g>
<!-- Node23 -->
<g id="Node000023" class="node">
<title>Node23</title>
<g id="a_Node000023"><a xlink:href="axi__adxcvr_8h.html" target="_top" xlink:title="Driver for the ADI AXI&#45;ADXCVR Module.">
<polygon fill="white" stroke="#666666" points="1237.5,-129 1159.5,-129 1159.5,-110 1237.5,-110 1237.5,-129"/>
<text text-anchor="middle" x="1198.5" y="-117" font-family="Helvetica,sans-Serif" font-size="10.00">axi_adxcvr.h</text>
</a>
</g>
</g>
<!-- Node1&#45;&gt;Node23 -->
<g id="edge37_Node000001_Node000023" class="edge">
<title>Node1&#45;&gt;Node23</title>
<g id="a_edge37_Node000001_Node000023"><a xlink:title=" ">
<path fill="none" stroke="#63b8ff" d="M992.51,-170.73C1044.36,-158.09 1110.31,-142.01 1153.43,-131.49"/>
<polygon fill="#63b8ff" stroke="#63b8ff" points="1154.46,-134.84 1163.34,-129.07 1152.8,-128.04 1154.46,-134.84"/>
</a>
</g>
</g>
<!-- Node25 -->
<g id="Node000025" class="node">
<title>Node25</title>
<g id="a_Node000025"><a xlink:href="axi__dmac_8h.html" target="_top" xlink:title="Driver for the Analog Devices AXI&#45;DMAC core.">
<polygon fill="white" stroke="#666666" points="700,-129 627,-129 627,-110 700,-110 700,-129"/>
<text text-anchor="middle" x="663.5" y="-117" font-family="Helvetica,sans-Serif" font-size="10.00">axi_dmac.h</text>
</a>
</g>
</g>
<!-- Node1&#45;&gt;Node25 -->
<g id="edge43_Node000001_Node000025" class="edge">
<title>Node1&#45;&gt;Node25</title>
<g id="a_edge43_Node000001_Node000025"><a xlink:title=" ">
<path fill="none" stroke="#63b8ff" d="M834.4,-168.01C791.04,-155.96 739.13,-141.53 703.99,-131.76"/>
<polygon fill="#63b8ff" stroke="#63b8ff" points="704.66,-128.31 694.09,-129 702.79,-135.06 704.66,-128.31"/>
</a>
</g>
</g>
<!-- Node26 -->
<g id="Node000026" class="node">
<title>Node26</title>
<g id="a_Node000026"><a xlink:href="xilinx__gpio_8h.html" target="_top" xlink:title=" ">
<polygon fill="white" stroke="#666666" points="1148,-74 1069,-74 1069,-55 1148,-55 1148,-74"/>
<text text-anchor="middle" x="1108.5" y="-62" font-family="Helvetica,sans-Serif" font-size="10.00">xilinx_gpio.h</text>
</a>
</g>
</g>
<!-- Node1&#45;&gt;Node26 -->
<g id="edge46_Node000001_Node000026" class="edge">
<title>Node1&#45;&gt;Node26</title>
<g id="a_edge46_Node000001_Node000026"><a xlink:title=" ">
<path fill="none" stroke="#63b8ff" d="M992.79,-178.98C1026.64,-170.5 1064.11,-155.5 1089.5,-129 1101.06,-116.94 1105.62,-98.13 1107.4,-84.11"/>
<polygon fill="#63b8ff" stroke="#63b8ff" points="1110.89,-84.39 1108.31,-74.12 1103.92,-83.75 1110.89,-84.39"/>
</a>
</g>
</g>
<!-- Node27 -->
<g id="Node000027" class="node">
<title>Node27</title>
<g id="a_Node000027"><a xlink:href="xilinx__spi_8h.html" target="_top" xlink:title=" ">
<polygon fill="white" stroke="#666666" points="608.5,-129 536.5,-129 536.5,-110 608.5,-110 608.5,-129"/>
<text text-anchor="middle" x="572.5" y="-117" font-family="Helvetica,sans-Serif" font-size="10.00">xilinx_spi.h</text>
</a>
</g>
</g>
<!-- Node1&#45;&gt;Node27 -->
<g id="edge49_Node000001_Node000027" class="edge">
<title>Node1&#45;&gt;Node27</title>
<g id="a_edge49_Node000001_Node000027"><a xlink:title=" ">
<path fill="none" stroke="#63b8ff" d="M834.41,-173.88C767.55,-160.25 674.05,-141.2 618.74,-129.92"/>
<polygon fill="#63b8ff" stroke="#63b8ff" points="619.37,-126.48 608.87,-127.91 617.97,-133.34 619.37,-126.48"/>
</a>
</g>
</g>
<!-- Node28 -->
<g id="Node000028" class="node">
<title>Node28</title>
<g id="a_Node000028"><a xlink:title=" ">
<polygon fill="#e0e0e0" stroke="#999999" points="2061,-129 1990,-129 1990,-110 2061,-110 2061,-129"/>
<text text-anchor="middle" x="2025.5" y="-117" font-family="Helvetica,sans-Serif" font-size="10.00">xil_cache.h</text>
</a>
</g>
</g>
<!-- Node1&#45;&gt;Node28 -->
<g id="edge52_Node000001_Node000028" class="edge">
<title>Node1&#45;&gt;Node28</title>
<g id="a_edge52_Node000001_Node000028"><a xlink:title=" ">
<path fill="none" stroke="#63b8ff" d="M992.79,-188.98C1168.77,-185.94 1605.32,-174.22 1979.76,-128.91"/>
<polygon fill="#63b8ff" stroke="#63b8ff" points="1980.2,-132.38 1989.7,-127.69 1979.35,-125.43 1980.2,-132.38"/>
</a>
</g>
</g>
<!-- Node29 -->
<g id="Node000029" class="node">
<title>Node29</title>
<g id="a_Node000029"><a xlink:href="clkgen__routines_8h.html" target="_top" xlink:title="Defines clkgen init and settings to be used by adrv902x examples.">
<polygon fill="white" stroke="#666666" points="1634,-129 1531,-129 1531,-110 1634,-110 1634,-129"/>
<text text-anchor="middle" x="1582.5" y="-117" font-family="Helvetica,sans-Serif" font-size="10.00">clkgen_routines.h</text>
</a>
</g>
</g>
<!-- Node1&#45;&gt;Node29 -->
<g id="edge53_Node000001_Node000029" class="edge">
<title>Node1&#45;&gt;Node29</title>
<g id="a_edge53_Node000001_Node000029"><a xlink:title=" ">
<path fill="none" stroke="#63b8ff" d="M992.54,-181.79C1127.26,-167.79 1398.61,-139.6 1520.61,-126.93"/>
<polygon fill="#63b8ff" stroke="#63b8ff" points="1521.3,-130.38 1530.89,-125.86 1520.58,-123.41 1521.3,-130.38"/>
</a>
</g>
</g>
<!-- Node32 -->
<g id="Node000032" class="node">
<title>Node32</title>
<g id="a_Node000032"><a xlink:title=" ">
<polygon fill="#e0e0e0" stroke="#999999" points="1849,-74 1778,-74 1778,-55 1849,-55 1849,-74"/>
<text text-anchor="middle" x="1813.5" y="-62" font-family="Helvetica,sans-Serif" font-size="10.00">adrv9025.h</text>
</a>
</g>
</g>
<!-- Node1&#45;&gt;Node32 -->
<g id="edge59_Node000001_Node000032" class="edge">
<title>Node1&#45;&gt;Node32</title>
<g id="a_edge59_Node000001_Node000032"><a xlink:title=" ">
<path fill="none" stroke="#63b8ff" d="M992.67,-186.99C1159.85,-180.1 1543.92,-161.21 1670.5,-129 1714.54,-117.8 1762.08,-94.12 1789.75,-79.06"/>
<polygon fill="#63b8ff" stroke="#63b8ff" points="1791.61,-82.03 1798.66,-74.12 1788.22,-75.9 1791.61,-82.03"/>
</a>
</g>
</g>
<!-- Node33 -->
<g id="Node000033" class="node">
<title>Node33</title>
<g id="a_Node000033"><a xlink:title=" ">
<polygon fill="#e0e0e0" stroke="#999999" points="2141.5,-129 2079.5,-129 2079.5,-110 2141.5,-110 2141.5,-129"/>
<text text-anchor="middle" x="2110.5" y="-117" font-family="Helvetica,sans-Serif" font-size="10.00">ad9528.h</text>
</a>
</g>
</g>
<!-- Node1&#45;&gt;Node33 -->
<g id="edge60_Node000001_Node000033" class="edge">
<title>Node1&#45;&gt;Node33</title>
<g id="a_edge60_Node000001_Node000033"><a xlink:title=" ">
<path fill="none" stroke="#63b8ff" d="M992.8,-190.09C1179.27,-189.37 1660.09,-182.17 2069.18,-128.96"/>
<polygon fill="#63b8ff" stroke="#63b8ff" points="2069.68,-132.42 2079.14,-127.65 2068.77,-125.48 2069.68,-132.42"/>
</a>
</g>
</g>
<!-- Node9&#45;&gt;Node8 -->
<g id="edge9_Node000009_Node000008" class="edge">
<title>Node9&#45;&gt;Node8</title>
<g id="a_edge9_Node000009_Node000008"><a xlink:title=" ">
<path fill="none" stroke="#63b8ff" d="M1722,-54.98C1734.9,-46.84 1754.6,-34.41 1769.9,-24.76"/>
<polygon fill="#63b8ff" stroke="#63b8ff" points="1772.17,-27.47 1778.76,-19.17 1768.43,-21.55 1772.17,-27.47"/>
</a>
</g>
</g>
<!-- Node11 -->
<g id="Node000011" class="node">
<title>Node11</title>
<g id="a_Node000011"><a xlink:href="errno_8h.html" target="_top" xlink:title="Error macro definition for ARM Compiler.">
<polygon fill="white" stroke="#666666" points="1957,-74 1906,-74 1906,-55 1957,-55 1957,-74"/>
<text text-anchor="middle" x="1931.5" y="-62" font-family="Helvetica,sans-Serif" font-size="10.00">errno.h</text>
</a>
</g>
</g>
<!-- Node10&#45;&gt;Node11 -->
<g id="edge11_Node000010_Node000011" class="edge">
<title>Node10&#45;&gt;Node11</title>
<g id="a_edge11_Node000010_Node000011"><a xlink:title=" ">
<path fill="none" stroke="#63b8ff" d="M1930.67,-109.75C1930.8,-102.8 1930.98,-92.85 1931.15,-84.13"/>
<polygon fill="#63b8ff" stroke="#63b8ff" points="1934.65,-84.15 1931.34,-74.09 1927.65,-84.02 1934.65,-84.15"/>
</a>
</g>
</g>
<!-- Node12&#45;&gt;Node6 -->
<g id="edge14_Node000012_Node000006" class="edge">
<title>Node12&#45;&gt;Node6</title>
<g id="a_edge14_Node000012_Node000006"><a xlink:title=" ">
<path fill="none" stroke="#63b8ff" d="M659.03,-54.98C629.98,-45.98 584.01,-31.73 551.94,-21.8"/>
<polygon fill="#63b8ff" stroke="#63b8ff" points="552.65,-18.35 542.06,-18.73 550.58,-25.04 552.65,-18.35"/>
</a>
</g>
</g>
<!-- Node13 -->
<g id="Node000013" class="node">
<title>Node13</title>
<g id="a_Node000013"><a xlink:title=" ">
<polygon fill="#e0e0e0" stroke="#999999" points="849,-19 796,-19 796,0 849,0 849,-19"/>
<text text-anchor="middle" x="822.5" y="-7" font-family="Helvetica,sans-Serif" font-size="10.00">stdint.h</text>
</a>
</g>
</g>
<!-- Node12&#45;&gt;Node13 -->
<g id="edge13_Node000012_Node000013" class="edge">
<title>Node12&#45;&gt;Node13</title>
<g id="a_edge13_Node000012_Node000013"><a xlink:title=" ">
<path fill="none" stroke="#63b8ff" d="M708.35,-54.98C730.62,-46.3 765.4,-32.75 790.72,-22.88"/>
<polygon fill="#63b8ff" stroke="#63b8ff" points="792.21,-26.06 800.25,-19.17 789.66,-19.54 792.21,-26.06"/>
</a>
</g>
</g>
<!-- Node14 -->
<g id="Node000014" class="node">
<title>Node14</title>
<g id="a_Node000014"><a xlink:title=" ">
<polygon fill="#e0e0e0" stroke="#999999" points="1252.5,-19 1190.5,-19 1190.5,0 1252.5,0 1252.5,-19"/>
<text text-anchor="middle" x="1221.5" y="-7" font-family="Helvetica,sans-Serif" font-size="10.00">stdbool.h</text>
</a>
</g>
</g>
<!-- Node12&#45;&gt;Node14 -->
<g id="edge15_Node000012_Node000014" class="edge">
<title>Node12&#45;&gt;Node14</title>
<g id="a_edge15_Node000012_Node000014"><a xlink:title=" ">
<path fill="none" stroke="#63b8ff" d="M724.12,-59.77C821.18,-50.16 1079.46,-24.57 1180.33,-14.58"/>
<polygon fill="#63b8ff" stroke="#63b8ff" points="1180.82,-18.05 1190.43,-13.58 1180.13,-11.08 1180.82,-18.05"/>
</a>
</g>
</g>
<!-- Node15&#45;&gt;Node13 -->
<g id="edge17_Node000015_Node000013" class="edge">
<title>Node15&#45;&gt;Node13</title>
<g id="a_edge17_Node000015_Node000013"><a xlink:title=" ">
<path fill="none" stroke="#63b8ff" d="M554.59,-57.05C613.45,-46.83 727.54,-27 786.01,-16.84"/>
<polygon fill="#63b8ff" stroke="#63b8ff" points="786.67,-20.28 795.92,-15.12 785.47,-13.38 786.67,-20.28"/>
</a>
</g>
</g>
<!-- Node16&#45;&gt;Node13 -->
<g id="edge19_Node000016_Node000013" class="edge">
<title>Node16&#45;&gt;Node13</title>
<g id="a_edge19_Node000016_Node000013"><a xlink:title=" ">
<path fill="none" stroke="#63b8ff" d="M864.65,-109.95C844,-103.65 821.88,-92.77 809.5,-74 800.51,-60.38 805.88,-41.81 812.22,-28.27"/>
<polygon fill="#63b8ff" stroke="#63b8ff" points="815.51,-29.55 817.04,-19.07 809.3,-26.3 815.51,-29.55"/>
</a>
</g>
</g>
<!-- Node16&#45;&gt;Node14 -->
<g id="edge20_Node000016_Node000014" class="edge">
<title>Node16&#45;&gt;Node14</title>
<g id="a_edge20_Node000016_Node000014"><a xlink:title=" ">
<path fill="none" stroke="#63b8ff" d="M963.06,-111.25C966.25,-110.82 969.42,-110.4 972.5,-110 1042.15,-100.99 1239.75,-126.42 1286.5,-74 1302.89,-55.63 1275.14,-36.06 1250.98,-23.58"/>
<polygon fill="#63b8ff" stroke="#63b8ff" points="1252.51,-20.43 1241.99,-19.16 1249.42,-26.71 1252.51,-20.43"/>
</a>
</g>
</g>
<!-- Node17 -->
<g id="Node000017" class="node">
<title>Node17</title>
<g id="a_Node000017"><a xlink:href="jesd204_8h.html" target="_top" xlink:title=" ">
<polygon fill="white" stroke="#666666" points="1050.5,-74 986.5,-74 986.5,-55 1050.5,-55 1050.5,-74"/>
<text text-anchor="middle" x="1018.5" y="-62" font-family="Helvetica,sans-Serif" font-size="10.00">jesd204.h</text>
</a>
</g>
</g>
<!-- Node16&#45;&gt;Node17 -->
<g id="edge21_Node000016_Node000017" class="edge">
<title>Node16&#45;&gt;Node17</title>
<g id="a_edge21_Node000016_Node000017"><a xlink:title=" ">
<path fill="none" stroke="#63b8ff" d="M930.37,-109.98C947.11,-101.54 973,-88.47 992.39,-78.68"/>
<polygon fill="#63b8ff" stroke="#63b8ff" points="993.97,-81.8 1001.32,-74.17 990.82,-75.55 993.97,-81.8"/>
</a>
</g>
</g>
<!-- Node19 -->
<g id="Node000019" class="node">
<title>Node19</title>
<g id="a_Node000019"><a xlink:href="no__os__clk_8h.html" target="_top" xlink:title="Header file of Clock Driver.">
<polygon fill="white" stroke="#666666" points="892.5,-74 818.5,-74 818.5,-55 892.5,-55 892.5,-74"/>
<text text-anchor="middle" x="855.5" y="-62" font-family="Helvetica,sans-Serif" font-size="10.00">no_os_clk.h</text>
</a>
</g>
</g>
<!-- Node16&#45;&gt;Node19 -->
<g id="edge25_Node000016_Node000019" class="edge">
<title>Node16&#45;&gt;Node19</title>
<g id="a_edge25_Node000016_Node000019"><a xlink:title=" ">
<path fill="none" stroke="#63b8ff" d="M904.18,-109.98C895.69,-102.23 882.94,-90.58 872.62,-81.14"/>
<polygon fill="#63b8ff" stroke="#63b8ff" points="874.73,-78.33 864.99,-74.17 870.01,-83.5 874.73,-78.33"/>
</a>
</g>
</g>
<!-- Node17&#45;&gt;Node13 -->
<g id="edge24_Node000017_Node000013" class="edge">
<title>Node17&#45;&gt;Node13</title>
<g id="a_edge24_Node000017_Node000013"><a xlink:title=" ">
<path fill="none" stroke="#63b8ff" d="M987.01,-54.98C952.09,-45.54 895.85,-30.33 859.03,-20.38"/>
<polygon fill="#63b8ff" stroke="#63b8ff" points="859.76,-16.95 849.19,-17.72 857.93,-23.71 859.76,-16.95"/>
</a>
</g>
</g>
<!-- Node17&#45;&gt;Node14 -->
<g id="edge22_Node000017_Node000014" class="edge">
<title>Node17&#45;&gt;Node14</title>
<g id="a_edge22_Node000017_Node000014"><a xlink:title=" ">
<path fill="none" stroke="#63b8ff" d="M1050.67,-55.1C1085.87,-45.91 1142.38,-31.16 1180.68,-21.16"/>
<polygon fill="#63b8ff" stroke="#63b8ff" points="1181.69,-24.51 1190.48,-18.6 1179.92,-17.74 1181.69,-24.51"/>
</a>
</g>
</g>
<!-- Node18 -->
<g id="Node000018" class="node">
<title>Node18</title>
<g id="a_Node000018"><a xlink:title=" ">
<polygon fill="#e0e0e0" stroke="#999999" points="1046.5,-19 990.5,-19 990.5,0 1046.5,0 1046.5,-19"/>
<text text-anchor="middle" x="1018.5" y="-7" font-family="Helvetica,sans-Serif" font-size="10.00">stddef.h</text>
</a>
</g>
</g>
<!-- Node17&#45;&gt;Node18 -->
<g id="edge23_Node000017_Node000018" class="edge">
<title>Node17&#45;&gt;Node18</title>
<g id="a_edge23_Node000017_Node000018"><a xlink:title=" ">
<path fill="none" stroke="#63b8ff" d="M1018.5,-54.75C1018.5,-47.8 1018.5,-37.85 1018.5,-29.13"/>
<polygon fill="#63b8ff" stroke="#63b8ff" points="1022,-29.09 1018.5,-19.09 1015,-29.09 1022,-29.09"/>
</a>
</g>
</g>
<!-- Node19&#45;&gt;Node13 -->
<g id="edge26_Node000019_Node000013" class="edge">
<title>Node19&#45;&gt;Node13</title>
<g id="a_edge26_Node000019_Node000013"><a xlink:title=" ">
<path fill="none" stroke="#63b8ff" d="M850.05,-54.75C845.49,-47.42 838.83,-36.73 833.21,-27.7"/>
<polygon fill="#63b8ff" stroke="#63b8ff" points="836.1,-25.73 827.85,-19.09 830.16,-29.43 836.1,-25.73"/>
</a>
</g>
</g>
<!-- Node20&#45;&gt;Node13 -->
<g id="edge28_Node000020_Node000013" class="edge">
<title>Node20&#45;&gt;Node13</title>
<g id="a_edge28_Node000020_Node000013"><a xlink:title=" ">
<path fill="none" stroke="#63b8ff" d="M1014.01,-109.98C996.69,-101.03 968.67,-86.54 944.5,-74 911.2,-56.72 872.81,-36.73 848.13,-23.86"/>
<polygon fill="#63b8ff" stroke="#63b8ff" points="849.55,-20.66 839.07,-19.14 846.32,-26.87 849.55,-20.66"/>
</a>
</g>
</g>
<!-- Node20&#45;&gt;Node14 -->
<g id="edge29_Node000020_Node000014" class="edge">
<title>Node20&#45;&gt;Node14</title>
<g id="a_edge29_Node000020_Node000014"><a xlink:title=" ">
<path fill="none" stroke="#63b8ff" d="M1080.06,-114.36C1158.53,-107.29 1304.13,-91.92 1319.5,-74 1340.43,-49.6 1297.82,-31.06 1262.36,-20.49"/>
<polygon fill="#63b8ff" stroke="#63b8ff" points="1263.18,-17.08 1252.61,-17.72 1261.27,-23.81 1263.18,-17.08"/>
</a>
</g>
</g>
<!-- Node20&#45;&gt;Node17 -->
<g id="edge30_Node000020_Node000017" class="edge">
<title>Node20&#45;&gt;Node17</title>
<g id="a_edge30_Node000020_Node000017"><a xlink:title=" ">
<path fill="none" stroke="#63b8ff" d="M1028.52,-109.75C1026.93,-102.72 1024.64,-92.62 1022.65,-83.84"/>
<polygon fill="#63b8ff" stroke="#63b8ff" points="1026.07,-83.07 1020.44,-74.09 1019.24,-84.62 1026.07,-83.07"/>
</a>
</g>
</g>
<!-- Node20&#45;&gt;Node19 -->
<g id="edge31_Node000020_Node000019" class="edge">
<title>Node20&#45;&gt;Node19</title>
<g id="a_edge31_Node000020_Node000019"><a xlink:title=" ">
<path fill="none" stroke="#63b8ff" d="M1002.38,-109.98C972.88,-101.05 926.31,-86.94 893.53,-77.02"/>
<polygon fill="#63b8ff" stroke="#63b8ff" points="894.42,-73.63 883.84,-74.08 892.39,-80.33 894.42,-73.63"/>
</a>
</g>
</g>
<!-- Node21&#45;&gt;Node12 -->
<g id="edge34_Node000021_Node000012" class="edge">
<title>Node21&#45;&gt;Node12</title>
<g id="a_edge34_Node000021_Node000012"><a xlink:title=" ">
<path fill="none" stroke="#63b8ff" d="M783.02,-109.98C764.52,-101.46 735.82,-88.23 714.52,-78.41"/>
<polygon fill="#63b8ff" stroke="#63b8ff" points="715.86,-75.18 705.31,-74.17 712.93,-81.53 715.86,-75.18"/>
</a>
</g>
</g>
<!-- Node21&#45;&gt;Node13 -->
<g id="edge33_Node000021_Node000013" class="edge">
<title>Node21&#45;&gt;Node13</title>
<g id="a_edge33_Node000021_Node000013"><a xlink:title=" ">
<path fill="none" stroke="#63b8ff" d="M793.66,-109.81C783.57,-97.53 768.27,-74.42 776.5,-55 781.48,-43.25 791.25,-33.09 800.51,-25.45"/>
<polygon fill="#63b8ff" stroke="#63b8ff" points="802.9,-28.03 808.72,-19.18 798.65,-22.47 802.9,-28.03"/>
</a>
</g>
</g>
<!-- Node22&#45;&gt;Node13 -->
<g id="edge36_Node000022_Node000013" class="edge">
<title>Node22&#45;&gt;Node13</title>
<g id="a_edge36_Node000022_Node000013"><a xlink:title=" ">
<path fill="none" stroke="#63b8ff" d="M462.27,-56.35C465.39,-55.88 468.49,-55.43 471.5,-55 585.85,-38.76 721.58,-22.37 785.59,-14.81"/>
<polygon fill="#63b8ff" stroke="#63b8ff" points="786.08,-18.28 795.6,-13.63 785.26,-11.32 786.08,-18.28"/>
</a>
</g>
</g>
<!-- Node23&#45;&gt;Node13 -->
<g id="edge38_Node000023_Node000013" class="edge">
<title>Node23&#45;&gt;Node13</title>
<g id="a_edge38_Node000023_Node000013"><a xlink:title=" ">
<path fill="none" stroke="#63b8ff" d="M1159.26,-114.06C1114.36,-108.19 1039.07,-95.93 977.5,-74 960.46,-67.93 958.01,-62.41 941.5,-55 914.03,-42.68 882.02,-30.84 858.13,-22.48"/>
<polygon fill="#63b8ff" stroke="#63b8ff" points="859.01,-19.08 848.42,-19.12 856.72,-25.7 859.01,-19.08"/>
</a>
</g>
</g>
<!-- Node23&#45;&gt;Node14 -->
<g id="edge39_Node000023_Node000014" class="edge">
<title>Node23&#45;&gt;Node14</title>
<g id="a_edge39_Node000023_Node000014"><a xlink:title=" ">
<path fill="none" stroke="#63b8ff" d="M1237.55,-113.02C1279.78,-106.2 1343.03,-93.07 1357.5,-74 1384.92,-37.85 1312.13,-21.5 1262.76,-14.74"/>
<polygon fill="#63b8ff" stroke="#63b8ff" points="1262.99,-11.24 1252.62,-13.44 1262.1,-18.18 1262.99,-11.24"/>
</a>
</g>
</g>
<!-- Node24 -->
<g id="Node000024" class="node">
<title>Node24</title>
<g id="a_Node000024"><a xlink:href="xilinx__transceiver_8h.html" target="_top" xlink:title="Driver for the Xilinx High&#45;speed transceiver dynamic reconfiguration.">
<polygon fill="white" stroke="#666666" points="1277.5,-74 1165.5,-74 1165.5,-55 1277.5,-55 1277.5,-74"/>
<text text-anchor="middle" x="1221.5" y="-62" font-family="Helvetica,sans-Serif" font-size="10.00">xilinx_transceiver.h</text>
</a>
</g>
</g>
<!-- Node23&#45;&gt;Node24 -->
<g id="edge40_Node000023_Node000024" class="edge">
<title>Node23&#45;&gt;Node24</title>
<g id="a_edge40_Node000023_Node000024"><a xlink:title=" ">
<path fill="none" stroke="#63b8ff" d="M1202.3,-109.75C1205.41,-102.57 1209.92,-92.18 1213.79,-83.27"/>
<polygon fill="#63b8ff" stroke="#63b8ff" points="1217,-84.66 1217.77,-74.09 1210.58,-81.87 1217,-84.66"/>
</a>
</g>
</g>
<!-- Node24&#45;&gt;Node13 -->
<g id="edge41_Node000024_Node000013" class="edge">
<title>Node24&#45;&gt;Node13</title>
<g id="a_edge41_Node000024_Node000013"><a xlink:title=" ">
<path fill="none" stroke="#63b8ff" d="M1165.18,-56.02C1082.22,-45 929.46,-24.71 859.38,-15.4"/>
<polygon fill="#63b8ff" stroke="#63b8ff" points="859.64,-11.9 849.27,-14.06 858.72,-18.84 859.64,-11.9"/>
</a>
</g>
</g>
<!-- Node24&#45;&gt;Node14 -->
<g id="edge42_Node000024_Node000014" class="edge">
<title>Node24&#45;&gt;Node14</title>
<g id="a_edge42_Node000024_Node000014"><a xlink:title=" ">
<path fill="none" stroke="#63b8ff" d="M1221.5,-54.75C1221.5,-47.8 1221.5,-37.85 1221.5,-29.13"/>
<polygon fill="#63b8ff" stroke="#63b8ff" points="1225,-29.09 1221.5,-19.09 1218,-29.09 1225,-29.09"/>
</a>
</g>
</g>
<!-- Node25&#45;&gt;Node12 -->
<g id="edge45_Node000025_Node000012" class="edge">
<title>Node25&#45;&gt;Node12</title>
<g id="a_edge45_Node000025_Node000012"><a xlink:title=" ">
<path fill="none" stroke="#63b8ff" d="M667.3,-109.75C670.41,-102.57 674.92,-92.18 678.79,-83.27"/>
<polygon fill="#63b8ff" stroke="#63b8ff" points="682,-84.66 682.77,-74.09 675.58,-81.87 682,-84.66"/>
</a>
</g>
</g>
<!-- Node25&#45;&gt;Node13 -->
<g id="edge44_Node000025_Node000013" class="edge">
<title>Node25&#45;&gt;Node13</title>
<g id="a_edge44_Node000025_Node000013"><a xlink:title=" ">
<path fill="none" stroke="#63b8ff" d="M655.54,-109.86C644.51,-96.8 627.32,-71.79 640.5,-55 658.23,-32.41 738.06,-19.82 785.91,-14.17"/>
<polygon fill="#63b8ff" stroke="#63b8ff" points="786.35,-17.64 795.89,-13.04 785.56,-10.69 786.35,-17.64"/>
</a>
</g>
</g>
<!-- Node26&#45;&gt;Node13 -->
<g id="edge47_Node000026_Node000013" class="edge">
<title>Node26&#45;&gt;Node13</title>
<g id="a_edge47_Node000026_Node000013"><a xlink:title=" ">
<path fill="none" stroke="#63b8ff" d="M1068.73,-56.13C1013.19,-45.84 913.16,-27.3 859.27,-17.31"/>
<polygon fill="#63b8ff" stroke="#63b8ff" points="859.6,-13.82 849.13,-15.44 858.33,-20.7 859.6,-13.82"/>
</a>
</g>
</g>
<!-- Node26&#45;&gt;Node14 -->
<g id="edge48_Node000026_Node000014" class="edge">
<title>Node26&#45;&gt;Node14</title>
<g id="a_edge48_Node000026_Node000014"><a xlink:title=" ">
<path fill="none" stroke="#63b8ff" d="M1126.66,-54.98C1144.75,-46.5 1172.78,-33.35 1193.69,-23.54"/>
<polygon fill="#63b8ff" stroke="#63b8ff" points="1195.45,-26.59 1203.01,-19.17 1192.47,-20.25 1195.45,-26.59"/>
</a>
</g>
</g>
<!-- Node27&#45;&gt;Node13 -->
<g id="edge50_Node000027_Node000013" class="edge">
<title>Node27&#45;&gt;Node13</title>
<g id="a_edge50_Node000027_Node000013"><a xlink:title=" ">
<path fill="none" stroke="#63b8ff" d="M578.33,-109.56C587.9,-95.63 608.31,-68.91 632.5,-55 680.89,-27.17 745.7,-16.73 785.75,-12.82"/>
<polygon fill="#63b8ff" stroke="#63b8ff" points="786.21,-16.3 795.86,-11.92 785.59,-9.32 786.21,-16.3"/>
</a>
</g>
</g>
<!-- Node27&#45;&gt;Node15 -->
<g id="edge51_Node000027_Node000015" class="edge">
<title>Node27&#45;&gt;Node15</title>
<g id="a_edge51_Node000027_Node000015"><a xlink:title=" ">
<path fill="none" stroke="#63b8ff" d="M563.42,-109.75C555.41,-102.03 543.54,-90.6 533.88,-81.28"/>
<polygon fill="#63b8ff" stroke="#63b8ff" points="536.04,-78.51 526.41,-74.09 531.19,-83.55 536.04,-78.51"/>
</a>
</g>
</g>
<!-- Node29&#45;&gt;Node9 -->
<g id="edge55_Node000029_Node000009" class="edge">
<title>Node29&#45;&gt;Node9</title>
<g id="a_edge55_Node000029_Node000009"><a xlink:title=" ">
<path fill="none" stroke="#63b8ff" d="M1602.74,-109.98C1623.2,-101.38 1655.03,-87.99 1678.43,-78.15"/>
<polygon fill="#63b8ff" stroke="#63b8ff" points="1680.03,-81.27 1687.89,-74.17 1677.31,-74.82 1680.03,-81.27"/>
</a>
</g>
</g>
<!-- Node30 -->
<g id="Node000030" class="node">
<title>Node30</title>
<g id="a_Node000030"><a xlink:title=" ">
<polygon fill="#e0e0e0" stroke="#999999" points="1639,-74 1526,-74 1526,-55 1639,-55 1639,-74"/>
<text text-anchor="middle" x="1582.5" y="-62" font-family="Helvetica,sans-Serif" font-size="10.00">platform_includes.h</text>
</a>
</g>
</g>
<!-- Node29&#45;&gt;Node30 -->
<g id="edge54_Node000029_Node000030" class="edge">
<title>Node29&#45;&gt;Node30</title>
<g id="a_edge54_Node000029_Node000030"><a xlink:title=" ">
<path fill="none" stroke="#63b8ff" d="M1582.5,-109.75C1582.5,-102.8 1582.5,-92.85 1582.5,-84.13"/>
<polygon fill="#63b8ff" stroke="#63b8ff" points="1586,-84.09 1582.5,-74.09 1579,-84.09 1586,-84.09"/>
</a>
</g>
</g>
<!-- Node31 -->
<g id="Node000031" class="node">
<title>Node31</title>
<g id="a_Node000031"><a xlink:href="clk__axi__clkgen_8h.html" target="_top" xlink:title="Driver for the Analog Devices AXI CLKGEN.">
<polygon fill="white" stroke="#666666" points="1507.5,-74 1409.5,-74 1409.5,-55 1507.5,-55 1507.5,-74"/>
<text text-anchor="middle" x="1458.5" y="-62" font-family="Helvetica,sans-Serif" font-size="10.00">clk_axi_clkgen.h</text>
</a>
</g>
</g>
<!-- Node29&#45;&gt;Node31 -->
<g id="edge56_Node000029_Node000031" class="edge">
<title>Node29&#45;&gt;Node31</title>
<g id="a_edge56_Node000029_Node000031"><a xlink:title=" ">
<path fill="none" stroke="#63b8ff" d="M1562.58,-109.98C1542.45,-101.38 1511.12,-87.99 1488.09,-78.15"/>
<polygon fill="#63b8ff" stroke="#63b8ff" points="1489.36,-74.88 1478.79,-74.17 1486.6,-81.32 1489.36,-74.88"/>
</a>
</g>
</g>
<!-- Node29&#45;&gt;Node32 -->
<g id="edge58_Node000029_Node000032" class="edge">
<title>Node29&#45;&gt;Node32</title>
<g id="a_edge58_Node000029_Node000032"><a xlink:title=" ">
<path fill="none" stroke="#63b8ff" d="M1619.61,-109.98C1659.99,-100.72 1724.58,-85.9 1767.99,-75.94"/>
<polygon fill="#63b8ff" stroke="#63b8ff" points="1769.03,-79.29 1778,-73.65 1767.47,-72.47 1769.03,-79.29"/>
</a>
</g>
</g>
<!-- Node31&#45;&gt;Node13 -->
<g id="edge57_Node000031_Node000013" class="edge">
<title>Node31&#45;&gt;Node13</title>
<g id="a_edge57_Node000031_Node000013"><a xlink:title=" ">
<path fill="none" stroke="#63b8ff" d="M1409.39,-59.41C1286.45,-49.16 967.54,-22.59 859.17,-13.56"/>
<polygon fill="#63b8ff" stroke="#63b8ff" points="859.31,-10.06 849.06,-12.71 858.73,-17.03 859.31,-10.06"/>
</a>
</g>
</g>
</g>
</svg>

<g id="navigator" transform="translate(0 0)" fill="#404254">
  <rect fill="#f2f5e9" fill-opacity="0.5" stroke="#606060" stroke-width=".5" x="0" y="0" width="60" height="60"/>
  <use id="zoomplus" xlink:href="#zoomPlus" x="17" y="9" onmousedown="handleZoom(evt,'in')"/>
  <use id="zoomminus" xlink:href="#zoomMin" x="42" y="9" onmousedown="handleZoom(evt,'out')"/>
  <use id="reset" xlink:href="#resetDef" x="30" y="36" onmousedown="handleReset()"/>
   <use id="arrowup" xlink:href="#arrowUp" x="0" y="0" onmousedown="handlePan(0,-1)"/>
  <use id="arrowright" xlink:href="#arrowRight" x="0" y="0" onmousedown="handlePan(1,0)"/>
  <use id="arrowdown" xlink:href="#arrowDown" x="0" y="0" onmousedown="handlePan(0,1)"/>
  <use id="arrowleft" xlink:href="#arrowLeft" x="0" y="0" onmousedown="handlePan(-1,0)"/>
</g>
<svg viewBox="0 0 15 15" width="100%" height="30px" preserveAspectRatio="xMaxYMin meet">
 <g id="arrow_out" transform="scale(0.3 0.3)">
  <a xlink:href="dma__example_8c__incl_org.svg" target="_base">
   <rect id="button" ry="5" rx="5" y="6" x="6" height="38" width="38"
        fill="#f2f5e9" fill-opacity="0.5" stroke="#606060" stroke-width="1.0"/>
   <path id="arrow"
     d="M 11.500037,31.436501 C 11.940474,20.09759 22.043105,11.32322 32.158766,21.979434 L 37.068811,17.246167 C 37.068811,17.246167 37.088388,32 37.088388,32 L 22.160133,31.978069 C 22.160133,31.978069 26.997745,27.140456 26.997745,27.140456 C 18.528582,18.264221 13.291696,25.230495 11.500037,31.436501 z"
     style="fill:#404040;"/>
  </a>
 </g>
</svg>

<style type='text/css'>
<![CDATA[
[data-mouse-over-selected='false'] { opacity: 0.7; }
[data-mouse-over-selected='true']  { opacity: 1.0; }
]]>
</style>
<script type="application/ecmascript"><![CDATA[
document.addEventListener('DOMContentLoaded', (event) => {
  highlightEdges();
  highlightAdjacentNodes();
});
]]></script>
</svg>
