<?xml version="1.0" encoding="UTF-8" standalone="no"?>
<!DOCTYPE svg PUBLIC "-//W3C//DTD SVG 1.1//EN"
 "http://www.w3.org/Graphics/SVG/1.1/DTD/svg11.dtd">
<!-- Generated by graphviz version 2.43.0 (0)
 -->
<!-- Title: /home/runner/work/no&#45;OS/no&#45;OS/projects/eval&#45;adgm3121/src/platform/maxim/main.c Pages: 1 -->
<svg width="414pt" height="170pt"
 viewBox="0.00 0.00 414.00 170.00" xmlns="http://www.w3.org/2000/svg" xmlns:xlink="http://www.w3.org/1999/xlink">
<g id="graph0" class="graph" transform="scale(1 1) rotate(0) translate(4 166)">
<title>/home/runner/work/no&#45;OS/no&#45;OS/projects/eval&#45;adgm3121/src/platform/maxim/main.c</title>
<!-- Node1 -->
<g id="Node000001" class="node">
<title>Node1</title>
<g id="a_Node000001"><a xlink:title="Main file for Maxim platform of eval&#45;adgm3121 project.">
<polygon fill="#999999" stroke="#666666" points="324,-162 190,-162 190,-110 324,-110 324,-162"/>
<text text-anchor="start" x="198" y="-150" font-family="Helvetica,sans-Serif" font-size="10.00">/home/runner/work/no</text>
<text text-anchor="start" x="198" y="-139" font-family="Helvetica,sans-Serif" font-size="10.00">&#45;OS/no&#45;OS/projects/eval</text>
<text text-anchor="start" x="198" y="-128" font-family="Helvetica,sans-Serif" font-size="10.00">&#45;adgm3121/src/platform</text>
<text text-anchor="middle" x="257" y="-117" font-family="Helvetica,sans-Serif" font-size="10.00">/maxim/main.c</text>
</a>
</g>
</g>
<!-- Node2 -->
<g id="Node000002" class="node">
<title>Node2</title>
<g id="a_Node000002"><a xlink:href="eval-adgm3121_2src_2platform_2maxim_2parameters_8h.html" target="_top" xlink:title="Definitions specific to Maxim platform used by eval&#45;adgm3121 project.">
<polygon fill="white" stroke="#666666" points="190,-74 108,-74 108,-55 190,-55 190,-74"/>
<text text-anchor="middle" x="149" y="-62" font-family="Helvetica,sans-Serif" font-size="10.00">parameters.h</text>
</a>
</g>
</g>
<!-- Node1&#45;&gt;Node2 -->
<g id="edge1_Node000001_Node000002" class="edge">
<title>Node1&#45;&gt;Node2</title>
<g id="a_edge1_Node000001_Node000002"><a xlink:title=" ">
<path fill="none" stroke="#63b8ff" d="M218.01,-109.91C202.2,-99.74 184.53,-88.36 171.03,-79.68"/>
<polygon fill="#63b8ff" stroke="#63b8ff" points="172.72,-76.6 162.42,-74.14 168.93,-82.49 172.72,-76.6"/>
</a>
</g>
</g>
<!-- Node6 -->
<g id="Node000006" class="node">
<title>Node6</title>
<g id="a_Node000006"><a xlink:title=" ">
<polygon fill="#e0e0e0" stroke="#999999" points="304.5,-74 209.5,-74 209.5,-55 304.5,-55 304.5,-74"/>
<text text-anchor="middle" x="257" y="-62" font-family="Helvetica,sans-Serif" font-size="10.00">common_data.h</text>
</a>
</g>
</g>
<!-- Node1&#45;&gt;Node6 -->
<g id="edge5_Node000001_Node000006" class="edge">
<title>Node1&#45;&gt;Node6</title>
<g id="a_edge5_Node000001_Node000006"><a xlink:title=" ">
<path fill="none" stroke="#63b8ff" d="M257,-109.91C257,-101.55 257,-92.38 257,-84.55"/>
<polygon fill="#63b8ff" stroke="#63b8ff" points="260.5,-84.3 257,-74.3 253.5,-84.3 260.5,-84.3"/>
</a>
</g>
</g>
<!-- Node7 -->
<g id="Node000007" class="node">
<title>Node7</title>
<g id="a_Node000007"><a xlink:href="no__os__error_8h.html" target="_top" xlink:title="Error codes definition.">
<polygon fill="white" stroke="#666666" points="406,-74 324,-74 324,-55 406,-55 406,-74"/>
<text text-anchor="middle" x="365" y="-62" font-family="Helvetica,sans-Serif" font-size="10.00">no_os_error.h</text>
</a>
</g>
</g>
<!-- Node1&#45;&gt;Node7 -->
<g id="edge6_Node000001_Node000007" class="edge">
<title>Node1&#45;&gt;Node7</title>
<g id="a_edge6_Node000001_Node000007"><a xlink:title=" ">
<path fill="none" stroke="#63b8ff" d="M295.99,-109.91C311.8,-99.74 329.47,-88.36 342.97,-79.68"/>
<polygon fill="#63b8ff" stroke="#63b8ff" points="345.07,-82.49 351.58,-74.14 341.28,-76.6 345.07,-82.49"/>
</a>
</g>
</g>
<!-- Node3 -->
<g id="Node000003" class="node">
<title>Node3</title>
<g id="a_Node000003"><a xlink:title=" ">
<polygon fill="#e0e0e0" stroke="#999999" points="86,-19 0,-19 0,0 86,0 86,-19"/>
<text text-anchor="middle" x="43" y="-7" font-family="Helvetica,sans-Serif" font-size="10.00">maxim_gpio.h</text>
</a>
</g>
</g>
<!-- Node2&#45;&gt;Node3 -->
<g id="edge2_Node000002_Node000003" class="edge">
<title>Node2&#45;&gt;Node3</title>
<g id="a_edge2_Node000002_Node000003"><a xlink:title=" ">
<path fill="none" stroke="#63b8ff" d="M131.97,-54.98C115.07,-46.54 88.94,-33.47 69.36,-23.68"/>
<polygon fill="#63b8ff" stroke="#63b8ff" points="70.85,-20.51 60.34,-19.17 67.72,-26.77 70.85,-20.51"/>
</a>
</g>
</g>
<!-- Node4 -->
<g id="Node000004" class="node">
<title>Node4</title>
<g id="a_Node000004"><a xlink:title=" ">
<polygon fill="#e0e0e0" stroke="#999999" points="189.5,-19 104.5,-19 104.5,0 189.5,0 189.5,-19"/>
<text text-anchor="middle" x="147" y="-7" font-family="Helvetica,sans-Serif" font-size="10.00">maxim_uart.h</text>
</a>
</g>
</g>
<!-- Node2&#45;&gt;Node4 -->
<g id="edge3_Node000002_Node000004" class="edge">
<title>Node2&#45;&gt;Node4</title>
<g id="a_edge3_Node000002_Node000004"><a xlink:title=" ">
<path fill="none" stroke="#63b8ff" d="M148.67,-54.75C148.41,-47.8 148.03,-37.85 147.7,-29.13"/>
<polygon fill="#63b8ff" stroke="#63b8ff" points="151.2,-28.95 147.32,-19.09 144.2,-29.21 151.2,-28.95"/>
</a>
</g>
</g>
<!-- Node5 -->
<g id="Node000005" class="node">
<title>Node5</title>
<g id="a_Node000005"><a xlink:title=" ">
<polygon fill="#e0e0e0" stroke="#999999" points="322,-19 208,-19 208,0 322,0 322,-19"/>
<text text-anchor="middle" x="265" y="-7" font-family="Helvetica,sans-Serif" font-size="10.00">maxim_uart_stdio.h</text>
</a>
</g>
</g>
<!-- Node2&#45;&gt;Node5 -->
<g id="edge4_Node000002_Node000005" class="edge">
<title>Node2&#45;&gt;Node5</title>
<g id="a_edge4_Node000002_Node000005"><a xlink:title=" ">
<path fill="none" stroke="#63b8ff" d="M167.64,-54.98C186.3,-46.46 215.25,-33.23 236.74,-23.41"/>
<polygon fill="#63b8ff" stroke="#63b8ff" points="238.38,-26.51 246.02,-19.17 235.47,-20.14 238.38,-26.51"/>
</a>
</g>
</g>
<!-- Node8 -->
<g id="Node000008" class="node">
<title>Node8</title>
<g id="a_Node000008"><a xlink:href="errno_8h.html" target="_top" xlink:title="Error macro definition for ARM Compiler.">
<polygon fill="white" stroke="#666666" points="391.5,-19 340.5,-19 340.5,0 391.5,0 391.5,-19"/>
<text text-anchor="middle" x="366" y="-7" font-family="Helvetica,sans-Serif" font-size="10.00">errno.h</text>
</a>
</g>
</g>
<!-- Node7&#45;&gt;Node8 -->
<g id="edge7_Node000007_Node000008" class="edge">
<title>Node7&#45;&gt;Node8</title>
<g id="a_edge7_Node000007_Node000008"><a xlink:title=" ">
<path fill="none" stroke="#63b8ff" d="M365.17,-54.75C365.3,-47.8 365.48,-37.85 365.65,-29.13"/>
<polygon fill="#63b8ff" stroke="#63b8ff" points="369.15,-29.15 365.84,-19.09 362.15,-29.02 369.15,-29.15"/>
</a>
</g>
</g>
</g>
</svg>
