<?xml version="1.0" encoding="UTF-8" standalone="no"?>
<!DOCTYPE svg PUBLIC "-//W3C//DTD SVG 1.1//EN"
 "http://www.w3.org/Graphics/SVG/1.1/DTD/svg11.dtd">
<!-- Generated by graphviz version 2.43.0 (0)
 -->
<!-- Title: /home/runner/work/no&#45;OS/no&#45;OS/drivers/platform/ftd2xx/mpsse/ftd2xx_uart.h Pages: 1 -->
<svg width="378pt" height="203pt"
 viewBox="0.00 0.00 378.00 203.00" xmlns="http://www.w3.org/2000/svg" xmlns:xlink="http://www.w3.org/1999/xlink">
<g id="graph0" class="graph" transform="scale(1 1) rotate(0) translate(4 199)">
<title>/home/runner/work/no&#45;OS/no&#45;OS/drivers/platform/ftd2xx/mpsse/ftd2xx_uart.h</title>
<!-- Node1 -->
<g id="Node000001" class="node">
<title>Node1</title>
<g id="a_Node000001"><a xlink:title=" ">
<polygon fill="#999999" stroke="#666666" points="249.5,-195 96.5,-195 96.5,-154 249.5,-154 249.5,-195"/>
<text text-anchor="start" x="104.5" y="-183" font-family="Helvetica,sans-Serif" font-size="10.00">/home/runner/work/no</text>
<text text-anchor="start" x="104.5" y="-172" font-family="Helvetica,sans-Serif" font-size="10.00">&#45;OS/no&#45;OS/drivers/platform</text>
<text text-anchor="middle" x="173" y="-161" font-family="Helvetica,sans-Serif" font-size="10.00">/ftd2xx/mpsse/ftd2xx_uart.h</text>
</a>
</g>
</g>
<!-- Node2 -->
<g id="Node000002" class="node">
<title>Node2</title>
<g id="a_Node000002"><a xlink:href="ftd2xx__uart_8c.html" target="_top" xlink:title=" ">
<polygon fill="white" stroke="#666666" points="152,-118 0,-118 0,-77 152,-77 152,-118"/>
<text text-anchor="start" x="8" y="-106" font-family="Helvetica,sans-Serif" font-size="10.00">/home/runner/work/no</text>
<text text-anchor="start" x="8" y="-95" font-family="Helvetica,sans-Serif" font-size="10.00">&#45;OS/no&#45;OS/drivers/platform</text>
<text text-anchor="middle" x="76" y="-84" font-family="Helvetica,sans-Serif" font-size="10.00">/ftd2xx/mpsse/ftd2xx_uart.c</text>
</a>
</g>
</g>
<!-- Node1&#45;&gt;Node2 -->
<g id="edge1_Node000001_Node000002" class="edge">
<title>Node1&#45;&gt;Node2</title>
<g id="a_edge1_Node000001_Node000002"><a xlink:title=" ">
<path fill="none" stroke="#63b8ff" d="M139.78,-147.82C127.23,-138.11 113.17,-127.24 101.44,-118.17"/>
<polygon fill="#63b8ff" stroke="#63b8ff" points="137.72,-150.64 147.77,-153.99 142,-145.1 137.72,-150.64"/>
</a>
</g>
</g>
<!-- Node3 -->
<g id="Node000003" class="node">
<title>Node3</title>
<g id="a_Node000003"><a xlink:href="max31827-evkit_2src_2platform_2mac_2parameters_8h.html" target="_top" xlink:title=" ">
<polygon fill="white" stroke="#666666" points="370,-118 170,-118 170,-77 370,-77 370,-118"/>
<text text-anchor="start" x="178" y="-106" font-family="Helvetica,sans-Serif" font-size="10.00">/home/runner/work/no</text>
<text text-anchor="start" x="178" y="-95" font-family="Helvetica,sans-Serif" font-size="10.00">&#45;OS/no&#45;OS/projects/max31827</text>
<text text-anchor="middle" x="270" y="-84" font-family="Helvetica,sans-Serif" font-size="10.00">&#45;evkit/src/platform/mac/parameters.h</text>
</a>
</g>
</g>
<!-- Node1&#45;&gt;Node3 -->
<g id="edge2_Node000001_Node000003" class="edge">
<title>Node1&#45;&gt;Node3</title>
<g id="a_edge2_Node000001_Node000003"><a xlink:title=" ">
<path fill="none" stroke="#63b8ff" d="M206.22,-147.82C218.77,-138.11 232.83,-127.24 244.56,-118.17"/>
<polygon fill="#63b8ff" stroke="#63b8ff" points="204,-145.1 198.23,-153.99 208.28,-150.64 204,-145.1"/>
</a>
</g>
</g>
<!-- Node4 -->
<g id="Node000004" class="node">
<title>Node4</title>
<g id="a_Node000004"><a xlink:href="max31827-evkit_2src_2platform_2mac_2parameters_8c.html" target="_top" xlink:title=" ">
<polygon fill="white" stroke="#666666" points="369.5,-41 170.5,-41 170.5,0 369.5,0 369.5,-41"/>
<text text-anchor="start" x="178.5" y="-29" font-family="Helvetica,sans-Serif" font-size="10.00">/home/runner/work/no</text>
<text text-anchor="start" x="178.5" y="-18" font-family="Helvetica,sans-Serif" font-size="10.00">&#45;OS/no&#45;OS/projects/max31827</text>
<text text-anchor="middle" x="270" y="-7" font-family="Helvetica,sans-Serif" font-size="10.00">&#45;evkit/src/platform/mac/parameters.c</text>
</a>
</g>
</g>
<!-- Node3&#45;&gt;Node4 -->
<g id="edge3_Node000003_Node000004" class="edge">
<title>Node3&#45;&gt;Node4</title>
<g id="a_edge3_Node000003_Node000004"><a xlink:title=" ">
<path fill="none" stroke="#63b8ff" d="M270,-66.69C270,-58.08 270,-48.9 270,-41.07"/>
<polygon fill="#63b8ff" stroke="#63b8ff" points="266.5,-66.79 270,-76.79 273.5,-66.79 266.5,-66.79"/>
</a>
</g>
</g>
</g>
</svg>
