<?xml version="1.0" encoding="UTF-8" standalone="no"?>
<!DOCTYPE svg PUBLIC "-//W3C//DTD SVG 1.1//EN"
 "http://www.w3.org/Graphics/SVG/1.1/DTD/svg11.dtd">
<!-- Generated by graphviz version 2.43.0 (0)
 -->
<!-- Title: /home/runner/work/no&#45;OS/no&#45;OS/projects/ad3552r_fmcz/src/examples/generic_spi/generic_spi_example.c Pages: 1 -->
<svg width="1119pt" height="225pt"
 viewBox="0.00 0.00 1119.00 225.00" xmlns="http://www.w3.org/2000/svg" xmlns:xlink="http://www.w3.org/1999/xlink">
<g id="graph0" class="graph" transform="scale(1 1) rotate(0) translate(4 221)">
<title>/home/runner/work/no&#45;OS/no&#45;OS/projects/ad3552r_fmcz/src/examples/generic_spi/generic_spi_example.c</title>
<!-- Node1 -->
<g id="Node000001" class="node">
<title>Node1</title>
<g id="a_Node000001"><a xlink:title="Implementation of Main Function.">
<polygon fill="#999999" stroke="#666666" points="631,-217 478,-217 478,-165 631,-165 631,-217"/>
<text text-anchor="start" x="486" y="-205" font-family="Helvetica,sans-Serif" font-size="10.00">/home/runner/work/no</text>
<text text-anchor="start" x="486" y="-194" font-family="Helvetica,sans-Serif" font-size="10.00">&#45;OS/no&#45;OS/projects/ad3552r</text>
<text text-anchor="start" x="486" y="-183" font-family="Helvetica,sans-Serif" font-size="10.00">_fmcz/src/examples/generic</text>
<text text-anchor="middle" x="554.5" y="-172" font-family="Helvetica,sans-Serif" font-size="10.00">_spi/generic_spi_example.c</text>
</a>
</g>
</g>
<!-- Node2 -->
<g id="Node000002" class="node">
<title>Node2</title>
<g id="a_Node000002"><a xlink:title=" ">
<polygon fill="#e0e0e0" stroke="#999999" points="65,-129 0,-129 0,-110 65,-110 65,-129"/>
<text text-anchor="middle" x="32.5" y="-117" font-family="Helvetica,sans-Serif" font-size="10.00">inttypes.h</text>
</a>
</g>
</g>
<!-- Node1&#45;&gt;Node2 -->
<g id="edge1_Node000001_Node000002" class="edge">
<title>Node1&#45;&gt;Node2</title>
<g id="a_edge1_Node000001_Node000002"><a xlink:title=" ">
<path fill="none" stroke="#63b8ff" d="M477.59,-182.12C384.53,-172.17 222.94,-153.54 75.29,-129.19"/>
<polygon fill="#63b8ff" stroke="#63b8ff" points="75.57,-125.69 65.13,-127.5 74.42,-132.6 75.57,-125.69"/>
</a>
</g>
</g>
<!-- Node3 -->
<g id="Node000003" class="node">
<title>Node3</title>
<g id="a_Node000003"><a xlink:title=" ">
<polygon fill="#e0e0e0" stroke="#999999" points="178,-129 83,-129 83,-110 178,-110 178,-129"/>
<text text-anchor="middle" x="130.5" y="-117" font-family="Helvetica,sans-Serif" font-size="10.00">common_data.h</text>
</a>
</g>
</g>
<!-- Node1&#45;&gt;Node3 -->
<g id="edge2_Node000001_Node000003" class="edge">
<title>Node1&#45;&gt;Node3</title>
<g id="a_edge2_Node000001_Node000003"><a xlink:title=" ">
<path fill="none" stroke="#63b8ff" d="M477.72,-177.41C394.41,-163.76 263.3,-142.27 188.29,-129.97"/>
<polygon fill="#63b8ff" stroke="#63b8ff" points="188.52,-126.46 178.09,-128.3 187.39,-133.37 188.52,-126.46"/>
</a>
</g>
</g>
<!-- Node4 -->
<g id="Node000004" class="node">
<title>Node4</title>
<g id="a_Node000004"><a xlink:href="no__os__error_8h.html" target="_top" xlink:title="Error codes definition.">
<polygon fill="white" stroke="#666666" points="278.5,-129 196.5,-129 196.5,-110 278.5,-110 278.5,-129"/>
<text text-anchor="middle" x="237.5" y="-117" font-family="Helvetica,sans-Serif" font-size="10.00">no_os_error.h</text>
</a>
</g>
</g>
<!-- Node1&#45;&gt;Node4 -->
<g id="edge3_Node000001_Node000004" class="edge">
<title>Node1&#45;&gt;Node4</title>
<g id="a_edge3_Node000001_Node000004"><a xlink:title=" ">
<path fill="none" stroke="#63b8ff" d="M477.76,-173.18C418.15,-160.11 337.3,-142.38 286.26,-131.19"/>
<polygon fill="#63b8ff" stroke="#63b8ff" points="286.98,-127.77 276.46,-129.04 285.48,-134.6 286.98,-127.77"/>
</a>
</g>
</g>
<!-- Node6 -->
<g id="Node000006" class="node">
<title>Node6</title>
<g id="a_Node000006"><a xlink:href="no__os__print__log_8h.html" target="_top" xlink:title="Print messages helpers.">
<polygon fill="white" stroke="#666666" points="398.5,-129 296.5,-129 296.5,-110 398.5,-110 398.5,-129"/>
<text text-anchor="middle" x="347.5" y="-117" font-family="Helvetica,sans-Serif" font-size="10.00">no_os_print_log.h</text>
</a>
</g>
</g>
<!-- Node1&#45;&gt;Node6 -->
<g id="edge5_Node000001_Node000006" class="edge">
<title>Node1&#45;&gt;Node6</title>
<g id="a_edge5_Node000001_Node000006"><a xlink:title=" ">
<path fill="none" stroke="#63b8ff" d="M479.77,-164.91C446.7,-153.81 409.38,-141.28 382.84,-132.36"/>
<polygon fill="#63b8ff" stroke="#63b8ff" points="383.81,-129 373.22,-129.14 381.59,-135.64 383.81,-129"/>
</a>
</g>
</g>
<!-- Node8 -->
<g id="Node000008" class="node">
<title>Node8</title>
<g id="a_Node000008"><a xlink:href="no__os__spi_8h.html" target="_top" xlink:title="Header file of SPI Interface.">
<polygon fill="white" stroke="#666666" points="453.5,-74 379.5,-74 379.5,-55 453.5,-55 453.5,-74"/>
<text text-anchor="middle" x="416.5" y="-62" font-family="Helvetica,sans-Serif" font-size="10.00">no_os_spi.h</text>
</a>
</g>
</g>
<!-- Node1&#45;&gt;Node8 -->
<g id="edge7_Node000001_Node000008" class="edge">
<title>Node1&#45;&gt;Node8</title>
<g id="a_edge7_Node000001_Node000008"><a xlink:title=" ">
<path fill="none" stroke="#63b8ff" d="M540.54,-164.65C530.27,-147.67 515.08,-125.64 497.5,-110 482.81,-96.93 463.62,-86.17 447.6,-78.51"/>
<polygon fill="#63b8ff" stroke="#63b8ff" points="448.66,-75.15 438.11,-74.15 445.74,-81.51 448.66,-75.15"/>
</a>
</g>
</g>
<!-- Node10 -->
<g id="Node000010" class="node">
<title>Node10</title>
<g id="a_Node000010"><a xlink:href="no__os__gpio_8h.html" target="_top" xlink:title="Header file of GPIO Interface.">
<polygon fill="white" stroke="#666666" points="655.5,-74 575.5,-74 575.5,-55 655.5,-55 655.5,-74"/>
<text text-anchor="middle" x="615.5" y="-62" font-family="Helvetica,sans-Serif" font-size="10.00">no_os_gpio.h</text>
</a>
</g>
</g>
<!-- Node1&#45;&gt;Node10 -->
<g id="edge9_Node000001_Node000010" class="edge">
<title>Node1&#45;&gt;Node10</title>
<g id="a_edge9_Node000001_Node000010"><a xlink:title=" ">
<path fill="none" stroke="#63b8ff" d="M566.84,-164.81C578.69,-140.63 596.29,-104.72 606.75,-83.35"/>
<polygon fill="#63b8ff" stroke="#63b8ff" points="610.01,-84.67 611.26,-74.15 603.72,-81.59 610.01,-84.67"/>
</a>
</g>
</g>
<!-- Node11 -->
<g id="Node000011" class="node">
<title>Node11</title>
<g id="a_Node000011"><a xlink:href="no__os__util_8h.html" target="_top" xlink:title="Header file of utility functions.">
<polygon fill="white" stroke="#666666" points="916,-129 841,-129 841,-110 916,-110 916,-129"/>
<text text-anchor="middle" x="878.5" y="-117" font-family="Helvetica,sans-Serif" font-size="10.00">no_os_util.h</text>
</a>
</g>
</g>
<!-- Node1&#45;&gt;Node11 -->
<g id="edge11_Node000001_Node000011" class="edge">
<title>Node1&#45;&gt;Node11</title>
<g id="a_edge11_Node000001_Node000011"><a xlink:title=" ">
<path fill="none" stroke="#63b8ff" d="M631.28,-173.53C693.21,-160.25 778.37,-141.98 830.85,-130.72"/>
<polygon fill="#63b8ff" stroke="#63b8ff" points="831.85,-134.09 840.9,-128.57 830.38,-127.24 831.85,-134.09"/>
</a>
</g>
</g>
<!-- Node14 -->
<g id="Node000014" class="node">
<title>Node14</title>
<g id="a_Node000014"><a xlink:href="no__os__delay_8h.html" target="_top" xlink:title="Header file of Delay functions.">
<polygon fill="white" stroke="#666666" points="557,-74 472,-74 472,-55 557,-55 557,-74"/>
<text text-anchor="middle" x="514.5" y="-62" font-family="Helvetica,sans-Serif" font-size="10.00">no_os_delay.h</text>
</a>
</g>
</g>
<!-- Node1&#45;&gt;Node14 -->
<g id="edge15_Node000001_Node000014" class="edge">
<title>Node1&#45;&gt;Node14</title>
<g id="a_edge15_Node000001_Node000014"><a xlink:title=" ">
<path fill="none" stroke="#63b8ff" d="M547.28,-164.67C542.68,-148.88 536.49,-128.18 530.5,-110 527.64,-101.33 524.25,-91.79 521.32,-83.77"/>
<polygon fill="#63b8ff" stroke="#63b8ff" points="524.58,-82.49 517.83,-74.32 518.01,-84.91 524.58,-82.49"/>
</a>
</g>
</g>
<!-- Node15 -->
<g id="Node000015" class="node">
<title>Node15</title>
<g id="a_Node000015"><a xlink:href="xilinx__spi_8h.html" target="_top" xlink:title=" ">
<polygon fill="white" stroke="#666666" points="488.5,-129 416.5,-129 416.5,-110 488.5,-110 488.5,-129"/>
<text text-anchor="middle" x="452.5" y="-117" font-family="Helvetica,sans-Serif" font-size="10.00">xilinx_spi.h</text>
</a>
</g>
</g>
<!-- Node1&#45;&gt;Node15 -->
<g id="edge17_Node000001_Node000015" class="edge">
<title>Node1&#45;&gt;Node15</title>
<g id="a_edge17_Node000001_Node000015"><a xlink:title=" ">
<path fill="none" stroke="#63b8ff" d="M517.68,-164.91C502.98,-154.9 486.58,-143.72 473.91,-135.09"/>
<polygon fill="#63b8ff" stroke="#63b8ff" points="475.65,-132.04 465.42,-129.3 471.71,-137.83 475.65,-132.04"/>
</a>
</g>
</g>
<!-- Node16 -->
<g id="Node000016" class="node">
<title>Node16</title>
<g id="a_Node000016"><a xlink:href="xilinx__gpio_8h.html" target="_top" xlink:title=" ">
<polygon fill="white" stroke="#666666" points="823,-129 744,-129 744,-110 823,-110 823,-129"/>
<text text-anchor="middle" x="783.5" y="-117" font-family="Helvetica,sans-Serif" font-size="10.00">xilinx_gpio.h</text>
</a>
</g>
</g>
<!-- Node1&#45;&gt;Node16 -->
<g id="edge20_Node000001_Node000016" class="edge">
<title>Node1&#45;&gt;Node16</title>
<g id="a_edge20_Node000001_Node000016"><a xlink:title=" ">
<path fill="none" stroke="#63b8ff" d="M631.07,-166.76C669.67,-155.05 714.76,-141.36 745.83,-131.93"/>
<polygon fill="#63b8ff" stroke="#63b8ff" points="746.84,-135.28 755.4,-129.03 744.81,-128.58 746.84,-135.28"/>
</a>
</g>
</g>
<!-- Node17 -->
<g id="Node000017" class="node">
<title>Node17</title>
<g id="a_Node000017"><a xlink:href="ad3552r_8h.html" target="_top" xlink:title="Header file of ad3552r Driver.">
<polygon fill="white" stroke="#666666" points="705,-129 640,-129 640,-110 705,-110 705,-129"/>
<text text-anchor="middle" x="672.5" y="-117" font-family="Helvetica,sans-Serif" font-size="10.00">ad3552r.h</text>
</a>
</g>
</g>
<!-- Node1&#45;&gt;Node17 -->
<g id="edge23_Node000001_Node000017" class="edge">
<title>Node1&#45;&gt;Node17</title>
<g id="a_edge23_Node000001_Node000017"><a xlink:title=" ">
<path fill="none" stroke="#63b8ff" d="M597.1,-164.91C614.54,-154.64 634.05,-143.15 648.86,-134.43"/>
<polygon fill="#63b8ff" stroke="#63b8ff" points="651,-137.23 657.84,-129.14 647.45,-131.19 651,-137.23"/>
</a>
</g>
</g>
<!-- Node20 -->
<g id="Node000020" class="node">
<title>Node20</title>
<g id="a_Node000020"><a xlink:title=" ">
<polygon fill="#e0e0e0" stroke="#999999" points="1021.5,-129 933.5,-129 933.5,-110 1021.5,-110 1021.5,-129"/>
<text text-anchor="middle" x="977.5" y="-117" font-family="Helvetica,sans-Serif" font-size="10.00">xparameters.h</text>
</a>
</g>
</g>
<!-- Node1&#45;&gt;Node20 -->
<g id="edge31_Node000001_Node000020" class="edge">
<title>Node1&#45;&gt;Node20</title>
<g id="a_edge31_Node000001_Node000020"><a xlink:title=" ">
<path fill="none" stroke="#63b8ff" d="M631.1,-177.41C715.46,-163.55 848.96,-141.62 923.19,-129.42"/>
<polygon fill="#63b8ff" stroke="#63b8ff" points="923.95,-132.84 933.25,-127.77 922.82,-125.94 923.95,-132.84"/>
</a>
</g>
</g>
<!-- Node21 -->
<g id="Node000021" class="node">
<title>Node21</title>
<g id="a_Node000021"><a xlink:title=" ">
<polygon fill="#e0e0e0" stroke="#999999" points="1111,-129 1040,-129 1040,-110 1111,-110 1111,-129"/>
<text text-anchor="middle" x="1075.5" y="-117" font-family="Helvetica,sans-Serif" font-size="10.00">xil_cache.h</text>
</a>
</g>
</g>
<!-- Node1&#45;&gt;Node21 -->
<g id="edge32_Node000001_Node000021" class="edge">
<title>Node1&#45;&gt;Node21</title>
<g id="a_edge32_Node000001_Node000021"><a xlink:title=" ">
<path fill="none" stroke="#63b8ff" d="M631.37,-181.57C723.52,-171.14 882.84,-152.1 1029.58,-129.06"/>
<polygon fill="#63b8ff" stroke="#63b8ff" points="1030.34,-132.48 1039.67,-127.47 1029.25,-125.57 1030.34,-132.48"/>
</a>
</g>
</g>
<!-- Node5 -->
<g id="Node000005" class="node">
<title>Node5</title>
<g id="a_Node000005"><a xlink:href="errno_8h.html" target="_top" xlink:title="Error macro definition for ARM Compiler.">
<polygon fill="white" stroke="#666666" points="255,-74 204,-74 204,-55 255,-55 255,-74"/>
<text text-anchor="middle" x="229.5" y="-62" font-family="Helvetica,sans-Serif" font-size="10.00">errno.h</text>
</a>
</g>
</g>
<!-- Node4&#45;&gt;Node5 -->
<g id="edge4_Node000004_Node000005" class="edge">
<title>Node4&#45;&gt;Node5</title>
<g id="a_edge4_Node000004_Node000005"><a xlink:title=" ">
<path fill="none" stroke="#63b8ff" d="M236.18,-109.75C235.13,-102.8 233.63,-92.85 232.31,-84.13"/>
<polygon fill="#63b8ff" stroke="#63b8ff" points="235.75,-83.45 230.8,-74.09 228.83,-84.5 235.75,-83.45"/>
</a>
</g>
</g>
<!-- Node7 -->
<g id="Node000007" class="node">
<title>Node7</title>
<g id="a_Node000007"><a xlink:title=" ">
<polygon fill="#e0e0e0" stroke="#999999" points="323.5,-74 273.5,-74 273.5,-55 323.5,-55 323.5,-74"/>
<text text-anchor="middle" x="298.5" y="-62" font-family="Helvetica,sans-Serif" font-size="10.00">stdio.h</text>
</a>
</g>
</g>
<!-- Node6&#45;&gt;Node7 -->
<g id="edge6_Node000006_Node000007" class="edge">
<title>Node6&#45;&gt;Node7</title>
<g id="a_edge6_Node000006_Node000007"><a xlink:title=" ">
<path fill="none" stroke="#63b8ff" d="M339.41,-109.75C332.34,-102.11 321.91,-90.82 313.35,-81.56"/>
<polygon fill="#63b8ff" stroke="#63b8ff" points="315.8,-79.06 306.44,-74.09 310.66,-83.81 315.8,-79.06"/>
</a>
</g>
</g>
<!-- Node9 -->
<g id="Node000009" class="node">
<title>Node9</title>
<g id="a_Node000009"><a xlink:title=" ">
<polygon fill="#e0e0e0" stroke="#999999" points="674,-19 621,-19 621,0 674,0 674,-19"/>
<text text-anchor="middle" x="647.5" y="-7" font-family="Helvetica,sans-Serif" font-size="10.00">stdint.h</text>
</a>
</g>
</g>
<!-- Node8&#45;&gt;Node9 -->
<g id="edge8_Node000008_Node000009" class="edge">
<title>Node8&#45;&gt;Node9</title>
<g id="a_edge8_Node000008_Node000009"><a xlink:title=" ">
<path fill="none" stroke="#63b8ff" d="M453.61,-54.98C496.95,-45.04 568.15,-28.71 611.15,-18.84"/>
<polygon fill="#63b8ff" stroke="#63b8ff" points="611.95,-22.25 620.92,-16.6 610.39,-15.42 611.95,-22.25"/>
</a>
</g>
</g>
<!-- Node10&#45;&gt;Node9 -->
<g id="edge10_Node000010_Node000009" class="edge">
<title>Node10&#45;&gt;Node9</title>
<g id="a_edge10_Node000010_Node000009"><a xlink:title=" ">
<path fill="none" stroke="#63b8ff" d="M620.78,-54.75C625.21,-47.42 631.66,-36.73 637.12,-27.7"/>
<polygon fill="#63b8ff" stroke="#63b8ff" points="640.14,-29.46 642.31,-19.09 634.15,-25.84 640.14,-29.46"/>
</a>
</g>
</g>
<!-- Node11&#45;&gt;Node9 -->
<g id="edge12_Node000011_Node000009" class="edge">
<title>Node11&#45;&gt;Node9</title>
<g id="a_edge12_Node000011_Node000009"><a xlink:title=" ">
<path fill="none" stroke="#63b8ff" d="M890.72,-109.97C907.45,-97.28 933.76,-72.98 918.5,-55 910.94,-46.1 756.31,-24.77 684.08,-15.24"/>
<polygon fill="#63b8ff" stroke="#63b8ff" points="684.42,-11.75 674.05,-13.92 683.51,-18.69 684.42,-11.75"/>
</a>
</g>
</g>
<!-- Node12 -->
<g id="Node000012" class="node">
<title>Node12</title>
<g id="a_Node000012"><a xlink:title=" ">
<polygon fill="#e0e0e0" stroke="#999999" points="1019,-74 966,-74 966,-55 1019,-55 1019,-74"/>
<text text-anchor="middle" x="992.5" y="-62" font-family="Helvetica,sans-Serif" font-size="10.00">stdlib.h</text>
</a>
</g>
</g>
<!-- Node11&#45;&gt;Node12 -->
<g id="edge13_Node000011_Node000012" class="edge">
<title>Node11&#45;&gt;Node12</title>
<g id="a_edge13_Node000011_Node000012"><a xlink:title=" ">
<path fill="none" stroke="#63b8ff" d="M896.82,-109.98C915.16,-101.46 943.61,-88.23 964.73,-78.41"/>
<polygon fill="#63b8ff" stroke="#63b8ff" points="966.26,-81.56 973.85,-74.17 963.31,-75.21 966.26,-81.56"/>
</a>
</g>
</g>
<!-- Node13 -->
<g id="Node000013" class="node">
<title>Node13</title>
<g id="a_Node000013"><a xlink:title=" ">
<polygon fill="#e0e0e0" stroke="#999999" points="909.5,-74 847.5,-74 847.5,-55 909.5,-55 909.5,-74"/>
<text text-anchor="middle" x="878.5" y="-62" font-family="Helvetica,sans-Serif" font-size="10.00">stdbool.h</text>
</a>
</g>
</g>
<!-- Node11&#45;&gt;Node13 -->
<g id="edge14_Node000011_Node000013" class="edge">
<title>Node11&#45;&gt;Node13</title>
<g id="a_edge14_Node000011_Node000013"><a xlink:title=" ">
<path fill="none" stroke="#63b8ff" d="M878.5,-109.75C878.5,-102.8 878.5,-92.85 878.5,-84.13"/>
<polygon fill="#63b8ff" stroke="#63b8ff" points="882,-84.09 878.5,-74.09 875,-84.09 882,-84.09"/>
</a>
</g>
</g>
<!-- Node14&#45;&gt;Node9 -->
<g id="edge16_Node000014_Node000009" class="edge">
<title>Node14&#45;&gt;Node9</title>
<g id="a_edge16_Node000014_Node000009"><a xlink:title=" ">
<path fill="none" stroke="#63b8ff" d="M535.87,-54.98C557.65,-46.3 591.66,-32.75 616.42,-22.88"/>
<polygon fill="#63b8ff" stroke="#63b8ff" points="617.75,-26.12 625.74,-19.17 615.16,-19.62 617.75,-26.12"/>
</a>
</g>
</g>
<!-- Node15&#45;&gt;Node8 -->
<g id="edge19_Node000015_Node000008" class="edge">
<title>Node15&#45;&gt;Node8</title>
<g id="a_edge19_Node000015_Node000008"><a xlink:title=" ">
<path fill="none" stroke="#63b8ff" d="M446.56,-109.75C441.52,-102.34 434.16,-91.5 427.99,-82.41"/>
<polygon fill="#63b8ff" stroke="#63b8ff" points="430.85,-80.39 422.33,-74.09 425.06,-84.33 430.85,-80.39"/>
</a>
</g>
</g>
<!-- Node15&#45;&gt;Node9 -->
<g id="edge18_Node000015_Node000009" class="edge">
<title>Node15&#45;&gt;Node9</title>
<g id="a_edge18_Node000015_Node000009"><a xlink:title=" ">
<path fill="none" stroke="#63b8ff" d="M425.05,-109.99C394.08,-99.01 350.47,-78.5 370.5,-55 400.94,-19.28 542.49,-12.12 610.64,-10.77"/>
<polygon fill="#63b8ff" stroke="#63b8ff" points="610.98,-14.26 620.92,-10.59 610.86,-7.26 610.98,-14.26"/>
</a>
</g>
</g>
<!-- Node16&#45;&gt;Node9 -->
<g id="edge21_Node000016_Node000009" class="edge">
<title>Node16&#45;&gt;Node9</title>
<g id="a_edge21_Node000016_Node000009"><a xlink:title=" ">
<path fill="none" stroke="#63b8ff" d="M790.07,-109.81C799.12,-96.7 812.97,-71.61 800.5,-55 786.52,-36.38 724.76,-23 684.11,-16.03"/>
<polygon fill="#63b8ff" stroke="#63b8ff" points="684.46,-12.54 674.02,-14.35 683.31,-19.44 684.46,-12.54"/>
</a>
</g>
</g>
<!-- Node16&#45;&gt;Node13 -->
<g id="edge22_Node000016_Node000013" class="edge">
<title>Node16&#45;&gt;Node13</title>
<g id="a_edge22_Node000016_Node000013"><a xlink:title=" ">
<path fill="none" stroke="#63b8ff" d="M798.76,-109.98C813.63,-101.69 836.48,-88.94 853.92,-79.22"/>
<polygon fill="#63b8ff" stroke="#63b8ff" points="855.93,-82.1 862.96,-74.17 852.52,-75.99 855.93,-82.1"/>
</a>
</g>
</g>
<!-- Node17&#45;&gt;Node8 -->
<g id="edge26_Node000017_Node000008" class="edge">
<title>Node17&#45;&gt;Node8</title>
<g id="a_edge26_Node000017_Node000008"><a xlink:title=" ">
<path fill="none" stroke="#63b8ff" d="M639.82,-111.73C595.08,-102.47 514.51,-85.79 463.36,-75.2"/>
<polygon fill="#63b8ff" stroke="#63b8ff" points="464.04,-71.77 453.54,-73.17 462.62,-78.62 464.04,-71.77"/>
</a>
</g>
</g>
<!-- Node17&#45;&gt;Node9 -->
<g id="edge24_Node000017_Node000009" class="edge">
<title>Node17&#45;&gt;Node9</title>
<g id="a_edge24_Node000017_Node000009"><a xlink:title=" ">
<path fill="none" stroke="#63b8ff" d="M672.06,-109.75C671.29,-97.39 669.3,-74.19 664.5,-55 662.27,-46.07 658.76,-36.5 655.52,-28.53"/>
<polygon fill="#63b8ff" stroke="#63b8ff" points="658.67,-26.99 651.52,-19.16 652.23,-29.74 658.67,-26.99"/>
</a>
</g>
</g>
<!-- Node17&#45;&gt;Node10 -->
<g id="edge27_Node000017_Node000010" class="edge">
<title>Node17&#45;&gt;Node10</title>
<g id="a_edge27_Node000017_Node000010"><a xlink:title=" ">
<path fill="none" stroke="#63b8ff" d="M663.34,-109.98C655,-102.23 642.47,-90.58 632.32,-81.14"/>
<polygon fill="#63b8ff" stroke="#63b8ff" points="634.53,-78.42 624.82,-74.17 629.76,-83.54 634.53,-78.42"/>
</a>
</g>
</g>
<!-- Node17&#45;&gt;Node13 -->
<g id="edge25_Node000017_Node000013" class="edge">
<title>Node17&#45;&gt;Node13</title>
<g id="a_edge25_Node000017_Node000013"><a xlink:title=" ">
<path fill="none" stroke="#63b8ff" d="M705.14,-110.1C740.97,-100.88 798.55,-86.07 837.42,-76.07"/>
<polygon fill="#63b8ff" stroke="#63b8ff" points="838.55,-79.39 847.36,-73.51 836.8,-72.61 838.55,-79.39"/>
</a>
</g>
</g>
<!-- Node18 -->
<g id="Node000018" class="node">
<title>Node18</title>
<g id="a_Node000018"><a xlink:href="no__os__crc8_8h.html" target="_top" xlink:title="Header file of CRC&#45;8 computation.">
<polygon fill="white" stroke="#666666" points="791.5,-74 711.5,-74 711.5,-55 791.5,-55 791.5,-74"/>
<text text-anchor="middle" x="751.5" y="-62" font-family="Helvetica,sans-Serif" font-size="10.00">no_os_crc8.h</text>
</a>
</g>
</g>
<!-- Node17&#45;&gt;Node18 -->
<g id="edge28_Node000017_Node000018" class="edge">
<title>Node17&#45;&gt;Node18</title>
<g id="a_edge28_Node000017_Node000018"><a xlink:title=" ">
<path fill="none" stroke="#63b8ff" d="M685.19,-109.98C697.33,-101.84 715.86,-89.41 730.25,-79.76"/>
<polygon fill="#63b8ff" stroke="#63b8ff" points="732.22,-82.65 738.58,-74.17 728.32,-76.84 732.22,-82.65"/>
</a>
</g>
</g>
<!-- Node18&#45;&gt;Node9 -->
<g id="edge29_Node000018_Node000009" class="edge">
<title>Node18&#45;&gt;Node9</title>
<g id="a_edge29_Node000018_Node000009"><a xlink:title=" ">
<path fill="none" stroke="#63b8ff" d="M734.79,-54.98C718.29,-46.57 692.8,-33.59 673.62,-23.81"/>
<polygon fill="#63b8ff" stroke="#63b8ff" points="675.01,-20.59 664.51,-19.17 671.83,-26.83 675.01,-20.59"/>
</a>
</g>
</g>
<!-- Node19 -->
<g id="Node000019" class="node">
<title>Node19</title>
<g id="a_Node000019"><a xlink:title=" ">
<polygon fill="#e0e0e0" stroke="#999999" points="779.5,-19 723.5,-19 723.5,0 779.5,0 779.5,-19"/>
<text text-anchor="middle" x="751.5" y="-7" font-family="Helvetica,sans-Serif" font-size="10.00">stddef.h</text>
</a>
</g>
</g>
<!-- Node18&#45;&gt;Node19 -->
<g id="edge30_Node000018_Node000019" class="edge">
<title>Node18&#45;&gt;Node19</title>
<g id="a_edge30_Node000018_Node000019"><a xlink:title=" ">
<path fill="none" stroke="#63b8ff" d="M751.5,-54.75C751.5,-47.8 751.5,-37.85 751.5,-29.13"/>
<polygon fill="#63b8ff" stroke="#63b8ff" points="755,-29.09 751.5,-19.09 748,-29.09 755,-29.09"/>
</a>
</g>
</g>
</g>
</svg>
