<?xml version="1.0" encoding="UTF-8" standalone="no"?>
<!DOCTYPE svg PUBLIC "-//W3C//DTD SVG 1.1//EN"
 "http://www.w3.org/Graphics/SVG/1.1/DTD/svg11.dtd">
<!-- Generated by graphviz version 2.43.0 (0)
 -->
<!-- Title: /home/runner/work/no&#45;OS/no&#45;OS/drivers/gmsl/common/gmsl_common.h Pages: 1 -->
<!--zoomable 401 -->

<svg id="main" version="1.1" xmlns="http://www.w3.org/2000/svg" xmlns:xlink="http://www.w3.org/1999/xlink" xml:space="preserve" onload="init(evt)">

<style type="text/css"><![CDATA[
.node, .edge {opacity: 0.7;}
.node.selected, .edge.selected {opacity: 1;}
.edge:hover path { stroke: red; }
.edge:hover polygon { stroke: red; fill: red; }
]]></style>

<defs>
  <circle id="rim" cx="0" cy="0" r="7"/>
  <circle id="rim2" cx="0" cy="0" r="3.5"/>
  <g id="zoomPlus">
    <use xlink:href="#rim" fill="#404040"><set attributeName="fill" to="#808080" begin="zoomplus.mouseover" end="zoomplus.mouseout"/></use>
    <path d="M-4,0h8M0,-4v8" fill="none" stroke="white" stroke-width="1.5" pointer-events="none"/>
  </g>
  <g id="zoomMin">
    <use xlink:href="#rim" fill="#404040"><set attributeName="fill" to="#808080" begin="zoomminus.mouseover" end="zoomminus.mouseout"/></use>
    <path d="M-4,0h8" fill="none" stroke="white" stroke-width="1.5" pointer-events="none"/>
  </g>
  <g id="arrowUp" transform="translate(30 24)">
    <use xlink:href="#rim"/>
    <path pointer-events="none" fill="none" stroke="white" stroke-width="1.5" d="M0,-3.0v7 M-2.5,-0.5L0,-3.0L2.5,-0.5"/>
  </g>
  <g id="arrowRight" transform="rotate(90) translate(36 -43)">
    <use xlink:href="#rim"/>
    <path pointer-events="none" fill="none" stroke="white" stroke-width="1.5" d="M0,-3.0v7 M-2.5,-0.5L0,-3.0L2.5,-0.5"/>
  </g>
  <g id="arrowDown" transform="rotate(180) translate(-30 -48)">
    <use xlink:href="#rim"/>
    <path pointer-events="none" fill="none" stroke="white" stroke-width="1.5" d="M0,-3.0v7 M-2.5,-0.5L0,-3.0L2.5,-0.5"/>
  </g>
  <g id="arrowLeft" transform="rotate(270) translate(-36 17)">
    <use xlink:href="#rim"/>
    <path pointer-events="none" fill="none" stroke="white" stroke-width="1.5" d="M0,-3.0v7 M-2.5,-0.5L0,-3.0L2.5,-0.5"/>
  </g>
  <g id="resetDef">
    <use xlink:href="#rim2" fill="#404040"><set attributeName="fill" to="#808080" begin="reset.mouseover" end="reset.mouseout"/></use>
  </g>
</defs>
<script type="application/ecmascript">
var viewWidth = 1043;
var viewHeight = 401;
var sectionId = 'dynsection-1';
</script>
<script type="application/ecmascript" xlink:href="svg.min.js"/>
<svg id="graph" class="graph">
<g id="viewport">
<title>/home/runner/work/no&#45;OS/no&#45;OS/drivers/gmsl/common/gmsl_common.h</title>
<!-- Node1 -->
<g id="Node000001" class="node">
<title>Node1</title>
<g id="a_Node000001"><a xlink:title=" ">
<polygon fill="#999999" stroke="#666666" points="558.5,-393 412.5,-393 412.5,-352 558.5,-352 558.5,-393"/>
<text text-anchor="start" x="420.5" y="-381" font-family="Helvetica,sans-Serif" font-size="10.00">/home/runner/work/no</text>
<text text-anchor="start" x="420.5" y="-370" font-family="Helvetica,sans-Serif" font-size="10.00">&#45;OS/no&#45;OS/drivers/gmsl</text>
<text text-anchor="middle" x="485.5" y="-359" font-family="Helvetica,sans-Serif" font-size="10.00">/common/gmsl_common.h</text>
</a>
</g>
</g>
<!-- Node2 -->
<g id="Node000002" class="node">
<title>Node2</title>
<g id="a_Node000002"><a xlink:href="gmsl__cam__des_8h.html" target="_top" xlink:title=" ">
<polygon fill="white" stroke="#666666" points="419,-310.5 272,-310.5 272,-269.5 419,-269.5 419,-310.5"/>
<text text-anchor="start" x="280" y="-298.5" font-family="Helvetica,sans-Serif" font-size="10.00">/home/runner/work/no</text>
<text text-anchor="start" x="280" y="-287.5" font-family="Helvetica,sans-Serif" font-size="10.00">&#45;OS/no&#45;OS/drivers/gmsl</text>
<text text-anchor="middle" x="345.5" y="-276.5" font-family="Helvetica,sans-Serif" font-size="10.00">/common/gmsl_cam_des.h</text>
</a>
</g>
</g>
<!-- Node1&#45;&gt;Node2 -->
<g id="edge1_Node000001_Node000002" class="edge">
<title>Node1&#45;&gt;Node2</title>
<g id="a_edge1_Node000001_Node000002"><a xlink:title=" ">
<path fill="none" stroke="#63b8ff" d="M442.58,-346.82C422.45,-335.25 398.8,-321.65 379.88,-310.77"/>
<polygon fill="#63b8ff" stroke="#63b8ff" points="440.84,-349.86 451.25,-351.81 444.33,-343.79 440.84,-349.86"/>
</a>
</g>
</g>
<!-- Node4 -->
<g id="Node000004" class="node">
<title>Node4</title>
<g id="a_Node000004"><a xlink:href="max96792_8h.html" target="_top" xlink:title=" ">
<polygon fill="white" stroke="#666666" points="454,-228 283,-228 283,-176 454,-176 454,-228"/>
<text text-anchor="start" x="291" y="-216" font-family="Helvetica,sans-Serif" font-size="10.00">/home/runner/work/no</text>
<text text-anchor="start" x="291" y="-205" font-family="Helvetica,sans-Serif" font-size="10.00">&#45;OS/no&#45;OS/drivers/gmsl</text>
<text text-anchor="start" x="291" y="-194" font-family="Helvetica,sans-Serif" font-size="10.00">/deserializer/camera/max96792</text>
<text text-anchor="middle" x="368.5" y="-183" font-family="Helvetica,sans-Serif" font-size="10.00">/max96792.h</text>
</a>
</g>
</g>
<!-- Node1&#45;&gt;Node4 -->
<g id="edge14_Node000001_Node000004" class="edge">
<title>Node1&#45;&gt;Node4</title>
<g id="a_edge14_Node000001_Node000004"><a xlink:title=" ">
<path fill="none" stroke="#63b8ff" d="M472.59,-342.61C461.96,-320.21 445.72,-288.9 427.5,-264 418.19,-251.28 406.36,-238.53 395.73,-228.01"/>
<polygon fill="#63b8ff" stroke="#63b8ff" points="469.53,-344.33 476.93,-351.92 475.88,-341.38 469.53,-344.33"/>
</a>
</g>
</g>
<!-- Node5 -->
<g id="Node000005" class="node">
<title>Node5</title>
<g id="a_Node000005"><a xlink:href="max96792__csi_8h.html" target="_top" xlink:title=" ">
<polygon fill="white" stroke="#666666" points="226,-140 55,-140 55,-88 226,-88 226,-140"/>
<text text-anchor="start" x="63" y="-128" font-family="Helvetica,sans-Serif" font-size="10.00">/home/runner/work/no</text>
<text text-anchor="start" x="63" y="-117" font-family="Helvetica,sans-Serif" font-size="10.00">&#45;OS/no&#45;OS/drivers/gmsl</text>
<text text-anchor="start" x="63" y="-106" font-family="Helvetica,sans-Serif" font-size="10.00">/deserializer/camera/max96792</text>
<text text-anchor="middle" x="140.5" y="-95" font-family="Helvetica,sans-Serif" font-size="10.00">/max96792_csi.h</text>
</a>
</g>
</g>
<!-- Node1&#45;&gt;Node5 -->
<g id="edge15_Node000001_Node000005" class="edge">
<title>Node1&#45;&gt;Node5</title>
<g id="a_edge15_Node000001_Node000005"><a xlink:title=" ">
<path fill="none" stroke="#63b8ff" d="M402.17,-363.2C358.07,-355.85 304.51,-342.01 262.5,-316 196.56,-275.17 161.3,-184.23 147.5,-140.05"/>
<polygon fill="#63b8ff" stroke="#63b8ff" points="401.86,-366.69 412.29,-364.8 402.96,-359.78 401.86,-366.69"/>
</a>
</g>
</g>
<!-- Node8 -->
<g id="Node000008" class="node">
<title>Node8</title>
<g id="a_Node000008"><a xlink:href="max96792__diag_8h.html" target="_top" xlink:title=" ">
<polygon fill="white" stroke="#666666" points="530,-140 359,-140 359,-88 530,-88 530,-140"/>
<text text-anchor="start" x="367" y="-128" font-family="Helvetica,sans-Serif" font-size="10.00">/home/runner/work/no</text>
<text text-anchor="start" x="367" y="-117" font-family="Helvetica,sans-Serif" font-size="10.00">&#45;OS/no&#45;OS/drivers/gmsl</text>
<text text-anchor="start" x="367" y="-106" font-family="Helvetica,sans-Serif" font-size="10.00">/deserializer/camera/max96792</text>
<text text-anchor="middle" x="444.5" y="-95" font-family="Helvetica,sans-Serif" font-size="10.00">/max96792_diag.h</text>
</a>
</g>
</g>
<!-- Node1&#45;&gt;Node8 -->
<g id="edge16_Node000001_Node000008" class="edge">
<title>Node1&#45;&gt;Node8</title>
<g id="a_edge16_Node000001_Node000008"><a xlink:title=" ">
<path fill="none" stroke="#63b8ff" d="M483.59,-341.89C480.75,-303.37 474.41,-234.15 462.5,-176 460.06,-164.1 456.4,-151.17 453.01,-140.28"/>
<polygon fill="#63b8ff" stroke="#63b8ff" points="480.1,-342.17 484.3,-351.9 487.08,-341.68 480.1,-342.17"/>
</a>
</g>
</g>
<!-- Node9 -->
<g id="Node000009" class="node">
<title>Node9</title>
<g id="a_Node000009"><a xlink:href="max96793_8h.html" target="_top" xlink:title=" ">
<polygon fill="white" stroke="#666666" points="676,-316 517,-316 517,-264 676,-264 676,-316"/>
<text text-anchor="start" x="525" y="-304" font-family="Helvetica,sans-Serif" font-size="10.00">/home/runner/work/no</text>
<text text-anchor="start" x="525" y="-293" font-family="Helvetica,sans-Serif" font-size="10.00">&#45;OS/no&#45;OS/drivers/gmsl</text>
<text text-anchor="start" x="525" y="-282" font-family="Helvetica,sans-Serif" font-size="10.00">/serializer/camera/max96793</text>
<text text-anchor="middle" x="596.5" y="-271" font-family="Helvetica,sans-Serif" font-size="10.00">/max96793.h</text>
</a>
</g>
</g>
<!-- Node1&#45;&gt;Node9 -->
<g id="edge17_Node000001_Node000009" class="edge">
<title>Node1&#45;&gt;Node9</title>
<g id="a_edge17_Node000001_Node000009"><a xlink:title=" ">
<path fill="none" stroke="#63b8ff" d="M520.93,-345.81C533.95,-336.36 548.68,-325.68 561.65,-316.28"/>
<polygon fill="#63b8ff" stroke="#63b8ff" points="518.69,-343.1 512.65,-351.81 522.8,-348.77 518.69,-343.1"/>
</a>
</g>
</g>
<!-- Node12 -->
<g id="Node000012" class="node">
<title>Node12</title>
<g id="a_Node000012"><a xlink:href="max96793__diag_8h.html" target="_top" xlink:title=" ">
<polygon fill="white" stroke="#666666" points="783,-228 624,-228 624,-176 783,-176 783,-228"/>
<text text-anchor="start" x="632" y="-216" font-family="Helvetica,sans-Serif" font-size="10.00">/home/runner/work/no</text>
<text text-anchor="start" x="632" y="-205" font-family="Helvetica,sans-Serif" font-size="10.00">&#45;OS/no&#45;OS/drivers/gmsl</text>
<text text-anchor="start" x="632" y="-194" font-family="Helvetica,sans-Serif" font-size="10.00">/serializer/camera/max96793</text>
<text text-anchor="middle" x="703.5" y="-183" font-family="Helvetica,sans-Serif" font-size="10.00">/max96793_diag.h</text>
</a>
</g>
</g>
<!-- Node1&#45;&gt;Node12 -->
<g id="edge26_Node000001_Node000012" class="edge">
<title>Node1&#45;&gt;Node12</title>
<g id="a_edge26_Node000001_Node000012"><a xlink:title=" ">
<path fill="none" stroke="#63b8ff" d="M568.45,-368.46C609.06,-362.54 655.36,-348.39 684.5,-316 705.92,-292.19 707.91,-253.64 706.44,-228.3"/>
<polygon fill="#63b8ff" stroke="#63b8ff" points="567.99,-364.99 558.54,-369.77 568.91,-371.93 567.99,-364.99"/>
</a>
</g>
</g>
<!-- Node13 -->
<g id="Node000013" class="node">
<title>Node13</title>
<g id="a_Node000013"><a xlink:href="max96793__csi_8h.html" target="_top" xlink:title=" ">
<polygon fill="white" stroke="#666666" points="928,-316 769,-316 769,-264 928,-264 928,-316"/>
<text text-anchor="start" x="777" y="-304" font-family="Helvetica,sans-Serif" font-size="10.00">/home/runner/work/no</text>
<text text-anchor="start" x="777" y="-293" font-family="Helvetica,sans-Serif" font-size="10.00">&#45;OS/no&#45;OS/drivers/gmsl</text>
<text text-anchor="start" x="777" y="-282" font-family="Helvetica,sans-Serif" font-size="10.00">/serializer/camera/max96793</text>
<text text-anchor="middle" x="848.5" y="-271" font-family="Helvetica,sans-Serif" font-size="10.00">/max96793_csi.h</text>
</a>
</g>
</g>
<!-- Node1&#45;&gt;Node13 -->
<g id="edge23_Node000001_Node000013" class="edge">
<title>Node1&#45;&gt;Node13</title>
<g id="a_edge23_Node000001_Node000013"><a xlink:title=" ">
<path fill="none" stroke="#63b8ff" d="M568.38,-353.12C628.58,-339.77 709.57,-321.81 768.98,-308.63"/>
<polygon fill="#63b8ff" stroke="#63b8ff" points="567.53,-349.72 558.52,-355.31 569.04,-356.56 567.53,-349.72"/>
</a>
</g>
</g>
<!-- Node3 -->
<g id="Node000003" class="node">
<title>Node3</title>
<g id="a_Node000003"><a xlink:href="max96792_8c.html" target="_top" xlink:title=" ">
<polygon fill="white" stroke="#666666" points="360,-52 189,-52 189,0 360,0 360,-52"/>
<text text-anchor="start" x="197" y="-40" font-family="Helvetica,sans-Serif" font-size="10.00">/home/runner/work/no</text>
<text text-anchor="start" x="197" y="-29" font-family="Helvetica,sans-Serif" font-size="10.00">&#45;OS/no&#45;OS/drivers/gmsl</text>
<text text-anchor="start" x="197" y="-18" font-family="Helvetica,sans-Serif" font-size="10.00">/deserializer/camera/max96792</text>
<text text-anchor="middle" x="274.5" y="-7" font-family="Helvetica,sans-Serif" font-size="10.00">/max96792.c</text>
</a>
</g>
</g>
<!-- Node2&#45;&gt;Node3 -->
<g id="edge2_Node000002_Node000003" class="edge">
<title>Node2&#45;&gt;Node3</title>
<g id="a_edge2_Node000002_Node000003"><a xlink:title=" ">
<path fill="none" stroke="#63b8ff" d="M303.06,-263.25C291.27,-253.77 279.94,-241.89 273.5,-228 246.58,-169.9 258.76,-91.82 267.83,-52.25"/>
<polygon fill="#63b8ff" stroke="#63b8ff" points="301.15,-266.2 311.24,-269.43 305.37,-260.61 301.15,-266.2"/>
</a>
</g>
</g>
<!-- Node2&#45;&gt;Node4 -->
<g id="edge3_Node000002_Node000004" class="edge">
<title>Node2&#45;&gt;Node4</title>
<g id="a_edge3_Node000002_Node000004"><a xlink:title=" ">
<path fill="none" stroke="#63b8ff" d="M353.32,-259.76C356.05,-249.55 359.09,-238.18 361.73,-228.32"/>
<polygon fill="#63b8ff" stroke="#63b8ff" points="349.92,-258.92 350.72,-269.49 356.68,-260.73 349.92,-258.92"/>
</a>
</g>
</g>
<!-- Node2&#45;&gt;Node5 -->
<g id="edge12_Node000002_Node000005" class="edge">
<title>Node2&#45;&gt;Node5</title>
<g id="a_edge12_Node000002_Node000005"><a xlink:title=" ">
<path fill="none" stroke="#63b8ff" d="M296.34,-264.71C277.96,-254.56 257.46,-241.89 240.5,-228 208.28,-201.6 177.51,-164.41 158.81,-140.01"/>
<polygon fill="#63b8ff" stroke="#63b8ff" points="294.7,-267.81 305.16,-269.49 298.03,-261.65 294.7,-267.81"/>
</a>
</g>
</g>
<!-- Node7 -->
<g id="Node000007" class="node">
<title>Node7</title>
<g id="a_Node000007"><a xlink:href="max96792__diag_8c.html" target="_top" xlink:title=" ">
<polygon fill="white" stroke="#666666" points="549,-52 378,-52 378,0 549,0 549,-52"/>
<text text-anchor="start" x="386" y="-40" font-family="Helvetica,sans-Serif" font-size="10.00">/home/runner/work/no</text>
<text text-anchor="start" x="386" y="-29" font-family="Helvetica,sans-Serif" font-size="10.00">&#45;OS/no&#45;OS/drivers/gmsl</text>
<text text-anchor="start" x="386" y="-18" font-family="Helvetica,sans-Serif" font-size="10.00">/deserializer/camera/max96792</text>
<text text-anchor="middle" x="463.5" y="-7" font-family="Helvetica,sans-Serif" font-size="10.00">/max96792_diag.c</text>
</a>
</g>
</g>
<!-- Node2&#45;&gt;Node7 -->
<g id="edge13_Node000002_Node000007" class="edge">
<title>Node2&#45;&gt;Node7</title>
<g id="a_edge13_Node000002_Node000007"><a xlink:title=" ">
<path fill="none" stroke="#63b8ff" d="M403.89,-265.15C452.07,-241.63 516.04,-200.38 538.5,-140 546.56,-118.34 548.43,-108.87 538.5,-88 531.72,-73.75 519.81,-61.74 507.45,-52.25"/>
<polygon fill="#63b8ff" stroke="#63b8ff" points="402.31,-262.03 394.78,-269.48 405.32,-268.35 402.31,-262.03"/>
</a>
</g>
</g>
<!-- Node4&#45;&gt;Node3 -->
<g id="edge4_Node000004_Node000003" class="edge">
<title>Node4&#45;&gt;Node3</title>
<g id="a_edge4_Node000004_Node000003"><a xlink:title=" ">
<path fill="none" stroke="#63b8ff" d="M336.87,-168.13C329.54,-159.43 322.22,-149.74 316.5,-140 299.97,-111.84 287.99,-76.04 281.15,-52.37"/>
<polygon fill="#63b8ff" stroke="#63b8ff" points="334.35,-170.57 343.56,-175.82 339.63,-165.98 334.35,-170.57"/>
</a>
</g>
</g>
<!-- Node4&#45;&gt;Node5 -->
<g id="edge5_Node000004_Node000005" class="edge">
<title>Node4&#45;&gt;Node5</title>
<g id="a_edge5_Node000004_Node000005"><a xlink:title=" ">
<path fill="none" stroke="#63b8ff" d="M292.34,-172.27C264.75,-161.87 233.84,-150.21 207.14,-140.14"/>
<polygon fill="#63b8ff" stroke="#63b8ff" points="291.35,-175.64 301.94,-175.89 293.82,-169.09 291.35,-175.64"/>
</a>
</g>
</g>
<!-- Node4&#45;&gt;Node7 -->
<g id="edge8_Node000004_Node000007" class="edge">
<title>Node4&#45;&gt;Node7</title>
<g id="a_edge8_Node000004_Node000007"><a xlink:title=" ">
<path fill="none" stroke="#63b8ff" d="M351.29,-166.56C342.1,-142.94 335.3,-111.7 349.5,-88 358.73,-72.6 373.32,-60.86 389.03,-52.01"/>
<polygon fill="#63b8ff" stroke="#63b8ff" points="348.09,-167.98 355.18,-175.85 354.55,-165.28 348.09,-167.98"/>
</a>
</g>
</g>
<!-- Node4&#45;&gt;Node8 -->
<g id="edge9_Node000004_Node000008" class="edge">
<title>Node4&#45;&gt;Node8</title>
<g id="a_edge9_Node000004_Node000008"><a xlink:title=" ">
<path fill="none" stroke="#63b8ff" d="M397.59,-168.08C405.78,-158.81 414.55,-148.89 422.27,-140.16"/>
<polygon fill="#63b8ff" stroke="#63b8ff" points="394.89,-165.85 390.89,-175.66 400.14,-170.49 394.89,-165.85"/>
</a>
</g>
</g>
<!-- Node5&#45;&gt;Node3 -->
<g id="edge6_Node000005_Node000003" class="edge">
<title>Node5&#45;&gt;Node3</title>
<g id="a_edge6_Node000005_Node000003"><a xlink:title=" ">
<path fill="none" stroke="#63b8ff" d="M188.43,-82.24C203.73,-72.42 220.48,-61.67 235.1,-52.29"/>
<polygon fill="#63b8ff" stroke="#63b8ff" points="186.14,-79.55 179.62,-87.89 189.92,-85.44 186.14,-79.55"/>
</a>
</g>
</g>
<!-- Node6 -->
<g id="Node000006" class="node">
<title>Node6</title>
<g id="a_Node000006"><a xlink:href="max96792__csi_8c.html" target="_top" xlink:title=" ">
<polygon fill="white" stroke="#666666" points="171,-52 0,-52 0,0 171,0 171,-52"/>
<text text-anchor="start" x="8" y="-40" font-family="Helvetica,sans-Serif" font-size="10.00">/home/runner/work/no</text>
<text text-anchor="start" x="8" y="-29" font-family="Helvetica,sans-Serif" font-size="10.00">&#45;OS/no&#45;OS/drivers/gmsl</text>
<text text-anchor="start" x="8" y="-18" font-family="Helvetica,sans-Serif" font-size="10.00">/deserializer/camera/max96792</text>
<text text-anchor="middle" x="85.5" y="-7" font-family="Helvetica,sans-Serif" font-size="10.00">/max96792_csi.c</text>
</a>
</g>
</g>
<!-- Node5&#45;&gt;Node6 -->
<g id="edge7_Node000005_Node000006" class="edge">
<title>Node5&#45;&gt;Node6</title>
<g id="a_edge7_Node000005_Node000006"><a xlink:title=" ">
<path fill="none" stroke="#63b8ff" d="M118.73,-78.96C113.01,-70.02 106.95,-60.54 101.59,-52.16"/>
<polygon fill="#63b8ff" stroke="#63b8ff" points="115.96,-81.12 124.3,-87.66 121.86,-77.35 115.96,-81.12"/>
</a>
</g>
</g>
<!-- Node8&#45;&gt;Node3 -->
<g id="edge10_Node000008_Node000003" class="edge">
<title>Node8&#45;&gt;Node3</title>
<g id="a_edge10_Node000008_Node000003"><a xlink:title=" ">
<path fill="none" stroke="#63b8ff" d="M385.82,-83.31C365.74,-73.16 343.49,-61.9 324.19,-52.14"/>
<polygon fill="#63b8ff" stroke="#63b8ff" points="384.37,-86.5 394.87,-87.89 387.53,-80.26 384.37,-86.5"/>
</a>
</g>
</g>
<!-- Node8&#45;&gt;Node7 -->
<g id="edge11_Node000008_Node000007" class="edge">
<title>Node8&#45;&gt;Node7</title>
<g id="a_edge11_Node000008_Node000007"><a xlink:title=" ">
<path fill="none" stroke="#63b8ff" d="M452.27,-77.84C454.17,-69.23 456.17,-60.19 457.94,-52.16"/>
<polygon fill="#63b8ff" stroke="#63b8ff" points="448.84,-77.14 450.1,-87.66 455.67,-78.65 448.84,-77.14"/>
</a>
</g>
</g>
<!-- Node10 -->
<g id="Node000010" class="node">
<title>Node10</title>
<g id="a_Node000010"><a xlink:href="max96793_8c.html" target="_top" xlink:title=" ">
<polygon fill="white" stroke="#666666" points="922,-140 763,-140 763,-88 922,-88 922,-140"/>
<text text-anchor="start" x="771" y="-128" font-family="Helvetica,sans-Serif" font-size="10.00">/home/runner/work/no</text>
<text text-anchor="start" x="771" y="-117" font-family="Helvetica,sans-Serif" font-size="10.00">&#45;OS/no&#45;OS/drivers/gmsl</text>
<text text-anchor="start" x="771" y="-106" font-family="Helvetica,sans-Serif" font-size="10.00">/serializer/camera/max96793</text>
<text text-anchor="middle" x="842.5" y="-95" font-family="Helvetica,sans-Serif" font-size="10.00">/max96793.c</text>
</a>
</g>
</g>
<!-- Node9&#45;&gt;Node10 -->
<g id="edge18_Node000009_Node000010" class="edge">
<title>Node9&#45;&gt;Node10</title>
<g id="a_edge18_Node000009_Node000010"><a xlink:title=" ">
<path fill="none" stroke="#63b8ff" d="M686.24,-277.28C722.41,-268.69 762.38,-253.8 791.5,-228 817.6,-204.88 831.09,-165.77 837.48,-140.17"/>
<polygon fill="#63b8ff" stroke="#63b8ff" points="685.15,-273.94 676.15,-279.54 686.68,-280.77 685.15,-273.94"/>
</a>
</g>
</g>
<!-- Node11 -->
<g id="Node000011" class="node">
<title>Node11</title>
<g id="a_Node000011"><a xlink:href="max96793__diag_8c.html" target="_top" xlink:title=" ">
<polygon fill="white" stroke="#666666" points="745,-140 586,-140 586,-88 745,-88 745,-140"/>
<text text-anchor="start" x="594" y="-128" font-family="Helvetica,sans-Serif" font-size="10.00">/home/runner/work/no</text>
<text text-anchor="start" x="594" y="-117" font-family="Helvetica,sans-Serif" font-size="10.00">&#45;OS/no&#45;OS/drivers/gmsl</text>
<text text-anchor="start" x="594" y="-106" font-family="Helvetica,sans-Serif" font-size="10.00">/serializer/camera/max96793</text>
<text text-anchor="middle" x="665.5" y="-95" font-family="Helvetica,sans-Serif" font-size="10.00">/max96793_diag.c</text>
</a>
</g>
</g>
<!-- Node9&#45;&gt;Node11 -->
<g id="edge19_Node000009_Node000011" class="edge">
<title>Node9&#45;&gt;Node11</title>
<g id="a_edge19_Node000009_Node000011"><a xlink:title=" ">
<path fill="none" stroke="#63b8ff" d="M597.31,-253.63C598.97,-230.62 603.37,-200.46 614.5,-176 620.45,-162.93 629.98,-150.42 639.2,-140.16"/>
<polygon fill="#63b8ff" stroke="#63b8ff" points="593.81,-253.47 596.72,-263.65 600.8,-253.88 593.81,-253.47"/>
</a>
</g>
</g>
<!-- Node9&#45;&gt;Node12 -->
<g id="edge20_Node000009_Node000012" class="edge">
<title>Node9&#45;&gt;Node12</title>
<g id="a_edge20_Node000009_Node000012"><a xlink:title=" ">
<path fill="none" stroke="#63b8ff" d="M635.8,-257.41C647.74,-247.82 660.69,-237.41 672.04,-228.29"/>
<polygon fill="#63b8ff" stroke="#63b8ff" points="633.34,-254.9 627.74,-263.89 637.72,-260.36 633.34,-254.9"/>
</a>
</g>
</g>
<!-- Node12&#45;&gt;Node10 -->
<g id="edge21_Node000012_Node000010" class="edge">
<title>Node12&#45;&gt;Node10</title>
<g id="a_edge21_Node000012_Node000010"><a xlink:title=" ">
<path fill="none" stroke="#63b8ff" d="M752.78,-170.51C768.77,-160.62 786.32,-149.76 801.63,-140.29"/>
<polygon fill="#63b8ff" stroke="#63b8ff" points="750.74,-167.66 744.08,-175.89 754.42,-173.61 750.74,-167.66"/>
</a>
</g>
</g>
<!-- Node12&#45;&gt;Node11 -->
<g id="edge22_Node000012_Node000011" class="edge">
<title>Node12&#45;&gt;Node11</title>
<g id="a_edge22_Node000012_Node000011"><a xlink:title=" ">
<path fill="none" stroke="#63b8ff" d="M688.21,-166.4C684.33,-157.63 680.24,-148.36 676.62,-140.16"/>
<polygon fill="#63b8ff" stroke="#63b8ff" points="685.06,-167.93 692.3,-175.66 691.46,-165.1 685.06,-167.93"/>
</a>
</g>
</g>
<!-- Node13&#45;&gt;Node10 -->
<g id="edge24_Node000013_Node000010" class="edge">
<title>Node13&#45;&gt;Node10</title>
<g id="a_edge24_Node000013_Node000010"><a xlink:title=" ">
<path fill="none" stroke="#63b8ff" d="M847.27,-253.35C846.11,-219.6 844.39,-169.79 843.36,-140.05"/>
<polygon fill="#63b8ff" stroke="#63b8ff" points="843.78,-253.83 847.63,-263.7 850.78,-253.58 843.78,-253.83"/>
</a>
</g>
</g>
<!-- Node14 -->
<g id="Node000014" class="node">
<title>Node14</title>
<g id="a_Node000014"><a xlink:href="max96793__csi_8c.html" target="_top" xlink:title=" ">
<polygon fill="white" stroke="#666666" points="1035,-228 876,-228 876,-176 1035,-176 1035,-228"/>
<text text-anchor="start" x="884" y="-216" font-family="Helvetica,sans-Serif" font-size="10.00">/home/runner/work/no</text>
<text text-anchor="start" x="884" y="-205" font-family="Helvetica,sans-Serif" font-size="10.00">&#45;OS/no&#45;OS/drivers/gmsl</text>
<text text-anchor="start" x="884" y="-194" font-family="Helvetica,sans-Serif" font-size="10.00">/serializer/camera/max96793</text>
<text text-anchor="middle" x="955.5" y="-183" font-family="Helvetica,sans-Serif" font-size="10.00">/max96793_csi.c</text>
</a>
</g>
</g>
<!-- Node13&#45;&gt;Node14 -->
<g id="edge25_Node000013_Node000014" class="edge">
<title>Node13&#45;&gt;Node14</title>
<g id="a_edge25_Node000013_Node000014"><a xlink:title=" ">
<path fill="none" stroke="#63b8ff" d="M887.8,-257.41C899.74,-247.82 912.69,-237.41 924.04,-228.29"/>
<polygon fill="#63b8ff" stroke="#63b8ff" points="885.34,-254.9 879.74,-263.89 889.72,-260.36 885.34,-254.9"/>
</a>
</g>
</g>
</g>
</svg>

<g id="navigator" transform="translate(0 0)" fill="#404254">
  <rect fill="#f2f5e9" fill-opacity="0.5" stroke="#606060" stroke-width=".5" x="0" y="0" width="60" height="60"/>
  <use id="zoomplus" xlink:href="#zoomPlus" x="17" y="9" onmousedown="handleZoom(evt,'in')"/>
  <use id="zoomminus" xlink:href="#zoomMin" x="42" y="9" onmousedown="handleZoom(evt,'out')"/>
  <use id="reset" xlink:href="#resetDef" x="30" y="36" onmousedown="handleReset()"/>
   <use id="arrowup" xlink:href="#arrowUp" x="0" y="0" onmousedown="handlePan(0,-1)"/>
  <use id="arrowright" xlink:href="#arrowRight" x="0" y="0" onmousedown="handlePan(1,0)"/>
  <use id="arrowdown" xlink:href="#arrowDown" x="0" y="0" onmousedown="handlePan(0,1)"/>
  <use id="arrowleft" xlink:href="#arrowLeft" x="0" y="0" onmousedown="handlePan(-1,0)"/>
</g>
<svg viewBox="0 0 15 15" width="100%" height="30px" preserveAspectRatio="xMaxYMin meet">
 <g id="arrow_out" transform="scale(0.3 0.3)">
  <a xlink:href="gmsl__common_8h__dep__incl_org.svg" target="_base">
   <rect id="button" ry="5" rx="5" y="6" x="6" height="38" width="38"
        fill="#f2f5e9" fill-opacity="0.5" stroke="#606060" stroke-width="1.0"/>
   <path id="arrow"
     d="M 11.500037,31.436501 C 11.940474,20.09759 22.043105,11.32322 32.158766,21.979434 L 37.068811,17.246167 C 37.068811,17.246167 37.088388,32 37.088388,32 L 22.160133,31.978069 C 22.160133,31.978069 26.997745,27.140456 26.997745,27.140456 C 18.528582,18.264221 13.291696,25.230495 11.500037,31.436501 z"
     style="fill:#404040;"/>
  </a>
 </g>
</svg>

<style type='text/css'>
<![CDATA[
[data-mouse-over-selected='false'] { opacity: 0.7; }
[data-mouse-over-selected='true']  { opacity: 1.0; }
]]>
</style>
<script type="application/ecmascript"><![CDATA[
document.addEventListener('DOMContentLoaded', (event) => {
  highlightEdges();
  highlightAdjacentNodes();
});
]]></script>
</svg>
