<?xml version="1.0" encoding="UTF-8" standalone="no"?>
<!DOCTYPE svg PUBLIC "-//W3C//DTD SVG 1.1//EN"
 "http://www.w3.org/Graphics/SVG/1.1/DTD/svg11.dtd">
<!-- Generated by graphviz version 2.43.0 (0)
 -->
<!-- Title: /home/runner/work/no&#45;OS/no&#45;OS/drivers/gmsl/common/gmsl_cam_des.h Pages: 1 -->
<svg width="596pt" height="313pt"
 viewBox="0.00 0.00 596.00 313.00" xmlns="http://www.w3.org/2000/svg" xmlns:xlink="http://www.w3.org/1999/xlink">
<g id="graph0" class="graph" transform="scale(1 1) rotate(0) translate(4 309)">
<title>/home/runner/work/no&#45;OS/no&#45;OS/drivers/gmsl/common/gmsl_cam_des.h</title>
<!-- Node1 -->
<g id="Node000001" class="node">
<title>Node1</title>
<g id="a_Node000001"><a xlink:title=" ">
<polygon fill="#999999" stroke="#666666" points="367,-305 220,-305 220,-264 367,-264 367,-305"/>
<text text-anchor="start" x="228" y="-293" font-family="Helvetica,sans-Serif" font-size="10.00">/home/runner/work/no</text>
<text text-anchor="start" x="228" y="-282" font-family="Helvetica,sans-Serif" font-size="10.00">&#45;OS/no&#45;OS/drivers/gmsl</text>
<text text-anchor="middle" x="293.5" y="-271" font-family="Helvetica,sans-Serif" font-size="10.00">/common/gmsl_cam_des.h</text>
</a>
</g>
</g>
<!-- Node2 -->
<g id="Node000002" class="node">
<title>Node2</title>
<g id="a_Node000002"><a xlink:href="max96792_8c.html" target="_top" xlink:title=" ">
<polygon fill="white" stroke="#666666" points="360,-52 189,-52 189,0 360,0 360,-52"/>
<text text-anchor="start" x="197" y="-40" font-family="Helvetica,sans-Serif" font-size="10.00">/home/runner/work/no</text>
<text text-anchor="start" x="197" y="-29" font-family="Helvetica,sans-Serif" font-size="10.00">&#45;OS/no&#45;OS/drivers/gmsl</text>
<text text-anchor="start" x="197" y="-18" font-family="Helvetica,sans-Serif" font-size="10.00">/deserializer/camera/max96792</text>
<text text-anchor="middle" x="274.5" y="-7" font-family="Helvetica,sans-Serif" font-size="10.00">/max96792.c</text>
</a>
</g>
</g>
<!-- Node1&#45;&gt;Node2 -->
<g id="edge1_Node000001_Node000002" class="edge">
<title>Node1&#45;&gt;Node2</title>
<g id="a_edge1_Node000001_Node000002"><a xlink:title=" ">
<path fill="none" stroke="#63b8ff" d="M269.73,-255.73C263.93,-247.35 258.52,-237.77 255.5,-228 236.58,-166.89 254.29,-90.76 266.02,-52.08"/>
<polygon fill="#63b8ff" stroke="#63b8ff" points="267.07,-258.02 275.83,-263.98 272.7,-253.86 267.07,-258.02"/>
</a>
</g>
</g>
<!-- Node3 -->
<g id="Node000003" class="node">
<title>Node3</title>
<g id="a_Node000003"><a xlink:href="max96792_8h.html" target="_top" xlink:title=" ">
<polygon fill="white" stroke="#666666" points="436,-228 265,-228 265,-176 436,-176 436,-228"/>
<text text-anchor="start" x="273" y="-216" font-family="Helvetica,sans-Serif" font-size="10.00">/home/runner/work/no</text>
<text text-anchor="start" x="273" y="-205" font-family="Helvetica,sans-Serif" font-size="10.00">&#45;OS/no&#45;OS/drivers/gmsl</text>
<text text-anchor="start" x="273" y="-194" font-family="Helvetica,sans-Serif" font-size="10.00">/deserializer/camera/max96792</text>
<text text-anchor="middle" x="350.5" y="-183" font-family="Helvetica,sans-Serif" font-size="10.00">/max96792.h</text>
</a>
</g>
</g>
<!-- Node1&#45;&gt;Node3 -->
<g id="edge2_Node000001_Node000003" class="edge">
<title>Node1&#45;&gt;Node3</title>
<g id="a_edge2_Node000001_Node000003"><a xlink:title=" ">
<path fill="none" stroke="#63b8ff" d="M313.38,-255.43C319.66,-246.55 326.56,-236.81 332.69,-228.16"/>
<polygon fill="#63b8ff" stroke="#63b8ff" points="310.51,-253.42 307.59,-263.6 316.23,-257.46 310.51,-253.42"/>
</a>
</g>
</g>
<!-- Node4 -->
<g id="Node000004" class="node">
<title>Node4</title>
<g id="a_Node000004"><a xlink:href="max96792__csi_8h.html" target="_top" xlink:title=" ">
<polygon fill="white" stroke="#666666" points="208,-140 37,-140 37,-88 208,-88 208,-140"/>
<text text-anchor="start" x="45" y="-128" font-family="Helvetica,sans-Serif" font-size="10.00">/home/runner/work/no</text>
<text text-anchor="start" x="45" y="-117" font-family="Helvetica,sans-Serif" font-size="10.00">&#45;OS/no&#45;OS/drivers/gmsl</text>
<text text-anchor="start" x="45" y="-106" font-family="Helvetica,sans-Serif" font-size="10.00">/deserializer/camera/max96792</text>
<text text-anchor="middle" x="122.5" y="-95" font-family="Helvetica,sans-Serif" font-size="10.00">/max96792_csi.h</text>
</a>
</g>
</g>
<!-- Node1&#45;&gt;Node4 -->
<g id="edge11_Node000001_Node000004" class="edge">
<title>Node1&#45;&gt;Node4</title>
<g id="a_edge11_Node000001_Node000004"><a xlink:title=" ">
<path fill="none" stroke="#63b8ff" d="M257.7,-257.55C246.09,-248.62 233.41,-238.27 222.5,-228 192.74,-200 162.11,-164.16 142.73,-140.44"/>
<polygon fill="#63b8ff" stroke="#63b8ff" points="255.83,-260.53 265.91,-263.79 260.06,-254.96 255.83,-260.53"/>
</a>
</g>
</g>
<!-- Node6 -->
<g id="Node000006" class="node">
<title>Node6</title>
<g id="a_Node000006"><a xlink:href="max96792__diag_8c.html" target="_top" xlink:title=" ">
<polygon fill="white" stroke="#666666" points="588,-52 417,-52 417,0 588,0 588,-52"/>
<text text-anchor="start" x="425" y="-40" font-family="Helvetica,sans-Serif" font-size="10.00">/home/runner/work/no</text>
<text text-anchor="start" x="425" y="-29" font-family="Helvetica,sans-Serif" font-size="10.00">&#45;OS/no&#45;OS/drivers/gmsl</text>
<text text-anchor="start" x="425" y="-18" font-family="Helvetica,sans-Serif" font-size="10.00">/deserializer/camera/max96792</text>
<text text-anchor="middle" x="502.5" y="-7" font-family="Helvetica,sans-Serif" font-size="10.00">/max96792_diag.c</text>
</a>
</g>
</g>
<!-- Node1&#45;&gt;Node6 -->
<g id="edge12_Node000001_Node000006" class="edge">
<title>Node1&#45;&gt;Node6</title>
<g id="a_edge12_Node000001_Node000006"><a xlink:title=" ">
<path fill="none" stroke="#63b8ff" d="M377.03,-263.27C400.71,-254.92 425.47,-243.46 445.5,-228 483.17,-198.92 492.3,-185.42 506.5,-140 515.58,-110.96 512.2,-75.66 508.12,-52.33"/>
<polygon fill="#63b8ff" stroke="#63b8ff" points="375.68,-260.03 367.32,-266.55 377.92,-266.66 375.68,-260.03"/>
</a>
</g>
</g>
<!-- Node3&#45;&gt;Node2 -->
<g id="edge3_Node000003_Node000002" class="edge">
<title>Node3&#45;&gt;Node2</title>
<g id="a_edge3_Node000003_Node000002"><a xlink:title=" ">
<path fill="none" stroke="#63b8ff" d="M313.44,-168.27C305.78,-159.78 298.52,-150.15 293.5,-140 279.66,-112 275.65,-75.84 274.62,-52.07"/>
<polygon fill="#63b8ff" stroke="#63b8ff" points="311.12,-170.9 320.55,-175.72 316.18,-166.07 311.12,-170.9"/>
</a>
</g>
</g>
<!-- Node3&#45;&gt;Node4 -->
<g id="edge4_Node000003_Node000004" class="edge">
<title>Node3&#45;&gt;Node4</title>
<g id="a_edge4_Node000003_Node000004"><a xlink:title=" ">
<path fill="none" stroke="#63b8ff" d="M274.34,-172.27C246.75,-161.87 215.84,-150.21 189.14,-140.14"/>
<polygon fill="#63b8ff" stroke="#63b8ff" points="273.35,-175.64 283.94,-175.89 275.82,-169.09 273.35,-175.64"/>
</a>
</g>
</g>
<!-- Node3&#45;&gt;Node6 -->
<g id="edge7_Node000003_Node000006" class="edge">
<title>Node3&#45;&gt;Node6</title>
<g id="a_edge7_Node000003_Node000006"><a xlink:title=" ">
<path fill="none" stroke="#63b8ff" d="M445.36,-171.69C459.94,-163.49 473.46,-153.11 483.5,-140 502.86,-114.73 505.44,-76.91 504.65,-52.09"/>
<polygon fill="#63b8ff" stroke="#63b8ff" points="443.39,-168.77 436.16,-176.52 446.64,-174.97 443.39,-168.77"/>
</a>
</g>
</g>
<!-- Node7 -->
<g id="Node000007" class="node">
<title>Node7</title>
<g id="a_Node000007"><a xlink:href="max96792__diag_8h.html" target="_top" xlink:title=" ">
<polygon fill="white" stroke="#666666" points="474,-140 303,-140 303,-88 474,-88 474,-140"/>
<text text-anchor="start" x="311" y="-128" font-family="Helvetica,sans-Serif" font-size="10.00">/home/runner/work/no</text>
<text text-anchor="start" x="311" y="-117" font-family="Helvetica,sans-Serif" font-size="10.00">&#45;OS/no&#45;OS/drivers/gmsl</text>
<text text-anchor="start" x="311" y="-106" font-family="Helvetica,sans-Serif" font-size="10.00">/deserializer/camera/max96792</text>
<text text-anchor="middle" x="388.5" y="-95" font-family="Helvetica,sans-Serif" font-size="10.00">/max96792_diag.h</text>
</a>
</g>
</g>
<!-- Node3&#45;&gt;Node7 -->
<g id="edge8_Node000003_Node000007" class="edge">
<title>Node3&#45;&gt;Node7</title>
<g id="a_edge8_Node000003_Node000007"><a xlink:title=" ">
<path fill="none" stroke="#63b8ff" d="M365.79,-166.4C369.67,-157.63 373.76,-148.36 377.38,-140.16"/>
<polygon fill="#63b8ff" stroke="#63b8ff" points="362.54,-165.1 361.7,-175.66 368.94,-167.93 362.54,-165.1"/>
</a>
</g>
</g>
<!-- Node4&#45;&gt;Node2 -->
<g id="edge5_Node000004_Node000002" class="edge">
<title>Node4&#45;&gt;Node2</title>
<g id="a_edge5_Node000004_Node000002"><a xlink:title=" ">
<path fill="none" stroke="#63b8ff" d="M175.94,-82.76C193.64,-72.75 213.13,-61.72 230.07,-52.14"/>
<polygon fill="#63b8ff" stroke="#63b8ff" points="173.85,-79.92 166.87,-87.89 177.3,-86.02 173.85,-79.92"/>
</a>
</g>
</g>
<!-- Node5 -->
<g id="Node000005" class="node">
<title>Node5</title>
<g id="a_Node000005"><a xlink:href="max96792__csi_8c.html" target="_top" xlink:title=" ">
<polygon fill="white" stroke="#666666" points="171,-52 0,-52 0,0 171,0 171,-52"/>
<text text-anchor="start" x="8" y="-40" font-family="Helvetica,sans-Serif" font-size="10.00">/home/runner/work/no</text>
<text text-anchor="start" x="8" y="-29" font-family="Helvetica,sans-Serif" font-size="10.00">&#45;OS/no&#45;OS/drivers/gmsl</text>
<text text-anchor="start" x="8" y="-18" font-family="Helvetica,sans-Serif" font-size="10.00">/deserializer/camera/max96792</text>
<text text-anchor="middle" x="85.5" y="-7" font-family="Helvetica,sans-Serif" font-size="10.00">/max96792_csi.c</text>
</a>
</g>
</g>
<!-- Node4&#45;&gt;Node5 -->
<g id="edge6_Node000004_Node000005" class="edge">
<title>Node4&#45;&gt;Node5</title>
<g id="a_edge6_Node000004_Node000005"><a xlink:title=" ">
<path fill="none" stroke="#63b8ff" d="M107.62,-78.4C103.84,-69.63 99.85,-60.36 96.32,-52.16"/>
<polygon fill="#63b8ff" stroke="#63b8ff" points="104.43,-79.86 111.6,-87.66 110.86,-77.09 104.43,-79.86"/>
</a>
</g>
</g>
<!-- Node7&#45;&gt;Node2 -->
<g id="edge9_Node000007_Node000002" class="edge">
<title>Node7&#45;&gt;Node2</title>
<g id="a_edge9_Node000007_Node000002"><a xlink:title=" ">
<path fill="none" stroke="#63b8ff" d="M346.99,-81.69C334.17,-72.02 320.23,-61.49 308.02,-52.29"/>
<polygon fill="#63b8ff" stroke="#63b8ff" points="345.13,-84.67 355.22,-87.89 349.34,-79.08 345.13,-84.67"/>
</a>
</g>
</g>
<!-- Node7&#45;&gt;Node6 -->
<g id="edge10_Node000007_Node000006" class="edge">
<title>Node7&#45;&gt;Node6</title>
<g id="a_edge10_Node000007_Node000006"><a xlink:title=" ">
<path fill="none" stroke="#63b8ff" d="M430.01,-81.69C442.83,-72.02 456.77,-61.49 468.98,-52.29"/>
<polygon fill="#63b8ff" stroke="#63b8ff" points="427.66,-79.08 421.78,-87.89 431.87,-84.67 427.66,-79.08"/>
</a>
</g>
</g>
</g>
</svg>
