<?xml version="1.0" encoding="UTF-8" standalone="no"?>
<!DOCTYPE svg PUBLIC "-//W3C//DTD SVG 1.1//EN"
 "http://www.w3.org/Graphics/SVG/1.1/DTD/svg11.dtd">
<!-- Generated by graphviz version 2.43.0 (0)
 -->
<!-- Title: /home/runner/work/no&#45;OS/no&#45;OS/drivers/gmsl/common/gmsl_cam_des.h Pages: 1 -->
<svg width="292pt" height="269pt"
 viewBox="0.00 0.00 291.57 269.00" xmlns="http://www.w3.org/2000/svg" xmlns:xlink="http://www.w3.org/1999/xlink">
<g id="graph0" class="graph" transform="scale(1 1) rotate(0) translate(4 265)">
<title>/home/runner/work/no&#45;OS/no&#45;OS/drivers/gmsl/common/gmsl_cam_des.h</title>
<!-- Node1 -->
<g id="Node000001" class="node">
<title>Node1</title>
<g id="a_Node000001"><a xlink:title=" ">
<polygon fill="#999999" stroke="#666666" points="147,-261 0,-261 0,-220 147,-220 147,-261"/>
<text text-anchor="start" x="8" y="-249" font-family="Helvetica,sans-Serif" font-size="10.00">/home/runner/work/no</text>
<text text-anchor="start" x="8" y="-238" font-family="Helvetica,sans-Serif" font-size="10.00">&#45;OS/no&#45;OS/drivers/gmsl</text>
<text text-anchor="middle" x="73.5" y="-227" font-family="Helvetica,sans-Serif" font-size="10.00">/common/gmsl_cam_des.h</text>
</a>
</g>
</g>
<!-- Node2 -->
<g id="Node000002" class="node">
<title>Node2</title>
<g id="a_Node000002"><a xlink:title=" ">
<polygon fill="#e0e0e0" stroke="#999999" points="211,-19 158,-19 158,0 211,0 211,-19"/>
<text text-anchor="middle" x="184.5" y="-7" font-family="Helvetica,sans-Serif" font-size="10.00">stdint.h</text>
</a>
</g>
</g>
<!-- Node1&#45;&gt;Node2 -->
<g id="edge1_Node000001_Node000002" class="edge">
<title>Node1&#45;&gt;Node2</title>
<g id="a_edge1_Node000001_Node000002"><a xlink:title=" ">
<path fill="none" stroke="#63b8ff" d="M65.9,-219.79C62.27,-209.33 58.32,-196.16 56.5,-184 53.43,-163.5 60.01,-113.65 61.5,-110 78.57,-68.25 124.36,-39.12 154.99,-23.6"/>
<polygon fill="#63b8ff" stroke="#63b8ff" points="156.9,-26.56 164.35,-19.04 153.83,-20.27 156.9,-26.56"/>
</a>
</g>
</g>
<!-- Node3 -->
<g id="Node000003" class="node">
<title>Node3</title>
<g id="a_Node000003"><a xlink:title=" ">
<polygon fill="#e0e0e0" stroke="#999999" points="144.5,-129 82.5,-129 82.5,-110 144.5,-110 144.5,-129"/>
<text text-anchor="middle" x="113.5" y="-117" font-family="Helvetica,sans-Serif" font-size="10.00">stdbool.h</text>
</a>
</g>
</g>
<!-- Node1&#45;&gt;Node3 -->
<g id="edge2_Node000001_Node000003" class="edge">
<title>Node1&#45;&gt;Node3</title>
<g id="a_edge2_Node000001_Node000003"><a xlink:title=" ">
<path fill="none" stroke="#63b8ff" d="M80.11,-219.85C87.66,-197.37 99.93,-160.86 107.31,-138.91"/>
<polygon fill="#63b8ff" stroke="#63b8ff" points="110.72,-139.77 110.58,-129.18 104.08,-137.54 110.72,-139.77"/>
</a>
</g>
</g>
<!-- Node4 -->
<g id="Node000004" class="node">
<title>Node4</title>
<g id="a_Node000004"><a xlink:href="no__os__i2c_8h.html" target="_top" xlink:title="Header file of I2C Interface.">
<polygon fill="white" stroke="#666666" points="189.5,-74 115.5,-74 115.5,-55 189.5,-55 189.5,-74"/>
<text text-anchor="middle" x="152.5" y="-62" font-family="Helvetica,sans-Serif" font-size="10.00">no_os_i2c.h</text>
</a>
</g>
</g>
<!-- Node1&#45;&gt;Node4 -->
<g id="edge3_Node000001_Node000004" class="edge">
<title>Node1&#45;&gt;Node4</title>
<g id="a_edge3_Node000001_Node000004"><a xlink:title=" ">
<path fill="none" stroke="#63b8ff" d="M67.76,-219.93C61.11,-193.11 53.42,-144.36 73.5,-110 82.18,-95.14 97.85,-84.86 112.96,-77.95"/>
<polygon fill="#63b8ff" stroke="#63b8ff" points="114.35,-81.17 122.23,-74.08 111.65,-74.71 114.35,-81.17"/>
</a>
</g>
</g>
<!-- Node5 -->
<g id="Node000005" class="node">
<title>Node5</title>
<g id="a_Node000005"><a xlink:href="gmsl__common_8h.html" target="_top" xlink:title=" ">
<polygon fill="white" stroke="#666666" points="247.5,-184 149.5,-184 149.5,-165 247.5,-165 247.5,-184"/>
<text text-anchor="middle" x="198.5" y="-172" font-family="Helvetica,sans-Serif" font-size="10.00">gmsl_common.h</text>
</a>
</g>
</g>
<!-- Node1&#45;&gt;Node5 -->
<g id="edge5_Node000001_Node000005" class="edge">
<title>Node1&#45;&gt;Node5</title>
<g id="a_edge5_Node000001_Node000005"><a xlink:title=" ">
<path fill="none" stroke="#63b8ff" d="M111.68,-219.95C131.43,-209.84 155.02,-197.76 172.62,-188.75"/>
<polygon fill="#63b8ff" stroke="#63b8ff" points="174.41,-191.76 181.72,-184.09 171.22,-185.53 174.41,-191.76"/>
</a>
</g>
</g>
<!-- Node4&#45;&gt;Node2 -->
<g id="edge4_Node000004_Node000002" class="edge">
<title>Node4&#45;&gt;Node2</title>
<g id="a_edge4_Node000004_Node000002"><a xlink:title=" ">
<path fill="none" stroke="#63b8ff" d="M157.78,-54.75C162.21,-47.42 168.66,-36.73 174.12,-27.7"/>
<polygon fill="#63b8ff" stroke="#63b8ff" points="177.14,-29.46 179.31,-19.09 171.15,-25.84 177.14,-29.46"/>
</a>
</g>
</g>
<!-- Node5&#45;&gt;Node2 -->
<g id="edge6_Node000005_Node000002" class="edge">
<title>Node5&#45;&gt;Node2</title>
<g id="a_edge6_Node000005_Node000002"><a xlink:title=" ">
<path fill="none" stroke="#63b8ff" d="M228.85,-164.93C256.84,-155.2 292.51,-137.06 281.5,-110 266.43,-72.95 230.18,-42.15 206.52,-25.05"/>
<polygon fill="#63b8ff" stroke="#63b8ff" points="208.34,-22.05 198.14,-19.18 204.32,-27.78 208.34,-22.05"/>
</a>
</g>
</g>
<!-- Node5&#45;&gt;Node3 -->
<g id="edge7_Node000005_Node000003" class="edge">
<title>Node5&#45;&gt;Node3</title>
<g id="a_edge7_Node000005_Node000003"><a xlink:title=" ">
<path fill="none" stroke="#63b8ff" d="M184.84,-164.98C171.66,-156.77 151.47,-144.18 135.93,-134.49"/>
<polygon fill="#63b8ff" stroke="#63b8ff" points="137.74,-131.49 127.41,-129.17 134.04,-137.43 137.74,-131.49"/>
</a>
</g>
</g>
<!-- Node6 -->
<g id="Node000006" class="node">
<title>Node6</title>
<g id="a_Node000006"><a xlink:href="gmsl__reg__access_8h.html" target="_top" xlink:title=" ">
<polygon fill="white" stroke="#666666" points="272,-129 163,-129 163,-110 272,-110 272,-129"/>
<text text-anchor="middle" x="217.5" y="-117" font-family="Helvetica,sans-Serif" font-size="10.00">gmsl_reg_access.h</text>
</a>
</g>
</g>
<!-- Node5&#45;&gt;Node6 -->
<g id="edge8_Node000005_Node000006" class="edge">
<title>Node5&#45;&gt;Node6</title>
<g id="a_edge8_Node000005_Node000006"><a xlink:title=" ">
<path fill="none" stroke="#63b8ff" d="M201.64,-164.75C204.18,-157.65 207.86,-147.4 211.03,-138.56"/>
<polygon fill="#63b8ff" stroke="#63b8ff" points="214.34,-139.68 214.42,-129.09 207.75,-137.32 214.34,-139.68"/>
</a>
</g>
</g>
<!-- Node6&#45;&gt;Node2 -->
<g id="edge9_Node000006_Node000002" class="edge">
<title>Node6&#45;&gt;Node2</title>
<g id="a_edge9_Node000006_Node000002"><a xlink:title=" ">
<path fill="none" stroke="#63b8ff" d="M214.96,-109.86C211.35,-97.63 204.51,-74.58 198.5,-55 195.85,-46.38 192.86,-36.83 190.32,-28.8"/>
<polygon fill="#63b8ff" stroke="#63b8ff" points="193.58,-27.49 187.22,-19.02 186.91,-29.61 193.58,-27.49"/>
</a>
</g>
</g>
<!-- Node6&#45;&gt;Node4 -->
<g id="edge10_Node000006_Node000004" class="edge">
<title>Node6&#45;&gt;Node4</title>
<g id="a_edge10_Node000006_Node000004"><a xlink:title=" ">
<path fill="none" stroke="#63b8ff" d="M207.06,-109.98C197.35,-102.07 182.68,-90.11 171,-80.58"/>
<polygon fill="#63b8ff" stroke="#63b8ff" points="173.1,-77.78 163.13,-74.17 168.67,-83.2 173.1,-77.78"/>
</a>
</g>
</g>
</g>
</svg>
