<?xml version="1.0" encoding="UTF-8" standalone="no"?>
<!DOCTYPE svg PUBLIC "-//W3C//DTD SVG 1.1//EN"
 "http://www.w3.org/Graphics/SVG/1.1/DTD/svg11.dtd">
<!-- Generated by graphviz version 2.43.0 (0)
 -->
<!-- Title: /home/runner/work/no&#45;OS/no&#45;OS/projects/adrv9009/src/app/headless_arm.c Pages: 1 -->
<svg width="1505pt" height="269pt"
 viewBox="0.00 0.00 1505.00 269.00" xmlns="http://www.w3.org/2000/svg" xmlns:xlink="http://www.w3.org/1999/xlink">
<g id="graph0" class="graph" transform="scale(1 1) rotate(0) translate(4 265)">
<title>/home/runner/work/no&#45;OS/no&#45;OS/projects/adrv9009/src/app/headless_arm.c</title>
<!-- Node1 -->
<g id="Node000001" class="node">
<title>Node1</title>
<g id="a_Node000001"><a xlink:title="Contains example code for user integration with their application. This file contains code for ARM.">
<polygon fill="#999999" stroke="#666666" points="767.5,-261 610.5,-261 610.5,-220 767.5,-220 767.5,-261"/>
<text text-anchor="start" x="618.5" y="-249" font-family="Helvetica,sans-Serif" font-size="10.00">/home/runner/work/no</text>
<text text-anchor="start" x="618.5" y="-238" font-family="Helvetica,sans-Serif" font-size="10.00">&#45;OS/no&#45;OS/projects/adrv9009</text>
<text text-anchor="middle" x="689" y="-227" font-family="Helvetica,sans-Serif" font-size="10.00">/src/app/headless_arm.c</text>
</a>
</g>
</g>
<!-- Node2 -->
<g id="Node000002" class="node">
<title>Node2</title>
<g id="a_Node000002"><a xlink:title=" ">
<polygon fill="#e0e0e0" stroke="#999999" points="50,-184 0,-184 0,-165 50,-165 50,-184"/>
<text text-anchor="middle" x="25" y="-172" font-family="Helvetica,sans-Serif" font-size="10.00">stdio.h</text>
</a>
</g>
</g>
<!-- Node1&#45;&gt;Node2 -->
<g id="edge1_Node000001_Node000002" class="edge">
<title>Node1&#45;&gt;Node2</title>
<g id="a_edge1_Node000001_Node000002"><a xlink:title=" ">
<path fill="none" stroke="#63b8ff" d="M610.18,-235.69C491.28,-229.23 259.18,-213.81 64,-184 62.73,-183.81 61.44,-183.6 60.13,-183.37"/>
<polygon fill="#63b8ff" stroke="#63b8ff" points="60.57,-179.89 50.09,-181.46 59.26,-186.77 60.57,-179.89"/>
</a>
</g>
</g>
<!-- Node3 -->
<g id="Node000003" class="node">
<title>Node3</title>
<g id="a_Node000003"><a xlink:href="adi__hal_8h.html" target="_top" xlink:title="Contains Talise ADI HAL function prototypes type definitions for adi_hal.c.">
<polygon fill="white" stroke="#666666" points="655.5,-129 594.5,-129 594.5,-110 655.5,-110 655.5,-129"/>
<text text-anchor="middle" x="625" y="-117" font-family="Helvetica,sans-Serif" font-size="10.00">adi_hal.h</text>
</a>
</g>
</g>
<!-- Node1&#45;&gt;Node3 -->
<g id="edge2_Node000001_Node000003" class="edge">
<title>Node1&#45;&gt;Node3</title>
<g id="a_edge2_Node000001_Node000003"><a xlink:title=" ">
<path fill="none" stroke="#63b8ff" d="M669.83,-219.79C660.93,-209.75 650.84,-196.94 644,-184 636.52,-169.83 631.55,-152.3 628.58,-139.24"/>
<polygon fill="#63b8ff" stroke="#63b8ff" points="631.94,-138.2 626.47,-129.12 625.09,-139.63 631.94,-138.2"/>
</a>
</g>
</g>
<!-- Node6 -->
<g id="Node000006" class="node">
<title>Node6</title>
<g id="a_Node000006"><a xlink:href="no__os__util_8h.html" target="_top" xlink:title="Header file of utility functions.">
<polygon fill="white" stroke="#666666" points="423.5,-74 348.5,-74 348.5,-55 423.5,-55 423.5,-74"/>
<text text-anchor="middle" x="386" y="-62" font-family="Helvetica,sans-Serif" font-size="10.00">no_os_util.h</text>
</a>
</g>
</g>
<!-- Node1&#45;&gt;Node6 -->
<g id="edge16_Node000001_Node000006" class="edge">
<title>Node1&#45;&gt;Node6</title>
<g id="a_edge16_Node000001_Node000006"><a xlink:title=" ">
<path fill="none" stroke="#63b8ff" d="M610.34,-237.57C509.69,-233.58 342.63,-221.36 295,-184 268,-162.82 253.69,-138.36 273,-110 281.39,-97.68 314.96,-85.4 343.35,-76.87"/>
<polygon fill="#63b8ff" stroke="#63b8ff" points="344.5,-80.18 353.12,-74.02 342.54,-73.46 344.5,-80.18"/>
</a>
</g>
</g>
<!-- Node9 -->
<g id="Node000009" class="node">
<title>Node9</title>
<g id="a_Node000009"><a xlink:href="no__os__spi_8h.html" target="_top" xlink:title="Header file of SPI Interface.">
<polygon fill="white" stroke="#666666" points="937,-129 863,-129 863,-110 937,-110 937,-129"/>
<text text-anchor="middle" x="900" y="-117" font-family="Helvetica,sans-Serif" font-size="10.00">no_os_spi.h</text>
</a>
</g>
</g>
<!-- Node1&#45;&gt;Node9 -->
<g id="edge9_Node000001_Node000009" class="edge">
<title>Node1&#45;&gt;Node9</title>
<g id="a_edge9_Node000001_Node000009"><a xlink:title=" ">
<path fill="none" stroke="#63b8ff" d="M767.74,-236.94C907.81,-231.57 1188.45,-216.81 1218,-184 1223.65,-177.73 1223.54,-171.37 1218,-165 1200.51,-144.89 1031.63,-129.99 947.35,-123.74"/>
<polygon fill="#63b8ff" stroke="#63b8ff" points="947.49,-120.24 937.27,-123 946.98,-127.22 947.49,-120.24"/>
</a>
</g>
</g>
<!-- Node10 -->
<g id="Node000010" class="node">
<title>Node10</title>
<g id="a_Node000010"><a xlink:href="no__os__error_8h.html" target="_top" xlink:title="Error codes definition.">
<polygon fill="white" stroke="#666666" points="188,-184 106,-184 106,-165 188,-165 188,-184"/>
<text text-anchor="middle" x="147" y="-172" font-family="Helvetica,sans-Serif" font-size="10.00">no_os_error.h</text>
</a>
</g>
</g>
<!-- Node1&#45;&gt;Node10 -->
<g id="edge11_Node000001_Node000010" class="edge">
<title>Node1&#45;&gt;Node10</title>
<g id="a_edge11_Node000001_Node000010"><a xlink:title=" ">
<path fill="none" stroke="#63b8ff" d="M610.44,-231.52C514.08,-221.51 345.8,-203.3 202,-184 200.73,-183.83 199.45,-183.66 198.16,-183.48"/>
<polygon fill="#63b8ff" stroke="#63b8ff" points="198.51,-179.99 188.12,-182.04 197.52,-186.92 198.51,-179.99"/>
</a>
</g>
</g>
<!-- Node12 -->
<g id="Node000012" class="node">
<title>Node12</title>
<g id="a_Node000012"><a xlink:href="no__os__delay_8h.html" target="_top" xlink:title="Header file of Delay functions.">
<polygon fill="white" stroke="#666666" points="1344.5,-74 1259.5,-74 1259.5,-55 1344.5,-55 1344.5,-74"/>
<text text-anchor="middle" x="1302" y="-62" font-family="Helvetica,sans-Serif" font-size="10.00">no_os_delay.h</text>
</a>
</g>
</g>
<!-- Node1&#45;&gt;Node12 -->
<g id="edge13_Node000001_Node000012" class="edge">
<title>Node1&#45;&gt;Node12</title>
<g id="a_edge13_Node000001_Node000012"><a xlink:title=" ">
<path fill="none" stroke="#63b8ff" d="M767.58,-238.73C934.26,-236.29 1311.27,-226.12 1350,-184 1377.54,-154.05 1341.04,-106.25 1318.08,-81.5"/>
<polygon fill="#63b8ff" stroke="#63b8ff" points="1320.38,-78.84 1310.93,-74.06 1315.33,-83.69 1320.38,-78.84"/>
</a>
</g>
</g>
<!-- Node13 -->
<g id="Node000013" class="node">
<title>Node13</title>
<g id="a_Node000013"><a xlink:title=" ">
<polygon fill="#e0e0e0" stroke="#999999" points="402,-184 320,-184 320,-165 402,-165 402,-184"/>
<text text-anchor="middle" x="361" y="-172" font-family="Helvetica,sans-Serif" font-size="10.00">parameters.h</text>
</a>
</g>
</g>
<!-- Node1&#45;&gt;Node13 -->
<g id="edge15_Node000001_Node000013" class="edge">
<title>Node1&#45;&gt;Node13</title>
<g id="a_edge15_Node000001_Node000013"><a xlink:title=" ">
<path fill="none" stroke="#63b8ff" d="M610.44,-224.17C549.01,-212.18 465.4,-195.87 412.3,-185.51"/>
<polygon fill="#63b8ff" stroke="#63b8ff" points="412.92,-182.06 402.43,-183.58 411.58,-188.93 412.92,-182.06"/>
</a>
</g>
</g>
<!-- Node14 -->
<g id="Node000014" class="node">
<title>Node14</title>
<g id="a_Node000014"><a xlink:href="axi__dac__core_8h.html" target="_top" xlink:title="Driver for the Analog Devices AXI&#45;DAC&#45;CORE module.">
<polygon fill="white" stroke="#666666" points="1451.5,-74 1362.5,-74 1362.5,-55 1451.5,-55 1451.5,-74"/>
<text text-anchor="middle" x="1407" y="-62" font-family="Helvetica,sans-Serif" font-size="10.00">axi_dac_core.h</text>
</a>
</g>
</g>
<!-- Node1&#45;&gt;Node14 -->
<g id="edge17_Node000001_Node000014" class="edge">
<title>Node1&#45;&gt;Node14</title>
<g id="a_edge17_Node000001_Node000014"><a xlink:title=" ">
<path fill="none" stroke="#63b8ff" d="M767.8,-237.89C936.64,-233.77 1321.75,-220.43 1368,-184 1398.67,-159.84 1405.48,-110.96 1406.83,-84.14"/>
<polygon fill="#63b8ff" stroke="#63b8ff" points="1410.33,-84.24 1407.13,-74.14 1403.33,-84.03 1410.33,-84.24"/>
</a>
</g>
</g>
<!-- Node15 -->
<g id="Node000015" class="node">
<title>Node15</title>
<g id="a_Node000015"><a xlink:href="axi__adc__core_8h.html" target="_top" xlink:title="Driver for the Analog Devices AXI&#45;ADC&#45;CORE module.">
<polygon fill="white" stroke="#666666" points="371.5,-129 282.5,-129 282.5,-110 371.5,-110 371.5,-129"/>
<text text-anchor="middle" x="327" y="-117" font-family="Helvetica,sans-Serif" font-size="10.00">axi_adc_core.h</text>
</a>
</g>
</g>
<!-- Node1&#45;&gt;Node15 -->
<g id="edge19_Node000001_Node000015" class="edge">
<title>Node1&#45;&gt;Node15</title>
<g id="a_edge19_Node000001_Node000015"><a xlink:title=" ">
<path fill="none" stroke="#63b8ff" d="M610.24,-239.77C509.34,-238.25 342.8,-228.79 304,-184 292.54,-170.77 302.27,-151.37 312.37,-137.5"/>
<polygon fill="#63b8ff" stroke="#63b8ff" points="315.39,-139.32 318.84,-129.31 309.9,-134.99 315.39,-139.32"/>
</a>
</g>
</g>
<!-- Node16 -->
<g id="Node000016" class="node">
<title>Node16</title>
<g id="a_Node000016"><a xlink:href="axi__dmac_8h.html" target="_top" xlink:title="Driver for the Analog Devices AXI&#45;DMAC core.">
<polygon fill="white" stroke="#666666" points="462.5,-129 389.5,-129 389.5,-110 462.5,-110 462.5,-129"/>
<text text-anchor="middle" x="426" y="-117" font-family="Helvetica,sans-Serif" font-size="10.00">axi_dmac.h</text>
</a>
</g>
</g>
<!-- Node1&#45;&gt;Node16 -->
<g id="edge22_Node000001_Node000016" class="edge">
<title>Node1&#45;&gt;Node16</title>
<g id="a_edge22_Node000001_Node000016"><a xlink:title=" ">
<path fill="none" stroke="#63b8ff" d="M610.39,-239.53C511.18,-237.7 348.89,-227.86 311,-184 305.48,-177.61 306.23,-171.97 311,-165 319.53,-152.56 353.5,-140.33 382.33,-131.86"/>
<polygon fill="#63b8ff" stroke="#63b8ff" points="383.6,-135.13 392.26,-129.02 381.68,-128.4 383.6,-135.13"/>
</a>
</g>
</g>
<!-- Node17 -->
<g id="Node000017" class="node">
<title>Node17</title>
<g id="a_Node000017"><a xlink:title=" ">
<polygon fill="#e0e0e0" stroke="#999999" points="724.5,-184 653.5,-184 653.5,-165 724.5,-165 724.5,-184"/>
<text text-anchor="middle" x="689" y="-172" font-family="Helvetica,sans-Serif" font-size="10.00">xil_cache.h</text>
</a>
</g>
</g>
<!-- Node1&#45;&gt;Node17 -->
<g id="edge25_Node000001_Node000017" class="edge">
<title>Node1&#45;&gt;Node17</title>
<g id="a_edge25_Node000001_Node000017"><a xlink:title=" ">
<path fill="none" stroke="#63b8ff" d="M689,-219.95C689,-211.85 689,-202.5 689,-194.47"/>
<polygon fill="#63b8ff" stroke="#63b8ff" points="692.5,-194.26 689,-184.26 685.5,-194.26 692.5,-194.26"/>
</a>
</g>
</g>
<!-- Node18 -->
<g id="Node000018" class="node">
<title>Node18</title>
<g id="a_Node000018"><a xlink:href="xilinx__gpio_8h.html" target="_top" xlink:title=" ">
<polygon fill="white" stroke="#666666" points="330.5,-74 251.5,-74 251.5,-55 330.5,-55 330.5,-74"/>
<text text-anchor="middle" x="291" y="-62" font-family="Helvetica,sans-Serif" font-size="10.00">xilinx_gpio.h</text>
</a>
</g>
</g>
<!-- Node1&#45;&gt;Node18 -->
<g id="edge26_Node000001_Node000018" class="edge">
<title>Node1&#45;&gt;Node18</title>
<g id="a_edge26_Node000001_Node000018"><a xlink:title=" ">
<path fill="none" stroke="#63b8ff" d="M610.25,-237.89C457.05,-233.95 130.9,-221.23 97,-184 82.18,-167.73 89.77,-131.74 112,-110 130.2,-92.21 194.83,-79.35 241.2,-72.16"/>
<polygon fill="#63b8ff" stroke="#63b8ff" points="242.01,-75.58 251.38,-70.63 240.97,-68.66 242.01,-75.58"/>
</a>
</g>
</g>
<!-- Node19 -->
<g id="Node000019" class="node">
<title>Node19</title>
<g id="a_Node000019"><a xlink:href="xilinx__spi_8h.html" target="_top" xlink:title=" ">
<polygon fill="white" stroke="#666666" points="936,-184 864,-184 864,-165 936,-165 936,-184"/>
<text text-anchor="middle" x="900" y="-172" font-family="Helvetica,sans-Serif" font-size="10.00">xilinx_spi.h</text>
</a>
</g>
</g>
<!-- Node1&#45;&gt;Node19 -->
<g id="edge29_Node000001_Node000019" class="edge">
<title>Node1&#45;&gt;Node19</title>
<g id="a_edge29_Node000001_Node000019"><a xlink:title=" ">
<path fill="none" stroke="#63b8ff" d="M753.45,-219.95C789.06,-209.15 832.05,-196.11 862.24,-186.95"/>
<polygon fill="#63b8ff" stroke="#63b8ff" points="863.4,-190.26 871.95,-184.01 861.36,-183.56 863.4,-190.26"/>
</a>
</g>
</g>
<!-- Node20 -->
<g id="Node000020" class="node">
<title>Node20</title>
<g id="a_Node000020"><a xlink:title=" ">
<polygon fill="#e0e0e0" stroke="#999999" points="1007.5,-184 954.5,-184 954.5,-165 1007.5,-165 1007.5,-184"/>
<text text-anchor="middle" x="981" y="-172" font-family="Helvetica,sans-Serif" font-size="10.00">talise.h</text>
</a>
</g>
</g>
<!-- Node1&#45;&gt;Node20 -->
<g id="edge32_Node000001_Node000020" class="edge">
<title>Node1&#45;&gt;Node20</title>
<g id="a_edge32_Node000001_Node000020"><a xlink:title=" ">
<path fill="none" stroke="#63b8ff" d="M767.51,-222.87C815.74,-212.56 879.03,-198.87 944.22,-184.14"/>
<polygon fill="#63b8ff" stroke="#63b8ff" points="945.3,-187.49 954.28,-181.87 943.75,-180.66 945.3,-187.49"/>
</a>
</g>
</g>
<!-- Node21 -->
<g id="Node000021" class="node">
<title>Node21</title>
<g id="a_Node000021"><a xlink:title=" ">
<polygon fill="#e0e0e0" stroke="#999999" points="1112.5,-184 1025.5,-184 1025.5,-165 1112.5,-165 1112.5,-184"/>
<text text-anchor="middle" x="1069" y="-172" font-family="Helvetica,sans-Serif" font-size="10.00">talise_config.h</text>
</a>
</g>
</g>
<!-- Node1&#45;&gt;Node21 -->
<g id="edge33_Node000001_Node000021" class="edge">
<title>Node1&#45;&gt;Node21</title>
<g id="a_edge33_Node000001_Node000021"><a xlink:title=" ">
<path fill="none" stroke="#63b8ff" d="M767.74,-226.24C841.82,-213.76 950.74,-195.42 1015.31,-184.54"/>
<polygon fill="#63b8ff" stroke="#63b8ff" points="1016,-187.98 1025.28,-182.86 1014.84,-181.07 1016,-187.98"/>
</a>
</g>
</g>
<!-- Node22 -->
<g id="Node000022" class="node">
<title>Node22</title>
<g id="a_Node000022"><a xlink:href="adrv9009_2src_2app_2app__config_8h.html" target="_top" xlink:title="Config file for ADRV9009 project.">
<polygon fill="white" stroke="#666666" points="1209,-184 1131,-184 1131,-165 1209,-165 1209,-184"/>
<text text-anchor="middle" x="1170" y="-172" font-family="Helvetica,sans-Serif" font-size="10.00">app_config.h</text>
</a>
</g>
</g>
<!-- Node1&#45;&gt;Node22 -->
<g id="edge34_Node000001_Node000022" class="edge">
<title>Node1&#45;&gt;Node22</title>
<g id="a_edge34_Node000001_Node000022"><a xlink:title=" ">
<path fill="none" stroke="#63b8ff" d="M767.78,-230.55C852.47,-220.67 991.3,-203.72 1120.88,-184.11"/>
<polygon fill="#63b8ff" stroke="#63b8ff" points="1121.63,-187.53 1130.99,-182.57 1120.58,-180.61 1121.63,-187.53"/>
</a>
</g>
</g>
<!-- Node23 -->
<g id="Node000023" class="node">
<title>Node23</title>
<g id="a_Node000023"><a xlink:href="adrv9009_2src_2app_2app__clocking_8h.html" target="_top" xlink:title="Clock setup and initialization routines.">
<polygon fill="white" stroke="#666666" points="509.5,-184 420.5,-184 420.5,-165 509.5,-165 509.5,-184"/>
<text text-anchor="middle" x="465" y="-172" font-family="Helvetica,sans-Serif" font-size="10.00">app_clocking.h</text>
</a>
</g>
</g>
<!-- Node1&#45;&gt;Node23 -->
<g id="edge35_Node000001_Node000023" class="edge">
<title>Node1&#45;&gt;Node23</title>
<g id="a_edge35_Node000001_Node000023"><a xlink:title=" ">
<path fill="none" stroke="#63b8ff" d="M620.58,-219.95C582.61,-209.1 536.74,-196 504.67,-186.84"/>
<polygon fill="#63b8ff" stroke="#63b8ff" points="505.35,-183.39 494.78,-184.01 503.43,-190.12 505.35,-183.39"/>
</a>
</g>
</g>
<!-- Node24 -->
<g id="Node000024" class="node">
<title>Node24</title>
<g id="a_Node000024"><a xlink:href="adrv9009_2src_2app_2app__jesd_8h.html" target="_top" xlink:title="JESD setup and initialization routines.">
<polygon fill="white" stroke="#666666" points="596.5,-184 527.5,-184 527.5,-165 596.5,-165 596.5,-184"/>
<text text-anchor="middle" x="562" y="-172" font-family="Helvetica,sans-Serif" font-size="10.00">app_jesd.h</text>
</a>
</g>
</g>
<!-- Node1&#45;&gt;Node24 -->
<g id="edge38_Node000001_Node000024" class="edge">
<title>Node1&#45;&gt;Node24</title>
<g id="a_edge38_Node000001_Node000024"><a xlink:title=" ">
<path fill="none" stroke="#63b8ff" d="M650.21,-219.95C630.14,-209.84 606.18,-197.76 588.3,-188.75"/>
<polygon fill="#63b8ff" stroke="#63b8ff" points="589.55,-185.47 579.05,-184.09 586.4,-191.72 589.55,-185.47"/>
</a>
</g>
</g>
<!-- Node25 -->
<g id="Node000025" class="node">
<title>Node25</title>
<g id="a_Node000025"><a xlink:href="app__transceiver_8h.html" target="_top" xlink:title="FPGA XCVR setup and initialization routines.">
<polygon fill="white" stroke="#666666" points="845.5,-184 742.5,-184 742.5,-165 845.5,-165 845.5,-184"/>
<text text-anchor="middle" x="794" y="-172" font-family="Helvetica,sans-Serif" font-size="10.00">app_transceiver.h</text>
</a>
</g>
</g>
<!-- Node1&#45;&gt;Node25 -->
<g id="edge41_Node000001_Node000025" class="edge">
<title>Node1&#45;&gt;Node25</title>
<g id="a_edge41_Node000001_Node000025"><a xlink:title=" ">
<path fill="none" stroke="#63b8ff" d="M721.07,-219.95C737.2,-210.12 756.38,-198.43 771.02,-189.51"/>
<polygon fill="#63b8ff" stroke="#63b8ff" points="773.19,-192.29 779.9,-184.09 769.54,-186.31 773.19,-192.29"/>
</a>
</g>
</g>
<!-- Node26 -->
<g id="Node000026" class="node">
<title>Node26</title>
<g id="a_Node000026"><a xlink:href="app__talise_8h.html" target="_top" xlink:title="Talise initialization and control routines.">
<polygon fill="white" stroke="#666666" points="1341,-184 1265,-184 1265,-165 1341,-165 1341,-184"/>
<text text-anchor="middle" x="1303" y="-172" font-family="Helvetica,sans-Serif" font-size="10.00">app_talise.h</text>
</a>
</g>
</g>
<!-- Node1&#45;&gt;Node26 -->
<g id="edge44_Node000001_Node000026" class="edge">
<title>Node1&#45;&gt;Node26</title>
<g id="a_edge44_Node000001_Node000026"><a xlink:title=" ">
<path fill="none" stroke="#63b8ff" d="M767.83,-233.31C876.71,-224.39 1079.17,-206.5 1251,-184 1252.28,-183.83 1253.57,-183.66 1254.87,-183.48"/>
<polygon fill="#63b8ff" stroke="#63b8ff" points="1255.6,-186.91 1264.99,-182 1254.58,-179.98 1255.6,-186.91"/>
</a>
</g>
</g>
<!-- Node28 -->
<g id="Node000028" class="node">
<title>Node28</title>
<g id="a_Node000028"><a xlink:title=" ">
<polygon fill="#e0e0e0" stroke="#999999" points="1497,-184 1435,-184 1435,-165 1497,-165 1497,-184"/>
<text text-anchor="middle" x="1466" y="-172" font-family="Helvetica,sans-Serif" font-size="10.00">ad9528.h</text>
</a>
</g>
</g>
<!-- Node1&#45;&gt;Node28 -->
<g id="edge48_Node000001_Node000028" class="edge">
<title>Node1&#45;&gt;Node28</title>
<g id="a_edge48_Node000001_Node000028"><a xlink:title=" ">
<path fill="none" stroke="#63b8ff" d="M767.56,-236.41C901.92,-230.48 1184.25,-215.24 1421,-184 1422.1,-183.85 1423.22,-183.7 1424.35,-183.54"/>
<polygon fill="#63b8ff" stroke="#63b8ff" points="1425.28,-186.93 1434.6,-181.89 1424.17,-180.02 1425.28,-186.93"/>
</a>
</g>
</g>
<!-- Node4 -->
<g id="Node000004" class="node">
<title>Node4</title>
<g id="a_Node000004"><a xlink:title=" ">
<polygon fill="#e0e0e0" stroke="#999999" points="640.5,-19 587.5,-19 587.5,0 640.5,0 640.5,-19"/>
<text text-anchor="middle" x="614" y="-7" font-family="Helvetica,sans-Serif" font-size="10.00">stdint.h</text>
</a>
</g>
</g>
<!-- Node3&#45;&gt;Node4 -->
<g id="edge3_Node000003_Node000004" class="edge">
<title>Node3&#45;&gt;Node4</title>
<g id="a_edge3_Node000003_Node000004"><a xlink:title=" ">
<path fill="none" stroke="#63b8ff" d="M624.1,-109.66C622.32,-92.17 618.31,-52.8 615.91,-29.27"/>
<polygon fill="#63b8ff" stroke="#63b8ff" points="619.38,-28.75 614.88,-19.16 612.41,-29.46 619.38,-28.75"/>
</a>
</g>
</g>
<!-- Node5 -->
<g id="Node000005" class="node">
<title>Node5</title>
<g id="a_Node000005"><a xlink:title=" ">
<polygon fill="#e0e0e0" stroke="#999999" points="698,-74 642,-74 642,-55 698,-55 698,-74"/>
<text text-anchor="middle" x="670" y="-62" font-family="Helvetica,sans-Serif" font-size="10.00">stddef.h</text>
</a>
</g>
</g>
<!-- Node3&#45;&gt;Node5 -->
<g id="edge4_Node000003_Node000005" class="edge">
<title>Node3&#45;&gt;Node5</title>
<g id="a_edge4_Node000003_Node000005"><a xlink:title=" ">
<path fill="none" stroke="#63b8ff" d="M632.43,-109.75C638.85,-102.18 648.31,-91.05 656.12,-81.84"/>
<polygon fill="#63b8ff" stroke="#63b8ff" points="658.9,-83.98 662.71,-74.09 653.57,-79.45 658.9,-83.98"/>
</a>
</g>
</g>
<!-- Node3&#45;&gt;Node6 -->
<g id="edge5_Node000003_Node000006" class="edge">
<title>Node3&#45;&gt;Node6</title>
<g id="a_edge5_Node000003_Node000006"><a xlink:title=" ">
<path fill="none" stroke="#63b8ff" d="M594.24,-111.68C553.52,-102.65 481.29,-86.63 433.52,-76.04"/>
<polygon fill="#63b8ff" stroke="#63b8ff" points="434.24,-72.61 423.72,-73.86 432.72,-79.45 434.24,-72.61"/>
</a>
</g>
</g>
<!-- Node6&#45;&gt;Node4 -->
<g id="edge6_Node000006_Node000004" class="edge">
<title>Node6&#45;&gt;Node4</title>
<g id="a_edge6_Node000006_Node000004"><a xlink:title=" ">
<path fill="none" stroke="#63b8ff" d="M422.63,-54.98C465.19,-45.09 535,-28.86 577.5,-18.98"/>
<polygon fill="#63b8ff" stroke="#63b8ff" points="578.48,-22.35 587.43,-16.68 576.9,-15.53 578.48,-22.35"/>
</a>
</g>
</g>
<!-- Node7 -->
<g id="Node000007" class="node">
<title>Node7</title>
<g id="a_Node000007"><a xlink:title=" ">
<polygon fill="#e0e0e0" stroke="#999999" points="412.5,-19 359.5,-19 359.5,0 412.5,0 412.5,-19"/>
<text text-anchor="middle" x="386" y="-7" font-family="Helvetica,sans-Serif" font-size="10.00">stdlib.h</text>
</a>
</g>
</g>
<!-- Node6&#45;&gt;Node7 -->
<g id="edge7_Node000006_Node000007" class="edge">
<title>Node6&#45;&gt;Node7</title>
<g id="a_edge7_Node000006_Node000007"><a xlink:title=" ">
<path fill="none" stroke="#63b8ff" d="M386,-54.75C386,-47.8 386,-37.85 386,-29.13"/>
<polygon fill="#63b8ff" stroke="#63b8ff" points="389.5,-29.09 386,-19.09 382.5,-29.09 389.5,-29.09"/>
</a>
</g>
</g>
<!-- Node8 -->
<g id="Node000008" class="node">
<title>Node8</title>
<g id="a_Node000008"><a xlink:title=" ">
<polygon fill="#e0e0e0" stroke="#999999" points="332,-19 270,-19 270,0 332,0 332,-19"/>
<text text-anchor="middle" x="301" y="-7" font-family="Helvetica,sans-Serif" font-size="10.00">stdbool.h</text>
</a>
</g>
</g>
<!-- Node6&#45;&gt;Node8 -->
<g id="edge8_Node000006_Node000008" class="edge">
<title>Node6&#45;&gt;Node8</title>
<g id="a_edge8_Node000006_Node000008"><a xlink:title=" ">
<path fill="none" stroke="#63b8ff" d="M372.34,-54.98C359.16,-46.77 338.97,-34.18 323.43,-24.49"/>
<polygon fill="#63b8ff" stroke="#63b8ff" points="325.24,-21.49 314.91,-19.17 321.54,-27.43 325.24,-21.49"/>
</a>
</g>
</g>
<!-- Node9&#45;&gt;Node4 -->
<g id="edge10_Node000009_Node000004" class="edge">
<title>Node9&#45;&gt;Node4</title>
<g id="a_edge10_Node000009_Node000004"><a xlink:title=" ">
<path fill="none" stroke="#63b8ff" d="M893.39,-109.95C882.17,-96.07 857.95,-68.8 831,-55 772.53,-25.07 695.48,-15.27 650.67,-12.06"/>
<polygon fill="#63b8ff" stroke="#63b8ff" points="650.75,-8.56 640.55,-11.41 650.3,-15.54 650.75,-8.56"/>
</a>
</g>
</g>
<!-- Node11 -->
<g id="Node000011" class="node">
<title>Node11</title>
<g id="a_Node000011"><a xlink:href="errno_8h.html" target="_top" xlink:title="Error macro definition for ARM Compiler.">
<polygon fill="white" stroke="#666666" points="172.5,-129 121.5,-129 121.5,-110 172.5,-110 172.5,-129"/>
<text text-anchor="middle" x="147" y="-117" font-family="Helvetica,sans-Serif" font-size="10.00">errno.h</text>
</a>
</g>
</g>
<!-- Node10&#45;&gt;Node11 -->
<g id="edge12_Node000010_Node000011" class="edge">
<title>Node10&#45;&gt;Node11</title>
<g id="a_edge12_Node000010_Node000011"><a xlink:title=" ">
<path fill="none" stroke="#63b8ff" d="M147,-164.75C147,-157.8 147,-147.85 147,-139.13"/>
<polygon fill="#63b8ff" stroke="#63b8ff" points="150.5,-139.09 147,-129.09 143.5,-139.09 150.5,-139.09"/>
</a>
</g>
</g>
<!-- Node12&#45;&gt;Node4 -->
<g id="edge14_Node000012_Node000004" class="edge">
<title>Node12&#45;&gt;Node4</title>
<g id="a_edge14_Node000012_Node000004"><a xlink:title=" ">
<path fill="none" stroke="#63b8ff" d="M1259.41,-56.78C1254.55,-56.12 1249.67,-55.51 1245,-55 1019.83,-30.31 747.86,-16.52 650.69,-12.09"/>
<polygon fill="#63b8ff" stroke="#63b8ff" points="650.66,-8.59 640.52,-11.63 650.35,-15.58 650.66,-8.59"/>
</a>
</g>
</g>
<!-- Node14&#45;&gt;Node4 -->
<g id="edge18_Node000014_Node000004" class="edge">
<title>Node14&#45;&gt;Node4</title>
<g id="a_edge18_Node000014_Node000004"><a xlink:title=" ">
<path fill="none" stroke="#63b8ff" d="M1362.22,-56C1359.44,-55.63 1356.69,-55.3 1354,-55 1085.02,-25.42 758.72,-14.41 650.68,-11.42"/>
<polygon fill="#63b8ff" stroke="#63b8ff" points="650.72,-7.92 640.63,-11.15 650.53,-14.92 650.72,-7.92"/>
</a>
</g>
</g>
<!-- Node15&#45;&gt;Node4 -->
<g id="edge20_Node000015_Node000004" class="edge">
<title>Node15&#45;&gt;Node4</title>
<g id="a_edge20_Node000015_Node000004"><a xlink:title=" ">
<path fill="none" stroke="#63b8ff" d="M347.04,-109.9C376.6,-97.32 433.68,-73.39 483,-55 514.83,-43.13 551.47,-30.79 577.9,-22.13"/>
<polygon fill="#63b8ff" stroke="#63b8ff" points="579.07,-25.43 587.49,-18.99 576.9,-18.77 579.07,-25.43"/>
</a>
</g>
</g>
<!-- Node15&#45;&gt;Node6 -->
<g id="edge21_Node000015_Node000006" class="edge">
<title>Node15&#45;&gt;Node6</title>
<g id="a_edge21_Node000015_Node000006"><a xlink:title=" ">
<path fill="none" stroke="#63b8ff" d="M336.48,-109.98C345.2,-102.15 358.34,-90.34 368.9,-80.86"/>
<polygon fill="#63b8ff" stroke="#63b8ff" points="371.25,-83.46 376.35,-74.17 366.57,-78.25 371.25,-83.46"/>
</a>
</g>
</g>
<!-- Node16&#45;&gt;Node4 -->
<g id="edge23_Node000016_Node000004" class="edge">
<title>Node16&#45;&gt;Node4</title>
<g id="a_edge23_Node000016_Node000004"><a xlink:title=" ">
<path fill="none" stroke="#63b8ff" d="M436.36,-109.93C452.34,-96.98 484.28,-72.09 514,-55 535.8,-42.46 561.79,-31 581.8,-22.84"/>
<polygon fill="#63b8ff" stroke="#63b8ff" points="583.13,-26.08 591.11,-19.12 580.52,-19.59 583.13,-26.08"/>
</a>
</g>
</g>
<!-- Node16&#45;&gt;Node6 -->
<g id="edge24_Node000016_Node000006" class="edge">
<title>Node16&#45;&gt;Node6</title>
<g id="a_edge24_Node000016_Node000006"><a xlink:title=" ">
<path fill="none" stroke="#63b8ff" d="M419.39,-109.75C413.74,-102.26 405.46,-91.28 398.55,-82.13"/>
<polygon fill="#63b8ff" stroke="#63b8ff" points="401.3,-79.96 392.48,-74.09 395.71,-84.18 401.3,-79.96"/>
</a>
</g>
</g>
<!-- Node18&#45;&gt;Node4 -->
<g id="edge27_Node000018_Node000004" class="edge">
<title>Node18&#45;&gt;Node4</title>
<g id="a_edge27_Node000018_Node000004"><a xlink:title=" ">
<path fill="none" stroke="#63b8ff" d="M330.54,-56.45C333.41,-55.95 336.25,-55.47 339,-55 424.38,-40.53 524.87,-24.53 577.55,-16.22"/>
<polygon fill="#63b8ff" stroke="#63b8ff" points="578.1,-19.68 587.43,-14.67 577.01,-12.76 578.1,-19.68"/>
</a>
</g>
</g>
<!-- Node18&#45;&gt;Node8 -->
<g id="edge28_Node000018_Node000008" class="edge">
<title>Node18&#45;&gt;Node8</title>
<g id="a_edge28_Node000018_Node000008"><a xlink:title=" ">
<path fill="none" stroke="#63b8ff" d="M292.65,-54.75C293.96,-47.8 295.84,-37.85 297.48,-29.13"/>
<polygon fill="#63b8ff" stroke="#63b8ff" points="300.96,-29.56 299.38,-19.09 294.09,-28.27 300.96,-29.56"/>
</a>
</g>
</g>
<!-- Node19&#45;&gt;Node4 -->
<g id="edge30_Node000019_Node000004" class="edge">
<title>Node19&#45;&gt;Node4</title>
<g id="a_edge30_Node000019_Node000004"><a xlink:title=" ">
<path fill="none" stroke="#63b8ff" d="M889.53,-164.75C863.88,-143.62 795.27,-89.07 731,-55 705.13,-41.28 674.08,-29.68 650.46,-21.76"/>
<polygon fill="#63b8ff" stroke="#63b8ff" points="651.43,-18.39 640.84,-18.6 649.25,-25.04 651.43,-18.39"/>
</a>
</g>
</g>
<!-- Node19&#45;&gt;Node9 -->
<g id="edge31_Node000019_Node000009" class="edge">
<title>Node19&#45;&gt;Node9</title>
<g id="a_edge31_Node000019_Node000009"><a xlink:title=" ">
<path fill="none" stroke="#63b8ff" d="M900,-164.75C900,-157.8 900,-147.85 900,-139.13"/>
<polygon fill="#63b8ff" stroke="#63b8ff" points="903.5,-139.09 900,-129.09 896.5,-139.09 903.5,-139.09"/>
</a>
</g>
</g>
<!-- Node23&#45;&gt;Node3 -->
<g id="edge37_Node000023_Node000003" class="edge">
<title>Node23&#45;&gt;Node3</title>
<g id="a_edge37_Node000023_Node000003"><a xlink:title=" ">
<path fill="none" stroke="#63b8ff" d="M490.71,-164.98C517.45,-156.13 559.53,-142.19 589.45,-132.28"/>
<polygon fill="#63b8ff" stroke="#63b8ff" points="590.7,-135.55 599.09,-129.08 588.5,-128.9 590.7,-135.55"/>
</a>
</g>
</g>
<!-- Node23&#45;&gt;Node4 -->
<g id="edge36_Node000023_Node000004" class="edge">
<title>Node23&#45;&gt;Node4</title>
<g id="a_edge36_Node000023_Node000004"><a xlink:title=" ">
<path fill="none" stroke="#63b8ff" d="M473.01,-164.74C496.86,-138.65 567.68,-61.17 598.91,-27"/>
<polygon fill="#63b8ff" stroke="#63b8ff" points="601.79,-29.05 605.95,-19.31 596.62,-24.33 601.79,-29.05"/>
</a>
</g>
</g>
<!-- Node24&#45;&gt;Node3 -->
<g id="edge40_Node000024_Node000003" class="edge">
<title>Node24&#45;&gt;Node3</title>
<g id="a_edge40_Node000024_Node000003"><a xlink:title=" ">
<path fill="none" stroke="#63b8ff" d="M572.12,-164.98C581.44,-157.15 595.47,-145.34 606.74,-135.86"/>
<polygon fill="#63b8ff" stroke="#63b8ff" points="609.29,-138.29 614.69,-129.17 604.79,-132.93 609.29,-138.29"/>
</a>
</g>
</g>
<!-- Node24&#45;&gt;Node4 -->
<g id="edge39_Node000024_Node000004" class="edge">
<title>Node24&#45;&gt;Node4</title>
<g id="a_edge39_Node000024_Node000004"><a xlink:title=" ">
<path fill="none" stroke="#63b8ff" d="M564.8,-164.74C572.94,-139.2 596.8,-64.43 608.02,-29.23"/>
<polygon fill="#63b8ff" stroke="#63b8ff" points="611.49,-29.9 611.19,-19.31 604.82,-27.77 611.49,-29.9"/>
</a>
</g>
</g>
<!-- Node25&#45;&gt;Node3 -->
<g id="edge43_Node000025_Node000003" class="edge">
<title>Node25&#45;&gt;Node3</title>
<g id="a_edge43_Node000025_Node000003"><a xlink:title=" ">
<path fill="none" stroke="#63b8ff" d="M766.85,-164.98C738.47,-156.09 693.77,-142.07 662.14,-132.15"/>
<polygon fill="#63b8ff" stroke="#63b8ff" points="662.95,-128.73 652.37,-129.08 660.86,-135.41 662.95,-128.73"/>
</a>
</g>
</g>
<!-- Node25&#45;&gt;Node4 -->
<g id="edge42_Node000025_Node000004" class="edge">
<title>Node25&#45;&gt;Node4</title>
<g id="a_edge42_Node000025_Node000004"><a xlink:title=" ">
<path fill="none" stroke="#63b8ff" d="M789.65,-164.93C778.53,-143.74 747.09,-88.22 707,-55 690.06,-40.96 667.95,-30.15 649.54,-22.7"/>
<polygon fill="#63b8ff" stroke="#63b8ff" points="650.61,-19.36 640.02,-19 648.08,-25.88 650.61,-19.36"/>
</a>
</g>
</g>
<!-- Node26&#45;&gt;Node3 -->
<g id="edge47_Node000026_Node000003" class="edge">
<title>Node26&#45;&gt;Node3</title>
<g id="a_edge47_Node000026_Node000003"><a xlink:title=" ">
<path fill="none" stroke="#63b8ff" d="M1264.94,-169.49C1250.27,-168 1233.37,-166.34 1218,-165 1010.57,-146.85 761.91,-129.68 665.74,-123.21"/>
<polygon fill="#63b8ff" stroke="#63b8ff" points="665.79,-119.7 655.57,-122.53 665.32,-126.69 665.79,-119.7"/>
</a>
</g>
</g>
<!-- Node26&#45;&gt;Node4 -->
<g id="edge45_Node000026_Node000004" class="edge">
<title>Node26&#45;&gt;Node4</title>
<g id="a_edge45_Node000026_Node000004"><a xlink:title=" ">
<path fill="none" stroke="#63b8ff" d="M1293.75,-164.89C1278.18,-150.92 1245.18,-123.53 1212,-110 1011.44,-28.25 746.91,-13.63 650.85,-11.05"/>
<polygon fill="#63b8ff" stroke="#63b8ff" points="650.85,-7.55 640.77,-10.8 650.68,-14.54 650.85,-7.55"/>
</a>
</g>
</g>
<!-- Node27 -->
<g id="Node000027" class="node">
<title>Node27</title>
<g id="a_Node000027"><a xlink:title=" ">
<polygon fill="#e0e0e0" stroke="#999999" points="1202.5,-129 1117.5,-129 1117.5,-110 1202.5,-110 1202.5,-129"/>
<text text-anchor="middle" x="1160" y="-117" font-family="Helvetica,sans-Serif" font-size="10.00">talise_types.h</text>
</a>
</g>
</g>
<!-- Node26&#45;&gt;Node27 -->
<g id="edge46_Node000026_Node000027" class="edge">
<title>Node26&#45;&gt;Node27</title>
<g id="a_edge46_Node000026_Node000027"><a xlink:title=" ">
<path fill="none" stroke="#63b8ff" d="M1280.02,-164.98C1256.5,-156.27 1219.71,-142.63 1193.06,-132.75"/>
<polygon fill="#63b8ff" stroke="#63b8ff" points="1193.99,-129.36 1183.39,-129.17 1191.55,-135.93 1193.99,-129.36"/>
</a>
</g>
</g>
</g>
</svg>
