<?xml version="1.0" encoding="UTF-8" standalone="no"?>
<!DOCTYPE svg PUBLIC "-//W3C//DTD SVG 1.1//EN"
 "http://www.w3.org/Graphics/SVG/1.1/DTD/svg11.dtd">
<!-- Generated by graphviz version 2.43.0 (0)
 -->
<!-- Title: /home/runner/work/no&#45;OS/no&#45;OS/drivers/power/ltc7871/iio_ltc7871.c Pages: 1 -->
<svg width="1010pt" height="324pt"
 viewBox="0.00 0.00 1010.26 324.00" xmlns="http://www.w3.org/2000/svg" xmlns:xlink="http://www.w3.org/1999/xlink">
<g id="graph0" class="graph" transform="scale(1 1) rotate(0) translate(4 320)">
<title>/home/runner/work/no&#45;OS/no&#45;OS/drivers/power/ltc7871/iio_ltc7871.c</title>
<!-- Node1 -->
<g id="Node000001" class="node">
<title>Node1</title>
<g id="a_Node000001"><a xlink:title="Source file for the LTC7871 IIO Driver.">
<polygon fill="#999999" stroke="#666666" points="335.64,-316 199.64,-316 199.64,-275 335.64,-275 335.64,-316"/>
<text text-anchor="start" x="207.64" y="-304" font-family="Helvetica,sans-Serif" font-size="10.00">/home/runner/work/no</text>
<text text-anchor="start" x="207.64" y="-293" font-family="Helvetica,sans-Serif" font-size="10.00">&#45;OS/no&#45;OS/drivers/power</text>
<text text-anchor="middle" x="267.64" y="-282" font-family="Helvetica,sans-Serif" font-size="10.00">/ltc7871/iio_ltc7871.c</text>
</a>
</g>
</g>
<!-- Node2 -->
<g id="Node000002" class="node">
<title>Node2</title>
<g id="a_Node000002"><a xlink:href="errno_8h.html" target="_top" xlink:title="Error macro definition for ARM Compiler.">
<polygon fill="white" stroke="#666666" points="129.14,-184 78.14,-184 78.14,-165 129.14,-165 129.14,-184"/>
<text text-anchor="middle" x="103.64" y="-172" font-family="Helvetica,sans-Serif" font-size="10.00">errno.h</text>
</a>
</g>
</g>
<!-- Node1&#45;&gt;Node2 -->
<g id="edge1_Node000001_Node000002" class="edge">
<title>Node1&#45;&gt;Node2</title>
<g id="a_edge1_Node000001_Node000002"><a xlink:title=" ">
<path fill="none" stroke="#63b8ff" d="M218.61,-274.88C198.62,-265.62 175.96,-253.42 157.64,-239 140.82,-225.77 125.41,-206.63 115.4,-192.83"/>
<polygon fill="#63b8ff" stroke="#63b8ff" points="117.99,-190.43 109.38,-184.27 112.27,-194.46 117.99,-190.43"/>
</a>
</g>
</g>
<!-- Node3 -->
<g id="Node000003" class="node">
<title>Node3</title>
<g id="a_Node000003"><a xlink:title=" ">
<polygon fill="#e0e0e0" stroke="#999999" points="138.64,-74 88.64,-74 88.64,-55 138.64,-55 138.64,-74"/>
<text text-anchor="middle" x="113.64" y="-62" font-family="Helvetica,sans-Serif" font-size="10.00">stdio.h</text>
</a>
</g>
</g>
<!-- Node1&#45;&gt;Node3 -->
<g id="edge2_Node000001_Node000003" class="edge">
<title>Node1&#45;&gt;Node3</title>
<g id="a_edge2_Node000001_Node000003"><a xlink:title=" ">
<path fill="none" stroke="#63b8ff" d="M264.86,-274.76C262.16,-259.28 257.18,-237.52 248.64,-220 219.79,-160.85 162.26,-106.6 132.48,-80.99"/>
<polygon fill="#63b8ff" stroke="#63b8ff" points="134.42,-78.05 124.53,-74.27 129.9,-83.4 134.42,-78.05"/>
</a>
</g>
</g>
<!-- Node4 -->
<g id="Node000004" class="node">
<title>Node4</title>
<g id="a_Node000004"><a xlink:title=" ">
<polygon fill="#e0e0e0" stroke="#999999" points="344.14,-19 291.14,-19 291.14,0 344.14,0 344.14,-19"/>
<text text-anchor="middle" x="317.64" y="-7" font-family="Helvetica,sans-Serif" font-size="10.00">stdlib.h</text>
</a>
</g>
</g>
<!-- Node1&#45;&gt;Node4 -->
<g id="edge3_Node000001_Node000004" class="edge">
<title>Node1&#45;&gt;Node4</title>
<g id="a_edge3_Node000001_Node000004"><a xlink:title=" ">
<path fill="none" stroke="#63b8ff" d="M199.46,-287.01C135.32,-278.63 45.38,-262.99 19.64,-239 -1.91,-218.92 0.64,-204.96 0.64,-175.5 0.64,-175.5 0.64,-175.5 0.64,-118.5 0.64,-76.17 33.6,-73.58 71.64,-55 140.31,-21.46 230.89,-13.01 280.76,-11"/>
<polygon fill="#63b8ff" stroke="#63b8ff" points="281.18,-14.49 291.05,-10.65 280.94,-7.49 281.18,-14.49"/>
</a>
</g>
</g>
<!-- Node5 -->
<g id="Node000005" class="node">
<title>Node5</title>
<g id="a_Node000005"><a xlink:title=" ">
<polygon fill="#e0e0e0" stroke="#999999" points="220.14,-239 167.14,-239 167.14,-220 220.14,-220 220.14,-239"/>
<text text-anchor="middle" x="193.64" y="-227" font-family="Helvetica,sans-Serif" font-size="10.00">string.h</text>
</a>
</g>
</g>
<!-- Node1&#45;&gt;Node5 -->
<g id="edge4_Node000001_Node000005" class="edge">
<title>Node1&#45;&gt;Node5</title>
<g id="a_edge4_Node000001_Node000005"><a xlink:title=" ">
<path fill="none" stroke="#63b8ff" d="M245.03,-274.95C234.27,-265.65 221.59,-254.68 211.52,-245.96"/>
<polygon fill="#63b8ff" stroke="#63b8ff" points="213.62,-243.15 203.77,-239.26 209.04,-248.45 213.62,-243.15"/>
</a>
</g>
</g>
<!-- Node6 -->
<g id="Node000006" class="node">
<title>Node6</title>
<g id="a_Node000006"><a xlink:href="no__os__alloc_8h.html" target="_top" xlink:title=" ">
<polygon fill="white" stroke="#666666" points="155.14,-129 72.14,-129 72.14,-110 155.14,-110 155.14,-129"/>
<text text-anchor="middle" x="113.64" y="-117" font-family="Helvetica,sans-Serif" font-size="10.00">no_os_alloc.h</text>
</a>
</g>
</g>
<!-- Node1&#45;&gt;Node6 -->
<g id="edge5_Node000001_Node000006" class="edge">
<title>Node1&#45;&gt;Node6</title>
<g id="a_edge5_Node000001_Node000006"><a xlink:title=" ">
<path fill="none" stroke="#63b8ff" d="M259.83,-274.95C252.99,-259.19 242.05,-236.94 228.64,-220 200.9,-184.98 159.58,-152.78 134.76,-134.98"/>
<polygon fill="#63b8ff" stroke="#63b8ff" points="136.61,-132 126.42,-129.09 132.57,-137.71 136.61,-132"/>
</a>
</g>
</g>
<!-- Node7 -->
<g id="Node000007" class="node">
<title>Node7</title>
<g id="a_Node000007"><a xlink:href="no__os__error_8h.html" target="_top" xlink:title="Error codes definition.">
<polygon fill="white" stroke="#666666" points="110.64,-239 28.64,-239 28.64,-220 110.64,-220 110.64,-239"/>
<text text-anchor="middle" x="69.64" y="-227" font-family="Helvetica,sans-Serif" font-size="10.00">no_os_error.h</text>
</a>
</g>
</g>
<!-- Node1&#45;&gt;Node7 -->
<g id="edge8_Node000001_Node000007" class="edge">
<title>Node1&#45;&gt;Node7</title>
<g id="a_edge8_Node000001_Node000007"><a xlink:title=" ">
<path fill="none" stroke="#63b8ff" d="M207.16,-274.95C174.03,-264.24 134.1,-251.34 105.82,-242.19"/>
<polygon fill="#63b8ff" stroke="#63b8ff" points="106.55,-238.75 95.96,-239.01 104.4,-245.41 106.55,-238.75"/>
</a>
</g>
</g>
<!-- Node8 -->
<g id="Node000008" class="node">
<title>Node8</title>
<g id="a_Node000008"><a xlink:href="no__os__units_8h.html" target="_top" xlink:title="Header file of Units.">
<polygon fill="white" stroke="#666666" points="240.14,-74 157.14,-74 157.14,-55 240.14,-55 240.14,-74"/>
<text text-anchor="middle" x="198.64" y="-62" font-family="Helvetica,sans-Serif" font-size="10.00">no_os_units.h</text>
</a>
</g>
</g>
<!-- Node1&#45;&gt;Node8 -->
<g id="edge10_Node000001_Node000008" class="edge">
<title>Node1&#45;&gt;Node8</title>
<g id="a_edge10_Node000001_Node000008"><a xlink:title=" ">
<path fill="none" stroke="#63b8ff" d="M282.84,-274.88C289.72,-264.76 297.1,-251.86 300.64,-239 315.83,-183.72 332.04,-157.97 300.64,-110 289.19,-92.51 269.19,-81.85 249.92,-75.38"/>
<polygon fill="#63b8ff" stroke="#63b8ff" points="250.84,-72 240.26,-72.44 248.81,-78.7 250.84,-72"/>
</a>
</g>
</g>
<!-- Node9 -->
<g id="Node000009" class="node">
<title>Node9</title>
<g id="a_Node000009"><a xlink:href="no__os__util_8h.html" target="_top" xlink:title="Header file of utility functions.">
<polygon fill="white" stroke="#666666" points="562.14,-74 487.14,-74 487.14,-55 562.14,-55 562.14,-74"/>
<text text-anchor="middle" x="524.64" y="-62" font-family="Helvetica,sans-Serif" font-size="10.00">no_os_util.h</text>
</a>
</g>
</g>
<!-- Node1&#45;&gt;Node9 -->
<g id="edge11_Node000001_Node000009" class="edge">
<title>Node1&#45;&gt;Node9</title>
<g id="a_edge11_Node000001_Node000009"><a xlink:title=" ">
<path fill="none" stroke="#63b8ff" d="M304.07,-274.85C321.03,-265.01 341.06,-252.37 357.64,-239 420.71,-188.15 483.98,-114.87 511.02,-82.25"/>
<polygon fill="#63b8ff" stroke="#63b8ff" points="514,-84.13 517.65,-74.18 508.59,-79.69 514,-84.13"/>
</a>
</g>
</g>
<!-- Node12 -->
<g id="Node000012" class="node">
<title>Node12</title>
<g id="a_Node000012"><a xlink:href="ltc7871_8h.html" target="_top" xlink:title="Header file for the LTC7871 Driver.">
<polygon fill="white" stroke="#666666" points="414.64,-129 352.64,-129 352.64,-110 414.64,-110 414.64,-129"/>
<text text-anchor="middle" x="383.64" y="-117" font-family="Helvetica,sans-Serif" font-size="10.00">ltc7871.h</text>
</a>
</g>
</g>
<!-- Node1&#45;&gt;Node12 -->
<g id="edge15_Node000001_Node000012" class="edge">
<title>Node1&#45;&gt;Node12</title>
<g id="a_edge15_Node000001_Node000012"><a xlink:title=" ">
<path fill="none" stroke="#63b8ff" d="M299.89,-274.96C313.35,-265.49 328.24,-253.11 338.64,-239 361.62,-207.81 374.27,-163.48 379.94,-138.83"/>
<polygon fill="#63b8ff" stroke="#63b8ff" points="383.37,-139.52 382.06,-129.01 376.53,-138.05 383.37,-139.52"/>
</a>
</g>
</g>
<!-- Node15 -->
<g id="Node000015" class="node">
<title>Node15</title>
<g id="a_Node000015"><a xlink:href="iio__ltc7871_8h.html" target="_top" xlink:title=" ">
<polygon fill="white" stroke="#666666" points="706.14,-239 627.14,-239 627.14,-220 706.14,-220 706.14,-239"/>
<text text-anchor="middle" x="666.64" y="-227" font-family="Helvetica,sans-Serif" font-size="10.00">iio_ltc7871.h</text>
</a>
</g>
</g>
<!-- Node1&#45;&gt;Node15 -->
<g id="edge25_Node000001_Node000015" class="edge">
<title>Node1&#45;&gt;Node15</title>
<g id="a_edge25_Node000001_Node000015"><a xlink:title=" ">
<path fill="none" stroke="#63b8ff" d="M335.78,-283.57C415.65,-270.76 546.09,-249.84 616.98,-238.47"/>
<polygon fill="#63b8ff" stroke="#63b8ff" points="617.67,-241.9 626.99,-236.86 616.56,-234.99 617.67,-241.9"/>
</a>
</g>
</g>
<!-- Node6&#45;&gt;Node3 -->
<g id="edge6_Node000006_Node000003" class="edge">
<title>Node6&#45;&gt;Node3</title>
<g id="a_edge6_Node000006_Node000003"><a xlink:title=" ">
<path fill="none" stroke="#63b8ff" d="M113.64,-109.75C113.64,-102.8 113.64,-92.85 113.64,-84.13"/>
<polygon fill="#63b8ff" stroke="#63b8ff" points="117.14,-84.09 113.64,-74.09 110.14,-84.09 117.14,-84.09"/>
</a>
</g>
</g>
<!-- Node6&#45;&gt;Node4 -->
<g id="edge7_Node000006_Node000004" class="edge">
<title>Node6&#45;&gt;Node4</title>
<g id="a_edge7_Node000006_Node000004"><a xlink:title=" ">
<path fill="none" stroke="#63b8ff" d="M102.63,-109.61C87.91,-96.68 65.26,-72.32 79.64,-55 104.78,-24.72 220.48,-14.93 280.81,-11.85"/>
<polygon fill="#63b8ff" stroke="#63b8ff" points="281.22,-15.34 291.04,-11.37 280.89,-8.35 281.22,-15.34"/>
</a>
</g>
</g>
<!-- Node7&#45;&gt;Node2 -->
<g id="edge9_Node000007_Node000002" class="edge">
<title>Node7&#45;&gt;Node2</title>
<g id="a_edge9_Node000007_Node000002"><a xlink:title=" ">
<path fill="none" stroke="#63b8ff" d="M75.25,-219.75C79.96,-212.42 86.81,-201.73 92.61,-192.7"/>
<polygon fill="#63b8ff" stroke="#63b8ff" points="95.67,-194.4 98.13,-184.09 89.78,-190.62 95.67,-194.4"/>
</a>
</g>
</g>
<!-- Node9&#45;&gt;Node4 -->
<g id="edge13_Node000009_Node000004" class="edge">
<title>Node9&#45;&gt;Node4</title>
<g id="a_edge13_Node000009_Node000004"><a xlink:title=" ">
<path fill="none" stroke="#63b8ff" d="M491.38,-54.98C453.82,-45.37 392.9,-29.77 354.08,-19.83"/>
<polygon fill="#63b8ff" stroke="#63b8ff" points="354.79,-16.4 344.23,-17.31 353.05,-23.18 354.79,-16.4"/>
</a>
</g>
</g>
<!-- Node10 -->
<g id="Node000010" class="node">
<title>Node10</title>
<g id="a_Node000010"><a xlink:title=" ">
<polygon fill="#e0e0e0" stroke="#999999" points="611.14,-19 558.14,-19 558.14,0 611.14,0 611.14,-19"/>
<text text-anchor="middle" x="584.64" y="-7" font-family="Helvetica,sans-Serif" font-size="10.00">stdint.h</text>
</a>
</g>
</g>
<!-- Node9&#45;&gt;Node10 -->
<g id="edge12_Node000009_Node000010" class="edge">
<title>Node9&#45;&gt;Node10</title>
<g id="a_edge12_Node000009_Node000010"><a xlink:title=" ">
<path fill="none" stroke="#63b8ff" d="M534.28,-54.98C543.15,-47.15 556.51,-35.34 567.25,-25.86"/>
<polygon fill="#63b8ff" stroke="#63b8ff" points="569.64,-28.41 574.82,-19.17 565.01,-23.17 569.64,-28.41"/>
</a>
</g>
</g>
<!-- Node11 -->
<g id="Node000011" class="node">
<title>Node11</title>
<g id="a_Node000011"><a xlink:title=" ">
<polygon fill="#e0e0e0" stroke="#999999" points="980.64,-19 918.64,-19 918.64,0 980.64,0 980.64,-19"/>
<text text-anchor="middle" x="949.64" y="-7" font-family="Helvetica,sans-Serif" font-size="10.00">stdbool.h</text>
</a>
</g>
</g>
<!-- Node9&#45;&gt;Node11 -->
<g id="edge14_Node000009_Node000011" class="edge">
<title>Node9&#45;&gt;Node11</title>
<g id="a_edge14_Node000009_Node000011"><a xlink:title=" ">
<path fill="none" stroke="#63b8ff" d="M562.31,-56.47C565.46,-55.95 568.6,-55.45 571.64,-55 693.48,-36.83 838.33,-21.52 908.06,-14.55"/>
<polygon fill="#63b8ff" stroke="#63b8ff" points="908.58,-18.01 918.19,-13.54 907.89,-11.05 908.58,-18.01"/>
</a>
</g>
</g>
<!-- Node12&#45;&gt;Node3 -->
<g id="edge18_Node000012_Node000003" class="edge">
<title>Node12&#45;&gt;Node3</title>
<g id="a_edge18_Node000012_Node000003"><a xlink:title=" ">
<path fill="none" stroke="#63b8ff" d="M352.6,-113.24C309.21,-105.77 227.78,-91.27 148.95,-74.18"/>
<polygon fill="#63b8ff" stroke="#63b8ff" points="149.37,-70.69 138.85,-71.98 147.87,-77.53 149.37,-70.69"/>
</a>
</g>
</g>
<!-- Node12&#45;&gt;Node8 -->
<g id="edge23_Node000012_Node000008" class="edge">
<title>Node12&#45;&gt;Node8</title>
<g id="a_edge23_Node000012_Node000008"><a xlink:title=" ">
<path fill="none" stroke="#63b8ff" d="M353.91,-109.98C322.59,-101.01 273.07,-86.82 238.4,-76.89"/>
<polygon fill="#63b8ff" stroke="#63b8ff" points="239.17,-73.47 228.59,-74.08 237.24,-80.2 239.17,-73.47"/>
</a>
</g>
</g>
<!-- Node12&#45;&gt;Node9 -->
<g id="edge24_Node000012_Node000009" class="edge">
<title>Node12&#45;&gt;Node9</title>
<g id="a_edge24_Node000012_Node000009"><a xlink:title=" ">
<path fill="none" stroke="#63b8ff" d="M406.29,-109.98C429.49,-101.27 465.76,-87.63 492.04,-77.75"/>
<polygon fill="#63b8ff" stroke="#63b8ff" points="493.44,-80.97 501.57,-74.17 490.98,-74.41 493.44,-80.97"/>
</a>
</g>
</g>
<!-- Node12&#45;&gt;Node10 -->
<g id="edge17_Node000012_Node000010" class="edge">
<title>Node12&#45;&gt;Node10</title>
<g id="a_edge17_Node000012_Node000010"><a xlink:title=" ">
<path fill="none" stroke="#63b8ff" d="M379.67,-109.57C374.36,-96.14 367.02,-70.65 379.64,-55 400.37,-29.28 494.66,-17.67 547.85,-13.08"/>
<polygon fill="#63b8ff" stroke="#63b8ff" points="548.22,-16.56 557.9,-12.26 547.65,-9.59 548.22,-16.56"/>
</a>
</g>
</g>
<!-- Node12&#45;&gt;Node11 -->
<g id="edge16_Node000012_Node000011" class="edge">
<title>Node12&#45;&gt;Node11</title>
<g id="a_edge16_Node000012_Node000011"><a xlink:title=" ">
<path fill="none" stroke="#63b8ff" d="M414.82,-117.52C521.77,-113.93 869.44,-100.33 911.64,-74 927.95,-63.82 938.18,-43.84 943.86,-29"/>
<polygon fill="#63b8ff" stroke="#63b8ff" points="947.25,-29.9 947.22,-19.31 940.64,-27.61 947.25,-29.9"/>
</a>
</g>
</g>
<!-- Node13 -->
<g id="Node000013" class="node">
<title>Node13</title>
<g id="a_Node000013"><a xlink:href="no__os__gpio_8h.html" target="_top" xlink:title="Header file of GPIO Interface.">
<polygon fill="white" stroke="#666666" points="468.64,-74 388.64,-74 388.64,-55 468.64,-55 468.64,-74"/>
<text text-anchor="middle" x="428.64" y="-62" font-family="Helvetica,sans-Serif" font-size="10.00">no_os_gpio.h</text>
</a>
</g>
</g>
<!-- Node12&#45;&gt;Node13 -->
<g id="edge19_Node000012_Node000013" class="edge">
<title>Node12&#45;&gt;Node13</title>
<g id="a_edge19_Node000012_Node000013"><a xlink:title=" ">
<path fill="none" stroke="#63b8ff" d="M391.07,-109.75C397.49,-102.18 406.94,-91.05 414.76,-81.84"/>
<polygon fill="#63b8ff" stroke="#63b8ff" points="417.54,-83.98 421.35,-74.09 412.21,-79.45 417.54,-83.98"/>
</a>
</g>
</g>
<!-- Node14 -->
<g id="Node000014" class="node">
<title>Node14</title>
<g id="a_Node000014"><a xlink:href="no__os__spi_8h.html" target="_top" xlink:title="Header file of SPI Interface.">
<polygon fill="white" stroke="#666666" points="332.64,-74 258.64,-74 258.64,-55 332.64,-55 332.64,-74"/>
<text text-anchor="middle" x="295.64" y="-62" font-family="Helvetica,sans-Serif" font-size="10.00">no_os_spi.h</text>
</a>
</g>
</g>
<!-- Node12&#45;&gt;Node14 -->
<g id="edge21_Node000012_Node000014" class="edge">
<title>Node12&#45;&gt;Node14</title>
<g id="a_edge21_Node000012_Node000014"><a xlink:title=" ">
<path fill="none" stroke="#63b8ff" d="M369.5,-109.98C355.85,-101.77 334.95,-89.18 318.86,-79.49"/>
<polygon fill="#63b8ff" stroke="#63b8ff" points="320.41,-76.33 310.03,-74.17 316.79,-82.33 320.41,-76.33"/>
</a>
</g>
</g>
<!-- Node13&#45;&gt;Node10 -->
<g id="edge20_Node000013_Node000010" class="edge">
<title>Node13&#45;&gt;Node10</title>
<g id="a_edge20_Node000013_Node000010"><a xlink:title=" ">
<path fill="none" stroke="#63b8ff" d="M453.7,-54.98C479.67,-46.16 520.45,-32.31 549.6,-22.41"/>
<polygon fill="#63b8ff" stroke="#63b8ff" points="551.03,-25.61 559.38,-19.08 548.78,-18.99 551.03,-25.61"/>
</a>
</g>
</g>
<!-- Node14&#45;&gt;Node10 -->
<g id="edge22_Node000014_Node000010" class="edge">
<title>Node14&#45;&gt;Node10</title>
<g id="a_edge22_Node000014_Node000010"><a xlink:title=" ">
<path fill="none" stroke="#63b8ff" d="M332.83,-56.68C388.4,-46.49 492.47,-27.4 547.82,-17.25"/>
<polygon fill="#63b8ff" stroke="#63b8ff" points="548.69,-20.65 557.89,-15.41 547.42,-13.77 548.69,-20.65"/>
</a>
</g>
</g>
<!-- Node15&#45;&gt;Node11 -->
<g id="edge26_Node000015_Node000011" class="edge">
<title>Node15&#45;&gt;Node11</title>
<g id="a_edge26_Node000015_Node000011"><a xlink:title=" ">
<path fill="none" stroke="#63b8ff" d="M706.27,-223.91C779.59,-213.03 934.77,-178.2 998.64,-74 1009.64,-56.04 990.54,-37.14 973.06,-24.68"/>
<polygon fill="#63b8ff" stroke="#63b8ff" points="975.01,-21.77 964.75,-19.11 971.11,-27.58 975.01,-21.77"/>
</a>
</g>
</g>
<!-- Node15&#45;&gt;Node12 -->
<g id="edge40_Node000015_Node000012" class="edge">
<title>Node15&#45;&gt;Node12</title>
<g id="a_edge40_Node000015_Node000012"><a xlink:title=" ">
<path fill="none" stroke="#63b8ff" d="M643.96,-219.84C593.74,-200.68 473.07,-154.63 415.39,-132.62"/>
<polygon fill="#63b8ff" stroke="#63b8ff" points="416.62,-129.34 406.03,-129.05 414.13,-135.88 416.62,-129.34"/>
</a>
</g>
</g>
<!-- Node16 -->
<g id="Node000016" class="node">
<title>Node16</title>
<g id="a_Node000016"><a xlink:href="iio_8h.html" target="_top" xlink:title="Header file of iio.">
<polygon fill="white" stroke="#666666" points="755.64,-184 717.64,-184 717.64,-165 755.64,-165 755.64,-184"/>
<text text-anchor="middle" x="736.64" y="-172" font-family="Helvetica,sans-Serif" font-size="10.00">iio.h</text>
</a>
</g>
</g>
<!-- Node15&#45;&gt;Node16 -->
<g id="edge27_Node000015_Node000016" class="edge">
<title>Node15&#45;&gt;Node16</title>
<g id="a_edge27_Node000015_Node000016"><a xlink:title=" ">
<path fill="none" stroke="#63b8ff" d="M677.88,-219.98C688.44,-212 704.44,-199.88 717.08,-190.31"/>
<polygon fill="#63b8ff" stroke="#63b8ff" points="719.33,-193 725.19,-184.17 715.1,-187.42 719.33,-193"/>
</a>
</g>
</g>
<!-- Node17 -->
<g id="Node000017" class="node">
<title>Node17</title>
<g id="a_Node000017"><a xlink:href="iio__types_8h.html" target="_top" xlink:title="Header file for iio_types.">
<polygon fill="white" stroke="#666666" points="771.64,-129 701.64,-129 701.64,-110 771.64,-110 771.64,-129"/>
<text text-anchor="middle" x="736.64" y="-117" font-family="Helvetica,sans-Serif" font-size="10.00">iio_types.h</text>
</a>
</g>
</g>
<!-- Node16&#45;&gt;Node17 -->
<g id="edge28_Node000016_Node000017" class="edge">
<title>Node16&#45;&gt;Node17</title>
<g id="a_edge28_Node000016_Node000017"><a xlink:title=" ">
<path fill="none" stroke="#63b8ff" d="M736.64,-164.75C736.64,-157.8 736.64,-147.85 736.64,-139.13"/>
<polygon fill="#63b8ff" stroke="#63b8ff" points="740.14,-139.09 736.64,-129.09 733.14,-139.09 740.14,-139.09"/>
</a>
</g>
</g>
<!-- Node19 -->
<g id="Node000019" class="node">
<title>Node19</title>
<g id="a_Node000019"><a xlink:href="no__os__uart_8h.html" target="_top" xlink:title="Header file of UART interface.">
<polygon fill="white" stroke="#666666" points="881.14,-129 802.14,-129 802.14,-110 881.14,-110 881.14,-129"/>
<text text-anchor="middle" x="841.64" y="-117" font-family="Helvetica,sans-Serif" font-size="10.00">no_os_uart.h</text>
</a>
</g>
</g>
<!-- Node16&#45;&gt;Node19 -->
<g id="edge33_Node000016_Node000019" class="edge">
<title>Node16&#45;&gt;Node19</title>
<g id="a_edge33_Node000016_Node000019"><a xlink:title=" ">
<path fill="none" stroke="#63b8ff" d="M753.51,-164.98C770.25,-156.54 796.14,-143.47 815.53,-133.68"/>
<polygon fill="#63b8ff" stroke="#63b8ff" points="817.11,-136.8 824.46,-129.17 813.96,-130.55 817.11,-136.8"/>
</a>
</g>
</g>
<!-- Node17&#45;&gt;Node10 -->
<g id="edge30_Node000017_Node000010" class="edge">
<title>Node17&#45;&gt;Node10</title>
<g id="a_edge30_Node000017_Node000010"><a xlink:title=" ">
<path fill="none" stroke="#63b8ff" d="M736.47,-109.87C735.74,-96.36 732.37,-70.21 717.64,-55 692.26,-28.79 651.03,-18.02 621.19,-13.59"/>
<polygon fill="#63b8ff" stroke="#63b8ff" points="621.53,-10.1 611.16,-12.27 620.62,-17.04 621.53,-10.1"/>
</a>
</g>
</g>
<!-- Node17&#45;&gt;Node11 -->
<g id="edge29_Node000017_Node000011" class="edge">
<title>Node17&#45;&gt;Node11</title>
<g id="a_edge29_Node000017_Node000011"><a xlink:title=" ">
<path fill="none" stroke="#63b8ff" d="M771.8,-113.31C828.09,-104.65 933.29,-86.95 944.64,-74 955.22,-61.92 955.4,-43.12 953.58,-29.1"/>
<polygon fill="#63b8ff" stroke="#63b8ff" points="957.01,-28.37 951.86,-19.11 950.11,-29.56 957.01,-28.37"/>
</a>
</g>
</g>
<!-- Node18 -->
<g id="Node000018" class="node">
<title>Node18</title>
<g id="a_Node000018"><a xlink:href="no__os__circular__buffer_8h.html" target="_top" xlink:title="Circular buffer library header.">
<polygon fill="white" stroke="#666666" points="708.64,-74 580.64,-74 580.64,-55 708.64,-55 708.64,-74"/>
<text text-anchor="middle" x="644.64" y="-62" font-family="Helvetica,sans-Serif" font-size="10.00">no_os_circular_buffer.h</text>
</a>
</g>
</g>
<!-- Node17&#45;&gt;Node18 -->
<g id="edge31_Node000017_Node000018" class="edge">
<title>Node17&#45;&gt;Node18</title>
<g id="a_edge31_Node000017_Node000018"><a xlink:title=" ">
<path fill="none" stroke="#63b8ff" d="M721.86,-109.98C707.46,-101.69 685.33,-88.94 668.45,-79.22"/>
<polygon fill="#63b8ff" stroke="#63b8ff" points="670.1,-76.13 659.69,-74.17 666.61,-82.19 670.1,-76.13"/>
</a>
</g>
</g>
<!-- Node18&#45;&gt;Node10 -->
<g id="edge32_Node000018_Node000010" class="edge">
<title>Node18&#45;&gt;Node10</title>
<g id="a_edge32_Node000018_Node000010"><a xlink:title=" ">
<path fill="none" stroke="#63b8ff" d="M635,-54.98C626.13,-47.15 612.76,-35.34 602.03,-25.86"/>
<polygon fill="#63b8ff" stroke="#63b8ff" points="604.27,-23.17 594.45,-19.17 599.63,-28.41 604.27,-23.17"/>
</a>
</g>
</g>
<!-- Node19&#45;&gt;Node10 -->
<g id="edge34_Node000019_Node000010" class="edge">
<title>Node19&#45;&gt;Node10</title>
<g id="a_edge34_Node000019_Node000010"><a xlink:title=" ">
<path fill="none" stroke="#63b8ff" d="M829.6,-109.78C810.65,-96.4 772.32,-70.7 736.64,-55 698.65,-38.29 652.62,-25.82 621.23,-18.39"/>
<polygon fill="#63b8ff" stroke="#63b8ff" points="621.71,-14.91 611.18,-16.07 620.14,-21.73 621.71,-14.91"/>
</a>
</g>
</g>
<!-- Node19&#45;&gt;Node11 -->
<g id="edge35_Node000019_Node000011" class="edge">
<title>Node19&#45;&gt;Node11</title>
<g id="a_edge35_Node000019_Node000011"><a xlink:title=" ">
<path fill="none" stroke="#63b8ff" d="M881.45,-117.99C914.49,-115.19 959.65,-105.37 982.64,-74 993.69,-58.92 980.35,-39.63 967.47,-26.29"/>
<polygon fill="#63b8ff" stroke="#63b8ff" points="969.76,-23.63 960.13,-19.2 964.89,-28.66 969.76,-23.63"/>
</a>
</g>
</g>
<!-- Node20 -->
<g id="Node000020" class="node">
<title>Node20</title>
<g id="a_Node000020"><a xlink:href="no__os__lf256fifo_8h.html" target="_top" xlink:title="SPSC lock&#45;free fifo of fixed size (256), specialized for UART.">
<polygon fill="white" stroke="#666666" points="902.64,-74 802.64,-74 802.64,-55 902.64,-55 902.64,-74"/>
<text text-anchor="middle" x="852.64" y="-62" font-family="Helvetica,sans-Serif" font-size="10.00">no_os_lf256fifo.h</text>
</a>
</g>
</g>
<!-- Node19&#45;&gt;Node20 -->
<g id="edge36_Node000019_Node000020" class="edge">
<title>Node19&#45;&gt;Node20</title>
<g id="a_edge36_Node000019_Node000020"><a xlink:title=" ">
<path fill="none" stroke="#63b8ff" d="M843.45,-109.75C844.9,-102.8 846.96,-92.85 848.77,-84.13"/>
<polygon fill="#63b8ff" stroke="#63b8ff" points="852.25,-84.59 850.86,-74.09 845.4,-83.17 852.25,-84.59"/>
</a>
</g>
</g>
<!-- Node20&#45;&gt;Node4 -->
<g id="edge37_Node000020_Node000004" class="edge">
<title>Node20&#45;&gt;Node4</title>
<g id="a_edge37_Node000020_Node000004"><a xlink:title=" ">
<path fill="none" stroke="#63b8ff" d="M802.31,-58.51C695.48,-47.93 448.21,-23.44 354.52,-14.15"/>
<polygon fill="#63b8ff" stroke="#63b8ff" points="354.69,-10.65 344.39,-13.15 354,-17.62 354.69,-10.65"/>
</a>
</g>
</g>
<!-- Node20&#45;&gt;Node10 -->
<g id="edge38_Node000020_Node000010" class="edge">
<title>Node20&#45;&gt;Node10</title>
<g id="a_edge38_Node000020_Node000010"><a xlink:title=" ">
<path fill="none" stroke="#63b8ff" d="M809.58,-54.98C757.36,-44.66 670.26,-27.43 621.18,-17.73"/>
<polygon fill="#63b8ff" stroke="#63b8ff" points="621.79,-14.28 611.3,-15.77 620.43,-21.15 621.79,-14.28"/>
</a>
</g>
</g>
<!-- Node20&#45;&gt;Node11 -->
<g id="edge39_Node000020_Node000011" class="edge">
<title>Node20&#45;&gt;Node11</title>
<g id="a_edge39_Node000020_Node000011"><a xlink:title=" ">
<path fill="none" stroke="#63b8ff" d="M868.22,-54.98C883.41,-46.69 906.74,-33.94 924.54,-24.22"/>
<polygon fill="#63b8ff" stroke="#63b8ff" points="926.67,-27.04 933.77,-19.17 923.32,-20.89 926.67,-27.04"/>
</a>
</g>
</g>
</g>
</svg>
