<?xml version="1.0" encoding="UTF-8" standalone="no"?>
<!DOCTYPE svg PUBLIC "-//W3C//DTD SVG 1.1//EN"
 "http://www.w3.org/Graphics/SVG/1.1/DTD/svg11.dtd">
<!-- Generated by graphviz version 2.43.0 (0)
 -->
<!-- Title: /home/runner/work/no&#45;OS/no&#45;OS/drivers/accel/adxl355/iio_adxl355.h Pages: 1 -->
<!--zoomable 148 -->

<svg id="main" version="1.1" xmlns="http://www.w3.org/2000/svg" xmlns:xlink="http://www.w3.org/1999/xlink" xml:space="preserve" onload="init(evt)">

<style type="text/css"><![CDATA[
.node, .edge {opacity: 0.7;}
.node.selected, .edge.selected {opacity: 1;}
.edge:hover path { stroke: red; }
.edge:hover polygon { stroke: red; fill: red; }
]]></style>

<defs>
  <circle id="rim" cx="0" cy="0" r="7"/>
  <circle id="rim2" cx="0" cy="0" r="3.5"/>
  <g id="zoomPlus">
    <use xlink:href="#rim" fill="#404040"><set attributeName="fill" to="#808080" begin="zoomplus.mouseover" end="zoomplus.mouseout"/></use>
    <path d="M-4,0h8M0,-4v8" fill="none" stroke="white" stroke-width="1.5" pointer-events="none"/>
  </g>
  <g id="zoomMin">
    <use xlink:href="#rim" fill="#404040"><set attributeName="fill" to="#808080" begin="zoomminus.mouseover" end="zoomminus.mouseout"/></use>
    <path d="M-4,0h8" fill="none" stroke="white" stroke-width="1.5" pointer-events="none"/>
  </g>
  <g id="arrowUp" transform="translate(30 24)">
    <use xlink:href="#rim"/>
    <path pointer-events="none" fill="none" stroke="white" stroke-width="1.5" d="M0,-3.0v7 M-2.5,-0.5L0,-3.0L2.5,-0.5"/>
  </g>
  <g id="arrowRight" transform="rotate(90) translate(36 -43)">
    <use xlink:href="#rim"/>
    <path pointer-events="none" fill="none" stroke="white" stroke-width="1.5" d="M0,-3.0v7 M-2.5,-0.5L0,-3.0L2.5,-0.5"/>
  </g>
  <g id="arrowDown" transform="rotate(180) translate(-30 -48)">
    <use xlink:href="#rim"/>
    <path pointer-events="none" fill="none" stroke="white" stroke-width="1.5" d="M0,-3.0v7 M-2.5,-0.5L0,-3.0L2.5,-0.5"/>
  </g>
  <g id="arrowLeft" transform="rotate(270) translate(-36 17)">
    <use xlink:href="#rim"/>
    <path pointer-events="none" fill="none" stroke="white" stroke-width="1.5" d="M0,-3.0v7 M-2.5,-0.5L0,-3.0L2.5,-0.5"/>
  </g>
  <g id="resetDef">
    <use xlink:href="#rim2" fill="#404040"><set attributeName="fill" to="#808080" begin="reset.mouseover" end="reset.mouseout"/></use>
  </g>
</defs>
<script type="application/ecmascript">
var viewWidth = 680;
var viewHeight = 148;
var sectionId = 'dynsection-1';
</script>
<script type="application/ecmascript" xlink:href="svg.min.js"/>
<svg id="graph" class="graph">
<g id="viewport">
<title>/home/runner/work/no&#45;OS/no&#45;OS/drivers/accel/adxl355/iio_adxl355.h</title>
<!-- Node1 -->
<g id="Node000001" class="node">
<title>Node1</title>
<g id="a_Node000001"><a xlink:title="Header file of IIO ADXL355 Driver.">
<polygon fill="#999999" stroke="#666666" points="382,-140 251,-140 251,-99 382,-99 382,-140"/>
<text text-anchor="start" x="259" y="-128" font-family="Helvetica,sans-Serif" font-size="10.00">/home/runner/work/no</text>
<text text-anchor="start" x="259" y="-117" font-family="Helvetica,sans-Serif" font-size="10.00">&#45;OS/no&#45;OS/drivers/accel</text>
<text text-anchor="middle" x="316.5" y="-106" font-family="Helvetica,sans-Serif" font-size="10.00">/adxl355/iio_adxl355.h</text>
</a>
</g>
</g>
<!-- Node2 -->
<g id="Node000002" class="node">
<title>Node2</title>
<g id="a_Node000002"><a xlink:href="iio__adxl355_8c.html" target="_top" xlink:title="Implementation of IIO ADXL355 Driver.">
<polygon fill="white" stroke="#666666" points="131,-52 0,-52 0,-11 131,-11 131,-52"/>
<text text-anchor="start" x="8" y="-40" font-family="Helvetica,sans-Serif" font-size="10.00">/home/runner/work/no</text>
<text text-anchor="start" x="8" y="-29" font-family="Helvetica,sans-Serif" font-size="10.00">&#45;OS/no&#45;OS/drivers/accel</text>
<text text-anchor="middle" x="65.5" y="-18" font-family="Helvetica,sans-Serif" font-size="10.00">/adxl355/iio_adxl355.c</text>
</a>
</g>
</g>
<!-- Node1&#45;&gt;Node2 -->
<g id="edge1_Node000001_Node000002" class="edge">
<title>Node1&#45;&gt;Node2</title>
<g id="a_edge1_Node000001_Node000002"><a xlink:title=" ">
<path fill="none" stroke="#63b8ff" d="M240.93,-96.14C209.65,-86.5 173.14,-74.76 140.5,-63 131.24,-59.66 121.44,-55.87 112.08,-52.12"/>
<polygon fill="#63b8ff" stroke="#63b8ff" points="240.3,-99.6 250.89,-99.19 242.35,-92.91 240.3,-99.6"/>
</a>
</g>
</g>
<!-- Node3 -->
<g id="Node000003" class="node">
<title>Node3</title>
<g id="a_Node000003"><a xlink:href="eval-adxl355-pmdz_2src_2examples_2iio__example_2iio__example_8c.html" target="_top" xlink:title="Implementation of IIO example for eval&#45;adxl355&#45;pmdz project.">
<polygon fill="white" stroke="#666666" points="307.5,-57.5 149.5,-57.5 149.5,-5.5 307.5,-5.5 307.5,-57.5"/>
<text text-anchor="start" x="157.5" y="-45.5" font-family="Helvetica,sans-Serif" font-size="10.00">/home/runner/work/no</text>
<text text-anchor="start" x="157.5" y="-34.5" font-family="Helvetica,sans-Serif" font-size="10.00">&#45;OS/no&#45;OS/projects/eval</text>
<text text-anchor="start" x="157.5" y="-23.5" font-family="Helvetica,sans-Serif" font-size="10.00">&#45;adxl355&#45;pmdz/src/examples</text>
<text text-anchor="middle" x="228.5" y="-12.5" font-family="Helvetica,sans-Serif" font-size="10.00">/iio_example/iio_example.c</text>
</a>
</g>
</g>
<!-- Node1&#45;&gt;Node3 -->
<g id="edge2_Node000001_Node000003" class="edge">
<title>Node1&#45;&gt;Node3</title>
<g id="a_edge2_Node000001_Node000003"><a xlink:title=" ">
<path fill="none" stroke="#63b8ff" d="M289.16,-91.79C278.08,-80.95 265.34,-68.5 254.41,-57.82"/>
<polygon fill="#63b8ff" stroke="#63b8ff" points="286.93,-94.5 296.53,-98.99 291.83,-89.49 286.93,-94.5"/>
</a>
</g>
</g>
<!-- Node4 -->
<g id="Node000004" class="node">
<title>Node4</title>
<g id="a_Node000004"><a xlink:href="iio__lwip__example_8c.html" target="_top" xlink:title="Implementation of IIO LWIP example for eval&#45;adxl355&#45;pmdz project.">
<polygon fill="white" stroke="#666666" points="483.5,-63 325.5,-63 325.5,0 483.5,0 483.5,-63"/>
<text text-anchor="start" x="333.5" y="-51" font-family="Helvetica,sans-Serif" font-size="10.00">/home/runner/work/no</text>
<text text-anchor="start" x="333.5" y="-40" font-family="Helvetica,sans-Serif" font-size="10.00">&#45;OS/no&#45;OS/projects/eval</text>
<text text-anchor="start" x="333.5" y="-29" font-family="Helvetica,sans-Serif" font-size="10.00">&#45;adxl355&#45;pmdz/src/examples</text>
<text text-anchor="start" x="333.5" y="-18" font-family="Helvetica,sans-Serif" font-size="10.00">/iio_lwip_example/iio_lwip</text>
<text text-anchor="middle" x="404.5" y="-7" font-family="Helvetica,sans-Serif" font-size="10.00">_example.c</text>
</a>
</g>
</g>
<!-- Node1&#45;&gt;Node4 -->
<g id="edge3_Node000001_Node000004" class="edge">
<title>Node1&#45;&gt;Node4</title>
<g id="a_edge3_Node000001_Node000004"><a xlink:title=" ">
<path fill="none" stroke="#63b8ff" d="M343.67,-91.95C353.02,-82.81 363.57,-72.5 373.22,-63.07"/>
<polygon fill="#63b8ff" stroke="#63b8ff" points="341.17,-89.49 336.47,-98.99 346.07,-94.5 341.17,-89.49"/>
</a>
</g>
</g>
<!-- Node5 -->
<g id="Node000005" class="node">
<title>Node5</title>
<g id="a_Node000005"><a xlink:href="eval-adxl355-pmdz_2src_2examples_2iio__trigger__example_2iio__trigger__example_8c.html" target="_top" xlink:title="Implementation of IIO trigger example for eval&#45;adxl355&#45;pmdz project.">
<polygon fill="white" stroke="#666666" points="671.5,-63 501.5,-63 501.5,0 671.5,0 671.5,-63"/>
<text text-anchor="start" x="509.5" y="-51" font-family="Helvetica,sans-Serif" font-size="10.00">/home/runner/work/no</text>
<text text-anchor="start" x="509.5" y="-40" font-family="Helvetica,sans-Serif" font-size="10.00">&#45;OS/no&#45;OS/projects/eval</text>
<text text-anchor="start" x="509.5" y="-29" font-family="Helvetica,sans-Serif" font-size="10.00">&#45;adxl355&#45;pmdz/src/examples</text>
<text text-anchor="start" x="509.5" y="-18" font-family="Helvetica,sans-Serif" font-size="10.00">/iio_trigger_example/iio_trigger</text>
<text text-anchor="middle" x="586.5" y="-7" font-family="Helvetica,sans-Serif" font-size="10.00">_example.c</text>
</a>
</g>
</g>
<!-- Node1&#45;&gt;Node5 -->
<g id="edge4_Node000001_Node000005" class="edge">
<title>Node1&#45;&gt;Node5</title>
<g id="a_edge4_Node000001_Node000005"><a xlink:title=" ">
<path fill="none" stroke="#63b8ff" d="M388.54,-95.93C420.42,-85.91 458.35,-73.93 492.5,-63 495.44,-62.06 498.43,-61.1 501.46,-60.13"/>
<polygon fill="#63b8ff" stroke="#63b8ff" points="387.34,-92.64 378.85,-98.98 389.44,-99.32 387.34,-92.64"/>
</a>
</g>
</g>
</g>
</svg>

<g id="navigator" transform="translate(0 0)" fill="#404254">
  <rect fill="#f2f5e9" fill-opacity="0.5" stroke="#606060" stroke-width=".5" x="0" y="0" width="60" height="60"/>
  <use id="zoomplus" xlink:href="#zoomPlus" x="17" y="9" onmousedown="handleZoom(evt,'in')"/>
  <use id="zoomminus" xlink:href="#zoomMin" x="42" y="9" onmousedown="handleZoom(evt,'out')"/>
  <use id="reset" xlink:href="#resetDef" x="30" y="36" onmousedown="handleReset()"/>
   <use id="arrowup" xlink:href="#arrowUp" x="0" y="0" onmousedown="handlePan(0,-1)"/>
  <use id="arrowright" xlink:href="#arrowRight" x="0" y="0" onmousedown="handlePan(1,0)"/>
  <use id="arrowdown" xlink:href="#arrowDown" x="0" y="0" onmousedown="handlePan(0,1)"/>
  <use id="arrowleft" xlink:href="#arrowLeft" x="0" y="0" onmousedown="handlePan(-1,0)"/>
</g>
<svg viewBox="0 0 15 15" width="100%" height="30px" preserveAspectRatio="xMaxYMin meet">
 <g id="arrow_out" transform="scale(0.3 0.3)">
  <a xlink:href="iio__adxl355_8h__dep__incl_org.svg" target="_base">
   <rect id="button" ry="5" rx="5" y="6" x="6" height="38" width="38"
        fill="#f2f5e9" fill-opacity="0.5" stroke="#606060" stroke-width="1.0"/>
   <path id="arrow"
     d="M 11.500037,31.436501 C 11.940474,20.09759 22.043105,11.32322 32.158766,21.979434 L 37.068811,17.246167 C 37.068811,17.246167 37.088388,32 37.088388,32 L 22.160133,31.978069 C 22.160133,31.978069 26.997745,27.140456 26.997745,27.140456 C 18.528582,18.264221 13.291696,25.230495 11.500037,31.436501 z"
     style="fill:#404040;"/>
  </a>
 </g>
</svg>

<style type='text/css'>
<![CDATA[
[data-mouse-over-selected='false'] { opacity: 0.7; }
[data-mouse-over-selected='true']  { opacity: 1.0; }
]]>
</style>
<script type="application/ecmascript"><![CDATA[
document.addEventListener('DOMContentLoaded', (event) => {
  highlightEdges();
  highlightAdjacentNodes();
});
]]></script>
</svg>
