<?xml version="1.0" encoding="UTF-8" standalone="no"?>
<!DOCTYPE svg PUBLIC "-//W3C//DTD SVG 1.1//EN"
 "http://www.w3.org/Graphics/SVG/1.1/DTD/svg11.dtd">
<!-- Generated by graphviz version 2.43.0 (0)
 -->
<!-- Title: /home/runner/work/no&#45;OS/no&#45;OS/iio/iio_trigger.h Pages: 1 -->
<svg width="1959pt" height="313pt"
 viewBox="0.00 0.00 1958.50 313.00" xmlns="http://www.w3.org/2000/svg" xmlns:xlink="http://www.w3.org/1999/xlink">
<g id="graph0" class="graph" transform="scale(1 1) rotate(0) translate(4 309)">
<title>/home/runner/work/no&#45;OS/no&#45;OS/iio/iio_trigger.h</title>
<!-- Node1 -->
<g id="Node000001" class="node">
<title>Node1</title>
<g id="a_Node000001"><a xlink:title="Header file for iio_trigger.">
<polygon fill="#999999" stroke="#666666" points="1052.5,-305 910.5,-305 910.5,-275 1052.5,-275 1052.5,-305"/>
<text text-anchor="start" x="918.5" y="-293" font-family="Helvetica,sans-Serif" font-size="10.00">/home/runner/work/no</text>
<text text-anchor="middle" x="981.5" y="-282" font-family="Helvetica,sans-Serif" font-size="10.00">&#45;OS/no&#45;OS/iio/iio_trigger.h</text>
</a>
</g>
</g>
<!-- Node2 -->
<g id="Node000002" class="node">
<title>Node2</title>
<g id="a_Node000002"><a xlink:href="iio__adxl355__trig_8c.html" target="_top" xlink:title="Implementation of adxl355 iio trigger.">
<polygon fill="white" stroke="#666666" points="221.5,-228 73.5,-228 73.5,-187 221.5,-187 221.5,-228"/>
<text text-anchor="start" x="81.5" y="-216" font-family="Helvetica,sans-Serif" font-size="10.00">/home/runner/work/no</text>
<text text-anchor="start" x="81.5" y="-205" font-family="Helvetica,sans-Serif" font-size="10.00">&#45;OS/no&#45;OS/drivers/accel</text>
<text text-anchor="middle" x="147.5" y="-194" font-family="Helvetica,sans-Serif" font-size="10.00">/adxl355/iio_adxl355_trig.c</text>
</a>
</g>
</g>
<!-- Node1&#45;&gt;Node2 -->
<g id="edge1_Node000001_Node000002" class="edge">
<title>Node1&#45;&gt;Node2</title>
<g id="a_edge1_Node000001_Node000002"><a xlink:title=" ">
<path fill="none" stroke="#63b8ff" d="M900.24,-286.29C734.09,-280.29 360.65,-264.4 235.5,-239 222.66,-236.39 209.14,-232.38 196.65,-228.12"/>
<polygon fill="#63b8ff" stroke="#63b8ff" points="900.28,-289.79 910.4,-286.65 900.53,-282.8 900.28,-289.79"/>
</a>
</g>
</g>
<!-- Node3 -->
<g id="Node000003" class="node">
<title>Node3</title>
<g id="a_Node000003"><a xlink:href="iio__ad74413r_8h.html" target="_top" xlink:title="Header file of the IIO AD74413r Driver.">
<polygon fill="white" stroke="#666666" points="439,-228 278,-228 278,-187 439,-187 439,-228"/>
<text text-anchor="start" x="286" y="-216" font-family="Helvetica,sans-Serif" font-size="10.00">/home/runner/work/no</text>
<text text-anchor="start" x="286" y="-205" font-family="Helvetica,sans-Serif" font-size="10.00">&#45;OS/no&#45;OS/drivers/adc</text>
<text text-anchor="middle" x="358.5" y="-194" font-family="Helvetica,sans-Serif" font-size="10.00">&#45;dac/ad74413r/iio_ad74413r.h</text>
</a>
</g>
</g>
<!-- Node1&#45;&gt;Node3 -->
<g id="edge2_Node000001_Node000003" class="edge">
<title>Node1&#45;&gt;Node3</title>
<g id="a_edge2_Node000001_Node000003"><a xlink:title=" ">
<path fill="none" stroke="#63b8ff" d="M900.03,-287.35C794.52,-283.85 605.42,-272.95 447.5,-239 434.73,-236.25 421.24,-232.25 408.74,-228.03"/>
<polygon fill="#63b8ff" stroke="#63b8ff" points="900.18,-290.85 910.29,-287.67 900.4,-283.86 900.18,-290.85"/>
</a>
</g>
</g>
<!-- Node6 -->
<g id="Node000006" class="node">
<title>Node6</title>
<g id="a_Node000006"><a xlink:href="ad74413r_2src_2examples_2iio__trigger__example_2iio__trigger__example_8c.html" target="_top" xlink:title="Implementation of IIO trigger example for AD74413R project.">
<polygon fill="white" stroke="#666666" points="173,-134.5 0,-134.5 0,-82.5 173,-82.5 173,-134.5"/>
<text text-anchor="start" x="8" y="-122.5" font-family="Helvetica,sans-Serif" font-size="10.00">/home/runner/work/no</text>
<text text-anchor="start" x="8" y="-111.5" font-family="Helvetica,sans-Serif" font-size="10.00">&#45;OS/no&#45;OS/projects/ad74413r</text>
<text text-anchor="start" x="8" y="-100.5" font-family="Helvetica,sans-Serif" font-size="10.00">/src/examples/iio_trigger</text>
<text text-anchor="middle" x="86.5" y="-89.5" font-family="Helvetica,sans-Serif" font-size="10.00">_example/iio_trigger_example.c</text>
</a>
</g>
</g>
<!-- Node1&#45;&gt;Node6 -->
<g id="edge22_Node000001_Node000006" class="edge">
<title>Node1&#45;&gt;Node6</title>
<g id="a_edge22_Node000001_Node000006"><a xlink:title=" ">
<path fill="none" stroke="#63b8ff" d="M900.1,-287.48C724.42,-283.61 321.27,-271.28 268.5,-239 240.61,-221.94 254.86,-197.81 230.5,-176 211.01,-158.55 186.16,-144.89 162.6,-134.62"/>
<polygon fill="#63b8ff" stroke="#63b8ff" points="900.25,-290.99 910.32,-287.7 900.4,-283.99 900.25,-290.99"/>
</a>
</g>
</g>
<!-- Node10 -->
<g id="Node000010" class="node">
<title>Node10</title>
<g id="a_Node000010"><a xlink:href="iio__ad7091r8__trig_8c.html" target="_top" xlink:title="Implementation of iio_ad7091r8_trig.c.">
<polygon fill="white" stroke="#666666" points="588,-233.5 457,-233.5 457,-181.5 588,-181.5 588,-233.5"/>
<text text-anchor="start" x="465" y="-221.5" font-family="Helvetica,sans-Serif" font-size="10.00">/home/runner/work/no</text>
<text text-anchor="start" x="465" y="-210.5" font-family="Helvetica,sans-Serif" font-size="10.00">&#45;OS/no&#45;OS/drivers/adc</text>
<text text-anchor="start" x="465" y="-199.5" font-family="Helvetica,sans-Serif" font-size="10.00">/ad7091r8/iio_ad7091r8</text>
<text text-anchor="middle" x="522.5" y="-188.5" font-family="Helvetica,sans-Serif" font-size="10.00">_trig.c</text>
</a>
</g>
</g>
<!-- Node1&#45;&gt;Node10 -->
<g id="edge11_Node000001_Node000010" class="edge">
<title>Node1&#45;&gt;Node10</title>
<g id="a_edge11_Node000001_Node000010"><a xlink:title=" ">
<path fill="none" stroke="#63b8ff" d="M900.07,-284.47C821.53,-278.69 699.84,-265.99 597.5,-239 591.66,-237.46 585.66,-235.57 579.73,-233.51"/>
<polygon fill="#63b8ff" stroke="#63b8ff" points="900.16,-287.99 910.38,-285.21 900.66,-281.01 900.16,-287.99"/>
</a>
</g>
</g>
<!-- Node11 -->
<g id="Node000011" class="node">
<title>Node11</title>
<g id="a_Node000011"><a xlink:href="iio__adc__demo__trig_8c.html" target="_top" xlink:title="Implementation of iio_adc_demo_trig.c.">
<polygon fill="white" stroke="#666666" points="746.5,-233.5 606.5,-233.5 606.5,-181.5 746.5,-181.5 746.5,-233.5"/>
<text text-anchor="start" x="614.5" y="-221.5" font-family="Helvetica,sans-Serif" font-size="10.00">/home/runner/work/no</text>
<text text-anchor="start" x="614.5" y="-210.5" font-family="Helvetica,sans-Serif" font-size="10.00">&#45;OS/no&#45;OS/drivers/adc</text>
<text text-anchor="start" x="614.5" y="-199.5" font-family="Helvetica,sans-Serif" font-size="10.00">/adc_demo/iio_adc_demo</text>
<text text-anchor="middle" x="676.5" y="-188.5" font-family="Helvetica,sans-Serif" font-size="10.00">_trig.c</text>
</a>
</g>
</g>
<!-- Node1&#45;&gt;Node11 -->
<g id="edge12_Node000001_Node000011" class="edge">
<title>Node1&#45;&gt;Node11</title>
<g id="a_edge12_Node000001_Node000011"><a xlink:title=" ">
<path fill="none" stroke="#63b8ff" d="M900.36,-274.13C856.98,-265.41 802.88,-253.3 755.5,-239 750.01,-237.34 744.36,-235.48 738.73,-233.52"/>
<polygon fill="#63b8ff" stroke="#63b8ff" points="899.81,-277.59 910.3,-276.11 901.17,-270.72 899.81,-277.59"/>
</a>
</g>
</g>
<!-- Node12 -->
<g id="Node000012" class="node">
<title>Node12</title>
<g id="a_Node000012"><a xlink:href="iio__dac__demo__trig_8c.html" target="_top" xlink:title="Implementation of iio_dac_demo_trig.c.">
<polygon fill="white" stroke="#666666" points="904.5,-233.5 764.5,-233.5 764.5,-181.5 904.5,-181.5 904.5,-233.5"/>
<text text-anchor="start" x="772.5" y="-221.5" font-family="Helvetica,sans-Serif" font-size="10.00">/home/runner/work/no</text>
<text text-anchor="start" x="772.5" y="-210.5" font-family="Helvetica,sans-Serif" font-size="10.00">&#45;OS/no&#45;OS/drivers/dac</text>
<text text-anchor="start" x="772.5" y="-199.5" font-family="Helvetica,sans-Serif" font-size="10.00">/dac_demo/iio_dac_demo</text>
<text text-anchor="middle" x="834.5" y="-188.5" font-family="Helvetica,sans-Serif" font-size="10.00">_trig.c</text>
</a>
</g>
</g>
<!-- Node1&#45;&gt;Node12 -->
<g id="edge13_Node000001_Node000012" class="edge">
<title>Node1&#45;&gt;Node12</title>
<g id="a_edge13_Node000001_Node000012"><a xlink:title=" ">
<path fill="none" stroke="#63b8ff" d="M946.89,-270.04C927,-259.16 901.79,-245.35 880.29,-233.57"/>
<polygon fill="#63b8ff" stroke="#63b8ff" points="945.44,-273.24 955.89,-274.98 948.8,-267.1 945.44,-273.24"/>
</a>
</g>
</g>
<!-- Node13 -->
<g id="Node000013" class="node">
<title>Node13</title>
<g id="a_Node000013"><a xlink:href="iio__adxrs290_8h.html" target="_top" xlink:title="Implementation of ADXRS290 iio.">
<polygon fill="white" stroke="#666666" points="1100,-228 961,-228 961,-187 1100,-187 1100,-228"/>
<text text-anchor="start" x="969" y="-216" font-family="Helvetica,sans-Serif" font-size="10.00">/home/runner/work/no</text>
<text text-anchor="start" x="969" y="-205" font-family="Helvetica,sans-Serif" font-size="10.00">&#45;OS/no&#45;OS/drivers/gyro</text>
<text text-anchor="middle" x="1030.5" y="-194" font-family="Helvetica,sans-Serif" font-size="10.00">/adxrs290/iio_adxrs290.h</text>
</a>
</g>
</g>
<!-- Node1&#45;&gt;Node13 -->
<g id="edge14_Node000001_Node000013" class="edge">
<title>Node1&#45;&gt;Node13</title>
<g id="a_edge14_Node000001_Node000013"><a xlink:title=" ">
<path fill="none" stroke="#63b8ff" d="M995.27,-266.37C1002.61,-254.32 1011.54,-239.65 1018.58,-228.09"/>
<polygon fill="#63b8ff" stroke="#63b8ff" points="992.24,-264.62 990.04,-274.98 998.22,-268.26 992.24,-264.62"/>
</a>
</g>
</g>
<!-- Node15 -->
<g id="Node000015" class="node">
<title>Node15</title>
<g id="a_Node000015"><a xlink:href="adxrs290-pmdz_2src_2examples_2iio__timer__trigger__example_2iio__timer__trigger__example_8c.html" target="_top" xlink:title="Implementation of IIO trigger example for iio_demo project.">
<polygon fill="white" stroke="#666666" points="971.5,-140 785.5,-140 785.5,-77 971.5,-77 971.5,-140"/>
<text text-anchor="start" x="793.5" y="-128" font-family="Helvetica,sans-Serif" font-size="10.00">/home/runner/work/no</text>
<text text-anchor="start" x="793.5" y="-117" font-family="Helvetica,sans-Serif" font-size="10.00">&#45;OS/no&#45;OS/projects/adxrs290</text>
<text text-anchor="start" x="793.5" y="-106" font-family="Helvetica,sans-Serif" font-size="10.00">&#45;pmdz/src/examples/iio_timer</text>
<text text-anchor="start" x="793.5" y="-95" font-family="Helvetica,sans-Serif" font-size="10.00">_trigger_example/iio_timer_trigger</text>
<text text-anchor="middle" x="878.5" y="-84" font-family="Helvetica,sans-Serif" font-size="10.00">_example.c</text>
</a>
</g>
</g>
<!-- Node1&#45;&gt;Node15 -->
<g id="edge23_Node000001_Node000015" class="edge">
<title>Node1&#45;&gt;Node15</title>
<g id="a_edge23_Node000001_Node000015"><a xlink:title=" ">
<path fill="none" stroke="#63b8ff" d="M967.93,-265.68C963.06,-257.28 957.52,-247.72 952.5,-239 933.06,-205.23 910.9,-166.41 895.94,-140.15"/>
<polygon fill="#63b8ff" stroke="#63b8ff" points="965.05,-267.68 973.1,-274.57 971.1,-264.17 965.05,-267.68"/>
</a>
</g>
</g>
<!-- Node16 -->
<g id="Node000016" class="node">
<title>Node16</title>
<g id="a_Node000016"><a xlink:href="adxrs290-pmdz_2src_2examples_2iio__trigger__example_2iio__trigger__example_8c.html" target="_top" xlink:title="Implementation of IIO trigger example for eval&#45;adxrs290&#45;pmdz project.">
<polygon fill="white" stroke="#666666" points="1360,-134.5 1187,-134.5 1187,-82.5 1360,-82.5 1360,-134.5"/>
<text text-anchor="start" x="1195" y="-122.5" font-family="Helvetica,sans-Serif" font-size="10.00">/home/runner/work/no</text>
<text text-anchor="start" x="1195" y="-111.5" font-family="Helvetica,sans-Serif" font-size="10.00">&#45;OS/no&#45;OS/projects/adxrs290</text>
<text text-anchor="start" x="1195" y="-100.5" font-family="Helvetica,sans-Serif" font-size="10.00">&#45;pmdz/src/examples/iio_trigger</text>
<text text-anchor="middle" x="1273.5" y="-89.5" font-family="Helvetica,sans-Serif" font-size="10.00">_example/iio_trigger_example.c</text>
</a>
</g>
</g>
<!-- Node1&#45;&gt;Node16 -->
<g id="edge24_Node000001_Node000016" class="edge">
<title>Node1&#45;&gt;Node16</title>
<g id="a_edge24_Node000001_Node000016"><a xlink:title=" ">
<path fill="none" stroke="#63b8ff" d="M1050.02,-271.55C1070.69,-263.96 1092.41,-253.4 1109.5,-239 1134.51,-217.93 1123.73,-198.45 1147.5,-176 1165.48,-159.02 1188.64,-145.15 1210.19,-134.57"/>
<polygon fill="#63b8ff" stroke="#63b8ff" points="1048.59,-268.35 1040.3,-274.94 1050.89,-274.95 1048.59,-268.35"/>
</a>
</g>
</g>
<!-- Node17 -->
<g id="Node000017" class="node">
<title>Node17</title>
<g id="a_Node000017"><a xlink:href="iio__adxrs290__trig_8c.html" target="_top" xlink:title="Implementation of adxrs290 iio trigger.">
<polygon fill="white" stroke="#666666" points="1316.5,-228 1156.5,-228 1156.5,-187 1316.5,-187 1316.5,-228"/>
<text text-anchor="start" x="1164.5" y="-216" font-family="Helvetica,sans-Serif" font-size="10.00">/home/runner/work/no</text>
<text text-anchor="start" x="1164.5" y="-205" font-family="Helvetica,sans-Serif" font-size="10.00">&#45;OS/no&#45;OS/drivers/gyro</text>
<text text-anchor="middle" x="1236.5" y="-194" font-family="Helvetica,sans-Serif" font-size="10.00">/adxrs290/iio_adxrs290_trig.c</text>
</a>
</g>
</g>
<!-- Node1&#45;&gt;Node17 -->
<g id="edge18_Node000001_Node000017" class="edge">
<title>Node1&#45;&gt;Node17</title>
<g id="a_edge18_Node000001_Node000017"><a xlink:title=" ">
<path fill="none" stroke="#63b8ff" d="M1037.12,-271.92C1068.16,-262.33 1107.51,-250.11 1142.5,-239 1153.54,-235.5 1165.29,-231.72 1176.61,-228.06"/>
<polygon fill="#63b8ff" stroke="#63b8ff" points="1035.87,-268.64 1027.35,-274.93 1037.94,-275.33 1035.87,-268.64"/>
</a>
</g>
</g>
<!-- Node18 -->
<g id="Node000018" class="node">
<title>Node18</title>
<g id="a_Node000018"><a xlink:href="iio__adis_8c.html" target="_top" xlink:title="Implementation of iio_adis.c.">
<polygon fill="white" stroke="#666666" points="1460,-228 1335,-228 1335,-187 1460,-187 1460,-228"/>
<text text-anchor="start" x="1343" y="-216" font-family="Helvetica,sans-Serif" font-size="10.00">/home/runner/work/no</text>
<text text-anchor="start" x="1343" y="-205" font-family="Helvetica,sans-Serif" font-size="10.00">&#45;OS/no&#45;OS/drivers/imu</text>
<text text-anchor="middle" x="1397.5" y="-194" font-family="Helvetica,sans-Serif" font-size="10.00">/iio_adis.c</text>
</a>
</g>
</g>
<!-- Node1&#45;&gt;Node18 -->
<g id="edge19_Node000001_Node000018" class="edge">
<title>Node1&#45;&gt;Node18</title>
<g id="a_edge19_Node000001_Node000018"><a xlink:title=" ">
<path fill="none" stroke="#63b8ff" d="M1062.91,-283.08C1133.4,-276.57 1237.56,-263.58 1325.5,-239 1335.7,-236.15 1346.37,-232.21 1356.27,-228.1"/>
<polygon fill="#63b8ff" stroke="#63b8ff" points="1062.41,-279.62 1052.77,-284 1063.04,-286.59 1062.41,-279.62"/>
</a>
</g>
</g>
<!-- Node19 -->
<g id="Node000019" class="node">
<title>Node19</title>
<g id="a_Node000019"><a xlink:href="iio__adis__trig_8c.html" target="_top" xlink:title="Implementation of adis iio trigger.">
<polygon fill="white" stroke="#666666" points="1603,-228 1478,-228 1478,-187 1603,-187 1603,-228"/>
<text text-anchor="start" x="1486" y="-216" font-family="Helvetica,sans-Serif" font-size="10.00">/home/runner/work/no</text>
<text text-anchor="start" x="1486" y="-205" font-family="Helvetica,sans-Serif" font-size="10.00">&#45;OS/no&#45;OS/drivers/imu</text>
<text text-anchor="middle" x="1540.5" y="-194" font-family="Helvetica,sans-Serif" font-size="10.00">/iio_adis_trig.c</text>
</a>
</g>
</g>
<!-- Node1&#45;&gt;Node19 -->
<g id="edge20_Node000001_Node000019" class="edge">
<title>Node1&#45;&gt;Node19</title>
<g id="a_edge20_Node000001_Node000019"><a xlink:title=" ">
<path fill="none" stroke="#63b8ff" d="M1062.71,-288.16C1160.66,-285.45 1329.57,-275.31 1469.5,-239 1479.89,-236.3 1490.72,-232.31 1500.7,-228.1"/>
<polygon fill="#63b8ff" stroke="#63b8ff" points="1062.49,-284.67 1052.59,-288.42 1062.67,-291.67 1062.49,-284.67"/>
</a>
</g>
</g>
<!-- Node20 -->
<g id="Node000020" class="node">
<title>Node20</title>
<g id="a_Node000020"><a xlink:href="iio__trigger_8c.html" target="_top" xlink:title="Implementation of generic iio trigger.">
<polygon fill="white" stroke="#666666" points="1762,-222.5 1621,-222.5 1621,-192.5 1762,-192.5 1762,-222.5"/>
<text text-anchor="start" x="1629" y="-210.5" font-family="Helvetica,sans-Serif" font-size="10.00">/home/runner/work/no</text>
<text text-anchor="middle" x="1691.5" y="-199.5" font-family="Helvetica,sans-Serif" font-size="10.00">&#45;OS/no&#45;OS/iio/iio_trigger.c</text>
</a>
</g>
</g>
<!-- Node1&#45;&gt;Node20 -->
<g id="edge21_Node000001_Node000020" class="edge">
<title>Node1&#45;&gt;Node20</title>
<g id="a_edge21_Node000001_Node000020"><a xlink:title=" ">
<path fill="none" stroke="#63b8ff" d="M1063,-285.47C1209.16,-278.67 1510.15,-262.29 1612.5,-239 1628.99,-235.25 1646.6,-228.71 1661.01,-222.65"/>
<polygon fill="#63b8ff" stroke="#63b8ff" points="1062.57,-281.99 1052.75,-285.95 1062.9,-288.98 1062.57,-281.99"/>
</a>
</g>
</g>
<!-- Node21 -->
<g id="Node000021" class="node">
<title>Node21</title>
<g id="a_Node000021"><a xlink:href="eval-adxl355-pmdz_2src_2examples_2iio__trigger__example_2iio__trigger__example_8c.html" target="_top" xlink:title="Implementation of IIO trigger example for eval&#45;adxl355&#45;pmdz project.">
<polygon fill="white" stroke="#666666" points="1950.5,-239 1780.5,-239 1780.5,-176 1950.5,-176 1950.5,-239"/>
<text text-anchor="start" x="1788.5" y="-227" font-family="Helvetica,sans-Serif" font-size="10.00">/home/runner/work/no</text>
<text text-anchor="start" x="1788.5" y="-216" font-family="Helvetica,sans-Serif" font-size="10.00">&#45;OS/no&#45;OS/projects/eval</text>
<text text-anchor="start" x="1788.5" y="-205" font-family="Helvetica,sans-Serif" font-size="10.00">&#45;adxl355&#45;pmdz/src/examples</text>
<text text-anchor="start" x="1788.5" y="-194" font-family="Helvetica,sans-Serif" font-size="10.00">/iio_trigger_example/iio_trigger</text>
<text text-anchor="middle" x="1865.5" y="-183" font-family="Helvetica,sans-Serif" font-size="10.00">_example.c</text>
</a>
</g>
</g>
<!-- Node1&#45;&gt;Node21 -->
<g id="edge25_Node000001_Node000021" class="edge">
<title>Node1&#45;&gt;Node21</title>
<g id="a_edge25_Node000001_Node000021"><a xlink:title=" ">
<path fill="none" stroke="#63b8ff" d="M1062.77,-286.44C1236.16,-280.55 1637.49,-264.56 1771.5,-239 1774.45,-238.44 1777.43,-237.81 1780.44,-237.13"/>
<polygon fill="#63b8ff" stroke="#63b8ff" points="1062.56,-282.94 1052.68,-286.78 1062.79,-289.94 1062.56,-282.94"/>
</a>
</g>
</g>
<!-- Node4 -->
<g id="Node000004" class="node">
<title>Node4</title>
<g id="a_Node000004"><a xlink:href="iio__ad74413r_8c.html" target="_top" xlink:title="Source file of the IIO AD74413r Driver.">
<polygon fill="white" stroke="#666666" points="389.5,-129 229.5,-129 229.5,-88 389.5,-88 389.5,-129"/>
<text text-anchor="start" x="237.5" y="-117" font-family="Helvetica,sans-Serif" font-size="10.00">/home/runner/work/no</text>
<text text-anchor="start" x="237.5" y="-106" font-family="Helvetica,sans-Serif" font-size="10.00">&#45;OS/no&#45;OS/drivers/adc</text>
<text text-anchor="middle" x="309.5" y="-95" font-family="Helvetica,sans-Serif" font-size="10.00">&#45;dac/ad74413r/iio_ad74413r.c</text>
</a>
</g>
</g>
<!-- Node3&#45;&gt;Node4 -->
<g id="edge3_Node000003_Node000004" class="edge">
<title>Node3&#45;&gt;Node4</title>
<g id="a_edge3_Node000003_Node000004"><a xlink:title=" ">
<path fill="none" stroke="#63b8ff" d="M343.91,-177.62C336,-161.97 326.44,-143.03 319.4,-129.1"/>
<polygon fill="#63b8ff" stroke="#63b8ff" points="340.95,-179.52 348.58,-186.87 347.2,-176.37 340.95,-179.52"/>
</a>
</g>
</g>
<!-- Node5 -->
<g id="Node000005" class="node">
<title>Node5</title>
<g id="a_Node000005"><a xlink:href="ad74413r_2src_2examples_2iio__example_2iio__example_8c.html" target="_top" xlink:title="Implementation of IIO example for AD74413R project.">
<polygon fill="white" stroke="#666666" points="565,-134.5 408,-134.5 408,-82.5 565,-82.5 565,-134.5"/>
<text text-anchor="start" x="416" y="-122.5" font-family="Helvetica,sans-Serif" font-size="10.00">/home/runner/work/no</text>
<text text-anchor="start" x="416" y="-111.5" font-family="Helvetica,sans-Serif" font-size="10.00">&#45;OS/no&#45;OS/projects/ad74413r</text>
<text text-anchor="start" x="416" y="-100.5" font-family="Helvetica,sans-Serif" font-size="10.00">/src/examples/iio_example</text>
<text text-anchor="middle" x="486.5" y="-89.5" font-family="Helvetica,sans-Serif" font-size="10.00">/iio_example.c</text>
</a>
</g>
</g>
<!-- Node3&#45;&gt;Node5 -->
<g id="edge4_Node000003_Node000005" class="edge">
<title>Node3&#45;&gt;Node5</title>
<g id="a_edge4_Node000003_Node000005"><a xlink:title=" ">
<path fill="none" stroke="#63b8ff" d="M392.44,-180.78C411.28,-166.5 434.61,-148.82 453.33,-134.64"/>
<polygon fill="#63b8ff" stroke="#63b8ff" points="390.26,-178.04 384.4,-186.87 394.49,-183.62 390.26,-178.04"/>
</a>
</g>
</g>
<!-- Node3&#45;&gt;Node6 -->
<g id="edge5_Node000003_Node000006" class="edge">
<title>Node3&#45;&gt;Node6</title>
<g id="a_edge5_Node000003_Node000006"><a xlink:title=" ">
<path fill="none" stroke="#63b8ff" d="M294.35,-183.62C252.98,-168.87 199.16,-149.68 156.65,-134.52"/>
<polygon fill="#63b8ff" stroke="#63b8ff" points="293.19,-186.92 303.78,-186.99 295.54,-180.33 293.19,-186.92"/>
</a>
</g>
</g>
<!-- Node7 -->
<g id="Node000007" class="node">
<title>Node7</title>
<g id="a_Node000007"><a xlink:href="swiot_8c.html" target="_top" xlink:title="Source file for the swiot IIO driver.">
<polygon fill="white" stroke="#666666" points="779.5,-41 633.5,-41 633.5,0 779.5,0 779.5,-41"/>
<text text-anchor="start" x="641.5" y="-29" font-family="Helvetica,sans-Serif" font-size="10.00">/home/runner/work/no</text>
<text text-anchor="start" x="641.5" y="-18" font-family="Helvetica,sans-Serif" font-size="10.00">&#45;OS/no&#45;OS/projects/swiot1l</text>
<text text-anchor="middle" x="706.5" y="-7" font-family="Helvetica,sans-Serif" font-size="10.00">/src/common/swiot.c</text>
</a>
</g>
</g>
<!-- Node3&#45;&gt;Node7 -->
<g id="edge6_Node000003_Node000007" class="edge">
<title>Node3&#45;&gt;Node7</title>
<g id="a_edge6_Node000003_Node000007"><a xlink:title=" ">
<path fill="none" stroke="#63b8ff" d="M419.35,-183.79C428.69,-180.85 438.29,-178.12 447.5,-176 510.99,-161.36 695.35,-188.82 738.5,-140 763.2,-112.06 739.18,-66.94 721.5,-41.19"/>
<polygon fill="#63b8ff" stroke="#63b8ff" points="418.17,-180.5 409.74,-186.92 420.33,-187.15 418.17,-180.5"/>
</a>
</g>
</g>
<!-- Node8 -->
<g id="Node000008" class="node">
<title>Node8</title>
<g id="a_Node000008"><a xlink:href="swiot_8h.html" target="_top" xlink:title="Header file for the swiot IIO device.">
<polygon fill="white" stroke="#666666" points="729.5,-129 583.5,-129 583.5,-88 729.5,-88 729.5,-129"/>
<text text-anchor="start" x="591.5" y="-117" font-family="Helvetica,sans-Serif" font-size="10.00">/home/runner/work/no</text>
<text text-anchor="start" x="591.5" y="-106" font-family="Helvetica,sans-Serif" font-size="10.00">&#45;OS/no&#45;OS/projects/swiot1l</text>
<text text-anchor="middle" x="656.5" y="-95" font-family="Helvetica,sans-Serif" font-size="10.00">/src/common/swiot.h</text>
</a>
</g>
</g>
<!-- Node3&#45;&gt;Node8 -->
<g id="edge7_Node000003_Node000008" class="edge">
<title>Node3&#45;&gt;Node8</title>
<g id="a_edge7_Node000003_Node000008"><a xlink:title=" ">
<path fill="none" stroke="#63b8ff" d="M423.96,-183.64C431.87,-181 439.86,-178.4 447.5,-176 503.07,-158.55 518.13,-158.06 573.5,-140 583.72,-136.67 594.55,-132.88 604.9,-129.13"/>
<polygon fill="#63b8ff" stroke="#63b8ff" points="422.74,-180.35 414.38,-186.86 424.97,-186.99 422.74,-180.35"/>
</a>
</g>
</g>
<!-- Node9 -->
<g id="Node000009" class="node">
<title>Node9</title>
<g id="a_Node000009"><a xlink:href="swiot__fw_8c.html" target="_top" xlink:title="Main project file for the swiot1l project.">
<polygon fill="white" stroke="#666666" points="470.5,-41 324.5,-41 324.5,0 470.5,0 470.5,-41"/>
<text text-anchor="start" x="332.5" y="-29" font-family="Helvetica,sans-Serif" font-size="10.00">/home/runner/work/no</text>
<text text-anchor="start" x="332.5" y="-18" font-family="Helvetica,sans-Serif" font-size="10.00">&#45;OS/no&#45;OS/projects/swiot1l</text>
<text text-anchor="middle" x="397.5" y="-7" font-family="Helvetica,sans-Serif" font-size="10.00">/src/swiot_fw.c</text>
</a>
</g>
</g>
<!-- Node3&#45;&gt;Node9 -->
<g id="edge10_Node000003_Node000009" class="edge">
<title>Node3&#45;&gt;Node9</title>
<g id="a_edge10_Node000003_Node000009"><a xlink:title=" ">
<path fill="none" stroke="#63b8ff" d="M294.13,-183.18C262.53,-170.3 229.35,-154.09 220.5,-140 205.61,-116.29 203.93,-99.57 220.5,-77 244.23,-44.68 286.75,-30.67 324.16,-24.81"/>
<polygon fill="#63b8ff" stroke="#63b8ff" points="292.83,-186.43 303.42,-186.9 295.43,-179.93 292.83,-186.43"/>
</a>
</g>
</g>
<!-- Node8&#45;&gt;Node7 -->
<g id="edge8_Node000008_Node000007" class="edge">
<title>Node8&#45;&gt;Node7</title>
<g id="a_edge8_Node000008_Node000007"><a xlink:title=" ">
<path fill="none" stroke="#63b8ff" d="M672.88,-79.32C680.12,-66.87 688.46,-52.52 695.03,-41.24"/>
<polygon fill="#63b8ff" stroke="#63b8ff" points="669.85,-77.58 667.85,-87.99 675.9,-81.1 669.85,-77.58"/>
</a>
</g>
</g>
<!-- Node8&#45;&gt;Node9 -->
<g id="edge9_Node000008_Node000009" class="edge">
<title>Node8&#45;&gt;Node9</title>
<g id="a_edge9_Node000008_Node000009"><a xlink:title=" ">
<path fill="none" stroke="#63b8ff" d="M594.72,-84.44C587.58,-81.88 580.39,-79.35 573.5,-77 536.81,-64.48 495.48,-51.4 462.1,-41.08"/>
<polygon fill="#63b8ff" stroke="#63b8ff" points="593.79,-87.82 604.39,-87.93 596.17,-81.24 593.79,-87.82"/>
</a>
</g>
</g>
<!-- Node14 -->
<g id="Node000014" class="node">
<title>Node14</title>
<g id="a_Node000014"><a xlink:href="adxrs290-pmdz_2src_2examples_2iio__example_2iio__example_8c.html" target="_top" xlink:title="Implementation of IIO example for eval&#45;adxrs290&#45;pmdz project.">
<polygon fill="white" stroke="#666666" points="1169,-134.5 990,-134.5 990,-82.5 1169,-82.5 1169,-134.5"/>
<text text-anchor="start" x="998" y="-122.5" font-family="Helvetica,sans-Serif" font-size="10.00">/home/runner/work/no</text>
<text text-anchor="start" x="998" y="-111.5" font-family="Helvetica,sans-Serif" font-size="10.00">&#45;OS/no&#45;OS/projects/adxrs290</text>
<text text-anchor="start" x="998" y="-100.5" font-family="Helvetica,sans-Serif" font-size="10.00">&#45;pmdz/src/examples/iio_example</text>
<text text-anchor="middle" x="1079.5" y="-89.5" font-family="Helvetica,sans-Serif" font-size="10.00">/iio_example.c</text>
</a>
</g>
</g>
<!-- Node13&#45;&gt;Node14 -->
<g id="edge15_Node000013_Node000014" class="edge">
<title>Node13&#45;&gt;Node14</title>
<g id="a_edge15_Node000013_Node000014"><a xlink:title=" ">
<path fill="none" stroke="#63b8ff" d="M1044.97,-177.85C1051.9,-164.14 1060.12,-147.87 1066.8,-134.64"/>
<polygon fill="#63b8ff" stroke="#63b8ff" points="1041.8,-176.37 1040.42,-186.87 1048.05,-179.52 1041.8,-176.37"/>
</a>
</g>
</g>
<!-- Node13&#45;&gt;Node15 -->
<g id="edge16_Node000013_Node000015" class="edge">
<title>Node13&#45;&gt;Node15</title>
<g id="a_edge16_Node000013_Node000015"><a xlink:title=" ">
<path fill="none" stroke="#63b8ff" d="M991.29,-181.48C971.54,-168.87 947.43,-153.49 926.57,-140.18"/>
<polygon fill="#63b8ff" stroke="#63b8ff" points="989.43,-184.44 999.74,-186.87 993.19,-178.54 989.43,-184.44"/>
</a>
</g>
</g>
<!-- Node13&#45;&gt;Node16 -->
<g id="edge17_Node000013_Node000016" class="edge">
<title>Node13&#45;&gt;Node16</title>
<g id="a_edge17_Node000013_Node000016"><a xlink:title=" ">
<path fill="none" stroke="#63b8ff" d="M1088.98,-183.16C1125.78,-168.47 1173.25,-149.52 1210.83,-134.52"/>
<polygon fill="#63b8ff" stroke="#63b8ff" points="1087.37,-180.03 1079.38,-186.99 1089.97,-186.53 1087.37,-180.03"/>
</a>
</g>
</g>
</g>
</svg>
