<?xml version="1.0" encoding="UTF-8" standalone="no"?>
<!DOCTYPE svg PUBLIC "-//W3C//DTD SVG 1.1//EN"
 "http://www.w3.org/Graphics/SVG/1.1/DTD/svg11.dtd">
<!-- Generated by graphviz version 2.43.0 (0)
 -->
<!-- Title: /home/runner/work/no&#45;OS/no&#45;OS/drivers/power/max17616/iio_max17616.c Pages: 1 -->
<svg width="1030pt" height="324pt"
 viewBox="0.00 0.00 1029.77 324.00" xmlns="http://www.w3.org/2000/svg" xmlns:xlink="http://www.w3.org/1999/xlink">
<g id="graph0" class="graph" transform="scale(1 1) rotate(0) translate(4 320)">
<title>/home/runner/work/no&#45;OS/no&#45;OS/drivers/power/max17616/iio_max17616.c</title>
<!-- Node1 -->
<g id="Node000001" class="node">
<title>Node1</title>
<g id="a_Node000001"><a xlink:title="Source file of the MAX17616 IIO Driver.">
<polygon fill="#999999" stroke="#666666" points="424.77,-316 272.77,-316 272.77,-275 424.77,-275 424.77,-316"/>
<text text-anchor="start" x="280.77" y="-304" font-family="Helvetica,sans-Serif" font-size="10.00">/home/runner/work/no</text>
<text text-anchor="start" x="280.77" y="-293" font-family="Helvetica,sans-Serif" font-size="10.00">&#45;OS/no&#45;OS/drivers/power</text>
<text text-anchor="middle" x="348.77" y="-282" font-family="Helvetica,sans-Serif" font-size="10.00">/max17616/iio_max17616.c</text>
</a>
</g>
</g>
<!-- Node2 -->
<g id="Node000002" class="node">
<title>Node2</title>
<g id="a_Node000002"><a xlink:title=" ">
<polygon fill="#e0e0e0" stroke="#999999" points="257.27,-19 204.27,-19 204.27,0 257.27,0 257.27,-19"/>
<text text-anchor="middle" x="230.77" y="-7" font-family="Helvetica,sans-Serif" font-size="10.00">stdlib.h</text>
</a>
</g>
</g>
<!-- Node1&#45;&gt;Node2 -->
<g id="edge1_Node000001_Node000002" class="edge">
<title>Node1&#45;&gt;Node2</title>
<g id="a_edge1_Node000001_Node000002"><a xlink:title=" ">
<path fill="none" stroke="#63b8ff" d="M272.56,-290.81C187.3,-285.13 56.34,-271.31 19.77,-239 -2.31,-219.5 0.77,-204.96 0.77,-175.5 0.77,-175.5 0.77,-175.5 0.77,-118.5 0.77,-34.3 128.63,-15.62 193.69,-11.56"/>
<polygon fill="#63b8ff" stroke="#63b8ff" points="194.14,-15.05 203.94,-11.01 193.76,-8.06 194.14,-15.05"/>
</a>
</g>
</g>
<!-- Node3 -->
<g id="Node000003" class="node">
<title>Node3</title>
<g id="a_Node000003"><a xlink:title=" ">
<polygon fill="#e0e0e0" stroke="#999999" points="161.77,-184 111.77,-184 111.77,-165 161.77,-165 161.77,-184"/>
<text text-anchor="middle" x="136.77" y="-172" font-family="Helvetica,sans-Serif" font-size="10.00">stdio.h</text>
</a>
</g>
</g>
<!-- Node1&#45;&gt;Node3 -->
<g id="edge2_Node000001_Node000003" class="edge">
<title>Node1&#45;&gt;Node3</title>
<g id="a_edge2_Node000001_Node000003"><a xlink:title=" ">
<path fill="none" stroke="#63b8ff" d="M272.62,-288.29C234.52,-281.52 190.17,-267.57 159.77,-239 147.37,-227.34 141.63,-208.48 138.99,-194.34"/>
<polygon fill="#63b8ff" stroke="#63b8ff" points="142.42,-193.6 137.47,-184.24 135.5,-194.65 142.42,-193.6"/>
</a>
</g>
</g>
<!-- Node4 -->
<g id="Node000004" class="node">
<title>Node4</title>
<g id="a_Node000004"><a xlink:title=" ">
<polygon fill="#e0e0e0" stroke="#999999" points="320.27,-74 267.27,-74 267.27,-55 320.27,-55 320.27,-74"/>
<text text-anchor="middle" x="293.77" y="-62" font-family="Helvetica,sans-Serif" font-size="10.00">string.h</text>
</a>
</g>
</g>
<!-- Node1&#45;&gt;Node4 -->
<g id="edge3_Node000001_Node000004" class="edge">
<title>Node1&#45;&gt;Node4</title>
<g id="a_edge3_Node000001_Node000004"><a xlink:title=" ">
<path fill="none" stroke="#63b8ff" d="M324.25,-274.99C314.07,-265.36 303.35,-252.84 297.77,-239 276.51,-186.25 284.43,-116.97 290.05,-84.21"/>
<polygon fill="#63b8ff" stroke="#63b8ff" points="293.52,-84.7 291.89,-74.23 286.64,-83.43 293.52,-84.7"/>
</a>
</g>
</g>
<!-- Node5 -->
<g id="Node000005" class="node">
<title>Node5</title>
<g id="a_Node000005"><a xlink:href="no__os__alloc_8h.html" target="_top" xlink:title=" ">
<polygon fill="white" stroke="#666666" points="112.27,-239 29.27,-239 29.27,-220 112.27,-220 112.27,-239"/>
<text text-anchor="middle" x="70.77" y="-227" font-family="Helvetica,sans-Serif" font-size="10.00">no_os_alloc.h</text>
</a>
</g>
</g>
<!-- Node1&#45;&gt;Node5 -->
<g id="edge4_Node000001_Node000005" class="edge">
<title>Node1&#45;&gt;Node5</title>
<g id="a_edge4_Node000001_Node000005"><a xlink:title=" ">
<path fill="none" stroke="#63b8ff" d="M272.44,-276.93C222.88,-265.52 159.89,-251.02 117.61,-241.28"/>
<polygon fill="#63b8ff" stroke="#63b8ff" points="118.38,-237.87 107.85,-239.04 116.81,-244.69 118.38,-237.87"/>
</a>
</g>
</g>
<!-- Node6 -->
<g id="Node000006" class="node">
<title>Node6</title>
<g id="a_Node000006"><a xlink:href="no__os__error_8h.html" target="_top" xlink:title="Error codes definition.">
<polygon fill="white" stroke="#666666" points="250.77,-239 168.77,-239 168.77,-220 250.77,-220 250.77,-239"/>
<text text-anchor="middle" x="209.77" y="-227" font-family="Helvetica,sans-Serif" font-size="10.00">no_os_error.h</text>
</a>
</g>
</g>
<!-- Node1&#45;&gt;Node6 -->
<g id="edge7_Node000001_Node000006" class="edge">
<title>Node1&#45;&gt;Node6</title>
<g id="a_edge7_Node000001_Node000006"><a xlink:title=" ">
<path fill="none" stroke="#63b8ff" d="M306.31,-274.95C284.04,-264.7 257.39,-252.43 237.74,-243.38"/>
<polygon fill="#63b8ff" stroke="#63b8ff" points="238.98,-240.1 228.43,-239.09 236.05,-246.45 238.98,-240.1"/>
</a>
</g>
</g>
<!-- Node8 -->
<g id="Node000008" class="node">
<title>Node8</title>
<g id="a_Node000008"><a xlink:href="no__os__units_8h.html" target="_top" xlink:title="Header file of Units.">
<polygon fill="white" stroke="#666666" points="390.27,-239 307.27,-239 307.27,-220 390.27,-220 390.27,-239"/>
<text text-anchor="middle" x="348.77" y="-227" font-family="Helvetica,sans-Serif" font-size="10.00">no_os_units.h</text>
</a>
</g>
</g>
<!-- Node1&#45;&gt;Node8 -->
<g id="edge9_Node000001_Node000008" class="edge">
<title>Node1&#45;&gt;Node8</title>
<g id="a_edge9_Node000001_Node000008"><a xlink:title=" ">
<path fill="none" stroke="#63b8ff" d="M348.77,-274.95C348.77,-266.85 348.77,-257.5 348.77,-249.47"/>
<polygon fill="#63b8ff" stroke="#63b8ff" points="352.27,-249.26 348.77,-239.26 345.27,-249.26 352.27,-249.26"/>
</a>
</g>
</g>
<!-- Node9 -->
<g id="Node000009" class="node">
<title>Node9</title>
<g id="a_Node000009"><a xlink:href="no__os__util_8h.html" target="_top" xlink:title="Header file of utility functions.">
<polygon fill="white" stroke="#666666" points="420.27,-74 345.27,-74 345.27,-55 420.27,-55 420.27,-74"/>
<text text-anchor="middle" x="382.77" y="-62" font-family="Helvetica,sans-Serif" font-size="10.00">no_os_util.h</text>
</a>
</g>
</g>
<!-- Node1&#45;&gt;Node9 -->
<g id="edge10_Node000001_Node000009" class="edge">
<title>Node1&#45;&gt;Node9</title>
<g id="a_edge10_Node000001_Node000009"><a xlink:title=" ">
<path fill="none" stroke="#63b8ff" d="M373.71,-274.79C383.83,-265.21 394.4,-252.78 399.77,-239 420.6,-185.54 401.26,-116.12 389.82,-83.69"/>
<polygon fill="#63b8ff" stroke="#63b8ff" points="393.06,-82.35 386.31,-74.18 386.49,-84.78 393.06,-82.35"/>
</a>
</g>
</g>
<!-- Node12 -->
<g id="Node000012" class="node">
<title>Node12</title>
<g id="a_Node000012"><a xlink:href="iio_8h.html" target="_top" xlink:title="Header file of iio.">
<polygon fill="white" stroke="#666666" points="640.77,-184 602.77,-184 602.77,-165 640.77,-165 640.77,-184"/>
<text text-anchor="middle" x="621.77" y="-172" font-family="Helvetica,sans-Serif" font-size="10.00">iio.h</text>
</a>
</g>
</g>
<!-- Node1&#45;&gt;Node12 -->
<g id="edge14_Node000001_Node000012" class="edge">
<title>Node1&#45;&gt;Node12</title>
<g id="a_edge14_Node000001_Node000012"><a xlink:title=" ">
<path fill="none" stroke="#63b8ff" d="M424.91,-293.35C476.28,-288.94 542.98,-275.7 589.77,-239 604.01,-227.83 612.44,-208.62 617.04,-194.25"/>
<polygon fill="#63b8ff" stroke="#63b8ff" points="620.46,-194.99 619.84,-184.42 613.73,-193.07 620.46,-194.99"/>
</a>
</g>
</g>
<!-- Node13 -->
<g id="Node000013" class="node">
<title>Node13</title>
<g id="a_Node000013"><a xlink:href="iio__types_8h.html" target="_top" xlink:title="Header file for iio_types.">
<polygon fill="white" stroke="#666666" points="883.77,-129 813.77,-129 813.77,-110 883.77,-110 883.77,-129"/>
<text text-anchor="middle" x="848.77" y="-117" font-family="Helvetica,sans-Serif" font-size="10.00">iio_types.h</text>
</a>
</g>
</g>
<!-- Node1&#45;&gt;Node13 -->
<g id="edge27_Node000001_Node000013" class="edge">
<title>Node1&#45;&gt;Node13</title>
<g id="a_edge27_Node000001_Node000013"><a xlink:title=" ">
<path fill="none" stroke="#63b8ff" d="M424.97,-283.6C478,-274.75 549.85,-260.23 610.77,-239 693.66,-210.11 784.75,-158.74 826.1,-134.24"/>
<polygon fill="#63b8ff" stroke="#63b8ff" points="828.04,-137.16 834.83,-129.03 824.45,-131.15 828.04,-137.16"/>
</a>
</g>
</g>
<!-- Node17 -->
<g id="Node000017" class="node">
<title>Node17</title>
<g id="a_Node000017"><a xlink:href="max17616_8h.html" target="_top" xlink:title="Header file of the MAX17616 Driver.">
<polygon fill="white" stroke="#666666" points="562.27,-129 485.27,-129 485.27,-110 562.27,-110 562.27,-129"/>
<text text-anchor="middle" x="523.77" y="-117" font-family="Helvetica,sans-Serif" font-size="10.00">max17616.h</text>
</a>
</g>
</g>
<!-- Node1&#45;&gt;Node17 -->
<g id="edge28_Node000001_Node000017" class="edge">
<title>Node1&#45;&gt;Node17</title>
<g id="a_edge28_Node000001_Node000017"><a xlink:title=" ">
<path fill="none" stroke="#63b8ff" d="M384.17,-274.75C399.94,-265.07 418.19,-252.58 432.77,-239 466.79,-207.32 497.77,-161.92 513.3,-137.54"/>
<polygon fill="#63b8ff" stroke="#63b8ff" points="516.29,-139.35 518.64,-129.02 510.36,-135.63 516.29,-139.35"/>
</a>
</g>
</g>
<!-- Node19 -->
<g id="Node000019" class="node">
<title>Node19</title>
<g id="a_Node000019"><a xlink:href="iio__max17616_8h.html" target="_top" xlink:title="Header file of the MAX17616 IIO Driver.">
<polygon fill="white" stroke="#666666" points="580.27,-239 485.27,-239 485.27,-220 580.27,-220 580.27,-239"/>
<text text-anchor="middle" x="532.77" y="-227" font-family="Helvetica,sans-Serif" font-size="10.00">iio_max17616.h</text>
</a>
</g>
</g>
<!-- Node1&#45;&gt;Node19 -->
<g id="edge35_Node000001_Node000019" class="edge">
<title>Node1&#45;&gt;Node19</title>
<g id="a_edge35_Node000001_Node000019"><a xlink:title=" ">
<path fill="none" stroke="#63b8ff" d="M404.98,-274.95C435.53,-264.32 472.32,-251.53 498.56,-242.4"/>
<polygon fill="#63b8ff" stroke="#63b8ff" points="499.77,-245.68 508.07,-239.09 497.47,-239.07 499.77,-245.68"/>
</a>
</g>
</g>
<!-- Node5&#45;&gt;Node2 -->
<g id="edge6_Node000005_Node000002" class="edge">
<title>Node5&#45;&gt;Node2</title>
<g id="a_edge6_Node000005_Node000002"><a xlink:title=" ">
<path fill="none" stroke="#63b8ff" d="M74.34,-219.95C79.73,-207.43 90.6,-183.6 102.77,-165 138.37,-110.58 190.12,-53.37 215.53,-26.38"/>
<polygon fill="#63b8ff" stroke="#63b8ff" points="218.18,-28.67 222.52,-19.01 213.1,-23.85 218.18,-28.67"/>
</a>
</g>
</g>
<!-- Node5&#45;&gt;Node3 -->
<g id="edge5_Node000005_Node000003" class="edge">
<title>Node5&#45;&gt;Node3</title>
<g id="a_edge5_Node000005_Node000003"><a xlink:title=" ">
<path fill="none" stroke="#63b8ff" d="M81.37,-219.98C91.23,-212.07 106.12,-200.11 117.98,-190.58"/>
<polygon fill="#63b8ff" stroke="#63b8ff" points="120.37,-193.16 125.97,-184.17 115.98,-187.7 120.37,-193.16"/>
</a>
</g>
</g>
<!-- Node7 -->
<g id="Node000007" class="node">
<title>Node7</title>
<g id="a_Node000007"><a xlink:href="errno_8h.html" target="_top" xlink:title="Error macro definition for ARM Compiler.">
<polygon fill="white" stroke="#666666" points="235.27,-184 184.27,-184 184.27,-165 235.27,-165 235.27,-184"/>
<text text-anchor="middle" x="209.77" y="-172" font-family="Helvetica,sans-Serif" font-size="10.00">errno.h</text>
</a>
</g>
</g>
<!-- Node6&#45;&gt;Node7 -->
<g id="edge8_Node000006_Node000007" class="edge">
<title>Node6&#45;&gt;Node7</title>
<g id="a_edge8_Node000006_Node000007"><a xlink:title=" ">
<path fill="none" stroke="#63b8ff" d="M209.77,-219.75C209.77,-212.8 209.77,-202.85 209.77,-194.13"/>
<polygon fill="#63b8ff" stroke="#63b8ff" points="213.27,-194.09 209.77,-184.09 206.27,-194.09 213.27,-194.09"/>
</a>
</g>
</g>
<!-- Node9&#45;&gt;Node2 -->
<g id="edge12_Node000009_Node000002" class="edge">
<title>Node9&#45;&gt;Node2</title>
<g id="a_edge12_Node000009_Node000002"><a xlink:title=" ">
<path fill="none" stroke="#63b8ff" d="M358.35,-54.98C333.05,-46.16 293.31,-32.31 264.91,-22.41"/>
<polygon fill="#63b8ff" stroke="#63b8ff" points="265.98,-19.07 255.38,-19.08 263.67,-25.68 265.98,-19.07"/>
</a>
</g>
</g>
<!-- Node10 -->
<g id="Node000010" class="node">
<title>Node10</title>
<g id="a_Node000010"><a xlink:title=" ">
<polygon fill="#e0e0e0" stroke="#999999" points="799.27,-19 746.27,-19 746.27,0 799.27,0 799.27,-19"/>
<text text-anchor="middle" x="772.77" y="-7" font-family="Helvetica,sans-Serif" font-size="10.00">stdint.h</text>
</a>
</g>
</g>
<!-- Node9&#45;&gt;Node10 -->
<g id="edge11_Node000009_Node000010" class="edge">
<title>Node9&#45;&gt;Node10</title>
<g id="a_edge11_Node000009_Node000010"><a xlink:title=" ">
<path fill="none" stroke="#63b8ff" d="M420.52,-58.37C495.4,-48.19 661.9,-25.57 735.99,-15.5"/>
<polygon fill="#63b8ff" stroke="#63b8ff" points="736.79,-18.92 746.23,-14.11 735.85,-11.99 736.79,-18.92"/>
</a>
</g>
</g>
<!-- Node11 -->
<g id="Node000011" class="node">
<title>Node11</title>
<g id="a_Node000011"><a xlink:title=" ">
<polygon fill="#e0e0e0" stroke="#999999" points="556.77,-19 494.77,-19 494.77,0 556.77,0 556.77,-19"/>
<text text-anchor="middle" x="525.77" y="-7" font-family="Helvetica,sans-Serif" font-size="10.00">stdbool.h</text>
</a>
</g>
</g>
<!-- Node9&#45;&gt;Node11 -->
<g id="edge13_Node000009_Node000011" class="edge">
<title>Node9&#45;&gt;Node11</title>
<g id="a_edge13_Node000009_Node000011"><a xlink:title=" ">
<path fill="none" stroke="#63b8ff" d="M405.74,-54.98C429.27,-46.27 466.06,-32.63 492.71,-22.75"/>
<polygon fill="#63b8ff" stroke="#63b8ff" points="494.22,-25.93 502.38,-19.17 491.78,-19.36 494.22,-25.93"/>
</a>
</g>
</g>
<!-- Node12&#45;&gt;Node13 -->
<g id="edge15_Node000012_Node000013" class="edge">
<title>Node12&#45;&gt;Node13</title>
<g id="a_edge15_Node000012_Node000013"><a xlink:title=" ">
<path fill="none" stroke="#63b8ff" d="M641.12,-168.98C676.93,-160.62 754.38,-142.54 803.91,-130.97"/>
<polygon fill="#63b8ff" stroke="#63b8ff" points="804.78,-134.36 813.72,-128.68 803.19,-127.55 804.78,-134.36"/>
</a>
</g>
</g>
<!-- Node15 -->
<g id="Node000015" class="node">
<title>Node15</title>
<g id="a_Node000015"><a xlink:href="no__os__uart_8h.html" target="_top" xlink:title="Header file of UART interface.">
<polygon fill="white" stroke="#666666" points="678.27,-129 599.27,-129 599.27,-110 678.27,-110 678.27,-129"/>
<text text-anchor="middle" x="638.77" y="-117" font-family="Helvetica,sans-Serif" font-size="10.00">no_os_uart.h</text>
</a>
</g>
</g>
<!-- Node12&#45;&gt;Node15 -->
<g id="edge20_Node000012_Node000015" class="edge">
<title>Node12&#45;&gt;Node15</title>
<g id="a_edge20_Node000012_Node000015"><a xlink:title=" ">
<path fill="none" stroke="#63b8ff" d="M624.58,-164.75C626.83,-157.72 630.07,-147.62 632.89,-138.84"/>
<polygon fill="#63b8ff" stroke="#63b8ff" points="636.29,-139.68 636.01,-129.09 629.63,-137.54 636.29,-139.68"/>
</a>
</g>
</g>
<!-- Node13&#45;&gt;Node10 -->
<g id="edge17_Node000013_Node000010" class="edge">
<title>Node13&#45;&gt;Node10</title>
<g id="a_edge17_Node000013_Node000010"><a xlink:title=" ">
<path fill="none" stroke="#63b8ff" d="M883.92,-116.92C942.69,-113.02 1050.98,-99.71 1013.77,-55 988.29,-24.38 871.14,-14.75 810.06,-11.78"/>
<polygon fill="#63b8ff" stroke="#63b8ff" points="809.84,-8.27 799.69,-11.31 809.53,-15.26 809.84,-8.27"/>
</a>
</g>
</g>
<!-- Node13&#45;&gt;Node11 -->
<g id="edge16_Node000013_Node000011" class="edge">
<title>Node13&#45;&gt;Node11</title>
<g id="a_edge16_Node000013_Node000011"><a xlink:title=" ">
<path fill="none" stroke="#63b8ff" d="M838.73,-109.78C822.2,-95.92 787.7,-68.99 753.77,-55 691.72,-29.42 613.99,-18.29 567.19,-13.64"/>
<polygon fill="#63b8ff" stroke="#63b8ff" points="567.41,-10.14 557.13,-12.69 566.75,-17.11 567.41,-10.14"/>
</a>
</g>
</g>
<!-- Node14 -->
<g id="Node000014" class="node">
<title>Node14</title>
<g id="a_Node000014"><a xlink:href="no__os__circular__buffer_8h.html" target="_top" xlink:title="Circular buffer library header.">
<polygon fill="white" stroke="#666666" points="1004.77,-74 876.77,-74 876.77,-55 1004.77,-55 1004.77,-74"/>
<text text-anchor="middle" x="940.77" y="-62" font-family="Helvetica,sans-Serif" font-size="10.00">no_os_circular_buffer.h</text>
</a>
</g>
</g>
<!-- Node13&#45;&gt;Node14 -->
<g id="edge18_Node000013_Node000014" class="edge">
<title>Node13&#45;&gt;Node14</title>
<g id="a_edge18_Node000013_Node000014"><a xlink:title=" ">
<path fill="none" stroke="#63b8ff" d="M863.55,-109.98C877.95,-101.69 900.08,-88.94 916.96,-79.22"/>
<polygon fill="#63b8ff" stroke="#63b8ff" points="918.8,-82.19 925.72,-74.17 915.31,-76.13 918.8,-82.19"/>
</a>
</g>
</g>
<!-- Node14&#45;&gt;Node10 -->
<g id="edge19_Node000014_Node000010" class="edge">
<title>Node14&#45;&gt;Node10</title>
<g id="a_edge19_Node000014_Node000010"><a xlink:title=" ">
<path fill="none" stroke="#63b8ff" d="M913.78,-54.98C885.4,-46.03 840.6,-31.9 809.13,-21.97"/>
<polygon fill="#63b8ff" stroke="#63b8ff" points="810.01,-18.58 799.42,-18.91 807.9,-25.25 810.01,-18.58"/>
</a>
</g>
</g>
<!-- Node15&#45;&gt;Node10 -->
<g id="edge21_Node000015_Node000010" class="edge">
<title>Node15&#45;&gt;Node10</title>
<g id="a_edge21_Node000015_Node000010"><a xlink:title=" ">
<path fill="none" stroke="#63b8ff" d="M678.45,-118.75C713.25,-116.59 762.03,-107.27 786.77,-74 796.63,-60.73 790.63,-41.86 783.69,-28.14"/>
<polygon fill="#63b8ff" stroke="#63b8ff" points="786.62,-26.22 778.68,-19.22 780.52,-29.65 786.62,-26.22"/>
</a>
</g>
</g>
<!-- Node15&#45;&gt;Node11 -->
<g id="edge22_Node000015_Node000011" class="edge">
<title>Node15&#45;&gt;Node11</title>
<g id="a_edge22_Node000015_Node000011"><a xlink:title=" ">
<path fill="none" stroke="#63b8ff" d="M639.02,-109.64C638.92,-96.3 636.86,-70.92 623.77,-55 609.45,-37.59 586.87,-26.71 566.99,-20.07"/>
<polygon fill="#63b8ff" stroke="#63b8ff" points="567.79,-16.65 557.2,-17.05 565.73,-23.34 567.79,-16.65"/>
</a>
</g>
</g>
<!-- Node16 -->
<g id="Node000016" class="node">
<title>Node16</title>
<g id="a_Node000016"><a xlink:href="no__os__lf256fifo_8h.html" target="_top" xlink:title="SPSC lock&#45;free fifo of fixed size (256), specialized for UART.">
<polygon fill="white" stroke="#666666" points="614.77,-74 514.77,-74 514.77,-55 614.77,-55 614.77,-74"/>
<text text-anchor="middle" x="564.77" y="-62" font-family="Helvetica,sans-Serif" font-size="10.00">no_os_lf256fifo.h</text>
</a>
</g>
</g>
<!-- Node15&#45;&gt;Node16 -->
<g id="edge23_Node000015_Node000016" class="edge">
<title>Node15&#45;&gt;Node16</title>
<g id="a_edge23_Node000015_Node000016"><a xlink:title=" ">
<path fill="none" stroke="#63b8ff" d="M626.88,-109.98C615.62,-101.92 598.48,-89.65 585.06,-80.03"/>
<polygon fill="#63b8ff" stroke="#63b8ff" points="587.04,-77.15 576.88,-74.17 582.97,-82.84 587.04,-77.15"/>
</a>
</g>
</g>
<!-- Node16&#45;&gt;Node2 -->
<g id="edge24_Node000016_Node000002" class="edge">
<title>Node16&#45;&gt;Node2</title>
<g id="a_edge24_Node000016_Node000002"><a xlink:title=" ">
<path fill="none" stroke="#63b8ff" d="M514.77,-55.57C447.13,-44.83 328.03,-25.93 267.83,-16.38"/>
<polygon fill="#63b8ff" stroke="#63b8ff" points="268.07,-12.88 257.65,-14.76 266.97,-19.79 268.07,-12.88"/>
</a>
</g>
</g>
<!-- Node16&#45;&gt;Node10 -->
<g id="edge25_Node000016_Node000010" class="edge">
<title>Node16&#45;&gt;Node10</title>
<g id="a_edge25_Node000016_Node000010"><a xlink:title=" ">
<path fill="none" stroke="#63b8ff" d="M598.19,-54.98C635.93,-45.37 697.14,-29.77 736.15,-19.83"/>
<polygon fill="#63b8ff" stroke="#63b8ff" points="737.22,-23.17 746.05,-17.31 735.49,-16.39 737.22,-23.17"/>
</a>
</g>
</g>
<!-- Node16&#45;&gt;Node11 -->
<g id="edge26_Node000016_Node000011" class="edge">
<title>Node16&#45;&gt;Node11</title>
<g id="a_edge26_Node000016_Node000011"><a xlink:title=" ">
<path fill="none" stroke="#63b8ff" d="M558.33,-54.75C552.88,-47.34 544.9,-36.5 538.21,-27.41"/>
<polygon fill="#63b8ff" stroke="#63b8ff" points="540.84,-25.07 532.09,-19.09 535.2,-29.22 540.84,-25.07"/>
</a>
</g>
</g>
<!-- Node17&#45;&gt;Node4 -->
<g id="edge30_Node000017_Node000004" class="edge">
<title>Node17&#45;&gt;Node4</title>
<g id="a_edge30_Node000017_Node000004"><a xlink:title=" ">
<path fill="none" stroke="#63b8ff" d="M486.82,-109.98C443.88,-100.09 373.46,-83.86 330.58,-73.98"/>
<polygon fill="#63b8ff" stroke="#63b8ff" points="331.1,-70.51 320.57,-71.68 329.53,-77.33 331.1,-70.51"/>
</a>
</g>
</g>
<!-- Node17&#45;&gt;Node9 -->
<g id="edge32_Node000017_Node000009" class="edge">
<title>Node17&#45;&gt;Node9</title>
<g id="a_edge32_Node000017_Node000009"><a xlink:title=" ">
<path fill="none" stroke="#63b8ff" d="M501.12,-109.98C477.92,-101.27 441.65,-87.63 415.37,-77.75"/>
<polygon fill="#63b8ff" stroke="#63b8ff" points="416.43,-74.41 405.84,-74.17 413.96,-80.97 416.43,-74.41"/>
</a>
</g>
</g>
<!-- Node17&#45;&gt;Node10 -->
<g id="edge29_Node000017_Node000010" class="edge">
<title>Node17&#45;&gt;Node10</title>
<g id="a_edge29_Node000017_Node000010"><a xlink:title=" ">
<path fill="none" stroke="#63b8ff" d="M562.31,-113.25C624.07,-104.53 739.71,-86.72 753.77,-74 766.16,-62.79 770.6,-43.87 772.13,-29.59"/>
<polygon fill="#63b8ff" stroke="#63b8ff" points="775.64,-29.59 772.83,-19.37 768.66,-29.11 775.64,-29.59"/>
</a>
</g>
</g>
<!-- Node17&#45;&gt;Node11 -->
<g id="edge31_Node000017_Node000011" class="edge">
<title>Node17&#45;&gt;Node11</title>
<g id="a_edge31_Node000017_Node000011"><a xlink:title=" ">
<path fill="none" stroke="#63b8ff" d="M518.58,-109.96C511.87,-97.85 501.49,-74.94 505.77,-55 507.74,-45.8 511.77,-36.2 515.7,-28.29"/>
<polygon fill="#63b8ff" stroke="#63b8ff" points="518.86,-29.79 520.45,-19.32 512.68,-26.51 518.86,-29.79"/>
</a>
</g>
</g>
<!-- Node18 -->
<g id="Node000018" class="node">
<title>Node18</title>
<g id="a_Node000018"><a xlink:href="no__os__i2c_8h.html" target="_top" xlink:title="Header file of I2C Interface.">
<polygon fill="white" stroke="#666666" points="744.77,-74 670.77,-74 670.77,-55 744.77,-55 744.77,-74"/>
<text text-anchor="middle" x="707.77" y="-62" font-family="Helvetica,sans-Serif" font-size="10.00">no_os_i2c.h</text>
</a>
</g>
</g>
<!-- Node17&#45;&gt;Node18 -->
<g id="edge33_Node000017_Node000018" class="edge">
<title>Node17&#45;&gt;Node18</title>
<g id="a_edge33_Node000017_Node000018"><a xlink:title=" ">
<path fill="none" stroke="#63b8ff" d="M553.33,-109.98C584.49,-101.01 633.74,-86.82 668.23,-76.89"/>
<polygon fill="#63b8ff" stroke="#63b8ff" points="669.33,-80.21 677.97,-74.08 667.4,-73.49 669.33,-80.21"/>
</a>
</g>
</g>
<!-- Node18&#45;&gt;Node10 -->
<g id="edge34_Node000018_Node000010" class="edge">
<title>Node18&#45;&gt;Node10</title>
<g id="a_edge34_Node000018_Node000010"><a xlink:title=" ">
<path fill="none" stroke="#63b8ff" d="M718.21,-54.98C727.92,-47.07 742.58,-35.11 754.27,-25.58"/>
<polygon fill="#63b8ff" stroke="#63b8ff" points="756.6,-28.2 762.14,-19.17 752.17,-22.78 756.6,-28.2"/>
</a>
</g>
</g>
<!-- Node19&#45;&gt;Node11 -->
<g id="edge36_Node000019_Node000011" class="edge">
<title>Node19&#45;&gt;Node11</title>
<g id="a_edge36_Node000019_Node000011"><a xlink:title=" ">
<path fill="none" stroke="#63b8ff" d="M525.83,-219.86C513.09,-203.38 486.42,-165.82 476.77,-129 466.85,-91.17 493.62,-49.45 511.4,-27"/>
<polygon fill="#63b8ff" stroke="#63b8ff" points="514.23,-29.07 517.89,-19.13 508.83,-24.62 514.23,-29.07"/>
</a>
</g>
</g>
<!-- Node19&#45;&gt;Node12 -->
<g id="edge37_Node000019_Node000012" class="edge">
<title>Node19&#45;&gt;Node12</title>
<g id="a_edge37_Node000019_Node000012"><a xlink:title=" ">
<path fill="none" stroke="#63b8ff" d="M547.07,-219.98C560.87,-211.77 582.01,-199.18 598.28,-189.49"/>
<polygon fill="#63b8ff" stroke="#63b8ff" points="600.41,-192.29 607.21,-184.17 596.83,-186.28 600.41,-192.29"/>
</a>
</g>
</g>
<!-- Node19&#45;&gt;Node17 -->
<g id="edge38_Node000019_Node000017" class="edge">
<title>Node19&#45;&gt;Node17</title>
<g id="a_edge38_Node000019_Node000017"><a xlink:title=" ">
<path fill="none" stroke="#63b8ff" d="M532.03,-219.66C530.58,-202.17 527.29,-162.8 525.33,-139.27"/>
<polygon fill="#63b8ff" stroke="#63b8ff" points="528.81,-138.83 524.49,-129.16 521.83,-139.41 528.81,-138.83"/>
</a>
</g>
</g>
</g>
</svg>
