<?xml version="1.0" encoding="UTF-8" standalone="no"?>
<!DOCTYPE svg PUBLIC "-//W3C//DTD SVG 1.1//EN"
 "http://www.w3.org/Graphics/SVG/1.1/DTD/svg11.dtd">
<!-- Generated by graphviz version 2.43.0 (0)
 -->
<!-- Title: /home/runner/work/no&#45;OS/no&#45;OS/drivers/power/lt8722/iio_lt8722.c Pages: 1 -->
<!--zoomable 324 -->

<svg id="main" version="1.1" xmlns="http://www.w3.org/2000/svg" xmlns:xlink="http://www.w3.org/1999/xlink" xml:space="preserve" onload="init(evt)">

<style type="text/css"><![CDATA[
.node, .edge {opacity: 0.7;}
.node.selected, .edge.selected {opacity: 1;}
.edge:hover path { stroke: red; }
.edge:hover polygon { stroke: red; fill: red; }
]]></style>

<defs>
  <circle id="rim" cx="0" cy="0" r="7"/>
  <circle id="rim2" cx="0" cy="0" r="3.5"/>
  <g id="zoomPlus">
    <use xlink:href="#rim" fill="#404040"><set attributeName="fill" to="#808080" begin="zoomplus.mouseover" end="zoomplus.mouseout"/></use>
    <path d="M-4,0h8M0,-4v8" fill="none" stroke="white" stroke-width="1.5" pointer-events="none"/>
  </g>
  <g id="zoomMin">
    <use xlink:href="#rim" fill="#404040"><set attributeName="fill" to="#808080" begin="zoomminus.mouseover" end="zoomminus.mouseout"/></use>
    <path d="M-4,0h8" fill="none" stroke="white" stroke-width="1.5" pointer-events="none"/>
  </g>
  <g id="arrowUp" transform="translate(30 24)">
    <use xlink:href="#rim"/>
    <path pointer-events="none" fill="none" stroke="white" stroke-width="1.5" d="M0,-3.0v7 M-2.5,-0.5L0,-3.0L2.5,-0.5"/>
  </g>
  <g id="arrowRight" transform="rotate(90) translate(36 -43)">
    <use xlink:href="#rim"/>
    <path pointer-events="none" fill="none" stroke="white" stroke-width="1.5" d="M0,-3.0v7 M-2.5,-0.5L0,-3.0L2.5,-0.5"/>
  </g>
  <g id="arrowDown" transform="rotate(180) translate(-30 -48)">
    <use xlink:href="#rim"/>
    <path pointer-events="none" fill="none" stroke="white" stroke-width="1.5" d="M0,-3.0v7 M-2.5,-0.5L0,-3.0L2.5,-0.5"/>
  </g>
  <g id="arrowLeft" transform="rotate(270) translate(-36 17)">
    <use xlink:href="#rim"/>
    <path pointer-events="none" fill="none" stroke="white" stroke-width="1.5" d="M0,-3.0v7 M-2.5,-0.5L0,-3.0L2.5,-0.5"/>
  </g>
  <g id="resetDef">
    <use xlink:href="#rim2" fill="#404040"><set attributeName="fill" to="#808080" begin="reset.mouseover" end="reset.mouseout"/></use>
  </g>
</defs>
<script type="application/ecmascript">
var viewWidth = 1009;
var viewHeight = 324;
var sectionId = 'dynsection-0';
</script>
<script type="application/ecmascript" xlink:href="svg.min.js"/>
<svg id="graph" class="graph">
<g id="viewport">
<title>/home/runner/work/no&#45;OS/no&#45;OS/drivers/power/lt8722/iio_lt8722.c</title>
<!-- Node1 -->
<g id="Node000001" class="node">
<title>Node1</title>
<g id="a_Node000001"><a xlink:title="Source file for the LT8722 IIO Driver.">
<polygon fill="#999999" stroke="#666666" points="335.64,-316 199.64,-316 199.64,-275 335.64,-275 335.64,-316"/>
<text text-anchor="start" x="207.64" y="-304" font-family="Helvetica,sans-Serif" font-size="10.00">/home/runner/work/no</text>
<text text-anchor="start" x="207.64" y="-293" font-family="Helvetica,sans-Serif" font-size="10.00">&#45;OS/no&#45;OS/drivers/power</text>
<text text-anchor="middle" x="267.64" y="-282" font-family="Helvetica,sans-Serif" font-size="10.00">/lt8722/iio_lt8722.c</text>
</a>
</g>
</g>
<!-- Node2 -->
<g id="Node000002" class="node">
<title>Node2</title>
<g id="a_Node000002"><a xlink:href="errno_8h.html" target="_top" xlink:title="Error macro definition for ARM Compiler.">
<polygon fill="white" stroke="#666666" points="129.14,-184 78.14,-184 78.14,-165 129.14,-165 129.14,-184"/>
<text text-anchor="middle" x="103.64" y="-172" font-family="Helvetica,sans-Serif" font-size="10.00">errno.h</text>
</a>
</g>
</g>
<!-- Node1&#45;&gt;Node2 -->
<g id="edge1_Node000001_Node000002" class="edge">
<title>Node1&#45;&gt;Node2</title>
<g id="a_edge1_Node000001_Node000002"><a xlink:title=" ">
<path fill="none" stroke="#63b8ff" d="M218.61,-274.88C198.62,-265.62 175.96,-253.42 157.64,-239 140.82,-225.77 125.41,-206.63 115.4,-192.83"/>
<polygon fill="#63b8ff" stroke="#63b8ff" points="117.99,-190.43 109.38,-184.27 112.27,-194.46 117.99,-190.43"/>
</a>
</g>
</g>
<!-- Node3 -->
<g id="Node000003" class="node">
<title>Node3</title>
<g id="a_Node000003"><a xlink:title=" ">
<polygon fill="#e0e0e0" stroke="#999999" points="137.64,-74 87.64,-74 87.64,-55 137.64,-55 137.64,-74"/>
<text text-anchor="middle" x="112.64" y="-62" font-family="Helvetica,sans-Serif" font-size="10.00">stdio.h</text>
</a>
</g>
</g>
<!-- Node1&#45;&gt;Node3 -->
<g id="edge2_Node000001_Node000003" class="edge">
<title>Node1&#45;&gt;Node3</title>
<g id="a_edge2_Node000001_Node000003"><a xlink:title=" ">
<path fill="none" stroke="#63b8ff" d="M264.89,-274.74C262.2,-259.26 257.23,-237.49 248.64,-220 219.53,-160.74 161.6,-106.54 131.61,-80.97"/>
<polygon fill="#63b8ff" stroke="#63b8ff" points="133.51,-78 123.6,-74.25 129.01,-83.36 133.51,-78"/>
</a>
</g>
</g>
<!-- Node4 -->
<g id="Node000004" class="node">
<title>Node4</title>
<g id="a_Node000004"><a xlink:title=" ">
<polygon fill="#e0e0e0" stroke="#999999" points="343.14,-19 290.14,-19 290.14,0 343.14,0 343.14,-19"/>
<text text-anchor="middle" x="316.64" y="-7" font-family="Helvetica,sans-Serif" font-size="10.00">stdlib.h</text>
</a>
</g>
</g>
<!-- Node1&#45;&gt;Node4 -->
<g id="edge3_Node000001_Node000004" class="edge">
<title>Node1&#45;&gt;Node4</title>
<g id="a_edge3_Node000001_Node000004"><a xlink:title=" ">
<path fill="none" stroke="#63b8ff" d="M199.46,-287.01C135.32,-278.63 45.38,-262.99 19.64,-239 -1.91,-218.92 0.64,-204.96 0.64,-175.5 0.64,-175.5 0.64,-175.5 0.64,-118.5 0.64,-76.5 32.96,-73.57 70.64,-55 139.19,-21.22 229.82,-12.86 279.72,-10.93"/>
<polygon fill="#63b8ff" stroke="#63b8ff" points="280.14,-14.41 290.03,-10.6 279.92,-7.42 280.14,-14.41"/>
</a>
</g>
</g>
<!-- Node5 -->
<g id="Node000005" class="node">
<title>Node5</title>
<g id="a_Node000005"><a xlink:title=" ">
<polygon fill="#e0e0e0" stroke="#999999" points="220.14,-239 167.14,-239 167.14,-220 220.14,-220 220.14,-239"/>
<text text-anchor="middle" x="193.64" y="-227" font-family="Helvetica,sans-Serif" font-size="10.00">string.h</text>
</a>
</g>
</g>
<!-- Node1&#45;&gt;Node5 -->
<g id="edge4_Node000001_Node000005" class="edge">
<title>Node1&#45;&gt;Node5</title>
<g id="a_edge4_Node000001_Node000005"><a xlink:title=" ">
<path fill="none" stroke="#63b8ff" d="M245.03,-274.95C234.27,-265.65 221.59,-254.68 211.52,-245.96"/>
<polygon fill="#63b8ff" stroke="#63b8ff" points="213.62,-243.15 203.77,-239.26 209.04,-248.45 213.62,-243.15"/>
</a>
</g>
</g>
<!-- Node6 -->
<g id="Node000006" class="node">
<title>Node6</title>
<g id="a_Node000006"><a xlink:href="no__os__alloc_8h.html" target="_top" xlink:title=" ">
<polygon fill="white" stroke="#666666" points="154.14,-129 71.14,-129 71.14,-110 154.14,-110 154.14,-129"/>
<text text-anchor="middle" x="112.64" y="-117" font-family="Helvetica,sans-Serif" font-size="10.00">no_os_alloc.h</text>
</a>
</g>
</g>
<!-- Node1&#45;&gt;Node6 -->
<g id="edge5_Node000001_Node000006" class="edge">
<title>Node1&#45;&gt;Node6</title>
<g id="a_edge5_Node000001_Node000006"><a xlink:title=" ">
<path fill="none" stroke="#63b8ff" d="M259.85,-274.94C253.02,-259.17 242.09,-236.91 228.64,-220 200.69,-184.86 159,-152.7 133.95,-134.94"/>
<polygon fill="#63b8ff" stroke="#63b8ff" points="135.74,-131.91 125.53,-129.06 131.73,-137.66 135.74,-131.91"/>
</a>
</g>
</g>
<!-- Node7 -->
<g id="Node000007" class="node">
<title>Node7</title>
<g id="a_Node000007"><a xlink:href="no__os__error_8h.html" target="_top" xlink:title="Error codes definition.">
<polygon fill="white" stroke="#666666" points="110.64,-239 28.64,-239 28.64,-220 110.64,-220 110.64,-239"/>
<text text-anchor="middle" x="69.64" y="-227" font-family="Helvetica,sans-Serif" font-size="10.00">no_os_error.h</text>
</a>
</g>
</g>
<!-- Node1&#45;&gt;Node7 -->
<g id="edge8_Node000001_Node000007" class="edge">
<title>Node1&#45;&gt;Node7</title>
<g id="a_edge8_Node000001_Node000007"><a xlink:title=" ">
<path fill="none" stroke="#63b8ff" d="M207.16,-274.95C174.03,-264.24 134.1,-251.34 105.82,-242.19"/>
<polygon fill="#63b8ff" stroke="#63b8ff" points="106.55,-238.75 95.96,-239.01 104.4,-245.41 106.55,-238.75"/>
</a>
</g>
</g>
<!-- Node8 -->
<g id="Node000008" class="node">
<title>Node8</title>
<g id="a_Node000008"><a xlink:href="no__os__units_8h.html" target="_top" xlink:title="Header file of Units.">
<polygon fill="white" stroke="#666666" points="239.14,-74 156.14,-74 156.14,-55 239.14,-55 239.14,-74"/>
<text text-anchor="middle" x="197.64" y="-62" font-family="Helvetica,sans-Serif" font-size="10.00">no_os_units.h</text>
</a>
</g>
</g>
<!-- Node1&#45;&gt;Node8 -->
<g id="edge10_Node000001_Node000008" class="edge">
<title>Node1&#45;&gt;Node8</title>
<g id="a_edge10_Node000001_Node000008"><a xlink:title=" ">
<path fill="none" stroke="#63b8ff" d="M282.84,-274.88C289.72,-264.76 297.1,-251.86 300.64,-239 315.83,-183.72 332.13,-157.91 300.64,-110 289.01,-92.31 268.7,-81.63 249.18,-75.18"/>
<polygon fill="#63b8ff" stroke="#63b8ff" points="249.97,-71.77 239.39,-72.26 247.97,-78.47 249.97,-71.77"/>
</a>
</g>
</g>
<!-- Node9 -->
<g id="Node000009" class="node">
<title>Node9</title>
<g id="a_Node000009"><a xlink:href="no__os__util_8h.html" target="_top" xlink:title="Header file of utility functions.">
<polygon fill="white" stroke="#666666" points="561.14,-74 486.14,-74 486.14,-55 561.14,-55 561.14,-74"/>
<text text-anchor="middle" x="523.64" y="-62" font-family="Helvetica,sans-Serif" font-size="10.00">no_os_util.h</text>
</a>
</g>
</g>
<!-- Node1&#45;&gt;Node9 -->
<g id="edge11_Node000001_Node000009" class="edge">
<title>Node1&#45;&gt;Node9</title>
<g id="a_edge11_Node000001_Node000009"><a xlink:title=" ">
<path fill="none" stroke="#63b8ff" d="M304.09,-274.87C321.05,-265.04 341.08,-252.39 357.64,-239 420.45,-188.2 483.29,-114.89 510.12,-82.26"/>
<polygon fill="#63b8ff" stroke="#63b8ff" points="513.09,-84.15 516.7,-74.19 507.67,-79.73 513.09,-84.15"/>
</a>
</g>
</g>
<!-- Node12 -->
<g id="Node000012" class="node">
<title>Node12</title>
<g id="a_Node000012"><a xlink:href="lt8722_8h.html" target="_top" xlink:title="Header file for the LT8722 Driver.">
<polygon fill="white" stroke="#666666" points="408.64,-129 352.64,-129 352.64,-110 408.64,-110 408.64,-129"/>
<text text-anchor="middle" x="380.64" y="-117" font-family="Helvetica,sans-Serif" font-size="10.00">lt8722.h</text>
</a>
</g>
</g>
<!-- Node1&#45;&gt;Node12 -->
<g id="edge15_Node000001_Node000012" class="edge">
<title>Node1&#45;&gt;Node12</title>
<g id="a_edge15_Node000001_Node000012"><a xlink:title=" ">
<path fill="none" stroke="#63b8ff" d="M300.4,-274.82C313.8,-265.4 328.49,-253.09 338.64,-239 360.99,-207.96 372.42,-163.88 377.41,-139.17"/>
<polygon fill="#63b8ff" stroke="#63b8ff" points="380.91,-139.48 379.31,-129.01 374.03,-138.19 380.91,-139.48"/>
</a>
</g>
</g>
<!-- Node15 -->
<g id="Node000015" class="node">
<title>Node15</title>
<g id="a_Node000015"><a xlink:href="iio__lt8722_8h.html" target="_top" xlink:title="Header file for the LT8722 IIO Driver.">
<polygon fill="white" stroke="#666666" points="701.64,-239 627.64,-239 627.64,-220 701.64,-220 701.64,-239"/>
<text text-anchor="middle" x="664.64" y="-227" font-family="Helvetica,sans-Serif" font-size="10.00">iio_lt8722.h</text>
</a>
</g>
</g>
<!-- Node1&#45;&gt;Node15 -->
<g id="edge25_Node000001_Node000015" class="edge">
<title>Node1&#45;&gt;Node15</title>
<g id="a_edge25_Node000001_Node000015"><a xlink:title=" ">
<path fill="none" stroke="#63b8ff" d="M335.88,-283.5C416.12,-270.56 547.19,-249.43 617.14,-238.16"/>
<polygon fill="#63b8ff" stroke="#63b8ff" points="618.1,-241.55 627.41,-236.5 616.98,-234.64 618.1,-241.55"/>
</a>
</g>
</g>
<!-- Node6&#45;&gt;Node3 -->
<g id="edge6_Node000006_Node000003" class="edge">
<title>Node6&#45;&gt;Node3</title>
<g id="a_edge6_Node000006_Node000003"><a xlink:title=" ">
<path fill="none" stroke="#63b8ff" d="M112.64,-109.75C112.64,-102.8 112.64,-92.85 112.64,-84.13"/>
<polygon fill="#63b8ff" stroke="#63b8ff" points="116.14,-84.09 112.64,-74.09 109.14,-84.09 116.14,-84.09"/>
</a>
</g>
</g>
<!-- Node6&#45;&gt;Node4 -->
<g id="edge7_Node000006_Node000004" class="edge">
<title>Node6&#45;&gt;Node4</title>
<g id="a_edge7_Node000006_Node000004"><a xlink:title=" ">
<path fill="none" stroke="#63b8ff" d="M101.63,-109.61C86.91,-96.68 64.26,-72.32 78.64,-55 103.78,-24.72 219.48,-14.93 279.81,-11.85"/>
<polygon fill="#63b8ff" stroke="#63b8ff" points="280.22,-15.34 290.04,-11.37 279.89,-8.35 280.22,-15.34"/>
</a>
</g>
</g>
<!-- Node7&#45;&gt;Node2 -->
<g id="edge9_Node000007_Node000002" class="edge">
<title>Node7&#45;&gt;Node2</title>
<g id="a_edge9_Node000007_Node000002"><a xlink:title=" ">
<path fill="none" stroke="#63b8ff" d="M75.25,-219.75C79.96,-212.42 86.81,-201.73 92.61,-192.7"/>
<polygon fill="#63b8ff" stroke="#63b8ff" points="95.67,-194.4 98.13,-184.09 89.78,-190.62 95.67,-194.4"/>
</a>
</g>
</g>
<!-- Node9&#45;&gt;Node4 -->
<g id="edge13_Node000009_Node000004" class="edge">
<title>Node9&#45;&gt;Node4</title>
<g id="a_edge13_Node000009_Node000004"><a xlink:title=" ">
<path fill="none" stroke="#63b8ff" d="M490.38,-54.98C452.82,-45.37 391.9,-29.77 353.08,-19.83"/>
<polygon fill="#63b8ff" stroke="#63b8ff" points="353.79,-16.4 343.23,-17.31 352.05,-23.18 353.79,-16.4"/>
</a>
</g>
</g>
<!-- Node10 -->
<g id="Node000010" class="node">
<title>Node10</title>
<g id="a_Node000010"><a xlink:title=" ">
<polygon fill="#e0e0e0" stroke="#999999" points="610.14,-19 557.14,-19 557.14,0 610.14,0 610.14,-19"/>
<text text-anchor="middle" x="583.64" y="-7" font-family="Helvetica,sans-Serif" font-size="10.00">stdint.h</text>
</a>
</g>
</g>
<!-- Node9&#45;&gt;Node10 -->
<g id="edge12_Node000009_Node000010" class="edge">
<title>Node9&#45;&gt;Node10</title>
<g id="a_edge12_Node000009_Node000010"><a xlink:title=" ">
<path fill="none" stroke="#63b8ff" d="M533.28,-54.98C542.15,-47.15 555.51,-35.34 566.25,-25.86"/>
<polygon fill="#63b8ff" stroke="#63b8ff" points="568.64,-28.41 573.82,-19.17 564.01,-23.17 568.64,-28.41"/>
</a>
</g>
</g>
<!-- Node11 -->
<g id="Node000011" class="node">
<title>Node11</title>
<g id="a_Node000011"><a xlink:title=" ">
<polygon fill="#e0e0e0" stroke="#999999" points="979.64,-19 917.64,-19 917.64,0 979.64,0 979.64,-19"/>
<text text-anchor="middle" x="948.64" y="-7" font-family="Helvetica,sans-Serif" font-size="10.00">stdbool.h</text>
</a>
</g>
</g>
<!-- Node9&#45;&gt;Node11 -->
<g id="edge14_Node000009_Node000011" class="edge">
<title>Node9&#45;&gt;Node11</title>
<g id="a_edge14_Node000009_Node000011"><a xlink:title=" ">
<path fill="none" stroke="#63b8ff" d="M561.31,-56.47C564.46,-55.95 567.6,-55.45 570.64,-55 692.48,-36.83 837.33,-21.52 907.06,-14.55"/>
<polygon fill="#63b8ff" stroke="#63b8ff" points="907.58,-18.01 917.19,-13.54 906.89,-11.05 907.58,-18.01"/>
</a>
</g>
</g>
<!-- Node12&#45;&gt;Node3 -->
<g id="edge18_Node000012_Node000003" class="edge">
<title>Node12&#45;&gt;Node3</title>
<g id="a_edge18_Node000012_Node000003"><a xlink:title=" ">
<path fill="none" stroke="#63b8ff" d="M352.44,-113.67C310.17,-106.32 227.68,-91.53 148.05,-74.21"/>
<polygon fill="#63b8ff" stroke="#63b8ff" points="148.37,-70.7 137.85,-71.97 146.87,-77.53 148.37,-70.7"/>
</a>
</g>
</g>
<!-- Node12&#45;&gt;Node8 -->
<g id="edge23_Node000012_Node000008" class="edge">
<title>Node12&#45;&gt;Node8</title>
<g id="a_edge23_Node000012_Node000008"><a xlink:title=" ">
<path fill="none" stroke="#63b8ff" d="M352.45,-110.33C321.51,-101.38 271.64,-86.93 236.89,-76.87"/>
<polygon fill="#63b8ff" stroke="#63b8ff" points="237.65,-73.45 227.08,-74.03 235.71,-80.17 237.65,-73.45"/>
</a>
</g>
</g>
<!-- Node12&#45;&gt;Node9 -->
<g id="edge24_Node000012_Node000009" class="edge">
<title>Node12&#45;&gt;Node9</title>
<g id="a_edge24_Node000012_Node000009"><a xlink:title=" ">
<path fill="none" stroke="#63b8ff" d="M403.61,-109.98C427.14,-101.27 463.92,-87.63 490.58,-77.75"/>
<polygon fill="#63b8ff" stroke="#63b8ff" points="492.08,-80.93 500.24,-74.17 489.65,-74.36 492.08,-80.93"/>
</a>
</g>
</g>
<!-- Node12&#45;&gt;Node10 -->
<g id="edge17_Node000012_Node000010" class="edge">
<title>Node12&#45;&gt;Node10</title>
<g id="a_edge17_Node000012_Node000010"><a xlink:title=" ">
<path fill="none" stroke="#63b8ff" d="M377.08,-109.57C372.36,-96.13 366.04,-70.63 378.64,-55 399.37,-29.28 493.66,-17.67 546.85,-13.08"/>
<polygon fill="#63b8ff" stroke="#63b8ff" points="547.22,-16.56 556.9,-12.26 546.65,-9.59 547.22,-16.56"/>
</a>
</g>
</g>
<!-- Node12&#45;&gt;Node11 -->
<g id="edge16_Node000012_Node000011" class="edge">
<title>Node12&#45;&gt;Node11</title>
<g id="a_edge16_Node000012_Node000011"><a xlink:title=" ">
<path fill="none" stroke="#63b8ff" d="M408.67,-117.63C512,-114.24 867.84,-100.69 910.64,-74 926.95,-63.82 937.18,-43.84 942.86,-29"/>
<polygon fill="#63b8ff" stroke="#63b8ff" points="946.25,-29.91 946.22,-19.31 939.64,-27.61 946.25,-29.91"/>
</a>
</g>
</g>
<!-- Node13 -->
<g id="Node000013" class="node">
<title>Node13</title>
<g id="a_Node000013"><a xlink:href="no__os__gpio_8h.html" target="_top" xlink:title="Header file of GPIO Interface.">
<polygon fill="white" stroke="#666666" points="467.64,-74 387.64,-74 387.64,-55 467.64,-55 467.64,-74"/>
<text text-anchor="middle" x="427.64" y="-62" font-family="Helvetica,sans-Serif" font-size="10.00">no_os_gpio.h</text>
</a>
</g>
</g>
<!-- Node12&#45;&gt;Node13 -->
<g id="edge19_Node000012_Node000013" class="edge">
<title>Node12&#45;&gt;Node13</title>
<g id="a_edge19_Node000012_Node000013"><a xlink:title=" ">
<path fill="none" stroke="#63b8ff" d="M388.4,-109.75C395.11,-102.18 404.98,-91.05 413.14,-81.84"/>
<polygon fill="#63b8ff" stroke="#63b8ff" points="416.01,-83.89 420.02,-74.09 410.77,-79.25 416.01,-83.89"/>
</a>
</g>
</g>
<!-- Node14 -->
<g id="Node000014" class="node">
<title>Node14</title>
<g id="a_Node000014"><a xlink:href="no__os__spi_8h.html" target="_top" xlink:title="Header file of SPI Interface.">
<polygon fill="white" stroke="#666666" points="331.64,-74 257.64,-74 257.64,-55 331.64,-55 331.64,-74"/>
<text text-anchor="middle" x="294.64" y="-62" font-family="Helvetica,sans-Serif" font-size="10.00">no_os_spi.h</text>
</a>
</g>
</g>
<!-- Node12&#45;&gt;Node14 -->
<g id="edge21_Node000012_Node000014" class="edge">
<title>Node12&#45;&gt;Node14</title>
<g id="a_edge21_Node000012_Node000014"><a xlink:title=" ">
<path fill="none" stroke="#63b8ff" d="M366.82,-109.98C353.48,-101.77 333.06,-89.18 317.33,-79.49"/>
<polygon fill="#63b8ff" stroke="#63b8ff" points="319.06,-76.44 308.71,-74.17 315.38,-82.4 319.06,-76.44"/>
</a>
</g>
</g>
<!-- Node13&#45;&gt;Node10 -->
<g id="edge20_Node000013_Node000010" class="edge">
<title>Node13&#45;&gt;Node10</title>
<g id="a_edge20_Node000013_Node000010"><a xlink:title=" ">
<path fill="none" stroke="#63b8ff" d="M452.7,-54.98C478.67,-46.16 519.45,-32.31 548.6,-22.41"/>
<polygon fill="#63b8ff" stroke="#63b8ff" points="550.03,-25.61 558.38,-19.08 547.78,-18.99 550.03,-25.61"/>
</a>
</g>
</g>
<!-- Node14&#45;&gt;Node10 -->
<g id="edge22_Node000014_Node000010" class="edge">
<title>Node14&#45;&gt;Node10</title>
<g id="a_edge22_Node000014_Node000010"><a xlink:title=" ">
<path fill="none" stroke="#63b8ff" d="M331.83,-56.68C387.4,-46.49 491.47,-27.4 546.82,-17.25"/>
<polygon fill="#63b8ff" stroke="#63b8ff" points="547.69,-20.65 556.89,-15.41 546.42,-13.77 547.69,-20.65"/>
</a>
</g>
</g>
<!-- Node15&#45;&gt;Node11 -->
<g id="edge26_Node000015_Node000011" class="edge">
<title>Node15&#45;&gt;Node11</title>
<g id="a_edge26_Node000015_Node000011"><a xlink:title=" ">
<path fill="none" stroke="#63b8ff" d="M701.84,-224.33C774.29,-213.96 932.86,-179.69 997.64,-74 1008.64,-56.04 989.54,-37.14 972.06,-24.68"/>
<polygon fill="#63b8ff" stroke="#63b8ff" points="974.01,-21.77 963.75,-19.11 970.11,-27.58 974.01,-21.77"/>
</a>
</g>
</g>
<!-- Node15&#45;&gt;Node12 -->
<g id="edge40_Node000015_Node000012" class="edge">
<title>Node15&#45;&gt;Node12</title>
<g id="a_edge40_Node000015_Node000012"><a xlink:title=" ">
<path fill="none" stroke="#63b8ff" d="M641.88,-219.84C591.48,-200.68 470.39,-154.63 412.5,-132.62"/>
<polygon fill="#63b8ff" stroke="#63b8ff" points="413.7,-129.33 403.11,-129.05 411.22,-135.87 413.7,-129.33"/>
</a>
</g>
</g>
<!-- Node16 -->
<g id="Node000016" class="node">
<title>Node16</title>
<g id="a_Node000016"><a xlink:href="iio_8h.html" target="_top" xlink:title="Header file of iio.">
<polygon fill="white" stroke="#666666" points="754.64,-184 716.64,-184 716.64,-165 754.64,-165 754.64,-184"/>
<text text-anchor="middle" x="735.64" y="-172" font-family="Helvetica,sans-Serif" font-size="10.00">iio.h</text>
</a>
</g>
</g>
<!-- Node15&#45;&gt;Node16 -->
<g id="edge27_Node000015_Node000016" class="edge">
<title>Node15&#45;&gt;Node16</title>
<g id="a_edge27_Node000015_Node000016"><a xlink:title=" ">
<path fill="none" stroke="#63b8ff" d="M676.05,-219.98C686.75,-212 702.98,-199.88 715.8,-190.31"/>
<polygon fill="#63b8ff" stroke="#63b8ff" points="718.1,-192.96 724.02,-184.17 713.92,-187.35 718.1,-192.96"/>
</a>
</g>
</g>
<!-- Node17 -->
<g id="Node000017" class="node">
<title>Node17</title>
<g id="a_Node000017"><a xlink:href="iio__types_8h.html" target="_top" xlink:title="Header file for iio_types.">
<polygon fill="white" stroke="#666666" points="770.64,-129 700.64,-129 700.64,-110 770.64,-110 770.64,-129"/>
<text text-anchor="middle" x="735.64" y="-117" font-family="Helvetica,sans-Serif" font-size="10.00">iio_types.h</text>
</a>
</g>
</g>
<!-- Node16&#45;&gt;Node17 -->
<g id="edge28_Node000016_Node000017" class="edge">
<title>Node16&#45;&gt;Node17</title>
<g id="a_edge28_Node000016_Node000017"><a xlink:title=" ">
<path fill="none" stroke="#63b8ff" d="M735.64,-164.75C735.64,-157.8 735.64,-147.85 735.64,-139.13"/>
<polygon fill="#63b8ff" stroke="#63b8ff" points="739.14,-139.09 735.64,-129.09 732.14,-139.09 739.14,-139.09"/>
</a>
</g>
</g>
<!-- Node19 -->
<g id="Node000019" class="node">
<title>Node19</title>
<g id="a_Node000019"><a xlink:href="no__os__uart_8h.html" target="_top" xlink:title="Header file of UART interface.">
<polygon fill="white" stroke="#666666" points="880.14,-129 801.14,-129 801.14,-110 880.14,-110 880.14,-129"/>
<text text-anchor="middle" x="840.64" y="-117" font-family="Helvetica,sans-Serif" font-size="10.00">no_os_uart.h</text>
</a>
</g>
</g>
<!-- Node16&#45;&gt;Node19 -->
<g id="edge33_Node000016_Node000019" class="edge">
<title>Node16&#45;&gt;Node19</title>
<g id="a_edge33_Node000016_Node000019"><a xlink:title=" ">
<path fill="none" stroke="#63b8ff" d="M752.51,-164.98C769.25,-156.54 795.14,-143.47 814.53,-133.68"/>
<polygon fill="#63b8ff" stroke="#63b8ff" points="816.11,-136.8 823.46,-129.17 812.96,-130.55 816.11,-136.8"/>
</a>
</g>
</g>
<!-- Node17&#45;&gt;Node10 -->
<g id="edge30_Node000017_Node000010" class="edge">
<title>Node17&#45;&gt;Node10</title>
<g id="a_edge30_Node000017_Node000010"><a xlink:title=" ">
<path fill="none" stroke="#63b8ff" d="M735.47,-109.87C734.74,-96.36 731.37,-70.21 716.64,-55 691.26,-28.79 650.03,-18.02 620.19,-13.59"/>
<polygon fill="#63b8ff" stroke="#63b8ff" points="620.53,-10.1 610.16,-12.27 619.62,-17.04 620.53,-10.1"/>
</a>
</g>
</g>
<!-- Node17&#45;&gt;Node11 -->
<g id="edge29_Node000017_Node000011" class="edge">
<title>Node17&#45;&gt;Node11</title>
<g id="a_edge29_Node000017_Node000011"><a xlink:title=" ">
<path fill="none" stroke="#63b8ff" d="M770.8,-113.31C827.09,-104.65 932.29,-86.95 943.64,-74 954.22,-61.92 954.4,-43.12 952.58,-29.1"/>
<polygon fill="#63b8ff" stroke="#63b8ff" points="956.01,-28.37 950.86,-19.11 949.11,-29.56 956.01,-28.37"/>
</a>
</g>
</g>
<!-- Node18 -->
<g id="Node000018" class="node">
<title>Node18</title>
<g id="a_Node000018"><a xlink:href="no__os__circular__buffer_8h.html" target="_top" xlink:title="Circular buffer library header.">
<polygon fill="white" stroke="#666666" points="707.64,-74 579.64,-74 579.64,-55 707.64,-55 707.64,-74"/>
<text text-anchor="middle" x="643.64" y="-62" font-family="Helvetica,sans-Serif" font-size="10.00">no_os_circular_buffer.h</text>
</a>
</g>
</g>
<!-- Node17&#45;&gt;Node18 -->
<g id="edge31_Node000017_Node000018" class="edge">
<title>Node17&#45;&gt;Node18</title>
<g id="a_edge31_Node000017_Node000018"><a xlink:title=" ">
<path fill="none" stroke="#63b8ff" d="M720.86,-109.98C706.46,-101.69 684.33,-88.94 667.45,-79.22"/>
<polygon fill="#63b8ff" stroke="#63b8ff" points="669.1,-76.13 658.69,-74.17 665.61,-82.19 669.1,-76.13"/>
</a>
</g>
</g>
<!-- Node18&#45;&gt;Node10 -->
<g id="edge32_Node000018_Node000010" class="edge">
<title>Node18&#45;&gt;Node10</title>
<g id="a_edge32_Node000018_Node000010"><a xlink:title=" ">
<path fill="none" stroke="#63b8ff" d="M634,-54.98C625.13,-47.15 611.76,-35.34 601.03,-25.86"/>
<polygon fill="#63b8ff" stroke="#63b8ff" points="603.27,-23.17 593.45,-19.17 598.63,-28.41 603.27,-23.17"/>
</a>
</g>
</g>
<!-- Node19&#45;&gt;Node10 -->
<g id="edge34_Node000019_Node000010" class="edge">
<title>Node19&#45;&gt;Node10</title>
<g id="a_edge34_Node000019_Node000010"><a xlink:title=" ">
<path fill="none" stroke="#63b8ff" d="M828.6,-109.78C809.65,-96.4 771.32,-70.7 735.64,-55 697.65,-38.29 651.62,-25.82 620.23,-18.39"/>
<polygon fill="#63b8ff" stroke="#63b8ff" points="620.71,-14.91 610.18,-16.07 619.14,-21.73 620.71,-14.91"/>
</a>
</g>
</g>
<!-- Node19&#45;&gt;Node11 -->
<g id="edge35_Node000019_Node000011" class="edge">
<title>Node19&#45;&gt;Node11</title>
<g id="a_edge35_Node000019_Node000011"><a xlink:title=" ">
<path fill="none" stroke="#63b8ff" d="M880.45,-117.99C913.49,-115.19 958.65,-105.37 981.64,-74 992.69,-58.92 979.35,-39.63 966.47,-26.29"/>
<polygon fill="#63b8ff" stroke="#63b8ff" points="968.76,-23.63 959.13,-19.2 963.89,-28.66 968.76,-23.63"/>
</a>
</g>
</g>
<!-- Node20 -->
<g id="Node000020" class="node">
<title>Node20</title>
<g id="a_Node000020"><a xlink:href="no__os__lf256fifo_8h.html" target="_top" xlink:title="SPSC lock&#45;free fifo of fixed size (256), specialized for UART.">
<polygon fill="white" stroke="#666666" points="901.64,-74 801.64,-74 801.64,-55 901.64,-55 901.64,-74"/>
<text text-anchor="middle" x="851.64" y="-62" font-family="Helvetica,sans-Serif" font-size="10.00">no_os_lf256fifo.h</text>
</a>
</g>
</g>
<!-- Node19&#45;&gt;Node20 -->
<g id="edge36_Node000019_Node000020" class="edge">
<title>Node19&#45;&gt;Node20</title>
<g id="a_edge36_Node000019_Node000020"><a xlink:title=" ">
<path fill="none" stroke="#63b8ff" d="M842.45,-109.75C843.9,-102.8 845.96,-92.85 847.77,-84.13"/>
<polygon fill="#63b8ff" stroke="#63b8ff" points="851.25,-84.59 849.86,-74.09 844.4,-83.17 851.25,-84.59"/>
</a>
</g>
</g>
<!-- Node20&#45;&gt;Node4 -->
<g id="edge37_Node000020_Node000004" class="edge">
<title>Node20&#45;&gt;Node4</title>
<g id="a_edge37_Node000020_Node000004"><a xlink:title=" ">
<path fill="none" stroke="#63b8ff" d="M801.31,-58.51C694.48,-47.93 447.21,-23.44 353.52,-14.15"/>
<polygon fill="#63b8ff" stroke="#63b8ff" points="353.69,-10.65 343.39,-13.15 353,-17.62 353.69,-10.65"/>
</a>
</g>
</g>
<!-- Node20&#45;&gt;Node10 -->
<g id="edge38_Node000020_Node000010" class="edge">
<title>Node20&#45;&gt;Node10</title>
<g id="a_edge38_Node000020_Node000010"><a xlink:title=" ">
<path fill="none" stroke="#63b8ff" d="M808.58,-54.98C756.36,-44.66 669.26,-27.43 620.18,-17.73"/>
<polygon fill="#63b8ff" stroke="#63b8ff" points="620.79,-14.28 610.3,-15.77 619.43,-21.15 620.79,-14.28"/>
</a>
</g>
</g>
<!-- Node20&#45;&gt;Node11 -->
<g id="edge39_Node000020_Node000011" class="edge">
<title>Node20&#45;&gt;Node11</title>
<g id="a_edge39_Node000020_Node000011"><a xlink:title=" ">
<path fill="none" stroke="#63b8ff" d="M867.22,-54.98C882.41,-46.69 905.74,-33.94 923.54,-24.22"/>
<polygon fill="#63b8ff" stroke="#63b8ff" points="925.67,-27.04 932.77,-19.17 922.32,-20.89 925.67,-27.04"/>
</a>
</g>
</g>
</g>
</svg>

<g id="navigator" transform="translate(0 0)" fill="#404254">
  <rect fill="#f2f5e9" fill-opacity="0.5" stroke="#606060" stroke-width=".5" x="0" y="0" width="60" height="60"/>
  <use id="zoomplus" xlink:href="#zoomPlus" x="17" y="9" onmousedown="handleZoom(evt,'in')"/>
  <use id="zoomminus" xlink:href="#zoomMin" x="42" y="9" onmousedown="handleZoom(evt,'out')"/>
  <use id="reset" xlink:href="#resetDef" x="30" y="36" onmousedown="handleReset()"/>
   <use id="arrowup" xlink:href="#arrowUp" x="0" y="0" onmousedown="handlePan(0,-1)"/>
  <use id="arrowright" xlink:href="#arrowRight" x="0" y="0" onmousedown="handlePan(1,0)"/>
  <use id="arrowdown" xlink:href="#arrowDown" x="0" y="0" onmousedown="handlePan(0,1)"/>
  <use id="arrowleft" xlink:href="#arrowLeft" x="0" y="0" onmousedown="handlePan(-1,0)"/>
</g>
<svg viewBox="0 0 15 15" width="100%" height="30px" preserveAspectRatio="xMaxYMin meet">
 <g id="arrow_out" transform="scale(0.3 0.3)">
  <a xlink:href="iio__lt8722_8c__incl_org.svg" target="_base">
   <rect id="button" ry="5" rx="5" y="6" x="6" height="38" width="38"
        fill="#f2f5e9" fill-opacity="0.5" stroke="#606060" stroke-width="1.0"/>
   <path id="arrow"
     d="M 11.500037,31.436501 C 11.940474,20.09759 22.043105,11.32322 32.158766,21.979434 L 37.068811,17.246167 C 37.068811,17.246167 37.088388,32 37.088388,32 L 22.160133,31.978069 C 22.160133,31.978069 26.997745,27.140456 26.997745,27.140456 C 18.528582,18.264221 13.291696,25.230495 11.500037,31.436501 z"
     style="fill:#404040;"/>
  </a>
 </g>
</svg>

<style type='text/css'>
<![CDATA[
[data-mouse-over-selected='false'] { opacity: 0.7; }
[data-mouse-over-selected='true']  { opacity: 1.0; }
]]>
</style>
<script type="application/ecmascript"><![CDATA[
document.addEventListener('DOMContentLoaded', (event) => {
  highlightEdges();
  highlightAdjacentNodes();
});
]]></script>
</svg>
