<?xml version="1.0" encoding="UTF-8" standalone="no"?>
<!DOCTYPE svg PUBLIC "-//W3C//DTD SVG 1.1//EN"
 "http://www.w3.org/Graphics/SVG/1.1/DTD/svg11.dtd">
<!-- Generated by graphviz version 2.43.0 (0)
 -->
<!-- Title: /home/runner/work/no&#45;OS/no&#45;OS/drivers/amplifiers/adl8113/iio_adl8113.h Pages: 1 -->
<!--zoomable 269 -->

<svg id="main" version="1.1" xmlns="http://www.w3.org/2000/svg" xmlns:xlink="http://www.w3.org/1999/xlink" xml:space="preserve" onload="init(evt)">

<style type="text/css"><![CDATA[
.node, .edge {opacity: 0.7;}
.node.selected, .edge.selected {opacity: 1;}
.edge:hover path { stroke: red; }
.edge:hover polygon { stroke: red; fill: red; }
]]></style>

<defs>
  <circle id="rim" cx="0" cy="0" r="7"/>
  <circle id="rim2" cx="0" cy="0" r="3.5"/>
  <g id="zoomPlus">
    <use xlink:href="#rim" fill="#404040"><set attributeName="fill" to="#808080" begin="zoomplus.mouseover" end="zoomplus.mouseout"/></use>
    <path d="M-4,0h8M0,-4v8" fill="none" stroke="white" stroke-width="1.5" pointer-events="none"/>
  </g>
  <g id="zoomMin">
    <use xlink:href="#rim" fill="#404040"><set attributeName="fill" to="#808080" begin="zoomminus.mouseover" end="zoomminus.mouseout"/></use>
    <path d="M-4,0h8" fill="none" stroke="white" stroke-width="1.5" pointer-events="none"/>
  </g>
  <g id="arrowUp" transform="translate(30 24)">
    <use xlink:href="#rim"/>
    <path pointer-events="none" fill="none" stroke="white" stroke-width="1.5" d="M0,-3.0v7 M-2.5,-0.5L0,-3.0L2.5,-0.5"/>
  </g>
  <g id="arrowRight" transform="rotate(90) translate(36 -43)">
    <use xlink:href="#rim"/>
    <path pointer-events="none" fill="none" stroke="white" stroke-width="1.5" d="M0,-3.0v7 M-2.5,-0.5L0,-3.0L2.5,-0.5"/>
  </g>
  <g id="arrowDown" transform="rotate(180) translate(-30 -48)">
    <use xlink:href="#rim"/>
    <path pointer-events="none" fill="none" stroke="white" stroke-width="1.5" d="M0,-3.0v7 M-2.5,-0.5L0,-3.0L2.5,-0.5"/>
  </g>
  <g id="arrowLeft" transform="rotate(270) translate(-36 17)">
    <use xlink:href="#rim"/>
    <path pointer-events="none" fill="none" stroke="white" stroke-width="1.5" d="M0,-3.0v7 M-2.5,-0.5L0,-3.0L2.5,-0.5"/>
  </g>
  <g id="resetDef">
    <use xlink:href="#rim2" fill="#404040"><set attributeName="fill" to="#808080" begin="reset.mouseover" end="reset.mouseout"/></use>
  </g>
</defs>
<script type="application/ecmascript">
var viewWidth = 579;
var viewHeight = 269;
var sectionId = 'dynsection-0';
</script>
<script type="application/ecmascript" xlink:href="svg.min.js"/>
<svg id="graph" class="graph">
<g id="viewport">
<title>/home/runner/work/no&#45;OS/no&#45;OS/drivers/amplifiers/adl8113/iio_adl8113.h</title>
<!-- Node1 -->
<g id="Node000001" class="node">
<title>Node1</title>
<g id="a_Node000001"><a xlink:title="Header file for ADL8113 IIO Driver.">
<polygon fill="#999999" stroke="#666666" points="359.02,-261 204.02,-261 204.02,-220 359.02,-220 359.02,-261"/>
<text text-anchor="start" x="212.02" y="-249" font-family="Helvetica,sans-Serif" font-size="10.00">/home/runner/work/no</text>
<text text-anchor="start" x="212.02" y="-238" font-family="Helvetica,sans-Serif" font-size="10.00">&#45;OS/no&#45;OS/drivers/amplifiers</text>
<text text-anchor="middle" x="281.52" y="-227" font-family="Helvetica,sans-Serif" font-size="10.00">/adl8113/iio_adl8113.h</text>
</a>
</g>
</g>
<!-- Node2 -->
<g id="Node000002" class="node">
<title>Node2</title>
<g id="a_Node000002"><a xlink:title=" ">
<polygon fill="#e0e0e0" stroke="#999999" points="240.02,-19 187.02,-19 187.02,0 240.02,0 240.02,-19"/>
<text text-anchor="middle" x="213.52" y="-7" font-family="Helvetica,sans-Serif" font-size="10.00">stdint.h</text>
</a>
</g>
</g>
<!-- Node1&#45;&gt;Node2 -->
<g id="edge1_Node000001_Node000002" class="edge">
<title>Node1&#45;&gt;Node2</title>
<g id="a_edge1_Node000001_Node000002"><a xlink:title=" ">
<path fill="none" stroke="#63b8ff" d="M256.12,-219.86C222.17,-191.81 163.61,-136.7 140.52,-74 137.6,-66.08 136.39,-62.36 140.52,-55 148.63,-40.56 163.54,-30.26 177.77,-23.22"/>
<polygon fill="#63b8ff" stroke="#63b8ff" points="179.29,-26.38 186.96,-19.06 176.4,-20 179.29,-26.38"/>
</a>
</g>
</g>
<!-- Node3 -->
<g id="Node000003" class="node">
<title>Node3</title>
<g id="a_Node000003"><a xlink:title=" ">
<polygon fill="#e0e0e0" stroke="#999999" points="568.52,-19 506.52,-19 506.52,0 568.52,0 568.52,-19"/>
<text text-anchor="middle" x="537.52" y="-7" font-family="Helvetica,sans-Serif" font-size="10.00">stdbool.h</text>
</a>
</g>
</g>
<!-- Node1&#45;&gt;Node3 -->
<g id="edge2_Node000001_Node000003" class="edge">
<title>Node1&#45;&gt;Node3</title>
<g id="a_edge2_Node000001_Node000003"><a xlink:title=" ">
<path fill="none" stroke="#63b8ff" d="M354.94,-219.94C423.6,-197.3 522.17,-152.64 567.52,-74 576.42,-58.58 565.4,-40.09 554.3,-27.05"/>
<polygon fill="#63b8ff" stroke="#63b8ff" points="556.55,-24.33 547.2,-19.36 551.41,-29.08 556.55,-24.33"/>
</a>
</g>
</g>
<!-- Node4 -->
<g id="Node000004" class="node">
<title>Node4</title>
<g id="a_Node000004"><a xlink:href="iio_8h.html" target="_top" xlink:title="Header file of iio.">
<polygon fill="white" stroke="#666666" points="347.52,-184 309.52,-184 309.52,-165 347.52,-165 347.52,-184"/>
<text text-anchor="middle" x="328.52" y="-172" font-family="Helvetica,sans-Serif" font-size="10.00">iio.h</text>
</a>
</g>
</g>
<!-- Node1&#45;&gt;Node4 -->
<g id="edge3_Node000001_Node000004" class="edge">
<title>Node1&#45;&gt;Node4</title>
<g id="a_edge3_Node000001_Node000004"><a xlink:title=" ">
<path fill="none" stroke="#63b8ff" d="M295.88,-219.95C302.3,-211.2 309.81,-200.99 316,-192.56"/>
<polygon fill="#63b8ff" stroke="#63b8ff" points="318.99,-194.39 322.09,-184.26 313.35,-190.25 318.99,-194.39"/>
</a>
</g>
</g>
<!-- Node5 -->
<g id="Node000005" class="node">
<title>Node5</title>
<g id="a_Node000005"><a xlink:href="iio__types_8h.html" target="_top" xlink:title="Header file for iio_types.">
<polygon fill="white" stroke="#666666" points="340.52,-129 270.52,-129 270.52,-110 340.52,-110 340.52,-129"/>
<text text-anchor="middle" x="305.52" y="-117" font-family="Helvetica,sans-Serif" font-size="10.00">iio_types.h</text>
</a>
</g>
</g>
<!-- Node1&#45;&gt;Node5 -->
<g id="edge16_Node000001_Node000005" class="edge">
<title>Node1&#45;&gt;Node5</title>
<g id="a_edge16_Node000001_Node000005"><a xlink:title=" ">
<path fill="none" stroke="#63b8ff" d="M285.49,-219.85C290,-197.48 297.32,-161.19 301.75,-139.21"/>
<polygon fill="#63b8ff" stroke="#63b8ff" points="305.23,-139.67 303.77,-129.18 298.36,-138.29 305.23,-139.67"/>
</a>
</g>
</g>
<!-- Node10 -->
<g id="Node000010" class="node">
<title>Node10</title>
<g id="a_Node000010"><a xlink:href="adl8113_8h.html" target="_top" xlink:title="Header file for ADL8113 Driver.">
<polygon fill="white" stroke="#666666" points="90.02,-129 25.02,-129 25.02,-110 90.02,-110 90.02,-129"/>
<text text-anchor="middle" x="57.52" y="-117" font-family="Helvetica,sans-Serif" font-size="10.00">adl8113.h</text>
</a>
</g>
</g>
<!-- Node1&#45;&gt;Node10 -->
<g id="edge17_Node000001_Node000010" class="edge">
<title>Node1&#45;&gt;Node10</title>
<g id="a_edge17_Node000001_Node000010"><a xlink:title=" ">
<path fill="none" stroke="#63b8ff" d="M203.82,-225.21C172.01,-216.8 136.05,-203.78 107.52,-184 90.28,-172.05 76.13,-152.4 67.33,-138.12"/>
<polygon fill="#63b8ff" stroke="#63b8ff" points="70.21,-136.11 62.13,-129.25 64.17,-139.65 70.21,-136.11"/>
</a>
</g>
</g>
<!-- Node4&#45;&gt;Node5 -->
<g id="edge4_Node000004_Node000005" class="edge">
<title>Node4&#45;&gt;Node5</title>
<g id="a_edge4_Node000004_Node000005"><a xlink:title=" ">
<path fill="none" stroke="#63b8ff" d="M324.72,-164.75C321.61,-157.57 317.1,-147.18 313.23,-138.27"/>
<polygon fill="#63b8ff" stroke="#63b8ff" points="316.44,-136.87 309.25,-129.09 310.02,-139.66 316.44,-136.87"/>
</a>
</g>
</g>
<!-- Node7 -->
<g id="Node000007" class="node">
<title>Node7</title>
<g id="a_Node000007"><a xlink:href="no__os__uart_8h.html" target="_top" xlink:title="Header file of UART interface.">
<polygon fill="white" stroke="#666666" points="449.02,-129 370.02,-129 370.02,-110 449.02,-110 449.02,-129"/>
<text text-anchor="middle" x="409.52" y="-117" font-family="Helvetica,sans-Serif" font-size="10.00">no_os_uart.h</text>
</a>
</g>
</g>
<!-- Node4&#45;&gt;Node7 -->
<g id="edge9_Node000004_Node000007" class="edge">
<title>Node4&#45;&gt;Node7</title>
<g id="a_edge9_Node000004_Node000007"><a xlink:title=" ">
<path fill="none" stroke="#63b8ff" d="M341.54,-164.98C353.98,-156.84 372.98,-144.41 387.73,-134.76"/>
<polygon fill="#63b8ff" stroke="#63b8ff" points="389.82,-137.57 396.27,-129.17 385.99,-131.72 389.82,-137.57"/>
</a>
</g>
</g>
<!-- Node5&#45;&gt;Node2 -->
<g id="edge6_Node000005_Node000002" class="edge">
<title>Node5&#45;&gt;Node2</title>
<g id="a_edge6_Node000005_Node000002"><a xlink:title=" ">
<path fill="none" stroke="#63b8ff" d="M304.88,-109.81C303.52,-96.68 299.31,-71.58 286.52,-55 275.89,-41.21 259.67,-30.72 245.22,-23.39"/>
<polygon fill="#63b8ff" stroke="#63b8ff" points="246.59,-20.17 236.06,-19.03 243.59,-26.49 246.59,-20.17"/>
</a>
</g>
</g>
<!-- Node5&#45;&gt;Node3 -->
<g id="edge5_Node000005_Node000003" class="edge">
<title>Node5&#45;&gt;Node3</title>
<g id="a_edge5_Node000005_Node000003"><a xlink:title=" ">
<path fill="none" stroke="#63b8ff" d="M340.75,-112.85C396.6,-103.61 500.5,-85.19 513.52,-74 526.5,-62.85 532.47,-43.92 535.22,-29.62"/>
<polygon fill="#63b8ff" stroke="#63b8ff" points="538.73,-29.81 536.8,-19.39 531.81,-28.74 538.73,-29.81"/>
</a>
</g>
</g>
<!-- Node6 -->
<g id="Node000006" class="node">
<title>Node6</title>
<g id="a_Node000006"><a xlink:href="no__os__circular__buffer_8h.html" target="_top" xlink:title="Circular buffer library header.">
<polygon fill="white" stroke="#666666" points="277.52,-74 149.52,-74 149.52,-55 277.52,-55 277.52,-74"/>
<text text-anchor="middle" x="213.52" y="-62" font-family="Helvetica,sans-Serif" font-size="10.00">no_os_circular_buffer.h</text>
</a>
</g>
</g>
<!-- Node5&#45;&gt;Node6 -->
<g id="edge7_Node000005_Node000006" class="edge">
<title>Node5&#45;&gt;Node6</title>
<g id="a_edge7_Node000005_Node000006"><a xlink:title=" ">
<path fill="none" stroke="#63b8ff" d="M290.74,-109.98C276.34,-101.69 254.21,-88.94 237.33,-79.22"/>
<polygon fill="#63b8ff" stroke="#63b8ff" points="238.98,-76.13 228.57,-74.17 235.49,-82.19 238.98,-76.13"/>
</a>
</g>
</g>
<!-- Node6&#45;&gt;Node2 -->
<g id="edge8_Node000006_Node000002" class="edge">
<title>Node6&#45;&gt;Node2</title>
<g id="a_edge8_Node000006_Node000002"><a xlink:title=" ">
<path fill="none" stroke="#63b8ff" d="M213.52,-54.75C213.52,-47.8 213.52,-37.85 213.52,-29.13"/>
<polygon fill="#63b8ff" stroke="#63b8ff" points="217.02,-29.09 213.52,-19.09 210.02,-29.09 217.02,-29.09"/>
</a>
</g>
</g>
<!-- Node7&#45;&gt;Node2 -->
<g id="edge10_Node000007_Node000002" class="edge">
<title>Node7&#45;&gt;Node2</title>
<g id="a_edge10_Node000007_Node000002"><a xlink:title=" ">
<path fill="none" stroke="#63b8ff" d="M396.31,-109.85C376.79,-97.22 338.95,-73.23 305.52,-55 284.53,-43.55 260.14,-31.82 241.75,-23.28"/>
<polygon fill="#63b8ff" stroke="#63b8ff" points="243.02,-20.01 232.47,-19.01 240.09,-26.37 243.02,-20.01"/>
</a>
</g>
</g>
<!-- Node7&#45;&gt;Node3 -->
<g id="edge11_Node000007_Node000003" class="edge">
<title>Node7&#45;&gt;Node3</title>
<g id="a_edge11_Node000007_Node000003"><a xlink:title=" ">
<path fill="none" stroke="#63b8ff" d="M449.28,-118.1C482.57,-115.4 528.27,-105.65 551.52,-74 561.31,-60.68 555.32,-41.81 548.4,-28.11"/>
<polygon fill="#63b8ff" stroke="#63b8ff" points="551.34,-26.21 543.4,-19.2 545.24,-29.63 551.34,-26.21"/>
</a>
</g>
</g>
<!-- Node8 -->
<g id="Node000008" class="node">
<title>Node8</title>
<g id="a_Node000008"><a xlink:href="no__os__lf256fifo_8h.html" target="_top" xlink:title="SPSC lock&#45;free fifo of fixed size (256), specialized for UART.">
<polygon fill="white" stroke="#666666" points="471.52,-74 371.52,-74 371.52,-55 471.52,-55 471.52,-74"/>
<text text-anchor="middle" x="421.52" y="-62" font-family="Helvetica,sans-Serif" font-size="10.00">no_os_lf256fifo.h</text>
</a>
</g>
</g>
<!-- Node7&#45;&gt;Node8 -->
<g id="edge12_Node000007_Node000008" class="edge">
<title>Node7&#45;&gt;Node8</title>
<g id="a_edge12_Node000007_Node000008"><a xlink:title=" ">
<path fill="none" stroke="#63b8ff" d="M411.5,-109.75C413.09,-102.72 415.38,-92.62 417.37,-83.84"/>
<polygon fill="#63b8ff" stroke="#63b8ff" points="420.78,-84.62 419.58,-74.09 413.96,-83.07 420.78,-84.62"/>
</a>
</g>
</g>
<!-- Node8&#45;&gt;Node2 -->
<g id="edge14_Node000008_Node000002" class="edge">
<title>Node8&#45;&gt;Node2</title>
<g id="a_edge14_Node000008_Node000002"><a xlink:title=" ">
<path fill="none" stroke="#63b8ff" d="M388.1,-54.98C350.36,-45.37 289.15,-29.77 250.14,-19.83"/>
<polygon fill="#63b8ff" stroke="#63b8ff" points="250.8,-16.39 240.25,-17.31 249.07,-23.17 250.8,-16.39"/>
</a>
</g>
</g>
<!-- Node8&#45;&gt;Node3 -->
<g id="edge15_Node000008_Node000003" class="edge">
<title>Node8&#45;&gt;Node3</title>
<g id="a_edge15_Node000008_Node000003"><a xlink:title=" ">
<path fill="none" stroke="#63b8ff" d="M440.16,-54.98C458.82,-46.46 487.77,-33.23 509.26,-23.41"/>
<polygon fill="#63b8ff" stroke="#63b8ff" points="510.9,-26.51 518.55,-19.17 508,-20.14 510.9,-26.51"/>
</a>
</g>
</g>
<!-- Node9 -->
<g id="Node000009" class="node">
<title>Node9</title>
<g id="a_Node000009"><a xlink:title=" ">
<polygon fill="#e0e0e0" stroke="#999999" points="448.02,-19 395.02,-19 395.02,0 448.02,0 448.02,-19"/>
<text text-anchor="middle" x="421.52" y="-7" font-family="Helvetica,sans-Serif" font-size="10.00">stdlib.h</text>
</a>
</g>
</g>
<!-- Node8&#45;&gt;Node9 -->
<g id="edge13_Node000008_Node000009" class="edge">
<title>Node8&#45;&gt;Node9</title>
<g id="a_edge13_Node000008_Node000009"><a xlink:title=" ">
<path fill="none" stroke="#63b8ff" d="M421.52,-54.75C421.52,-47.8 421.52,-37.85 421.52,-29.13"/>
<polygon fill="#63b8ff" stroke="#63b8ff" points="425.02,-29.09 421.52,-19.09 418.02,-29.09 425.02,-29.09"/>
</a>
</g>
</g>
<!-- Node10&#45;&gt;Node2 -->
<g id="edge18_Node000010_Node000002" class="edge">
<title>Node10&#45;&gt;Node2</title>
<g id="a_edge18_Node000010_Node000002"><a xlink:title=" ">
<path fill="none" stroke="#63b8ff" d="M41.28,-109.94C20.35,-97.81 -11.56,-74.87 4.52,-55 25.75,-28.78 122.3,-17.35 176.44,-12.94"/>
<polygon fill="#63b8ff" stroke="#63b8ff" points="176.97,-16.41 186.67,-12.14 176.43,-9.43 176.97,-16.41"/>
</a>
</g>
</g>
<!-- Node10&#45;&gt;Node3 -->
<g id="edge19_Node000010_Node000003" class="edge">
<title>Node10&#45;&gt;Node3</title>
<g id="a_edge19_Node000010_Node000003"><a xlink:title=" ">
<path fill="none" stroke="#63b8ff" d="M90.24,-116.41C183.47,-110.28 445.99,-91.63 480.52,-74 500.65,-63.72 517.04,-43.14 526.99,-28.19"/>
<polygon fill="#63b8ff" stroke="#63b8ff" points="530.19,-29.66 532.57,-19.34 524.27,-25.92 530.19,-29.66"/>
</a>
</g>
</g>
<!-- Node11 -->
<g id="Node000011" class="node">
<title>Node11</title>
<g id="a_Node000011"><a xlink:href="no__os__gpio_8h.html" target="_top" xlink:title="Header file of GPIO Interface.">
<polygon fill="white" stroke="#666666" points="93.52,-74 13.52,-74 13.52,-55 93.52,-55 93.52,-74"/>
<text text-anchor="middle" x="53.52" y="-62" font-family="Helvetica,sans-Serif" font-size="10.00">no_os_gpio.h</text>
</a>
</g>
</g>
<!-- Node10&#45;&gt;Node11 -->
<g id="edge20_Node000010_Node000011" class="edge">
<title>Node10&#45;&gt;Node11</title>
<g id="a_edge20_Node000010_Node000011"><a xlink:title=" ">
<path fill="none" stroke="#63b8ff" d="M56.86,-109.75C56.34,-102.8 55.59,-92.85 54.93,-84.13"/>
<polygon fill="#63b8ff" stroke="#63b8ff" points="58.41,-83.8 54.17,-74.09 51.43,-84.32 58.41,-83.8"/>
</a>
</g>
</g>
<!-- Node11&#45;&gt;Node2 -->
<g id="edge21_Node000011_Node000002" class="edge">
<title>Node11&#45;&gt;Node2</title>
<g id="a_edge21_Node000011_Node000002"><a xlink:title=" ">
<path fill="none" stroke="#63b8ff" d="M79.23,-54.98C105.98,-46.13 148.05,-32.19 177.97,-22.28"/>
<polygon fill="#63b8ff" stroke="#63b8ff" points="179.22,-25.55 187.61,-19.08 177.02,-18.9 179.22,-25.55"/>
</a>
</g>
</g>
</g>
</svg>

<g id="navigator" transform="translate(0 0)" fill="#404254">
  <rect fill="#f2f5e9" fill-opacity="0.5" stroke="#606060" stroke-width=".5" x="0" y="0" width="60" height="60"/>
  <use id="zoomplus" xlink:href="#zoomPlus" x="17" y="9" onmousedown="handleZoom(evt,'in')"/>
  <use id="zoomminus" xlink:href="#zoomMin" x="42" y="9" onmousedown="handleZoom(evt,'out')"/>
  <use id="reset" xlink:href="#resetDef" x="30" y="36" onmousedown="handleReset()"/>
   <use id="arrowup" xlink:href="#arrowUp" x="0" y="0" onmousedown="handlePan(0,-1)"/>
  <use id="arrowright" xlink:href="#arrowRight" x="0" y="0" onmousedown="handlePan(1,0)"/>
  <use id="arrowdown" xlink:href="#arrowDown" x="0" y="0" onmousedown="handlePan(0,1)"/>
  <use id="arrowleft" xlink:href="#arrowLeft" x="0" y="0" onmousedown="handlePan(-1,0)"/>
</g>
<svg viewBox="0 0 15 15" width="100%" height="30px" preserveAspectRatio="xMaxYMin meet">
 <g id="arrow_out" transform="scale(0.3 0.3)">
  <a xlink:href="iio__adl8113_8h__incl_org.svg" target="_base">
   <rect id="button" ry="5" rx="5" y="6" x="6" height="38" width="38"
        fill="#f2f5e9" fill-opacity="0.5" stroke="#606060" stroke-width="1.0"/>
   <path id="arrow"
     d="M 11.500037,31.436501 C 11.940474,20.09759 22.043105,11.32322 32.158766,21.979434 L 37.068811,17.246167 C 37.068811,17.246167 37.088388,32 37.088388,32 L 22.160133,31.978069 C 22.160133,31.978069 26.997745,27.140456 26.997745,27.140456 C 18.528582,18.264221 13.291696,25.230495 11.500037,31.436501 z"
     style="fill:#404040;"/>
  </a>
 </g>
</svg>

<style type='text/css'>
<![CDATA[
[data-mouse-over-selected='false'] { opacity: 0.7; }
[data-mouse-over-selected='true']  { opacity: 1.0; }
]]>
</style>
<script type="application/ecmascript"><![CDATA[
document.addEventListener('DOMContentLoaded', (event) => {
  highlightEdges();
  highlightAdjacentNodes();
});
]]></script>
</svg>
