<?xml version="1.0" encoding="UTF-8" standalone="no"?>
<!DOCTYPE svg PUBLIC "-//W3C//DTD SVG 1.1//EN"
 "http://www.w3.org/Graphics/SVG/1.1/DTD/svg11.dtd">
<!-- Generated by graphviz version 2.43.0 (0)
 -->
<!-- Title: /home/runner/work/no&#45;OS/no&#45;OS/drivers/temperature/adt75/iio_adt75.h Pages: 1 -->
<svg width="506pt" height="137pt"
 viewBox="0.00 0.00 505.50 137.00" xmlns="http://www.w3.org/2000/svg" xmlns:xlink="http://www.w3.org/1999/xlink">
<g id="graph0" class="graph" transform="scale(1 1) rotate(0) translate(4 133)">
<title>/home/runner/work/no&#45;OS/no&#45;OS/drivers/temperature/adt75/iio_adt75.h</title>
<!-- Node1 -->
<g id="Node000001" class="node">
<title>Node1</title>
<g id="a_Node000001"><a xlink:title="Header file of the IIO ADT75 Driver.">
<polygon fill="#999999" stroke="#666666" points="343,-129 176,-129 176,-88 343,-88 343,-129"/>
<text text-anchor="start" x="184" y="-117" font-family="Helvetica,sans-Serif" font-size="10.00">/home/runner/work/no</text>
<text text-anchor="start" x="184" y="-106" font-family="Helvetica,sans-Serif" font-size="10.00">&#45;OS/no&#45;OS/drivers/temperature</text>
<text text-anchor="middle" x="259.5" y="-95" font-family="Helvetica,sans-Serif" font-size="10.00">/adt75/iio_adt75.h</text>
</a>
</g>
</g>
<!-- Node2 -->
<g id="Node000002" class="node">
<title>Node2</title>
<g id="a_Node000002"><a xlink:href="iio__adt75_8c.html" target="_top" xlink:title="Source file of IIO ADT75 Driver.">
<polygon fill="white" stroke="#666666" points="167,-46.5 0,-46.5 0,-5.5 167,-5.5 167,-46.5"/>
<text text-anchor="start" x="8" y="-34.5" font-family="Helvetica,sans-Serif" font-size="10.00">/home/runner/work/no</text>
<text text-anchor="start" x="8" y="-23.5" font-family="Helvetica,sans-Serif" font-size="10.00">&#45;OS/no&#45;OS/drivers/temperature</text>
<text text-anchor="middle" x="83.5" y="-12.5" font-family="Helvetica,sans-Serif" font-size="10.00">/adt75/iio_adt75.c</text>
</a>
</g>
</g>
<!-- Node1&#45;&gt;Node2 -->
<g id="edge1_Node000001_Node000002" class="edge">
<title>Node1&#45;&gt;Node2</title>
<g id="a_edge1_Node000001_Node000002"><a xlink:title=" ">
<path fill="none" stroke="#63b8ff" d="M207.2,-83.58C181.44,-71.8 150.77,-57.77 126.41,-46.63"/>
<polygon fill="#63b8ff" stroke="#63b8ff" points="205.9,-86.83 216.45,-87.81 208.81,-80.47 205.9,-86.83"/>
</a>
</g>
</g>
<!-- Node3 -->
<g id="Node000003" class="node">
<title>Node3</title>
<g id="a_Node000003"><a xlink:href="adt75_2src_2examples_2iio__example_2iio__example_8c.html" target="_top" xlink:title="Implementation of IIO example for AD74413R project.">
<polygon fill="white" stroke="#666666" points="333.5,-52 185.5,-52 185.5,0 333.5,0 333.5,-52"/>
<text text-anchor="start" x="193.5" y="-40" font-family="Helvetica,sans-Serif" font-size="10.00">/home/runner/work/no</text>
<text text-anchor="start" x="193.5" y="-29" font-family="Helvetica,sans-Serif" font-size="10.00">&#45;OS/no&#45;OS/projects/adt75</text>
<text text-anchor="start" x="193.5" y="-18" font-family="Helvetica,sans-Serif" font-size="10.00">/src/examples/iio_example</text>
<text text-anchor="middle" x="259.5" y="-7" font-family="Helvetica,sans-Serif" font-size="10.00">/iio_example.c</text>
</a>
</g>
</g>
<!-- Node1&#45;&gt;Node3 -->
<g id="edge2_Node000001_Node000003" class="edge">
<title>Node1&#45;&gt;Node3</title>
<g id="a_edge2_Node000001_Node000003"><a xlink:title=" ">
<path fill="none" stroke="#63b8ff" d="M259.5,-77.49C259.5,-69.15 259.5,-60.19 259.5,-52.16"/>
<polygon fill="#63b8ff" stroke="#63b8ff" points="256,-77.6 259.5,-87.6 263,-77.6 256,-77.6"/>
</a>
</g>
</g>
<!-- Node4 -->
<g id="Node000004" class="node">
<title>Node4</title>
<g id="a_Node000004"><a xlink:href="swiot__fw_8c.html" target="_top" xlink:title="Main project file for the swiot1l project.">
<polygon fill="white" stroke="#666666" points="497.5,-46.5 351.5,-46.5 351.5,-5.5 497.5,-5.5 497.5,-46.5"/>
<text text-anchor="start" x="359.5" y="-34.5" font-family="Helvetica,sans-Serif" font-size="10.00">/home/runner/work/no</text>
<text text-anchor="start" x="359.5" y="-23.5" font-family="Helvetica,sans-Serif" font-size="10.00">&#45;OS/no&#45;OS/projects/swiot1l</text>
<text text-anchor="middle" x="424.5" y="-12.5" font-family="Helvetica,sans-Serif" font-size="10.00">/src/swiot_fw.c</text>
</a>
</g>
</g>
<!-- Node1&#45;&gt;Node4 -->
<g id="edge3_Node000001_Node000004" class="edge">
<title>Node1&#45;&gt;Node4</title>
<g id="a_edge3_Node000001_Node000004"><a xlink:title=" ">
<path fill="none" stroke="#63b8ff" d="M309.17,-83.27C333.18,-71.55 361.63,-57.67 384.27,-46.63"/>
<polygon fill="#63b8ff" stroke="#63b8ff" points="307.32,-80.28 299.86,-87.81 310.39,-86.57 307.32,-80.28"/>
</a>
</g>
</g>
</g>
</svg>
