<?xml version="1.0" encoding="UTF-8" standalone="no"?>
<!DOCTYPE svg PUBLIC "-//W3C//DTD SVG 1.1//EN"
 "http://www.w3.org/Graphics/SVG/1.1/DTD/svg11.dtd">
<!-- Generated by graphviz version 2.43.0 (0)
 -->
<!-- Title: /home/runner/work/no&#45;OS/no&#45;OS/drivers/adc/adm1177/iio_adm1177.h Pages: 1 -->
<svg width="320pt" height="126pt"
 viewBox="0.00 0.00 319.50 126.00" xmlns="http://www.w3.org/2000/svg" xmlns:xlink="http://www.w3.org/1999/xlink">
<g id="graph0" class="graph" transform="scale(1 1) rotate(0) translate(4 122)">
<title>/home/runner/work/no&#45;OS/no&#45;OS/drivers/adc/adm1177/iio_adm1177.h</title>
<!-- Node1 -->
<g id="Node000001" class="node">
<title>Node1</title>
<g id="a_Node000001"><a xlink:title="Header file of iio_adm1177.">
<polygon fill="#999999" stroke="#666666" points="222,-118 82,-118 82,-77 222,-77 222,-118"/>
<text text-anchor="start" x="90" y="-106" font-family="Helvetica,sans-Serif" font-size="10.00">/home/runner/work/no</text>
<text text-anchor="start" x="90" y="-95" font-family="Helvetica,sans-Serif" font-size="10.00">&#45;OS/no&#45;OS/drivers/adc</text>
<text text-anchor="middle" x="152" y="-84" font-family="Helvetica,sans-Serif" font-size="10.00">/adm1177/iio_adm1177.h</text>
</a>
</g>
</g>
<!-- Node2 -->
<g id="Node000002" class="node">
<title>Node2</title>
<g id="a_Node000002"><a xlink:href="iio__adm1177_8c.html" target="_top" xlink:title="Source file of iio_adm1177.">
<polygon fill="white" stroke="#666666" points="140,-41 0,-41 0,0 140,0 140,-41"/>
<text text-anchor="start" x="8" y="-29" font-family="Helvetica,sans-Serif" font-size="10.00">/home/runner/work/no</text>
<text text-anchor="start" x="8" y="-18" font-family="Helvetica,sans-Serif" font-size="10.00">&#45;OS/no&#45;OS/drivers/adc</text>
<text text-anchor="middle" x="70" y="-7" font-family="Helvetica,sans-Serif" font-size="10.00">/adm1177/iio_adm1177.c</text>
</a>
</g>
</g>
<!-- Node1&#45;&gt;Node2 -->
<g id="edge1_Node000001_Node000002" class="edge">
<title>Node1&#45;&gt;Node2</title>
<g id="a_edge1_Node000001_Node000002"><a xlink:title=" ">
<path fill="none" stroke="#63b8ff" d="M122.8,-69.79C112.44,-60.32 100.99,-49.84 91.4,-41.07"/>
<polygon fill="#63b8ff" stroke="#63b8ff" points="120.71,-72.63 130.46,-76.79 125.44,-67.46 120.71,-72.63"/>
</a>
</g>
</g>
<!-- Node3 -->
<g id="Node000003" class="node">
<title>Node3</title>
<g id="a_Node000003"><a xlink:href="wethlink_2src_2app_2main_8c.html" target="_top" xlink:title=" ">
<polygon fill="white" stroke="#666666" points="311.5,-41 158.5,-41 158.5,0 311.5,0 311.5,-41"/>
<text text-anchor="start" x="166.5" y="-29" font-family="Helvetica,sans-Serif" font-size="10.00">/home/runner/work/no</text>
<text text-anchor="start" x="166.5" y="-18" font-family="Helvetica,sans-Serif" font-size="10.00">&#45;OS/no&#45;OS/projects/wethlink</text>
<text text-anchor="middle" x="235" y="-7" font-family="Helvetica,sans-Serif" font-size="10.00">/src/app/main.c</text>
</a>
</g>
</g>
<!-- Node1&#45;&gt;Node3 -->
<g id="edge2_Node000001_Node000003" class="edge">
<title>Node1&#45;&gt;Node3</title>
<g id="a_edge2_Node000001_Node000003"><a xlink:title=" ">
<path fill="none" stroke="#63b8ff" d="M181.25,-70.07C191.81,-60.52 203.54,-49.93 213.34,-41.07"/>
<polygon fill="#63b8ff" stroke="#63b8ff" points="178.88,-67.49 173.81,-76.79 183.57,-72.69 178.88,-67.49"/>
</a>
</g>
</g>
</g>
</svg>
