<?xml version="1.0" encoding="UTF-8" standalone="no"?>
<!DOCTYPE svg PUBLIC "-//W3C//DTD SVG 1.1//EN"
 "http://www.w3.org/Graphics/SVG/1.1/DTD/svg11.dtd">
<!-- Generated by graphviz version 2.43.0 (0)
 -->
<!-- Title: /home/runner/work/no&#45;OS/no&#45;OS/projects/iio_demo/src/examples/iio_timer_trigger_example/iio_timer_trigger_example.c Pages: 1 -->
<svg width="591pt" height="346pt"
 viewBox="0.00 0.00 591.00 346.00" xmlns="http://www.w3.org/2000/svg" xmlns:xlink="http://www.w3.org/1999/xlink">
<g id="graph0" class="graph" transform="scale(1 1) rotate(0) translate(4 342)">
<title>/home/runner/work/no&#45;OS/no&#45;OS/projects/iio_demo/src/examples/iio_timer_trigger_example/iio_timer_trigger_example.c</title>
<!-- Node1 -->
<g id="Node000001" class="node">
<title>Node1</title>
<g id="a_Node000001"><a xlink:title=" ">
<polygon fill="#999999" stroke="#666666" points="405,-338 256,-338 256,-275 405,-275 405,-338"/>
<text text-anchor="start" x="264" y="-326" font-family="Helvetica,sans-Serif" font-size="10.00">/home/runner/work/no</text>
<text text-anchor="start" x="264" y="-315" font-family="Helvetica,sans-Serif" font-size="10.00">&#45;OS/no&#45;OS/projects/iio</text>
<text text-anchor="start" x="264" y="-304" font-family="Helvetica,sans-Serif" font-size="10.00">_demo/src/examples/iio</text>
<text text-anchor="start" x="264" y="-293" font-family="Helvetica,sans-Serif" font-size="10.00">_timer_trigger_example/iio</text>
<text text-anchor="middle" x="330.5" y="-282" font-family="Helvetica,sans-Serif" font-size="10.00">_timer_trigger_example.c</text>
</a>
</g>
</g>
<!-- Node2 -->
<g id="Node000002" class="node">
<title>Node2</title>
<g id="a_Node000002"><a xlink:href="iio__demo_2src_2examples_2iio__timer__trigger__example_2iio__timer__trigger__example_8h.html" target="_top" xlink:title=" ">
<polygon fill="white" stroke="#666666" points="155,-239 0,-239 0,-220 155,-220 155,-239"/>
<text text-anchor="middle" x="77.5" y="-227" font-family="Helvetica,sans-Serif" font-size="10.00">iio_timer_trigger_example.h</text>
</a>
</g>
</g>
<!-- Node1&#45;&gt;Node2 -->
<g id="edge1_Node000001_Node000002" class="edge">
<title>Node1&#45;&gt;Node2</title>
<g id="a_edge1_Node000001_Node000002"><a xlink:title=" ">
<path fill="none" stroke="#63b8ff" d="M255.96,-283.4C210.13,-269.82 153.28,-252.96 116.24,-241.98"/>
<polygon fill="#63b8ff" stroke="#63b8ff" points="116.92,-238.54 106.34,-239.05 114.93,-245.25 116.92,-238.54"/>
</a>
</g>
</g>
<!-- Node3 -->
<g id="Node000003" class="node">
<title>Node3</title>
<g id="a_Node000003"><a xlink:href="iio__adc__demo_8h.html" target="_top" xlink:title="Header file of ADC Demo iio.">
<polygon fill="white" stroke="#666666" points="266,-239 173,-239 173,-220 266,-220 266,-239"/>
<text text-anchor="middle" x="219.5" y="-227" font-family="Helvetica,sans-Serif" font-size="10.00">iio_adc_demo.h</text>
</a>
</g>
</g>
<!-- Node1&#45;&gt;Node3 -->
<g id="edge2_Node000001_Node000003" class="edge">
<title>Node1&#45;&gt;Node3</title>
<g id="a_edge2_Node000001_Node000003"><a xlink:title=" ">
<path fill="none" stroke="#63b8ff" d="M285.35,-274.99C269.9,-264.55 253.33,-253.36 240.68,-244.81"/>
<polygon fill="#63b8ff" stroke="#63b8ff" points="242.48,-241.8 232.23,-239.1 238.56,-247.6 242.48,-241.8"/>
</a>
</g>
</g>
<!-- Node11 -->
<g id="Node000011" class="node">
<title>Node11</title>
<g id="a_Node000011"><a xlink:href="iio__dac__demo_8h.html" target="_top" xlink:title="Header file of DAC Demo iio.">
<polygon fill="white" stroke="#666666" points="377,-239 284,-239 284,-220 377,-220 377,-239"/>
<text text-anchor="middle" x="330.5" y="-227" font-family="Helvetica,sans-Serif" font-size="10.00">iio_dac_demo.h</text>
</a>
</g>
</g>
<!-- Node1&#45;&gt;Node11 -->
<g id="edge14_Node000001_Node000011" class="edge">
<title>Node1&#45;&gt;Node11</title>
<g id="a_edge14_Node000001_Node000011"><a xlink:title=" ">
<path fill="none" stroke="#63b8ff" d="M330.5,-274.99C330.5,-266.28 330.5,-257.03 330.5,-249.24"/>
<polygon fill="#63b8ff" stroke="#63b8ff" points="334,-249.1 330.5,-239.1 327,-249.1 334,-249.1"/>
</a>
</g>
</g>
<!-- Node13 -->
<g id="Node000013" class="node">
<title>Node13</title>
<g id="a_Node000013"><a xlink:title=" ">
<polygon fill="#e0e0e0" stroke="#999999" points="583,-239 488,-239 488,-220 583,-220 583,-239"/>
<text text-anchor="middle" x="535.5" y="-227" font-family="Helvetica,sans-Serif" font-size="10.00">common_data.h</text>
</a>
</g>
</g>
<!-- Node1&#45;&gt;Node13 -->
<g id="edge20_Node000001_Node000013" class="edge">
<title>Node1&#45;&gt;Node13</title>
<g id="a_edge20_Node000001_Node000013"><a xlink:title=" ">
<path fill="none" stroke="#63b8ff" d="M405.09,-278.21C438.59,-265.96 476.39,-252.12 502.64,-242.52"/>
<polygon fill="#63b8ff" stroke="#63b8ff" points="503.91,-245.78 512.1,-239.06 501.51,-239.21 503.91,-245.78"/>
</a>
</g>
</g>
<!-- Node14 -->
<g id="Node000014" class="node">
<title>Node14</title>
<g id="a_Node000014"><a xlink:href="no__os__util_8h.html" target="_top" xlink:title="Header file of utility functions.">
<polygon fill="white" stroke="#666666" points="470,-239 395,-239 395,-220 470,-220 470,-239"/>
<text text-anchor="middle" x="432.5" y="-227" font-family="Helvetica,sans-Serif" font-size="10.00">no_os_util.h</text>
</a>
</g>
</g>
<!-- Node1&#45;&gt;Node14 -->
<g id="edge21_Node000001_Node000014" class="edge">
<title>Node1&#45;&gt;Node14</title>
<g id="a_edge21_Node000001_Node000014"><a xlink:title=" ">
<path fill="none" stroke="#63b8ff" d="M371.99,-274.99C386.05,-264.65 401.12,-253.58 412.7,-245.06"/>
<polygon fill="#63b8ff" stroke="#63b8ff" points="414.82,-247.85 420.8,-239.1 410.67,-242.21 414.82,-247.85"/>
</a>
</g>
</g>
<!-- Node4 -->
<g id="Node000004" class="node">
<title>Node4</title>
<g id="a_Node000004"><a xlink:title=" ">
<polygon fill="#e0e0e0" stroke="#999999" points="339,-184 286,-184 286,-165 339,-165 339,-184"/>
<text text-anchor="middle" x="312.5" y="-172" font-family="Helvetica,sans-Serif" font-size="10.00">stdlib.h</text>
</a>
</g>
</g>
<!-- Node3&#45;&gt;Node4 -->
<g id="edge3_Node000003_Node000004" class="edge">
<title>Node3&#45;&gt;Node4</title>
<g id="a_edge3_Node000003_Node000004"><a xlink:title=" ">
<path fill="none" stroke="#63b8ff" d="M234.44,-219.98C249,-211.69 271.37,-198.94 288.43,-189.22"/>
<polygon fill="#63b8ff" stroke="#63b8ff" points="290.33,-192.16 297.29,-184.17 286.86,-186.08 290.33,-192.16"/>
</a>
</g>
</g>
<!-- Node5 -->
<g id="Node000005" class="node">
<title>Node5</title>
<g id="a_Node000005"><a xlink:href="iio__types_8h.html" target="_top" xlink:title="Header file for iio_types.">
<polygon fill="white" stroke="#666666" points="292.5,-129 222.5,-129 222.5,-110 292.5,-110 292.5,-129"/>
<text text-anchor="middle" x="257.5" y="-117" font-family="Helvetica,sans-Serif" font-size="10.00">iio_types.h</text>
</a>
</g>
</g>
<!-- Node3&#45;&gt;Node5 -->
<g id="edge4_Node000003_Node000005" class="edge">
<title>Node3&#45;&gt;Node5</title>
<g id="a_edge4_Node000003_Node000005"><a xlink:title=" ">
<path fill="none" stroke="#63b8ff" d="M222.61,-219.66C228.82,-202.01 242.87,-162.09 251.12,-138.64"/>
<polygon fill="#63b8ff" stroke="#63b8ff" points="254.44,-139.75 254.45,-129.16 247.83,-137.43 254.44,-139.75"/>
</a>
</g>
</g>
<!-- Node9 -->
<g id="Node000009" class="node">
<title>Node9</title>
<g id="a_Node000009"><a xlink:href="adc__demo_8h.html" target="_top" xlink:title="Header file of ADC Demo Driver.">
<polygon fill="white" stroke="#666666" points="175.5,-184 99.5,-184 99.5,-165 175.5,-165 175.5,-184"/>
<text text-anchor="middle" x="137.5" y="-172" font-family="Helvetica,sans-Serif" font-size="10.00">adc_demo.h</text>
</a>
</g>
</g>
<!-- Node3&#45;&gt;Node9 -->
<g id="edge9_Node000003_Node000009" class="edge">
<title>Node3&#45;&gt;Node9</title>
<g id="a_edge9_Node000003_Node000009"><a xlink:title=" ">
<path fill="none" stroke="#63b8ff" d="M206.33,-219.98C193.73,-211.84 174.5,-199.41 159.56,-189.76"/>
<polygon fill="#63b8ff" stroke="#63b8ff" points="161.21,-186.66 150.91,-184.17 157.41,-192.54 161.21,-186.66"/>
</a>
</g>
</g>
<!-- Node6 -->
<g id="Node000006" class="node">
<title>Node6</title>
<g id="a_Node000006"><a xlink:title=" ">
<polygon fill="#e0e0e0" stroke="#999999" points="395.5,-74 333.5,-74 333.5,-55 395.5,-55 395.5,-74"/>
<text text-anchor="middle" x="364.5" y="-62" font-family="Helvetica,sans-Serif" font-size="10.00">stdbool.h</text>
</a>
</g>
</g>
<!-- Node5&#45;&gt;Node6 -->
<g id="edge5_Node000005_Node000006" class="edge">
<title>Node5&#45;&gt;Node6</title>
<g id="a_edge5_Node000005_Node000006"><a xlink:title=" ">
<path fill="none" stroke="#63b8ff" d="M274.69,-109.98C291.75,-101.54 318.13,-88.47 337.9,-78.68"/>
<polygon fill="#63b8ff" stroke="#63b8ff" points="339.59,-81.75 347,-74.17 336.48,-75.47 339.59,-81.75"/>
</a>
</g>
</g>
<!-- Node7 -->
<g id="Node000007" class="node">
<title>Node7</title>
<g id="a_Node000007"><a xlink:title=" ">
<polygon fill="#e0e0e0" stroke="#999999" points="286,-19 233,-19 233,0 286,0 286,-19"/>
<text text-anchor="middle" x="259.5" y="-7" font-family="Helvetica,sans-Serif" font-size="10.00">stdint.h</text>
</a>
</g>
</g>
<!-- Node5&#45;&gt;Node7 -->
<g id="edge6_Node000005_Node000007" class="edge">
<title>Node5&#45;&gt;Node7</title>
<g id="a_edge6_Node000005_Node000007"><a xlink:title=" ">
<path fill="none" stroke="#63b8ff" d="M265.44,-109.75C272.53,-101.3 282.4,-87.79 286.5,-74 291.33,-57.74 282.55,-40.03 273.75,-27.46"/>
<polygon fill="#63b8ff" stroke="#63b8ff" points="276.37,-25.13 267.52,-19.31 270.81,-29.38 276.37,-25.13"/>
</a>
</g>
</g>
<!-- Node8 -->
<g id="Node000008" class="node">
<title>Node8</title>
<g id="a_Node000008"><a xlink:href="no__os__circular__buffer_8h.html" target="_top" xlink:title="Circular buffer library header.">
<polygon fill="white" stroke="#666666" points="277.5,-74 149.5,-74 149.5,-55 277.5,-55 277.5,-74"/>
<text text-anchor="middle" x="213.5" y="-62" font-family="Helvetica,sans-Serif" font-size="10.00">no_os_circular_buffer.h</text>
</a>
</g>
</g>
<!-- Node5&#45;&gt;Node8 -->
<g id="edge7_Node000005_Node000008" class="edge">
<title>Node5&#45;&gt;Node8</title>
<g id="a_edge7_Node000005_Node000008"><a xlink:title=" ">
<path fill="none" stroke="#63b8ff" d="M250.23,-109.75C243.96,-102.18 234.71,-91.05 227.07,-81.84"/>
<polygon fill="#63b8ff" stroke="#63b8ff" points="229.71,-79.55 220.63,-74.09 224.33,-84.02 229.71,-79.55"/>
</a>
</g>
</g>
<!-- Node8&#45;&gt;Node7 -->
<g id="edge8_Node000008_Node000007" class="edge">
<title>Node8&#45;&gt;Node7</title>
<g id="a_edge8_Node000008_Node000007"><a xlink:title=" ">
<path fill="none" stroke="#63b8ff" d="M221.1,-54.75C227.66,-47.18 237.32,-36.05 245.31,-26.84"/>
<polygon fill="#63b8ff" stroke="#63b8ff" points="248.13,-28.94 252.05,-19.09 242.85,-24.35 248.13,-28.94"/>
</a>
</g>
</g>
<!-- Node9&#45;&gt;Node5 -->
<g id="edge11_Node000009_Node000005" class="edge">
<title>Node9&#45;&gt;Node5</title>
<g id="a_edge11_Node000009_Node000005"><a xlink:title=" ">
<path fill="none" stroke="#63b8ff" d="M156.78,-164.98C176.17,-156.42 206.31,-143.11 228.57,-133.28"/>
<polygon fill="#63b8ff" stroke="#63b8ff" points="230.14,-136.41 237.87,-129.17 227.31,-130.01 230.14,-136.41"/>
</a>
</g>
</g>
<!-- Node9&#45;&gt;Node7 -->
<g id="edge10_Node000009_Node000007" class="edge">
<title>Node9&#45;&gt;Node7</title>
<g id="a_edge10_Node000009_Node000007"><a xlink:title=" ">
<path fill="none" stroke="#63b8ff" d="M134.72,-164.74C128.58,-143.6 116.26,-89.02 140.5,-55 159.17,-28.8 195.2,-18.01 222.74,-13.57"/>
<polygon fill="#63b8ff" stroke="#63b8ff" points="223.41,-17.01 232.83,-12.17 222.44,-10.08 223.41,-17.01"/>
</a>
</g>
</g>
<!-- Node10 -->
<g id="Node000010" class="node">
<title>Node10</title>
<g id="a_Node000010"><a xlink:href="no__os__irq_8h.html" target="_top" xlink:title="Header file of IRQ interface.">
<polygon fill="white" stroke="#666666" points="93.5,-129 21.5,-129 21.5,-110 93.5,-110 93.5,-129"/>
<text text-anchor="middle" x="57.5" y="-117" font-family="Helvetica,sans-Serif" font-size="10.00">no_os_irq.h</text>
</a>
</g>
</g>
<!-- Node9&#45;&gt;Node10 -->
<g id="edge12_Node000009_Node000010" class="edge">
<title>Node9&#45;&gt;Node10</title>
<g id="a_edge12_Node000009_Node000010"><a xlink:title=" ">
<path fill="none" stroke="#63b8ff" d="M124.65,-164.98C112.36,-156.84 93.59,-144.41 79.02,-134.76"/>
<polygon fill="#63b8ff" stroke="#63b8ff" points="80.86,-131.78 70.59,-129.17 76.99,-137.61 80.86,-131.78"/>
</a>
</g>
</g>
<!-- Node10&#45;&gt;Node7 -->
<g id="edge13_Node000010_Node000007" class="edge">
<title>Node10&#45;&gt;Node7</title>
<g id="a_edge13_Node000010_Node000007"><a xlink:title=" ">
<path fill="none" stroke="#63b8ff" d="M62.06,-109.69C69.64,-95.94 86.11,-69.46 107.5,-55 142.55,-31.31 190.37,-20.02 222.95,-14.79"/>
<polygon fill="#63b8ff" stroke="#63b8ff" points="223.59,-18.23 232.96,-13.29 222.55,-11.31 223.59,-18.23"/>
</a>
</g>
</g>
<!-- Node11&#45;&gt;Node4 -->
<g id="edge15_Node000011_Node000004" class="edge">
<title>Node11&#45;&gt;Node4</title>
<g id="a_edge15_Node000011_Node000004"><a xlink:title=" ">
<path fill="none" stroke="#63b8ff" d="M327.53,-219.75C325.14,-212.72 321.71,-202.62 318.73,-193.84"/>
<polygon fill="#63b8ff" stroke="#63b8ff" points="321.95,-192.43 315.42,-184.09 315.32,-194.68 321.95,-192.43"/>
</a>
</g>
</g>
<!-- Node11&#45;&gt;Node5 -->
<g id="edge16_Node000011_Node000005" class="edge">
<title>Node11&#45;&gt;Node5</title>
<g id="a_edge16_Node000011_Node000005"><a xlink:title=" ">
<path fill="none" stroke="#63b8ff" d="M315.58,-219.74C303.39,-211.85 286.58,-199.18 276.5,-184 267.55,-170.52 262.7,-152.69 260.14,-139.35"/>
<polygon fill="#63b8ff" stroke="#63b8ff" points="263.58,-138.7 258.5,-129.4 256.68,-139.84 263.58,-138.7"/>
</a>
</g>
</g>
<!-- Node12 -->
<g id="Node000012" class="node">
<title>Node12</title>
<g id="a_Node000012"><a xlink:href="dac__demo_8h.html" target="_top" xlink:title="Header file of DAC Demo Driver.">
<polygon fill="white" stroke="#666666" points="433.5,-184 357.5,-184 357.5,-165 433.5,-165 433.5,-184"/>
<text text-anchor="middle" x="395.5" y="-172" font-family="Helvetica,sans-Serif" font-size="10.00">dac_demo.h</text>
</a>
</g>
</g>
<!-- Node11&#45;&gt;Node12 -->
<g id="edge17_Node000011_Node000012" class="edge">
<title>Node11&#45;&gt;Node12</title>
<g id="a_edge17_Node000011_Node000012"><a xlink:title=" ">
<path fill="none" stroke="#63b8ff" d="M340.94,-219.98C350.65,-212.07 365.32,-200.11 377,-190.58"/>
<polygon fill="#63b8ff" stroke="#63b8ff" points="379.33,-193.2 384.87,-184.17 374.9,-187.78 379.33,-193.2"/>
</a>
</g>
</g>
<!-- Node12&#45;&gt;Node5 -->
<g id="edge19_Node000012_Node000005" class="edge">
<title>Node12&#45;&gt;Node5</title>
<g id="a_edge19_Node000012_Node000005"><a xlink:title=" ">
<path fill="none" stroke="#63b8ff" d="M373.33,-164.98C350.73,-156.3 315.44,-142.75 289.75,-132.88"/>
<polygon fill="#63b8ff" stroke="#63b8ff" points="290.67,-129.49 280.08,-129.17 288.16,-136.02 290.67,-129.49"/>
</a>
</g>
</g>
<!-- Node12&#45;&gt;Node7 -->
<g id="edge18_Node000012_Node000007" class="edge">
<title>Node12&#45;&gt;Node7</title>
<g id="a_edge18_Node000012_Node000007"><a xlink:title=" ">
<path fill="none" stroke="#63b8ff" d="M399.7,-164.7C409.15,-143.46 429.4,-88.68 404.5,-55 379.82,-21.61 330.53,-12.47 296.31,-10.37"/>
<polygon fill="#63b8ff" stroke="#63b8ff" points="296.36,-6.87 286.22,-9.93 296.05,-13.87 296.36,-6.87"/>
</a>
</g>
</g>
<!-- Node14&#45;&gt;Node4 -->
<g id="edge23_Node000014_Node000004" class="edge">
<title>Node14&#45;&gt;Node4</title>
<g id="a_edge23_Node000014_Node000004"><a xlink:title=" ">
<path fill="none" stroke="#63b8ff" d="M413.22,-219.98C393.83,-211.42 363.69,-198.11 341.43,-188.28"/>
<polygon fill="#63b8ff" stroke="#63b8ff" points="342.69,-185.01 332.13,-184.17 339.86,-191.41 342.69,-185.01"/>
</a>
</g>
</g>
<!-- Node14&#45;&gt;Node6 -->
<g id="edge24_Node000014_Node000006" class="edge">
<title>Node14&#45;&gt;Node6</title>
<g id="a_edge24_Node000014_Node000006"><a xlink:title=" ">
<path fill="none" stroke="#63b8ff" d="M436.52,-219.64C441.62,-207.14 448.98,-183.78 442.5,-165 430.59,-130.51 401.25,-98.85 382.15,-80.9"/>
<polygon fill="#63b8ff" stroke="#63b8ff" points="384.41,-78.22 374.67,-74.07 379.7,-83.4 384.41,-78.22"/>
</a>
</g>
</g>
<!-- Node14&#45;&gt;Node7 -->
<g id="edge22_Node000014_Node000007" class="edge">
<title>Node14&#45;&gt;Node7</title>
<g id="a_edge22_Node000014_Node000007"><a xlink:title=" ">
<path fill="none" stroke="#63b8ff" d="M439.13,-219.88C445.26,-211.32 453.96,-197.54 457.5,-184 469.83,-136.88 448.18,-79.63 422.5,-55 388.49,-22.38 332.98,-13.17 296.34,-10.84"/>
<polygon fill="#63b8ff" stroke="#63b8ff" points="296.25,-7.34 286.09,-10.34 295.9,-14.33 296.25,-7.34"/>
</a>
</g>
</g>
</g>
</svg>
