<?xml version="1.0" encoding="UTF-8" standalone="no"?>
<!DOCTYPE svg PUBLIC "-//W3C//DTD SVG 1.1//EN"
 "http://www.w3.org/Graphics/SVG/1.1/DTD/svg11.dtd">
<!-- Generated by graphviz version 2.43.0 (0)
 -->
<!-- Title: /home/runner/work/no&#45;OS/no&#45;OS/drivers/rf&#45;transceiver/hmc630x/iio_hmc630x.h Pages: 1 -->
<svg width="565pt" height="302pt"
 viewBox="0.00 0.00 564.50 302.00" xmlns="http://www.w3.org/2000/svg" xmlns:xlink="http://www.w3.org/1999/xlink">
<g id="graph0" class="graph" transform="scale(1 1) rotate(0) translate(4 298)">
<title>/home/runner/work/no&#45;OS/no&#45;OS/drivers/rf&#45;transceiver/hmc630x/iio_hmc630x.h</title>
<!-- Node1 -->
<g id="Node000001" class="node">
<title>Node1</title>
<g id="a_Node000001"><a xlink:title="Header file of hmc6300 and hmc6301 driver extension for IIOD.">
<polygon fill="#999999" stroke="#666666" points="235,-294 97,-294 97,-242 235,-242 235,-294"/>
<text text-anchor="start" x="105" y="-282" font-family="Helvetica,sans-Serif" font-size="10.00">/home/runner/work/no</text>
<text text-anchor="start" x="105" y="-271" font-family="Helvetica,sans-Serif" font-size="10.00">&#45;OS/no&#45;OS/drivers/rf</text>
<text text-anchor="start" x="105" y="-260" font-family="Helvetica,sans-Serif" font-size="10.00">&#45;transceiver/hmc630x/iio</text>
<text text-anchor="middle" x="166" y="-249" font-family="Helvetica,sans-Serif" font-size="10.00">_hmc630x.h</text>
</a>
</g>
</g>
<!-- Node2 -->
<g id="Node000002" class="node">
<title>Node2</title>
<g id="a_Node000002"><a xlink:href="iio__hmc630x_8c.html" target="_top" xlink:title="Source file of hmc6300 and hmc6301 driver extension for IIOD.">
<polygon fill="white" stroke="#666666" points="138,-206 0,-206 0,-154 138,-154 138,-206"/>
<text text-anchor="start" x="8" y="-194" font-family="Helvetica,sans-Serif" font-size="10.00">/home/runner/work/no</text>
<text text-anchor="start" x="8" y="-183" font-family="Helvetica,sans-Serif" font-size="10.00">&#45;OS/no&#45;OS/drivers/rf</text>
<text text-anchor="start" x="8" y="-172" font-family="Helvetica,sans-Serif" font-size="10.00">&#45;transceiver/hmc630x/iio</text>
<text text-anchor="middle" x="69" y="-161" font-family="Helvetica,sans-Serif" font-size="10.00">_hmc630x.c</text>
</a>
</g>
</g>
<!-- Node1&#45;&gt;Node2 -->
<g id="edge1_Node000001_Node000002" class="edge">
<title>Node1&#45;&gt;Node2</title>
<g id="a_edge1_Node000001_Node000002"><a xlink:title=" ">
<path fill="none" stroke="#63b8ff" d="M130.06,-235.13C119.32,-225.62 107.71,-215.32 97.52,-206.29"/>
<polygon fill="#63b8ff" stroke="#63b8ff" points="127.88,-237.88 137.68,-241.89 132.52,-232.64 127.88,-237.88"/>
</a>
</g>
</g>
<!-- Node3 -->
<g id="Node000003" class="node">
<title>Node3</title>
<g id="a_Node000003"><a xlink:href="wethlink_2src_2app_2main_8c.html" target="_top" xlink:title=" ">
<polygon fill="white" stroke="#666666" points="280.5,-41 127.5,-41 127.5,0 280.5,0 280.5,-41"/>
<text text-anchor="start" x="135.5" y="-29" font-family="Helvetica,sans-Serif" font-size="10.00">/home/runner/work/no</text>
<text text-anchor="start" x="135.5" y="-18" font-family="Helvetica,sans-Serif" font-size="10.00">&#45;OS/no&#45;OS/projects/wethlink</text>
<text text-anchor="middle" x="204" y="-7" font-family="Helvetica,sans-Serif" font-size="10.00">/src/app/main.c</text>
</a>
</g>
</g>
<!-- Node1&#45;&gt;Node3 -->
<g id="edge2_Node000001_Node000003" class="edge">
<title>Node1&#45;&gt;Node3</title>
<g id="a_edge2_Node000001_Node000003"><a xlink:title=" ">
<path fill="none" stroke="#63b8ff" d="M171.5,-231.46C179.63,-178.97 194.56,-82.46 200.96,-41.13"/>
<polygon fill="#63b8ff" stroke="#63b8ff" points="167.99,-231.23 169.92,-241.65 174.91,-232.3 167.99,-231.23"/>
</a>
</g>
</g>
<!-- Node4 -->
<g id="Node000004" class="node">
<title>Node4</title>
<g id="a_Node000004"><a xlink:href="mwc_8h.html" target="_top" xlink:title=" ">
<polygon fill="white" stroke="#666666" points="366.5,-200.5 213.5,-200.5 213.5,-159.5 366.5,-159.5 366.5,-200.5"/>
<text text-anchor="start" x="221.5" y="-188.5" font-family="Helvetica,sans-Serif" font-size="10.00">/home/runner/work/no</text>
<text text-anchor="start" x="221.5" y="-177.5" font-family="Helvetica,sans-Serif" font-size="10.00">&#45;OS/no&#45;OS/projects/wethlink</text>
<text text-anchor="middle" x="290" y="-166.5" font-family="Helvetica,sans-Serif" font-size="10.00">/src/app/mwc.h</text>
</a>
</g>
</g>
<!-- Node1&#45;&gt;Node4 -->
<g id="edge3_Node000001_Node000004" class="edge">
<title>Node1&#45;&gt;Node4</title>
<g id="a_edge3_Node000001_Node000004"><a xlink:title=" ">
<path fill="none" stroke="#63b8ff" d="M210.43,-236.19C227.57,-224.3 246.65,-211.06 261.84,-200.53"/>
<polygon fill="#63b8ff" stroke="#63b8ff" points="208.42,-233.32 202.2,-241.89 212.41,-239.07 208.42,-233.32"/>
</a>
</g>
</g>
<!-- Node4&#45;&gt;Node3 -->
<g id="edge4_Node000004_Node000003" class="edge">
<title>Node4&#45;&gt;Node3</title>
<g id="a_edge4_Node000004_Node000003"><a xlink:title=" ">
<path fill="none" stroke="#63b8ff" d="M253.13,-152.92C241.85,-143.19 230.47,-131.25 223,-118 209.42,-93.9 205.42,-61.66 204.31,-41.23"/>
<polygon fill="#63b8ff" stroke="#63b8ff" points="250.93,-155.64 260.87,-159.3 255.38,-150.24 250.93,-155.64"/>
</a>
</g>
</g>
<!-- Node5 -->
<g id="Node000005" class="node">
<title>Node5</title>
<g id="a_Node000005"><a xlink:href="mwc_8c.html" target="_top" xlink:title=" ">
<polygon fill="white" stroke="#666666" points="385.5,-118 232.5,-118 232.5,-77 385.5,-77 385.5,-118"/>
<text text-anchor="start" x="240.5" y="-106" font-family="Helvetica,sans-Serif" font-size="10.00">/home/runner/work/no</text>
<text text-anchor="start" x="240.5" y="-95" font-family="Helvetica,sans-Serif" font-size="10.00">&#45;OS/no&#45;OS/projects/wethlink</text>
<text text-anchor="middle" x="309" y="-84" font-family="Helvetica,sans-Serif" font-size="10.00">/src/app/mwc.c</text>
</a>
</g>
</g>
<!-- Node4&#45;&gt;Node5 -->
<g id="edge5_Node000004_Node000005" class="edge">
<title>Node4&#45;&gt;Node5</title>
<g id="a_edge5_Node000004_Node000005"><a xlink:title=" ">
<path fill="none" stroke="#63b8ff" d="M297.04,-149.19C299.48,-138.84 302.16,-127.5 304.36,-118.17"/>
<polygon fill="#63b8ff" stroke="#63b8ff" points="293.59,-148.56 294.7,-159.1 300.4,-150.17 293.59,-148.56"/>
</a>
</g>
</g>
<!-- Node6 -->
<g id="Node000006" class="node">
<title>Node6</title>
<g id="a_Node000006"><a xlink:href="net_8h.html" target="_top" xlink:title=" ">
<polygon fill="white" stroke="#666666" points="556.5,-118 403.5,-118 403.5,-77 556.5,-77 556.5,-118"/>
<text text-anchor="start" x="411.5" y="-106" font-family="Helvetica,sans-Serif" font-size="10.00">/home/runner/work/no</text>
<text text-anchor="start" x="411.5" y="-95" font-family="Helvetica,sans-Serif" font-size="10.00">&#45;OS/no&#45;OS/projects/wethlink</text>
<text text-anchor="middle" x="480" y="-84" font-family="Helvetica,sans-Serif" font-size="10.00">/src/app/net.h</text>
</a>
</g>
</g>
<!-- Node4&#45;&gt;Node6 -->
<g id="edge6_Node000004_Node000006" class="edge">
<title>Node4&#45;&gt;Node6</title>
<g id="a_edge6_Node000004_Node000006"><a xlink:title=" ">
<path fill="none" stroke="#63b8ff" d="M345.73,-155.39C373.69,-143.54 407.15,-129.37 433.67,-118.13"/>
<polygon fill="#63b8ff" stroke="#63b8ff" points="344.32,-152.18 336.48,-159.31 347.05,-158.63 344.32,-152.18"/>
</a>
</g>
</g>
<!-- Node6&#45;&gt;Node3 -->
<g id="edge7_Node000006_Node000003" class="edge">
<title>Node6&#45;&gt;Node3</title>
<g id="a_edge7_Node000006_Node000003"><a xlink:title=" ">
<path fill="none" stroke="#63b8ff" d="M398.48,-74.35C359.6,-63.78 313.48,-51.25 275.91,-41.04"/>
<polygon fill="#63b8ff" stroke="#63b8ff" points="397.64,-77.75 408.2,-76.99 399.47,-70.99 397.64,-77.75"/>
</a>
</g>
</g>
<!-- Node7 -->
<g id="Node000007" class="node">
<title>Node7</title>
<g id="a_Node000007"><a xlink:href="net_8c.html" target="_top" xlink:title=" ">
<polygon fill="white" stroke="#666666" points="556.5,-41 403.5,-41 403.5,0 556.5,0 556.5,-41"/>
<text text-anchor="start" x="411.5" y="-29" font-family="Helvetica,sans-Serif" font-size="10.00">/home/runner/work/no</text>
<text text-anchor="start" x="411.5" y="-18" font-family="Helvetica,sans-Serif" font-size="10.00">&#45;OS/no&#45;OS/projects/wethlink</text>
<text text-anchor="middle" x="480" y="-7" font-family="Helvetica,sans-Serif" font-size="10.00">/src/app/net.c</text>
</a>
</g>
</g>
<!-- Node6&#45;&gt;Node7 -->
<g id="edge8_Node000006_Node000007" class="edge">
<title>Node6&#45;&gt;Node7</title>
<g id="a_edge8_Node000006_Node000007"><a xlink:title=" ">
<path fill="none" stroke="#63b8ff" d="M480,-66.69C480,-58.08 480,-48.9 480,-41.07"/>
<polygon fill="#63b8ff" stroke="#63b8ff" points="476.5,-66.79 480,-76.79 483.5,-66.79 476.5,-66.79"/>
</a>
</g>
</g>
</g>
</svg>
