<?xml version="1.0" encoding="UTF-8" standalone="no"?>
<!DOCTYPE svg PUBLIC "-//W3C//DTD SVG 1.1//EN"
 "http://www.w3.org/Graphics/SVG/1.1/DTD/svg11.dtd">
<!-- Generated by graphviz version 2.43.0 (0)
 -->
<!-- Title: /home/runner/work/no&#45;OS/no&#45;OS/drivers/switch/adg2128/iio_adg2128.c Pages: 1 -->
<!--zoomable 324 -->

<svg id="main" version="1.1" xmlns="http://www.w3.org/2000/svg" xmlns:xlink="http://www.w3.org/1999/xlink" xml:space="preserve" onload="init(evt)">

<style type="text/css"><![CDATA[
.node, .edge {opacity: 0.7;}
.node.selected, .edge.selected {opacity: 1;}
.edge:hover path { stroke: red; }
.edge:hover polygon { stroke: red; fill: red; }
]]></style>

<defs>
  <circle id="rim" cx="0" cy="0" r="7"/>
  <circle id="rim2" cx="0" cy="0" r="3.5"/>
  <g id="zoomPlus">
    <use xlink:href="#rim" fill="#404040"><set attributeName="fill" to="#808080" begin="zoomplus.mouseover" end="zoomplus.mouseout"/></use>
    <path d="M-4,0h8M0,-4v8" fill="none" stroke="white" stroke-width="1.5" pointer-events="none"/>
  </g>
  <g id="zoomMin">
    <use xlink:href="#rim" fill="#404040"><set attributeName="fill" to="#808080" begin="zoomminus.mouseover" end="zoomminus.mouseout"/></use>
    <path d="M-4,0h8" fill="none" stroke="white" stroke-width="1.5" pointer-events="none"/>
  </g>
  <g id="arrowUp" transform="translate(30 24)">
    <use xlink:href="#rim"/>
    <path pointer-events="none" fill="none" stroke="white" stroke-width="1.5" d="M0,-3.0v7 M-2.5,-0.5L0,-3.0L2.5,-0.5"/>
  </g>
  <g id="arrowRight" transform="rotate(90) translate(36 -43)">
    <use xlink:href="#rim"/>
    <path pointer-events="none" fill="none" stroke="white" stroke-width="1.5" d="M0,-3.0v7 M-2.5,-0.5L0,-3.0L2.5,-0.5"/>
  </g>
  <g id="arrowDown" transform="rotate(180) translate(-30 -48)">
    <use xlink:href="#rim"/>
    <path pointer-events="none" fill="none" stroke="white" stroke-width="1.5" d="M0,-3.0v7 M-2.5,-0.5L0,-3.0L2.5,-0.5"/>
  </g>
  <g id="arrowLeft" transform="rotate(270) translate(-36 17)">
    <use xlink:href="#rim"/>
    <path pointer-events="none" fill="none" stroke="white" stroke-width="1.5" d="M0,-3.0v7 M-2.5,-0.5L0,-3.0L2.5,-0.5"/>
  </g>
  <g id="resetDef">
    <use xlink:href="#rim2" fill="#404040"><set attributeName="fill" to="#808080" begin="reset.mouseover" end="reset.mouseout"/></use>
  </g>
</defs>
<script type="application/ecmascript">
var viewWidth = 668;
var viewHeight = 324;
var sectionId = 'dynsection-0';
</script>
<script type="application/ecmascript" xlink:href="svg.min.js"/>
<svg id="graph" class="graph">
<g id="viewport">
<title>/home/runner/work/no&#45;OS/no&#45;OS/drivers/switch/adg2128/iio_adg2128.c</title>
<!-- Node1 -->
<g id="Node000001" class="node">
<title>Node1</title>
<g id="a_Node000001"><a xlink:title=" ">
<polygon fill="#999999" stroke="#666666" points="356.18,-316 219.18,-316 219.18,-275 356.18,-275 356.18,-316"/>
<text text-anchor="start" x="227.18" y="-304" font-family="Helvetica,sans-Serif" font-size="10.00">/home/runner/work/no</text>
<text text-anchor="start" x="227.18" y="-293" font-family="Helvetica,sans-Serif" font-size="10.00">&#45;OS/no&#45;OS/drivers/switch</text>
<text text-anchor="middle" x="287.68" y="-282" font-family="Helvetica,sans-Serif" font-size="10.00">/adg2128/iio_adg2128.c</text>
</a>
</g>
</g>
<!-- Node2 -->
<g id="Node000002" class="node">
<title>Node2</title>
<g id="a_Node000002"><a xlink:title=" ">
<polygon fill="#e0e0e0" stroke="#999999" points="112.18,-19 59.18,-19 59.18,0 112.18,0 112.18,-19"/>
<text text-anchor="middle" x="85.68" y="-7" font-family="Helvetica,sans-Serif" font-size="10.00">stdlib.h</text>
</a>
</g>
</g>
<!-- Node1&#45;&gt;Node2 -->
<g id="edge1_Node000001_Node000002" class="edge">
<title>Node1&#45;&gt;Node2</title>
<g id="a_edge1_Node000001_Node000002"><a xlink:title=" ">
<path fill="none" stroke="#63b8ff" d="M218.89,-288.25C149.37,-280.56 48.26,-265.21 19.68,-239 -2.03,-219.09 0.68,-204.96 0.68,-175.5 0.68,-175.5 0.68,-175.5 0.68,-118.5 0.68,-77.73 38.54,-43.28 63.72,-24.86"/>
<polygon fill="#63b8ff" stroke="#63b8ff" points="65.85,-27.65 72.02,-19.04 61.83,-21.92 65.85,-27.65"/>
</a>
</g>
</g>
<!-- Node3 -->
<g id="Node000003" class="node">
<title>Node3</title>
<g id="a_Node000003"><a xlink:title=" ">
<polygon fill="#e0e0e0" stroke="#999999" points="133.68,-184 83.68,-184 83.68,-165 133.68,-165 133.68,-184"/>
<text text-anchor="middle" x="108.68" y="-172" font-family="Helvetica,sans-Serif" font-size="10.00">stdio.h</text>
</a>
</g>
</g>
<!-- Node1&#45;&gt;Node3 -->
<g id="edge2_Node000001_Node000003" class="edge">
<title>Node1&#45;&gt;Node3</title>
<g id="a_edge2_Node000001_Node000003"><a xlink:title=" ">
<path fill="none" stroke="#63b8ff" d="M231.36,-274.99C209.41,-265.91 184.75,-253.82 164.68,-239 147.02,-225.97 130.91,-206.54 120.55,-192.61"/>
<polygon fill="#63b8ff" stroke="#63b8ff" points="123.3,-190.43 114.62,-184.37 117.62,-194.53 123.3,-190.43"/>
</a>
</g>
</g>
<!-- Node4 -->
<g id="Node000004" class="node">
<title>Node4</title>
<g id="a_Node000004"><a xlink:title=" ">
<polygon fill="#e0e0e0" stroke="#999999" points="490.18,-239 425.18,-239 425.18,-220 490.18,-220 490.18,-239"/>
<text text-anchor="middle" x="457.68" y="-227" font-family="Helvetica,sans-Serif" font-size="10.00">inttypes.h</text>
</a>
</g>
</g>
<!-- Node1&#45;&gt;Node4 -->
<g id="edge3_Node000001_Node000004" class="edge">
<title>Node1&#45;&gt;Node4</title>
<g id="a_edge3_Node000001_Node000004"><a xlink:title=" ">
<path fill="none" stroke="#63b8ff" d="M339.61,-274.95C367.58,-264.42 401.23,-251.75 425.43,-242.64"/>
<polygon fill="#63b8ff" stroke="#63b8ff" points="426.73,-245.89 434.86,-239.09 424.26,-239.34 426.73,-245.89"/>
</a>
</g>
</g>
<!-- Node5 -->
<g id="Node000005" class="node">
<title>Node5</title>
<g id="a_Node000005"><a xlink:title=" ">
<polygon fill="#e0e0e0" stroke="#999999" points="559.18,-239 508.18,-239 508.18,-220 559.18,-220 559.18,-239"/>
<text text-anchor="middle" x="533.68" y="-227" font-family="Helvetica,sans-Serif" font-size="10.00">math.h</text>
</a>
</g>
</g>
<!-- Node1&#45;&gt;Node5 -->
<g id="edge4_Node000001_Node000005" class="edge">
<title>Node1&#45;&gt;Node5</title>
<g id="a_edge4_Node000001_Node000005"><a xlink:title=" ">
<path fill="none" stroke="#63b8ff" d="M356.2,-276.67C402.33,-264.67 461.28,-249.34 498.26,-239.71"/>
<polygon fill="#63b8ff" stroke="#63b8ff" points="499.29,-243.06 508.09,-237.16 497.53,-236.29 499.29,-243.06"/>
</a>
</g>
</g>
<!-- Node6 -->
<g id="Node000006" class="node">
<title>Node6</title>
<g id="a_Node000006"><a xlink:href="no__os__error_8h.html" target="_top" xlink:title="Error codes definition.">
<polygon fill="white" stroke="#666666" points="659.68,-239 577.68,-239 577.68,-220 659.68,-220 659.68,-239"/>
<text text-anchor="middle" x="618.68" y="-227" font-family="Helvetica,sans-Serif" font-size="10.00">no_os_error.h</text>
</a>
</g>
</g>
<!-- Node1&#45;&gt;Node6 -->
<g id="edge5_Node000001_Node000006" class="edge">
<title>Node1&#45;&gt;Node6</title>
<g id="a_edge5_Node000001_Node000006"><a xlink:title=" ">
<path fill="none" stroke="#63b8ff" d="M356.26,-281.24C419.01,-269.11 510.46,-251.42 567.17,-240.46"/>
<polygon fill="#63b8ff" stroke="#63b8ff" points="568.19,-243.83 577.34,-238.49 566.86,-236.95 568.19,-243.83"/>
</a>
</g>
</g>
<!-- Node8 -->
<g id="Node000008" class="node">
<title>Node8</title>
<g id="a_Node000008"><a xlink:href="no__os__delay_8h.html" target="_top" xlink:title="Header file of Delay functions.">
<polygon fill="white" stroke="#666666" points="573.18,-129 488.18,-129 488.18,-110 573.18,-110 573.18,-129"/>
<text text-anchor="middle" x="530.68" y="-117" font-family="Helvetica,sans-Serif" font-size="10.00">no_os_delay.h</text>
</a>
</g>
</g>
<!-- Node1&#45;&gt;Node8 -->
<g id="edge7_Node000001_Node000008" class="edge">
<title>Node1&#45;&gt;Node8</title>
<g id="a_edge7_Node000001_Node000008"><a xlink:title=" ">
<path fill="none" stroke="#63b8ff" d="M306.18,-274.97C332.71,-247.77 383.98,-198.08 434.68,-165 454.59,-152.01 478.91,-140.78 498.09,-132.85"/>
<polygon fill="#63b8ff" stroke="#63b8ff" points="499.63,-136 507.6,-129.01 497.01,-129.51 499.63,-136"/>
</a>
</g>
</g>
<!-- Node10 -->
<g id="Node000010" class="node">
<title>Node10</title>
<g id="a_Node000010"><a xlink:href="no__os__i2c_8h.html" target="_top" xlink:title="Header file of I2C Interface.">
<polygon fill="white" stroke="#666666" points="517.68,-184 443.68,-184 443.68,-165 517.68,-165 517.68,-184"/>
<text text-anchor="middle" x="480.68" y="-172" font-family="Helvetica,sans-Serif" font-size="10.00">no_os_i2c.h</text>
</a>
</g>
</g>
<!-- Node1&#45;&gt;Node10 -->
<g id="edge9_Node000001_Node000010" class="edge">
<title>Node1&#45;&gt;Node10</title>
<g id="a_edge9_Node000001_Node000010"><a xlink:title=" ">
<path fill="none" stroke="#63b8ff" d="M319.55,-274.85C358.5,-250.83 423.45,-210.79 457.78,-189.62"/>
<polygon fill="#63b8ff" stroke="#63b8ff" points="459.93,-192.4 466.61,-184.18 456.26,-186.44 459.93,-192.4"/>
</a>
</g>
</g>
<!-- Node11 -->
<g id="Node000011" class="node">
<title>Node11</title>
<g id="a_Node000011"><a xlink:href="iio_8h.html" target="_top" xlink:title="Header file of iio.">
<polygon fill="white" stroke="#666666" points="296.68,-184 258.68,-184 258.68,-165 296.68,-165 296.68,-184"/>
<text text-anchor="middle" x="277.68" y="-172" font-family="Helvetica,sans-Serif" font-size="10.00">iio.h</text>
</a>
</g>
</g>
<!-- Node1&#45;&gt;Node11 -->
<g id="edge11_Node000001_Node000011" class="edge">
<title>Node1&#45;&gt;Node11</title>
<g id="a_edge11_Node000001_Node000011"><a xlink:title=" ">
<path fill="none" stroke="#63b8ff" d="M262.26,-274.88C251.94,-265.32 241.16,-252.88 235.68,-239 228.57,-221.02 243.3,-202.85 257.23,-190.58"/>
<polygon fill="#63b8ff" stroke="#63b8ff" points="259.65,-193.13 265.17,-184.09 255.21,-187.71 259.65,-193.13"/>
</a>
</g>
</g>
<!-- Node17 -->
<g id="Node000017" class="node">
<title>Node17</title>
<g id="a_Node000017"><a xlink:href="iio__adg2128_8h.html" target="_top" xlink:title="Header file of iio_adg2128.">
<polygon fill="white" stroke="#666666" points="330.18,-239 245.18,-239 245.18,-220 330.18,-220 330.18,-239"/>
<text text-anchor="middle" x="287.68" y="-227" font-family="Helvetica,sans-Serif" font-size="10.00">iio_adg2128.h</text>
</a>
</g>
</g>
<!-- Node1&#45;&gt;Node17 -->
<g id="edge24_Node000001_Node000017" class="edge">
<title>Node1&#45;&gt;Node17</title>
<g id="a_edge24_Node000001_Node000017"><a xlink:title=" ">
<path fill="none" stroke="#63b8ff" d="M287.68,-274.95C287.68,-266.85 287.68,-257.5 287.68,-249.47"/>
<polygon fill="#63b8ff" stroke="#63b8ff" points="291.18,-249.26 287.68,-239.26 284.18,-249.26 291.18,-249.26"/>
</a>
</g>
</g>
<!-- Node18 -->
<g id="Node000018" class="node">
<title>Node18</title>
<g id="a_Node000018"><a xlink:href="no__os__util_8h.html" target="_top" xlink:title="Header file of utility functions.">
<polygon fill="white" stroke="#666666" points="142.18,-74 67.18,-74 67.18,-55 142.18,-55 142.18,-74"/>
<text text-anchor="middle" x="104.68" y="-62" font-family="Helvetica,sans-Serif" font-size="10.00">no_os_util.h</text>
</a>
</g>
</g>
<!-- Node1&#45;&gt;Node18 -->
<g id="edge26_Node000001_Node000018" class="edge">
<title>Node1&#45;&gt;Node18</title>
<g id="a_edge26_Node000001_Node000018"><a xlink:title=" ">
<path fill="none" stroke="#63b8ff" d="M265.69,-274.76C254.73,-264.51 241.52,-251.53 230.68,-239 184.09,-185.18 136.8,-114.96 115.85,-82.87"/>
<polygon fill="#63b8ff" stroke="#63b8ff" points="118.6,-80.68 110.22,-74.19 112.73,-84.49 118.6,-80.68"/>
</a>
</g>
</g>
<!-- Node19 -->
<g id="Node000019" class="node">
<title>Node19</title>
<g id="a_Node000019"><a xlink:href="no__os__alloc_8h.html" target="_top" xlink:title=" ">
<polygon fill="white" stroke="#666666" points="112.18,-239 29.18,-239 29.18,-220 112.18,-220 112.18,-239"/>
<text text-anchor="middle" x="70.68" y="-227" font-family="Helvetica,sans-Serif" font-size="10.00">no_os_alloc.h</text>
</a>
</g>
</g>
<!-- Node1&#45;&gt;Node19 -->
<g id="edge30_Node000001_Node000019" class="edge">
<title>Node1&#45;&gt;Node19</title>
<g id="a_edge30_Node000001_Node000019"><a xlink:title=" ">
<path fill="none" stroke="#63b8ff" d="M221.39,-274.95C184.77,-264.15 140.56,-251.11 109.52,-241.95"/>
<polygon fill="#63b8ff" stroke="#63b8ff" points="110.11,-238.48 99.53,-239.01 108.13,-245.19 110.11,-238.48"/>
</a>
</g>
</g>
<!-- Node7 -->
<g id="Node000007" class="node">
<title>Node7</title>
<g id="a_Node000007"><a xlink:href="errno_8h.html" target="_top" xlink:title="Error macro definition for ARM Compiler.">
<polygon fill="white" stroke="#666666" points="644.18,-184 593.18,-184 593.18,-165 644.18,-165 644.18,-184"/>
<text text-anchor="middle" x="618.68" y="-172" font-family="Helvetica,sans-Serif" font-size="10.00">errno.h</text>
</a>
</g>
</g>
<!-- Node6&#45;&gt;Node7 -->
<g id="edge6_Node000006_Node000007" class="edge">
<title>Node6&#45;&gt;Node7</title>
<g id="a_edge6_Node000006_Node000007"><a xlink:title=" ">
<path fill="none" stroke="#63b8ff" d="M618.68,-219.75C618.68,-212.8 618.68,-202.85 618.68,-194.13"/>
<polygon fill="#63b8ff" stroke="#63b8ff" points="622.18,-194.09 618.68,-184.09 615.18,-194.09 622.18,-194.09"/>
</a>
</g>
</g>
<!-- Node9 -->
<g id="Node000009" class="node">
<title>Node9</title>
<g id="a_Node000009"><a xlink:title=" ">
<polygon fill="#e0e0e0" stroke="#999999" points="483.18,-19 430.18,-19 430.18,0 483.18,0 483.18,-19"/>
<text text-anchor="middle" x="456.68" y="-7" font-family="Helvetica,sans-Serif" font-size="10.00">stdint.h</text>
</a>
</g>
</g>
<!-- Node8&#45;&gt;Node9 -->
<g id="edge8_Node000008_Node000009" class="edge">
<title>Node8&#45;&gt;Node9</title>
<g id="a_edge8_Node000008_Node000009"><a xlink:title=" ">
<path fill="none" stroke="#63b8ff" d="M536.46,-109.61C544.08,-96.67 555.32,-72.31 544.68,-55 533.38,-36.62 511.87,-25.55 492.95,-19.05"/>
<polygon fill="#63b8ff" stroke="#63b8ff" points="493.95,-15.7 483.36,-16.05 491.86,-22.38 493.95,-15.7"/>
</a>
</g>
</g>
<!-- Node10&#45;&gt;Node9 -->
<g id="edge10_Node000010_Node000009" class="edge">
<title>Node10&#45;&gt;Node9</title>
<g id="a_edge10_Node000010_Node000009"><a xlink:title=" ">
<path fill="none" stroke="#63b8ff" d="M517.92,-167.7C540.81,-162 568.39,-150.82 582.68,-129 587.3,-121.94 584.27,-118.29 582.68,-110 577.7,-84.15 579.07,-73.84 560.68,-55 542.47,-36.36 515.2,-25.09 493.15,-18.55"/>
<polygon fill="#63b8ff" stroke="#63b8ff" points="494.01,-15.16 483.44,-15.87 492.15,-21.91 494.01,-15.16"/>
</a>
</g>
</g>
<!-- Node12 -->
<g id="Node000012" class="node">
<title>Node12</title>
<g id="a_Node000012"><a xlink:href="iio__types_8h.html" target="_top" xlink:title="Header file for iio_types.">
<polygon fill="white" stroke="#666666" points="445.68,-129 375.68,-129 375.68,-110 445.68,-110 445.68,-129"/>
<text text-anchor="middle" x="410.68" y="-117" font-family="Helvetica,sans-Serif" font-size="10.00">iio_types.h</text>
</a>
</g>
</g>
<!-- Node11&#45;&gt;Node12 -->
<g id="edge12_Node000011_Node000012" class="edge">
<title>Node11&#45;&gt;Node12</title>
<g id="a_edge12_Node000011_Node000012"><a xlink:title=" ">
<path fill="none" stroke="#63b8ff" d="M296.73,-165.91C318.39,-157.28 354.05,-143.07 379.71,-132.84"/>
<polygon fill="#63b8ff" stroke="#63b8ff" points="381.01,-136.09 389.01,-129.14 378.42,-129.59 381.01,-136.09"/>
</a>
</g>
</g>
<!-- Node15 -->
<g id="Node000015" class="node">
<title>Node15</title>
<g id="a_Node000015"><a xlink:href="no__os__uart_8h.html" target="_top" xlink:title="Header file of UART interface.">
<polygon fill="white" stroke="#666666" points="298.18,-129 219.18,-129 219.18,-110 298.18,-110 298.18,-129"/>
<text text-anchor="middle" x="258.68" y="-117" font-family="Helvetica,sans-Serif" font-size="10.00">no_os_uart.h</text>
</a>
</g>
</g>
<!-- Node11&#45;&gt;Node15 -->
<g id="edge17_Node000011_Node000015" class="edge">
<title>Node11&#45;&gt;Node15</title>
<g id="a_edge17_Node000011_Node000015"><a xlink:title=" ">
<path fill="none" stroke="#63b8ff" d="M274.54,-164.75C272,-157.65 268.32,-147.4 265.15,-138.56"/>
<polygon fill="#63b8ff" stroke="#63b8ff" points="268.43,-137.32 261.76,-129.09 261.84,-139.68 268.43,-137.32"/>
</a>
</g>
</g>
<!-- Node12&#45;&gt;Node9 -->
<g id="edge14_Node000012_Node000009" class="edge">
<title>Node12&#45;&gt;Node9</title>
<g id="a_edge14_Node000012_Node000009"><a xlink:title=" ">
<path fill="none" stroke="#63b8ff" d="M445.85,-115.83C473.71,-111.65 510.95,-101 529.68,-74 544.2,-53.07 515.91,-34.66 490.42,-23.12"/>
<polygon fill="#63b8ff" stroke="#63b8ff" points="491.46,-19.76 480.89,-19.05 488.71,-26.2 491.46,-19.76"/>
</a>
</g>
</g>
<!-- Node13 -->
<g id="Node000013" class="node">
<title>Node13</title>
<g id="a_Node000013"><a xlink:title=" ">
<polygon fill="#e0e0e0" stroke="#999999" points="220.68,-19 158.68,-19 158.68,0 220.68,0 220.68,-19"/>
<text text-anchor="middle" x="189.68" y="-7" font-family="Helvetica,sans-Serif" font-size="10.00">stdbool.h</text>
</a>
</g>
</g>
<!-- Node12&#45;&gt;Node13 -->
<g id="edge13_Node000012_Node000013" class="edge">
<title>Node12&#45;&gt;Node13</title>
<g id="a_edge13_Node000012_Node000013"><a xlink:title=" ">
<path fill="none" stroke="#63b8ff" d="M398.44,-109.87C379.58,-96.84 342,-71.86 307.68,-55 281.37,-42.08 250.31,-30.5 226.66,-22.4"/>
<polygon fill="#63b8ff" stroke="#63b8ff" points="227.6,-19.02 217.01,-19.14 225.37,-25.66 227.6,-19.02"/>
</a>
</g>
</g>
<!-- Node14 -->
<g id="Node000014" class="node">
<title>Node14</title>
<g id="a_Node000014"><a xlink:href="no__os__circular__buffer_8h.html" target="_top" xlink:title="Circular buffer library header.">
<polygon fill="white" stroke="#666666" points="520.68,-74 392.68,-74 392.68,-55 520.68,-55 520.68,-74"/>
<text text-anchor="middle" x="456.68" y="-62" font-family="Helvetica,sans-Serif" font-size="10.00">no_os_circular_buffer.h</text>
</a>
</g>
</g>
<!-- Node12&#45;&gt;Node14 -->
<g id="edge15_Node000012_Node000014" class="edge">
<title>Node12&#45;&gt;Node14</title>
<g id="a_edge15_Node000012_Node000014"><a xlink:title=" ">
<path fill="none" stroke="#63b8ff" d="M418.27,-109.75C424.84,-102.18 434.5,-91.05 442.49,-81.84"/>
<polygon fill="#63b8ff" stroke="#63b8ff" points="445.31,-83.94 449.22,-74.09 440.03,-79.35 445.31,-83.94"/>
</a>
</g>
</g>
<!-- Node14&#45;&gt;Node9 -->
<g id="edge16_Node000014_Node000009" class="edge">
<title>Node14&#45;&gt;Node9</title>
<g id="a_edge16_Node000014_Node000009"><a xlink:title=" ">
<path fill="none" stroke="#63b8ff" d="M456.68,-54.75C456.68,-47.8 456.68,-37.85 456.68,-29.13"/>
<polygon fill="#63b8ff" stroke="#63b8ff" points="460.18,-29.09 456.68,-19.09 453.18,-29.09 460.18,-29.09"/>
</a>
</g>
</g>
<!-- Node15&#45;&gt;Node9 -->
<g id="edge18_Node000015_Node000009" class="edge">
<title>Node15&#45;&gt;Node9</title>
<g id="a_edge18_Node000015_Node000009"><a xlink:title=" ">
<path fill="none" stroke="#63b8ff" d="M274.55,-109.84C309.03,-91.04 390.98,-46.33 432.17,-23.87"/>
<polygon fill="#63b8ff" stroke="#63b8ff" points="433.91,-26.91 441.01,-19.05 430.55,-20.76 433.91,-26.91"/>
</a>
</g>
</g>
<!-- Node15&#45;&gt;Node13 -->
<g id="edge19_Node000015_Node000013" class="edge">
<title>Node15&#45;&gt;Node13</title>
<g id="a_edge19_Node000015_Node000013"><a xlink:title=" ">
<path fill="none" stroke="#63b8ff" d="M234.21,-109.86C218.41,-102.85 199.09,-91.27 189.68,-74 182.26,-60.39 182.99,-42.57 185.16,-29.27"/>
<polygon fill="#63b8ff" stroke="#63b8ff" points="188.61,-29.86 187.17,-19.36 181.75,-28.46 188.61,-29.86"/>
</a>
</g>
</g>
<!-- Node16 -->
<g id="Node000016" class="node">
<title>Node16</title>
<g id="a_Node000016"><a xlink:href="no__os__lf256fifo_8h.html" target="_top" xlink:title="SPSC lock&#45;free fifo of fixed size (256), specialized for UART.">
<polygon fill="white" stroke="#666666" points="298.68,-74 198.68,-74 198.68,-55 298.68,-55 298.68,-74"/>
<text text-anchor="middle" x="248.68" y="-62" font-family="Helvetica,sans-Serif" font-size="10.00">no_os_lf256fifo.h</text>
</a>
</g>
</g>
<!-- Node15&#45;&gt;Node16 -->
<g id="edge20_Node000015_Node000016" class="edge">
<title>Node15&#45;&gt;Node16</title>
<g id="a_edge20_Node000015_Node000016"><a xlink:title=" ">
<path fill="none" stroke="#63b8ff" d="M257.03,-109.75C255.72,-102.8 253.84,-92.85 252.19,-84.13"/>
<polygon fill="#63b8ff" stroke="#63b8ff" points="255.59,-83.27 250.3,-74.09 248.71,-84.56 255.59,-83.27"/>
</a>
</g>
</g>
<!-- Node16&#45;&gt;Node2 -->
<g id="edge21_Node000016_Node000002" class="edge">
<title>Node16&#45;&gt;Node2</title>
<g id="a_edge21_Node000016_Node000002"><a xlink:title=" ">
<path fill="none" stroke="#63b8ff" d="M222.49,-54.98C195.24,-46.13 152.38,-32.19 121.89,-22.28"/>
<polygon fill="#63b8ff" stroke="#63b8ff" points="122.66,-18.85 112.07,-19.08 120.5,-25.5 122.66,-18.85"/>
</a>
</g>
</g>
<!-- Node16&#45;&gt;Node9 -->
<g id="edge22_Node000016_Node000009" class="edge">
<title>Node16&#45;&gt;Node9</title>
<g id="a_edge22_Node000016_Node000009"><a xlink:title=" ">
<path fill="none" stroke="#63b8ff" d="M282.1,-54.98C319.84,-45.37 381.05,-29.77 420.06,-19.83"/>
<polygon fill="#63b8ff" stroke="#63b8ff" points="421.13,-23.17 429.95,-17.31 419.4,-16.39 421.13,-23.17"/>
</a>
</g>
</g>
<!-- Node16&#45;&gt;Node13 -->
<g id="edge23_Node000016_Node000013" class="edge">
<title>Node16&#45;&gt;Node13</title>
<g id="a_edge23_Node000016_Node000013"><a xlink:title=" ">
<path fill="none" stroke="#63b8ff" d="M239.2,-54.98C230.48,-47.15 217.33,-35.34 206.78,-25.86"/>
<polygon fill="#63b8ff" stroke="#63b8ff" points="209.11,-23.25 199.33,-19.17 204.43,-28.46 209.11,-23.25"/>
</a>
</g>
</g>
<!-- Node17&#45;&gt;Node11 -->
<g id="edge25_Node000017_Node000011" class="edge">
<title>Node17&#45;&gt;Node11</title>
<g id="a_edge25_Node000017_Node000011"><a xlink:title=" ">
<path fill="none" stroke="#63b8ff" d="M286.03,-219.75C284.72,-212.8 282.84,-202.85 281.19,-194.13"/>
<polygon fill="#63b8ff" stroke="#63b8ff" points="284.59,-193.27 279.3,-184.09 277.71,-194.56 284.59,-193.27"/>
</a>
</g>
</g>
<!-- Node18&#45;&gt;Node2 -->
<g id="edge28_Node000018_Node000002" class="edge">
<title>Node18&#45;&gt;Node2</title>
<g id="a_edge28_Node000018_Node000002"><a xlink:title=" ">
<path fill="none" stroke="#63b8ff" d="M101.54,-54.75C99,-47.65 95.32,-37.4 92.15,-28.56"/>
<polygon fill="#63b8ff" stroke="#63b8ff" points="95.43,-27.32 88.76,-19.09 88.84,-29.68 95.43,-27.32"/>
</a>
</g>
</g>
<!-- Node18&#45;&gt;Node9 -->
<g id="edge27_Node000018_Node000009" class="edge">
<title>Node18&#45;&gt;Node9</title>
<g id="a_edge27_Node000018_Node000009"><a xlink:title=" ">
<path fill="none" stroke="#63b8ff" d="M142.35,-57.83C210.19,-47.61 352.12,-26.24 419.56,-16.09"/>
<polygon fill="#63b8ff" stroke="#63b8ff" points="420.36,-19.51 429.72,-14.56 419.31,-12.59 420.36,-19.51"/>
</a>
</g>
</g>
<!-- Node18&#45;&gt;Node13 -->
<g id="edge29_Node000018_Node000013" class="edge">
<title>Node18&#45;&gt;Node13</title>
<g id="a_edge29_Node000018_Node000013"><a xlink:title=" ">
<path fill="none" stroke="#63b8ff" d="M118.33,-54.98C131.52,-46.77 151.71,-34.18 167.25,-24.49"/>
<polygon fill="#63b8ff" stroke="#63b8ff" points="169.14,-27.43 175.77,-19.17 165.44,-21.49 169.14,-27.43"/>
</a>
</g>
</g>
<!-- Node19&#45;&gt;Node2 -->
<g id="edge32_Node000019_Node000002" class="edge">
<title>Node19&#45;&gt;Node2</title>
<g id="a_edge32_Node000019_Node000002"><a xlink:title=" ">
<path fill="none" stroke="#63b8ff" d="M67.98,-219.98C60.3,-194.39 40.01,-116.24 57.68,-55 60.55,-45.06 66.36,-35.2 71.95,-27.29"/>
<polygon fill="#63b8ff" stroke="#63b8ff" points="74.76,-29.39 78,-19.3 69.18,-25.16 74.76,-29.39"/>
</a>
</g>
</g>
<!-- Node19&#45;&gt;Node3 -->
<g id="edge31_Node000019_Node000003" class="edge">
<title>Node19&#45;&gt;Node3</title>
<g id="a_edge31_Node000019_Node000003"><a xlink:title=" ">
<path fill="none" stroke="#63b8ff" d="M76.95,-219.75C82.27,-212.34 90.03,-201.5 96.55,-192.41"/>
<polygon fill="#63b8ff" stroke="#63b8ff" points="99.54,-194.26 102.52,-184.09 93.85,-190.18 99.54,-194.26"/>
</a>
</g>
</g>
</g>
</svg>

<g id="navigator" transform="translate(0 0)" fill="#404254">
  <rect fill="#f2f5e9" fill-opacity="0.5" stroke="#606060" stroke-width=".5" x="0" y="0" width="60" height="60"/>
  <use id="zoomplus" xlink:href="#zoomPlus" x="17" y="9" onmousedown="handleZoom(evt,'in')"/>
  <use id="zoomminus" xlink:href="#zoomMin" x="42" y="9" onmousedown="handleZoom(evt,'out')"/>
  <use id="reset" xlink:href="#resetDef" x="30" y="36" onmousedown="handleReset()"/>
   <use id="arrowup" xlink:href="#arrowUp" x="0" y="0" onmousedown="handlePan(0,-1)"/>
  <use id="arrowright" xlink:href="#arrowRight" x="0" y="0" onmousedown="handlePan(1,0)"/>
  <use id="arrowdown" xlink:href="#arrowDown" x="0" y="0" onmousedown="handlePan(0,1)"/>
  <use id="arrowleft" xlink:href="#arrowLeft" x="0" y="0" onmousedown="handlePan(-1,0)"/>
</g>
<svg viewBox="0 0 15 15" width="100%" height="30px" preserveAspectRatio="xMaxYMin meet">
 <g id="arrow_out" transform="scale(0.3 0.3)">
  <a xlink:href="iio__adg2128_8c__incl_org.svg" target="_base">
   <rect id="button" ry="5" rx="5" y="6" x="6" height="38" width="38"
        fill="#f2f5e9" fill-opacity="0.5" stroke="#606060" stroke-width="1.0"/>
   <path id="arrow"
     d="M 11.500037,31.436501 C 11.940474,20.09759 22.043105,11.32322 32.158766,21.979434 L 37.068811,17.246167 C 37.068811,17.246167 37.088388,32 37.088388,32 L 22.160133,31.978069 C 22.160133,31.978069 26.997745,27.140456 26.997745,27.140456 C 18.528582,18.264221 13.291696,25.230495 11.500037,31.436501 z"
     style="fill:#404040;"/>
  </a>
 </g>
</svg>

<style type='text/css'>
<![CDATA[
[data-mouse-over-selected='false'] { opacity: 0.7; }
[data-mouse-over-selected='true']  { opacity: 1.0; }
]]>
</style>
<script type="application/ecmascript"><![CDATA[
document.addEventListener('DOMContentLoaded', (event) => {
  highlightEdges();
  highlightAdjacentNodes();
});
]]></script>
</svg>
