<?xml version="1.0" encoding="UTF-8" standalone="no"?>
<!DOCTYPE svg PUBLIC "-//W3C//DTD SVG 1.1//EN"
 "http://www.w3.org/Graphics/SVG/1.1/DTD/svg11.dtd">
<!-- Generated by graphviz version 2.43.0 (0)
 -->
<!-- Title: /home/runner/work/no&#45;OS/no&#45;OS/drivers/digital&#45;io/max149x6/iio_max14906.c Pages: 1 -->
<svg width="1072pt" height="324pt"
 viewBox="0.00 0.00 1072.06 324.00" xmlns="http://www.w3.org/2000/svg" xmlns:xlink="http://www.w3.org/1999/xlink">
<g id="graph0" class="graph" transform="scale(1 1) rotate(0) translate(4 320)">
<title>/home/runner/work/no&#45;OS/no&#45;OS/drivers/digital&#45;io/max149x6/iio_max14906.c</title>
<!-- Node1 -->
<g id="Node000001" class="node">
<title>Node1</title>
<g id="a_Node000001"><a xlink:title="Source file of IIO MAX14906 Driver.">
<polygon fill="#999999" stroke="#666666" points="318.56,-316 154.56,-316 154.56,-275 318.56,-275 318.56,-316"/>
<text text-anchor="start" x="162.56" y="-304" font-family="Helvetica,sans-Serif" font-size="10.00">/home/runner/work/no</text>
<text text-anchor="start" x="162.56" y="-293" font-family="Helvetica,sans-Serif" font-size="10.00">&#45;OS/no&#45;OS/drivers/digital</text>
<text text-anchor="middle" x="236.56" y="-282" font-family="Helvetica,sans-Serif" font-size="10.00">&#45;io/max149x6/iio_max14906.c</text>
</a>
</g>
</g>
<!-- Node2 -->
<g id="Node000002" class="node">
<title>Node2</title>
<g id="a_Node000002"><a xlink:title=" ">
<polygon fill="#e0e0e0" stroke="#999999" points="115.06,-19 62.06,-19 62.06,0 115.06,0 115.06,-19"/>
<text text-anchor="middle" x="88.56" y="-7" font-family="Helvetica,sans-Serif" font-size="10.00">stdlib.h</text>
</a>
</g>
</g>
<!-- Node1&#45;&gt;Node2 -->
<g id="edge1_Node000001_Node000002" class="edge">
<title>Node1&#45;&gt;Node2</title>
<g id="a_edge1_Node000001_Node000002"><a xlink:title=" ">
<path fill="none" stroke="#63b8ff" d="M154.51,-282.1C101.58,-272.53 39.09,-257.75 19.56,-239 -1.68,-218.59 0.56,-204.96 0.56,-175.5 0.56,-175.5 0.56,-175.5 0.56,-118.5 0.56,-77.39 39.35,-43.26 65.42,-24.97"/>
<polygon fill="#63b8ff" stroke="#63b8ff" points="67.69,-27.66 74.03,-19.17 63.78,-21.85 67.69,-27.66"/>
</a>
</g>
</g>
<!-- Node3 -->
<g id="Node000003" class="node">
<title>Node3</title>
<g id="a_Node000003"><a xlink:title=" ">
<polygon fill="#e0e0e0" stroke="#999999" points="132.56,-184 82.56,-184 82.56,-165 132.56,-165 132.56,-184"/>
<text text-anchor="middle" x="107.56" y="-172" font-family="Helvetica,sans-Serif" font-size="10.00">stdio.h</text>
</a>
</g>
</g>
<!-- Node1&#45;&gt;Node3 -->
<g id="edge2_Node000001_Node000003" class="edge">
<title>Node1&#45;&gt;Node3</title>
<g id="a_edge2_Node000001_Node000003"><a xlink:title=" ">
<path fill="none" stroke="#63b8ff" d="M208.6,-274.8C194.86,-264.67 178.33,-251.77 164.56,-239 148.53,-224.12 132.03,-205.28 120.93,-192"/>
<polygon fill="#63b8ff" stroke="#63b8ff" points="123.54,-189.66 114.48,-184.17 118.14,-194.11 123.54,-189.66"/>
</a>
</g>
</g>
<!-- Node4 -->
<g id="Node000004" class="node">
<title>Node4</title>
<g id="a_Node000004"><a xlink:title=" ">
<polygon fill="#e0e0e0" stroke="#999999" points="431.06,-239 378.06,-239 378.06,-220 431.06,-220 431.06,-239"/>
<text text-anchor="middle" x="404.56" y="-227" font-family="Helvetica,sans-Serif" font-size="10.00">string.h</text>
</a>
</g>
</g>
<!-- Node1&#45;&gt;Node4 -->
<g id="edge3_Node000001_Node000004" class="edge">
<title>Node1&#45;&gt;Node4</title>
<g id="a_edge3_Node000001_Node000004"><a xlink:title=" ">
<path fill="none" stroke="#63b8ff" d="M287.88,-274.95C315.41,-264.46 348.48,-251.87 372.37,-242.76"/>
<polygon fill="#63b8ff" stroke="#63b8ff" points="373.91,-245.92 382.01,-239.09 371.42,-239.38 373.91,-245.92"/>
</a>
</g>
</g>
<!-- Node5 -->
<g id="Node000005" class="node">
<title>Node5</title>
<g id="a_Node000005"><a xlink:href="no__os__alloc_8h.html" target="_top" xlink:title=" ">
<polygon fill="white" stroke="#666666" points="112.06,-239 29.06,-239 29.06,-220 112.06,-220 112.06,-239"/>
<text text-anchor="middle" x="70.56" y="-227" font-family="Helvetica,sans-Serif" font-size="10.00">no_os_alloc.h</text>
</a>
</g>
</g>
<!-- Node1&#45;&gt;Node5 -->
<g id="edge4_Node000001_Node000005" class="edge">
<title>Node1&#45;&gt;Node5</title>
<g id="a_edge4_Node000001_Node000005"><a xlink:title=" ">
<path fill="none" stroke="#63b8ff" d="M185.85,-274.95C158.66,-264.46 125.98,-251.87 102.37,-242.76"/>
<polygon fill="#63b8ff" stroke="#63b8ff" points="103.44,-239.42 92.85,-239.09 100.92,-245.95 103.44,-239.42"/>
</a>
</g>
</g>
<!-- Node6 -->
<g id="Node000006" class="node">
<title>Node6</title>
<g id="a_Node000006"><a xlink:href="no__os__error_8h.html" target="_top" xlink:title="Error codes definition.">
<polygon fill="white" stroke="#666666" points="531.56,-239 449.56,-239 449.56,-220 531.56,-220 531.56,-239"/>
<text text-anchor="middle" x="490.56" y="-227" font-family="Helvetica,sans-Serif" font-size="10.00">no_os_error.h</text>
</a>
</g>
</g>
<!-- Node1&#45;&gt;Node6 -->
<g id="edge7_Node000001_Node000006" class="edge">
<title>Node1&#45;&gt;Node6</title>
<g id="a_edge7_Node000001_Node000006"><a xlink:title=" ">
<path fill="none" stroke="#63b8ff" d="M314.15,-274.95C357.76,-263.96 410.57,-250.65 446.98,-241.48"/>
<polygon fill="#63b8ff" stroke="#63b8ff" points="447.95,-244.85 456.8,-239.01 446.24,-238.06 447.95,-244.85"/>
</a>
</g>
</g>
<!-- Node8 -->
<g id="Node000008" class="node">
<title>Node8</title>
<g id="a_Node000008"><a xlink:href="no__os__units_8h.html" target="_top" xlink:title="Header file of Units.">
<polygon fill="white" stroke="#666666" points="633.06,-239 550.06,-239 550.06,-220 633.06,-220 633.06,-239"/>
<text text-anchor="middle" x="591.56" y="-227" font-family="Helvetica,sans-Serif" font-size="10.00">no_os_units.h</text>
</a>
</g>
</g>
<!-- Node1&#45;&gt;Node8 -->
<g id="edge9_Node000001_Node000008" class="edge">
<title>Node1&#45;&gt;Node8</title>
<g id="a_edge9_Node000001_Node000008"><a xlink:title=" ">
<path fill="none" stroke="#63b8ff" d="M318.9,-279.66C387.11,-267.36 481.93,-250.26 539.9,-239.81"/>
<polygon fill="#63b8ff" stroke="#63b8ff" points="540.71,-243.22 549.93,-238.01 539.46,-236.34 540.71,-243.22"/>
</a>
</g>
</g>
<!-- Node9 -->
<g id="Node000009" class="node">
<title>Node9</title>
<g id="a_Node000009"><a xlink:href="no__os__util_8h.html" target="_top" xlink:title="Header file of utility functions.">
<polygon fill="white" stroke="#666666" points="160.06,-74 85.06,-74 85.06,-55 160.06,-55 160.06,-74"/>
<text text-anchor="middle" x="122.56" y="-62" font-family="Helvetica,sans-Serif" font-size="10.00">no_os_util.h</text>
</a>
</g>
</g>
<!-- Node1&#45;&gt;Node9 -->
<g id="edge10_Node000001_Node000009" class="edge">
<title>Node1&#45;&gt;Node9</title>
<g id="a_edge10_Node000001_Node000009"><a xlink:title=" ">
<path fill="none" stroke="#63b8ff" d="M226.84,-274.98C205.05,-231.21 152.57,-125.79 131.52,-83.5"/>
<polygon fill="#63b8ff" stroke="#63b8ff" points="134.58,-81.79 126.99,-74.39 128.31,-84.91 134.58,-81.79"/>
</a>
</g>
</g>
<!-- Node12 -->
<g id="Node000012" class="node">
<title>Node12</title>
<g id="a_Node000012"><a xlink:href="max14906_8h.html" target="_top" xlink:title="Header file of MAX14906 Driver.">
<polygon fill="white" stroke="#666666" points="372.06,-184 295.06,-184 295.06,-165 372.06,-165 372.06,-184"/>
<text text-anchor="middle" x="333.56" y="-172" font-family="Helvetica,sans-Serif" font-size="10.00">max14906.h</text>
</a>
</g>
</g>
<!-- Node1&#45;&gt;Node12 -->
<g id="edge14_Node000001_Node000012" class="edge">
<title>Node1&#45;&gt;Node12</title>
<g id="a_edge14_Node000001_Node000012"><a xlink:title=" ">
<path fill="none" stroke="#63b8ff" d="M237.72,-274.96C239.57,-258.78 244.33,-235.94 256.56,-220 267.46,-205.8 284.28,-195.33 299.42,-188.13"/>
<polygon fill="#63b8ff" stroke="#63b8ff" points="300.85,-191.33 308.57,-184.07 298.01,-184.93 300.85,-191.33"/>
</a>
</g>
</g>
<!-- Node16 -->
<g id="Node000016" class="node">
<title>Node16</title>
<g id="a_Node000016"><a xlink:href="iio__max14906_8h.html" target="_top" xlink:title="Header file of MAX14906 IIO Driver.">
<polygon fill="white" stroke="#666666" points="360.06,-239 265.06,-239 265.06,-220 360.06,-220 360.06,-239"/>
<text text-anchor="middle" x="312.56" y="-227" font-family="Helvetica,sans-Serif" font-size="10.00">iio_max14906.h</text>
</a>
</g>
</g>
<!-- Node1&#45;&gt;Node16 -->
<g id="edge28_Node000001_Node000016" class="edge">
<title>Node1&#45;&gt;Node16</title>
<g id="a_edge28_Node000001_Node000016"><a xlink:title=" ">
<path fill="none" stroke="#63b8ff" d="M259.78,-274.95C270.94,-265.55 284.11,-254.46 294.51,-245.7"/>
<polygon fill="#63b8ff" stroke="#63b8ff" points="296.76,-248.38 302.16,-239.26 292.25,-243.02 296.76,-248.38"/>
</a>
</g>
</g>
<!-- Node5&#45;&gt;Node2 -->
<g id="edge6_Node000005_Node000002" class="edge">
<title>Node5&#45;&gt;Node2</title>
<g id="a_edge6_Node000005_Node000002"><a xlink:title=" ">
<path fill="none" stroke="#63b8ff" d="M70.03,-219.76C68.65,-194.21 65.7,-117.51 75.56,-55 76.94,-46.25 79.54,-36.81 82.05,-28.88"/>
<polygon fill="#63b8ff" stroke="#63b8ff" points="85.43,-29.81 85.3,-19.21 78.79,-27.58 85.43,-29.81"/>
</a>
</g>
</g>
<!-- Node5&#45;&gt;Node3 -->
<g id="edge5_Node000005_Node000003" class="edge">
<title>Node5&#45;&gt;Node3</title>
<g id="a_edge5_Node000005_Node000003"><a xlink:title=" ">
<path fill="none" stroke="#63b8ff" d="M76.67,-219.75C81.84,-212.34 89.41,-201.5 95.76,-192.41"/>
<polygon fill="#63b8ff" stroke="#63b8ff" points="98.71,-194.29 101.57,-184.09 92.97,-190.29 98.71,-194.29"/>
</a>
</g>
</g>
<!-- Node7 -->
<g id="Node000007" class="node">
<title>Node7</title>
<g id="a_Node000007"><a xlink:href="errno_8h.html" target="_top" xlink:title="Error macro definition for ARM Compiler.">
<polygon fill="white" stroke="#666666" points="1064.06,-184 1013.06,-184 1013.06,-165 1064.06,-165 1064.06,-184"/>
<text text-anchor="middle" x="1038.56" y="-172" font-family="Helvetica,sans-Serif" font-size="10.00">errno.h</text>
</a>
</g>
</g>
<!-- Node6&#45;&gt;Node7 -->
<g id="edge8_Node000006_Node000007" class="edge">
<title>Node6&#45;&gt;Node7</title>
<g id="a_edge8_Node000006_Node000007"><a xlink:title=" ">
<path fill="none" stroke="#63b8ff" d="M531.71,-221.33C535.04,-220.84 538.35,-220.39 541.56,-220 743.79,-195.23 796.93,-213.24 998.56,-184 1000.01,-183.79 1001.49,-183.56 1002.97,-183.31"/>
<polygon fill="#63b8ff" stroke="#63b8ff" points="1003.63,-186.75 1012.83,-181.49 1002.36,-179.86 1003.63,-186.75"/>
</a>
</g>
</g>
<!-- Node9&#45;&gt;Node2 -->
<g id="edge12_Node000009_Node000002" class="edge">
<title>Node9&#45;&gt;Node2</title>
<g id="a_edge12_Node000009_Node000002"><a xlink:title=" ">
<path fill="none" stroke="#63b8ff" d="M116.95,-54.75C112.24,-47.42 105.39,-36.73 99.59,-27.7"/>
<polygon fill="#63b8ff" stroke="#63b8ff" points="102.42,-25.62 94.07,-19.09 96.53,-29.4 102.42,-25.62"/>
</a>
</g>
</g>
<!-- Node10 -->
<g id="Node000010" class="node">
<title>Node10</title>
<g id="a_Node000010"><a xlink:title=" ">
<polygon fill="#e0e0e0" stroke="#999999" points="638.06,-19 585.06,-19 585.06,0 638.06,0 638.06,-19"/>
<text text-anchor="middle" x="611.56" y="-7" font-family="Helvetica,sans-Serif" font-size="10.00">stdint.h</text>
</a>
</g>
</g>
<!-- Node9&#45;&gt;Node10 -->
<g id="edge11_Node000009_Node000010" class="edge">
<title>Node9&#45;&gt;Node10</title>
<g id="a_edge11_Node000009_Node000010"><a xlink:title=" ">
<path fill="none" stroke="#63b8ff" d="M160.12,-59.43C251.44,-49.53 484.24,-24.3 574.77,-14.49"/>
<polygon fill="#63b8ff" stroke="#63b8ff" points="575.27,-17.95 584.83,-13.4 574.51,-11 575.27,-17.95"/>
</a>
</g>
</g>
<!-- Node11 -->
<g id="Node000011" class="node">
<title>Node11</title>
<g id="a_Node000011"><a xlink:title=" ">
<polygon fill="#e0e0e0" stroke="#999999" points="295.56,-19 233.56,-19 233.56,0 295.56,0 295.56,-19"/>
<text text-anchor="middle" x="264.56" y="-7" font-family="Helvetica,sans-Serif" font-size="10.00">stdbool.h</text>
</a>
</g>
</g>
<!-- Node9&#45;&gt;Node11 -->
<g id="edge13_Node000009_Node000011" class="edge">
<title>Node9&#45;&gt;Node11</title>
<g id="a_edge13_Node000009_Node000011"><a xlink:title=" ">
<path fill="none" stroke="#63b8ff" d="M145.38,-54.98C168.73,-46.27 205.27,-32.63 231.73,-22.75"/>
<polygon fill="#63b8ff" stroke="#63b8ff" points="233.19,-25.95 241.33,-19.17 230.74,-19.39 233.19,-25.95"/>
</a>
</g>
</g>
<!-- Node12&#45;&gt;Node9 -->
<g id="edge27_Node000012_Node000009" class="edge">
<title>Node12&#45;&gt;Node9</title>
<g id="a_edge27_Node000012_Node000009"><a xlink:title=" ">
<path fill="none" stroke="#63b8ff" d="M308.29,-164.88C285.41,-156.72 251.02,-143.58 222.56,-129 193.67,-114.2 162.4,-93.51 142.66,-79.82"/>
<polygon fill="#63b8ff" stroke="#63b8ff" points="144.65,-76.94 134.45,-74.07 140.63,-82.68 144.65,-76.94"/>
</a>
</g>
</g>
<!-- Node12&#45;&gt;Node10 -->
<g id="edge15_Node000012_Node000010" class="edge">
<title>Node12&#45;&gt;Node10</title>
<g id="a_edge15_Node000012_Node000010"><a xlink:title=" ">
<path fill="none" stroke="#63b8ff" d="M372.14,-169.43C459.49,-159.29 667.74,-129.63 705.56,-74 723.37,-47.8 681.68,-29.45 648.24,-19.44"/>
<polygon fill="#63b8ff" stroke="#63b8ff" points="648.78,-15.95 638.2,-16.6 646.87,-22.69 648.78,-15.95"/>
</a>
</g>
</g>
<!-- Node12&#45;&gt;Node11 -->
<g id="edge16_Node000012_Node000011" class="edge">
<title>Node12&#45;&gt;Node11</title>
<g id="a_edge16_Node000012_Node000011"><a xlink:title=" ">
<path fill="none" stroke="#63b8ff" d="M319.25,-164.69C307.61,-156.78 291.67,-144.09 282.56,-129 263.82,-97.93 262.26,-54.2 263.17,-29.48"/>
<polygon fill="#63b8ff" stroke="#63b8ff" points="266.67,-29.47 263.73,-19.29 259.69,-29.08 266.67,-29.47"/>
</a>
</g>
</g>
<!-- Node13 -->
<g id="Node000013" class="node">
<title>Node13</title>
<g id="a_Node000013"><a xlink:href="max149x6-base_8h.html" target="_top" xlink:title="Header file of MAX149X6 Base Driver.">
<polygon fill="white" stroke="#666666" points="395.56,-129 291.56,-129 291.56,-110 395.56,-110 395.56,-129"/>
<text text-anchor="middle" x="343.56" y="-117" font-family="Helvetica,sans-Serif" font-size="10.00">max149x6&#45;base.h</text>
</a>
</g>
</g>
<!-- Node12&#45;&gt;Node13 -->
<g id="edge17_Node000012_Node000013" class="edge">
<title>Node12&#45;&gt;Node13</title>
<g id="a_edge17_Node000012_Node000013"><a xlink:title=" ">
<path fill="none" stroke="#63b8ff" d="M335.21,-164.75C336.52,-157.8 338.4,-147.85 340.05,-139.13"/>
<polygon fill="#63b8ff" stroke="#63b8ff" points="343.53,-139.56 341.94,-129.09 336.65,-138.27 343.53,-139.56"/>
</a>
</g>
</g>
<!-- Node14 -->
<g id="Node000014" class="node">
<title>Node14</title>
<g id="a_Node000014"><a xlink:href="no__os__gpio_8h.html" target="_top" xlink:title="Header file of GPIO Interface.">
<polygon fill="white" stroke="#666666" points="604.56,-74 524.56,-74 524.56,-55 604.56,-55 604.56,-74"/>
<text text-anchor="middle" x="564.56" y="-62" font-family="Helvetica,sans-Serif" font-size="10.00">no_os_gpio.h</text>
</a>
</g>
</g>
<!-- Node12&#45;&gt;Node14 -->
<g id="edge25_Node000012_Node000014" class="edge">
<title>Node12&#45;&gt;Node14</title>
<g id="a_edge25_Node000012_Node000014"><a xlink:title=" ">
<path fill="none" stroke="#63b8ff" d="M372.36,-170.11C409.38,-165.43 465.56,-154.45 507.56,-129 526.68,-117.41 543.07,-97.41 553.3,-82.95"/>
<polygon fill="#63b8ff" stroke="#63b8ff" points="556.39,-84.63 559.1,-74.39 550.6,-80.71 556.39,-84.63"/>
</a>
</g>
</g>
<!-- Node15 -->
<g id="Node000015" class="node">
<title>Node15</title>
<g id="a_Node000015"><a xlink:href="no__os__spi_8h.html" target="_top" xlink:title="Header file of SPI Interface.">
<polygon fill="white" stroke="#666666" points="696.56,-74 622.56,-74 622.56,-55 696.56,-55 696.56,-74"/>
<text text-anchor="middle" x="659.56" y="-62" font-family="Helvetica,sans-Serif" font-size="10.00">no_os_spi.h</text>
</a>
</g>
</g>
<!-- Node12&#45;&gt;Node15 -->
<g id="edge26_Node000012_Node000015" class="edge">
<title>Node12&#45;&gt;Node15</title>
<g id="a_edge26_Node000012_Node000015"><a xlink:title=" ">
<path fill="none" stroke="#63b8ff" d="M372.29,-167.62C412.77,-160.83 477.77,-148.08 531.56,-129 569.71,-115.47 611.22,-93.39 636.32,-79.16"/>
<polygon fill="#63b8ff" stroke="#63b8ff" points="638.16,-82.14 645.09,-74.12 634.68,-76.07 638.16,-82.14"/>
</a>
</g>
</g>
<!-- Node13&#45;&gt;Node9 -->
<g id="edge24_Node000013_Node000009" class="edge">
<title>Node13&#45;&gt;Node9</title>
<g id="a_edge24_Node000013_Node000009"><a xlink:title=" ">
<path fill="none" stroke="#63b8ff" d="M308.05,-109.98C270.07,-100.87 209.69,-86.4 168.2,-76.45"/>
<polygon fill="#63b8ff" stroke="#63b8ff" points="168.89,-73.01 158.35,-74.08 167.26,-79.82 168.89,-73.01"/>
</a>
</g>
</g>
<!-- Node13&#45;&gt;Node10 -->
<g id="edge18_Node000013_Node000010" class="edge">
<title>Node13&#45;&gt;Node10</title>
<g id="a_edge18_Node000013_Node000010"><a xlink:title=" ">
<path fill="none" stroke="#63b8ff" d="M362.45,-109.94C390.3,-97.42 444.09,-73.57 490.56,-55 519.61,-43.4 553,-31.2 577.34,-22.52"/>
<polygon fill="#63b8ff" stroke="#63b8ff" points="578.59,-25.78 586.84,-19.14 576.25,-19.19 578.59,-25.78"/>
</a>
</g>
</g>
<!-- Node13&#45;&gt;Node11 -->
<g id="edge19_Node000013_Node000011" class="edge">
<title>Node13&#45;&gt;Node11</title>
<g id="a_edge19_Node000013_Node000011"><a xlink:title=" ">
<path fill="none" stroke="#63b8ff" d="M326.69,-109.97C313.16,-102.3 294.66,-89.82 283.56,-74 274.17,-60.6 269.35,-42.5 266.92,-29.05"/>
<polygon fill="#63b8ff" stroke="#63b8ff" points="270.36,-28.41 265.39,-19.05 263.44,-29.47 270.36,-28.41"/>
</a>
</g>
</g>
<!-- Node13&#45;&gt;Node14 -->
<g id="edge20_Node000013_Node000014" class="edge">
<title>Node13&#45;&gt;Node14</title>
<g id="a_edge20_Node000013_Node000014"><a xlink:title=" ">
<path fill="none" stroke="#63b8ff" d="M379.07,-109.98C417.06,-100.87 477.43,-86.4 518.92,-76.45"/>
<polygon fill="#63b8ff" stroke="#63b8ff" points="519.87,-79.82 528.78,-74.08 518.24,-73.01 519.87,-79.82"/>
</a>
</g>
</g>
<!-- Node13&#45;&gt;Node15 -->
<g id="edge22_Node000013_Node000015" class="edge">
<title>Node13&#45;&gt;Node15</title>
<g id="a_edge22_Node000013_Node000015"><a xlink:title=" ">
<path fill="none" stroke="#63b8ff" d="M395.62,-110.23C447.91,-101.85 531.06,-88.34 612.49,-74.16"/>
<polygon fill="#63b8ff" stroke="#63b8ff" points="613.17,-77.6 622.42,-72.43 611.96,-70.7 613.17,-77.6"/>
</a>
</g>
</g>
<!-- Node14&#45;&gt;Node10 -->
<g id="edge21_Node000014_Node000010" class="edge">
<title>Node14&#45;&gt;Node10</title>
<g id="a_edge21_Node000014_Node000010"><a xlink:title=" ">
<path fill="none" stroke="#63b8ff" d="M572.32,-54.75C579.03,-47.18 588.9,-36.05 597.07,-26.84"/>
<polygon fill="#63b8ff" stroke="#63b8ff" points="599.93,-28.89 603.94,-19.09 594.69,-24.25 599.93,-28.89"/>
</a>
</g>
</g>
<!-- Node15&#45;&gt;Node10 -->
<g id="edge23_Node000015_Node000010" class="edge">
<title>Node15&#45;&gt;Node10</title>
<g id="a_edge23_Node000015_Node000010"><a xlink:title=" ">
<path fill="none" stroke="#63b8ff" d="M651.64,-54.75C644.72,-47.11 634.5,-35.82 626.11,-26.56"/>
<polygon fill="#63b8ff" stroke="#63b8ff" points="628.65,-24.15 619.34,-19.09 623.46,-28.85 628.65,-24.15"/>
</a>
</g>
</g>
<!-- Node16&#45;&gt;Node10 -->
<g id="edge29_Node000016_Node000010" class="edge">
<title>Node16&#45;&gt;Node10</title>
<g id="a_edge29_Node000016_Node000010"><a xlink:title=" ">
<path fill="none" stroke="#63b8ff" d="M360.47,-221.1C486.17,-201.51 818.99,-148.48 865.56,-129 904.7,-112.63 924.04,-111.66 943.56,-74 947.45,-66.5 949.12,-61.36 943.56,-55 905.57,-11.58 727.03,-8.73 648.63,-9.65"/>
<polygon fill="#63b8ff" stroke="#63b8ff" points="648.21,-6.16 638.26,-9.8 648.31,-13.16 648.21,-6.16"/>
</a>
</g>
</g>
<!-- Node16&#45;&gt;Node11 -->
<g id="edge30_Node000016_Node000011" class="edge">
<title>Node16&#45;&gt;Node11</title>
<g id="a_edge30_Node000016_Node000011"><a xlink:title=" ">
<path fill="none" stroke="#63b8ff" d="M306.77,-219.95C301.04,-211.21 292.32,-197.11 286.56,-184 266.25,-137.82 263.53,-124.2 258.56,-74 257.07,-58.98 258.87,-41.96 260.88,-29.32"/>
<polygon fill="#63b8ff" stroke="#63b8ff" points="264.38,-29.59 262.69,-19.13 257.49,-28.36 264.38,-29.59"/>
</a>
</g>
</g>
<!-- Node16&#45;&gt;Node12 -->
<g id="edge44_Node000016_Node000012" class="edge">
<title>Node16&#45;&gt;Node12</title>
<g id="a_edge44_Node000016_Node000012"><a xlink:title=" ">
<path fill="none" stroke="#63b8ff" d="M316.03,-219.75C318.84,-212.65 322.9,-202.4 326.41,-193.56"/>
<polygon fill="#63b8ff" stroke="#63b8ff" points="329.73,-194.68 330.16,-184.09 323.22,-192.1 329.73,-194.68"/>
</a>
</g>
</g>
<!-- Node17 -->
<g id="Node000017" class="node">
<title>Node17</title>
<g id="a_Node000017"><a xlink:href="iio_8h.html" target="_top" xlink:title="Header file of iio.">
<polygon fill="white" stroke="#666666" points="477.56,-184 439.56,-184 439.56,-165 477.56,-165 477.56,-184"/>
<text text-anchor="middle" x="458.56" y="-172" font-family="Helvetica,sans-Serif" font-size="10.00">iio.h</text>
</a>
</g>
</g>
<!-- Node16&#45;&gt;Node17 -->
<g id="edge31_Node000016_Node000017" class="edge">
<title>Node16&#45;&gt;Node17</title>
<g id="a_edge31_Node000016_Node000017"><a xlink:title=" ">
<path fill="none" stroke="#63b8ff" d="M336.02,-219.98C361.58,-210.71 402.47,-195.86 429.91,-185.9"/>
<polygon fill="#63b8ff" stroke="#63b8ff" points="431.15,-189.17 439.36,-182.47 428.76,-182.59 431.15,-189.17"/>
</a>
</g>
</g>
<!-- Node18 -->
<g id="Node000018" class="node">
<title>Node18</title>
<g id="a_Node000018"><a xlink:href="iio__types_8h.html" target="_top" xlink:title="Header file for iio_types.">
<polygon fill="white" stroke="#666666" points="856.56,-129 786.56,-129 786.56,-110 856.56,-110 856.56,-129"/>
<text text-anchor="middle" x="821.56" y="-117" font-family="Helvetica,sans-Serif" font-size="10.00">iio_types.h</text>
</a>
</g>
</g>
<!-- Node17&#45;&gt;Node18 -->
<g id="edge32_Node000017_Node000018" class="edge">
<title>Node17&#45;&gt;Node18</title>
<g id="a_edge32_Node000017_Node000018"><a xlink:title=" ">
<path fill="none" stroke="#63b8ff" d="M477.57,-170.73C533.06,-162.62 696,-138.83 776.08,-127.14"/>
<polygon fill="#63b8ff" stroke="#63b8ff" points="776.96,-130.55 786.35,-125.64 775.94,-123.62 776.96,-130.55"/>
</a>
</g>
</g>
<!-- Node20 -->
<g id="Node000020" class="node">
<title>Node20</title>
<g id="a_Node000020"><a xlink:href="no__os__uart_8h.html" target="_top" xlink:title="Header file of UART interface.">
<polygon fill="white" stroke="#666666" points="498.06,-129 419.06,-129 419.06,-110 498.06,-110 498.06,-129"/>
<text text-anchor="middle" x="458.56" y="-117" font-family="Helvetica,sans-Serif" font-size="10.00">no_os_uart.h</text>
</a>
</g>
</g>
<!-- Node17&#45;&gt;Node20 -->
<g id="edge37_Node000017_Node000020" class="edge">
<title>Node17&#45;&gt;Node20</title>
<g id="a_edge37_Node000017_Node000020"><a xlink:title=" ">
<path fill="none" stroke="#63b8ff" d="M458.56,-164.75C458.56,-157.8 458.56,-147.85 458.56,-139.13"/>
<polygon fill="#63b8ff" stroke="#63b8ff" points="462.06,-139.09 458.56,-129.09 455.06,-139.09 462.06,-139.09"/>
</a>
</g>
</g>
<!-- Node18&#45;&gt;Node10 -->
<g id="edge34_Node000018_Node000010" class="edge">
<title>Node18&#45;&gt;Node10</title>
<g id="a_edge34_Node000018_Node000010"><a xlink:title=" ">
<path fill="none" stroke="#63b8ff" d="M856.82,-111.3C896.25,-101.72 951.62,-82.69 927.56,-55 891.8,-13.85 724.24,-9.67 648.68,-9.94"/>
<polygon fill="#63b8ff" stroke="#63b8ff" points="648.2,-6.44 638.23,-10.01 648.25,-13.44 648.2,-6.44"/>
</a>
</g>
</g>
<!-- Node18&#45;&gt;Node11 -->
<g id="edge33_Node000018_Node000011" class="edge">
<title>Node18&#45;&gt;Node11</title>
<g id="a_edge33_Node000018_Node000011"><a xlink:title=" ">
<path fill="none" stroke="#63b8ff" d="M809.76,-109.92C789.56,-95.74 746.57,-67.72 705.56,-55 631.44,-32.01 400.38,-17.63 305.68,-12.56"/>
<polygon fill="#63b8ff" stroke="#63b8ff" points="305.79,-9.06 295.62,-12.02 305.42,-16.05 305.79,-9.06"/>
</a>
</g>
</g>
<!-- Node19 -->
<g id="Node000019" class="node">
<title>Node19</title>
<g id="a_Node000019"><a xlink:href="no__os__circular__buffer_8h.html" target="_top" xlink:title="Circular buffer library header.">
<polygon fill="white" stroke="#666666" points="918.56,-74 790.56,-74 790.56,-55 918.56,-55 918.56,-74"/>
<text text-anchor="middle" x="854.56" y="-62" font-family="Helvetica,sans-Serif" font-size="10.00">no_os_circular_buffer.h</text>
</a>
</g>
</g>
<!-- Node18&#45;&gt;Node19 -->
<g id="edge35_Node000018_Node000019" class="edge">
<title>Node18&#45;&gt;Node19</title>
<g id="a_edge35_Node000018_Node000019"><a xlink:title=" ">
<path fill="none" stroke="#63b8ff" d="M827.01,-109.75C831.58,-102.42 838.23,-91.73 843.85,-82.7"/>
<polygon fill="#63b8ff" stroke="#63b8ff" points="846.9,-84.43 849.21,-74.09 840.96,-80.73 846.9,-84.43"/>
</a>
</g>
</g>
<!-- Node19&#45;&gt;Node10 -->
<g id="edge36_Node000019_Node000010" class="edge">
<title>Node19&#45;&gt;Node10</title>
<g id="a_edge36_Node000019_Node000010"><a xlink:title=" ">
<path fill="none" stroke="#63b8ff" d="M815.52,-54.98C769.34,-44.91 693.08,-28.28 648.05,-18.46"/>
<polygon fill="#63b8ff" stroke="#63b8ff" points="648.64,-15 638.12,-16.29 647.15,-21.84 648.64,-15"/>
</a>
</g>
</g>
<!-- Node20&#45;&gt;Node10 -->
<g id="edge38_Node000020_Node000010" class="edge">
<title>Node20&#45;&gt;Node10</title>
<g id="a_edge38_Node000020_Node000010"><a xlink:title=" ">
<path fill="none" stroke="#63b8ff" d="M464.66,-109.67C474.22,-96.36 493.88,-71.03 515.56,-55 534.05,-41.33 557.41,-30.39 576.46,-22.77"/>
<polygon fill="#63b8ff" stroke="#63b8ff" points="577.91,-25.97 585.98,-19.1 575.39,-19.44 577.91,-25.97"/>
</a>
</g>
</g>
<!-- Node20&#45;&gt;Node11 -->
<g id="edge39_Node000020_Node000011" class="edge">
<title>Node20&#45;&gt;Node11</title>
<g id="a_edge39_Node000020_Node000011"><a xlink:title=" ">
<path fill="none" stroke="#63b8ff" d="M452.99,-109.78C443.86,-96.16 424.41,-69.86 401.56,-55 372.34,-35.99 334.33,-24.49 305.76,-17.96"/>
<polygon fill="#63b8ff" stroke="#63b8ff" points="306.21,-14.47 295.69,-15.77 304.72,-21.31 306.21,-14.47"/>
</a>
</g>
</g>
<!-- Node21 -->
<g id="Node000021" class="node">
<title>Node21</title>
<g id="a_Node000021"><a xlink:href="no__os__lf256fifo_8h.html" target="_top" xlink:title="SPSC lock&#45;free fifo of fixed size (256), specialized for UART.">
<polygon fill="white" stroke="#666666" points="392.56,-74 292.56,-74 292.56,-55 392.56,-55 392.56,-74"/>
<text text-anchor="middle" x="342.56" y="-62" font-family="Helvetica,sans-Serif" font-size="10.00">no_os_lf256fifo.h</text>
</a>
</g>
</g>
<!-- Node20&#45;&gt;Node21 -->
<g id="edge40_Node000020_Node000021" class="edge">
<title>Node20&#45;&gt;Node21</title>
<g id="a_edge40_Node000020_Node000021"><a xlink:title=" ">
<path fill="none" stroke="#63b8ff" d="M439.92,-109.98C421.26,-101.46 392.31,-88.23 370.82,-78.41"/>
<polygon fill="#63b8ff" stroke="#63b8ff" points="372.09,-75.14 361.54,-74.17 369.18,-81.51 372.09,-75.14"/>
</a>
</g>
</g>
<!-- Node21&#45;&gt;Node2 -->
<g id="edge41_Node000021_Node000002" class="edge">
<title>Node21&#45;&gt;Node2</title>
<g id="a_edge41_Node000021_Node000002"><a xlink:title=" ">
<path fill="none" stroke="#63b8ff" d="M301.75,-54.98C252.99,-44.81 172.14,-27.94 125.27,-18.16"/>
<polygon fill="#63b8ff" stroke="#63b8ff" points="125.75,-14.68 115.25,-16.07 124.32,-21.54 125.75,-14.68"/>
</a>
</g>
</g>
<!-- Node21&#45;&gt;Node10 -->
<g id="edge42_Node000021_Node000010" class="edge">
<title>Node21&#45;&gt;Node10</title>
<g id="a_edge42_Node000021_Node000010"><a xlink:title=" ">
<path fill="none" stroke="#63b8ff" d="M385.78,-54.98C438.19,-44.66 525.62,-27.43 574.89,-17.73"/>
<polygon fill="#63b8ff" stroke="#63b8ff" points="575.66,-21.14 584.8,-15.77 574.31,-14.27 575.66,-21.14"/>
</a>
</g>
</g>
<!-- Node21&#45;&gt;Node11 -->
<g id="edge43_Node000021_Node000011" class="edge">
<title>Node21&#45;&gt;Node11</title>
<g id="a_edge43_Node000021_Node000011"><a xlink:title=" ">
<path fill="none" stroke="#63b8ff" d="M330.03,-54.98C318.16,-46.92 300.1,-34.65 285.95,-25.03"/>
<polygon fill="#63b8ff" stroke="#63b8ff" points="287.56,-21.9 277.32,-19.17 283.63,-27.69 287.56,-21.9"/>
</a>
</g>
</g>
</g>
</svg>
