<?xml version="1.0" encoding="UTF-8" standalone="no"?>
<!DOCTYPE svg PUBLIC "-//W3C//DTD SVG 1.1//EN"
 "http://www.w3.org/Graphics/SVG/1.1/DTD/svg11.dtd">
<!-- Generated by graphviz version 2.43.0 (0)
 -->
<!-- Title: /home/runner/work/no&#45;OS/no&#45;OS/drivers/accel/adxl367/iio_adxl367.c Pages: 1 -->
<svg width="988pt" height="324pt"
 viewBox="0.00 0.00 988.43 324.00" xmlns="http://www.w3.org/2000/svg" xmlns:xlink="http://www.w3.org/1999/xlink">
<g id="graph0" class="graph" transform="scale(1 1) rotate(0) translate(4 320)">
<title>/home/runner/work/no&#45;OS/no&#45;OS/drivers/accel/adxl367/iio_adxl367.c</title>
<!-- Node1 -->
<g id="Node000001" class="node">
<title>Node1</title>
<g id="a_Node000001"><a xlink:title="IIO part of the ADXL367 driver.">
<polygon fill="#999999" stroke="#666666" points="334.5,-316 203.5,-316 203.5,-275 334.5,-275 334.5,-316"/>
<text text-anchor="start" x="211.5" y="-304" font-family="Helvetica,sans-Serif" font-size="10.00">/home/runner/work/no</text>
<text text-anchor="start" x="211.5" y="-293" font-family="Helvetica,sans-Serif" font-size="10.00">&#45;OS/no&#45;OS/drivers/accel</text>
<text text-anchor="middle" x="269" y="-282" font-family="Helvetica,sans-Serif" font-size="10.00">/adxl367/iio_adxl367.c</text>
</a>
</g>
</g>
<!-- Node2 -->
<g id="Node000002" class="node">
<title>Node2</title>
<g id="a_Node000002"><a xlink:title=" ">
<polygon fill="#e0e0e0" stroke="#999999" points="281.5,-19 228.5,-19 228.5,0 281.5,0 281.5,-19"/>
<text text-anchor="middle" x="255" y="-7" font-family="Helvetica,sans-Serif" font-size="10.00">stdlib.h</text>
</a>
</g>
</g>
<!-- Node1&#45;&gt;Node2 -->
<g id="edge1_Node000001_Node000002" class="edge">
<title>Node1&#45;&gt;Node2</title>
<g id="a_edge1_Node000001_Node000002"><a xlink:title=" ">
<path fill="none" stroke="#63b8ff" d="M265.77,-274.81C259.64,-236.35 246.54,-148.49 242,-74 241.49,-65.57 240.8,-63.36 242,-55 243.25,-46.24 245.83,-36.79 248.36,-28.86"/>
<polygon fill="#63b8ff" stroke="#63b8ff" points="251.74,-29.8 251.66,-19.2 245.12,-27.54 251.74,-29.8"/>
</a>
</g>
</g>
<!-- Node3 -->
<g id="Node000003" class="node">
<title>Node3</title>
<g id="a_Node000003"><a xlink:title=" ">
<polygon fill="#e0e0e0" stroke="#999999" points="222,-184 172,-184 172,-165 222,-165 222,-184"/>
<text text-anchor="middle" x="197" y="-172" font-family="Helvetica,sans-Serif" font-size="10.00">stdio.h</text>
</a>
</g>
</g>
<!-- Node1&#45;&gt;Node3 -->
<g id="edge2_Node000001_Node000003" class="edge">
<title>Node1&#45;&gt;Node3</title>
<g id="a_edge2_Node000001_Node000003"><a xlink:title=" ">
<path fill="none" stroke="#63b8ff" d="M257.11,-274.85C243.33,-252.07 220.81,-214.85 207.6,-193.02"/>
<polygon fill="#63b8ff" stroke="#63b8ff" points="210.42,-190.92 202.25,-184.18 204.43,-194.54 210.42,-190.92"/>
</a>
</g>
</g>
<!-- Node4 -->
<g id="Node000004" class="node">
<title>Node4</title>
<g id="a_Node000004"><a xlink:href="no__os__error_8h.html" target="_top" xlink:title="Error codes definition.">
<polygon fill="white" stroke="#666666" points="82,-239 0,-239 0,-220 82,-220 82,-239"/>
<text text-anchor="middle" x="41" y="-227" font-family="Helvetica,sans-Serif" font-size="10.00">no_os_error.h</text>
</a>
</g>
</g>
<!-- Node1&#45;&gt;Node4 -->
<g id="edge3_Node000001_Node000004" class="edge">
<title>Node1&#45;&gt;Node4</title>
<g id="a_edge3_Node000001_Node000004"><a xlink:title=" ">
<path fill="none" stroke="#63b8ff" d="M203.36,-276.07C164.02,-265.03 115.24,-251.34 81.47,-241.86"/>
<polygon fill="#63b8ff" stroke="#63b8ff" points="82.08,-238.4 71.5,-239.06 80.19,-245.13 82.08,-238.4"/>
</a>
</g>
</g>
<!-- Node6 -->
<g id="Node000006" class="node">
<title>Node6</title>
<g id="a_Node000006"><a xlink:href="no__os__util_8h.html" target="_top" xlink:title="Header file of utility functions.">
<polygon fill="white" stroke="#666666" points="325.5,-74 250.5,-74 250.5,-55 325.5,-55 325.5,-74"/>
<text text-anchor="middle" x="288" y="-62" font-family="Helvetica,sans-Serif" font-size="10.00">no_os_util.h</text>
</a>
</g>
</g>
<!-- Node1&#45;&gt;Node6 -->
<g id="edge5_Node000001_Node000006" class="edge">
<title>Node1&#45;&gt;Node6</title>
<g id="a_edge5_Node000001_Node000006"><a xlink:title=" ">
<path fill="none" stroke="#63b8ff" d="M270.62,-274.98C274.22,-231.58 282.85,-127.56 286.42,-84.58"/>
<polygon fill="#63b8ff" stroke="#63b8ff" points="289.92,-84.65 287.26,-74.39 282.95,-84.07 289.92,-84.65"/>
</a>
</g>
</g>
<!-- Node9 -->
<g id="Node000009" class="node">
<title>Node9</title>
<g id="a_Node000009"><a xlink:href="no__os__alloc_8h.html" target="_top" xlink:title=" ">
<polygon fill="white" stroke="#666666" points="183.5,-239 100.5,-239 100.5,-220 183.5,-220 183.5,-239"/>
<text text-anchor="middle" x="142" y="-227" font-family="Helvetica,sans-Serif" font-size="10.00">no_os_alloc.h</text>
</a>
</g>
</g>
<!-- Node1&#45;&gt;Node9 -->
<g id="edge9_Node000001_Node000009" class="edge">
<title>Node1&#45;&gt;Node9</title>
<g id="a_edge9_Node000001_Node000009"><a xlink:title=" ">
<path fill="none" stroke="#63b8ff" d="M230.21,-274.95C210.14,-264.84 186.18,-252.76 168.3,-243.75"/>
<polygon fill="#63b8ff" stroke="#63b8ff" points="169.55,-240.47 159.05,-239.09 166.4,-246.72 169.55,-240.47"/>
</a>
</g>
</g>
<!-- Node10 -->
<g id="Node000010" class="node">
<title>Node10</title>
<g id="a_Node000010"><a xlink:href="iio__adxl367_8h.html" target="_top" xlink:title="Header file of IIO ADXL367 Driver.">
<polygon fill="white" stroke="#666666" points="405,-239 323,-239 323,-220 405,-220 405,-239"/>
<text text-anchor="middle" x="364" y="-227" font-family="Helvetica,sans-Serif" font-size="10.00">iio_adxl367.h</text>
</a>
</g>
</g>
<!-- Node1&#45;&gt;Node10 -->
<g id="edge12_Node000001_Node000010" class="edge">
<title>Node1&#45;&gt;Node10</title>
<g id="a_edge12_Node000001_Node000010"><a xlink:title=" ">
<path fill="none" stroke="#63b8ff" d="M298.02,-274.95C312.38,-265.27 329.42,-253.8 342.58,-244.93"/>
<polygon fill="#63b8ff" stroke="#63b8ff" points="344.66,-247.75 351,-239.26 340.75,-241.95 344.66,-247.75"/>
</a>
</g>
</g>
<!-- Node16 -->
<g id="Node000016" class="node">
<title>Node16</title>
<g id="a_Node000016"><a xlink:href="adxl367_8h.html" target="_top" xlink:title="Header file of ADXL367 Driver.">
<polygon fill="white" stroke="#666666" points="867.5,-129 802.5,-129 802.5,-110 867.5,-110 867.5,-129"/>
<text text-anchor="middle" x="835" y="-117" font-family="Helvetica,sans-Serif" font-size="10.00">adxl367.h</text>
</a>
</g>
</g>
<!-- Node1&#45;&gt;Node16 -->
<g id="edge26_Node000001_Node000016" class="edge">
<title>Node1&#45;&gt;Node16</title>
<g id="a_edge26_Node000001_Node000016"><a xlink:title=" ">
<path fill="none" stroke="#63b8ff" d="M320.05,-274.89C373.49,-254.42 451.6,-224.65 466,-220 582.51,-182.36 722.78,-147.29 792.02,-130.64"/>
<polygon fill="#63b8ff" stroke="#63b8ff" points="793.2,-133.95 802.11,-128.22 791.57,-127.14 793.2,-133.95"/>
</a>
</g>
</g>
<!-- Node19 -->
<g id="Node000019" class="node">
<title>Node19</title>
<g id="a_Node000019"><a xlink:title=" ">
<polygon fill="#e0e0e0" stroke="#999999" points="527.5,-239 474.5,-239 474.5,-220 527.5,-220 527.5,-239"/>
<text text-anchor="middle" x="501" y="-227" font-family="Helvetica,sans-Serif" font-size="10.00">string.h</text>
</a>
</g>
</g>
<!-- Node1&#45;&gt;Node19 -->
<g id="edge33_Node000001_Node000019" class="edge">
<title>Node1&#45;&gt;Node19</title>
<g id="a_edge33_Node000001_Node000019"><a xlink:title=" ">
<path fill="none" stroke="#63b8ff" d="M334.55,-276.42C376.75,-264.78 430.01,-250.08 464.75,-240.5"/>
<polygon fill="#63b8ff" stroke="#63b8ff" points="465.77,-243.85 474.48,-237.82 463.91,-237.1 465.77,-243.85"/>
</a>
</g>
</g>
<!-- Node5 -->
<g id="Node000005" class="node">
<title>Node5</title>
<g id="a_Node000005"><a xlink:href="errno_8h.html" target="_top" xlink:title="Error macro definition for ARM Compiler.">
<polygon fill="white" stroke="#666666" points="66.5,-184 15.5,-184 15.5,-165 66.5,-165 66.5,-184"/>
<text text-anchor="middle" x="41" y="-172" font-family="Helvetica,sans-Serif" font-size="10.00">errno.h</text>
</a>
</g>
</g>
<!-- Node4&#45;&gt;Node5 -->
<g id="edge4_Node000004_Node000005" class="edge">
<title>Node4&#45;&gt;Node5</title>
<g id="a_edge4_Node000004_Node000005"><a xlink:title=" ">
<path fill="none" stroke="#63b8ff" d="M41,-219.75C41,-212.8 41,-202.85 41,-194.13"/>
<polygon fill="#63b8ff" stroke="#63b8ff" points="44.5,-194.09 41,-184.09 37.5,-194.09 44.5,-194.09"/>
</a>
</g>
</g>
<!-- Node6&#45;&gt;Node2 -->
<g id="edge7_Node000006_Node000002" class="edge">
<title>Node6&#45;&gt;Node2</title>
<g id="a_edge7_Node000006_Node000002"><a xlink:title=" ">
<path fill="none" stroke="#63b8ff" d="M282.55,-54.75C277.99,-47.42 271.33,-36.73 265.71,-27.7"/>
<polygon fill="#63b8ff" stroke="#63b8ff" points="268.6,-25.73 260.35,-19.09 262.66,-29.43 268.6,-25.73"/>
</a>
</g>
</g>
<!-- Node7 -->
<g id="Node000007" class="node">
<title>Node7</title>
<g id="a_Node000007"><a xlink:title=" ">
<polygon fill="#e0e0e0" stroke="#999999" points="658.5,-19 605.5,-19 605.5,0 658.5,0 658.5,-19"/>
<text text-anchor="middle" x="632" y="-7" font-family="Helvetica,sans-Serif" font-size="10.00">stdint.h</text>
</a>
</g>
</g>
<!-- Node6&#45;&gt;Node7 -->
<g id="edge6_Node000006_Node000007" class="edge">
<title>Node6&#45;&gt;Node7</title>
<g id="a_edge6_Node000006_Node000007"><a xlink:title=" ">
<path fill="none" stroke="#63b8ff" d="M325.8,-57.68C392.4,-47.42 529.81,-26.25 595.48,-16.13"/>
<polygon fill="#63b8ff" stroke="#63b8ff" points="596.04,-19.58 605.39,-14.6 594.97,-12.66 596.04,-19.58"/>
</a>
</g>
</g>
<!-- Node8 -->
<g id="Node000008" class="node">
<title>Node8</title>
<g id="a_Node000008"><a xlink:title=" ">
<polygon fill="#e0e0e0" stroke="#999999" points="463,-19 401,-19 401,0 463,0 463,-19"/>
<text text-anchor="middle" x="432" y="-7" font-family="Helvetica,sans-Serif" font-size="10.00">stdbool.h</text>
</a>
</g>
</g>
<!-- Node6&#45;&gt;Node8 -->
<g id="edge8_Node000006_Node000008" class="edge">
<title>Node6&#45;&gt;Node8</title>
<g id="a_edge8_Node000006_Node000008"><a xlink:title=" ">
<path fill="none" stroke="#63b8ff" d="M311.14,-54.98C334.82,-46.27 371.87,-32.63 398.71,-22.75"/>
<polygon fill="#63b8ff" stroke="#63b8ff" points="400.27,-25.91 408.44,-19.17 397.85,-19.34 400.27,-25.91"/>
</a>
</g>
</g>
<!-- Node9&#45;&gt;Node2 -->
<g id="edge11_Node000009_Node000002" class="edge">
<title>Node9&#45;&gt;Node2</title>
<g id="a_edge11_Node000009_Node000002"><a xlink:title=" ">
<path fill="none" stroke="#63b8ff" d="M143.76,-219.88C149.47,-193.36 169.39,-111.37 208,-55 215.49,-44.07 226.05,-33.77 235.26,-25.83"/>
<polygon fill="#63b8ff" stroke="#63b8ff" points="237.74,-28.33 243.22,-19.26 233.28,-22.93 237.74,-28.33"/>
</a>
</g>
</g>
<!-- Node9&#45;&gt;Node3 -->
<g id="edge10_Node000009_Node000003" class="edge">
<title>Node9&#45;&gt;Node3</title>
<g id="a_edge10_Node000009_Node000003"><a xlink:title=" ">
<path fill="none" stroke="#63b8ff" d="M151.08,-219.75C159.09,-212.03 170.96,-200.6 180.62,-191.28"/>
<polygon fill="#63b8ff" stroke="#63b8ff" points="183.31,-193.55 188.09,-184.09 178.46,-188.51 183.31,-193.55"/>
</a>
</g>
</g>
<!-- Node11 -->
<g id="Node000011" class="node">
<title>Node11</title>
<g id="a_Node000011"><a xlink:href="iio_8h.html" target="_top" xlink:title="Header file of iio.">
<polygon fill="white" stroke="#666666" points="418,-184 380,-184 380,-165 418,-165 418,-184"/>
<text text-anchor="middle" x="399" y="-172" font-family="Helvetica,sans-Serif" font-size="10.00">iio.h</text>
</a>
</g>
</g>
<!-- Node10&#45;&gt;Node11 -->
<g id="edge13_Node000010_Node000011" class="edge">
<title>Node10&#45;&gt;Node11</title>
<g id="a_edge13_Node000010_Node000011"><a xlink:title=" ">
<path fill="none" stroke="#63b8ff" d="M369.78,-219.75C374.62,-212.42 381.68,-201.73 387.64,-192.7"/>
<polygon fill="#63b8ff" stroke="#63b8ff" points="390.74,-194.36 393.33,-184.09 384.9,-190.5 390.74,-194.36"/>
</a>
</g>
</g>
<!-- Node12 -->
<g id="Node000012" class="node">
<title>Node12</title>
<g id="a_Node000012"><a xlink:href="iio__types_8h.html" target="_top" xlink:title="Header file for iio_types.">
<polygon fill="white" stroke="#666666" points="602,-129 532,-129 532,-110 602,-110 602,-129"/>
<text text-anchor="middle" x="567" y="-117" font-family="Helvetica,sans-Serif" font-size="10.00">iio_types.h</text>
</a>
</g>
</g>
<!-- Node11&#45;&gt;Node12 -->
<g id="edge14_Node000011_Node000012" class="edge">
<title>Node11&#45;&gt;Node12</title>
<g id="a_edge14_Node000011_Node000012"><a xlink:title=" ">
<path fill="none" stroke="#63b8ff" d="M418.27,-167.42C445.49,-158.83 495.72,-142.99 530.22,-132.1"/>
<polygon fill="#63b8ff" stroke="#63b8ff" points="531.45,-135.38 539.94,-129.04 529.35,-128.71 531.45,-135.38"/>
</a>
</g>
</g>
<!-- Node14 -->
<g id="Node000014" class="node">
<title>Node14</title>
<g id="a_Node000014"><a xlink:href="no__os__uart_8h.html" target="_top" xlink:title="Header file of UART interface.">
<polygon fill="white" stroke="#666666" points="445.5,-129 366.5,-129 366.5,-110 445.5,-110 445.5,-129"/>
<text text-anchor="middle" x="406" y="-117" font-family="Helvetica,sans-Serif" font-size="10.00">no_os_uart.h</text>
</a>
</g>
</g>
<!-- Node11&#45;&gt;Node14 -->
<g id="edge19_Node000011_Node000014" class="edge">
<title>Node11&#45;&gt;Node14</title>
<g id="a_edge19_Node000011_Node000014"><a xlink:title=" ">
<path fill="none" stroke="#63b8ff" d="M400.16,-164.75C401.07,-157.8 402.39,-147.85 403.54,-139.13"/>
<polygon fill="#63b8ff" stroke="#63b8ff" points="407.03,-139.46 404.87,-129.09 400.09,-138.54 407.03,-139.46"/>
</a>
</g>
</g>
<!-- Node12&#45;&gt;Node7 -->
<g id="edge16_Node000012_Node000007" class="edge">
<title>Node12&#45;&gt;Node7</title>
<g id="a_edge16_Node000012_Node000007"><a xlink:title=" ">
<path fill="none" stroke="#63b8ff" d="M572.15,-109.86C579.44,-97.64 593.2,-74.59 605,-55 610.43,-45.99 616.51,-35.97 621.52,-27.72"/>
<polygon fill="#63b8ff" stroke="#63b8ff" points="624.6,-29.38 626.81,-19.02 618.62,-25.75 624.6,-29.38"/>
</a>
</g>
</g>
<!-- Node12&#45;&gt;Node8 -->
<g id="edge15_Node000012_Node000008" class="edge">
<title>Node12&#45;&gt;Node8</title>
<g id="a_edge15_Node000012_Node000008"><a xlink:title=" ">
<path fill="none" stroke="#63b8ff" d="M556.81,-109.71C542.35,-97.3 514.97,-74.03 491,-55 478.19,-44.83 463.5,-33.75 451.99,-25.19"/>
<polygon fill="#63b8ff" stroke="#63b8ff" points="454.01,-22.33 443.89,-19.19 449.84,-27.96 454.01,-22.33"/>
</a>
</g>
</g>
<!-- Node13 -->
<g id="Node000013" class="node">
<title>Node13</title>
<g id="a_Node000013"><a xlink:href="no__os__circular__buffer_8h.html" target="_top" xlink:title="Circular buffer library header.">
<polygon fill="white" stroke="#666666" points="742,-74 614,-74 614,-55 742,-55 742,-74"/>
<text text-anchor="middle" x="678" y="-62" font-family="Helvetica,sans-Serif" font-size="10.00">no_os_circular_buffer.h</text>
</a>
</g>
</g>
<!-- Node12&#45;&gt;Node13 -->
<g id="edge17_Node000012_Node000013" class="edge">
<title>Node12&#45;&gt;Node13</title>
<g id="a_edge17_Node000012_Node000013"><a xlink:title=" ">
<path fill="none" stroke="#63b8ff" d="M584.83,-109.98C602.61,-101.5 630.15,-88.35 650.68,-78.54"/>
<polygon fill="#63b8ff" stroke="#63b8ff" points="652.33,-81.64 659.84,-74.17 649.31,-75.32 652.33,-81.64"/>
</a>
</g>
</g>
<!-- Node13&#45;&gt;Node7 -->
<g id="edge18_Node000013_Node000007" class="edge">
<title>Node13&#45;&gt;Node7</title>
<g id="a_edge18_Node000013_Node000007"><a xlink:title=" ">
<path fill="none" stroke="#63b8ff" d="M670.4,-54.75C663.84,-47.18 654.18,-36.05 646.19,-26.84"/>
<polygon fill="#63b8ff" stroke="#63b8ff" points="648.65,-24.35 639.45,-19.09 643.37,-28.94 648.65,-24.35"/>
</a>
</g>
</g>
<!-- Node14&#45;&gt;Node7 -->
<g id="edge20_Node000014_Node000007" class="edge">
<title>Node14&#45;&gt;Node7</title>
<g id="a_edge20_Node000014_Node000007"><a xlink:title=" ">
<path fill="none" stroke="#63b8ff" d="M424.11,-109.84C463.72,-90.92 558.2,-45.77 604.91,-23.45"/>
<polygon fill="#63b8ff" stroke="#63b8ff" points="606.6,-26.52 614.11,-19.05 603.58,-20.2 606.6,-26.52"/>
</a>
</g>
</g>
<!-- Node14&#45;&gt;Node8 -->
<g id="edge21_Node000014_Node000008" class="edge">
<title>Node14&#45;&gt;Node8</title>
<g id="a_edge21_Node000014_Node000008"><a xlink:title=" ">
<path fill="none" stroke="#63b8ff" d="M395.93,-109.92C382.94,-97.76 363.14,-74.79 373,-55 379.57,-41.82 392.1,-31.52 403.93,-24.16"/>
<polygon fill="#63b8ff" stroke="#63b8ff" points="405.8,-27.12 412.73,-19.1 402.32,-21.05 405.8,-27.12"/>
</a>
</g>
</g>
<!-- Node15 -->
<g id="Node000015" class="node">
<title>Node15</title>
<g id="a_Node000015"><a xlink:href="no__os__lf256fifo_8h.html" target="_top" xlink:title="SPSC lock&#45;free fifo of fixed size (256), specialized for UART.">
<polygon fill="white" stroke="#666666" points="482,-74 382,-74 382,-55 482,-55 482,-74"/>
<text text-anchor="middle" x="432" y="-62" font-family="Helvetica,sans-Serif" font-size="10.00">no_os_lf256fifo.h</text>
</a>
</g>
</g>
<!-- Node14&#45;&gt;Node15 -->
<g id="edge22_Node000014_Node000015" class="edge">
<title>Node14&#45;&gt;Node15</title>
<g id="a_edge22_Node000014_Node000015"><a xlink:title=" ">
<path fill="none" stroke="#63b8ff" d="M410.29,-109.75C413.81,-102.57 418.91,-92.18 423.28,-83.27"/>
<polygon fill="#63b8ff" stroke="#63b8ff" points="426.52,-84.61 427.79,-74.09 420.24,-81.53 426.52,-84.61"/>
</a>
</g>
</g>
<!-- Node15&#45;&gt;Node2 -->
<g id="edge23_Node000015_Node000002" class="edge">
<title>Node15&#45;&gt;Node2</title>
<g id="a_edge23_Node000015_Node000002"><a xlink:title=" ">
<path fill="none" stroke="#63b8ff" d="M403.56,-54.98C373.1,-45.86 324.65,-31.36 291.42,-21.41"/>
<polygon fill="#63b8ff" stroke="#63b8ff" points="292.21,-17.99 281.63,-18.47 290.21,-24.7 292.21,-17.99"/>
</a>
</g>
</g>
<!-- Node15&#45;&gt;Node7 -->
<g id="edge24_Node000015_Node000007" class="edge">
<title>Node15&#45;&gt;Node7</title>
<g id="a_edge24_Node000015_Node000007"><a xlink:title=" ">
<path fill="none" stroke="#63b8ff" d="M464.13,-54.98C499.96,-45.49 557.8,-30.16 595.36,-20.21"/>
<polygon fill="#63b8ff" stroke="#63b8ff" points="596.62,-23.5 605.39,-17.55 594.82,-16.73 596.62,-23.5"/>
</a>
</g>
</g>
<!-- Node15&#45;&gt;Node8 -->
<g id="edge25_Node000015_Node000008" class="edge">
<title>Node15&#45;&gt;Node8</title>
<g id="a_edge25_Node000015_Node000008"><a xlink:title=" ">
<path fill="none" stroke="#63b8ff" d="M432,-54.75C432,-47.8 432,-37.85 432,-29.13"/>
<polygon fill="#63b8ff" stroke="#63b8ff" points="435.5,-29.09 432,-19.09 428.5,-29.09 435.5,-29.09"/>
</a>
</g>
</g>
<!-- Node16&#45;&gt;Node7 -->
<g id="edge27_Node000016_Node000007" class="edge">
<title>Node16&#45;&gt;Node7</title>
<g id="a_edge27_Node000016_Node000007"><a xlink:title=" ">
<path fill="none" stroke="#63b8ff" d="M867.57,-115.12C917.85,-108.68 1005.36,-91.86 973,-55 953.12,-32.36 752.56,-17.75 668.63,-12.59"/>
<polygon fill="#63b8ff" stroke="#63b8ff" points="668.72,-9.09 658.52,-11.98 668.29,-16.08 668.72,-9.09"/>
</a>
</g>
</g>
<!-- Node16&#45;&gt;Node8 -->
<g id="edge28_Node000016_Node000008" class="edge">
<title>Node16&#45;&gt;Node8</title>
<g id="a_edge28_Node000016_Node000008"><a xlink:title=" ">
<path fill="none" stroke="#63b8ff" d="M826.64,-109.77C812.52,-95.64 782.41,-68.02 751,-55 701.64,-34.54 548.21,-19.83 473.59,-13.69"/>
<polygon fill="#63b8ff" stroke="#63b8ff" points="473.43,-10.16 463.18,-12.84 472.86,-17.14 473.43,-10.16"/>
</a>
</g>
</g>
<!-- Node17 -->
<g id="Node000017" class="node">
<title>Node17</title>
<g id="a_Node000017"><a xlink:href="no__os__spi_8h.html" target="_top" xlink:title="Header file of SPI Interface.">
<polygon fill="white" stroke="#666666" points="872,-74 798,-74 798,-55 872,-55 872,-74"/>
<text text-anchor="middle" x="835" y="-62" font-family="Helvetica,sans-Serif" font-size="10.00">no_os_spi.h</text>
</a>
</g>
</g>
<!-- Node16&#45;&gt;Node17 -->
<g id="edge29_Node000016_Node000017" class="edge">
<title>Node16&#45;&gt;Node17</title>
<g id="a_edge29_Node000016_Node000017"><a xlink:title=" ">
<path fill="none" stroke="#63b8ff" d="M835,-109.75C835,-102.8 835,-92.85 835,-84.13"/>
<polygon fill="#63b8ff" stroke="#63b8ff" points="838.5,-84.09 835,-74.09 831.5,-84.09 838.5,-84.09"/>
</a>
</g>
</g>
<!-- Node18 -->
<g id="Node000018" class="node">
<title>Node18</title>
<g id="a_Node000018"><a xlink:href="no__os__i2c_8h.html" target="_top" xlink:title="Header file of I2C Interface.">
<polygon fill="white" stroke="#666666" points="964,-74 890,-74 890,-55 964,-55 964,-74"/>
<text text-anchor="middle" x="927" y="-62" font-family="Helvetica,sans-Serif" font-size="10.00">no_os_i2c.h</text>
</a>
</g>
</g>
<!-- Node16&#45;&gt;Node18 -->
<g id="edge31_Node000016_Node000018" class="edge">
<title>Node16&#45;&gt;Node18</title>
<g id="a_edge31_Node000016_Node000018"><a xlink:title=" ">
<path fill="none" stroke="#63b8ff" d="M849.78,-109.98C864.18,-101.69 886.31,-88.94 903.19,-79.22"/>
<polygon fill="#63b8ff" stroke="#63b8ff" points="905.03,-82.19 911.95,-74.17 901.54,-76.13 905.03,-82.19"/>
</a>
</g>
</g>
<!-- Node17&#45;&gt;Node7 -->
<g id="edge30_Node000017_Node000007" class="edge">
<title>Node17&#45;&gt;Node7</title>
<g id="a_edge30_Node000017_Node000007"><a xlink:title=" ">
<path fill="none" stroke="#63b8ff" d="M802.38,-54.98C765.91,-45.46 706.98,-30.08 668.86,-20.12"/>
<polygon fill="#63b8ff" stroke="#63b8ff" points="669.26,-16.61 658.7,-17.47 667.49,-23.38 669.26,-16.61"/>
</a>
</g>
</g>
<!-- Node18&#45;&gt;Node7 -->
<g id="edge32_Node000018_Node000007" class="edge">
<title>Node18&#45;&gt;Node7</title>
<g id="a_edge32_Node000018_Node000007"><a xlink:title=" ">
<path fill="none" stroke="#63b8ff" d="M889.85,-56.62C886.85,-56.07 883.88,-55.52 881,-55 805.53,-41.28 717.12,-25.57 668.56,-16.97"/>
<polygon fill="#63b8ff" stroke="#63b8ff" points="669,-13.49 658.54,-15.19 667.78,-20.38 669,-13.49"/>
</a>
</g>
</g>
</g>
</svg>
