<?xml version="1.0" encoding="UTF-8" standalone="no"?>
<!DOCTYPE svg PUBLIC "-//W3C//DTD SVG 1.1//EN"
 "http://www.w3.org/Graphics/SVG/1.1/DTD/svg11.dtd">
<!-- Generated by graphviz version 2.43.0 (0)
 -->
<!-- Title: /home/runner/work/no&#45;OS/no&#45;OS/drivers/digital&#45;io/max22190/iio_max22190.h Pages: 1 -->
<!--zoomable 269 -->

<svg id="main" version="1.1" xmlns="http://www.w3.org/2000/svg" xmlns:xlink="http://www.w3.org/1999/xlink" xml:space="preserve" onload="init(evt)">

<style type="text/css"><![CDATA[
.node, .edge {opacity: 0.7;}
.node.selected, .edge.selected {opacity: 1;}
.edge:hover path { stroke: red; }
.edge:hover polygon { stroke: red; fill: red; }
]]></style>

<defs>
  <circle id="rim" cx="0" cy="0" r="7"/>
  <circle id="rim2" cx="0" cy="0" r="3.5"/>
  <g id="zoomPlus">
    <use xlink:href="#rim" fill="#404040"><set attributeName="fill" to="#808080" begin="zoomplus.mouseover" end="zoomplus.mouseout"/></use>
    <path d="M-4,0h8M0,-4v8" fill="none" stroke="white" stroke-width="1.5" pointer-events="none"/>
  </g>
  <g id="zoomMin">
    <use xlink:href="#rim" fill="#404040"><set attributeName="fill" to="#808080" begin="zoomminus.mouseover" end="zoomminus.mouseout"/></use>
    <path d="M-4,0h8" fill="none" stroke="white" stroke-width="1.5" pointer-events="none"/>
  </g>
  <g id="arrowUp" transform="translate(30 24)">
    <use xlink:href="#rim"/>
    <path pointer-events="none" fill="none" stroke="white" stroke-width="1.5" d="M0,-3.0v7 M-2.5,-0.5L0,-3.0L2.5,-0.5"/>
  </g>
  <g id="arrowRight" transform="rotate(90) translate(36 -43)">
    <use xlink:href="#rim"/>
    <path pointer-events="none" fill="none" stroke="white" stroke-width="1.5" d="M0,-3.0v7 M-2.5,-0.5L0,-3.0L2.5,-0.5"/>
  </g>
  <g id="arrowDown" transform="rotate(180) translate(-30 -48)">
    <use xlink:href="#rim"/>
    <path pointer-events="none" fill="none" stroke="white" stroke-width="1.5" d="M0,-3.0v7 M-2.5,-0.5L0,-3.0L2.5,-0.5"/>
  </g>
  <g id="arrowLeft" transform="rotate(270) translate(-36 17)">
    <use xlink:href="#rim"/>
    <path pointer-events="none" fill="none" stroke="white" stroke-width="1.5" d="M0,-3.0v7 M-2.5,-0.5L0,-3.0L2.5,-0.5"/>
  </g>
  <g id="resetDef">
    <use xlink:href="#rim2" fill="#404040"><set attributeName="fill" to="#808080" begin="reset.mouseover" end="reset.mouseout"/></use>
  </g>
</defs>
<script type="application/ecmascript">
var viewWidth = 765;
var viewHeight = 269;
var sectionId = 'dynsection-0';
</script>
<script type="application/ecmascript" xlink:href="svg.min.js"/>
<svg id="graph" class="graph">
<g id="viewport">
<title>/home/runner/work/no&#45;OS/no&#45;OS/drivers/digital&#45;io/max22190/iio_max22190.h</title>
<!-- Node1 -->
<g id="Node000001" class="node">
<title>Node1</title>
<g id="a_Node000001"><a xlink:title="Header file of MAX22190 IIO Driver.">
<polygon fill="#999999" stroke="#666666" points="401.3,-261 236.3,-261 236.3,-220 401.3,-220 401.3,-261"/>
<text text-anchor="start" x="244.3" y="-249" font-family="Helvetica,sans-Serif" font-size="10.00">/home/runner/work/no</text>
<text text-anchor="start" x="244.3" y="-238" font-family="Helvetica,sans-Serif" font-size="10.00">&#45;OS/no&#45;OS/drivers/digital</text>
<text text-anchor="middle" x="318.8" y="-227" font-family="Helvetica,sans-Serif" font-size="10.00">&#45;io/max22190/iio_max22190.h</text>
</a>
</g>
</g>
<!-- Node2 -->
<g id="Node000002" class="node">
<title>Node2</title>
<g id="a_Node000002"><a xlink:title=" ">
<polygon fill="#e0e0e0" stroke="#999999" points="277.3,-19 224.3,-19 224.3,0 277.3,0 277.3,-19"/>
<text text-anchor="middle" x="250.8" y="-7" font-family="Helvetica,sans-Serif" font-size="10.00">stdint.h</text>
</a>
</g>
</g>
<!-- Node1&#45;&gt;Node2 -->
<g id="edge1_Node000001_Node000002" class="edge">
<title>Node1&#45;&gt;Node2</title>
<g id="a_edge1_Node000001_Node000002"><a xlink:title=" ">
<path fill="none" stroke="#63b8ff" d="M236.05,-221.53C160.73,-200.31 53.88,-156.88 3.8,-74 -0.57,-66.77 -1.62,-61.48 3.8,-55 30.15,-23.48 151.72,-14.25 213.92,-11.57"/>
<polygon fill="#63b8ff" stroke="#63b8ff" points="214.24,-15.06 224.09,-11.17 213.96,-8.07 214.24,-15.06"/>
</a>
</g>
</g>
<!-- Node3 -->
<g id="Node000003" class="node">
<title>Node3</title>
<g id="a_Node000003"><a xlink:title=" ">
<polygon fill="#e0e0e0" stroke="#999999" points="734.8,-19 672.8,-19 672.8,0 734.8,0 734.8,-19"/>
<text text-anchor="middle" x="703.8" y="-7" font-family="Helvetica,sans-Serif" font-size="10.00">stdbool.h</text>
</a>
</g>
</g>
<!-- Node1&#45;&gt;Node3 -->
<g id="edge2_Node000001_Node000003" class="edge">
<title>Node1&#45;&gt;Node3</title>
<g id="a_edge2_Node000001_Node000003"><a xlink:title=" ">
<path fill="none" stroke="#63b8ff" d="M401.57,-234.77C503.77,-223.97 673.77,-188.72 752.8,-74 764.82,-56.56 745.25,-37.42 727.4,-24.77"/>
<polygon fill="#63b8ff" stroke="#63b8ff" points="729.17,-21.75 718.91,-19.11 725.29,-27.57 729.17,-21.75"/>
</a>
</g>
</g>
<!-- Node4 -->
<g id="Node000004" class="node">
<title>Node4</title>
<g id="a_Node000004"><a xlink:href="iio_8h.html" target="_top" xlink:title="Header file of iio.">
<polygon fill="white" stroke="#666666" points="384.8,-184 346.8,-184 346.8,-165 384.8,-165 384.8,-184"/>
<text text-anchor="middle" x="365.8" y="-172" font-family="Helvetica,sans-Serif" font-size="10.00">iio.h</text>
</a>
</g>
</g>
<!-- Node1&#45;&gt;Node4 -->
<g id="edge3_Node000001_Node000004" class="edge">
<title>Node1&#45;&gt;Node4</title>
<g id="a_edge3_Node000001_Node000004"><a xlink:title=" ">
<path fill="none" stroke="#63b8ff" d="M333.16,-219.95C339.58,-211.2 347.08,-200.99 353.27,-192.56"/>
<polygon fill="#63b8ff" stroke="#63b8ff" points="356.27,-194.39 359.37,-184.26 350.63,-190.25 356.27,-194.39"/>
</a>
</g>
</g>
<!-- Node5 -->
<g id="Node000005" class="node">
<title>Node5</title>
<g id="a_Node000005"><a xlink:href="iio__types_8h.html" target="_top" xlink:title="Header file for iio_types.">
<polygon fill="white" stroke="#666666" points="377.8,-129 307.8,-129 307.8,-110 377.8,-110 377.8,-129"/>
<text text-anchor="middle" x="342.8" y="-117" font-family="Helvetica,sans-Serif" font-size="10.00">iio_types.h</text>
</a>
</g>
</g>
<!-- Node1&#45;&gt;Node5 -->
<g id="edge16_Node000001_Node000005" class="edge">
<title>Node1&#45;&gt;Node5</title>
<g id="a_edge16_Node000001_Node000005"><a xlink:title=" ">
<path fill="none" stroke="#63b8ff" d="M322.76,-219.85C327.28,-197.48 334.59,-161.19 339.03,-139.21"/>
<polygon fill="#63b8ff" stroke="#63b8ff" points="342.5,-139.67 341.05,-129.18 335.64,-138.29 342.5,-139.67"/>
</a>
</g>
</g>
<!-- Node10 -->
<g id="Node000010" class="node">
<title>Node10</title>
<g id="a_Node000010"><a xlink:href="max22190_8h.html" target="_top" xlink:title="Header file of MAX22190 Driver.">
<polygon fill="white" stroke="#666666" points="255.3,-129 178.3,-129 178.3,-110 255.3,-110 255.3,-129"/>
<text text-anchor="middle" x="216.8" y="-117" font-family="Helvetica,sans-Serif" font-size="10.00">max22190.h</text>
</a>
</g>
</g>
<!-- Node1&#45;&gt;Node10 -->
<g id="edge17_Node000001_Node000010" class="edge">
<title>Node1&#45;&gt;Node10</title>
<g id="a_edge17_Node000001_Node000010"><a xlink:title=" ">
<path fill="none" stroke="#63b8ff" d="M301.96,-219.85C282.08,-196.65 249.38,-158.51 230.82,-136.85"/>
<polygon fill="#63b8ff" stroke="#63b8ff" points="233.4,-134.49 224.24,-129.18 228.09,-139.05 233.4,-134.49"/>
</a>
</g>
</g>
<!-- Node4&#45;&gt;Node5 -->
<g id="edge4_Node000004_Node000005" class="edge">
<title>Node4&#45;&gt;Node5</title>
<g id="a_edge4_Node000004_Node000005"><a xlink:title=" ">
<path fill="none" stroke="#63b8ff" d="M362,-164.75C358.89,-157.57 354.38,-147.18 350.51,-138.27"/>
<polygon fill="#63b8ff" stroke="#63b8ff" points="353.72,-136.87 346.53,-129.09 347.3,-139.66 353.72,-136.87"/>
</a>
</g>
</g>
<!-- Node7 -->
<g id="Node000007" class="node">
<title>Node7</title>
<g id="a_Node000007"><a xlink:href="no__os__uart_8h.html" target="_top" xlink:title="Header file of UART interface.">
<polygon fill="white" stroke="#666666" points="560.3,-129 481.3,-129 481.3,-110 560.3,-110 560.3,-129"/>
<text text-anchor="middle" x="520.8" y="-117" font-family="Helvetica,sans-Serif" font-size="10.00">no_os_uart.h</text>
</a>
</g>
</g>
<!-- Node4&#45;&gt;Node7 -->
<g id="edge9_Node000004_Node000007" class="edge">
<title>Node4&#45;&gt;Node7</title>
<g id="a_edge9_Node000004_Node000007"><a xlink:title=" ">
<path fill="none" stroke="#63b8ff" d="M384.81,-167C409.97,-158.4 454.81,-143.06 486.1,-132.37"/>
<polygon fill="#63b8ff" stroke="#63b8ff" points="487.41,-135.62 495.73,-129.07 485.14,-128.99 487.41,-135.62"/>
</a>
</g>
</g>
<!-- Node5&#45;&gt;Node2 -->
<g id="edge6_Node000005_Node000002" class="edge">
<title>Node5&#45;&gt;Node2</title>
<g id="a_edge6_Node000005_Node000002"><a xlink:title=" ">
<path fill="none" stroke="#63b8ff" d="M320.26,-109.97C304.02,-102.72 282.76,-90.81 269.8,-74 259.81,-61.04 255.05,-42.89 252.8,-29.31"/>
<polygon fill="#63b8ff" stroke="#63b8ff" points="256.24,-28.64 251.44,-19.19 249.3,-29.57 256.24,-28.64"/>
</a>
</g>
</g>
<!-- Node5&#45;&gt;Node3 -->
<g id="edge5_Node000005_Node000003" class="edge">
<title>Node5&#45;&gt;Node3</title>
<g id="a_edge5_Node000005_Node000003"><a xlink:title=" ">
<path fill="none" stroke="#63b8ff" d="M377.92,-115.31C465.58,-107.19 687.76,-85.56 698.8,-74 709.89,-62.39 710.01,-43.52 708.03,-29.37"/>
<polygon fill="#63b8ff" stroke="#63b8ff" points="711.42,-28.45 706.17,-19.25 704.54,-29.72 711.42,-28.45"/>
</a>
</g>
</g>
<!-- Node6 -->
<g id="Node000006" class="node">
<title>Node6</title>
<g id="a_Node000006"><a xlink:href="no__os__circular__buffer_8h.html" target="_top" xlink:title="Circular buffer library header.">
<polygon fill="white" stroke="#666666" points="406.8,-74 278.8,-74 278.8,-55 406.8,-55 406.8,-74"/>
<text text-anchor="middle" x="342.8" y="-62" font-family="Helvetica,sans-Serif" font-size="10.00">no_os_circular_buffer.h</text>
</a>
</g>
</g>
<!-- Node5&#45;&gt;Node6 -->
<g id="edge7_Node000005_Node000006" class="edge">
<title>Node5&#45;&gt;Node6</title>
<g id="a_edge7_Node000005_Node000006"><a xlink:title=" ">
<path fill="none" stroke="#63b8ff" d="M342.8,-109.75C342.8,-102.8 342.8,-92.85 342.8,-84.13"/>
<polygon fill="#63b8ff" stroke="#63b8ff" points="346.3,-84.09 342.8,-74.09 339.3,-84.09 346.3,-84.09"/>
</a>
</g>
</g>
<!-- Node6&#45;&gt;Node2 -->
<g id="edge8_Node000006_Node000002" class="edge">
<title>Node6&#45;&gt;Node2</title>
<g id="a_edge8_Node000006_Node000002"><a xlink:title=" ">
<path fill="none" stroke="#63b8ff" d="M328.02,-54.98C313.62,-46.69 291.49,-33.94 274.61,-24.22"/>
<polygon fill="#63b8ff" stroke="#63b8ff" points="276.26,-21.13 265.85,-19.17 272.77,-27.19 276.26,-21.13"/>
</a>
</g>
</g>
<!-- Node7&#45;&gt;Node2 -->
<g id="edge10_Node000007_Node000002" class="edge">
<title>Node7&#45;&gt;Node2</title>
<g id="a_edge10_Node000007_Node000002"><a xlink:title=" ">
<path fill="none" stroke="#63b8ff" d="M509.11,-109.91C490.32,-96.47 451.85,-70.4 415.8,-55 373.39,-36.89 321.66,-24.37 287.56,-17.32"/>
<polygon fill="#63b8ff" stroke="#63b8ff" points="288.06,-13.85 277.57,-15.31 286.68,-20.72 288.06,-13.85"/>
</a>
</g>
</g>
<!-- Node7&#45;&gt;Node3 -->
<g id="edge11_Node000007_Node000003" class="edge">
<title>Node7&#45;&gt;Node3</title>
<g id="a_edge11_Node000007_Node000003"><a xlink:title=" ">
<path fill="none" stroke="#63b8ff" d="M560.38,-116.16C616.54,-111.92 714.97,-100.79 736.8,-74 748.61,-59.51 735.14,-40.11 722.02,-26.59"/>
<polygon fill="#63b8ff" stroke="#63b8ff" points="724.17,-23.8 714.53,-19.38 719.31,-28.84 724.17,-23.8"/>
</a>
</g>
</g>
<!-- Node8 -->
<g id="Node000008" class="node">
<title>Node8</title>
<g id="a_Node000008"><a xlink:href="no__os__lf256fifo_8h.html" target="_top" xlink:title="SPSC lock&#45;free fifo of fixed size (256), specialized for UART.">
<polygon fill="white" stroke="#666666" points="656.8,-74 556.8,-74 556.8,-55 656.8,-55 656.8,-74"/>
<text text-anchor="middle" x="606.8" y="-62" font-family="Helvetica,sans-Serif" font-size="10.00">no_os_lf256fifo.h</text>
</a>
</g>
</g>
<!-- Node7&#45;&gt;Node8 -->
<g id="edge12_Node000007_Node000008" class="edge">
<title>Node7&#45;&gt;Node8</title>
<g id="a_edge12_Node000007_Node000008"><a xlink:title=" ">
<path fill="none" stroke="#63b8ff" d="M534.62,-109.98C547.95,-101.77 568.38,-89.18 584.11,-79.49"/>
<polygon fill="#63b8ff" stroke="#63b8ff" points="586.05,-82.4 592.73,-74.17 582.38,-76.44 586.05,-82.4"/>
</a>
</g>
</g>
<!-- Node8&#45;&gt;Node2 -->
<g id="edge14_Node000008_Node000002" class="edge">
<title>Node8&#45;&gt;Node2</title>
<g id="a_edge14_Node000008_Node000002"><a xlink:title=" ">
<path fill="none" stroke="#63b8ff" d="M556.55,-56.02C484.11,-45.23 352,-25.57 287.8,-16.01"/>
<polygon fill="#63b8ff" stroke="#63b8ff" points="288.14,-12.52 277.73,-14.51 287.11,-19.44 288.14,-12.52"/>
</a>
</g>
</g>
<!-- Node8&#45;&gt;Node3 -->
<g id="edge15_Node000008_Node000003" class="edge">
<title>Node8&#45;&gt;Node3</title>
<g id="a_edge15_Node000008_Node000003"><a xlink:title=" ">
<path fill="none" stroke="#63b8ff" d="M622.38,-54.98C637.57,-46.69 660.9,-33.94 678.7,-24.22"/>
<polygon fill="#63b8ff" stroke="#63b8ff" points="680.83,-27.04 687.93,-19.17 677.48,-20.89 680.83,-27.04"/>
</a>
</g>
</g>
<!-- Node9 -->
<g id="Node000009" class="node">
<title>Node9</title>
<g id="a_Node000009"><a xlink:title=" ">
<polygon fill="#e0e0e0" stroke="#999999" points="580.3,-19 527.3,-19 527.3,0 580.3,0 580.3,-19"/>
<text text-anchor="middle" x="553.8" y="-7" font-family="Helvetica,sans-Serif" font-size="10.00">stdlib.h</text>
</a>
</g>
</g>
<!-- Node8&#45;&gt;Node9 -->
<g id="edge13_Node000008_Node000009" class="edge">
<title>Node8&#45;&gt;Node9</title>
<g id="a_edge13_Node000008_Node000009"><a xlink:title=" ">
<path fill="none" stroke="#63b8ff" d="M598.05,-54.75C590.33,-47.03 578.9,-35.6 569.58,-26.28"/>
<polygon fill="#63b8ff" stroke="#63b8ff" points="571.93,-23.69 562.39,-19.09 566.98,-28.64 571.93,-23.69"/>
</a>
</g>
</g>
<!-- Node10&#45;&gt;Node2 -->
<g id="edge18_Node000010_Node000002" class="edge">
<title>Node10&#45;&gt;Node2</title>
<g id="a_edge18_Node000010_Node000002"><a xlink:title=" ">
<path fill="none" stroke="#63b8ff" d="M187.71,-109.95C157.4,-99.48 116.55,-80.02 133.8,-55 151.74,-28.98 187.05,-18.16 214.21,-13.67"/>
<polygon fill="#63b8ff" stroke="#63b8ff" points="214.77,-17.13 224.17,-12.24 213.77,-10.2 214.77,-17.13"/>
</a>
</g>
</g>
<!-- Node10&#45;&gt;Node3 -->
<g id="edge19_Node000010_Node000003" class="edge">
<title>Node10&#45;&gt;Node3</title>
<g id="a_edge19_Node000010_Node000003"><a xlink:title=" ">
<path fill="none" stroke="#63b8ff" d="M255.59,-114.43C269.24,-113.02 284.7,-111.42 298.8,-110 380.33,-101.78 596.57,-117.85 665.8,-74 682.04,-63.71 692.28,-43.75 697.99,-28.94"/>
<polygon fill="#63b8ff" stroke="#63b8ff" points="701.37,-29.87 701.36,-19.28 694.76,-27.57 701.37,-29.87"/>
</a>
</g>
</g>
<!-- Node11 -->
<g id="Node000011" class="node">
<title>Node11</title>
<g id="a_Node000011"><a xlink:href="no__os__gpio_8h.html" target="_top" xlink:title="Header file of GPIO Interface.">
<polygon fill="white" stroke="#666666" points="222.8,-74 142.8,-74 142.8,-55 222.8,-55 222.8,-74"/>
<text text-anchor="middle" x="182.8" y="-62" font-family="Helvetica,sans-Serif" font-size="10.00">no_os_gpio.h</text>
</a>
</g>
</g>
<!-- Node10&#45;&gt;Node11 -->
<g id="edge20_Node000010_Node000011" class="edge">
<title>Node10&#45;&gt;Node11</title>
<g id="a_edge20_Node000010_Node000011"><a xlink:title=" ">
<path fill="none" stroke="#63b8ff" d="M211.19,-109.75C206.48,-102.42 199.63,-91.73 193.83,-82.7"/>
<polygon fill="#63b8ff" stroke="#63b8ff" points="196.66,-80.62 188.31,-74.09 190.76,-84.4 196.66,-80.62"/>
</a>
</g>
</g>
<!-- Node12 -->
<g id="Node000012" class="node">
<title>Node12</title>
<g id="a_Node000012"><a xlink:href="no__os__spi_8h.html" target="_top" xlink:title="Header file of SPI Interface.">
<polygon fill="white" stroke="#666666" points="86.8,-74 12.8,-74 12.8,-55 86.8,-55 86.8,-74"/>
<text text-anchor="middle" x="49.8" y="-62" font-family="Helvetica,sans-Serif" font-size="10.00">no_os_spi.h</text>
</a>
</g>
</g>
<!-- Node10&#45;&gt;Node12 -->
<g id="edge22_Node000010_Node000012" class="edge">
<title>Node10&#45;&gt;Node12</title>
<g id="a_edge22_Node000010_Node000012"><a xlink:title=" ">
<path fill="none" stroke="#63b8ff" d="M189.97,-109.98C161.93,-101.09 117.75,-87.07 86.5,-77.15"/>
<polygon fill="#63b8ff" stroke="#63b8ff" points="87.43,-73.77 76.84,-74.08 85.31,-80.44 87.43,-73.77"/>
</a>
</g>
</g>
<!-- Node13 -->
<g id="Node000013" class="node">
<title>Node13</title>
<g id="a_Node000013"><a xlink:href="no__os__util_8h.html" target="_top" xlink:title="Header file of utility functions.">
<polygon fill="white" stroke="#666666" points="538.3,-74 463.3,-74 463.3,-55 538.3,-55 538.3,-74"/>
<text text-anchor="middle" x="500.8" y="-62" font-family="Helvetica,sans-Serif" font-size="10.00">no_os_util.h</text>
</a>
</g>
</g>
<!-- Node10&#45;&gt;Node13 -->
<g id="edge24_Node000010_Node000013" class="edge">
<title>Node10&#45;&gt;Node13</title>
<g id="a_edge24_Node000010_Node000013"><a xlink:title=" ">
<path fill="none" stroke="#63b8ff" d="M255.4,-111.3C306.8,-101.7 397.67,-84.75 453.24,-74.37"/>
<polygon fill="#63b8ff" stroke="#63b8ff" points="454,-77.79 463.19,-72.52 452.72,-70.91 454,-77.79"/>
</a>
</g>
</g>
<!-- Node11&#45;&gt;Node2 -->
<g id="edge21_Node000011_Node000002" class="edge">
<title>Node11&#45;&gt;Node2</title>
<g id="a_edge21_Node000011_Node000002"><a xlink:title=" ">
<path fill="none" stroke="#63b8ff" d="M193.73,-54.98C203.88,-47.07 219.22,-35.11 231.45,-25.58"/>
<polygon fill="#63b8ff" stroke="#63b8ff" points="233.94,-28.08 239.68,-19.17 229.64,-22.56 233.94,-28.08"/>
</a>
</g>
</g>
<!-- Node12&#45;&gt;Node2 -->
<g id="edge23_Node000012_Node000002" class="edge">
<title>Node12&#45;&gt;Node2</title>
<g id="a_edge23_Node000012_Node000002"><a xlink:title=" ">
<path fill="none" stroke="#63b8ff" d="M82.09,-54.98C118.1,-45.49 176.23,-30.16 213.98,-20.21"/>
<polygon fill="#63b8ff" stroke="#63b8ff" points="215.27,-23.49 224.05,-17.55 213.49,-16.72 215.27,-23.49"/>
</a>
</g>
</g>
<!-- Node13&#45;&gt;Node2 -->
<g id="edge25_Node000013_Node000002" class="edge">
<title>Node13&#45;&gt;Node2</title>
<g id="a_edge25_Node000013_Node000002"><a xlink:title=" ">
<path fill="none" stroke="#63b8ff" d="M463.1,-55.51C415.67,-45.45 334.75,-28.3 287.7,-18.32"/>
<polygon fill="#63b8ff" stroke="#63b8ff" points="288.15,-14.84 277.64,-16.19 286.69,-21.69 288.15,-14.84"/>
</a>
</g>
</g>
<!-- Node13&#45;&gt;Node3 -->
<g id="edge27_Node000013_Node000003" class="edge">
<title>Node13&#45;&gt;Node3</title>
<g id="a_edge27_Node000013_Node000003"><a xlink:title=" ">
<path fill="none" stroke="#63b8ff" d="M533.42,-54.98C568.6,-45.8 624.7,-31.15 662.83,-21.2"/>
<polygon fill="#63b8ff" stroke="#63b8ff" points="663.81,-24.56 672.6,-18.65 662.04,-17.79 663.81,-24.56"/>
</a>
</g>
</g>
<!-- Node13&#45;&gt;Node9 -->
<g id="edge26_Node000013_Node000009" class="edge">
<title>Node13&#45;&gt;Node9</title>
<g id="a_edge26_Node000013_Node000009"><a xlink:title=" ">
<path fill="none" stroke="#63b8ff" d="M509.55,-54.75C517.27,-47.03 528.7,-35.6 538.02,-26.28"/>
<polygon fill="#63b8ff" stroke="#63b8ff" points="540.61,-28.64 545.21,-19.09 535.66,-23.69 540.61,-28.64"/>
</a>
</g>
</g>
</g>
</svg>

<g id="navigator" transform="translate(0 0)" fill="#404254">
  <rect fill="#f2f5e9" fill-opacity="0.5" stroke="#606060" stroke-width=".5" x="0" y="0" width="60" height="60"/>
  <use id="zoomplus" xlink:href="#zoomPlus" x="17" y="9" onmousedown="handleZoom(evt,'in')"/>
  <use id="zoomminus" xlink:href="#zoomMin" x="42" y="9" onmousedown="handleZoom(evt,'out')"/>
  <use id="reset" xlink:href="#resetDef" x="30" y="36" onmousedown="handleReset()"/>
   <use id="arrowup" xlink:href="#arrowUp" x="0" y="0" onmousedown="handlePan(0,-1)"/>
  <use id="arrowright" xlink:href="#arrowRight" x="0" y="0" onmousedown="handlePan(1,0)"/>
  <use id="arrowdown" xlink:href="#arrowDown" x="0" y="0" onmousedown="handlePan(0,1)"/>
  <use id="arrowleft" xlink:href="#arrowLeft" x="0" y="0" onmousedown="handlePan(-1,0)"/>
</g>
<svg viewBox="0 0 15 15" width="100%" height="30px" preserveAspectRatio="xMaxYMin meet">
 <g id="arrow_out" transform="scale(0.3 0.3)">
  <a xlink:href="iio__max22190_8h__incl_org.svg" target="_base">
   <rect id="button" ry="5" rx="5" y="6" x="6" height="38" width="38"
        fill="#f2f5e9" fill-opacity="0.5" stroke="#606060" stroke-width="1.0"/>
   <path id="arrow"
     d="M 11.500037,31.436501 C 11.940474,20.09759 22.043105,11.32322 32.158766,21.979434 L 37.068811,17.246167 C 37.068811,17.246167 37.088388,32 37.088388,32 L 22.160133,31.978069 C 22.160133,31.978069 26.997745,27.140456 26.997745,27.140456 C 18.528582,18.264221 13.291696,25.230495 11.500037,31.436501 z"
     style="fill:#404040;"/>
  </a>
 </g>
</svg>

<style type='text/css'>
<![CDATA[
[data-mouse-over-selected='false'] { opacity: 0.7; }
[data-mouse-over-selected='true']  { opacity: 1.0; }
]]>
</style>
<script type="application/ecmascript"><![CDATA[
document.addEventListener('DOMContentLoaded', (event) => {
  highlightEdges();
  highlightAdjacentNodes();
});
]]></script>
</svg>
