<?xml version="1.0" encoding="UTF-8" standalone="no"?>
<!DOCTYPE svg PUBLIC "-//W3C//DTD SVG 1.1//EN"
 "http://www.w3.org/Graphics/SVG/1.1/DTD/svg11.dtd">
<!-- Generated by graphviz version 2.43.0 (0)
 -->
<!-- Title: /home/runner/work/no&#45;OS/no&#45;OS/projects/iio_adpd1080/src/main.c Pages: 1 -->
<svg width="1703pt" height="324pt"
 viewBox="0.00 0.00 1702.50 324.00" xmlns="http://www.w3.org/2000/svg" xmlns:xlink="http://www.w3.org/1999/xlink">
<g id="graph0" class="graph" transform="scale(1 1) rotate(0) translate(4 320)">
<title>/home/runner/work/no&#45;OS/no&#45;OS/projects/iio_adpd1080/src/main.c</title>
<!-- Node1 -->
<g id="Node000001" class="node">
<title>Node1</title>
<g id="a_Node000001"><a xlink:title="Implementation of Main Function.">
<polygon fill="#999999" stroke="#666666" points="881.5,-316 757.5,-316 757.5,-275 881.5,-275 881.5,-316"/>
<text text-anchor="start" x="765.5" y="-304" font-family="Helvetica,sans-Serif" font-size="10.00">/home/runner/work/no</text>
<text text-anchor="start" x="765.5" y="-293" font-family="Helvetica,sans-Serif" font-size="10.00">&#45;OS/no&#45;OS/projects/iio</text>
<text text-anchor="middle" x="819.5" y="-282" font-family="Helvetica,sans-Serif" font-size="10.00">_adpd1080/src/main.c</text>
</a>
</g>
</g>
<!-- Node2 -->
<g id="Node000002" class="node">
<title>Node2</title>
<g id="a_Node000002"><a xlink:href="iio__adpd1080_2src_2app__config_8h.html" target="_top" xlink:title="Config file of ADPD1080 project.">
<polygon fill="white" stroke="#666666" points="146.5,-239 68.5,-239 68.5,-220 146.5,-220 146.5,-239"/>
<text text-anchor="middle" x="107.5" y="-227" font-family="Helvetica,sans-Serif" font-size="10.00">app_config.h</text>
</a>
</g>
</g>
<!-- Node1&#45;&gt;Node2 -->
<g id="edge1_Node000001_Node000002" class="edge">
<title>Node1&#45;&gt;Node2</title>
<g id="a_edge1_Node000001_Node000002"><a xlink:title=" ">
<path fill="none" stroke="#63b8ff" d="M757.1,-290.81C639.92,-283.53 379.03,-265.69 160.5,-239 159.23,-238.84 157.93,-238.68 156.63,-238.51"/>
<polygon fill="#63b8ff" stroke="#63b8ff" points="156.92,-235.02 146.53,-237.1 155.95,-241.95 156.92,-235.02"/>
</a>
</g>
</g>
<!-- Node3 -->
<g id="Node000003" class="node">
<title>Node3</title>
<g id="a_Node000003"><a xlink:href="no__os__error_8h.html" target="_top" xlink:title="Error codes definition.">
<polygon fill="white" stroke="#666666" points="750.5,-184 668.5,-184 668.5,-165 750.5,-165 750.5,-184"/>
<text text-anchor="middle" x="709.5" y="-172" font-family="Helvetica,sans-Serif" font-size="10.00">no_os_error.h</text>
</a>
</g>
</g>
<!-- Node1&#45;&gt;Node3 -->
<g id="edge2_Node000001_Node000003" class="edge">
<title>Node1&#45;&gt;Node3</title>
<g id="a_edge2_Node000001_Node000003"><a xlink:title=" ">
<path fill="none" stroke="#63b8ff" d="M801.34,-274.85C779.8,-251.55 744.32,-213.17 724.35,-191.57"/>
<polygon fill="#63b8ff" stroke="#63b8ff" points="726.88,-189.14 717.52,-184.18 721.74,-193.89 726.88,-189.14"/>
</a>
</g>
</g>
<!-- Node5 -->
<g id="Node000005" class="node">
<title>Node5</title>
<g id="a_Node000005"><a xlink:href="no__os__util_8h.html" target="_top" xlink:title="Header file of utility functions.">
<polygon fill="white" stroke="#666666" points="1048,-74 973,-74 973,-55 1048,-55 1048,-74"/>
<text text-anchor="middle" x="1010.5" y="-62" font-family="Helvetica,sans-Serif" font-size="10.00">no_os_util.h</text>
</a>
</g>
</g>
<!-- Node1&#45;&gt;Node5 -->
<g id="edge4_Node000001_Node000005" class="edge">
<title>Node1&#45;&gt;Node5</title>
<g id="a_edge4_Node000001_Node000005"><a xlink:title=" ">
<path fill="none" stroke="#63b8ff" d="M881.87,-291.26C1006.54,-284.25 1277.38,-266.07 1309.5,-239 1335.23,-217.32 1345.39,-192.14 1325.5,-165 1309.13,-142.66 1138.07,-97.37 1055.12,-76.49"/>
<polygon fill="#63b8ff" stroke="#63b8ff" points="1055.77,-73.05 1045.22,-74.01 1054.07,-79.84 1055.77,-73.05"/>
</a>
</g>
</g>
<!-- Node9 -->
<g id="Node000009" class="node">
<title>Node9</title>
<g id="a_Node000009"><a xlink:href="iio__adpd188_8h.html" target="_top" xlink:title="Header of the ADPD188 IIO driver.">
<polygon fill="white" stroke="#666666" points="636,-239 551,-239 551,-220 636,-220 636,-239"/>
<text text-anchor="middle" x="593.5" y="-227" font-family="Helvetica,sans-Serif" font-size="10.00">iio_adpd188.h</text>
</a>
</g>
</g>
<!-- Node1&#45;&gt;Node9 -->
<g id="edge8_Node000001_Node000009" class="edge">
<title>Node1&#45;&gt;Node9</title>
<g id="a_edge8_Node000001_Node000009"><a xlink:title=" ">
<path fill="none" stroke="#63b8ff" d="M757.45,-276.93C717.84,-265.71 667.68,-251.51 633.33,-241.78"/>
<polygon fill="#63b8ff" stroke="#63b8ff" points="634.22,-238.39 623.65,-239.04 632.32,-245.13 634.22,-238.39"/>
</a>
</g>
</g>
<!-- Node13 -->
<g id="Node000013" class="node">
<title>Node13</title>
<g id="a_Node000013"><a xlink:href="no__os__gpio_8h.html" target="_top" xlink:title="Header file of GPIO Interface.">
<polygon fill="white" stroke="#666666" points="396.5,-74 316.5,-74 316.5,-55 396.5,-55 396.5,-74"/>
<text text-anchor="middle" x="356.5" y="-62" font-family="Helvetica,sans-Serif" font-size="10.00">no_os_gpio.h</text>
</a>
</g>
</g>
<!-- Node1&#45;&gt;Node13 -->
<g id="edge40_Node000001_Node000013" class="edge">
<title>Node1&#45;&gt;Node13</title>
<g id="a_edge40_Node000001_Node000013"><a xlink:title=" ">
<path fill="none" stroke="#63b8ff" d="M757.23,-291.19C698.88,-286.03 610.56,-272.82 541.5,-239 463.45,-200.78 395.79,-118.37 368.89,-82.62"/>
<polygon fill="#63b8ff" stroke="#63b8ff" points="371.43,-80.18 362.67,-74.22 365.81,-84.34 371.43,-80.18"/>
</a>
</g>
</g>
<!-- Node19 -->
<g id="Node000019" class="node">
<title>Node19</title>
<g id="a_Node000019"><a xlink:href="iio__app_8h.html" target="_top" xlink:title="Header file of iio_app.">
<polygon fill="white" stroke="#666666" points="728,-239 667,-239 667,-220 728,-220 728,-239"/>
<text text-anchor="middle" x="697.5" y="-227" font-family="Helvetica,sans-Serif" font-size="10.00">iio_app.h</text>
</a>
</g>
</g>
<!-- Node1&#45;&gt;Node19 -->
<g id="edge31_Node000001_Node000019" class="edge">
<title>Node1&#45;&gt;Node19</title>
<g id="a_edge31_Node000001_Node000019"><a xlink:title=" ">
<path fill="none" stroke="#63b8ff" d="M782.23,-274.95C762.96,-264.84 739.94,-252.76 722.76,-243.75"/>
<polygon fill="#63b8ff" stroke="#63b8ff" points="724.36,-240.64 713.88,-239.09 721.11,-246.84 724.36,-240.64"/>
</a>
</g>
</g>
<!-- Node22 -->
<g id="Node000022" class="node">
<title>Node22</title>
<g id="a_Node000022"><a xlink:href="aducm3029__gpio_8h.html" target="_top" xlink:title=" ">
<polygon fill="white" stroke="#666666" points="1474,-239 1365,-239 1365,-220 1474,-220 1474,-239"/>
<text text-anchor="middle" x="1419.5" y="-227" font-family="Helvetica,sans-Serif" font-size="10.00">aducm3029_gpio.h</text>
</a>
</g>
</g>
<!-- Node1&#45;&gt;Node22 -->
<g id="edge39_Node000001_Node000022" class="edge">
<title>Node1&#45;&gt;Node22</title>
<g id="a_edge39_Node000001_Node000022"><a xlink:title=" ">
<path fill="none" stroke="#63b8ff" d="M881.67,-288.38C980.87,-278.52 1181.05,-258.29 1350.5,-239 1351.96,-238.83 1353.44,-238.66 1354.93,-238.49"/>
<polygon fill="#63b8ff" stroke="#63b8ff" points="1355.37,-241.96 1364.9,-237.32 1354.56,-235.01 1355.37,-241.96"/>
</a>
</g>
</g>
<!-- Node23 -->
<g id="Node000023" class="node">
<title>Node23</title>
<g id="a_Node000023"><a xlink:href="no__os__timer_8h.html" target="_top" xlink:title="Timer control module header.">
<polygon fill="white" stroke="#666666" points="85,-74 0,-74 0,-55 85,-55 85,-74"/>
<text text-anchor="middle" x="42.5" y="-62" font-family="Helvetica,sans-Serif" font-size="10.00">no_os_timer.h</text>
</a>
</g>
</g>
<!-- Node1&#45;&gt;Node23 -->
<g id="edge41_Node000001_Node000023" class="edge">
<title>Node1&#45;&gt;Node23</title>
<g id="a_edge41_Node000001_Node000023"><a xlink:title=" ">
<path fill="none" stroke="#63b8ff" d="M757.16,-290.66C644.27,-283.17 410.54,-265.02 333.5,-239 221.15,-201.06 105.28,-115.27 61.11,-80.53"/>
<polygon fill="#63b8ff" stroke="#63b8ff" points="63.04,-77.59 53.03,-74.11 58.68,-83.07 63.04,-77.59"/>
</a>
</g>
</g>
<!-- Node24 -->
<g id="Node000024" class="node">
<title>Node24</title>
<g id="a_Node000024"><a xlink:href="aducm3029__irq_8h.html" target="_top" xlink:title="Header file of IRQ driver for ADuCM302x.">
<polygon fill="white" stroke="#666666" points="1139,-239 1038,-239 1038,-220 1139,-220 1139,-239"/>
<text text-anchor="middle" x="1088.5" y="-227" font-family="Helvetica,sans-Serif" font-size="10.00">aducm3029_irq.h</text>
</a>
</g>
</g>
<!-- Node1&#45;&gt;Node24 -->
<g id="edge43_Node000001_Node000024" class="edge">
<title>Node1&#45;&gt;Node24</title>
<g id="a_edge43_Node000001_Node000024"><a xlink:title=" ">
<path fill="none" stroke="#63b8ff" d="M881.55,-279.74C930.78,-268.02 998.47,-251.92 1042.83,-241.36"/>
<polygon fill="#63b8ff" stroke="#63b8ff" points="1043.84,-244.72 1052.76,-239 1042.22,-237.91 1043.84,-244.72"/>
</a>
</g>
</g>
<!-- Node26 -->
<g id="Node000026" class="node">
<title>Node26</title>
<g id="a_Node000026"><a xlink:href="aducm3029__i2c_8h.html" target="_top" xlink:title=" ">
<polygon fill="white" stroke="#666666" points="1594.5,-239 1492.5,-239 1492.5,-220 1594.5,-220 1594.5,-239"/>
<text text-anchor="middle" x="1543.5" y="-227" font-family="Helvetica,sans-Serif" font-size="10.00">aducm3029_i2c.h</text>
</a>
</g>
</g>
<!-- Node1&#45;&gt;Node26 -->
<g id="edge48_Node000001_Node000026" class="edge">
<title>Node1&#45;&gt;Node26</title>
<g id="a_edge48_Node000001_Node000026"><a xlink:title=" ">
<path fill="none" stroke="#63b8ff" d="M881.87,-290.49C997.92,-282.75 1255.11,-264.39 1482.35,-239.07"/>
<polygon fill="#63b8ff" stroke="#63b8ff" points="1482.91,-242.53 1492.46,-237.93 1482.13,-235.57 1482.91,-242.53"/>
</a>
</g>
</g>
<!-- Node27 -->
<g id="Node000027" class="node">
<title>Node27</title>
<g id="a_Node000027"><a xlink:href="aducm3029__uart_8h.html" target="_top" xlink:title="Header file of UART driver for ADuCM302x.">
<polygon fill="white" stroke="#666666" points="922,-239 815,-239 815,-220 922,-220 922,-239"/>
<text text-anchor="middle" x="868.5" y="-227" font-family="Helvetica,sans-Serif" font-size="10.00">aducm3029_uart.h</text>
</a>
</g>
</g>
<!-- Node1&#45;&gt;Node27 -->
<g id="edge49_Node000001_Node000027" class="edge">
<title>Node1&#45;&gt;Node27</title>
<g id="a_edge49_Node000001_Node000027"><a xlink:title=" ">
<path fill="none" stroke="#63b8ff" d="M834.47,-274.95C841.24,-266.11 849.15,-255.77 855.65,-247.29"/>
<polygon fill="#63b8ff" stroke="#63b8ff" points="858.49,-249.33 861.79,-239.26 852.93,-245.07 858.49,-249.33"/>
</a>
</g>
</g>
<!-- Node29 -->
<g id="Node000029" class="node">
<title>Node29</title>
<g id="a_Node000029"><a xlink:href="aducm3029__gpio__irq_8h.html" target="_top" xlink:title="Header file of GPIO IRQ interface for ADuCM3029 platform.">
<polygon fill="white" stroke="#666666" points="1300,-239 1173,-239 1173,-220 1300,-220 1300,-239"/>
<text text-anchor="middle" x="1236.5" y="-227" font-family="Helvetica,sans-Serif" font-size="10.00">aducm3029_gpio_irq.h</text>
</a>
</g>
</g>
<!-- Node1&#45;&gt;Node29 -->
<g id="edge56_Node000001_Node000029" class="edge">
<title>Node1&#45;&gt;Node29</title>
<g id="a_edge56_Node000001_Node000029"><a xlink:title=" ">
<path fill="none" stroke="#63b8ff" d="M881.93,-284.92C959.56,-273 1091.47,-252.76 1170.65,-240.61"/>
<polygon fill="#63b8ff" stroke="#63b8ff" points="1171.64,-244 1180.99,-239.02 1170.57,-237.08 1171.64,-244"/>
</a>
</g>
</g>
<!-- Node30 -->
<g id="Node000030" class="node">
<title>Node30</title>
<g id="a_Node000030"><a xlink:href="aducm3029__timer_8h.html" target="_top" xlink:title="Header file of TIMER driver for ADuCM302x.">
<polygon fill="white" stroke="#666666" points="316,-129 203,-129 203,-110 316,-110 316,-129"/>
<text text-anchor="middle" x="259.5" y="-117" font-family="Helvetica,sans-Serif" font-size="10.00">aducm3029_timer.h</text>
</a>
</g>
</g>
<!-- Node1&#45;&gt;Node30 -->
<g id="edge58_Node000001_Node000030" class="edge">
<title>Node1&#45;&gt;Node30</title>
<g id="a_edge58_Node000001_Node000030"><a xlink:title=" ">
<path fill="none" stroke="#63b8ff" d="M757.29,-292.33C649.07,-287.66 431.34,-274.1 364.5,-239 319.85,-215.55 285.27,-164.85 269.26,-138"/>
<polygon fill="#63b8ff" stroke="#63b8ff" points="272.25,-136.19 264.21,-129.28 266.19,-139.69 272.25,-136.19"/>
</a>
</g>
</g>
<!-- Node32 -->
<g id="Node000032" class="node">
<title>Node32</title>
<g id="a_Node000032"><a xlink:href="iio__adpd1080_2src_2parameters_8h.html" target="_top" xlink:title="Parameters Definitions.">
<polygon fill="white" stroke="#666666" points="1694.5,-239 1612.5,-239 1612.5,-220 1694.5,-220 1694.5,-239"/>
<text text-anchor="middle" x="1653.5" y="-227" font-family="Helvetica,sans-Serif" font-size="10.00">parameters.h</text>
</a>
</g>
</g>
<!-- Node1&#45;&gt;Node32 -->
<g id="edge63_Node000001_Node000032" class="edge">
<title>Node1&#45;&gt;Node32</title>
<g id="a_edge63_Node000001_Node000032"><a xlink:title=" ">
<path fill="none" stroke="#63b8ff" d="M881.69,-292.16C1012.96,-286.79 1328.11,-271.52 1602.2,-239.04"/>
<polygon fill="#63b8ff" stroke="#63b8ff" points="1602.83,-242.49 1612.35,-237.82 1602,-235.54 1602.83,-242.49"/>
</a>
</g>
</g>
<!-- Node4 -->
<g id="Node000004" class="node">
<title>Node4</title>
<g id="a_Node000004"><a xlink:href="errno_8h.html" target="_top" xlink:title="Error macro definition for ARM Compiler.">
<polygon fill="white" stroke="#666666" points="761,-129 710,-129 710,-110 761,-110 761,-129"/>
<text text-anchor="middle" x="735.5" y="-117" font-family="Helvetica,sans-Serif" font-size="10.00">errno.h</text>
</a>
</g>
</g>
<!-- Node3&#45;&gt;Node4 -->
<g id="edge3_Node000003_Node000004" class="edge">
<title>Node3&#45;&gt;Node4</title>
<g id="a_edge3_Node000003_Node000004"><a xlink:title=" ">
<path fill="none" stroke="#63b8ff" d="M713.79,-164.75C717.31,-157.57 722.41,-147.18 726.78,-138.27"/>
<polygon fill="#63b8ff" stroke="#63b8ff" points="730.02,-139.61 731.29,-129.09 723.74,-136.53 730.02,-139.61"/>
</a>
</g>
</g>
<!-- Node6 -->
<g id="Node000006" class="node">
<title>Node6</title>
<g id="a_Node000006"><a xlink:title=" ">
<polygon fill="#e0e0e0" stroke="#999999" points="754,-19 701,-19 701,0 754,0 754,-19"/>
<text text-anchor="middle" x="727.5" y="-7" font-family="Helvetica,sans-Serif" font-size="10.00">stdint.h</text>
</a>
</g>
</g>
<!-- Node5&#45;&gt;Node6 -->
<g id="edge5_Node000005_Node000006" class="edge">
<title>Node5&#45;&gt;Node6</title>
<g id="a_edge5_Node000005_Node000006"><a xlink:title=" ">
<path fill="none" stroke="#63b8ff" d="M972.92,-56.46C918.51,-46.27 818.41,-27.53 764.39,-17.41"/>
<polygon fill="#63b8ff" stroke="#63b8ff" points="764.7,-13.91 754.23,-15.51 763.41,-20.79 764.7,-13.91"/>
</a>
</g>
</g>
<!-- Node7 -->
<g id="Node000007" class="node">
<title>Node7</title>
<g id="a_Node000007"><a xlink:title=" ">
<polygon fill="#e0e0e0" stroke="#999999" points="1090,-19 1037,-19 1037,0 1090,0 1090,-19"/>
<text text-anchor="middle" x="1063.5" y="-7" font-family="Helvetica,sans-Serif" font-size="10.00">stdlib.h</text>
</a>
</g>
</g>
<!-- Node5&#45;&gt;Node7 -->
<g id="edge6_Node000005_Node000007" class="edge">
<title>Node5&#45;&gt;Node7</title>
<g id="a_edge6_Node000005_Node000007"><a xlink:title=" ">
<path fill="none" stroke="#63b8ff" d="M1019.25,-54.75C1026.97,-47.03 1038.4,-35.6 1047.72,-26.28"/>
<polygon fill="#63b8ff" stroke="#63b8ff" points="1050.31,-28.64 1054.91,-19.09 1045.36,-23.69 1050.31,-28.64"/>
</a>
</g>
</g>
<!-- Node8 -->
<g id="Node000008" class="node">
<title>Node8</title>
<g id="a_Node000008"><a xlink:title=" ">
<polygon fill="#e0e0e0" stroke="#999999" points="1263.5,-19 1201.5,-19 1201.5,0 1263.5,0 1263.5,-19"/>
<text text-anchor="middle" x="1232.5" y="-7" font-family="Helvetica,sans-Serif" font-size="10.00">stdbool.h</text>
</a>
</g>
</g>
<!-- Node5&#45;&gt;Node8 -->
<g id="edge7_Node000005_Node000008" class="edge">
<title>Node5&#45;&gt;Node8</title>
<g id="a_edge7_Node000005_Node000008"><a xlink:title=" ">
<path fill="none" stroke="#63b8ff" d="M1046.17,-54.98C1085.8,-45.52 1149.69,-30.27 1191.39,-20.31"/>
<polygon fill="#63b8ff" stroke="#63b8ff" points="1192.31,-23.69 1201.23,-17.97 1190.69,-16.88 1192.31,-23.69"/>
</a>
</g>
</g>
<!-- Node10 -->
<g id="Node000010" class="node">
<title>Node10</title>
<g id="a_Node000010"><a xlink:href="adpd188_8h.html" target="_top" xlink:title="ADPD188 driver header file.">
<polygon fill="white" stroke="#666666" points="691.5,-129 623.5,-129 623.5,-110 691.5,-110 691.5,-129"/>
<text text-anchor="middle" x="657.5" y="-117" font-family="Helvetica,sans-Serif" font-size="10.00">adpd188.h</text>
</a>
</g>
</g>
<!-- Node9&#45;&gt;Node10 -->
<g id="edge9_Node000009_Node000010" class="edge">
<title>Node9&#45;&gt;Node10</title>
<g id="a_edge9_Node000009_Node000010"><a xlink:title=" ">
<path fill="none" stroke="#63b8ff" d="M584.52,-219.89C572.5,-207.3 553.98,-183.37 565.5,-165 576.21,-147.93 595.52,-137.24 613.7,-130.64"/>
<polygon fill="#63b8ff" stroke="#63b8ff" points="614.94,-133.92 623.34,-127.46 612.75,-127.27 614.94,-133.92"/>
</a>
</g>
</g>
<!-- Node14 -->
<g id="Node000014" class="node">
<title>Node14</title>
<g id="a_Node000014"><a xlink:href="iio_8h.html" target="_top" xlink:title="Header file of iio.">
<polygon fill="white" stroke="#666666" points="612.5,-184 574.5,-184 574.5,-165 612.5,-165 612.5,-184"/>
<text text-anchor="middle" x="593.5" y="-172" font-family="Helvetica,sans-Serif" font-size="10.00">iio.h</text>
</a>
</g>
</g>
<!-- Node9&#45;&gt;Node14 -->
<g id="edge18_Node000009_Node000014" class="edge">
<title>Node9&#45;&gt;Node14</title>
<g id="a_edge18_Node000009_Node000014"><a xlink:title=" ">
<path fill="none" stroke="#63b8ff" d="M593.5,-219.75C593.5,-212.8 593.5,-202.85 593.5,-194.13"/>
<polygon fill="#63b8ff" stroke="#63b8ff" points="597,-194.09 593.5,-184.09 590,-194.09 597,-194.09"/>
</a>
</g>
</g>
<!-- Node10&#45;&gt;Node6 -->
<g id="edge10_Node000010_Node000006" class="edge">
<title>Node10&#45;&gt;Node6</title>
<g id="a_edge10_Node000010_Node000006"><a xlink:title=" ">
<path fill="none" stroke="#63b8ff" d="M691.53,-110.02C722.19,-101.62 763.88,-88 773.5,-74 785.19,-57 766.91,-37.87 750.05,-25.09"/>
<polygon fill="#63b8ff" stroke="#63b8ff" points="751.71,-21.97 741.53,-19.03 747.65,-27.68 751.71,-21.97"/>
</a>
</g>
</g>
<!-- Node10&#45;&gt;Node8 -->
<g id="edge11_Node000010_Node000008" class="edge">
<title>Node10&#45;&gt;Node8</title>
<g id="a_edge11_Node000010_Node000008"><a xlink:title=" ">
<path fill="none" stroke="#63b8ff" d="M691.54,-111.51C694.9,-110.94 698.26,-110.43 701.5,-110 757.49,-102.63 1163.21,-107.73 1208.5,-74 1222.51,-63.57 1228.34,-43.93 1230.77,-29.24"/>
<polygon fill="#63b8ff" stroke="#63b8ff" points="1234.26,-29.57 1232.04,-19.21 1227.31,-28.69 1234.26,-29.57"/>
</a>
</g>
</g>
<!-- Node11 -->
<g id="Node000011" class="node">
<title>Node11</title>
<g id="a_Node000011"><a xlink:href="no__os__i2c_8h.html" target="_top" xlink:title="Header file of I2C Interface.">
<polygon fill="white" stroke="#666666" points="672.5,-74 598.5,-74 598.5,-55 672.5,-55 672.5,-74"/>
<text text-anchor="middle" x="635.5" y="-62" font-family="Helvetica,sans-Serif" font-size="10.00">no_os_i2c.h</text>
</a>
</g>
</g>
<!-- Node10&#45;&gt;Node11 -->
<g id="edge12_Node000010_Node000011" class="edge">
<title>Node10&#45;&gt;Node11</title>
<g id="a_edge12_Node000010_Node000011"><a xlink:title=" ">
<path fill="none" stroke="#63b8ff" d="M653.87,-109.75C650.92,-102.65 646.67,-92.4 642.99,-83.56"/>
<polygon fill="#63b8ff" stroke="#63b8ff" points="646.13,-81.98 639.07,-74.09 639.67,-84.67 646.13,-81.98"/>
</a>
</g>
</g>
<!-- Node12 -->
<g id="Node000012" class="node">
<title>Node12</title>
<g id="a_Node000012"><a xlink:href="no__os__spi_8h.html" target="_top" xlink:title="Header file of SPI Interface.">
<polygon fill="white" stroke="#666666" points="764.5,-74 690.5,-74 690.5,-55 764.5,-55 764.5,-74"/>
<text text-anchor="middle" x="727.5" y="-62" font-family="Helvetica,sans-Serif" font-size="10.00">no_os_spi.h</text>
</a>
</g>
</g>
<!-- Node10&#45;&gt;Node12 -->
<g id="edge14_Node000010_Node000012" class="edge">
<title>Node10&#45;&gt;Node12</title>
<g id="a_edge14_Node000010_Node000012"><a xlink:title=" ">
<path fill="none" stroke="#63b8ff" d="M668.75,-109.98C679.3,-102 695.3,-89.88 707.94,-80.31"/>
<polygon fill="#63b8ff" stroke="#63b8ff" points="710.19,-83 716.05,-74.17 705.96,-77.42 710.19,-83"/>
</a>
</g>
</g>
<!-- Node10&#45;&gt;Node13 -->
<g id="edge16_Node000010_Node000013" class="edge">
<title>Node10&#45;&gt;Node13</title>
<g id="a_edge16_Node000010_Node000013"><a xlink:title=" ">
<path fill="none" stroke="#63b8ff" d="M623.25,-111.65C620.29,-111.08 617.34,-110.53 614.5,-110 524.89,-93.43 500.01,-90.26 406.49,-74.17"/>
<polygon fill="#63b8ff" stroke="#63b8ff" points="407.06,-70.71 396.61,-72.46 405.87,-77.61 407.06,-70.71"/>
</a>
</g>
</g>
<!-- Node11&#45;&gt;Node6 -->
<g id="edge13_Node000011_Node000006" class="edge">
<title>Node11&#45;&gt;Node6</title>
<g id="a_edge13_Node000011_Node000006"><a xlink:title=" ">
<path fill="none" stroke="#63b8ff" d="M650.28,-54.98C664.68,-46.69 686.81,-33.94 703.69,-24.22"/>
<polygon fill="#63b8ff" stroke="#63b8ff" points="705.53,-27.19 712.45,-19.17 702.04,-21.13 705.53,-27.19"/>
</a>
</g>
</g>
<!-- Node12&#45;&gt;Node6 -->
<g id="edge15_Node000012_Node000006" class="edge">
<title>Node12&#45;&gt;Node6</title>
<g id="a_edge15_Node000012_Node000006"><a xlink:title=" ">
<path fill="none" stroke="#63b8ff" d="M727.5,-54.75C727.5,-47.8 727.5,-37.85 727.5,-29.13"/>
<polygon fill="#63b8ff" stroke="#63b8ff" points="731,-29.09 727.5,-19.09 724,-29.09 731,-29.09"/>
</a>
</g>
</g>
<!-- Node13&#45;&gt;Node6 -->
<g id="edge17_Node000013_Node000006" class="edge">
<title>Node13&#45;&gt;Node6</title>
<g id="a_edge17_Node000013_Node000006"><a xlink:title=" ">
<path fill="none" stroke="#63b8ff" d="M396.59,-56.43C399.61,-55.93 402.6,-55.45 405.5,-55 508.6,-38.94 630.75,-22.86 690.64,-15.17"/>
<polygon fill="#63b8ff" stroke="#63b8ff" points="691.26,-18.62 700.74,-13.88 690.37,-11.68 691.26,-18.62"/>
</a>
</g>
</g>
<!-- Node15 -->
<g id="Node000015" class="node">
<title>Node15</title>
<g id="a_Node000015"><a xlink:href="iio__types_8h.html" target="_top" xlink:title="Header file for iio_types.">
<polygon fill="white" stroke="#666666" points="605.5,-129 535.5,-129 535.5,-110 605.5,-110 605.5,-129"/>
<text text-anchor="middle" x="570.5" y="-117" font-family="Helvetica,sans-Serif" font-size="10.00">iio_types.h</text>
</a>
</g>
</g>
<!-- Node14&#45;&gt;Node15 -->
<g id="edge19_Node000014_Node000015" class="edge">
<title>Node14&#45;&gt;Node15</title>
<g id="a_edge19_Node000014_Node000015"><a xlink:title=" ">
<path fill="none" stroke="#63b8ff" d="M589.7,-164.75C586.59,-157.57 582.08,-147.18 578.21,-138.27"/>
<polygon fill="#63b8ff" stroke="#63b8ff" points="581.42,-136.87 574.23,-129.09 575,-139.66 581.42,-136.87"/>
</a>
</g>
</g>
<!-- Node17 -->
<g id="Node000017" class="node">
<title>Node17</title>
<g id="a_Node000017"><a xlink:href="no__os__uart_8h.html" target="_top" xlink:title="Header file of UART interface.">
<polygon fill="white" stroke="#666666" points="997,-129 918,-129 918,-110 997,-110 997,-129"/>
<text text-anchor="middle" x="957.5" y="-117" font-family="Helvetica,sans-Serif" font-size="10.00">no_os_uart.h</text>
</a>
</g>
</g>
<!-- Node14&#45;&gt;Node17 -->
<g id="edge24_Node000014_Node000017" class="edge">
<title>Node14&#45;&gt;Node17</title>
<g id="a_edge24_Node000014_Node000017"><a xlink:title=" ">
<path fill="none" stroke="#63b8ff" d="M612.61,-168.17C617.14,-167.02 621.97,-165.88 626.5,-165 725.49,-145.67 842.77,-132.06 907.79,-125.33"/>
<polygon fill="#63b8ff" stroke="#63b8ff" points="908.17,-128.81 917.76,-124.3 907.46,-121.84 908.17,-128.81"/>
</a>
</g>
</g>
<!-- Node15&#45;&gt;Node6 -->
<g id="edge21_Node000015_Node000006" class="edge">
<title>Node15&#45;&gt;Node6</title>
<g id="a_edge21_Node000015_Node000006"><a xlink:title=" ">
<path fill="none" stroke="#63b8ff" d="M570.65,-109.85C571.35,-96.31 574.69,-70.13 589.5,-55 616.24,-27.69 659.81,-17.12 690.83,-13.04"/>
<polygon fill="#63b8ff" stroke="#63b8ff" points="691.3,-16.51 700.83,-11.89 690.5,-9.56 691.3,-16.51"/>
</a>
</g>
</g>
<!-- Node15&#45;&gt;Node8 -->
<g id="edge20_Node000015_Node000008" class="edge">
<title>Node15&#45;&gt;Node8</title>
<g id="a_edge20_Node000015_Node000008"><a xlink:title=" ">
<path fill="none" stroke="#63b8ff" d="M605.98,-111.25C608.85,-110.78 611.72,-110.36 614.5,-110 738.41,-94.12 1063.11,-128.53 1175.5,-74 1196.03,-64.04 1212.49,-43.08 1222.35,-27.96"/>
<polygon fill="#63b8ff" stroke="#63b8ff" points="1225.32,-29.8 1227.61,-19.45 1219.37,-26.11 1225.32,-29.8"/>
</a>
</g>
</g>
<!-- Node16 -->
<g id="Node000016" class="node">
<title>Node16</title>
<g id="a_Node000016"><a xlink:href="no__os__circular__buffer_8h.html" target="_top" xlink:title="Circular buffer library header.">
<polygon fill="white" stroke="#666666" points="542.5,-74 414.5,-74 414.5,-55 542.5,-55 542.5,-74"/>
<text text-anchor="middle" x="478.5" y="-62" font-family="Helvetica,sans-Serif" font-size="10.00">no_os_circular_buffer.h</text>
</a>
</g>
</g>
<!-- Node15&#45;&gt;Node16 -->
<g id="edge22_Node000015_Node000016" class="edge">
<title>Node15&#45;&gt;Node16</title>
<g id="a_edge22_Node000015_Node000016"><a xlink:title=" ">
<path fill="none" stroke="#63b8ff" d="M555.72,-109.98C541.32,-101.69 519.19,-88.94 502.31,-79.22"/>
<polygon fill="#63b8ff" stroke="#63b8ff" points="503.96,-76.13 493.55,-74.17 500.47,-82.19 503.96,-76.13"/>
</a>
</g>
</g>
<!-- Node16&#45;&gt;Node6 -->
<g id="edge23_Node000016_Node000006" class="edge">
<title>Node16&#45;&gt;Node6</title>
<g id="a_edge23_Node000016_Node000006"><a xlink:title=" ">
<path fill="none" stroke="#63b8ff" d="M518.51,-54.98C566.18,-44.84 645.15,-28.03 691.15,-18.24"/>
<polygon fill="#63b8ff" stroke="#63b8ff" points="691.94,-21.65 700.99,-16.14 690.48,-14.8 691.94,-21.65"/>
</a>
</g>
</g>
<!-- Node17&#45;&gt;Node6 -->
<g id="edge25_Node000017_Node000006" class="edge">
<title>Node17&#45;&gt;Node6</title>
<g id="a_edge25_Node000017_Node000006"><a xlink:title=" ">
<path fill="none" stroke="#63b8ff" d="M949.61,-109.77C936.82,-96.13 910.18,-69.8 882.5,-55 844.63,-34.75 796.49,-22.79 763.99,-16.46"/>
<polygon fill="#63b8ff" stroke="#63b8ff" points="764.49,-12.99 754.01,-14.59 763.2,-19.87 764.49,-12.99"/>
</a>
</g>
</g>
<!-- Node17&#45;&gt;Node8 -->
<g id="edge26_Node000017_Node000008" class="edge">
<title>Node17&#45;&gt;Node8</title>
<g id="a_edge26_Node000017_Node000008"><a xlink:title=" ">
<path fill="none" stroke="#63b8ff" d="M997.27,-118.47C1068.84,-117.49 1214.85,-110.89 1246.5,-74 1257.49,-61.19 1250.87,-41.69 1243.46,-27.67"/>
<polygon fill="#63b8ff" stroke="#63b8ff" points="1246.47,-25.88 1238.41,-19 1240.42,-29.41 1246.47,-25.88"/>
</a>
</g>
</g>
<!-- Node18 -->
<g id="Node000018" class="node">
<title>Node18</title>
<g id="a_Node000018"><a xlink:href="no__os__lf256fifo_8h.html" target="_top" xlink:title="SPSC lock&#45;free fifo of fixed size (256), specialized for UART.">
<polygon fill="white" stroke="#666666" points="1166.5,-74 1066.5,-74 1066.5,-55 1166.5,-55 1166.5,-74"/>
<text text-anchor="middle" x="1116.5" y="-62" font-family="Helvetica,sans-Serif" font-size="10.00">no_os_lf256fifo.h</text>
</a>
</g>
</g>
<!-- Node17&#45;&gt;Node18 -->
<g id="edge27_Node000017_Node000018" class="edge">
<title>Node17&#45;&gt;Node18</title>
<g id="a_edge27_Node000017_Node000018"><a xlink:title=" ">
<path fill="none" stroke="#63b8ff" d="M983.05,-109.98C1009.62,-101.13 1051.44,-87.19 1081.17,-77.28"/>
<polygon fill="#63b8ff" stroke="#63b8ff" points="1082.37,-80.56 1090.75,-74.08 1080.16,-73.92 1082.37,-80.56"/>
</a>
</g>
</g>
<!-- Node18&#45;&gt;Node6 -->
<g id="edge29_Node000018_Node000006" class="edge">
<title>Node18&#45;&gt;Node6</title>
<g id="a_edge29_Node000018_Node000006"><a xlink:title=" ">
<path fill="none" stroke="#63b8ff" d="M1066.29,-56.24C1063.32,-55.81 1060.37,-55.4 1057.5,-55 951.09,-40.16 825.27,-23.42 764.3,-15.35"/>
<polygon fill="#63b8ff" stroke="#63b8ff" points="764.4,-11.84 754.03,-13.99 763.49,-18.78 764.4,-11.84"/>
</a>
</g>
</g>
<!-- Node18&#45;&gt;Node7 -->
<g id="edge28_Node000018_Node000007" class="edge">
<title>Node18&#45;&gt;Node7</title>
<g id="a_edge28_Node000018_Node000007"><a xlink:title=" ">
<path fill="none" stroke="#63b8ff" d="M1107.75,-54.75C1100.03,-47.03 1088.6,-35.6 1079.28,-26.28"/>
<polygon fill="#63b8ff" stroke="#63b8ff" points="1081.64,-23.69 1072.09,-19.09 1076.69,-28.64 1081.64,-23.69"/>
</a>
</g>
</g>
<!-- Node18&#45;&gt;Node8 -->
<g id="edge30_Node000018_Node000008" class="edge">
<title>Node18&#45;&gt;Node8</title>
<g id="a_edge30_Node000018_Node000008"><a xlink:title=" ">
<path fill="none" stroke="#63b8ff" d="M1135.14,-54.98C1153.8,-46.46 1182.75,-33.23 1204.24,-23.41"/>
<polygon fill="#63b8ff" stroke="#63b8ff" points="1205.88,-26.51 1213.52,-19.17 1202.97,-20.14 1205.88,-26.51"/>
</a>
</g>
</g>
<!-- Node19&#45;&gt;Node3 -->
<g id="edge36_Node000019_Node000003" class="edge">
<title>Node19&#45;&gt;Node3</title>
<g id="a_edge36_Node000019_Node000003"><a xlink:title=" ">
<path fill="none" stroke="#63b8ff" d="M699.48,-219.75C701.07,-212.72 703.36,-202.62 705.35,-193.84"/>
<polygon fill="#63b8ff" stroke="#63b8ff" points="708.76,-194.62 707.56,-184.09 701.93,-193.07 708.76,-194.62"/>
</a>
</g>
</g>
<!-- Node19&#45;&gt;Node14 -->
<g id="edge32_Node000019_Node000014" class="edge">
<title>Node19&#45;&gt;Node14</title>
<g id="a_edge32_Node000019_Node000014"><a xlink:title=" ">
<path fill="none" stroke="#63b8ff" d="M680.79,-219.98C664.29,-211.57 638.8,-198.59 619.62,-188.81"/>
<polygon fill="#63b8ff" stroke="#63b8ff" points="621.01,-185.59 610.51,-184.17 617.83,-191.83 621.01,-185.59"/>
</a>
</g>
</g>
<!-- Node19&#45;&gt;Node17 -->
<g id="edge35_Node000019_Node000017" class="edge">
<title>Node19&#45;&gt;Node17</title>
<g id="a_edge35_Node000019_Node000017"><a xlink:title=" ">
<path fill="none" stroke="#63b8ff" d="M685.72,-219.88C669.6,-207.06 644.32,-182.62 659.5,-165 675.45,-146.49 826.89,-131.29 907.52,-124.43"/>
<polygon fill="#63b8ff" stroke="#63b8ff" points="908.26,-127.88 917.94,-123.56 907.68,-120.91 908.26,-127.88"/>
</a>
</g>
</g>
<!-- Node20 -->
<g id="Node000020" class="node">
<title>Node20</title>
<g id="a_Node000020"><a xlink:href="no__os__irq_8h.html" target="_top" xlink:title="Header file of IRQ interface.">
<polygon fill="white" stroke="#666666" points="840.5,-184 768.5,-184 768.5,-165 840.5,-165 840.5,-184"/>
<text text-anchor="middle" x="804.5" y="-172" font-family="Helvetica,sans-Serif" font-size="10.00">no_os_irq.h</text>
</a>
</g>
</g>
<!-- Node19&#45;&gt;Node20 -->
<g id="edge33_Node000019_Node000020" class="edge">
<title>Node19&#45;&gt;Node20</title>
<g id="a_edge33_Node000019_Node000020"><a xlink:title=" ">
<path fill="none" stroke="#63b8ff" d="M714.69,-219.98C731.75,-211.54 758.13,-198.47 777.9,-188.68"/>
<polygon fill="#63b8ff" stroke="#63b8ff" points="779.59,-191.75 787,-184.17 776.48,-185.47 779.59,-191.75"/>
</a>
</g>
</g>
<!-- Node21 -->
<g id="Node000021" class="node">
<title>Node21</title>
<g id="a_Node000021"><a xlink:href="no__os__delay_8h.html" target="_top" xlink:title="Header file of Delay functions.">
<polygon fill="white" stroke="#666666" points="509,-129 424,-129 424,-110 509,-110 509,-129"/>
<text text-anchor="middle" x="466.5" y="-117" font-family="Helvetica,sans-Serif" font-size="10.00">no_os_delay.h</text>
</a>
</g>
</g>
<!-- Node19&#45;&gt;Node21 -->
<g id="edge37_Node000019_Node000021" class="edge">
<title>Node19&#45;&gt;Node21</title>
<g id="a_edge37_Node000019_Node000021"><a xlink:title=" ">
<path fill="none" stroke="#63b8ff" d="M666.79,-220.47C639.49,-212.79 598.85,-200.02 565.5,-184 536.42,-170.03 505.53,-149.12 486.14,-135.16"/>
<polygon fill="#63b8ff" stroke="#63b8ff" points="487.98,-132.17 477.84,-129.1 483.85,-137.82 487.98,-132.17"/>
</a>
</g>
</g>
<!-- Node20&#45;&gt;Node6 -->
<g id="edge34_Node000020_Node000006" class="edge">
<title>Node20&#45;&gt;Node6</title>
<g id="a_edge34_Node000020_Node000006"><a xlink:title=" ">
<path fill="none" stroke="#63b8ff" d="M805.53,-164.72C807.52,-143.98 809.97,-91.02 788.5,-55 780.75,-41.99 767.57,-31.66 755.44,-24.24"/>
<polygon fill="#63b8ff" stroke="#63b8ff" points="756.89,-21.04 746.47,-19.13 753.43,-27.12 756.89,-21.04"/>
</a>
</g>
</g>
<!-- Node21&#45;&gt;Node6 -->
<g id="edge38_Node000021_Node000006" class="edge">
<title>Node21&#45;&gt;Node6</title>
<g id="a_edge38_Node000021_Node000006"><a xlink:title=" ">
<path fill="none" stroke="#63b8ff" d="M423.81,-115.6C365.38,-110.09 271.62,-94.89 307.5,-55 332.94,-26.73 593,-15.05 690.69,-11.64"/>
<polygon fill="#63b8ff" stroke="#63b8ff" points="691.09,-15.13 700.97,-11.29 690.85,-8.14 691.09,-15.13"/>
</a>
</g>
</g>
<!-- Node23&#45;&gt;Node6 -->
<g id="edge42_Node000023_Node000006" class="edge">
<title>Node23&#45;&gt;Node6</title>
<g id="a_edge42_Node000023_Node000006"><a xlink:title=" ">
<path fill="none" stroke="#63b8ff" d="M85.03,-56.1C87.89,-55.7 90.74,-55.33 93.5,-55 319.52,-28.29 592.91,-15.73 690.61,-11.86"/>
<polygon fill="#63b8ff" stroke="#63b8ff" points="690.98,-15.35 700.84,-11.46 690.71,-8.36 690.98,-15.35"/>
</a>
</g>
</g>
<!-- Node24&#45;&gt;Node6 -->
<g id="edge46_Node000024_Node000006" class="edge">
<title>Node24&#45;&gt;Node6</title>
<g id="a_edge46_Node000024_Node000006"><a xlink:title=" ">
<path fill="none" stroke="#63b8ff" d="M1084.46,-220C1074.12,-198.97 1044.77,-143.77 1006.5,-110 935.53,-47.38 822.4,-23.37 764.41,-14.82"/>
<polygon fill="#63b8ff" stroke="#63b8ff" points="764.64,-11.32 754.25,-13.4 763.67,-18.25 764.64,-11.32"/>
</a>
</g>
</g>
<!-- Node24&#45;&gt;Node8 -->
<g id="edge45_Node000024_Node000008" class="edge">
<title>Node24&#45;&gt;Node8</title>
<g id="a_edge45_Node000024_Node000008"><a xlink:title=" ">
<path fill="none" stroke="#63b8ff" d="M1101.54,-219.87C1120,-207.64 1154.82,-184.6 1184.5,-165 1245.8,-124.51 1287.67,-138.69 1322.5,-74 1336.02,-48.89 1303.24,-31.48 1273.52,-21.33"/>
<polygon fill="#63b8ff" stroke="#63b8ff" points="1274.22,-17.88 1263.63,-18.16 1272.09,-24.55 1274.22,-17.88"/>
</a>
</g>
</g>
<!-- Node24&#45;&gt;Node20 -->
<g id="edge47_Node000024_Node000020" class="edge">
<title>Node24&#45;&gt;Node20</title>
<g id="a_edge47_Node000024_Node000020"><a xlink:title=" ">
<path fill="none" stroke="#63b8ff" d="M1042.87,-219.98C990.1,-210.14 903.7,-194.01 850.69,-184.12"/>
<polygon fill="#63b8ff" stroke="#63b8ff" points="851.03,-180.62 840.56,-182.23 849.74,-187.5 851.03,-180.62"/>
</a>
</g>
</g>
<!-- Node25 -->
<g id="Node000025" class="node">
<title>Node25</title>
<g id="a_Node000025"><a xlink:title=" ">
<polygon fill="#e0e0e0" stroke="#999999" points="1316,-184 1193,-184 1193,-165 1316,-165 1316,-184"/>
<text text-anchor="middle" x="1254.5" y="-172" font-family="Helvetica,sans-Serif" font-size="10.00">drivers/xint/adi_xint.h</text>
</a>
</g>
</g>
<!-- Node24&#45;&gt;Node25 -->
<g id="edge44_Node000024_Node000025" class="edge">
<title>Node24&#45;&gt;Node25</title>
<g id="a_edge44_Node000024_Node000025"><a xlink:title=" ">
<path fill="none" stroke="#63b8ff" d="M1115.17,-219.98C1143.04,-211.09 1186.95,-197.07 1218.02,-187.15"/>
<polygon fill="#63b8ff" stroke="#63b8ff" points="1219.16,-190.46 1227.62,-184.08 1217.03,-183.79 1219.16,-190.46"/>
</a>
</g>
</g>
<!-- Node27&#45;&gt;Node3 -->
<g id="edge53_Node000027_Node000003" class="edge">
<title>Node27&#45;&gt;Node3</title>
<g id="a_edge53_Node000027_Node000003"><a xlink:title=" ">
<path fill="none" stroke="#63b8ff" d="M842.95,-219.98C816.38,-211.13 774.56,-197.19 744.83,-187.28"/>
<polygon fill="#63b8ff" stroke="#63b8ff" points="745.84,-183.92 735.25,-184.08 743.63,-190.56 745.84,-183.92"/>
</a>
</g>
</g>
<!-- Node27&#45;&gt;Node6 -->
<g id="edge52_Node000027_Node000006" class="edge">
<title>Node27&#45;&gt;Node6</title>
<g id="a_edge52_Node000027_Node000006"><a xlink:title=" ">
<path fill="none" stroke="#63b8ff" d="M867.62,-219.81C864.43,-192.39 851.18,-106.44 806.5,-55 794.36,-41.03 776.7,-30.5 761.16,-23.2"/>
<polygon fill="#63b8ff" stroke="#63b8ff" points="762.39,-19.92 751.82,-19.07 759.56,-26.32 762.39,-19.92"/>
</a>
</g>
</g>
<!-- Node27&#45;&gt;Node8 -->
<g id="edge51_Node000027_Node000008" class="edge">
<title>Node27&#45;&gt;Node8</title>
<g id="a_edge51_Node000027_Node000008"><a xlink:title=" ">
<path fill="none" stroke="#63b8ff" d="M914.99,-219.99C951.65,-212.56 1003.72,-200.39 1047.5,-184 1148.02,-146.36 1206.49,-165.57 1262.5,-74 1271.98,-58.5 1260.25,-39.52 1248.8,-26.37"/>
<polygon fill="#63b8ff" stroke="#63b8ff" points="1251.29,-23.91 1241.89,-19.02 1246.19,-28.7 1251.29,-23.91"/>
</a>
</g>
</g>
<!-- Node27&#45;&gt;Node17 -->
<g id="edge55_Node000027_Node000017" class="edge">
<title>Node27&#45;&gt;Node17</title>
<g id="a_edge55_Node000027_Node000017"><a xlink:title=" ">
<path fill="none" stroke="#63b8ff" d="M922.33,-220.92C964.48,-213.76 1018.15,-201.49 1031.5,-184 1047.24,-163.39 1017.64,-144.71 991.34,-133.03"/>
<polygon fill="#63b8ff" stroke="#63b8ff" points="992.46,-129.7 981.88,-129.05 989.74,-136.15 992.46,-129.7"/>
</a>
</g>
</g>
<!-- Node27&#45;&gt;Node20 -->
<g id="edge54_Node000027_Node000020" class="edge">
<title>Node27&#45;&gt;Node20</title>
<g id="a_edge54_Node000027_Node000020"><a xlink:title=" ">
<path fill="none" stroke="#63b8ff" d="M858.22,-219.98C848.66,-212.07 834.22,-200.11 822.72,-190.58"/>
<polygon fill="#63b8ff" stroke="#63b8ff" points="824.9,-187.85 814.97,-184.17 820.44,-193.24 824.9,-187.85"/>
</a>
</g>
</g>
<!-- Node28 -->
<g id="Node000028" class="node">
<title>Node28</title>
<g id="a_Node000028"><a xlink:title=" ">
<polygon fill="#e0e0e0" stroke="#999999" points="1022,-184 897,-184 897,-165 1022,-165 1022,-184"/>
<text text-anchor="middle" x="959.5" y="-172" font-family="Helvetica,sans-Serif" font-size="10.00">drivers/uart/adi_uart.h</text>
</a>
</g>
</g>
<!-- Node27&#45;&gt;Node28 -->
<g id="edge50_Node000027_Node000028" class="edge">
<title>Node27&#45;&gt;Node28</title>
<g id="a_edge50_Node000027_Node000028"><a xlink:title=" ">
<path fill="none" stroke="#63b8ff" d="M883.12,-219.98C897.36,-211.69 919.25,-198.94 935.95,-189.22"/>
<polygon fill="#63b8ff" stroke="#63b8ff" points="937.73,-192.23 944.61,-184.17 934.21,-186.18 937.73,-192.23"/>
</a>
</g>
</g>
<!-- Node29&#45;&gt;Node25 -->
<g id="edge57_Node000029_Node000025" class="edge">
<title>Node29&#45;&gt;Node25</title>
<g id="a_edge57_Node000029_Node000025"><a xlink:title=" ">
<path fill="none" stroke="#63b8ff" d="M1239.47,-219.75C1241.86,-212.72 1245.29,-202.62 1248.27,-193.84"/>
<polygon fill="#63b8ff" stroke="#63b8ff" points="1251.68,-194.68 1251.58,-184.09 1245.05,-192.43 1251.68,-194.68"/>
</a>
</g>
</g>
<!-- Node30&#45;&gt;Node5 -->
<g id="edge60_Node000030_Node000005" class="edge">
<title>Node30&#45;&gt;Node5</title>
<g id="a_edge60_Node000030_Node000005"><a xlink:title=" ">
<path fill="none" stroke="#63b8ff" d="M316.25,-114.49C458.82,-104.43 830.01,-78.24 962.58,-68.88"/>
<polygon fill="#63b8ff" stroke="#63b8ff" points="963.08,-72.36 972.81,-68.16 962.59,-65.37 963.08,-72.36"/>
</a>
</g>
</g>
<!-- Node30&#45;&gt;Node6 -->
<g id="edge59_Node000030_Node000006" class="edge">
<title>Node30&#45;&gt;Node6</title>
<g id="a_edge59_Node000030_Node000006"><a xlink:title=" ">
<path fill="none" stroke="#63b8ff" d="M261.81,-109.74C266.06,-95.56 276.56,-67.87 296.5,-55 361.25,-13.22 598.43,-9.81 690.56,-10.12"/>
<polygon fill="#63b8ff" stroke="#63b8ff" points="690.79,-13.62 700.8,-10.17 690.82,-6.62 690.79,-13.62"/>
</a>
</g>
</g>
<!-- Node30&#45;&gt;Node23 -->
<g id="edge61_Node000030_Node000023" class="edge">
<title>Node30&#45;&gt;Node23</title>
<g id="a_edge61_Node000030_Node000023"><a xlink:title=" ">
<path fill="none" stroke="#63b8ff" d="M224.64,-109.98C187.41,-100.89 128.3,-86.46 87.57,-76.51"/>
<polygon fill="#63b8ff" stroke="#63b8ff" points="88.18,-73.05 77.64,-74.08 86.52,-79.85 88.18,-73.05"/>
</a>
</g>
</g>
<!-- Node31 -->
<g id="Node000031" class="node">
<title>Node31</title>
<g id="a_Node000031"><a xlink:title=" ">
<polygon fill="#e0e0e0" stroke="#999999" points="222,-74 103,-74 103,-55 222,-55 222,-74"/>
<text text-anchor="middle" x="162.5" y="-62" font-family="Helvetica,sans-Serif" font-size="10.00">drivers/tmr/adi_tmr.h</text>
</a>
</g>
</g>
<!-- Node30&#45;&gt;Node31 -->
<g id="edge62_Node000030_Node000031" class="edge">
<title>Node30&#45;&gt;Node31</title>
<g id="a_edge62_Node000030_Node000031"><a xlink:title=" ">
<path fill="none" stroke="#63b8ff" d="M243.92,-109.98C228.73,-101.69 205.4,-88.94 187.6,-79.22"/>
<polygon fill="#63b8ff" stroke="#63b8ff" points="188.82,-75.89 178.37,-74.17 185.47,-82.04 188.82,-75.89"/>
</a>
</g>
</g>
</g>
</svg>
