<?xml version="1.0" encoding="UTF-8" standalone="no"?>
<!DOCTYPE svg PUBLIC "-//W3C//DTD SVG 1.1//EN"
 "http://www.w3.org/Graphics/SVG/1.1/DTD/svg11.dtd">
<!-- Generated by graphviz version 2.43.0 (0)
 -->
<!-- Title: /home/runner/work/no&#45;OS/no&#45;OS/drivers/net/iio_max24287.c Pages: 1 -->
<svg width="735pt" height="324pt"
 viewBox="0.00 0.00 735.11 324.00" xmlns="http://www.w3.org/2000/svg" xmlns:xlink="http://www.w3.org/1999/xlink">
<g id="graph0" class="graph" transform="scale(1 1) rotate(0) translate(4 320)">
<title>/home/runner/work/no&#45;OS/no&#45;OS/drivers/net/iio_max24287.c</title>
<!-- Node1 -->
<g id="Node000001" class="node">
<title>Node1</title>
<g id="a_Node000001"><a xlink:title=" ">
<polygon fill="#999999" stroke="#666666" points="316.61,-316 192.61,-316 192.61,-275 316.61,-275 316.61,-316"/>
<text text-anchor="start" x="200.61" y="-304" font-family="Helvetica,sans-Serif" font-size="10.00">/home/runner/work/no</text>
<text text-anchor="start" x="200.61" y="-293" font-family="Helvetica,sans-Serif" font-size="10.00">&#45;OS/no&#45;OS/drivers/net</text>
<text text-anchor="middle" x="254.61" y="-282" font-family="Helvetica,sans-Serif" font-size="10.00">/iio_max24287.c</text>
</a>
</g>
</g>
<!-- Node2 -->
<g id="Node000002" class="node">
<title>Node2</title>
<g id="a_Node000002"><a xlink:title=" ">
<polygon fill="#e0e0e0" stroke="#999999" points="130.11,-19 77.11,-19 77.11,0 130.11,0 130.11,-19"/>
<text text-anchor="middle" x="103.61" y="-7" font-family="Helvetica,sans-Serif" font-size="10.00">stdlib.h</text>
</a>
</g>
</g>
<!-- Node1&#45;&gt;Node2 -->
<g id="edge1_Node000001_Node000002" class="edge">
<title>Node1&#45;&gt;Node2</title>
<g id="a_edge1_Node000001_Node000002"><a xlink:title=" ">
<path fill="none" stroke="#63b8ff" d="M192.53,-286.93C131.59,-278.28 44.28,-262.26 19.61,-239 -1.83,-218.79 0.61,-204.96 0.61,-175.5 0.61,-175.5 0.61,-175.5 0.61,-118.5 0.61,-74.36 46.23,-41.13 76.75,-23.85"/>
<polygon fill="#63b8ff" stroke="#63b8ff" points="78.55,-26.85 85.67,-19 75.21,-20.7 78.55,-26.85"/>
</a>
</g>
</g>
<!-- Node3 -->
<g id="Node000003" class="node">
<title>Node3</title>
<g id="a_Node000003"><a xlink:title=" ">
<polygon fill="#e0e0e0" stroke="#999999" points="493.11,-239 440.11,-239 440.11,-220 493.11,-220 493.11,-239"/>
<text text-anchor="middle" x="466.61" y="-227" font-family="Helvetica,sans-Serif" font-size="10.00">string.h</text>
</a>
</g>
</g>
<!-- Node1&#45;&gt;Node3 -->
<g id="edge2_Node000001_Node000003" class="edge">
<title>Node1&#45;&gt;Node3</title>
<g id="a_edge2_Node000001_Node000003"><a xlink:title=" ">
<path fill="none" stroke="#63b8ff" d="M316.78,-275.73C353.56,-264.63 398.87,-250.95 429.97,-241.56"/>
<polygon fill="#63b8ff" stroke="#63b8ff" points="431.38,-244.79 439.95,-238.55 429.36,-238.09 431.38,-244.79"/>
</a>
</g>
</g>
<!-- Node4 -->
<g id="Node000004" class="node">
<title>Node4</title>
<g id="a_Node000004"><a xlink:title=" ">
<polygon fill="#e0e0e0" stroke="#999999" points="149.61,-184 99.61,-184 99.61,-165 149.61,-165 149.61,-184"/>
<text text-anchor="middle" x="124.61" y="-172" font-family="Helvetica,sans-Serif" font-size="10.00">stdio.h</text>
</a>
</g>
</g>
<!-- Node1&#45;&gt;Node4 -->
<g id="edge3_Node000001_Node000004" class="edge">
<title>Node1&#45;&gt;Node4</title>
<g id="a_edge3_Node000001_Node000004"><a xlink:title=" ">
<path fill="none" stroke="#63b8ff" d="M214.18,-274.8C197.59,-265.46 178.95,-253.21 164.61,-239 151.18,-225.7 140.13,-207.09 133.07,-193.45"/>
<polygon fill="#63b8ff" stroke="#63b8ff" points="136.05,-191.58 128.48,-184.17 129.78,-194.68 136.05,-191.58"/>
</a>
</g>
</g>
<!-- Node5 -->
<g id="Node000005" class="node">
<title>Node5</title>
<g id="a_Node000005"><a xlink:href="no__os__error_8h.html" target="_top" xlink:title="Error codes definition.">
<polygon fill="white" stroke="#666666" points="593.61,-239 511.61,-239 511.61,-220 593.61,-220 593.61,-239"/>
<text text-anchor="middle" x="552.61" y="-227" font-family="Helvetica,sans-Serif" font-size="10.00">no_os_error.h</text>
</a>
</g>
</g>
<!-- Node1&#45;&gt;Node5 -->
<g id="edge4_Node000001_Node000005" class="edge">
<title>Node1&#45;&gt;Node5</title>
<g id="a_edge4_Node000001_Node000005"><a xlink:title=" ">
<path fill="none" stroke="#63b8ff" d="M316.72,-281.16C372.05,-269.28 451.95,-252.12 503.08,-241.14"/>
<polygon fill="#63b8ff" stroke="#63b8ff" points="503.87,-244.55 512.91,-239.03 502.4,-237.7 503.87,-244.55"/>
</a>
</g>
</g>
<!-- Node7 -->
<g id="Node000007" class="node">
<title>Node7</title>
<g id="a_Node000007"><a xlink:href="no__os__delay_8h.html" target="_top" xlink:title="Header file of Delay functions.">
<polygon fill="white" stroke="#666666" points="727.11,-129 642.11,-129 642.11,-110 727.11,-110 727.11,-129"/>
<text text-anchor="middle" x="684.61" y="-117" font-family="Helvetica,sans-Serif" font-size="10.00">no_os_delay.h</text>
</a>
</g>
</g>
<!-- Node1&#45;&gt;Node7 -->
<g id="edge6_Node000001_Node000007" class="edge">
<title>Node1&#45;&gt;Node7</title>
<g id="a_edge6_Node000001_Node000007"><a xlink:title=" ">
<path fill="none" stroke="#63b8ff" d="M294.44,-274.93C367.85,-238.87 517.17,-165.54 518.61,-165 556.46,-150.8 600.74,-139.16 634.04,-131.36"/>
<polygon fill="#63b8ff" stroke="#63b8ff" points="635.05,-134.72 644.01,-129.06 633.48,-127.9 635.05,-134.72"/>
</a>
</g>
</g>
<!-- Node9 -->
<g id="Node000009" class="node">
<title>Node9</title>
<g id="a_Node000009"><a xlink:href="no__os__util_8h.html" target="_top" xlink:title="Header file of utility functions.">
<polygon fill="white" stroke="#666666" points="174.11,-74 99.11,-74 99.11,-55 174.11,-55 174.11,-74"/>
<text text-anchor="middle" x="136.61" y="-62" font-family="Helvetica,sans-Serif" font-size="10.00">no_os_util.h</text>
</a>
</g>
</g>
<!-- Node1&#45;&gt;Node9 -->
<g id="edge8_Node000001_Node000009" class="edge">
<title>Node1&#45;&gt;Node9</title>
<g id="a_edge8_Node000001_Node000009"><a xlink:title=" ">
<path fill="none" stroke="#63b8ff" d="M244.55,-274.98C222,-231.21 167.67,-125.79 145.88,-83.5"/>
<polygon fill="#63b8ff" stroke="#63b8ff" points="148.88,-81.68 141.19,-74.39 142.66,-84.89 148.88,-81.68"/>
</a>
</g>
</g>
<!-- Node11 -->
<g id="Node000011" class="node">
<title>Node11</title>
<g id="a_Node000011"><a xlink:href="no__os__alloc_8h.html" target="_top" xlink:title=" ">
<polygon fill="white" stroke="#666666" points="112.11,-239 29.11,-239 29.11,-220 112.11,-220 112.11,-239"/>
<text text-anchor="middle" x="70.61" y="-227" font-family="Helvetica,sans-Serif" font-size="10.00">no_os_alloc.h</text>
</a>
</g>
</g>
<!-- Node1&#45;&gt;Node11 -->
<g id="edge12_Node000001_Node000011" class="edge">
<title>Node1&#45;&gt;Node11</title>
<g id="a_edge12_Node000001_Node000011"><a xlink:title=" ">
<path fill="none" stroke="#63b8ff" d="M198.4,-274.95C167.85,-264.32 131.06,-251.53 104.82,-242.4"/>
<polygon fill="#63b8ff" stroke="#63b8ff" points="105.9,-239.07 95.31,-239.09 103.61,-245.68 105.9,-239.07"/>
</a>
</g>
</g>
<!-- Node12 -->
<g id="Node000012" class="node">
<title>Node12</title>
<g id="a_Node000012"><a xlink:href="iio__max24287_8h.html" target="_top" xlink:title=" ">
<polygon fill="white" stroke="#666666" points="340.11,-239 245.11,-239 245.11,-220 340.11,-220 340.11,-239"/>
<text text-anchor="middle" x="292.61" y="-227" font-family="Helvetica,sans-Serif" font-size="10.00">iio_max24287.h</text>
</a>
</g>
</g>
<!-- Node1&#45;&gt;Node12 -->
<g id="edge15_Node000001_Node000012" class="edge">
<title>Node1&#45;&gt;Node12</title>
<g id="a_edge15_Node000001_Node000012"><a xlink:title=" ">
<path fill="none" stroke="#63b8ff" d="M266.22,-274.95C271.3,-266.39 277.22,-256.42 282.16,-248.1"/>
<polygon fill="#63b8ff" stroke="#63b8ff" points="285.31,-249.65 287.41,-239.26 279.29,-246.07 285.31,-249.65"/>
</a>
</g>
</g>
<!-- Node13 -->
<g id="Node000013" class="node">
<title>Node13</title>
<g id="a_Node000013"><a xlink:href="iio_8h.html" target="_top" xlink:title="Header file of iio.">
<polygon fill="white" stroke="#666666" points="383.61,-184 345.61,-184 345.61,-165 383.61,-165 383.61,-184"/>
<text text-anchor="middle" x="364.61" y="-172" font-family="Helvetica,sans-Serif" font-size="10.00">iio.h</text>
</a>
</g>
</g>
<!-- Node1&#45;&gt;Node13 -->
<g id="edge37_Node000001_Node000013" class="edge">
<title>Node1&#45;&gt;Node13</title>
<g id="a_edge37_Node000001_Node000013"><a xlink:title=" ">
<path fill="none" stroke="#63b8ff" d="M304.79,-274.9C321.27,-266.18 338.25,-254.36 349.61,-239 359.19,-226.05 362.75,-207.9 364.03,-194.32"/>
<polygon fill="#63b8ff" stroke="#63b8ff" points="367.53,-194.39 364.65,-184.2 360.55,-193.96 367.53,-194.39"/>
</a>
</g>
</g>
<!-- Node18 -->
<g id="Node000018" class="node">
<title>Node18</title>
<g id="a_Node000018"><a xlink:href="max24287_8h.html" target="_top" xlink:title=" ">
<polygon fill="white" stroke="#666666" points="314.11,-184 237.11,-184 237.11,-165 314.11,-165 314.11,-184"/>
<text text-anchor="middle" x="275.61" y="-172" font-family="Helvetica,sans-Serif" font-size="10.00">max24287.h</text>
</a>
</g>
</g>
<!-- Node1&#45;&gt;Node18 -->
<g id="edge36_Node000001_Node000018" class="edge">
<title>Node1&#45;&gt;Node18</title>
<g id="a_edge36_Node000001_Node000018"><a xlink:title=" ">
<path fill="none" stroke="#63b8ff" d="M243.08,-274.82C235.7,-259.57 228.68,-238.07 235.61,-220 239.85,-208.94 248.24,-198.91 256.25,-191.18"/>
<polygon fill="#63b8ff" stroke="#63b8ff" points="258.86,-193.55 263.97,-184.27 254.18,-188.33 258.86,-193.55"/>
</a>
</g>
</g>
<!-- Node6 -->
<g id="Node000006" class="node">
<title>Node6</title>
<g id="a_Node000006"><a xlink:href="errno_8h.html" target="_top" xlink:title="Error macro definition for ARM Compiler.">
<polygon fill="white" stroke="#666666" points="578.11,-184 527.11,-184 527.11,-165 578.11,-165 578.11,-184"/>
<text text-anchor="middle" x="552.61" y="-172" font-family="Helvetica,sans-Serif" font-size="10.00">errno.h</text>
</a>
</g>
</g>
<!-- Node5&#45;&gt;Node6 -->
<g id="edge5_Node000005_Node000006" class="edge">
<title>Node5&#45;&gt;Node6</title>
<g id="a_edge5_Node000005_Node000006"><a xlink:title=" ">
<path fill="none" stroke="#63b8ff" d="M552.61,-219.75C552.61,-212.8 552.61,-202.85 552.61,-194.13"/>
<polygon fill="#63b8ff" stroke="#63b8ff" points="556.11,-194.09 552.61,-184.09 549.11,-194.09 556.11,-194.09"/>
</a>
</g>
</g>
<!-- Node8 -->
<g id="Node000008" class="node">
<title>Node8</title>
<g id="a_Node000008"><a xlink:title=" ">
<polygon fill="#e0e0e0" stroke="#999999" points="480.11,-19 427.11,-19 427.11,0 480.11,0 480.11,-19"/>
<text text-anchor="middle" x="453.61" y="-7" font-family="Helvetica,sans-Serif" font-size="10.00">stdint.h</text>
</a>
</g>
</g>
<!-- Node7&#45;&gt;Node8 -->
<g id="edge7_Node000007_Node000008" class="edge">
<title>Node7&#45;&gt;Node8</title>
<g id="a_edge7_Node000007_Node000008"><a xlink:title=" ">
<path fill="none" stroke="#63b8ff" d="M694.04,-109.88C707.17,-96.84 727.83,-71.86 713.61,-55 685.5,-21.67 555.38,-13.3 490.54,-11.2"/>
<polygon fill="#63b8ff" stroke="#63b8ff" points="490.44,-7.7 480.35,-10.91 490.24,-14.7 490.44,-7.7"/>
</a>
</g>
</g>
<!-- Node9&#45;&gt;Node2 -->
<g id="edge10_Node000009_Node000002" class="edge">
<title>Node9&#45;&gt;Node2</title>
<g id="a_edge10_Node000009_Node000002"><a xlink:title=" ">
<path fill="none" stroke="#63b8ff" d="M131.16,-54.75C126.59,-47.42 119.94,-36.73 114.32,-27.7"/>
<polygon fill="#63b8ff" stroke="#63b8ff" points="117.21,-25.73 108.96,-19.09 111.27,-29.43 117.21,-25.73"/>
</a>
</g>
</g>
<!-- Node9&#45;&gt;Node8 -->
<g id="edge9_Node000009_Node000008" class="edge">
<title>Node9&#45;&gt;Node8</title>
<g id="a_edge9_Node000009_Node000008"><a xlink:title=" ">
<path fill="none" stroke="#63b8ff" d="M174.22,-57.21C235.61,-46.95 356.58,-26.72 417.19,-16.59"/>
<polygon fill="#63b8ff" stroke="#63b8ff" points="417.8,-20.04 427.08,-14.93 416.64,-13.13 417.8,-20.04"/>
</a>
</g>
</g>
<!-- Node10 -->
<g id="Node000010" class="node">
<title>Node10</title>
<g id="a_Node000010"><a xlink:title=" ">
<polygon fill="#e0e0e0" stroke="#999999" points="311.61,-19 249.61,-19 249.61,0 311.61,0 311.61,-19"/>
<text text-anchor="middle" x="280.61" y="-7" font-family="Helvetica,sans-Serif" font-size="10.00">stdbool.h</text>
</a>
</g>
</g>
<!-- Node9&#45;&gt;Node10 -->
<g id="edge11_Node000009_Node000010" class="edge">
<title>Node9&#45;&gt;Node10</title>
<g id="a_edge11_Node000009_Node000010"><a xlink:title=" ">
<path fill="none" stroke="#63b8ff" d="M159.74,-54.98C183.43,-46.27 220.48,-32.63 247.31,-22.75"/>
<polygon fill="#63b8ff" stroke="#63b8ff" points="248.88,-25.91 257.05,-19.17 246.46,-19.34 248.88,-25.91"/>
</a>
</g>
</g>
<!-- Node11&#45;&gt;Node2 -->
<g id="edge14_Node000011_Node000002" class="edge">
<title>Node11&#45;&gt;Node2</title>
<g id="a_edge14_Node000011_Node000002"><a xlink:title=" ">
<path fill="none" stroke="#63b8ff" d="M70.96,-219.74C72.12,-194.13 76.53,-117.28 89.61,-55 91.44,-46.28 94.28,-36.84 96.93,-28.9"/>
<polygon fill="#63b8ff" stroke="#63b8ff" points="100.31,-29.82 100.3,-19.23 93.7,-27.52 100.31,-29.82"/>
</a>
</g>
</g>
<!-- Node11&#45;&gt;Node4 -->
<g id="edge13_Node000011_Node000004" class="edge">
<title>Node11&#45;&gt;Node4</title>
<g id="a_edge13_Node000011_Node000004"><a xlink:title=" ">
<path fill="none" stroke="#63b8ff" d="M79.53,-219.75C87.39,-212.03 99.04,-200.6 108.53,-191.28"/>
<polygon fill="#63b8ff" stroke="#63b8ff" points="111.17,-193.59 115.86,-184.09 106.27,-188.6 111.17,-193.59"/>
</a>
</g>
</g>
<!-- Node12&#45;&gt;Node13 -->
<g id="edge16_Node000012_Node000013" class="edge">
<title>Node12&#45;&gt;Node13</title>
<g id="a_edge16_Node000012_Node000013"><a xlink:title=" ">
<path fill="none" stroke="#63b8ff" d="M304.18,-219.98C315.03,-212 331.49,-199.88 344.49,-190.31"/>
<polygon fill="#63b8ff" stroke="#63b8ff" points="346.85,-192.92 352.83,-184.17 342.7,-187.28 346.85,-192.92"/>
</a>
</g>
</g>
<!-- Node12&#45;&gt;Node18 -->
<g id="edge29_Node000012_Node000018" class="edge">
<title>Node12&#45;&gt;Node18</title>
<g id="a_edge29_Node000012_Node000018"><a xlink:title=" ">
<path fill="none" stroke="#63b8ff" d="M289.8,-219.75C287.55,-212.72 284.31,-202.62 281.49,-193.84"/>
<polygon fill="#63b8ff" stroke="#63b8ff" points="284.75,-192.54 278.36,-184.09 278.08,-194.68 284.75,-192.54"/>
</a>
</g>
</g>
<!-- Node14 -->
<g id="Node000014" class="node">
<title>Node14</title>
<g id="a_Node000014"><a xlink:href="iio__types_8h.html" target="_top" xlink:title="Header file for iio_types.">
<polygon fill="white" stroke="#666666" points="576.61,-129 506.61,-129 506.61,-110 576.61,-110 576.61,-129"/>
<text text-anchor="middle" x="541.61" y="-117" font-family="Helvetica,sans-Serif" font-size="10.00">iio_types.h</text>
</a>
</g>
</g>
<!-- Node13&#45;&gt;Node14 -->
<g id="edge17_Node000013_Node000014" class="edge">
<title>Node13&#45;&gt;Node14</title>
<g id="a_edge17_Node000013_Node000014"><a xlink:title=" ">
<path fill="none" stroke="#63b8ff" d="M383.89,-167.73C412.39,-159.19 466.35,-143.03 503.14,-132.02"/>
<polygon fill="#63b8ff" stroke="#63b8ff" points="504.45,-135.28 513.03,-129.06 502.44,-128.57 504.45,-135.28"/>
</a>
</g>
</g>
<!-- Node16 -->
<g id="Node000016" class="node">
<title>Node16</title>
<g id="a_Node000016"><a xlink:href="no__os__uart_8h.html" target="_top" xlink:title="Header file of UART interface.">
<polygon fill="white" stroke="#666666" points="414.11,-129 335.11,-129 335.11,-110 414.11,-110 414.11,-129"/>
<text text-anchor="middle" x="374.61" y="-117" font-family="Helvetica,sans-Serif" font-size="10.00">no_os_uart.h</text>
</a>
</g>
</g>
<!-- Node13&#45;&gt;Node16 -->
<g id="edge22_Node000013_Node000016" class="edge">
<title>Node13&#45;&gt;Node16</title>
<g id="a_edge22_Node000013_Node000016"><a xlink:title=" ">
<path fill="none" stroke="#63b8ff" d="M366.26,-164.75C367.57,-157.8 369.45,-147.85 371.09,-139.13"/>
<polygon fill="#63b8ff" stroke="#63b8ff" points="374.57,-139.56 372.99,-129.09 367.69,-138.27 374.57,-139.56"/>
</a>
</g>
</g>
<!-- Node14&#45;&gt;Node8 -->
<g id="edge19_Node000014_Node000008" class="edge">
<title>Node14&#45;&gt;Node8</title>
<g id="a_edge19_Node000014_Node000008"><a xlink:title=" ">
<path fill="none" stroke="#63b8ff" d="M541.26,-109.84C540.34,-96.75 536.95,-71.71 524.61,-55 514.57,-41.41 499.01,-30.98 485.02,-23.66"/>
<polygon fill="#63b8ff" stroke="#63b8ff" points="486.19,-20.33 475.67,-19.08 483.11,-26.62 486.19,-20.33"/>
</a>
</g>
</g>
<!-- Node14&#45;&gt;Node10 -->
<g id="edge18_Node000014_Node000010" class="edge">
<title>Node14&#45;&gt;Node10</title>
<g id="a_edge18_Node000014_Node000010"><a xlink:title=" ">
<path fill="none" stroke="#63b8ff" d="M520.69,-109.84C474.57,-90.76 364.01,-45.01 310.55,-22.89"/>
<polygon fill="#63b8ff" stroke="#63b8ff" points="311.84,-19.64 301.26,-19.05 309.17,-26.1 311.84,-19.64"/>
</a>
</g>
</g>
<!-- Node15 -->
<g id="Node000015" class="node">
<title>Node15</title>
<g id="a_Node000015"><a xlink:href="no__os__circular__buffer_8h.html" target="_top" xlink:title="Circular buffer library header.">
<polygon fill="white" stroke="#666666" points="704.61,-74 576.61,-74 576.61,-55 704.61,-55 704.61,-74"/>
<text text-anchor="middle" x="640.61" y="-62" font-family="Helvetica,sans-Serif" font-size="10.00">no_os_circular_buffer.h</text>
</a>
</g>
</g>
<!-- Node14&#45;&gt;Node15 -->
<g id="edge20_Node000014_Node000015" class="edge">
<title>Node14&#45;&gt;Node15</title>
<g id="a_edge20_Node000014_Node000015"><a xlink:title=" ">
<path fill="none" stroke="#63b8ff" d="M557.51,-109.98C573.15,-101.61 597.26,-88.7 615.49,-78.95"/>
<polygon fill="#63b8ff" stroke="#63b8ff" points="617.25,-81.98 624.41,-74.17 613.94,-75.8 617.25,-81.98"/>
</a>
</g>
</g>
<!-- Node15&#45;&gt;Node8 -->
<g id="edge21_Node000015_Node000008" class="edge">
<title>Node15&#45;&gt;Node8</title>
<g id="a_edge21_Node000015_Node000008"><a xlink:title=" ">
<path fill="none" stroke="#63b8ff" d="M610.56,-54.98C577.77,-45.69 525.25,-30.81 490.11,-20.85"/>
<polygon fill="#63b8ff" stroke="#63b8ff" points="490.82,-17.41 480.25,-18.05 488.91,-24.14 490.82,-17.41"/>
</a>
</g>
</g>
<!-- Node16&#45;&gt;Node8 -->
<g id="edge23_Node000016_Node000008" class="edge">
<title>Node16&#45;&gt;Node8</title>
<g id="a_edge23_Node000016_Node000008"><a xlink:title=" ">
<path fill="none" stroke="#63b8ff" d="M382.01,-109.81C389.45,-100.96 401.14,-86.77 410.61,-74 421.96,-58.68 434.07,-40.62 442.54,-27.69"/>
<polygon fill="#63b8ff" stroke="#63b8ff" points="445.48,-29.58 447.99,-19.29 439.61,-25.77 445.48,-29.58"/>
</a>
</g>
</g>
<!-- Node16&#45;&gt;Node10 -->
<g id="edge24_Node000016_Node000010" class="edge">
<title>Node16&#45;&gt;Node10</title>
<g id="a_edge24_Node000016_Node000010"><a xlink:title=" ">
<path fill="none" stroke="#63b8ff" d="M371.29,-109.99C365.97,-97.1 354.61,-72.31 339.61,-55 329.43,-43.26 315.67,-32.66 304.01,-24.76"/>
<polygon fill="#63b8ff" stroke="#63b8ff" points="305.87,-21.8 295.58,-19.27 302.05,-27.66 305.87,-21.8"/>
</a>
</g>
</g>
<!-- Node17 -->
<g id="Node000017" class="node">
<title>Node17</title>
<g id="a_Node000017"><a xlink:href="no__os__lf256fifo_8h.html" target="_top" xlink:title="SPSC lock&#45;free fifo of fixed size (256), specialized for UART.">
<polygon fill="white" stroke="#666666" points="330.61,-74 230.61,-74 230.61,-55 330.61,-55 330.61,-74"/>
<text text-anchor="middle" x="280.61" y="-62" font-family="Helvetica,sans-Serif" font-size="10.00">no_os_lf256fifo.h</text>
</a>
</g>
</g>
<!-- Node16&#45;&gt;Node17 -->
<g id="edge25_Node000016_Node000017" class="edge">
<title>Node16&#45;&gt;Node17</title>
<g id="a_edge25_Node000016_Node000017"><a xlink:title=" ">
<path fill="none" stroke="#63b8ff" d="M359.51,-109.98C344.79,-101.69 322.18,-88.94 304.93,-79.22"/>
<polygon fill="#63b8ff" stroke="#63b8ff" points="306.42,-76.03 295.99,-74.17 302.98,-82.13 306.42,-76.03"/>
</a>
</g>
</g>
<!-- Node17&#45;&gt;Node2 -->
<g id="edge26_Node000017_Node000002" class="edge">
<title>Node17&#45;&gt;Node2</title>
<g id="a_edge26_Node000017_Node000002"><a xlink:title=" ">
<path fill="none" stroke="#63b8ff" d="M252.17,-54.98C221.71,-45.86 173.26,-31.36 140.03,-21.41"/>
<polygon fill="#63b8ff" stroke="#63b8ff" points="140.82,-17.99 130.24,-18.47 138.81,-24.7 140.82,-17.99"/>
</a>
</g>
</g>
<!-- Node17&#45;&gt;Node8 -->
<g id="edge27_Node000017_Node000008" class="edge">
<title>Node17&#45;&gt;Node8</title>
<g id="a_edge27_Node000017_Node000008"><a xlink:title=" ">
<path fill="none" stroke="#63b8ff" d="M308.4,-54.98C338.01,-45.92 384.98,-31.53 417.44,-21.58"/>
<polygon fill="#63b8ff" stroke="#63b8ff" points="418.48,-24.92 427.02,-18.65 416.43,-18.23 418.48,-24.92"/>
</a>
</g>
</g>
<!-- Node17&#45;&gt;Node10 -->
<g id="edge28_Node000017_Node000010" class="edge">
<title>Node17&#45;&gt;Node10</title>
<g id="a_edge28_Node000017_Node000010"><a xlink:title=" ">
<path fill="none" stroke="#63b8ff" d="M280.61,-54.75C280.61,-47.8 280.61,-37.85 280.61,-29.13"/>
<polygon fill="#63b8ff" stroke="#63b8ff" points="284.11,-29.09 280.61,-19.09 277.11,-29.09 284.11,-29.09"/>
</a>
</g>
</g>
<!-- Node18&#45;&gt;Node8 -->
<g id="edge30_Node000018_Node000008" class="edge">
<title>Node18&#45;&gt;Node8</title>
<g id="a_edge30_Node000018_Node000008"><a xlink:title=" ">
<path fill="none" stroke="#63b8ff" d="M314.38,-166.33C352.97,-158.44 408.54,-144.75 423.61,-129 449.68,-101.75 454.01,-55.23 454.22,-29.33"/>
<polygon fill="#63b8ff" stroke="#63b8ff" points="457.72,-29.27 454.1,-19.31 450.72,-29.35 457.72,-29.27"/>
</a>
</g>
</g>
<!-- Node18&#45;&gt;Node9 -->
<g id="edge31_Node000018_Node000009" class="edge">
<title>Node18&#45;&gt;Node9</title>
<g id="a_edge31_Node000018_Node000009"><a xlink:title=" ">
<path fill="none" stroke="#63b8ff" d="M264.23,-164.66C240.49,-146.22 185.45,-103.45 156,-80.57"/>
<polygon fill="#63b8ff" stroke="#63b8ff" points="157.8,-77.53 147.75,-74.16 153.5,-83.06 157.8,-77.53"/>
</a>
</g>
</g>
<!-- Node19 -->
<g id="Node000019" class="node">
<title>Node19</title>
<g id="a_Node000019"><a xlink:href="no__os__mdio_8h.html" target="_top" xlink:title="Header file for MDIO interface driver.">
<polygon fill="white" stroke="#666666" points="317.61,-129 233.61,-129 233.61,-110 317.61,-110 317.61,-129"/>
<text text-anchor="middle" x="275.61" y="-117" font-family="Helvetica,sans-Serif" font-size="10.00">no_os_mdio.h</text>
</a>
</g>
</g>
<!-- Node18&#45;&gt;Node19 -->
<g id="edge32_Node000018_Node000019" class="edge">
<title>Node18&#45;&gt;Node19</title>
<g id="a_edge32_Node000018_Node000019"><a xlink:title=" ">
<path fill="none" stroke="#63b8ff" d="M275.61,-164.75C275.61,-157.8 275.61,-147.85 275.61,-139.13"/>
<polygon fill="#63b8ff" stroke="#63b8ff" points="279.11,-139.09 275.61,-129.09 272.11,-139.09 279.11,-139.09"/>
</a>
</g>
</g>
<!-- Node19&#45;&gt;Node8 -->
<g id="edge34_Node000019_Node000008" class="edge">
<title>Node19&#45;&gt;Node8</title>
<g id="a_edge34_Node000019_Node000008"><a xlink:title=" ">
<path fill="none" stroke="#63b8ff" d="M289.87,-109.84C320.6,-91.2 393.26,-47.11 430.59,-24.46"/>
<polygon fill="#63b8ff" stroke="#63b8ff" points="432.54,-27.38 439.27,-19.2 428.91,-21.39 432.54,-27.38"/>
</a>
</g>
</g>
<!-- Node19&#45;&gt;Node9 -->
<g id="edge35_Node000019_Node000009" class="edge">
<title>Node19&#45;&gt;Node9</title>
<g id="a_edge35_Node000019_Node000009"><a xlink:title=" ">
<path fill="none" stroke="#63b8ff" d="M253.28,-109.98C230.41,-101.27 194.65,-87.63 168.75,-77.75"/>
<polygon fill="#63b8ff" stroke="#63b8ff" points="169.94,-74.46 159.35,-74.17 167.44,-81 169.94,-74.46"/>
</a>
</g>
</g>
<!-- Node19&#45;&gt;Node10 -->
<g id="edge33_Node000019_Node000010" class="edge">
<title>Node19&#45;&gt;Node10</title>
<g id="a_edge33_Node000019_Node000010"><a xlink:title=" ">
<path fill="none" stroke="#63b8ff" d="M258.74,-109.87C239.03,-98.53 210.44,-77.41 221.61,-55 228.17,-41.82 240.71,-31.52 252.54,-24.16"/>
<polygon fill="#63b8ff" stroke="#63b8ff" points="254.41,-27.12 261.34,-19.1 250.93,-21.05 254.41,-27.12"/>
</a>
</g>
</g>
</g>
</svg>
