<?xml version="1.0" encoding="UTF-8" standalone="no"?>
<!DOCTYPE svg PUBLIC "-//W3C//DTD SVG 1.1//EN"
 "http://www.w3.org/Graphics/SVG/1.1/DTD/svg11.dtd">
<!-- Generated by graphviz version 2.43.0 (0)
 -->
<!-- Title: /home/runner/work/no&#45;OS/no&#45;OS/drivers/adc/adc_demo/iio_adc_demo.h Pages: 1 -->
<svg width="382pt" height="269pt"
 viewBox="0.00 0.00 382.00 269.00" xmlns="http://www.w3.org/2000/svg" xmlns:xlink="http://www.w3.org/1999/xlink">
<g id="graph0" class="graph" transform="scale(1 1) rotate(0) translate(4 265)">
<title>/home/runner/work/no&#45;OS/no&#45;OS/drivers/adc/adc_demo/iio_adc_demo.h</title>
<!-- Node1 -->
<g id="Node000001" class="node">
<title>Node1</title>
<g id="a_Node000001"><a xlink:title="Header file of ADC Demo iio.">
<polygon fill="#999999" stroke="#666666" points="269.5,-261 120.5,-261 120.5,-220 269.5,-220 269.5,-261"/>
<text text-anchor="start" x="128.5" y="-249" font-family="Helvetica,sans-Serif" font-size="10.00">/home/runner/work/no</text>
<text text-anchor="start" x="128.5" y="-238" font-family="Helvetica,sans-Serif" font-size="10.00">&#45;OS/no&#45;OS/drivers/adc</text>
<text text-anchor="middle" x="195" y="-227" font-family="Helvetica,sans-Serif" font-size="10.00">/adc_demo/iio_adc_demo.h</text>
</a>
</g>
</g>
<!-- Node2 -->
<g id="Node000002" class="node">
<title>Node2</title>
<g id="a_Node000002"><a xlink:title=" ">
<polygon fill="#e0e0e0" stroke="#999999" points="166.5,-184 113.5,-184 113.5,-165 166.5,-165 166.5,-184"/>
<text text-anchor="middle" x="140" y="-172" font-family="Helvetica,sans-Serif" font-size="10.00">stdlib.h</text>
</a>
</g>
</g>
<!-- Node1&#45;&gt;Node2 -->
<g id="edge1_Node000001_Node000002" class="edge">
<title>Node1&#45;&gt;Node2</title>
<g id="a_edge1_Node000001_Node000002"><a xlink:title=" ">
<path fill="none" stroke="#63b8ff" d="M178.2,-219.95C170.52,-211.02 161.53,-200.55 154.2,-192.02"/>
<polygon fill="#63b8ff" stroke="#63b8ff" points="156.7,-189.56 147.53,-184.26 151.39,-194.13 156.7,-189.56"/>
</a>
</g>
</g>
<!-- Node3 -->
<g id="Node000003" class="node">
<title>Node3</title>
<g id="a_Node000003"><a xlink:href="iio__types_8h.html" target="_top" xlink:title="Header file for iio_types.">
<polygon fill="white" stroke="#666666" points="217,-129 147,-129 147,-110 217,-110 217,-129"/>
<text text-anchor="middle" x="182" y="-117" font-family="Helvetica,sans-Serif" font-size="10.00">iio_types.h</text>
</a>
</g>
</g>
<!-- Node1&#45;&gt;Node3 -->
<g id="edge2_Node000001_Node000003" class="edge">
<title>Node1&#45;&gt;Node3</title>
<g id="a_edge2_Node000001_Node000003"><a xlink:title=" ">
<path fill="none" stroke="#63b8ff" d="M192.85,-219.85C190.41,-197.48 186.45,-161.19 184.04,-139.21"/>
<polygon fill="#63b8ff" stroke="#63b8ff" points="187.51,-138.74 182.95,-129.18 180.55,-139.5 187.51,-138.74"/>
</a>
</g>
</g>
<!-- Node7 -->
<g id="Node000007" class="node">
<title>Node7</title>
<g id="a_Node000007"><a xlink:href="adc__demo_8h.html" target="_top" xlink:title="Header file of ADC Demo Driver.">
<polygon fill="white" stroke="#666666" points="306,-184 230,-184 230,-165 306,-165 306,-184"/>
<text text-anchor="middle" x="268" y="-172" font-family="Helvetica,sans-Serif" font-size="10.00">adc_demo.h</text>
</a>
</g>
</g>
<!-- Node1&#45;&gt;Node7 -->
<g id="edge7_Node000001_Node000007" class="edge">
<title>Node1&#45;&gt;Node7</title>
<g id="a_edge7_Node000001_Node000007"><a xlink:title=" ">
<path fill="none" stroke="#63b8ff" d="M217.3,-219.95C227.91,-210.65 240.42,-199.68 250.36,-190.96"/>
<polygon fill="#63b8ff" stroke="#63b8ff" points="252.8,-193.48 258.01,-184.26 248.18,-188.22 252.8,-193.48"/>
</a>
</g>
</g>
<!-- Node4 -->
<g id="Node000004" class="node">
<title>Node4</title>
<g id="a_Node000004"><a xlink:title=" ">
<polygon fill="#e0e0e0" stroke="#999999" points="62,-74 0,-74 0,-55 62,-55 62,-74"/>
<text text-anchor="middle" x="31" y="-62" font-family="Helvetica,sans-Serif" font-size="10.00">stdbool.h</text>
</a>
</g>
</g>
<!-- Node3&#45;&gt;Node4 -->
<g id="edge3_Node000003_Node000004" class="edge">
<title>Node3&#45;&gt;Node4</title>
<g id="a_edge3_Node000003_Node000004"><a xlink:title=" ">
<path fill="none" stroke="#63b8ff" d="M157.74,-109.98C132.68,-101.19 93.37,-87.39 65.17,-77.49"/>
<polygon fill="#63b8ff" stroke="#63b8ff" points="66.3,-74.18 55.7,-74.17 63.98,-80.78 66.3,-74.18"/>
</a>
</g>
</g>
<!-- Node5 -->
<g id="Node000005" class="node">
<title>Node5</title>
<g id="a_Node000005"><a xlink:title=" ">
<polygon fill="#e0e0e0" stroke="#999999" points="254.5,-19 201.5,-19 201.5,0 254.5,0 254.5,-19"/>
<text text-anchor="middle" x="228" y="-7" font-family="Helvetica,sans-Serif" font-size="10.00">stdint.h</text>
</a>
</g>
</g>
<!-- Node3&#45;&gt;Node5 -->
<g id="edge4_Node000003_Node000005" class="edge">
<title>Node3&#45;&gt;Node5</title>
<g id="a_edge4_Node000003_Node000005"><a xlink:title=" ">
<path fill="none" stroke="#63b8ff" d="M157.79,-109.95C130.7,-99.01 92.63,-78.6 109,-55 127.39,-28.48 163.63,-17.74 191.31,-13.4"/>
<polygon fill="#63b8ff" stroke="#63b8ff" points="192,-16.84 201.44,-12.04 191.07,-9.91 192,-16.84"/>
</a>
</g>
</g>
<!-- Node6 -->
<g id="Node000006" class="node">
<title>Node6</title>
<g id="a_Node000006"><a xlink:href="no__os__circular__buffer_8h.html" target="_top" xlink:title="Circular buffer library header.">
<polygon fill="white" stroke="#666666" points="246,-74 118,-74 118,-55 246,-55 246,-74"/>
<text text-anchor="middle" x="182" y="-62" font-family="Helvetica,sans-Serif" font-size="10.00">no_os_circular_buffer.h</text>
</a>
</g>
</g>
<!-- Node3&#45;&gt;Node6 -->
<g id="edge5_Node000003_Node000006" class="edge">
<title>Node3&#45;&gt;Node6</title>
<g id="a_edge5_Node000003_Node000006"><a xlink:title=" ">
<path fill="none" stroke="#63b8ff" d="M182,-109.75C182,-102.8 182,-92.85 182,-84.13"/>
<polygon fill="#63b8ff" stroke="#63b8ff" points="185.5,-84.09 182,-74.09 178.5,-84.09 185.5,-84.09"/>
</a>
</g>
</g>
<!-- Node6&#45;&gt;Node5 -->
<g id="edge6_Node000006_Node000005" class="edge">
<title>Node6&#45;&gt;Node5</title>
<g id="a_edge6_Node000006_Node000005"><a xlink:title=" ">
<path fill="none" stroke="#63b8ff" d="M189.6,-54.75C196.16,-47.18 205.82,-36.05 213.81,-26.84"/>
<polygon fill="#63b8ff" stroke="#63b8ff" points="216.63,-28.94 220.55,-19.09 211.35,-24.35 216.63,-28.94"/>
</a>
</g>
</g>
<!-- Node7&#45;&gt;Node3 -->
<g id="edge9_Node000007_Node000003" class="edge">
<title>Node7&#45;&gt;Node3</title>
<g id="a_edge9_Node000007_Node000003"><a xlink:title=" ">
<path fill="none" stroke="#63b8ff" d="M254.18,-164.98C240.85,-156.77 220.42,-144.18 204.69,-134.49"/>
<polygon fill="#63b8ff" stroke="#63b8ff" points="206.42,-131.44 196.07,-129.17 202.75,-137.4 206.42,-131.44"/>
</a>
</g>
</g>
<!-- Node7&#45;&gt;Node5 -->
<g id="edge8_Node000007_Node000005" class="edge">
<title>Node7&#45;&gt;Node5</title>
<g id="a_edge8_Node000007_Node000005"><a xlink:title=" ">
<path fill="none" stroke="#63b8ff" d="M268.31,-164.9C268.76,-144.98 268.37,-94.39 255,-55 251.7,-45.28 246.02,-35.43 240.71,-27.47"/>
<polygon fill="#63b8ff" stroke="#63b8ff" points="243.45,-25.28 234.82,-19.13 237.73,-29.32 243.45,-25.28"/>
</a>
</g>
</g>
<!-- Node8 -->
<g id="Node000008" class="node">
<title>Node8</title>
<g id="a_Node000008"><a xlink:href="no__os__irq_8h.html" target="_top" xlink:title="Header file of IRQ interface.">
<polygon fill="white" stroke="#666666" points="374,-129 302,-129 302,-110 374,-110 374,-129"/>
<text text-anchor="middle" x="338" y="-117" font-family="Helvetica,sans-Serif" font-size="10.00">no_os_irq.h</text>
</a>
</g>
</g>
<!-- Node7&#45;&gt;Node8 -->
<g id="edge10_Node000007_Node000008" class="edge">
<title>Node7&#45;&gt;Node8</title>
<g id="a_edge10_Node000007_Node000008"><a xlink:title=" ">
<path fill="none" stroke="#63b8ff" d="M279.25,-164.98C289.8,-157 305.8,-144.88 318.44,-135.31"/>
<polygon fill="#63b8ff" stroke="#63b8ff" points="320.69,-138 326.55,-129.17 316.46,-132.42 320.69,-138"/>
</a>
</g>
</g>
<!-- Node8&#45;&gt;Node5 -->
<g id="edge11_Node000008_Node000005" class="edge">
<title>Node8&#45;&gt;Node5</title>
<g id="a_edge11_Node000008_Node000005"><a xlink:title=" ">
<path fill="none" stroke="#63b8ff" d="M332.19,-109.69C323.48,-96.84 306.12,-72.6 288,-55 276.44,-43.77 261.96,-32.95 250.12,-24.79"/>
<polygon fill="#63b8ff" stroke="#63b8ff" points="251.92,-21.79 241.67,-19.11 248.01,-27.6 251.92,-21.79"/>
</a>
</g>
</g>
</g>
</svg>
