<?xml version="1.0" encoding="UTF-8" standalone="no"?>
<!DOCTYPE svg PUBLIC "-//W3C//DTD SVG 1.1//EN"
 "http://www.w3.org/Graphics/SVG/1.1/DTD/svg11.dtd">
<!-- Generated by graphviz version 2.43.0 (0)
 -->
<!-- Title: /home/runner/work/no&#45;OS/no&#45;OS/drivers/dac/ltc268x/ltc268x.c Pages: 1 -->
<svg width="494pt" height="214pt"
 viewBox="0.00 0.00 493.91 214.00" xmlns="http://www.w3.org/2000/svg" xmlns:xlink="http://www.w3.org/1999/xlink">
<g id="graph0" class="graph" transform="scale(1 1) rotate(0) translate(4 210)">
<title>/home/runner/work/no&#45;OS/no&#45;OS/drivers/dac/ltc268x/ltc268x.c</title>
<!-- Node1 -->
<g id="Node000001" class="node">
<title>Node1</title>
<g id="a_Node000001"><a xlink:title="Implementation of LTC2686/8 Driver.">
<polygon fill="#999999" stroke="#666666" points="156.91,-206 32.91,-206 32.91,-165 156.91,-165 156.91,-206"/>
<text text-anchor="start" x="40.91" y="-194" font-family="Helvetica,sans-Serif" font-size="10.00">/home/runner/work/no</text>
<text text-anchor="start" x="40.91" y="-183" font-family="Helvetica,sans-Serif" font-size="10.00">&#45;OS/no&#45;OS/drivers/dac</text>
<text text-anchor="middle" x="94.91" y="-172" font-family="Helvetica,sans-Serif" font-size="10.00">/ltc268x/ltc268x.c</text>
</a>
</g>
</g>
<!-- Node2 -->
<g id="Node000002" class="node">
<title>Node2</title>
<g id="a_Node000002"><a xlink:title=" ">
<polygon fill="#e0e0e0" stroke="#999999" points="121.41,-19 68.41,-19 68.41,0 121.41,0 121.41,-19"/>
<text text-anchor="middle" x="94.91" y="-7" font-family="Helvetica,sans-Serif" font-size="10.00">stdlib.h</text>
</a>
</g>
</g>
<!-- Node1&#45;&gt;Node2 -->
<g id="edge1_Node000001_Node000002" class="edge">
<title>Node1&#45;&gt;Node2</title>
<g id="a_edge1_Node000001_Node000002"><a xlink:title=" ">
<path fill="none" stroke="#63b8ff" d="M65.1,-164.9C30.85,-139.85 -17.65,-94.94 6.91,-55 18.22,-36.62 39.72,-25.55 58.64,-19.05"/>
<polygon fill="#63b8ff" stroke="#63b8ff" points="59.73,-22.38 68.23,-16.05 57.64,-15.7 59.73,-22.38"/>
</a>
</g>
</g>
<!-- Node3 -->
<g id="Node000003" class="node">
<title>Node3</title>
<g id="a_Node000003"><a xlink:title=" ">
<polygon fill="#e0e0e0" stroke="#999999" points="65.91,-74 15.91,-74 15.91,-55 65.91,-55 65.91,-74"/>
<text text-anchor="middle" x="40.91" y="-62" font-family="Helvetica,sans-Serif" font-size="10.00">stdio.h</text>
</a>
</g>
</g>
<!-- Node1&#45;&gt;Node3 -->
<g id="edge2_Node000001_Node000003" class="edge">
<title>Node1&#45;&gt;Node3</title>
<g id="a_edge2_Node000001_Node000003"><a xlink:title=" ">
<path fill="none" stroke="#63b8ff" d="M70.55,-164.92C60.4,-155.28 49.66,-142.77 43.91,-129 38,-114.82 37.63,-97.28 38.52,-84.23"/>
<polygon fill="#63b8ff" stroke="#63b8ff" points="42.02,-84.42 39.53,-74.12 35.06,-83.72 42.02,-84.42"/>
</a>
</g>
</g>
<!-- Node4 -->
<g id="Node000004" class="node">
<title>Node4</title>
<g id="a_Node000004"><a xlink:href="no__os__error_8h.html" target="_top" xlink:title="Error codes definition.">
<polygon fill="white" stroke="#666666" points="236.91,-129 154.91,-129 154.91,-110 236.91,-110 236.91,-129"/>
<text text-anchor="middle" x="195.91" y="-117" font-family="Helvetica,sans-Serif" font-size="10.00">no_os_error.h</text>
</a>
</g>
</g>
<!-- Node1&#45;&gt;Node4 -->
<g id="edge3_Node000001_Node000004" class="edge">
<title>Node1&#45;&gt;Node4</title>
<g id="a_edge3_Node000001_Node000004"><a xlink:title=" ">
<path fill="none" stroke="#63b8ff" d="M125.77,-164.95C141.28,-155.12 159.72,-143.43 173.81,-134.51"/>
<polygon fill="#63b8ff" stroke="#63b8ff" points="175.78,-137.4 182.35,-129.09 172.03,-131.49 175.78,-137.4"/>
</a>
</g>
</g>
<!-- Node6 -->
<g id="Node000006" class="node">
<title>Node6</title>
<g id="a_Node000006"><a xlink:href="no__os__alloc_8h.html" target="_top" xlink:title=" ">
<polygon fill="white" stroke="#666666" points="136.41,-129 53.41,-129 53.41,-110 136.41,-110 136.41,-129"/>
<text text-anchor="middle" x="94.91" y="-117" font-family="Helvetica,sans-Serif" font-size="10.00">no_os_alloc.h</text>
</a>
</g>
</g>
<!-- Node1&#45;&gt;Node6 -->
<g id="edge5_Node000001_Node000006" class="edge">
<title>Node1&#45;&gt;Node6</title>
<g id="a_edge5_Node000001_Node000006"><a xlink:title=" ">
<path fill="none" stroke="#63b8ff" d="M94.91,-164.95C94.91,-156.85 94.91,-147.5 94.91,-139.47"/>
<polygon fill="#63b8ff" stroke="#63b8ff" points="98.41,-139.26 94.91,-129.26 91.41,-139.26 98.41,-139.26"/>
</a>
</g>
</g>
<!-- Node7 -->
<g id="Node000007" class="node">
<title>Node7</title>
<g id="a_Node000007"><a xlink:href="ltc268x_8h.html" target="_top" xlink:title="Header file of LTC2686/8 Driver.">
<polygon fill="white" stroke="#666666" points="316.91,-129 254.91,-129 254.91,-110 316.91,-110 316.91,-129"/>
<text text-anchor="middle" x="285.91" y="-117" font-family="Helvetica,sans-Serif" font-size="10.00">ltc268x.h</text>
</a>
</g>
</g>
<!-- Node1&#45;&gt;Node7 -->
<g id="edge8_Node000001_Node000007" class="edge">
<title>Node1&#45;&gt;Node7</title>
<g id="a_edge8_Node000001_Node000007"><a xlink:title=" ">
<path fill="none" stroke="#63b8ff" d="M153.26,-164.95C185.21,-154.24 223.73,-141.34 251.01,-132.19"/>
<polygon fill="#63b8ff" stroke="#63b8ff" points="252.15,-135.5 260.52,-129.01 249.93,-128.87 252.15,-135.5"/>
</a>
</g>
</g>
<!-- Node5 -->
<g id="Node000005" class="node">
<title>Node5</title>
<g id="a_Node000005"><a xlink:href="errno_8h.html" target="_top" xlink:title="Error macro definition for ARM Compiler.">
<polygon fill="white" stroke="#666666" points="197.41,-74 146.41,-74 146.41,-55 197.41,-55 197.41,-74"/>
<text text-anchor="middle" x="171.91" y="-62" font-family="Helvetica,sans-Serif" font-size="10.00">errno.h</text>
</a>
</g>
</g>
<!-- Node4&#45;&gt;Node5 -->
<g id="edge4_Node000004_Node000005" class="edge">
<title>Node4&#45;&gt;Node5</title>
<g id="a_edge4_Node000004_Node000005"><a xlink:title=" ">
<path fill="none" stroke="#63b8ff" d="M191.95,-109.75C188.7,-102.57 183.99,-92.18 179.96,-83.27"/>
<polygon fill="#63b8ff" stroke="#63b8ff" points="183.12,-81.75 175.8,-74.09 176.74,-84.64 183.12,-81.75"/>
</a>
</g>
</g>
<!-- Node6&#45;&gt;Node2 -->
<g id="edge7_Node000006_Node000002" class="edge">
<title>Node6&#45;&gt;Node2</title>
<g id="a_edge7_Node000006_Node000002"><a xlink:title=" ">
<path fill="none" stroke="#63b8ff" d="M94.91,-109.66C94.91,-92.17 94.91,-52.8 94.91,-29.27"/>
<polygon fill="#63b8ff" stroke="#63b8ff" points="98.41,-29.16 94.91,-19.16 91.41,-29.16 98.41,-29.16"/>
</a>
</g>
</g>
<!-- Node6&#45;&gt;Node3 -->
<g id="edge6_Node000006_Node000003" class="edge">
<title>Node6&#45;&gt;Node3</title>
<g id="a_edge6_Node000006_Node000003"><a xlink:title=" ">
<path fill="none" stroke="#63b8ff" d="M86,-109.75C78.13,-102.03 66.48,-90.6 57,-81.28"/>
<polygon fill="#63b8ff" stroke="#63b8ff" points="59.25,-78.6 49.67,-74.09 54.35,-83.59 59.25,-78.6"/>
</a>
</g>
</g>
<!-- Node7&#45;&gt;Node5 -->
<g id="edge17_Node000007_Node000005" class="edge">
<title>Node7&#45;&gt;Node5</title>
<g id="a_edge17_Node000007_Node000005"><a xlink:title=" ">
<path fill="none" stroke="#63b8ff" d="M267.6,-109.98C249.26,-101.46 220.8,-88.23 199.69,-78.41"/>
<polygon fill="#63b8ff" stroke="#63b8ff" points="201.11,-75.21 190.56,-74.17 198.16,-81.56 201.11,-75.21"/>
</a>
</g>
</g>
<!-- Node8 -->
<g id="Node000008" class="node">
<title>Node8</title>
<g id="a_Node000008"><a xlink:href="no__os__spi_8h.html" target="_top" xlink:title="Header file of SPI Interface.">
<polygon fill="white" stroke="#666666" points="485.91,-74 411.91,-74 411.91,-55 485.91,-55 485.91,-74"/>
<text text-anchor="middle" x="448.91" y="-62" font-family="Helvetica,sans-Serif" font-size="10.00">no_os_spi.h</text>
</a>
</g>
</g>
<!-- Node7&#45;&gt;Node8 -->
<g id="edge9_Node000007_Node000008" class="edge">
<title>Node7&#45;&gt;Node8</title>
<g id="a_edge9_Node000007_Node000008"><a xlink:title=" ">
<path fill="none" stroke="#63b8ff" d="M312.1,-109.98C339.35,-101.13 382.21,-87.19 412.7,-77.28"/>
<polygon fill="#63b8ff" stroke="#63b8ff" points="414.09,-80.5 422.52,-74.08 411.93,-73.85 414.09,-80.5"/>
</a>
</g>
</g>
<!-- Node10 -->
<g id="Node000010" class="node">
<title>Node10</title>
<g id="a_Node000010"><a xlink:href="no__os__util_8h.html" target="_top" xlink:title="Header file of utility functions.">
<polygon fill="white" stroke="#666666" points="290.41,-74 215.41,-74 215.41,-55 290.41,-55 290.41,-74"/>
<text text-anchor="middle" x="252.91" y="-62" font-family="Helvetica,sans-Serif" font-size="10.00">no_os_util.h</text>
</a>
</g>
</g>
<!-- Node7&#45;&gt;Node10 -->
<g id="edge11_Node000007_Node000010" class="edge">
<title>Node7&#45;&gt;Node10</title>
<g id="a_edge11_Node000007_Node000010"><a xlink:title=" ">
<path fill="none" stroke="#63b8ff" d="M280.46,-109.75C275.9,-102.42 269.25,-91.73 263.62,-82.7"/>
<polygon fill="#63b8ff" stroke="#63b8ff" points="266.52,-80.73 258.26,-74.09 260.58,-84.43 266.52,-80.73"/>
</a>
</g>
</g>
<!-- Node12 -->
<g id="Node000012" class="node">
<title>Node12</title>
<g id="a_Node000012"><a xlink:href="no__os__delay_8h.html" target="_top" xlink:title="Header file of Delay functions.">
<polygon fill="white" stroke="#666666" points="393.41,-74 308.41,-74 308.41,-55 393.41,-55 393.41,-74"/>
<text text-anchor="middle" x="350.91" y="-62" font-family="Helvetica,sans-Serif" font-size="10.00">no_os_delay.h</text>
</a>
</g>
</g>
<!-- Node7&#45;&gt;Node12 -->
<g id="edge15_Node000007_Node000012" class="edge">
<title>Node7&#45;&gt;Node12</title>
<g id="a_edge15_Node000007_Node000012"><a xlink:title=" ">
<path fill="none" stroke="#63b8ff" d="M296.36,-109.98C306.06,-102.07 320.73,-90.11 332.41,-80.58"/>
<polygon fill="#63b8ff" stroke="#63b8ff" points="334.74,-83.2 340.28,-74.17 330.32,-77.78 334.74,-83.2"/>
</a>
</g>
</g>
<!-- Node9 -->
<g id="Node000009" class="node">
<title>Node9</title>
<g id="a_Node000009"><a xlink:title=" ">
<polygon fill="#e0e0e0" stroke="#999999" points="377.41,-19 324.41,-19 324.41,0 377.41,0 377.41,-19"/>
<text text-anchor="middle" x="350.91" y="-7" font-family="Helvetica,sans-Serif" font-size="10.00">stdint.h</text>
</a>
</g>
</g>
<!-- Node8&#45;&gt;Node9 -->
<g id="edge10_Node000008_Node000009" class="edge">
<title>Node8&#45;&gt;Node9</title>
<g id="a_edge10_Node000008_Node000009"><a xlink:title=" ">
<path fill="none" stroke="#63b8ff" d="M433.17,-54.98C417.69,-46.61 393.82,-33.7 375.78,-23.95"/>
<polygon fill="#63b8ff" stroke="#63b8ff" points="377.41,-20.85 366.95,-19.17 374.08,-27.01 377.41,-20.85"/>
</a>
</g>
</g>
<!-- Node10&#45;&gt;Node2 -->
<g id="edge13_Node000010_Node000002" class="edge">
<title>Node10&#45;&gt;Node2</title>
<g id="a_edge13_Node000010_Node000002"><a xlink:title=" ">
<path fill="none" stroke="#63b8ff" d="M227.53,-54.98C201.12,-46.13 159.57,-32.19 130.02,-22.28"/>
<polygon fill="#63b8ff" stroke="#63b8ff" points="131.09,-18.94 120.5,-19.08 128.87,-25.58 131.09,-18.94"/>
</a>
</g>
</g>
<!-- Node10&#45;&gt;Node9 -->
<g id="edge12_Node000010_Node000009" class="edge">
<title>Node10&#45;&gt;Node9</title>
<g id="a_edge12_Node000010_Node000009"><a xlink:title=" ">
<path fill="none" stroke="#63b8ff" d="M268.66,-54.98C284.14,-46.61 308.01,-33.7 326.05,-23.95"/>
<polygon fill="#63b8ff" stroke="#63b8ff" points="327.75,-27.01 334.88,-19.17 324.42,-20.85 327.75,-27.01"/>
</a>
</g>
</g>
<!-- Node11 -->
<g id="Node000011" class="node">
<title>Node11</title>
<g id="a_Node000011"><a xlink:title=" ">
<polygon fill="#e0e0e0" stroke="#999999" points="283.91,-19 221.91,-19 221.91,0 283.91,0 283.91,-19"/>
<text text-anchor="middle" x="252.91" y="-7" font-family="Helvetica,sans-Serif" font-size="10.00">stdbool.h</text>
</a>
</g>
</g>
<!-- Node10&#45;&gt;Node11 -->
<g id="edge14_Node000010_Node000011" class="edge">
<title>Node10&#45;&gt;Node11</title>
<g id="a_edge14_Node000010_Node000011"><a xlink:title=" ">
<path fill="none" stroke="#63b8ff" d="M252.91,-54.75C252.91,-47.8 252.91,-37.85 252.91,-29.13"/>
<polygon fill="#63b8ff" stroke="#63b8ff" points="256.41,-29.09 252.91,-19.09 249.41,-29.09 256.41,-29.09"/>
</a>
</g>
</g>
<!-- Node12&#45;&gt;Node9 -->
<g id="edge16_Node000012_Node000009" class="edge">
<title>Node12&#45;&gt;Node9</title>
<g id="a_edge16_Node000012_Node000009"><a xlink:title=" ">
<path fill="none" stroke="#63b8ff" d="M350.91,-54.75C350.91,-47.8 350.91,-37.85 350.91,-29.13"/>
<polygon fill="#63b8ff" stroke="#63b8ff" points="354.41,-29.09 350.91,-19.09 347.41,-29.09 354.41,-29.09"/>
</a>
</g>
</g>
</g>
</svg>
