<?xml version="1.0" encoding="UTF-8" standalone="no"?>
<!DOCTYPE svg PUBLIC "-//W3C//DTD SVG 1.1//EN"
 "http://www.w3.org/Graphics/SVG/1.1/DTD/svg11.dtd">
<!-- Generated by graphviz version 2.43.0 (0)
 -->
<!-- Title: /home/runner/work/no&#45;OS/no&#45;OS/projects/ltc2378/src/examples/basic/basic_example.c Pages: 1 -->
<svg width="689pt" height="225pt"
 viewBox="0.00 0.00 689.00 225.00" xmlns="http://www.w3.org/2000/svg" xmlns:xlink="http://www.w3.org/1999/xlink">
<g id="graph0" class="graph" transform="scale(1 1) rotate(0) translate(4 221)">
<title>/home/runner/work/no&#45;OS/no&#45;OS/projects/ltc2378/src/examples/basic/basic_example.c</title>
<!-- Node1 -->
<g id="Node000001" class="node">
<title>Node1</title>
<g id="a_Node000001"><a xlink:title=" ">
<polygon fill="#999999" stroke="#666666" points="433.5,-217 286.5,-217 286.5,-165 433.5,-165 433.5,-217"/>
<text text-anchor="start" x="294.5" y="-205" font-family="Helvetica,sans-Serif" font-size="10.00">/home/runner/work/no</text>
<text text-anchor="start" x="294.5" y="-194" font-family="Helvetica,sans-Serif" font-size="10.00">&#45;OS/no&#45;OS/projects/ltc2378</text>
<text text-anchor="start" x="294.5" y="-183" font-family="Helvetica,sans-Serif" font-size="10.00">/src/examples/basic/basic</text>
<text text-anchor="middle" x="360" y="-172" font-family="Helvetica,sans-Serif" font-size="10.00">_example.c</text>
</a>
</g>
</g>
<!-- Node2 -->
<g id="Node000002" class="node">
<title>Node2</title>
<g id="a_Node000002"><a xlink:href="no__os__delay_8h.html" target="_top" xlink:title="Header file of Delay functions.">
<polygon fill="white" stroke="#666666" points="571.5,-74 486.5,-74 486.5,-55 571.5,-55 571.5,-74"/>
<text text-anchor="middle" x="529" y="-62" font-family="Helvetica,sans-Serif" font-size="10.00">no_os_delay.h</text>
</a>
</g>
</g>
<!-- Node1&#45;&gt;Node2 -->
<g id="edge1_Node000001_Node000002" class="edge">
<title>Node1&#45;&gt;Node2</title>
<g id="a_edge1_Node000001_Node000002"><a xlink:title=" ">
<path fill="none" stroke="#63b8ff" d="M380.96,-164.73C395.91,-147.79 417.16,-125.77 439,-110 457,-97 479.38,-85.92 497.32,-78.06"/>
<polygon fill="#63b8ff" stroke="#63b8ff" points="498.94,-81.18 506.77,-74.04 496.2,-74.74 498.94,-81.18"/>
</a>
</g>
</g>
<!-- Node4 -->
<g id="Node000004" class="node">
<title>Node4</title>
<g id="a_Node000004"><a xlink:href="no__os__print__log_8h.html" target="_top" xlink:title="Print messages helpers.">
<polygon fill="white" stroke="#666666" points="106,-129 4,-129 4,-110 106,-110 106,-129"/>
<text text-anchor="middle" x="55" y="-117" font-family="Helvetica,sans-Serif" font-size="10.00">no_os_print_log.h</text>
</a>
</g>
</g>
<!-- Node1&#45;&gt;Node4 -->
<g id="edge3_Node000001_Node000004" class="edge">
<title>Node1&#45;&gt;Node4</title>
<g id="a_edge3_Node000001_Node000004"><a xlink:title=" ">
<path fill="none" stroke="#63b8ff" d="M286.17,-173.18C229.05,-160.16 151.67,-142.53 102.53,-131.33"/>
<polygon fill="#63b8ff" stroke="#63b8ff" points="103.02,-127.85 92.49,-129.04 101.46,-134.68 103.02,-127.85"/>
</a>
</g>
</g>
<!-- Node6 -->
<g id="Node000006" class="node">
<title>Node6</title>
<g id="a_Node000006"><a xlink:href="no__os__spi_8h.html" target="_top" xlink:title="Header file of SPI Interface.">
<polygon fill="white" stroke="#666666" points="332,-74 258,-74 258,-55 332,-55 332,-74"/>
<text text-anchor="middle" x="295" y="-62" font-family="Helvetica,sans-Serif" font-size="10.00">no_os_spi.h</text>
</a>
</g>
</g>
<!-- Node1&#45;&gt;Node6 -->
<g id="edge5_Node000001_Node000006" class="edge">
<title>Node1&#45;&gt;Node6</title>
<g id="a_edge5_Node000001_Node000006"><a xlink:title=" ">
<path fill="none" stroke="#63b8ff" d="M341.86,-164.88C334.54,-154.14 326.35,-141.26 320,-129 312.42,-114.37 305.7,-96.9 301.14,-83.99"/>
<polygon fill="#63b8ff" stroke="#63b8ff" points="304.4,-82.7 297.85,-74.38 297.78,-84.97 304.4,-82.7"/>
</a>
</g>
</g>
<!-- Node7 -->
<g id="Node000007" class="node">
<title>Node7</title>
<g id="a_Node000007"><a xlink:href="no__os__util_8h.html" target="_top" xlink:title="Header file of utility functions.">
<polygon fill="white" stroke="#666666" points="237.5,-129 162.5,-129 162.5,-110 237.5,-110 237.5,-129"/>
<text text-anchor="middle" x="200" y="-117" font-family="Helvetica,sans-Serif" font-size="10.00">no_os_util.h</text>
</a>
</g>
</g>
<!-- Node1&#45;&gt;Node7 -->
<g id="edge7_Node000001_Node000007" class="edge">
<title>Node1&#45;&gt;Node7</title>
<g id="a_edge7_Node000001_Node000007"><a xlink:title=" ">
<path fill="none" stroke="#63b8ff" d="M302.24,-164.91C277.47,-154.15 249.61,-142.05 229.23,-133.2"/>
<polygon fill="#63b8ff" stroke="#63b8ff" points="230.45,-129.91 219.88,-129.14 227.66,-136.33 230.45,-129.91"/>
</a>
</g>
</g>
<!-- Node8 -->
<g id="Node000008" class="node">
<title>Node8</title>
<g id="a_Node000008"><a xlink:title=" ">
<polygon fill="#e0e0e0" stroke="#999999" points="121.5,-74 68.5,-74 68.5,-55 121.5,-55 121.5,-74"/>
<text text-anchor="middle" x="95" y="-62" font-family="Helvetica,sans-Serif" font-size="10.00">stdlib.h</text>
</a>
</g>
</g>
<!-- Node1&#45;&gt;Node8 -->
<g id="edge22_Node000001_Node000008" class="edge">
<title>Node1&#45;&gt;Node8</title>
<g id="a_edge22_Node000001_Node000008"><a xlink:title=" ">
<path fill="none" stroke="#63b8ff" d="M286.46,-178.16C245.27,-169.17 194.26,-153.96 154,-129 134.7,-117.03 117.64,-97.1 106.9,-82.76"/>
<polygon fill="#63b8ff" stroke="#63b8ff" points="109.48,-80.35 100.79,-74.28 103.8,-84.44 109.48,-80.35"/>
</a>
</g>
</g>
<!-- Node10 -->
<g id="Node000010" class="node">
<title>Node10</title>
<g id="a_Node000010"><a xlink:href="no__os__error_8h.html" target="_top" xlink:title="Error codes definition.">
<polygon fill="white" stroke="#666666" points="672,-74 590,-74 590,-55 672,-55 672,-74"/>
<text text-anchor="middle" x="631" y="-62" font-family="Helvetica,sans-Serif" font-size="10.00">no_os_error.h</text>
</a>
</g>
</g>
<!-- Node1&#45;&gt;Node10 -->
<g id="edge11_Node000001_Node000010" class="edge">
<title>Node1&#45;&gt;Node10</title>
<g id="a_edge11_Node000001_Node000010"><a xlink:title=" ">
<path fill="none" stroke="#63b8ff" d="M433.67,-173.44C470.52,-163.48 515.01,-148.84 552,-129 576.07,-116.09 600,-95.48 615.11,-81.26"/>
<polygon fill="#63b8ff" stroke="#63b8ff" points="617.76,-83.57 622.54,-74.11 612.91,-78.53 617.76,-83.57"/>
</a>
</g>
</g>
<!-- Node12 -->
<g id="Node000012" class="node">
<title>Node12</title>
<g id="a_Node000012"><a xlink:title=" ">
<polygon fill="#e0e0e0" stroke="#999999" points="542.5,-129 447.5,-129 447.5,-110 542.5,-110 542.5,-129"/>
<text text-anchor="middle" x="495" y="-117" font-family="Helvetica,sans-Serif" font-size="10.00">common_data.h</text>
</a>
</g>
</g>
<!-- Node1&#45;&gt;Node12 -->
<g id="edge13_Node000001_Node000012" class="edge">
<title>Node1&#45;&gt;Node12</title>
<g id="a_edge13_Node000001_Node000012"><a xlink:title=" ">
<path fill="none" stroke="#63b8ff" d="M408.74,-164.91C429.07,-154.44 451.86,-142.71 468.91,-133.93"/>
<polygon fill="#63b8ff" stroke="#63b8ff" points="470.94,-136.82 478.23,-129.14 467.73,-130.6 470.94,-136.82"/>
</a>
</g>
</g>
<!-- Node13 -->
<g id="Node000013" class="node">
<title>Node13</title>
<g id="a_Node000013"><a xlink:href="ltc2378_8h.html" target="_top" xlink:title="Header file of the LTC2378 Driver.">
<polygon fill="white" stroke="#666666" points="391,-129 329,-129 329,-110 391,-110 391,-129"/>
<text text-anchor="middle" x="360" y="-117" font-family="Helvetica,sans-Serif" font-size="10.00">ltc2378.h</text>
</a>
</g>
</g>
<!-- Node1&#45;&gt;Node13 -->
<g id="edge14_Node000001_Node000013" class="edge">
<title>Node1&#45;&gt;Node13</title>
<g id="a_edge14_Node000001_Node000013"><a xlink:title=" ">
<path fill="none" stroke="#63b8ff" d="M360,-164.91C360,-156.55 360,-147.38 360,-139.55"/>
<polygon fill="#63b8ff" stroke="#63b8ff" points="363.5,-139.3 360,-129.3 356.5,-139.3 363.5,-139.3"/>
</a>
</g>
</g>
<!-- Node15 -->
<g id="Node000015" class="node">
<title>Node15</title>
<g id="a_Node000015"><a xlink:title=" ">
<polygon fill="#e0e0e0" stroke="#999999" points="681,-129 599,-129 599,-110 681,-110 681,-129"/>
<text text-anchor="middle" x="640" y="-117" font-family="Helvetica,sans-Serif" font-size="10.00">parameters.h</text>
</a>
</g>
</g>
<!-- Node1&#45;&gt;Node15 -->
<g id="edge21_Node000001_Node000015" class="edge">
<title>Node1&#45;&gt;Node15</title>
<g id="a_edge21_Node000001_Node000015"><a xlink:title=" ">
<path fill="none" stroke="#63b8ff" d="M433.57,-171.74C485.13,-158.94 552.34,-142.26 595.83,-131.46"/>
<polygon fill="#63b8ff" stroke="#63b8ff" points="596.68,-134.86 605.54,-129.05 594.99,-128.07 596.68,-134.86"/>
</a>
</g>
</g>
<!-- Node3 -->
<g id="Node000003" class="node">
<title>Node3</title>
<g id="a_Node000003"><a xlink:title=" ">
<polygon fill="#e0e0e0" stroke="#999999" points="386.5,-19 333.5,-19 333.5,0 386.5,0 386.5,-19"/>
<text text-anchor="middle" x="360" y="-7" font-family="Helvetica,sans-Serif" font-size="10.00">stdint.h</text>
</a>
</g>
</g>
<!-- Node2&#45;&gt;Node3 -->
<g id="edge2_Node000002_Node000003" class="edge">
<title>Node2&#45;&gt;Node3</title>
<g id="a_edge2_Node000002_Node000003"><a xlink:title=" ">
<path fill="none" stroke="#63b8ff" d="M501.85,-54.98C473.22,-46.01 427.97,-31.82 396.3,-21.88"/>
<polygon fill="#63b8ff" stroke="#63b8ff" points="397.12,-18.47 386.53,-18.82 395.02,-25.15 397.12,-18.47"/>
</a>
</g>
</g>
<!-- Node5 -->
<g id="Node000005" class="node">
<title>Node5</title>
<g id="a_Node000005"><a xlink:title=" ">
<polygon fill="#e0e0e0" stroke="#999999" points="50,-74 0,-74 0,-55 50,-55 50,-74"/>
<text text-anchor="middle" x="25" y="-62" font-family="Helvetica,sans-Serif" font-size="10.00">stdio.h</text>
</a>
</g>
</g>
<!-- Node4&#45;&gt;Node5 -->
<g id="edge4_Node000004_Node000005" class="edge">
<title>Node4&#45;&gt;Node5</title>
<g id="a_edge4_Node000004_Node000005"><a xlink:title=" ">
<path fill="none" stroke="#63b8ff" d="M50.05,-109.75C45.94,-102.49 39.97,-91.95 34.9,-82.98"/>
<polygon fill="#63b8ff" stroke="#63b8ff" points="37.83,-81.07 29.86,-74.09 31.74,-84.52 37.83,-81.07"/>
</a>
</g>
</g>
<!-- Node6&#45;&gt;Node3 -->
<g id="edge6_Node000006_Node000003" class="edge">
<title>Node6&#45;&gt;Node3</title>
<g id="a_edge6_Node000006_Node000003"><a xlink:title=" ">
<path fill="none" stroke="#63b8ff" d="M305.44,-54.98C315.15,-47.07 329.82,-35.11 341.5,-25.58"/>
<polygon fill="#63b8ff" stroke="#63b8ff" points="343.83,-28.2 349.37,-19.17 339.4,-22.78 343.83,-28.2"/>
</a>
</g>
</g>
<!-- Node7&#45;&gt;Node3 -->
<g id="edge8_Node000007_Node000003" class="edge">
<title>Node7&#45;&gt;Node3</title>
<g id="a_edge8_Node000007_Node000003"><a xlink:title=" ">
<path fill="none" stroke="#63b8ff" d="M204.6,-109.92C212.19,-96.5 228.56,-70.45 249,-55 271.22,-38.2 300.63,-26.79 323.6,-19.73"/>
<polygon fill="#63b8ff" stroke="#63b8ff" points="324.71,-23.05 333.32,-16.88 322.74,-16.33 324.71,-23.05"/>
</a>
</g>
</g>
<!-- Node7&#45;&gt;Node8 -->
<g id="edge9_Node000007_Node000008" class="edge">
<title>Node7&#45;&gt;Node8</title>
<g id="a_edge9_Node000007_Node000008"><a xlink:title=" ">
<path fill="none" stroke="#63b8ff" d="M183.13,-109.98C166.39,-101.54 140.5,-88.47 121.11,-78.68"/>
<polygon fill="#63b8ff" stroke="#63b8ff" points="122.68,-75.55 112.18,-74.17 119.53,-81.8 122.68,-75.55"/>
</a>
</g>
</g>
<!-- Node9 -->
<g id="Node000009" class="node">
<title>Node9</title>
<g id="a_Node000009"><a xlink:title=" ">
<polygon fill="#e0e0e0" stroke="#999999" points="202,-74 140,-74 140,-55 202,-55 202,-74"/>
<text text-anchor="middle" x="171" y="-62" font-family="Helvetica,sans-Serif" font-size="10.00">stdbool.h</text>
</a>
</g>
</g>
<!-- Node7&#45;&gt;Node9 -->
<g id="edge10_Node000007_Node000009" class="edge">
<title>Node7&#45;&gt;Node9</title>
<g id="a_edge10_Node000007_Node000009"><a xlink:title=" ">
<path fill="none" stroke="#63b8ff" d="M195.21,-109.75C191.24,-102.49 185.47,-91.95 180.57,-82.98"/>
<polygon fill="#63b8ff" stroke="#63b8ff" points="183.57,-81.18 175.7,-74.09 177.43,-84.54 183.57,-81.18"/>
</a>
</g>
</g>
<!-- Node11 -->
<g id="Node000011" class="node">
<title>Node11</title>
<g id="a_Node000011"><a xlink:href="errno_8h.html" target="_top" xlink:title="Error macro definition for ARM Compiler.">
<polygon fill="white" stroke="#666666" points="656.5,-19 605.5,-19 605.5,0 656.5,0 656.5,-19"/>
<text text-anchor="middle" x="631" y="-7" font-family="Helvetica,sans-Serif" font-size="10.00">errno.h</text>
</a>
</g>
</g>
<!-- Node10&#45;&gt;Node11 -->
<g id="edge12_Node000010_Node000011" class="edge">
<title>Node10&#45;&gt;Node11</title>
<g id="a_edge12_Node000010_Node000011"><a xlink:title=" ">
<path fill="none" stroke="#63b8ff" d="M631,-54.75C631,-47.8 631,-37.85 631,-29.13"/>
<polygon fill="#63b8ff" stroke="#63b8ff" points="634.5,-29.09 631,-19.09 627.5,-29.09 634.5,-29.09"/>
</a>
</g>
</g>
<!-- Node13&#45;&gt;Node2 -->
<g id="edge19_Node000013_Node000002" class="edge">
<title>Node13&#45;&gt;Node2</title>
<g id="a_edge19_Node000013_Node000002"><a xlink:title=" ">
<path fill="none" stroke="#63b8ff" d="M387.15,-109.98C415.53,-101.09 460.23,-87.07 491.86,-77.15"/>
<polygon fill="#63b8ff" stroke="#63b8ff" points="493.14,-80.41 501.63,-74.08 491.05,-73.73 493.14,-80.41"/>
</a>
</g>
</g>
<!-- Node13&#45;&gt;Node3 -->
<g id="edge15_Node000013_Node000003" class="edge">
<title>Node13&#45;&gt;Node3</title>
<g id="a_edge15_Node000013_Node000003"><a xlink:title=" ">
<path fill="none" stroke="#63b8ff" d="M360,-109.66C360,-92.17 360,-52.8 360,-29.27"/>
<polygon fill="#63b8ff" stroke="#63b8ff" points="363.5,-29.16 360,-19.16 356.5,-29.16 363.5,-29.16"/>
</a>
</g>
</g>
<!-- Node13&#45;&gt;Node6 -->
<g id="edge16_Node000013_Node000006" class="edge">
<title>Node13&#45;&gt;Node6</title>
<g id="a_edge16_Node000013_Node000006"><a xlink:title=" ">
<path fill="none" stroke="#63b8ff" d="M349.56,-109.98C339.85,-102.07 325.18,-90.11 313.5,-80.58"/>
<polygon fill="#63b8ff" stroke="#63b8ff" points="315.6,-77.78 305.63,-74.17 311.17,-83.2 315.6,-77.78"/>
</a>
</g>
</g>
<!-- Node13&#45;&gt;Node10 -->
<g id="edge20_Node000013_Node000010" class="edge">
<title>Node13&#45;&gt;Node10</title>
<g id="a_edge20_Node000013_Node000010"><a xlink:title=" ">
<path fill="none" stroke="#63b8ff" d="M391.09,-112.42C437.16,-103.41 524.09,-86.41 579.69,-75.53"/>
<polygon fill="#63b8ff" stroke="#63b8ff" points="580.55,-78.93 589.69,-73.58 579.21,-72.06 580.55,-78.93"/>
</a>
</g>
</g>
<!-- Node14 -->
<g id="Node000014" class="node">
<title>Node14</title>
<g id="a_Node000014"><a xlink:href="no__os__gpio_8h.html" target="_top" xlink:title="Header file of GPIO Interface.">
<polygon fill="white" stroke="#666666" points="468,-74 388,-74 388,-55 468,-55 468,-74"/>
<text text-anchor="middle" x="428" y="-62" font-family="Helvetica,sans-Serif" font-size="10.00">no_os_gpio.h</text>
</a>
</g>
</g>
<!-- Node13&#45;&gt;Node14 -->
<g id="edge17_Node000013_Node000014" class="edge">
<title>Node13&#45;&gt;Node14</title>
<g id="a_edge17_Node000013_Node000014"><a xlink:title=" ">
<path fill="none" stroke="#63b8ff" d="M370.93,-109.98C381.08,-102.07 396.42,-90.11 408.65,-80.58"/>
<polygon fill="#63b8ff" stroke="#63b8ff" points="411.14,-83.08 416.88,-74.17 406.84,-77.56 411.14,-83.08"/>
</a>
</g>
</g>
<!-- Node14&#45;&gt;Node3 -->
<g id="edge18_Node000014_Node000003" class="edge">
<title>Node14&#45;&gt;Node3</title>
<g id="a_edge18_Node000014_Node000003"><a xlink:title=" ">
<path fill="none" stroke="#63b8ff" d="M417.07,-54.98C406.92,-47.07 391.58,-35.11 379.35,-25.58"/>
<polygon fill="#63b8ff" stroke="#63b8ff" points="381.16,-22.56 371.12,-19.17 376.86,-28.08 381.16,-22.56"/>
</a>
</g>
</g>
</g>
</svg>
