<?xml version="1.0" encoding="UTF-8" standalone="no"?>
<!DOCTYPE svg PUBLIC "-//W3C//DTD SVG 1.1//EN"
 "http://www.w3.org/Graphics/SVG/1.1/DTD/svg11.dtd">
<!-- Generated by graphviz version 2.43.0 (0)
 -->
<!-- Title: /home/runner/work/no&#45;OS/no&#45;OS/drivers/power/ltc2992/ltc2992.c Pages: 1 -->
<svg width="699pt" height="214pt"
 viewBox="0.00 0.00 699.43 214.00" xmlns="http://www.w3.org/2000/svg" xmlns:xlink="http://www.w3.org/1999/xlink">
<g id="graph0" class="graph" transform="scale(1 1) rotate(0) translate(4 210)">
<title>/home/runner/work/no&#45;OS/no&#45;OS/drivers/power/ltc2992/ltc2992.c</title>
<!-- Node1 -->
<g id="Node000001" class="node">
<title>Node1</title>
<g id="a_Node000001"><a xlink:title=" ">
<polygon fill="#999999" stroke="#666666" points="444.93,-206 308.93,-206 308.93,-165 444.93,-165 444.93,-206"/>
<text text-anchor="start" x="316.93" y="-194" font-family="Helvetica,sans-Serif" font-size="10.00">/home/runner/work/no</text>
<text text-anchor="start" x="316.93" y="-183" font-family="Helvetica,sans-Serif" font-size="10.00">&#45;OS/no&#45;OS/drivers/power</text>
<text text-anchor="middle" x="376.93" y="-172" font-family="Helvetica,sans-Serif" font-size="10.00">/ltc2992/ltc2992.c</text>
</a>
</g>
</g>
<!-- Node2 -->
<g id="Node000002" class="node">
<title>Node2</title>
<g id="a_Node000002"><a xlink:title=" ">
<polygon fill="#e0e0e0" stroke="#999999" points="142.43,-19 89.43,-19 89.43,0 142.43,0 142.43,-19"/>
<text text-anchor="middle" x="115.93" y="-7" font-family="Helvetica,sans-Serif" font-size="10.00">stdint.h</text>
</a>
</g>
</g>
<!-- Node1&#45;&gt;Node2 -->
<g id="edge1_Node000001_Node000002" class="edge">
<title>Node1&#45;&gt;Node2</title>
<g id="a_edge1_Node000001_Node000002"><a xlink:title=" ">
<path fill="none" stroke="#63b8ff" d="M308.66,-174.6C210.94,-158.81 39.15,-124.47 4.93,-74 -16.21,-42.81 39.47,-25.07 79.4,-16.65"/>
<polygon fill="#63b8ff" stroke="#63b8ff" points="80.29,-20.04 89.41,-14.66 78.92,-13.18 80.29,-20.04"/>
</a>
</g>
</g>
<!-- Node3 -->
<g id="Node000003" class="node">
<title>Node3</title>
<g id="a_Node000003"><a xlink:title=" ">
<polygon fill="#e0e0e0" stroke="#999999" points="448.43,-19 395.43,-19 395.43,0 448.43,0 448.43,-19"/>
<text text-anchor="middle" x="421.93" y="-7" font-family="Helvetica,sans-Serif" font-size="10.00">stdlib.h</text>
</a>
</g>
</g>
<!-- Node1&#45;&gt;Node3 -->
<g id="edge2_Node000001_Node000003" class="edge">
<title>Node1&#45;&gt;Node3</title>
<g id="a_edge2_Node000001_Node000003"><a xlink:title=" ">
<path fill="none" stroke="#63b8ff" d="M382.01,-164.88C390.76,-131.02 408.59,-62.09 417.14,-29.01"/>
<polygon fill="#63b8ff" stroke="#63b8ff" points="420.55,-29.83 419.66,-19.27 413.77,-28.08 420.55,-29.83"/>
</a>
</g>
</g>
<!-- Node4 -->
<g id="Node000004" class="node">
<title>Node4</title>
<g id="a_Node000004"><a xlink:href="errno_8h.html" target="_top" xlink:title="Error macro definition for ARM Compiler.">
<polygon fill="white" stroke="#666666" points="590.43,-129 539.43,-129 539.43,-110 590.43,-110 590.43,-129"/>
<text text-anchor="middle" x="564.93" y="-117" font-family="Helvetica,sans-Serif" font-size="10.00">errno.h</text>
</a>
</g>
</g>
<!-- Node1&#45;&gt;Node4 -->
<g id="edge3_Node000001_Node000004" class="edge">
<title>Node1&#45;&gt;Node4</title>
<g id="a_edge3_Node000001_Node000004"><a xlink:title=" ">
<path fill="none" stroke="#63b8ff" d="M434.36,-164.95C465.57,-154.32 503.16,-141.53 529.98,-132.4"/>
<polygon fill="#63b8ff" stroke="#63b8ff" points="531.35,-135.63 539.69,-129.09 529.1,-129 531.35,-135.63"/>
</a>
</g>
</g>
<!-- Node5 -->
<g id="Node000005" class="node">
<title>Node5</title>
<g id="a_Node000005"><a xlink:href="no__os__util_8h.html" target="_top" xlink:title="Header file of utility functions.">
<polygon fill="white" stroke="#666666" points="388.43,-74 313.43,-74 313.43,-55 388.43,-55 388.43,-74"/>
<text text-anchor="middle" x="350.93" y="-62" font-family="Helvetica,sans-Serif" font-size="10.00">no_os_util.h</text>
</a>
</g>
</g>
<!-- Node1&#45;&gt;Node5 -->
<g id="edge4_Node000001_Node000005" class="edge">
<title>Node1&#45;&gt;Node5</title>
<g id="a_edge4_Node000001_Node000005"><a xlink:title=" ">
<path fill="none" stroke="#63b8ff" d="M372.64,-164.85C367.75,-142.48 359.82,-106.19 355.02,-84.21"/>
<polygon fill="#63b8ff" stroke="#63b8ff" points="358.38,-83.2 352.83,-74.18 351.54,-84.69 358.38,-83.2"/>
</a>
</g>
</g>
<!-- Node7 -->
<g id="Node000007" class="node">
<title>Node7</title>
<g id="a_Node000007"><a xlink:href="no__os__alloc_8h.html" target="_top" xlink:title=" ">
<polygon fill="white" stroke="#666666" points="521.43,-129 438.43,-129 438.43,-110 521.43,-110 521.43,-129"/>
<text text-anchor="middle" x="479.93" y="-117" font-family="Helvetica,sans-Serif" font-size="10.00">no_os_alloc.h</text>
</a>
</g>
</g>
<!-- Node1&#45;&gt;Node7 -->
<g id="edge8_Node000001_Node000007" class="edge">
<title>Node1&#45;&gt;Node7</title>
<g id="a_edge8_Node000001_Node000007"><a xlink:title=" ">
<path fill="none" stroke="#63b8ff" d="M408.39,-164.95C424.22,-155.12 443.03,-143.43 457.39,-134.51"/>
<polygon fill="#63b8ff" stroke="#63b8ff" points="459.46,-137.34 466.1,-129.09 455.76,-131.4 459.46,-137.34"/>
</a>
</g>
</g>
<!-- Node9 -->
<g id="Node000009" class="node">
<title>Node9</title>
<g id="a_Node000009"><a xlink:href="no__os__i2c_8h.html" target="_top" xlink:title="Header file of I2C Interface.">
<polygon fill="white" stroke="#666666" points="87.93,-74 13.93,-74 13.93,-55 87.93,-55 87.93,-74"/>
<text text-anchor="middle" x="50.93" y="-62" font-family="Helvetica,sans-Serif" font-size="10.00">no_os_i2c.h</text>
</a>
</g>
</g>
<!-- Node1&#45;&gt;Node9 -->
<g id="edge11_Node000001_Node000009" class="edge">
<title>Node1&#45;&gt;Node9</title>
<g id="a_edge11_Node000001_Node000009"><a xlink:title=" ">
<path fill="none" stroke="#63b8ff" d="M308.72,-166.92C272.69,-156.99 227.96,-143.65 188.93,-129 148.91,-113.97 104.24,-92.52 76.86,-78.8"/>
<polygon fill="#63b8ff" stroke="#63b8ff" points="78.1,-75.5 67.59,-74.12 74.94,-81.75 78.1,-75.5"/>
</a>
</g>
</g>
<!-- Node10 -->
<g id="Node000010" class="node">
<title>Node10</title>
<g id="a_Node000010"><a xlink:href="no__os__units_8h.html" target="_top" xlink:title="Header file of Units.">
<polygon fill="white" stroke="#666666" points="691.43,-129 608.43,-129 608.43,-110 691.43,-110 691.43,-129"/>
<text text-anchor="middle" x="649.93" y="-117" font-family="Helvetica,sans-Serif" font-size="10.00">no_os_units.h</text>
</a>
</g>
</g>
<!-- Node1&#45;&gt;Node10 -->
<g id="edge13_Node000001_Node000010" class="edge">
<title>Node1&#45;&gt;Node10</title>
<g id="a_edge13_Node000001_Node000010"><a xlink:title=" ">
<path fill="none" stroke="#63b8ff" d="M445.12,-168.52C494.64,-156.91 560.33,-141.51 603.8,-131.31"/>
<polygon fill="#63b8ff" stroke="#63b8ff" points="604.6,-134.72 613.54,-129.03 603.01,-127.91 604.6,-134.72"/>
</a>
</g>
</g>
<!-- Node11 -->
<g id="Node000011" class="node">
<title>Node11</title>
<g id="a_Node000011"><a xlink:href="ltc2992_8h.html" target="_top" xlink:title=" ">
<polygon fill="white" stroke="#666666" points="259.93,-129 197.93,-129 197.93,-110 259.93,-110 259.93,-129"/>
<text text-anchor="middle" x="228.93" y="-117" font-family="Helvetica,sans-Serif" font-size="10.00">ltc2992.h</text>
</a>
</g>
</g>
<!-- Node1&#45;&gt;Node11 -->
<g id="edge14_Node000001_Node000011" class="edge">
<title>Node1&#45;&gt;Node11</title>
<g id="a_edge14_Node000001_Node000011"><a xlink:title=" ">
<path fill="none" stroke="#63b8ff" d="M331.72,-164.95C307.8,-154.6 279.12,-142.2 258.14,-133.13"/>
<polygon fill="#63b8ff" stroke="#63b8ff" points="259.37,-129.85 248.8,-129.09 256.59,-136.27 259.37,-129.85"/>
</a>
</g>
</g>
<!-- Node5&#45;&gt;Node2 -->
<g id="edge5_Node000005_Node000002" class="edge">
<title>Node5&#45;&gt;Node2</title>
<g id="a_edge5_Node000005_Node000002"><a xlink:title=" ">
<path fill="none" stroke="#63b8ff" d="M313.17,-54.98C268.97,-45.02 196.26,-28.62 152.56,-18.76"/>
<polygon fill="#63b8ff" stroke="#63b8ff" points="153.16,-15.31 142.63,-16.52 151.62,-22.14 153.16,-15.31"/>
</a>
</g>
</g>
<!-- Node5&#45;&gt;Node3 -->
<g id="edge6_Node000005_Node000003" class="edge">
<title>Node5&#45;&gt;Node3</title>
<g id="a_edge6_Node000005_Node000003"><a xlink:title=" ">
<path fill="none" stroke="#63b8ff" d="M362.34,-54.98C373.04,-47 389.27,-34.88 402.09,-25.31"/>
<polygon fill="#63b8ff" stroke="#63b8ff" points="404.4,-27.96 410.32,-19.17 400.21,-22.35 404.4,-27.96"/>
</a>
</g>
</g>
<!-- Node6 -->
<g id="Node000006" class="node">
<title>Node6</title>
<g id="a_Node000006"><a xlink:title=" ">
<polygon fill="#e0e0e0" stroke="#999999" points="376.93,-19 314.93,-19 314.93,0 376.93,0 376.93,-19"/>
<text text-anchor="middle" x="345.93" y="-7" font-family="Helvetica,sans-Serif" font-size="10.00">stdbool.h</text>
</a>
</g>
</g>
<!-- Node5&#45;&gt;Node6 -->
<g id="edge7_Node000005_Node000006" class="edge">
<title>Node5&#45;&gt;Node6</title>
<g id="a_edge7_Node000005_Node000006"><a xlink:title=" ">
<path fill="none" stroke="#63b8ff" d="M350.11,-54.75C349.45,-47.8 348.51,-37.85 347.69,-29.13"/>
<polygon fill="#63b8ff" stroke="#63b8ff" points="351.17,-28.72 346.74,-19.09 344.2,-29.37 351.17,-28.72"/>
</a>
</g>
</g>
<!-- Node7&#45;&gt;Node3 -->
<g id="edge10_Node000007_Node000003" class="edge">
<title>Node7&#45;&gt;Node3</title>
<g id="a_edge10_Node000007_Node000003"><a xlink:title=" ">
<path fill="none" stroke="#63b8ff" d="M475.19,-109.66C465.62,-91.85 443.88,-51.37 431.33,-28.01"/>
<polygon fill="#63b8ff" stroke="#63b8ff" points="434.4,-26.31 426.58,-19.16 428.23,-29.62 434.4,-26.31"/>
</a>
</g>
</g>
<!-- Node8 -->
<g id="Node000008" class="node">
<title>Node8</title>
<g id="a_Node000008"><a xlink:title=" ">
<polygon fill="#e0e0e0" stroke="#999999" points="532.93,-74 482.93,-74 482.93,-55 532.93,-55 532.93,-74"/>
<text text-anchor="middle" x="507.93" y="-62" font-family="Helvetica,sans-Serif" font-size="10.00">stdio.h</text>
</a>
</g>
</g>
<!-- Node7&#45;&gt;Node8 -->
<g id="edge9_Node000007_Node000008" class="edge">
<title>Node7&#45;&gt;Node8</title>
<g id="a_edge9_Node000007_Node000008"><a xlink:title=" ">
<path fill="none" stroke="#63b8ff" d="M484.56,-109.75C488.39,-102.49 493.96,-91.95 498.7,-82.98"/>
<polygon fill="#63b8ff" stroke="#63b8ff" points="501.82,-84.57 503.39,-74.09 495.63,-81.3 501.82,-84.57"/>
</a>
</g>
</g>
<!-- Node9&#45;&gt;Node2 -->
<g id="edge12_Node000009_Node000002" class="edge">
<title>Node9&#45;&gt;Node2</title>
<g id="a_edge12_Node000009_Node000002"><a xlink:title=" ">
<path fill="none" stroke="#63b8ff" d="M61.38,-54.98C71.08,-47.07 85.75,-35.11 97.43,-25.58"/>
<polygon fill="#63b8ff" stroke="#63b8ff" points="99.76,-28.2 105.3,-19.17 95.34,-22.78 99.76,-28.2"/>
</a>
</g>
</g>
<!-- Node11&#45;&gt;Node2 -->
<g id="edge15_Node000011_Node000002" class="edge">
<title>Node11&#45;&gt;Node2</title>
<g id="a_edge15_Node000011_Node000002"><a xlink:title=" ">
<path fill="none" stroke="#63b8ff" d="M197.78,-110.9C177.21,-104.36 151.17,-92.9 134.93,-74 124.27,-61.59 119.59,-43.38 117.54,-29.63"/>
<polygon fill="#63b8ff" stroke="#63b8ff" points="120.98,-28.9 116.36,-19.37 114.02,-29.7 120.98,-28.9"/>
</a>
</g>
</g>
<!-- Node11&#45;&gt;Node5 -->
<g id="edge17_Node000011_Node000005" class="edge">
<title>Node11&#45;&gt;Node5</title>
<g id="a_edge17_Node000011_Node000005"><a xlink:title=" ">
<path fill="none" stroke="#63b8ff" d="M248.53,-109.98C268.25,-101.42 298.89,-88.11 321.51,-78.28"/>
<polygon fill="#63b8ff" stroke="#63b8ff" points="323.2,-81.37 330.97,-74.17 320.41,-74.94 323.2,-81.37"/>
</a>
</g>
</g>
<!-- Node11&#45;&gt;Node9 -->
<g id="edge18_Node000011_Node000009" class="edge">
<title>Node11&#45;&gt;Node9</title>
<g id="a_edge18_Node000011_Node000009"><a xlink:title=" ">
<path fill="none" stroke="#63b8ff" d="M200.33,-109.98C170.32,-101.05 122.95,-86.94 89.62,-77.02"/>
<polygon fill="#63b8ff" stroke="#63b8ff" points="90.34,-73.58 79.75,-74.08 88.34,-80.29 90.34,-73.58"/>
</a>
</g>
</g>
<!-- Node12 -->
<g id="Node000012" class="node">
<title>Node12</title>
<g id="a_Node000012"><a xlink:title=" ">
<polygon fill="#e0e0e0" stroke="#999999" points="295.43,-74 242.43,-74 242.43,-55 295.43,-55 295.43,-74"/>
<text text-anchor="middle" x="268.93" y="-62" font-family="Helvetica,sans-Serif" font-size="10.00">string.h</text>
</a>
</g>
</g>
<!-- Node11&#45;&gt;Node12 -->
<g id="edge16_Node000011_Node000012" class="edge">
<title>Node11&#45;&gt;Node12</title>
<g id="a_edge16_Node000011_Node000012"><a xlink:title=" ">
<path fill="none" stroke="#63b8ff" d="M235.54,-109.75C241.19,-102.26 249.48,-91.28 256.38,-82.13"/>
<polygon fill="#63b8ff" stroke="#63b8ff" points="259.22,-84.18 262.45,-74.09 253.63,-79.96 259.22,-84.18"/>
</a>
</g>
</g>
<!-- Node13 -->
<g id="Node000013" class="node">
<title>Node13</title>
<g id="a_Node000013"><a xlink:href="no__os__gpio_8h.html" target="_top" xlink:title="Header file of GPIO Interface.">
<polygon fill="white" stroke="#666666" points="223.93,-74 143.93,-74 143.93,-55 223.93,-55 223.93,-74"/>
<text text-anchor="middle" x="183.93" y="-62" font-family="Helvetica,sans-Serif" font-size="10.00">no_os_gpio.h</text>
</a>
</g>
</g>
<!-- Node11&#45;&gt;Node13 -->
<g id="edge19_Node000011_Node000013" class="edge">
<title>Node11&#45;&gt;Node13</title>
<g id="a_edge19_Node000011_Node000013"><a xlink:title=" ">
<path fill="none" stroke="#63b8ff" d="M221.5,-109.75C215.08,-102.18 205.63,-91.05 197.81,-81.84"/>
<polygon fill="#63b8ff" stroke="#63b8ff" points="200.36,-79.45 191.22,-74.09 195.03,-83.98 200.36,-79.45"/>
</a>
</g>
</g>
<!-- Node13&#45;&gt;Node2 -->
<g id="edge20_Node000013_Node000002" class="edge">
<title>Node13&#45;&gt;Node2</title>
<g id="a_edge20_Node000013_Node000002"><a xlink:title=" ">
<path fill="none" stroke="#63b8ff" d="M173.01,-54.98C162.86,-47.07 147.51,-35.11 135.29,-25.58"/>
<polygon fill="#63b8ff" stroke="#63b8ff" points="137.09,-22.56 127.06,-19.17 132.79,-28.08 137.09,-22.56"/>
</a>
</g>
</g>
</g>
</svg>
