<?xml version="1.0" encoding="UTF-8" standalone="no"?>
<!DOCTYPE svg PUBLIC "-//W3C//DTD SVG 1.1//EN"
 "http://www.w3.org/Graphics/SVG/1.1/DTD/svg11.dtd">
<!-- Generated by graphviz version 2.43.0 (0)
 -->
<!-- Title: /home/runner/work/no&#45;OS/no&#45;OS/drivers/power/ltc4296/ltc4296.h Pages: 1 -->
<svg width="317pt" height="159pt"
 viewBox="0.00 0.00 316.66 159.00" xmlns="http://www.w3.org/2000/svg" xmlns:xlink="http://www.w3.org/1999/xlink">
<g id="graph0" class="graph" transform="scale(1 1) rotate(0) translate(4 155)">
<title>/home/runner/work/no&#45;OS/no&#45;OS/drivers/power/ltc4296/ltc4296.h</title>
<!-- Node1 -->
<g id="Node000001" class="node">
<title>Node1</title>
<g id="a_Node000001"><a xlink:title="Header file for the LTC4296 Driver.">
<polygon fill="#999999" stroke="#666666" points="165.66,-151 29.66,-151 29.66,-110 165.66,-110 165.66,-151"/>
<text text-anchor="start" x="37.66" y="-139" font-family="Helvetica,sans-Serif" font-size="10.00">/home/runner/work/no</text>
<text text-anchor="start" x="37.66" y="-128" font-family="Helvetica,sans-Serif" font-size="10.00">&#45;OS/no&#45;OS/drivers/power</text>
<text text-anchor="middle" x="97.66" y="-117" font-family="Helvetica,sans-Serif" font-size="10.00">/ltc4296/ltc4296.h</text>
</a>
</g>
</g>
<!-- Node2 -->
<g id="Node000002" class="node">
<title>Node2</title>
<g id="a_Node000002"><a xlink:title=" ">
<polygon fill="#e0e0e0" stroke="#999999" points="135.16,-19 82.16,-19 82.16,0 135.16,0 135.16,-19"/>
<text text-anchor="middle" x="108.66" y="-7" font-family="Helvetica,sans-Serif" font-size="10.00">stdint.h</text>
</a>
</g>
</g>
<!-- Node1&#45;&gt;Node2 -->
<g id="edge1_Node000001_Node000002" class="edge">
<title>Node1&#45;&gt;Node2</title>
<g id="a_edge1_Node000001_Node000002"><a xlink:title=" ">
<path fill="none" stroke="#63b8ff" d="M42.44,-109.89C14.63,-96.74 -10.32,-77.71 4.66,-55 19.55,-32.44 48.49,-21.27 72.07,-15.77"/>
<polygon fill="#63b8ff" stroke="#63b8ff" points="73.04,-19.15 82.12,-13.68 71.62,-12.29 73.04,-19.15"/>
</a>
</g>
</g>
<!-- Node3 -->
<g id="Node000003" class="node">
<title>Node3</title>
<g id="a_Node000003"><a xlink:href="no__os__util_8h.html" target="_top" xlink:title="Header file of utility functions.">
<polygon fill="white" stroke="#666666" points="279.16,-74 204.16,-74 204.16,-55 279.16,-55 279.16,-74"/>
<text text-anchor="middle" x="241.66" y="-62" font-family="Helvetica,sans-Serif" font-size="10.00">no_os_util.h</text>
</a>
</g>
</g>
<!-- Node1&#45;&gt;Node3 -->
<g id="edge2_Node000001_Node000003" class="edge">
<title>Node1&#45;&gt;Node3</title>
<g id="a_edge2_Node000001_Node000003"><a xlink:title=" ">
<path fill="none" stroke="#63b8ff" d="M141.65,-109.95C164.82,-99.65 192.58,-87.31 212.97,-78.25"/>
<polygon fill="#63b8ff" stroke="#63b8ff" points="214.61,-81.35 222.33,-74.09 211.77,-74.95 214.61,-81.35"/>
</a>
</g>
</g>
<!-- Node6 -->
<g id="Node000006" class="node">
<title>Node6</title>
<g id="a_Node000006"><a xlink:href="no__os__spi_8h.html" target="_top" xlink:title="Header file of SPI Interface.">
<polygon fill="white" stroke="#666666" points="87.66,-74 13.66,-74 13.66,-55 87.66,-55 87.66,-74"/>
<text text-anchor="middle" x="50.66" y="-62" font-family="Helvetica,sans-Serif" font-size="10.00">no_os_spi.h</text>
</a>
</g>
</g>
<!-- Node1&#45;&gt;Node6 -->
<g id="edge6_Node000001_Node000006" class="edge">
<title>Node1&#45;&gt;Node6</title>
<g id="a_edge6_Node000001_Node000006"><a xlink:title=" ">
<path fill="none" stroke="#63b8ff" d="M83.31,-109.95C76.88,-101.2 69.38,-90.99 63.19,-82.56"/>
<polygon fill="#63b8ff" stroke="#63b8ff" points="65.84,-80.25 57.1,-74.26 60.19,-84.39 65.84,-80.25"/>
</a>
</g>
</g>
<!-- Node7 -->
<g id="Node000007" class="node">
<title>Node7</title>
<g id="a_Node000007"><a xlink:href="no__os__gpio_8h.html" target="_top" xlink:title="Header file of GPIO Interface.">
<polygon fill="white" stroke="#666666" points="185.66,-74 105.66,-74 105.66,-55 185.66,-55 185.66,-74"/>
<text text-anchor="middle" x="145.66" y="-62" font-family="Helvetica,sans-Serif" font-size="10.00">no_os_gpio.h</text>
</a>
</g>
</g>
<!-- Node1&#45;&gt;Node7 -->
<g id="edge8_Node000001_Node000007" class="edge">
<title>Node1&#45;&gt;Node7</title>
<g id="a_edge8_Node000001_Node000007"><a xlink:title=" ">
<path fill="none" stroke="#63b8ff" d="M112.32,-109.95C118.95,-101.11 126.71,-90.77 133.07,-82.29"/>
<polygon fill="#63b8ff" stroke="#63b8ff" points="135.89,-84.36 139.09,-74.26 130.29,-80.16 135.89,-84.36"/>
</a>
</g>
</g>
<!-- Node3&#45;&gt;Node2 -->
<g id="edge3_Node000003_Node000002" class="edge">
<title>Node3&#45;&gt;Node2</title>
<g id="a_edge3_Node000003_Node000002"><a xlink:title=" ">
<path fill="none" stroke="#63b8ff" d="M220.29,-54.98C198.51,-46.3 164.5,-32.75 139.74,-22.88"/>
<polygon fill="#63b8ff" stroke="#63b8ff" points="141,-19.62 130.42,-19.17 138.41,-26.12 141,-19.62"/>
</a>
</g>
</g>
<!-- Node4 -->
<g id="Node000004" class="node">
<title>Node4</title>
<g id="a_Node000004"><a xlink:title=" ">
<polygon fill="#e0e0e0" stroke="#999999" points="228.16,-19 175.16,-19 175.16,0 228.16,0 228.16,-19"/>
<text text-anchor="middle" x="201.66" y="-7" font-family="Helvetica,sans-Serif" font-size="10.00">stdlib.h</text>
</a>
</g>
</g>
<!-- Node3&#45;&gt;Node4 -->
<g id="edge4_Node000003_Node000004" class="edge">
<title>Node3&#45;&gt;Node4</title>
<g id="a_edge4_Node000003_Node000004"><a xlink:title=" ">
<path fill="none" stroke="#63b8ff" d="M235.06,-54.75C229.41,-47.26 221.12,-36.28 214.21,-27.13"/>
<polygon fill="#63b8ff" stroke="#63b8ff" points="216.96,-24.96 208.14,-19.09 211.37,-29.18 216.96,-24.96"/>
</a>
</g>
</g>
<!-- Node5 -->
<g id="Node000005" class="node">
<title>Node5</title>
<g id="a_Node000005"><a xlink:title=" ">
<polygon fill="#e0e0e0" stroke="#999999" points="308.66,-19 246.66,-19 246.66,0 308.66,0 308.66,-19"/>
<text text-anchor="middle" x="277.66" y="-7" font-family="Helvetica,sans-Serif" font-size="10.00">stdbool.h</text>
</a>
</g>
</g>
<!-- Node3&#45;&gt;Node5 -->
<g id="edge5_Node000003_Node000005" class="edge">
<title>Node3&#45;&gt;Node5</title>
<g id="a_edge5_Node000003_Node000005"><a xlink:title=" ">
<path fill="none" stroke="#63b8ff" d="M247.61,-54.75C252.64,-47.34 260,-36.5 266.18,-27.41"/>
<polygon fill="#63b8ff" stroke="#63b8ff" points="269.1,-29.33 271.83,-19.09 263.31,-25.39 269.1,-29.33"/>
</a>
</g>
</g>
<!-- Node6&#45;&gt;Node2 -->
<g id="edge7_Node000006_Node000002" class="edge">
<title>Node6&#45;&gt;Node2</title>
<g id="a_edge7_Node000006_Node000002"><a xlink:title=" ">
<path fill="none" stroke="#63b8ff" d="M59.98,-54.98C68.47,-47.23 81.22,-35.58 91.54,-26.14"/>
<polygon fill="#63b8ff" stroke="#63b8ff" points="94.15,-28.5 99.17,-19.17 89.43,-23.33 94.15,-28.5"/>
</a>
</g>
</g>
<!-- Node7&#45;&gt;Node2 -->
<g id="edge9_Node000007_Node000002" class="edge">
<title>Node7&#45;&gt;Node2</title>
<g id="a_edge9_Node000007_Node000002"><a xlink:title=" ">
<path fill="none" stroke="#63b8ff" d="M139.55,-54.75C134.38,-47.34 126.82,-36.5 120.47,-27.41"/>
<polygon fill="#63b8ff" stroke="#63b8ff" points="123.25,-25.29 114.66,-19.09 117.51,-29.29 123.25,-25.29"/>
</a>
</g>
</g>
</g>
</svg>
