<?xml version="1.0" encoding="UTF-8" standalone="no"?>
<!DOCTYPE svg PUBLIC "-//W3C//DTD SVG 1.1//EN"
 "http://www.w3.org/Graphics/SVG/1.1/DTD/svg11.dtd">
<!-- Generated by graphviz version 2.43.0 (0)
 -->
<!-- Title: /home/runner/work/no&#45;OS/no&#45;OS/drivers/io&#45;expander/ltc4306/ltc4306.h Pages: 1 -->
<svg width="551pt" height="214pt"
 viewBox="0.00 0.00 550.50 214.00" xmlns="http://www.w3.org/2000/svg" xmlns:xlink="http://www.w3.org/1999/xlink">
<g id="graph0" class="graph" transform="scale(1 1) rotate(0) translate(4 210)">
<title>/home/runner/work/no&#45;OS/no&#45;OS/drivers/io&#45;expander/ltc4306/ltc4306.h</title>
<!-- Node1 -->
<g id="Node000001" class="node">
<title>Node1</title>
<g id="a_Node000001"><a xlink:title="Header file of ltc4306 driver.">
<polygon fill="#999999" stroke="#666666" points="347.5,-206 194.5,-206 194.5,-165 347.5,-165 347.5,-206"/>
<text text-anchor="start" x="202.5" y="-194" font-family="Helvetica,sans-Serif" font-size="10.00">/home/runner/work/no</text>
<text text-anchor="start" x="202.5" y="-183" font-family="Helvetica,sans-Serif" font-size="10.00">&#45;OS/no&#45;OS/drivers/io</text>
<text text-anchor="middle" x="271" y="-172" font-family="Helvetica,sans-Serif" font-size="10.00">&#45;expander/ltc4306/ltc4306.h</text>
</a>
</g>
</g>
<!-- Node2 -->
<g id="Node000002" class="node">
<title>Node2</title>
<g id="a_Node000002"><a xlink:href="ltc4306_8c.html" target="_top" xlink:title="Implementation of ltc4306 driver.">
<polygon fill="white" stroke="#666666" points="152,-123.5 0,-123.5 0,-82.5 152,-82.5 152,-123.5"/>
<text text-anchor="start" x="8" y="-111.5" font-family="Helvetica,sans-Serif" font-size="10.00">/home/runner/work/no</text>
<text text-anchor="start" x="8" y="-100.5" font-family="Helvetica,sans-Serif" font-size="10.00">&#45;OS/no&#45;OS/drivers/io</text>
<text text-anchor="middle" x="76" y="-89.5" font-family="Helvetica,sans-Serif" font-size="10.00">&#45;expander/ltc4306/ltc4306.c</text>
</a>
</g>
</g>
<!-- Node1&#45;&gt;Node2 -->
<g id="edge1_Node000001_Node000002" class="edge">
<title>Node1&#45;&gt;Node2</title>
<g id="a_edge1_Node000001_Node000002"><a xlink:title=" ">
<path fill="none" stroke="#63b8ff" d="M213.8,-160.89C185.11,-149.04 150.77,-134.87 123.55,-123.63"/>
<polygon fill="#63b8ff" stroke="#63b8ff" points="212.72,-164.23 223.3,-164.81 215.39,-157.76 212.72,-164.23"/>
</a>
</g>
</g>
<!-- Node3 -->
<g id="Node000003" class="node">
<title>Node3</title>
<g id="a_Node000003"><a xlink:href="eval-ltc4306_2src_2common_2common__data_8h.html" target="_top" xlink:title="Defines common data to be used by eval&#45;ltc4306&#45;pmdz examples.">
<polygon fill="white" stroke="#666666" points="371.5,-123.5 170.5,-123.5 170.5,-82.5 371.5,-82.5 371.5,-123.5"/>
<text text-anchor="start" x="178.5" y="-111.5" font-family="Helvetica,sans-Serif" font-size="10.00">/home/runner/work/no</text>
<text text-anchor="start" x="178.5" y="-100.5" font-family="Helvetica,sans-Serif" font-size="10.00">&#45;OS/no&#45;OS/projects/eval</text>
<text text-anchor="middle" x="271" y="-89.5" font-family="Helvetica,sans-Serif" font-size="10.00">&#45;ltc4306/src/common/common_data.h</text>
</a>
</g>
</g>
<!-- Node1&#45;&gt;Node3 -->
<g id="edge2_Node000001_Node000003" class="edge">
<title>Node1&#45;&gt;Node3</title>
<g id="a_edge2_Node000001_Node000003"><a xlink:title=" ">
<path fill="none" stroke="#63b8ff" d="M271,-154.37C271,-144.1 271,-132.9 271,-123.67"/>
<polygon fill="#63b8ff" stroke="#63b8ff" points="267.5,-154.6 271,-164.6 274.5,-154.6 267.5,-154.6"/>
</a>
</g>
</g>
<!-- Node5 -->
<g id="Node000005" class="node">
<title>Node5</title>
<g id="a_Node000005"><a xlink:href="eval-ltc4306_2src_2examples_2basic_2basic__example_8c.html" target="_top" xlink:title="Basic example code for eval&#45;ltc4306&#45;pmdz project.">
<polygon fill="white" stroke="#666666" points="542.5,-129 389.5,-129 389.5,-77 542.5,-77 542.5,-129"/>
<text text-anchor="start" x="397.5" y="-117" font-family="Helvetica,sans-Serif" font-size="10.00">/home/runner/work/no</text>
<text text-anchor="start" x="397.5" y="-106" font-family="Helvetica,sans-Serif" font-size="10.00">&#45;OS/no&#45;OS/projects/eval</text>
<text text-anchor="start" x="397.5" y="-95" font-family="Helvetica,sans-Serif" font-size="10.00">&#45;ltc4306/src/examples/basic</text>
<text text-anchor="middle" x="466" y="-84" font-family="Helvetica,sans-Serif" font-size="10.00">/basic_example.c</text>
</a>
</g>
</g>
<!-- Node1&#45;&gt;Node5 -->
<g id="edge4_Node000001_Node000005" class="edge">
<title>Node1&#45;&gt;Node5</title>
<g id="a_edge4_Node000001_Node000005"><a xlink:title=" ">
<path fill="none" stroke="#63b8ff" d="M328.11,-160.92C352.31,-150.93 380.54,-139.28 405.13,-129.13"/>
<polygon fill="#63b8ff" stroke="#63b8ff" points="326.61,-157.76 318.7,-164.81 329.28,-164.23 326.61,-157.76"/>
</a>
</g>
</g>
<!-- Node4 -->
<g id="Node000004" class="node">
<title>Node4</title>
<g id="a_Node000004"><a xlink:href="eval-ltc4306_2src_2common_2common__data_8c.html" target="_top" xlink:title="Defines common data to be used by eval&#45;ltc4306&#45;pmdz examples.">
<polygon fill="white" stroke="#666666" points="371,-41 171,-41 171,0 371,0 371,-41"/>
<text text-anchor="start" x="179" y="-29" font-family="Helvetica,sans-Serif" font-size="10.00">/home/runner/work/no</text>
<text text-anchor="start" x="179" y="-18" font-family="Helvetica,sans-Serif" font-size="10.00">&#45;OS/no&#45;OS/projects/eval</text>
<text text-anchor="middle" x="271" y="-7" font-family="Helvetica,sans-Serif" font-size="10.00">&#45;ltc4306/src/common/common_data.c</text>
</a>
</g>
</g>
<!-- Node3&#45;&gt;Node4 -->
<g id="edge3_Node000003_Node000004" class="edge">
<title>Node3&#45;&gt;Node4</title>
<g id="a_edge3_Node000003_Node000004"><a xlink:title=" ">
<path fill="none" stroke="#63b8ff" d="M271,-71.87C271,-61.6 271,-50.4 271,-41.17"/>
<polygon fill="#63b8ff" stroke="#63b8ff" points="267.5,-72.1 271,-82.1 274.5,-72.1 267.5,-72.1"/>
</a>
</g>
</g>
</g>
</svg>
