<?xml version="1.0" encoding="UTF-8" standalone="no"?>
<!DOCTYPE svg PUBLIC "-//W3C//DTD SVG 1.1//EN"
 "http://www.w3.org/Graphics/SVG/1.1/DTD/svg11.dtd">
<!-- Generated by graphviz version 2.43.0 (0)
 -->
<!-- Title: /home/runner/work/no&#45;OS/no&#45;OS/drivers/power/ltc4162l/ltc4162l.h Pages: 1 -->
<svg width="646pt" height="214pt"
 viewBox="0.00 0.00 646.00 214.00" xmlns="http://www.w3.org/2000/svg" xmlns:xlink="http://www.w3.org/1999/xlink">
<g id="graph0" class="graph" transform="scale(1 1) rotate(0) translate(4 210)">
<title>/home/runner/work/no&#45;OS/no&#45;OS/drivers/power/ltc4162l/ltc4162l.h</title>
<!-- Node1 -->
<g id="Node000001" class="node">
<title>Node1</title>
<g id="a_Node000001"><a xlink:title=" ">
<polygon fill="#999999" stroke="#666666" points="373,-206 237,-206 237,-165 373,-165 373,-206"/>
<text text-anchor="start" x="245" y="-194" font-family="Helvetica,sans-Serif" font-size="10.00">/home/runner/work/no</text>
<text text-anchor="start" x="245" y="-183" font-family="Helvetica,sans-Serif" font-size="10.00">&#45;OS/no&#45;OS/drivers/power</text>
<text text-anchor="middle" x="305" y="-172" font-family="Helvetica,sans-Serif" font-size="10.00">/ltc4162l/ltc4162l.h</text>
</a>
</g>
</g>
<!-- Node2 -->
<g id="Node000002" class="node">
<title>Node2</title>
<g id="a_Node000002"><a xlink:href="iio__ltc4162l_8c.html" target="_top" xlink:title="Implementation of IIO LTC4162L Driver.">
<polygon fill="white" stroke="#666666" points="136,-123.5 0,-123.5 0,-82.5 136,-82.5 136,-123.5"/>
<text text-anchor="start" x="8" y="-111.5" font-family="Helvetica,sans-Serif" font-size="10.00">/home/runner/work/no</text>
<text text-anchor="start" x="8" y="-100.5" font-family="Helvetica,sans-Serif" font-size="10.00">&#45;OS/no&#45;OS/drivers/power</text>
<text text-anchor="middle" x="68" y="-89.5" font-family="Helvetica,sans-Serif" font-size="10.00">/ltc4162l/iio_ltc4162l.c</text>
</a>
</g>
</g>
<!-- Node1&#45;&gt;Node2 -->
<g id="edge1_Node000001_Node000002" class="edge">
<title>Node1&#45;&gt;Node2</title>
<g id="a_edge1_Node000001_Node000002"><a xlink:title=" ">
<path fill="none" stroke="#63b8ff" d="M237.56,-161.59C202.19,-149.58 159.31,-135.01 125.52,-123.54"/>
<polygon fill="#63b8ff" stroke="#63b8ff" points="236.73,-165.01 247.33,-164.91 238.98,-158.38 236.73,-165.01"/>
</a>
</g>
</g>
<!-- Node3 -->
<g id="Node000003" class="node">
<title>Node3</title>
<g id="a_Node000003"><a xlink:href="ltc4162l_8c.html" target="_top" xlink:title=" ">
<polygon fill="white" stroke="#666666" points="290,-123.5 154,-123.5 154,-82.5 290,-82.5 290,-123.5"/>
<text text-anchor="start" x="162" y="-111.5" font-family="Helvetica,sans-Serif" font-size="10.00">/home/runner/work/no</text>
<text text-anchor="start" x="162" y="-100.5" font-family="Helvetica,sans-Serif" font-size="10.00">&#45;OS/no&#45;OS/drivers/power</text>
<text text-anchor="middle" x="222" y="-89.5" font-family="Helvetica,sans-Serif" font-size="10.00">/ltc4162l/ltc4162l.c</text>
</a>
</g>
</g>
<!-- Node1&#45;&gt;Node3 -->
<g id="edge2_Node000001_Node000003" class="edge">
<title>Node1&#45;&gt;Node3</title>
<g id="a_edge2_Node000001_Node000003"><a xlink:title=" ">
<path fill="none" stroke="#63b8ff" d="M277.24,-157.57C265.8,-146.48 252.8,-133.87 242.28,-123.67"/>
<polygon fill="#63b8ff" stroke="#63b8ff" points="274.87,-160.15 284.48,-164.6 279.74,-155.13 274.87,-160.15"/>
</a>
</g>
</g>
<!-- Node4 -->
<g id="Node000004" class="node">
<title>Node4</title>
<g id="a_Node000004"><a xlink:href="ltc4162l_2src_2common_2common__data_8h.html" target="_top" xlink:title=" ">
<polygon fill="white" stroke="#666666" points="469.5,-123.5 308.5,-123.5 308.5,-82.5 469.5,-82.5 469.5,-123.5"/>
<text text-anchor="start" x="316.5" y="-111.5" font-family="Helvetica,sans-Serif" font-size="10.00">/home/runner/work/no</text>
<text text-anchor="start" x="316.5" y="-100.5" font-family="Helvetica,sans-Serif" font-size="10.00">&#45;OS/no&#45;OS/projects/ltc4162l</text>
<text text-anchor="middle" x="389" y="-89.5" font-family="Helvetica,sans-Serif" font-size="10.00">/src/common/common_data.h</text>
</a>
</g>
</g>
<!-- Node1&#45;&gt;Node4 -->
<g id="edge3_Node000001_Node000004" class="edge">
<title>Node1&#45;&gt;Node4</title>
<g id="a_edge3_Node000001_Node000004"><a xlink:title=" ">
<path fill="none" stroke="#63b8ff" d="M333.1,-157.57C344.67,-146.48 357.83,-133.87 368.47,-123.67"/>
<polygon fill="#63b8ff" stroke="#63b8ff" points="330.56,-155.16 325.76,-164.6 335.41,-160.21 330.56,-155.16"/>
</a>
</g>
</g>
<!-- Node6 -->
<g id="Node000006" class="node">
<title>Node6</title>
<g id="a_Node000006"><a xlink:href="ltc4162l_2src_2examples_2basic_2basic__example_8c.html" target="_top" xlink:title=" ">
<polygon fill="white" stroke="#666666" points="638,-129 488,-129 488,-77 638,-77 638,-129"/>
<text text-anchor="start" x="496" y="-117" font-family="Helvetica,sans-Serif" font-size="10.00">/home/runner/work/no</text>
<text text-anchor="start" x="496" y="-106" font-family="Helvetica,sans-Serif" font-size="10.00">&#45;OS/no&#45;OS/projects/ltc4162l</text>
<text text-anchor="start" x="496" y="-95" font-family="Helvetica,sans-Serif" font-size="10.00">/src/examples/basic/basic</text>
<text text-anchor="middle" x="563" y="-84" font-family="Helvetica,sans-Serif" font-size="10.00">_example.c</text>
</a>
</g>
</g>
<!-- Node1&#45;&gt;Node6 -->
<g id="edge5_Node000001_Node000006" class="edge">
<title>Node1&#45;&gt;Node6</title>
<g id="a_edge5_Node000001_Node000006"><a xlink:title=" ">
<path fill="none" stroke="#63b8ff" d="M377.77,-161.79C412.2,-151.05 453.27,-138.24 487.98,-127.41"/>
<polygon fill="#63b8ff" stroke="#63b8ff" points="376.29,-158.59 367.78,-164.91 378.37,-165.27 376.29,-158.59"/>
</a>
</g>
</g>
<!-- Node5 -->
<g id="Node000005" class="node">
<title>Node5</title>
<g id="a_Node000005"><a xlink:href="ltc4162l_2src_2common_2common__data_8c.html" target="_top" xlink:title=" ">
<polygon fill="white" stroke="#666666" points="469.5,-41 308.5,-41 308.5,0 469.5,0 469.5,-41"/>
<text text-anchor="start" x="316.5" y="-29" font-family="Helvetica,sans-Serif" font-size="10.00">/home/runner/work/no</text>
<text text-anchor="start" x="316.5" y="-18" font-family="Helvetica,sans-Serif" font-size="10.00">&#45;OS/no&#45;OS/projects/ltc4162l</text>
<text text-anchor="middle" x="389" y="-7" font-family="Helvetica,sans-Serif" font-size="10.00">/src/common/common_data.c</text>
</a>
</g>
</g>
<!-- Node4&#45;&gt;Node5 -->
<g id="edge4_Node000004_Node000005" class="edge">
<title>Node4&#45;&gt;Node5</title>
<g id="a_edge4_Node000004_Node000005"><a xlink:title=" ">
<path fill="none" stroke="#63b8ff" d="M389,-71.87C389,-61.6 389,-50.4 389,-41.17"/>
<polygon fill="#63b8ff" stroke="#63b8ff" points="385.5,-72.1 389,-82.1 392.5,-72.1 385.5,-72.1"/>
</a>
</g>
</g>
</g>
</svg>
