<?xml version="1.0" encoding="UTF-8" standalone="no"?>
<!DOCTYPE svg PUBLIC "-//W3C//DTD SVG 1.1//EN"
 "http://www.w3.org/Graphics/SVG/1.1/DTD/svg11.dtd">
<!-- Generated by graphviz version 2.43.0 (0)
 -->
<!-- Title: /home/runner/work/no&#45;OS/no&#45;OS/drivers/power/ltm3360b/ltm3360b.h Pages: 1 -->
<svg width="538pt" height="214pt"
 viewBox="0.00 0.00 538.00 214.00" xmlns="http://www.w3.org/2000/svg" xmlns:xlink="http://www.w3.org/1999/xlink">
<g id="graph0" class="graph" transform="scale(1 1) rotate(0) translate(4 210)">
<title>/home/runner/work/no&#45;OS/no&#45;OS/drivers/power/ltm3360b/ltm3360b.h</title>
<!-- Node1 -->
<g id="Node000001" class="node">
<title>Node1</title>
<g id="a_Node000001"><a xlink:title="Header file of the LTM3360B driver.">
<polygon fill="#999999" stroke="#666666" points="286,-206 150,-206 150,-165 286,-165 286,-206"/>
<text text-anchor="start" x="158" y="-194" font-family="Helvetica,sans-Serif" font-size="10.00">/home/runner/work/no</text>
<text text-anchor="start" x="158" y="-183" font-family="Helvetica,sans-Serif" font-size="10.00">&#45;OS/no&#45;OS/drivers/power</text>
<text text-anchor="middle" x="218" y="-172" font-family="Helvetica,sans-Serif" font-size="10.00">/ltm3360b/ltm3360b.h</text>
</a>
</g>
</g>
<!-- Node2 -->
<g id="Node000002" class="node">
<title>Node2</title>
<g id="a_Node000002"><a xlink:href="ltm3360b_8c.html" target="_top" xlink:title="Source code of the LTM3360B driver.">
<polygon fill="white" stroke="#666666" points="136,-123.5 0,-123.5 0,-82.5 136,-82.5 136,-123.5"/>
<text text-anchor="start" x="8" y="-111.5" font-family="Helvetica,sans-Serif" font-size="10.00">/home/runner/work/no</text>
<text text-anchor="start" x="8" y="-100.5" font-family="Helvetica,sans-Serif" font-size="10.00">&#45;OS/no&#45;OS/drivers/power</text>
<text text-anchor="middle" x="68" y="-89.5" font-family="Helvetica,sans-Serif" font-size="10.00">/ltm3360b/ltm3360b.c</text>
</a>
</g>
</g>
<!-- Node1&#45;&gt;Node2 -->
<g id="edge1_Node000001_Node000002" class="edge">
<title>Node1&#45;&gt;Node2</title>
<g id="a_edge1_Node000001_Node000002"><a xlink:title=" ">
<path fill="none" stroke="#63b8ff" d="M172.27,-159.96C150.56,-148.31 124.97,-134.57 104.57,-123.63"/>
<polygon fill="#63b8ff" stroke="#63b8ff" points="170.84,-163.16 181.31,-164.81 174.15,-156.99 170.84,-163.16"/>
</a>
</g>
</g>
<!-- Node3 -->
<g id="Node000003" class="node">
<title>Node3</title>
<g id="a_Node000003"><a xlink:href="ltm3360b_2src_2common_2common__data_8c.html" target="_top" xlink:title="Defines common data to be used by LTM3360B example.">
<polygon fill="white" stroke="#666666" points="298.5,-41 137.5,-41 137.5,0 298.5,0 298.5,-41"/>
<text text-anchor="start" x="145.5" y="-29" font-family="Helvetica,sans-Serif" font-size="10.00">/home/runner/work/no</text>
<text text-anchor="start" x="145.5" y="-18" font-family="Helvetica,sans-Serif" font-size="10.00">&#45;OS/no&#45;OS/projects/ltm3360b</text>
<text text-anchor="middle" x="218" y="-7" font-family="Helvetica,sans-Serif" font-size="10.00">/src/common/common_data.c</text>
</a>
</g>
</g>
<!-- Node1&#45;&gt;Node3 -->
<g id="edge2_Node000001_Node000003" class="edge">
<title>Node1&#45;&gt;Node3</title>
<g id="a_edge2_Node000001_Node000003"><a xlink:title=" ">
<path fill="none" stroke="#63b8ff" d="M196.67,-156.36C191.49,-147.99 186.68,-138.5 184,-129 177.73,-106.76 177.73,-99.24 184,-77 187.65,-64.06 195.25,-51.16 202.35,-41.05"/>
<polygon fill="#63b8ff" stroke="#63b8ff" points="193.91,-158.53 202.35,-164.95 199.75,-154.67 193.91,-158.53"/>
</a>
</g>
</g>
<!-- Node4 -->
<g id="Node000004" class="node">
<title>Node4</title>
<g id="a_Node000004"><a xlink:href="ltm3360b_2src_2common_2common__data_8h.html" target="_top" xlink:title="Defines common data to be used by LTM3360B examples.">
<polygon fill="white" stroke="#666666" points="353.5,-123.5 192.5,-123.5 192.5,-82.5 353.5,-82.5 353.5,-123.5"/>
<text text-anchor="start" x="200.5" y="-111.5" font-family="Helvetica,sans-Serif" font-size="10.00">/home/runner/work/no</text>
<text text-anchor="start" x="200.5" y="-100.5" font-family="Helvetica,sans-Serif" font-size="10.00">&#45;OS/no&#45;OS/projects/ltm3360b</text>
<text text-anchor="middle" x="273" y="-89.5" font-family="Helvetica,sans-Serif" font-size="10.00">/src/common/common_data.h</text>
</a>
</g>
</g>
<!-- Node1&#45;&gt;Node4 -->
<g id="edge3_Node000001_Node000004" class="edge">
<title>Node1&#45;&gt;Node4</title>
<g id="a_edge3_Node000001_Node000004"><a xlink:title=" ">
<path fill="none" stroke="#63b8ff" d="M237.27,-156.3C244.63,-145.52 252.86,-133.48 259.56,-123.67"/>
<polygon fill="#63b8ff" stroke="#63b8ff" points="234.35,-154.37 231.6,-164.6 240.13,-158.32 234.35,-154.37"/>
</a>
</g>
</g>
<!-- Node5 -->
<g id="Node000005" class="node">
<title>Node5</title>
<g id="a_Node000005"><a xlink:href="ltm3360b_2src_2examples_2basic_2basic__example_8c.html" target="_top" xlink:title="Basic example for LTM3360B project.">
<polygon fill="white" stroke="#666666" points="530,-129 372,-129 372,-77 530,-77 530,-129"/>
<text text-anchor="start" x="380" y="-117" font-family="Helvetica,sans-Serif" font-size="10.00">/home/runner/work/no</text>
<text text-anchor="start" x="380" y="-106" font-family="Helvetica,sans-Serif" font-size="10.00">&#45;OS/no&#45;OS/projects/ltm3360b</text>
<text text-anchor="start" x="380" y="-95" font-family="Helvetica,sans-Serif" font-size="10.00">/src/examples/basic/basic</text>
<text text-anchor="middle" x="451" y="-84" font-family="Helvetica,sans-Serif" font-size="10.00">_example.c</text>
</a>
</g>
</g>
<!-- Node1&#45;&gt;Node5 -->
<g id="edge5_Node000001_Node000005" class="edge">
<title>Node1&#45;&gt;Node5</title>
<g id="a_edge5_Node000001_Node000005"><a xlink:title=" ">
<path fill="none" stroke="#63b8ff" d="M284.45,-161.54C313.84,-151.39 348.48,-139.42 378.53,-129.04"/>
<polygon fill="#63b8ff" stroke="#63b8ff" points="283.01,-158.34 274.7,-164.91 285.3,-164.95 283.01,-158.34"/>
</a>
</g>
</g>
<!-- Node4&#45;&gt;Node3 -->
<g id="edge4_Node000004_Node000003" class="edge">
<title>Node4&#45;&gt;Node3</title>
<g id="a_edge4_Node000004_Node000003"><a xlink:title=" ">
<path fill="none" stroke="#63b8ff" d="M253.73,-73.8C246.37,-63.02 238.14,-50.98 231.44,-41.17"/>
<polygon fill="#63b8ff" stroke="#63b8ff" points="250.87,-75.82 259.4,-82.1 256.65,-71.87 250.87,-75.82"/>
</a>
</g>
</g>
</g>
</svg>
