<?xml version="1.0" encoding="UTF-8" standalone="no"?>
<!DOCTYPE svg PUBLIC "-//W3C//DTD SVG 1.1//EN"
 "http://www.w3.org/Graphics/SVG/1.1/DTD/svg11.dtd">
<!-- Generated by graphviz version 2.43.0 (0)
 -->
<!-- Title: /home/runner/work/no&#45;OS/no&#45;OS/drivers/power/ltm3360b/ltm3360b.c Pages: 1 -->
<!--zoomable 214 -->

<svg id="main" version="1.1" xmlns="http://www.w3.org/2000/svg" xmlns:xlink="http://www.w3.org/1999/xlink" xml:space="preserve" onload="init(evt)">

<style type="text/css"><![CDATA[
.node, .edge {opacity: 0.7;}
.node.selected, .edge.selected {opacity: 1;}
.edge:hover path { stroke: red; }
.edge:hover polygon { stroke: red; fill: red; }
]]></style>

<defs>
  <circle id="rim" cx="0" cy="0" r="7"/>
  <circle id="rim2" cx="0" cy="0" r="3.5"/>
  <g id="zoomPlus">
    <use xlink:href="#rim" fill="#404040"><set attributeName="fill" to="#808080" begin="zoomplus.mouseover" end="zoomplus.mouseout"/></use>
    <path d="M-4,0h8M0,-4v8" fill="none" stroke="white" stroke-width="1.5" pointer-events="none"/>
  </g>
  <g id="zoomMin">
    <use xlink:href="#rim" fill="#404040"><set attributeName="fill" to="#808080" begin="zoomminus.mouseover" end="zoomminus.mouseout"/></use>
    <path d="M-4,0h8" fill="none" stroke="white" stroke-width="1.5" pointer-events="none"/>
  </g>
  <g id="arrowUp" transform="translate(30 24)">
    <use xlink:href="#rim"/>
    <path pointer-events="none" fill="none" stroke="white" stroke-width="1.5" d="M0,-3.0v7 M-2.5,-0.5L0,-3.0L2.5,-0.5"/>
  </g>
  <g id="arrowRight" transform="rotate(90) translate(36 -43)">
    <use xlink:href="#rim"/>
    <path pointer-events="none" fill="none" stroke="white" stroke-width="1.5" d="M0,-3.0v7 M-2.5,-0.5L0,-3.0L2.5,-0.5"/>
  </g>
  <g id="arrowDown" transform="rotate(180) translate(-30 -48)">
    <use xlink:href="#rim"/>
    <path pointer-events="none" fill="none" stroke="white" stroke-width="1.5" d="M0,-3.0v7 M-2.5,-0.5L0,-3.0L2.5,-0.5"/>
  </g>
  <g id="arrowLeft" transform="rotate(270) translate(-36 17)">
    <use xlink:href="#rim"/>
    <path pointer-events="none" fill="none" stroke="white" stroke-width="1.5" d="M0,-3.0v7 M-2.5,-0.5L0,-3.0L2.5,-0.5"/>
  </g>
  <g id="resetDef">
    <use xlink:href="#rim2" fill="#404040"><set attributeName="fill" to="#808080" begin="reset.mouseover" end="reset.mouseout"/></use>
  </g>
</defs>
<script type="application/ecmascript">
var viewWidth = 624;
var viewHeight = 214;
var sectionId = 'dynsection-0';
</script>
<script type="application/ecmascript" xlink:href="svg.min.js"/>
<svg id="graph" class="graph">
<g id="viewport">
<title>/home/runner/work/no&#45;OS/no&#45;OS/drivers/power/ltm3360b/ltm3360b.c</title>
<!-- Node1 -->
<g id="Node000001" class="node">
<title>Node1</title>
<g id="a_Node000001"><a xlink:title="Source code of the LTM3360B driver.">
<polygon fill="#999999" stroke="#666666" points="376.64,-206 240.64,-206 240.64,-165 376.64,-165 376.64,-206"/>
<text text-anchor="start" x="248.64" y="-194" font-family="Helvetica,sans-Serif" font-size="10.00">/home/runner/work/no</text>
<text text-anchor="start" x="248.64" y="-183" font-family="Helvetica,sans-Serif" font-size="10.00">&#45;OS/no&#45;OS/drivers/power</text>
<text text-anchor="middle" x="308.64" y="-172" font-family="Helvetica,sans-Serif" font-size="10.00">/ltm3360b/ltm3360b.c</text>
</a>
</g>
</g>
<!-- Node2 -->
<g id="Node000002" class="node">
<title>Node2</title>
<g id="a_Node000002"><a xlink:title=" ">
<polygon fill="#e0e0e0" stroke="#999999" points="119.14,-19 66.14,-19 66.14,0 119.14,0 119.14,-19"/>
<text text-anchor="middle" x="92.64" y="-7" font-family="Helvetica,sans-Serif" font-size="10.00">stdint.h</text>
</a>
</g>
</g>
<!-- Node1&#45;&gt;Node2 -->
<g id="edge1_Node000001_Node000002" class="edge">
<title>Node1&#45;&gt;Node2</title>
<g id="a_edge1_Node000001_Node000002"><a xlink:title=" ">
<path fill="none" stroke="#63b8ff" d="M240.61,-181.7C161.36,-176.84 37.56,-163.76 8.64,-129 -21.12,-93.23 35.65,-47.46 69.68,-24.69"/>
<polygon fill="#63b8ff" stroke="#63b8ff" points="71.71,-27.55 78.18,-19.16 67.89,-21.68 71.71,-27.55"/>
</a>
</g>
</g>
<!-- Node3 -->
<g id="Node000003" class="node">
<title>Node3</title>
<g id="a_Node000003"><a xlink:title=" ">
<polygon fill="#e0e0e0" stroke="#999999" points="292.64,-19 230.64,-19 230.64,0 292.64,0 292.64,-19"/>
<text text-anchor="middle" x="261.64" y="-7" font-family="Helvetica,sans-Serif" font-size="10.00">stdbool.h</text>
</a>
</g>
</g>
<!-- Node1&#45;&gt;Node3 -->
<g id="edge2_Node000001_Node000003" class="edge">
<title>Node1&#45;&gt;Node3</title>
<g id="a_edge2_Node000001_Node000003"><a xlink:title=" ">
<path fill="none" stroke="#63b8ff" d="M313.05,-164.67C317.91,-138.4 323.13,-91.17 307.64,-55 302.61,-43.27 292.84,-33.11 283.59,-25.47"/>
<polygon fill="#63b8ff" stroke="#63b8ff" points="285.46,-22.49 275.39,-19.19 281.2,-28.05 285.46,-22.49"/>
</a>
</g>
</g>
<!-- Node4 -->
<g id="Node000004" class="node">
<title>Node4</title>
<g id="a_Node000004"><a xlink:title=" ">
<polygon fill="#e0e0e0" stroke="#999999" points="392.14,-19 339.14,-19 339.14,0 392.14,0 392.14,-19"/>
<text text-anchor="middle" x="365.64" y="-7" font-family="Helvetica,sans-Serif" font-size="10.00">stdlib.h</text>
</a>
</g>
</g>
<!-- Node1&#45;&gt;Node4 -->
<g id="edge3_Node000001_Node000004" class="edge">
<title>Node1&#45;&gt;Node4</title>
<g id="a_edge3_Node000001_Node000004"><a xlink:title=" ">
<path fill="none" stroke="#63b8ff" d="M317.85,-164.98C322.62,-154.46 328.33,-141.17 332.64,-129 344.87,-94.39 355.55,-52.84 361.25,-29.27"/>
<polygon fill="#63b8ff" stroke="#63b8ff" points="364.73,-29.79 363.63,-19.25 357.92,-28.17 364.73,-29.79"/>
</a>
</g>
</g>
<!-- Node5 -->
<g id="Node000005" class="node">
<title>Node5</title>
<g id="a_Node000005"><a xlink:href="errno_8h.html" target="_top" xlink:title="Error macro definition for ARM Compiler.">
<polygon fill="white" stroke="#666666" points="575.14,-74 524.14,-74 524.14,-55 575.14,-55 575.14,-74"/>
<text text-anchor="middle" x="549.64" y="-62" font-family="Helvetica,sans-Serif" font-size="10.00">errno.h</text>
</a>
</g>
</g>
<!-- Node1&#45;&gt;Node5 -->
<g id="edge4_Node000001_Node000005" class="edge">
<title>Node1&#45;&gt;Node5</title>
<g id="a_edge4_Node000001_Node000005"><a xlink:title=" ">
<path fill="none" stroke="#63b8ff" d="M376.98,-171.16C411.24,-162.51 452.4,-149.04 485.64,-129 506.06,-116.68 524.84,-96.53 536.71,-82.24"/>
<polygon fill="#63b8ff" stroke="#63b8ff" points="539.62,-84.2 543.15,-74.21 534.16,-79.82 539.62,-84.2"/>
</a>
</g>
</g>
<!-- Node6 -->
<g id="Node000006" class="node">
<title>Node6</title>
<g id="a_Node000006"><a xlink:href="no__os__util_8h.html" target="_top" xlink:title="Header file of utility functions.">
<polygon fill="white" stroke="#666666" points="299.14,-74 224.14,-74 224.14,-55 299.14,-55 299.14,-74"/>
<text text-anchor="middle" x="261.64" y="-62" font-family="Helvetica,sans-Serif" font-size="10.00">no_os_util.h</text>
</a>
</g>
</g>
<!-- Node1&#45;&gt;Node6 -->
<g id="edge5_Node000001_Node000006" class="edge">
<title>Node1&#45;&gt;Node6</title>
<g id="a_edge5_Node000001_Node000006"><a xlink:title=" ">
<path fill="none" stroke="#63b8ff" d="M300.88,-164.85C291.96,-142.27 277.44,-105.52 268.79,-83.61"/>
<polygon fill="#63b8ff" stroke="#63b8ff" points="271.99,-82.19 265.06,-74.18 265.48,-84.76 271.99,-82.19"/>
</a>
</g>
</g>
<!-- Node7 -->
<g id="Node000007" class="node">
<title>Node7</title>
<g id="a_Node000007"><a xlink:href="no__os__delay_8h.html" target="_top" xlink:title="Header file of Delay functions.">
<polygon fill="white" stroke="#666666" points="103.14,-129 18.14,-129 18.14,-110 103.14,-110 103.14,-129"/>
<text text-anchor="middle" x="60.64" y="-117" font-family="Helvetica,sans-Serif" font-size="10.00">no_os_delay.h</text>
</a>
</g>
</g>
<!-- Node1&#45;&gt;Node7 -->
<g id="edge9_Node000001_Node000007" class="edge">
<title>Node1&#45;&gt;Node7</title>
<g id="a_edge9_Node000001_Node000007"><a xlink:title=" ">
<path fill="none" stroke="#63b8ff" d="M240.54,-166.93C196.89,-155.66 141.56,-141.38 103.86,-131.65"/>
<polygon fill="#63b8ff" stroke="#63b8ff" points="104.28,-128.15 93.72,-129.04 102.53,-134.93 104.28,-128.15"/>
</a>
</g>
</g>
<!-- Node8 -->
<g id="Node000008" class="node">
<title>Node8</title>
<g id="a_Node000008"><a xlink:href="no__os__alloc_8h.html" target="_top" xlink:title=" ">
<polygon fill="white" stroke="#666666" points="477.14,-129 394.14,-129 394.14,-110 477.14,-110 477.14,-129"/>
<text text-anchor="middle" x="435.64" y="-117" font-family="Helvetica,sans-Serif" font-size="10.00">no_os_alloc.h</text>
</a>
</g>
</g>
<!-- Node1&#45;&gt;Node8 -->
<g id="edge11_Node000001_Node000008" class="edge">
<title>Node1&#45;&gt;Node8</title>
<g id="a_edge11_Node000001_Node000008"><a xlink:title=" ">
<path fill="none" stroke="#63b8ff" d="M347.43,-164.95C367.5,-154.84 391.46,-142.76 409.34,-133.75"/>
<polygon fill="#63b8ff" stroke="#63b8ff" points="411.23,-136.72 418.59,-129.09 408.08,-130.47 411.23,-136.72"/>
</a>
</g>
</g>
<!-- Node10 -->
<g id="Node000010" class="node">
<title>Node10</title>
<g id="a_Node000010"><a xlink:href="no__os__i2c_8h.html" target="_top" xlink:title="Header file of I2C Interface.">
<polygon fill="white" stroke="#666666" points="129.64,-74 55.64,-74 55.64,-55 129.64,-55 129.64,-74"/>
<text text-anchor="middle" x="92.64" y="-62" font-family="Helvetica,sans-Serif" font-size="10.00">no_os_i2c.h</text>
</a>
</g>
</g>
<!-- Node1&#45;&gt;Node10 -->
<g id="edge14_Node000001_Node000010" class="edge">
<title>Node1&#45;&gt;Node10</title>
<g id="a_edge14_Node000001_Node000010"><a xlink:title=" ">
<path fill="none" stroke="#63b8ff" d="M240.29,-168.5C211.14,-159.71 177.68,-146.88 150.64,-129 131.84,-116.57 115.04,-96.72 104.43,-82.53"/>
<polygon fill="#63b8ff" stroke="#63b8ff" points="107.07,-80.21 98.38,-74.15 101.39,-84.31 107.07,-80.21"/>
</a>
</g>
</g>
<!-- Node11 -->
<g id="Node000011" class="node">
<title>Node11</title>
<g id="a_Node000011"><a xlink:href="no__os__error_8h.html" target="_top" xlink:title="Error codes definition.">
<polygon fill="white" stroke="#666666" points="615.64,-129 533.64,-129 533.64,-110 615.64,-110 615.64,-129"/>
<text text-anchor="middle" x="574.64" y="-117" font-family="Helvetica,sans-Serif" font-size="10.00">no_os_error.h</text>
</a>
</g>
</g>
<!-- Node1&#45;&gt;Node11 -->
<g id="edge16_Node000001_Node000011" class="edge">
<title>Node1&#45;&gt;Node11</title>
<g id="a_edge16_Node000001_Node000011"><a xlink:title=" ">
<path fill="none" stroke="#63b8ff" d="M376.79,-168.1C424.72,-156.57 487.51,-141.46 529.37,-131.39"/>
<polygon fill="#63b8ff" stroke="#63b8ff" points="530.37,-134.75 539.28,-129.01 528.74,-127.94 530.37,-134.75"/>
</a>
</g>
</g>
<!-- Node12 -->
<g id="Node000012" class="node">
<title>Node12</title>
<g id="a_Node000012"><a xlink:href="ltm3360b_8h.html" target="_top" xlink:title="Header file of the LTM3360B driver.">
<polygon fill="white" stroke="#666666" points="231.64,-129 159.64,-129 159.64,-110 231.64,-110 231.64,-129"/>
<text text-anchor="middle" x="195.64" y="-117" font-family="Helvetica,sans-Serif" font-size="10.00">ltm3360b.h</text>
</a>
</g>
</g>
<!-- Node1&#45;&gt;Node12 -->
<g id="edge18_Node000001_Node000012" class="edge">
<title>Node1&#45;&gt;Node12</title>
<g id="a_edge18_Node000001_Node000012"><a xlink:title=" ">
<path fill="none" stroke="#63b8ff" d="M274.12,-164.95C256.6,-155.03 235.73,-143.21 219.92,-134.25"/>
<polygon fill="#63b8ff" stroke="#63b8ff" points="221.23,-130.97 210.81,-129.09 217.78,-137.07 221.23,-130.97"/>
</a>
</g>
</g>
<!-- Node6&#45;&gt;Node2 -->
<g id="edge6_Node000006_Node000002" class="edge">
<title>Node6&#45;&gt;Node2</title>
<g id="a_edge6_Node000006_Node000002"><a xlink:title=" ">
<path fill="none" stroke="#63b8ff" d="M234.48,-54.98C205.86,-46.01 160.61,-31.82 128.93,-21.88"/>
<polygon fill="#63b8ff" stroke="#63b8ff" points="129.75,-18.47 119.16,-18.82 127.66,-25.15 129.75,-18.47"/>
</a>
</g>
</g>
<!-- Node6&#45;&gt;Node3 -->
<g id="edge8_Node000006_Node000003" class="edge">
<title>Node6&#45;&gt;Node3</title>
<g id="a_edge8_Node000006_Node000003"><a xlink:title=" ">
<path fill="none" stroke="#63b8ff" d="M261.64,-54.75C261.64,-47.8 261.64,-37.85 261.64,-29.13"/>
<polygon fill="#63b8ff" stroke="#63b8ff" points="265.14,-29.09 261.64,-19.09 258.14,-29.09 265.14,-29.09"/>
</a>
</g>
</g>
<!-- Node6&#45;&gt;Node4 -->
<g id="edge7_Node000006_Node000004" class="edge">
<title>Node6&#45;&gt;Node4</title>
<g id="a_edge7_Node000006_Node000004"><a xlink:title=" ">
<path fill="none" stroke="#63b8ff" d="M278.35,-54.98C294.85,-46.57 320.33,-33.59 339.51,-23.81"/>
<polygon fill="#63b8ff" stroke="#63b8ff" points="341.3,-26.83 348.62,-19.17 338.12,-20.59 341.3,-26.83"/>
</a>
</g>
</g>
<!-- Node7&#45;&gt;Node2 -->
<g id="edge10_Node000007_Node000002" class="edge">
<title>Node7&#45;&gt;Node2</title>
<g id="a_edge10_Node000007_Node000002"><a xlink:title=" ">
<path fill="none" stroke="#63b8ff" d="M55.57,-109.98C48.85,-97.5 38.7,-73.71 46.64,-55 51.62,-43.25 61.39,-33.09 70.65,-25.45"/>
<polygon fill="#63b8ff" stroke="#63b8ff" points="73.03,-28.03 78.85,-19.18 68.78,-22.47 73.03,-28.03"/>
</a>
</g>
</g>
<!-- Node8&#45;&gt;Node4 -->
<g id="edge13_Node000008_Node000004" class="edge">
<title>Node8&#45;&gt;Node4</title>
<g id="a_edge13_Node000008_Node000004"><a xlink:title=" ">
<path fill="none" stroke="#63b8ff" d="M442.08,-109.67C450.6,-96.8 463.36,-72.52 452.64,-55 441.6,-36.97 420.7,-25.95 402.15,-19.38"/>
<polygon fill="#63b8ff" stroke="#63b8ff" points="403.04,-15.99 392.44,-16.26 400.89,-22.66 403.04,-15.99"/>
</a>
</g>
</g>
<!-- Node9 -->
<g id="Node000009" class="node">
<title>Node9</title>
<g id="a_Node000009"><a xlink:title=" ">
<polygon fill="#e0e0e0" stroke="#999999" points="443.64,-74 393.64,-74 393.64,-55 443.64,-55 443.64,-74"/>
<text text-anchor="middle" x="418.64" y="-62" font-family="Helvetica,sans-Serif" font-size="10.00">stdio.h</text>
</a>
</g>
</g>
<!-- Node8&#45;&gt;Node9 -->
<g id="edge12_Node000008_Node000009" class="edge">
<title>Node8&#45;&gt;Node9</title>
<g id="a_edge12_Node000008_Node000009"><a xlink:title=" ">
<path fill="none" stroke="#63b8ff" d="M432.83,-109.75C430.58,-102.72 427.34,-92.62 424.52,-83.84"/>
<polygon fill="#63b8ff" stroke="#63b8ff" points="427.78,-82.54 421.39,-74.09 421.11,-84.68 427.78,-82.54"/>
</a>
</g>
</g>
<!-- Node10&#45;&gt;Node2 -->
<g id="edge15_Node000010_Node000002" class="edge">
<title>Node10&#45;&gt;Node2</title>
<g id="a_edge15_Node000010_Node000002"><a xlink:title=" ">
<path fill="none" stroke="#63b8ff" d="M92.64,-54.75C92.64,-47.8 92.64,-37.85 92.64,-29.13"/>
<polygon fill="#63b8ff" stroke="#63b8ff" points="96.14,-29.09 92.64,-19.09 89.14,-29.09 96.14,-29.09"/>
</a>
</g>
</g>
<!-- Node11&#45;&gt;Node5 -->
<g id="edge17_Node000011_Node000005" class="edge">
<title>Node11&#45;&gt;Node5</title>
<g id="a_edge17_Node000011_Node000005"><a xlink:title=" ">
<path fill="none" stroke="#63b8ff" d="M570.51,-109.75C567.12,-102.57 562.22,-92.18 558.02,-83.27"/>
<polygon fill="#63b8ff" stroke="#63b8ff" points="561.12,-81.64 553.69,-74.09 554.79,-84.63 561.12,-81.64"/>
</a>
</g>
</g>
<!-- Node12&#45;&gt;Node2 -->
<g id="edge19_Node000012_Node000002" class="edge">
<title>Node12&#45;&gt;Node2</title>
<g id="a_edge19_Node000012_Node000002"><a xlink:title=" ">
<path fill="none" stroke="#63b8ff" d="M188.08,-109.7C177.34,-97.27 156.93,-73.99 138.64,-55 129.19,-45.2 118.25,-34.59 109.41,-26.19"/>
<polygon fill="#63b8ff" stroke="#63b8ff" points="111.66,-23.5 101.99,-19.18 106.86,-28.59 111.66,-23.5"/>
</a>
</g>
</g>
<!-- Node12&#45;&gt;Node3 -->
<g id="edge20_Node000012_Node000003" class="edge">
<title>Node12&#45;&gt;Node3</title>
<g id="a_edge20_Node000012_Node000003"><a xlink:title=" ">
<path fill="none" stroke="#63b8ff" d="M196.79,-109.7C198.8,-96.87 203.78,-72.64 214.64,-55 221.58,-43.72 232.1,-33.39 241.42,-25.53"/>
<polygon fill="#63b8ff" stroke="#63b8ff" points="243.9,-28.03 249.52,-19.05 239.52,-22.56 243.9,-28.03"/>
</a>
</g>
</g>
<!-- Node12&#45;&gt;Node6 -->
<g id="edge21_Node000012_Node000006" class="edge">
<title>Node12&#45;&gt;Node6</title>
<g id="a_edge21_Node000012_Node000006"><a xlink:title=" ">
<path fill="none" stroke="#63b8ff" d="M206.24,-109.98C216.09,-102.07 230.99,-90.11 242.85,-80.58"/>
<polygon fill="#63b8ff" stroke="#63b8ff" points="245.23,-83.16 250.84,-74.17 240.85,-77.7 245.23,-83.16"/>
</a>
</g>
</g>
<!-- Node12&#45;&gt;Node10 -->
<g id="edge22_Node000012_Node000010" class="edge">
<title>Node12&#45;&gt;Node10</title>
<g id="a_edge22_Node000012_Node000010"><a xlink:title=" ">
<path fill="none" stroke="#63b8ff" d="M179.09,-109.98C162.74,-101.57 137.5,-88.59 118.51,-78.81"/>
<polygon fill="#63b8ff" stroke="#63b8ff" points="119.98,-75.63 109.49,-74.17 116.78,-81.86 119.98,-75.63"/>
</a>
</g>
</g>
</g>
</svg>

<g id="navigator" transform="translate(0 0)" fill="#404254">
  <rect fill="#f2f5e9" fill-opacity="0.5" stroke="#606060" stroke-width=".5" x="0" y="0" width="60" height="60"/>
  <use id="zoomplus" xlink:href="#zoomPlus" x="17" y="9" onmousedown="handleZoom(evt,'in')"/>
  <use id="zoomminus" xlink:href="#zoomMin" x="42" y="9" onmousedown="handleZoom(evt,'out')"/>
  <use id="reset" xlink:href="#resetDef" x="30" y="36" onmousedown="handleReset()"/>
   <use id="arrowup" xlink:href="#arrowUp" x="0" y="0" onmousedown="handlePan(0,-1)"/>
  <use id="arrowright" xlink:href="#arrowRight" x="0" y="0" onmousedown="handlePan(1,0)"/>
  <use id="arrowdown" xlink:href="#arrowDown" x="0" y="0" onmousedown="handlePan(0,1)"/>
  <use id="arrowleft" xlink:href="#arrowLeft" x="0" y="0" onmousedown="handlePan(-1,0)"/>
</g>
<svg viewBox="0 0 15 15" width="100%" height="30px" preserveAspectRatio="xMaxYMin meet">
 <g id="arrow_out" transform="scale(0.3 0.3)">
  <a xlink:href="ltm3360b_8c__incl_org.svg" target="_base">
   <rect id="button" ry="5" rx="5" y="6" x="6" height="38" width="38"
        fill="#f2f5e9" fill-opacity="0.5" stroke="#606060" stroke-width="1.0"/>
   <path id="arrow"
     d="M 11.500037,31.436501 C 11.940474,20.09759 22.043105,11.32322 32.158766,21.979434 L 37.068811,17.246167 C 37.068811,17.246167 37.088388,32 37.088388,32 L 22.160133,31.978069 C 22.160133,31.978069 26.997745,27.140456 26.997745,27.140456 C 18.528582,18.264221 13.291696,25.230495 11.500037,31.436501 z"
     style="fill:#404040;"/>
  </a>
 </g>
</svg>

<style type='text/css'>
<![CDATA[
[data-mouse-over-selected='false'] { opacity: 0.7; }
[data-mouse-over-selected='true']  { opacity: 1.0; }
]]>
</style>
<script type="application/ecmascript"><![CDATA[
document.addEventListener('DOMContentLoaded', (event) => {
  highlightEdges();
  highlightAdjacentNodes();
});
]]></script>
</svg>
