<?xml version="1.0" encoding="UTF-8" standalone="no"?>
<!DOCTYPE svg PUBLIC "-//W3C//DTD SVG 1.1//EN"
 "http://www.w3.org/Graphics/SVG/1.1/DTD/svg11.dtd">
<!-- Generated by graphviz version 2.43.0 (0)
 -->
<!-- Title: /home/runner/work/no&#45;OS/no&#45;OS/drivers/power/ltp8800/ltp8800.c Pages: 1 -->
<!--zoomable 214 -->

<svg id="main" version="1.1" xmlns="http://www.w3.org/2000/svg" xmlns:xlink="http://www.w3.org/1999/xlink" xml:space="preserve" onload="init(evt)">

<style type="text/css"><![CDATA[
.node, .edge {opacity: 0.7;}
.node.selected, .edge.selected {opacity: 1;}
.edge:hover path { stroke: red; }
.edge:hover polygon { stroke: red; fill: red; }
]]></style>

<defs>
  <circle id="rim" cx="0" cy="0" r="7"/>
  <circle id="rim2" cx="0" cy="0" r="3.5"/>
  <g id="zoomPlus">
    <use xlink:href="#rim" fill="#404040"><set attributeName="fill" to="#808080" begin="zoomplus.mouseover" end="zoomplus.mouseout"/></use>
    <path d="M-4,0h8M0,-4v8" fill="none" stroke="white" stroke-width="1.5" pointer-events="none"/>
  </g>
  <g id="zoomMin">
    <use xlink:href="#rim" fill="#404040"><set attributeName="fill" to="#808080" begin="zoomminus.mouseover" end="zoomminus.mouseout"/></use>
    <path d="M-4,0h8" fill="none" stroke="white" stroke-width="1.5" pointer-events="none"/>
  </g>
  <g id="arrowUp" transform="translate(30 24)">
    <use xlink:href="#rim"/>
    <path pointer-events="none" fill="none" stroke="white" stroke-width="1.5" d="M0,-3.0v7 M-2.5,-0.5L0,-3.0L2.5,-0.5"/>
  </g>
  <g id="arrowRight" transform="rotate(90) translate(36 -43)">
    <use xlink:href="#rim"/>
    <path pointer-events="none" fill="none" stroke="white" stroke-width="1.5" d="M0,-3.0v7 M-2.5,-0.5L0,-3.0L2.5,-0.5"/>
  </g>
  <g id="arrowDown" transform="rotate(180) translate(-30 -48)">
    <use xlink:href="#rim"/>
    <path pointer-events="none" fill="none" stroke="white" stroke-width="1.5" d="M0,-3.0v7 M-2.5,-0.5L0,-3.0L2.5,-0.5"/>
  </g>
  <g id="arrowLeft" transform="rotate(270) translate(-36 17)">
    <use xlink:href="#rim"/>
    <path pointer-events="none" fill="none" stroke="white" stroke-width="1.5" d="M0,-3.0v7 M-2.5,-0.5L0,-3.0L2.5,-0.5"/>
  </g>
  <g id="resetDef">
    <use xlink:href="#rim2" fill="#404040"><set attributeName="fill" to="#808080" begin="reset.mouseover" end="reset.mouseout"/></use>
  </g>
</defs>
<script type="application/ecmascript">
var viewWidth = 857;
var viewHeight = 214;
var sectionId = 'dynsection-0';
</script>
<script type="application/ecmascript" xlink:href="svg.min.js"/>
<svg id="graph" class="graph">
<g id="viewport">
<title>/home/runner/work/no&#45;OS/no&#45;OS/drivers/power/ltp8800/ltp8800.c</title>
<!-- Node1 -->
<g id="Node000001" class="node">
<title>Node1</title>
<g id="a_Node000001"><a xlink:title=" ">
<polygon fill="#999999" stroke="#666666" points="448.79,-206 312.79,-206 312.79,-165 448.79,-165 448.79,-206"/>
<text text-anchor="start" x="320.79" y="-194" font-family="Helvetica,sans-Serif" font-size="10.00">/home/runner/work/no</text>
<text text-anchor="start" x="320.79" y="-183" font-family="Helvetica,sans-Serif" font-size="10.00">&#45;OS/no&#45;OS/drivers/power</text>
<text text-anchor="middle" x="380.79" y="-172" font-family="Helvetica,sans-Serif" font-size="10.00">/ltp8800/ltp8800.c</text>
</a>
</g>
</g>
<!-- Node2 -->
<g id="Node000002" class="node">
<title>Node2</title>
<g id="a_Node000002"><a xlink:title=" ">
<polygon fill="#e0e0e0" stroke="#999999" points="562.29,-19 509.29,-19 509.29,0 562.29,0 562.29,-19"/>
<text text-anchor="middle" x="535.79" y="-7" font-family="Helvetica,sans-Serif" font-size="10.00">stdint.h</text>
</a>
</g>
</g>
<!-- Node1&#45;&gt;Node2 -->
<g id="edge1_Node000001_Node000002" class="edge">
<title>Node1&#45;&gt;Node2</title>
<g id="a_edge1_Node000001_Node000002"><a xlink:title=" ">
<path fill="none" stroke="#63b8ff" d="M434.24,-164.94C455.68,-155.76 479.96,-143.6 499.79,-129 526.39,-109.41 537.87,-104.81 549.79,-74 555.5,-59.21 550.73,-41.54 545.26,-28.59"/>
<polygon fill="#63b8ff" stroke="#63b8ff" points="548.34,-26.92 540.91,-19.37 542.01,-29.91 548.34,-26.92"/>
</a>
</g>
</g>
<!-- Node3 -->
<g id="Node000003" class="node">
<title>Node3</title>
<g id="a_Node000003"><a xlink:title=" ">
<polygon fill="#e0e0e0" stroke="#999999" points="230.79,-19 168.79,-19 168.79,0 230.79,0 230.79,-19"/>
<text text-anchor="middle" x="199.79" y="-7" font-family="Helvetica,sans-Serif" font-size="10.00">stdbool.h</text>
</a>
</g>
</g>
<!-- Node1&#45;&gt;Node3 -->
<g id="edge2_Node000001_Node000003" class="edge">
<title>Node1&#45;&gt;Node3</title>
<g id="a_edge2_Node000001_Node000003"><a xlink:title=" ">
<path fill="none" stroke="#63b8ff" d="M312.58,-177.15C252.79,-169.13 172.42,-153.99 152.79,-129 132.47,-103.14 139.79,-85.21 152.79,-55 157.94,-43.03 168.07,-32.76 177.62,-25.12"/>
<polygon fill="#63b8ff" stroke="#63b8ff" points="179.77,-27.88 185.71,-19.11 175.6,-22.26 179.77,-27.88"/>
</a>
</g>
</g>
<!-- Node4 -->
<g id="Node000004" class="node">
<title>Node4</title>
<g id="a_Node000004"><a xlink:title=" ">
<polygon fill="#e0e0e0" stroke="#999999" points="54.29,-19 1.29,-19 1.29,0 54.29,0 54.29,-19"/>
<text text-anchor="middle" x="27.79" y="-7" font-family="Helvetica,sans-Serif" font-size="10.00">stdlib.h</text>
</a>
</g>
</g>
<!-- Node1&#45;&gt;Node4 -->
<g id="edge3_Node000001_Node000004" class="edge">
<title>Node1&#45;&gt;Node4</title>
<g id="a_edge3_Node000001_Node000004"><a xlink:title=" ">
<path fill="none" stroke="#63b8ff" d="M312.77,-184.38C217.24,-182.61 50.71,-173.08 12.79,-129 -11.57,-100.69 5.76,-53.57 18.19,-28.11"/>
<polygon fill="#63b8ff" stroke="#63b8ff" points="21.3,-29.71 22.76,-19.21 15.08,-26.5 21.3,-29.71"/>
</a>
</g>
</g>
<!-- Node5 -->
<g id="Node000005" class="node">
<title>Node5</title>
<g id="a_Node000005"><a xlink:href="errno_8h.html" target="_top" xlink:title="Error macro definition for ARM Compiler.">
<polygon fill="white" stroke="#666666" points="213.29,-129 162.29,-129 162.29,-110 213.29,-110 213.29,-129"/>
<text text-anchor="middle" x="187.79" y="-117" font-family="Helvetica,sans-Serif" font-size="10.00">errno.h</text>
</a>
</g>
</g>
<!-- Node1&#45;&gt;Node5 -->
<g id="edge4_Node000001_Node000005" class="edge">
<title>Node1&#45;&gt;Node5</title>
<g id="a_edge4_Node000001_Node000005"><a xlink:title=" ">
<path fill="none" stroke="#63b8ff" d="M321.83,-164.95C289.55,-154.24 250.62,-141.34 223.05,-132.19"/>
<polygon fill="#63b8ff" stroke="#63b8ff" points="224.04,-128.83 213.44,-129.01 221.83,-135.48 224.04,-128.83"/>
</a>
</g>
</g>
<!-- Node6 -->
<g id="Node000006" class="node">
<title>Node6</title>
<g id="a_Node000006"><a xlink:href="no__os__units_8h.html" target="_top" xlink:title="Header file of Units.">
<polygon fill="white" stroke="#666666" points="314.29,-129 231.29,-129 231.29,-110 314.29,-110 314.29,-129"/>
<text text-anchor="middle" x="272.79" y="-117" font-family="Helvetica,sans-Serif" font-size="10.00">no_os_units.h</text>
</a>
</g>
</g>
<!-- Node1&#45;&gt;Node6 -->
<g id="edge5_Node000001_Node000006" class="edge">
<title>Node1&#45;&gt;Node6</title>
<g id="a_edge5_Node000001_Node000006"><a xlink:title=" ">
<path fill="none" stroke="#63b8ff" d="M347.8,-164.95C331.05,-155.03 311.11,-143.21 296,-134.25"/>
<polygon fill="#63b8ff" stroke="#63b8ff" points="297.67,-131.18 287.28,-129.09 294.1,-137.2 297.67,-131.18"/>
</a>
</g>
</g>
<!-- Node7 -->
<g id="Node000007" class="node">
<title>Node7</title>
<g id="a_Node000007"><a xlink:href="no__os__util_8h.html" target="_top" xlink:title="Header file of utility functions.">
<polygon fill="white" stroke="#666666" points="237.29,-74 162.29,-74 162.29,-55 237.29,-55 237.29,-74"/>
<text text-anchor="middle" x="199.79" y="-62" font-family="Helvetica,sans-Serif" font-size="10.00">no_os_util.h</text>
</a>
</g>
</g>
<!-- Node1&#45;&gt;Node7 -->
<g id="edge6_Node000001_Node000007" class="edge">
<title>Node1&#45;&gt;Node7</title>
<g id="a_edge6_Node000001_Node000007"><a xlink:title=" ">
<path fill="none" stroke="#63b8ff" d="M369.83,-164.85C359.61,-148.16 342.94,-124.64 322.79,-110 300.34,-93.7 271.31,-82.82 247.08,-75.9"/>
<polygon fill="#63b8ff" stroke="#63b8ff" points="247.94,-72.51 237.37,-73.26 246.11,-79.26 247.94,-72.51"/>
</a>
</g>
</g>
<!-- Node8 -->
<g id="Node000008" class="node">
<title>Node8</title>
<g id="a_Node000008"><a xlink:href="no__os__delay_8h.html" target="_top" xlink:title="Header file of Delay functions.">
<polygon fill="white" stroke="#666666" points="794.29,-74 709.29,-74 709.29,-55 794.29,-55 794.29,-74"/>
<text text-anchor="middle" x="751.79" y="-62" font-family="Helvetica,sans-Serif" font-size="10.00">no_os_delay.h</text>
</a>
</g>
</g>
<!-- Node1&#45;&gt;Node8 -->
<g id="edge10_Node000001_Node000008" class="edge">
<title>Node1&#45;&gt;Node8</title>
<g id="a_edge10_Node000001_Node000008"><a xlink:title=" ">
<path fill="none" stroke="#63b8ff" d="M448.91,-183.27C513.2,-179.61 610.69,-167.44 685.79,-129 707.59,-117.84 727.05,-97.12 739.09,-82.39"/>
<polygon fill="#63b8ff" stroke="#63b8ff" points="742.16,-84.15 745.59,-74.12 736.65,-79.82 742.16,-84.15"/>
</a>
</g>
</g>
<!-- Node9 -->
<g id="Node000009" class="node">
<title>Node9</title>
<g id="a_Node000009"><a xlink:href="no__os__alloc_8h.html" target="_top" xlink:title=" ">
<polygon fill="white" stroke="#666666" points="105.29,-129 22.29,-129 22.29,-110 105.29,-110 105.29,-129"/>
<text text-anchor="middle" x="63.79" y="-117" font-family="Helvetica,sans-Serif" font-size="10.00">no_os_alloc.h</text>
</a>
</g>
</g>
<!-- Node1&#45;&gt;Node9 -->
<g id="edge12_Node000001_Node000009" class="edge">
<title>Node1&#45;&gt;Node9</title>
<g id="a_edge12_Node000001_Node000009"><a xlink:title=" ">
<path fill="none" stroke="#63b8ff" d="M312.78,-170.77C253.65,-158.83 169.24,-141.79 115.48,-130.94"/>
<polygon fill="#63b8ff" stroke="#63b8ff" points="115.98,-127.47 105.48,-128.92 114.59,-134.33 115.98,-127.47"/>
</a>
</g>
</g>
<!-- Node11 -->
<g id="Node000011" class="node">
<title>Node11</title>
<g id="a_Node000011"><a xlink:href="no__os__pwm_8h.html" target="_top" xlink:title="Header file of PWM Interface.">
<polygon fill="white" stroke="#666666" points="338.29,-74 255.29,-74 255.29,-55 338.29,-55 338.29,-74"/>
<text text-anchor="middle" x="296.79" y="-62" font-family="Helvetica,sans-Serif" font-size="10.00">no_os_pwm.h</text>
</a>
</g>
</g>
<!-- Node1&#45;&gt;Node11 -->
<g id="edge15_Node000001_Node000011" class="edge">
<title>Node1&#45;&gt;Node11</title>
<g id="a_edge15_Node000001_Node000011"><a xlink:title=" ">
<path fill="none" stroke="#63b8ff" d="M377.9,-164.96C374.78,-148.99 368.59,-126.45 356.79,-110 347.81,-97.49 334.26,-87.01 322.3,-79.37"/>
<polygon fill="#63b8ff" stroke="#63b8ff" points="323.94,-76.27 313.57,-74.09 320.32,-82.26 323.94,-76.27"/>
</a>
</g>
</g>
<!-- Node12 -->
<g id="Node000012" class="node">
<title>Node12</title>
<g id="a_Node000012"><a xlink:href="no__os__i2c_8h.html" target="_top" xlink:title="Header file of I2C Interface.">
<polygon fill="white" stroke="#666666" points="540.79,-74 466.79,-74 466.79,-55 540.79,-55 540.79,-74"/>
<text text-anchor="middle" x="503.79" y="-62" font-family="Helvetica,sans-Serif" font-size="10.00">no_os_i2c.h</text>
</a>
</g>
</g>
<!-- Node1&#45;&gt;Node12 -->
<g id="edge18_Node000001_Node000012" class="edge">
<title>Node1&#45;&gt;Node12</title>
<g id="a_edge18_Node000001_Node000012"><a xlink:title=" ">
<path fill="none" stroke="#63b8ff" d="M430.93,-164.95C448.3,-156.14 466.68,-144.23 479.79,-129 490.72,-116.3 496.91,-98.12 500.25,-84.46"/>
<polygon fill="#63b8ff" stroke="#63b8ff" points="503.76,-84.79 502.44,-74.27 496.92,-83.32 503.76,-84.79"/>
</a>
</g>
</g>
<!-- Node13 -->
<g id="Node000013" class="node">
<title>Node13</title>
<g id="a_Node000013"><a xlink:href="no__os__gpio_8h.html" target="_top" xlink:title="Header file of GPIO Interface.">
<polygon fill="white" stroke="#666666" points="848.79,-129 768.79,-129 768.79,-110 848.79,-110 848.79,-129"/>
<text text-anchor="middle" x="808.79" y="-117" font-family="Helvetica,sans-Serif" font-size="10.00">no_os_gpio.h</text>
</a>
</g>
</g>
<!-- Node1&#45;&gt;Node13 -->
<g id="edge20_Node000001_Node000013" class="edge">
<title>Node1&#45;&gt;Node13</title>
<g id="a_edge20_Node000001_Node000013"><a xlink:title=" ">
<path fill="none" stroke="#63b8ff" d="M449.08,-174.29C535.29,-161.4 681.6,-139.52 758.36,-128.04"/>
<polygon fill="#63b8ff" stroke="#63b8ff" points="759.34,-131.43 768.72,-126.49 758.31,-124.51 759.34,-131.43"/>
</a>
</g>
</g>
<!-- Node14 -->
<g id="Node000014" class="node">
<title>Node14</title>
<g id="a_Node000014"><a xlink:href="no__os__crc8_8h.html" target="_top" xlink:title="Header file of CRC&#45;8 computation.">
<polygon fill="white" stroke="#666666" points="676.79,-129 596.79,-129 596.79,-110 676.79,-110 676.79,-129"/>
<text text-anchor="middle" x="636.79" y="-117" font-family="Helvetica,sans-Serif" font-size="10.00">no_os_crc8.h</text>
</a>
</g>
</g>
<!-- Node1&#45;&gt;Node14 -->
<g id="edge22_Node000001_Node000014" class="edge">
<title>Node1&#45;&gt;Node14</title>
<g id="a_edge22_Node000001_Node000014"><a xlink:title=" ">
<path fill="none" stroke="#63b8ff" d="M449.05,-167.43C494.7,-156.02 553.41,-141.34 592.92,-131.47"/>
<polygon fill="#63b8ff" stroke="#63b8ff" points="593.93,-134.82 602.78,-129 592.23,-128.03 593.93,-134.82"/>
</a>
</g>
</g>
<!-- Node16 -->
<g id="Node000016" class="node">
<title>Node16</title>
<g id="a_Node000016"><a xlink:href="ltp8800_8h.html" target="_top" xlink:title=" ">
<polygon fill="white" stroke="#666666" points="470.79,-129 408.79,-129 408.79,-110 470.79,-110 470.79,-129"/>
<text text-anchor="middle" x="439.79" y="-117" font-family="Helvetica,sans-Serif" font-size="10.00">ltp8800.h</text>
</a>
</g>
</g>
<!-- Node1&#45;&gt;Node16 -->
<g id="edge25_Node000001_Node000016" class="edge">
<title>Node1&#45;&gt;Node16</title>
<g id="a_edge25_Node000001_Node000016"><a xlink:title=" ">
<path fill="none" stroke="#63b8ff" d="M398.81,-164.95C407.13,-155.92 416.89,-145.33 424.8,-136.75"/>
<polygon fill="#63b8ff" stroke="#63b8ff" points="427.5,-138.99 431.71,-129.26 422.36,-134.24 427.5,-138.99"/>
</a>
</g>
</g>
<!-- Node7&#45;&gt;Node2 -->
<g id="edge7_Node000007_Node000002" class="edge">
<title>Node7&#45;&gt;Node2</title>
<g id="a_edge7_Node000007_Node000002"><a xlink:title=" ">
<path fill="none" stroke="#63b8ff" d="M237.42,-56.45C240.25,-55.95 243.06,-55.46 245.79,-55 336.61,-39.64 443.84,-23.78 498.96,-15.78"/>
<polygon fill="#63b8ff" stroke="#63b8ff" points="499.56,-19.23 508.95,-14.34 498.56,-12.31 499.56,-19.23"/>
</a>
</g>
</g>
<!-- Node7&#45;&gt;Node3 -->
<g id="edge9_Node000007_Node000003" class="edge">
<title>Node7&#45;&gt;Node3</title>
<g id="a_edge9_Node000007_Node000003"><a xlink:title=" ">
<path fill="none" stroke="#63b8ff" d="M199.79,-54.75C199.79,-47.8 199.79,-37.85 199.79,-29.13"/>
<polygon fill="#63b8ff" stroke="#63b8ff" points="203.29,-29.09 199.79,-19.09 196.29,-29.09 203.29,-29.09"/>
</a>
</g>
</g>
<!-- Node7&#45;&gt;Node4 -->
<g id="edge8_Node000007_Node000004" class="edge">
<title>Node7&#45;&gt;Node4</title>
<g id="a_edge8_Node000007_Node000004"><a xlink:title=" ">
<path fill="none" stroke="#63b8ff" d="M172.15,-54.98C142.93,-45.98 96.69,-31.73 64.44,-21.8"/>
<polygon fill="#63b8ff" stroke="#63b8ff" points="65.09,-18.33 54.5,-18.73 63.03,-25.02 65.09,-18.33"/>
</a>
</g>
</g>
<!-- Node8&#45;&gt;Node2 -->
<g id="edge11_Node000008_Node000002" class="edge">
<title>Node8&#45;&gt;Node2</title>
<g id="a_edge11_Node000008_Node000002"><a xlink:title=" ">
<path fill="none" stroke="#63b8ff" d="M717.08,-54.98C677.39,-45.25 612.7,-29.37 572.28,-19.46"/>
<polygon fill="#63b8ff" stroke="#63b8ff" points="573.1,-16.05 562.56,-17.07 571.44,-22.85 573.1,-16.05"/>
</a>
</g>
</g>
<!-- Node9&#45;&gt;Node4 -->
<g id="edge14_Node000009_Node000004" class="edge">
<title>Node9&#45;&gt;Node4</title>
<g id="a_edge14_Node000009_Node000004"><a xlink:title=" ">
<path fill="none" stroke="#63b8ff" d="M60.2,-109.71C56.62,-100.78 51.05,-86.53 46.79,-74 41.68,-59 36.58,-41.77 32.94,-29.05"/>
<polygon fill="#63b8ff" stroke="#63b8ff" points="36.25,-27.87 30.17,-19.19 29.51,-29.77 36.25,-27.87"/>
</a>
</g>
</g>
<!-- Node10 -->
<g id="Node000010" class="node">
<title>Node10</title>
<g id="a_Node000010"><a xlink:title=" ">
<polygon fill="#e0e0e0" stroke="#999999" points="105.79,-74 55.79,-74 55.79,-55 105.79,-55 105.79,-74"/>
<text text-anchor="middle" x="80.79" y="-62" font-family="Helvetica,sans-Serif" font-size="10.00">stdio.h</text>
</a>
</g>
</g>
<!-- Node9&#45;&gt;Node10 -->
<g id="edge13_Node000009_Node000010" class="edge">
<title>Node9&#45;&gt;Node10</title>
<g id="a_edge13_Node000009_Node000010"><a xlink:title=" ">
<path fill="none" stroke="#63b8ff" d="M66.59,-109.75C68.85,-102.72 72.09,-92.62 74.9,-83.84"/>
<polygon fill="#63b8ff" stroke="#63b8ff" points="78.31,-84.68 78.03,-74.09 71.64,-82.54 78.31,-84.68"/>
</a>
</g>
</g>
<!-- Node11&#45;&gt;Node2 -->
<g id="edge16_Node000011_Node000002" class="edge">
<title>Node11&#45;&gt;Node2</title>
<g id="a_edge16_Node000011_Node000002"><a xlink:title=" ">
<path fill="none" stroke="#63b8ff" d="M335.19,-54.98C380.36,-44.97 454.8,-28.46 499.18,-18.62"/>
<polygon fill="#63b8ff" stroke="#63b8ff" points="499.97,-22.03 508.98,-16.45 498.46,-15.19 499.97,-22.03"/>
</a>
</g>
</g>
<!-- Node11&#45;&gt;Node3 -->
<g id="edge17_Node000011_Node000003" class="edge">
<title>Node11&#45;&gt;Node3</title>
<g id="a_edge17_Node000011_Node000003"><a xlink:title=" ">
<path fill="none" stroke="#63b8ff" d="M281.2,-54.98C266.02,-46.69 242.69,-33.94 224.89,-24.22"/>
<polygon fill="#63b8ff" stroke="#63b8ff" points="226.11,-20.89 215.65,-19.17 222.75,-27.04 226.11,-20.89"/>
</a>
</g>
</g>
<!-- Node12&#45;&gt;Node2 -->
<g id="edge19_Node000012_Node000002" class="edge">
<title>Node12&#45;&gt;Node2</title>
<g id="a_edge19_Node000012_Node000002"><a xlink:title=" ">
<path fill="none" stroke="#63b8ff" d="M509.07,-54.75C513.5,-47.42 519.95,-36.73 525.4,-27.7"/>
<polygon fill="#63b8ff" stroke="#63b8ff" points="528.43,-29.46 530.6,-19.09 522.43,-25.84 528.43,-29.46"/>
</a>
</g>
</g>
<!-- Node13&#45;&gt;Node2 -->
<g id="edge21_Node000013_Node000002" class="edge">
<title>Node13&#45;&gt;Node2</title>
<g id="a_edge21_Node000013_Node000002"><a xlink:title=" ">
<path fill="none" stroke="#63b8ff" d="M811.09,-109.81C814.11,-96.24 817.54,-69.99 803.79,-55 773.35,-21.83 639.32,-13.39 573.09,-11.24"/>
<polygon fill="#63b8ff" stroke="#63b8ff" points="572.78,-7.72 562.69,-10.93 572.58,-14.72 572.78,-7.72"/>
</a>
</g>
</g>
<!-- Node14&#45;&gt;Node2 -->
<g id="edge23_Node000014_Node000002" class="edge">
<title>Node14&#45;&gt;Node2</title>
<g id="a_edge23_Node000014_Node000002"><a xlink:title=" ">
<path fill="none" stroke="#63b8ff" d="M629.74,-109.61C619.69,-97.09 600.51,-73.69 582.79,-55 573.32,-45.01 562.15,-34.39 553.07,-26.03"/>
<polygon fill="#63b8ff" stroke="#63b8ff" points="555.19,-23.22 545.44,-19.08 550.47,-28.4 555.19,-23.22"/>
</a>
</g>
</g>
<!-- Node15 -->
<g id="Node000015" class="node">
<title>Node15</title>
<g id="a_Node000015"><a xlink:title=" ">
<polygon fill="#e0e0e0" stroke="#999999" points="690.79,-74 634.79,-74 634.79,-55 690.79,-55 690.79,-74"/>
<text text-anchor="middle" x="662.79" y="-62" font-family="Helvetica,sans-Serif" font-size="10.00">stddef.h</text>
</a>
</g>
</g>
<!-- Node14&#45;&gt;Node15 -->
<g id="edge24_Node000014_Node000015" class="edge">
<title>Node14&#45;&gt;Node15</title>
<g id="a_edge24_Node000014_Node000015"><a xlink:title=" ">
<path fill="none" stroke="#63b8ff" d="M641.08,-109.75C644.6,-102.57 649.7,-92.18 654.07,-83.27"/>
<polygon fill="#63b8ff" stroke="#63b8ff" points="657.31,-84.61 658.57,-74.09 651.03,-81.53 657.31,-84.61"/>
</a>
</g>
</g>
<!-- Node16&#45;&gt;Node2 -->
<g id="edge26_Node000016_Node000002" class="edge">
<title>Node16&#45;&gt;Node2</title>
<g id="a_edge26_Node000016_Node000002"><a xlink:title=" ">
<path fill="none" stroke="#63b8ff" d="M423.15,-109.96C402.14,-98.02 370.46,-75.53 385.79,-55 411.63,-20.38 463.26,-11.6 498.66,-9.92"/>
<polygon fill="#63b8ff" stroke="#63b8ff" points="499.19,-13.4 509.08,-9.6 498.97,-6.4 499.19,-13.4"/>
</a>
</g>
</g>
<!-- Node16&#45;&gt;Node7 -->
<g id="edge28_Node000016_Node000007" class="edge">
<title>Node16&#45;&gt;Node7</title>
<g id="a_edge28_Node000016_Node000007"><a xlink:title=" ">
<path fill="none" stroke="#63b8ff" d="M408.41,-111.57C367.37,-102.51 295.07,-86.54 247.29,-75.99"/>
<polygon fill="#63b8ff" stroke="#63b8ff" points="248.01,-72.57 237.49,-73.83 246.5,-79.4 248.01,-72.57"/>
</a>
</g>
</g>
<!-- Node16&#45;&gt;Node12 -->
<g id="edge29_Node000016_Node000012" class="edge">
<title>Node16&#45;&gt;Node12</title>
<g id="a_edge29_Node000016_Node000012"><a xlink:title=" ">
<path fill="none" stroke="#63b8ff" d="M450.07,-109.98C459.62,-102.07 474.07,-90.11 485.57,-80.58"/>
<polygon fill="#63b8ff" stroke="#63b8ff" points="487.85,-83.24 493.32,-74.17 483.38,-77.85 487.85,-83.24"/>
</a>
</g>
</g>
<!-- Node17 -->
<g id="Node000017" class="node">
<title>Node17</title>
<g id="a_Node000017"><a xlink:title=" ">
<polygon fill="#e0e0e0" stroke="#999999" points="448.29,-74 395.29,-74 395.29,-55 448.29,-55 448.29,-74"/>
<text text-anchor="middle" x="421.79" y="-62" font-family="Helvetica,sans-Serif" font-size="10.00">string.h</text>
</a>
</g>
</g>
<!-- Node16&#45;&gt;Node17 -->
<g id="edge27_Node000016_Node000017" class="edge">
<title>Node16&#45;&gt;Node17</title>
<g id="a_edge27_Node000016_Node000017"><a xlink:title=" ">
<path fill="none" stroke="#63b8ff" d="M436.81,-109.75C434.43,-102.72 431,-92.62 428.02,-83.84"/>
<polygon fill="#63b8ff" stroke="#63b8ff" points="431.23,-82.43 424.7,-74.09 424.6,-84.68 431.23,-82.43"/>
</a>
</g>
</g>
</g>
</svg>

<g id="navigator" transform="translate(0 0)" fill="#404254">
  <rect fill="#f2f5e9" fill-opacity="0.5" stroke="#606060" stroke-width=".5" x="0" y="0" width="60" height="60"/>
  <use id="zoomplus" xlink:href="#zoomPlus" x="17" y="9" onmousedown="handleZoom(evt,'in')"/>
  <use id="zoomminus" xlink:href="#zoomMin" x="42" y="9" onmousedown="handleZoom(evt,'out')"/>
  <use id="reset" xlink:href="#resetDef" x="30" y="36" onmousedown="handleReset()"/>
   <use id="arrowup" xlink:href="#arrowUp" x="0" y="0" onmousedown="handlePan(0,-1)"/>
  <use id="arrowright" xlink:href="#arrowRight" x="0" y="0" onmousedown="handlePan(1,0)"/>
  <use id="arrowdown" xlink:href="#arrowDown" x="0" y="0" onmousedown="handlePan(0,1)"/>
  <use id="arrowleft" xlink:href="#arrowLeft" x="0" y="0" onmousedown="handlePan(-1,0)"/>
</g>
<svg viewBox="0 0 15 15" width="100%" height="30px" preserveAspectRatio="xMaxYMin meet">
 <g id="arrow_out" transform="scale(0.3 0.3)">
  <a xlink:href="ltp8800_8c__incl_org.svg" target="_base">
   <rect id="button" ry="5" rx="5" y="6" x="6" height="38" width="38"
        fill="#f2f5e9" fill-opacity="0.5" stroke="#606060" stroke-width="1.0"/>
   <path id="arrow"
     d="M 11.500037,31.436501 C 11.940474,20.09759 22.043105,11.32322 32.158766,21.979434 L 37.068811,17.246167 C 37.068811,17.246167 37.088388,32 37.088388,32 L 22.160133,31.978069 C 22.160133,31.978069 26.997745,27.140456 26.997745,27.140456 C 18.528582,18.264221 13.291696,25.230495 11.500037,31.436501 z"
     style="fill:#404040;"/>
  </a>
 </g>
</svg>

<style type='text/css'>
<![CDATA[
[data-mouse-over-selected='false'] { opacity: 0.7; }
[data-mouse-over-selected='true']  { opacity: 1.0; }
]]>
</style>
<script type="application/ecmascript"><![CDATA[
document.addEventListener('DOMContentLoaded', (event) => {
  highlightEdges();
  highlightAdjacentNodes();
});
]]></script>
</svg>
