<?xml version="1.0" encoding="UTF-8" standalone="no"?>
<!DOCTYPE svg PUBLIC "-//W3C//DTD SVG 1.1//EN"
 "http://www.w3.org/Graphics/SVG/1.1/DTD/svg11.dtd">
<!-- Generated by graphviz version 2.43.0 (0)
 -->
<!-- Title: /home/runner/work/no&#45;OS/no&#45;OS/projects/max14914/src/common/common_data.h Pages: 1 -->
<svg width="323pt" height="214pt"
 viewBox="0.00 0.00 322.50 214.00" xmlns="http://www.w3.org/2000/svg" xmlns:xlink="http://www.w3.org/1999/xlink">
<g id="graph0" class="graph" transform="scale(1 1) rotate(0) translate(4 210)">
<title>/home/runner/work/no&#45;OS/no&#45;OS/projects/max14914/src/common/common_data.h</title>
<!-- Node1 -->
<g id="Node000001" class="node">
<title>Node1</title>
<g id="a_Node000001"><a xlink:title="Defines common data to be used by max14914 example.">
<polygon fill="#999999" stroke="#666666" points="194,-206 31,-206 31,-165 194,-165 194,-206"/>
<text text-anchor="start" x="39" y="-194" font-family="Helvetica,sans-Serif" font-size="10.00">/home/runner/work/no</text>
<text text-anchor="start" x="39" y="-183" font-family="Helvetica,sans-Serif" font-size="10.00">&#45;OS/no&#45;OS/projects/max14914</text>
<text text-anchor="middle" x="112.5" y="-172" font-family="Helvetica,sans-Serif" font-size="10.00">/src/common/common_data.h</text>
</a>
</g>
</g>
<!-- Node2 -->
<g id="Node000002" class="node">
<title>Node2</title>
<g id="a_Node000002"><a xlink:title=" ">
<polygon fill="#e0e0e0" stroke="#999999" points="113,-129 0,-129 0,-110 113,-110 113,-129"/>
<text text-anchor="middle" x="56.5" y="-117" font-family="Helvetica,sans-Serif" font-size="10.00">platform_includes.h</text>
</a>
</g>
</g>
<!-- Node1&#45;&gt;Node2 -->
<g id="edge1_Node000001_Node000002" class="edge">
<title>Node1&#45;&gt;Node2</title>
<g id="a_edge1_Node000001_Node000002"><a xlink:title=" ">
<path fill="none" stroke="#63b8ff" d="M95.39,-164.95C87.58,-156.02 78.42,-145.55 70.95,-137.02"/>
<polygon fill="#63b8ff" stroke="#63b8ff" points="73.38,-134.48 64.17,-129.26 68.12,-139.09 73.38,-134.48"/>
</a>
</g>
</g>
<!-- Node3 -->
<g id="Node000003" class="node">
<title>Node3</title>
<g id="a_Node000003"><a xlink:href="max14914_8h.html" target="_top" xlink:title="Header file of MAX14914 Driver.">
<polygon fill="white" stroke="#666666" points="208,-129 131,-129 131,-110 208,-110 208,-129"/>
<text text-anchor="middle" x="169.5" y="-117" font-family="Helvetica,sans-Serif" font-size="10.00">max14914.h</text>
</a>
</g>
</g>
<!-- Node1&#45;&gt;Node3 -->
<g id="edge2_Node000001_Node000003" class="edge">
<title>Node1&#45;&gt;Node3</title>
<g id="a_edge2_Node000001_Node000003"><a xlink:title=" ">
<path fill="none" stroke="#63b8ff" d="M129.91,-164.95C137.95,-155.92 147.38,-145.33 155.02,-136.75"/>
<polygon fill="#63b8ff" stroke="#63b8ff" points="157.66,-139.06 161.7,-129.26 152.43,-134.4 157.66,-139.06"/>
</a>
</g>
</g>
<!-- Node4 -->
<g id="Node000004" class="node">
<title>Node4</title>
<g id="a_Node000004"><a xlink:title=" ">
<polygon fill="#e0e0e0" stroke="#999999" points="148,-19 95,-19 95,0 148,0 148,-19"/>
<text text-anchor="middle" x="121.5" y="-7" font-family="Helvetica,sans-Serif" font-size="10.00">stdint.h</text>
</a>
</g>
</g>
<!-- Node3&#45;&gt;Node4 -->
<g id="edge3_Node000003_Node000004" class="edge">
<title>Node3&#45;&gt;Node4</title>
<g id="a_edge3_Node000003_Node000004"><a xlink:title=" ">
<path fill="none" stroke="#63b8ff" d="M130.6,-111.22C109.55,-105.09 85.3,-93.96 72.5,-74 61.13,-56.27 80.3,-37.33 97.89,-24.79"/>
<polygon fill="#63b8ff" stroke="#63b8ff" points="99.9,-27.66 106.26,-19.18 96,-21.84 99.9,-27.66"/>
</a>
</g>
</g>
<!-- Node5 -->
<g id="Node000005" class="node">
<title>Node5</title>
<g id="a_Node000005"><a xlink:title=" ">
<polygon fill="#e0e0e0" stroke="#999999" points="314.5,-19 252.5,-19 252.5,0 314.5,0 314.5,-19"/>
<text text-anchor="middle" x="283.5" y="-7" font-family="Helvetica,sans-Serif" font-size="10.00">stdbool.h</text>
</a>
</g>
</g>
<!-- Node3&#45;&gt;Node5 -->
<g id="edge4_Node000003_Node000005" class="edge">
<title>Node3&#45;&gt;Node5</title>
<g id="a_edge4_Node000003_Node000005"><a xlink:title=" ">
<path fill="none" stroke="#63b8ff" d="M203.28,-109.94C223.34,-103.24 247.84,-91.97 263.5,-74 274.3,-61.61 279.27,-43.39 281.56,-29.65"/>
<polygon fill="#63b8ff" stroke="#63b8ff" points="285.08,-29.75 282.92,-19.38 278.14,-28.83 285.08,-29.75"/>
</a>
</g>
</g>
<!-- Node6 -->
<g id="Node000006" class="node">
<title>Node6</title>
<g id="a_Node000006"><a xlink:href="no__os__gpio_8h.html" target="_top" xlink:title="Header file of GPIO Interface.">
<polygon fill="white" stroke="#666666" points="161.5,-74 81.5,-74 81.5,-55 161.5,-55 161.5,-74"/>
<text text-anchor="middle" x="121.5" y="-62" font-family="Helvetica,sans-Serif" font-size="10.00">no_os_gpio.h</text>
</a>
</g>
</g>
<!-- Node3&#45;&gt;Node6 -->
<g id="edge5_Node000003_Node000006" class="edge">
<title>Node3&#45;&gt;Node6</title>
<g id="a_edge5_Node000003_Node000006"><a xlink:title=" ">
<path fill="none" stroke="#63b8ff" d="M161.57,-109.75C154.65,-102.11 144.43,-90.82 136.05,-81.56"/>
<polygon fill="#63b8ff" stroke="#63b8ff" points="138.59,-79.15 129.28,-74.09 133.4,-83.85 138.59,-79.15"/>
</a>
</g>
</g>
<!-- Node7 -->
<g id="Node000007" class="node">
<title>Node7</title>
<g id="a_Node000007"><a xlink:href="no__os__util_8h.html" target="_top" xlink:title="Header file of utility functions.">
<polygon fill="white" stroke="#666666" points="255,-74 180,-74 180,-55 255,-55 255,-74"/>
<text text-anchor="middle" x="217.5" y="-62" font-family="Helvetica,sans-Serif" font-size="10.00">no_os_util.h</text>
</a>
</g>
</g>
<!-- Node3&#45;&gt;Node7 -->
<g id="edge7_Node000003_Node000007" class="edge">
<title>Node3&#45;&gt;Node7</title>
<g id="a_edge7_Node000003_Node000007"><a xlink:title=" ">
<path fill="none" stroke="#63b8ff" d="M177.43,-109.75C184.35,-102.11 194.57,-90.82 202.95,-81.56"/>
<polygon fill="#63b8ff" stroke="#63b8ff" points="205.6,-83.85 209.72,-74.09 200.41,-79.15 205.6,-83.85"/>
</a>
</g>
</g>
<!-- Node6&#45;&gt;Node4 -->
<g id="edge6_Node000006_Node000004" class="edge">
<title>Node6&#45;&gt;Node4</title>
<g id="a_edge6_Node000006_Node000004"><a xlink:title=" ">
<path fill="none" stroke="#63b8ff" d="M121.5,-54.75C121.5,-47.8 121.5,-37.85 121.5,-29.13"/>
<polygon fill="#63b8ff" stroke="#63b8ff" points="125,-29.09 121.5,-19.09 118,-29.09 125,-29.09"/>
</a>
</g>
</g>
<!-- Node7&#45;&gt;Node4 -->
<g id="edge8_Node000007_Node000004" class="edge">
<title>Node7&#45;&gt;Node4</title>
<g id="a_edge8_Node000007_Node000004"><a xlink:title=" ">
<path fill="none" stroke="#63b8ff" d="M202.08,-54.98C187.05,-46.69 163.96,-33.94 146.34,-24.22"/>
<polygon fill="#63b8ff" stroke="#63b8ff" points="147.65,-20.94 137.2,-19.17 144.27,-27.07 147.65,-20.94"/>
</a>
</g>
</g>
<!-- Node7&#45;&gt;Node5 -->
<g id="edge10_Node000007_Node000005" class="edge">
<title>Node7&#45;&gt;Node5</title>
<g id="a_edge10_Node000007_Node000005"><a xlink:title=" ">
<path fill="none" stroke="#63b8ff" d="M228.1,-54.98C237.96,-47.07 252.85,-35.11 264.72,-25.58"/>
<polygon fill="#63b8ff" stroke="#63b8ff" points="267.1,-28.16 272.7,-19.17 262.71,-22.7 267.1,-28.16"/>
</a>
</g>
</g>
<!-- Node8 -->
<g id="Node000008" class="node">
<title>Node8</title>
<g id="a_Node000008"><a xlink:title=" ">
<polygon fill="#e0e0e0" stroke="#999999" points="234,-19 181,-19 181,0 234,0 234,-19"/>
<text text-anchor="middle" x="207.5" y="-7" font-family="Helvetica,sans-Serif" font-size="10.00">stdlib.h</text>
</a>
</g>
</g>
<!-- Node7&#45;&gt;Node8 -->
<g id="edge9_Node000007_Node000008" class="edge">
<title>Node7&#45;&gt;Node8</title>
<g id="a_edge9_Node000007_Node000008"><a xlink:title=" ">
<path fill="none" stroke="#63b8ff" d="M215.85,-54.75C214.54,-47.8 212.66,-37.85 211.02,-29.13"/>
<polygon fill="#63b8ff" stroke="#63b8ff" points="214.41,-28.27 209.12,-19.09 207.54,-29.56 214.41,-28.27"/>
</a>
</g>
</g>
</g>
</svg>
