<?xml version="1.0" encoding="UTF-8" standalone="no"?>
<!DOCTYPE svg PUBLIC "-//W3C//DTD SVG 1.1//EN"
 "http://www.w3.org/Graphics/SVG/1.1/DTD/svg11.dtd">
<!-- Generated by graphviz version 2.43.0 (0)
 -->
<!-- Title: /home/runner/work/no&#45;OS/no&#45;OS/drivers/power/max17616/max17616.h Pages: 1 -->
<svg width="781pt" height="225pt"
 viewBox="0.00 0.00 780.50 225.00" xmlns="http://www.w3.org/2000/svg" xmlns:xlink="http://www.w3.org/1999/xlink">
<g id="graph0" class="graph" transform="scale(1 1) rotate(0) translate(4 221)">
<title>/home/runner/work/no&#45;OS/no&#45;OS/drivers/power/max17616/max17616.h</title>
<!-- Node1 -->
<g id="Node000001" class="node">
<title>Node1</title>
<g id="a_Node000001"><a xlink:title="Header file of the MAX17616 Driver.">
<polygon fill="#999999" stroke="#666666" points="410,-217 274,-217 274,-176 410,-176 410,-217"/>
<text text-anchor="start" x="282" y="-205" font-family="Helvetica,sans-Serif" font-size="10.00">/home/runner/work/no</text>
<text text-anchor="start" x="282" y="-194" font-family="Helvetica,sans-Serif" font-size="10.00">&#45;OS/no&#45;OS/drivers/power</text>
<text text-anchor="middle" x="342" y="-183" font-family="Helvetica,sans-Serif" font-size="10.00">/max17616/max17616.h</text>
</a>
</g>
</g>
<!-- Node2 -->
<g id="Node000002" class="node">
<title>Node2</title>
<g id="a_Node000002"><a xlink:href="iio__max17616_8c.html" target="_top" xlink:title="Source file of the MAX17616 IIO Driver.">
<polygon fill="white" stroke="#666666" points="152,-46.5 0,-46.5 0,-5.5 152,-5.5 152,-46.5"/>
<text text-anchor="start" x="8" y="-34.5" font-family="Helvetica,sans-Serif" font-size="10.00">/home/runner/work/no</text>
<text text-anchor="start" x="8" y="-23.5" font-family="Helvetica,sans-Serif" font-size="10.00">&#45;OS/no&#45;OS/drivers/power</text>
<text text-anchor="middle" x="76" y="-12.5" font-family="Helvetica,sans-Serif" font-size="10.00">/max17616/iio_max17616.c</text>
</a>
</g>
</g>
<!-- Node1&#45;&gt;Node2 -->
<g id="edge1_Node000001_Node000002" class="edge">
<title>Node1&#45;&gt;Node2</title>
<g id="a_edge1_Node000001_Node000002"><a xlink:title=" ">
<path fill="none" stroke="#63b8ff" d="M263.74,-187.41C200.34,-179.2 117.91,-164.2 95,-140 71.2,-114.87 70.97,-71.7 73.27,-46.62"/>
<polygon fill="#63b8ff" stroke="#63b8ff" points="263.39,-190.9 273.74,-188.67 264.26,-183.95 263.39,-190.9"/>
</a>
</g>
</g>
<!-- Node3 -->
<g id="Node000003" class="node">
<title>Node3</title>
<g id="a_Node000003"><a xlink:href="iio__max17616_8h.html" target="_top" xlink:title="Header file of the MAX17616 IIO Driver.">
<polygon fill="white" stroke="#666666" points="256,-134.5 104,-134.5 104,-93.5 256,-93.5 256,-134.5"/>
<text text-anchor="start" x="112" y="-122.5" font-family="Helvetica,sans-Serif" font-size="10.00">/home/runner/work/no</text>
<text text-anchor="start" x="112" y="-111.5" font-family="Helvetica,sans-Serif" font-size="10.00">&#45;OS/no&#45;OS/drivers/power</text>
<text text-anchor="middle" x="180" y="-100.5" font-family="Helvetica,sans-Serif" font-size="10.00">/max17616/iio_max17616.h</text>
</a>
</g>
</g>
<!-- Node1&#45;&gt;Node3 -->
<g id="edge2_Node000001_Node000003" class="edge">
<title>Node1&#45;&gt;Node3</title>
<g id="a_edge2_Node000001_Node000003"><a xlink:title=" ">
<path fill="none" stroke="#63b8ff" d="M293.23,-171.27C269.66,-159.55 241.72,-145.67 219.5,-134.63"/>
<polygon fill="#63b8ff" stroke="#63b8ff" points="291.86,-174.49 302.37,-175.81 294.97,-168.22 291.86,-174.49"/>
</a>
</g>
</g>
<!-- Node5 -->
<g id="Node000005" class="node">
<title>Node5</title>
<g id="a_Node000005"><a xlink:href="max17616_8c.html" target="_top" xlink:title="Source file of the MAX17616 Driver.">
<polygon fill="white" stroke="#666666" points="410,-134.5 274,-134.5 274,-93.5 410,-93.5 410,-134.5"/>
<text text-anchor="start" x="282" y="-122.5" font-family="Helvetica,sans-Serif" font-size="10.00">/home/runner/work/no</text>
<text text-anchor="start" x="282" y="-111.5" font-family="Helvetica,sans-Serif" font-size="10.00">&#45;OS/no&#45;OS/drivers/power</text>
<text text-anchor="middle" x="342" y="-100.5" font-family="Helvetica,sans-Serif" font-size="10.00">/max17616/max17616.c</text>
</a>
</g>
</g>
<!-- Node1&#45;&gt;Node5 -->
<g id="edge5_Node000001_Node000005" class="edge">
<title>Node1&#45;&gt;Node5</title>
<g id="a_edge5_Node000001_Node000005"><a xlink:title=" ">
<path fill="none" stroke="#63b8ff" d="M342,-165.37C342,-155.1 342,-143.9 342,-134.67"/>
<polygon fill="#63b8ff" stroke="#63b8ff" points="338.5,-165.6 342,-175.6 345.5,-165.6 338.5,-165.6"/>
</a>
</g>
</g>
<!-- Node6 -->
<g id="Node000006" class="node">
<title>Node6</title>
<g id="a_Node000006"><a xlink:href="max17616_2src_2common_2common__data_8h.html" target="_top" xlink:title="Defines common data to be used by max17616 examples.">
<polygon fill="white" stroke="#666666" points="591.5,-134.5 428.5,-134.5 428.5,-93.5 591.5,-93.5 591.5,-134.5"/>
<text text-anchor="start" x="436.5" y="-122.5" font-family="Helvetica,sans-Serif" font-size="10.00">/home/runner/work/no</text>
<text text-anchor="start" x="436.5" y="-111.5" font-family="Helvetica,sans-Serif" font-size="10.00">&#45;OS/no&#45;OS/projects/max17616</text>
<text text-anchor="middle" x="510" y="-100.5" font-family="Helvetica,sans-Serif" font-size="10.00">/src/common/common_data.h</text>
</a>
</g>
</g>
<!-- Node1&#45;&gt;Node6 -->
<g id="edge6_Node000001_Node000006" class="edge">
<title>Node1&#45;&gt;Node6</title>
<g id="a_edge6_Node000001_Node000006"><a xlink:title=" ">
<path fill="none" stroke="#63b8ff" d="M392.25,-171.42C416.77,-159.67 445.89,-145.72 469.04,-134.63"/>
<polygon fill="#63b8ff" stroke="#63b8ff" points="390.6,-168.33 383.1,-175.81 393.63,-174.64 390.6,-168.33"/>
</a>
</g>
</g>
<!-- Node8 -->
<g id="Node000008" class="node">
<title>Node8</title>
<g id="a_Node000008"><a xlink:href="max17616_2src_2examples_2basic_2basic__example_8c.html" target="_top" xlink:title="Basic example source file for max17616 project.">
<polygon fill="white" stroke="#666666" points="772.5,-140 609.5,-140 609.5,-88 772.5,-88 772.5,-140"/>
<text text-anchor="start" x="617.5" y="-128" font-family="Helvetica,sans-Serif" font-size="10.00">/home/runner/work/no</text>
<text text-anchor="start" x="617.5" y="-117" font-family="Helvetica,sans-Serif" font-size="10.00">&#45;OS/no&#45;OS/projects/max17616</text>
<text text-anchor="start" x="617.5" y="-106" font-family="Helvetica,sans-Serif" font-size="10.00">/src/examples/basic/basic</text>
<text text-anchor="middle" x="691" y="-95" font-family="Helvetica,sans-Serif" font-size="10.00">_example.c</text>
</a>
</g>
</g>
<!-- Node1&#45;&gt;Node8 -->
<g id="edge8_Node000001_Node000008" class="edge">
<title>Node1&#45;&gt;Node8</title>
<g id="a_edge8_Node000001_Node000008"><a xlink:title=" ">
<path fill="none" stroke="#63b8ff" d="M420.21,-180.01C471.75,-169.49 540.61,-154.84 601,-140 603.68,-139.34 606.4,-138.66 609.14,-137.96"/>
<polygon fill="#63b8ff" stroke="#63b8ff" points="419.25,-176.63 410.15,-182.06 420.64,-183.49 419.25,-176.63"/>
</a>
</g>
</g>
<!-- Node3&#45;&gt;Node2 -->
<g id="edge3_Node000003_Node000002" class="edge">
<title>Node3&#45;&gt;Node2</title>
<g id="a_edge3_Node000003_Node000002"><a xlink:title=" ">
<path fill="none" stroke="#63b8ff" d="M148.53,-86.98C132.89,-74.05 114.31,-58.68 99.87,-46.74"/>
<polygon fill="#63b8ff" stroke="#63b8ff" points="146.46,-89.81 156.4,-93.49 150.92,-84.42 146.46,-89.81"/>
</a>
</g>
</g>
<!-- Node4 -->
<g id="Node000004" class="node">
<title>Node4</title>
<g id="a_Node000004"><a xlink:href="max17616_2src_2examples_2iio__example_2iio__example_8c.html" target="_top" xlink:title="IIO example source file for max17616 project.">
<polygon fill="white" stroke="#666666" points="333.5,-52 170.5,-52 170.5,0 333.5,0 333.5,-52"/>
<text text-anchor="start" x="178.5" y="-40" font-family="Helvetica,sans-Serif" font-size="10.00">/home/runner/work/no</text>
<text text-anchor="start" x="178.5" y="-29" font-family="Helvetica,sans-Serif" font-size="10.00">&#45;OS/no&#45;OS/projects/max17616</text>
<text text-anchor="start" x="178.5" y="-18" font-family="Helvetica,sans-Serif" font-size="10.00">/src/examples/iio_example</text>
<text text-anchor="middle" x="252" y="-7" font-family="Helvetica,sans-Serif" font-size="10.00">/iio_example.c</text>
</a>
</g>
</g>
<!-- Node3&#45;&gt;Node4 -->
<g id="edge4_Node000003_Node000004" class="edge">
<title>Node3&#45;&gt;Node4</title>
<g id="a_edge4_Node000003_Node000004"><a xlink:title=" ">
<path fill="none" stroke="#63b8ff" d="M202.89,-85.66C211.83,-74.98 222.03,-62.8 230.8,-52.32"/>
<polygon fill="#63b8ff" stroke="#63b8ff" points="200.07,-83.57 196.34,-93.49 205.44,-88.06 200.07,-83.57"/>
</a>
</g>
</g>
<!-- Node7 -->
<g id="Node000007" class="node">
<title>Node7</title>
<g id="a_Node000007"><a xlink:href="max17616_2src_2common_2common__data_8c.html" target="_top" xlink:title="Defines common data to be used by max17616 examples.">
<polygon fill="white" stroke="#666666" points="591.5,-46.5 428.5,-46.5 428.5,-5.5 591.5,-5.5 591.5,-46.5"/>
<text text-anchor="start" x="436.5" y="-34.5" font-family="Helvetica,sans-Serif" font-size="10.00">/home/runner/work/no</text>
<text text-anchor="start" x="436.5" y="-23.5" font-family="Helvetica,sans-Serif" font-size="10.00">&#45;OS/no&#45;OS/projects/max17616</text>
<text text-anchor="middle" x="510" y="-12.5" font-family="Helvetica,sans-Serif" font-size="10.00">/src/common/common_data.c</text>
</a>
</g>
</g>
<!-- Node6&#45;&gt;Node7 -->
<g id="edge7_Node000006_Node000007" class="edge">
<title>Node6&#45;&gt;Node7</title>
<g id="a_edge7_Node000006_Node000007"><a xlink:title=" ">
<path fill="none" stroke="#63b8ff" d="M510,-83.36C510,-71.26 510,-57.58 510,-46.74"/>
<polygon fill="#63b8ff" stroke="#63b8ff" points="506.5,-83.49 510,-93.49 513.5,-83.49 506.5,-83.49"/>
</a>
</g>
</g>
</g>
</svg>
