<?xml version="1.0" encoding="UTF-8" standalone="no"?>
<!DOCTYPE svg PUBLIC "-//W3C//DTD SVG 1.1//EN"
 "http://www.w3.org/Graphics/SVG/1.1/DTD/svg11.dtd">
<!-- Generated by graphviz version 2.43.0 (0)
 -->
<!-- Title: /home/runner/work/no&#45;OS/no&#45;OS/drivers/adc/max11205/max11205.h Pages: 1 -->
<svg width="461pt" height="159pt"
 viewBox="0.00 0.00 461.00 159.00" xmlns="http://www.w3.org/2000/svg" xmlns:xlink="http://www.w3.org/1999/xlink">
<g id="graph0" class="graph" transform="scale(1 1) rotate(0) translate(4 155)">
<title>/home/runner/work/no&#45;OS/no&#45;OS/drivers/adc/max11205/max11205.h</title>
<!-- Node1 -->
<g id="Node000001" class="node">
<title>Node1</title>
<g id="a_Node000001"><a xlink:title="Implementation of max11205.h.">
<polygon fill="#999999" stroke="#666666" points="293.5,-151 158.5,-151 158.5,-110 293.5,-110 293.5,-151"/>
<text text-anchor="start" x="166.5" y="-139" font-family="Helvetica,sans-Serif" font-size="10.00">/home/runner/work/no</text>
<text text-anchor="start" x="166.5" y="-128" font-family="Helvetica,sans-Serif" font-size="10.00">&#45;OS/no&#45;OS/drivers/adc</text>
<text text-anchor="middle" x="226" y="-117" font-family="Helvetica,sans-Serif" font-size="10.00">/max11205/max11205.h</text>
</a>
</g>
</g>
<!-- Node2 -->
<g id="Node000002" class="node">
<title>Node2</title>
<g id="a_Node000002"><a xlink:title=" ">
<polygon fill="#e0e0e0" stroke="#999999" points="218.5,-19 165.5,-19 165.5,0 218.5,0 218.5,-19"/>
<text text-anchor="middle" x="192" y="-7" font-family="Helvetica,sans-Serif" font-size="10.00">stdint.h</text>
</a>
</g>
</g>
<!-- Node1&#45;&gt;Node2 -->
<g id="edge1_Node000001_Node000002" class="edge">
<title>Node1&#45;&gt;Node2</title>
<g id="a_edge1_Node000001_Node000002"><a xlink:title=" ">
<path fill="none" stroke="#63b8ff" d="M220.39,-109.85C213.96,-87.37 203.53,-50.86 197.26,-28.91"/>
<polygon fill="#63b8ff" stroke="#63b8ff" points="200.59,-27.83 194.48,-19.18 193.86,-29.75 200.59,-27.83"/>
</a>
</g>
</g>
<!-- Node3 -->
<g id="Node000003" class="node">
<title>Node3</title>
<g id="a_Node000003"><a xlink:title=" ">
<polygon fill="#e0e0e0" stroke="#999999" points="453,-19 391,-19 391,0 453,0 453,-19"/>
<text text-anchor="middle" x="422" y="-7" font-family="Helvetica,sans-Serif" font-size="10.00">stdbool.h</text>
</a>
</g>
</g>
<!-- Node1&#45;&gt;Node3 -->
<g id="edge2_Node000001_Node000003" class="edge">
<title>Node1&#45;&gt;Node3</title>
<g id="a_edge2_Node000001_Node000003"><a xlink:title=" ">
<path fill="none" stroke="#63b8ff" d="M293.55,-123.27C330.04,-116.55 373.35,-102.66 402,-74 413.86,-62.13 418.7,-43.3 420.67,-29.22"/>
<polygon fill="#63b8ff" stroke="#63b8ff" points="424.16,-29.48 421.71,-19.17 417.2,-28.76 424.16,-29.48"/>
</a>
</g>
</g>
<!-- Node4 -->
<g id="Node000004" class="node">
<title>Node4</title>
<g id="a_Node000004"><a xlink:href="no__os__gpio_8h.html" target="_top" xlink:title="Header file of GPIO Interface.">
<polygon fill="white" stroke="#666666" points="300,-74 220,-74 220,-55 300,-55 300,-74"/>
<text text-anchor="middle" x="260" y="-62" font-family="Helvetica,sans-Serif" font-size="10.00">no_os_gpio.h</text>
</a>
</g>
</g>
<!-- Node1&#45;&gt;Node4 -->
<g id="edge3_Node000001_Node000004" class="edge">
<title>Node1&#45;&gt;Node4</title>
<g id="a_edge3_Node000001_Node000004"><a xlink:title=" ">
<path fill="none" stroke="#63b8ff" d="M236.39,-109.95C240.93,-101.39 246.23,-91.42 250.65,-83.1"/>
<polygon fill="#63b8ff" stroke="#63b8ff" points="253.75,-84.73 255.35,-74.26 247.56,-81.45 253.75,-84.73"/>
</a>
</g>
</g>
<!-- Node5 -->
<g id="Node000005" class="node">
<title>Node5</title>
<g id="a_Node000005"><a xlink:href="no__os__irq_8h.html" target="_top" xlink:title="Header file of IRQ interface.">
<polygon fill="white" stroke="#666666" points="72,-74 0,-74 0,-55 72,-55 72,-74"/>
<text text-anchor="middle" x="36" y="-62" font-family="Helvetica,sans-Serif" font-size="10.00">no_os_irq.h</text>
</a>
</g>
</g>
<!-- Node1&#45;&gt;Node5 -->
<g id="edge5_Node000001_Node000005" class="edge">
<title>Node1&#45;&gt;Node5</title>
<g id="a_edge5_Node000001_Node000005"><a xlink:title=" ">
<path fill="none" stroke="#63b8ff" d="M167.96,-109.95C136.32,-99.29 98.19,-86.45 71.08,-77.31"/>
<polygon fill="#63b8ff" stroke="#63b8ff" points="71.85,-73.88 61.26,-74.01 69.62,-80.52 71.85,-73.88"/>
</a>
</g>
</g>
<!-- Node6 -->
<g id="Node000006" class="node">
<title>Node6</title>
<g id="a_Node000006"><a xlink:href="no__os__spi_8h.html" target="_top" xlink:title="Header file of SPI Interface.">
<polygon fill="white" stroke="#666666" points="164,-74 90,-74 90,-55 164,-55 164,-74"/>
<text text-anchor="middle" x="127" y="-62" font-family="Helvetica,sans-Serif" font-size="10.00">no_os_spi.h</text>
</a>
</g>
</g>
<!-- Node1&#45;&gt;Node6 -->
<g id="edge7_Node000001_Node000006" class="edge">
<title>Node1&#45;&gt;Node6</title>
<g id="a_edge7_Node000001_Node000006"><a xlink:title=" ">
<path fill="none" stroke="#63b8ff" d="M195.76,-109.95C180.7,-100.21 162.82,-88.65 149.07,-79.76"/>
<polygon fill="#63b8ff" stroke="#63b8ff" points="150.59,-76.58 140.29,-74.09 146.79,-82.46 150.59,-76.58"/>
</a>
</g>
</g>
<!-- Node7 -->
<g id="Node000007" class="node">
<title>Node7</title>
<g id="a_Node000007"><a xlink:href="no__os__util_8h.html" target="_top" xlink:title="Header file of utility functions.">
<polygon fill="white" stroke="#666666" points="393.5,-74 318.5,-74 318.5,-55 393.5,-55 393.5,-74"/>
<text text-anchor="middle" x="356" y="-62" font-family="Helvetica,sans-Serif" font-size="10.00">no_os_util.h</text>
</a>
</g>
</g>
<!-- Node1&#45;&gt;Node7 -->
<g id="edge9_Node000001_Node000007" class="edge">
<title>Node1&#45;&gt;Node7</title>
<g id="a_edge9_Node000001_Node000007"><a xlink:title=" ">
<path fill="none" stroke="#63b8ff" d="M265.71,-109.95C286.34,-99.79 311.01,-87.65 329.34,-78.63"/>
<polygon fill="#63b8ff" stroke="#63b8ff" points="331.12,-81.65 338.55,-74.09 328.03,-75.37 331.12,-81.65"/>
</a>
</g>
</g>
<!-- Node4&#45;&gt;Node2 -->
<g id="edge4_Node000004_Node000002" class="edge">
<title>Node4&#45;&gt;Node2</title>
<g id="a_edge4_Node000004_Node000002"><a xlink:title=" ">
<path fill="none" stroke="#63b8ff" d="M249.07,-54.98C238.92,-47.07 223.58,-35.11 211.35,-25.58"/>
<polygon fill="#63b8ff" stroke="#63b8ff" points="213.16,-22.56 203.12,-19.17 208.86,-28.08 213.16,-22.56"/>
</a>
</g>
</g>
<!-- Node5&#45;&gt;Node2 -->
<g id="edge6_Node000005_Node000002" class="edge">
<title>Node5&#45;&gt;Node2</title>
<g id="a_edge6_Node000005_Node000002"><a xlink:title=" ">
<path fill="none" stroke="#63b8ff" d="M61.06,-54.98C87.03,-46.16 127.81,-32.31 156.96,-22.41"/>
<polygon fill="#63b8ff" stroke="#63b8ff" points="158.4,-25.61 166.74,-19.08 156.15,-18.99 158.4,-25.61"/>
</a>
</g>
</g>
<!-- Node6&#45;&gt;Node2 -->
<g id="edge8_Node000006_Node000002" class="edge">
<title>Node6&#45;&gt;Node2</title>
<g id="a_edge8_Node000006_Node000002"><a xlink:title=" ">
<path fill="none" stroke="#63b8ff" d="M137.44,-54.98C147.15,-47.07 161.82,-35.11 173.5,-25.58"/>
<polygon fill="#63b8ff" stroke="#63b8ff" points="175.83,-28.2 181.37,-19.17 171.4,-22.78 175.83,-28.2"/>
</a>
</g>
</g>
<!-- Node7&#45;&gt;Node2 -->
<g id="edge10_Node000007_Node000002" class="edge">
<title>Node7&#45;&gt;Node2</title>
<g id="a_edge10_Node000007_Node000002"><a xlink:title=" ">
<path fill="none" stroke="#63b8ff" d="M329.65,-54.98C302.24,-46.13 259.11,-32.19 228.44,-22.28"/>
<polygon fill="#63b8ff" stroke="#63b8ff" points="229.15,-18.83 218.56,-19.08 227,-25.49 229.15,-18.83"/>
</a>
</g>
</g>
<!-- Node7&#45;&gt;Node3 -->
<g id="edge12_Node000007_Node000003" class="edge">
<title>Node7&#45;&gt;Node3</title>
<g id="a_edge12_Node000007_Node000003"><a xlink:title=" ">
<path fill="none" stroke="#63b8ff" d="M366.6,-54.98C376.46,-47.07 391.35,-35.11 403.22,-25.58"/>
<polygon fill="#63b8ff" stroke="#63b8ff" points="405.6,-28.16 411.2,-19.17 401.21,-22.7 405.6,-28.16"/>
</a>
</g>
</g>
<!-- Node8 -->
<g id="Node000008" class="node">
<title>Node8</title>
<g id="a_Node000008"><a xlink:title=" ">
<polygon fill="#e0e0e0" stroke="#999999" points="372.5,-19 319.5,-19 319.5,0 372.5,0 372.5,-19"/>
<text text-anchor="middle" x="346" y="-7" font-family="Helvetica,sans-Serif" font-size="10.00">stdlib.h</text>
</a>
</g>
</g>
<!-- Node7&#45;&gt;Node8 -->
<g id="edge11_Node000007_Node000008" class="edge">
<title>Node7&#45;&gt;Node8</title>
<g id="a_edge11_Node000007_Node000008"><a xlink:title=" ">
<path fill="none" stroke="#63b8ff" d="M354.35,-54.75C353.04,-47.8 351.16,-37.85 349.52,-29.13"/>
<polygon fill="#63b8ff" stroke="#63b8ff" points="352.91,-28.27 347.62,-19.09 346.04,-29.56 352.91,-28.27"/>
</a>
</g>
</g>
</g>
</svg>
