<?xml version="1.0" encoding="UTF-8" standalone="no"?>
<!DOCTYPE svg PUBLIC "-//W3C//DTD SVG 1.1//EN"
 "http://www.w3.org/Graphics/SVG/1.1/DTD/svg11.dtd">
<!-- Generated by graphviz version 2.43.0 (0)
 -->
<!-- Title: /home/runner/work/no&#45;OS/no&#45;OS/projects/max17616/src/examples/iio_example/iio_example.c Pages: 1 -->
<svg width="916pt" height="335pt"
 viewBox="0.00 0.00 915.97 335.00" xmlns="http://www.w3.org/2000/svg" xmlns:xlink="http://www.w3.org/1999/xlink">
<g id="graph0" class="graph" transform="scale(1 1) rotate(0) translate(4 331)">
<title>/home/runner/work/no&#45;OS/no&#45;OS/projects/max17616/src/examples/iio_example/iio_example.c</title>
<!-- Node1 -->
<g id="Node000001" class="node">
<title>Node1</title>
<g id="a_Node000001"><a xlink:title="IIO example source file for max17616 project.">
<polygon fill="#999999" stroke="#666666" points="703.47,-327 540.47,-327 540.47,-275 703.47,-275 703.47,-327"/>
<text text-anchor="start" x="548.47" y="-315" font-family="Helvetica,sans-Serif" font-size="10.00">/home/runner/work/no</text>
<text text-anchor="start" x="548.47" y="-304" font-family="Helvetica,sans-Serif" font-size="10.00">&#45;OS/no&#45;OS/projects/max17616</text>
<text text-anchor="start" x="548.47" y="-293" font-family="Helvetica,sans-Serif" font-size="10.00">/src/examples/iio_example</text>
<text text-anchor="middle" x="621.97" y="-282" font-family="Helvetica,sans-Serif" font-size="10.00">/iio_example.c</text>
</a>
</g>
</g>
<!-- Node2 -->
<g id="Node000002" class="node">
<title>Node2</title>
<g id="a_Node000002"><a xlink:href="max17616_2src_2examples_2iio__example_2iio__example_8h.html" target="_top" xlink:title="IIO example header file for max17616 project.">
<polygon fill="white" stroke="#666666" points="459.97,-239 373.97,-239 373.97,-220 459.97,-220 459.97,-239"/>
<text text-anchor="middle" x="416.97" y="-227" font-family="Helvetica,sans-Serif" font-size="10.00">iio_example.h</text>
</a>
</g>
</g>
<!-- Node1&#45;&gt;Node2 -->
<g id="edge1_Node000001_Node000002" class="edge">
<title>Node1&#45;&gt;Node2</title>
<g id="a_edge1_Node000001_Node000002"><a xlink:title=" ">
<path fill="none" stroke="#63b8ff" d="M547.96,-274.91C515.22,-263.81 478.26,-251.28 451.97,-242.36"/>
<polygon fill="#63b8ff" stroke="#63b8ff" points="453.04,-239.03 442.45,-239.14 450.79,-245.66 453.04,-239.03"/>
</a>
</g>
</g>
<!-- Node3 -->
<g id="Node000003" class="node">
<title>Node3</title>
<g id="a_Node000003"><a xlink:href="iio__max17616_8h.html" target="_top" xlink:title="Header file of the MAX17616 IIO Driver.">
<polygon fill="white" stroke="#666666" points="573.47,-239 478.47,-239 478.47,-220 573.47,-220 573.47,-239"/>
<text text-anchor="middle" x="525.97" y="-227" font-family="Helvetica,sans-Serif" font-size="10.00">iio_max17616.h</text>
</a>
</g>
</g>
<!-- Node1&#45;&gt;Node3 -->
<g id="edge2_Node000001_Node000003" class="edge">
<title>Node1&#45;&gt;Node3</title>
<g id="a_edge2_Node000001_Node000003"><a xlink:title=" ">
<path fill="none" stroke="#63b8ff" d="M587.32,-274.91C573.62,-264.99 558.35,-253.94 546.47,-245.34"/>
<polygon fill="#63b8ff" stroke="#63b8ff" points="548.28,-242.33 538.13,-239.3 544.18,-248 548.28,-242.33"/>
</a>
</g>
</g>
<!-- Node16 -->
<g id="Node000016" class="node">
<title>Node16</title>
<g id="a_Node000016"><a xlink:title=" ">
<polygon fill="#e0e0e0" stroke="#999999" points="765.47,-239 670.47,-239 670.47,-220 765.47,-220 765.47,-239"/>
<text text-anchor="middle" x="717.97" y="-227" font-family="Helvetica,sans-Serif" font-size="10.00">common_data.h</text>
</a>
</g>
</g>
<!-- Node1&#45;&gt;Node16 -->
<g id="edge27_Node000001_Node000016" class="edge">
<title>Node1&#45;&gt;Node16</title>
<g id="a_edge27_Node000001_Node000016"><a xlink:title=" ">
<path fill="none" stroke="#63b8ff" d="M656.63,-274.91C670.33,-264.99 685.6,-253.94 697.48,-245.34"/>
<polygon fill="#63b8ff" stroke="#63b8ff" points="699.77,-248 705.82,-239.3 695.66,-242.33 699.77,-248"/>
</a>
</g>
</g>
<!-- Node17 -->
<g id="Node000017" class="node">
<title>Node17</title>
<g id="a_Node000017"><a xlink:href="no__os__print__log_8h.html" target="_top" xlink:title="Print messages helpers.">
<polygon fill="white" stroke="#666666" points="907.97,-239 805.97,-239 805.97,-220 907.97,-220 907.97,-239"/>
<text text-anchor="middle" x="856.97" y="-227" font-family="Helvetica,sans-Serif" font-size="10.00">no_os_print_log.h</text>
</a>
</g>
</g>
<!-- Node1&#45;&gt;Node17 -->
<g id="edge28_Node000001_Node000017" class="edge">
<title>Node1&#45;&gt;Node17</title>
<g id="a_edge28_Node000001_Node000017"><a xlink:title=" ">
<path fill="none" stroke="#63b8ff" d="M703.51,-275.89C742.5,-264.35 787.35,-251.09 818.45,-241.89"/>
<polygon fill="#63b8ff" stroke="#63b8ff" points="819.44,-245.25 828.04,-239.06 817.46,-238.54 819.44,-245.25"/>
</a>
</g>
</g>
<!-- Node19 -->
<g id="Node000019" class="node">
<title>Node19</title>
<g id="a_Node000019"><a xlink:href="iio__app_8h.html" target="_top" xlink:title="Header file of iio_app.">
<polygon fill="white" stroke="#666666" points="652.47,-239 591.47,-239 591.47,-220 652.47,-220 652.47,-239"/>
<text text-anchor="middle" x="621.97" y="-227" font-family="Helvetica,sans-Serif" font-size="10.00">iio_app.h</text>
</a>
</g>
</g>
<!-- Node1&#45;&gt;Node19 -->
<g id="edge30_Node000001_Node000019" class="edge">
<title>Node1&#45;&gt;Node19</title>
<g id="a_edge30_Node000001_Node000019"><a xlink:title=" ">
<path fill="none" stroke="#63b8ff" d="M621.97,-274.91C621.97,-266.55 621.97,-257.38 621.97,-249.55"/>
<polygon fill="#63b8ff" stroke="#63b8ff" points="625.47,-249.3 621.97,-239.3 618.47,-249.3 625.47,-249.3"/>
</a>
</g>
</g>
<!-- Node4 -->
<g id="Node000004" class="node">
<title>Node4</title>
<g id="a_Node000004"><a xlink:title=" ">
<polygon fill="#e0e0e0" stroke="#999999" points="163.97,-19 101.97,-19 101.97,0 163.97,0 163.97,-19"/>
<text text-anchor="middle" x="132.97" y="-7" font-family="Helvetica,sans-Serif" font-size="10.00">stdbool.h</text>
</a>
</g>
</g>
<!-- Node3&#45;&gt;Node4 -->
<g id="edge3_Node000003_Node000004" class="edge">
<title>Node3&#45;&gt;Node4</title>
<g id="a_edge3_Node000003_Node000004"><a xlink:title=" ">
<path fill="none" stroke="#63b8ff" d="M487.82,-219.92C372.85,-193.71 35.82,-114.01 5.97,-74 -19.17,-40.29 45.59,-23.31 91.61,-15.73"/>
<polygon fill="#63b8ff" stroke="#63b8ff" points="92.33,-19.16 101.68,-14.17 91.26,-12.24 92.33,-19.16"/>
</a>
</g>
</g>
<!-- Node5 -->
<g id="Node000005" class="node">
<title>Node5</title>
<g id="a_Node000005"><a xlink:href="iio_8h.html" target="_top" xlink:title="Header file of iio.">
<polygon fill="white" stroke="#666666" points="569.97,-184 531.97,-184 531.97,-165 569.97,-165 569.97,-184"/>
<text text-anchor="middle" x="550.97" y="-172" font-family="Helvetica,sans-Serif" font-size="10.00">iio.h</text>
</a>
</g>
</g>
<!-- Node3&#45;&gt;Node5 -->
<g id="edge4_Node000003_Node000005" class="edge">
<title>Node3&#45;&gt;Node5</title>
<g id="a_edge4_Node000003_Node000005"><a xlink:title=" ">
<path fill="none" stroke="#63b8ff" d="M530.1,-219.75C533.49,-212.57 538.39,-202.18 542.59,-193.27"/>
<polygon fill="#63b8ff" stroke="#63b8ff" points="545.82,-194.63 546.92,-184.09 539.49,-191.64 545.82,-194.63"/>
</a>
</g>
</g>
<!-- Node12 -->
<g id="Node000012" class="node">
<title>Node12</title>
<g id="a_Node000012"><a xlink:href="max17616_8h.html" target="_top" xlink:title="Header file of the MAX17616 Driver.">
<polygon fill="white" stroke="#666666" points="330.47,-129 253.47,-129 253.47,-110 330.47,-110 330.47,-129"/>
<text text-anchor="middle" x="291.97" y="-117" font-family="Helvetica,sans-Serif" font-size="10.00">max17616.h</text>
</a>
</g>
</g>
<!-- Node3&#45;&gt;Node12 -->
<g id="edge17_Node000003_Node000012" class="edge">
<title>Node3&#45;&gt;Node12</title>
<g id="a_edge17_Node000003_Node000012"><a xlink:title=" ">
<path fill="none" stroke="#63b8ff" d="M507.22,-219.84C466.13,-200.88 367.98,-155.58 319.72,-133.31"/>
<polygon fill="#63b8ff" stroke="#63b8ff" points="321.04,-130.06 310.49,-129.05 318.1,-136.42 321.04,-130.06"/>
</a>
</g>
</g>
<!-- Node6 -->
<g id="Node000006" class="node">
<title>Node6</title>
<g id="a_Node000006"><a xlink:href="iio__types_8h.html" target="_top" xlink:title="Header file for iio_types.">
<polygon fill="white" stroke="#666666" points="597.97,-129 527.97,-129 527.97,-110 597.97,-110 597.97,-129"/>
<text text-anchor="middle" x="562.97" y="-117" font-family="Helvetica,sans-Serif" font-size="10.00">iio_types.h</text>
</a>
</g>
</g>
<!-- Node5&#45;&gt;Node6 -->
<g id="edge5_Node000005_Node000006" class="edge">
<title>Node5&#45;&gt;Node6</title>
<g id="a_edge5_Node000005_Node000006"><a xlink:title=" ">
<path fill="none" stroke="#63b8ff" d="M552.96,-164.75C554.55,-157.72 556.83,-147.62 558.82,-138.84"/>
<polygon fill="#63b8ff" stroke="#63b8ff" points="562.23,-139.62 561.03,-129.09 555.41,-138.07 562.23,-139.62"/>
</a>
</g>
</g>
<!-- Node9 -->
<g id="Node000009" class="node">
<title>Node9</title>
<g id="a_Node000009"><a xlink:href="no__os__uart_8h.html" target="_top" xlink:title="Header file of UART interface.">
<polygon fill="white" stroke="#666666" points="509.47,-129 430.47,-129 430.47,-110 509.47,-110 509.47,-129"/>
<text text-anchor="middle" x="469.97" y="-117" font-family="Helvetica,sans-Serif" font-size="10.00">no_os_uart.h</text>
</a>
</g>
</g>
<!-- Node5&#45;&gt;Node9 -->
<g id="edge10_Node000005_Node000009" class="edge">
<title>Node5&#45;&gt;Node9</title>
<g id="a_edge10_Node000005_Node000009"><a xlink:title=" ">
<path fill="none" stroke="#63b8ff" d="M537.96,-164.98C525.52,-156.84 506.52,-144.41 491.77,-134.76"/>
<polygon fill="#63b8ff" stroke="#63b8ff" points="493.51,-131.72 483.22,-129.17 489.68,-137.57 493.51,-131.72"/>
</a>
</g>
</g>
<!-- Node6&#45;&gt;Node4 -->
<g id="edge6_Node000006_Node000004" class="edge">
<title>Node6&#45;&gt;Node4</title>
<g id="a_edge6_Node000006_Node000004"><a xlink:title=" ">
<path fill="none" stroke="#63b8ff" d="M527.65,-111.53C524.38,-110.98 521.12,-110.46 517.97,-110 439.72,-98.65 228.83,-119.23 163.97,-74 149.06,-63.6 141.02,-43.96 136.9,-29.26"/>
<polygon fill="#63b8ff" stroke="#63b8ff" points="140.22,-28.11 134.46,-19.22 133.42,-29.76 140.22,-28.11"/>
</a>
</g>
</g>
<!-- Node7 -->
<g id="Node000007" class="node">
<title>Node7</title>
<g id="a_Node000007"><a xlink:title=" ">
<polygon fill="#e0e0e0" stroke="#999999" points="551.47,-19 498.47,-19 498.47,0 551.47,0 551.47,-19"/>
<text text-anchor="middle" x="524.97" y="-7" font-family="Helvetica,sans-Serif" font-size="10.00">stdint.h</text>
</a>
</g>
</g>
<!-- Node6&#45;&gt;Node7 -->
<g id="edge7_Node000006_Node000007" class="edge">
<title>Node6&#45;&gt;Node7</title>
<g id="a_edge7_Node000006_Node000007"><a xlink:title=" ">
<path fill="none" stroke="#63b8ff" d="M559.86,-109.66C553.65,-92.01 539.61,-52.09 531.35,-28.64"/>
<polygon fill="#63b8ff" stroke="#63b8ff" points="534.64,-27.43 528.02,-19.16 528.04,-29.75 534.64,-27.43"/>
</a>
</g>
</g>
<!-- Node8 -->
<g id="Node000008" class="node">
<title>Node8</title>
<g id="a_Node000008"><a xlink:href="no__os__circular__buffer_8h.html" target="_top" xlink:title="Circular buffer library header.">
<polygon fill="white" stroke="#666666" points="718.97,-74 590.97,-74 590.97,-55 718.97,-55 718.97,-74"/>
<text text-anchor="middle" x="654.97" y="-62" font-family="Helvetica,sans-Serif" font-size="10.00">no_os_circular_buffer.h</text>
</a>
</g>
</g>
<!-- Node6&#45;&gt;Node8 -->
<g id="edge8_Node000006_Node000008" class="edge">
<title>Node6&#45;&gt;Node8</title>
<g id="a_edge8_Node000006_Node000008"><a xlink:title=" ">
<path fill="none" stroke="#63b8ff" d="M577.76,-109.98C592.16,-101.69 614.28,-88.94 631.17,-79.22"/>
<polygon fill="#63b8ff" stroke="#63b8ff" points="633.01,-82.19 639.92,-74.17 629.51,-76.13 633.01,-82.19"/>
</a>
</g>
</g>
<!-- Node8&#45;&gt;Node7 -->
<g id="edge9_Node000008_Node000007" class="edge">
<title>Node8&#45;&gt;Node7</title>
<g id="a_edge9_Node000008_Node000007"><a xlink:title=" ">
<path fill="none" stroke="#63b8ff" d="M634.09,-54.98C612.89,-46.34 579.85,-32.87 555.67,-23.02"/>
<polygon fill="#63b8ff" stroke="#63b8ff" points="556.82,-19.7 546.24,-19.17 554.18,-26.19 556.82,-19.7"/>
</a>
</g>
</g>
<!-- Node9&#45;&gt;Node4 -->
<g id="edge12_Node000009_Node000004" class="edge">
<title>Node9&#45;&gt;Node4</title>
<g id="a_edge12_Node000009_Node000004"><a xlink:title=" ">
<path fill="none" stroke="#63b8ff" d="M430.26,-116.19C344.98,-110.81 150.47,-96.23 130.97,-74 120.31,-61.84 122.52,-42.78 126.35,-28.71"/>
<polygon fill="#63b8ff" stroke="#63b8ff" points="129.7,-29.71 129.41,-19.12 123.04,-27.58 129.7,-29.71"/>
</a>
</g>
</g>
<!-- Node9&#45;&gt;Node7 -->
<g id="edge11_Node000009_Node000007" class="edge">
<title>Node9&#45;&gt;Node7</title>
<g id="a_edge11_Node000009_Node000007"><a xlink:title=" ">
<path fill="none" stroke="#63b8ff" d="M477.08,-109.72C483.86,-101.03 494.04,-87.16 500.97,-74 508.7,-59.34 515.18,-41.62 519.45,-28.63"/>
<polygon fill="#63b8ff" stroke="#63b8ff" points="522.82,-29.59 522.5,-19 516.14,-27.48 522.82,-29.59"/>
</a>
</g>
</g>
<!-- Node10 -->
<g id="Node000010" class="node">
<title>Node10</title>
<g id="a_Node000010"><a xlink:href="no__os__lf256fifo_8h.html" target="_top" xlink:title="SPSC lock&#45;free fifo of fixed size (256), specialized for UART.">
<polygon fill="white" stroke="#666666" points="366.97,-74 266.97,-74 266.97,-55 366.97,-55 366.97,-74"/>
<text text-anchor="middle" x="316.97" y="-62" font-family="Helvetica,sans-Serif" font-size="10.00">no_os_lf256fifo.h</text>
</a>
</g>
</g>
<!-- Node9&#45;&gt;Node10 -->
<g id="edge13_Node000009_Node000010" class="edge">
<title>Node9&#45;&gt;Node10</title>
<g id="a_edge13_Node000009_Node000010"><a xlink:title=" ">
<path fill="none" stroke="#63b8ff" d="M445.39,-109.98C419.93,-101.16 379.93,-87.31 351.34,-77.41"/>
<polygon fill="#63b8ff" stroke="#63b8ff" points="352.34,-74.05 341.75,-74.08 350.05,-80.66 352.34,-74.05"/>
</a>
</g>
</g>
<!-- Node10&#45;&gt;Node4 -->
<g id="edge16_Node000010_Node000004" class="edge">
<title>Node10&#45;&gt;Node4</title>
<g id="a_edge16_Node000010_Node000004"><a xlink:title=" ">
<path fill="none" stroke="#63b8ff" d="M287.41,-54.98C256.25,-46.01 207,-31.82 172.52,-21.89"/>
<polygon fill="#63b8ff" stroke="#63b8ff" points="173.35,-18.49 162.77,-19.08 171.41,-25.21 173.35,-18.49"/>
</a>
</g>
</g>
<!-- Node10&#45;&gt;Node7 -->
<g id="edge15_Node000010_Node000007" class="edge">
<title>Node10&#45;&gt;Node7</title>
<g id="a_edge15_Node000010_Node000007"><a xlink:title=" ">
<path fill="none" stroke="#63b8ff" d="M350.39,-54.98C388.13,-45.37 449.35,-29.77 488.36,-19.83"/>
<polygon fill="#63b8ff" stroke="#63b8ff" points="489.42,-23.17 498.25,-17.31 487.7,-16.39 489.42,-23.17"/>
</a>
</g>
</g>
<!-- Node11 -->
<g id="Node000011" class="node">
<title>Node11</title>
<g id="a_Node000011"><a xlink:title=" ">
<polygon fill="#e0e0e0" stroke="#999999" points="249.47,-19 196.47,-19 196.47,0 249.47,0 249.47,-19"/>
<text text-anchor="middle" x="222.97" y="-7" font-family="Helvetica,sans-Serif" font-size="10.00">stdlib.h</text>
</a>
</g>
</g>
<!-- Node10&#45;&gt;Node11 -->
<g id="edge14_Node000010_Node000011" class="edge">
<title>Node10&#45;&gt;Node11</title>
<g id="a_edge14_Node000010_Node000011"><a xlink:title=" ">
<path fill="none" stroke="#63b8ff" d="M301.87,-54.98C287.16,-46.69 264.55,-33.94 247.3,-24.22"/>
<polygon fill="#63b8ff" stroke="#63b8ff" points="248.78,-21.03 238.35,-19.17 245.34,-27.13 248.78,-21.03"/>
</a>
</g>
</g>
<!-- Node12&#45;&gt;Node4 -->
<g id="edge20_Node000012_Node000004" class="edge">
<title>Node12&#45;&gt;Node4</title>
<g id="a_edge20_Node000012_Node000004"><a xlink:title=" ">
<path fill="none" stroke="#63b8ff" d="M253.44,-118.18C184.87,-116.69 46.03,-109.29 15.97,-74 -9.14,-44.52 48.75,-26.42 91.75,-17.44"/>
<polygon fill="#63b8ff" stroke="#63b8ff" points="92.62,-20.84 101.75,-15.46 91.26,-13.97 92.62,-20.84"/>
</a>
</g>
</g>
<!-- Node12&#45;&gt;Node7 -->
<g id="edge18_Node000012_Node000007" class="edge">
<title>Node12&#45;&gt;Node7</title>
<g id="a_edge18_Node000012_Node000007"><a xlink:title=" ">
<path fill="none" stroke="#63b8ff" d="M330.51,-115.29C367.94,-110.74 425.22,-99.83 467.97,-74 487.11,-62.44 503.5,-42.43 513.72,-27.96"/>
<polygon fill="#63b8ff" stroke="#63b8ff" points="516.81,-29.64 519.52,-19.4 511.02,-25.72 516.81,-29.64"/>
</a>
</g>
</g>
<!-- Node13 -->
<g id="Node000013" class="node">
<title>Node13</title>
<g id="a_Node000013"><a xlink:title=" ">
<polygon fill="#e0e0e0" stroke="#999999" points="78.47,-74 25.47,-74 25.47,-55 78.47,-55 78.47,-74"/>
<text text-anchor="middle" x="51.97" y="-62" font-family="Helvetica,sans-Serif" font-size="10.00">string.h</text>
</a>
</g>
</g>
<!-- Node12&#45;&gt;Node13 -->
<g id="edge19_Node000012_Node000013" class="edge">
<title>Node12&#45;&gt;Node13</title>
<g id="a_edge19_Node000012_Node000013"><a xlink:title=" ">
<path fill="none" stroke="#63b8ff" d="M253.41,-109.98C207.93,-99.94 132.89,-83.37 88.37,-73.54"/>
<polygon fill="#63b8ff" stroke="#63b8ff" points="89.07,-70.11 78.55,-71.37 87.56,-76.94 89.07,-70.11"/>
</a>
</g>
</g>
<!-- Node14 -->
<g id="Node000014" class="node">
<title>Node14</title>
<g id="a_Node000014"><a xlink:href="no__os__util_8h.html" target="_top" xlink:title="Header file of utility functions.">
<polygon fill="white" stroke="#666666" points="248.47,-74 173.47,-74 173.47,-55 248.47,-55 248.47,-74"/>
<text text-anchor="middle" x="210.97" y="-62" font-family="Helvetica,sans-Serif" font-size="10.00">no_os_util.h</text>
</a>
</g>
</g>
<!-- Node12&#45;&gt;Node14 -->
<g id="edge21_Node000012_Node000014" class="edge">
<title>Node12&#45;&gt;Node14</title>
<g id="a_edge21_Node000012_Node000014"><a xlink:title=" ">
<path fill="none" stroke="#63b8ff" d="M278.96,-109.98C266.52,-101.84 247.52,-89.41 232.77,-79.76"/>
<polygon fill="#63b8ff" stroke="#63b8ff" points="234.51,-76.72 224.22,-74.17 230.68,-82.57 234.51,-76.72"/>
</a>
</g>
</g>
<!-- Node15 -->
<g id="Node000015" class="node">
<title>Node15</title>
<g id="a_Node000015"><a xlink:href="no__os__i2c_8h.html" target="_top" xlink:title="Header file of I2C Interface.">
<polygon fill="white" stroke="#666666" points="458.97,-74 384.97,-74 384.97,-55 458.97,-55 458.97,-74"/>
<text text-anchor="middle" x="421.97" y="-62" font-family="Helvetica,sans-Serif" font-size="10.00">no_os_i2c.h</text>
</a>
</g>
</g>
<!-- Node12&#45;&gt;Node15 -->
<g id="edge25_Node000012_Node000015" class="edge">
<title>Node12&#45;&gt;Node15</title>
<g id="a_edge25_Node000012_Node000015"><a xlink:title=" ">
<path fill="none" stroke="#63b8ff" d="M312.86,-109.98C334.06,-101.34 367.1,-87.87 391.27,-78.02"/>
<polygon fill="#63b8ff" stroke="#63b8ff" points="392.77,-81.19 400.71,-74.17 390.13,-74.7 392.77,-81.19"/>
</a>
</g>
</g>
<!-- Node14&#45;&gt;Node4 -->
<g id="edge24_Node000014_Node000004" class="edge">
<title>Node14&#45;&gt;Node4</title>
<g id="a_edge24_Node000014_Node000004"><a xlink:title=" ">
<path fill="none" stroke="#63b8ff" d="M198.44,-54.98C186.57,-46.92 168.51,-34.65 154.36,-25.03"/>
<polygon fill="#63b8ff" stroke="#63b8ff" points="155.97,-21.9 145.73,-19.17 152.04,-27.69 155.97,-21.9"/>
</a>
</g>
</g>
<!-- Node14&#45;&gt;Node7 -->
<g id="edge22_Node000014_Node000007" class="edge">
<title>Node14&#45;&gt;Node7</title>
<g id="a_edge22_Node000014_Node000007"><a xlink:title=" ">
<path fill="none" stroke="#63b8ff" d="M248.68,-56.63C251.82,-56.08 254.95,-55.53 257.97,-55 340.27,-40.7 437.01,-24.8 488.46,-16.42"/>
<polygon fill="#63b8ff" stroke="#63b8ff" points="489.12,-19.86 498.43,-14.8 487.99,-12.95 489.12,-19.86"/>
</a>
</g>
</g>
<!-- Node14&#45;&gt;Node11 -->
<g id="edge23_Node000014_Node000011" class="edge">
<title>Node14&#45;&gt;Node11</title>
<g id="a_edge23_Node000014_Node000011"><a xlink:title=" ">
<path fill="none" stroke="#63b8ff" d="M212.96,-54.75C214.55,-47.72 216.83,-37.62 218.82,-28.84"/>
<polygon fill="#63b8ff" stroke="#63b8ff" points="222.23,-29.62 221.03,-19.09 215.41,-28.07 222.23,-29.62"/>
</a>
</g>
</g>
<!-- Node15&#45;&gt;Node7 -->
<g id="edge26_Node000015_Node000007" class="edge">
<title>Node15&#45;&gt;Node7</title>
<g id="a_edge26_Node000015_Node000007"><a xlink:title=" ">
<path fill="none" stroke="#63b8ff" d="M438.52,-54.98C454.87,-46.57 480.11,-33.59 499.1,-23.81"/>
<polygon fill="#63b8ff" stroke="#63b8ff" points="500.83,-26.86 508.12,-19.17 497.63,-20.63 500.83,-26.86"/>
</a>
</g>
</g>
<!-- Node18 -->
<g id="Node000018" class="node">
<title>Node18</title>
<g id="a_Node000018"><a xlink:title=" ">
<polygon fill="#e0e0e0" stroke="#999999" points="903.97,-184 853.97,-184 853.97,-165 903.97,-165 903.97,-184"/>
<text text-anchor="middle" x="878.97" y="-172" font-family="Helvetica,sans-Serif" font-size="10.00">stdio.h</text>
</a>
</g>
</g>
<!-- Node17&#45;&gt;Node18 -->
<g id="edge29_Node000017_Node000018" class="edge">
<title>Node17&#45;&gt;Node18</title>
<g id="a_edge29_Node000017_Node000018"><a xlink:title=" ">
<path fill="none" stroke="#63b8ff" d="M860.61,-219.75C863.55,-212.65 867.81,-202.4 871.48,-193.56"/>
<polygon fill="#63b8ff" stroke="#63b8ff" points="874.81,-194.67 875.41,-184.09 868.34,-191.98 874.81,-194.67"/>
</a>
</g>
</g>
<!-- Node19&#45;&gt;Node5 -->
<g id="edge31_Node000019_Node000005" class="edge">
<title>Node19&#45;&gt;Node5</title>
<g id="a_edge31_Node000019_Node000005"><a xlink:title=" ">
<path fill="none" stroke="#63b8ff" d="M610.57,-219.98C599.87,-212 583.63,-199.88 570.81,-190.31"/>
<polygon fill="#63b8ff" stroke="#63b8ff" points="572.7,-187.35 562.59,-184.17 568.51,-192.96 572.7,-187.35"/>
</a>
</g>
</g>
<!-- Node19&#45;&gt;Node9 -->
<g id="edge34_Node000019_Node000009" class="edge">
<title>Node19&#45;&gt;Node9</title>
<g id="a_edge34_Node000019_Node000009"><a xlink:title=" ">
<path fill="none" stroke="#63b8ff" d="M594.56,-219.97C573.61,-212.59 544.74,-200.51 522.97,-184 506.05,-171.17 491,-151.97 481.3,-138.05"/>
<polygon fill="#63b8ff" stroke="#63b8ff" points="483.96,-135.74 475.48,-129.39 478.15,-139.64 483.96,-135.74"/>
</a>
</g>
</g>
<!-- Node20 -->
<g id="Node000020" class="node">
<title>Node20</title>
<g id="a_Node000020"><a xlink:href="no__os__irq_8h.html" target="_top" xlink:title="Header file of IRQ interface.">
<polygon fill="white" stroke="#666666" points="722.97,-129 650.97,-129 650.97,-110 722.97,-110 722.97,-129"/>
<text text-anchor="middle" x="686.97" y="-117" font-family="Helvetica,sans-Serif" font-size="10.00">no_os_irq.h</text>
</a>
</g>
</g>
<!-- Node19&#45;&gt;Node20 -->
<g id="edge32_Node000019_Node000020" class="edge">
<title>Node19&#45;&gt;Node20</title>
<g id="a_edge32_Node000019_Node000020"><a xlink:title=" ">
<path fill="none" stroke="#63b8ff" d="M623.35,-219.73C625.65,-206.94 631.13,-182.76 641.97,-165 648.72,-153.94 658.8,-143.63 667.71,-135.72"/>
<polygon fill="#63b8ff" stroke="#63b8ff" points="670.06,-138.32 675.43,-129.19 665.54,-132.98 670.06,-138.32"/>
</a>
</g>
</g>
<!-- Node21 -->
<g id="Node000021" class="node">
<title>Node21</title>
<g id="a_Node000021"><a xlink:href="no__os__error_8h.html" target="_top" xlink:title="Error codes definition.">
<polygon fill="white" stroke="#666666" points="835.97,-184 753.97,-184 753.97,-165 835.97,-165 835.97,-184"/>
<text text-anchor="middle" x="794.97" y="-172" font-family="Helvetica,sans-Serif" font-size="10.00">no_os_error.h</text>
</a>
</g>
</g>
<!-- Node19&#45;&gt;Node21 -->
<g id="edge35_Node000019_Node000021" class="edge">
<title>Node19&#45;&gt;Node21</title>
<g id="a_edge35_Node000019_Node000021"><a xlink:title=" ">
<path fill="none" stroke="#63b8ff" d="M649.77,-219.98C678.94,-211.05 724.98,-196.94 757.38,-187.02"/>
<polygon fill="#63b8ff" stroke="#63b8ff" points="758.42,-190.36 766.96,-184.08 756.37,-183.66 758.42,-190.36"/>
</a>
</g>
</g>
<!-- Node23 -->
<g id="Node000023" class="node">
<title>Node23</title>
<g id="a_Node000023"><a xlink:href="no__os__delay_8h.html" target="_top" xlink:title="Header file of Delay functions.">
<polygon fill="white" stroke="#666666" points="735.47,-184 650.47,-184 650.47,-165 735.47,-165 735.47,-184"/>
<text text-anchor="middle" x="692.97" y="-172" font-family="Helvetica,sans-Serif" font-size="10.00">no_os_delay.h</text>
</a>
</g>
</g>
<!-- Node19&#45;&gt;Node23 -->
<g id="edge37_Node000019_Node000023" class="edge">
<title>Node19&#45;&gt;Node23</title>
<g id="a_edge37_Node000019_Node000023"><a xlink:title=" ">
<path fill="none" stroke="#63b8ff" d="M633.38,-219.98C644.08,-212 660.31,-199.88 673.14,-190.31"/>
<polygon fill="#63b8ff" stroke="#63b8ff" points="675.44,-192.96 681.36,-184.17 671.25,-187.35 675.44,-192.96"/>
</a>
</g>
</g>
<!-- Node20&#45;&gt;Node7 -->
<g id="edge33_Node000020_Node000007" class="edge">
<title>Node20&#45;&gt;Node7</title>
<g id="a_edge33_Node000020_Node000007"><a xlink:title=" ">
<path fill="none" stroke="#63b8ff" d="M699.58,-109.9C716.5,-97.32 742.78,-73.4 727.97,-55 707.51,-29.57 614.57,-17.86 561.82,-13.17"/>
<polygon fill="#63b8ff" stroke="#63b8ff" points="562.1,-9.69 551.84,-12.33 561.51,-16.66 562.1,-9.69"/>
</a>
</g>
</g>
<!-- Node22 -->
<g id="Node000022" class="node">
<title>Node22</title>
<g id="a_Node000022"><a xlink:href="errno_8h.html" target="_top" xlink:title="Error macro definition for ARM Compiler.">
<polygon fill="white" stroke="#666666" points="864.47,-129 813.47,-129 813.47,-110 864.47,-110 864.47,-129"/>
<text text-anchor="middle" x="838.97" y="-117" font-family="Helvetica,sans-Serif" font-size="10.00">errno.h</text>
</a>
</g>
</g>
<!-- Node21&#45;&gt;Node22 -->
<g id="edge36_Node000021_Node000022" class="edge">
<title>Node21&#45;&gt;Node22</title>
<g id="a_edge36_Node000021_Node000022"><a xlink:title=" ">
<path fill="none" stroke="#63b8ff" d="M802.24,-164.75C808.52,-157.18 817.76,-146.05 825.4,-136.84"/>
<polygon fill="#63b8ff" stroke="#63b8ff" points="828.15,-139.02 831.84,-129.09 822.76,-134.55 828.15,-139.02"/>
</a>
</g>
</g>
<!-- Node23&#45;&gt;Node7 -->
<g id="edge38_Node000023_Node000007" class="edge">
<title>Node23&#45;&gt;Node7</title>
<g id="a_edge38_Node000023_Node000007"><a xlink:title=" ">
<path fill="none" stroke="#63b8ff" d="M702.33,-164.89C723.82,-144.09 772.75,-90.21 743.97,-55 721.43,-27.41 618.51,-16.5 562.15,-12.54"/>
<polygon fill="#63b8ff" stroke="#63b8ff" points="562.08,-9.03 551.87,-11.86 561.61,-16.02 562.08,-9.03"/>
</a>
</g>
</g>
</g>
</svg>
