<?xml version="1.0" encoding="UTF-8" standalone="no"?>
<!DOCTYPE svg PUBLIC "-//W3C//DTD SVG 1.1//EN"
 "http://www.w3.org/Graphics/SVG/1.1/DTD/svg11.dtd">
<!-- Generated by graphviz version 2.43.0 (0)
 -->
<!-- Title: /home/runner/work/no&#45;OS/no&#45;OS/drivers/digital&#45;io/max149x6/max149x6&#45;base.h Pages: 1 -->
<!--zoomable 379 -->

<svg id="main" version="1.1" xmlns="http://www.w3.org/2000/svg" xmlns:xlink="http://www.w3.org/1999/xlink" xml:space="preserve" onload="init(evt)">

<style type="text/css"><![CDATA[
.node, .edge {opacity: 0.7;}
.node.selected, .edge.selected {opacity: 1;}
.edge:hover path { stroke: red; }
.edge:hover polygon { stroke: red; fill: red; }
]]></style>

<defs>
  <circle id="rim" cx="0" cy="0" r="7"/>
  <circle id="rim2" cx="0" cy="0" r="3.5"/>
  <g id="zoomPlus">
    <use xlink:href="#rim" fill="#404040"><set attributeName="fill" to="#808080" begin="zoomplus.mouseover" end="zoomplus.mouseout"/></use>
    <path d="M-4,0h8M0,-4v8" fill="none" stroke="white" stroke-width="1.5" pointer-events="none"/>
  </g>
  <g id="zoomMin">
    <use xlink:href="#rim" fill="#404040"><set attributeName="fill" to="#808080" begin="zoomminus.mouseover" end="zoomminus.mouseout"/></use>
    <path d="M-4,0h8" fill="none" stroke="white" stroke-width="1.5" pointer-events="none"/>
  </g>
  <g id="arrowUp" transform="translate(30 24)">
    <use xlink:href="#rim"/>
    <path pointer-events="none" fill="none" stroke="white" stroke-width="1.5" d="M0,-3.0v7 M-2.5,-0.5L0,-3.0L2.5,-0.5"/>
  </g>
  <g id="arrowRight" transform="rotate(90) translate(36 -43)">
    <use xlink:href="#rim"/>
    <path pointer-events="none" fill="none" stroke="white" stroke-width="1.5" d="M0,-3.0v7 M-2.5,-0.5L0,-3.0L2.5,-0.5"/>
  </g>
  <g id="arrowDown" transform="rotate(180) translate(-30 -48)">
    <use xlink:href="#rim"/>
    <path pointer-events="none" fill="none" stroke="white" stroke-width="1.5" d="M0,-3.0v7 M-2.5,-0.5L0,-3.0L2.5,-0.5"/>
  </g>
  <g id="arrowLeft" transform="rotate(270) translate(-36 17)">
    <use xlink:href="#rim"/>
    <path pointer-events="none" fill="none" stroke="white" stroke-width="1.5" d="M0,-3.0v7 M-2.5,-0.5L0,-3.0L2.5,-0.5"/>
  </g>
  <g id="resetDef">
    <use xlink:href="#rim2" fill="#404040"><set attributeName="fill" to="#808080" begin="reset.mouseover" end="reset.mouseout"/></use>
  </g>
</defs>
<script type="application/ecmascript">
var viewWidth = 1683;
var viewHeight = 379;
var sectionId = 'dynsection-1';
</script>
<script type="application/ecmascript" xlink:href="svg.min.js"/>
<svg id="graph" class="graph">
<g id="viewport">
<title>/home/runner/work/no&#45;OS/no&#45;OS/drivers/digital&#45;io/max149x6/max149x6&#45;base.h</title>
<!-- Node1 -->
<g id="Node000001" class="node">
<title>Node1</title>
<g id="a_Node000001"><a xlink:title="Header file of MAX149X6 Base Driver.">
<polygon fill="#999999" stroke="#666666" points="1318,-371 1143,-371 1143,-330 1318,-330 1318,-371"/>
<text text-anchor="start" x="1151" y="-359" font-family="Helvetica,sans-Serif" font-size="10.00">/home/runner/work/no</text>
<text text-anchor="start" x="1151" y="-348" font-family="Helvetica,sans-Serif" font-size="10.00">&#45;OS/no&#45;OS/drivers/digital</text>
<text text-anchor="middle" x="1230.5" y="-337" font-family="Helvetica,sans-Serif" font-size="10.00">&#45;io/max149x6/max149x6&#45;base.h</text>
</a>
</g>
</g>
<!-- Node2 -->
<g id="Node000002" class="node">
<title>Node2</title>
<g id="a_Node000002"><a xlink:href="max14906_8h.html" target="_top" xlink:title="Header file of MAX14906 Driver.">
<polygon fill="white" stroke="#666666" points="611.5,-294 463.5,-294 463.5,-253 611.5,-253 611.5,-294"/>
<text text-anchor="start" x="471.5" y="-282" font-family="Helvetica,sans-Serif" font-size="10.00">/home/runner/work/no</text>
<text text-anchor="start" x="471.5" y="-271" font-family="Helvetica,sans-Serif" font-size="10.00">&#45;OS/no&#45;OS/drivers/digital</text>
<text text-anchor="middle" x="537.5" y="-260" font-family="Helvetica,sans-Serif" font-size="10.00">&#45;io/max149x6/max14906.h</text>
</a>
</g>
</g>
<!-- Node1&#45;&gt;Node2 -->
<g id="edge1_Node000001_Node000002" class="edge">
<title>Node1&#45;&gt;Node2</title>
<g id="a_edge1_Node000001_Node000002"><a xlink:title=" ">
<path fill="none" stroke="#63b8ff" d="M1132.42,-338.89C992.13,-323.7 737.29,-296.12 611.62,-282.52"/>
<polygon fill="#63b8ff" stroke="#63b8ff" points="1132.41,-342.4 1142.73,-340 1133.17,-335.45 1132.41,-342.4"/>
</a>
</g>
</g>
<!-- Node10 -->
<g id="Node000010" class="node">
<title>Node10</title>
<g id="a_Node000010"><a xlink:href="max14906_2src_2common_2common__data_8h.html" target="_top" xlink:title="Defines common data to be used by max14906 examples.">
<polygon fill="white" stroke="#666666" points="784,-211.5 621,-211.5 621,-170.5 784,-170.5 784,-211.5"/>
<text text-anchor="start" x="629" y="-199.5" font-family="Helvetica,sans-Serif" font-size="10.00">/home/runner/work/no</text>
<text text-anchor="start" x="629" y="-188.5" font-family="Helvetica,sans-Serif" font-size="10.00">&#45;OS/no&#45;OS/projects/max14906</text>
<text text-anchor="middle" x="702.5" y="-177.5" font-family="Helvetica,sans-Serif" font-size="10.00">/src/common/common_data.h</text>
</a>
</g>
</g>
<!-- Node1&#45;&gt;Node10 -->
<g id="edge27_Node000001_Node000010" class="edge">
<title>Node1&#45;&gt;Node10</title>
<g id="a_edge27_Node000001_Node000010"><a xlink:title=" ">
<path fill="none" stroke="#63b8ff" d="M1143.83,-327.36C1106.4,-317.55 1062.18,-305.61 1022.5,-294 930.58,-267.1 824.88,-232.73 760.93,-211.55"/>
<polygon fill="#63b8ff" stroke="#63b8ff" points="1143.14,-330.8 1153.7,-329.94 1144.91,-324.03 1143.14,-330.8"/>
</a>
</g>
</g>
<!-- Node12 -->
<g id="Node000012" class="node">
<title>Node12</title>
<g id="a_Node000012"><a xlink:href="max14906_2src_2examples_2basic_2basic__example_8c.html" target="_top" xlink:title="Source file for basic example.">
<polygon fill="white" stroke="#666666" points="965,-217 802,-217 802,-165 965,-165 965,-217"/>
<text text-anchor="start" x="810" y="-205" font-family="Helvetica,sans-Serif" font-size="10.00">/home/runner/work/no</text>
<text text-anchor="start" x="810" y="-194" font-family="Helvetica,sans-Serif" font-size="10.00">&#45;OS/no&#45;OS/projects/max14906</text>
<text text-anchor="start" x="810" y="-183" font-family="Helvetica,sans-Serif" font-size="10.00">/src/examples/basic/basic</text>
<text text-anchor="middle" x="883.5" y="-172" font-family="Helvetica,sans-Serif" font-size="10.00">_example.c</text>
</a>
</g>
</g>
<!-- Node1&#45;&gt;Node12 -->
<g id="edge28_Node000001_Node000012" class="edge">
<title>Node1&#45;&gt;Node12</title>
<g id="a_edge28_Node000001_Node000012"><a xlink:title=" ">
<path fill="none" stroke="#63b8ff" d="M1178.07,-325.7C1113.56,-296.42 1004.54,-246.94 938.76,-217.08"/>
<polygon fill="#63b8ff" stroke="#63b8ff" points="1176.7,-328.92 1187.25,-329.87 1179.59,-322.55 1176.7,-328.92"/>
</a>
</g>
</g>
<!-- Node15 -->
<g id="Node000015" class="node">
<title>Node15</title>
<g id="a_Node000015"><a xlink:href="max14916_8h.html" target="_top" xlink:title="Header file of MAX14916 Driver.">
<polygon fill="white" stroke="#666666" points="1304.5,-294 1156.5,-294 1156.5,-253 1304.5,-253 1304.5,-294"/>
<text text-anchor="start" x="1164.5" y="-282" font-family="Helvetica,sans-Serif" font-size="10.00">/home/runner/work/no</text>
<text text-anchor="start" x="1164.5" y="-271" font-family="Helvetica,sans-Serif" font-size="10.00">&#45;OS/no&#45;OS/drivers/digital</text>
<text text-anchor="middle" x="1230.5" y="-260" font-family="Helvetica,sans-Serif" font-size="10.00">&#45;io/max149x6/max14916.h</text>
</a>
</g>
</g>
<!-- Node1&#45;&gt;Node15 -->
<g id="edge18_Node000001_Node000015" class="edge">
<title>Node1&#45;&gt;Node15</title>
<g id="a_edge18_Node000001_Node000015"><a xlink:title=" ">
<path fill="none" stroke="#63b8ff" d="M1230.5,-319.69C1230.5,-311.08 1230.5,-301.9 1230.5,-294.07"/>
<polygon fill="#63b8ff" stroke="#63b8ff" points="1227,-319.79 1230.5,-329.79 1234,-319.79 1227,-319.79"/>
</a>
</g>
</g>
<!-- Node20 -->
<g id="Node000020" class="node">
<title>Node20</title>
<g id="a_Node000020"><a xlink:href="max14916_2src_2common_2common__data_8h.html" target="_top" xlink:title="Defines common data to be used by max14916 examples.">
<polygon fill="white" stroke="#666666" points="1494,-211.5 1331,-211.5 1331,-170.5 1494,-170.5 1494,-211.5"/>
<text text-anchor="start" x="1339" y="-199.5" font-family="Helvetica,sans-Serif" font-size="10.00">/home/runner/work/no</text>
<text text-anchor="start" x="1339" y="-188.5" font-family="Helvetica,sans-Serif" font-size="10.00">&#45;OS/no&#45;OS/projects/max14916</text>
<text text-anchor="middle" x="1412.5" y="-177.5" font-family="Helvetica,sans-Serif" font-size="10.00">/src/common/common_data.h</text>
</a>
</g>
</g>
<!-- Node1&#45;&gt;Node20 -->
<g id="edge29_Node000001_Node000020" class="edge">
<title>Node1&#45;&gt;Node20</title>
<g id="a_edge29_Node000001_Node000020"><a xlink:title=" ">
<path fill="none" stroke="#63b8ff" d="M1271.92,-324.27C1285.6,-315.3 1300.61,-304.74 1313.5,-294 1330.18,-280.1 1370.72,-237.1 1394.43,-211.58"/>
<polygon fill="#63b8ff" stroke="#63b8ff" points="1269.66,-321.56 1263.16,-329.92 1273.46,-327.44 1269.66,-321.56"/>
</a>
</g>
</g>
<!-- Node22 -->
<g id="Node000022" class="node">
<title>Node22</title>
<g id="a_Node000022"><a xlink:href="max14916_2src_2examples_2basic_2basic__example_8c.html" target="_top" xlink:title="Source file for basic example.">
<polygon fill="white" stroke="#666666" points="1675,-217 1512,-217 1512,-165 1675,-165 1675,-217"/>
<text text-anchor="start" x="1520" y="-205" font-family="Helvetica,sans-Serif" font-size="10.00">/home/runner/work/no</text>
<text text-anchor="start" x="1520" y="-194" font-family="Helvetica,sans-Serif" font-size="10.00">&#45;OS/no&#45;OS/projects/max14916</text>
<text text-anchor="start" x="1520" y="-183" font-family="Helvetica,sans-Serif" font-size="10.00">/src/examples/basic/basic</text>
<text text-anchor="middle" x="1593.5" y="-172" font-family="Helvetica,sans-Serif" font-size="10.00">_example.c</text>
</a>
</g>
</g>
<!-- Node1&#45;&gt;Node22 -->
<g id="edge30_Node000001_Node000022" class="edge">
<title>Node1&#45;&gt;Node22</title>
<g id="a_edge30_Node000001_Node000022"><a xlink:title=" ">
<path fill="none" stroke="#63b8ff" d="M1289.23,-325.77C1308.21,-316.98 1328.89,-306.15 1346.5,-294 1368.24,-279 1366.66,-266.26 1389.5,-253 1395.18,-249.7 1457.54,-231.23 1511.83,-215.47"/>
<polygon fill="#63b8ff" stroke="#63b8ff" points="1287.73,-322.61 1280.07,-329.93 1290.62,-328.99 1287.73,-322.61"/>
</a>
</g>
</g>
<!-- Node23 -->
<g id="Node000023" class="node">
<title>Node23</title>
<g id="a_Node000023"><a xlink:href="max149x6-base_8c.html" target="_top" xlink:title="Source file of MAX149X6 Base Driver.">
<polygon fill="white" stroke="#666666" points="1572.5,-294 1398.5,-294 1398.5,-253 1572.5,-253 1572.5,-294"/>
<text text-anchor="start" x="1406.5" y="-282" font-family="Helvetica,sans-Serif" font-size="10.00">/home/runner/work/no</text>
<text text-anchor="start" x="1406.5" y="-271" font-family="Helvetica,sans-Serif" font-size="10.00">&#45;OS/no&#45;OS/drivers/digital</text>
<text text-anchor="middle" x="1485.5" y="-260" font-family="Helvetica,sans-Serif" font-size="10.00">&#45;io/max149x6/max149x6&#45;base.c</text>
</a>
</g>
</g>
<!-- Node1&#45;&gt;Node23 -->
<g id="edge26_Node000001_Node000023" class="edge">
<title>Node1&#45;&gt;Node23</title>
<g id="a_edge26_Node000001_Node000023"><a xlink:title=" ">
<path fill="none" stroke="#63b8ff" d="M1306.73,-327.08C1342.46,-316.57 1384.64,-304.16 1419.06,-294.04"/>
<polygon fill="#63b8ff" stroke="#63b8ff" points="1305.44,-323.81 1296.83,-329.99 1307.41,-330.53 1305.44,-323.81"/>
</a>
</g>
</g>
<!-- Node3 -->
<g id="Node000003" class="node">
<title>Node3</title>
<g id="a_Node000003"><a xlink:href="iio__max14906_8c.html" target="_top" xlink:title="Source file of IIO MAX14906 Driver.">
<polygon fill="white" stroke="#666666" points="343.5,-123.5 179.5,-123.5 179.5,-82.5 343.5,-82.5 343.5,-123.5"/>
<text text-anchor="start" x="187.5" y="-111.5" font-family="Helvetica,sans-Serif" font-size="10.00">/home/runner/work/no</text>
<text text-anchor="start" x="187.5" y="-100.5" font-family="Helvetica,sans-Serif" font-size="10.00">&#45;OS/no&#45;OS/drivers/digital</text>
<text text-anchor="middle" x="261.5" y="-89.5" font-family="Helvetica,sans-Serif" font-size="10.00">&#45;io/max149x6/iio_max14906.c</text>
</a>
</g>
</g>
<!-- Node2&#45;&gt;Node3 -->
<g id="edge2_Node000002_Node000003" class="edge">
<title>Node2&#45;&gt;Node3</title>
<g id="a_edge2_Node000002_Node000003"><a xlink:title=" ">
<path fill="none" stroke="#63b8ff" d="M453.85,-250.48C431.62,-242.22 408.52,-231.25 389.5,-217 366.38,-199.68 371.36,-184.99 350.5,-165 334,-149.19 313.01,-134.59 295.56,-123.65"/>
<polygon fill="#63b8ff" stroke="#63b8ff" points="452.72,-253.79 463.31,-253.86 455.07,-247.2 452.72,-253.79"/>
</a>
</g>
</g>
<!-- Node4 -->
<g id="Node000004" class="node">
<title>Node4</title>
<g id="a_Node000004"><a xlink:href="iio__max14906_8h.html" target="_top" xlink:title="Header file of MAX14906 IIO Driver.">
<polygon fill="white" stroke="#666666" points="564,-211.5 399,-211.5 399,-170.5 564,-170.5 564,-211.5"/>
<text text-anchor="start" x="407" y="-199.5" font-family="Helvetica,sans-Serif" font-size="10.00">/home/runner/work/no</text>
<text text-anchor="start" x="407" y="-188.5" font-family="Helvetica,sans-Serif" font-size="10.00">&#45;OS/no&#45;OS/drivers/digital</text>
<text text-anchor="middle" x="481.5" y="-177.5" font-family="Helvetica,sans-Serif" font-size="10.00">&#45;io/max149x6/iio_max14906.h</text>
</a>
</g>
</g>
<!-- Node2&#45;&gt;Node4 -->
<g id="edge3_Node000002_Node000004" class="edge">
<title>Node2&#45;&gt;Node4</title>
<g id="a_edge3_Node000002_Node000004"><a xlink:title=" ">
<path fill="none" stroke="#63b8ff" d="M517.88,-244.3C510.39,-233.52 502.01,-221.48 495.18,-211.67"/>
<polygon fill="#63b8ff" stroke="#63b8ff" points="515.07,-246.39 523.66,-252.6 520.82,-242.39 515.07,-246.39"/>
</a>
</g>
</g>
<!-- Node7 -->
<g id="Node000007" class="node">
<title>Node7</title>
<g id="a_Node000007"><a xlink:href="swiot_8h.html" target="_top" xlink:title="Header file for the swiot IIO device.">
<polygon fill="white" stroke="#666666" points="765.5,-123.5 619.5,-123.5 619.5,-82.5 765.5,-82.5 765.5,-123.5"/>
<text text-anchor="start" x="627.5" y="-111.5" font-family="Helvetica,sans-Serif" font-size="10.00">/home/runner/work/no</text>
<text text-anchor="start" x="627.5" y="-100.5" font-family="Helvetica,sans-Serif" font-size="10.00">&#45;OS/no&#45;OS/projects/swiot1l</text>
<text text-anchor="middle" x="692.5" y="-89.5" font-family="Helvetica,sans-Serif" font-size="10.00">/src/common/swiot.h</text>
</a>
</g>
</g>
<!-- Node2&#45;&gt;Node7 -->
<g id="edge17_Node000002_Node000007" class="edge">
<title>Node2&#45;&gt;Node7</title>
<g id="a_edge17_Node000002_Node000007"><a xlink:title=" ">
<path fill="none" stroke="#63b8ff" d="M555.65,-243.97C573.21,-216.77 598.96,-178.08 611.5,-165 626.48,-149.37 645.77,-134.67 661.76,-123.63"/>
<polygon fill="#63b8ff" stroke="#63b8ff" points="552.5,-242.39 550.04,-252.7 558.39,-246.18 552.5,-242.39"/>
</a>
</g>
</g>
<!-- Node9 -->
<g id="Node000009" class="node">
<title>Node9</title>
<g id="a_Node000009"><a xlink:href="max14906_8c.html" target="_top" xlink:title="Source file of MAX14906 Driver.">
<polygon fill="white" stroke="#666666" points="163,-211.5 16,-211.5 16,-170.5 163,-170.5 163,-211.5"/>
<text text-anchor="start" x="24" y="-199.5" font-family="Helvetica,sans-Serif" font-size="10.00">/home/runner/work/no</text>
<text text-anchor="start" x="24" y="-188.5" font-family="Helvetica,sans-Serif" font-size="10.00">&#45;OS/no&#45;OS/drivers/digital</text>
<text text-anchor="middle" x="89.5" y="-177.5" font-family="Helvetica,sans-Serif" font-size="10.00">&#45;io/max149x6/max14906.c</text>
</a>
</g>
</g>
<!-- Node2&#45;&gt;Node9 -->
<g id="edge11_Node000002_Node000009" class="edge">
<title>Node2&#45;&gt;Node9</title>
<g id="a_edge11_Node000002_Node000009"><a xlink:title=" ">
<path fill="none" stroke="#63b8ff" d="M453.03,-263.23C378.42,-254.2 266.97,-238.67 171.5,-217 164.53,-215.42 157.3,-213.55 150.14,-211.56"/>
<polygon fill="#63b8ff" stroke="#63b8ff" points="452.96,-266.75 463.3,-264.46 453.79,-259.8 452.96,-266.75"/>
</a>
</g>
</g>
<!-- Node2&#45;&gt;Node10 -->
<g id="edge12_Node000002_Node000010" class="edge">
<title>Node2&#45;&gt;Node10</title>
<g id="a_edge12_Node000002_Node000010"><a xlink:title=" ">
<path fill="none" stroke="#63b8ff" d="M587.17,-248.27C611.18,-236.55 639.63,-222.67 662.27,-211.63"/>
<polygon fill="#63b8ff" stroke="#63b8ff" points="585.32,-245.28 577.86,-252.81 588.39,-251.57 585.32,-245.28"/>
</a>
</g>
</g>
<!-- Node2&#45;&gt;Node12 -->
<g id="edge14_Node000002_Node000012" class="edge">
<title>Node2&#45;&gt;Node12</title>
<g id="a_edge14_Node000002_Node000012"><a xlink:title=" ">
<path fill="none" stroke="#63b8ff" d="M621.75,-255.35C671.57,-244.92 735.8,-230.95 792.5,-217 795.52,-216.26 798.6,-215.49 801.7,-214.7"/>
<polygon fill="#63b8ff" stroke="#63b8ff" points="620.74,-251.99 611.67,-257.46 622.17,-258.84 620.74,-251.99"/>
</a>
</g>
</g>
<!-- Node13 -->
<g id="Node000013" class="node">
<title>Node13</title>
<g id="a_Node000013"><a xlink:href="swiot1l_2src_2common_2common__data_8h.html" target="_top" xlink:title="Defines common data to be used by the swiot1l project.">
<polygon fill="white" stroke="#666666" points="342,-211.5 181,-211.5 181,-170.5 342,-170.5 342,-211.5"/>
<text text-anchor="start" x="189" y="-199.5" font-family="Helvetica,sans-Serif" font-size="10.00">/home/runner/work/no</text>
<text text-anchor="start" x="189" y="-188.5" font-family="Helvetica,sans-Serif" font-size="10.00">&#45;OS/no&#45;OS/projects/swiot1l</text>
<text text-anchor="middle" x="261.5" y="-177.5" font-family="Helvetica,sans-Serif" font-size="10.00">/src/common/common_data.h</text>
</a>
</g>
</g>
<!-- Node2&#45;&gt;Node13 -->
<g id="edge15_Node000002_Node000013" class="edge">
<title>Node2&#45;&gt;Node13</title>
<g id="a_edge15_Node000002_Node000013"><a xlink:title=" ">
<path fill="none" stroke="#63b8ff" d="M460.54,-250.05C419.05,-237.95 368.34,-223.16 328.49,-211.54"/>
<polygon fill="#63b8ff" stroke="#63b8ff" points="459.76,-253.47 470.34,-252.91 461.72,-246.75 459.76,-253.47"/>
</a>
</g>
</g>
<!-- Node4&#45;&gt;Node3 -->
<g id="edge4_Node000004_Node000003" class="edge">
<title>Node4&#45;&gt;Node3</title>
<g id="a_edge4_Node000004_Node000003"><a xlink:title=" ">
<path fill="none" stroke="#63b8ff" d="M422.07,-166.77C387.51,-153.26 344.44,-136.42 311.6,-123.59"/>
<polygon fill="#63b8ff" stroke="#63b8ff" points="420.99,-170.1 431.58,-170.49 423.54,-163.58 420.99,-170.1"/>
</a>
</g>
</g>
<!-- Node5 -->
<g id="Node000005" class="node">
<title>Node5</title>
<g id="a_Node000005"><a xlink:href="max14906_2src_2examples_2iio__example_2iio__example_8c.html" target="_top" xlink:title="Source file for iio example.">
<polygon fill="white" stroke="#666666" points="563,-129 400,-129 400,-77 563,-77 563,-129"/>
<text text-anchor="start" x="408" y="-117" font-family="Helvetica,sans-Serif" font-size="10.00">/home/runner/work/no</text>
<text text-anchor="start" x="408" y="-106" font-family="Helvetica,sans-Serif" font-size="10.00">&#45;OS/no&#45;OS/projects/max14906</text>
<text text-anchor="start" x="408" y="-95" font-family="Helvetica,sans-Serif" font-size="10.00">/src/examples/iio_example</text>
<text text-anchor="middle" x="481.5" y="-84" font-family="Helvetica,sans-Serif" font-size="10.00">/iio_example.c</text>
</a>
</g>
</g>
<!-- Node4&#45;&gt;Node5 -->
<g id="edge5_Node000004_Node000005" class="edge">
<title>Node4&#45;&gt;Node5</title>
<g id="a_edge5_Node000004_Node000005"><a xlink:title=" ">
<path fill="none" stroke="#63b8ff" d="M481.5,-160.44C481.5,-150.31 481.5,-139.08 481.5,-129.32"/>
<polygon fill="#63b8ff" stroke="#63b8ff" points="478,-160.49 481.5,-170.49 485,-160.49 478,-160.49"/>
</a>
</g>
</g>
<!-- Node6 -->
<g id="Node000006" class="node">
<title>Node6</title>
<g id="a_Node000006"><a xlink:href="swiot_8c.html" target="_top" xlink:title="Source file for the swiot IIO driver.">
<polygon fill="white" stroke="#666666" points="522.5,-41 376.5,-41 376.5,0 522.5,0 522.5,-41"/>
<text text-anchor="start" x="384.5" y="-29" font-family="Helvetica,sans-Serif" font-size="10.00">/home/runner/work/no</text>
<text text-anchor="start" x="384.5" y="-18" font-family="Helvetica,sans-Serif" font-size="10.00">&#45;OS/no&#45;OS/projects/swiot1l</text>
<text text-anchor="middle" x="449.5" y="-7" font-family="Helvetica,sans-Serif" font-size="10.00">/src/common/swiot.c</text>
</a>
</g>
</g>
<!-- Node4&#45;&gt;Node6 -->
<g id="edge6_Node000004_Node000006" class="edge">
<title>Node4&#45;&gt;Node6</title>
<g id="a_edge6_Node000004_Node000006"><a xlink:title=" ">
<path fill="none" stroke="#63b8ff" d="M425.84,-164.94C411.78,-155.75 398.43,-143.87 390.5,-129 379.62,-108.61 381.33,-98.21 390.5,-77 396.64,-62.8 408.39,-50.56 419.81,-41.21"/>
<polygon fill="#63b8ff" stroke="#63b8ff" points="424.28,-168.09 434.64,-170.31 427.93,-162.11 424.28,-168.09"/>
</a>
</g>
</g>
<!-- Node4&#45;&gt;Node7 -->
<g id="edge7_Node000004_Node000007" class="edge">
<title>Node4&#45;&gt;Node7</title>
<g id="a_edge7_Node000004_Node000007"><a xlink:title=" ">
<path fill="none" stroke="#63b8ff" d="M538.92,-166.6C572,-153.12 613.09,-136.37 644.45,-123.59"/>
<polygon fill="#63b8ff" stroke="#63b8ff" points="537.32,-163.47 529.38,-170.49 539.96,-169.95 537.32,-163.47"/>
</a>
</g>
</g>
<!-- Node8 -->
<g id="Node000008" class="node">
<title>Node8</title>
<g id="a_Node000008"><a xlink:href="swiot__fw_8c.html" target="_top" xlink:title="Main project file for the swiot1l project.">
<polygon fill="white" stroke="#666666" points="714.5,-41 568.5,-41 568.5,0 714.5,0 714.5,-41"/>
<text text-anchor="start" x="576.5" y="-29" font-family="Helvetica,sans-Serif" font-size="10.00">/home/runner/work/no</text>
<text text-anchor="start" x="576.5" y="-18" font-family="Helvetica,sans-Serif" font-size="10.00">&#45;OS/no&#45;OS/projects/swiot1l</text>
<text text-anchor="middle" x="641.5" y="-7" font-family="Helvetica,sans-Serif" font-size="10.00">/src/swiot_fw.c</text>
</a>
</g>
</g>
<!-- Node4&#45;&gt;Node8 -->
<g id="edge10_Node000004_Node000008" class="edge">
<title>Node4&#45;&gt;Node8</title>
<g id="a_edge10_Node000004_Node000008"><a xlink:title=" ">
<path fill="none" stroke="#63b8ff" d="M526.16,-164.75C541.55,-154.8 558.24,-142.51 571.5,-129 585.39,-114.86 613.8,-68.41 629.83,-41.42"/>
<polygon fill="#63b8ff" stroke="#63b8ff" points="523.88,-162.05 517.28,-170.33 527.61,-167.97 523.88,-162.05"/>
</a>
</g>
</g>
<!-- Node7&#45;&gt;Node6 -->
<g id="edge8_Node000007_Node000006" class="edge">
<title>Node7&#45;&gt;Node6</title>
<g id="a_edge8_Node000007_Node000006"><a xlink:title=" ">
<path fill="none" stroke="#63b8ff" d="M623.82,-79.25C587.46,-67.2 543.27,-52.56 508.48,-41.04"/>
<polygon fill="#63b8ff" stroke="#63b8ff" points="622.77,-82.59 633.37,-82.41 624.97,-75.94 622.77,-82.59"/>
</a>
</g>
</g>
<!-- Node7&#45;&gt;Node8 -->
<g id="edge9_Node000007_Node000008" class="edge">
<title>Node7&#45;&gt;Node8</title>
<g id="a_edge9_Node000007_Node000008"><a xlink:title=" ">
<path fill="none" stroke="#63b8ff" d="M674.43,-73.48C667.66,-62.79 660.12,-50.88 653.96,-41.17"/>
<polygon fill="#63b8ff" stroke="#63b8ff" points="671.58,-75.53 679.89,-82.1 677.5,-71.78 671.58,-75.53"/>
</a>
</g>
</g>
<!-- Node11 -->
<g id="Node000011" class="node">
<title>Node11</title>
<g id="a_Node000011"><a xlink:href="max14906_2src_2common_2common__data_8c.html" target="_top" xlink:title="Defines common data to be used by max14906 examples.">
<polygon fill="white" stroke="#666666" points="947,-123.5 784,-123.5 784,-82.5 947,-82.5 947,-123.5"/>
<text text-anchor="start" x="792" y="-111.5" font-family="Helvetica,sans-Serif" font-size="10.00">/home/runner/work/no</text>
<text text-anchor="start" x="792" y="-100.5" font-family="Helvetica,sans-Serif" font-size="10.00">&#45;OS/no&#45;OS/projects/max14906</text>
<text text-anchor="middle" x="865.5" y="-89.5" font-family="Helvetica,sans-Serif" font-size="10.00">/src/common/common_data.c</text>
</a>
</g>
</g>
<!-- Node10&#45;&gt;Node11 -->
<g id="edge13_Node000010_Node000011" class="edge">
<title>Node10&#45;&gt;Node11</title>
<g id="a_edge13_Node000010_Node000011"><a xlink:title=" ">
<path fill="none" stroke="#63b8ff" d="M748.51,-165.72C773.77,-152.4 804.68,-136.09 828.38,-123.59"/>
<polygon fill="#63b8ff" stroke="#63b8ff" points="746.7,-162.72 739.49,-170.49 749.96,-168.91 746.7,-162.72"/>
</a>
</g>
</g>
<!-- Node14 -->
<g id="Node000014" class="node">
<title>Node14</title>
<g id="a_Node000014"><a xlink:href="swiot1l_2src_2common_2common__data_8c.html" target="_top" xlink:title="Defines common data to be used by the SWIOT1L firmware.">
<polygon fill="white" stroke="#666666" points="161,-123.5 0,-123.5 0,-82.5 161,-82.5 161,-123.5"/>
<text text-anchor="start" x="8" y="-111.5" font-family="Helvetica,sans-Serif" font-size="10.00">/home/runner/work/no</text>
<text text-anchor="start" x="8" y="-100.5" font-family="Helvetica,sans-Serif" font-size="10.00">&#45;OS/no&#45;OS/projects/swiot1l</text>
<text text-anchor="middle" x="80.5" y="-89.5" font-family="Helvetica,sans-Serif" font-size="10.00">/src/common/common_data.c</text>
</a>
</g>
</g>
<!-- Node13&#45;&gt;Node14 -->
<g id="edge16_Node000013_Node000014" class="edge">
<title>Node13&#45;&gt;Node14</title>
<g id="a_edge16_Node000013_Node000014"><a xlink:title=" ">
<path fill="none" stroke="#63b8ff" d="M211.14,-166.07C182.96,-152.68 148.27,-136.2 121.72,-123.59"/>
<polygon fill="#63b8ff" stroke="#63b8ff" points="209.89,-169.35 220.43,-170.49 212.9,-163.03 209.89,-169.35"/>
</a>
</g>
</g>
<!-- Node16 -->
<g id="Node000016" class="node">
<title>Node16</title>
<g id="a_Node000016"><a xlink:href="iio__max14916_8h.html" target="_top" xlink:title="Header file of IIO MAX14916 Driver.">
<polygon fill="white" stroke="#666666" points="1313,-211.5 1148,-211.5 1148,-170.5 1313,-170.5 1313,-211.5"/>
<text text-anchor="start" x="1156" y="-199.5" font-family="Helvetica,sans-Serif" font-size="10.00">/home/runner/work/no</text>
<text text-anchor="start" x="1156" y="-188.5" font-family="Helvetica,sans-Serif" font-size="10.00">&#45;OS/no&#45;OS/drivers/digital</text>
<text text-anchor="middle" x="1230.5" y="-177.5" font-family="Helvetica,sans-Serif" font-size="10.00">&#45;io/max149x6/iio_max14916.h</text>
</a>
</g>
</g>
<!-- Node15&#45;&gt;Node16 -->
<g id="edge19_Node000015_Node000016" class="edge">
<title>Node15&#45;&gt;Node16</title>
<g id="a_edge19_Node000015_Node000016"><a xlink:title=" ">
<path fill="none" stroke="#63b8ff" d="M1230.5,-242.37C1230.5,-232.1 1230.5,-220.9 1230.5,-211.67"/>
<polygon fill="#63b8ff" stroke="#63b8ff" points="1227,-242.6 1230.5,-252.6 1234,-242.6 1227,-242.6"/>
</a>
</g>
</g>
<!-- Node19 -->
<g id="Node000019" class="node">
<title>Node19</title>
<g id="a_Node000019"><a xlink:href="max14916_8c.html" target="_top" xlink:title="Source file of MAX14916 Driver.">
<polygon fill="white" stroke="#666666" points="1130,-211.5 983,-211.5 983,-170.5 1130,-170.5 1130,-211.5"/>
<text text-anchor="start" x="991" y="-199.5" font-family="Helvetica,sans-Serif" font-size="10.00">/home/runner/work/no</text>
<text text-anchor="start" x="991" y="-188.5" font-family="Helvetica,sans-Serif" font-size="10.00">&#45;OS/no&#45;OS/drivers/digital</text>
<text text-anchor="middle" x="1056.5" y="-177.5" font-family="Helvetica,sans-Serif" font-size="10.00">&#45;io/max149x6/max14916.c</text>
</a>
</g>
</g>
<!-- Node15&#45;&gt;Node19 -->
<g id="edge22_Node000015_Node000019" class="edge">
<title>Node15&#45;&gt;Node19</title>
<g id="a_edge22_Node000015_Node000019"><a xlink:title=" ">
<path fill="none" stroke="#63b8ff" d="M1178.79,-248.58C1153.33,-236.8 1123.01,-222.77 1098.93,-211.63"/>
<polygon fill="#63b8ff" stroke="#63b8ff" points="1177.39,-251.79 1187.93,-252.81 1180.33,-245.43 1177.39,-251.79"/>
</a>
</g>
</g>
<!-- Node15&#45;&gt;Node20 -->
<g id="edge23_Node000015_Node000020" class="edge">
<title>Node15&#45;&gt;Node20</title>
<g id="a_edge23_Node000015_Node000020"><a xlink:title=" ">
<path fill="none" stroke="#63b8ff" d="M1284.23,-248.73C1310.94,-236.92 1342.82,-222.82 1368.12,-211.63"/>
<polygon fill="#63b8ff" stroke="#63b8ff" points="1282.75,-245.56 1275.02,-252.81 1285.58,-251.96 1282.75,-245.56"/>
</a>
</g>
</g>
<!-- Node15&#45;&gt;Node22 -->
<g id="edge25_Node000015_Node000022" class="edge">
<title>Node15&#45;&gt;Node22</title>
<g id="a_edge25_Node000015_Node000022"><a xlink:title=" ">
<path fill="none" stroke="#63b8ff" d="M1314.58,-256.99C1368.73,-246.62 1440.52,-232.13 1503.5,-217 1506.18,-216.36 1508.9,-215.69 1511.65,-215"/>
<polygon fill="#63b8ff" stroke="#63b8ff" points="1313.84,-253.57 1304.68,-258.88 1315.16,-260.45 1313.84,-253.57"/>
</a>
</g>
</g>
<!-- Node17 -->
<g id="Node000017" class="node">
<title>Node17</title>
<g id="a_Node000017"><a xlink:href="iio__max14916_8c.html" target="_top" xlink:title="Source file of IIO MAX14916 Driver.">
<polygon fill="white" stroke="#666666" points="1131.5,-123.5 967.5,-123.5 967.5,-82.5 1131.5,-82.5 1131.5,-123.5"/>
<text text-anchor="start" x="975.5" y="-111.5" font-family="Helvetica,sans-Serif" font-size="10.00">/home/runner/work/no</text>
<text text-anchor="start" x="975.5" y="-100.5" font-family="Helvetica,sans-Serif" font-size="10.00">&#45;OS/no&#45;OS/drivers/digital</text>
<text text-anchor="middle" x="1049.5" y="-89.5" font-family="Helvetica,sans-Serif" font-size="10.00">&#45;io/max149x6/iio_max14916.c</text>
</a>
</g>
</g>
<!-- Node16&#45;&gt;Node17 -->
<g id="edge20_Node000016_Node000017" class="edge">
<title>Node16&#45;&gt;Node17</title>
<g id="a_edge20_Node000016_Node000017"><a xlink:title=" ">
<path fill="none" stroke="#63b8ff" d="M1180.14,-166.07C1151.96,-152.68 1117.27,-136.2 1090.72,-123.59"/>
<polygon fill="#63b8ff" stroke="#63b8ff" points="1178.89,-169.35 1189.43,-170.49 1181.9,-163.03 1178.89,-169.35"/>
</a>
</g>
</g>
<!-- Node18 -->
<g id="Node000018" class="node">
<title>Node18</title>
<g id="a_Node000018"><a xlink:href="max14916_2src_2examples_2iio__example_2iio__example_8c.html" target="_top" xlink:title="Source file for iio example.">
<polygon fill="white" stroke="#666666" points="1313,-129 1150,-129 1150,-77 1313,-77 1313,-129"/>
<text text-anchor="start" x="1158" y="-117" font-family="Helvetica,sans-Serif" font-size="10.00">/home/runner/work/no</text>
<text text-anchor="start" x="1158" y="-106" font-family="Helvetica,sans-Serif" font-size="10.00">&#45;OS/no&#45;OS/projects/max14916</text>
<text text-anchor="start" x="1158" y="-95" font-family="Helvetica,sans-Serif" font-size="10.00">/src/examples/iio_example</text>
<text text-anchor="middle" x="1231.5" y="-84" font-family="Helvetica,sans-Serif" font-size="10.00">/iio_example.c</text>
</a>
</g>
</g>
<!-- Node16&#45;&gt;Node18 -->
<g id="edge21_Node000016_Node000018" class="edge">
<title>Node16&#45;&gt;Node18</title>
<g id="a_edge21_Node000016_Node000018"><a xlink:title=" ">
<path fill="none" stroke="#63b8ff" d="M1230.84,-160.44C1230.96,-150.31 1231.09,-139.08 1231.21,-129.32"/>
<polygon fill="#63b8ff" stroke="#63b8ff" points="1227.34,-160.45 1230.73,-170.49 1234.34,-160.53 1227.34,-160.45"/>
</a>
</g>
</g>
<!-- Node21 -->
<g id="Node000021" class="node">
<title>Node21</title>
<g id="a_Node000021"><a xlink:href="max14916_2src_2common_2common__data_8c.html" target="_top" xlink:title="Defines common data to be used by max14916 examples.">
<polygon fill="white" stroke="#666666" points="1494,-123.5 1331,-123.5 1331,-82.5 1494,-82.5 1494,-123.5"/>
<text text-anchor="start" x="1339" y="-111.5" font-family="Helvetica,sans-Serif" font-size="10.00">/home/runner/work/no</text>
<text text-anchor="start" x="1339" y="-100.5" font-family="Helvetica,sans-Serif" font-size="10.00">&#45;OS/no&#45;OS/projects/max14916</text>
<text text-anchor="middle" x="1412.5" y="-89.5" font-family="Helvetica,sans-Serif" font-size="10.00">/src/common/common_data.c</text>
</a>
</g>
</g>
<!-- Node20&#45;&gt;Node21 -->
<g id="edge24_Node000020_Node000021" class="edge">
<title>Node20&#45;&gt;Node21</title>
<g id="a_edge24_Node000020_Node000021"><a xlink:title=" ">
<path fill="none" stroke="#63b8ff" d="M1412.5,-160.36C1412.5,-148.26 1412.5,-134.58 1412.5,-123.74"/>
<polygon fill="#63b8ff" stroke="#63b8ff" points="1409,-160.49 1412.5,-170.49 1416,-160.49 1409,-160.49"/>
</a>
</g>
</g>
</g>
</svg>

<g id="navigator" transform="translate(0 0)" fill="#404254">
  <rect fill="#f2f5e9" fill-opacity="0.5" stroke="#606060" stroke-width=".5" x="0" y="0" width="60" height="60"/>
  <use id="zoomplus" xlink:href="#zoomPlus" x="17" y="9" onmousedown="handleZoom(evt,'in')"/>
  <use id="zoomminus" xlink:href="#zoomMin" x="42" y="9" onmousedown="handleZoom(evt,'out')"/>
  <use id="reset" xlink:href="#resetDef" x="30" y="36" onmousedown="handleReset()"/>
   <use id="arrowup" xlink:href="#arrowUp" x="0" y="0" onmousedown="handlePan(0,-1)"/>
  <use id="arrowright" xlink:href="#arrowRight" x="0" y="0" onmousedown="handlePan(1,0)"/>
  <use id="arrowdown" xlink:href="#arrowDown" x="0" y="0" onmousedown="handlePan(0,1)"/>
  <use id="arrowleft" xlink:href="#arrowLeft" x="0" y="0" onmousedown="handlePan(-1,0)"/>
</g>
<svg viewBox="0 0 15 15" width="100%" height="30px" preserveAspectRatio="xMaxYMin meet">
 <g id="arrow_out" transform="scale(0.3 0.3)">
  <a xlink:href="max149x6-base_8h__dep__incl_org.svg" target="_base">
   <rect id="button" ry="5" rx="5" y="6" x="6" height="38" width="38"
        fill="#f2f5e9" fill-opacity="0.5" stroke="#606060" stroke-width="1.0"/>
   <path id="arrow"
     d="M 11.500037,31.436501 C 11.940474,20.09759 22.043105,11.32322 32.158766,21.979434 L 37.068811,17.246167 C 37.068811,17.246167 37.088388,32 37.088388,32 L 22.160133,31.978069 C 22.160133,31.978069 26.997745,27.140456 26.997745,27.140456 C 18.528582,18.264221 13.291696,25.230495 11.500037,31.436501 z"
     style="fill:#404040;"/>
  </a>
 </g>
</svg>

<style type='text/css'>
<![CDATA[
[data-mouse-over-selected='false'] { opacity: 0.7; }
[data-mouse-over-selected='true']  { opacity: 1.0; }
]]>
</style>
<script type="application/ecmascript"><![CDATA[
document.addEventListener('DOMContentLoaded', (event) => {
  highlightEdges();
  highlightAdjacentNodes();
});
]]></script>
</svg>
