<?xml version="1.0" encoding="UTF-8" standalone="no"?>
<!DOCTYPE svg PUBLIC "-//W3C//DTD SVG 1.1//EN"
 "http://www.w3.org/Graphics/SVG/1.1/DTD/svg11.dtd">
<!-- Generated by graphviz version 2.43.0 (0)
 -->
<!-- Title: max17616_read_byte Pages: 1 -->
<!--zoomable 628 -->

<svg id="main" version="1.1" xmlns="http://www.w3.org/2000/svg" xmlns:xlink="http://www.w3.org/1999/xlink" xml:space="preserve" onload="init(evt)">

<style type="text/css"><![CDATA[
.node, .edge {opacity: 0.7;}
.node.selected, .edge.selected {opacity: 1;}
.edge:hover path { stroke: red; }
.edge:hover polygon { stroke: red; fill: red; }
]]></style>

<defs>
  <circle id="rim" cx="0" cy="0" r="7"/>
  <circle id="rim2" cx="0" cy="0" r="3.5"/>
  <g id="zoomPlus">
    <use xlink:href="#rim" fill="#404040"><set attributeName="fill" to="#808080" begin="zoomplus.mouseover" end="zoomplus.mouseout"/></use>
    <path d="M-4,0h8M0,-4v8" fill="none" stroke="white" stroke-width="1.5" pointer-events="none"/>
  </g>
  <g id="zoomMin">
    <use xlink:href="#rim" fill="#404040"><set attributeName="fill" to="#808080" begin="zoomminus.mouseover" end="zoomminus.mouseout"/></use>
    <path d="M-4,0h8" fill="none" stroke="white" stroke-width="1.5" pointer-events="none"/>
  </g>
  <g id="arrowUp" transform="translate(30 24)">
    <use xlink:href="#rim"/>
    <path pointer-events="none" fill="none" stroke="white" stroke-width="1.5" d="M0,-3.0v7 M-2.5,-0.5L0,-3.0L2.5,-0.5"/>
  </g>
  <g id="arrowRight" transform="rotate(90) translate(36 -43)">
    <use xlink:href="#rim"/>
    <path pointer-events="none" fill="none" stroke="white" stroke-width="1.5" d="M0,-3.0v7 M-2.5,-0.5L0,-3.0L2.5,-0.5"/>
  </g>
  <g id="arrowDown" transform="rotate(180) translate(-30 -48)">
    <use xlink:href="#rim"/>
    <path pointer-events="none" fill="none" stroke="white" stroke-width="1.5" d="M0,-3.0v7 M-2.5,-0.5L0,-3.0L2.5,-0.5"/>
  </g>
  <g id="arrowLeft" transform="rotate(270) translate(-36 17)">
    <use xlink:href="#rim"/>
    <path pointer-events="none" fill="none" stroke="white" stroke-width="1.5" d="M0,-3.0v7 M-2.5,-0.5L0,-3.0L2.5,-0.5"/>
  </g>
  <g id="resetDef">
    <use xlink:href="#rim2" fill="#404040"><set attributeName="fill" to="#808080" begin="reset.mouseover" end="reset.mouseout"/></use>
  </g>
</defs>
<script type="application/ecmascript">
var viewWidth = 717;
var viewHeight = 628;
var sectionId = 'dynsection-11';
</script>
<script type="application/ecmascript" xlink:href="svg.min.js"/>
<svg id="graph" class="graph">
<g id="viewport">
<title>max17616_read_byte</title>
<!-- Node1 -->
<g id="Node000001" class="node">
<title>Node1</title>
<g id="a_Node000001"><a xlink:title="Perform a raw PMBus read byte operation.">
<polygon fill="#999999" stroke="#666666" points="709,-293 587,-293 587,-274 709,-274 709,-293"/>
<text text-anchor="middle" x="648" y="-281" font-family="Helvetica,sans-Serif" font-size="10.00">max17616_read_byte</text>
</a>
</g>
</g>
<!-- Node2 -->
<g id="Node000002" class="node">
<title>Node2</title>
<g id="a_Node000002"><a xlink:href="max17616_8c.html#acb8b668c31852dabf24cf62f07f58b3c" target="_top" xlink:title="Get current limit mode.">
<polygon fill="white" stroke="#666666" points="536.5,-587.5 407.5,-587.5 407.5,-557.5 536.5,-557.5 536.5,-587.5"/>
<text text-anchor="start" x="415.5" y="-575.5" font-family="Helvetica,sans-Serif" font-size="10.00">max17616_get_current</text>
<text text-anchor="middle" x="472" y="-564.5" font-family="Helvetica,sans-Serif" font-size="10.00">_limit_mode</text>
</a>
</g>
</g>
<!-- Node1&#45;&gt;Node2 -->
<g id="edge1_Node000001_Node000002" class="edge">
<title>Node1&#45;&gt;Node2</title>
<g id="a_edge1_Node000001_Node000002"><a xlink:title=" ">
<path fill="none" stroke="#63b8ff" d="M644.42,-303.43C637.48,-349.59 614.45,-465.2 551,-534.5 542.15,-544.17 530.31,-551.65 518.53,-557.32"/>
<polygon fill="#63b8ff" stroke="#63b8ff" points="647.89,-303.88 645.82,-293.49 640.96,-302.9 647.89,-303.88"/>
</a>
</g>
</g>
<!-- Node5 -->
<g id="Node000005" class="node">
<title>Node5</title>
<g id="a_Node000005"><a xlink:href="max17616_8c.html#a16dc1be92e53aba04a32d85efa55a489" target="_top" xlink:title="Get current start ratio.">
<polygon fill="white" stroke="#666666" points="341.5,-496.5 221.5,-496.5 221.5,-466.5 341.5,-466.5 341.5,-496.5"/>
<text text-anchor="start" x="229.5" y="-484.5" font-family="Helvetica,sans-Serif" font-size="10.00">max17616_get_istart</text>
<text text-anchor="middle" x="281.5" y="-473.5" font-family="Helvetica,sans-Serif" font-size="10.00">_ratio</text>
</a>
</g>
</g>
<!-- Node1&#45;&gt;Node5 -->
<g id="edge4_Node000001_Node000005" class="edge">
<title>Node1&#45;&gt;Node5</title>
<g id="a_edge4_Node000001_Node000005"><a xlink:title=" ">
<path fill="none" stroke="#63b8ff" d="M639.48,-302.89C626.42,-333.82 596.53,-393.94 551,-424.5 487.99,-466.79 399.47,-478.52 341.56,-481.35"/>
<polygon fill="#63b8ff" stroke="#63b8ff" points="642.87,-303.85 643.39,-293.26 636.38,-301.21 642.87,-303.85"/>
</a>
</g>
</g>
<!-- Node6 -->
<g id="Node000006" class="node">
<title>Node6</title>
<g id="a_Node000006"><a xlink:href="max17616_8c.html#a867c766541a9d963598202b986803c84" target="_top" xlink:title="Get device operation state.">
<polygon fill="white" stroke="#666666" points="352,-86.5 211,-86.5 211,-56.5 352,-56.5 352,-86.5"/>
<text text-anchor="start" x="219" y="-74.5" font-family="Helvetica,sans-Serif" font-size="10.00">max17616_get_operation</text>
<text text-anchor="middle" x="281.5" y="-63.5" font-family="Helvetica,sans-Serif" font-size="10.00">_state</text>
</a>
</g>
</g>
<!-- Node1&#45;&gt;Node6 -->
<g id="edge6_Node000001_Node000006" class="edge">
<title>Node1&#45;&gt;Node6</title>
<g id="a_edge6_Node000001_Node000006"><a xlink:title=" ">
<path fill="none" stroke="#63b8ff" d="M642.75,-263.81C633.44,-225.9 607.41,-143.12 551,-104.5 492.68,-64.57 410.13,-60.18 352,-63.35"/>
<polygon fill="#63b8ff" stroke="#63b8ff" points="639.36,-264.69 645.03,-273.64 646.18,-263.11 639.36,-264.69"/>
</a>
</g>
</g>
<!-- Node8 -->
<g id="Node000008" class="node">
<title>Node8</title>
<g id="a_Node000008"><a xlink:href="max17616_8c.html#af587f8f0bad08d7c21873f3e5cbd67d9" target="_top" xlink:title="Get the short&#45;term overcurrent limit ratio.">
<polygon fill="white" stroke="#666666" points="357,-448.5 206,-448.5 206,-418.5 357,-418.5 357,-448.5"/>
<text text-anchor="start" x="214" y="-436.5" font-family="Helvetica,sans-Serif" font-size="10.00">max17616_get_overcurrent</text>
<text text-anchor="middle" x="281.5" y="-425.5" font-family="Helvetica,sans-Serif" font-size="10.00">_limit</text>
</a>
</g>
</g>
<!-- Node1&#45;&gt;Node8 -->
<g id="edge8_Node000001_Node000008" class="edge">
<title>Node1&#45;&gt;Node8</title>
<g id="a_edge8_Node000001_Node000008"><a xlink:title=" ">
<path fill="none" stroke="#63b8ff" d="M636.13,-301.73C620.56,-326.07 589.5,-368.54 551,-389.5 491.16,-422.09 413.51,-431.92 357.11,-434.3"/>
<polygon fill="#63b8ff" stroke="#63b8ff" points="639.19,-303.43 641.49,-293.09 633.24,-299.74 639.19,-303.43"/>
</a>
</g>
</g>
<!-- Node9 -->
<g id="Node000009" class="node">
<title>Node9</title>
<g id="a_Node000009"><a xlink:href="max17616_8c.html#a6134ce51723ef2c58e45885f962b8dd7" target="_top" xlink:title="Get short&#45;term overcurrent duration.">
<polygon fill="white" stroke="#666666" points="357,-400.5 206,-400.5 206,-370.5 357,-370.5 357,-400.5"/>
<text text-anchor="start" x="214" y="-388.5" font-family="Helvetica,sans-Serif" font-size="10.00">max17616_get_overcurrent</text>
<text text-anchor="middle" x="281.5" y="-377.5" font-family="Helvetica,sans-Serif" font-size="10.00">_timeout</text>
</a>
</g>
</g>
<!-- Node1&#45;&gt;Node9 -->
<g id="edge10_Node000001_Node000009" class="edge">
<title>Node1&#45;&gt;Node9</title>
<g id="a_edge10_Node000001_Node000009"><a xlink:title=" ">
<path fill="none" stroke="#63b8ff" d="M631.55,-300.84C614.03,-319.19 583.63,-347.3 551,-360.5 489.05,-385.56 412.7,-390.45 357.27,-389.87"/>
<polygon fill="#63b8ff" stroke="#63b8ff" points="634.42,-302.89 638.65,-293.18 629.28,-298.13 634.42,-302.89"/>
</a>
</g>
</g>
<!-- Node10 -->
<g id="Node000010" class="node">
<title>Node10</title>
<g id="a_Node000010"><a xlink:href="max17616_8c.html#ae8652ec4077c1278cc6a67f96758b3ea" target="_top" xlink:title="Get VOUT UV fault limit configuration using enums.">
<polygon fill="white" stroke="#666666" points="348.5,-544.5 214.5,-544.5 214.5,-514.5 348.5,-514.5 348.5,-544.5"/>
<text text-anchor="start" x="222.5" y="-532.5" font-family="Helvetica,sans-Serif" font-size="10.00">max17616_get_vout_uv</text>
<text text-anchor="middle" x="281.5" y="-521.5" font-family="Helvetica,sans-Serif" font-size="10.00">_fault_limit_config</text>
</a>
</g>
</g>
<!-- Node1&#45;&gt;Node10 -->
<g id="edge12_Node000001_Node000010" class="edge">
<title>Node1&#45;&gt;Node10</title>
<g id="a_edge12_Node000001_Node000010"><a xlink:title=" ">
<path fill="none" stroke="#63b8ff" d="M642.23,-303.2C632.13,-340.51 604.97,-421.53 551,-463.5 492.64,-508.88 407.33,-523.54 348.62,-528.03"/>
<polygon fill="#63b8ff" stroke="#63b8ff" points="645.72,-303.67 644.82,-293.11 638.94,-301.92 645.72,-303.67"/>
</a>
</g>
</g>
<!-- Node11 -->
<g id="Node000011" class="node">
<title>Node11</title>
<g id="a_Node000011"><a xlink:href="max17616_8c.html#a92fffc8181184e9c091c2018c150dd14" target="_top" xlink:title="Read device capability register.">
<polygon fill="white" stroke="#666666" points="356,-38 207,-38 207,-19 356,-19 356,-38"/>
<text text-anchor="middle" x="281.5" y="-26" font-family="Helvetica,sans-Serif" font-size="10.00">max17616_read_capability</text>
</a>
</g>
</g>
<!-- Node1&#45;&gt;Node11 -->
<g id="edge14_Node000001_Node000011" class="edge">
<title>Node1&#45;&gt;Node11</title>
<g id="a_edge14_Node000001_Node000011"><a xlink:title=" ">
<path fill="none" stroke="#63b8ff" d="M644.93,-263.86C639.12,-219.6 618.42,-111.96 551,-61.5 521.11,-39.13 424.77,-31.82 356.06,-29.49"/>
<polygon fill="#63b8ff" stroke="#63b8ff" points="641.47,-264.39 646.13,-273.9 648.42,-263.56 641.47,-264.39"/>
</a>
</g>
</g>
<!-- Node12 -->
<g id="Node000012" class="node">
<title>Node12</title>
<g id="a_Node000012"><a xlink:href="max17616_8c.html#ac0e1959b0c1e644e6c807143c529bf45" target="_top" xlink:title="Read STATUS_BYTE register.">
<polygon fill="white" stroke="#666666" points="551,-19 393,-19 393,0 551,0 551,-19"/>
<text text-anchor="middle" x="472" y="-7" font-family="Helvetica,sans-Serif" font-size="10.00">max17616_read_status_byte</text>
</a>
</g>
</g>
<!-- Node1&#45;&gt;Node12 -->
<g id="edge16_Node000001_Node000012" class="edge">
<title>Node1&#45;&gt;Node12</title>
<g id="a_edge16_Node000001_Node000012"><a xlink:title=" ">
<path fill="none" stroke="#63b8ff" d="M645.21,-263.92C639.88,-217.12 619.9,-97.86 551,-33.5 544.27,-27.21 535.93,-22.57 527.23,-19.15"/>
<polygon fill="#63b8ff" stroke="#63b8ff" points="641.74,-264.37 646.25,-273.95 648.7,-263.64 641.74,-264.37"/>
</a>
</g>
</g>
<!-- Node13 -->
<g id="Node000013" class="node">
<title>Node13</title>
<g id="a_Node000013"><a xlink:href="max17616_8c.html#ae7efecd2935616b4dd6fccbe39af2900" target="_top" xlink:title="Read STATUS_CML register.">
<polygon fill="white" stroke="#666666" points="549,-315 395,-315 395,-296 549,-296 549,-315"/>
<text text-anchor="middle" x="472" y="-303" font-family="Helvetica,sans-Serif" font-size="10.00">max17616_read_status_cml</text>
</a>
</g>
</g>
<!-- Node1&#45;&gt;Node13 -->
<g id="edge17_Node000001_Node000013" class="edge">
<title>Node1&#45;&gt;Node13</title>
<g id="a_edge17_Node000001_Node000013"><a xlink:title=" ">
<path fill="none" stroke="#63b8ff" d="M576.63,-292.4C567.3,-293.58 557.7,-294.79 548.29,-295.98"/>
<polygon fill="#63b8ff" stroke="#63b8ff" points="577.15,-295.86 586.63,-291.13 576.27,-288.91 577.15,-295.86"/>
</a>
</g>
</g>
<!-- Node15 -->
<g id="Node000015" class="node">
<title>Node15</title>
<g id="a_Node000015"><a xlink:href="max17616_8c.html#adcdd19ae1f1d4d8296db8f0ad8ba1b0d" target="_top" xlink:title="Read STATUS_INPUT register.">
<polygon fill="white" stroke="#666666" points="537.5,-277.5 406.5,-277.5 406.5,-247.5 537.5,-247.5 537.5,-277.5"/>
<text text-anchor="start" x="414.5" y="-265.5" font-family="Helvetica,sans-Serif" font-size="10.00">max17616_read_status</text>
<text text-anchor="middle" x="472" y="-254.5" font-family="Helvetica,sans-Serif" font-size="10.00">_input</text>
</a>
</g>
</g>
<!-- Node1&#45;&gt;Node15 -->
<g id="edge22_Node000001_Node000015" class="edge">
<title>Node1&#45;&gt;Node15</title>
<g id="a_edge22_Node000001_Node000015"><a xlink:title=" ">
<path fill="none" stroke="#63b8ff" d="M576.48,-274.99C563.66,-273.44 550.35,-271.84 537.71,-270.31"/>
<polygon fill="#63b8ff" stroke="#63b8ff" points="576.28,-278.49 586.63,-276.21 577.12,-271.54 576.28,-278.49"/>
</a>
</g>
</g>
<!-- Node16 -->
<g id="Node000016" class="node">
<title>Node16</title>
<g id="a_Node000016"><a xlink:href="max17616_8c.html#a6546c7df3528169eb7a4235d36f8d1bc" target="_top" xlink:title="Read STATUS_IOUT register.">
<polygon fill="white" stroke="#666666" points="549.5,-229 394.5,-229 394.5,-210 549.5,-210 549.5,-229"/>
<text text-anchor="middle" x="472" y="-217" font-family="Helvetica,sans-Serif" font-size="10.00">max17616_read_status_iout</text>
</a>
</g>
</g>
<!-- Node1&#45;&gt;Node16 -->
<g id="edge25_Node000001_Node000016" class="edge">
<title>Node1&#45;&gt;Node16</title>
<g id="a_edge25_Node000001_Node000016"><a xlink:title=" ">
<path fill="none" stroke="#63b8ff" d="M620.47,-269.31C601.53,-259.62 575.21,-247.03 551,-238.5 540.75,-234.89 529.5,-231.71 518.82,-229.05"/>
<polygon fill="#63b8ff" stroke="#63b8ff" points="618.91,-272.44 629.4,-273.94 622.14,-266.23 618.91,-272.44"/>
</a>
</g>
</g>
<!-- Node17 -->
<g id="Node000017" class="node">
<title>Node17</title>
<g id="a_Node000017"><a xlink:href="max17616_8c.html#aff914e0cc4f5439257f6a0b4899beb0e" target="_top" xlink:title="Read STATUS_MFR_SPECIFIC register.">
<polygon fill="white" stroke="#666666" points="537.5,-191.5 406.5,-191.5 406.5,-161.5 537.5,-161.5 537.5,-191.5"/>
<text text-anchor="start" x="414.5" y="-179.5" font-family="Helvetica,sans-Serif" font-size="10.00">max17616_read_status</text>
<text text-anchor="middle" x="472" y="-168.5" font-family="Helvetica,sans-Serif" font-size="10.00">_mfr_specific</text>
</a>
</g>
</g>
<!-- Node1&#45;&gt;Node17 -->
<g id="edge28_Node000001_Node000017" class="edge">
<title>Node1&#45;&gt;Node17</title>
<g id="a_edge28_Node000001_Node000017"><a xlink:title=" ">
<path fill="none" stroke="#63b8ff" d="M631.45,-266.34C613.68,-247.68 582.9,-218.16 551,-200.5 544.93,-197.14 538.32,-194.18 531.61,-191.6"/>
<polygon fill="#63b8ff" stroke="#63b8ff" points="629.07,-268.92 638.45,-273.84 634.19,-264.14 629.07,-268.92"/>
</a>
</g>
</g>
<!-- Node18 -->
<g id="Node000018" class="node">
<title>Node18</title>
<g id="a_Node000018"><a xlink:href="max17616_8c.html#a371044932c56ce6e6a217968bee95ce2" target="_top" xlink:title="Read STATUS_TEMPERATURE register.">
<polygon fill="white" stroke="#666666" points="537.5,-143.5 406.5,-143.5 406.5,-113.5 537.5,-113.5 537.5,-143.5"/>
<text text-anchor="start" x="414.5" y="-131.5" font-family="Helvetica,sans-Serif" font-size="10.00">max17616_read_status</text>
<text text-anchor="middle" x="472" y="-120.5" font-family="Helvetica,sans-Serif" font-size="10.00">_temperature</text>
</a>
</g>
</g>
<!-- Node1&#45;&gt;Node18 -->
<g id="edge31_Node000001_Node000018" class="edge">
<title>Node1&#45;&gt;Node18</title>
<g id="a_edge31_Node000001_Node000018"><a xlink:title=" ">
<path fill="none" stroke="#63b8ff" d="M638.19,-264.72C623.89,-236.25 592.95,-182.35 551,-152.5 546.15,-149.05 540.79,-146.09 535.23,-143.54"/>
<polygon fill="#63b8ff" stroke="#63b8ff" points="635.17,-266.51 642.7,-273.96 641.46,-263.44 635.17,-266.51"/>
</a>
</g>
</g>
<!-- Node19 -->
<g id="Node000019" class="node">
<title>Node19</title>
<g id="a_Node000019"><a xlink:href="max17616_8c.html#a455dd44f60524e8bfc8542d1ff5dd8bc" target="_top" xlink:title="Read STATUS_VOUT register.">
<polygon fill="white" stroke="#666666" points="551,-352 393,-352 393,-333 551,-333 551,-352"/>
<text text-anchor="middle" x="472" y="-340" font-family="Helvetica,sans-Serif" font-size="10.00">max17616_read_status_vout</text>
</a>
</g>
</g>
<!-- Node1&#45;&gt;Node19 -->
<g id="edge34_Node000001_Node000019" class="edge">
<title>Node1&#45;&gt;Node19</title>
<g id="a_edge34_Node000001_Node000019"><a xlink:title=" ">
<path fill="none" stroke="#63b8ff" d="M617.55,-297.18C598.78,-305.54 573.79,-316.03 551,-323.5 540.27,-327.02 528.52,-330.21 517.48,-332.93"/>
<polygon fill="#63b8ff" stroke="#63b8ff" points="619.07,-300.33 626.75,-293.02 616.2,-293.95 619.07,-300.33"/>
</a>
</g>
</g>
<!-- Node3 -->
<g id="Node000003" class="node">
<title>Node3</title>
<g id="a_Node000003"><a xlink:href="max17616_2src_2examples_2basic_2basic__example_8c.html#a423407bf3827741dfe2f6e0def8ba0c3" target="_top" xlink:title="Basic example main executiont.">
<polygon fill="white" stroke="#666666" points="326,-620 237,-620 237,-601 326,-601 326,-620"/>
<text text-anchor="middle" x="281.5" y="-608" font-family="Helvetica,sans-Serif" font-size="10.00">example_main</text>
</a>
</g>
</g>
<!-- Node2&#45;&gt;Node3 -->
<g id="edge2_Node000002_Node000003" class="edge">
<title>Node2&#45;&gt;Node3</title>
<g id="a_edge2_Node000002_Node000003"><a xlink:title=" ">
<path fill="none" stroke="#63b8ff" d="M397.59,-587.3C373.45,-592.17 347.39,-597.42 326.18,-601.69"/>
<polygon fill="#63b8ff" stroke="#63b8ff" points="398.33,-590.72 407.45,-585.31 396.95,-583.86 398.33,-590.72"/>
</a>
</g>
</g>
<!-- Node4 -->
<g id="Node000004" class="node">
<title>Node4</title>
<g id="a_Node000004"><a xlink:href="iio__max17616_8c.html#a06842d04ba8765565503d1949435b14f" target="_top" xlink:title="Read attribute function for MAX17616 PMBus IIO driver.">
<polygon fill="white" stroke="#666666" points="152.5,-333 17.5,-333 17.5,-314 152.5,-314 152.5,-333"/>
<text text-anchor="middle" x="85" y="-321" font-family="Helvetica,sans-Serif" font-size="10.00">max17616_iio_read_attr</text>
</a>
</g>
</g>
<!-- Node2&#45;&gt;Node4 -->
<g id="edge3_Node000002_Node000004" class="edge">
<title>Node2&#45;&gt;Node4</title>
<g id="a_edge3_Node000002_Node000004"><a xlink:title=" ">
<path fill="none" stroke="#63b8ff" d="M397.43,-585.46C340.56,-591.43 262.3,-590.44 206,-553.5 123.54,-499.38 94.34,-369.54 87.63,-333.13"/>
<polygon fill="#63b8ff" stroke="#63b8ff" points="397.9,-588.93 407.44,-584.31 397.1,-581.97 397.9,-588.93"/>
</a>
</g>
</g>
<!-- Node5&#45;&gt;Node4 -->
<g id="edge5_Node000005_Node000004" class="edge">
<title>Node5&#45;&gt;Node4</title>
<g id="a_edge5_Node000005_Node000004"><a xlink:title=" ">
<path fill="none" stroke="#63b8ff" d="M213.68,-462C211.03,-460.59 208.46,-459.1 206,-457.5 152.31,-422.63 107.66,-357.68 92,-333.18"/>
<polygon fill="#63b8ff" stroke="#63b8ff" points="212.4,-465.27 222.93,-466.42 215.42,-458.95 212.4,-465.27"/>
</a>
</g>
</g>
<!-- Node7 -->
<g id="Node000007" class="node">
<title>Node7</title>
<g id="a_Node000007"><a xlink:href="iio__max17616_8c.html#a0a0fb393a4d6b635c08d32c00982af2c" target="_top" xlink:title="Read global attribute function.">
<polygon fill="white" stroke="#666666" points="170,-81 0,-81 0,-62 170,-62 170,-81"/>
<text text-anchor="middle" x="85" y="-69" font-family="Helvetica,sans-Serif" font-size="10.00">max17616_iio_read_global_attr</text>
</a>
</g>
</g>
<!-- Node6&#45;&gt;Node7 -->
<g id="edge7_Node000006_Node000007" class="edge">
<title>Node6&#45;&gt;Node7</title>
<g id="a_edge7_Node000006_Node000007"><a xlink:title=" ">
<path fill="none" stroke="#63b8ff" d="M200.82,-71.5C190.7,-71.5 180.32,-71.5 170.13,-71.5"/>
<polygon fill="#63b8ff" stroke="#63b8ff" points="200.83,-75 210.83,-71.5 200.83,-68 200.83,-75"/>
</a>
</g>
</g>
<!-- Node8&#45;&gt;Node4 -->
<g id="edge9_Node000008_Node000004" class="edge">
<title>Node8&#45;&gt;Node4</title>
<g id="a_edge9_Node000008_Node000004"><a xlink:title=" ">
<path fill="none" stroke="#63b8ff" d="M217.16,-414.62C213.33,-413.01 209.58,-411.31 206,-409.5 162.28,-387.47 117,-350.44 96.82,-333.06"/>
<polygon fill="#63b8ff" stroke="#63b8ff" points="216.2,-418.01 226.79,-418.42 218.77,-411.5 216.2,-418.01"/>
</a>
</g>
</g>
<!-- Node9&#45;&gt;Node4 -->
<g id="edge11_Node000009_Node000004" class="edge">
<title>Node9&#45;&gt;Node4</title>
<g id="a_edge11_Node000009_Node000004"><a xlink:title=" ">
<path fill="none" stroke="#63b8ff" d="M223.73,-367.4C188.5,-356.17 144.64,-342.19 116.01,-333.07"/>
<polygon fill="#63b8ff" stroke="#63b8ff" points="222.83,-370.79 233.42,-370.49 224.95,-364.12 222.83,-370.79"/>
</a>
</g>
</g>
<!-- Node10&#45;&gt;Node4 -->
<g id="edge13_Node000010_Node000004" class="edge">
<title>Node10&#45;&gt;Node4</title>
<g id="a_edge13_Node000010_Node000004"><a xlink:title=" ">
<path fill="none" stroke="#63b8ff" d="M211.77,-509.47C209.78,-508.23 207.85,-506.9 206,-505.5 141.81,-456.73 101.36,-363.12 89.59,-333.05"/>
<polygon fill="#63b8ff" stroke="#63b8ff" points="210.43,-512.73 220.88,-514.46 213.8,-506.59 210.43,-512.73"/>
</a>
</g>
</g>
<!-- Node11&#45;&gt;Node7 -->
<g id="edge15_Node000011_Node000007" class="edge">
<title>Node11&#45;&gt;Node7</title>
<g id="a_edge15_Node000011_Node000007"><a xlink:title=" ">
<path fill="none" stroke="#63b8ff" d="M227.18,-40.29C196.31,-47.11 157.98,-55.59 129.05,-61.98"/>
<polygon fill="#63b8ff" stroke="#63b8ff" points="228.33,-43.62 237.33,-38.04 226.81,-36.78 228.33,-43.62"/>
</a>
</g>
</g>
<!-- Node13&#45;&gt;Node4 -->
<g id="edge18_Node000013_Node000004" class="edge">
<title>Node13&#45;&gt;Node4</title>
<g id="a_edge18_Node000013_Node000004"><a xlink:title=" ">
<path fill="none" stroke="#63b8ff" d="M384.78,-309.53C314.57,-312.81 216.89,-317.38 152.59,-320.39"/>
<polygon fill="#63b8ff" stroke="#63b8ff" points="385.11,-313.02 394.94,-309.06 384.78,-306.03 385.11,-313.02"/>
</a>
</g>
</g>
<!-- Node14 -->
<g id="Node000014" class="node">
<title>Node14</title>
<g id="a_Node000014"><a xlink:href="max17616_8c.html#ab54e40344182c79e5f9cb25d1e8c3fdf" target="_top" xlink:title="Read MAX17616 device status.">
<polygon fill="white" stroke="#666666" points="347,-200 216,-200 216,-181 347,-181 347,-200"/>
<text text-anchor="middle" x="281.5" y="-188" font-family="Helvetica,sans-Serif" font-size="10.00">max17616_read_status</text>
</a>
</g>
</g>
<!-- Node13&#45;&gt;Node14 -->
<g id="edge19_Node000013_Node000014" class="edge">
<title>Node13&#45;&gt;Node14</title>
<g id="a_edge19_Node000013_Node000014"><a xlink:title=" ">
<path fill="none" stroke="#63b8ff" d="M407.3,-292.71C402.35,-290.9 397.53,-288.84 393,-286.5 348.75,-263.63 307.49,-219.5 290.57,-200.08"/>
<polygon fill="#63b8ff" stroke="#63b8ff" points="406.32,-296.07 416.91,-295.9 408.52,-289.43 406.32,-296.07"/>
</a>
</g>
</g>
<!-- Node14&#45;&gt;Node4 -->
<g id="edge20_Node000014_Node000004" class="edge">
<title>Node14&#45;&gt;Node4</title>
<g id="a_edge20_Node000014_Node000004"><a xlink:title=" ">
<path fill="none" stroke="#63b8ff" d="M230.6,-203.31C222.12,-206.39 213.61,-210.1 206,-214.5 157.52,-242.55 111.9,-292.86 93.99,-313.87"/>
<polygon fill="#63b8ff" stroke="#63b8ff" points="231.77,-206.61 240.12,-200.08 229.52,-199.98 231.77,-206.61"/>
</a>
</g>
</g>
<!-- Node14&#45;&gt;Node7 -->
<g id="edge21_Node000014_Node000007" class="edge">
<title>Node14&#45;&gt;Node7</title>
<g id="a_edge21_Node000014_Node000007"><a xlink:title=" ">
<path fill="none" stroke="#63b8ff" d="M256.21,-175.64C215.72,-150.86 135.52,-101.8 101.66,-81.08"/>
<polygon fill="#63b8ff" stroke="#63b8ff" points="254.56,-178.73 264.91,-180.96 258.21,-172.76 254.56,-178.73"/>
</a>
</g>
</g>
<!-- Node15&#45;&gt;Node4 -->
<g id="edge23_Node000015_Node000004" class="edge">
<title>Node15&#45;&gt;Node4</title>
<g id="a_edge23_Node000015_Node000004"><a xlink:title=" ">
<path fill="none" stroke="#63b8ff" d="M396.08,-274.37C323.08,-285.94 213.52,-303.3 146.06,-313.98"/>
<polygon fill="#63b8ff" stroke="#63b8ff" points="396.8,-277.8 406.13,-272.78 395.7,-270.89 396.8,-277.8"/>
</a>
</g>
</g>
<!-- Node15&#45;&gt;Node14 -->
<g id="edge24_Node000015_Node000014" class="edge">
<title>Node15&#45;&gt;Node14</title>
<g id="a_edge24_Node000015_Node000014"><a xlink:title=" ">
<path fill="none" stroke="#63b8ff" d="M411.72,-244.13C405.38,-241.98 399.03,-239.75 393,-237.5 361.35,-225.72 325.5,-210.03 303.45,-200.09"/>
<polygon fill="#63b8ff" stroke="#63b8ff" points="411.07,-247.61 421.67,-247.45 413.29,-240.96 411.07,-247.61"/>
</a>
</g>
</g>
<!-- Node16&#45;&gt;Node4 -->
<g id="edge26_Node000016_Node000004" class="edge">
<title>Node16&#45;&gt;Node4</title>
<g id="a_edge26_Node000016_Node000004"><a xlink:title=" ">
<path fill="none" stroke="#63b8ff" d="M408.02,-230.95C353.93,-241.39 274.12,-258.25 206,-278.5 171.45,-288.77 132.57,-304.06 108.68,-313.91"/>
<polygon fill="#63b8ff" stroke="#63b8ff" points="408.99,-234.32 418.15,-229.01 407.67,-227.45 408.99,-234.32"/>
</a>
</g>
</g>
<!-- Node16&#45;&gt;Node14 -->
<g id="edge27_Node000016_Node000014" class="edge">
<title>Node16&#45;&gt;Node14</title>
<g id="a_edge27_Node000016_Node000014"><a xlink:title=" ">
<path fill="none" stroke="#63b8ff" d="M398.9,-208.41C380.98,-205.65 361.92,-202.72 344.52,-200.04"/>
<polygon fill="#63b8ff" stroke="#63b8ff" points="398.6,-211.9 409.02,-209.96 399.67,-204.98 398.6,-211.9"/>
</a>
</g>
</g>
<!-- Node17&#45;&gt;Node4 -->
<g id="edge29_Node000017_Node000004" class="edge">
<title>Node17&#45;&gt;Node4</title>
<g id="a_edge29_Node000017_Node000004"><a xlink:title=" ">
<path fill="none" stroke="#63b8ff" d="M405.49,-159.4C349.59,-148.39 268.57,-141.18 206,-171.5 142.16,-202.44 102.04,-285.64 89.9,-313.93"/>
<polygon fill="#63b8ff" stroke="#63b8ff" points="405.13,-162.89 415.63,-161.49 406.54,-156.04 405.13,-162.89"/>
</a>
</g>
</g>
<!-- Node17&#45;&gt;Node14 -->
<g id="edge30_Node000017_Node000014" class="edge">
<title>Node17&#45;&gt;Node14</title>
<g id="a_edge30_Node000017_Node000014"><a xlink:title=" ">
<path fill="none" stroke="#63b8ff" d="M396.36,-182.04C380.04,-183.26 362.9,-184.53 347.02,-185.71"/>
<polygon fill="#63b8ff" stroke="#63b8ff" points="396.68,-185.53 406.39,-181.3 396.16,-178.55 396.68,-185.53"/>
</a>
</g>
</g>
<!-- Node18&#45;&gt;Node4 -->
<g id="edge32_Node000018_Node000004" class="edge">
<title>Node18&#45;&gt;Node4</title>
<g id="a_edge32_Node000018_Node000004"><a xlink:title=" ">
<path fill="none" stroke="#63b8ff" d="M396.04,-116.81C340.02,-111.87 263.5,-113.47 206,-146.5 137.11,-186.07 99.54,-283.17 89.07,-313.97"/>
<polygon fill="#63b8ff" stroke="#63b8ff" points="395.97,-120.32 406.26,-117.8 396.64,-113.35 395.97,-120.32"/>
</a>
</g>
</g>
<!-- Node18&#45;&gt;Node14 -->
<g id="edge33_Node000018_Node000014" class="edge">
<title>Node18&#45;&gt;Node14</title>
<g id="a_edge33_Node000018_Node000014"><a xlink:title=" ">
<path fill="none" stroke="#63b8ff" d="M411.3,-146.65C405.11,-148.6 398.92,-150.57 393,-152.5 364.45,-161.8 331.98,-173.05 309.66,-180.88"/>
<polygon fill="#63b8ff" stroke="#63b8ff" points="412.49,-149.94 420.99,-143.62 410.4,-143.26 412.49,-149.94"/>
</a>
</g>
</g>
<!-- Node19&#45;&gt;Node4 -->
<g id="edge35_Node000019_Node000004" class="edge">
<title>Node19&#45;&gt;Node4</title>
<g id="a_edge35_Node000019_Node000004"><a xlink:title=" ">
<path fill="none" stroke="#63b8ff" d="M382.5,-338.13C312.51,-334.68 216.32,-329.93 152.71,-326.79"/>
<polygon fill="#63b8ff" stroke="#63b8ff" points="382.47,-341.63 392.63,-338.63 382.81,-334.64 382.47,-341.63"/>
</a>
</g>
</g>
<!-- Node19&#45;&gt;Node14 -->
<g id="edge36_Node000019_Node000014" class="edge">
<title>Node19&#45;&gt;Node14</title>
<g id="a_edge36_Node000019_Node000014"><a xlink:title=" ">
<path fill="none" stroke="#63b8ff" d="M403.86,-329.22C400.08,-327.54 396.43,-325.64 393,-323.5 340.8,-290.9 301.34,-225.23 287.69,-200.35"/>
<polygon fill="#63b8ff" stroke="#63b8ff" points="402.88,-332.6 413.46,-332.99 405.43,-326.08 402.88,-332.6"/>
</a>
</g>
</g>
</g>
</svg>

<g id="navigator" transform="translate(0 0)" fill="#404254">
  <rect fill="#f2f5e9" fill-opacity="0.5" stroke="#606060" stroke-width=".5" x="0" y="0" width="60" height="60"/>
  <use id="zoomplus" xlink:href="#zoomPlus" x="17" y="9" onmousedown="handleZoom(evt,'in')"/>
  <use id="zoomminus" xlink:href="#zoomMin" x="42" y="9" onmousedown="handleZoom(evt,'out')"/>
  <use id="reset" xlink:href="#resetDef" x="30" y="36" onmousedown="handleReset()"/>
   <use id="arrowup" xlink:href="#arrowUp" x="0" y="0" onmousedown="handlePan(0,-1)"/>
  <use id="arrowright" xlink:href="#arrowRight" x="0" y="0" onmousedown="handlePan(1,0)"/>
  <use id="arrowdown" xlink:href="#arrowDown" x="0" y="0" onmousedown="handlePan(0,1)"/>
  <use id="arrowleft" xlink:href="#arrowLeft" x="0" y="0" onmousedown="handlePan(-1,0)"/>
</g>
<svg viewBox="0 0 15 15" width="100%" height="30px" preserveAspectRatio="xMaxYMin meet">
 <g id="arrow_out" transform="scale(0.3 0.3)">
  <a xlink:href="max17616_8h_adfa254a156074d4b111eb5060818836a_icgraph_org.svg" target="_base">
   <rect id="button" ry="5" rx="5" y="6" x="6" height="38" width="38"
        fill="#f2f5e9" fill-opacity="0.5" stroke="#606060" stroke-width="1.0"/>
   <path id="arrow"
     d="M 11.500037,31.436501 C 11.940474,20.09759 22.043105,11.32322 32.158766,21.979434 L 37.068811,17.246167 C 37.068811,17.246167 37.088388,32 37.088388,32 L 22.160133,31.978069 C 22.160133,31.978069 26.997745,27.140456 26.997745,27.140456 C 18.528582,18.264221 13.291696,25.230495 11.500037,31.436501 z"
     style="fill:#404040;"/>
  </a>
 </g>
</svg>

<style type='text/css'>
<![CDATA[
[data-mouse-over-selected='false'] { opacity: 0.7; }
[data-mouse-over-selected='true']  { opacity: 1.0; }
]]>
</style>
<script type="application/ecmascript"><![CDATA[
document.addEventListener('DOMContentLoaded', (event) => {
  highlightEdges();
  highlightAdjacentNodes();
});
]]></script>
</svg>
