<?xml version="1.0" encoding="UTF-8" standalone="no"?>
<!DOCTYPE svg PUBLIC "-//W3C//DTD SVG 1.1//EN"
 "http://www.w3.org/Graphics/SVG/1.1/DTD/svg11.dtd">
<!-- Generated by graphviz version 2.43.0 (0)
 -->
<!-- Title: /home/runner/work/no&#45;OS/no&#45;OS/drivers/power/max17616/max17616.c Pages: 1 -->
<svg width="921pt" height="214pt"
 viewBox="0.00 0.00 921.03 214.00" xmlns="http://www.w3.org/2000/svg" xmlns:xlink="http://www.w3.org/1999/xlink">
<g id="graph0" class="graph" transform="scale(1 1) rotate(0) translate(4 210)">
<title>/home/runner/work/no&#45;OS/no&#45;OS/drivers/power/max17616/max17616.c</title>
<!-- Node1 -->
<g id="Node000001" class="node">
<title>Node1</title>
<g id="a_Node000001"><a xlink:title="Source file of the MAX17616 Driver.">
<polygon fill="#999999" stroke="#666666" points="603.53,-206 467.53,-206 467.53,-165 603.53,-165 603.53,-206"/>
<text text-anchor="start" x="475.53" y="-194" font-family="Helvetica,sans-Serif" font-size="10.00">/home/runner/work/no</text>
<text text-anchor="start" x="475.53" y="-183" font-family="Helvetica,sans-Serif" font-size="10.00">&#45;OS/no&#45;OS/drivers/power</text>
<text text-anchor="middle" x="535.53" y="-172" font-family="Helvetica,sans-Serif" font-size="10.00">/max17616/max17616.c</text>
</a>
</g>
</g>
<!-- Node2 -->
<g id="Node000002" class="node">
<title>Node2</title>
<g id="a_Node000002"><a xlink:title=" ">
<polygon fill="#e0e0e0" stroke="#999999" points="225.03,-19 172.03,-19 172.03,0 225.03,0 225.03,-19"/>
<text text-anchor="middle" x="198.53" y="-7" font-family="Helvetica,sans-Serif" font-size="10.00">stdint.h</text>
</a>
</g>
</g>
<!-- Node1&#45;&gt;Node2 -->
<g id="edge1_Node000001_Node000002" class="edge">
<title>Node1&#45;&gt;Node2</title>
<g id="a_edge1_Node000001_Node000002"><a xlink:title=" ">
<path fill="none" stroke="#63b8ff" d="M467.35,-182.26C332.37,-177.13 41.49,-162.3 11.53,-129 1.02,-117.32 -9.03,-84.01 15.53,-55 34.17,-32.97 114.13,-20.16 161.97,-14.33"/>
<polygon fill="#63b8ff" stroke="#63b8ff" points="162.42,-17.8 171.95,-13.16 161.61,-10.85 162.42,-17.8"/>
</a>
</g>
</g>
<!-- Node3 -->
<g id="Node000003" class="node">
<title>Node3</title>
<g id="a_Node000003"><a xlink:title=" ">
<polygon fill="#e0e0e0" stroke="#999999" points="519.53,-19 457.53,-19 457.53,0 519.53,0 519.53,-19"/>
<text text-anchor="middle" x="488.53" y="-7" font-family="Helvetica,sans-Serif" font-size="10.00">stdbool.h</text>
</a>
</g>
</g>
<!-- Node1&#45;&gt;Node3 -->
<g id="edge2_Node000001_Node000003" class="edge">
<title>Node1&#45;&gt;Node3</title>
<g id="a_edge2_Node000001_Node000003"><a xlink:title=" ">
<path fill="none" stroke="#63b8ff" d="M540.2,-164.66C545.37,-138.39 551.08,-91.14 535.53,-55 530.37,-43.03 520.24,-32.76 510.69,-25.12"/>
<polygon fill="#63b8ff" stroke="#63b8ff" points="512.71,-22.26 502.6,-19.11 508.54,-27.88 512.71,-22.26"/>
</a>
</g>
</g>
<!-- Node4 -->
<g id="Node000004" class="node">
<title>Node4</title>
<g id="a_Node000004"><a xlink:title=" ">
<polygon fill="#e0e0e0" stroke="#999999" points="619.03,-19 566.03,-19 566.03,0 619.03,0 619.03,-19"/>
<text text-anchor="middle" x="592.53" y="-7" font-family="Helvetica,sans-Serif" font-size="10.00">stdlib.h</text>
</a>
</g>
</g>
<!-- Node1&#45;&gt;Node4 -->
<g id="edge3_Node000001_Node000004" class="edge">
<title>Node1&#45;&gt;Node4</title>
<g id="a_edge3_Node000001_Node000004"><a xlink:title=" ">
<path fill="none" stroke="#63b8ff" d="M544.27,-164.93C548.82,-154.4 554.29,-141.11 558.53,-129 570.66,-94.27 581.83,-52.76 587.85,-29.23"/>
<polygon fill="#63b8ff" stroke="#63b8ff" points="591.32,-29.78 590.38,-19.23 584.54,-28.07 591.32,-29.78"/>
</a>
</g>
</g>
<!-- Node5 -->
<g id="Node000005" class="node">
<title>Node5</title>
<g id="a_Node000005"><a xlink:href="errno_8h.html" target="_top" xlink:title="Error macro definition for ARM Compiler.">
<polygon fill="white" stroke="#666666" points="812.03,-129 761.03,-129 761.03,-110 812.03,-110 812.03,-129"/>
<text text-anchor="middle" x="786.53" y="-117" font-family="Helvetica,sans-Serif" font-size="10.00">errno.h</text>
</a>
</g>
</g>
<!-- Node1&#45;&gt;Node5 -->
<g id="edge4_Node000001_Node000005" class="edge">
<title>Node1&#45;&gt;Node5</title>
<g id="a_edge4_Node000001_Node000005"><a xlink:title=" ">
<path fill="none" stroke="#63b8ff" d="M603.78,-167.1C651.28,-154.98 712.72,-139.32 750.87,-129.59"/>
<polygon fill="#63b8ff" stroke="#63b8ff" points="752.15,-132.88 760.98,-127.01 750.42,-126.09 752.15,-132.88"/>
</a>
</g>
</g>
<!-- Node6 -->
<g id="Node000006" class="node">
<title>Node6</title>
<g id="a_Node000006"><a xlink:title=" ">
<polygon fill="#e0e0e0" stroke="#999999" points="741.53,-74 691.53,-74 691.53,-55 741.53,-55 741.53,-74"/>
<text text-anchor="middle" x="716.53" y="-62" font-family="Helvetica,sans-Serif" font-size="10.00">stdio.h</text>
</a>
</g>
</g>
<!-- Node1&#45;&gt;Node6 -->
<g id="edge5_Node000001_Node000006" class="edge">
<title>Node1&#45;&gt;Node6</title>
<g id="a_edge5_Node000001_Node000006"><a xlink:title=" ">
<path fill="none" stroke="#63b8ff" d="M603.74,-181.6C642.3,-176.09 687.8,-162.3 713.53,-129 723.22,-116.46 722.98,-98 720.9,-84.22"/>
<polygon fill="#63b8ff" stroke="#63b8ff" points="724.33,-83.52 719,-74.37 717.46,-84.85 724.33,-83.52"/>
</a>
</g>
</g>
<!-- Node7 -->
<g id="Node000007" class="node">
<title>Node7</title>
<g id="a_Node000007"><a xlink:href="no__os__units_8h.html" target="_top" xlink:title="Header file of Units.">
<polygon fill="white" stroke="#666666" points="913.03,-129 830.03,-129 830.03,-110 913.03,-110 913.03,-129"/>
<text text-anchor="middle" x="871.53" y="-117" font-family="Helvetica,sans-Serif" font-size="10.00">no_os_units.h</text>
</a>
</g>
</g>
<!-- Node1&#45;&gt;Node7 -->
<g id="edge6_Node000001_Node000007" class="edge">
<title>Node1&#45;&gt;Node7</title>
<g id="a_edge6_Node000001_Node000007"><a xlink:title=" ">
<path fill="none" stroke="#63b8ff" d="M603.93,-171.47C667.82,-159.3 761.8,-141.4 819.7,-130.37"/>
<polygon fill="#63b8ff" stroke="#63b8ff" points="820.56,-133.77 829.73,-128.46 819.25,-126.89 820.56,-133.77"/>
</a>
</g>
</g>
<!-- Node8 -->
<g id="Node000008" class="node">
<title>Node8</title>
<g id="a_Node000008"><a xlink:href="no__os__util_8h.html" target="_top" xlink:title="Header file of utility functions.">
<polygon fill="white" stroke="#666666" points="526.03,-74 451.03,-74 451.03,-55 526.03,-55 526.03,-74"/>
<text text-anchor="middle" x="488.53" y="-62" font-family="Helvetica,sans-Serif" font-size="10.00">no_os_util.h</text>
</a>
</g>
</g>
<!-- Node1&#45;&gt;Node8 -->
<g id="edge7_Node000001_Node000008" class="edge">
<title>Node1&#45;&gt;Node8</title>
<g id="a_edge7_Node000001_Node000008"><a xlink:title=" ">
<path fill="none" stroke="#63b8ff" d="M527.76,-164.85C518.85,-142.27 504.33,-105.52 495.68,-83.61"/>
<polygon fill="#63b8ff" stroke="#63b8ff" points="498.88,-82.19 491.95,-74.18 492.37,-84.76 498.88,-82.19"/>
</a>
</g>
</g>
<!-- Node9 -->
<g id="Node000009" class="node">
<title>Node9</title>
<g id="a_Node000009"><a xlink:href="no__os__delay_8h.html" target="_top" xlink:title="Header file of Delay functions.">
<polygon fill="white" stroke="#666666" points="192.03,-74 107.03,-74 107.03,-55 192.03,-55 192.03,-74"/>
<text text-anchor="middle" x="149.53" y="-62" font-family="Helvetica,sans-Serif" font-size="10.00">no_os_delay.h</text>
</a>
</g>
</g>
<!-- Node1&#45;&gt;Node9 -->
<g id="edge11_Node000001_Node000009" class="edge">
<title>Node1&#45;&gt;Node9</title>
<g id="a_edge11_Node000001_Node000009"><a xlink:title=" ">
<path fill="none" stroke="#63b8ff" d="M467.22,-169.6C423.24,-159.46 365.06,-145 314.53,-129 266.13,-113.67 211.4,-91.65 178.72,-77.97"/>
<polygon fill="#63b8ff" stroke="#63b8ff" points="179.89,-74.67 169.31,-74.02 177.17,-81.12 179.89,-74.67"/>
</a>
</g>
</g>
<!-- Node10 -->
<g id="Node000010" class="node">
<title>Node10</title>
<g id="a_Node000010"><a xlink:href="no__os__alloc_8h.html" target="_top" xlink:title=" ">
<polygon fill="white" stroke="#666666" points="704.03,-129 621.03,-129 621.03,-110 704.03,-110 704.03,-129"/>
<text text-anchor="middle" x="662.53" y="-117" font-family="Helvetica,sans-Serif" font-size="10.00">no_os_alloc.h</text>
</a>
</g>
</g>
<!-- Node1&#45;&gt;Node10 -->
<g id="edge13_Node000001_Node000010" class="edge">
<title>Node1&#45;&gt;Node10</title>
<g id="a_edge13_Node000001_Node000010"><a xlink:title=" ">
<path fill="none" stroke="#63b8ff" d="M574.32,-164.95C594.38,-154.84 618.35,-142.76 636.23,-133.75"/>
<polygon fill="#63b8ff" stroke="#63b8ff" points="638.12,-136.72 645.48,-129.09 634.97,-130.47 638.12,-136.72"/>
</a>
</g>
</g>
<!-- Node11 -->
<g id="Node000011" class="node">
<title>Node11</title>
<g id="a_Node000011"><a xlink:href="no__os__i2c_8h.html" target="_top" xlink:title="Header file of I2C Interface.">
<polygon fill="white" stroke="#666666" points="284.53,-74 210.53,-74 210.53,-55 284.53,-55 284.53,-74"/>
<text text-anchor="middle" x="247.53" y="-62" font-family="Helvetica,sans-Serif" font-size="10.00">no_os_i2c.h</text>
</a>
</g>
</g>
<!-- Node1&#45;&gt;Node11 -->
<g id="edge16_Node000001_Node000011" class="edge">
<title>Node1&#45;&gt;Node11</title>
<g id="a_edge16_Node000001_Node000011"><a xlink:title=" ">
<path fill="none" stroke="#63b8ff" d="M467.5,-167.56C433.23,-158.02 391.43,-144.83 355.53,-129 323.8,-115.01 289.71,-93.82 268.5,-79.82"/>
<polygon fill="#63b8ff" stroke="#63b8ff" points="270.24,-76.78 259.98,-74.13 266.35,-82.6 270.24,-76.78"/>
</a>
</g>
</g>
<!-- Node12 -->
<g id="Node000012" class="node">
<title>Node12</title>
<g id="a_Node000012"><a xlink:href="no__os__crc8_8h.html" target="_top" xlink:title="Header file of CRC&#45;8 computation.">
<polygon fill="white" stroke="#666666" points="100.53,-129 20.53,-129 20.53,-110 100.53,-110 100.53,-129"/>
<text text-anchor="middle" x="60.53" y="-117" font-family="Helvetica,sans-Serif" font-size="10.00">no_os_crc8.h</text>
</a>
</g>
</g>
<!-- Node1&#45;&gt;Node12 -->
<g id="edge18_Node000001_Node000012" class="edge">
<title>Node1&#45;&gt;Node12</title>
<g id="a_edge18_Node000001_Node000012"><a xlink:title=" ">
<path fill="none" stroke="#63b8ff" d="M467.47,-175.33C370.84,-162.31 196.12,-138.77 110.52,-127.24"/>
<polygon fill="#63b8ff" stroke="#63b8ff" points="110.92,-123.76 100.54,-125.89 109.98,-130.7 110.92,-123.76"/>
</a>
</g>
</g>
<!-- Node14 -->
<g id="Node000014" class="node">
<title>Node14</title>
<g id="a_Node000014"><a xlink:href="max17616_8h.html" target="_top" xlink:title="Header file of the MAX17616 Driver.">
<polygon fill="white" stroke="#666666" points="441.03,-129 364.03,-129 364.03,-110 441.03,-110 441.03,-129"/>
<text text-anchor="middle" x="402.53" y="-117" font-family="Helvetica,sans-Serif" font-size="10.00">max17616.h</text>
</a>
</g>
</g>
<!-- Node1&#45;&gt;Node14 -->
<g id="edge21_Node000001_Node000014" class="edge">
<title>Node1&#45;&gt;Node14</title>
<g id="a_edge21_Node000001_Node000014"><a xlink:title=" ">
<path fill="none" stroke="#63b8ff" d="M494.9,-164.95C473.69,-154.75 448.32,-142.54 429.54,-133.5"/>
<polygon fill="#63b8ff" stroke="#63b8ff" points="430.91,-130.27 420.38,-129.09 427.87,-136.58 430.91,-130.27"/>
</a>
</g>
</g>
<!-- Node8&#45;&gt;Node2 -->
<g id="edge8_Node000008_Node000002" class="edge">
<title>Node8&#45;&gt;Node2</title>
<g id="a_edge8_Node000008_Node000002"><a xlink:title=" ">
<path fill="none" stroke="#63b8ff" d="M450.91,-56.63C395.05,-46.42 290.81,-27.37 235.38,-17.24"/>
<polygon fill="#63b8ff" stroke="#63b8ff" points="235.77,-13.75 225.3,-15.39 234.51,-20.63 235.77,-13.75"/>
</a>
</g>
</g>
<!-- Node8&#45;&gt;Node3 -->
<g id="edge10_Node000008_Node000003" class="edge">
<title>Node8&#45;&gt;Node3</title>
<g id="a_edge10_Node000008_Node000003"><a xlink:title=" ">
<path fill="none" stroke="#63b8ff" d="M488.53,-54.75C488.53,-47.8 488.53,-37.85 488.53,-29.13"/>
<polygon fill="#63b8ff" stroke="#63b8ff" points="492.03,-29.09 488.53,-19.09 485.03,-29.09 492.03,-29.09"/>
</a>
</g>
</g>
<!-- Node8&#45;&gt;Node4 -->
<g id="edge9_Node000008_Node000004" class="edge">
<title>Node8&#45;&gt;Node4</title>
<g id="a_edge9_Node000008_Node000004"><a xlink:title=" ">
<path fill="none" stroke="#63b8ff" d="M505.23,-54.98C521.74,-46.57 547.22,-33.59 566.4,-23.81"/>
<polygon fill="#63b8ff" stroke="#63b8ff" points="568.19,-26.83 575.51,-19.17 565.01,-20.59 568.19,-26.83"/>
</a>
</g>
</g>
<!-- Node9&#45;&gt;Node2 -->
<g id="edge12_Node000009_Node000002" class="edge">
<title>Node9&#45;&gt;Node2</title>
<g id="a_edge12_Node000009_Node000002"><a xlink:title=" ">
<path fill="none" stroke="#63b8ff" d="M157.62,-54.75C164.68,-47.11 175.11,-35.82 183.67,-26.56"/>
<polygon fill="#63b8ff" stroke="#63b8ff" points="186.37,-28.81 190.58,-19.09 181.23,-24.06 186.37,-28.81"/>
</a>
</g>
</g>
<!-- Node10&#45;&gt;Node4 -->
<g id="edge15_Node000010_Node000004" class="edge">
<title>Node10&#45;&gt;Node4</title>
<g id="a_edge15_Node000010_Node000004"><a xlink:title=" ">
<path fill="none" stroke="#63b8ff" d="M656.8,-109.66C645.2,-91.77 618.78,-51 603.67,-27.69"/>
<polygon fill="#63b8ff" stroke="#63b8ff" points="606.51,-25.65 598.14,-19.16 600.64,-29.45 606.51,-25.65"/>
</a>
</g>
</g>
<!-- Node10&#45;&gt;Node6 -->
<g id="edge14_Node000010_Node000006" class="edge">
<title>Node10&#45;&gt;Node6</title>
<g id="a_edge14_Node000010_Node000006"><a xlink:title=" ">
<path fill="none" stroke="#63b8ff" d="M671.44,-109.75C679.31,-102.03 690.96,-90.6 700.44,-81.28"/>
<polygon fill="#63b8ff" stroke="#63b8ff" points="703.09,-83.59 707.77,-74.09 698.19,-78.6 703.09,-83.59"/>
</a>
</g>
</g>
<!-- Node11&#45;&gt;Node2 -->
<g id="edge17_Node000011_Node000002" class="edge">
<title>Node11&#45;&gt;Node2</title>
<g id="a_edge17_Node000011_Node000002"><a xlink:title=" ">
<path fill="none" stroke="#63b8ff" d="M239.43,-54.75C232.37,-47.11 221.94,-35.82 213.38,-26.56"/>
<polygon fill="#63b8ff" stroke="#63b8ff" points="215.82,-24.06 206.47,-19.09 210.68,-28.81 215.82,-24.06"/>
</a>
</g>
</g>
<!-- Node12&#45;&gt;Node2 -->
<g id="edge19_Node000012_Node000002" class="edge">
<title>Node12&#45;&gt;Node2</title>
<g id="a_edge19_Node000012_Node000002"><a xlink:title=" ">
<path fill="none" stroke="#63b8ff" d="M48.95,-109.83C33.45,-97.16 9.43,-73.13 23.53,-55 40.34,-33.37 115.77,-20.53 161.94,-14.56"/>
<polygon fill="#63b8ff" stroke="#63b8ff" points="162.38,-18.04 171.87,-13.33 161.52,-11.09 162.38,-18.04"/>
</a>
</g>
</g>
<!-- Node13 -->
<g id="Node000013" class="node">
<title>Node13</title>
<g id="a_Node000013"><a xlink:title=" ">
<polygon fill="#e0e0e0" stroke="#999999" points="88.53,-74 32.53,-74 32.53,-55 88.53,-55 88.53,-74"/>
<text text-anchor="middle" x="60.53" y="-62" font-family="Helvetica,sans-Serif" font-size="10.00">stddef.h</text>
</a>
</g>
</g>
<!-- Node12&#45;&gt;Node13 -->
<g id="edge20_Node000012_Node000013" class="edge">
<title>Node12&#45;&gt;Node13</title>
<g id="a_edge20_Node000012_Node000013"><a xlink:title=" ">
<path fill="none" stroke="#63b8ff" d="M60.53,-109.75C60.53,-102.8 60.53,-92.85 60.53,-84.13"/>
<polygon fill="#63b8ff" stroke="#63b8ff" points="64.03,-84.09 60.53,-74.09 57.03,-84.09 64.03,-84.09"/>
</a>
</g>
</g>
<!-- Node14&#45;&gt;Node2 -->
<g id="edge22_Node000014_Node000002" class="edge">
<title>Node14&#45;&gt;Node2</title>
<g id="a_edge22_Node000014_Node000002"><a xlink:title=" ">
<path fill="none" stroke="#63b8ff" d="M399.82,-109.64C395.14,-95.82 384.19,-69.24 365.53,-55 327.42,-25.93 271.85,-15.81 235.45,-12.31"/>
<polygon fill="#63b8ff" stroke="#63b8ff" points="235.52,-8.81 225.26,-11.46 234.93,-15.78 235.52,-8.81"/>
</a>
</g>
</g>
<!-- Node14&#45;&gt;Node3 -->
<g id="edge24_Node000014_Node000003" class="edge">
<title>Node14&#45;&gt;Node3</title>
<g id="a_edge24_Node000014_Node000003"><a xlink:title=" ">
<path fill="none" stroke="#63b8ff" d="M407.1,-109.85C413.97,-97.2 427.74,-73.21 442.53,-55 451,-44.57 461.74,-34.06 470.7,-25.87"/>
<polygon fill="#63b8ff" stroke="#63b8ff" points="473.19,-28.34 478.33,-19.08 468.53,-23.12 473.19,-28.34"/>
</a>
</g>
</g>
<!-- Node14&#45;&gt;Node8 -->
<g id="edge25_Node000014_Node000008" class="edge">
<title>Node14&#45;&gt;Node8</title>
<g id="a_edge25_Node000014_Node000008"><a xlink:title=" ">
<path fill="none" stroke="#63b8ff" d="M416.34,-109.98C429.68,-101.77 450.11,-89.18 465.83,-79.49"/>
<polygon fill="#63b8ff" stroke="#63b8ff" points="467.78,-82.4 474.46,-74.17 464.11,-76.44 467.78,-82.4"/>
</a>
</g>
</g>
<!-- Node14&#45;&gt;Node11 -->
<g id="edge26_Node000014_Node000011" class="edge">
<title>Node14&#45;&gt;Node11</title>
<g id="a_edge26_Node000014_Node000011"><a xlink:title=" ">
<path fill="none" stroke="#63b8ff" d="M377.62,-109.98C351.82,-101.16 311.31,-87.31 282.34,-77.41"/>
<polygon fill="#63b8ff" stroke="#63b8ff" points="283.22,-74.01 272.62,-74.08 280.95,-80.63 283.22,-74.01"/>
</a>
</g>
</g>
<!-- Node15 -->
<g id="Node000015" class="node">
<title>Node15</title>
<g id="a_Node000015"><a xlink:title=" ">
<polygon fill="#e0e0e0" stroke="#999999" points="356.03,-74 303.03,-74 303.03,-55 356.03,-55 356.03,-74"/>
<text text-anchor="middle" x="329.53" y="-62" font-family="Helvetica,sans-Serif" font-size="10.00">string.h</text>
</a>
</g>
</g>
<!-- Node14&#45;&gt;Node15 -->
<g id="edge23_Node000014_Node000015" class="edge">
<title>Node14&#45;&gt;Node15</title>
<g id="a_edge23_Node000014_Node000015"><a xlink:title=" ">
<path fill="none" stroke="#63b8ff" d="M390.8,-109.98C379.79,-102 363.1,-89.88 349.92,-80.31"/>
<polygon fill="#63b8ff" stroke="#63b8ff" points="351.62,-77.21 341.47,-74.17 347.5,-82.88 351.62,-77.21"/>
</a>
</g>
</g>
</g>
</svg>
