<?xml version="1.0" encoding="UTF-8" standalone="no"?>
<!DOCTYPE svg PUBLIC "-//W3C//DTD SVG 1.1//EN"
 "http://www.w3.org/Graphics/SVG/1.1/DTD/svg11.dtd">
<!-- Generated by graphviz version 2.43.0 (0)
 -->
<!-- Title: /home/runner/work/no&#45;OS/no&#45;OS/drivers/digital&#45;io/max14919/max14919.h Pages: 1 -->
<svg width="517pt" height="214pt"
 viewBox="0.00 0.00 517.00 214.00" xmlns="http://www.w3.org/2000/svg" xmlns:xlink="http://www.w3.org/1999/xlink">
<g id="graph0" class="graph" transform="scale(1 1) rotate(0) translate(4 210)">
<title>/home/runner/work/no&#45;OS/no&#45;OS/drivers/digital&#45;io/max14919/max14919.h</title>
<!-- Node1 -->
<g id="Node000001" class="node">
<title>Node1</title>
<g id="a_Node000001"><a xlink:title="Header file of MAX14919 Driver.">
<polygon fill="#999999" stroke="#666666" points="320.5,-206 172.5,-206 172.5,-165 320.5,-165 320.5,-206"/>
<text text-anchor="start" x="180.5" y="-194" font-family="Helvetica,sans-Serif" font-size="10.00">/home/runner/work/no</text>
<text text-anchor="start" x="180.5" y="-183" font-family="Helvetica,sans-Serif" font-size="10.00">&#45;OS/no&#45;OS/drivers/digital</text>
<text text-anchor="middle" x="246.5" y="-172" font-family="Helvetica,sans-Serif" font-size="10.00">&#45;io/max14919/max14919.h</text>
</a>
</g>
</g>
<!-- Node2 -->
<g id="Node000002" class="node">
<title>Node2</title>
<g id="a_Node000002"><a xlink:href="max14919_8c.html" target="_top" xlink:title="Source file of MAX14919 Driver.">
<polygon fill="white" stroke="#666666" points="147,-123.5 0,-123.5 0,-82.5 147,-82.5 147,-123.5"/>
<text text-anchor="start" x="8" y="-111.5" font-family="Helvetica,sans-Serif" font-size="10.00">/home/runner/work/no</text>
<text text-anchor="start" x="8" y="-100.5" font-family="Helvetica,sans-Serif" font-size="10.00">&#45;OS/no&#45;OS/drivers/digital</text>
<text text-anchor="middle" x="73.5" y="-89.5" font-family="Helvetica,sans-Serif" font-size="10.00">&#45;io/max14919/max14919.c</text>
</a>
</g>
</g>
<!-- Node1&#45;&gt;Node2 -->
<g id="edge1_Node000001_Node000002" class="edge">
<title>Node1&#45;&gt;Node2</title>
<g id="a_edge1_Node000001_Node000002"><a xlink:title=" ">
<path fill="none" stroke="#63b8ff" d="M195.09,-160.58C169.77,-148.8 139.62,-134.77 115.68,-123.63"/>
<polygon fill="#63b8ff" stroke="#63b8ff" points="193.64,-163.76 204.18,-164.81 196.59,-157.42 193.64,-163.76"/>
</a>
</g>
</g>
<!-- Node3 -->
<g id="Node000003" class="node">
<title>Node3</title>
<g id="a_Node000003"><a xlink:href="max14919_2src_2common_2common__data_8h.html" target="_top" xlink:title="Defines common data to be used by max14919 example.">
<polygon fill="white" stroke="#666666" points="328,-123.5 165,-123.5 165,-82.5 328,-82.5 328,-123.5"/>
<text text-anchor="start" x="173" y="-111.5" font-family="Helvetica,sans-Serif" font-size="10.00">/home/runner/work/no</text>
<text text-anchor="start" x="173" y="-100.5" font-family="Helvetica,sans-Serif" font-size="10.00">&#45;OS/no&#45;OS/projects/max14919</text>
<text text-anchor="middle" x="246.5" y="-89.5" font-family="Helvetica,sans-Serif" font-size="10.00">/src/common/common_data.h</text>
</a>
</g>
</g>
<!-- Node1&#45;&gt;Node3 -->
<g id="edge2_Node000001_Node000003" class="edge">
<title>Node1&#45;&gt;Node3</title>
<g id="a_edge2_Node000001_Node000003"><a xlink:title=" ">
<path fill="none" stroke="#63b8ff" d="M246.5,-154.37C246.5,-144.1 246.5,-132.9 246.5,-123.67"/>
<polygon fill="#63b8ff" stroke="#63b8ff" points="243,-154.6 246.5,-164.6 250,-154.6 243,-154.6"/>
</a>
</g>
</g>
<!-- Node5 -->
<g id="Node000005" class="node">
<title>Node5</title>
<g id="a_Node000005"><a xlink:href="max14919_2src_2examples_2basic_2basic__example_8c.html" target="_top" xlink:title="Source file for basic example.">
<polygon fill="white" stroke="#666666" points="509,-129 346,-129 346,-77 509,-77 509,-129"/>
<text text-anchor="start" x="354" y="-117" font-family="Helvetica,sans-Serif" font-size="10.00">/home/runner/work/no</text>
<text text-anchor="start" x="354" y="-106" font-family="Helvetica,sans-Serif" font-size="10.00">&#45;OS/no&#45;OS/projects/max14919</text>
<text text-anchor="start" x="354" y="-95" font-family="Helvetica,sans-Serif" font-size="10.00">/src/examples/basic/basic</text>
<text text-anchor="middle" x="427.5" y="-84" font-family="Helvetica,sans-Serif" font-size="10.00">_example.c</text>
</a>
</g>
</g>
<!-- Node1&#45;&gt;Node5 -->
<g id="edge4_Node000001_Node000005" class="edge">
<title>Node1&#45;&gt;Node5</title>
<g id="a_edge4_Node000001_Node000005"><a xlink:title=" ">
<path fill="none" stroke="#63b8ff" d="M300.11,-160.66C322.43,-150.73 348.38,-139.19 371,-129.13"/>
<polygon fill="#63b8ff" stroke="#63b8ff" points="298.49,-157.55 290.78,-164.81 301.34,-163.94 298.49,-157.55"/>
</a>
</g>
</g>
<!-- Node4 -->
<g id="Node000004" class="node">
<title>Node4</title>
<g id="a_Node000004"><a xlink:href="max14919_2src_2common_2common__data_8c.html" target="_top" xlink:title="Defines common data to be used by max14919 example.">
<polygon fill="white" stroke="#666666" points="328,-41 165,-41 165,0 328,0 328,-41"/>
<text text-anchor="start" x="173" y="-29" font-family="Helvetica,sans-Serif" font-size="10.00">/home/runner/work/no</text>
<text text-anchor="start" x="173" y="-18" font-family="Helvetica,sans-Serif" font-size="10.00">&#45;OS/no&#45;OS/projects/max14919</text>
<text text-anchor="middle" x="246.5" y="-7" font-family="Helvetica,sans-Serif" font-size="10.00">/src/common/common_data.c</text>
</a>
</g>
</g>
<!-- Node3&#45;&gt;Node4 -->
<g id="edge3_Node000003_Node000004" class="edge">
<title>Node3&#45;&gt;Node4</title>
<g id="a_edge3_Node000003_Node000004"><a xlink:title=" ">
<path fill="none" stroke="#63b8ff" d="M246.5,-71.87C246.5,-61.6 246.5,-50.4 246.5,-41.17"/>
<polygon fill="#63b8ff" stroke="#63b8ff" points="243,-72.1 246.5,-82.1 250,-72.1 243,-72.1"/>
</a>
</g>
</g>
</g>
</svg>
