<?xml version="1.0" encoding="UTF-8" standalone="no"?>
<!DOCTYPE svg PUBLIC "-//W3C//DTD SVG 1.1//EN"
 "http://www.w3.org/Graphics/SVG/1.1/DTD/svg11.dtd">
<!-- Generated by graphviz version 2.43.0 (0)
 -->
<!-- Title: /home/runner/work/no&#45;OS/no&#45;OS/drivers/io&#45;link/max22516/max22516.h Pages: 1 -->
<svg width="420pt" height="159pt"
 viewBox="0.00 0.00 419.55 159.00" xmlns="http://www.w3.org/2000/svg" xmlns:xlink="http://www.w3.org/1999/xlink">
<g id="graph0" class="graph" transform="scale(1 1) rotate(0) translate(4 155)">
<title>/home/runner/work/no&#45;OS/no&#45;OS/drivers/io&#45;link/max22516/max22516.h</title>
<!-- Node1 -->
<g id="Node000001" class="node">
<title>Node1</title>
<g id="a_Node000001"><a xlink:title="Header file for max22516 Driver.">
<polygon fill="#999999" stroke="#666666" points="249.05,-151 92.05,-151 92.05,-110 249.05,-110 249.05,-151"/>
<text text-anchor="start" x="100.05" y="-139" font-family="Helvetica,sans-Serif" font-size="10.00">/home/runner/work/no</text>
<text text-anchor="start" x="100.05" y="-128" font-family="Helvetica,sans-Serif" font-size="10.00">&#45;OS/no&#45;OS/drivers/io</text>
<text text-anchor="middle" x="170.55" y="-117" font-family="Helvetica,sans-Serif" font-size="10.00">&#45;link/max22516/max22516.h</text>
</a>
</g>
</g>
<!-- Node2 -->
<g id="Node000002" class="node">
<title>Node2</title>
<g id="a_Node000002"><a xlink:title=" ">
<polygon fill="#e0e0e0" stroke="#999999" points="198.05,-19 145.05,-19 145.05,0 198.05,0 198.05,-19"/>
<text text-anchor="middle" x="171.55" y="-7" font-family="Helvetica,sans-Serif" font-size="10.00">stdint.h</text>
</a>
</g>
</g>
<!-- Node1&#45;&gt;Node2 -->
<g id="edge1_Node000001_Node000002" class="edge">
<title>Node1&#45;&gt;Node2</title>
<g id="a_edge1_Node000001_Node000002"><a xlink:title=" ">
<path fill="none" stroke="#63b8ff" d="M91.95,-120.24C37.63,-110.5 -20.24,-91.33 7.55,-55 22.94,-34.88 91.48,-21.73 134.94,-15.25"/>
<polygon fill="#63b8ff" stroke="#63b8ff" points="135.47,-18.71 144.87,-13.82 134.47,-11.78 135.47,-18.71"/>
</a>
</g>
</g>
<!-- Node3 -->
<g id="Node000003" class="node">
<title>Node3</title>
<g id="a_Node000003"><a xlink:title=" ">
<polygon fill="#e0e0e0" stroke="#999999" points="68.05,-74 17.05,-74 17.05,-55 68.05,-55 68.05,-74"/>
<text text-anchor="middle" x="42.55" y="-62" font-family="Helvetica,sans-Serif" font-size="10.00">math.h</text>
</a>
</g>
</g>
<!-- Node1&#45;&gt;Node3 -->
<g id="edge2_Node000001_Node000003" class="edge">
<title>Node1&#45;&gt;Node3</title>
<g id="a_edge2_Node000001_Node000003"><a xlink:title=" ">
<path fill="none" stroke="#63b8ff" d="M131.45,-109.95C111.23,-99.84 87.07,-87.76 69.05,-78.75"/>
<polygon fill="#63b8ff" stroke="#63b8ff" points="70.24,-75.43 59.73,-74.09 67.11,-81.69 70.24,-75.43"/>
</a>
</g>
</g>
<!-- Node4 -->
<g id="Node000004" class="node">
<title>Node4</title>
<g id="a_Node000004"><a xlink:title=" ">
<polygon fill="#e0e0e0" stroke="#999999" points="411.55,-19 349.55,-19 349.55,0 411.55,0 411.55,-19"/>
<text text-anchor="middle" x="380.55" y="-7" font-family="Helvetica,sans-Serif" font-size="10.00">stdbool.h</text>
</a>
</g>
</g>
<!-- Node1&#45;&gt;Node4 -->
<g id="edge3_Node000001_Node000004" class="edge">
<title>Node1&#45;&gt;Node4</title>
<g id="a_edge3_Node000001_Node000004"><a xlink:title=" ">
<path fill="none" stroke="#63b8ff" d="M249.5,-123.58C287.5,-116.85 331.09,-102.85 360.55,-74 372.54,-62.26 377.36,-43.41 379.29,-29.29"/>
<polygon fill="#63b8ff" stroke="#63b8ff" points="382.79,-29.51 380.3,-19.21 375.82,-28.81 382.79,-29.51"/>
</a>
</g>
</g>
<!-- Node5 -->
<g id="Node000005" class="node">
<title>Node5</title>
<g id="a_Node000005"><a xlink:href="no__os__spi_8h.html" target="_top" xlink:title="Header file of SPI Interface.">
<polygon fill="white" stroke="#666666" points="160.55,-74 86.55,-74 86.55,-55 160.55,-55 160.55,-74"/>
<text text-anchor="middle" x="123.55" y="-62" font-family="Helvetica,sans-Serif" font-size="10.00">no_os_spi.h</text>
</a>
</g>
</g>
<!-- Node1&#45;&gt;Node5 -->
<g id="edge4_Node000001_Node000005" class="edge">
<title>Node1&#45;&gt;Node5</title>
<g id="a_edge4_Node000001_Node000005"><a xlink:title=" ">
<path fill="none" stroke="#63b8ff" d="M156.19,-109.95C149.77,-101.2 142.27,-90.99 136.07,-82.56"/>
<polygon fill="#63b8ff" stroke="#63b8ff" points="138.72,-80.25 129.98,-74.26 133.08,-84.39 138.72,-80.25"/>
</a>
</g>
</g>
<!-- Node6 -->
<g id="Node000006" class="node">
<title>Node6</title>
<g id="a_Node000006"><a xlink:href="no__os__gpio_8h.html" target="_top" xlink:title="Header file of GPIO Interface.">
<polygon fill="white" stroke="#666666" points="258.55,-74 178.55,-74 178.55,-55 258.55,-55 258.55,-74"/>
<text text-anchor="middle" x="218.55" y="-62" font-family="Helvetica,sans-Serif" font-size="10.00">no_os_gpio.h</text>
</a>
</g>
</g>
<!-- Node1&#45;&gt;Node6 -->
<g id="edge6_Node000001_Node000006" class="edge">
<title>Node1&#45;&gt;Node6</title>
<g id="a_edge6_Node000001_Node000006"><a xlink:title=" ">
<path fill="none" stroke="#63b8ff" d="M185.21,-109.95C191.84,-101.11 199.6,-90.77 205.96,-82.29"/>
<polygon fill="#63b8ff" stroke="#63b8ff" points="208.78,-84.36 211.98,-74.26 203.18,-80.16 208.78,-84.36"/>
</a>
</g>
</g>
<!-- Node7 -->
<g id="Node000007" class="node">
<title>Node7</title>
<g id="a_Node000007"><a xlink:href="no__os__util_8h.html" target="_top" xlink:title="Header file of utility functions.">
<polygon fill="white" stroke="#666666" points="352.05,-74 277.05,-74 277.05,-55 352.05,-55 352.05,-74"/>
<text text-anchor="middle" x="314.55" y="-62" font-family="Helvetica,sans-Serif" font-size="10.00">no_os_util.h</text>
</a>
</g>
</g>
<!-- Node1&#45;&gt;Node7 -->
<g id="edge8_Node000001_Node000007" class="edge">
<title>Node1&#45;&gt;Node7</title>
<g id="a_edge8_Node000001_Node000007"><a xlink:title=" ">
<path fill="none" stroke="#63b8ff" d="M214.54,-109.95C237.71,-99.65 265.47,-87.31 285.85,-78.25"/>
<polygon fill="#63b8ff" stroke="#63b8ff" points="287.5,-81.35 295.22,-74.09 284.66,-74.95 287.5,-81.35"/>
</a>
</g>
</g>
<!-- Node5&#45;&gt;Node2 -->
<g id="edge5_Node000005_Node000002" class="edge">
<title>Node5&#45;&gt;Node2</title>
<g id="a_edge5_Node000005_Node000002"><a xlink:title=" ">
<path fill="none" stroke="#63b8ff" d="M131.48,-54.75C138.4,-47.11 148.62,-35.82 157,-26.56"/>
<polygon fill="#63b8ff" stroke="#63b8ff" points="159.65,-28.85 163.77,-19.09 154.46,-24.15 159.65,-28.85"/>
</a>
</g>
</g>
<!-- Node6&#45;&gt;Node2 -->
<g id="edge7_Node000006_Node000002" class="edge">
<title>Node6&#45;&gt;Node2</title>
<g id="a_edge7_Node000006_Node000002"><a xlink:title=" ">
<path fill="none" stroke="#63b8ff" d="M210.79,-54.75C204.08,-47.18 194.21,-36.05 186.04,-26.84"/>
<polygon fill="#63b8ff" stroke="#63b8ff" points="188.42,-24.25 179.17,-19.09 183.18,-28.89 188.42,-24.25"/>
</a>
</g>
</g>
<!-- Node7&#45;&gt;Node2 -->
<g id="edge9_Node000007_Node000002" class="edge">
<title>Node7&#45;&gt;Node2</title>
<g id="a_edge9_Node000007_Node000002"><a xlink:title=" ">
<path fill="none" stroke="#63b8ff" d="M291.57,-54.98C268.05,-46.27 231.26,-32.63 204.61,-22.75"/>
<polygon fill="#63b8ff" stroke="#63b8ff" points="205.54,-19.36 194.94,-19.17 203.1,-25.93 205.54,-19.36"/>
</a>
</g>
</g>
<!-- Node7&#45;&gt;Node4 -->
<g id="edge11_Node000007_Node000004" class="edge">
<title>Node7&#45;&gt;Node4</title>
<g id="a_edge11_Node000007_Node000004"><a xlink:title=" ">
<path fill="none" stroke="#63b8ff" d="M325.15,-54.98C335.01,-47.07 349.9,-35.11 361.76,-25.58"/>
<polygon fill="#63b8ff" stroke="#63b8ff" points="364.15,-28.16 369.75,-19.17 359.76,-22.7 364.15,-28.16"/>
</a>
</g>
</g>
<!-- Node8 -->
<g id="Node000008" class="node">
<title>Node8</title>
<g id="a_Node000008"><a xlink:title=" ">
<polygon fill="#e0e0e0" stroke="#999999" points="331.05,-19 278.05,-19 278.05,0 331.05,0 331.05,-19"/>
<text text-anchor="middle" x="304.55" y="-7" font-family="Helvetica,sans-Serif" font-size="10.00">stdlib.h</text>
</a>
</g>
</g>
<!-- Node7&#45;&gt;Node8 -->
<g id="edge10_Node000007_Node000008" class="edge">
<title>Node7&#45;&gt;Node8</title>
<g id="a_edge10_Node000007_Node000008"><a xlink:title=" ">
<path fill="none" stroke="#63b8ff" d="M312.9,-54.75C311.59,-47.8 309.71,-37.85 308.07,-29.13"/>
<polygon fill="#63b8ff" stroke="#63b8ff" points="311.46,-28.27 306.17,-19.09 304.59,-29.56 311.46,-28.27"/>
</a>
</g>
</g>
</g>
</svg>
