<?xml version="1.0" encoding="UTF-8" standalone="no"?>
<!DOCTYPE svg PUBLIC "-//W3C//DTD SVG 1.1//EN"
 "http://www.w3.org/Graphics/SVG/1.1/DTD/svg11.dtd">
<!-- Generated by graphviz version 2.43.0 (0)
 -->
<!-- Title: /home/runner/work/no&#45;OS/no&#45;OS/drivers/dac/max22017/max22017.c Pages: 1 -->
<svg width="653pt" height="214pt"
 viewBox="0.00 0.00 653.19 214.00" xmlns="http://www.w3.org/2000/svg" xmlns:xlink="http://www.w3.org/1999/xlink">
<g id="graph0" class="graph" transform="scale(1 1) rotate(0) translate(4 210)">
<title>/home/runner/work/no&#45;OS/no&#45;OS/drivers/dac/max22017/max22017.c</title>
<!-- Node1 -->
<g id="Node000001" class="node">
<title>Node1</title>
<g id="a_Node000001"><a xlink:title="Source file of MAX22017 Driver.">
<polygon fill="#999999" stroke="#666666" points="330.69,-206 196.69,-206 196.69,-165 330.69,-165 330.69,-206"/>
<text text-anchor="start" x="204.69" y="-194" font-family="Helvetica,sans-Serif" font-size="10.00">/home/runner/work/no</text>
<text text-anchor="start" x="204.69" y="-183" font-family="Helvetica,sans-Serif" font-size="10.00">&#45;OS/no&#45;OS/drivers/dac</text>
<text text-anchor="middle" x="263.69" y="-172" font-family="Helvetica,sans-Serif" font-size="10.00">/max22017/max22017.c</text>
</a>
</g>
</g>
<!-- Node2 -->
<g id="Node000002" class="node">
<title>Node2</title>
<g id="a_Node000002"><a xlink:title=" ">
<polygon fill="#e0e0e0" stroke="#999999" points="120.19,-19 67.19,-19 67.19,0 120.19,0 120.19,-19"/>
<text text-anchor="middle" x="93.69" y="-7" font-family="Helvetica,sans-Serif" font-size="10.00">stdlib.h</text>
</a>
</g>
</g>
<!-- Node1&#45;&gt;Node2 -->
<g id="edge1_Node000001_Node000002" class="edge">
<title>Node1&#45;&gt;Node2</title>
<g id="a_edge1_Node000001_Node000002"><a xlink:title=" ">
<path fill="none" stroke="#63b8ff" d="M196.48,-180.42C149.68,-174.71 87.81,-161.12 42.69,-129 12.9,-107.79 -12.39,-86.2 6.69,-55 17.72,-36.97 38.63,-25.95 57.18,-19.38"/>
<polygon fill="#63b8ff" stroke="#63b8ff" points="58.44,-22.66 66.89,-16.26 56.29,-15.99 58.44,-22.66"/>
</a>
</g>
</g>
<!-- Node3 -->
<g id="Node000003" class="node">
<title>Node3</title>
<g id="a_Node000003"><a xlink:title=" ">
<polygon fill="#e0e0e0" stroke="#999999" points="516.19,-129 463.19,-129 463.19,-110 516.19,-110 516.19,-129"/>
<text text-anchor="middle" x="489.69" y="-117" font-family="Helvetica,sans-Serif" font-size="10.00">string.h</text>
</a>
</g>
</g>
<!-- Node1&#45;&gt;Node3 -->
<g id="edge2_Node000001_Node000003" class="edge">
<title>Node1&#45;&gt;Node3</title>
<g id="a_edge2_Node000001_Node000003"><a xlink:title=" ">
<path fill="none" stroke="#63b8ff" d="M330.89,-165.47C370.98,-154.12 420.33,-140.14 453.28,-130.81"/>
<polygon fill="#63b8ff" stroke="#63b8ff" points="454.28,-134.17 462.95,-128.07 452.37,-127.43 454.28,-134.17"/>
</a>
</g>
</g>
<!-- Node4 -->
<g id="Node000004" class="node">
<title>Node4</title>
<g id="a_Node000004"><a xlink:href="max22017_8h.html" target="_top" xlink:title="Header file of MAX22017 Driver.">
<polygon fill="white" stroke="#666666" points="302.19,-129 225.19,-129 225.19,-110 302.19,-110 302.19,-129"/>
<text text-anchor="middle" x="263.69" y="-117" font-family="Helvetica,sans-Serif" font-size="10.00">max22017.h</text>
</a>
</g>
</g>
<!-- Node1&#45;&gt;Node4 -->
<g id="edge3_Node000001_Node000004" class="edge">
<title>Node1&#45;&gt;Node4</title>
<g id="a_edge3_Node000001_Node000004"><a xlink:title=" ">
<path fill="none" stroke="#63b8ff" d="M263.69,-164.95C263.69,-156.85 263.69,-147.5 263.69,-139.47"/>
<polygon fill="#63b8ff" stroke="#63b8ff" points="267.19,-139.26 263.69,-129.26 260.19,-139.26 267.19,-139.26"/>
</a>
</g>
</g>
<!-- Node9 -->
<g id="Node000009" class="node">
<title>Node9</title>
<g id="a_Node000009"><a xlink:href="no__os__util_8h.html" target="_top" xlink:title="Header file of utility functions.">
<polygon fill="white" stroke="#666666" points="197.19,-74 122.19,-74 122.19,-55 197.19,-55 197.19,-74"/>
<text text-anchor="middle" x="159.69" y="-62" font-family="Helvetica,sans-Serif" font-size="10.00">no_os_util.h</text>
</a>
</g>
</g>
<!-- Node1&#45;&gt;Node9 -->
<g id="edge16_Node000001_Node000009" class="edge">
<title>Node1&#45;&gt;Node9</title>
<g id="a_edge16_Node000001_Node000009"><a xlink:title=" ">
<path fill="none" stroke="#63b8ff" d="M246.52,-164.85C226.25,-141.65 192.91,-103.51 173.98,-81.85"/>
<polygon fill="#63b8ff" stroke="#63b8ff" points="176.49,-79.4 167.27,-74.18 171.22,-84.01 176.49,-79.4"/>
</a>
</g>
</g>
<!-- Node10 -->
<g id="Node000010" class="node">
<title>Node10</title>
<g id="a_Node000010"><a xlink:href="no__os__error_8h.html" target="_top" xlink:title="Error codes definition.">
<polygon fill="white" stroke="#666666" points="638.69,-129 556.69,-129 556.69,-110 638.69,-110 638.69,-129"/>
<text text-anchor="middle" x="597.69" y="-117" font-family="Helvetica,sans-Serif" font-size="10.00">no_os_error.h</text>
</a>
</g>
</g>
<!-- Node1&#45;&gt;Node10 -->
<g id="edge14_Node000001_Node000010" class="edge">
<title>Node1&#45;&gt;Node10</title>
<g id="a_edge14_Node000001_Node000010"><a xlink:title=" ">
<path fill="none" stroke="#63b8ff" d="M330.88,-171.63C394.5,-159.44 488.63,-141.4 546.41,-130.33"/>
<polygon fill="#63b8ff" stroke="#63b8ff" points="547.25,-133.73 556.41,-128.41 545.93,-126.85 547.25,-133.73"/>
</a>
</g>
</g>
<!-- Node12 -->
<g id="Node000012" class="node">
<title>Node12</title>
<g id="a_Node000012"><a xlink:href="no__os__alloc_8h.html" target="_top" xlink:title=" ">
<polygon fill="white" stroke="#666666" points="135.19,-129 52.19,-129 52.19,-110 135.19,-110 135.19,-129"/>
<text text-anchor="middle" x="93.69" y="-117" font-family="Helvetica,sans-Serif" font-size="10.00">no_os_alloc.h</text>
</a>
</g>
</g>
<!-- Node1&#45;&gt;Node12 -->
<g id="edge17_Node000001_Node000012" class="edge">
<title>Node1&#45;&gt;Node12</title>
<g id="a_edge17_Node000001_Node000012"><a xlink:title=" ">
<path fill="none" stroke="#63b8ff" d="M211.76,-164.95C183.79,-154.42 150.15,-141.75 125.94,-132.64"/>
<polygon fill="#63b8ff" stroke="#63b8ff" points="127.11,-129.34 116.52,-129.09 124.64,-135.89 127.11,-129.34"/>
</a>
</g>
</g>
<!-- Node14 -->
<g id="Node000014" class="node">
<title>Node14</title>
<g id="a_Node000014"><a xlink:href="no__os__crc8_8h.html" target="_top" xlink:title="Header file of CRC&#45;8 computation.">
<polygon fill="white" stroke="#666666" points="444.69,-129 364.69,-129 364.69,-110 444.69,-110 444.69,-129"/>
<text text-anchor="middle" x="404.69" y="-117" font-family="Helvetica,sans-Serif" font-size="10.00">no_os_crc8.h</text>
</a>
</g>
</g>
<!-- Node1&#45;&gt;Node14 -->
<g id="edge20_Node000001_Node000014" class="edge">
<title>Node1&#45;&gt;Node14</title>
<g id="a_edge20_Node000001_Node000014"><a xlink:title=" ">
<path fill="none" stroke="#63b8ff" d="M306.76,-164.95C329.45,-154.65 356.63,-142.31 376.6,-133.25"/>
<polygon fill="#63b8ff" stroke="#63b8ff" points="378.1,-136.41 385.76,-129.09 375.21,-130.04 378.1,-136.41"/>
</a>
</g>
</g>
<!-- Node5 -->
<g id="Node000005" class="node">
<title>Node5</title>
<g id="a_Node000005"><a xlink:title=" ">
<polygon fill="#e0e0e0" stroke="#999999" points="358.19,-19 305.19,-19 305.19,0 358.19,0 358.19,-19"/>
<text text-anchor="middle" x="331.69" y="-7" font-family="Helvetica,sans-Serif" font-size="10.00">stdint.h</text>
</a>
</g>
</g>
<!-- Node4&#45;&gt;Node5 -->
<g id="edge4_Node000004_Node000005" class="edge">
<title>Node4&#45;&gt;Node5</title>
<g id="a_edge4_Node000004_Node000005"><a xlink:title=" ">
<path fill="none" stroke="#63b8ff" d="M264.8,-109.67C266.75,-96.8 271.65,-72.53 282.69,-55 289.89,-43.57 300.81,-33.25 310.52,-25.44"/>
<polygon fill="#63b8ff" stroke="#63b8ff" points="312.8,-28.1 318.61,-19.25 308.54,-22.54 312.8,-28.1"/>
</a>
</g>
</g>
<!-- Node6 -->
<g id="Node000006" class="node">
<title>Node6</title>
<g id="a_Node000006"><a xlink:title=" ">
<polygon fill="#e0e0e0" stroke="#999999" points="228.69,-19 166.69,-19 166.69,0 228.69,0 228.69,-19"/>
<text text-anchor="middle" x="197.69" y="-7" font-family="Helvetica,sans-Serif" font-size="10.00">stdbool.h</text>
</a>
</g>
</g>
<!-- Node4&#45;&gt;Node6 -->
<g id="edge5_Node000004_Node000006" class="edge">
<title>Node4&#45;&gt;Node6</title>
<g id="a_edge5_Node000004_Node000006"><a xlink:title=" ">
<path fill="none" stroke="#63b8ff" d="M258.29,-109.66C247.36,-91.77 222.45,-51 208.2,-27.69"/>
<polygon fill="#63b8ff" stroke="#63b8ff" points="211.19,-25.87 202.98,-19.16 205.21,-29.52 211.19,-25.87"/>
</a>
</g>
</g>
<!-- Node7 -->
<g id="Node000007" class="node">
<title>Node7</title>
<g id="a_Node000007"><a xlink:href="no__os__gpio_8h.html" target="_top" xlink:title="Header file of GPIO Interface.">
<polygon fill="white" stroke="#666666" points="371.69,-74 291.69,-74 291.69,-55 371.69,-55 371.69,-74"/>
<text text-anchor="middle" x="331.69" y="-62" font-family="Helvetica,sans-Serif" font-size="10.00">no_os_gpio.h</text>
</a>
</g>
</g>
<!-- Node4&#45;&gt;Node7 -->
<g id="edge6_Node000004_Node000007" class="edge">
<title>Node4&#45;&gt;Node7</title>
<g id="a_edge6_Node000004_Node000007"><a xlink:title=" ">
<path fill="none" stroke="#63b8ff" d="M274.62,-109.98C284.77,-102.07 300.12,-90.11 312.34,-80.58"/>
<polygon fill="#63b8ff" stroke="#63b8ff" points="314.83,-83.08 320.57,-74.17 310.53,-77.56 314.83,-83.08"/>
</a>
</g>
</g>
<!-- Node8 -->
<g id="Node000008" class="node">
<title>Node8</title>
<g id="a_Node000008"><a xlink:href="no__os__spi_8h.html" target="_top" xlink:title="Header file of SPI Interface.">
<polygon fill="white" stroke="#666666" points="463.69,-74 389.69,-74 389.69,-55 463.69,-55 463.69,-74"/>
<text text-anchor="middle" x="426.69" y="-62" font-family="Helvetica,sans-Serif" font-size="10.00">no_os_spi.h</text>
</a>
</g>
</g>
<!-- Node4&#45;&gt;Node8 -->
<g id="edge8_Node000004_Node000008" class="edge">
<title>Node4&#45;&gt;Node8</title>
<g id="a_edge8_Node000004_Node000008"><a xlink:title=" ">
<path fill="none" stroke="#63b8ff" d="M289.88,-109.98C317.13,-101.13 359.99,-87.19 390.48,-77.28"/>
<polygon fill="#63b8ff" stroke="#63b8ff" points="391.87,-80.5 400.3,-74.08 389.71,-73.85 391.87,-80.5"/>
</a>
</g>
</g>
<!-- Node4&#45;&gt;Node9 -->
<g id="edge10_Node000004_Node000009" class="edge">
<title>Node4&#45;&gt;Node9</title>
<g id="a_edge10_Node000004_Node000009"><a xlink:title=" ">
<path fill="none" stroke="#63b8ff" d="M246.98,-109.98C230.48,-101.57 204.99,-88.59 185.81,-78.81"/>
<polygon fill="#63b8ff" stroke="#63b8ff" points="187.21,-75.59 176.71,-74.17 184.03,-81.83 187.21,-75.59"/>
</a>
</g>
</g>
<!-- Node7&#45;&gt;Node5 -->
<g id="edge7_Node000007_Node000005" class="edge">
<title>Node7&#45;&gt;Node5</title>
<g id="a_edge7_Node000007_Node000005"><a xlink:title=" ">
<path fill="none" stroke="#63b8ff" d="M331.69,-54.75C331.69,-47.8 331.69,-37.85 331.69,-29.13"/>
<polygon fill="#63b8ff" stroke="#63b8ff" points="335.19,-29.09 331.69,-19.09 328.19,-29.09 335.19,-29.09"/>
</a>
</g>
</g>
<!-- Node8&#45;&gt;Node5 -->
<g id="edge9_Node000008_Node000005" class="edge">
<title>Node8&#45;&gt;Node5</title>
<g id="a_edge9_Node000008_Node000005"><a xlink:title=" ">
<path fill="none" stroke="#63b8ff" d="M411.43,-54.98C396.56,-46.69 373.71,-33.94 356.28,-24.22"/>
<polygon fill="#63b8ff" stroke="#63b8ff" points="357.67,-20.99 347.23,-19.17 354.26,-27.1 357.67,-20.99"/>
</a>
</g>
</g>
<!-- Node9&#45;&gt;Node2 -->
<g id="edge12_Node000009_Node000002" class="edge">
<title>Node9&#45;&gt;Node2</title>
<g id="a_edge12_Node000009_Node000002"><a xlink:title=" ">
<path fill="none" stroke="#63b8ff" d="M149.09,-54.98C139.24,-47.07 124.34,-35.11 112.48,-25.58"/>
<polygon fill="#63b8ff" stroke="#63b8ff" points="114.48,-22.7 104.49,-19.17 110.1,-28.16 114.48,-22.7"/>
</a>
</g>
</g>
<!-- Node9&#45;&gt;Node5 -->
<g id="edge11_Node000009_Node000005" class="edge">
<title>Node9&#45;&gt;Node5</title>
<g id="a_edge11_Node000009_Node000005"><a xlink:title=" ">
<path fill="none" stroke="#63b8ff" d="M187.33,-54.98C216.55,-45.98 262.79,-31.73 295.04,-21.8"/>
<polygon fill="#63b8ff" stroke="#63b8ff" points="296.45,-25.02 304.98,-18.73 294.39,-18.33 296.45,-25.02"/>
</a>
</g>
</g>
<!-- Node9&#45;&gt;Node6 -->
<g id="edge13_Node000009_Node000006" class="edge">
<title>Node9&#45;&gt;Node6</title>
<g id="a_edge13_Node000009_Node000006"><a xlink:title=" ">
<path fill="none" stroke="#63b8ff" d="M165.97,-54.75C171.28,-47.34 179.05,-36.5 185.57,-27.41"/>
<polygon fill="#63b8ff" stroke="#63b8ff" points="188.55,-29.26 191.53,-19.09 182.86,-25.18 188.55,-29.26"/>
</a>
</g>
</g>
<!-- Node11 -->
<g id="Node000011" class="node">
<title>Node11</title>
<g id="a_Node000011"><a xlink:href="errno_8h.html" target="_top" xlink:title="Error macro definition for ARM Compiler.">
<polygon fill="white" stroke="#666666" points="645.19,-74 594.19,-74 594.19,-55 645.19,-55 645.19,-74"/>
<text text-anchor="middle" x="619.69" y="-62" font-family="Helvetica,sans-Serif" font-size="10.00">errno.h</text>
</a>
</g>
</g>
<!-- Node10&#45;&gt;Node11 -->
<g id="edge15_Node000010_Node000011" class="edge">
<title>Node10&#45;&gt;Node11</title>
<g id="a_edge15_Node000010_Node000011"><a xlink:title=" ">
<path fill="none" stroke="#63b8ff" d="M601.33,-109.75C604.27,-102.65 608.53,-92.4 612.2,-83.56"/>
<polygon fill="#63b8ff" stroke="#63b8ff" points="615.53,-84.67 616.13,-74.09 609.06,-81.98 615.53,-84.67"/>
</a>
</g>
</g>
<!-- Node12&#45;&gt;Node2 -->
<g id="edge19_Node000012_Node000002" class="edge">
<title>Node12&#45;&gt;Node2</title>
<g id="a_edge19_Node000012_Node000002"><a xlink:title=" ">
<path fill="none" stroke="#63b8ff" d="M93.69,-109.66C93.69,-92.17 93.69,-52.8 93.69,-29.27"/>
<polygon fill="#63b8ff" stroke="#63b8ff" points="97.19,-29.16 93.69,-19.16 90.19,-29.16 97.19,-29.16"/>
</a>
</g>
</g>
<!-- Node13 -->
<g id="Node000013" class="node">
<title>Node13</title>
<g id="a_Node000013"><a xlink:title=" ">
<polygon fill="#e0e0e0" stroke="#999999" points="65.69,-74 15.69,-74 15.69,-55 65.69,-55 65.69,-74"/>
<text text-anchor="middle" x="40.69" y="-62" font-family="Helvetica,sans-Serif" font-size="10.00">stdio.h</text>
</a>
</g>
</g>
<!-- Node12&#45;&gt;Node13 -->
<g id="edge18_Node000012_Node000013" class="edge">
<title>Node12&#45;&gt;Node13</title>
<g id="a_edge18_Node000012_Node000013"><a xlink:title=" ">
<path fill="none" stroke="#63b8ff" d="M84.94,-109.75C77.22,-102.03 65.79,-90.6 56.48,-81.28"/>
<polygon fill="#63b8ff" stroke="#63b8ff" points="58.83,-78.69 49.28,-74.09 53.88,-83.64 58.83,-78.69"/>
</a>
</g>
</g>
<!-- Node14&#45;&gt;Node5 -->
<g id="edge21_Node000014_Node000005" class="edge">
<title>Node14&#45;&gt;Node5</title>
<g id="a_edge21_Node000014_Node000005"><a xlink:title=" ">
<path fill="none" stroke="#63b8ff" d="M426.71,-109.91C452.35,-98.61 489.21,-77.54 472.69,-55 449,-22.68 401.78,-13.23 368.52,-10.78"/>
<polygon fill="#63b8ff" stroke="#63b8ff" points="368.45,-7.27 358.27,-10.21 368.06,-14.26 368.45,-7.27"/>
</a>
</g>
</g>
<!-- Node15 -->
<g id="Node000015" class="node">
<title>Node15</title>
<g id="a_Node000015"><a xlink:title=" ">
<polygon fill="#e0e0e0" stroke="#999999" points="575.69,-74 519.69,-74 519.69,-55 575.69,-55 575.69,-74"/>
<text text-anchor="middle" x="547.69" y="-62" font-family="Helvetica,sans-Serif" font-size="10.00">stddef.h</text>
</a>
</g>
</g>
<!-- Node14&#45;&gt;Node15 -->
<g id="edge22_Node000014_Node000015" class="edge">
<title>Node14&#45;&gt;Node15</title>
<g id="a_edge22_Node000014_Node000015"><a xlink:title=" ">
<path fill="none" stroke="#63b8ff" d="M427.67,-109.98C451.19,-101.27 487.98,-87.63 514.63,-77.75"/>
<polygon fill="#63b8ff" stroke="#63b8ff" points="516.14,-80.93 524.3,-74.17 513.71,-74.36 516.14,-80.93"/>
</a>
</g>
</g>
</g>
</svg>
