<?xml version="1.0" encoding="UTF-8" standalone="no"?>
<!DOCTYPE svg PUBLIC "-//W3C//DTD SVG 1.1//EN"
 "http://www.w3.org/Graphics/SVG/1.1/DTD/svg11.dtd">
<!-- Generated by graphviz version 2.43.0 (0)
 -->
<!-- Title: /home/runner/work/no&#45;OS/no&#45;OS/drivers/platform/maxim/max32690/maxim_i2c.c Pages: 1 -->
<svg width="692pt" height="214pt"
 viewBox="0.00 0.00 691.68 214.00" xmlns="http://www.w3.org/2000/svg" xmlns:xlink="http://www.w3.org/1999/xlink">
<g id="graph0" class="graph" transform="scale(1 1) rotate(0) translate(4 210)">
<title>/home/runner/work/no&#45;OS/no&#45;OS/drivers/platform/maxim/max32690/maxim_i2c.c</title>
<!-- Node1 -->
<g id="Node000001" class="node">
<title>Node1</title>
<g id="a_Node000001"><a xlink:title="Implementation of max32690 I2C driver.">
<polygon fill="#999999" stroke="#666666" points="402.68,-206 228.68,-206 228.68,-165 402.68,-165 402.68,-206"/>
<text text-anchor="start" x="236.68" y="-194" font-family="Helvetica,sans-Serif" font-size="10.00">/home/runner/work/no</text>
<text text-anchor="start" x="236.68" y="-183" font-family="Helvetica,sans-Serif" font-size="10.00">&#45;OS/no&#45;OS/drivers/platform</text>
<text text-anchor="middle" x="315.68" y="-172" font-family="Helvetica,sans-Serif" font-size="10.00">/maxim/max32690/maxim_i2c.c</text>
</a>
</g>
</g>
<!-- Node2 -->
<g id="Node000002" class="node">
<title>Node2</title>
<g id="a_Node000002"><a xlink:title=" ">
<polygon fill="#e0e0e0" stroke="#999999" points="157.18,-19 104.18,-19 104.18,0 157.18,0 157.18,-19"/>
<text text-anchor="middle" x="130.68" y="-7" font-family="Helvetica,sans-Serif" font-size="10.00">stdint.h</text>
</a>
</g>
</g>
<!-- Node1&#45;&gt;Node2 -->
<g id="edge1_Node000001_Node000002" class="edge">
<title>Node1&#45;&gt;Node2</title>
<g id="a_edge1_Node000001_Node000002"><a xlink:title=" ">
<path fill="none" stroke="#63b8ff" d="M228.64,-179.32C151.79,-172.84 47.7,-158.72 19.68,-129 -2.98,-104.96 -6.11,-82.17 12.68,-55 30.85,-28.73 66.62,-17.95 94.04,-13.54"/>
<polygon fill="#63b8ff" stroke="#63b8ff" points="94.66,-16.98 104.08,-12.14 93.7,-10.05 94.66,-16.98"/>
</a>
</g>
</g>
<!-- Node3 -->
<g id="Node000003" class="node">
<title>Node3</title>
<g id="a_Node000003"><a xlink:title=" ">
<polygon fill="#e0e0e0" stroke="#999999" points="163.18,-74 110.18,-74 110.18,-55 163.18,-55 163.18,-74"/>
<text text-anchor="middle" x="136.68" y="-62" font-family="Helvetica,sans-Serif" font-size="10.00">stdlib.h</text>
</a>
</g>
</g>
<!-- Node1&#45;&gt;Node3 -->
<g id="edge2_Node000001_Node000003" class="edge">
<title>Node1&#45;&gt;Node3</title>
<g id="a_edge2_Node000001_Node000003"><a xlink:title=" ">
<path fill="none" stroke="#63b8ff" d="M228.65,-169.79C202.61,-161.59 175.91,-148.83 156.68,-129 145,-116.95 140.13,-98.15 138.11,-84.12"/>
<polygon fill="#63b8ff" stroke="#63b8ff" points="141.58,-83.68 137.02,-74.12 134.62,-84.44 141.58,-83.68"/>
</a>
</g>
</g>
<!-- Node4 -->
<g id="Node000004" class="node">
<title>Node4</title>
<g id="a_Node000004"><a xlink:title=" ">
<polygon fill="#e0e0e0" stroke="#999999" points="427.18,-129 374.18,-129 374.18,-110 427.18,-110 427.18,-129"/>
<text text-anchor="middle" x="400.68" y="-117" font-family="Helvetica,sans-Serif" font-size="10.00">string.h</text>
</a>
</g>
</g>
<!-- Node1&#45;&gt;Node4 -->
<g id="edge3_Node000001_Node000004" class="edge">
<title>Node1&#45;&gt;Node4</title>
<g id="a_edge3_Node000001_Node000004"><a xlink:title=" ">
<path fill="none" stroke="#63b8ff" d="M341.64,-164.95C354.25,-155.46 369.15,-144.24 380.83,-135.44"/>
<polygon fill="#63b8ff" stroke="#63b8ff" points="383.16,-138.07 389.04,-129.26 378.95,-132.48 383.16,-138.07"/>
</a>
</g>
</g>
<!-- Node5 -->
<g id="Node000005" class="node">
<title>Node5</title>
<g id="a_Node000005"><a xlink:title=" ">
<polygon fill="#e0e0e0" stroke="#999999" points="485.68,-129 445.68,-129 445.68,-110 485.68,-110 485.68,-129"/>
<text text-anchor="middle" x="465.68" y="-117" font-family="Helvetica,sans-Serif" font-size="10.00">i2c.h</text>
</a>
</g>
</g>
<!-- Node1&#45;&gt;Node5 -->
<g id="edge4_Node000001_Node000005" class="edge">
<title>Node1&#45;&gt;Node5</title>
<g id="a_edge4_Node000001_Node000005"><a xlink:title=" ">
<path fill="none" stroke="#63b8ff" d="M361.5,-164.95C385.75,-154.6 414.81,-142.2 436.08,-133.13"/>
<polygon fill="#63b8ff" stroke="#63b8ff" points="437.72,-136.24 445.54,-129.09 434.97,-129.8 437.72,-136.24"/>
</a>
</g>
</g>
<!-- Node6 -->
<g id="Node000006" class="node">
<title>Node6</title>
<g id="a_Node000006"><a xlink:href="no__os__error_8h.html" target="_top" xlink:title="Error codes definition.">
<polygon fill="white" stroke="#666666" points="585.68,-129 503.68,-129 503.68,-110 585.68,-110 585.68,-129"/>
<text text-anchor="middle" x="544.68" y="-117" font-family="Helvetica,sans-Serif" font-size="10.00">no_os_error.h</text>
</a>
</g>
</g>
<!-- Node1&#45;&gt;Node6 -->
<g id="edge5_Node000001_Node000006" class="edge">
<title>Node1&#45;&gt;Node6</title>
<g id="a_edge5_Node000001_Node000006"><a xlink:title=" ">
<path fill="none" stroke="#63b8ff" d="M385.63,-164.95C424.61,-154.06 471.75,-140.88 504.54,-131.72"/>
<polygon fill="#63b8ff" stroke="#63b8ff" points="505.55,-135.07 514.24,-129.01 503.66,-128.33 505.55,-135.07"/>
</a>
</g>
</g>
<!-- Node8 -->
<g id="Node000008" class="node">
<title>Node8</title>
<g id="a_Node000008"><a xlink:href="no__os__util_8h.html" target="_top" xlink:title="Header file of utility functions.">
<polygon fill="white" stroke="#666666" points="103.18,-129 28.18,-129 28.18,-110 103.18,-110 103.18,-129"/>
<text text-anchor="middle" x="65.68" y="-117" font-family="Helvetica,sans-Serif" font-size="10.00">no_os_util.h</text>
</a>
</g>
</g>
<!-- Node1&#45;&gt;Node8 -->
<g id="edge7_Node000001_Node000008" class="edge">
<title>Node1&#45;&gt;Node8</title>
<g id="a_edge7_Node000001_Node000008"><a xlink:title=" ">
<path fill="none" stroke="#63b8ff" d="M239.31,-164.95C196.58,-154.01 144.85,-140.77 109.03,-131.6"/>
<polygon fill="#63b8ff" stroke="#63b8ff" points="109.47,-128.1 98.91,-129.01 107.73,-134.88 109.47,-128.1"/>
</a>
</g>
</g>
<!-- Node10 -->
<g id="Node000010" class="node">
<title>Node10</title>
<g id="a_Node000010"><a xlink:href="max32690_2maxim__i2c_8h.html" target="_top" xlink:title=" ">
<polygon fill="white" stroke="#666666" points="355.68,-129 275.68,-129 275.68,-110 355.68,-110 355.68,-129"/>
<text text-anchor="middle" x="315.68" y="-117" font-family="Helvetica,sans-Serif" font-size="10.00">maxim_i2c.h</text>
</a>
</g>
</g>
<!-- Node1&#45;&gt;Node10 -->
<g id="edge11_Node000001_Node000010" class="edge">
<title>Node1&#45;&gt;Node10</title>
<g id="a_edge11_Node000001_Node000010"><a xlink:title=" ">
<path fill="none" stroke="#63b8ff" d="M315.68,-164.95C315.68,-156.85 315.68,-147.5 315.68,-139.47"/>
<polygon fill="#63b8ff" stroke="#63b8ff" points="319.18,-139.26 315.68,-129.26 312.18,-139.26 319.18,-139.26"/>
</a>
</g>
</g>
<!-- Node15 -->
<g id="Node000015" class="node">
<title>Node15</title>
<g id="a_Node000015"><a xlink:title=" ">
<polygon fill="#e0e0e0" stroke="#999999" points="683.68,-129 603.68,-129 603.68,-110 683.68,-110 683.68,-129"/>
<text text-anchor="middle" x="643.68" y="-117" font-family="Helvetica,sans-Serif" font-size="10.00">mxc_errors.h</text>
</a>
</g>
</g>
<!-- Node1&#45;&gt;Node15 -->
<g id="edge18_Node000001_Node000015" class="edge">
<title>Node1&#45;&gt;Node15</title>
<g id="a_edge18_Node000001_Node000015"><a xlink:title=" ">
<path fill="none" stroke="#63b8ff" d="M402.72,-167.52C463.62,-155.63 542.83,-140.18 593.48,-130.29"/>
<polygon fill="#63b8ff" stroke="#63b8ff" points="594.38,-133.68 603.53,-128.33 593.04,-126.81 594.38,-133.68"/>
</a>
</g>
</g>
<!-- Node16 -->
<g id="Node000016" class="node">
<title>Node16</title>
<g id="a_Node000016"><a xlink:href="no__os__alloc_8h.html" target="_top" xlink:title=" ">
<polygon fill="white" stroke="#666666" points="248.18,-129 165.18,-129 165.18,-110 248.18,-110 248.18,-129"/>
<text text-anchor="middle" x="206.68" y="-117" font-family="Helvetica,sans-Serif" font-size="10.00">no_os_alloc.h</text>
</a>
</g>
</g>
<!-- Node1&#45;&gt;Node16 -->
<g id="edge19_Node000001_Node000016" class="edge">
<title>Node1&#45;&gt;Node16</title>
<g id="a_edge19_Node000001_Node000016"><a xlink:title=" ">
<path fill="none" stroke="#63b8ff" d="M282.38,-164.95C265.48,-155.03 245.36,-143.21 230.1,-134.25"/>
<polygon fill="#63b8ff" stroke="#63b8ff" points="231.71,-131.14 221.31,-129.09 228.16,-137.17 231.71,-131.14"/>
</a>
</g>
</g>
<!-- Node7 -->
<g id="Node000007" class="node">
<title>Node7</title>
<g id="a_Node000007"><a xlink:href="errno_8h.html" target="_top" xlink:title="Error macro definition for ARM Compiler.">
<polygon fill="white" stroke="#666666" points="675.18,-74 624.18,-74 624.18,-55 675.18,-55 675.18,-74"/>
<text text-anchor="middle" x="649.68" y="-62" font-family="Helvetica,sans-Serif" font-size="10.00">errno.h</text>
</a>
</g>
</g>
<!-- Node6&#45;&gt;Node7 -->
<g id="edge6_Node000006_Node000007" class="edge">
<title>Node6&#45;&gt;Node7</title>
<g id="a_edge6_Node000006_Node000007"><a xlink:title=" ">
<path fill="none" stroke="#63b8ff" d="M561.55,-109.98C578.29,-101.54 604.18,-88.47 623.57,-78.68"/>
<polygon fill="#63b8ff" stroke="#63b8ff" points="625.15,-81.8 632.5,-74.17 622,-75.55 625.15,-81.8"/>
</a>
</g>
</g>
<!-- Node8&#45;&gt;Node2 -->
<g id="edge8_Node000008_Node000002" class="edge">
<title>Node8&#45;&gt;Node2</title>
<g id="a_edge8_Node000008_Node000002"><a xlink:title=" ">
<path fill="none" stroke="#63b8ff" d="M51.95,-109.96C34.24,-97.85 7.23,-74.94 20.68,-55 36.97,-30.83 68.86,-19.78 94.13,-14.74"/>
<polygon fill="#63b8ff" stroke="#63b8ff" points="94.9,-18.16 104.14,-12.97 93.68,-11.26 94.9,-18.16"/>
</a>
</g>
</g>
<!-- Node8&#45;&gt;Node3 -->
<g id="edge9_Node000008_Node000003" class="edge">
<title>Node8&#45;&gt;Node3</title>
<g id="a_edge9_Node000008_Node000003"><a xlink:title=" ">
<path fill="none" stroke="#63b8ff" d="M77.09,-109.98C87.79,-102 104.02,-89.88 116.84,-80.31"/>
<polygon fill="#63b8ff" stroke="#63b8ff" points="119.14,-82.96 125.06,-74.17 114.96,-77.35 119.14,-82.96"/>
</a>
</g>
</g>
<!-- Node9 -->
<g id="Node000009" class="node">
<title>Node9</title>
<g id="a_Node000009"><a xlink:title=" ">
<polygon fill="#e0e0e0" stroke="#999999" points="91.68,-74 29.68,-74 29.68,-55 91.68,-55 91.68,-74"/>
<text text-anchor="middle" x="60.68" y="-62" font-family="Helvetica,sans-Serif" font-size="10.00">stdbool.h</text>
</a>
</g>
</g>
<!-- Node8&#45;&gt;Node9 -->
<g id="edge10_Node000008_Node000009" class="edge">
<title>Node8&#45;&gt;Node9</title>
<g id="a_edge10_Node000008_Node000009"><a xlink:title=" ">
<path fill="none" stroke="#63b8ff" d="M64.85,-109.75C64.2,-102.8 63.26,-92.85 62.44,-84.13"/>
<polygon fill="#63b8ff" stroke="#63b8ff" points="65.91,-83.72 61.49,-74.09 58.94,-84.37 65.91,-83.72"/>
</a>
</g>
</g>
<!-- Node10&#45;&gt;Node2 -->
<g id="edge12_Node000010_Node000002" class="edge">
<title>Node10&#45;&gt;Node2</title>
<g id="a_edge12_Node000010_Node000002"><a xlink:title=" ">
<path fill="none" stroke="#63b8ff" d="M307.16,-109.67C293.95,-96.38 267.26,-71.06 240.68,-55 217.59,-41.05 189.34,-29.73 167.25,-22"/>
<polygon fill="#63b8ff" stroke="#63b8ff" points="168.17,-18.61 157.58,-18.7 165.91,-25.24 168.17,-18.61"/>
</a>
</g>
</g>
<!-- Node11 -->
<g id="Node000011" class="node">
<title>Node11</title>
<g id="a_Node000011"><a xlink:title=" ">
<polygon fill="#e0e0e0" stroke="#999999" points="445.68,-74 379.68,-74 379.68,-55 445.68,-55 445.68,-74"/>
<text text-anchor="middle" x="412.68" y="-62" font-family="Helvetica,sans-Serif" font-size="10.00">i2c_regs.h</text>
</a>
</g>
</g>
<!-- Node10&#45;&gt;Node11 -->
<g id="edge13_Node000010_Node000011" class="edge">
<title>Node10&#45;&gt;Node11</title>
<g id="a_edge13_Node000010_Node000011"><a xlink:title=" ">
<path fill="none" stroke="#63b8ff" d="M331.26,-109.98C346.45,-101.69 369.78,-88.94 387.58,-79.22"/>
<polygon fill="#63b8ff" stroke="#63b8ff" points="389.71,-82.04 396.81,-74.17 386.36,-75.89 389.71,-82.04"/>
</a>
</g>
</g>
<!-- Node12 -->
<g id="Node000012" class="node">
<title>Node12</title>
<g id="a_Node000012"><a xlink:title=" ">
<polygon fill="#e0e0e0" stroke="#999999" points="541.18,-74 464.18,-74 464.18,-55 541.18,-55 541.18,-74"/>
<text text-anchor="middle" x="502.68" y="-62" font-family="Helvetica,sans-Serif" font-size="10.00">max32690.h</text>
</a>
</g>
</g>
<!-- Node10&#45;&gt;Node12 -->
<g id="edge14_Node000010_Node000012" class="edge">
<title>Node10&#45;&gt;Node12</title>
<g id="a_edge14_Node000010_Node000012"><a xlink:title=" ">
<path fill="none" stroke="#63b8ff" d="M345.72,-109.98C377.39,-101.01 427.44,-86.82 462.49,-76.89"/>
<polygon fill="#63b8ff" stroke="#63b8ff" points="463.73,-80.18 472.4,-74.08 461.82,-73.44 463.73,-80.18"/>
</a>
</g>
</g>
<!-- Node13 -->
<g id="Node000013" class="node">
<title>Node13</title>
<g id="a_Node000013"><a xlink:href="no__os__i2c_8h.html" target="_top" xlink:title="Header file of I2C Interface.">
<polygon fill="white" stroke="#666666" points="361.68,-74 287.68,-74 287.68,-55 361.68,-55 361.68,-74"/>
<text text-anchor="middle" x="324.68" y="-62" font-family="Helvetica,sans-Serif" font-size="10.00">no_os_i2c.h</text>
</a>
</g>
</g>
<!-- Node10&#45;&gt;Node13 -->
<g id="edge15_Node000010_Node000013" class="edge">
<title>Node10&#45;&gt;Node13</title>
<g id="a_edge15_Node000010_Node000013"><a xlink:title=" ">
<path fill="none" stroke="#63b8ff" d="M317.16,-109.75C318.34,-102.8 320.04,-92.85 321.51,-84.13"/>
<polygon fill="#63b8ff" stroke="#63b8ff" points="325,-84.53 323.22,-74.09 318.1,-83.36 325,-84.53"/>
</a>
</g>
</g>
<!-- Node14 -->
<g id="Node000014" class="node">
<title>Node14</title>
<g id="a_Node000014"><a xlink:title=" ">
<polygon fill="#e0e0e0" stroke="#999999" points="606.18,-74 559.18,-74 559.18,-55 606.18,-55 606.18,-74"/>
<text text-anchor="middle" x="582.68" y="-62" font-family="Helvetica,sans-Serif" font-size="10.00">gpio.h</text>
</a>
</g>
</g>
<!-- Node10&#45;&gt;Node14 -->
<g id="edge17_Node000010_Node000014" class="edge">
<title>Node10&#45;&gt;Node14</title>
<g id="a_edge17_Node000010_Node000014"><a xlink:title=" ">
<path fill="none" stroke="#63b8ff" d="M355.88,-111.25C408.97,-101.62 500.58,-84.79 549.03,-74.22"/>
<polygon fill="#63b8ff" stroke="#63b8ff" points="549.96,-77.6 558.96,-72.01 548.44,-70.77 549.96,-77.6"/>
</a>
</g>
</g>
<!-- Node13&#45;&gt;Node2 -->
<g id="edge16_Node000013_Node000002" class="edge">
<title>Node13&#45;&gt;Node2</title>
<g id="a_edge16_Node000013_Node000002"><a xlink:title=" ">
<path fill="none" stroke="#63b8ff" d="M293.51,-54.98C259.05,-45.57 203.6,-30.42 167.14,-20.46"/>
<polygon fill="#63b8ff" stroke="#63b8ff" points="167.97,-17.06 157.4,-17.8 166.12,-23.81 167.97,-17.06"/>
</a>
</g>
</g>
<!-- Node16&#45;&gt;Node3 -->
<g id="edge21_Node000016_Node000003" class="edge">
<title>Node16&#45;&gt;Node3</title>
<g id="a_edge21_Node000016_Node000003"><a xlink:title=" ">
<path fill="none" stroke="#63b8ff" d="M195.43,-109.98C184.88,-102 168.88,-89.88 156.24,-80.31"/>
<polygon fill="#63b8ff" stroke="#63b8ff" points="158.22,-77.42 148.13,-74.17 153.99,-83 158.22,-77.42"/>
</a>
</g>
</g>
<!-- Node17 -->
<g id="Node000017" class="node">
<title>Node17</title>
<g id="a_Node000017"><a xlink:title=" ">
<polygon fill="#e0e0e0" stroke="#999999" points="231.68,-74 181.68,-74 181.68,-55 231.68,-55 231.68,-74"/>
<text text-anchor="middle" x="206.68" y="-62" font-family="Helvetica,sans-Serif" font-size="10.00">stdio.h</text>
</a>
</g>
</g>
<!-- Node16&#45;&gt;Node17 -->
<g id="edge20_Node000016_Node000017" class="edge">
<title>Node16&#45;&gt;Node17</title>
<g id="a_edge20_Node000016_Node000017"><a xlink:title=" ">
<path fill="none" stroke="#63b8ff" d="M206.68,-109.75C206.68,-102.8 206.68,-92.85 206.68,-84.13"/>
<polygon fill="#63b8ff" stroke="#63b8ff" points="210.18,-84.09 206.68,-74.09 203.18,-84.09 210.18,-84.09"/>
</a>
</g>
</g>
</g>
</svg>
