<?xml version="1.0" encoding="UTF-8" standalone="no"?>
<!DOCTYPE svg PUBLIC "-//W3C//DTD SVG 1.1//EN"
 "http://www.w3.org/Graphics/SVG/1.1/DTD/svg11.dtd">
<!-- Generated by graphviz version 2.43.0 (0)
 -->
<!-- Title: /home/runner/work/no&#45;OS/no&#45;OS/drivers/platform/maxim/max32665/maxim_i2c.c Pages: 1 -->
<svg width="857pt" height="214pt"
 viewBox="0.00 0.00 856.50 214.00" xmlns="http://www.w3.org/2000/svg" xmlns:xlink="http://www.w3.org/1999/xlink">
<g id="graph0" class="graph" transform="scale(1 1) rotate(0) translate(4 210)">
<title>/home/runner/work/no&#45;OS/no&#45;OS/drivers/platform/maxim/max32665/maxim_i2c.c</title>
<!-- Node1 -->
<g id="Node000001" class="node">
<title>Node1</title>
<g id="a_Node000001"><a xlink:title="Implementation of max32660 I2C driver.">
<polygon fill="#999999" stroke="#666666" points="455,-206 281,-206 281,-165 455,-165 455,-206"/>
<text text-anchor="start" x="289" y="-194" font-family="Helvetica,sans-Serif" font-size="10.00">/home/runner/work/no</text>
<text text-anchor="start" x="289" y="-183" font-family="Helvetica,sans-Serif" font-size="10.00">&#45;OS/no&#45;OS/drivers/platform</text>
<text text-anchor="middle" x="368" y="-172" font-family="Helvetica,sans-Serif" font-size="10.00">/maxim/max32665/maxim_i2c.c</text>
</a>
</g>
</g>
<!-- Node2 -->
<g id="Node000002" class="node">
<title>Node2</title>
<g id="a_Node000002"><a xlink:title=" ">
<polygon fill="#e0e0e0" stroke="#999999" points="509.5,-19 456.5,-19 456.5,0 509.5,0 509.5,-19"/>
<text text-anchor="middle" x="483" y="-7" font-family="Helvetica,sans-Serif" font-size="10.00">stdint.h</text>
</a>
</g>
</g>
<!-- Node1&#45;&gt;Node2 -->
<g id="edge1_Node000001_Node000002" class="edge">
<title>Node1&#45;&gt;Node2</title>
<g id="a_edge1_Node000001_Node000002"><a xlink:title=" ">
<path fill="none" stroke="#63b8ff" d="M411.61,-164.96C427.08,-156.04 443.28,-144.05 454,-129 475.53,-98.77 481.17,-54.39 482.59,-29.41"/>
<polygon fill="#63b8ff" stroke="#63b8ff" points="486.1,-29.26 482.99,-19.13 479.1,-28.99 486.1,-29.26"/>
</a>
</g>
</g>
<!-- Node3 -->
<g id="Node000003" class="node">
<title>Node3</title>
<g id="a_Node000003"><a xlink:title=" ">
<polygon fill="#e0e0e0" stroke="#999999" points="359.5,-74 306.5,-74 306.5,-55 359.5,-55 359.5,-74"/>
<text text-anchor="middle" x="333" y="-62" font-family="Helvetica,sans-Serif" font-size="10.00">stdlib.h</text>
</a>
</g>
</g>
<!-- Node1&#45;&gt;Node3 -->
<g id="edge2_Node000001_Node000003" class="edge">
<title>Node1&#45;&gt;Node3</title>
<g id="a_edge2_Node000001_Node000003"><a xlink:title=" ">
<path fill="none" stroke="#63b8ff" d="M362.22,-164.85C355.61,-142.37 344.87,-105.86 338.42,-83.91"/>
<polygon fill="#63b8ff" stroke="#63b8ff" points="341.73,-82.78 335.55,-74.18 335.02,-84.76 341.73,-82.78"/>
</a>
</g>
</g>
<!-- Node4 -->
<g id="Node000004" class="node">
<title>Node4</title>
<g id="a_Node000004"><a xlink:title=" ">
<polygon fill="#e0e0e0" stroke="#999999" points="246.5,-129 193.5,-129 193.5,-110 246.5,-110 246.5,-129"/>
<text text-anchor="middle" x="220" y="-117" font-family="Helvetica,sans-Serif" font-size="10.00">string.h</text>
</a>
</g>
</g>
<!-- Node1&#45;&gt;Node4 -->
<g id="edge3_Node000001_Node000004" class="edge">
<title>Node1&#45;&gt;Node4</title>
<g id="a_edge3_Node000001_Node000004"><a xlink:title=" ">
<path fill="none" stroke="#63b8ff" d="M322.79,-164.95C298.87,-154.6 270.19,-142.2 249.21,-133.13"/>
<polygon fill="#63b8ff" stroke="#63b8ff" points="250.44,-129.85 239.87,-129.09 247.66,-136.27 250.44,-129.85"/>
</a>
</g>
</g>
<!-- Node5 -->
<g id="Node000005" class="node">
<title>Node5</title>
<g id="a_Node000005"><a xlink:title=" ">
<polygon fill="#e0e0e0" stroke="#999999" points="305,-129 265,-129 265,-110 305,-110 305,-129"/>
<text text-anchor="middle" x="285" y="-117" font-family="Helvetica,sans-Serif" font-size="10.00">i2c.h</text>
</a>
</g>
</g>
<!-- Node1&#45;&gt;Node5 -->
<g id="edge4_Node000001_Node000005" class="edge">
<title>Node1&#45;&gt;Node5</title>
<g id="a_edge4_Node000001_Node000005"><a xlink:title=" ">
<path fill="none" stroke="#63b8ff" d="M342.65,-164.95C330.34,-155.46 315.78,-144.24 304.38,-135.44"/>
<polygon fill="#63b8ff" stroke="#63b8ff" points="306.42,-132.6 296.36,-129.26 302.14,-138.14 306.42,-132.6"/>
</a>
</g>
</g>
<!-- Node6 -->
<g id="Node000006" class="node">
<title>Node6</title>
<g id="a_Node000006"><a xlink:href="no__os__error_8h.html" target="_top" xlink:title="Error codes definition.">
<polygon fill="white" stroke="#666666" points="82,-129 0,-129 0,-110 82,-110 82,-129"/>
<text text-anchor="middle" x="41" y="-117" font-family="Helvetica,sans-Serif" font-size="10.00">no_os_error.h</text>
</a>
</g>
</g>
<!-- Node1&#45;&gt;Node6 -->
<g id="edge5_Node000001_Node000006" class="edge">
<title>Node1&#45;&gt;Node6</title>
<g id="a_edge5_Node000001_Node000006"><a xlink:title=" ">
<path fill="none" stroke="#63b8ff" d="M280.8,-167.43C220.62,-155.65 142.66,-140.4 92.24,-130.53"/>
<polygon fill="#63b8ff" stroke="#63b8ff" points="92.71,-127.05 82.23,-128.57 91.37,-133.92 92.71,-127.05"/>
</a>
</g>
</g>
<!-- Node8 -->
<g id="Node000008" class="node">
<title>Node8</title>
<g id="a_Node000008"><a xlink:href="no__os__util_8h.html" target="_top" xlink:title="Header file of utility functions.">
<polygon fill="white" stroke="#666666" points="175.5,-129 100.5,-129 100.5,-110 175.5,-110 175.5,-129"/>
<text text-anchor="middle" x="138" y="-117" font-family="Helvetica,sans-Serif" font-size="10.00">no_os_util.h</text>
</a>
</g>
</g>
<!-- Node1&#45;&gt;Node8 -->
<g id="edge7_Node000001_Node000008" class="edge">
<title>Node1&#45;&gt;Node8</title>
<g id="a_edge7_Node000001_Node000008"><a xlink:title=" ">
<path fill="none" stroke="#63b8ff" d="M297.74,-164.95C258.59,-154.06 211.25,-140.88 178.31,-131.72"/>
<polygon fill="#63b8ff" stroke="#63b8ff" points="179.15,-128.32 168.58,-129.01 177.27,-135.06 179.15,-128.32"/>
</a>
</g>
</g>
<!-- Node10 -->
<g id="Node000010" class="node">
<title>Node10</title>
<g id="a_Node000010"><a xlink:href="no__os__alloc_8h.html" target="_top" xlink:title=" ">
<polygon fill="white" stroke="#666666" points="444.5,-129 361.5,-129 361.5,-110 444.5,-110 444.5,-129"/>
<text text-anchor="middle" x="403" y="-117" font-family="Helvetica,sans-Serif" font-size="10.00">no_os_alloc.h</text>
</a>
</g>
</g>
<!-- Node1&#45;&gt;Node10 -->
<g id="edge11_Node000001_Node000010" class="edge">
<title>Node1&#45;&gt;Node10</title>
<g id="a_edge11_Node000001_Node000010"><a xlink:title=" ">
<path fill="none" stroke="#63b8ff" d="M378.69,-164.95C383.37,-156.39 388.82,-146.42 393.38,-138.1"/>
<polygon fill="#63b8ff" stroke="#63b8ff" points="396.48,-139.71 398.21,-129.26 390.34,-136.35 396.48,-139.71"/>
</a>
</g>
</g>
<!-- Node12 -->
<g id="Node000012" class="node">
<title>Node12</title>
<g id="a_Node000012"><a xlink:href="max32665_2maxim__i2c_8h.html" target="_top" xlink:title=" ">
<polygon fill="white" stroke="#666666" points="607,-129 527,-129 527,-110 607,-110 607,-129"/>
<text text-anchor="middle" x="567" y="-117" font-family="Helvetica,sans-Serif" font-size="10.00">maxim_i2c.h</text>
</a>
</g>
</g>
<!-- Node1&#45;&gt;Node12 -->
<g id="edge14_Node000001_Node000012" class="edge">
<title>Node1&#45;&gt;Node12</title>
<g id="a_edge14_Node000001_Node000012"><a xlink:title=" ">
<path fill="none" stroke="#63b8ff" d="M428.79,-164.95C462.22,-154.2 502.57,-141.22 531.01,-132.07"/>
<polygon fill="#63b8ff" stroke="#63b8ff" points="532.1,-135.4 540.55,-129.01 529.95,-128.74 532.1,-135.4"/>
</a>
</g>
</g>
<!-- Node14 -->
<g id="Node000014" class="node">
<title>Node14</title>
<g id="a_Node000014"><a xlink:title=" ">
<polygon fill="#e0e0e0" stroke="#999999" points="848.5,-74 771.5,-74 771.5,-55 848.5,-55 848.5,-74"/>
<text text-anchor="middle" x="810" y="-62" font-family="Helvetica,sans-Serif" font-size="10.00">max32665.h</text>
</a>
</g>
</g>
<!-- Node1&#45;&gt;Node14 -->
<g id="edge22_Node000001_Node000014" class="edge">
<title>Node1&#45;&gt;Node14</title>
<g id="a_edge22_Node000001_Node000014"><a xlink:title=" ">
<path fill="none" stroke="#63b8ff" d="M455.25,-170.36C503.45,-161.21 563.94,-147.53 616,-129 633.79,-122.67 636.4,-116.84 654,-110 689.77,-96.1 731.65,-84.39 763.01,-76.47"/>
<polygon fill="#63b8ff" stroke="#63b8ff" points="763.94,-79.85 772.8,-74.04 762.25,-73.06 763.94,-79.85"/>
</a>
</g>
</g>
<!-- Node17 -->
<g id="Node000017" class="node">
<title>Node17</title>
<g id="a_Node000017"><a xlink:title=" ">
<polygon fill="#e0e0e0" stroke="#999999" points="743,-129 663,-129 663,-110 743,-110 743,-129"/>
<text text-anchor="middle" x="703" y="-117" font-family="Helvetica,sans-Serif" font-size="10.00">mxc_errors.h</text>
</a>
</g>
</g>
<!-- Node1&#45;&gt;Node17 -->
<g id="edge21_Node000001_Node000017" class="edge">
<title>Node1&#45;&gt;Node17</title>
<g id="a_edge21_Node000001_Node000017"><a xlink:title=" ">
<path fill="none" stroke="#63b8ff" d="M455.14,-167.85C518.03,-155.84 600.72,-140.04 652.88,-130.08"/>
<polygon fill="#63b8ff" stroke="#63b8ff" points="653.72,-133.48 662.88,-128.16 652.41,-126.6 653.72,-133.48"/>
</a>
</g>
</g>
<!-- Node7 -->
<g id="Node000007" class="node">
<title>Node7</title>
<g id="a_Node000007"><a xlink:href="errno_8h.html" target="_top" xlink:title="Error macro definition for ARM Compiler.">
<polygon fill="white" stroke="#666666" points="66.5,-74 15.5,-74 15.5,-55 66.5,-55 66.5,-74"/>
<text text-anchor="middle" x="41" y="-62" font-family="Helvetica,sans-Serif" font-size="10.00">errno.h</text>
</a>
</g>
</g>
<!-- Node6&#45;&gt;Node7 -->
<g id="edge6_Node000006_Node000007" class="edge">
<title>Node6&#45;&gt;Node7</title>
<g id="a_edge6_Node000006_Node000007"><a xlink:title=" ">
<path fill="none" stroke="#63b8ff" d="M41,-109.75C41,-102.8 41,-92.85 41,-84.13"/>
<polygon fill="#63b8ff" stroke="#63b8ff" points="44.5,-84.09 41,-74.09 37.5,-84.09 44.5,-84.09"/>
</a>
</g>
</g>
<!-- Node8&#45;&gt;Node2 -->
<g id="edge8_Node000008_Node000002" class="edge">
<title>Node8&#45;&gt;Node2</title>
<g id="a_edge8_Node000008_Node000002"><a xlink:title=" ">
<path fill="none" stroke="#63b8ff" d="M156.89,-109.99C186.51,-96.87 245.87,-71.52 298,-55 348.66,-38.94 408.71,-25.49 446.34,-17.72"/>
<polygon fill="#63b8ff" stroke="#63b8ff" points="447.23,-21.11 456.33,-15.67 445.83,-14.25 447.23,-21.11"/>
</a>
</g>
</g>
<!-- Node8&#45;&gt;Node3 -->
<g id="edge9_Node000008_Node000003" class="edge">
<title>Node8&#45;&gt;Node3</title>
<g id="a_edge9_Node000008_Node000003"><a xlink:title=" ">
<path fill="none" stroke="#63b8ff" d="M169.33,-109.98C204.07,-100.54 260.02,-85.33 296.66,-75.38"/>
<polygon fill="#63b8ff" stroke="#63b8ff" points="297.71,-78.72 306.45,-72.72 295.88,-71.96 297.71,-78.72"/>
</a>
</g>
</g>
<!-- Node9 -->
<g id="Node000009" class="node">
<title>Node9</title>
<g id="a_Node000009"><a xlink:title=" ">
<polygon fill="#e0e0e0" stroke="#999999" points="169,-74 107,-74 107,-55 169,-55 169,-74"/>
<text text-anchor="middle" x="138" y="-62" font-family="Helvetica,sans-Serif" font-size="10.00">stdbool.h</text>
</a>
</g>
</g>
<!-- Node8&#45;&gt;Node9 -->
<g id="edge10_Node000008_Node000009" class="edge">
<title>Node8&#45;&gt;Node9</title>
<g id="a_edge10_Node000008_Node000009"><a xlink:title=" ">
<path fill="none" stroke="#63b8ff" d="M138,-109.75C138,-102.8 138,-92.85 138,-84.13"/>
<polygon fill="#63b8ff" stroke="#63b8ff" points="141.5,-84.09 138,-74.09 134.5,-84.09 141.5,-84.09"/>
</a>
</g>
</g>
<!-- Node10&#45;&gt;Node3 -->
<g id="edge13_Node000010_Node000003" class="edge">
<title>Node10&#45;&gt;Node3</title>
<g id="a_edge13_Node000010_Node000003"><a xlink:title=" ">
<path fill="none" stroke="#63b8ff" d="M391.75,-109.98C381.2,-102 365.2,-89.88 352.56,-80.31"/>
<polygon fill="#63b8ff" stroke="#63b8ff" points="354.54,-77.42 344.45,-74.17 350.31,-83 354.54,-77.42"/>
</a>
</g>
</g>
<!-- Node11 -->
<g id="Node000011" class="node">
<title>Node11</title>
<g id="a_Node000011"><a xlink:title=" ">
<polygon fill="#e0e0e0" stroke="#999999" points="428,-74 378,-74 378,-55 428,-55 428,-74"/>
<text text-anchor="middle" x="403" y="-62" font-family="Helvetica,sans-Serif" font-size="10.00">stdio.h</text>
</a>
</g>
</g>
<!-- Node10&#45;&gt;Node11 -->
<g id="edge12_Node000010_Node000011" class="edge">
<title>Node10&#45;&gt;Node11</title>
<g id="a_edge12_Node000010_Node000011"><a xlink:title=" ">
<path fill="none" stroke="#63b8ff" d="M403,-109.75C403,-102.8 403,-92.85 403,-84.13"/>
<polygon fill="#63b8ff" stroke="#63b8ff" points="406.5,-84.09 403,-74.09 399.5,-84.09 406.5,-84.09"/>
</a>
</g>
</g>
<!-- Node12&#45;&gt;Node2 -->
<g id="edge15_Node000012_Node000002" class="edge">
<title>Node12&#45;&gt;Node2</title>
<g id="a_edge15_Node000012_Node000002"><a xlink:title=" ">
<path fill="none" stroke="#63b8ff" d="M556.73,-109.98C546.88,-101.48 531.91,-87.75 521,-74 509.55,-59.56 499,-41.37 491.94,-28.16"/>
<polygon fill="#63b8ff" stroke="#63b8ff" points="494.98,-26.43 487.26,-19.18 488.77,-29.66 494.98,-26.43"/>
</a>
</g>
</g>
<!-- Node13 -->
<g id="Node000013" class="node">
<title>Node13</title>
<g id="a_Node000013"><a xlink:title=" ">
<polygon fill="#e0e0e0" stroke="#999999" points="688,-74 622,-74 622,-55 688,-55 688,-74"/>
<text text-anchor="middle" x="655" y="-62" font-family="Helvetica,sans-Serif" font-size="10.00">i2c_regs.h</text>
</a>
</g>
</g>
<!-- Node12&#45;&gt;Node13 -->
<g id="edge16_Node000012_Node000013" class="edge">
<title>Node12&#45;&gt;Node13</title>
<g id="a_edge16_Node000012_Node000013"><a xlink:title=" ">
<path fill="none" stroke="#63b8ff" d="M581.14,-109.98C594.79,-101.77 615.69,-89.18 631.78,-79.49"/>
<polygon fill="#63b8ff" stroke="#63b8ff" points="633.84,-82.33 640.6,-74.17 630.23,-76.33 633.84,-82.33"/>
</a>
</g>
</g>
<!-- Node12&#45;&gt;Node14 -->
<g id="edge17_Node000012_Node000014" class="edge">
<title>Node12&#45;&gt;Node14</title>
<g id="a_edge17_Node000012_Node000014"><a xlink:title=" ">
<path fill="none" stroke="#63b8ff" d="M606.04,-109.98C648.32,-100.76 715.83,-86.04 761.49,-76.08"/>
<polygon fill="#63b8ff" stroke="#63b8ff" points="762.43,-79.46 771.46,-73.91 760.94,-72.62 762.43,-79.46"/>
</a>
</g>
</g>
<!-- Node15 -->
<g id="Node000015" class="node">
<title>Node15</title>
<g id="a_Node000015"><a xlink:title=" ">
<polygon fill="#e0e0e0" stroke="#999999" points="753.5,-74 706.5,-74 706.5,-55 753.5,-55 753.5,-74"/>
<text text-anchor="middle" x="730" y="-62" font-family="Helvetica,sans-Serif" font-size="10.00">gpio.h</text>
</a>
</g>
</g>
<!-- Node12&#45;&gt;Node15 -->
<g id="edge18_Node000012_Node000015" class="edge">
<title>Node12&#45;&gt;Node15</title>
<g id="a_edge18_Node000012_Node000015"><a xlink:title=" ">
<path fill="none" stroke="#63b8ff" d="M593.19,-109.98C621.24,-100.86 665.86,-86.36 696.46,-76.4"/>
<polygon fill="#63b8ff" stroke="#63b8ff" points="697.83,-79.64 706.26,-73.22 695.67,-72.98 697.83,-79.64"/>
</a>
</g>
</g>
<!-- Node16 -->
<g id="Node000016" class="node">
<title>Node16</title>
<g id="a_Node000016"><a xlink:href="no__os__i2c_8h.html" target="_top" xlink:title="Header file of I2C Interface.">
<polygon fill="white" stroke="#666666" points="604,-74 530,-74 530,-55 604,-55 604,-74"/>
<text text-anchor="middle" x="567" y="-62" font-family="Helvetica,sans-Serif" font-size="10.00">no_os_i2c.h</text>
</a>
</g>
</g>
<!-- Node12&#45;&gt;Node16 -->
<g id="edge19_Node000012_Node000016" class="edge">
<title>Node12&#45;&gt;Node16</title>
<g id="a_edge19_Node000012_Node000016"><a xlink:title=" ">
<path fill="none" stroke="#63b8ff" d="M567,-109.75C567,-102.8 567,-92.85 567,-84.13"/>
<polygon fill="#63b8ff" stroke="#63b8ff" points="570.5,-84.09 567,-74.09 563.5,-84.09 570.5,-84.09"/>
</a>
</g>
</g>
<!-- Node16&#45;&gt;Node2 -->
<g id="edge20_Node000016_Node000002" class="edge">
<title>Node16&#45;&gt;Node2</title>
<g id="a_edge20_Node000016_Node000002"><a xlink:title=" ">
<path fill="none" stroke="#63b8ff" d="M553.5,-54.98C540.6,-46.84 520.9,-34.41 505.6,-24.76"/>
<polygon fill="#63b8ff" stroke="#63b8ff" points="507.07,-21.55 496.74,-19.17 503.33,-27.47 507.07,-21.55"/>
</a>
</g>
</g>
</g>
</svg>
