<?xml version="1.0" encoding="UTF-8" standalone="no"?>
<!DOCTYPE svg PUBLIC "-//W3C//DTD SVG 1.1//EN"
 "http://www.w3.org/Graphics/SVG/1.1/DTD/svg11.dtd">
<!-- Generated by graphviz version 2.43.0 (0)
 -->
<!-- Title: /home/runner/work/no&#45;OS/no&#45;OS/drivers/platform/maxim/max32690/maxim_spi.h Pages: 1 -->
<svg width="525pt" height="214pt"
 viewBox="0.00 0.00 525.10 214.00" xmlns="http://www.w3.org/2000/svg" xmlns:xlink="http://www.w3.org/1999/xlink">
<g id="graph0" class="graph" transform="scale(1 1) rotate(0) translate(4 210)">
<title>/home/runner/work/no&#45;OS/no&#45;OS/drivers/platform/maxim/max32690/maxim_spi.h</title>
<!-- Node1 -->
<g id="Node000001" class="node">
<title>Node1</title>
<g id="a_Node000001"><a xlink:title="maxim specific header for SPI driver">
<polygon fill="#999999" stroke="#666666" points="178.1,-206 3.1,-206 3.1,-165 178.1,-165 178.1,-206"/>
<text text-anchor="start" x="11.1" y="-194" font-family="Helvetica,sans-Serif" font-size="10.00">/home/runner/work/no</text>
<text text-anchor="start" x="11.1" y="-183" font-family="Helvetica,sans-Serif" font-size="10.00">&#45;OS/no&#45;OS/drivers/platform</text>
<text text-anchor="middle" x="90.6" y="-172" font-family="Helvetica,sans-Serif" font-size="10.00">/maxim/max32690/maxim_spi.h</text>
</a>
</g>
</g>
<!-- Node2 -->
<g id="Node000002" class="node">
<title>Node2</title>
<g id="a_Node000002"><a xlink:title=" ">
<polygon fill="#e0e0e0" stroke="#999999" points="102.1,-19 49.1,-19 49.1,0 102.1,0 102.1,-19"/>
<text text-anchor="middle" x="75.6" y="-7" font-family="Helvetica,sans-Serif" font-size="10.00">stdint.h</text>
</a>
</g>
</g>
<!-- Node1&#45;&gt;Node2 -->
<g id="edge1_Node000001_Node000002" class="edge">
<title>Node1&#45;&gt;Node2</title>
<g id="a_edge1_Node000001_Node000002"><a xlink:title=" ">
<path fill="none" stroke="#63b8ff" d="M43.27,-164.79C28.5,-156.12 13.9,-144.34 5.6,-129 -14.92,-91.1 28.21,-47.79 55.49,-25.5"/>
<polygon fill="#63b8ff" stroke="#63b8ff" points="57.68,-28.23 63.36,-19.29 53.35,-22.74 57.68,-28.23"/>
</a>
</g>
</g>
<!-- Node3 -->
<g id="Node000003" class="node">
<title>Node3</title>
<g id="a_Node000003"><a xlink:href="no__os__spi_8h.html" target="_top" xlink:title="Header file of SPI Interface.">
<polygon fill="white" stroke="#666666" points="88.6,-129 14.6,-129 14.6,-110 88.6,-110 88.6,-129"/>
<text text-anchor="middle" x="51.6" y="-117" font-family="Helvetica,sans-Serif" font-size="10.00">no_os_spi.h</text>
</a>
</g>
</g>
<!-- Node1&#45;&gt;Node3 -->
<g id="edge2_Node000001_Node000003" class="edge">
<title>Node1&#45;&gt;Node3</title>
<g id="a_edge2_Node000001_Node000003"><a xlink:title=" ">
<path fill="none" stroke="#63b8ff" d="M78.68,-164.95C73.41,-156.3 67.26,-146.2 62.15,-137.82"/>
<polygon fill="#63b8ff" stroke="#63b8ff" points="65.13,-135.98 56.93,-129.26 59.15,-139.62 65.13,-135.98"/>
</a>
</g>
</g>
<!-- Node4 -->
<g id="Node000004" class="node">
<title>Node4</title>
<g id="a_Node000004"><a xlink:title=" ">
<polygon fill="#e0e0e0" stroke="#999999" points="154.1,-129 107.1,-129 107.1,-110 154.1,-110 154.1,-129"/>
<text text-anchor="middle" x="130.6" y="-117" font-family="Helvetica,sans-Serif" font-size="10.00">gpio.h</text>
</a>
</g>
</g>
<!-- Node1&#45;&gt;Node4 -->
<g id="edge4_Node000001_Node000004" class="edge">
<title>Node1&#45;&gt;Node4</title>
<g id="a_edge4_Node000001_Node000004"><a xlink:title=" ">
<path fill="none" stroke="#63b8ff" d="M102.81,-164.95C108.22,-156.3 114.53,-146.2 119.77,-137.82"/>
<polygon fill="#63b8ff" stroke="#63b8ff" points="122.79,-139.6 125.12,-129.26 116.85,-135.89 122.79,-139.6"/>
</a>
</g>
</g>
<!-- Node5 -->
<g id="Node000005" class="node">
<title>Node5</title>
<g id="a_Node000005"><a xlink:href="no__os__dma_8h.html" target="_top" xlink:title="Platform independent function definitions and data types for the DMA API.">
<polygon fill="white" stroke="#666666" points="253.1,-129 172.1,-129 172.1,-110 253.1,-110 253.1,-129"/>
<text text-anchor="middle" x="212.6" y="-117" font-family="Helvetica,sans-Serif" font-size="10.00">no_os_dma.h</text>
</a>
</g>
</g>
<!-- Node1&#45;&gt;Node5 -->
<g id="edge5_Node000001_Node000005" class="edge">
<title>Node1&#45;&gt;Node5</title>
<g id="a_edge5_Node000001_Node000005"><a xlink:title=" ">
<path fill="none" stroke="#63b8ff" d="M127.86,-164.95C147.14,-154.84 170.16,-142.76 187.34,-133.75"/>
<polygon fill="#63b8ff" stroke="#63b8ff" points="188.99,-136.84 196.22,-129.09 185.74,-130.64 188.99,-136.84"/>
</a>
</g>
</g>
<!-- Node3&#45;&gt;Node2 -->
<g id="edge3_Node000003_Node000002" class="edge">
<title>Node3&#45;&gt;Node2</title>
<g id="a_edge3_Node000003_Node000002"><a xlink:title=" ">
<path fill="none" stroke="#63b8ff" d="M52.55,-109.79C54,-97.48 57.06,-74.34 61.6,-55 63.63,-46.33 66.5,-36.89 69.11,-28.95"/>
<polygon fill="#63b8ff" stroke="#63b8ff" points="72.5,-29.85 72.41,-19.26 65.88,-27.6 72.5,-29.85"/>
</a>
</g>
</g>
<!-- Node5&#45;&gt;Node2 -->
<g id="edge8_Node000005_Node000002" class="edge">
<title>Node5&#45;&gt;Node2</title>
<g id="a_edge8_Node000005_Node000002"><a xlink:title=" ">
<path fill="none" stroke="#63b8ff" d="M180.87,-109.99C150.19,-101.17 106.62,-86.89 94.6,-74 83.2,-61.78 78.62,-43 76.79,-29.02"/>
<polygon fill="#63b8ff" stroke="#63b8ff" points="80.27,-28.69 75.83,-19.07 73.31,-29.36 80.27,-28.69"/>
</a>
</g>
</g>
<!-- Node6 -->
<g id="Node000006" class="node">
<title>Node6</title>
<g id="a_Node000006"><a xlink:title=" ">
<polygon fill="#e0e0e0" stroke="#999999" points="153.6,-74 103.6,-74 103.6,-55 153.6,-55 153.6,-74"/>
<text text-anchor="middle" x="128.6" y="-62" font-family="Helvetica,sans-Serif" font-size="10.00">stdio.h</text>
</a>
</g>
</g>
<!-- Node5&#45;&gt;Node6 -->
<g id="edge6_Node000005_Node000006" class="edge">
<title>Node5&#45;&gt;Node6</title>
<g id="a_edge6_Node000005_Node000006"><a xlink:title=" ">
<path fill="none" stroke="#63b8ff" d="M199.1,-109.98C186.2,-101.84 166.49,-89.41 151.19,-79.76"/>
<polygon fill="#63b8ff" stroke="#63b8ff" points="152.66,-76.55 142.34,-74.17 148.93,-82.47 152.66,-76.55"/>
</a>
</g>
</g>
<!-- Node7 -->
<g id="Node000007" class="node">
<title>Node7</title>
<g id="a_Node000007"><a xlink:title=" ">
<polygon fill="#e0e0e0" stroke="#999999" points="225.1,-74 172.1,-74 172.1,-55 225.1,-55 225.1,-74"/>
<text text-anchor="middle" x="198.6" y="-62" font-family="Helvetica,sans-Serif" font-size="10.00">stdlib.h</text>
</a>
</g>
</g>
<!-- Node5&#45;&gt;Node7 -->
<g id="edge7_Node000005_Node000007" class="edge">
<title>Node5&#45;&gt;Node7</title>
<g id="a_edge7_Node000005_Node000007"><a xlink:title=" ">
<path fill="none" stroke="#63b8ff" d="M210.28,-109.75C208.43,-102.72 205.76,-92.62 203.44,-83.84"/>
<polygon fill="#63b8ff" stroke="#63b8ff" points="206.8,-82.86 200.86,-74.09 200.03,-84.65 206.8,-82.86"/>
</a>
</g>
</g>
<!-- Node8 -->
<g id="Node000008" class="node">
<title>Node8</title>
<g id="a_Node000008"><a xlink:href="no__os__list_8h.html" target="_top" xlink:title="List library header.">
<polygon fill="white" stroke="#666666" points="407.6,-74 333.6,-74 333.6,-55 407.6,-55 407.6,-74"/>
<text text-anchor="middle" x="370.6" y="-62" font-family="Helvetica,sans-Serif" font-size="10.00">no_os_list.h</text>
</a>
</g>
</g>
<!-- Node5&#45;&gt;Node8 -->
<g id="edge9_Node000005_Node000008" class="edge">
<title>Node5&#45;&gt;Node8</title>
<g id="a_edge9_Node000005_Node000008"><a xlink:title=" ">
<path fill="none" stroke="#63b8ff" d="M237.98,-109.98C264.39,-101.13 305.94,-87.19 335.49,-77.28"/>
<polygon fill="#63b8ff" stroke="#63b8ff" points="336.64,-80.58 345.01,-74.08 334.42,-73.94 336.64,-80.58"/>
</a>
</g>
</g>
<!-- Node10 -->
<g id="Node000010" class="node">
<title>Node10</title>
<g id="a_Node000010"><a xlink:href="no__os__irq_8h.html" target="_top" xlink:title="Header file of IRQ interface.">
<polygon fill="white" stroke="#666666" points="315.6,-74 243.6,-74 243.6,-55 315.6,-55 315.6,-74"/>
<text text-anchor="middle" x="279.6" y="-62" font-family="Helvetica,sans-Serif" font-size="10.00">no_os_irq.h</text>
</a>
</g>
</g>
<!-- Node5&#45;&gt;Node10 -->
<g id="edge12_Node000005_Node000010" class="edge">
<title>Node5&#45;&gt;Node10</title>
<g id="a_edge12_Node000005_Node000010"><a xlink:title=" ">
<path fill="none" stroke="#63b8ff" d="M223.36,-109.98C233.36,-102.07 248.48,-90.11 260.53,-80.58"/>
<polygon fill="#63b8ff" stroke="#63b8ff" points="262.96,-83.12 268.64,-74.17 258.62,-77.63 262.96,-83.12"/>
</a>
</g>
</g>
<!-- Node11 -->
<g id="Node000011" class="node">
<title>Node11</title>
<g id="a_Node000011"><a xlink:href="no__os__mutex_8h.html" target="_top" xlink:title=" ">
<polygon fill="white" stroke="#666666" points="517.1,-74 426.1,-74 426.1,-55 517.1,-55 517.1,-74"/>
<text text-anchor="middle" x="471.6" y="-62" font-family="Helvetica,sans-Serif" font-size="10.00">no_os_mutex.h</text>
</a>
</g>
</g>
<!-- Node5&#45;&gt;Node11 -->
<g id="edge14_Node000005_Node000011" class="edge">
<title>Node5&#45;&gt;Node11</title>
<g id="a_edge14_Node000005_Node000011"><a xlink:title=" ">
<path fill="none" stroke="#63b8ff" d="M253.35,-110.16C298.3,-100.96 370.75,-86.14 419.72,-76.12"/>
<polygon fill="#63b8ff" stroke="#63b8ff" points="420.7,-79.49 429.79,-74.05 419.29,-72.63 420.7,-79.49"/>
</a>
</g>
</g>
<!-- Node8&#45;&gt;Node2 -->
<g id="edge10_Node000008_Node000002" class="edge">
<title>Node8&#45;&gt;Node2</title>
<g id="a_edge10_Node000008_Node000002"><a xlink:title=" ">
<path fill="none" stroke="#63b8ff" d="M333.44,-56.62C330.45,-56.07 327.47,-55.52 324.6,-55 249.12,-41.28 160.71,-25.57 112.16,-16.97"/>
<polygon fill="#63b8ff" stroke="#63b8ff" points="112.59,-13.49 102.14,-15.19 111.37,-20.38 112.59,-13.49"/>
</a>
</g>
</g>
<!-- Node9 -->
<g id="Node000009" class="node">
<title>Node9</title>
<g id="a_Node000009"><a xlink:title=" ">
<polygon fill="#e0e0e0" stroke="#999999" points="401.6,-19 339.6,-19 339.6,0 401.6,0 401.6,-19"/>
<text text-anchor="middle" x="370.6" y="-7" font-family="Helvetica,sans-Serif" font-size="10.00">stdbool.h</text>
</a>
</g>
</g>
<!-- Node8&#45;&gt;Node9 -->
<g id="edge11_Node000008_Node000009" class="edge">
<title>Node8&#45;&gt;Node9</title>
<g id="a_edge11_Node000008_Node000009"><a xlink:title=" ">
<path fill="none" stroke="#63b8ff" d="M370.6,-54.75C370.6,-47.8 370.6,-37.85 370.6,-29.13"/>
<polygon fill="#63b8ff" stroke="#63b8ff" points="374.1,-29.09 370.6,-19.09 367.1,-29.09 374.1,-29.09"/>
</a>
</g>
</g>
<!-- Node10&#45;&gt;Node2 -->
<g id="edge13_Node000010_Node000002" class="edge">
<title>Node10&#45;&gt;Node2</title>
<g id="a_edge13_Node000010_Node000002"><a xlink:title=" ">
<path fill="none" stroke="#63b8ff" d="M246.82,-54.98C209.91,-45.4 150.1,-29.86 111.83,-19.91"/>
<polygon fill="#63b8ff" stroke="#63b8ff" points="112.68,-16.52 102.12,-17.39 110.91,-23.29 112.68,-16.52"/>
</a>
</g>
</g>
</g>
</svg>
