<?xml version="1.0" encoding="UTF-8" standalone="no"?>
<!DOCTYPE svg PUBLIC "-//W3C//DTD SVG 1.1//EN"
 "http://www.w3.org/Graphics/SVG/1.1/DTD/svg11.dtd">
<!-- Generated by graphviz version 2.43.0 (0)
 -->
<!-- Title: /home/runner/work/no&#45;OS/no&#45;OS/drivers/platform/maxim/max32655/maxim_spi.c Pages: 1 -->
<svg width="946pt" height="269pt"
 viewBox="0.00 0.00 945.91 269.00" xmlns="http://www.w3.org/2000/svg" xmlns:xlink="http://www.w3.org/1999/xlink">
<g id="graph0" class="graph" transform="scale(1 1) rotate(0) translate(4 265)">
<title>/home/runner/work/no&#45;OS/no&#45;OS/drivers/platform/maxim/max32655/maxim_spi.c</title>
<!-- Node1 -->
<g id="Node000001" class="node">
<title>Node1</title>
<g id="a_Node000001"><a xlink:title="Implementation of SPI driver.">
<polygon fill="#999999" stroke="#666666" points="529.41,-261 355.41,-261 355.41,-220 529.41,-220 529.41,-261"/>
<text text-anchor="start" x="363.41" y="-249" font-family="Helvetica,sans-Serif" font-size="10.00">/home/runner/work/no</text>
<text text-anchor="start" x="363.41" y="-238" font-family="Helvetica,sans-Serif" font-size="10.00">&#45;OS/no&#45;OS/drivers/platform</text>
<text text-anchor="middle" x="442.41" y="-227" font-family="Helvetica,sans-Serif" font-size="10.00">/maxim/max32655/maxim_spi.c</text>
</a>
</g>
</g>
<!-- Node2 -->
<g id="Node000002" class="node">
<title>Node2</title>
<g id="a_Node000002"><a xlink:title=" ">
<polygon fill="#e0e0e0" stroke="#999999" points="814.91,-74 761.91,-74 761.91,-55 814.91,-55 814.91,-74"/>
<text text-anchor="middle" x="788.41" y="-62" font-family="Helvetica,sans-Serif" font-size="10.00">stdlib.h</text>
</a>
</g>
</g>
<!-- Node1&#45;&gt;Node2 -->
<g id="edge1_Node000001_Node000002" class="edge">
<title>Node1&#45;&gt;Node2</title>
<g id="a_edge1_Node000001_Node000002"><a xlink:title=" ">
<path fill="none" stroke="#63b8ff" d="M529.7,-232.59C603.65,-222.07 707.28,-195.61 769.41,-129 780.8,-116.78 785.38,-98 787.21,-84.03"/>
<polygon fill="#63b8ff" stroke="#63b8ff" points="790.7,-84.36 788.17,-74.07 783.73,-83.69 790.7,-84.36"/>
</a>
</g>
</g>
<!-- Node3 -->
<g id="Node000003" class="node">
<title>Node3</title>
<g id="a_Node000003"><a xlink:href="errno_8h.html" target="_top" xlink:title="Error macro definition for ARM Compiler.">
<polygon fill="white" stroke="#666666" points="69.91,-184 18.91,-184 18.91,-165 69.91,-165 69.91,-184"/>
<text text-anchor="middle" x="44.41" y="-172" font-family="Helvetica,sans-Serif" font-size="10.00">errno.h</text>
</a>
</g>
</g>
<!-- Node1&#45;&gt;Node3 -->
<g id="edge2_Node000001_Node000003" class="edge">
<title>Node1&#45;&gt;Node3</title>
<g id="a_edge2_Node000001_Node000003"><a xlink:title=" ">
<path fill="none" stroke="#63b8ff" d="M355.12,-228.31C283.74,-218.67 180.01,-203.51 79.95,-183.95"/>
<polygon fill="#63b8ff" stroke="#63b8ff" points="80.45,-180.48 69.96,-181.98 79.1,-187.35 80.45,-180.48"/>
</a>
</g>
</g>
<!-- Node4 -->
<g id="Node000004" class="node">
<title>Node4</title>
<g id="a_Node000004"><a xlink:title=" ">
<polygon fill="#e0e0e0" stroke="#999999" points="128.41,-184 88.41,-184 88.41,-165 128.41,-165 128.41,-184"/>
<text text-anchor="middle" x="108.41" y="-172" font-family="Helvetica,sans-Serif" font-size="10.00">spi.h</text>
</a>
</g>
</g>
<!-- Node1&#45;&gt;Node4 -->
<g id="edge3_Node000001_Node000004" class="edge">
<title>Node1&#45;&gt;Node4</title>
<g id="a_edge3_Node000001_Node000004"><a xlink:title=" ">
<path fill="none" stroke="#63b8ff" d="M355.13,-226.12C296.38,-216.53 217.03,-202.45 138.66,-184.1"/>
<polygon fill="#63b8ff" stroke="#63b8ff" points="139.15,-180.62 128.61,-181.72 137.54,-187.43 139.15,-180.62"/>
</a>
</g>
</g>
<!-- Node5 -->
<g id="Node000005" class="node">
<title>Node5</title>
<g id="a_Node000005"><a xlink:title=" ">
<polygon fill="#e0e0e0" stroke="#999999" points="226.41,-184 146.41,-184 146.41,-165 226.41,-165 226.41,-184"/>
<text text-anchor="middle" x="186.41" y="-172" font-family="Helvetica,sans-Serif" font-size="10.00">mxc_errors.h</text>
</a>
</g>
</g>
<!-- Node1&#45;&gt;Node5 -->
<g id="edge4_Node000001_Node000005" class="edge">
<title>Node1&#45;&gt;Node5</title>
<g id="a_edge4_Node000001_Node000005"><a xlink:title=" ">
<path fill="none" stroke="#63b8ff" d="M364.21,-219.95C320.26,-208.96 267.02,-195.65 230.33,-186.48"/>
<polygon fill="#63b8ff" stroke="#63b8ff" points="230.99,-183.04 220.44,-184.01 229.29,-189.83 230.99,-183.04"/>
</a>
</g>
</g>
<!-- Node6 -->
<g id="Node000006" class="node">
<title>Node6</title>
<g id="a_Node000006"><a xlink:title=" ">
<polygon fill="#e0e0e0" stroke="#999999" points="316.41,-184 244.41,-184 244.41,-165 316.41,-165 316.41,-184"/>
<text text-anchor="middle" x="280.41" y="-172" font-family="Helvetica,sans-Serif" font-size="10.00">mxc_pins.h</text>
</a>
</g>
</g>
<!-- Node1&#45;&gt;Node6 -->
<g id="edge5_Node000001_Node000006" class="edge">
<title>Node1&#45;&gt;Node6</title>
<g id="a_edge5_Node000001_Node000006"><a xlink:title=" ">
<path fill="none" stroke="#63b8ff" d="M392.92,-219.95C366.5,-209.51 334.77,-196.98 311.75,-187.88"/>
<polygon fill="#63b8ff" stroke="#63b8ff" points="312.74,-184.51 302.15,-184.09 310.17,-191.02 312.74,-184.51"/>
</a>
</g>
</g>
<!-- Node7 -->
<g id="Node000007" class="node">
<title>Node7</title>
<g id="a_Node000007"><a xlink:href="max32655_2maxim__spi_8h.html" target="_top" xlink:title="maxim specific header for SPI driver">
<polygon fill="white" stroke="#666666" points="414.41,-184 334.41,-184 334.41,-165 414.41,-165 414.41,-184"/>
<text text-anchor="middle" x="374.41" y="-172" font-family="Helvetica,sans-Serif" font-size="10.00">maxim_spi.h</text>
</a>
</g>
</g>
<!-- Node1&#45;&gt;Node7 -->
<g id="edge6_Node000001_Node000007" class="edge">
<title>Node1&#45;&gt;Node7</title>
<g id="a_edge6_Node000001_Node000007"><a xlink:title=" ">
<path fill="none" stroke="#63b8ff" d="M421.63,-219.95C411.85,-210.74 400.33,-199.9 391.11,-191.23"/>
<polygon fill="#63b8ff" stroke="#63b8ff" points="393.39,-188.57 383.71,-184.26 388.6,-193.66 393.39,-188.57"/>
</a>
</g>
</g>
<!-- Node12 -->
<g id="Node000012" class="node">
<title>Node12</title>
<g id="a_Node000012"><a xlink:href="no__os__dma_8h.html" target="_top" xlink:title="Platform independent function definitions and data types for the DMA API.">
<polygon fill="white" stroke="#666666" points="472.91,-129 391.91,-129 391.91,-110 472.91,-110 472.91,-129"/>
<text text-anchor="middle" x="432.41" y="-117" font-family="Helvetica,sans-Serif" font-size="10.00">no_os_dma.h</text>
</a>
</g>
</g>
<!-- Node1&#45;&gt;Node12 -->
<g id="edge38_Node000001_Node000012" class="edge">
<title>Node1&#45;&gt;Node12</title>
<g id="a_edge38_Node000001_Node000012"><a xlink:title=" ">
<path fill="none" stroke="#63b8ff" d="M440.75,-219.85C438.87,-197.48 435.82,-161.19 433.98,-139.21"/>
<polygon fill="#63b8ff" stroke="#63b8ff" points="437.46,-138.85 433.13,-129.18 430.48,-139.43 437.46,-138.85"/>
</a>
</g>
</g>
<!-- Node18 -->
<g id="Node000018" class="node">
<title>Node18</title>
<g id="a_Node000018"><a xlink:href="maxim__dma_8h.html" target="_top" xlink:title="Maxim platform specific header DMA API.">
<polygon fill="white" stroke="#666666" points="557.91,-184 470.91,-184 470.91,-165 557.91,-165 557.91,-184"/>
<text text-anchor="middle" x="514.41" y="-172" font-family="Helvetica,sans-Serif" font-size="10.00">maxim_dma.h</text>
</a>
</g>
</g>
<!-- Node1&#45;&gt;Node18 -->
<g id="edge22_Node000001_Node000018" class="edge">
<title>Node1&#45;&gt;Node18</title>
<g id="a_edge22_Node000001_Node000018"><a xlink:title=" ">
<path fill="none" stroke="#63b8ff" d="M464.4,-219.95C474.87,-210.65 487.21,-199.68 497.01,-190.96"/>
<polygon fill="#63b8ff" stroke="#63b8ff" points="499.4,-193.52 504.55,-184.26 494.75,-188.29 499.4,-193.52"/>
</a>
</g>
</g>
<!-- Node20 -->
<g id="Node000020" class="node">
<title>Node20</title>
<g id="a_Node000020"><a xlink:href="no__os__delay_8h.html" target="_top" xlink:title="Header file of Delay functions.">
<polygon fill="white" stroke="#666666" points="104.91,-74 19.91,-74 19.91,-55 104.91,-55 104.91,-74"/>
<text text-anchor="middle" x="62.41" y="-62" font-family="Helvetica,sans-Serif" font-size="10.00">no_os_delay.h</text>
</a>
</g>
</g>
<!-- Node1&#45;&gt;Node20 -->
<g id="edge26_Node000001_Node000020" class="edge">
<title>Node1&#45;&gt;Node20</title>
<g id="a_edge26_Node000001_Node000020"><a xlink:title=" ">
<path fill="none" stroke="#63b8ff" d="M355.28,-234.42C235.43,-226.52 31.86,-209.51 9.41,-184 -17.87,-153.01 21.02,-105.7 45.36,-81.29"/>
<polygon fill="#63b8ff" stroke="#63b8ff" points="47.91,-83.69 52.64,-74.22 43.03,-78.67 47.91,-83.69"/>
</a>
</g>
</g>
<!-- Node21 -->
<g id="Node000021" class="node">
<title>Node21</title>
<g id="a_Node000021"><a xlink:href="no__os__print__log_8h.html" target="_top" xlink:title="Print messages helpers.">
<polygon fill="white" stroke="#666666" points="658.41,-129 556.41,-129 556.41,-110 658.41,-110 658.41,-129"/>
<text text-anchor="middle" x="607.41" y="-117" font-family="Helvetica,sans-Serif" font-size="10.00">no_os_print_log.h</text>
</a>
</g>
</g>
<!-- Node1&#45;&gt;Node21 -->
<g id="edge28_Node000001_Node000021" class="edge">
<title>Node1&#45;&gt;Node21</title>
<g id="a_edge28_Node000001_Node000021"><a xlink:title=" ">
<path fill="none" stroke="#63b8ff" d="M504.48,-219.9C525.67,-211.19 548.51,-199.36 566.41,-184 581.15,-171.35 592.55,-152.09 599.55,-138.1"/>
<polygon fill="#63b8ff" stroke="#63b8ff" points="602.74,-139.55 603.85,-129.01 596.41,-136.55 602.74,-139.55"/>
</a>
</g>
</g>
<!-- Node22 -->
<g id="Node000022" class="node">
<title>Node22</title>
<g id="a_Node000022"><a xlink:href="no__os__util_8h.html" target="_top" xlink:title="Header file of utility functions.">
<polygon fill="white" stroke="#666666" points="891.91,-129 816.91,-129 816.91,-110 891.91,-110 891.91,-129"/>
<text text-anchor="middle" x="854.41" y="-117" font-family="Helvetica,sans-Serif" font-size="10.00">no_os_util.h</text>
</a>
</g>
</g>
<!-- Node1&#45;&gt;Node22 -->
<g id="edge30_Node000001_Node000022" class="edge">
<title>Node1&#45;&gt;Node22</title>
<g id="a_edge30_Node000001_Node000022"><a xlink:title=" ">
<path fill="none" stroke="#63b8ff" d="M529.77,-233.22C621.06,-225.4 757.17,-209.83 802.41,-184 821.29,-173.22 836.13,-152.73 845.05,-137.94"/>
<polygon fill="#63b8ff" stroke="#63b8ff" points="848.12,-139.62 850.03,-129.2 842.04,-136.15 848.12,-139.62"/>
</a>
</g>
</g>
<!-- Node23 -->
<g id="Node000023" class="node">
<title>Node23</title>
<g id="a_Node000023"><a xlink:href="no__os__alloc_8h.html" target="_top" xlink:title=" ">
<polygon fill="white" stroke="#666666" points="759.91,-129 676.91,-129 676.91,-110 759.91,-110 759.91,-129"/>
<text text-anchor="middle" x="718.41" y="-117" font-family="Helvetica,sans-Serif" font-size="10.00">no_os_alloc.h</text>
</a>
</g>
</g>
<!-- Node1&#45;&gt;Node23 -->
<g id="edge34_Node000001_Node000023" class="edge">
<title>Node1&#45;&gt;Node23</title>
<g id="a_edge34_Node000001_Node000023"><a xlink:title=" ">
<path fill="none" stroke="#63b8ff" d="M498.06,-219.93C525.77,-209.82 559.62,-196.92 589.41,-184 626.16,-168.06 667.53,-147.15 693.29,-133.76"/>
<polygon fill="#63b8ff" stroke="#63b8ff" points="695.11,-136.76 702.35,-129.03 691.87,-130.56 695.11,-136.76"/>
</a>
</g>
</g>
<!-- Node24 -->
<g id="Node000024" class="node">
<title>Node24</title>
<g id="a_Node000024"><a xlink:href="no__os__units_8h.html" target="_top" xlink:title="Header file of Units.">
<polygon fill="white" stroke="#666666" points="937.91,-184 854.91,-184 854.91,-165 937.91,-165 937.91,-184"/>
<text text-anchor="middle" x="896.41" y="-172" font-family="Helvetica,sans-Serif" font-size="10.00">no_os_units.h</text>
</a>
</g>
</g>
<!-- Node1&#45;&gt;Node24 -->
<g id="edge37_Node000001_Node000024" class="edge">
<title>Node1&#45;&gt;Node24</title>
<g id="a_edge37_Node000001_Node000024"><a xlink:title=" ">
<path fill="none" stroke="#63b8ff" d="M529.8,-227.62C610.46,-216.59 733.57,-199.56 840.41,-184 841.86,-183.79 843.35,-183.57 844.84,-183.35"/>
<polygon fill="#63b8ff" stroke="#63b8ff" points="845.45,-186.8 854.82,-181.87 844.42,-179.88 845.45,-186.8"/>
</a>
</g>
</g>
<!-- Node8 -->
<g id="Node000008" class="node">
<title>Node8</title>
<g id="a_Node000008"><a xlink:title=" ">
<polygon fill="#e0e0e0" stroke="#999999" points="393.91,-19 340.91,-19 340.91,0 393.91,0 393.91,-19"/>
<text text-anchor="middle" x="367.41" y="-7" font-family="Helvetica,sans-Serif" font-size="10.00">stdint.h</text>
</a>
</g>
</g>
<!-- Node7&#45;&gt;Node8 -->
<g id="edge7_Node000007_Node000008" class="edge">
<title>Node7&#45;&gt;Node8</title>
<g id="a_edge7_Node000007_Node000008"><a xlink:title=" ">
<path fill="none" stroke="#63b8ff" d="M357.82,-164.87C345.23,-157.3 328.87,-145.01 321.41,-129 307.51,-99.19 308.57,-85.28 321.41,-55 326.39,-43.25 336.16,-33.09 345.41,-25.45"/>
<polygon fill="#63b8ff" stroke="#63b8ff" points="347.8,-28.03 353.62,-19.18 343.55,-22.47 347.8,-28.03"/>
</a>
</g>
</g>
<!-- Node9 -->
<g id="Node000009" class="node">
<title>Node9</title>
<g id="a_Node000009"><a xlink:title=" ">
<polygon fill="#e0e0e0" stroke="#999999" points="165.91,-129 88.91,-129 88.91,-110 165.91,-110 165.91,-129"/>
<text text-anchor="middle" x="127.41" y="-117" font-family="Helvetica,sans-Serif" font-size="10.00">max32655.h</text>
</a>
</g>
</g>
<!-- Node7&#45;&gt;Node9 -->
<g id="edge8_Node000007_Node000009" class="edge">
<title>Node7&#45;&gt;Node9</title>
<g id="a_edge8_Node000007_Node000009"><a xlink:title=" ">
<path fill="none" stroke="#63b8ff" d="M334.72,-164.98C291.52,-155.72 222.43,-140.89 176.01,-130.93"/>
<polygon fill="#63b8ff" stroke="#63b8ff" points="176.69,-127.5 166.18,-128.82 175.22,-134.34 176.69,-127.5"/>
</a>
</g>
</g>
<!-- Node10 -->
<g id="Node000010" class="node">
<title>Node10</title>
<g id="a_Node000010"><a xlink:title=" ">
<polygon fill="#e0e0e0" stroke="#999999" points="230.91,-129 183.91,-129 183.91,-110 230.91,-110 230.91,-129"/>
<text text-anchor="middle" x="207.41" y="-117" font-family="Helvetica,sans-Serif" font-size="10.00">gpio.h</text>
</a>
</g>
</g>
<!-- Node7&#45;&gt;Node10 -->
<g id="edge9_Node000007_Node000010" class="edge">
<title>Node7&#45;&gt;Node10</title>
<g id="a_edge9_Node000007_Node000010"><a xlink:title=" ">
<path fill="none" stroke="#63b8ff" d="M347.57,-164.98C318.45,-155.74 271.93,-140.98 240.55,-131.02"/>
<polygon fill="#63b8ff" stroke="#63b8ff" points="241.52,-127.66 230.93,-127.97 239.4,-134.33 241.52,-127.66"/>
</a>
</g>
</g>
<!-- Node11 -->
<g id="Node000011" class="node">
<title>Node11</title>
<g id="a_Node000011"><a xlink:href="no__os__spi_8h.html" target="_top" xlink:title="Header file of SPI Interface.">
<polygon fill="white" stroke="#666666" points="269.41,-74 195.41,-74 195.41,-55 269.41,-55 269.41,-74"/>
<text text-anchor="middle" x="232.41" y="-62" font-family="Helvetica,sans-Serif" font-size="10.00">no_os_spi.h</text>
</a>
</g>
</g>
<!-- Node7&#45;&gt;Node11 -->
<g id="edge10_Node000007_Node000011" class="edge">
<title>Node7&#45;&gt;Node11</title>
<g id="a_edge10_Node000007_Node000011"><a xlink:title=" ">
<path fill="none" stroke="#63b8ff" d="M349.94,-164.95C330.6,-157.42 303.6,-145.14 283.41,-129 267.07,-115.94 252.59,-96.78 243.27,-82.93"/>
<polygon fill="#63b8ff" stroke="#63b8ff" points="246.07,-80.8 237.69,-74.32 240.2,-84.61 246.07,-80.8"/>
</a>
</g>
</g>
<!-- Node7&#45;&gt;Node12 -->
<g id="edge12_Node000007_Node000012" class="edge">
<title>Node7&#45;&gt;Node12</title>
<g id="a_edge12_Node000007_Node000012"><a xlink:title=" ">
<path fill="none" stroke="#63b8ff" d="M383.72,-164.98C392.21,-157.23 404.96,-145.58 415.29,-136.14"/>
<polygon fill="#63b8ff" stroke="#63b8ff" points="417.9,-138.5 422.92,-129.17 413.17,-133.33 417.9,-138.5"/>
</a>
</g>
</g>
<!-- Node11&#45;&gt;Node8 -->
<g id="edge11_Node000011_Node000008" class="edge">
<title>Node11&#45;&gt;Node8</title>
<g id="a_edge11_Node000011_Node000008"><a xlink:title=" ">
<path fill="none" stroke="#63b8ff" d="M254.1,-54.98C276.2,-46.3 310.73,-32.75 335.86,-22.88"/>
<polygon fill="#63b8ff" stroke="#63b8ff" points="337.29,-26.08 345.32,-19.17 334.73,-19.57 337.29,-26.08"/>
</a>
</g>
</g>
<!-- Node12&#45;&gt;Node2 -->
<g id="edge14_Node000012_Node000002" class="edge">
<title>Node12&#45;&gt;Node2</title>
<g id="a_edge14_Node000012_Node000002"><a xlink:title=" ">
<path fill="none" stroke="#63b8ff" d="M473.03,-111.33C475.86,-110.86 478.67,-110.42 481.41,-110 598.34,-92.1 631.19,-95.77 751.74,-73.94"/>
<polygon fill="#63b8ff" stroke="#63b8ff" points="752.53,-77.36 761.73,-72.11 751.26,-70.47 752.53,-77.36"/>
</a>
</g>
</g>
<!-- Node12&#45;&gt;Node8 -->
<g id="edge15_Node000012_Node000008" class="edge">
<title>Node12&#45;&gt;Node8</title>
<g id="a_edge15_Node000012_Node000008"><a xlink:title=" ">
<path fill="none" stroke="#63b8ff" d="M468.8,-109.99C500.67,-101.71 543.42,-88.32 553.41,-74 558.24,-67.07 558.64,-61.63 553.41,-55 535.2,-31.93 453.25,-19.49 404.4,-14.01"/>
<polygon fill="#63b8ff" stroke="#63b8ff" points="404.54,-10.5 394.22,-12.91 403.79,-17.46 404.54,-10.5"/>
</a>
</g>
</g>
<!-- Node13 -->
<g id="Node000013" class="node">
<title>Node13</title>
<g id="a_Node000013"><a xlink:title=" ">
<polygon fill="#e0e0e0" stroke="#999999" points="743.41,-74 693.41,-74 693.41,-55 743.41,-55 743.41,-74"/>
<text text-anchor="middle" x="718.41" y="-62" font-family="Helvetica,sans-Serif" font-size="10.00">stdio.h</text>
</a>
</g>
</g>
<!-- Node12&#45;&gt;Node13 -->
<g id="edge13_Node000012_Node000013" class="edge">
<title>Node12&#45;&gt;Node13</title>
<g id="a_edge13_Node000012_Node000013"><a xlink:title=" ">
<path fill="none" stroke="#63b8ff" d="M473.04,-111.4C534.17,-100.71 645.93,-81.13 683.11,-74.02"/>
<polygon fill="#63b8ff" stroke="#63b8ff" points="684.08,-77.4 693.2,-72.01 682.71,-70.54 684.08,-77.4"/>
</a>
</g>
</g>
<!-- Node14 -->
<g id="Node000014" class="node">
<title>Node14</title>
<g id="a_Node000014"><a xlink:href="no__os__list_8h.html" target="_top" xlink:title="List library header.">
<polygon fill="white" stroke="#666666" points="675.41,-74 601.41,-74 601.41,-55 675.41,-55 675.41,-74"/>
<text text-anchor="middle" x="638.41" y="-62" font-family="Helvetica,sans-Serif" font-size="10.00">no_os_list.h</text>
</a>
</g>
</g>
<!-- Node12&#45;&gt;Node14 -->
<g id="edge16_Node000012_Node000014" class="edge">
<title>Node12&#45;&gt;Node14</title>
<g id="a_edge16_Node000012_Node000014"><a xlink:title=" ">
<path fill="none" stroke="#63b8ff" d="M465.5,-109.98C500.69,-100.93 556.48,-86.58 595.12,-76.64"/>
<polygon fill="#63b8ff" stroke="#63b8ff" points="596.24,-79.96 605.05,-74.08 594.49,-73.18 596.24,-79.96"/>
</a>
</g>
</g>
<!-- Node16 -->
<g id="Node000016" class="node">
<title>Node16</title>
<g id="a_Node000016"><a xlink:href="no__os__irq_8h.html" target="_top" xlink:title="Header file of IRQ interface.">
<polygon fill="white" stroke="#666666" points="435.41,-74 363.41,-74 363.41,-55 435.41,-55 435.41,-74"/>
<text text-anchor="middle" x="399.41" y="-62" font-family="Helvetica,sans-Serif" font-size="10.00">no_os_irq.h</text>
</a>
</g>
</g>
<!-- Node12&#45;&gt;Node16 -->
<g id="edge19_Node000012_Node000016" class="edge">
<title>Node12&#45;&gt;Node16</title>
<g id="a_edge19_Node000012_Node000016"><a xlink:title=" ">
<path fill="none" stroke="#63b8ff" d="M426.96,-109.75C422.39,-102.42 415.74,-91.73 410.11,-82.7"/>
<polygon fill="#63b8ff" stroke="#63b8ff" points="413.01,-80.73 404.75,-74.09 407.07,-84.43 413.01,-80.73"/>
</a>
</g>
</g>
<!-- Node17 -->
<g id="Node000017" class="node">
<title>Node17</title>
<g id="a_Node000017"><a xlink:href="no__os__mutex_8h.html" target="_top" xlink:title=" ">
<polygon fill="white" stroke="#666666" points="544.91,-74 453.91,-74 453.91,-55 544.91,-55 544.91,-74"/>
<text text-anchor="middle" x="499.41" y="-62" font-family="Helvetica,sans-Serif" font-size="10.00">no_os_mutex.h</text>
</a>
</g>
</g>
<!-- Node12&#45;&gt;Node17 -->
<g id="edge21_Node000012_Node000017" class="edge">
<title>Node12&#45;&gt;Node17</title>
<g id="a_edge21_Node000012_Node000017"><a xlink:title=" ">
<path fill="none" stroke="#63b8ff" d="M443.17,-109.98C453.17,-102.07 468.29,-90.11 480.34,-80.58"/>
<polygon fill="#63b8ff" stroke="#63b8ff" points="482.77,-83.12 488.44,-74.17 478.43,-77.63 482.77,-83.12"/>
</a>
</g>
</g>
<!-- Node14&#45;&gt;Node8 -->
<g id="edge17_Node000014_Node000008" class="edge">
<title>Node14&#45;&gt;Node8</title>
<g id="a_edge17_Node000014_Node000008"><a xlink:title=" ">
<path fill="none" stroke="#63b8ff" d="M601.29,-56.24C549.49,-46.11 456.05,-27.84 404.34,-17.72"/>
<polygon fill="#63b8ff" stroke="#63b8ff" points="404.76,-14.24 394.27,-15.75 403.42,-21.11 404.76,-14.24"/>
</a>
</g>
</g>
<!-- Node15 -->
<g id="Node000015" class="node">
<title>Node15</title>
<g id="a_Node000015"><a xlink:title=" ">
<polygon fill="#e0e0e0" stroke="#999999" points="790.41,-19 728.41,-19 728.41,0 790.41,0 790.41,-19"/>
<text text-anchor="middle" x="759.41" y="-7" font-family="Helvetica,sans-Serif" font-size="10.00">stdbool.h</text>
</a>
</g>
</g>
<!-- Node14&#45;&gt;Node15 -->
<g id="edge18_Node000014_Node000015" class="edge">
<title>Node14&#45;&gt;Node15</title>
<g id="a_edge18_Node000014_Node000015"><a xlink:title=" ">
<path fill="none" stroke="#63b8ff" d="M657.85,-54.98C677.4,-46.42 707.79,-33.11 730.23,-23.28"/>
<polygon fill="#63b8ff" stroke="#63b8ff" points="731.86,-26.39 739.61,-19.17 729.05,-19.98 731.86,-26.39"/>
</a>
</g>
</g>
<!-- Node16&#45;&gt;Node8 -->
<g id="edge20_Node000016_Node000008" class="edge">
<title>Node16&#45;&gt;Node8</title>
<g id="a_edge20_Node000016_Node000008"><a xlink:title=" ">
<path fill="none" stroke="#63b8ff" d="M394.12,-54.75C389.69,-47.42 383.24,-36.73 377.79,-27.7"/>
<polygon fill="#63b8ff" stroke="#63b8ff" points="380.76,-25.84 372.59,-19.09 374.76,-29.46 380.76,-25.84"/>
</a>
</g>
</g>
<!-- Node18&#45;&gt;Node8 -->
<g id="edge23_Node000018_Node000008" class="edge">
<title>Node18&#45;&gt;Node8</title>
<g id="a_edge23_Node000018_Node000008"><a xlink:title=" ">
<path fill="none" stroke="#63b8ff" d="M470.68,-167.44C442.73,-161.63 407.2,-150.42 382.41,-129 355.8,-106.01 349.42,-89.81 354.41,-55 355.66,-46.24 358.24,-36.79 360.77,-28.86"/>
<polygon fill="#63b8ff" stroke="#63b8ff" points="364.15,-29.8 364.06,-19.2 357.52,-27.54 364.15,-29.8"/>
</a>
</g>
</g>
<!-- Node18&#45;&gt;Node12 -->
<g id="edge24_Node000018_Node000012" class="edge">
<title>Node18&#45;&gt;Node12</title>
<g id="a_edge24_Node000018_Node000012"><a xlink:title=" ">
<path fill="none" stroke="#63b8ff" d="M501.23,-164.98C488.63,-156.84 469.4,-144.41 454.47,-134.76"/>
<polygon fill="#63b8ff" stroke="#63b8ff" points="456.12,-131.66 445.82,-129.17 452.32,-137.54 456.12,-131.66"/>
</a>
</g>
</g>
<!-- Node19 -->
<g id="Node000019" class="node">
<title>Node19</title>
<g id="a_Node000019"><a xlink:title=" ">
<polygon fill="#e0e0e0" stroke="#999999" points="537.91,-129 490.91,-129 490.91,-110 537.91,-110 537.91,-129"/>
<text text-anchor="middle" x="514.41" y="-117" font-family="Helvetica,sans-Serif" font-size="10.00">dma.h</text>
</a>
</g>
</g>
<!-- Node18&#45;&gt;Node19 -->
<g id="edge25_Node000018_Node000019" class="edge">
<title>Node18&#45;&gt;Node19</title>
<g id="a_edge25_Node000018_Node000019"><a xlink:title=" ">
<path fill="none" stroke="#63b8ff" d="M514.41,-164.75C514.41,-157.8 514.41,-147.85 514.41,-139.13"/>
<polygon fill="#63b8ff" stroke="#63b8ff" points="517.91,-139.09 514.41,-129.09 510.91,-139.09 517.91,-139.09"/>
</a>
</g>
</g>
<!-- Node20&#45;&gt;Node8 -->
<g id="edge27_Node000020_Node000008" class="edge">
<title>Node20&#45;&gt;Node8</title>
<g id="a_edge27_Node000020_Node000008"><a xlink:title=" ">
<path fill="none" stroke="#63b8ff" d="M105.14,-56.07C165.33,-45.62 274.06,-26.72 330.76,-16.87"/>
<polygon fill="#63b8ff" stroke="#63b8ff" points="331.47,-20.3 340.72,-15.14 330.27,-13.4 331.47,-20.3"/>
</a>
</g>
</g>
<!-- Node21&#45;&gt;Node13 -->
<g id="edge29_Node000021_Node000013" class="edge">
<title>Node21&#45;&gt;Node13</title>
<g id="a_edge29_Node000021_Node000013"><a xlink:title=" ">
<path fill="none" stroke="#63b8ff" d="M625.24,-109.98C643.02,-101.5 670.55,-88.35 691.08,-78.54"/>
<polygon fill="#63b8ff" stroke="#63b8ff" points="692.73,-81.64 700.25,-74.17 689.71,-75.32 692.73,-81.64"/>
</a>
</g>
</g>
<!-- Node22&#45;&gt;Node2 -->
<g id="edge32_Node000022_Node000002" class="edge">
<title>Node22&#45;&gt;Node2</title>
<g id="a_edge32_Node000022_Node000002"><a xlink:title=" ">
<path fill="none" stroke="#63b8ff" d="M843.8,-109.98C833.95,-102.07 819.05,-90.11 807.19,-80.58"/>
<polygon fill="#63b8ff" stroke="#63b8ff" points="809.19,-77.7 799.2,-74.17 804.81,-83.16 809.19,-77.7"/>
</a>
</g>
</g>
<!-- Node22&#45;&gt;Node8 -->
<g id="edge31_Node000022_Node000008" class="edge">
<title>Node22&#45;&gt;Node8</title>
<g id="a_edge31_Node000022_Node000008"><a xlink:title=" ">
<path fill="none" stroke="#63b8ff" d="M853.06,-109.78C850.38,-95.66 842.95,-68.05 824.41,-55 790.33,-31.02 507.03,-16.52 404.37,-12.02"/>
<polygon fill="#63b8ff" stroke="#63b8ff" points="404.31,-8.51 394.17,-11.58 404.01,-15.51 404.31,-8.51"/>
</a>
</g>
</g>
<!-- Node22&#45;&gt;Node15 -->
<g id="edge33_Node000022_Node000015" class="edge">
<title>Node22&#45;&gt;Node15</title>
<g id="a_edge33_Node000022_Node000015"><a xlink:title=" ">
<path fill="none" stroke="#63b8ff" d="M857.74,-109.88C862.18,-96.86 868.28,-71.89 857.41,-55 844.74,-35.34 821.03,-24.26 800.1,-18.08"/>
<polygon fill="#63b8ff" stroke="#63b8ff" points="800.99,-14.7 790.43,-15.5 799.18,-21.46 800.99,-14.7"/>
</a>
</g>
</g>
<!-- Node23&#45;&gt;Node2 -->
<g id="edge36_Node000023_Node000002" class="edge">
<title>Node23&#45;&gt;Node2</title>
<g id="a_edge36_Node000023_Node000002"><a xlink:title=" ">
<path fill="none" stroke="#63b8ff" d="M729.65,-109.98C740.2,-102 756.21,-89.88 768.85,-80.31"/>
<polygon fill="#63b8ff" stroke="#63b8ff" points="771.09,-83 776.95,-74.17 766.87,-77.42 771.09,-83"/>
</a>
</g>
</g>
<!-- Node23&#45;&gt;Node13 -->
<g id="edge35_Node000023_Node000013" class="edge">
<title>Node23&#45;&gt;Node13</title>
<g id="a_edge35_Node000023_Node000013"><a xlink:title=" ">
<path fill="none" stroke="#63b8ff" d="M718.41,-109.75C718.41,-102.8 718.41,-92.85 718.41,-84.13"/>
<polygon fill="#63b8ff" stroke="#63b8ff" points="721.91,-84.09 718.41,-74.09 714.91,-84.09 721.91,-84.09"/>
</a>
</g>
</g>
</g>
</svg>
