<?xml version="1.0" encoding="UTF-8" standalone="no"?>
<!DOCTYPE svg PUBLIC "-//W3C//DTD SVG 1.1//EN"
 "http://www.w3.org/Graphics/SVG/1.1/DTD/svg11.dtd">
<!-- Generated by graphviz version 2.43.0 (0)
 -->
<!-- Title: /home/runner/work/no&#45;OS/no&#45;OS/drivers/power/max42500/max42500.h Pages: 1 -->
<svg width="274pt" height="159pt"
 viewBox="0.00 0.00 273.85 159.00" xmlns="http://www.w3.org/2000/svg" xmlns:xlink="http://www.w3.org/1999/xlink">
<g id="graph0" class="graph" transform="scale(1 1) rotate(0) translate(4 155)">
<title>/home/runner/work/no&#45;OS/no&#45;OS/drivers/power/max42500/max42500.h</title>
<!-- Node1 -->
<g id="Node000001" class="node">
<title>Node1</title>
<g id="a_Node000001"><a xlink:title="Header file of MAX42500 Driver.">
<polygon fill="#999999" stroke="#666666" points="155.85,-151 19.85,-151 19.85,-110 155.85,-110 155.85,-151"/>
<text text-anchor="start" x="27.85" y="-139" font-family="Helvetica,sans-Serif" font-size="10.00">/home/runner/work/no</text>
<text text-anchor="start" x="27.85" y="-128" font-family="Helvetica,sans-Serif" font-size="10.00">&#45;OS/no&#45;OS/drivers/power</text>
<text text-anchor="middle" x="87.85" y="-117" font-family="Helvetica,sans-Serif" font-size="10.00">/max42500/max42500.h</text>
</a>
</g>
</g>
<!-- Node2 -->
<g id="Node000002" class="node">
<title>Node2</title>
<g id="a_Node000002"><a xlink:title=" ">
<polygon fill="#e0e0e0" stroke="#999999" points="157.35,-19 104.35,-19 104.35,0 157.35,0 157.35,-19"/>
<text text-anchor="middle" x="130.85" y="-7" font-family="Helvetica,sans-Serif" font-size="10.00">stdint.h</text>
</a>
</g>
</g>
<!-- Node1&#45;&gt;Node2 -->
<g id="edge1_Node000001_Node000002" class="edge">
<title>Node1&#45;&gt;Node2</title>
<g id="a_edge1_Node000001_Node000002"><a xlink:title=" ">
<path fill="none" stroke="#63b8ff" d="M40.21,-109.91C14.02,-96.18 -10.36,-76.5 4.85,-55 24.93,-26.62 64.66,-16.22 94.17,-12.47"/>
<polygon fill="#63b8ff" stroke="#63b8ff" points="94.56,-15.95 104.13,-11.4 93.82,-8.99 94.56,-15.95"/>
</a>
</g>
</g>
<!-- Node3 -->
<g id="Node000003" class="node">
<title>Node3</title>
<g id="a_Node000003"><a xlink:title=" ">
<polygon fill="#e0e0e0" stroke="#999999" points="75.85,-74 13.85,-74 13.85,-55 75.85,-55 75.85,-74"/>
<text text-anchor="middle" x="44.85" y="-62" font-family="Helvetica,sans-Serif" font-size="10.00">stdbool.h</text>
</a>
</g>
</g>
<!-- Node1&#45;&gt;Node3 -->
<g id="edge2_Node000001_Node000003" class="edge">
<title>Node1&#45;&gt;Node3</title>
<g id="a_edge2_Node000001_Node000003"><a xlink:title=" ">
<path fill="none" stroke="#63b8ff" d="M74.72,-109.95C68.9,-101.3 62.12,-91.2 56.49,-82.82"/>
<polygon fill="#63b8ff" stroke="#63b8ff" points="59.22,-80.61 50.74,-74.26 53.41,-84.51 59.22,-80.61"/>
</a>
</g>
</g>
<!-- Node4 -->
<g id="Node000004" class="node">
<title>Node4</title>
<g id="a_Node000004"><a xlink:href="no__os__i2c_8h.html" target="_top" xlink:title="Header file of I2C Interface.">
<polygon fill="white" stroke="#666666" points="167.85,-74 93.85,-74 93.85,-55 167.85,-55 167.85,-74"/>
<text text-anchor="middle" x="130.85" y="-62" font-family="Helvetica,sans-Serif" font-size="10.00">no_os_i2c.h</text>
</a>
</g>
</g>
<!-- Node1&#45;&gt;Node4 -->
<g id="edge3_Node000001_Node000004" class="edge">
<title>Node1&#45;&gt;Node4</title>
<g id="a_edge3_Node000001_Node000004"><a xlink:title=" ">
<path fill="none" stroke="#63b8ff" d="M100.99,-109.95C106.8,-101.3 113.58,-91.2 119.21,-82.82"/>
<polygon fill="#63b8ff" stroke="#63b8ff" points="122.29,-84.51 124.97,-74.26 116.48,-80.61 122.29,-84.51"/>
</a>
</g>
</g>
<!-- Node5 -->
<g id="Node000005" class="node">
<title>Node5</title>
<g id="a_Node000005"><a xlink:href="no__os__gpio_8h.html" target="_top" xlink:title="Header file of GPIO Interface.">
<polygon fill="white" stroke="#666666" points="265.85,-74 185.85,-74 185.85,-55 265.85,-55 265.85,-74"/>
<text text-anchor="middle" x="225.85" y="-62" font-family="Helvetica,sans-Serif" font-size="10.00">no_os_gpio.h</text>
</a>
</g>
</g>
<!-- Node1&#45;&gt;Node5 -->
<g id="edge5_Node000001_Node000005" class="edge">
<title>Node1&#45;&gt;Node5</title>
<g id="a_edge5_Node000001_Node000005"><a xlink:title=" ">
<path fill="none" stroke="#63b8ff" d="M130.01,-109.95C152.11,-99.7 178.57,-87.43 198.09,-78.38"/>
<polygon fill="#63b8ff" stroke="#63b8ff" points="199.73,-81.47 207.33,-74.09 196.78,-75.12 199.73,-81.47"/>
</a>
</g>
</g>
<!-- Node4&#45;&gt;Node2 -->
<g id="edge4_Node000004_Node000002" class="edge">
<title>Node4&#45;&gt;Node2</title>
<g id="a_edge4_Node000004_Node000002"><a xlink:title=" ">
<path fill="none" stroke="#63b8ff" d="M130.85,-54.75C130.85,-47.8 130.85,-37.85 130.85,-29.13"/>
<polygon fill="#63b8ff" stroke="#63b8ff" points="134.35,-29.09 130.85,-19.09 127.35,-29.09 134.35,-29.09"/>
</a>
</g>
</g>
<!-- Node5&#45;&gt;Node2 -->
<g id="edge6_Node000005_Node000002" class="edge">
<title>Node5&#45;&gt;Node2</title>
<g id="a_edge6_Node000005_Node000002"><a xlink:title=" ">
<path fill="none" stroke="#63b8ff" d="M210.59,-54.98C195.72,-46.69 172.87,-33.94 155.44,-24.22"/>
<polygon fill="#63b8ff" stroke="#63b8ff" points="156.83,-20.99 146.39,-19.17 153.42,-27.1 156.83,-20.99"/>
</a>
</g>
</g>
</g>
</svg>
