<?xml version="1.0" encoding="UTF-8" standalone="no"?>
<!DOCTYPE svg PUBLIC "-//W3C//DTD SVG 1.1//EN"
 "http://www.w3.org/Graphics/SVG/1.1/DTD/svg11.dtd">
<!-- Generated by graphviz version 2.43.0 (0)
 -->
<!-- Title: /home/runner/work/no&#45;OS/no&#45;OS/drivers/power/max42500/max42500.h Pages: 1 -->
<svg width="326pt" height="203pt"
 viewBox="0.00 0.00 325.50 203.00" xmlns="http://www.w3.org/2000/svg" xmlns:xlink="http://www.w3.org/1999/xlink">
<g id="graph0" class="graph" transform="scale(1 1) rotate(0) translate(4 199)">
<title>/home/runner/work/no&#45;OS/no&#45;OS/drivers/power/max42500/max42500.h</title>
<!-- Node1 -->
<g id="Node000001" class="node">
<title>Node1</title>
<g id="a_Node000001"><a xlink:title="Header file of MAX42500 Driver.">
<polygon fill="#999999" stroke="#666666" points="220,-195 84,-195 84,-154 220,-154 220,-195"/>
<text text-anchor="start" x="92" y="-183" font-family="Helvetica,sans-Serif" font-size="10.00">/home/runner/work/no</text>
<text text-anchor="start" x="92" y="-172" font-family="Helvetica,sans-Serif" font-size="10.00">&#45;OS/no&#45;OS/drivers/power</text>
<text text-anchor="middle" x="152" y="-161" font-family="Helvetica,sans-Serif" font-size="10.00">/max42500/max42500.h</text>
</a>
</g>
</g>
<!-- Node2 -->
<g id="Node000002" class="node">
<title>Node2</title>
<g id="a_Node000002"><a xlink:href="max42500_8c.html" target="_top" xlink:title="Source file of MAX42500 Driver.">
<polygon fill="white" stroke="#666666" points="136,-118 0,-118 0,-77 136,-77 136,-118"/>
<text text-anchor="start" x="8" y="-106" font-family="Helvetica,sans-Serif" font-size="10.00">/home/runner/work/no</text>
<text text-anchor="start" x="8" y="-95" font-family="Helvetica,sans-Serif" font-size="10.00">&#45;OS/no&#45;OS/drivers/power</text>
<text text-anchor="middle" x="68" y="-84" font-family="Helvetica,sans-Serif" font-size="10.00">/max42500/max42500.c</text>
</a>
</g>
</g>
<!-- Node1&#45;&gt;Node2 -->
<g id="edge1_Node000001_Node000002" class="edge">
<title>Node1&#45;&gt;Node2</title>
<g id="a_edge1_Node000001_Node000002"><a xlink:title=" ">
<path fill="none" stroke="#63b8ff" d="M122.4,-147.07C111.71,-137.52 99.84,-126.93 89.92,-118.07"/>
<polygon fill="#63b8ff" stroke="#63b8ff" points="120.14,-149.75 129.93,-153.79 124.8,-144.52 120.14,-149.75"/>
</a>
</g>
</g>
<!-- Node3 -->
<g id="Node000003" class="node">
<title>Node3</title>
<g id="a_Node000003"><a xlink:href="max42500_2src_2common_2common__data_8h.html" target="_top" xlink:title="Defines common data to be used by max42500 examples.">
<polygon fill="white" stroke="#666666" points="317.5,-118 154.5,-118 154.5,-77 317.5,-77 317.5,-118"/>
<text text-anchor="start" x="162.5" y="-106" font-family="Helvetica,sans-Serif" font-size="10.00">/home/runner/work/no</text>
<text text-anchor="start" x="162.5" y="-95" font-family="Helvetica,sans-Serif" font-size="10.00">&#45;OS/no&#45;OS/projects/max42500</text>
<text text-anchor="middle" x="236" y="-84" font-family="Helvetica,sans-Serif" font-size="10.00">/src/common/common_data.h</text>
</a>
</g>
</g>
<!-- Node1&#45;&gt;Node3 -->
<g id="edge2_Node000001_Node000003" class="edge">
<title>Node1&#45;&gt;Node3</title>
<g id="a_edge2_Node000001_Node000003"><a xlink:title=" ">
<path fill="none" stroke="#63b8ff" d="M181.6,-147.07C192.29,-137.52 204.16,-126.93 214.08,-118.07"/>
<polygon fill="#63b8ff" stroke="#63b8ff" points="179.2,-144.52 174.07,-153.79 183.86,-149.75 179.2,-144.52"/>
</a>
</g>
</g>
<!-- Node4 -->
<g id="Node000004" class="node">
<title>Node4</title>
<g id="a_Node000004"><a xlink:href="max42500_2src_2common_2common__data_8c.html" target="_top" xlink:title="Defines common data to be used by max42500 examples.">
<polygon fill="white" stroke="#666666" points="317.5,-41 154.5,-41 154.5,0 317.5,0 317.5,-41"/>
<text text-anchor="start" x="162.5" y="-29" font-family="Helvetica,sans-Serif" font-size="10.00">/home/runner/work/no</text>
<text text-anchor="start" x="162.5" y="-18" font-family="Helvetica,sans-Serif" font-size="10.00">&#45;OS/no&#45;OS/projects/max42500</text>
<text text-anchor="middle" x="236" y="-7" font-family="Helvetica,sans-Serif" font-size="10.00">/src/common/common_data.c</text>
</a>
</g>
</g>
<!-- Node3&#45;&gt;Node4 -->
<g id="edge3_Node000003_Node000004" class="edge">
<title>Node3&#45;&gt;Node4</title>
<g id="a_edge3_Node000003_Node000004"><a xlink:title=" ">
<path fill="none" stroke="#63b8ff" d="M236,-66.69C236,-58.08 236,-48.9 236,-41.07"/>
<polygon fill="#63b8ff" stroke="#63b8ff" points="232.5,-66.79 236,-76.79 239.5,-66.79 232.5,-66.79"/>
</a>
</g>
</g>
</g>
</svg>
