<?xml version="1.0" encoding="UTF-8" standalone="no"?>
<!DOCTYPE svg PUBLIC "-//W3C//DTD SVG 1.1//EN"
 "http://www.w3.org/Graphics/SVG/1.1/DTD/svg11.dtd">
<!-- Generated by graphviz version 2.43.0 (0)
 -->
<!-- Title: /home/runner/work/no&#45;OS/no&#45;OS/drivers/platform/maxim/max78000/maxim_spi.h Pages: 1 -->
<svg width="647pt" height="269pt"
 viewBox="0.00 0.00 647.00 269.00" xmlns="http://www.w3.org/2000/svg" xmlns:xlink="http://www.w3.org/1999/xlink">
<g id="graph0" class="graph" transform="scale(1 1) rotate(0) translate(4 265)">
<title>/home/runner/work/no&#45;OS/no&#45;OS/drivers/platform/maxim/max78000/maxim_spi.h</title>
<!-- Node1 -->
<g id="Node000001" class="node">
<title>Node1</title>
<g id="a_Node000001"><a xlink:title="maxim specific header for SPI driver">
<polygon fill="#999999" stroke="#666666" points="208.5,-261 33.5,-261 33.5,-220 208.5,-220 208.5,-261"/>
<text text-anchor="start" x="41.5" y="-249" font-family="Helvetica,sans-Serif" font-size="10.00">/home/runner/work/no</text>
<text text-anchor="start" x="41.5" y="-238" font-family="Helvetica,sans-Serif" font-size="10.00">&#45;OS/no&#45;OS/drivers/platform</text>
<text text-anchor="middle" x="121" y="-227" font-family="Helvetica,sans-Serif" font-size="10.00">/maxim/max78000/maxim_spi.h</text>
</a>
</g>
</g>
<!-- Node2 -->
<g id="Node000002" class="node">
<title>Node2</title>
<g id="a_Node000002"><a xlink:title=" ">
<polygon fill="#e0e0e0" stroke="#999999" points="204.5,-19 151.5,-19 151.5,0 204.5,0 204.5,-19"/>
<text text-anchor="middle" x="178" y="-7" font-family="Helvetica,sans-Serif" font-size="10.00">stdint.h</text>
</a>
</g>
</g>
<!-- Node1&#45;&gt;Node2 -->
<g id="edge1_Node000001_Node000002" class="edge">
<title>Node1&#45;&gt;Node2</title>
<g id="a_edge1_Node000001_Node000002"><a xlink:title=" ">
<path fill="none" stroke="#63b8ff" d="M125.86,-219.98C136.68,-176.49 162.66,-72.12 173.32,-29.31"/>
<polygon fill="#63b8ff" stroke="#63b8ff" points="176.77,-29.94 175.79,-19.39 169.97,-28.25 176.77,-29.94"/>
</a>
</g>
</g>
<!-- Node3 -->
<g id="Node000003" class="node">
<title>Node3</title>
<g id="a_Node000003"><a xlink:title=" ">
<polygon fill="#e0e0e0" stroke="#999999" points="92.5,-184 45.5,-184 45.5,-165 92.5,-165 92.5,-184"/>
<text text-anchor="middle" x="69" y="-172" font-family="Helvetica,sans-Serif" font-size="10.00">gpio.h</text>
</a>
</g>
</g>
<!-- Node1&#45;&gt;Node3 -->
<g id="edge2_Node000001_Node000003" class="edge">
<title>Node1&#45;&gt;Node3</title>
<g id="a_edge2_Node000001_Node000003"><a xlink:title=" ">
<path fill="none" stroke="#63b8ff" d="M105.12,-219.95C97.93,-211.11 89.53,-200.77 82.64,-192.29"/>
<polygon fill="#63b8ff" stroke="#63b8ff" points="85.14,-189.81 76.12,-184.26 79.71,-194.23 85.14,-189.81"/>
</a>
</g>
</g>
<!-- Node4 -->
<g id="Node000004" class="node">
<title>Node4</title>
<g id="a_Node000004"><a xlink:href="no__os__spi_8h.html" target="_top" xlink:title="Header file of SPI Interface.">
<polygon fill="white" stroke="#666666" points="74,-129 0,-129 0,-110 74,-110 74,-129"/>
<text text-anchor="middle" x="37" y="-117" font-family="Helvetica,sans-Serif" font-size="10.00">no_os_spi.h</text>
</a>
</g>
</g>
<!-- Node1&#45;&gt;Node4 -->
<g id="edge3_Node000001_Node000004" class="edge">
<title>Node1&#45;&gt;Node4</title>
<g id="a_edge3_Node000001_Node000004"><a xlink:title=" ">
<path fill="none" stroke="#63b8ff" d="M73.68,-219.79C58.9,-211.12 44.31,-199.34 36,-184 28.62,-170.36 29.65,-152.55 32.08,-139.26"/>
<polygon fill="#63b8ff" stroke="#63b8ff" points="35.52,-139.87 34.29,-129.35 28.69,-138.35 35.52,-139.87"/>
</a>
</g>
</g>
<!-- Node5 -->
<g id="Node000005" class="node">
<title>Node5</title>
<g id="a_Node000005"><a xlink:href="no__os__dma_8h.html" target="_top" xlink:title="Platform independent function definitions and data types for the DMA API.">
<polygon fill="white" stroke="#666666" points="367.5,-129 286.5,-129 286.5,-110 367.5,-110 367.5,-129"/>
<text text-anchor="middle" x="327" y="-117" font-family="Helvetica,sans-Serif" font-size="10.00">no_os_dma.h</text>
</a>
</g>
</g>
<!-- Node1&#45;&gt;Node5 -->
<g id="edge5_Node000001_Node000005" class="edge">
<title>Node1&#45;&gt;Node5</title>
<g id="a_edge5_Node000001_Node000005"><a xlink:title=" ">
<path fill="none" stroke="#63b8ff" d="M179.77,-219.99C203.96,-210.74 231.71,-198.53 255,-184 276.51,-170.58 297.89,-150.68 311.69,-136.75"/>
<polygon fill="#63b8ff" stroke="#63b8ff" points="314.43,-138.94 318.88,-129.33 309.41,-134.07 314.43,-138.94"/>
</a>
</g>
</g>
<!-- Node12 -->
<g id="Node000012" class="node">
<title>Node12</title>
<g id="a_Node000012"><a xlink:href="maxim__dma_8h.html" target="_top" xlink:title="Maxim platform specific header DMA API.">
<polygon fill="white" stroke="#666666" points="245.5,-184 158.5,-184 158.5,-165 245.5,-165 245.5,-184"/>
<text text-anchor="middle" x="202" y="-172" font-family="Helvetica,sans-Serif" font-size="10.00">maxim_dma.h</text>
</a>
</g>
</g>
<!-- Node1&#45;&gt;Node12 -->
<g id="edge15_Node000001_Node000012" class="edge">
<title>Node1&#45;&gt;Node12</title>
<g id="a_edge15_Node000001_Node000012"><a xlink:title=" ">
<path fill="none" stroke="#63b8ff" d="M145.74,-219.95C157.64,-210.55 171.68,-199.46 182.76,-190.7"/>
<polygon fill="#63b8ff" stroke="#63b8ff" points="185.24,-193.21 190.91,-184.26 180.9,-187.71 185.24,-193.21"/>
</a>
</g>
</g>
<!-- Node4&#45;&gt;Node2 -->
<g id="edge4_Node000004_Node000002" class="edge">
<title>Node4&#45;&gt;Node2</title>
<g id="a_edge4_Node000004_Node000002"><a xlink:title=" ">
<path fill="none" stroke="#63b8ff" d="M45.62,-109.75C58.41,-96.98 83.46,-72.83 107,-55 121.79,-43.79 139.47,-32.71 153.49,-24.4"/>
<polygon fill="#63b8ff" stroke="#63b8ff" points="155.65,-27.19 162.53,-19.13 152.12,-21.15 155.65,-27.19"/>
</a>
</g>
</g>
<!-- Node5&#45;&gt;Node2 -->
<g id="edge8_Node000005_Node000002" class="edge">
<title>Node5&#45;&gt;Node2</title>
<g id="a_edge8_Node000005_Node000002"><a xlink:title=" ">
<path fill="none" stroke="#63b8ff" d="M289.3,-109.97C266.15,-103.23 237.01,-91.92 216,-74 201.67,-61.77 191.29,-42.72 185.04,-28.67"/>
<polygon fill="#63b8ff" stroke="#63b8ff" points="188.13,-26.99 181.06,-19.1 181.66,-29.68 188.13,-26.99"/>
</a>
</g>
</g>
<!-- Node6 -->
<g id="Node000006" class="node">
<title>Node6</title>
<g id="a_Node000006"><a xlink:title=" ">
<polygon fill="#e0e0e0" stroke="#999999" points="475,-74 425,-74 425,-55 475,-55 475,-74"/>
<text text-anchor="middle" x="450" y="-62" font-family="Helvetica,sans-Serif" font-size="10.00">stdio.h</text>
</a>
</g>
</g>
<!-- Node5&#45;&gt;Node6 -->
<g id="edge6_Node000005_Node000006" class="edge">
<title>Node5&#45;&gt;Node6</title>
<g id="a_edge6_Node000005_Node000006"><a xlink:title=" ">
<path fill="none" stroke="#63b8ff" d="M346.76,-109.98C366.73,-101.38 397.8,-87.99 420.65,-78.15"/>
<polygon fill="#63b8ff" stroke="#63b8ff" points="422.08,-81.34 429.88,-74.17 419.31,-74.91 422.08,-81.34"/>
</a>
</g>
</g>
<!-- Node7 -->
<g id="Node000007" class="node">
<title>Node7</title>
<g id="a_Node000007"><a xlink:title=" ">
<polygon fill="#e0e0e0" stroke="#999999" points="546.5,-74 493.5,-74 493.5,-55 546.5,-55 546.5,-74"/>
<text text-anchor="middle" x="520" y="-62" font-family="Helvetica,sans-Serif" font-size="10.00">stdlib.h</text>
</a>
</g>
</g>
<!-- Node5&#45;&gt;Node7 -->
<g id="edge7_Node000005_Node000007" class="edge">
<title>Node5&#45;&gt;Node7</title>
<g id="a_edge7_Node000005_Node000007"><a xlink:title=" ">
<path fill="none" stroke="#63b8ff" d="M358.01,-109.98C392.29,-100.57 447.46,-85.42 483.72,-75.46"/>
<polygon fill="#63b8ff" stroke="#63b8ff" points="484.7,-78.82 493.42,-72.8 482.85,-72.07 484.7,-78.82"/>
</a>
</g>
</g>
<!-- Node8 -->
<g id="Node000008" class="node">
<title>Node8</title>
<g id="a_Node000008"><a xlink:href="no__os__list_8h.html" target="_top" xlink:title="List library header.">
<polygon fill="white" stroke="#666666" points="639,-74 565,-74 565,-55 639,-55 639,-74"/>
<text text-anchor="middle" x="602" y="-62" font-family="Helvetica,sans-Serif" font-size="10.00">no_os_list.h</text>
</a>
</g>
</g>
<!-- Node5&#45;&gt;Node8 -->
<g id="edge9_Node000005_Node000008" class="edge">
<title>Node5&#45;&gt;Node8</title>
<g id="a_edge9_Node000005_Node000008"><a xlink:title=" ">
<path fill="none" stroke="#63b8ff" d="M367.58,-110.68C417.44,-101.07 501.91,-84.79 554.68,-74.62"/>
<polygon fill="#63b8ff" stroke="#63b8ff" points="555.63,-78 564.79,-72.67 554.31,-71.13 555.63,-78"/>
</a>
</g>
</g>
<!-- Node10 -->
<g id="Node000010" class="node">
<title>Node10</title>
<g id="a_Node000010"><a xlink:href="no__os__irq_8h.html" target="_top" xlink:title="Header file of IRQ interface.">
<polygon fill="white" stroke="#666666" points="297,-74 225,-74 225,-55 297,-55 297,-74"/>
<text text-anchor="middle" x="261" y="-62" font-family="Helvetica,sans-Serif" font-size="10.00">no_os_irq.h</text>
</a>
</g>
</g>
<!-- Node5&#45;&gt;Node10 -->
<g id="edge12_Node000005_Node000010" class="edge">
<title>Node5&#45;&gt;Node10</title>
<g id="a_edge12_Node000005_Node000010"><a xlink:title=" ">
<path fill="none" stroke="#63b8ff" d="M316.4,-109.98C306.54,-102.07 291.65,-90.11 279.78,-80.58"/>
<polygon fill="#63b8ff" stroke="#63b8ff" points="281.79,-77.7 271.8,-74.17 277.4,-83.16 281.79,-77.7"/>
</a>
</g>
</g>
<!-- Node11 -->
<g id="Node000011" class="node">
<title>Node11</title>
<g id="a_Node000011"><a xlink:href="no__os__mutex_8h.html" target="_top" xlink:title=" ">
<polygon fill="white" stroke="#666666" points="406.5,-74 315.5,-74 315.5,-55 406.5,-55 406.5,-74"/>
<text text-anchor="middle" x="361" y="-62" font-family="Helvetica,sans-Serif" font-size="10.00">no_os_mutex.h</text>
</a>
</g>
</g>
<!-- Node5&#45;&gt;Node11 -->
<g id="edge14_Node000005_Node000011" class="edge">
<title>Node5&#45;&gt;Node11</title>
<g id="a_edge14_Node000005_Node000011"><a xlink:title=" ">
<path fill="none" stroke="#63b8ff" d="M332.61,-109.75C337.32,-102.42 344.17,-91.73 349.97,-82.7"/>
<polygon fill="#63b8ff" stroke="#63b8ff" points="353.04,-84.4 355.49,-74.09 347.14,-80.62 353.04,-84.4"/>
</a>
</g>
</g>
<!-- Node8&#45;&gt;Node2 -->
<g id="edge10_Node000008_Node000002" class="edge">
<title>Node8&#45;&gt;Node2</title>
<g id="a_edge10_Node000008_Node000002"><a xlink:title=" ">
<path fill="none" stroke="#63b8ff" d="M564.88,-56.42C561.88,-55.92 558.89,-55.44 556,-55 431.34,-36.17 282.54,-20.69 214.82,-14.02"/>
<polygon fill="#63b8ff" stroke="#63b8ff" points="214.95,-10.52 204.66,-13.03 214.27,-17.49 214.95,-10.52"/>
</a>
</g>
</g>
<!-- Node9 -->
<g id="Node000009" class="node">
<title>Node9</title>
<g id="a_Node000009"><a xlink:title=" ">
<polygon fill="#e0e0e0" stroke="#999999" points="633,-19 571,-19 571,0 633,0 633,-19"/>
<text text-anchor="middle" x="602" y="-7" font-family="Helvetica,sans-Serif" font-size="10.00">stdbool.h</text>
</a>
</g>
</g>
<!-- Node8&#45;&gt;Node9 -->
<g id="edge11_Node000008_Node000009" class="edge">
<title>Node8&#45;&gt;Node9</title>
<g id="a_edge11_Node000008_Node000009"><a xlink:title=" ">
<path fill="none" stroke="#63b8ff" d="M602,-54.75C602,-47.8 602,-37.85 602,-29.13"/>
<polygon fill="#63b8ff" stroke="#63b8ff" points="605.5,-29.09 602,-19.09 598.5,-29.09 605.5,-29.09"/>
</a>
</g>
</g>
<!-- Node10&#45;&gt;Node2 -->
<g id="edge13_Node000010_Node000002" class="edge">
<title>Node10&#45;&gt;Node2</title>
<g id="a_edge13_Node000010_Node000002"><a xlink:title=" ">
<path fill="none" stroke="#63b8ff" d="M247.66,-54.98C234.91,-46.84 215.45,-34.41 200.33,-24.76"/>
<polygon fill="#63b8ff" stroke="#63b8ff" points="201.89,-21.6 191.58,-19.17 198.12,-27.5 201.89,-21.6"/>
</a>
</g>
</g>
<!-- Node12&#45;&gt;Node2 -->
<g id="edge16_Node000012_Node000002" class="edge">
<title>Node12&#45;&gt;Node2</title>
<g id="a_edge16_Node000012_Node000002"><a xlink:title=" ">
<path fill="none" stroke="#63b8ff" d="M195.63,-164.84C189.74,-156.25 181.39,-142.45 178,-129 169.3,-94.54 172.34,-52.64 175.24,-29.02"/>
<polygon fill="#63b8ff" stroke="#63b8ff" points="178.72,-29.39 176.6,-19.01 171.78,-28.45 178.72,-29.39"/>
</a>
</g>
</g>
<!-- Node12&#45;&gt;Node5 -->
<g id="edge17_Node000012_Node000005" class="edge">
<title>Node12&#45;&gt;Node5</title>
<g id="a_edge17_Node000012_Node000005"><a xlink:title=" ">
<path fill="none" stroke="#63b8ff" d="M222.08,-164.98C242.37,-156.38 273.96,-142.99 297.17,-133.15"/>
<polygon fill="#63b8ff" stroke="#63b8ff" points="298.71,-136.3 306.55,-129.17 295.98,-129.85 298.71,-136.3"/>
</a>
</g>
</g>
<!-- Node13 -->
<g id="Node000013" class="node">
<title>Node13</title>
<g id="a_Node000013"><a xlink:title=" ">
<polygon fill="#e0e0e0" stroke="#999999" points="234.5,-129 187.5,-129 187.5,-110 234.5,-110 234.5,-129"/>
<text text-anchor="middle" x="211" y="-117" font-family="Helvetica,sans-Serif" font-size="10.00">dma.h</text>
</a>
</g>
</g>
<!-- Node12&#45;&gt;Node13 -->
<g id="edge18_Node000012_Node000013" class="edge">
<title>Node12&#45;&gt;Node13</title>
<g id="a_edge18_Node000012_Node000013"><a xlink:title=" ">
<path fill="none" stroke="#63b8ff" d="M203.49,-164.75C204.67,-157.8 206.36,-147.85 207.84,-139.13"/>
<polygon fill="#63b8ff" stroke="#63b8ff" points="211.32,-139.53 209.54,-129.09 204.42,-138.36 211.32,-139.53"/>
</a>
</g>
</g>
</g>
</svg>
