<?xml version="1.0" encoding="UTF-8" standalone="no"?>
<!DOCTYPE svg PUBLIC "-//W3C//DTD SVG 1.1//EN"
 "http://www.w3.org/Graphics/SVG/1.1/DTD/svg11.dtd">
<!-- Generated by graphviz version 2.43.0 (0)
 -->
<!-- Title: /home/runner/work/no&#45;OS/no&#45;OS/drivers/gmsl/deserializer/camera/max96792/max96792.h Pages: 1 -->
<!--zoomable 236 -->

<svg id="main" version="1.1" xmlns="http://www.w3.org/2000/svg" xmlns:xlink="http://www.w3.org/1999/xlink" xml:space="preserve" onload="init(evt)">

<style type="text/css"><![CDATA[
.node, .edge {opacity: 0.7;}
.node.selected, .edge.selected {opacity: 1;}
.edge:hover path { stroke: red; }
.edge:hover polygon { stroke: red; fill: red; }
]]></style>

<defs>
  <circle id="rim" cx="0" cy="0" r="7"/>
  <circle id="rim2" cx="0" cy="0" r="3.5"/>
  <g id="zoomPlus">
    <use xlink:href="#rim" fill="#404040"><set attributeName="fill" to="#808080" begin="zoomplus.mouseover" end="zoomplus.mouseout"/></use>
    <path d="M-4,0h8M0,-4v8" fill="none" stroke="white" stroke-width="1.5" pointer-events="none"/>
  </g>
  <g id="zoomMin">
    <use xlink:href="#rim" fill="#404040"><set attributeName="fill" to="#808080" begin="zoomminus.mouseover" end="zoomminus.mouseout"/></use>
    <path d="M-4,0h8" fill="none" stroke="white" stroke-width="1.5" pointer-events="none"/>
  </g>
  <g id="arrowUp" transform="translate(30 24)">
    <use xlink:href="#rim"/>
    <path pointer-events="none" fill="none" stroke="white" stroke-width="1.5" d="M0,-3.0v7 M-2.5,-0.5L0,-3.0L2.5,-0.5"/>
  </g>
  <g id="arrowRight" transform="rotate(90) translate(36 -43)">
    <use xlink:href="#rim"/>
    <path pointer-events="none" fill="none" stroke="white" stroke-width="1.5" d="M0,-3.0v7 M-2.5,-0.5L0,-3.0L2.5,-0.5"/>
  </g>
  <g id="arrowDown" transform="rotate(180) translate(-30 -48)">
    <use xlink:href="#rim"/>
    <path pointer-events="none" fill="none" stroke="white" stroke-width="1.5" d="M0,-3.0v7 M-2.5,-0.5L0,-3.0L2.5,-0.5"/>
  </g>
  <g id="arrowLeft" transform="rotate(270) translate(-36 17)">
    <use xlink:href="#rim"/>
    <path pointer-events="none" fill="none" stroke="white" stroke-width="1.5" d="M0,-3.0v7 M-2.5,-0.5L0,-3.0L2.5,-0.5"/>
  </g>
  <g id="resetDef">
    <use xlink:href="#rim2" fill="#404040"><set attributeName="fill" to="#808080" begin="reset.mouseover" end="reset.mouseout"/></use>
  </g>
</defs>
<script type="application/ecmascript">
var viewWidth = 576;
var viewHeight = 236;
var sectionId = 'dynsection-1';
</script>
<script type="application/ecmascript" xlink:href="svg.min.js"/>
<svg id="graph" class="graph">
<g id="viewport">
<title>/home/runner/work/no&#45;OS/no&#45;OS/drivers/gmsl/deserializer/camera/max96792/max96792.h</title>
<!-- Node1 -->
<g id="Node000001" class="node">
<title>Node1</title>
<g id="a_Node000001"><a xlink:title=" ">
<polygon fill="#999999" stroke="#666666" points="407,-228 236,-228 236,-176 407,-176 407,-228"/>
<text text-anchor="start" x="244" y="-216" font-family="Helvetica,sans-Serif" font-size="10.00">/home/runner/work/no</text>
<text text-anchor="start" x="244" y="-205" font-family="Helvetica,sans-Serif" font-size="10.00">&#45;OS/no&#45;OS/drivers/gmsl</text>
<text text-anchor="start" x="244" y="-194" font-family="Helvetica,sans-Serif" font-size="10.00">/deserializer/camera/max96792</text>
<text text-anchor="middle" x="321.5" y="-183" font-family="Helvetica,sans-Serif" font-size="10.00">/max96792.h</text>
</a>
</g>
</g>
<!-- Node2 -->
<g id="Node000002" class="node">
<title>Node2</title>
<g id="a_Node000002"><a xlink:href="max96792_8c.html" target="_top" xlink:title=" ">
<polygon fill="white" stroke="#666666" points="360,-52 189,-52 189,0 360,0 360,-52"/>
<text text-anchor="start" x="197" y="-40" font-family="Helvetica,sans-Serif" font-size="10.00">/home/runner/work/no</text>
<text text-anchor="start" x="197" y="-29" font-family="Helvetica,sans-Serif" font-size="10.00">&#45;OS/no&#45;OS/drivers/gmsl</text>
<text text-anchor="start" x="197" y="-18" font-family="Helvetica,sans-Serif" font-size="10.00">/deserializer/camera/max96792</text>
<text text-anchor="middle" x="274.5" y="-7" font-family="Helvetica,sans-Serif" font-size="10.00">/max96792.c</text>
</a>
</g>
</g>
<!-- Node1&#45;&gt;Node2 -->
<g id="edge1_Node000001_Node000002" class="edge">
<title>Node1&#45;&gt;Node2</title>
<g id="a_edge1_Node000001_Node000002"><a xlink:title=" ">
<path fill="none" stroke="#63b8ff" d="M296.63,-167.4C291.43,-158.85 286.6,-149.41 283.5,-140 273.95,-111.03 272.67,-75.71 273.14,-52.36"/>
<polygon fill="#63b8ff" stroke="#63b8ff" points="293.77,-169.42 302.11,-175.95 299.66,-165.64 293.77,-169.42"/>
</a>
</g>
</g>
<!-- Node3 -->
<g id="Node000003" class="node">
<title>Node3</title>
<g id="a_Node000003"><a xlink:href="max96792__csi_8h.html" target="_top" xlink:title=" ">
<polygon fill="white" stroke="#666666" points="236,-140 65,-140 65,-88 236,-88 236,-140"/>
<text text-anchor="start" x="73" y="-128" font-family="Helvetica,sans-Serif" font-size="10.00">/home/runner/work/no</text>
<text text-anchor="start" x="73" y="-117" font-family="Helvetica,sans-Serif" font-size="10.00">&#45;OS/no&#45;OS/drivers/gmsl</text>
<text text-anchor="start" x="73" y="-106" font-family="Helvetica,sans-Serif" font-size="10.00">/deserializer/camera/max96792</text>
<text text-anchor="middle" x="150.5" y="-95" font-family="Helvetica,sans-Serif" font-size="10.00">/max96792_csi.h</text>
</a>
</g>
</g>
<!-- Node1&#45;&gt;Node3 -->
<g id="edge2_Node000001_Node000003" class="edge">
<title>Node1&#45;&gt;Node3</title>
<g id="a_edge2_Node000001_Node000003"><a xlink:title=" ">
<path fill="none" stroke="#63b8ff" d="M262.47,-171.31C242.28,-161.16 219.89,-149.9 200.48,-140.14"/>
<polygon fill="#63b8ff" stroke="#63b8ff" points="261.07,-174.53 271.58,-175.89 264.22,-168.27 261.07,-174.53"/>
</a>
</g>
</g>
<!-- Node5 -->
<g id="Node000005" class="node">
<title>Node5</title>
<g id="a_Node000005"><a xlink:href="max96792__diag_8c.html" target="_top" xlink:title=" ">
<polygon fill="white" stroke="#666666" points="568,-52 397,-52 397,0 568,0 568,-52"/>
<text text-anchor="start" x="405" y="-40" font-family="Helvetica,sans-Serif" font-size="10.00">/home/runner/work/no</text>
<text text-anchor="start" x="405" y="-29" font-family="Helvetica,sans-Serif" font-size="10.00">&#45;OS/no&#45;OS/drivers/gmsl</text>
<text text-anchor="start" x="405" y="-18" font-family="Helvetica,sans-Serif" font-size="10.00">/deserializer/camera/max96792</text>
<text text-anchor="middle" x="482.5" y="-7" font-family="Helvetica,sans-Serif" font-size="10.00">/max96792_diag.c</text>
</a>
</g>
</g>
<!-- Node1&#45;&gt;Node5 -->
<g id="edge5_Node000001_Node000005" class="edge">
<title>Node1&#45;&gt;Node5</title>
<g id="a_edge5_Node000001_Node000005"><a xlink:title=" ">
<path fill="none" stroke="#63b8ff" d="M416.67,-181.16C438.56,-172.14 459.49,-159.04 473.5,-140 492.16,-114.64 491.01,-76.84 487.52,-52.05"/>
<polygon fill="#63b8ff" stroke="#63b8ff" points="415.32,-177.93 407.24,-184.78 417.83,-184.46 415.32,-177.93"/>
</a>
</g>
</g>
<!-- Node6 -->
<g id="Node000006" class="node">
<title>Node6</title>
<g id="a_Node000006"><a xlink:href="max96792__diag_8h.html" target="_top" xlink:title=" ">
<polygon fill="white" stroke="#666666" points="464,-140 293,-140 293,-88 464,-88 464,-140"/>
<text text-anchor="start" x="301" y="-128" font-family="Helvetica,sans-Serif" font-size="10.00">/home/runner/work/no</text>
<text text-anchor="start" x="301" y="-117" font-family="Helvetica,sans-Serif" font-size="10.00">&#45;OS/no&#45;OS/drivers/gmsl</text>
<text text-anchor="start" x="301" y="-106" font-family="Helvetica,sans-Serif" font-size="10.00">/deserializer/camera/max96792</text>
<text text-anchor="middle" x="378.5" y="-95" font-family="Helvetica,sans-Serif" font-size="10.00">/max96792_diag.h</text>
</a>
</g>
</g>
<!-- Node1&#45;&gt;Node6 -->
<g id="edge6_Node000001_Node000006" class="edge">
<title>Node1&#45;&gt;Node6</title>
<g id="a_edge6_Node000001_Node000006"><a xlink:title=" ">
<path fill="none" stroke="#63b8ff" d="M343.87,-167.24C349.85,-158.22 356.21,-148.63 361.83,-140.16"/>
<polygon fill="#63b8ff" stroke="#63b8ff" points="340.9,-165.39 338.29,-175.66 346.74,-169.26 340.9,-165.39"/>
</a>
</g>
</g>
<!-- Node3&#45;&gt;Node2 -->
<g id="edge3_Node000003_Node000002" class="edge">
<title>Node3&#45;&gt;Node2</title>
<g id="a_edge3_Node000003_Node000002"><a xlink:title=" ">
<path fill="none" stroke="#63b8ff" d="M195.25,-81.96C209.3,-72.22 224.64,-61.58 238.04,-52.29"/>
<polygon fill="#63b8ff" stroke="#63b8ff" points="192.92,-79.32 186.7,-87.89 196.91,-85.07 192.92,-79.32"/>
</a>
</g>
</g>
<!-- Node4 -->
<g id="Node000004" class="node">
<title>Node4</title>
<g id="a_Node000004"><a xlink:href="max96792__csi_8c.html" target="_top" xlink:title=" ">
<polygon fill="white" stroke="#666666" points="171,-52 0,-52 0,0 171,0 171,-52"/>
<text text-anchor="start" x="8" y="-40" font-family="Helvetica,sans-Serif" font-size="10.00">/home/runner/work/no</text>
<text text-anchor="start" x="8" y="-29" font-family="Helvetica,sans-Serif" font-size="10.00">&#45;OS/no&#45;OS/drivers/gmsl</text>
<text text-anchor="start" x="8" y="-18" font-family="Helvetica,sans-Serif" font-size="10.00">/deserializer/camera/max96792</text>
<text text-anchor="middle" x="85.5" y="-7" font-family="Helvetica,sans-Serif" font-size="10.00">/max96792_csi.c</text>
</a>
</g>
</g>
<!-- Node3&#45;&gt;Node4 -->
<g id="edge4_Node000003_Node000004" class="edge">
<title>Node3&#45;&gt;Node4</title>
<g id="a_edge4_Node000003_Node000004"><a xlink:title=" ">
<path fill="none" stroke="#63b8ff" d="M125.2,-79.52C118.31,-70.42 110.98,-60.71 104.51,-52.16"/>
<polygon fill="#63b8ff" stroke="#63b8ff" points="122.53,-81.79 131.35,-87.66 128.11,-77.57 122.53,-81.79"/>
</a>
</g>
</g>
<!-- Node6&#45;&gt;Node2 -->
<g id="edge7_Node000006_Node000002" class="edge">
<title>Node6&#45;&gt;Node2</title>
<g id="a_edge7_Node000006_Node000002"><a xlink:title=" ">
<path fill="none" stroke="#63b8ff" d="M340.3,-81.41C328.7,-71.82 316.11,-61.41 305.08,-52.29"/>
<polygon fill="#63b8ff" stroke="#63b8ff" points="338.2,-84.22 348.14,-87.89 342.66,-78.82 338.2,-84.22"/>
</a>
</g>
</g>
<!-- Node6&#45;&gt;Node5 -->
<g id="edge8_Node000006_Node000005" class="edge">
<title>Node6&#45;&gt;Node5</title>
<g id="a_edge8_Node000006_Node000005"><a xlink:title=" ">
<path fill="none" stroke="#63b8ff" d="M416.7,-81.41C428.3,-71.82 440.89,-61.41 451.92,-52.29"/>
<polygon fill="#63b8ff" stroke="#63b8ff" points="414.34,-78.82 408.86,-87.89 418.8,-84.22 414.34,-78.82"/>
</a>
</g>
</g>
</g>
</svg>

<g id="navigator" transform="translate(0 0)" fill="#404254">
  <rect fill="#f2f5e9" fill-opacity="0.5" stroke="#606060" stroke-width=".5" x="0" y="0" width="60" height="60"/>
  <use id="zoomplus" xlink:href="#zoomPlus" x="17" y="9" onmousedown="handleZoom(evt,'in')"/>
  <use id="zoomminus" xlink:href="#zoomMin" x="42" y="9" onmousedown="handleZoom(evt,'out')"/>
  <use id="reset" xlink:href="#resetDef" x="30" y="36" onmousedown="handleReset()"/>
   <use id="arrowup" xlink:href="#arrowUp" x="0" y="0" onmousedown="handlePan(0,-1)"/>
  <use id="arrowright" xlink:href="#arrowRight" x="0" y="0" onmousedown="handlePan(1,0)"/>
  <use id="arrowdown" xlink:href="#arrowDown" x="0" y="0" onmousedown="handlePan(0,1)"/>
  <use id="arrowleft" xlink:href="#arrowLeft" x="0" y="0" onmousedown="handlePan(-1,0)"/>
</g>
<svg viewBox="0 0 15 15" width="100%" height="30px" preserveAspectRatio="xMaxYMin meet">
 <g id="arrow_out" transform="scale(0.3 0.3)">
  <a xlink:href="max96792_8h__dep__incl_org.svg" target="_base">
   <rect id="button" ry="5" rx="5" y="6" x="6" height="38" width="38"
        fill="#f2f5e9" fill-opacity="0.5" stroke="#606060" stroke-width="1.0"/>
   <path id="arrow"
     d="M 11.500037,31.436501 C 11.940474,20.09759 22.043105,11.32322 32.158766,21.979434 L 37.068811,17.246167 C 37.068811,17.246167 37.088388,32 37.088388,32 L 22.160133,31.978069 C 22.160133,31.978069 26.997745,27.140456 26.997745,27.140456 C 18.528582,18.264221 13.291696,25.230495 11.500037,31.436501 z"
     style="fill:#404040;"/>
  </a>
 </g>
</svg>

<style type='text/css'>
<![CDATA[
[data-mouse-over-selected='false'] { opacity: 0.7; }
[data-mouse-over-selected='true']  { opacity: 1.0; }
]]>
</style>
<script type="application/ecmascript"><![CDATA[
document.addEventListener('DOMContentLoaded', (event) => {
  highlightEdges();
  highlightAdjacentNodes();
});
]]></script>
</svg>
