<?xml version="1.0" encoding="UTF-8" standalone="no"?>
<!DOCTYPE svg PUBLIC "-//W3C//DTD SVG 1.1//EN"
 "http://www.w3.org/Graphics/SVG/1.1/DTD/svg11.dtd">
<!-- Generated by graphviz version 2.43.0 (0)
 -->
<!-- Title: /home/runner/work/no&#45;OS/no&#45;OS/drivers/gmsl/deserializer/camera/max96792/max96792.h Pages: 1 -->
<svg width="576pt" height="236pt"
 viewBox="0.00 0.00 576.00 236.00" xmlns="http://www.w3.org/2000/svg" xmlns:xlink="http://www.w3.org/1999/xlink">
<g id="graph0" class="graph" transform="scale(1 1) rotate(0) translate(4 232)">
<title>/home/runner/work/no&#45;OS/no&#45;OS/drivers/gmsl/deserializer/camera/max96792/max96792.h</title>
<!-- Node1 -->
<g id="Node000001" class="node">
<title>Node1</title>
<g id="a_Node000001"><a xlink:title=" ">
<polygon fill="#999999" stroke="#666666" points="407,-228 236,-228 236,-176 407,-176 407,-228"/>
<text text-anchor="start" x="244" y="-216" font-family="Helvetica,sans-Serif" font-size="10.00">/home/runner/work/no</text>
<text text-anchor="start" x="244" y="-205" font-family="Helvetica,sans-Serif" font-size="10.00">&#45;OS/no&#45;OS/drivers/gmsl</text>
<text text-anchor="start" x="244" y="-194" font-family="Helvetica,sans-Serif" font-size="10.00">/deserializer/camera/max96792</text>
<text text-anchor="middle" x="321.5" y="-183" font-family="Helvetica,sans-Serif" font-size="10.00">/max96792.h</text>
</a>
</g>
</g>
<!-- Node2 -->
<g id="Node000002" class="node">
<title>Node2</title>
<g id="a_Node000002"><a xlink:href="max96792_8c.html" target="_top" xlink:title=" ">
<polygon fill="white" stroke="#666666" points="360,-52 189,-52 189,0 360,0 360,-52"/>
<text text-anchor="start" x="197" y="-40" font-family="Helvetica,sans-Serif" font-size="10.00">/home/runner/work/no</text>
<text text-anchor="start" x="197" y="-29" font-family="Helvetica,sans-Serif" font-size="10.00">&#45;OS/no&#45;OS/drivers/gmsl</text>
<text text-anchor="start" x="197" y="-18" font-family="Helvetica,sans-Serif" font-size="10.00">/deserializer/camera/max96792</text>
<text text-anchor="middle" x="274.5" y="-7" font-family="Helvetica,sans-Serif" font-size="10.00">/max96792.c</text>
</a>
</g>
</g>
<!-- Node1&#45;&gt;Node2 -->
<g id="edge1_Node000001_Node000002" class="edge">
<title>Node1&#45;&gt;Node2</title>
<g id="a_edge1_Node000001_Node000002"><a xlink:title=" ">
<path fill="none" stroke="#63b8ff" d="M296.63,-167.4C291.43,-158.85 286.6,-149.41 283.5,-140 273.95,-111.03 272.67,-75.71 273.14,-52.36"/>
<polygon fill="#63b8ff" stroke="#63b8ff" points="293.77,-169.42 302.11,-175.95 299.66,-165.64 293.77,-169.42"/>
</a>
</g>
</g>
<!-- Node3 -->
<g id="Node000003" class="node">
<title>Node3</title>
<g id="a_Node000003"><a xlink:href="max96792__csi_8h.html" target="_top" xlink:title=" ">
<polygon fill="white" stroke="#666666" points="236,-140 65,-140 65,-88 236,-88 236,-140"/>
<text text-anchor="start" x="73" y="-128" font-family="Helvetica,sans-Serif" font-size="10.00">/home/runner/work/no</text>
<text text-anchor="start" x="73" y="-117" font-family="Helvetica,sans-Serif" font-size="10.00">&#45;OS/no&#45;OS/drivers/gmsl</text>
<text text-anchor="start" x="73" y="-106" font-family="Helvetica,sans-Serif" font-size="10.00">/deserializer/camera/max96792</text>
<text text-anchor="middle" x="150.5" y="-95" font-family="Helvetica,sans-Serif" font-size="10.00">/max96792_csi.h</text>
</a>
</g>
</g>
<!-- Node1&#45;&gt;Node3 -->
<g id="edge2_Node000001_Node000003" class="edge">
<title>Node1&#45;&gt;Node3</title>
<g id="a_edge2_Node000001_Node000003"><a xlink:title=" ">
<path fill="none" stroke="#63b8ff" d="M262.47,-171.31C242.28,-161.16 219.89,-149.9 200.48,-140.14"/>
<polygon fill="#63b8ff" stroke="#63b8ff" points="261.07,-174.53 271.58,-175.89 264.22,-168.27 261.07,-174.53"/>
</a>
</g>
</g>
<!-- Node5 -->
<g id="Node000005" class="node">
<title>Node5</title>
<g id="a_Node000005"><a xlink:href="max96792__diag_8c.html" target="_top" xlink:title=" ">
<polygon fill="white" stroke="#666666" points="568,-52 397,-52 397,0 568,0 568,-52"/>
<text text-anchor="start" x="405" y="-40" font-family="Helvetica,sans-Serif" font-size="10.00">/home/runner/work/no</text>
<text text-anchor="start" x="405" y="-29" font-family="Helvetica,sans-Serif" font-size="10.00">&#45;OS/no&#45;OS/drivers/gmsl</text>
<text text-anchor="start" x="405" y="-18" font-family="Helvetica,sans-Serif" font-size="10.00">/deserializer/camera/max96792</text>
<text text-anchor="middle" x="482.5" y="-7" font-family="Helvetica,sans-Serif" font-size="10.00">/max96792_diag.c</text>
</a>
</g>
</g>
<!-- Node1&#45;&gt;Node5 -->
<g id="edge5_Node000001_Node000005" class="edge">
<title>Node1&#45;&gt;Node5</title>
<g id="a_edge5_Node000001_Node000005"><a xlink:title=" ">
<path fill="none" stroke="#63b8ff" d="M416.67,-181.16C438.56,-172.14 459.49,-159.04 473.5,-140 492.16,-114.64 491.01,-76.84 487.52,-52.05"/>
<polygon fill="#63b8ff" stroke="#63b8ff" points="415.32,-177.93 407.24,-184.78 417.83,-184.46 415.32,-177.93"/>
</a>
</g>
</g>
<!-- Node6 -->
<g id="Node000006" class="node">
<title>Node6</title>
<g id="a_Node000006"><a xlink:href="max96792__diag_8h.html" target="_top" xlink:title=" ">
<polygon fill="white" stroke="#666666" points="464,-140 293,-140 293,-88 464,-88 464,-140"/>
<text text-anchor="start" x="301" y="-128" font-family="Helvetica,sans-Serif" font-size="10.00">/home/runner/work/no</text>
<text text-anchor="start" x="301" y="-117" font-family="Helvetica,sans-Serif" font-size="10.00">&#45;OS/no&#45;OS/drivers/gmsl</text>
<text text-anchor="start" x="301" y="-106" font-family="Helvetica,sans-Serif" font-size="10.00">/deserializer/camera/max96792</text>
<text text-anchor="middle" x="378.5" y="-95" font-family="Helvetica,sans-Serif" font-size="10.00">/max96792_diag.h</text>
</a>
</g>
</g>
<!-- Node1&#45;&gt;Node6 -->
<g id="edge6_Node000001_Node000006" class="edge">
<title>Node1&#45;&gt;Node6</title>
<g id="a_edge6_Node000001_Node000006"><a xlink:title=" ">
<path fill="none" stroke="#63b8ff" d="M343.87,-167.24C349.85,-158.22 356.21,-148.63 361.83,-140.16"/>
<polygon fill="#63b8ff" stroke="#63b8ff" points="340.9,-165.39 338.29,-175.66 346.74,-169.26 340.9,-165.39"/>
</a>
</g>
</g>
<!-- Node3&#45;&gt;Node2 -->
<g id="edge3_Node000003_Node000002" class="edge">
<title>Node3&#45;&gt;Node2</title>
<g id="a_edge3_Node000003_Node000002"><a xlink:title=" ">
<path fill="none" stroke="#63b8ff" d="M195.25,-81.96C209.3,-72.22 224.64,-61.58 238.04,-52.29"/>
<polygon fill="#63b8ff" stroke="#63b8ff" points="192.92,-79.32 186.7,-87.89 196.91,-85.07 192.92,-79.32"/>
</a>
</g>
</g>
<!-- Node4 -->
<g id="Node000004" class="node">
<title>Node4</title>
<g id="a_Node000004"><a xlink:href="max96792__csi_8c.html" target="_top" xlink:title=" ">
<polygon fill="white" stroke="#666666" points="171,-52 0,-52 0,0 171,0 171,-52"/>
<text text-anchor="start" x="8" y="-40" font-family="Helvetica,sans-Serif" font-size="10.00">/home/runner/work/no</text>
<text text-anchor="start" x="8" y="-29" font-family="Helvetica,sans-Serif" font-size="10.00">&#45;OS/no&#45;OS/drivers/gmsl</text>
<text text-anchor="start" x="8" y="-18" font-family="Helvetica,sans-Serif" font-size="10.00">/deserializer/camera/max96792</text>
<text text-anchor="middle" x="85.5" y="-7" font-family="Helvetica,sans-Serif" font-size="10.00">/max96792_csi.c</text>
</a>
</g>
</g>
<!-- Node3&#45;&gt;Node4 -->
<g id="edge4_Node000003_Node000004" class="edge">
<title>Node3&#45;&gt;Node4</title>
<g id="a_edge4_Node000003_Node000004"><a xlink:title=" ">
<path fill="none" stroke="#63b8ff" d="M125.2,-79.52C118.31,-70.42 110.98,-60.71 104.51,-52.16"/>
<polygon fill="#63b8ff" stroke="#63b8ff" points="122.53,-81.79 131.35,-87.66 128.11,-77.57 122.53,-81.79"/>
</a>
</g>
</g>
<!-- Node6&#45;&gt;Node2 -->
<g id="edge7_Node000006_Node000002" class="edge">
<title>Node6&#45;&gt;Node2</title>
<g id="a_edge7_Node000006_Node000002"><a xlink:title=" ">
<path fill="none" stroke="#63b8ff" d="M340.3,-81.41C328.7,-71.82 316.11,-61.41 305.08,-52.29"/>
<polygon fill="#63b8ff" stroke="#63b8ff" points="338.2,-84.22 348.14,-87.89 342.66,-78.82 338.2,-84.22"/>
</a>
</g>
</g>
<!-- Node6&#45;&gt;Node5 -->
<g id="edge8_Node000006_Node000005" class="edge">
<title>Node6&#45;&gt;Node5</title>
<g id="a_edge8_Node000006_Node000005"><a xlink:title=" ">
<path fill="none" stroke="#63b8ff" d="M416.7,-81.41C428.3,-71.82 440.89,-61.41 451.92,-52.29"/>
<polygon fill="#63b8ff" stroke="#63b8ff" points="414.34,-78.82 408.86,-87.89 418.8,-84.22 414.34,-78.82"/>
</a>
</g>
</g>
</g>
</svg>
