<?xml version="1.0" encoding="UTF-8" standalone="no"?>
<!DOCTYPE svg PUBLIC "-//W3C//DTD SVG 1.1//EN"
 "http://www.w3.org/Graphics/SVG/1.1/DTD/svg11.dtd">
<!-- Generated by graphviz version 2.43.0 (0)
 -->
<!-- Title: /home/runner/work/no&#45;OS/no&#45;OS/drivers/gmsl/deserializer/camera/max96792/max96792_csi.h Pages: 1 -->
<svg width="368pt" height="148pt"
 viewBox="0.00 0.00 368.00 148.00" xmlns="http://www.w3.org/2000/svg" xmlns:xlink="http://www.w3.org/1999/xlink">
<g id="graph0" class="graph" transform="scale(1 1) rotate(0) translate(4 144)">
<title>/home/runner/work/no&#45;OS/no&#45;OS/drivers/gmsl/deserializer/camera/max96792/max96792_csi.h</title>
<!-- Node1 -->
<g id="Node000001" class="node">
<title>Node1</title>
<g id="a_Node000001"><a xlink:title=" ">
<polygon fill="#999999" stroke="#666666" points="265,-140 94,-140 94,-88 265,-88 265,-140"/>
<text text-anchor="start" x="102" y="-128" font-family="Helvetica,sans-Serif" font-size="10.00">/home/runner/work/no</text>
<text text-anchor="start" x="102" y="-117" font-family="Helvetica,sans-Serif" font-size="10.00">&#45;OS/no&#45;OS/drivers/gmsl</text>
<text text-anchor="start" x="102" y="-106" font-family="Helvetica,sans-Serif" font-size="10.00">/deserializer/camera/max96792</text>
<text text-anchor="middle" x="179.5" y="-95" font-family="Helvetica,sans-Serif" font-size="10.00">/max96792_csi.h</text>
</a>
</g>
</g>
<!-- Node2 -->
<g id="Node000002" class="node">
<title>Node2</title>
<g id="a_Node000002"><a xlink:href="max96792_8c.html" target="_top" xlink:title=" ">
<polygon fill="white" stroke="#666666" points="171,-52 0,-52 0,0 171,0 171,-52"/>
<text text-anchor="start" x="8" y="-40" font-family="Helvetica,sans-Serif" font-size="10.00">/home/runner/work/no</text>
<text text-anchor="start" x="8" y="-29" font-family="Helvetica,sans-Serif" font-size="10.00">&#45;OS/no&#45;OS/drivers/gmsl</text>
<text text-anchor="start" x="8" y="-18" font-family="Helvetica,sans-Serif" font-size="10.00">/deserializer/camera/max96792</text>
<text text-anchor="middle" x="85.5" y="-7" font-family="Helvetica,sans-Serif" font-size="10.00">/max96792.c</text>
</a>
</g>
</g>
<!-- Node1&#45;&gt;Node2 -->
<g id="edge1_Node000001_Node000002" class="edge">
<title>Node1&#45;&gt;Node2</title>
<g id="a_edge1_Node000001_Node000002"><a xlink:title=" ">
<path fill="none" stroke="#63b8ff" d="M144.67,-81.13C134.27,-71.62 123.01,-61.32 113.14,-52.29"/>
<polygon fill="#63b8ff" stroke="#63b8ff" points="142.32,-83.73 152.06,-87.89 147.04,-78.56 142.32,-83.73"/>
</a>
</g>
</g>
<!-- Node3 -->
<g id="Node000003" class="node">
<title>Node3</title>
<g id="a_Node000003"><a xlink:href="max96792__csi_8c.html" target="_top" xlink:title=" ">
<polygon fill="white" stroke="#666666" points="360,-52 189,-52 189,0 360,0 360,-52"/>
<text text-anchor="start" x="197" y="-40" font-family="Helvetica,sans-Serif" font-size="10.00">/home/runner/work/no</text>
<text text-anchor="start" x="197" y="-29" font-family="Helvetica,sans-Serif" font-size="10.00">&#45;OS/no&#45;OS/drivers/gmsl</text>
<text text-anchor="start" x="197" y="-18" font-family="Helvetica,sans-Serif" font-size="10.00">/deserializer/camera/max96792</text>
<text text-anchor="middle" x="274.5" y="-7" font-family="Helvetica,sans-Serif" font-size="10.00">/max96792_csi.c</text>
</a>
</g>
</g>
<!-- Node1&#45;&gt;Node3 -->
<g id="edge2_Node000001_Node000003" class="edge">
<title>Node1&#45;&gt;Node3</title>
<g id="a_edge2_Node000001_Node000003"><a xlink:title=" ">
<path fill="none" stroke="#63b8ff" d="M214.7,-81.13C225.21,-71.62 236.59,-61.32 246.57,-52.29"/>
<polygon fill="#63b8ff" stroke="#63b8ff" points="212.3,-78.59 207.23,-87.89 217,-83.78 212.3,-78.59"/>
</a>
</g>
</g>
</g>
</svg>
