<?xml version="1.0" encoding="UTF-8" standalone="no"?>
<!DOCTYPE svg PUBLIC "-//W3C//DTD SVG 1.1//EN"
 "http://www.w3.org/Graphics/SVG/1.1/DTD/svg11.dtd">
<!-- Generated by graphviz version 2.43.0 (0)
 -->
<!-- Title: /home/runner/work/no&#45;OS/no&#45;OS/drivers/gmsl/serializer/camera/max96793/max96793_diag.c Pages: 1 -->
<svg width="808pt" height="390pt"
 viewBox="0.00 0.00 807.50 390.00" xmlns="http://www.w3.org/2000/svg" xmlns:xlink="http://www.w3.org/1999/xlink">
<g id="graph0" class="graph" transform="scale(1 1) rotate(0) translate(4 386)">
<title>/home/runner/work/no&#45;OS/no&#45;OS/drivers/gmsl/serializer/camera/max96793/max96793_diag.c</title>
<!-- Node1 -->
<g id="Node000001" class="node">
<title>Node1</title>
<g id="a_Node000001"><a xlink:title=" ">
<polygon fill="#999999" stroke="#666666" points="488,-382 329,-382 329,-330 488,-330 488,-382"/>
<text text-anchor="start" x="337" y="-370" font-family="Helvetica,sans-Serif" font-size="10.00">/home/runner/work/no</text>
<text text-anchor="start" x="337" y="-359" font-family="Helvetica,sans-Serif" font-size="10.00">&#45;OS/no&#45;OS/drivers/gmsl</text>
<text text-anchor="start" x="337" y="-348" font-family="Helvetica,sans-Serif" font-size="10.00">/serializer/camera/max96793</text>
<text text-anchor="middle" x="408.5" y="-337" font-family="Helvetica,sans-Serif" font-size="10.00">/max96793_diag.c</text>
</a>
</g>
</g>
<!-- Node2 -->
<g id="Node000002" class="node">
<title>Node2</title>
<g id="a_Node000002"><a xlink:href="max96793__diag_8h.html" target="_top" xlink:title=" ">
<polygon fill="white" stroke="#666666" points="266.5,-294 162.5,-294 162.5,-275 266.5,-275 266.5,-294"/>
<text text-anchor="middle" x="214.5" y="-282" font-family="Helvetica,sans-Serif" font-size="10.00">max96793_diag.h</text>
</a>
</g>
</g>
<!-- Node1&#45;&gt;Node2 -->
<g id="edge1_Node000001_Node000002" class="edge">
<title>Node1&#45;&gt;Node2</title>
<g id="a_edge1_Node000001_Node000002"><a xlink:title=" ">
<path fill="none" stroke="#63b8ff" d="M338.46,-329.91C307.75,-318.91 273.11,-306.5 248.28,-297.6"/>
<polygon fill="#63b8ff" stroke="#63b8ff" points="249.2,-294.21 238.6,-294.14 246.84,-300.8 249.2,-294.21"/>
</a>
</g>
</g>
<!-- Node3 -->
<g id="Node000003" class="node">
<title>Node3</title>
<g id="a_Node000003"><a xlink:href="max96793_8h.html" target="_top" xlink:title=" ">
<polygon fill="white" stroke="#666666" points="253,-239 176,-239 176,-220 253,-220 253,-239"/>
<text text-anchor="middle" x="214.5" y="-227" font-family="Helvetica,sans-Serif" font-size="10.00">max96793.h</text>
</a>
</g>
</g>
<!-- Node1&#45;&gt;Node3 -->
<g id="edge26_Node000001_Node000003" class="edge">
<title>Node1&#45;&gt;Node3</title>
<g id="a_edge26_Node000001_Node000003"><a xlink:title=" ">
<path fill="none" stroke="#63b8ff" d="M369.24,-329.81C329.34,-304.2 268.93,-265.43 236.66,-244.72"/>
<polygon fill="#63b8ff" stroke="#63b8ff" points="238.28,-241.61 227.98,-239.15 234.5,-247.5 238.28,-241.61"/>
</a>
</g>
</g>
<!-- Node7 -->
<g id="Node000007" class="node">
<title>Node7</title>
<g id="a_Node000007"><a xlink:href="gmsl__reg__access_8h.html" target="_top" xlink:title=" ">
<polygon fill="white" stroke="#666666" points="109,-129 0,-129 0,-110 109,-110 109,-129"/>
<text text-anchor="middle" x="54.5" y="-117" font-family="Helvetica,sans-Serif" font-size="10.00">gmsl_reg_access.h</text>
</a>
</g>
</g>
<!-- Node1&#45;&gt;Node7 -->
<g id="edge22_Node000001_Node000007" class="edge">
<title>Node1&#45;&gt;Node7</title>
<g id="a_edge22_Node000001_Node000007"><a xlink:title=" ">
<path fill="none" stroke="#63b8ff" d="M328.93,-350.26C275.52,-343.81 205.66,-328.8 153.5,-294 103.22,-260.45 100.32,-238.17 73.5,-184 66.39,-169.64 61.4,-152.12 58.32,-139.12"/>
<polygon fill="#63b8ff" stroke="#63b8ff" points="61.67,-138.07 56.1,-129.06 54.83,-139.58 61.67,-138.07"/>
</a>
</g>
</g>
<!-- Node9 -->
<g id="Node000009" class="node">
<title>Node9</title>
<g id="a_Node000009"><a xlink:href="gmsl__dbg_8h.html" target="_top" xlink:title=" ">
<polygon fill="white" stroke="#666666" points="461,-184 388,-184 388,-165 461,-165 461,-184"/>
<text text-anchor="middle" x="424.5" y="-172" font-family="Helvetica,sans-Serif" font-size="10.00">gmsl_dbg.h</text>
</a>
</g>
</g>
<!-- Node1&#45;&gt;Node9 -->
<g id="edge13_Node000001_Node000009" class="edge">
<title>Node1&#45;&gt;Node9</title>
<g id="a_edge13_Node000001_Node000009"><a xlink:title=" ">
<path fill="none" stroke="#63b8ff" d="M410.76,-329.66C414,-293.34 419.89,-227.27 422.79,-194.7"/>
<polygon fill="#63b8ff" stroke="#63b8ff" points="426.31,-194.61 423.71,-184.34 419.34,-193.99 426.31,-194.61"/>
</a>
</g>
</g>
<!-- Node12 -->
<g id="Node000012" class="node">
<title>Node12</title>
<g id="a_Node000012"><a xlink:href="gmsl__cam__ser_8h.html" target="_top" xlink:title=" ">
<polygon fill="white" stroke="#666666" points="370,-184 275,-184 275,-165 370,-165 370,-184"/>
<text text-anchor="middle" x="322.5" y="-172" font-family="Helvetica,sans-Serif" font-size="10.00">gmsl_cam_ser.h</text>
</a>
</g>
</g>
<!-- Node1&#45;&gt;Node12 -->
<g id="edge18_Node000001_Node000012" class="edge">
<title>Node1&#45;&gt;Node12</title>
<g id="a_edge18_Node000001_Node000012"><a xlink:title=" ">
<path fill="none" stroke="#63b8ff" d="M396.36,-329.66C378.73,-292.86 346.47,-225.53 331.09,-193.43"/>
<polygon fill="#63b8ff" stroke="#63b8ff" points="334.21,-191.84 326.73,-184.34 327.9,-194.87 334.21,-191.84"/>
</a>
</g>
</g>
<!-- Node13 -->
<g id="Node000013" class="node">
<title>Node13</title>
<g id="a_Node000013"><a xlink:href="no__os__error_8h.html" target="_top" xlink:title="Error codes definition.">
<polygon fill="white" stroke="#666666" points="677.5,-294 595.5,-294 595.5,-275 677.5,-275 677.5,-294"/>
<text text-anchor="middle" x="636.5" y="-282" font-family="Helvetica,sans-Serif" font-size="10.00">no_os_error.h</text>
</a>
</g>
</g>
<!-- Node1&#45;&gt;Node13 -->
<g id="edge23_Node000001_Node000013" class="edge">
<title>Node1&#45;&gt;Node13</title>
<g id="a_edge23_Node000001_Node000013"><a xlink:title=" ">
<path fill="none" stroke="#63b8ff" d="M488.24,-330.69C525.85,-319.23 568.95,-306.09 598.95,-296.95"/>
<polygon fill="#63b8ff" stroke="#63b8ff" points="600.05,-300.27 608.59,-294.01 598.01,-293.57 600.05,-300.27"/>
</a>
</g>
</g>
<!-- Node15 -->
<g id="Node000015" class="node">
<title>Node15</title>
<g id="a_Node000015"><a xlink:href="max96793__regs_8h.html" target="_top" xlink:title=" ">
<polygon fill="white" stroke="#666666" points="799.5,-294 695.5,-294 695.5,-275 799.5,-275 799.5,-294"/>
<text text-anchor="middle" x="747.5" y="-282" font-family="Helvetica,sans-Serif" font-size="10.00">max96793_regs.h</text>
</a>
</g>
</g>
<!-- Node1&#45;&gt;Node15 -->
<g id="edge25_Node000001_Node000015" class="edge">
<title>Node1&#45;&gt;Node15</title>
<g id="a_edge25_Node000001_Node000015"><a xlink:title=" ">
<path fill="none" stroke="#63b8ff" d="M488.41,-338.62C552.54,-325.47 640.68,-307.4 695.84,-296.09"/>
<polygon fill="#63b8ff" stroke="#63b8ff" points="696.66,-299.5 705.75,-294.06 695.25,-292.64 696.66,-299.5"/>
</a>
</g>
</g>
<!-- Node16 -->
<g id="Node000016" class="node">
<title>Node16</title>
<g id="a_Node000016"><a xlink:href="no__os__delay_8h.html" target="_top" xlink:title="Header file of Delay functions.">
<polygon fill="white" stroke="#666666" points="556,-74 471,-74 471,-55 556,-55 556,-74"/>
<text text-anchor="middle" x="513.5" y="-62" font-family="Helvetica,sans-Serif" font-size="10.00">no_os_delay.h</text>
</a>
</g>
</g>
<!-- Node1&#45;&gt;Node16 -->
<g id="edge27_Node000001_Node000016" class="edge">
<title>Node1&#45;&gt;Node16</title>
<g id="a_edge27_Node000001_Node000016"><a xlink:title=" ">
<path fill="none" stroke="#63b8ff" d="M481.02,-329.79C522.96,-310.1 567.5,-278.01 567.5,-230.5 567.5,-230.5 567.5,-230.5 567.5,-173.5 567.5,-144.04 562.07,-136.15 548.5,-110 543.19,-99.77 535.4,-89.57 528.52,-81.53"/>
<polygon fill="#63b8ff" stroke="#63b8ff" points="531.08,-79.14 521.82,-74.01 525.86,-83.8 531.08,-79.14"/>
</a>
</g>
</g>
<!-- Node2&#45;&gt;Node3 -->
<g id="edge2_Node000002_Node000003" class="edge">
<title>Node2&#45;&gt;Node3</title>
<g id="a_edge2_Node000002_Node000003"><a xlink:title=" ">
<path fill="none" stroke="#63b8ff" d="M214.5,-274.75C214.5,-267.8 214.5,-257.85 214.5,-249.13"/>
<polygon fill="#63b8ff" stroke="#63b8ff" points="218,-249.09 214.5,-239.09 211,-249.09 218,-249.09"/>
</a>
</g>
</g>
<!-- Node6 -->
<g id="Node000006" class="node">
<title>Node6</title>
<g id="a_Node000006"><a xlink:href="gmsl__common_8h.html" target="_top" xlink:title=" ">
<polygon fill="white" stroke="#666666" points="180.5,-184 82.5,-184 82.5,-165 180.5,-165 180.5,-184"/>
<text text-anchor="middle" x="131.5" y="-172" font-family="Helvetica,sans-Serif" font-size="10.00">gmsl_common.h</text>
</a>
</g>
</g>
<!-- Node2&#45;&gt;Node6 -->
<g id="edge12_Node000002_Node000006" class="edge">
<title>Node2&#45;&gt;Node6</title>
<g id="a_edge12_Node000002_Node000006"><a xlink:title=" ">
<path fill="none" stroke="#63b8ff" d="M203.25,-274.83C192.85,-266.44 177.42,-252.97 166.5,-239 155.49,-224.91 145.92,-206.91 139.59,-193.68"/>
<polygon fill="#63b8ff" stroke="#63b8ff" points="142.6,-191.86 135.23,-184.25 136.25,-194.79 142.6,-191.86"/>
</a>
</g>
</g>
<!-- Node4 -->
<g id="Node000004" class="node">
<title>Node4</title>
<g id="a_Node000004"><a xlink:title=" ">
<polygon fill="#e0e0e0" stroke="#999999" points="285.5,-129 223.5,-129 223.5,-110 285.5,-110 285.5,-129"/>
<text text-anchor="middle" x="254.5" y="-117" font-family="Helvetica,sans-Serif" font-size="10.00">stdbool.h</text>
</a>
</g>
</g>
<!-- Node3&#45;&gt;Node4 -->
<g id="edge3_Node000003_Node000004" class="edge">
<title>Node3&#45;&gt;Node4</title>
<g id="a_edge3_Node000003_Node000004"><a xlink:title=" ">
<path fill="none" stroke="#63b8ff" d="M217.77,-219.66C224.31,-202.01 239.1,-162.09 247.78,-138.64"/>
<polygon fill="#63b8ff" stroke="#63b8ff" points="251.1,-139.75 251.29,-129.16 244.54,-137.32 251.1,-139.75"/>
</a>
</g>
</g>
<!-- Node5 -->
<g id="Node000005" class="node">
<title>Node5</title>
<g id="a_Node000005"><a xlink:title=" ">
<polygon fill="#e0e0e0" stroke="#999999" points="294,-19 241,-19 241,0 294,0 294,-19"/>
<text text-anchor="middle" x="267.5" y="-7" font-family="Helvetica,sans-Serif" font-size="10.00">stdint.h</text>
</a>
</g>
</g>
<!-- Node3&#45;&gt;Node5 -->
<g id="edge4_Node000003_Node000005" class="edge">
<title>Node3&#45;&gt;Node5</title>
<g id="a_edge4_Node000003_Node000005"><a xlink:title=" ">
<path fill="none" stroke="#63b8ff" d="M212.38,-219.76C207.94,-199.56 199.22,-148.43 214.5,-110 222.63,-89.55 237.49,-93.06 248.5,-74 256.51,-60.13 261.43,-42.56 264.25,-29.43"/>
<polygon fill="#63b8ff" stroke="#63b8ff" points="267.76,-29.71 266.21,-19.22 260.88,-28.38 267.76,-29.71"/>
</a>
</g>
</g>
<!-- Node3&#45;&gt;Node6 -->
<g id="edge5_Node000003_Node000006" class="edge">
<title>Node3&#45;&gt;Node6</title>
<g id="a_edge5_Node000003_Node000006"><a xlink:title=" ">
<path fill="none" stroke="#63b8ff" d="M201.16,-219.98C188.41,-211.84 168.95,-199.41 153.83,-189.76"/>
<polygon fill="#63b8ff" stroke="#63b8ff" points="155.39,-186.6 145.08,-184.17 151.62,-192.5 155.39,-186.6"/>
</a>
</g>
</g>
<!-- Node6&#45;&gt;Node4 -->
<g id="edge7_Node000006_Node000004" class="edge">
<title>Node6&#45;&gt;Node4</title>
<g id="a_edge7_Node000006_Node000004"><a xlink:title=" ">
<path fill="none" stroke="#63b8ff" d="M151.26,-164.98C171.23,-156.38 202.3,-142.99 225.15,-133.15"/>
<polygon fill="#63b8ff" stroke="#63b8ff" points="226.58,-136.34 234.38,-129.17 223.81,-129.91 226.58,-136.34"/>
</a>
</g>
</g>
<!-- Node6&#45;&gt;Node5 -->
<g id="edge6_Node000006_Node000005" class="edge">
<title>Node6&#45;&gt;Node5</title>
<g id="a_edge6_Node000006_Node000005"><a xlink:title=" ">
<path fill="none" stroke="#63b8ff" d="M130.76,-164.88C129.42,-143.59 128.91,-87.84 156.5,-55 175.08,-32.88 206.25,-21.66 230.84,-16.03"/>
<polygon fill="#63b8ff" stroke="#63b8ff" points="231.83,-19.4 240.91,-13.94 230.41,-12.54 231.83,-19.4"/>
</a>
</g>
</g>
<!-- Node6&#45;&gt;Node7 -->
<g id="edge8_Node000006_Node000007" class="edge">
<title>Node6&#45;&gt;Node7</title>
<g id="a_edge8_Node000006_Node000007"><a xlink:title=" ">
<path fill="none" stroke="#63b8ff" d="M119.13,-164.98C107.41,-156.92 89.58,-144.65 75.61,-135.03"/>
<polygon fill="#63b8ff" stroke="#63b8ff" points="77.32,-131.96 67.1,-129.17 73.35,-137.72 77.32,-131.96"/>
</a>
</g>
</g>
<!-- Node7&#45;&gt;Node5 -->
<g id="edge9_Node000007_Node000005" class="edge">
<title>Node7&#45;&gt;Node5</title>
<g id="a_edge9_Node000007_Node000005"><a xlink:title=" ">
<path fill="none" stroke="#63b8ff" d="M61.64,-109.8C73.25,-96.2 97.53,-69.93 123.5,-55 157.29,-35.57 200.5,-23.69 230.74,-17.15"/>
<polygon fill="#63b8ff" stroke="#63b8ff" points="231.77,-20.51 240.85,-15.05 230.35,-13.65 231.77,-20.51"/>
</a>
</g>
</g>
<!-- Node8 -->
<g id="Node000008" class="node">
<title>Node8</title>
<g id="a_Node000008"><a xlink:href="no__os__i2c_8h.html" target="_top" xlink:title="Header file of I2C Interface.">
<polygon fill="white" stroke="#666666" points="239.5,-74 165.5,-74 165.5,-55 239.5,-55 239.5,-74"/>
<text text-anchor="middle" x="202.5" y="-62" font-family="Helvetica,sans-Serif" font-size="10.00">no_os_i2c.h</text>
</a>
</g>
</g>
<!-- Node7&#45;&gt;Node8 -->
<g id="edge10_Node000007_Node000008" class="edge">
<title>Node7&#45;&gt;Node8</title>
<g id="a_edge10_Node000007_Node000008"><a xlink:title=" ">
<path fill="none" stroke="#63b8ff" d="M78.28,-109.98C102.73,-101.23 141.03,-87.51 168.65,-77.62"/>
<polygon fill="#63b8ff" stroke="#63b8ff" points="170.05,-80.84 178.29,-74.17 167.69,-74.25 170.05,-80.84"/>
</a>
</g>
</g>
<!-- Node8&#45;&gt;Node5 -->
<g id="edge11_Node000008_Node000005" class="edge">
<title>Node8&#45;&gt;Node5</title>
<g id="a_edge11_Node000008_Node000005"><a xlink:title=" ">
<path fill="none" stroke="#63b8ff" d="M212.94,-54.98C222.65,-47.07 237.32,-35.11 249,-25.58"/>
<polygon fill="#63b8ff" stroke="#63b8ff" points="251.33,-28.2 256.87,-19.17 246.9,-22.78 251.33,-28.2"/>
</a>
</g>
</g>
<!-- Node9&#45;&gt;Node4 -->
<g id="edge14_Node000009_Node000004" class="edge">
<title>Node9&#45;&gt;Node4</title>
<g id="a_edge14_Node000009_Node000004"><a xlink:title=" ">
<path fill="none" stroke="#63b8ff" d="M397.19,-164.98C368.65,-156.09 323.67,-142.07 291.86,-132.15"/>
<polygon fill="#63b8ff" stroke="#63b8ff" points="292.62,-128.72 282.03,-129.08 290.53,-135.4 292.62,-128.72"/>
</a>
</g>
</g>
<!-- Node9&#45;&gt;Node5 -->
<g id="edge15_Node000009_Node000005" class="edge">
<title>Node9&#45;&gt;Node5</title>
<g id="a_edge15_Node000009_Node000005"><a xlink:title=" ">
<path fill="none" stroke="#63b8ff" d="M416.45,-164.78C398.17,-145.04 352.08,-95.48 312.5,-55 303.09,-45.38 292.38,-34.77 283.77,-26.33"/>
<polygon fill="#63b8ff" stroke="#63b8ff" points="286.15,-23.76 276.55,-19.28 281.26,-28.77 286.15,-23.76"/>
</a>
</g>
</g>
<!-- Node10 -->
<g id="Node000010" class="node">
<title>Node10</title>
<g id="a_Node000010"><a xlink:title=" ">
<polygon fill="#e0e0e0" stroke="#999999" points="539,-129 486,-129 486,-110 539,-110 539,-129"/>
<text text-anchor="middle" x="512.5" y="-117" font-family="Helvetica,sans-Serif" font-size="10.00">string.h</text>
</a>
</g>
</g>
<!-- Node9&#45;&gt;Node10 -->
<g id="edge16_Node000009_Node000010" class="edge">
<title>Node9&#45;&gt;Node10</title>
<g id="a_edge16_Node000009_Node000010"><a xlink:title=" ">
<path fill="none" stroke="#63b8ff" d="M438.64,-164.98C452.29,-156.77 473.19,-144.18 489.28,-134.49"/>
<polygon fill="#63b8ff" stroke="#63b8ff" points="491.34,-137.33 498.1,-129.17 487.73,-131.33 491.34,-137.33"/>
</a>
</g>
</g>
<!-- Node11 -->
<g id="Node000011" class="node">
<title>Node11</title>
<g id="a_Node000011"><a xlink:title=" ">
<polygon fill="#e0e0e0" stroke="#999999" points="467.5,-129 417.5,-129 417.5,-110 467.5,-110 467.5,-129"/>
<text text-anchor="middle" x="442.5" y="-117" font-family="Helvetica,sans-Serif" font-size="10.00">stdio.h</text>
</a>
</g>
</g>
<!-- Node9&#45;&gt;Node11 -->
<g id="edge17_Node000009_Node000011" class="edge">
<title>Node9&#45;&gt;Node11</title>
<g id="a_edge17_Node000009_Node000011"><a xlink:title=" ">
<path fill="none" stroke="#63b8ff" d="M427.47,-164.75C429.86,-157.72 433.29,-147.62 436.27,-138.84"/>
<polygon fill="#63b8ff" stroke="#63b8ff" points="439.68,-139.68 439.58,-129.09 433.05,-137.43 439.68,-139.68"/>
</a>
</g>
</g>
<!-- Node12&#45;&gt;Node4 -->
<g id="edge20_Node000012_Node000004" class="edge">
<title>Node12&#45;&gt;Node4</title>
<g id="a_edge20_Node000012_Node000004"><a xlink:title=" ">
<path fill="none" stroke="#63b8ff" d="M311.57,-164.98C301.42,-157.07 286.08,-145.11 273.85,-135.58"/>
<polygon fill="#63b8ff" stroke="#63b8ff" points="275.66,-132.56 265.62,-129.17 271.36,-138.08 275.66,-132.56"/>
</a>
</g>
</g>
<!-- Node12&#45;&gt;Node5 -->
<g id="edge19_Node000012_Node000005" class="edge">
<title>Node12&#45;&gt;Node5</title>
<g id="a_edge19_Node000012_Node000005"><a xlink:title=" ">
<path fill="none" stroke="#63b8ff" d="M322.46,-164.69C322.2,-152.26 320.95,-128.98 315.5,-110 306.8,-79.7 289.49,-47.3 278.21,-27.98"/>
<polygon fill="#63b8ff" stroke="#63b8ff" points="281.07,-25.94 272.93,-19.15 275.06,-29.53 281.07,-25.94"/>
</a>
</g>
</g>
<!-- Node12&#45;&gt;Node8 -->
<g id="edge21_Node000012_Node000008" class="edge">
<title>Node12&#45;&gt;Node8</title>
<g id="a_edge21_Node000012_Node000008"><a xlink:title=" ">
<path fill="none" stroke="#63b8ff" d="M320.65,-164.6C317.46,-151.22 309.73,-125.78 294.5,-110 280.26,-95.24 260.12,-84.74 242.31,-77.66"/>
<polygon fill="#63b8ff" stroke="#63b8ff" points="243.31,-74.29 232.71,-74.07 240.85,-80.85 243.31,-74.29"/>
</a>
</g>
</g>
<!-- Node14 -->
<g id="Node000014" class="node">
<title>Node14</title>
<g id="a_Node000014"><a xlink:href="errno_8h.html" target="_top" xlink:title="Error macro definition for ARM Compiler.">
<polygon fill="white" stroke="#666666" points="662,-239 611,-239 611,-220 662,-220 662,-239"/>
<text text-anchor="middle" x="636.5" y="-227" font-family="Helvetica,sans-Serif" font-size="10.00">errno.h</text>
</a>
</g>
</g>
<!-- Node13&#45;&gt;Node14 -->
<g id="edge24_Node000013_Node000014" class="edge">
<title>Node13&#45;&gt;Node14</title>
<g id="a_edge24_Node000013_Node000014"><a xlink:title=" ">
<path fill="none" stroke="#63b8ff" d="M636.5,-274.75C636.5,-267.8 636.5,-257.85 636.5,-249.13"/>
<polygon fill="#63b8ff" stroke="#63b8ff" points="640,-249.09 636.5,-239.09 633,-249.09 640,-249.09"/>
</a>
</g>
</g>
<!-- Node16&#45;&gt;Node5 -->
<g id="edge28_Node000016_Node000005" class="edge">
<title>Node16&#45;&gt;Node5</title>
<g id="a_edge28_Node000016_Node000005"><a xlink:title=" ">
<path fill="none" stroke="#63b8ff" d="M473.98,-54.98C427.1,-44.89 349.61,-28.19 304.07,-18.38"/>
<polygon fill="#63b8ff" stroke="#63b8ff" points="304.55,-14.9 294.04,-16.22 303.08,-21.75 304.55,-14.9"/>
</a>
</g>
</g>
</g>
</svg>
