<?xml version="1.0" encoding="UTF-8" standalone="no"?>
<!DOCTYPE svg PUBLIC "-//W3C//DTD SVG 1.1//EN"
 "http://www.w3.org/Graphics/SVG/1.1/DTD/svg11.dtd">
<!-- Generated by graphviz version 2.43.0 (0)
 -->
<!-- Title: /home/runner/work/no&#45;OS/no&#45;OS/drivers/platform/mbed/mbed_spi.h Pages: 1 -->
<!--zoomable 203 -->

<svg id="main" version="1.1" xmlns="http://www.w3.org/2000/svg" xmlns:xlink="http://www.w3.org/1999/xlink" xml:space="preserve" onload="init(evt)">

<style type="text/css"><![CDATA[
.node, .edge {opacity: 0.7;}
.node.selected, .edge.selected {opacity: 1;}
.edge:hover path { stroke: red; }
.edge:hover polygon { stroke: red; fill: red; }
]]></style>

<defs>
  <circle id="rim" cx="0" cy="0" r="7"/>
  <circle id="rim2" cx="0" cy="0" r="3.5"/>
  <g id="zoomPlus">
    <use xlink:href="#rim" fill="#404040"><set attributeName="fill" to="#808080" begin="zoomplus.mouseover" end="zoomplus.mouseout"/></use>
    <path d="M-4,0h8M0,-4v8" fill="none" stroke="white" stroke-width="1.5" pointer-events="none"/>
  </g>
  <g id="zoomMin">
    <use xlink:href="#rim" fill="#404040"><set attributeName="fill" to="#808080" begin="zoomminus.mouseover" end="zoomminus.mouseout"/></use>
    <path d="M-4,0h8" fill="none" stroke="white" stroke-width="1.5" pointer-events="none"/>
  </g>
  <g id="arrowUp" transform="translate(30 24)">
    <use xlink:href="#rim"/>
    <path pointer-events="none" fill="none" stroke="white" stroke-width="1.5" d="M0,-3.0v7 M-2.5,-0.5L0,-3.0L2.5,-0.5"/>
  </g>
  <g id="arrowRight" transform="rotate(90) translate(36 -43)">
    <use xlink:href="#rim"/>
    <path pointer-events="none" fill="none" stroke="white" stroke-width="1.5" d="M0,-3.0v7 M-2.5,-0.5L0,-3.0L2.5,-0.5"/>
  </g>
  <g id="arrowDown" transform="rotate(180) translate(-30 -48)">
    <use xlink:href="#rim"/>
    <path pointer-events="none" fill="none" stroke="white" stroke-width="1.5" d="M0,-3.0v7 M-2.5,-0.5L0,-3.0L2.5,-0.5"/>
  </g>
  <g id="arrowLeft" transform="rotate(270) translate(-36 17)">
    <use xlink:href="#rim"/>
    <path pointer-events="none" fill="none" stroke="white" stroke-width="1.5" d="M0,-3.0v7 M-2.5,-0.5L0,-3.0L2.5,-0.5"/>
  </g>
  <g id="resetDef">
    <use xlink:href="#rim2" fill="#404040"><set attributeName="fill" to="#808080" begin="reset.mouseover" end="reset.mouseout"/></use>
  </g>
</defs>
<script type="application/ecmascript">
var viewWidth = 2411;
var viewHeight = 203;
var sectionId = 'dynsection-1';
</script>
<script type="application/ecmascript" xlink:href="svg.min.js"/>
<svg id="graph" class="graph">
<g id="viewport">
<title>/home/runner/work/no&#45;OS/no&#45;OS/drivers/platform/mbed/mbed_spi.h</title>
<!-- Node1 -->
<g id="Node000001" class="node">
<title>Node1</title>
<g id="a_Node000001"><a xlink:title="Header containing extra types required for SPI interface.">
<polygon fill="#999999" stroke="#666666" points="1203.5,-195 1055.5,-195 1055.5,-154 1203.5,-154 1203.5,-195"/>
<text text-anchor="start" x="1063.5" y="-183" font-family="Helvetica,sans-Serif" font-size="10.00">/home/runner/work/no</text>
<text text-anchor="start" x="1063.5" y="-172" font-family="Helvetica,sans-Serif" font-size="10.00">&#45;OS/no&#45;OS/drivers/platform</text>
<text text-anchor="middle" x="1129.5" y="-161" font-family="Helvetica,sans-Serif" font-size="10.00">/mbed/mbed_spi.h</text>
</a>
</g>
</g>
<!-- Node2 -->
<g id="Node000002" class="node">
<title>Node2</title>
<g id="a_Node000002"><a xlink:href="ad5460_2src_2platform_2mbed_2parameters_8h.html" target="_top" xlink:title="Definitions specific to Mbed platform used by ad5460 project.">
<polygon fill="white" stroke="#666666" points="342.5,-118 164.5,-118 164.5,-77 342.5,-77 342.5,-118"/>
<text text-anchor="start" x="172.5" y="-106" font-family="Helvetica,sans-Serif" font-size="10.00">/home/runner/work/no</text>
<text text-anchor="start" x="172.5" y="-95" font-family="Helvetica,sans-Serif" font-size="10.00">&#45;OS/no&#45;OS/projects/ad5460</text>
<text text-anchor="middle" x="253.5" y="-84" font-family="Helvetica,sans-Serif" font-size="10.00">/src/platform/mbed/parameters.h</text>
</a>
</g>
</g>
<!-- Node1&#45;&gt;Node2 -->
<g id="edge1_Node000001_Node000002" class="edge">
<title>Node1&#45;&gt;Node2</title>
<g id="a_edge1_Node000001_Node000002"><a xlink:title=" ">
<path fill="none" stroke="#63b8ff" d="M1045.04,-166.27C879.14,-152.06 512.14,-120.64 342.58,-106.13"/>
<polygon fill="#63b8ff" stroke="#63b8ff" points="1044.93,-169.77 1055.19,-167.14 1045.53,-162.8 1044.93,-169.77"/>
</a>
</g>
</g>
<!-- Node5 -->
<g id="Node000005" class="node">
<title>Node5</title>
<g id="a_Node000005"><a xlink:href="ad74416h_2src_2platform_2mbed_2parameters_8h.html" target="_top" xlink:title="Definitions specific to Mbed platform used by ad74416h project.">
<polygon fill="white" stroke="#666666" points="714.5,-118 536.5,-118 536.5,-77 714.5,-77 714.5,-118"/>
<text text-anchor="start" x="544.5" y="-106" font-family="Helvetica,sans-Serif" font-size="10.00">/home/runner/work/no</text>
<text text-anchor="start" x="544.5" y="-95" font-family="Helvetica,sans-Serif" font-size="10.00">&#45;OS/no&#45;OS/projects/ad74416h</text>
<text text-anchor="middle" x="625.5" y="-84" font-family="Helvetica,sans-Serif" font-size="10.00">/src/platform/mbed/parameters.h</text>
</a>
</g>
</g>
<!-- Node1&#45;&gt;Node5 -->
<g id="edge4_Node000001_Node000005" class="edge">
<title>Node1&#45;&gt;Node5</title>
<g id="a_edge4_Node000001_Node000005"><a xlink:title=" ">
<path fill="none" stroke="#63b8ff" d="M1045.35,-160.98C953.84,-147.36 808.19,-125.69 714.74,-111.78"/>
<polygon fill="#63b8ff" stroke="#63b8ff" points="1045,-164.46 1055.4,-162.47 1046.03,-157.54 1045,-164.46"/>
</a>
</g>
</g>
<!-- Node8 -->
<g id="Node000008" class="node">
<title>Node8</title>
<g id="a_Node000008"><a xlink:href="adf4030_2src_2platform_2mbed_2parameters_8h.html" target="_top" xlink:title="Definitions specific to Mbed platform used by ADF4030 project.">
<polygon fill="white" stroke="#666666" points="985.5,-118 807.5,-118 807.5,-77 985.5,-77 985.5,-118"/>
<text text-anchor="start" x="815.5" y="-106" font-family="Helvetica,sans-Serif" font-size="10.00">/home/runner/work/no</text>
<text text-anchor="start" x="815.5" y="-95" font-family="Helvetica,sans-Serif" font-size="10.00">&#45;OS/no&#45;OS/projects/adf4030</text>
<text text-anchor="middle" x="896.5" y="-84" font-family="Helvetica,sans-Serif" font-size="10.00">/src/platform/mbed/parameters.h</text>
</a>
</g>
</g>
<!-- Node1&#45;&gt;Node8 -->
<g id="edge7_Node000001_Node000008" class="edge">
<title>Node1&#45;&gt;Node8</title>
<g id="a_edge7_Node000001_Node000008"><a xlink:title=" ">
<path fill="none" stroke="#63b8ff" d="M1059.01,-150.81C1026.54,-140.36 988.39,-128.08 957.21,-118.04"/>
<polygon fill="#63b8ff" stroke="#63b8ff" points="1058.3,-154.26 1068.89,-153.99 1060.44,-147.59 1058.3,-154.26"/>
</a>
</g>
</g>
<!-- Node10 -->
<g id="Node000010" class="node">
<title>Node10</title>
<g id="a_Node000010"><a xlink:href="adf4368_2src_2platform_2mbed_2parameters_8h.html" target="_top" xlink:title="Definitions specific to Mbed platform used by ADF4368 project.">
<polygon fill="white" stroke="#666666" points="1218.5,-118 1040.5,-118 1040.5,-77 1218.5,-77 1218.5,-118"/>
<text text-anchor="start" x="1048.5" y="-106" font-family="Helvetica,sans-Serif" font-size="10.00">/home/runner/work/no</text>
<text text-anchor="start" x="1048.5" y="-95" font-family="Helvetica,sans-Serif" font-size="10.00">&#45;OS/no&#45;OS/projects/adf4368</text>
<text text-anchor="middle" x="1129.5" y="-84" font-family="Helvetica,sans-Serif" font-size="10.00">/src/platform/mbed/parameters.h</text>
</a>
</g>
</g>
<!-- Node1&#45;&gt;Node10 -->
<g id="edge9_Node000001_Node000010" class="edge">
<title>Node1&#45;&gt;Node10</title>
<g id="a_edge9_Node000001_Node000010"><a xlink:title=" ">
<path fill="none" stroke="#63b8ff" d="M1129.5,-143.69C1129.5,-135.08 1129.5,-125.9 1129.5,-118.07"/>
<polygon fill="#63b8ff" stroke="#63b8ff" points="1126,-143.79 1129.5,-153.79 1133,-143.79 1126,-143.79"/>
</a>
</g>
</g>
<!-- Node13 -->
<g id="Node000013" class="node">
<title>Node13</title>
<g id="a_Node000013"><a xlink:href="adf4377__sdz_2src_2platform_2mbed_2parameters_8h.html" target="_top" xlink:title="Definitions specific to Mbed platform used by adf4377 project.">
<polygon fill="white" stroke="#666666" points="1474.5,-118 1274.5,-118 1274.5,-77 1474.5,-77 1474.5,-118"/>
<text text-anchor="start" x="1282.5" y="-106" font-family="Helvetica,sans-Serif" font-size="10.00">/home/runner/work/no</text>
<text text-anchor="start" x="1282.5" y="-95" font-family="Helvetica,sans-Serif" font-size="10.00">&#45;OS/no&#45;OS/projects/adf4377</text>
<text text-anchor="middle" x="1374.5" y="-84" font-family="Helvetica,sans-Serif" font-size="10.00">_sdz/src/platform/mbed/parameters.h</text>
</a>
</g>
</g>
<!-- Node1&#45;&gt;Node13 -->
<g id="edge12_Node000001_Node000013" class="edge">
<title>Node1&#45;&gt;Node13</title>
<g id="a_edge12_Node000001_Node000013"><a xlink:title=" ">
<path fill="none" stroke="#63b8ff" d="M1203.18,-150.94C1237.42,-140.46 1277.74,-128.12 1310.66,-118.04"/>
<polygon fill="#63b8ff" stroke="#63b8ff" points="1201.77,-147.72 1193.23,-153.99 1203.82,-154.41 1201.77,-147.72"/>
</a>
</g>
</g>
<!-- Node16 -->
<g id="Node000016" class="node">
<title>Node16</title>
<g id="a_Node000016"><a xlink:href="adf4382_2src_2platform_2mbed_2parameters_8h.html" target="_top" xlink:title="Definitions specific to Mbed platform used by ADF4382 project.">
<polygon fill="white" stroke="#666666" points="1857.5,-118 1679.5,-118 1679.5,-77 1857.5,-77 1857.5,-118"/>
<text text-anchor="start" x="1687.5" y="-106" font-family="Helvetica,sans-Serif" font-size="10.00">/home/runner/work/no</text>
<text text-anchor="start" x="1687.5" y="-95" font-family="Helvetica,sans-Serif" font-size="10.00">&#45;OS/no&#45;OS/projects/adf4382</text>
<text text-anchor="middle" x="1768.5" y="-84" font-family="Helvetica,sans-Serif" font-size="10.00">/src/platform/mbed/parameters.h</text>
</a>
</g>
</g>
<!-- Node1&#45;&gt;Node16 -->
<g id="edge15_Node000001_Node000016" class="edge">
<title>Node1&#45;&gt;Node16</title>
<g id="a_edge15_Node000001_Node000016"><a xlink:title=" ">
<path fill="none" stroke="#63b8ff" d="M1213.68,-163.62C1334.41,-149.45 1555.75,-123.47 1679.24,-108.98"/>
<polygon fill="#63b8ff" stroke="#63b8ff" points="1213.26,-160.14 1203.74,-164.79 1214.08,-167.1 1213.26,-160.14"/>
</a>
</g>
</g>
<!-- Node19 -->
<g id="Node000019" class="node">
<title>Node19</title>
<g id="a_Node000019"><a xlink:href="adf5611_2src_2platform_2mbed_2parameters_8h.html" target="_top" xlink:title="Definitions specific to Mbed platform used by ADF5611 project.">
<polygon fill="white" stroke="#666666" points="2221.5,-118 2043.5,-118 2043.5,-77 2221.5,-77 2221.5,-118"/>
<text text-anchor="start" x="2051.5" y="-106" font-family="Helvetica,sans-Serif" font-size="10.00">/home/runner/work/no</text>
<text text-anchor="start" x="2051.5" y="-95" font-family="Helvetica,sans-Serif" font-size="10.00">&#45;OS/no&#45;OS/projects/adf5611</text>
<text text-anchor="middle" x="2132.5" y="-84" font-family="Helvetica,sans-Serif" font-size="10.00">/src/platform/mbed/parameters.h</text>
</a>
</g>
</g>
<!-- Node1&#45;&gt;Node19 -->
<g id="edge18_Node000001_Node000019" class="edge">
<title>Node1&#45;&gt;Node19</title>
<g id="a_edge18_Node000001_Node000019"><a xlink:title=" ">
<path fill="none" stroke="#63b8ff" d="M1213.73,-167.2C1401.13,-153.19 1851.1,-119.54 2043.16,-105.18"/>
<polygon fill="#63b8ff" stroke="#63b8ff" points="1213.37,-163.72 1203.66,-167.95 1213.89,-170.7 1213.37,-163.72"/>
</a>
</g>
</g>
<!-- Node3 -->
<g id="Node000003" class="node">
<title>Node3</title>
<g id="a_Node000003"><a xlink:href="ad5460_2src_2platform_2mbed_2main_8c.html" target="_top" xlink:title="Main file for Mbed platform of ad5460 project.">
<polygon fill="white" stroke="#666666" points="147,-41 0,-41 0,0 147,0 147,-41"/>
<text text-anchor="start" x="8" y="-29" font-family="Helvetica,sans-Serif" font-size="10.00">/home/runner/work/no</text>
<text text-anchor="start" x="8" y="-18" font-family="Helvetica,sans-Serif" font-size="10.00">&#45;OS/no&#45;OS/projects/ad5460</text>
<text text-anchor="middle" x="73.5" y="-7" font-family="Helvetica,sans-Serif" font-size="10.00">/src/platform/mbed/main.c</text>
</a>
</g>
</g>
<!-- Node2&#45;&gt;Node3 -->
<g id="edge2_Node000002_Node000003" class="edge">
<title>Node2&#45;&gt;Node3</title>
<g id="a_edge2_Node000002_Node000003"><a xlink:title=" ">
<path fill="none" stroke="#63b8ff" d="M197.42,-73.13C172.69,-62.83 143.97,-50.86 120.4,-41.04"/>
<polygon fill="#63b8ff" stroke="#63b8ff" points="196.1,-76.37 206.68,-76.99 198.79,-69.91 196.1,-76.37"/>
</a>
</g>
</g>
<!-- Node4 -->
<g id="Node000004" class="node">
<title>Node4</title>
<g id="a_Node000004"><a xlink:href="ad5460_2src_2platform_2mbed_2parameters_8c.html" target="_top" xlink:title="Definition of Mbed platform data used by ad5460 project.">
<polygon fill="white" stroke="#666666" points="342,-41 165,-41 165,0 342,0 342,-41"/>
<text text-anchor="start" x="173" y="-29" font-family="Helvetica,sans-Serif" font-size="10.00">/home/runner/work/no</text>
<text text-anchor="start" x="173" y="-18" font-family="Helvetica,sans-Serif" font-size="10.00">&#45;OS/no&#45;OS/projects/ad5460</text>
<text text-anchor="middle" x="253.5" y="-7" font-family="Helvetica,sans-Serif" font-size="10.00">/src/platform/mbed/parameters.c</text>
</a>
</g>
</g>
<!-- Node2&#45;&gt;Node4 -->
<g id="edge3_Node000002_Node000004" class="edge">
<title>Node2&#45;&gt;Node4</title>
<g id="a_edge3_Node000002_Node000004"><a xlink:title=" ">
<path fill="none" stroke="#63b8ff" d="M253.5,-66.69C253.5,-58.08 253.5,-48.9 253.5,-41.07"/>
<polygon fill="#63b8ff" stroke="#63b8ff" points="250,-66.79 253.5,-76.79 257,-66.79 250,-66.79"/>
</a>
</g>
</g>
<!-- Node6 -->
<g id="Node000006" class="node">
<title>Node6</title>
<g id="a_Node000006"><a xlink:href="ad74416h_2src_2platform_2mbed_2main_8c.html" target="_top" xlink:title="Main file for Mbed platform of ad74416h project.">
<polygon fill="white" stroke="#666666" points="519,-41 360,-41 360,0 519,0 519,-41"/>
<text text-anchor="start" x="368" y="-29" font-family="Helvetica,sans-Serif" font-size="10.00">/home/runner/work/no</text>
<text text-anchor="start" x="368" y="-18" font-family="Helvetica,sans-Serif" font-size="10.00">&#45;OS/no&#45;OS/projects/ad74416h</text>
<text text-anchor="middle" x="439.5" y="-7" font-family="Helvetica,sans-Serif" font-size="10.00">/src/platform/mbed/main.c</text>
</a>
</g>
</g>
<!-- Node5&#45;&gt;Node6 -->
<g id="edge5_Node000005_Node000006" class="edge">
<title>Node5&#45;&gt;Node6</title>
<g id="a_edge5_Node000005_Node000006"><a xlink:title=" ">
<path fill="none" stroke="#63b8ff" d="M567.55,-73.13C542,-62.83 512.31,-50.86 487.96,-41.04"/>
<polygon fill="#63b8ff" stroke="#63b8ff" points="566.53,-76.5 577.12,-76.99 569.15,-70 566.53,-76.5"/>
</a>
</g>
</g>
<!-- Node7 -->
<g id="Node000007" class="node">
<title>Node7</title>
<g id="a_Node000007"><a xlink:href="ad74416h_2src_2platform_2mbed_2parameters_8c.html" target="_top" xlink:title="Definition of Mbed platform data used by ad74416h project.">
<polygon fill="white" stroke="#666666" points="714,-41 537,-41 537,0 714,0 714,-41"/>
<text text-anchor="start" x="545" y="-29" font-family="Helvetica,sans-Serif" font-size="10.00">/home/runner/work/no</text>
<text text-anchor="start" x="545" y="-18" font-family="Helvetica,sans-Serif" font-size="10.00">&#45;OS/no&#45;OS/projects/ad74416h</text>
<text text-anchor="middle" x="625.5" y="-7" font-family="Helvetica,sans-Serif" font-size="10.00">/src/platform/mbed/parameters.c</text>
</a>
</g>
</g>
<!-- Node5&#45;&gt;Node7 -->
<g id="edge6_Node000005_Node000007" class="edge">
<title>Node5&#45;&gt;Node7</title>
<g id="a_edge6_Node000005_Node000007"><a xlink:title=" ">
<path fill="none" stroke="#63b8ff" d="M625.5,-66.69C625.5,-58.08 625.5,-48.9 625.5,-41.07"/>
<polygon fill="#63b8ff" stroke="#63b8ff" points="622,-66.79 625.5,-76.79 629,-66.79 622,-66.79"/>
</a>
</g>
</g>
<!-- Node9 -->
<g id="Node000009" class="node">
<title>Node9</title>
<g id="a_Node000009"><a xlink:href="adf4030_2src_2platform_2mbed_2parameters_8c.html" target="_top" xlink:title="Definition of Mbed platform data used by ADF4030 project.">
<polygon fill="white" stroke="#666666" points="909,-41 732,-41 732,0 909,0 909,-41"/>
<text text-anchor="start" x="740" y="-29" font-family="Helvetica,sans-Serif" font-size="10.00">/home/runner/work/no</text>
<text text-anchor="start" x="740" y="-18" font-family="Helvetica,sans-Serif" font-size="10.00">&#45;OS/no&#45;OS/projects/adf4030</text>
<text text-anchor="middle" x="820.5" y="-7" font-family="Helvetica,sans-Serif" font-size="10.00">/src/platform/mbed/parameters.c</text>
</a>
</g>
</g>
<!-- Node8&#45;&gt;Node9 -->
<g id="edge8_Node000008_Node000009" class="edge">
<title>Node8&#45;&gt;Node9</title>
<g id="a_edge8_Node000008_Node000009"><a xlink:title=" ">
<path fill="none" stroke="#63b8ff" d="M869.15,-69.51C859.63,-60.11 849.13,-49.76 840.33,-41.07"/>
<polygon fill="#63b8ff" stroke="#63b8ff" points="866.96,-72.26 876.53,-76.79 871.87,-67.28 866.96,-72.26"/>
</a>
</g>
</g>
<!-- Node11 -->
<g id="Node000011" class="node">
<title>Node11</title>
<g id="a_Node000011"><a xlink:href="adf4368_2src_2platform_2mbed_2main_8c.html" target="_top" xlink:title="Main file for Mbed platform of ADF4368 project.">
<polygon fill="white" stroke="#666666" points="1078,-41 927,-41 927,0 1078,0 1078,-41"/>
<text text-anchor="start" x="935" y="-29" font-family="Helvetica,sans-Serif" font-size="10.00">/home/runner/work/no</text>
<text text-anchor="start" x="935" y="-18" font-family="Helvetica,sans-Serif" font-size="10.00">&#45;OS/no&#45;OS/projects/adf4368</text>
<text text-anchor="middle" x="1002.5" y="-7" font-family="Helvetica,sans-Serif" font-size="10.00">/src/platform/mbed/main.c</text>
</a>
</g>
</g>
<!-- Node10&#45;&gt;Node11 -->
<g id="edge10_Node000010_Node000011" class="edge">
<title>Node10&#45;&gt;Node11</title>
<g id="a_edge10_Node000010_Node000011"><a xlink:title=" ">
<path fill="none" stroke="#63b8ff" d="M1087.41,-71.64C1070.64,-61.74 1051.6,-50.5 1035.81,-41.17"/>
<polygon fill="#63b8ff" stroke="#63b8ff" points="1086.07,-74.92 1096.46,-76.99 1089.63,-68.89 1086.07,-74.92"/>
</a>
</g>
</g>
<!-- Node12 -->
<g id="Node000012" class="node">
<title>Node12</title>
<g id="a_Node000012"><a xlink:href="adf4368_2src_2platform_2mbed_2parameters_8c.html" target="_top" xlink:title="Definition of Mbed platform data used by ADF4368 project.">
<polygon fill="white" stroke="#666666" points="1273,-41 1096,-41 1096,0 1273,0 1273,-41"/>
<text text-anchor="start" x="1104" y="-29" font-family="Helvetica,sans-Serif" font-size="10.00">/home/runner/work/no</text>
<text text-anchor="start" x="1104" y="-18" font-family="Helvetica,sans-Serif" font-size="10.00">&#45;OS/no&#45;OS/projects/adf4368</text>
<text text-anchor="middle" x="1184.5" y="-7" font-family="Helvetica,sans-Serif" font-size="10.00">/src/platform/mbed/parameters.c</text>
</a>
</g>
</g>
<!-- Node10&#45;&gt;Node12 -->
<g id="edge11_Node000010_Node000012" class="edge">
<title>Node10&#45;&gt;Node12</title>
<g id="a_edge11_Node000010_Node000012"><a xlink:title=" ">
<path fill="none" stroke="#63b8ff" d="M1149.91,-68.67C1156.63,-59.5 1163.97,-49.5 1170.15,-41.07"/>
<polygon fill="#63b8ff" stroke="#63b8ff" points="1147.04,-66.66 1143.95,-76.79 1152.69,-70.8 1147.04,-66.66"/>
</a>
</g>
</g>
<!-- Node14 -->
<g id="Node000014" class="node">
<title>Node14</title>
<g id="a_Node000014"><a xlink:href="adf4377__sdz_2src_2platform_2mbed_2main_8c.html" target="_top" xlink:title="Main file for Mbed platform of adf4377 project.">
<polygon fill="white" stroke="#666666" points="1458,-41 1291,-41 1291,0 1458,0 1458,-41"/>
<text text-anchor="start" x="1299" y="-29" font-family="Helvetica,sans-Serif" font-size="10.00">/home/runner/work/no</text>
<text text-anchor="start" x="1299" y="-18" font-family="Helvetica,sans-Serif" font-size="10.00">&#45;OS/no&#45;OS/projects/adf4377</text>
<text text-anchor="middle" x="1374.5" y="-7" font-family="Helvetica,sans-Serif" font-size="10.00">_sdz/src/platform/mbed/main.c</text>
</a>
</g>
</g>
<!-- Node13&#45;&gt;Node14 -->
<g id="edge13_Node000013_Node000014" class="edge">
<title>Node13&#45;&gt;Node14</title>
<g id="a_edge13_Node000013_Node000014"><a xlink:title=" ">
<path fill="none" stroke="#63b8ff" d="M1374.5,-66.69C1374.5,-58.08 1374.5,-48.9 1374.5,-41.07"/>
<polygon fill="#63b8ff" stroke="#63b8ff" points="1371,-66.79 1374.5,-76.79 1378,-66.79 1371,-66.79"/>
</a>
</g>
</g>
<!-- Node15 -->
<g id="Node000015" class="node">
<title>Node15</title>
<g id="a_Node000015"><a xlink:href="adf4377__sdz_2src_2platform_2mbed_2parameters_8c.html" target="_top" xlink:title="Definition of Mbed platform data used by adf4377 project.">
<polygon fill="white" stroke="#666666" points="1675,-41 1476,-41 1476,0 1675,0 1675,-41"/>
<text text-anchor="start" x="1484" y="-29" font-family="Helvetica,sans-Serif" font-size="10.00">/home/runner/work/no</text>
<text text-anchor="start" x="1484" y="-18" font-family="Helvetica,sans-Serif" font-size="10.00">&#45;OS/no&#45;OS/projects/adf4377</text>
<text text-anchor="middle" x="1575.5" y="-7" font-family="Helvetica,sans-Serif" font-size="10.00">_sdz/src/platform/mbed/parameters.c</text>
</a>
</g>
</g>
<!-- Node13&#45;&gt;Node15 -->
<g id="edge14_Node000013_Node000015" class="edge">
<title>Node13&#45;&gt;Node15</title>
<g id="a_edge14_Node000013_Node000015"><a xlink:title=" ">
<path fill="none" stroke="#63b8ff" d="M1436.4,-73.4C1464.17,-63.04 1496.58,-50.95 1523.13,-41.04"/>
<polygon fill="#63b8ff" stroke="#63b8ff" points="1434.93,-70.22 1426.79,-76.99 1437.38,-76.77 1434.93,-70.22"/>
</a>
</g>
</g>
<!-- Node17 -->
<g id="Node000017" class="node">
<title>Node17</title>
<g id="a_Node000017"><a xlink:href="adf4382_2src_2platform_2mbed_2main_8c.html" target="_top" xlink:title="Main file for Mbed platform of ADF4382 project.">
<polygon fill="white" stroke="#666666" points="1844,-41 1693,-41 1693,0 1844,0 1844,-41"/>
<text text-anchor="start" x="1701" y="-29" font-family="Helvetica,sans-Serif" font-size="10.00">/home/runner/work/no</text>
<text text-anchor="start" x="1701" y="-18" font-family="Helvetica,sans-Serif" font-size="10.00">&#45;OS/no&#45;OS/projects/adf4382</text>
<text text-anchor="middle" x="1768.5" y="-7" font-family="Helvetica,sans-Serif" font-size="10.00">/src/platform/mbed/main.c</text>
</a>
</g>
</g>
<!-- Node16&#45;&gt;Node17 -->
<g id="edge16_Node000016_Node000017" class="edge">
<title>Node16&#45;&gt;Node17</title>
<g id="a_edge16_Node000016_Node000017"><a xlink:title=" ">
<path fill="none" stroke="#63b8ff" d="M1768.5,-66.69C1768.5,-58.08 1768.5,-48.9 1768.5,-41.07"/>
<polygon fill="#63b8ff" stroke="#63b8ff" points="1765,-66.79 1768.5,-76.79 1772,-66.79 1765,-66.79"/>
</a>
</g>
</g>
<!-- Node18 -->
<g id="Node000018" class="node">
<title>Node18</title>
<g id="a_Node000018"><a xlink:href="adf4382_2src_2platform_2mbed_2parameters_8c.html" target="_top" xlink:title="Definition of Mbed platform data used by ADF4382 project.">
<polygon fill="white" stroke="#666666" points="2039,-41 1862,-41 1862,0 2039,0 2039,-41"/>
<text text-anchor="start" x="1870" y="-29" font-family="Helvetica,sans-Serif" font-size="10.00">/home/runner/work/no</text>
<text text-anchor="start" x="1870" y="-18" font-family="Helvetica,sans-Serif" font-size="10.00">&#45;OS/no&#45;OS/projects/adf4382</text>
<text text-anchor="middle" x="1950.5" y="-7" font-family="Helvetica,sans-Serif" font-size="10.00">/src/platform/mbed/parameters.c</text>
</a>
</g>
</g>
<!-- Node16&#45;&gt;Node18 -->
<g id="edge17_Node000016_Node000018" class="edge">
<title>Node16&#45;&gt;Node18</title>
<g id="a_edge17_Node000016_Node000018"><a xlink:title=" ">
<path fill="none" stroke="#63b8ff" d="M1825.21,-73.13C1850.21,-62.83 1879.25,-50.86 1903.08,-41.04"/>
<polygon fill="#63b8ff" stroke="#63b8ff" points="1823.76,-69.94 1815.84,-76.99 1826.42,-76.42 1823.76,-69.94"/>
</a>
</g>
</g>
<!-- Node20 -->
<g id="Node000020" class="node">
<title>Node20</title>
<g id="a_Node000020"><a xlink:href="adf5611_2src_2platform_2mbed_2main_8c.html" target="_top" xlink:title="Main file for Mbed platform of ADF5611 project.">
<polygon fill="white" stroke="#666666" points="2208,-41 2057,-41 2057,0 2208,0 2208,-41"/>
<text text-anchor="start" x="2065" y="-29" font-family="Helvetica,sans-Serif" font-size="10.00">/home/runner/work/no</text>
<text text-anchor="start" x="2065" y="-18" font-family="Helvetica,sans-Serif" font-size="10.00">&#45;OS/no&#45;OS/projects/adf5611</text>
<text text-anchor="middle" x="2132.5" y="-7" font-family="Helvetica,sans-Serif" font-size="10.00">/src/platform/mbed/main.c</text>
</a>
</g>
</g>
<!-- Node19&#45;&gt;Node20 -->
<g id="edge19_Node000019_Node000020" class="edge">
<title>Node19&#45;&gt;Node20</title>
<g id="a_edge19_Node000019_Node000020"><a xlink:title=" ">
<path fill="none" stroke="#63b8ff" d="M2132.5,-66.69C2132.5,-58.08 2132.5,-48.9 2132.5,-41.07"/>
<polygon fill="#63b8ff" stroke="#63b8ff" points="2129,-66.79 2132.5,-76.79 2136,-66.79 2129,-66.79"/>
</a>
</g>
</g>
<!-- Node21 -->
<g id="Node000021" class="node">
<title>Node21</title>
<g id="a_Node000021"><a xlink:href="adf5611_2src_2platform_2mbed_2parameters_8c.html" target="_top" xlink:title="Definition of Mbed platform data used by ADF5611 project.">
<polygon fill="white" stroke="#666666" points="2403,-41 2226,-41 2226,0 2403,0 2403,-41"/>
<text text-anchor="start" x="2234" y="-29" font-family="Helvetica,sans-Serif" font-size="10.00">/home/runner/work/no</text>
<text text-anchor="start" x="2234" y="-18" font-family="Helvetica,sans-Serif" font-size="10.00">&#45;OS/no&#45;OS/projects/adf5611</text>
<text text-anchor="middle" x="2314.5" y="-7" font-family="Helvetica,sans-Serif" font-size="10.00">/src/platform/mbed/parameters.c</text>
</a>
</g>
</g>
<!-- Node19&#45;&gt;Node21 -->
<g id="edge20_Node000019_Node000021" class="edge">
<title>Node19&#45;&gt;Node21</title>
<g id="a_edge20_Node000019_Node000021"><a xlink:title=" ">
<path fill="none" stroke="#63b8ff" d="M2189.21,-73.13C2214.21,-62.83 2243.25,-50.86 2267.08,-41.04"/>
<polygon fill="#63b8ff" stroke="#63b8ff" points="2187.76,-69.94 2179.84,-76.99 2190.42,-76.42 2187.76,-69.94"/>
</a>
</g>
</g>
</g>
</svg>

<g id="navigator" transform="translate(0 0)" fill="#404254">
  <rect fill="#f2f5e9" fill-opacity="0.5" stroke="#606060" stroke-width=".5" x="0" y="0" width="60" height="60"/>
  <use id="zoomplus" xlink:href="#zoomPlus" x="17" y="9" onmousedown="handleZoom(evt,'in')"/>
  <use id="zoomminus" xlink:href="#zoomMin" x="42" y="9" onmousedown="handleZoom(evt,'out')"/>
  <use id="reset" xlink:href="#resetDef" x="30" y="36" onmousedown="handleReset()"/>
   <use id="arrowup" xlink:href="#arrowUp" x="0" y="0" onmousedown="handlePan(0,-1)"/>
  <use id="arrowright" xlink:href="#arrowRight" x="0" y="0" onmousedown="handlePan(1,0)"/>
  <use id="arrowdown" xlink:href="#arrowDown" x="0" y="0" onmousedown="handlePan(0,1)"/>
  <use id="arrowleft" xlink:href="#arrowLeft" x="0" y="0" onmousedown="handlePan(-1,0)"/>
</g>
<svg viewBox="0 0 15 15" width="100%" height="30px" preserveAspectRatio="xMaxYMin meet">
 <g id="arrow_out" transform="scale(0.3 0.3)">
  <a xlink:href="mbed__spi_8h__dep__incl_org.svg" target="_base">
   <rect id="button" ry="5" rx="5" y="6" x="6" height="38" width="38"
        fill="#f2f5e9" fill-opacity="0.5" stroke="#606060" stroke-width="1.0"/>
   <path id="arrow"
     d="M 11.500037,31.436501 C 11.940474,20.09759 22.043105,11.32322 32.158766,21.979434 L 37.068811,17.246167 C 37.068811,17.246167 37.088388,32 37.088388,32 L 22.160133,31.978069 C 22.160133,31.978069 26.997745,27.140456 26.997745,27.140456 C 18.528582,18.264221 13.291696,25.230495 11.500037,31.436501 z"
     style="fill:#404040;"/>
  </a>
 </g>
</svg>

<style type='text/css'>
<![CDATA[
[data-mouse-over-selected='false'] { opacity: 0.7; }
[data-mouse-over-selected='true']  { opacity: 1.0; }
]]>
</style>
<script type="application/ecmascript"><![CDATA[
document.addEventListener('DOMContentLoaded', (event) => {
  highlightEdges();
  highlightAdjacentNodes();
});
]]></script>
</svg>
