<?xml version="1.0" encoding="UTF-8" standalone="no"?>
<!DOCTYPE svg PUBLIC "-//W3C//DTD SVG 1.1//EN"
 "http://www.w3.org/Graphics/SVG/1.1/DTD/svg11.dtd">
<!-- Generated by graphviz version 2.43.0 (0)
 -->
<!-- Title: /home/runner/work/no&#45;OS/no&#45;OS/drivers/platform/mbed/mbed_gpio.h Pages: 1 -->
<svg width="772pt" height="203pt"
 viewBox="0.00 0.00 772.00 203.00" xmlns="http://www.w3.org/2000/svg" xmlns:xlink="http://www.w3.org/1999/xlink">
<g id="graph0" class="graph" transform="scale(1 1) rotate(0) translate(4 199)">
<title>/home/runner/work/no&#45;OS/no&#45;OS/drivers/platform/mbed/mbed_gpio.h</title>
<!-- Node1 -->
<g id="Node000001" class="node">
<title>Node1</title>
<g id="a_Node000001"><a xlink:title="Header containing extra types required for GPIO interface.">
<polygon fill="#999999" stroke="#666666" points="437.5,-195 289.5,-195 289.5,-154 437.5,-154 437.5,-195"/>
<text text-anchor="start" x="297.5" y="-183" font-family="Helvetica,sans-Serif" font-size="10.00">/home/runner/work/no</text>
<text text-anchor="start" x="297.5" y="-172" font-family="Helvetica,sans-Serif" font-size="10.00">&#45;OS/no&#45;OS/drivers/platform</text>
<text text-anchor="middle" x="363.5" y="-161" font-family="Helvetica,sans-Serif" font-size="10.00">/mbed/mbed_gpio.h</text>
</a>
</g>
</g>
<!-- Node2 -->
<g id="Node000002" class="node">
<title>Node2</title>
<g id="a_Node000002"><a xlink:href="ad74416h_2src_2platform_2mbed_2parameters_8h.html" target="_top" xlink:title="Definitions specific to Mbed platform used by ad74416h project.">
<polygon fill="white" stroke="#666666" points="349.5,-118 171.5,-118 171.5,-77 349.5,-77 349.5,-118"/>
<text text-anchor="start" x="179.5" y="-106" font-family="Helvetica,sans-Serif" font-size="10.00">/home/runner/work/no</text>
<text text-anchor="start" x="179.5" y="-95" font-family="Helvetica,sans-Serif" font-size="10.00">&#45;OS/no&#45;OS/projects/ad74416h</text>
<text text-anchor="middle" x="260.5" y="-84" font-family="Helvetica,sans-Serif" font-size="10.00">/src/platform/mbed/parameters.h</text>
</a>
</g>
</g>
<!-- Node1&#45;&gt;Node2 -->
<g id="edge1_Node000001_Node000002" class="edge">
<title>Node1&#45;&gt;Node2</title>
<g id="a_edge1_Node000001_Node000002"><a xlink:title=" ">
<path fill="none" stroke="#63b8ff" d="M328.61,-148.09C315.19,-138.32 300.08,-127.32 287.52,-118.17"/>
<polygon fill="#63b8ff" stroke="#63b8ff" points="326.56,-150.93 336.71,-153.99 330.68,-145.27 326.56,-150.93"/>
</a>
</g>
</g>
<!-- Node5 -->
<g id="Node000005" class="node">
<title>Node5</title>
<g id="a_Node000005"><a xlink:href="adf4377__sdz_2src_2platform_2mbed_2parameters_8h.html" target="_top" xlink:title="Definitions specific to Mbed platform used by adf4377 project.">
<polygon fill="white" stroke="#666666" points="567.5,-118 367.5,-118 367.5,-77 567.5,-77 567.5,-118"/>
<text text-anchor="start" x="375.5" y="-106" font-family="Helvetica,sans-Serif" font-size="10.00">/home/runner/work/no</text>
<text text-anchor="start" x="375.5" y="-95" font-family="Helvetica,sans-Serif" font-size="10.00">&#45;OS/no&#45;OS/projects/adf4377</text>
<text text-anchor="middle" x="467.5" y="-84" font-family="Helvetica,sans-Serif" font-size="10.00">_sdz/src/platform/mbed/parameters.h</text>
</a>
</g>
</g>
<!-- Node1&#45;&gt;Node5 -->
<g id="edge4_Node000001_Node000005" class="edge">
<title>Node1&#45;&gt;Node5</title>
<g id="a_edge4_Node000001_Node000005"><a xlink:title=" ">
<path fill="none" stroke="#63b8ff" d="M398.73,-148.09C412.28,-138.32 427.53,-127.32 440.22,-118.17"/>
<polygon fill="#63b8ff" stroke="#63b8ff" points="396.62,-145.3 390.55,-153.99 400.71,-150.98 396.62,-145.3"/>
</a>
</g>
</g>
<!-- Node3 -->
<g id="Node000003" class="node">
<title>Node3</title>
<g id="a_Node000003"><a xlink:href="ad74416h_2src_2platform_2mbed_2main_8c.html" target="_top" xlink:title="Main file for Mbed platform of ad74416h project.">
<polygon fill="white" stroke="#666666" points="159,-41 0,-41 0,0 159,0 159,-41"/>
<text text-anchor="start" x="8" y="-29" font-family="Helvetica,sans-Serif" font-size="10.00">/home/runner/work/no</text>
<text text-anchor="start" x="8" y="-18" font-family="Helvetica,sans-Serif" font-size="10.00">&#45;OS/no&#45;OS/projects/ad74416h</text>
<text text-anchor="middle" x="79.5" y="-7" font-family="Helvetica,sans-Serif" font-size="10.00">/src/platform/mbed/main.c</text>
</a>
</g>
</g>
<!-- Node2&#45;&gt;Node3 -->
<g id="edge2_Node000002_Node000003" class="edge">
<title>Node2&#45;&gt;Node3</title>
<g id="a_edge2_Node000002_Node000003"><a xlink:title=" ">
<path fill="none" stroke="#63b8ff" d="M204.1,-73.13C179.24,-62.83 150.36,-50.86 126.66,-41.04"/>
<polygon fill="#63b8ff" stroke="#63b8ff" points="202.84,-76.4 213.42,-76.99 205.52,-69.93 202.84,-76.4"/>
</a>
</g>
</g>
<!-- Node4 -->
<g id="Node000004" class="node">
<title>Node4</title>
<g id="a_Node000004"><a xlink:href="ad74416h_2src_2platform_2mbed_2parameters_8c.html" target="_top" xlink:title="Definition of Mbed platform data used by ad74416h project.">
<polygon fill="white" stroke="#666666" points="354,-41 177,-41 177,0 354,0 354,-41"/>
<text text-anchor="start" x="185" y="-29" font-family="Helvetica,sans-Serif" font-size="10.00">/home/runner/work/no</text>
<text text-anchor="start" x="185" y="-18" font-family="Helvetica,sans-Serif" font-size="10.00">&#45;OS/no&#45;OS/projects/ad74416h</text>
<text text-anchor="middle" x="265.5" y="-7" font-family="Helvetica,sans-Serif" font-size="10.00">/src/platform/mbed/parameters.c</text>
</a>
</g>
</g>
<!-- Node2&#45;&gt;Node4 -->
<g id="edge3_Node000002_Node000004" class="edge">
<title>Node2&#45;&gt;Node4</title>
<g id="a_edge3_Node000002_Node000004"><a xlink:title=" ">
<path fill="none" stroke="#63b8ff" d="M262.49,-66.69C263.06,-58.08 263.67,-48.9 264.2,-41.07"/>
<polygon fill="#63b8ff" stroke="#63b8ff" points="258.99,-66.58 261.81,-76.79 265.97,-67.05 258.99,-66.58"/>
</a>
</g>
</g>
<!-- Node6 -->
<g id="Node000006" class="node">
<title>Node6</title>
<g id="a_Node000006"><a xlink:href="adf4377__sdz_2src_2platform_2mbed_2main_8c.html" target="_top" xlink:title="Main file for Mbed platform of adf4377 project.">
<polygon fill="white" stroke="#666666" points="547,-41 380,-41 380,0 547,0 547,-41"/>
<text text-anchor="start" x="388" y="-29" font-family="Helvetica,sans-Serif" font-size="10.00">/home/runner/work/no</text>
<text text-anchor="start" x="388" y="-18" font-family="Helvetica,sans-Serif" font-size="10.00">&#45;OS/no&#45;OS/projects/adf4377</text>
<text text-anchor="middle" x="463.5" y="-7" font-family="Helvetica,sans-Serif" font-size="10.00">_sdz/src/platform/mbed/main.c</text>
</a>
</g>
</g>
<!-- Node5&#45;&gt;Node6 -->
<g id="edge5_Node000005_Node000006" class="edge">
<title>Node5&#45;&gt;Node6</title>
<g id="a_edge5_Node000005_Node000006"><a xlink:title=" ">
<path fill="none" stroke="#63b8ff" d="M465.91,-66.69C465.45,-58.08 464.96,-48.9 464.54,-41.07"/>
<polygon fill="#63b8ff" stroke="#63b8ff" points="462.42,-67 466.45,-76.79 469.41,-66.62 462.42,-67"/>
</a>
</g>
</g>
<!-- Node7 -->
<g id="Node000007" class="node">
<title>Node7</title>
<g id="a_Node000007"><a xlink:href="adf4377__sdz_2src_2platform_2mbed_2parameters_8c.html" target="_top" xlink:title="Definition of Mbed platform data used by adf4377 project.">
<polygon fill="white" stroke="#666666" points="764,-41 565,-41 565,0 764,0 764,-41"/>
<text text-anchor="start" x="573" y="-29" font-family="Helvetica,sans-Serif" font-size="10.00">/home/runner/work/no</text>
<text text-anchor="start" x="573" y="-18" font-family="Helvetica,sans-Serif" font-size="10.00">&#45;OS/no&#45;OS/projects/adf4377</text>
<text text-anchor="middle" x="664.5" y="-7" font-family="Helvetica,sans-Serif" font-size="10.00">_sdz/src/platform/mbed/parameters.c</text>
</a>
</g>
</g>
<!-- Node5&#45;&gt;Node7 -->
<g id="edge6_Node000005_Node000007" class="edge">
<title>Node5&#45;&gt;Node7</title>
<g id="a_edge6_Node000005_Node000007"><a xlink:title=" ">
<path fill="none" stroke="#63b8ff" d="M528.17,-73.4C555.39,-63.04 587.15,-50.95 613.17,-41.04"/>
<polygon fill="#63b8ff" stroke="#63b8ff" points="526.85,-70.16 518.75,-76.99 529.34,-76.7 526.85,-70.16"/>
</a>
</g>
</g>
</g>
</svg>
