<?xml version="1.0" encoding="UTF-8" standalone="no"?>
<!DOCTYPE svg PUBLIC "-//W3C//DTD SVG 1.1//EN"
 "http://www.w3.org/Graphics/SVG/1.1/DTD/svg11.dtd">
<!-- Generated by graphviz version 2.43.0 (0)
 -->
<!-- Title: /home/runner/work/no&#45;OS/no&#45;OS/drivers/platform/mbed/mbed_i2c.h Pages: 1 -->
<!--zoomable 203 -->

<svg id="main" version="1.1" xmlns="http://www.w3.org/2000/svg" xmlns:xlink="http://www.w3.org/1999/xlink" xml:space="preserve" onload="init(evt)">

<style type="text/css"><![CDATA[
.node, .edge {opacity: 0.7;}
.node.selected, .edge.selected {opacity: 1;}
.edge:hover path { stroke: red; }
.edge:hover polygon { stroke: red; fill: red; }
]]></style>

<defs>
  <circle id="rim" cx="0" cy="0" r="7"/>
  <circle id="rim2" cx="0" cy="0" r="3.5"/>
  <g id="zoomPlus">
    <use xlink:href="#rim" fill="#404040"><set attributeName="fill" to="#808080" begin="zoomplus.mouseover" end="zoomplus.mouseout"/></use>
    <path d="M-4,0h8M0,-4v8" fill="none" stroke="white" stroke-width="1.5" pointer-events="none"/>
  </g>
  <g id="zoomMin">
    <use xlink:href="#rim" fill="#404040"><set attributeName="fill" to="#808080" begin="zoomminus.mouseover" end="zoomminus.mouseout"/></use>
    <path d="M-4,0h8" fill="none" stroke="white" stroke-width="1.5" pointer-events="none"/>
  </g>
  <g id="arrowUp" transform="translate(30 24)">
    <use xlink:href="#rim"/>
    <path pointer-events="none" fill="none" stroke="white" stroke-width="1.5" d="M0,-3.0v7 M-2.5,-0.5L0,-3.0L2.5,-0.5"/>
  </g>
  <g id="arrowRight" transform="rotate(90) translate(36 -43)">
    <use xlink:href="#rim"/>
    <path pointer-events="none" fill="none" stroke="white" stroke-width="1.5" d="M0,-3.0v7 M-2.5,-0.5L0,-3.0L2.5,-0.5"/>
  </g>
  <g id="arrowDown" transform="rotate(180) translate(-30 -48)">
    <use xlink:href="#rim"/>
    <path pointer-events="none" fill="none" stroke="white" stroke-width="1.5" d="M0,-3.0v7 M-2.5,-0.5L0,-3.0L2.5,-0.5"/>
  </g>
  <g id="arrowLeft" transform="rotate(270) translate(-36 17)">
    <use xlink:href="#rim"/>
    <path pointer-events="none" fill="none" stroke="white" stroke-width="1.5" d="M0,-3.0v7 M-2.5,-0.5L0,-3.0L2.5,-0.5"/>
  </g>
  <g id="resetDef">
    <use xlink:href="#rim2" fill="#404040"><set attributeName="fill" to="#808080" begin="reset.mouseover" end="reset.mouseout"/></use>
  </g>
</defs>
<script type="application/ecmascript">
var viewWidth = 1506;
var viewHeight = 203;
var sectionId = 'dynsection-1';
</script>
<script type="application/ecmascript" xlink:href="svg.min.js"/>
<svg id="graph" class="graph">
<g id="viewport">
<title>/home/runner/work/no&#45;OS/no&#45;OS/drivers/platform/mbed/mbed_i2c.h</title>
<!-- Node1 -->
<g id="Node000001" class="node">
<title>Node1</title>
<g id="a_Node000001"><a xlink:title="Header containing extra types required for I2C interface.">
<polygon fill="#999999" stroke="#666666" points="790.5,-195 642.5,-195 642.5,-154 790.5,-154 790.5,-195"/>
<text text-anchor="start" x="650.5" y="-183" font-family="Helvetica,sans-Serif" font-size="10.00">/home/runner/work/no</text>
<text text-anchor="start" x="650.5" y="-172" font-family="Helvetica,sans-Serif" font-size="10.00">&#45;OS/no&#45;OS/drivers/platform</text>
<text text-anchor="middle" x="716.5" y="-161" font-family="Helvetica,sans-Serif" font-size="10.00">/mbed/mbed_i2c.h</text>
</a>
</g>
</g>
<!-- Node2 -->
<g id="Node000002" class="node">
<title>Node2</title>
<g id="a_Node000002"><a xlink:href="ad5460_2src_2platform_2mbed_2parameters_8h.html" target="_top" xlink:title="Definitions specific to Mbed platform used by ad5460 project.">
<polygon fill="white" stroke="#666666" points="342.5,-118 164.5,-118 164.5,-77 342.5,-77 342.5,-118"/>
<text text-anchor="start" x="172.5" y="-106" font-family="Helvetica,sans-Serif" font-size="10.00">/home/runner/work/no</text>
<text text-anchor="start" x="172.5" y="-95" font-family="Helvetica,sans-Serif" font-size="10.00">&#45;OS/no&#45;OS/projects/ad5460</text>
<text text-anchor="middle" x="253.5" y="-84" font-family="Helvetica,sans-Serif" font-size="10.00">/src/platform/mbed/parameters.h</text>
</a>
</g>
</g>
<!-- Node1&#45;&gt;Node2 -->
<g id="edge1_Node000001_Node000002" class="edge">
<title>Node1&#45;&gt;Node2</title>
<g id="a_edge1_Node000001_Node000002"><a xlink:title=" ">
<path fill="none" stroke="#63b8ff" d="M632.35,-159.87C550.46,-146.6 426.49,-126.52 342.87,-112.98"/>
<polygon fill="#63b8ff" stroke="#63b8ff" points="631.94,-163.35 642.37,-161.49 633.06,-156.44 631.94,-163.35"/>
</a>
</g>
</g>
<!-- Node5 -->
<g id="Node000005" class="node">
<title>Node5</title>
<g id="a_Node000005"><a xlink:href="ad74416h_2src_2platform_2mbed_2parameters_8h.html" target="_top" xlink:title="Definitions specific to Mbed platform used by ad74416h project.">
<polygon fill="white" stroke="#666666" points="707.5,-118 529.5,-118 529.5,-77 707.5,-77 707.5,-118"/>
<text text-anchor="start" x="537.5" y="-106" font-family="Helvetica,sans-Serif" font-size="10.00">/home/runner/work/no</text>
<text text-anchor="start" x="537.5" y="-95" font-family="Helvetica,sans-Serif" font-size="10.00">&#45;OS/no&#45;OS/projects/ad74416h</text>
<text text-anchor="middle" x="618.5" y="-84" font-family="Helvetica,sans-Serif" font-size="10.00">/src/platform/mbed/parameters.h</text>
</a>
</g>
</g>
<!-- Node1&#45;&gt;Node5 -->
<g id="edge4_Node000001_Node000005" class="edge">
<title>Node1&#45;&gt;Node5</title>
<g id="a_edge4_Node000001_Node000005"><a xlink:title=" ">
<path fill="none" stroke="#63b8ff" d="M682.94,-147.82C670.26,-138.11 656.05,-127.24 644.21,-118.17"/>
<polygon fill="#63b8ff" stroke="#63b8ff" points="680.94,-150.69 691.01,-153.99 685.19,-145.13 680.94,-150.69"/>
</a>
</g>
</g>
<!-- Node8 -->
<g id="Node000008" class="node">
<title>Node8</title>
<g id="a_Node000008"><a xlink:href="adf5611_2src_2platform_2mbed_2parameters_8h.html" target="_top" xlink:title="Definitions specific to Mbed platform used by ADF5611 project.">
<polygon fill="white" stroke="#666666" points="903.5,-118 725.5,-118 725.5,-77 903.5,-77 903.5,-118"/>
<text text-anchor="start" x="733.5" y="-106" font-family="Helvetica,sans-Serif" font-size="10.00">/home/runner/work/no</text>
<text text-anchor="start" x="733.5" y="-95" font-family="Helvetica,sans-Serif" font-size="10.00">&#45;OS/no&#45;OS/projects/adf5611</text>
<text text-anchor="middle" x="814.5" y="-84" font-family="Helvetica,sans-Serif" font-size="10.00">/src/platform/mbed/parameters.h</text>
</a>
</g>
</g>
<!-- Node1&#45;&gt;Node8 -->
<g id="edge7_Node000001_Node000008" class="edge">
<title>Node1&#45;&gt;Node8</title>
<g id="a_edge7_Node000001_Node000008"><a xlink:title=" ">
<path fill="none" stroke="#63b8ff" d="M750.06,-147.82C762.74,-138.11 776.95,-127.24 788.79,-118.17"/>
<polygon fill="#63b8ff" stroke="#63b8ff" points="747.81,-145.13 741.99,-153.99 752.06,-150.69 747.81,-145.13"/>
</a>
</g>
</g>
<!-- Node11 -->
<g id="Node000011" class="node">
<title>Node11</title>
<g id="a_Node000011"><a xlink:href="adt7420-pmdz_2src_2platform_2mbed_2parameters_8h.html" target="_top" xlink:title="Definitions specific to Mbed platform used by adt7420&#45;pmdz project.">
<polygon fill="white" stroke="#666666" points="1288,-118 1079,-118 1079,-77 1288,-77 1288,-118"/>
<text text-anchor="start" x="1087" y="-106" font-family="Helvetica,sans-Serif" font-size="10.00">/home/runner/work/no</text>
<text text-anchor="start" x="1087" y="-95" font-family="Helvetica,sans-Serif" font-size="10.00">&#45;OS/no&#45;OS/projects/adt7420</text>
<text text-anchor="middle" x="1183.5" y="-84" font-family="Helvetica,sans-Serif" font-size="10.00">&#45;pmdz/src/platform/mbed/parameters.h</text>
</a>
</g>
</g>
<!-- Node1&#45;&gt;Node11 -->
<g id="edge10_Node000001_Node000011" class="edge">
<title>Node1&#45;&gt;Node11</title>
<g id="a_edge10_Node000001_Node000011"><a xlink:title=" ">
<path fill="none" stroke="#63b8ff" d="M801.02,-159.93C878.95,-147.41 994.91,-128.79 1078.71,-115.33"/>
<polygon fill="#63b8ff" stroke="#63b8ff" points="800.07,-156.53 790.76,-161.57 801.18,-163.44 800.07,-156.53"/>
</a>
</g>
</g>
<!-- Node3 -->
<g id="Node000003" class="node">
<title>Node3</title>
<g id="a_Node000003"><a xlink:href="ad5460_2src_2platform_2mbed_2main_8c.html" target="_top" xlink:title="Main file for Mbed platform of ad5460 project.">
<polygon fill="white" stroke="#666666" points="147,-41 0,-41 0,0 147,0 147,-41"/>
<text text-anchor="start" x="8" y="-29" font-family="Helvetica,sans-Serif" font-size="10.00">/home/runner/work/no</text>
<text text-anchor="start" x="8" y="-18" font-family="Helvetica,sans-Serif" font-size="10.00">&#45;OS/no&#45;OS/projects/ad5460</text>
<text text-anchor="middle" x="73.5" y="-7" font-family="Helvetica,sans-Serif" font-size="10.00">/src/platform/mbed/main.c</text>
</a>
</g>
</g>
<!-- Node2&#45;&gt;Node3 -->
<g id="edge2_Node000002_Node000003" class="edge">
<title>Node2&#45;&gt;Node3</title>
<g id="a_edge2_Node000002_Node000003"><a xlink:title=" ">
<path fill="none" stroke="#63b8ff" d="M197.42,-73.13C172.69,-62.83 143.97,-50.86 120.4,-41.04"/>
<polygon fill="#63b8ff" stroke="#63b8ff" points="196.1,-76.37 206.68,-76.99 198.79,-69.91 196.1,-76.37"/>
</a>
</g>
</g>
<!-- Node4 -->
<g id="Node000004" class="node">
<title>Node4</title>
<g id="a_Node000004"><a xlink:href="ad5460_2src_2platform_2mbed_2parameters_8c.html" target="_top" xlink:title="Definition of Mbed platform data used by ad5460 project.">
<polygon fill="white" stroke="#666666" points="342,-41 165,-41 165,0 342,0 342,-41"/>
<text text-anchor="start" x="173" y="-29" font-family="Helvetica,sans-Serif" font-size="10.00">/home/runner/work/no</text>
<text text-anchor="start" x="173" y="-18" font-family="Helvetica,sans-Serif" font-size="10.00">&#45;OS/no&#45;OS/projects/ad5460</text>
<text text-anchor="middle" x="253.5" y="-7" font-family="Helvetica,sans-Serif" font-size="10.00">/src/platform/mbed/parameters.c</text>
</a>
</g>
</g>
<!-- Node2&#45;&gt;Node4 -->
<g id="edge3_Node000002_Node000004" class="edge">
<title>Node2&#45;&gt;Node4</title>
<g id="a_edge3_Node000002_Node000004"><a xlink:title=" ">
<path fill="none" stroke="#63b8ff" d="M253.5,-66.69C253.5,-58.08 253.5,-48.9 253.5,-41.07"/>
<polygon fill="#63b8ff" stroke="#63b8ff" points="250,-66.79 253.5,-76.79 257,-66.79 250,-66.79"/>
</a>
</g>
</g>
<!-- Node6 -->
<g id="Node000006" class="node">
<title>Node6</title>
<g id="a_Node000006"><a xlink:href="ad74416h_2src_2platform_2mbed_2main_8c.html" target="_top" xlink:title="Main file for Mbed platform of ad74416h project.">
<polygon fill="white" stroke="#666666" points="519,-41 360,-41 360,0 519,0 519,-41"/>
<text text-anchor="start" x="368" y="-29" font-family="Helvetica,sans-Serif" font-size="10.00">/home/runner/work/no</text>
<text text-anchor="start" x="368" y="-18" font-family="Helvetica,sans-Serif" font-size="10.00">&#45;OS/no&#45;OS/projects/ad74416h</text>
<text text-anchor="middle" x="439.5" y="-7" font-family="Helvetica,sans-Serif" font-size="10.00">/src/platform/mbed/main.c</text>
</a>
</g>
</g>
<!-- Node5&#45;&gt;Node6 -->
<g id="edge5_Node000005_Node000006" class="edge">
<title>Node5&#45;&gt;Node6</title>
<g id="a_edge5_Node000005_Node000006"><a xlink:title=" ">
<path fill="none" stroke="#63b8ff" d="M562.4,-73C537.89,-62.72 509.47,-50.82 486.14,-41.04"/>
<polygon fill="#63b8ff" stroke="#63b8ff" points="561.36,-76.35 571.94,-76.99 564.07,-69.9 561.36,-76.35"/>
</a>
</g>
</g>
<!-- Node7 -->
<g id="Node000007" class="node">
<title>Node7</title>
<g id="a_Node000007"><a xlink:href="ad74416h_2src_2platform_2mbed_2parameters_8c.html" target="_top" xlink:title="Definition of Mbed platform data used by ad74416h project.">
<polygon fill="white" stroke="#666666" points="714,-41 537,-41 537,0 714,0 714,-41"/>
<text text-anchor="start" x="545" y="-29" font-family="Helvetica,sans-Serif" font-size="10.00">/home/runner/work/no</text>
<text text-anchor="start" x="545" y="-18" font-family="Helvetica,sans-Serif" font-size="10.00">&#45;OS/no&#45;OS/projects/ad74416h</text>
<text text-anchor="middle" x="625.5" y="-7" font-family="Helvetica,sans-Serif" font-size="10.00">/src/platform/mbed/parameters.c</text>
</a>
</g>
</g>
<!-- Node5&#45;&gt;Node7 -->
<g id="edge6_Node000005_Node000007" class="edge">
<title>Node5&#45;&gt;Node7</title>
<g id="a_edge6_Node000005_Node000007"><a xlink:title=" ">
<path fill="none" stroke="#63b8ff" d="M621.28,-66.69C622.09,-58.08 622.94,-48.9 623.67,-41.07"/>
<polygon fill="#63b8ff" stroke="#63b8ff" points="617.78,-66.51 620.34,-76.79 624.75,-67.16 617.78,-66.51"/>
</a>
</g>
</g>
<!-- Node9 -->
<g id="Node000009" class="node">
<title>Node9</title>
<g id="a_Node000009"><a xlink:href="adf5611_2src_2platform_2mbed_2main_8c.html" target="_top" xlink:title="Main file for Mbed platform of ADF5611 project.">
<polygon fill="white" stroke="#666666" points="883,-41 732,-41 732,0 883,0 883,-41"/>
<text text-anchor="start" x="740" y="-29" font-family="Helvetica,sans-Serif" font-size="10.00">/home/runner/work/no</text>
<text text-anchor="start" x="740" y="-18" font-family="Helvetica,sans-Serif" font-size="10.00">&#45;OS/no&#45;OS/projects/adf5611</text>
<text text-anchor="middle" x="807.5" y="-7" font-family="Helvetica,sans-Serif" font-size="10.00">/src/platform/mbed/main.c</text>
</a>
</g>
</g>
<!-- Node8&#45;&gt;Node9 -->
<g id="edge8_Node000008_Node000009" class="edge">
<title>Node8&#45;&gt;Node9</title>
<g id="a_edge8_Node000008_Node000009"><a xlink:title=" ">
<path fill="none" stroke="#63b8ff" d="M811.72,-66.69C810.91,-58.08 810.06,-48.9 809.33,-41.07"/>
<polygon fill="#63b8ff" stroke="#63b8ff" points="808.25,-67.16 812.66,-76.79 815.22,-66.51 808.25,-67.16"/>
</a>
</g>
</g>
<!-- Node10 -->
<g id="Node000010" class="node">
<title>Node10</title>
<g id="a_Node000010"><a xlink:href="adf5611_2src_2platform_2mbed_2parameters_8c.html" target="_top" xlink:title="Definition of Mbed platform data used by ADF5611 project.">
<polygon fill="white" stroke="#666666" points="1078,-41 901,-41 901,0 1078,0 1078,-41"/>
<text text-anchor="start" x="909" y="-29" font-family="Helvetica,sans-Serif" font-size="10.00">/home/runner/work/no</text>
<text text-anchor="start" x="909" y="-18" font-family="Helvetica,sans-Serif" font-size="10.00">&#45;OS/no&#45;OS/projects/adf5611</text>
<text text-anchor="middle" x="989.5" y="-7" font-family="Helvetica,sans-Serif" font-size="10.00">/src/platform/mbed/parameters.c</text>
</a>
</g>
</g>
<!-- Node8&#45;&gt;Node10 -->
<g id="edge9_Node000008_Node000010" class="edge">
<title>Node8&#45;&gt;Node10</title>
<g id="a_edge9_Node000008_Node000010"><a xlink:title=" ">
<path fill="none" stroke="#63b8ff" d="M869.34,-73C893.31,-62.72 921.09,-50.82 943.9,-41.04"/>
<polygon fill="#63b8ff" stroke="#63b8ff" points="867.84,-69.83 860.02,-76.99 870.59,-76.27 867.84,-69.83"/>
</a>
</g>
</g>
<!-- Node12 -->
<g id="Node000012" class="node">
<title>Node12</title>
<g id="a_Node000012"><a xlink:href="adt7420-pmdz_2src_2platform_2mbed_2main_8c.html" target="_top" xlink:title="Main file for Mbed platform of adt7420&#45;pmdz project.">
<polygon fill="white" stroke="#666666" points="1271.5,-41 1095.5,-41 1095.5,0 1271.5,0 1271.5,-41"/>
<text text-anchor="start" x="1103.5" y="-29" font-family="Helvetica,sans-Serif" font-size="10.00">/home/runner/work/no</text>
<text text-anchor="start" x="1103.5" y="-18" font-family="Helvetica,sans-Serif" font-size="10.00">&#45;OS/no&#45;OS/projects/adt7420</text>
<text text-anchor="middle" x="1183.5" y="-7" font-family="Helvetica,sans-Serif" font-size="10.00">&#45;pmdz/src/platform/mbed/main.c</text>
</a>
</g>
</g>
<!-- Node11&#45;&gt;Node12 -->
<g id="edge11_Node000011_Node000012" class="edge">
<title>Node11&#45;&gt;Node12</title>
<g id="a_edge11_Node000011_Node000012"><a xlink:title=" ">
<path fill="none" stroke="#63b8ff" d="M1183.5,-66.69C1183.5,-58.08 1183.5,-48.9 1183.5,-41.07"/>
<polygon fill="#63b8ff" stroke="#63b8ff" points="1180,-66.79 1183.5,-76.79 1187,-66.79 1180,-66.79"/>
</a>
</g>
</g>
<!-- Node13 -->
<g id="Node000013" class="node">
<title>Node13</title>
<g id="a_Node000013"><a xlink:href="adt7420-pmdz_2src_2platform_2mbed_2parameters_8c.html" target="_top" xlink:title="Definition of Mbed platform data used by adt7420&#45;pmdz project.">
<polygon fill="white" stroke="#666666" points="1497.5,-41 1289.5,-41 1289.5,0 1497.5,0 1497.5,-41"/>
<text text-anchor="start" x="1297.5" y="-29" font-family="Helvetica,sans-Serif" font-size="10.00">/home/runner/work/no</text>
<text text-anchor="start" x="1297.5" y="-18" font-family="Helvetica,sans-Serif" font-size="10.00">&#45;OS/no&#45;OS/projects/adt7420</text>
<text text-anchor="middle" x="1393.5" y="-7" font-family="Helvetica,sans-Serif" font-size="10.00">&#45;pmdz/src/platform/mbed/parameters.c</text>
</a>
</g>
</g>
<!-- Node11&#45;&gt;Node13 -->
<g id="edge12_Node000011_Node000013" class="edge">
<title>Node11&#45;&gt;Node13</title>
<g id="a_edge12_Node000011_Node000013"><a xlink:title=" ">
<path fill="none" stroke="#63b8ff" d="M1247.79,-73.54C1276.89,-63.15 1310.93,-50.99 1338.78,-41.04"/>
<polygon fill="#63b8ff" stroke="#63b8ff" points="1246.37,-70.33 1238.13,-76.99 1248.72,-76.92 1246.37,-70.33"/>
</a>
</g>
</g>
</g>
</svg>

<g id="navigator" transform="translate(0 0)" fill="#404254">
  <rect fill="#f2f5e9" fill-opacity="0.5" stroke="#606060" stroke-width=".5" x="0" y="0" width="60" height="60"/>
  <use id="zoomplus" xlink:href="#zoomPlus" x="17" y="9" onmousedown="handleZoom(evt,'in')"/>
  <use id="zoomminus" xlink:href="#zoomMin" x="42" y="9" onmousedown="handleZoom(evt,'out')"/>
  <use id="reset" xlink:href="#resetDef" x="30" y="36" onmousedown="handleReset()"/>
   <use id="arrowup" xlink:href="#arrowUp" x="0" y="0" onmousedown="handlePan(0,-1)"/>
  <use id="arrowright" xlink:href="#arrowRight" x="0" y="0" onmousedown="handlePan(1,0)"/>
  <use id="arrowdown" xlink:href="#arrowDown" x="0" y="0" onmousedown="handlePan(0,1)"/>
  <use id="arrowleft" xlink:href="#arrowLeft" x="0" y="0" onmousedown="handlePan(-1,0)"/>
</g>
<svg viewBox="0 0 15 15" width="100%" height="30px" preserveAspectRatio="xMaxYMin meet">
 <g id="arrow_out" transform="scale(0.3 0.3)">
  <a xlink:href="mbed__i2c_8h__dep__incl_org.svg" target="_base">
   <rect id="button" ry="5" rx="5" y="6" x="6" height="38" width="38"
        fill="#f2f5e9" fill-opacity="0.5" stroke="#606060" stroke-width="1.0"/>
   <path id="arrow"
     d="M 11.500037,31.436501 C 11.940474,20.09759 22.043105,11.32322 32.158766,21.979434 L 37.068811,17.246167 C 37.068811,17.246167 37.088388,32 37.088388,32 L 22.160133,31.978069 C 22.160133,31.978069 26.997745,27.140456 26.997745,27.140456 C 18.528582,18.264221 13.291696,25.230495 11.500037,31.436501 z"
     style="fill:#404040;"/>
  </a>
 </g>
</svg>

<style type='text/css'>
<![CDATA[
[data-mouse-over-selected='false'] { opacity: 0.7; }
[data-mouse-over-selected='true']  { opacity: 1.0; }
]]>
</style>
<script type="application/ecmascript"><![CDATA[
document.addEventListener('DOMContentLoaded', (event) => {
  highlightEdges();
  highlightAdjacentNodes();
});
]]></script>
</svg>
