<?xml version="1.0" encoding="UTF-8" standalone="no"?>
<!DOCTYPE svg PUBLIC "-//W3C//DTD SVG 1.1//EN"
 "http://www.w3.org/Graphics/SVG/1.1/DTD/svg11.dtd">
<!-- Generated by graphviz version 2.43.0 (0)
 -->
<!-- Title: /home/runner/work/no&#45;OS/no&#45;OS/drivers/net/mdio_bitbang.h Pages: 1 -->
<svg width="588pt" height="126pt"
 viewBox="0.00 0.00 587.50 126.00" xmlns="http://www.w3.org/2000/svg" xmlns:xlink="http://www.w3.org/1999/xlink">
<g id="graph0" class="graph" transform="scale(1 1) rotate(0) translate(4 122)">
<title>/home/runner/work/no&#45;OS/no&#45;OS/drivers/net/mdio_bitbang.h</title>
<!-- Node1 -->
<g id="Node000001" class="node">
<title>Node1</title>
<g id="a_Node000001"><a xlink:title="Header file for MDIO implementation using gpio bit banging.">
<polygon fill="#999999" stroke="#666666" points="337,-118 213,-118 213,-77 337,-77 337,-118"/>
<text text-anchor="start" x="221" y="-106" font-family="Helvetica,sans-Serif" font-size="10.00">/home/runner/work/no</text>
<text text-anchor="start" x="221" y="-95" font-family="Helvetica,sans-Serif" font-size="10.00">&#45;OS/no&#45;OS/drivers/net</text>
<text text-anchor="middle" x="275" y="-84" font-family="Helvetica,sans-Serif" font-size="10.00">/mdio_bitbang.h</text>
</a>
</g>
</g>
<!-- Node2 -->
<g id="Node000002" class="node">
<title>Node2</title>
<g id="a_Node000002"><a xlink:href="adin1300_8c.html" target="_top" xlink:title=" ">
<polygon fill="white" stroke="#666666" points="124,-41 0,-41 0,0 124,0 124,-41"/>
<text text-anchor="start" x="8" y="-29" font-family="Helvetica,sans-Serif" font-size="10.00">/home/runner/work/no</text>
<text text-anchor="start" x="8" y="-18" font-family="Helvetica,sans-Serif" font-size="10.00">&#45;OS/no&#45;OS/drivers/net</text>
<text text-anchor="middle" x="62" y="-7" font-family="Helvetica,sans-Serif" font-size="10.00">/adin1300.c</text>
</a>
</g>
</g>
<!-- Node1&#45;&gt;Node2 -->
<g id="edge1_Node000001_Node000002" class="edge">
<title>Node1&#45;&gt;Node2</title>
<g id="a_edge1_Node000001_Node000002"><a xlink:title=" ">
<path fill="none" stroke="#63b8ff" d="M209.79,-73.54C180.28,-63.15 145.75,-50.99 117.5,-41.04"/>
<polygon fill="#63b8ff" stroke="#63b8ff" points="209,-76.97 219.59,-76.99 211.32,-70.37 209,-76.97"/>
</a>
</g>
</g>
<!-- Node3 -->
<g id="Node000003" class="node">
<title>Node3</title>
<g id="a_Node000003"><a xlink:href="max24287_8c.html" target="_top" xlink:title=" ">
<polygon fill="white" stroke="#666666" points="266,-41 142,-41 142,0 266,0 266,-41"/>
<text text-anchor="start" x="150" y="-29" font-family="Helvetica,sans-Serif" font-size="10.00">/home/runner/work/no</text>
<text text-anchor="start" x="150" y="-18" font-family="Helvetica,sans-Serif" font-size="10.00">&#45;OS/no&#45;OS/drivers/net</text>
<text text-anchor="middle" x="204" y="-7" font-family="Helvetica,sans-Serif" font-size="10.00">/max24287.c</text>
</a>
</g>
</g>
<!-- Node1&#45;&gt;Node3 -->
<g id="edge2_Node000001_Node000003" class="edge">
<title>Node1&#45;&gt;Node3</title>
<g id="a_edge2_Node000001_Node000003"><a xlink:title=" ">
<path fill="none" stroke="#63b8ff" d="M249.45,-69.51C240.55,-60.11 230.75,-49.76 222.53,-41.07"/>
<polygon fill="#63b8ff" stroke="#63b8ff" points="246.93,-71.94 256.35,-76.79 252.01,-67.13 246.93,-71.94"/>
</a>
</g>
</g>
<!-- Node4 -->
<g id="Node000004" class="node">
<title>Node4</title>
<g id="a_Node000004"><a xlink:href="mdio__bitbang_8c.html" target="_top" xlink:title="Source file for MDIO implementation using gpio bit banging.">
<polygon fill="white" stroke="#666666" points="408,-41 284,-41 284,0 408,0 408,-41"/>
<text text-anchor="start" x="292" y="-29" font-family="Helvetica,sans-Serif" font-size="10.00">/home/runner/work/no</text>
<text text-anchor="start" x="292" y="-18" font-family="Helvetica,sans-Serif" font-size="10.00">&#45;OS/no&#45;OS/drivers/net</text>
<text text-anchor="middle" x="346" y="-7" font-family="Helvetica,sans-Serif" font-size="10.00">/mdio_bitbang.c</text>
</a>
</g>
</g>
<!-- Node1&#45;&gt;Node4 -->
<g id="edge3_Node000001_Node000004" class="edge">
<title>Node1&#45;&gt;Node4</title>
<g id="a_edge3_Node000001_Node000004"><a xlink:title=" ">
<path fill="none" stroke="#63b8ff" d="M300.55,-69.51C309.45,-60.11 319.25,-49.76 327.47,-41.07"/>
<polygon fill="#63b8ff" stroke="#63b8ff" points="297.99,-67.13 293.65,-76.79 303.07,-71.94 297.99,-67.13"/>
</a>
</g>
</g>
<!-- Node5 -->
<g id="Node000005" class="node">
<title>Node5</title>
<g id="a_Node000005"><a xlink:href="net_8c.html" target="_top" xlink:title=" ">
<polygon fill="white" stroke="#666666" points="579.5,-41 426.5,-41 426.5,0 579.5,0 579.5,-41"/>
<text text-anchor="start" x="434.5" y="-29" font-family="Helvetica,sans-Serif" font-size="10.00">/home/runner/work/no</text>
<text text-anchor="start" x="434.5" y="-18" font-family="Helvetica,sans-Serif" font-size="10.00">&#45;OS/no&#45;OS/projects/wethlink</text>
<text text-anchor="middle" x="503" y="-7" font-family="Helvetica,sans-Serif" font-size="10.00">/src/app/net.c</text>
</a>
</g>
</g>
<!-- Node1&#45;&gt;Node5 -->
<g id="edge4_Node000001_Node000005" class="edge">
<title>Node1&#45;&gt;Node5</title>
<g id="a_edge4_Node000001_Node000005"><a xlink:title=" ">
<path fill="none" stroke="#63b8ff" d="M343.98,-73.81C375.75,-63.36 413.09,-51.08 443.59,-41.04"/>
<polygon fill="#63b8ff" stroke="#63b8ff" points="342.71,-70.54 334.31,-76.99 344.9,-77.19 342.71,-70.54"/>
</a>
</g>
</g>
</g>
</svg>
