<?xml version="1.0" encoding="UTF-8" standalone="no"?>
<!DOCTYPE svg PUBLIC "-//W3C//DTD SVG 1.1//EN"
 "http://www.w3.org/Graphics/SVG/1.1/DTD/svg11.dtd">
<!-- Generated by graphviz version 2.43.0 (0)
 -->
<!-- Title: /home/runner/work/no&#45;OS/no&#45;OS/projects/ad9371/src/devices/mykonos/mykonos_debug/mykonos_dbgjesd.h Pages: 1 -->
<svg width="542pt" height="225pt"
 viewBox="0.00 0.00 542.00 225.00" xmlns="http://www.w3.org/2000/svg" xmlns:xlink="http://www.w3.org/1999/xlink">
<g id="graph0" class="graph" transform="scale(1 1) rotate(0) translate(4 221)">
<title>/home/runner/work/no&#45;OS/no&#45;OS/projects/ad9371/src/devices/mykonos/mykonos_debug/mykonos_dbgjesd.h</title>
<!-- Node1 -->
<g id="Node000001" class="node">
<title>Node1</title>
<g id="a_Node000001"><a xlink:title="Contains macro definitions and global structure declarations for mykonos_dbgjesd.c.">
<polygon fill="#999999" stroke="#666666" points="399,-217 230,-217 230,-165 399,-165 399,-217"/>
<text text-anchor="start" x="238" y="-205" font-family="Helvetica,sans-Serif" font-size="10.00">/home/runner/work/no</text>
<text text-anchor="start" x="238" y="-194" font-family="Helvetica,sans-Serif" font-size="10.00">&#45;OS/no&#45;OS/projects/ad9371</text>
<text text-anchor="start" x="238" y="-183" font-family="Helvetica,sans-Serif" font-size="10.00">/src/devices/mykonos/mykonos</text>
<text text-anchor="middle" x="314.5" y="-172" font-family="Helvetica,sans-Serif" font-size="10.00">_debug/mykonos_dbgjesd.h</text>
</a>
</g>
</g>
<!-- Node2 -->
<g id="Node000002" class="node">
<title>Node2</title>
<g id="a_Node000002"><a xlink:href="mykonos_8h.html" target="_top" xlink:title="Contains macro definitions and function prototypes for mykonos.c.">
<polygon fill="white" stroke="#666666" points="187.5,-129 117.5,-129 117.5,-110 187.5,-110 187.5,-129"/>
<text text-anchor="middle" x="152.5" y="-117" font-family="Helvetica,sans-Serif" font-size="10.00">mykonos.h</text>
</a>
</g>
</g>
<!-- Node1&#45;&gt;Node2 -->
<g id="edge1_Node000001_Node000002" class="edge">
<title>Node1&#45;&gt;Node2</title>
<g id="a_edge1_Node000001_Node000002"><a xlink:title=" ">
<path fill="none" stroke="#63b8ff" d="M256.01,-164.91C230.82,-154.1 202.47,-141.94 181.82,-133.08"/>
<polygon fill="#63b8ff" stroke="#63b8ff" points="183.2,-129.86 172.63,-129.14 180.44,-136.29 183.2,-129.86"/>
</a>
</g>
</g>
<!-- Node6 -->
<g id="Node000006" class="node">
<title>Node6</title>
<g id="a_Node000006"><a xlink:href="t__mykonos__gpio_8h.html" target="_top" xlink:title="Mykonos GPIO error handling and type defines.">
<polygon fill="white" stroke="#666666" points="331,-74 226,-74 226,-55 331,-55 331,-74"/>
<text text-anchor="middle" x="278.5" y="-62" font-family="Helvetica,sans-Serif" font-size="10.00">t_mykonos_gpio.h</text>
</a>
</g>
</g>
<!-- Node1&#45;&gt;Node6 -->
<g id="edge5_Node000001_Node000006" class="edge">
<title>Node1&#45;&gt;Node6</title>
<g id="a_edge5_Node000001_Node000006"><a xlink:title=" ">
<path fill="none" stroke="#63b8ff" d="M302.78,-164.91C298.09,-154.06 292.98,-141.1 289.5,-129 285.28,-114.35 282.44,-97.3 280.7,-84.56"/>
<polygon fill="#63b8ff" stroke="#63b8ff" points="284.13,-83.75 279.41,-74.26 277.18,-84.62 284.13,-83.75"/>
</a>
</g>
</g>
<!-- Node7 -->
<g id="Node000007" class="node">
<title>Node7</title>
<g id="a_Node000007"><a xlink:href="t__mykonos__dbgjesd_8h.html" target="_top" xlink:title="Contains definitions and structure declarations for mykonos_dbgjesd.c.">
<polygon fill="white" stroke="#666666" points="420.5,-129 298.5,-129 298.5,-110 420.5,-110 420.5,-129"/>
<text text-anchor="middle" x="359.5" y="-117" font-family="Helvetica,sans-Serif" font-size="10.00">t_mykonos_dbgjesd.h</text>
</a>
</g>
</g>
<!-- Node1&#45;&gt;Node7 -->
<g id="edge7_Node000001_Node000007" class="edge">
<title>Node1&#45;&gt;Node7</title>
<g id="a_edge7_Node000001_Node000007"><a xlink:title=" ">
<path fill="none" stroke="#63b8ff" d="M330.75,-164.91C336.54,-155.97 342.93,-146.1 348.21,-137.94"/>
<polygon fill="#63b8ff" stroke="#63b8ff" points="351.3,-139.6 353.8,-129.3 345.43,-135.79 351.3,-139.6"/>
</a>
</g>
</g>
<!-- Node8 -->
<g id="Node000008" class="node">
<title>Node8</title>
<g id="a_Node000008"><a xlink:href="mykonos__user_8h.html" target="_top" xlink:title="Contains macro definitions and global structure declarations for mykonos_user.c.">
<polygon fill="white" stroke="#666666" points="534,-129 439,-129 439,-110 534,-110 534,-129"/>
<text text-anchor="middle" x="486.5" y="-117" font-family="Helvetica,sans-Serif" font-size="10.00">mykonos_user.h</text>
</a>
</g>
</g>
<!-- Node1&#45;&gt;Node8 -->
<g id="edge9_Node000001_Node000008" class="edge">
<title>Node1&#45;&gt;Node8</title>
<g id="a_edge9_Node000001_Node000008"><a xlink:title=" ">
<path fill="none" stroke="#63b8ff" d="M376.6,-164.91C403.47,-154.05 433.72,-141.83 455.67,-132.96"/>
<polygon fill="#63b8ff" stroke="#63b8ff" points="457.17,-136.13 465.13,-129.14 454.55,-129.64 457.17,-136.13"/>
</a>
</g>
</g>
<!-- Node3 -->
<g id="Node000003" class="node">
<title>Node3</title>
<g id="a_Node000003"><a xlink:href="t__mykonos_8h.html" target="_top" xlink:title="Contains type definitions for Mykonos API.">
<polygon fill="white" stroke="#666666" points="79,-74 0,-74 0,-55 79,-55 79,-74"/>
<text text-anchor="middle" x="39.5" y="-62" font-family="Helvetica,sans-Serif" font-size="10.00">t_mykonos.h</text>
</a>
</g>
</g>
<!-- Node2&#45;&gt;Node3 -->
<g id="edge2_Node000002_Node000003" class="edge">
<title>Node2&#45;&gt;Node3</title>
<g id="a_edge2_Node000002_Node000003"><a xlink:title=" ">
<path fill="none" stroke="#63b8ff" d="M134.34,-109.98C116.25,-101.5 88.22,-88.35 67.31,-78.54"/>
<polygon fill="#63b8ff" stroke="#63b8ff" points="68.53,-75.25 57.99,-74.17 65.55,-81.59 68.53,-75.25"/>
</a>
</g>
</g>
<!-- Node5 -->
<g id="Node000005" class="node">
<title>Node5</title>
<g id="a_Node000005"><a xlink:href="mykonos__version_8h.html" target="_top" xlink:title="Contains the version number for the Mykonos API.">
<polygon fill="white" stroke="#666666" points="208,-74 97,-74 97,-55 208,-55 208,-74"/>
<text text-anchor="middle" x="152.5" y="-62" font-family="Helvetica,sans-Serif" font-size="10.00">mykonos_version.h</text>
</a>
</g>
</g>
<!-- Node2&#45;&gt;Node5 -->
<g id="edge4_Node000002_Node000005" class="edge">
<title>Node2&#45;&gt;Node5</title>
<g id="a_edge4_Node000002_Node000005"><a xlink:title=" ">
<path fill="none" stroke="#63b8ff" d="M152.5,-109.75C152.5,-102.8 152.5,-92.85 152.5,-84.13"/>
<polygon fill="#63b8ff" stroke="#63b8ff" points="156,-84.09 152.5,-74.09 149,-84.09 156,-84.09"/>
</a>
</g>
</g>
<!-- Node4 -->
<g id="Node000004" class="node">
<title>Node4</title>
<g id="a_Node000004"><a xlink:title=" ">
<polygon fill="#e0e0e0" stroke="#999999" points="312.5,-19 244.5,-19 244.5,0 312.5,0 312.5,-19"/>
<text text-anchor="middle" x="278.5" y="-7" font-family="Helvetica,sans-Serif" font-size="10.00">common.h</text>
</a>
</g>
</g>
<!-- Node3&#45;&gt;Node4 -->
<g id="edge3_Node000003_Node000004" class="edge">
<title>Node3&#45;&gt;Node4</title>
<g id="a_edge3_Node000003_Node000004"><a xlink:title=" ">
<path fill="none" stroke="#63b8ff" d="M77.9,-54.98C120.62,-45.51 189.53,-30.23 234.42,-20.27"/>
<polygon fill="#63b8ff" stroke="#63b8ff" points="235.45,-23.63 244.45,-18.05 233.93,-16.8 235.45,-23.63"/>
</a>
</g>
</g>
<!-- Node6&#45;&gt;Node4 -->
<g id="edge6_Node000006_Node000004" class="edge">
<title>Node6&#45;&gt;Node4</title>
<g id="a_edge6_Node000006_Node000004"><a xlink:title=" ">
<path fill="none" stroke="#63b8ff" d="M278.5,-54.75C278.5,-47.8 278.5,-37.85 278.5,-29.13"/>
<polygon fill="#63b8ff" stroke="#63b8ff" points="282,-29.09 278.5,-19.09 275,-29.09 282,-29.09"/>
</a>
</g>
</g>
<!-- Node7&#45;&gt;Node4 -->
<g id="edge8_Node000007_Node000004" class="edge">
<title>Node7&#45;&gt;Node4</title>
<g id="a_edge8_Node000007_Node000004"><a xlink:title=" ">
<path fill="none" stroke="#63b8ff" d="M358.7,-109.92C357.13,-96.95 352.66,-72.05 340.5,-55 331.43,-42.28 317.56,-31.83 305.23,-24.27"/>
<polygon fill="#63b8ff" stroke="#63b8ff" points="306.62,-21.03 296.21,-19.05 303.12,-27.09 306.62,-21.03"/>
</a>
</g>
</g>
</g>
</svg>
