<?xml version="1.0" encoding="UTF-8" standalone="no"?>
<!DOCTYPE svg PUBLIC "-//W3C//DTD SVG 1.1//EN"
 "http://www.w3.org/Graphics/SVG/1.1/DTD/svg11.dtd">
<!-- Generated by graphviz version 2.43.0 (0)
 -->
<!-- Title: /home/runner/work/no&#45;OS/no&#45;OS/include/no_os_init.h Pages: 1 -->
<svg width="2294pt" height="126pt"
 viewBox="0.00 0.00 2293.50 126.00" xmlns="http://www.w3.org/2000/svg" xmlns:xlink="http://www.w3.org/1999/xlink">
<g id="graph0" class="graph" transform="scale(1 1) rotate(0) translate(4 122)">
<title>/home/runner/work/no&#45;OS/no&#45;OS/include/no_os_init.h</title>
<!-- Node1 -->
<g id="Node000001" class="node">
<title>Node1</title>
<g id="a_Node000001"><a xlink:title=" ">
<polygon fill="#999999" stroke="#666666" points="1217,-118 1093,-118 1093,-77 1217,-77 1217,-118"/>
<text text-anchor="start" x="1101" y="-106" font-family="Helvetica,sans-Serif" font-size="10.00">/home/runner/work/no</text>
<text text-anchor="start" x="1101" y="-95" font-family="Helvetica,sans-Serif" font-size="10.00">&#45;OS/no&#45;OS/include/no</text>
<text text-anchor="middle" x="1155" y="-84" font-family="Helvetica,sans-Serif" font-size="10.00">_os_init.h</text>
</a>
</g>
</g>
<!-- Node2 -->
<g id="Node000002" class="node">
<title>Node2</title>
<g id="a_Node000002"><a xlink:href="max32650_2maxim__init_8c.html" target="_top" xlink:title=" ">
<polygon fill="white" stroke="#666666" points="176,-41 0,-41 0,0 176,0 176,-41"/>
<text text-anchor="start" x="8" y="-29" font-family="Helvetica,sans-Serif" font-size="10.00">/home/runner/work/no</text>
<text text-anchor="start" x="8" y="-18" font-family="Helvetica,sans-Serif" font-size="10.00">&#45;OS/no&#45;OS/drivers/platform</text>
<text text-anchor="middle" x="88" y="-7" font-family="Helvetica,sans-Serif" font-size="10.00">/maxim/max32650/maxim_init.c</text>
</a>
</g>
</g>
<!-- Node1&#45;&gt;Node2 -->
<g id="edge1_Node000001_Node000002" class="edge">
<title>Node1&#45;&gt;Node2</title>
<g id="a_edge1_Node000001_Node000002"><a xlink:title=" ">
<path fill="none" stroke="#63b8ff" d="M1082.57,-95.84C920.9,-93.62 518.56,-83.85 185,-41 182.1,-40.63 179.16,-40.22 176.2,-39.78"/>
<polygon fill="#63b8ff" stroke="#63b8ff" points="1082.83,-99.35 1092.87,-95.98 1082.92,-92.35 1082.83,-99.35"/>
</a>
</g>
</g>
<!-- Node3 -->
<g id="Node000003" class="node">
<title>Node3</title>
<g id="a_Node000003"><a xlink:href="max32655_2maxim__init_8c.html" target="_top" xlink:title=" ">
<polygon fill="white" stroke="#666666" points="370,-41 194,-41 194,0 370,0 370,-41"/>
<text text-anchor="start" x="202" y="-29" font-family="Helvetica,sans-Serif" font-size="10.00">/home/runner/work/no</text>
<text text-anchor="start" x="202" y="-18" font-family="Helvetica,sans-Serif" font-size="10.00">&#45;OS/no&#45;OS/drivers/platform</text>
<text text-anchor="middle" x="282" y="-7" font-family="Helvetica,sans-Serif" font-size="10.00">/maxim/max32655/maxim_init.c</text>
</a>
</g>
</g>
<!-- Node1&#45;&gt;Node3 -->
<g id="edge2_Node000001_Node000003" class="edge">
<title>Node1&#45;&gt;Node3</title>
<g id="a_edge2_Node000001_Node000003"><a xlink:title=" ">
<path fill="none" stroke="#63b8ff" d="M1082.87,-94.4C945.38,-89.72 636.55,-75.95 379,-41 376.11,-40.61 373.17,-40.18 370.21,-39.73"/>
<polygon fill="#63b8ff" stroke="#63b8ff" points="1082.75,-97.9 1092.86,-94.73 1082.98,-90.9 1082.75,-97.9"/>
</a>
</g>
</g>
<!-- Node4 -->
<g id="Node000004" class="node">
<title>Node4</title>
<g id="a_Node000004"><a xlink:href="max32660_2maxim__init_8c.html" target="_top" xlink:title=" ">
<polygon fill="white" stroke="#666666" points="564,-41 388,-41 388,0 564,0 564,-41"/>
<text text-anchor="start" x="396" y="-29" font-family="Helvetica,sans-Serif" font-size="10.00">/home/runner/work/no</text>
<text text-anchor="start" x="396" y="-18" font-family="Helvetica,sans-Serif" font-size="10.00">&#45;OS/no&#45;OS/drivers/platform</text>
<text text-anchor="middle" x="476" y="-7" font-family="Helvetica,sans-Serif" font-size="10.00">/maxim/max32660/maxim_init.c</text>
</a>
</g>
</g>
<!-- Node1&#45;&gt;Node4 -->
<g id="edge3_Node000001_Node000004" class="edge">
<title>Node1&#45;&gt;Node4</title>
<g id="a_edge3_Node000001_Node000004"><a xlink:title=" ">
<path fill="none" stroke="#63b8ff" d="M1082.71,-92.02C972.39,-84.63 755.57,-67.98 573,-41 570.11,-40.57 567.18,-40.12 564.22,-39.64"/>
<polygon fill="#63b8ff" stroke="#63b8ff" points="1082.52,-95.51 1092.73,-92.68 1082.98,-88.53 1082.52,-95.51"/>
</a>
</g>
</g>
<!-- Node5 -->
<g id="Node000005" class="node">
<title>Node5</title>
<g id="a_Node000005"><a xlink:href="max32662_2maxim__init_8c.html" target="_top" xlink:title=" ">
<polygon fill="white" stroke="#666666" points="758,-41 582,-41 582,0 758,0 758,-41"/>
<text text-anchor="start" x="590" y="-29" font-family="Helvetica,sans-Serif" font-size="10.00">/home/runner/work/no</text>
<text text-anchor="start" x="590" y="-18" font-family="Helvetica,sans-Serif" font-size="10.00">&#45;OS/no&#45;OS/drivers/platform</text>
<text text-anchor="middle" x="670" y="-7" font-family="Helvetica,sans-Serif" font-size="10.00">/maxim/max32662/maxim_init.c</text>
</a>
</g>
</g>
<!-- Node1&#45;&gt;Node5 -->
<g id="edge4_Node000001_Node000005" class="edge">
<title>Node1&#45;&gt;Node5</title>
<g id="a_edge4_Node000001_Node000005"><a xlink:title=" ">
<path fill="none" stroke="#63b8ff" d="M1082.46,-87.36C1004.37,-77.24 876.59,-59.84 767,-41 764.12,-40.51 761.2,-39.99 758.25,-39.46"/>
<polygon fill="#63b8ff" stroke="#63b8ff" points="1082.31,-90.87 1092.67,-88.68 1083.2,-83.93 1082.31,-90.87"/>
</a>
</g>
</g>
<!-- Node6 -->
<g id="Node000006" class="node">
<title>Node6</title>
<g id="a_Node000006"><a xlink:href="max32665_2maxim__init_8c.html" target="_top" xlink:title=" ">
<polygon fill="white" stroke="#666666" points="952,-41 776,-41 776,0 952,0 952,-41"/>
<text text-anchor="start" x="784" y="-29" font-family="Helvetica,sans-Serif" font-size="10.00">/home/runner/work/no</text>
<text text-anchor="start" x="784" y="-18" font-family="Helvetica,sans-Serif" font-size="10.00">&#45;OS/no&#45;OS/drivers/platform</text>
<text text-anchor="middle" x="864" y="-7" font-family="Helvetica,sans-Serif" font-size="10.00">/maxim/max32665/maxim_init.c</text>
</a>
</g>
</g>
<!-- Node1&#45;&gt;Node6 -->
<g id="edge5_Node000001_Node000006" class="edge">
<title>Node1&#45;&gt;Node6</title>
<g id="a_edge5_Node000001_Node000006"><a xlink:title=" ">
<path fill="none" stroke="#63b8ff" d="M1082.97,-77.94C1039.4,-66.71 983.9,-52.4 939.68,-41"/>
<polygon fill="#63b8ff" stroke="#63b8ff" points="1082.37,-81.4 1092.93,-80.5 1084.12,-74.62 1082.37,-81.4"/>
</a>
</g>
</g>
<!-- Node7 -->
<g id="Node000007" class="node">
<title>Node7</title>
<g id="a_Node000007"><a xlink:href="max32670_2maxim__init_8c.html" target="_top" xlink:title=" ">
<polygon fill="white" stroke="#666666" points="1146,-41 970,-41 970,0 1146,0 1146,-41"/>
<text text-anchor="start" x="978" y="-29" font-family="Helvetica,sans-Serif" font-size="10.00">/home/runner/work/no</text>
<text text-anchor="start" x="978" y="-18" font-family="Helvetica,sans-Serif" font-size="10.00">&#45;OS/no&#45;OS/drivers/platform</text>
<text text-anchor="middle" x="1058" y="-7" font-family="Helvetica,sans-Serif" font-size="10.00">/maxim/max32670/maxim_init.c</text>
</a>
</g>
</g>
<!-- Node1&#45;&gt;Node7 -->
<g id="edge6_Node000001_Node000007" class="edge">
<title>Node1&#45;&gt;Node7</title>
<g id="a_edge6_Node000001_Node000007"><a xlink:title=" ">
<path fill="none" stroke="#63b8ff" d="M1121.78,-70.82C1109.23,-61.11 1095.17,-50.24 1083.44,-41.17"/>
<polygon fill="#63b8ff" stroke="#63b8ff" points="1119.72,-73.64 1129.77,-76.99 1124,-68.1 1119.72,-73.64"/>
</a>
</g>
</g>
<!-- Node8 -->
<g id="Node000008" class="node">
<title>Node8</title>
<g id="a_Node000008"><a xlink:href="max32672_2maxim__init_8c.html" target="_top" xlink:title=" ">
<polygon fill="white" stroke="#666666" points="1340,-41 1164,-41 1164,0 1340,0 1340,-41"/>
<text text-anchor="start" x="1172" y="-29" font-family="Helvetica,sans-Serif" font-size="10.00">/home/runner/work/no</text>
<text text-anchor="start" x="1172" y="-18" font-family="Helvetica,sans-Serif" font-size="10.00">&#45;OS/no&#45;OS/drivers/platform</text>
<text text-anchor="middle" x="1252" y="-7" font-family="Helvetica,sans-Serif" font-size="10.00">/maxim/max32672/maxim_init.c</text>
</a>
</g>
</g>
<!-- Node1&#45;&gt;Node8 -->
<g id="edge7_Node000001_Node000008" class="edge">
<title>Node1&#45;&gt;Node8</title>
<g id="a_edge7_Node000001_Node000008"><a xlink:title=" ">
<path fill="none" stroke="#63b8ff" d="M1188.22,-70.82C1200.77,-61.11 1214.83,-50.24 1226.56,-41.17"/>
<polygon fill="#63b8ff" stroke="#63b8ff" points="1186,-68.1 1180.23,-76.99 1190.28,-73.64 1186,-68.1"/>
</a>
</g>
</g>
<!-- Node9 -->
<g id="Node000009" class="node">
<title>Node9</title>
<g id="a_Node000009"><a xlink:href="max32690_2maxim__init_8c.html" target="_top" xlink:title=" ">
<polygon fill="white" stroke="#666666" points="1534,-41 1358,-41 1358,0 1534,0 1534,-41"/>
<text text-anchor="start" x="1366" y="-29" font-family="Helvetica,sans-Serif" font-size="10.00">/home/runner/work/no</text>
<text text-anchor="start" x="1366" y="-18" font-family="Helvetica,sans-Serif" font-size="10.00">&#45;OS/no&#45;OS/drivers/platform</text>
<text text-anchor="middle" x="1446" y="-7" font-family="Helvetica,sans-Serif" font-size="10.00">/maxim/max32690/maxim_init.c</text>
</a>
</g>
</g>
<!-- Node1&#45;&gt;Node9 -->
<g id="edge8_Node000001_Node000009" class="edge">
<title>Node1&#45;&gt;Node9</title>
<g id="a_edge8_Node000001_Node000009"><a xlink:title=" ">
<path fill="none" stroke="#63b8ff" d="M1227.03,-77.94C1270.6,-66.71 1326.1,-52.4 1370.32,-41"/>
<polygon fill="#63b8ff" stroke="#63b8ff" points="1225.88,-74.62 1217.07,-80.5 1227.63,-81.4 1225.88,-74.62"/>
</a>
</g>
</g>
<!-- Node10 -->
<g id="Node000010" class="node">
<title>Node10</title>
<g id="a_Node000010"><a xlink:href="max78000_2maxim__init_8c.html" target="_top" xlink:title=" ">
<polygon fill="white" stroke="#666666" points="1728,-41 1552,-41 1552,0 1728,0 1728,-41"/>
<text text-anchor="start" x="1560" y="-29" font-family="Helvetica,sans-Serif" font-size="10.00">/home/runner/work/no</text>
<text text-anchor="start" x="1560" y="-18" font-family="Helvetica,sans-Serif" font-size="10.00">&#45;OS/no&#45;OS/drivers/platform</text>
<text text-anchor="middle" x="1640" y="-7" font-family="Helvetica,sans-Serif" font-size="10.00">/maxim/max78000/maxim_init.c</text>
</a>
</g>
</g>
<!-- Node1&#45;&gt;Node10 -->
<g id="edge9_Node000001_Node000010" class="edge">
<title>Node1&#45;&gt;Node10</title>
<g id="a_edge9_Node000001_Node000010"><a xlink:title=" ">
<path fill="none" stroke="#63b8ff" d="M1227.54,-87.36C1305.63,-77.24 1433.41,-59.84 1543,-41 1545.88,-40.51 1548.8,-39.99 1551.75,-39.46"/>
<polygon fill="#63b8ff" stroke="#63b8ff" points="1226.8,-83.93 1217.33,-88.68 1227.69,-90.87 1226.8,-83.93"/>
</a>
</g>
</g>
<!-- Node11 -->
<g id="Node000011" class="node">
<title>Node11</title>
<g id="a_Node000011"><a xlink:href="ad-acevsecrdset-sl_2src_2main_8c.html" target="_top" xlink:title="Main file for the stout project. This includes general initialization routines for the uC.">
<polygon fill="white" stroke="#666666" points="1896,-41 1746,-41 1746,0 1896,0 1896,-41"/>
<text text-anchor="start" x="1754" y="-29" font-family="Helvetica,sans-Serif" font-size="10.00">/home/runner/work/no</text>
<text text-anchor="start" x="1754" y="-18" font-family="Helvetica,sans-Serif" font-size="10.00">&#45;OS/no&#45;OS/projects/ad</text>
<text text-anchor="middle" x="1821" y="-7" font-family="Helvetica,sans-Serif" font-size="10.00">&#45;acevsecrdset&#45;sl/src/main.c</text>
</a>
</g>
</g>
<!-- Node1&#45;&gt;Node11 -->
<g id="edge10_Node000001_Node000011" class="edge">
<title>Node1&#45;&gt;Node11</title>
<g id="a_edge10_Node000001_Node000011"><a xlink:title=" ">
<path fill="none" stroke="#63b8ff" d="M1227.39,-92.7C1337.85,-86.2 1554.85,-70.69 1737,-41 1739.96,-40.52 1742.96,-39.99 1745.99,-39.43"/>
<polygon fill="#63b8ff" stroke="#63b8ff" points="1227.15,-89.21 1217.36,-93.28 1227.55,-96.2 1227.15,-89.21"/>
</a>
</g>
</g>
<!-- Node12 -->
<g id="Node000012" class="node">
<title>Node12</title>
<g id="a_Node000012"><a xlink:href="apard32690_2src_2examples_2main_8c.html" target="_top" xlink:title="Main file for the apard32690 project.">
<polygon fill="white" stroke="#666666" points="2082.5,-41 1913.5,-41 1913.5,0 2082.5,0 2082.5,-41"/>
<text text-anchor="start" x="1921.5" y="-29" font-family="Helvetica,sans-Serif" font-size="10.00">/home/runner/work/no</text>
<text text-anchor="start" x="1921.5" y="-18" font-family="Helvetica,sans-Serif" font-size="10.00">&#45;OS/no&#45;OS/projects/apard32690</text>
<text text-anchor="middle" x="1998" y="-7" font-family="Helvetica,sans-Serif" font-size="10.00">/src/examples/main.c</text>
</a>
</g>
</g>
<!-- Node1&#45;&gt;Node12 -->
<g id="edge11_Node000001_Node000012" class="edge">
<title>Node1&#45;&gt;Node12</title>
<g id="a_edge11_Node000001_Node000012"><a xlink:title=" ">
<path fill="none" stroke="#63b8ff" d="M1227.18,-94.35C1361.29,-89.64 1657.73,-75.92 1905,-41 1907.78,-40.61 1910.6,-40.18 1913.44,-39.73"/>
<polygon fill="#63b8ff" stroke="#63b8ff" points="1226.91,-90.85 1217.03,-94.7 1227.15,-97.85 1226.91,-90.85"/>
</a>
</g>
</g>
<!-- Node13 -->
<g id="Node000013" class="node">
<title>Node13</title>
<g id="a_Node000013"><a xlink:href="example_8c.html" target="_top" xlink:title="Implementation of ssd1306 example for demo project.">
<polygon fill="white" stroke="#666666" points="2285.5,-41 2100.5,-41 2100.5,0 2285.5,0 2285.5,-41"/>
<text text-anchor="start" x="2108.5" y="-29" font-family="Helvetica,sans-Serif" font-size="10.00">/home/runner/work/no</text>
<text text-anchor="start" x="2108.5" y="-18" font-family="Helvetica,sans-Serif" font-size="10.00">&#45;OS/no&#45;OS/projects/ssd1306</text>
<text text-anchor="middle" x="2193" y="-7" font-family="Helvetica,sans-Serif" font-size="10.00">/src/examples/example/example.c</text>
</a>
</g>
</g>
<!-- Node1&#45;&gt;Node13 -->
<g id="edge12_Node000001_Node000013" class="edge">
<title>Node1&#45;&gt;Node13</title>
<g id="a_edge12_Node000001_Node000013"><a xlink:title=" ">
<path fill="none" stroke="#63b8ff" d="M1227.26,-95.45C1384.88,-92.46 1771.22,-81.29 2092,-41 2094.75,-40.66 2097.53,-40.28 2100.34,-39.88"/>
<polygon fill="#63b8ff" stroke="#63b8ff" points="1227.14,-91.96 1217.21,-95.64 1227.27,-98.95 1227.14,-91.96"/>
</a>
</g>
</g>
</g>
</svg>
