<?xml version="1.0" encoding="UTF-8" standalone="no"?>
<!DOCTYPE svg PUBLIC "-//W3C//DTD SVG 1.1//EN"
 "http://www.w3.org/Graphics/SVG/1.1/DTD/svg11.dtd">
<!-- Generated by graphviz version 2.43.0 (0)
 -->
<!-- Title: no_os_irq_ctrl_remove Pages: 1 -->
<!--zoomable 1063 -->

<svg id="main" version="1.1" xmlns="http://www.w3.org/2000/svg" xmlns:xlink="http://www.w3.org/1999/xlink" xml:space="preserve" onload="init(evt)">

<style type="text/css"><![CDATA[
.node, .edge {opacity: 0.7;}
.node.selected, .edge.selected {opacity: 1;}
.edge:hover path { stroke: red; }
.edge:hover polygon { stroke: red; fill: red; }
]]></style>

<defs>
  <circle id="rim" cx="0" cy="0" r="7"/>
  <circle id="rim2" cx="0" cy="0" r="3.5"/>
  <g id="zoomPlus">
    <use xlink:href="#rim" fill="#404040"><set attributeName="fill" to="#808080" begin="zoomplus.mouseover" end="zoomplus.mouseout"/></use>
    <path d="M-4,0h8M0,-4v8" fill="none" stroke="white" stroke-width="1.5" pointer-events="none"/>
  </g>
  <g id="zoomMin">
    <use xlink:href="#rim" fill="#404040"><set attributeName="fill" to="#808080" begin="zoomminus.mouseover" end="zoomminus.mouseout"/></use>
    <path d="M-4,0h8" fill="none" stroke="white" stroke-width="1.5" pointer-events="none"/>
  </g>
  <g id="arrowUp" transform="translate(30 24)">
    <use xlink:href="#rim"/>
    <path pointer-events="none" fill="none" stroke="white" stroke-width="1.5" d="M0,-3.0v7 M-2.5,-0.5L0,-3.0L2.5,-0.5"/>
  </g>
  <g id="arrowRight" transform="rotate(90) translate(36 -43)">
    <use xlink:href="#rim"/>
    <path pointer-events="none" fill="none" stroke="white" stroke-width="1.5" d="M0,-3.0v7 M-2.5,-0.5L0,-3.0L2.5,-0.5"/>
  </g>
  <g id="arrowDown" transform="rotate(180) translate(-30 -48)">
    <use xlink:href="#rim"/>
    <path pointer-events="none" fill="none" stroke="white" stroke-width="1.5" d="M0,-3.0v7 M-2.5,-0.5L0,-3.0L2.5,-0.5"/>
  </g>
  <g id="arrowLeft" transform="rotate(270) translate(-36 17)">
    <use xlink:href="#rim"/>
    <path pointer-events="none" fill="none" stroke="white" stroke-width="1.5" d="M0,-3.0v7 M-2.5,-0.5L0,-3.0L2.5,-0.5"/>
  </g>
  <g id="resetDef">
    <use xlink:href="#rim2" fill="#404040"><set attributeName="fill" to="#808080" begin="reset.mouseover" end="reset.mouseout"/></use>
  </g>
</defs>
<script type="application/ecmascript">
var viewWidth = 580;
var viewHeight = 1063;
var sectionId = 'dynsection-3';
</script>
<script type="application/ecmascript" xlink:href="svg.min.js"/>
<svg id="graph" class="graph">
<g id="viewport">
<title>no_os_irq_ctrl_remove</title>
<!-- Node1 -->
<g id="Node000001" class="node">
<title>Node1</title>
<g id="a_Node000001"><a xlink:title="Free the resources allocated by no_os_irq_ctrl_init().">
<polygon fill="#999999" stroke="#666666" points="572,-537 445,-537 445,-518 572,-518 572,-537"/>
<text text-anchor="middle" x="508.5" y="-525" font-family="Helvetica,sans-Serif" font-size="10.00">no_os_irq_ctrl_remove</text>
</a>
</g>
</g>
<!-- Node2 -->
<g id="Node000002" class="node">
<title>Node2</title>
<g id="a_Node000002"><a xlink:href="ade7753_8c.html#aa33b08d1dbebcc490f87cfd5035c5edd" target="_top" xlink:title="Remove the device and release resources.">
<polygon fill="white" stroke="#666666" points="371.5,-1055 270.5,-1055 270.5,-1036 371.5,-1036 371.5,-1055"/>
<text text-anchor="middle" x="321" y="-1043" font-family="Helvetica,sans-Serif" font-size="10.00">ade7753_remove</text>
</a>
</g>
</g>
<!-- Node1&#45;&gt;Node2 -->
<g id="edge1_Node000001_Node000002" class="edge">
<title>Node1&#45;&gt;Node2</title>
<g id="a_edge1_Node000001_Node000002"><a xlink:title=" ">
<path fill="none" stroke="#63b8ff" d="M506.44,-547.32C501.54,-631.4 478.28,-957.56 409,-1027.5 399.12,-1037.47 385.27,-1042.63 371.53,-1045.13"/>
<polygon fill="#63b8ff" stroke="#63b8ff" points="509.95,-547.29 507.01,-537.11 502.96,-546.9 509.95,-547.29"/>
</a>
</g>
</g>
<!-- Node3 -->
<g id="Node000003" class="node">
<title>Node3</title>
<g id="a_Node000003"><a xlink:href="ade7754_8c.html#a5a1dfdc173e486138c2fa073658f7b34" target="_top" xlink:title="Remove the device and release resources.">
<polygon fill="white" stroke="#666666" points="371.5,-1018 270.5,-1018 270.5,-999 371.5,-999 371.5,-1018"/>
<text text-anchor="middle" x="321" y="-1006" font-family="Helvetica,sans-Serif" font-size="10.00">ade7754_remove</text>
</a>
</g>
</g>
<!-- Node1&#45;&gt;Node3 -->
<g id="edge2_Node000001_Node000003" class="edge">
<title>Node1&#45;&gt;Node3</title>
<g id="a_edge2_Node000001_Node000003"><a xlink:title=" ">
<path fill="none" stroke="#63b8ff" d="M506.1,-547.37C500.04,-627.6 473.43,-926.43 409,-990.5 399.16,-1000.29 385.48,-1005.42 371.89,-1007.96"/>
<polygon fill="#63b8ff" stroke="#63b8ff" points="509.61,-547.4 506.85,-537.17 502.63,-546.89 509.61,-547.4"/>
</a>
</g>
</g>
<!-- Node4 -->
<g id="Node000004" class="node">
<title>Node4</title>
<g id="a_Node000004"><a xlink:href="ade7758_8c.html#a0020fddf14e36f32a1ada5be57fb97ed" target="_top" xlink:title="Remove the device and release resources.">
<polygon fill="white" stroke="#666666" points="371.5,-981 270.5,-981 270.5,-962 371.5,-962 371.5,-981"/>
<text text-anchor="middle" x="321" y="-969" font-family="Helvetica,sans-Serif" font-size="10.00">ade7758_remove</text>
</a>
</g>
</g>
<!-- Node1&#45;&gt;Node4 -->
<g id="edge3_Node000001_Node000004" class="edge">
<title>Node1&#45;&gt;Node4</title>
<g id="a_edge3_Node000001_Node000004"><a xlink:title=" ">
<path fill="none" stroke="#63b8ff" d="M505.72,-547.23C498.47,-623.17 468.65,-895.22 409,-953.5 399.07,-963.2 385.37,-968.31 371.78,-970.85"/>
<polygon fill="#63b8ff" stroke="#63b8ff" points="509.22,-547.42 506.66,-537.14 502.25,-546.77 509.22,-547.42"/>
</a>
</g>
</g>
<!-- Node5 -->
<g id="Node000005" class="node">
<title>Node5</title>
<g id="a_Node000005"><a xlink:href="ade7953_8c.html#ada70efe05b0f03ea5baa1857aa795cf5" target="_top" xlink:title="Remove the device and release resources.">
<polygon fill="white" stroke="#666666" points="371.5,-944 270.5,-944 270.5,-925 371.5,-925 371.5,-944"/>
<text text-anchor="middle" x="321" y="-932" font-family="Helvetica,sans-Serif" font-size="10.00">ade7953_remove</text>
</a>
</g>
</g>
<!-- Node1&#45;&gt;Node5 -->
<g id="edge4_Node000001_Node000005" class="edge">
<title>Node1&#45;&gt;Node5</title>
<g id="a_edge4_Node000001_Node000005"><a xlink:title=" ">
<path fill="none" stroke="#63b8ff" d="M505.24,-547.33C496.68,-619.12 463.83,-864.03 409,-916.5 398.97,-926.1 385.24,-931.17 371.65,-933.72"/>
<polygon fill="#63b8ff" stroke="#63b8ff" points="508.77,-547.35 506.45,-537.01 501.81,-546.53 508.77,-547.35"/>
</a>
</g>
</g>
<!-- Node6 -->
<g id="Node000006" class="node">
<title>Node6</title>
<g id="a_Node000006"><a xlink:href="ade7816_2src_2examples_2basic_2basic__example_8c.html#a72943dc9011d36293cb05ca5d7cb6899" target="_top" xlink:title="Basic example main execution.">
<polygon fill="white" stroke="#666666" points="381,-907 261,-907 261,-888 381,-888 381,-907"/>
<text text-anchor="middle" x="321" y="-895" font-family="Helvetica,sans-Serif" font-size="10.00">basic_example_main</text>
</a>
</g>
</g>
<!-- Node1&#45;&gt;Node6 -->
<g id="edge5_Node000001_Node000006" class="edge">
<title>Node1&#45;&gt;Node6</title>
<g id="a_edge5_Node000001_Node000006"><a xlink:title=" ">
<path fill="none" stroke="#63b8ff" d="M504.71,-547.17C494.78,-614.28 459.1,-832.73 409,-879.5 401.33,-886.66 391.6,-891.28 381.44,-894.21"/>
<polygon fill="#63b8ff" stroke="#63b8ff" points="508.2,-547.5 506.17,-537.1 501.27,-546.49 508.2,-547.5"/>
</a>
</g>
</g>
<!-- Node7 -->
<g id="Node000007" class="node">
<title>Node7</title>
<g id="a_Node000007"><a xlink:href="ad4692__ardz_2src_2examples_2iio__trigger_2iio__trigger__example_8c.html#ac25cbf8ae523e89cb0617e68c98bc697" target="_top" xlink:title="Basic example main executiont.">
<polygon fill="white" stroke="#666666" points="365.5,-870 276.5,-870 276.5,-851 365.5,-851 365.5,-870"/>
<text text-anchor="middle" x="321" y="-858" font-family="Helvetica,sans-Serif" font-size="10.00">example_main</text>
</a>
</g>
</g>
<!-- Node1&#45;&gt;Node7 -->
<g id="edge6_Node000001_Node000007" class="edge">
<title>Node1&#45;&gt;Node7</title>
<g id="a_edge6_Node000001_Node000007"><a xlink:title=" ">
<path fill="none" stroke="#63b8ff" d="M507.73,-547.6C507.22,-603.55 497.62,-762.25 409,-842.5 397.34,-853.06 381.16,-858.06 365.91,-860.26"/>
<polygon fill="#63b8ff" stroke="#63b8ff" points="511.23,-547.28 507.73,-537.29 504.23,-547.29 511.23,-547.28"/>
</a>
</g>
</g>
<!-- Node8 -->
<g id="Node000008" class="node">
<title>Node8</title>
<g id="a_Node000008"><a xlink:href="adalm-lsmspg_2src_2platform_2maxim_2main_8c.html#abcfe03c80e333256b97046aa756e25a2" target="_top" xlink:title=" ">
<polygon fill="white" stroke="#666666" points="365,-833 277,-833 277,-814 365,-814 365,-833"/>
<text text-anchor="middle" x="321" y="-821" font-family="Helvetica,sans-Serif" font-size="10.00">heartbeat_exit</text>
</a>
</g>
</g>
<!-- Node1&#45;&gt;Node8 -->
<g id="edge7_Node000001_Node000008" class="edge">
<title>Node1&#45;&gt;Node8</title>
<g id="a_edge7_Node000001_Node000008"><a xlink:title=" ">
<path fill="none" stroke="#63b8ff" d="M506.79,-547.29C503.82,-598.51 488.47,-736.2 409,-805.5 397.03,-815.94 380.6,-820.89 365.25,-823.09"/>
<polygon fill="#63b8ff" stroke="#63b8ff" points="510.29,-547.38 507.27,-537.22 503.3,-547.05 510.29,-547.38"/>
</a>
</g>
</g>
<!-- Node9 -->
<g id="Node000009" class="node">
<title>Node9</title>
<g id="a_Node000009"><a xlink:href="adalm-lsmspg_2src_2platform_2maxim_2main_8c.html#a8965f8841fa6b209be38417ab48be0bc" target="_top" xlink:title=" ">
<polygon fill="white" stroke="#666666" points="363.5,-796 278.5,-796 278.5,-777 363.5,-777 363.5,-796"/>
<text text-anchor="middle" x="321" y="-784" font-family="Helvetica,sans-Serif" font-size="10.00">heartbeat_init</text>
</a>
</g>
</g>
<!-- Node1&#45;&gt;Node9 -->
<g id="edge8_Node000001_Node000009" class="edge">
<title>Node1&#45;&gt;Node9</title>
<g id="a_edge8_Node000001_Node000009"><a xlink:title=" ">
<path fill="none" stroke="#63b8ff" d="M505.6,-547.14C500.02,-593.46 479.33,-710.05 409,-768.5 396.43,-778.95 379.35,-783.83 363.65,-785.97"/>
<polygon fill="#63b8ff" stroke="#63b8ff" points="509.08,-547.5 506.69,-537.18 502.12,-546.74 509.08,-547.5"/>
</a>
</g>
</g>
<!-- Node10 -->
<g id="Node000010" class="node">
<title>Node10</title>
<g id="a_Node000010"><a xlink:href="ad7091r8-sdz_2src_2examples_2iio__timer__trigger__example_2iio__timer__trigger__example_8c.html#a7bab3a90f71c4ddf1bc5fff9fc70b3fb" target="_top" xlink:title="IIO trigger example main execution.">
<polygon fill="white" stroke="#666666" points="409,-759 233,-759 233,-740 409,-740 409,-759"/>
<text text-anchor="middle" x="321" y="-747" font-family="Helvetica,sans-Serif" font-size="10.00">iio_timer_trigger_example_main</text>
</a>
</g>
</g>
<!-- Node1&#45;&gt;Node10 -->
<g id="edge9_Node000001_Node000010" class="edge">
<title>Node1&#45;&gt;Node10</title>
<g id="a_edge9_Node000001_Node000010"><a xlink:title=" ">
<path fill="none" stroke="#63b8ff" d="M504.06,-546.88C495.71,-587.9 470.36,-683.64 409,-731.5 404.74,-734.82 400.02,-737.57 395.05,-739.84"/>
<polygon fill="#63b8ff" stroke="#63b8ff" points="507.5,-547.54 505.94,-537.06 500.62,-546.22 507.5,-547.54"/>
</a>
</g>
</g>
<!-- Node12 -->
<g id="Node000012" class="node">
<title>Node12</title>
<g id="a_Node000012"><a xlink:href="eval-adis1646x_2src_2examples_2iio__trigger__example_2iio__trigger__example_8c.html#aa6785eab0c37adc61db331ebebdc40ee" target="_top" xlink:title="IIO trigger example main execution.">
<polygon fill="white" stroke="#666666" points="393,-722 249,-722 249,-703 393,-703 393,-722"/>
<text text-anchor="middle" x="321" y="-710" font-family="Helvetica,sans-Serif" font-size="10.00">iio_trigger_example_main</text>
</a>
</g>
</g>
<!-- Node1&#45;&gt;Node12 -->
<g id="edge11_Node000001_Node000012" class="edge">
<title>Node1&#45;&gt;Node12</title>
<g id="a_edge11_Node000001_Node000012"><a xlink:title=" ">
<path fill="none" stroke="#63b8ff" d="M501.83,-546.98C490.45,-582.37 461.35,-657.05 409,-694.5 404.11,-698 398.69,-700.85 393.01,-703.17"/>
<polygon fill="#63b8ff" stroke="#63b8ff" points="505.2,-547.92 504.79,-537.34 498.51,-545.86 505.2,-547.92"/>
</a>
</g>
</g>
<!-- Node14 -->
<g id="Node000014" class="node">
<title>Node14</title>
<g id="a_Node000014"><a xlink:href="demo__esp_2src_2examples_2basic_2basic__example_8c.html#adf61ab6fc732b20dc9f8a4be75985c1a" target="_top" xlink:title=" ">
<polygon fill="white" stroke="#666666" points="382,-685 260,-685 260,-666 382,-666 382,-685"/>
<text text-anchor="middle" x="321" y="-673" font-family="Helvetica,sans-Serif" font-size="10.00">init_and_connect_wifi</text>
</a>
</g>
</g>
<!-- Node1&#45;&gt;Node14 -->
<g id="edge13_Node000001_Node000014" class="edge">
<title>Node1&#45;&gt;Node14</title>
<g id="a_edge13_Node000001_Node000014"><a xlink:title=" ">
<path fill="none" stroke="#63b8ff" d="M498.82,-546.26C484.45,-575.07 452.91,-629.78 409,-657.5 400.91,-662.61 391.64,-666.29 382.23,-668.95"/>
<polygon fill="#63b8ff" stroke="#63b8ff" points="501.98,-547.76 503.17,-537.23 495.67,-544.72 501.98,-547.76"/>
</a>
</g>
</g>
<!-- Node16 -->
<g id="Node000016" class="node">
<title>Node16</title>
<g id="a_Node000016"><a xlink:href="eval-ade7913_2src_2platform_2platform_8c.html#aac2d512681f800201bd2b7307ddc95fd" target="_top" xlink:title="Init NVIC.">
<polygon fill="white" stroke="#666666" points="350,-648 292,-648 292,-629 350,-629 350,-648"/>
<text text-anchor="middle" x="321" y="-636" font-family="Helvetica,sans-Serif" font-size="10.00">init_nvic</text>
</a>
</g>
</g>
<!-- Node1&#45;&gt;Node16 -->
<g id="edge15_Node000001_Node000016" class="edge">
<title>Node1&#45;&gt;Node16</title>
<g id="a_edge15_Node000001_Node000016"><a xlink:title=" ">
<path fill="none" stroke="#63b8ff" d="M494.05,-545.16C476.78,-566.5 444.75,-601.87 409,-620.5 390.81,-629.98 368.04,-634.47 350.35,-636.59"/>
<polygon fill="#63b8ff" stroke="#63b8ff" points="496.87,-547.23 500.32,-537.21 491.37,-542.9 496.87,-547.23"/>
</a>
</g>
</g>
<!-- Node18 -->
<g id="Node000018" class="node">
<title>Node18</title>
<g id="a_Node000018"><a xlink:href="eval-ade7913_2src_2interrupt_2interrupt_8c.html#aa3e9aea3cb8149b03c6ccb6306151976" target="_top" xlink:title="Initialize data ready interrupt.">
<polygon fill="white" stroke="#666666" points="351,-537 291,-537 291,-518 351,-518 351,-537"/>
<text text-anchor="middle" x="321" y="-525" font-family="Helvetica,sans-Serif" font-size="10.00">inter_init</text>
</a>
</g>
</g>
<!-- Node1&#45;&gt;Node18 -->
<g id="edge17_Node000001_Node000018" class="edge">
<title>Node1&#45;&gt;Node18</title>
<g id="a_edge17_Node000001_Node000018"><a xlink:title=" ">
<path fill="none" stroke="#63b8ff" d="M434.75,-527.5C405.51,-527.5 373.48,-527.5 351.06,-527.5"/>
<polygon fill="#63b8ff" stroke="#63b8ff" points="434.96,-531 444.96,-527.5 434.96,-524 434.96,-531"/>
</a>
</g>
</g>
<!-- Node19 -->
<g id="Node000019" class="node">
<title>Node19</title>
<g id="a_Node000019"><a xlink:href="eval-ade7978_2src_2interrupt_2interrupt_8c.html#aa7525705d8c13507bc4016504d0a011a" target="_top" xlink:title="Initialize interrupt.">
<polygon fill="white" stroke="#666666" points="351,-500 291,-500 291,-481 351,-481 351,-500"/>
<text text-anchor="middle" x="321" y="-488" font-family="Helvetica,sans-Serif" font-size="10.00">inter_init</text>
</a>
</g>
</g>
<!-- Node1&#45;&gt;Node19 -->
<g id="edge18_Node000001_Node000019" class="edge">
<title>Node1&#45;&gt;Node19</title>
<g id="a_edge18_Node000001_Node000019"><a xlink:title=" ">
<path fill="none" stroke="#63b8ff" d="M449.8,-515.99C417.04,-509.46 377.44,-501.56 351.09,-496.3"/>
<polygon fill="#63b8ff" stroke="#63b8ff" points="449.24,-519.45 459.73,-517.97 450.61,-512.58 449.24,-519.45"/>
</a>
</g>
</g>
<!-- Node20 -->
<g id="Node000020" class="node">
<title>Node20</title>
<g id="a_Node000020"><a xlink:href="inter_8c.html#a61102c2d0ff81b29bd60a2537e351562" target="_top" xlink:title="Initialize inter phase.">
<polygon fill="white" stroke="#666666" points="351,-611 291,-611 291,-592 351,-592 351,-611"/>
<text text-anchor="middle" x="321" y="-599" font-family="Helvetica,sans-Serif" font-size="10.00">inter_init</text>
</a>
</g>
</g>
<!-- Node1&#45;&gt;Node20 -->
<g id="edge19_Node000001_Node000020" class="edge">
<title>Node1&#45;&gt;Node20</title>
<g id="a_edge19_Node000001_Node000020"><a xlink:title=" ">
<path fill="none" stroke="#63b8ff" d="M485.44,-542.73C466.1,-555.4 436.81,-573.02 409,-583.5 390.38,-590.52 368.44,-595.03 351.24,-597.79"/>
<polygon fill="#63b8ff" stroke="#63b8ff" points="487.46,-545.59 493.83,-537.12 483.57,-539.77 487.46,-545.59"/>
</a>
</g>
</g>
<!-- Node23 -->
<g id="Node000023" class="node">
<title>Node23</title>
<g id="a_Node000023"><a xlink:href="eval-ade7753_2src_2interrupt_2interrupt_8c.html#aea86aca7630a4590a0c635f53ce6bc1b" target="_top" xlink:title="Initialize IRQN interrupt.">
<polygon fill="white" stroke="#666666" points="360,-463 282,-463 282,-444 360,-444 360,-463"/>
<text text-anchor="middle" x="321" y="-451" font-family="Helvetica,sans-Serif" font-size="10.00">inter_init_irq</text>
</a>
</g>
</g>
<!-- Node1&#45;&gt;Node23 -->
<g id="edge23_Node000001_Node000023" class="edge">
<title>Node1&#45;&gt;Node23</title>
<g id="a_edge23_Node000001_Node000023"><a xlink:title=" ">
<path fill="none" stroke="#63b8ff" d="M485.03,-512.43C465.65,-500.05 436.51,-482.92 409,-472.5 393.53,-466.64 375.79,-462.36 360.39,-459.36"/>
<polygon fill="#63b8ff" stroke="#63b8ff" points="483.17,-515.39 493.47,-517.9 486.99,-509.52 483.17,-515.39"/>
</a>
</g>
</g>
<!-- Node25 -->
<g id="Node000025" class="node">
<title>Node25</title>
<g id="a_Node000025"><a xlink:href="eval-ade7754_2src_2interrupt_2interrupt_8c.html#ab5e8622a89cb6d915c9d69f73189cb8a" target="_top" xlink:title="Initialize IRQN interrupt.">
<polygon fill="white" stroke="#666666" points="360,-389 282,-389 282,-370 360,-370 360,-389"/>
<text text-anchor="middle" x="321" y="-377" font-family="Helvetica,sans-Serif" font-size="10.00">inter_init_irq</text>
</a>
</g>
</g>
<!-- Node1&#45;&gt;Node25 -->
<g id="edge25_Node000001_Node000025" class="edge">
<title>Node1&#45;&gt;Node25</title>
<g id="a_edge25_Node000001_Node000025"><a xlink:title=" ">
<path fill="none" stroke="#63b8ff" d="M498.82,-508.74C484.45,-479.93 452.91,-425.22 409,-397.5 394.52,-388.36 376.24,-383.76 360.18,-381.48"/>
<polygon fill="#63b8ff" stroke="#63b8ff" points="495.67,-510.28 503.17,-517.77 501.98,-507.24 495.67,-510.28"/>
</a>
</g>
</g>
<!-- Node26 -->
<g id="Node000026" class="node">
<title>Node26</title>
<g id="a_Node000026"><a xlink:href="eval-ade7758_2src_2interrupt_2interrupt_8c.html#ad9142558518599e0b3a016226eb6a558" target="_top" xlink:title="Initialize IRQN interrupt.">
<polygon fill="white" stroke="#666666" points="360,-352 282,-352 282,-333 360,-333 360,-352"/>
<text text-anchor="middle" x="321" y="-340" font-family="Helvetica,sans-Serif" font-size="10.00">inter_init_irq</text>
</a>
</g>
</g>
<!-- Node1&#45;&gt;Node26 -->
<g id="edge26_Node000001_Node000026" class="edge">
<title>Node1&#45;&gt;Node26</title>
<g id="a_edge26_Node000001_Node000026"><a xlink:title=" ">
<path fill="none" stroke="#63b8ff" d="M501.83,-508.02C490.45,-472.63 461.35,-397.95 409,-360.5 394.95,-350.45 376.54,-345.75 360.28,-343.64"/>
<polygon fill="#63b8ff" stroke="#63b8ff" points="498.51,-509.14 504.79,-517.66 505.2,-507.08 498.51,-509.14"/>
</a>
</g>
</g>
<!-- Node27 -->
<g id="Node000027" class="node">
<title>Node27</title>
<g id="a_Node000027"><a xlink:href="eval-ade7953_2src_2interrupt_2interrupt_8c.html#a64c0f22d80f42624a5e6ccfcdf7b7e47" target="_top" xlink:title="Initialize IRQN interrupt.">
<polygon fill="white" stroke="#666666" points="360,-315 282,-315 282,-296 360,-296 360,-315"/>
<text text-anchor="middle" x="321" y="-303" font-family="Helvetica,sans-Serif" font-size="10.00">inter_init_irq</text>
</a>
</g>
</g>
<!-- Node1&#45;&gt;Node27 -->
<g id="edge27_Node000001_Node000027" class="edge">
<title>Node1&#45;&gt;Node27</title>
<g id="a_edge27_Node000001_Node000027"><a xlink:title=" ">
<path fill="none" stroke="#63b8ff" d="M504.06,-508.12C495.71,-467.1 470.36,-371.36 409,-323.5 395.26,-312.78 376.7,-308.02 360.25,-306.04"/>
<polygon fill="#63b8ff" stroke="#63b8ff" points="500.62,-508.78 505.94,-517.94 507.5,-507.46 500.62,-508.78"/>
</a>
</g>
</g>
<!-- Node28 -->
<g id="Node000028" class="node">
<title>Node28</title>
<g id="a_Node000028"><a xlink:href="eval-ade7753_2src_2interrupt_2interrupt_8c.html#a0ba92cc819a15706a81ac016c98aa426" target="_top" xlink:title="Initialize zx interrupt.">
<polygon fill="white" stroke="#666666" points="359.5,-426 282.5,-426 282.5,-407 359.5,-407 359.5,-426"/>
<text text-anchor="middle" x="321" y="-414" font-family="Helvetica,sans-Serif" font-size="10.00">inter_init_zx</text>
</a>
</g>
</g>
<!-- Node1&#45;&gt;Node28 -->
<g id="edge28_Node000001_Node000028" class="edge">
<title>Node1&#45;&gt;Node28</title>
<g id="a_edge28_Node000001_Node000028"><a xlink:title=" ">
<path fill="none" stroke="#63b8ff" d="M494.05,-509.84C476.78,-488.5 444.75,-453.13 409,-434.5 393.82,-426.59 375.44,-422.15 359.5,-419.67"/>
<polygon fill="#63b8ff" stroke="#63b8ff" points="491.37,-512.1 500.32,-517.79 496.87,-507.77 491.37,-512.1"/>
</a>
</g>
</g>
<!-- Node29 -->
<g id="Node000029" class="node">
<title>Node29</title>
<g id="a_Node000029"><a xlink:href="eval-ade7953_2src_2interrupt_2interrupt_8c.html#af8cf12af8c185b63ae18866f7c4f226e" target="_top" xlink:title="Initialize zx interrupt.">
<polygon fill="white" stroke="#666666" points="359.5,-278 282.5,-278 282.5,-259 359.5,-259 359.5,-278"/>
<text text-anchor="middle" x="321" y="-266" font-family="Helvetica,sans-Serif" font-size="10.00">inter_init_zx</text>
</a>
</g>
</g>
<!-- Node1&#45;&gt;Node29 -->
<g id="edge30_Node000001_Node000029" class="edge">
<title>Node1&#45;&gt;Node29</title>
<g id="a_edge30_Node000001_Node000029"><a xlink:title=" ">
<path fill="none" stroke="#63b8ff" d="M505.6,-507.86C500.02,-461.54 479.33,-344.95 409,-286.5 395.36,-275.16 376.42,-270.38 359.69,-268.55"/>
<polygon fill="#63b8ff" stroke="#63b8ff" points="502.12,-508.26 506.69,-517.82 509.08,-507.5 502.12,-508.26"/>
</a>
</g>
</g>
<!-- Node30 -->
<g id="Node000030" class="node">
<title>Node30</title>
<g id="a_Node000030"><a xlink:href="ade7816_2src_2platform_2maxim_2main_8c.html#ae66f6b31b5ad750f1fe042a706a4e3d4" target="_top" xlink:title=" ">
<polygon fill="white" stroke="#666666" points="341.5,-241 300.5,-241 300.5,-222 341.5,-222 341.5,-241"/>
<text text-anchor="middle" x="321" y="-229" font-family="Helvetica,sans-Serif" font-size="10.00">main</text>
</a>
</g>
</g>
<!-- Node1&#45;&gt;Node30 -->
<g id="edge31_Node000001_Node000030" class="edge">
<title>Node1&#45;&gt;Node30</title>
<g id="a_edge31_Node000001_Node000030"><a xlink:title=" ">
<path fill="none" stroke="#63b8ff" d="M506.79,-507.71C503.82,-456.49 488.47,-318.8 409,-249.5 390.4,-233.28 361.07,-230.3 341.68,-230.35"/>
<polygon fill="#63b8ff" stroke="#63b8ff" points="503.3,-507.95 507.27,-517.78 510.29,-507.62 503.3,-507.95"/>
</a>
</g>
</g>
<!-- Node31 -->
<g id="Node000031" class="node">
<title>Node31</title>
<g id="a_Node000031"><a xlink:href="aducm3029__flash__demo_2src_2main_8c.html#a0ddf1224851353fc92bfbff6f499fa97" target="_top" xlink:title="main">
<polygon fill="white" stroke="#666666" points="341.5,-204 300.5,-204 300.5,-185 341.5,-185 341.5,-204"/>
<text text-anchor="middle" x="321" y="-192" font-family="Helvetica,sans-Serif" font-size="10.00">main</text>
</a>
</g>
</g>
<!-- Node1&#45;&gt;Node31 -->
<g id="edge32_Node000001_Node000031" class="edge">
<title>Node1&#45;&gt;Node31</title>
<g id="a_edge32_Node000001_Node000031"><a xlink:title=" ">
<path fill="none" stroke="#63b8ff" d="M507.73,-507.4C507.22,-451.45 497.62,-292.75 409,-212.5 390.71,-195.93 361.3,-193.04 341.81,-193.21"/>
<polygon fill="#63b8ff" stroke="#63b8ff" points="504.23,-507.71 507.73,-517.71 511.23,-507.72 504.23,-507.71"/>
</a>
</g>
</g>
<!-- Node32 -->
<g id="Node000032" class="node">
<title>Node32</title>
<g id="a_Node000032"><a xlink:href="adalm-lsmspg_2src_2platform_2maxim_2main_8c.html#a840291bc02cba5474a4cb46a9b9566fe" target="_top" xlink:title=" ">
<polygon fill="white" stroke="#666666" points="341.5,-167 300.5,-167 300.5,-148 341.5,-148 341.5,-167"/>
<text text-anchor="middle" x="321" y="-155" font-family="Helvetica,sans-Serif" font-size="10.00">main</text>
</a>
</g>
</g>
<!-- Node1&#45;&gt;Node32 -->
<g id="edge33_Node000001_Node000032" class="edge">
<title>Node1&#45;&gt;Node32</title>
<g id="a_edge33_Node000001_Node000032"><a xlink:title=" ">
<path fill="none" stroke="#63b8ff" d="M504.71,-507.83C494.78,-440.72 459.1,-222.27 409,-175.5 390.85,-158.56 361.12,-155.8 341.55,-156.1"/>
<polygon fill="#63b8ff" stroke="#63b8ff" points="501.27,-508.51 506.17,-517.9 508.2,-507.5 501.27,-508.51"/>
</a>
</g>
</g>
<!-- Node33 -->
<g id="Node000033" class="node">
<title>Node33</title>
<g id="a_Node000033"><a xlink:href="stm32__dma_8c.html#a9a2bedfbb3463411630b83a164f4e782" target="_top" xlink:title="Free the resources allocated for a DMA descriptor.">
<polygon fill="white" stroke="#666666" points="379.5,-130 262.5,-130 262.5,-111 379.5,-111 379.5,-130"/>
<text text-anchor="middle" x="321" y="-118" font-family="Helvetica,sans-Serif" font-size="10.00">stm32_dma_remove</text>
</a>
</g>
</g>
<!-- Node1&#45;&gt;Node33 -->
<g id="edge34_Node000001_Node000033" class="edge">
<title>Node1&#45;&gt;Node33</title>
<g id="a_edge34_Node000001_Node000033"><a xlink:title=" ">
<path fill="none" stroke="#63b8ff" d="M505.24,-507.67C496.68,-435.88 463.83,-190.97 409,-138.5 400.98,-130.82 390.58,-126.04 379.79,-123.13"/>
<polygon fill="#63b8ff" stroke="#63b8ff" points="501.81,-508.47 506.45,-517.99 508.77,-507.65 501.81,-508.47"/>
</a>
</g>
</g>
<!-- Node34 -->
<g id="Node000034" class="node">
<title>Node34</title>
<g id="a_Node000034"><a xlink:href="stm32__gpdma_8c.html#a874639e0d34fe726adb68d80667e0bdc" target="_top" xlink:title="Free the resources allocated for a General Purpose DMA descriptor.">
<polygon fill="white" stroke="#666666" points="385.5,-93 256.5,-93 256.5,-74 385.5,-74 385.5,-93"/>
<text text-anchor="middle" x="321" y="-81" font-family="Helvetica,sans-Serif" font-size="10.00">stm32_gpdma_remove</text>
</a>
</g>
</g>
<!-- Node1&#45;&gt;Node34 -->
<g id="edge35_Node000001_Node000034" class="edge">
<title>Node1&#45;&gt;Node34</title>
<g id="a_edge35_Node000001_Node000034"><a xlink:title=" ">
<path fill="none" stroke="#63b8ff" d="M505.72,-507.77C498.47,-431.83 468.65,-159.78 409,-101.5 402.49,-95.14 394.36,-90.76 385.7,-87.77"/>
<polygon fill="#63b8ff" stroke="#63b8ff" points="502.25,-508.23 506.66,-517.86 509.22,-507.58 502.25,-508.23"/>
</a>
</g>
</g>
<!-- Node35 -->
<g id="Node000035" class="node">
<title>Node35</title>
<g id="a_Node000035"><a xlink:href="stm32__pwm_8c.html#a5ff7d5e9da25abfc072d54a07144b3f5" target="_top" xlink:title="Free the resources allocated by stm32_pwm_init()">
<polygon fill="white" stroke="#666666" points="380.5,-56 261.5,-56 261.5,-37 380.5,-37 380.5,-56"/>
<text text-anchor="middle" x="321" y="-44" font-family="Helvetica,sans-Serif" font-size="10.00">stm32_pwm_remove</text>
</a>
</g>
</g>
<!-- Node1&#45;&gt;Node35 -->
<g id="edge36_Node000001_Node000035" class="edge">
<title>Node1&#45;&gt;Node35</title>
<g id="a_edge36_Node000001_Node000035"><a xlink:title=" ">
<path fill="none" stroke="#63b8ff" d="M506.1,-507.63C500.04,-427.4 473.43,-128.57 409,-64.5 401.34,-56.89 391.37,-52.09 380.92,-49.14"/>
<polygon fill="#63b8ff" stroke="#63b8ff" points="502.63,-508.11 506.85,-517.83 509.61,-507.6 502.63,-508.11"/>
</a>
</g>
</g>
<!-- Node36 -->
<g id="Node000036" class="node">
<title>Node36</title>
<g id="a_Node000036"><a xlink:href="stm32__tdm_8c.html#a68839fe48740f03fb9bf4f46215adbf1" target="_top" xlink:title="Free the resources allocated by stm32_tdm_init().">
<polygon fill="white" stroke="#666666" points="378.5,-19 263.5,-19 263.5,0 378.5,0 378.5,-19"/>
<text text-anchor="middle" x="321" y="-7" font-family="Helvetica,sans-Serif" font-size="10.00">stm32_tdm_remove</text>
</a>
</g>
</g>
<!-- Node1&#45;&gt;Node36 -->
<g id="edge37_Node000001_Node000036" class="edge">
<title>Node1&#45;&gt;Node36</title>
<g id="a_edge37_Node000001_Node000036"><a xlink:title=" ">
<path fill="none" stroke="#63b8ff" d="M506.44,-507.68C501.54,-423.6 478.28,-97.44 409,-27.5 400.86,-19.28 390.02,-14.33 378.76,-11.45"/>
<polygon fill="#63b8ff" stroke="#63b8ff" points="502.96,-508.1 507.01,-517.89 509.95,-507.71 502.96,-508.1"/>
</a>
</g>
</g>
<!-- Node37 -->
<g id="Node000037" class="node">
<title>Node37</title>
<g id="a_Node000037"><a xlink:href="supply_8c.html#a4a47d1b835fa05b58961e7215c9feafb" target="_top" xlink:title="Initialize supply component.">
<polygon fill="white" stroke="#666666" points="356,-574 286,-574 286,-555 356,-555 356,-574"/>
<text text-anchor="middle" x="321" y="-562" font-family="Helvetica,sans-Serif" font-size="10.00">supply_init</text>
</a>
</g>
</g>
<!-- Node1&#45;&gt;Node37 -->
<g id="edge38_Node000001_Node000037" class="edge">
<title>Node1&#45;&gt;Node37</title>
<g id="a_edge38_Node000001_Node000037"><a xlink:title=" ">
<path fill="none" stroke="#63b8ff" d="M449.58,-539.05C418.89,-545.17 382.26,-552.48 356.14,-557.69"/>
<polygon fill="#63b8ff" stroke="#63b8ff" points="450.61,-542.42 459.73,-537.03 449.24,-535.55 450.61,-542.42"/>
</a>
</g>
</g>
<!-- Node11 -->
<g id="Node000011" class="node">
<title>Node11</title>
<g id="a_Node000011"><a xlink:href="ad7091r8-sdz_2src_2platform_2maxim_2main_8c.html#ae66f6b31b5ad750f1fe042a706a4e3d4" target="_top" xlink:title="Main function execution for Maxim platform.">
<polygon fill="white" stroke="#666666" points="157.5,-759 116.5,-759 116.5,-740 157.5,-740 157.5,-759"/>
<text text-anchor="middle" x="137" y="-747" font-family="Helvetica,sans-Serif" font-size="10.00">main</text>
</a>
</g>
</g>
<!-- Node10&#45;&gt;Node11 -->
<g id="edge10_Node000010_Node000011" class="edge">
<title>Node10&#45;&gt;Node11</title>
<g id="a_edge10_Node000010_Node000011"><a xlink:title=" ">
<path fill="none" stroke="#63b8ff" d="M222.77,-749.5C198.06,-749.5 173.96,-749.5 157.82,-749.5"/>
<polygon fill="#63b8ff" stroke="#63b8ff" points="223,-753 233,-749.5 223,-746 223,-753"/>
</a>
</g>
</g>
<!-- Node13 -->
<g id="Node000013" class="node">
<title>Node13</title>
<g id="a_Node000013"><a xlink:href="eval-adis1646x_2src_2platform_2maxim_2main_8c.html#ae66f6b31b5ad750f1fe042a706a4e3d4" target="_top" xlink:title="Main function execution for Maxim platform.">
<polygon fill="white" stroke="#666666" points="157.5,-722 116.5,-722 116.5,-703 157.5,-703 157.5,-722"/>
<text text-anchor="middle" x="137" y="-710" font-family="Helvetica,sans-Serif" font-size="10.00">main</text>
</a>
</g>
</g>
<!-- Node12&#45;&gt;Node13 -->
<g id="edge12_Node000012_Node000013" class="edge">
<title>Node12&#45;&gt;Node13</title>
<g id="a_edge12_Node000012_Node000013"><a xlink:title=" ">
<path fill="none" stroke="#63b8ff" d="M238.73,-712.5C208.68,-712.5 177.2,-712.5 157.59,-712.5"/>
<polygon fill="#63b8ff" stroke="#63b8ff" points="238.85,-716 248.85,-712.5 238.85,-709 238.85,-716"/>
</a>
</g>
</g>
<!-- Node15 -->
<g id="Node000015" class="node">
<title>Node15</title>
<g id="a_Node000015"><a xlink:href="demo__esp_2src_2examples_2basic_2basic__example_8c.html#a72943dc9011d36293cb05ca5d7cb6899" target="_top" xlink:title="Basic example main execution.">
<polygon fill="white" stroke="#666666" points="197,-685 77,-685 77,-666 197,-666 197,-685"/>
<text text-anchor="middle" x="137" y="-673" font-family="Helvetica,sans-Serif" font-size="10.00">basic_example_main</text>
</a>
</g>
</g>
<!-- Node14&#45;&gt;Node15 -->
<g id="edge14_Node000014_Node000015" class="edge">
<title>Node14&#45;&gt;Node15</title>
<g id="a_edge14_Node000014_Node000015"><a xlink:title=" ">
<path fill="none" stroke="#63b8ff" d="M249.8,-675.5C232.4,-675.5 213.92,-675.5 197.1,-675.5"/>
<polygon fill="#63b8ff" stroke="#63b8ff" points="249.9,-679 259.9,-675.5 249.9,-672 249.9,-679"/>
</a>
</g>
</g>
<!-- Node17 -->
<g id="Node000017" class="node">
<title>Node17</title>
<g id="a_Node000017"><a xlink:href="eval-ade7913_2src_2main_8c.html#a840291bc02cba5474a4cb46a9b9566fe" target="_top" xlink:title=" ">
<polygon fill="white" stroke="#666666" points="157.5,-648 116.5,-648 116.5,-629 157.5,-629 157.5,-648"/>
<text text-anchor="middle" x="137" y="-636" font-family="Helvetica,sans-Serif" font-size="10.00">main</text>
</a>
</g>
</g>
<!-- Node16&#45;&gt;Node17 -->
<g id="edge16_Node000016_Node000017" class="edge">
<title>Node16&#45;&gt;Node17</title>
<g id="a_edge16_Node000016_Node000017"><a xlink:title=" ">
<path fill="none" stroke="#63b8ff" d="M281.8,-638.5C243.88,-638.5 187.27,-638.5 157.66,-638.5"/>
<polygon fill="#63b8ff" stroke="#63b8ff" points="281.96,-642 291.96,-638.5 281.96,-635 281.96,-642"/>
</a>
</g>
</g>
<!-- Node20&#45;&gt;Node17 -->
<g id="edge20_Node000020_Node000017" class="edge">
<title>Node20&#45;&gt;Node17</title>
<g id="a_edge20_Node000020_Node000017"><a xlink:title=" ">
<path fill="none" stroke="#63b8ff" d="M280.58,-609.51C242.66,-617.22 186.92,-628.55 157.63,-634.51"/>
<polygon fill="#63b8ff" stroke="#63b8ff" points="281.66,-612.87 290.76,-607.44 280.26,-606.01 281.66,-612.87"/>
</a>
</g>
</g>
<!-- Node21 -->
<g id="Node000021" class="node">
<title>Node21</title>
<g id="a_Node000021"><a xlink:href="state__machine_8c.html#a92bc605df80f651e105fe804f43d615b" target="_top" xlink:title="State machine main execution.">
<polygon fill="white" stroke="#666666" points="181.5,-593 92.5,-593 92.5,-574 181.5,-574 181.5,-593"/>
<text text-anchor="middle" x="137" y="-581" font-family="Helvetica,sans-Serif" font-size="10.00">state_machine</text>
</a>
</g>
</g>
<!-- Node20&#45;&gt;Node21 -->
<g id="edge21_Node000020_Node000021" class="edge">
<title>Node20&#45;&gt;Node21</title>
<g id="a_edge21_Node000020_Node000021"><a xlink:title=" ">
<path fill="none" stroke="#63b8ff" d="M280.55,-597.6C251.45,-594.72 211.85,-590.8 181.78,-587.83"/>
<polygon fill="#63b8ff" stroke="#63b8ff" points="280.46,-601.11 290.76,-598.61 281.15,-594.14 280.46,-601.11"/>
</a>
</g>
</g>
<!-- Node22 -->
<g id="Node000022" class="node">
<title>Node22</title>
<g id="a_Node000022"><a xlink:href="ad-acevsecrdset-sl_2src_2main_8c.html#ae66f6b31b5ad750f1fe042a706a4e3d4" target="_top" xlink:title="Main function execution for Maxim platform.">
<polygon fill="white" stroke="#666666" points="41,-593 0,-593 0,-574 41,-574 41,-593"/>
<text text-anchor="middle" x="20.5" y="-581" font-family="Helvetica,sans-Serif" font-size="10.00">main</text>
</a>
</g>
</g>
<!-- Node21&#45;&gt;Node22 -->
<g id="edge22_Node000021_Node000022" class="edge">
<title>Node21&#45;&gt;Node22</title>
<g id="a_edge22_Node000021_Node000022"><a xlink:title=" ">
<path fill="none" stroke="#63b8ff" d="M82.29,-583.5C67.55,-583.5 52.51,-583.5 41.07,-583.5"/>
<polygon fill="#63b8ff" stroke="#63b8ff" points="82.39,-587 92.39,-583.5 82.39,-580 82.39,-587"/>
</a>
</g>
</g>
<!-- Node24 -->
<g id="Node000024" class="node">
<title>Node24</title>
<g id="a_Node000024"><a xlink:href="eval-ade7753_2src_2main_8c.html#a840291bc02cba5474a4cb46a9b9566fe" target="_top" xlink:title=" ">
<polygon fill="white" stroke="#666666" points="157.5,-445 116.5,-445 116.5,-426 157.5,-426 157.5,-445"/>
<text text-anchor="middle" x="137" y="-433" font-family="Helvetica,sans-Serif" font-size="10.00">main</text>
</a>
</g>
</g>
<!-- Node23&#45;&gt;Node24 -->
<g id="edge24_Node000023_Node000024" class="edge">
<title>Node23&#45;&gt;Node24</title>
<g id="a_edge24_Node000023_Node000024"><a xlink:title=" ">
<path fill="none" stroke="#63b8ff" d="M271.68,-448.72C234.36,-445.03 184.66,-440.11 157.6,-437.44"/>
<polygon fill="#63b8ff" stroke="#63b8ff" points="271.55,-452.23 281.85,-449.73 272.24,-445.26 271.55,-452.23"/>
</a>
</g>
</g>
<!-- Node28&#45;&gt;Node24 -->
<g id="edge29_Node000028_Node000024" class="edge">
<title>Node28&#45;&gt;Node24</title>
<g id="a_edge29_Node000028_Node000024"><a xlink:title=" ">
<path fill="none" stroke="#63b8ff" d="M272.13,-421.5C234.8,-425.39 184.89,-430.6 157.7,-433.44"/>
<polygon fill="#63b8ff" stroke="#63b8ff" points="272.71,-424.96 282.29,-420.44 271.98,-417.99 272.71,-424.96"/>
</a>
</g>
</g>
<!-- Node37&#45;&gt;Node21 -->
<g id="edge39_Node000037_Node000021" class="edge">
<title>Node37&#45;&gt;Node21</title>
<g id="a_edge39_Node000037_Node000021"><a xlink:title=" ">
<path fill="none" stroke="#63b8ff" d="M275.66,-569.13C247.11,-572.11 210.17,-575.97 181.74,-578.93"/>
<polygon fill="#63b8ff" stroke="#63b8ff" points="276.18,-572.59 285.77,-568.07 275.46,-565.63 276.18,-572.59"/>
</a>
</g>
</g>
</g>
</svg>

<g id="navigator" transform="translate(0 0)" fill="#404254">
  <rect fill="#f2f5e9" fill-opacity="0.5" stroke="#606060" stroke-width=".5" x="0" y="0" width="60" height="60"/>
  <use id="zoomplus" xlink:href="#zoomPlus" x="17" y="9" onmousedown="handleZoom(evt,'in')"/>
  <use id="zoomminus" xlink:href="#zoomMin" x="42" y="9" onmousedown="handleZoom(evt,'out')"/>
  <use id="reset" xlink:href="#resetDef" x="30" y="36" onmousedown="handleReset()"/>
   <use id="arrowup" xlink:href="#arrowUp" x="0" y="0" onmousedown="handlePan(0,-1)"/>
  <use id="arrowright" xlink:href="#arrowRight" x="0" y="0" onmousedown="handlePan(1,0)"/>
  <use id="arrowdown" xlink:href="#arrowDown" x="0" y="0" onmousedown="handlePan(0,1)"/>
  <use id="arrowleft" xlink:href="#arrowLeft" x="0" y="0" onmousedown="handlePan(-1,0)"/>
</g>
<svg viewBox="0 0 15 15" width="100%" height="30px" preserveAspectRatio="xMaxYMin meet">
 <g id="arrow_out" transform="scale(0.3 0.3)">
  <a xlink:href="no__os__irq_8h_acbdb94fc236af3d21499a319602a229d_icgraph_org.svg" target="_base">
   <rect id="button" ry="5" rx="5" y="6" x="6" height="38" width="38"
        fill="#f2f5e9" fill-opacity="0.5" stroke="#606060" stroke-width="1.0"/>
   <path id="arrow"
     d="M 11.500037,31.436501 C 11.940474,20.09759 22.043105,11.32322 32.158766,21.979434 L 37.068811,17.246167 C 37.068811,17.246167 37.088388,32 37.088388,32 L 22.160133,31.978069 C 22.160133,31.978069 26.997745,27.140456 26.997745,27.140456 C 18.528582,18.264221 13.291696,25.230495 11.500037,31.436501 z"
     style="fill:#404040;"/>
  </a>
 </g>
</svg>

<style type='text/css'>
<![CDATA[
[data-mouse-over-selected='false'] { opacity: 0.7; }
[data-mouse-over-selected='true']  { opacity: 1.0; }
]]>
</style>
<script type="application/ecmascript"><![CDATA[
document.addEventListener('DOMContentLoaded', (event) => {
  highlightEdges();
  highlightAdjacentNodes();
});
]]></script>
</svg>
