<?xml version="1.0" encoding="UTF-8" standalone="no"?>
<!DOCTYPE svg PUBLIC "-//W3C//DTD SVG 1.1//EN"
 "http://www.w3.org/Graphics/SVG/1.1/DTD/svg11.dtd">
<!-- Generated by graphviz version 2.43.0 (0)
 -->
<!-- Title: /home/runner/work/no&#45;OS/no&#45;OS/include/no_os_axi_io.h Pages: 1 -->
<!--zoomable 137 -->

<svg id="main" version="1.1" xmlns="http://www.w3.org/2000/svg" xmlns:xlink="http://www.w3.org/1999/xlink" xml:space="preserve" onload="init(evt)">

<style type="text/css"><![CDATA[
.node, .edge {opacity: 0.7;}
.node.selected, .edge.selected {opacity: 1;}
.edge:hover path { stroke: red; }
.edge:hover polygon { stroke: red; fill: red; }
]]></style>

<defs>
  <circle id="rim" cx="0" cy="0" r="7"/>
  <circle id="rim2" cx="0" cy="0" r="3.5"/>
  <g id="zoomPlus">
    <use xlink:href="#rim" fill="#404040"><set attributeName="fill" to="#808080" begin="zoomplus.mouseover" end="zoomplus.mouseout"/></use>
    <path d="M-4,0h8M0,-4v8" fill="none" stroke="white" stroke-width="1.5" pointer-events="none"/>
  </g>
  <g id="zoomMin">
    <use xlink:href="#rim" fill="#404040"><set attributeName="fill" to="#808080" begin="zoomminus.mouseover" end="zoomminus.mouseout"/></use>
    <path d="M-4,0h8" fill="none" stroke="white" stroke-width="1.5" pointer-events="none"/>
  </g>
  <g id="arrowUp" transform="translate(30 24)">
    <use xlink:href="#rim"/>
    <path pointer-events="none" fill="none" stroke="white" stroke-width="1.5" d="M0,-3.0v7 M-2.5,-0.5L0,-3.0L2.5,-0.5"/>
  </g>
  <g id="arrowRight" transform="rotate(90) translate(36 -43)">
    <use xlink:href="#rim"/>
    <path pointer-events="none" fill="none" stroke="white" stroke-width="1.5" d="M0,-3.0v7 M-2.5,-0.5L0,-3.0L2.5,-0.5"/>
  </g>
  <g id="arrowDown" transform="rotate(180) translate(-30 -48)">
    <use xlink:href="#rim"/>
    <path pointer-events="none" fill="none" stroke="white" stroke-width="1.5" d="M0,-3.0v7 M-2.5,-0.5L0,-3.0L2.5,-0.5"/>
  </g>
  <g id="arrowLeft" transform="rotate(270) translate(-36 17)">
    <use xlink:href="#rim"/>
    <path pointer-events="none" fill="none" stroke="white" stroke-width="1.5" d="M0,-3.0v7 M-2.5,-0.5L0,-3.0L2.5,-0.5"/>
  </g>
  <g id="resetDef">
    <use xlink:href="#rim2" fill="#404040"><set attributeName="fill" to="#808080" begin="reset.mouseover" end="reset.mouseout"/></use>
  </g>
</defs>
<script type="application/ecmascript">
var viewWidth = 2340;
var viewHeight = 137;
var sectionId = 'dynsection-1';
</script>
<script type="application/ecmascript" xlink:href="svg.min.js"/>
<svg id="graph" class="graph">
<g id="viewport">
<title>/home/runner/work/no&#45;OS/no&#45;OS/include/no_os_axi_io.h</title>
<!-- Node1 -->
<g id="Node000001" class="node">
<title>Node1</title>
<g id="a_Node000001"><a xlink:title="Header file of AXI IO.">
<polygon fill="#999999" stroke="#666666" points="1189,-129 1065,-129 1065,-88 1189,-88 1189,-129"/>
<text text-anchor="start" x="1073" y="-117" font-family="Helvetica,sans-Serif" font-size="10.00">/home/runner/work/no</text>
<text text-anchor="start" x="1073" y="-106" font-family="Helvetica,sans-Serif" font-size="10.00">&#45;OS/no&#45;OS/include/no</text>
<text text-anchor="middle" x="1127" y="-95" font-family="Helvetica,sans-Serif" font-size="10.00">_os_axi_io.h</text>
</a>
</g>
</g>
<!-- Node2 -->
<g id="Node000002" class="node">
<title>Node2</title>
<g id="a_Node000002"><a xlink:href="axi__adc__core_8c.html" target="_top" xlink:title="Driver for the Analog Devices AXI&#45;ADC&#45;CORE module.">
<polygon fill="white" stroke="#666666" points="128,-52 0,-52 0,0 128,0 128,-52"/>
<text text-anchor="start" x="8" y="-40" font-family="Helvetica,sans-Serif" font-size="10.00">/home/runner/work/no</text>
<text text-anchor="start" x="8" y="-29" font-family="Helvetica,sans-Serif" font-size="10.00">&#45;OS/no&#45;OS/drivers/axi</text>
<text text-anchor="start" x="8" y="-18" font-family="Helvetica,sans-Serif" font-size="10.00">_core/axi_adc_core/axi</text>
<text text-anchor="middle" x="64" y="-7" font-family="Helvetica,sans-Serif" font-size="10.00">_adc_core.c</text>
</a>
</g>
</g>
<!-- Node1&#45;&gt;Node2 -->
<g id="edge1_Node000001_Node000002" class="edge">
<title>Node1&#45;&gt;Node2</title>
<g id="a_edge1_Node000001_Node000002"><a xlink:title=" ">
<path fill="none" stroke="#63b8ff" d="M1054.6,-106.01C857.23,-101.54 312.83,-86.36 137,-52 134.11,-51.43 131.17,-50.78 128.23,-50.06"/>
<polygon fill="#63b8ff" stroke="#63b8ff" points="1054.78,-109.51 1064.86,-106.24 1054.94,-102.52 1054.78,-109.51"/>
</a>
</g>
</g>
<!-- Node3 -->
<g id="Node000003" class="node">
<title>Node3</title>
<g id="a_Node000003"><a xlink:href="axi__dac__core_8c.html" target="_top" xlink:title="Driver for the Analog Devices AXI&#45;DAC&#45;CORE module.">
<polygon fill="white" stroke="#666666" points="274,-52 146,-52 146,0 274,0 274,-52"/>
<text text-anchor="start" x="154" y="-40" font-family="Helvetica,sans-Serif" font-size="10.00">/home/runner/work/no</text>
<text text-anchor="start" x="154" y="-29" font-family="Helvetica,sans-Serif" font-size="10.00">&#45;OS/no&#45;OS/drivers/axi</text>
<text text-anchor="start" x="154" y="-18" font-family="Helvetica,sans-Serif" font-size="10.00">_core/axi_dac_core/axi</text>
<text text-anchor="middle" x="210" y="-7" font-family="Helvetica,sans-Serif" font-size="10.00">_dac_core.c</text>
</a>
</g>
</g>
<!-- Node1&#45;&gt;Node3 -->
<g id="edge2_Node000001_Node000003" class="edge">
<title>Node1&#45;&gt;Node3</title>
<g id="a_edge2_Node000001_Node000003"><a xlink:title=" ">
<path fill="none" stroke="#63b8ff" d="M1054.69,-105.2C878.34,-99.19 429.82,-81.43 283,-52 280.11,-51.42 277.18,-50.76 274.23,-50.03"/>
<polygon fill="#63b8ff" stroke="#63b8ff" points="1054.79,-108.7 1064.9,-105.54 1055.03,-101.71 1054.79,-108.7"/>
</a>
</g>
</g>
<!-- Node4 -->
<g id="Node000004" class="node">
<title>Node4</title>
<g id="a_Node000004"><a xlink:href="axi__dmac_8c.html" target="_top" xlink:title=" ">
<polygon fill="white" stroke="#666666" points="444,-46.5 292,-46.5 292,-5.5 444,-5.5 444,-46.5"/>
<text text-anchor="start" x="300" y="-34.5" font-family="Helvetica,sans-Serif" font-size="10.00">/home/runner/work/no</text>
<text text-anchor="start" x="300" y="-23.5" font-family="Helvetica,sans-Serif" font-size="10.00">&#45;OS/no&#45;OS/drivers/axi</text>
<text text-anchor="middle" x="368" y="-12.5" font-family="Helvetica,sans-Serif" font-size="10.00">_core/axi_dmac/axi_dmac.c</text>
</a>
</g>
</g>
<!-- Node1&#45;&gt;Node4 -->
<g id="edge3_Node000001_Node000004" class="edge">
<title>Node1&#45;&gt;Node4</title>
<g id="a_edge3_Node000001_Node000004"><a xlink:title=" ">
<path fill="none" stroke="#63b8ff" d="M1054.5,-106.36C930.32,-103.34 669.4,-92.3 453,-52 445.14,-50.54 436.96,-48.63 428.92,-46.54"/>
<polygon fill="#63b8ff" stroke="#63b8ff" points="1054.56,-109.86 1064.64,-106.6 1054.73,-102.87 1054.56,-109.86"/>
</a>
</g>
</g>
<!-- Node5 -->
<g id="Node000005" class="node">
<title>Node5</title>
<g id="a_Node000005"><a xlink:href="axi__pwm_8c.html" target="_top" xlink:title=" ">
<polygon fill="white" stroke="#666666" points="626,-46.5 462,-46.5 462,-5.5 626,-5.5 626,-46.5"/>
<text text-anchor="start" x="470" y="-34.5" font-family="Helvetica,sans-Serif" font-size="10.00">/home/runner/work/no</text>
<text text-anchor="start" x="470" y="-23.5" font-family="Helvetica,sans-Serif" font-size="10.00">&#45;OS/no&#45;OS/drivers/axi</text>
<text text-anchor="middle" x="544" y="-12.5" font-family="Helvetica,sans-Serif" font-size="10.00">_core/axi_pwmgen/axi_pwm.c</text>
</a>
</g>
</g>
<!-- Node1&#45;&gt;Node5 -->
<g id="edge4_Node000001_Node000005" class="edge">
<title>Node1&#45;&gt;Node5</title>
<g id="a_edge4_Node000001_Node000005"><a xlink:title=" ">
<path fill="none" stroke="#63b8ff" d="M1054.57,-102.87C958.14,-95.91 782.61,-80.42 635,-52 626.96,-50.45 618.58,-48.55 610.32,-46.5"/>
<polygon fill="#63b8ff" stroke="#63b8ff" points="1054.56,-106.38 1064.79,-103.6 1055.06,-99.4 1054.56,-106.38"/>
</a>
</g>
</g>
<!-- Node6 -->
<g id="Node000006" class="node">
<title>Node6</title>
<g id="a_Node000006"><a xlink:href="axi__sysid_8c.html" target="_top" xlink:title=" ">
<polygon fill="white" stroke="#666666" points="793.5,-46.5 644.5,-46.5 644.5,-5.5 793.5,-5.5 793.5,-46.5"/>
<text text-anchor="start" x="652.5" y="-34.5" font-family="Helvetica,sans-Serif" font-size="10.00">/home/runner/work/no</text>
<text text-anchor="start" x="652.5" y="-23.5" font-family="Helvetica,sans-Serif" font-size="10.00">&#45;OS/no&#45;OS/drivers/axi</text>
<text text-anchor="middle" x="719" y="-12.5" font-family="Helvetica,sans-Serif" font-size="10.00">_core/axi_sysid/axi_sysid.c</text>
</a>
</g>
</g>
<!-- Node1&#45;&gt;Node6 -->
<g id="edge5_Node000001_Node000006" class="edge">
<title>Node1&#45;&gt;Node6</title>
<g id="a_edge5_Node000001_Node000006"><a xlink:title=" ">
<path fill="none" stroke="#63b8ff" d="M1054.93,-97.8C988.73,-88.27 888.13,-72.24 802,-52 795.11,-50.38 787.96,-48.51 780.87,-46.55"/>
<polygon fill="#63b8ff" stroke="#63b8ff" points="1054.45,-101.27 1064.84,-99.21 1055.44,-94.34 1054.45,-101.27"/>
</a>
</g>
</g>
<!-- Node7 -->
<g id="Node000007" class="node">
<title>Node7</title>
<g id="a_Node000007"><a xlink:href="clk__axi__clkgen_8c.html" target="_top" xlink:title="Driver for the Analog Devices AXI CLKGEN.">
<polygon fill="white" stroke="#666666" points="946.5,-52 811.5,-52 811.5,0 946.5,0 946.5,-52"/>
<text text-anchor="start" x="819.5" y="-40" font-family="Helvetica,sans-Serif" font-size="10.00">/home/runner/work/no</text>
<text text-anchor="start" x="819.5" y="-29" font-family="Helvetica,sans-Serif" font-size="10.00">&#45;OS/no&#45;OS/drivers/axi</text>
<text text-anchor="start" x="819.5" y="-18" font-family="Helvetica,sans-Serif" font-size="10.00">_core/clk_axi_clkgen/clk</text>
<text text-anchor="middle" x="879" y="-7" font-family="Helvetica,sans-Serif" font-size="10.00">_axi_clkgen.c</text>
</a>
</g>
</g>
<!-- Node1&#45;&gt;Node7 -->
<g id="edge6_Node000001_Node000007" class="edge">
<title>Node1&#45;&gt;Node7</title>
<g id="a_edge6_Node000001_Node000007"><a xlink:title=" ">
<path fill="none" stroke="#63b8ff" d="M1057.09,-84.81C1022.49,-73.58 980.91,-60.08 946.63,-48.95"/>
<polygon fill="#63b8ff" stroke="#63b8ff" points="1056.06,-88.15 1066.65,-87.91 1058.22,-81.49 1056.06,-88.15"/>
</a>
</g>
</g>
<!-- Node8 -->
<g id="Node000008" class="node">
<title>Node8</title>
<g id="a_Node000008"><a xlink:href="axi__adxcvr_8c.html" target="_top" xlink:title="Driver for the ADI AXI&#45;ADXCVR Module.">
<polygon fill="white" stroke="#666666" points="1113,-46.5 965,-46.5 965,-5.5 1113,-5.5 1113,-46.5"/>
<text text-anchor="start" x="973" y="-34.5" font-family="Helvetica,sans-Serif" font-size="10.00">/home/runner/work/no</text>
<text text-anchor="start" x="973" y="-23.5" font-family="Helvetica,sans-Serif" font-size="10.00">&#45;OS/no&#45;OS/drivers/axi</text>
<text text-anchor="middle" x="1039" y="-12.5" font-family="Helvetica,sans-Serif" font-size="10.00">_core/jesd204/axi_adxcvr.c</text>
</a>
</g>
</g>
<!-- Node1&#45;&gt;Node8 -->
<g id="edge7_Node000001_Node000008" class="edge">
<title>Node1&#45;&gt;Node8</title>
<g id="a_edge7_Node000001_Node000008"><a xlink:title=" ">
<path fill="none" stroke="#63b8ff" d="M1097.56,-80.57C1085.44,-69.48 1071.65,-56.87 1060.5,-46.67"/>
<polygon fill="#63b8ff" stroke="#63b8ff" points="1095.51,-83.43 1105.25,-87.6 1100.23,-78.27 1095.51,-83.43"/>
</a>
</g>
</g>
<!-- Node9 -->
<g id="Node000009" class="node">
<title>Node9</title>
<g id="a_Node000009"><a xlink:href="axi__jesd204__rx_8c.html" target="_top" xlink:title="Driver for the Analog Devices AXI&#45;JESD204&#45;RX peripheral.">
<polygon fill="white" stroke="#666666" points="1300.5,-46.5 1131.5,-46.5 1131.5,-5.5 1300.5,-5.5 1300.5,-46.5"/>
<text text-anchor="start" x="1139.5" y="-34.5" font-family="Helvetica,sans-Serif" font-size="10.00">/home/runner/work/no</text>
<text text-anchor="start" x="1139.5" y="-23.5" font-family="Helvetica,sans-Serif" font-size="10.00">&#45;OS/no&#45;OS/drivers/axi</text>
<text text-anchor="middle" x="1216" y="-12.5" font-family="Helvetica,sans-Serif" font-size="10.00">_core/jesd204/axi_jesd204_rx.c</text>
</a>
</g>
</g>
<!-- Node1&#45;&gt;Node9 -->
<g id="edge8_Node000001_Node000009" class="edge">
<title>Node1&#45;&gt;Node9</title>
<g id="a_edge8_Node000001_Node000009"><a xlink:title=" ">
<path fill="none" stroke="#63b8ff" d="M1156.42,-80.89C1168.77,-69.72 1182.87,-56.97 1194.25,-46.67"/>
<polygon fill="#63b8ff" stroke="#63b8ff" points="1154.07,-78.3 1149,-87.6 1158.76,-83.49 1154.07,-78.3"/>
</a>
</g>
</g>
<!-- Node10 -->
<g id="Node000010" class="node">
<title>Node10</title>
<g id="a_Node000010"><a xlink:href="axi__jesd204__tx_8c.html" target="_top" xlink:title="Driver for the Analog Devices AXI&#45;JESD204&#45;TX peripheral.">
<polygon fill="white" stroke="#666666" points="1487.5,-46.5 1318.5,-46.5 1318.5,-5.5 1487.5,-5.5 1487.5,-46.5"/>
<text text-anchor="start" x="1326.5" y="-34.5" font-family="Helvetica,sans-Serif" font-size="10.00">/home/runner/work/no</text>
<text text-anchor="start" x="1326.5" y="-23.5" font-family="Helvetica,sans-Serif" font-size="10.00">&#45;OS/no&#45;OS/drivers/axi</text>
<text text-anchor="middle" x="1403" y="-12.5" font-family="Helvetica,sans-Serif" font-size="10.00">_core/jesd204/axi_jesd204_tx.c</text>
</a>
</g>
</g>
<!-- Node1&#45;&gt;Node10 -->
<g id="edge9_Node000001_Node000010" class="edge">
<title>Node1&#45;&gt;Node10</title>
<g id="a_edge9_Node000001_Node000010"><a xlink:title=" ">
<path fill="none" stroke="#63b8ff" d="M1198.98,-86.51C1241.38,-74.14 1294.65,-58.6 1336.12,-46.51"/>
<polygon fill="#63b8ff" stroke="#63b8ff" points="1197.9,-83.17 1189.28,-89.33 1199.86,-89.89 1197.9,-83.17"/>
</a>
</g>
</g>
<!-- Node11 -->
<g id="Node000011" class="node">
<title>Node11</title>
<g id="a_Node000011"><a xlink:href="spi__engine_8c.html" target="_top" xlink:title=" ">
<polygon fill="white" stroke="#666666" points="1668,-46.5 1506,-46.5 1506,-5.5 1668,-5.5 1668,-46.5"/>
<text text-anchor="start" x="1514" y="-34.5" font-family="Helvetica,sans-Serif" font-size="10.00">/home/runner/work/no</text>
<text text-anchor="start" x="1514" y="-23.5" font-family="Helvetica,sans-Serif" font-size="10.00">&#45;OS/no&#45;OS/drivers/axi</text>
<text text-anchor="middle" x="1587" y="-12.5" font-family="Helvetica,sans-Serif" font-size="10.00">_core/spi_engine/spi_engine.c</text>
</a>
</g>
</g>
<!-- Node1&#45;&gt;Node11 -->
<g id="edge10_Node000001_Node000011" class="edge">
<title>Node1&#45;&gt;Node11</title>
<g id="a_edge10_Node000001_Node000011"><a xlink:title=" ">
<path fill="none" stroke="#63b8ff" d="M1199.55,-99.28C1274.49,-90.16 1394.61,-73.81 1497,-52 1504.45,-50.41 1512.21,-48.56 1519.89,-46.61"/>
<polygon fill="#63b8ff" stroke="#63b8ff" points="1198.79,-95.84 1189.28,-100.51 1199.63,-102.79 1198.79,-95.84"/>
</a>
</g>
</g>
<!-- Node12 -->
<g id="Node000012" class="node">
<title>Node12</title>
<g id="a_Node000012"><a xlink:href="altera__axi__io_8c.html" target="_top" xlink:title="Implementation of Altera AXI IO .">
<polygon fill="white" stroke="#666666" points="1834,-46.5 1686,-46.5 1686,-5.5 1834,-5.5 1834,-46.5"/>
<text text-anchor="start" x="1694" y="-34.5" font-family="Helvetica,sans-Serif" font-size="10.00">/home/runner/work/no</text>
<text text-anchor="start" x="1694" y="-23.5" font-family="Helvetica,sans-Serif" font-size="10.00">&#45;OS/no&#45;OS/drivers/platform</text>
<text text-anchor="middle" x="1760" y="-12.5" font-family="Helvetica,sans-Serif" font-size="10.00">/altera/altera_axi_io.c</text>
</a>
</g>
</g>
<!-- Node1&#45;&gt;Node12 -->
<g id="edge11_Node000001_Node000012" class="edge">
<title>Node1&#45;&gt;Node12</title>
<g id="a_edge11_Node000001_Node000012"><a xlink:title=" ">
<path fill="none" stroke="#63b8ff" d="M1199.26,-104.63C1305.03,-99.43 1507.8,-85.69 1677,-52 1684.53,-50.5 1692.35,-48.61 1700.05,-46.54"/>
<polygon fill="#63b8ff" stroke="#63b8ff" points="1198.84,-101.15 1189.02,-105.12 1199.18,-108.14 1198.84,-101.15"/>
</a>
</g>
</g>
<!-- Node13 -->
<g id="Node000013" class="node">
<title>Node13</title>
<g id="a_Node000013"><a xlink:href="linux__axi__io_8c.html" target="_top" xlink:title="Implementation of AXI IO through UIO/devmem.">
<polygon fill="white" stroke="#666666" points="2000,-46.5 1852,-46.5 1852,-5.5 2000,-5.5 2000,-46.5"/>
<text text-anchor="start" x="1860" y="-34.5" font-family="Helvetica,sans-Serif" font-size="10.00">/home/runner/work/no</text>
<text text-anchor="start" x="1860" y="-23.5" font-family="Helvetica,sans-Serif" font-size="10.00">&#45;OS/no&#45;OS/drivers/platform</text>
<text text-anchor="middle" x="1926" y="-12.5" font-family="Helvetica,sans-Serif" font-size="10.00">/linux/linux_axi_io.c</text>
</a>
</g>
</g>
<!-- Node1&#45;&gt;Node13 -->
<g id="edge12_Node000001_Node000013" class="edge">
<title>Node1&#45;&gt;Node13</title>
<g id="a_edge12_Node000001_Node000013"><a xlink:title=" ">
<path fill="none" stroke="#63b8ff" d="M1199.59,-107.01C1329.68,-105 1610.62,-95.48 1843,-52 1850.69,-50.56 1858.68,-48.67 1866.54,-46.58"/>
<polygon fill="#63b8ff" stroke="#63b8ff" points="1199.31,-103.51 1189.36,-107.16 1199.41,-110.51 1199.31,-103.51"/>
</a>
</g>
</g>
<!-- Node14 -->
<g id="Node000014" class="node">
<title>Node14</title>
<g id="a_Node000014"><a xlink:href="xilinx__axi__io_8c.html" target="_top" xlink:title="Implementation of Xilinx AXI IO.">
<polygon fill="white" stroke="#666666" points="2166,-46.5 2018,-46.5 2018,-5.5 2166,-5.5 2166,-46.5"/>
<text text-anchor="start" x="2026" y="-34.5" font-family="Helvetica,sans-Serif" font-size="10.00">/home/runner/work/no</text>
<text text-anchor="start" x="2026" y="-23.5" font-family="Helvetica,sans-Serif" font-size="10.00">&#45;OS/no&#45;OS/drivers/platform</text>
<text text-anchor="middle" x="2092" y="-12.5" font-family="Helvetica,sans-Serif" font-size="10.00">/xilinx/xilinx_axi_io.c</text>
</a>
</g>
</g>
<!-- Node1&#45;&gt;Node14 -->
<g id="edge13_Node000001_Node000014" class="edge">
<title>Node1&#45;&gt;Node14</title>
<g id="a_edge13_Node000001_Node000014"><a xlink:title=" ">
<path fill="none" stroke="#63b8ff" d="M1199.26,-105.09C1381.09,-98.69 1854.11,-79.82 2009,-52 2016.85,-50.59 2025.01,-48.69 2033.01,-46.57"/>
<polygon fill="#63b8ff" stroke="#63b8ff" points="1198.87,-101.6 1189,-105.45 1199.12,-108.6 1198.87,-101.6"/>
</a>
</g>
</g>
<!-- Node15 -->
<g id="Node000015" class="node">
<title>Node15</title>
<g id="a_Node000015"><a xlink:href="ad9467__fmc_8c.html" target="_top" xlink:title="Implementation of the program&#39;s main function.">
<polygon fill="white" stroke="#666666" points="2331.5,-46.5 2184.5,-46.5 2184.5,-5.5 2331.5,-5.5 2331.5,-46.5"/>
<text text-anchor="start" x="2192.5" y="-34.5" font-family="Helvetica,sans-Serif" font-size="10.00">/home/runner/work/no</text>
<text text-anchor="start" x="2192.5" y="-23.5" font-family="Helvetica,sans-Serif" font-size="10.00">&#45;OS/no&#45;OS/projects/ad9467</text>
<text text-anchor="middle" x="2258" y="-12.5" font-family="Helvetica,sans-Serif" font-size="10.00">/src/app/ad9467_fmc.c</text>
</a>
</g>
</g>
<!-- Node1&#45;&gt;Node15 -->
<g id="edge14_Node000001_Node000015" class="edge">
<title>Node1&#45;&gt;Node15</title>
<g id="a_edge14_Node000001_Node000015"><a xlink:title=" ">
<path fill="none" stroke="#63b8ff" d="M1199.31,-105.92C1404.36,-101.1 1986.91,-84.82 2175,-52 2183.01,-50.6 2191.33,-48.68 2199.47,-46.52"/>
<polygon fill="#63b8ff" stroke="#63b8ff" points="1199.16,-102.43 1189.25,-106.16 1199.33,-109.43 1199.16,-102.43"/>
</a>
</g>
</g>
</g>
</svg>

<g id="navigator" transform="translate(0 0)" fill="#404254">
  <rect fill="#f2f5e9" fill-opacity="0.5" stroke="#606060" stroke-width=".5" x="0" y="0" width="60" height="60"/>
  <use id="zoomplus" xlink:href="#zoomPlus" x="17" y="9" onmousedown="handleZoom(evt,'in')"/>
  <use id="zoomminus" xlink:href="#zoomMin" x="42" y="9" onmousedown="handleZoom(evt,'out')"/>
  <use id="reset" xlink:href="#resetDef" x="30" y="36" onmousedown="handleReset()"/>
   <use id="arrowup" xlink:href="#arrowUp" x="0" y="0" onmousedown="handlePan(0,-1)"/>
  <use id="arrowright" xlink:href="#arrowRight" x="0" y="0" onmousedown="handlePan(1,0)"/>
  <use id="arrowdown" xlink:href="#arrowDown" x="0" y="0" onmousedown="handlePan(0,1)"/>
  <use id="arrowleft" xlink:href="#arrowLeft" x="0" y="0" onmousedown="handlePan(-1,0)"/>
</g>
<svg viewBox="0 0 15 15" width="100%" height="30px" preserveAspectRatio="xMaxYMin meet">
 <g id="arrow_out" transform="scale(0.3 0.3)">
  <a xlink:href="no__os__axi__io_8h__dep__incl_org.svg" target="_base">
   <rect id="button" ry="5" rx="5" y="6" x="6" height="38" width="38"
        fill="#f2f5e9" fill-opacity="0.5" stroke="#606060" stroke-width="1.0"/>
   <path id="arrow"
     d="M 11.500037,31.436501 C 11.940474,20.09759 22.043105,11.32322 32.158766,21.979434 L 37.068811,17.246167 C 37.068811,17.246167 37.088388,32 37.088388,32 L 22.160133,31.978069 C 22.160133,31.978069 26.997745,27.140456 26.997745,27.140456 C 18.528582,18.264221 13.291696,25.230495 11.500037,31.436501 z"
     style="fill:#404040;"/>
  </a>
 </g>
</svg>

<style type='text/css'>
<![CDATA[
[data-mouse-over-selected='false'] { opacity: 0.7; }
[data-mouse-over-selected='true']  { opacity: 1.0; }
]]>
</style>
<script type="application/ecmascript"><![CDATA[
document.addEventListener('DOMContentLoaded', (event) => {
  highlightEdges();
  highlightAdjacentNodes();
});
]]></script>
</svg>
