<?xml version="1.0" encoding="UTF-8" standalone="no"?>
<!DOCTYPE svg PUBLIC "-//W3C//DTD SVG 1.1//EN"
 "http://www.w3.org/Graphics/SVG/1.1/DTD/svg11.dtd">
<!-- Generated by graphviz version 2.43.0 (0)
 -->
<!-- Title: /home/runner/work/no&#45;OS/no&#45;OS/include/no_os_i3c.h Pages: 1 -->
<!--zoomable 291 -->

<svg id="main" version="1.1" xmlns="http://www.w3.org/2000/svg" xmlns:xlink="http://www.w3.org/1999/xlink" xml:space="preserve" onload="init(evt)">

<style type="text/css"><![CDATA[
.node, .edge {opacity: 0.7;}
.node.selected, .edge.selected {opacity: 1;}
.edge:hover path { stroke: red; }
.edge:hover polygon { stroke: red; fill: red; }
]]></style>

<defs>
  <circle id="rim" cx="0" cy="0" r="7"/>
  <circle id="rim2" cx="0" cy="0" r="3.5"/>
  <g id="zoomPlus">
    <use xlink:href="#rim" fill="#404040"><set attributeName="fill" to="#808080" begin="zoomplus.mouseover" end="zoomplus.mouseout"/></use>
    <path d="M-4,0h8M0,-4v8" fill="none" stroke="white" stroke-width="1.5" pointer-events="none"/>
  </g>
  <g id="zoomMin">
    <use xlink:href="#rim" fill="#404040"><set attributeName="fill" to="#808080" begin="zoomminus.mouseover" end="zoomminus.mouseout"/></use>
    <path d="M-4,0h8" fill="none" stroke="white" stroke-width="1.5" pointer-events="none"/>
  </g>
  <g id="arrowUp" transform="translate(30 24)">
    <use xlink:href="#rim"/>
    <path pointer-events="none" fill="none" stroke="white" stroke-width="1.5" d="M0,-3.0v7 M-2.5,-0.5L0,-3.0L2.5,-0.5"/>
  </g>
  <g id="arrowRight" transform="rotate(90) translate(36 -43)">
    <use xlink:href="#rim"/>
    <path pointer-events="none" fill="none" stroke="white" stroke-width="1.5" d="M0,-3.0v7 M-2.5,-0.5L0,-3.0L2.5,-0.5"/>
  </g>
  <g id="arrowDown" transform="rotate(180) translate(-30 -48)">
    <use xlink:href="#rim"/>
    <path pointer-events="none" fill="none" stroke="white" stroke-width="1.5" d="M0,-3.0v7 M-2.5,-0.5L0,-3.0L2.5,-0.5"/>
  </g>
  <g id="arrowLeft" transform="rotate(270) translate(-36 17)">
    <use xlink:href="#rim"/>
    <path pointer-events="none" fill="none" stroke="white" stroke-width="1.5" d="M0,-3.0v7 M-2.5,-0.5L0,-3.0L2.5,-0.5"/>
  </g>
  <g id="resetDef">
    <use xlink:href="#rim2" fill="#404040"><set attributeName="fill" to="#808080" begin="reset.mouseover" end="reset.mouseout"/></use>
  </g>
</defs>
<script type="application/ecmascript">
var viewWidth = 1219;
var viewHeight = 291;
var sectionId = 'dynsection-1';
</script>
<script type="application/ecmascript" xlink:href="svg.min.js"/>
<svg id="graph" class="graph">
<g id="viewport">
<title>/home/runner/work/no&#45;OS/no&#45;OS/include/no_os_i3c.h</title>
<!-- Node1 -->
<g id="Node000001" class="node">
<title>Node1</title>
<g id="a_Node000001"><a xlink:title="Header file of I3C Interface.">
<polygon fill="#999999" stroke="#666666" points="1052,-283 928,-283 928,-242 1052,-242 1052,-283"/>
<text text-anchor="start" x="936" y="-271" font-family="Helvetica,sans-Serif" font-size="10.00">/home/runner/work/no</text>
<text text-anchor="start" x="936" y="-260" font-family="Helvetica,sans-Serif" font-size="10.00">&#45;OS/no&#45;OS/include/no</text>
<text text-anchor="middle" x="990" y="-249" font-family="Helvetica,sans-Serif" font-size="10.00">_os_i3c.h</text>
</a>
</g>
</g>
<!-- Node2 -->
<g id="Node000002" class="node">
<title>Node2</title>
<g id="a_Node000002"><a xlink:href="ad405x_8h.html" target="_top" xlink:title="Header file of AD405X Driver.">
<polygon fill="white" stroke="#666666" points="555,-206 431,-206 431,-165 555,-165 555,-206"/>
<text text-anchor="start" x="439" y="-194" font-family="Helvetica,sans-Serif" font-size="10.00">/home/runner/work/no</text>
<text text-anchor="start" x="439" y="-183" font-family="Helvetica,sans-Serif" font-size="10.00">&#45;OS/no&#45;OS/drivers/adc</text>
<text text-anchor="middle" x="493" y="-172" font-family="Helvetica,sans-Serif" font-size="10.00">/ad405x/ad405x.h</text>
</a>
</g>
</g>
<!-- Node1&#45;&gt;Node2 -->
<g id="edge1_Node000001_Node000002" class="edge">
<title>Node1&#45;&gt;Node2</title>
<g id="a_edge1_Node000001_Node000002"><a xlink:title=" ">
<path fill="none" stroke="#63b8ff" d="M917.73,-250.59C820.04,-235.85 647.49,-209.81 555.26,-195.9"/>
<polygon fill="#63b8ff" stroke="#63b8ff" points="917.4,-254.08 927.81,-252.12 918.44,-247.16 917.4,-254.08"/>
</a>
</g>
</g>
<!-- Node10 -->
<g id="Node000010" class="node">
<title>Node10</title>
<g id="a_Node000010"><a xlink:href="no__os__i3c_8c.html" target="_top" xlink:title="Implementation of the I3C Interface.">
<polygon fill="white" stroke="#666666" points="1007,-206 883,-206 883,-165 1007,-165 1007,-206"/>
<text text-anchor="start" x="891" y="-194" font-family="Helvetica,sans-Serif" font-size="10.00">/home/runner/work/no</text>
<text text-anchor="start" x="891" y="-183" font-family="Helvetica,sans-Serif" font-size="10.00">&#45;OS/no&#45;OS/drivers/api</text>
<text text-anchor="middle" x="945" y="-172" font-family="Helvetica,sans-Serif" font-size="10.00">/no_os_i3c.c</text>
</a>
</g>
</g>
<!-- Node1&#45;&gt;Node10 -->
<g id="edge10_Node000001_Node000010" class="edge">
<title>Node1&#45;&gt;Node10</title>
<g id="a_edge10_Node000001_Node000010"><a xlink:title=" ">
<path fill="none" stroke="#63b8ff" d="M972.97,-233.11C967.56,-224.09 961.7,-214.33 956.74,-206.07"/>
<polygon fill="#63b8ff" stroke="#63b8ff" points="970.03,-235.02 978.18,-241.79 976.03,-231.42 970.03,-235.02"/>
</a>
</g>
</g>
<!-- Node11 -->
<g id="Node000011" class="node">
<title>Node11</title>
<g id="a_Node000011"><a xlink:href="stm32__i3c_8c.html" target="_top" xlink:title="Implementation of stm32 I3C driver.">
<polygon fill="white" stroke="#666666" points="1211,-123.5 1063,-123.5 1063,-82.5 1211,-82.5 1211,-123.5"/>
<text text-anchor="start" x="1071" y="-111.5" font-family="Helvetica,sans-Serif" font-size="10.00">/home/runner/work/no</text>
<text text-anchor="start" x="1071" y="-100.5" font-family="Helvetica,sans-Serif" font-size="10.00">&#45;OS/no&#45;OS/drivers/platform</text>
<text text-anchor="middle" x="1137" y="-89.5" font-family="Helvetica,sans-Serif" font-size="10.00">/stm32/stm32_i3c.c</text>
</a>
</g>
</g>
<!-- Node1&#45;&gt;Node11 -->
<g id="edge11_Node000001_Node000011" class="edge">
<title>Node1&#45;&gt;Node11</title>
<g id="a_edge11_Node000001_Node000011"><a xlink:title=" ">
<path fill="none" stroke="#63b8ff" d="M1005.22,-233.15C1016.93,-212.85 1034.4,-185.57 1054,-165 1069.05,-149.21 1088.61,-134.61 1104.96,-123.66"/>
<polygon fill="#63b8ff" stroke="#63b8ff" points="1002.12,-231.51 1000.25,-241.94 1008.22,-234.95 1002.12,-231.51"/>
</a>
</g>
</g>
<!-- Node12 -->
<g id="Node000012" class="node">
<title>Node12</title>
<g id="a_Node000012"><a xlink:href="stm32__i3c_8h.html" target="_top" xlink:title="Header file for the stm32 I3C driver.">
<polygon fill="white" stroke="#666666" points="1211,-206 1063,-206 1063,-165 1211,-165 1211,-206"/>
<text text-anchor="start" x="1071" y="-194" font-family="Helvetica,sans-Serif" font-size="10.00">/home/runner/work/no</text>
<text text-anchor="start" x="1071" y="-183" font-family="Helvetica,sans-Serif" font-size="10.00">&#45;OS/no&#45;OS/drivers/platform</text>
<text text-anchor="middle" x="1137" y="-172" font-family="Helvetica,sans-Serif" font-size="10.00">/stm32/stm32_i3c.h</text>
</a>
</g>
</g>
<!-- Node1&#45;&gt;Node12 -->
<g id="edge12_Node000001_Node000012" class="edge">
<title>Node1&#45;&gt;Node12</title>
<g id="a_edge12_Node000001_Node000012"><a xlink:title=" ">
<path fill="none" stroke="#63b8ff" d="M1037.41,-237.31C1057.23,-227.2 1079.96,-215.6 1098.7,-206.04"/>
<polygon fill="#63b8ff" stroke="#63b8ff" points="1035.56,-234.33 1028.24,-241.99 1038.74,-240.56 1035.56,-234.33"/>
</a>
</g>
</g>
<!-- Node3 -->
<g id="Node000003" class="node">
<title>Node3</title>
<g id="a_Node000003"><a xlink:href="ad405x_8c.html" target="_top" xlink:title="Implementation of AD405X Driver.">
<polygon fill="white" stroke="#666666" points="124,-123.5 0,-123.5 0,-82.5 124,-82.5 124,-123.5"/>
<text text-anchor="start" x="8" y="-111.5" font-family="Helvetica,sans-Serif" font-size="10.00">/home/runner/work/no</text>
<text text-anchor="start" x="8" y="-100.5" font-family="Helvetica,sans-Serif" font-size="10.00">&#45;OS/no&#45;OS/drivers/adc</text>
<text text-anchor="middle" x="62" y="-89.5" font-family="Helvetica,sans-Serif" font-size="10.00">/ad405x/ad405x.c</text>
</a>
</g>
</g>
<!-- Node2&#45;&gt;Node3 -->
<g id="edge2_Node000002_Node000003" class="edge">
<title>Node2&#45;&gt;Node3</title>
<g id="a_edge2_Node000002_Node000003"><a xlink:title=" ">
<path fill="none" stroke="#63b8ff" d="M420.79,-177.36C347.54,-169.18 231.27,-153.65 133,-129 126.79,-127.44 120.35,-125.56 114.01,-123.55"/>
<polygon fill="#63b8ff" stroke="#63b8ff" points="420.51,-180.85 430.84,-178.46 421.28,-173.89 420.51,-180.85"/>
</a>
</g>
</g>
<!-- Node4 -->
<g id="Node000004" class="node">
<title>Node4</title>
<g id="a_Node000004"><a xlink:href="iio__ad405x_8c.html" target="_top" xlink:title=" ">
<polygon fill="white" stroke="#666666" points="266,-123.5 142,-123.5 142,-82.5 266,-82.5 266,-123.5"/>
<text text-anchor="start" x="150" y="-111.5" font-family="Helvetica,sans-Serif" font-size="10.00">/home/runner/work/no</text>
<text text-anchor="start" x="150" y="-100.5" font-family="Helvetica,sans-Serif" font-size="10.00">&#45;OS/no&#45;OS/drivers/adc</text>
<text text-anchor="middle" x="204" y="-89.5" font-family="Helvetica,sans-Serif" font-size="10.00">/ad405x/iio_ad405x.c</text>
</a>
</g>
</g>
<!-- Node2&#45;&gt;Node4 -->
<g id="edge3_Node000002_Node000004" class="edge">
<title>Node2&#45;&gt;Node4</title>
<g id="a_edge3_Node000002_Node000004"><a xlink:title=" ">
<path fill="none" stroke="#63b8ff" d="M421,-166.94C379.59,-156.54 326.66,-142.74 280,-129 274.27,-127.31 268.32,-125.49 262.39,-123.62"/>
<polygon fill="#63b8ff" stroke="#63b8ff" points="420.18,-170.34 430.73,-169.37 421.88,-163.55 420.18,-170.34"/>
</a>
</g>
</g>
<!-- Node5 -->
<g id="Node000005" class="node">
<title>Node5</title>
<g id="a_Node000005"><a xlink:href="ad405x_2src_2common_2common__data_8c.html" target="_top" xlink:title="Defines common data to be used by ad405x examples.">
<polygon fill="white" stroke="#666666" points="428.5,-41 267.5,-41 267.5,0 428.5,0 428.5,-41"/>
<text text-anchor="start" x="275.5" y="-29" font-family="Helvetica,sans-Serif" font-size="10.00">/home/runner/work/no</text>
<text text-anchor="start" x="275.5" y="-18" font-family="Helvetica,sans-Serif" font-size="10.00">&#45;OS/no&#45;OS/projects/ad405x</text>
<text text-anchor="middle" x="348" y="-7" font-family="Helvetica,sans-Serif" font-size="10.00">/src/common/common_data.c</text>
</a>
</g>
</g>
<!-- Node2&#45;&gt;Node5 -->
<g id="edge4_Node000002_Node000005" class="edge">
<title>Node2&#45;&gt;Node5</title>
<g id="a_edge4_Node000002_Node000005"><a xlink:title=" ">
<path fill="none" stroke="#63b8ff" d="M420.44,-181.84C381.93,-176.26 337.6,-162.33 313,-129 293.3,-102.31 314.86,-64.01 331.8,-41.06"/>
<polygon fill="#63b8ff" stroke="#63b8ff" points="420.24,-185.34 430.61,-183.14 421.13,-178.4 420.24,-185.34"/>
</a>
</g>
</g>
<!-- Node6 -->
<g id="Node000006" class="node">
<title>Node6</title>
<g id="a_Node000006"><a xlink:href="ad405x_2src_2common_2common__data_8h.html" target="_top" xlink:title="Defines common data to be used by ad405x examples.">
<polygon fill="white" stroke="#666666" points="483.5,-123.5 322.5,-123.5 322.5,-82.5 483.5,-82.5 483.5,-123.5"/>
<text text-anchor="start" x="330.5" y="-111.5" font-family="Helvetica,sans-Serif" font-size="10.00">/home/runner/work/no</text>
<text text-anchor="start" x="330.5" y="-100.5" font-family="Helvetica,sans-Serif" font-size="10.00">&#45;OS/no&#45;OS/projects/ad405x</text>
<text text-anchor="middle" x="403" y="-89.5" font-family="Helvetica,sans-Serif" font-size="10.00">/src/common/common_data.h</text>
</a>
</g>
</g>
<!-- Node2&#45;&gt;Node6 -->
<g id="edge5_Node000002_Node000006" class="edge">
<title>Node2&#45;&gt;Node6</title>
<g id="a_edge5_Node000002_Node000006"><a xlink:title=" ">
<path fill="none" stroke="#63b8ff" d="M463.25,-157.89C450.76,-146.72 436.5,-133.97 424.99,-123.67"/>
<polygon fill="#63b8ff" stroke="#63b8ff" points="460.97,-160.54 470.75,-164.6 465.63,-155.33 460.97,-160.54"/>
</a>
</g>
</g>
<!-- Node7 -->
<g id="Node000007" class="node">
<title>Node7</title>
<g id="a_Node000007"><a xlink:href="ad405x_2src_2examples_2basic__example_2basic__example_8c.html" target="_top" xlink:title="Basic example for ad405x project.">
<polygon fill="white" stroke="#666666" points="662.5,-129 501.5,-129 501.5,-77 662.5,-77 662.5,-129"/>
<text text-anchor="start" x="509.5" y="-117" font-family="Helvetica,sans-Serif" font-size="10.00">/home/runner/work/no</text>
<text text-anchor="start" x="509.5" y="-106" font-family="Helvetica,sans-Serif" font-size="10.00">&#45;OS/no&#45;OS/projects/ad405x</text>
<text text-anchor="start" x="509.5" y="-95" font-family="Helvetica,sans-Serif" font-size="10.00">/src/examples/basic_example</text>
<text text-anchor="middle" x="582" y="-84" font-family="Helvetica,sans-Serif" font-size="10.00">/basic_example.c</text>
</a>
</g>
</g>
<!-- Node2&#45;&gt;Node7 -->
<g id="edge7_Node000002_Node000007" class="edge">
<title>Node2&#45;&gt;Node7</title>
<g id="a_edge7_Node000002_Node000007"><a xlink:title=" ">
<path fill="none" stroke="#63b8ff" d="M522.53,-157.79C532.73,-148.56 544.13,-138.26 554.19,-129.16"/>
<polygon fill="#63b8ff" stroke="#63b8ff" points="520.07,-155.3 515,-164.6 524.76,-160.49 520.07,-155.3"/>
</a>
</g>
</g>
<!-- Node8 -->
<g id="Node000008" class="node">
<title>Node8</title>
<g id="a_Node000008"><a xlink:href="basic__i3c__example_8c.html" target="_top" xlink:title="Basic example for ad405x project.">
<polygon fill="white" stroke="#666666" points="849.5,-129 680.5,-129 680.5,-77 849.5,-77 849.5,-129"/>
<text text-anchor="start" x="688.5" y="-117" font-family="Helvetica,sans-Serif" font-size="10.00">/home/runner/work/no</text>
<text text-anchor="start" x="688.5" y="-106" font-family="Helvetica,sans-Serif" font-size="10.00">&#45;OS/no&#45;OS/projects/ad405x</text>
<text text-anchor="start" x="688.5" y="-95" font-family="Helvetica,sans-Serif" font-size="10.00">/src/examples/basic_i3c</text>
<text text-anchor="middle" x="765" y="-84" font-family="Helvetica,sans-Serif" font-size="10.00">_example/basic_i3c_example.c</text>
</a>
</g>
</g>
<!-- Node2&#45;&gt;Node8 -->
<g id="edge8_Node000002_Node000008" class="edge">
<title>Node2&#45;&gt;Node8</title>
<g id="a_edge8_Node000002_Node000008"><a xlink:title=" ">
<path fill="none" stroke="#63b8ff" d="M564.86,-163.23C600.37,-152.72 643.45,-139.97 680.53,-129"/>
<polygon fill="#63b8ff" stroke="#63b8ff" points="563.66,-159.94 555.06,-166.13 565.64,-166.65 563.66,-159.94"/>
</a>
</g>
</g>
<!-- Node9 -->
<g id="Node000009" class="node">
<title>Node9</title>
<g id="a_Node000009"><a xlink:href="i3c__dma__example_8c.html" target="_top" xlink:title="Basic example for ad405x project.">
<polygon fill="white" stroke="#666666" points="1044.5,-129 867.5,-129 867.5,-77 1044.5,-77 1044.5,-129"/>
<text text-anchor="start" x="875.5" y="-117" font-family="Helvetica,sans-Serif" font-size="10.00">/home/runner/work/no</text>
<text text-anchor="start" x="875.5" y="-106" font-family="Helvetica,sans-Serif" font-size="10.00">&#45;OS/no&#45;OS/projects/ad405x</text>
<text text-anchor="start" x="875.5" y="-95" font-family="Helvetica,sans-Serif" font-size="10.00">/src/examples/i3c_dma_example</text>
<text text-anchor="middle" x="956" y="-84" font-family="Helvetica,sans-Serif" font-size="10.00">/i3c_dma_example.c</text>
</a>
</g>
</g>
<!-- Node2&#45;&gt;Node9 -->
<g id="edge9_Node000002_Node000009" class="edge">
<title>Node2&#45;&gt;Node9</title>
<g id="a_edge9_Node000002_Node000009"><a xlink:title=" ">
<path fill="none" stroke="#63b8ff" d="M565.13,-175.67C639.03,-166.13 757.06,-149.5 858,-129 861.1,-128.37 864.24,-127.71 867.42,-127.02"/>
<polygon fill="#63b8ff" stroke="#63b8ff" points="564.48,-172.23 555,-176.97 565.37,-179.17 564.48,-172.23"/>
</a>
</g>
</g>
<!-- Node6&#45;&gt;Node5 -->
<g id="edge6_Node000006_Node000005" class="edge">
<title>Node6&#45;&gt;Node5</title>
<g id="a_edge6_Node000006_Node000005"><a xlink:title=" ">
<path fill="none" stroke="#63b8ff" d="M383.73,-73.8C376.37,-63.02 368.14,-50.98 361.44,-41.17"/>
<polygon fill="#63b8ff" stroke="#63b8ff" points="380.87,-75.82 389.4,-82.1 386.65,-71.87 380.87,-75.82"/>
</a>
</g>
</g>
<!-- Node12&#45;&gt;Node11 -->
<g id="edge13_Node000012_Node000011" class="edge">
<title>Node12&#45;&gt;Node11</title>
<g id="a_edge13_Node000012_Node000011"><a xlink:title=" ">
<path fill="none" stroke="#63b8ff" d="M1137,-154.37C1137,-144.1 1137,-132.9 1137,-123.67"/>
<polygon fill="#63b8ff" stroke="#63b8ff" points="1133.5,-154.6 1137,-164.6 1140.5,-154.6 1133.5,-154.6"/>
</a>
</g>
</g>
</g>
</svg>

<g id="navigator" transform="translate(0 0)" fill="#404254">
  <rect fill="#f2f5e9" fill-opacity="0.5" stroke="#606060" stroke-width=".5" x="0" y="0" width="60" height="60"/>
  <use id="zoomplus" xlink:href="#zoomPlus" x="17" y="9" onmousedown="handleZoom(evt,'in')"/>
  <use id="zoomminus" xlink:href="#zoomMin" x="42" y="9" onmousedown="handleZoom(evt,'out')"/>
  <use id="reset" xlink:href="#resetDef" x="30" y="36" onmousedown="handleReset()"/>
   <use id="arrowup" xlink:href="#arrowUp" x="0" y="0" onmousedown="handlePan(0,-1)"/>
  <use id="arrowright" xlink:href="#arrowRight" x="0" y="0" onmousedown="handlePan(1,0)"/>
  <use id="arrowdown" xlink:href="#arrowDown" x="0" y="0" onmousedown="handlePan(0,1)"/>
  <use id="arrowleft" xlink:href="#arrowLeft" x="0" y="0" onmousedown="handlePan(-1,0)"/>
</g>
<svg viewBox="0 0 15 15" width="100%" height="30px" preserveAspectRatio="xMaxYMin meet">
 <g id="arrow_out" transform="scale(0.3 0.3)">
  <a xlink:href="no__os__i3c_8h__dep__incl_org.svg" target="_base">
   <rect id="button" ry="5" rx="5" y="6" x="6" height="38" width="38"
        fill="#f2f5e9" fill-opacity="0.5" stroke="#606060" stroke-width="1.0"/>
   <path id="arrow"
     d="M 11.500037,31.436501 C 11.940474,20.09759 22.043105,11.32322 32.158766,21.979434 L 37.068811,17.246167 C 37.068811,17.246167 37.088388,32 37.088388,32 L 22.160133,31.978069 C 22.160133,31.978069 26.997745,27.140456 26.997745,27.140456 C 18.528582,18.264221 13.291696,25.230495 11.500037,31.436501 z"
     style="fill:#404040;"/>
  </a>
 </g>
</svg>

<style type='text/css'>
<![CDATA[
[data-mouse-over-selected='false'] { opacity: 0.7; }
[data-mouse-over-selected='true']  { opacity: 1.0; }
]]>
</style>
<script type="application/ecmascript"><![CDATA[
document.addEventListener('DOMContentLoaded', (event) => {
  highlightEdges();
  highlightAdjacentNodes();
});
]]></script>
</svg>
