<?xml version="1.0" encoding="UTF-8" standalone="no"?>
<!DOCTYPE svg PUBLIC "-//W3C//DTD SVG 1.1//EN"
 "http://www.w3.org/Graphics/SVG/1.1/DTD/svg11.dtd">
<!-- Generated by graphviz version 2.43.0 (0)
 -->
<!-- Title: /home/runner/work/no&#45;OS/no&#45;OS/include/no_os_crc8.h Pages: 1 -->
<svg width="3935pt" height="291pt"
 viewBox="0.00 0.00 3935.00 291.00" xmlns="http://www.w3.org/2000/svg" xmlns:xlink="http://www.w3.org/1999/xlink">
<g id="graph0" class="graph" transform="scale(1 1) rotate(0) translate(4 287)">
<title>/home/runner/work/no&#45;OS/no&#45;OS/include/no_os_crc8.h</title>
<!-- Node1 -->
<g id="Node000001" class="node">
<title>Node1</title>
<g id="a_Node000001"><a xlink:title="Header file of CRC&#45;8 computation.">
<polygon fill="#999999" stroke="#666666" points="1982.5,-283 1858.5,-283 1858.5,-242 1982.5,-242 1982.5,-283"/>
<text text-anchor="start" x="1866.5" y="-271" font-family="Helvetica,sans-Serif" font-size="10.00">/home/runner/work/no</text>
<text text-anchor="start" x="1866.5" y="-260" font-family="Helvetica,sans-Serif" font-size="10.00">&#45;OS/no&#45;OS/include/no</text>
<text text-anchor="middle" x="1920.5" y="-249" font-family="Helvetica,sans-Serif" font-size="10.00">_os_crc8.h</text>
</a>
</g>
</g>
<!-- Node2 -->
<g id="Node000002" class="node">
<title>Node2</title>
<g id="a_Node000002"><a xlink:href="ad74413r_8c.html" target="_top" xlink:title="Source file of AD74413r Driver.">
<polygon fill="white" stroke="#666666" points="143,-206 0,-206 0,-165 143,-165 143,-206"/>
<text text-anchor="start" x="8" y="-194" font-family="Helvetica,sans-Serif" font-size="10.00">/home/runner/work/no</text>
<text text-anchor="start" x="8" y="-183" font-family="Helvetica,sans-Serif" font-size="10.00">&#45;OS/no&#45;OS/drivers/adc</text>
<text text-anchor="middle" x="71.5" y="-172" font-family="Helvetica,sans-Serif" font-size="10.00">&#45;dac/ad74413r/ad74413r.c</text>
</a>
</g>
</g>
<!-- Node1&#45;&gt;Node2 -->
<g id="edge1_Node000001_Node000002" class="edge">
<title>Node1&#45;&gt;Node2</title>
<g id="a_edge1_Node000001_Node000002"><a xlink:title=" ">
<path fill="none" stroke="#63b8ff" d="M1847.88,-261.2C1558.65,-259.71 488.27,-251.2 152.5,-206 149.49,-205.59 146.43,-205.12 143.34,-204.6"/>
<polygon fill="#63b8ff" stroke="#63b8ff" points="1848.22,-264.7 1858.24,-261.26 1848.25,-257.7 1848.22,-264.7"/>
</a>
</g>
</g>
<!-- Node3 -->
<g id="Node000003" class="node">
<title>Node3</title>
<g id="a_Node000003"><a xlink:href="ad74416h_8c.html" target="_top" xlink:title="Source file of AD74416H Driver.">
<polygon fill="white" stroke="#666666" points="309.5,-206 161.5,-206 161.5,-165 309.5,-165 309.5,-206"/>
<text text-anchor="start" x="169.5" y="-194" font-family="Helvetica,sans-Serif" font-size="10.00">/home/runner/work/no</text>
<text text-anchor="start" x="169.5" y="-183" font-family="Helvetica,sans-Serif" font-size="10.00">&#45;OS/no&#45;OS/drivers/adc</text>
<text text-anchor="middle" x="235.5" y="-172" font-family="Helvetica,sans-Serif" font-size="10.00">&#45;dac/ad74416h/ad74416h.c</text>
</a>
</g>
</g>
<!-- Node1&#45;&gt;Node3 -->
<g id="edge2_Node000001_Node000003" class="edge">
<title>Node1&#45;&gt;Node3</title>
<g id="a_edge2_Node000001_Node000003"><a xlink:title=" ">
<path fill="none" stroke="#63b8ff" d="M1848.01,-260.88C1576.55,-258.25 620.29,-246.28 318.5,-206 315.57,-205.61 312.58,-205.16 309.58,-204.66"/>
<polygon fill="#63b8ff" stroke="#63b8ff" points="1848.1,-264.38 1858.14,-260.97 1848.17,-257.38 1848.1,-264.38"/>
</a>
</g>
</g>
<!-- Node4 -->
<g id="Node000004" class="node">
<title>Node4</title>
<g id="a_Node000004"><a xlink:href="ad4170_8c.html" target="_top" xlink:title="Source file for the AD4170, AD4190 driver.">
<polygon fill="white" stroke="#666666" points="451.5,-206 327.5,-206 327.5,-165 451.5,-165 451.5,-206"/>
<text text-anchor="start" x="335.5" y="-194" font-family="Helvetica,sans-Serif" font-size="10.00">/home/runner/work/no</text>
<text text-anchor="start" x="335.5" y="-183" font-family="Helvetica,sans-Serif" font-size="10.00">&#45;OS/no&#45;OS/drivers/adc</text>
<text text-anchor="middle" x="389.5" y="-172" font-family="Helvetica,sans-Serif" font-size="10.00">/ad4170/ad4170.c</text>
</a>
</g>
</g>
<!-- Node1&#45;&gt;Node4 -->
<g id="edge3_Node000001_Node000004" class="edge">
<title>Node1&#45;&gt;Node4</title>
<g id="a_edge3_Node000001_Node000004"><a xlink:title=" ">
<path fill="none" stroke="#63b8ff" d="M1848.08,-260.95C1592.35,-258.66 732.49,-247.95 460.5,-206 457.59,-205.55 454.64,-205.03 451.66,-204.44"/>
<polygon fill="#63b8ff" stroke="#63b8ff" points="1848.33,-264.45 1858.36,-261.04 1848.4,-257.45 1848.33,-264.45"/>
</a>
</g>
</g>
<!-- Node5 -->
<g id="Node000005" class="node">
<title>Node5</title>
<g id="a_Node000005"><a xlink:href="ad413x_8c.html" target="_top" xlink:title="Implementation of AD413X Driver.">
<polygon fill="white" stroke="#666666" points="593.5,-206 469.5,-206 469.5,-165 593.5,-165 593.5,-206"/>
<text text-anchor="start" x="477.5" y="-194" font-family="Helvetica,sans-Serif" font-size="10.00">/home/runner/work/no</text>
<text text-anchor="start" x="477.5" y="-183" font-family="Helvetica,sans-Serif" font-size="10.00">&#45;OS/no&#45;OS/drivers/afe</text>
<text text-anchor="middle" x="531.5" y="-172" font-family="Helvetica,sans-Serif" font-size="10.00">/ad413x/ad413x.c</text>
</a>
</g>
</g>
<!-- Node1&#45;&gt;Node5 -->
<g id="edge4_Node000001_Node000005" class="edge">
<title>Node1&#45;&gt;Node5</title>
<g id="a_edge4_Node000001_Node000005"><a xlink:title=" ">
<path fill="none" stroke="#63b8ff" d="M1847.98,-260.6C1608.67,-257.3 845.53,-243.99 602.5,-206 599.6,-205.55 596.64,-205.02 593.66,-204.43"/>
<polygon fill="#63b8ff" stroke="#63b8ff" points="1848.26,-264.11 1858.3,-260.74 1848.35,-257.11 1848.26,-264.11"/>
</a>
</g>
</g>
<!-- Node6 -->
<g id="Node000006" class="node">
<title>Node6</title>
<g id="a_Node000006"><a xlink:href="ad3530r_8h.html" target="_top" xlink:title=" ">
<polygon fill="white" stroke="#666666" points="735.5,-206 611.5,-206 611.5,-165 735.5,-165 735.5,-206"/>
<text text-anchor="start" x="619.5" y="-194" font-family="Helvetica,sans-Serif" font-size="10.00">/home/runner/work/no</text>
<text text-anchor="start" x="619.5" y="-183" font-family="Helvetica,sans-Serif" font-size="10.00">&#45;OS/no&#45;OS/drivers/dac</text>
<text text-anchor="middle" x="673.5" y="-172" font-family="Helvetica,sans-Serif" font-size="10.00">/ad3530r/ad3530r.h</text>
</a>
</g>
</g>
<!-- Node1&#45;&gt;Node6 -->
<g id="edge5_Node000001_Node000006" class="edge">
<title>Node1&#45;&gt;Node6</title>
<g id="a_edge5_Node000001_Node000006"><a xlink:title=" ">
<path fill="none" stroke="#63b8ff" d="M1847.99,-260.17C1626.15,-255.79 958.73,-240.04 744.5,-206 741.6,-205.54 738.64,-205 735.67,-204.41"/>
<polygon fill="#63b8ff" stroke="#63b8ff" points="1848.14,-263.68 1858.21,-260.37 1848.28,-256.68 1848.14,-263.68"/>
</a>
</g>
</g>
<!-- Node8 -->
<g id="Node000008" class="node">
<title>Node8</title>
<g id="a_Node000008"><a xlink:href="ad3552r_8h.html" target="_top" xlink:title="Header file of ad3552r Driver.">
<polygon fill="white" stroke="#666666" points="877.5,-206 753.5,-206 753.5,-165 877.5,-165 877.5,-206"/>
<text text-anchor="start" x="761.5" y="-194" font-family="Helvetica,sans-Serif" font-size="10.00">/home/runner/work/no</text>
<text text-anchor="start" x="761.5" y="-183" font-family="Helvetica,sans-Serif" font-size="10.00">&#45;OS/no&#45;OS/drivers/dac</text>
<text text-anchor="middle" x="815.5" y="-172" font-family="Helvetica,sans-Serif" font-size="10.00">/ad3552r/ad3552r.h</text>
</a>
</g>
</g>
<!-- Node1&#45;&gt;Node8 -->
<g id="edge7_Node000001_Node000008" class="edge">
<title>Node1&#45;&gt;Node8</title>
<g id="a_edge7_Node000001_Node000008"><a xlink:title=" ">
<path fill="none" stroke="#63b8ff" d="M1848.18,-259.64C1645.07,-254.08 1072.15,-236.12 886.5,-206 883.6,-205.53 880.64,-204.99 877.67,-204.39"/>
<polygon fill="#63b8ff" stroke="#63b8ff" points="1848.35,-263.14 1858.44,-259.91 1848.54,-256.14 1848.35,-263.14"/>
</a>
</g>
</g>
<!-- Node16 -->
<g id="Node000016" class="node">
<title>Node16</title>
<g id="a_Node000016"><a xlink:href="ad5460_8c.html" target="_top" xlink:title="Source file of AD5460 Driver.">
<polygon fill="white" stroke="#666666" points="1019.5,-206 895.5,-206 895.5,-165 1019.5,-165 1019.5,-206"/>
<text text-anchor="start" x="903.5" y="-194" font-family="Helvetica,sans-Serif" font-size="10.00">/home/runner/work/no</text>
<text text-anchor="start" x="903.5" y="-183" font-family="Helvetica,sans-Serif" font-size="10.00">&#45;OS/no&#45;OS/drivers/dac</text>
<text text-anchor="middle" x="957.5" y="-172" font-family="Helvetica,sans-Serif" font-size="10.00">/ad5460/ad5460.c</text>
</a>
</g>
</g>
<!-- Node1&#45;&gt;Node16 -->
<g id="edge16_Node000001_Node000016" class="edge">
<title>Node1&#45;&gt;Node16</title>
<g id="a_edge16_Node000001_Node000016"><a xlink:title=" ">
<path fill="none" stroke="#63b8ff" d="M1848.19,-262.02C1695.6,-262.02 1329.97,-256.23 1028.5,-206 1025.6,-205.52 1022.65,-204.96 1019.68,-204.36"/>
<polygon fill="#63b8ff" stroke="#63b8ff" points="1848.37,-265.52 1858.36,-262.01 1848.36,-258.52 1848.37,-265.52"/>
</a>
</g>
</g>
<!-- Node17 -->
<g id="Node000017" class="node">
<title>Node17</title>
<g id="a_Node000017"><a xlink:href="ad5706r_8h.html" target="_top" xlink:title="Header file of AD5706R Driver.">
<polygon fill="white" stroke="#666666" points="1161.5,-206 1037.5,-206 1037.5,-165 1161.5,-165 1161.5,-206"/>
<text text-anchor="start" x="1045.5" y="-194" font-family="Helvetica,sans-Serif" font-size="10.00">/home/runner/work/no</text>
<text text-anchor="start" x="1045.5" y="-183" font-family="Helvetica,sans-Serif" font-size="10.00">&#45;OS/no&#45;OS/drivers/dac</text>
<text text-anchor="middle" x="1099.5" y="-172" font-family="Helvetica,sans-Serif" font-size="10.00">/ad5706r/ad5706r.h</text>
</a>
</g>
</g>
<!-- Node1&#45;&gt;Node17 -->
<g id="edge17_Node000001_Node000017" class="edge">
<title>Node1&#45;&gt;Node17</title>
<g id="a_edge17_Node000001_Node000017"><a xlink:title=" ">
<path fill="none" stroke="#63b8ff" d="M1848.09,-260.8C1713.61,-258.47 1416.59,-248.48 1170.5,-206 1167.6,-205.5 1164.65,-204.93 1161.68,-204.31"/>
<polygon fill="#63b8ff" stroke="#63b8ff" points="1848.21,-264.3 1858.27,-260.96 1848.33,-257.3 1848.21,-264.3"/>
</a>
</g>
</g>
<!-- Node19 -->
<g id="Node000019" class="node">
<title>Node19</title>
<g id="a_Node000019"><a xlink:href="ad5710r_8h.html" target="_top" xlink:title="Header file of ad5710r Driver.">
<polygon fill="white" stroke="#666666" points="1303.5,-206 1179.5,-206 1179.5,-165 1303.5,-165 1303.5,-206"/>
<text text-anchor="start" x="1187.5" y="-194" font-family="Helvetica,sans-Serif" font-size="10.00">/home/runner/work/no</text>
<text text-anchor="start" x="1187.5" y="-183" font-family="Helvetica,sans-Serif" font-size="10.00">&#45;OS/no&#45;OS/drivers/dac</text>
<text text-anchor="middle" x="1241.5" y="-172" font-family="Helvetica,sans-Serif" font-size="10.00">/ad5710r/ad5710r.h</text>
</a>
</g>
</g>
<!-- Node1&#45;&gt;Node19 -->
<g id="edge19_Node000001_Node000019" class="edge">
<title>Node1&#45;&gt;Node19</title>
<g id="a_edge19_Node000001_Node000019"><a xlink:title=" ">
<path fill="none" stroke="#63b8ff" d="M1848.26,-259.04C1733.8,-254.22 1504.09,-240.77 1312.5,-206 1309.61,-205.47 1306.66,-204.89 1303.69,-204.25"/>
<polygon fill="#63b8ff" stroke="#63b8ff" points="1848.17,-262.54 1858.3,-259.45 1848.46,-255.55 1848.17,-262.54"/>
</a>
</g>
</g>
<!-- Node21 -->
<g id="Node000021" class="node">
<title>Node21</title>
<g id="a_Node000021"><a xlink:href="max22007_8c.html" target="_top" xlink:title="Source file of MAX22007 Driver.">
<polygon fill="white" stroke="#666666" points="1455.5,-206 1321.5,-206 1321.5,-165 1455.5,-165 1455.5,-206"/>
<text text-anchor="start" x="1329.5" y="-194" font-family="Helvetica,sans-Serif" font-size="10.00">/home/runner/work/no</text>
<text text-anchor="start" x="1329.5" y="-183" font-family="Helvetica,sans-Serif" font-size="10.00">&#45;OS/no&#45;OS/drivers/dac</text>
<text text-anchor="middle" x="1388.5" y="-172" font-family="Helvetica,sans-Serif" font-size="10.00">/max22007/max22007.c</text>
</a>
</g>
</g>
<!-- Node1&#45;&gt;Node21 -->
<g id="edge21_Node000001_Node000021" class="edge">
<title>Node1&#45;&gt;Node21</title>
<g id="a_edge21_Node000001_Node000021"><a xlink:title=" ">
<path fill="none" stroke="#63b8ff" d="M1848.02,-255.61C1757.69,-247.6 1598.83,-231.3 1464.5,-206 1461.55,-205.45 1458.55,-204.84 1455.53,-204.2"/>
<polygon fill="#63b8ff" stroke="#63b8ff" points="1847.88,-259.11 1858.15,-256.5 1848.5,-252.14 1847.88,-259.11"/>
</a>
</g>
</g>
<!-- Node22 -->
<g id="Node000022" class="node">
<title>Node22</title>
<g id="a_Node000022"><a xlink:href="max22017_8c.html" target="_top" xlink:title="Source file of MAX22017 Driver.">
<polygon fill="white" stroke="#666666" points="1607.5,-206 1473.5,-206 1473.5,-165 1607.5,-165 1607.5,-206"/>
<text text-anchor="start" x="1481.5" y="-194" font-family="Helvetica,sans-Serif" font-size="10.00">/home/runner/work/no</text>
<text text-anchor="start" x="1481.5" y="-183" font-family="Helvetica,sans-Serif" font-size="10.00">&#45;OS/no&#45;OS/drivers/dac</text>
<text text-anchor="middle" x="1540.5" y="-172" font-family="Helvetica,sans-Serif" font-size="10.00">/max22017/max22017.c</text>
</a>
</g>
</g>
<!-- Node1&#45;&gt;Node22 -->
<g id="edge22_Node000001_Node000022" class="edge">
<title>Node1&#45;&gt;Node22</title>
<g id="a_edge22_Node000001_Node000022"><a xlink:title=" ">
<path fill="none" stroke="#63b8ff" d="M1848.2,-249.78C1786.43,-239.41 1695.31,-223.28 1616.5,-206 1613.57,-205.36 1610.59,-204.68 1607.58,-203.98"/>
<polygon fill="#63b8ff" stroke="#63b8ff" points="1847.8,-253.26 1858.24,-251.46 1848.95,-246.36 1847.8,-253.26"/>
</a>
</g>
</g>
<!-- Node23 -->
<g id="Node000023" class="node">
<title>Node23</title>
<g id="a_Node000023"><a xlink:href="ade7913_8c.html" target="_top" xlink:title="Implementation of ADE7913 Driver.">
<polygon fill="white" stroke="#666666" points="1761,-206 1626,-206 1626,-165 1761,-165 1761,-206"/>
<text text-anchor="start" x="1634" y="-194" font-family="Helvetica,sans-Serif" font-size="10.00">/home/runner/work/no</text>
<text text-anchor="start" x="1634" y="-183" font-family="Helvetica,sans-Serif" font-size="10.00">&#45;OS/no&#45;OS/drivers/meter</text>
<text text-anchor="middle" x="1693.5" y="-172" font-family="Helvetica,sans-Serif" font-size="10.00">/ade7913/ade7913.c</text>
</a>
</g>
</g>
<!-- Node1&#45;&gt;Node23 -->
<g id="edge23_Node000001_Node000023" class="edge">
<title>Node1&#45;&gt;Node23</title>
<g id="a_edge23_Node000001_Node000023"><a xlink:title=" ">
<path fill="none" stroke="#63b8ff" d="M1851.82,-238.81C1820.19,-228.36 1783.02,-216.08 1752.65,-206.04"/>
<polygon fill="#63b8ff" stroke="#63b8ff" points="1850.86,-242.18 1861.45,-241.99 1853.05,-235.53 1850.86,-242.18"/>
</a>
</g>
</g>
<!-- Node24 -->
<g id="Node000024" class="node">
<title>Node24</title>
<g id="a_Node000024"><a xlink:href="ade9113_8c.html" target="_top" xlink:title="Implementation of ADE9113 Driver.">
<polygon fill="white" stroke="#666666" points="1914,-206 1779,-206 1779,-165 1914,-165 1914,-206"/>
<text text-anchor="start" x="1787" y="-194" font-family="Helvetica,sans-Serif" font-size="10.00">/home/runner/work/no</text>
<text text-anchor="start" x="1787" y="-183" font-family="Helvetica,sans-Serif" font-size="10.00">&#45;OS/no&#45;OS/drivers/meter</text>
<text text-anchor="middle" x="1846.5" y="-172" font-family="Helvetica,sans-Serif" font-size="10.00">/ade9113/ade9113.c</text>
</a>
</g>
</g>
<!-- Node1&#45;&gt;Node24 -->
<g id="edge24_Node000001_Node000024" class="edge">
<title>Node1&#45;&gt;Node24</title>
<g id="a_edge24_Node000001_Node000024"><a xlink:title=" ">
<path fill="none" stroke="#63b8ff" d="M1893.87,-234.51C1884.6,-225.11 1874.38,-214.76 1865.81,-206.07"/>
<polygon fill="#63b8ff" stroke="#63b8ff" points="1891.54,-237.13 1901.06,-241.79 1896.53,-232.22 1891.54,-237.13"/>
</a>
</g>
</g>
<!-- Node25 -->
<g id="Node000025" class="node">
<title>Node25</title>
<g id="a_Node000025"><a xlink:href="adin1110_8c.html" target="_top" xlink:title="Source file of the ADIN1110 driver.">
<polygon fill="white" stroke="#666666" points="2056.5,-206 1932.5,-206 1932.5,-165 2056.5,-165 2056.5,-206"/>
<text text-anchor="start" x="1940.5" y="-194" font-family="Helvetica,sans-Serif" font-size="10.00">/home/runner/work/no</text>
<text text-anchor="start" x="1940.5" y="-183" font-family="Helvetica,sans-Serif" font-size="10.00">&#45;OS/no&#45;OS/drivers/net</text>
<text text-anchor="middle" x="1994.5" y="-172" font-family="Helvetica,sans-Serif" font-size="10.00">/adin1110/adin1110.c</text>
</a>
</g>
</g>
<!-- Node1&#45;&gt;Node25 -->
<g id="edge25_Node000001_Node000025" class="edge">
<title>Node1&#45;&gt;Node25</title>
<g id="a_edge25_Node000001_Node000025"><a xlink:title=" ">
<path fill="none" stroke="#63b8ff" d="M1947.13,-234.51C1956.4,-225.11 1966.62,-214.76 1975.19,-206.07"/>
<polygon fill="#63b8ff" stroke="#63b8ff" points="1944.47,-232.22 1939.94,-241.79 1949.46,-237.13 1944.47,-232.22"/>
</a>
</g>
</g>
<!-- Node26 -->
<g id="Node000026" class="node">
<title>Node26</title>
<g id="a_Node000026"><a xlink:href="ades1754_8c.html" target="_top" xlink:title="Source file for the ADES1754 Driver.">
<polygon fill="white" stroke="#666666" points="2210.5,-206 2074.5,-206 2074.5,-165 2210.5,-165 2210.5,-206"/>
<text text-anchor="start" x="2082.5" y="-194" font-family="Helvetica,sans-Serif" font-size="10.00">/home/runner/work/no</text>
<text text-anchor="start" x="2082.5" y="-183" font-family="Helvetica,sans-Serif" font-size="10.00">&#45;OS/no&#45;OS/drivers/power</text>
<text text-anchor="middle" x="2142.5" y="-172" font-family="Helvetica,sans-Serif" font-size="10.00">/ades1754/ades1754.c</text>
</a>
</g>
</g>
<!-- Node1&#45;&gt;Node26 -->
<g id="edge26_Node000001_Node000026" class="edge">
<title>Node1&#45;&gt;Node26</title>
<g id="a_edge26_Node000001_Node000026"><a xlink:title=" ">
<path fill="none" stroke="#63b8ff" d="M1988.06,-238.67C2018.91,-228.25 2055.08,-216.03 2084.66,-206.04"/>
<polygon fill="#63b8ff" stroke="#63b8ff" points="1986.6,-235.47 1978.25,-241.99 1988.84,-242.11 1986.6,-235.47"/>
</a>
</g>
</g>
<!-- Node27 -->
<g id="Node000027" class="node">
<title>Node27</title>
<g id="a_Node000027"><a xlink:href="lt3074_8c.html" target="_top" xlink:title=" ">
<polygon fill="white" stroke="#666666" points="2364.5,-206 2228.5,-206 2228.5,-165 2364.5,-165 2364.5,-206"/>
<text text-anchor="start" x="2236.5" y="-194" font-family="Helvetica,sans-Serif" font-size="10.00">/home/runner/work/no</text>
<text text-anchor="start" x="2236.5" y="-183" font-family="Helvetica,sans-Serif" font-size="10.00">&#45;OS/no&#45;OS/drivers/power</text>
<text text-anchor="middle" x="2296.5" y="-172" font-family="Helvetica,sans-Serif" font-size="10.00">/lt3074/lt3074.c</text>
</a>
</g>
</g>
<!-- Node1&#45;&gt;Node27 -->
<g id="edge27_Node000001_Node000027" class="edge">
<title>Node1&#45;&gt;Node27</title>
<g id="a_edge27_Node000001_Node000027"><a xlink:title=" ">
<path fill="none" stroke="#63b8ff" d="M1992.45,-249.49C2053.18,-239.02 2142.31,-222.92 2219.5,-206 2222.33,-205.38 2225.21,-204.73 2228.12,-204.06"/>
<polygon fill="#63b8ff" stroke="#63b8ff" points="1991.84,-246.04 1982.58,-251.18 1993.03,-252.94 1991.84,-246.04"/>
</a>
</g>
</g>
<!-- Node28 -->
<g id="Node000028" class="node">
<title>Node28</title>
<g id="a_Node000028"><a xlink:href="lt7170_8c.html" target="_top" xlink:title=" ">
<polygon fill="white" stroke="#666666" points="2518.5,-206 2382.5,-206 2382.5,-165 2518.5,-165 2518.5,-206"/>
<text text-anchor="start" x="2390.5" y="-194" font-family="Helvetica,sans-Serif" font-size="10.00">/home/runner/work/no</text>
<text text-anchor="start" x="2390.5" y="-183" font-family="Helvetica,sans-Serif" font-size="10.00">&#45;OS/no&#45;OS/drivers/power</text>
<text text-anchor="middle" x="2450.5" y="-172" font-family="Helvetica,sans-Serif" font-size="10.00">/lt7170/lt7170.c</text>
</a>
</g>
</g>
<!-- Node1&#45;&gt;Node28 -->
<g id="edge28_Node000001_Node000028" class="edge">
<title>Node1&#45;&gt;Node28</title>
<g id="a_edge28_Node000001_Node000028"><a xlink:title=" ">
<path fill="none" stroke="#63b8ff" d="M1992.87,-255.47C2082.66,-247.34 2240.2,-230.94 2373.5,-206 2376.35,-205.47 2379.24,-204.89 2382.17,-204.28"/>
<polygon fill="#63b8ff" stroke="#63b8ff" points="1992.44,-251.99 1982.8,-256.37 1993.07,-258.97 1992.44,-251.99"/>
</a>
</g>
</g>
<!-- Node29 -->
<g id="Node000029" class="node">
<title>Node29</title>
<g id="a_Node000029"><a xlink:href="lt7182s_8c.html" target="_top" xlink:title=" ">
<polygon fill="white" stroke="#666666" points="2672.5,-206 2536.5,-206 2536.5,-165 2672.5,-165 2672.5,-206"/>
<text text-anchor="start" x="2544.5" y="-194" font-family="Helvetica,sans-Serif" font-size="10.00">/home/runner/work/no</text>
<text text-anchor="start" x="2544.5" y="-183" font-family="Helvetica,sans-Serif" font-size="10.00">&#45;OS/no&#45;OS/drivers/power</text>
<text text-anchor="middle" x="2604.5" y="-172" font-family="Helvetica,sans-Serif" font-size="10.00">/lt7182s/lt7182s.c</text>
</a>
</g>
</g>
<!-- Node1&#45;&gt;Node29 -->
<g id="edge29_Node000001_Node000029" class="edge">
<title>Node1&#45;&gt;Node29</title>
<g id="a_edge29_Node000001_Node000029"><a xlink:title=" ">
<path fill="none" stroke="#63b8ff" d="M1992.54,-258.57C2106.7,-253.11 2335.89,-238.81 2527.5,-206 2530.35,-205.51 2533.26,-204.97 2536.19,-204.39"/>
<polygon fill="#63b8ff" stroke="#63b8ff" points="1992.35,-255.08 1982.52,-259.04 1992.68,-262.07 1992.35,-255.08"/>
</a>
</g>
</g>
<!-- Node30 -->
<g id="Node000030" class="node">
<title>Node30</title>
<g id="a_Node000030"><a xlink:href="lt8722_8c.html" target="_top" xlink:title="Source file for the LT8722 Driver.">
<polygon fill="white" stroke="#666666" points="2826.5,-206 2690.5,-206 2690.5,-165 2826.5,-165 2826.5,-206"/>
<text text-anchor="start" x="2698.5" y="-194" font-family="Helvetica,sans-Serif" font-size="10.00">/home/runner/work/no</text>
<text text-anchor="start" x="2698.5" y="-183" font-family="Helvetica,sans-Serif" font-size="10.00">&#45;OS/no&#45;OS/drivers/power</text>
<text text-anchor="middle" x="2758.5" y="-172" font-family="Helvetica,sans-Serif" font-size="10.00">/lt8722/lt8722.c</text>
</a>
</g>
</g>
<!-- Node1&#45;&gt;Node30 -->
<g id="edge30_Node000001_Node000030" class="edge">
<title>Node1&#45;&gt;Node30</title>
<g id="a_edge30_Node000001_Node000030"><a xlink:title=" ">
<path fill="none" stroke="#63b8ff" d="M1992.85,-260.43C2128.67,-257.5 2430.75,-246.57 2681.5,-206 2684.36,-205.54 2687.27,-205.02 2690.2,-204.46"/>
<polygon fill="#63b8ff" stroke="#63b8ff" points="1992.5,-256.94 1982.58,-260.65 1992.65,-263.94 1992.5,-256.94"/>
</a>
</g>
</g>
<!-- Node31 -->
<g id="Node000031" class="node">
<title>Node31</title>
<g id="a_Node000031"><a xlink:href="ltm4686_8c.html" target="_top" xlink:title="Source code of the LTM4686 driver.">
<polygon fill="white" stroke="#666666" points="2980.5,-206 2844.5,-206 2844.5,-165 2980.5,-165 2980.5,-206"/>
<text text-anchor="start" x="2852.5" y="-194" font-family="Helvetica,sans-Serif" font-size="10.00">/home/runner/work/no</text>
<text text-anchor="start" x="2852.5" y="-183" font-family="Helvetica,sans-Serif" font-size="10.00">&#45;OS/no&#45;OS/drivers/power</text>
<text text-anchor="middle" x="2912.5" y="-172" font-family="Helvetica,sans-Serif" font-size="10.00">/ltm4686/ltm4686.c</text>
</a>
</g>
</g>
<!-- Node1&#45;&gt;Node31 -->
<g id="edge31_Node000001_Node000031" class="edge">
<title>Node1&#45;&gt;Node31</title>
<g id="a_edge31_Node000001_Node000031"><a xlink:title=" ">
<path fill="none" stroke="#63b8ff" d="M1992.86,-261.7C2148.17,-261.13 2524.6,-254.36 2835.5,-206 2838.36,-205.55 2841.27,-205.05 2844.2,-204.5"/>
<polygon fill="#63b8ff" stroke="#63b8ff" points="1992.5,-258.2 1982.51,-261.73 1992.52,-265.2 1992.5,-258.2"/>
</a>
</g>
</g>
<!-- Node32 -->
<g id="Node000032" class="node">
<title>Node32</title>
<g id="a_Node000032"><a xlink:href="ltp8800_8c.html" target="_top" xlink:title=" ">
<polygon fill="white" stroke="#666666" points="3134.5,-206 2998.5,-206 2998.5,-165 3134.5,-165 3134.5,-206"/>
<text text-anchor="start" x="3006.5" y="-194" font-family="Helvetica,sans-Serif" font-size="10.00">/home/runner/work/no</text>
<text text-anchor="start" x="3006.5" y="-183" font-family="Helvetica,sans-Serif" font-size="10.00">&#45;OS/no&#45;OS/drivers/power</text>
<text text-anchor="middle" x="3066.5" y="-172" font-family="Helvetica,sans-Serif" font-size="10.00">/ltp8800/ltp8800.c</text>
</a>
</g>
</g>
<!-- Node1&#45;&gt;Node32 -->
<g id="edge32_Node000001_Node000032" class="edge">
<title>Node1&#45;&gt;Node32</title>
<g id="a_edge32_Node000001_Node000032"><a xlink:title=" ">
<path fill="none" stroke="#63b8ff" d="M1992.72,-259.6C2200.37,-253.84 2796.49,-235.16 2989.5,-206 2992.36,-205.57 2995.28,-205.07 2998.21,-204.53"/>
<polygon fill="#63b8ff" stroke="#63b8ff" points="1992.44,-256.1 1982.54,-259.88 1992.63,-263.1 1992.44,-256.1"/>
</a>
</g>
</g>
<!-- Node33 -->
<g id="Node000033" class="node">
<title>Node33</title>
<g id="a_Node000033"><a xlink:href="max17616_8c.html" target="_top" xlink:title="Source file of the MAX17616 Driver.">
<polygon fill="white" stroke="#666666" points="3288.5,-206 3152.5,-206 3152.5,-165 3288.5,-165 3288.5,-206"/>
<text text-anchor="start" x="3160.5" y="-194" font-family="Helvetica,sans-Serif" font-size="10.00">/home/runner/work/no</text>
<text text-anchor="start" x="3160.5" y="-183" font-family="Helvetica,sans-Serif" font-size="10.00">&#45;OS/no&#45;OS/drivers/power</text>
<text text-anchor="middle" x="3220.5" y="-172" font-family="Helvetica,sans-Serif" font-size="10.00">/max17616/max17616.c</text>
</a>
</g>
</g>
<!-- Node1&#45;&gt;Node33 -->
<g id="edge33_Node000001_Node000033" class="edge">
<title>Node1&#45;&gt;Node33</title>
<g id="a_edge33_Node000001_Node000033"><a xlink:title=" ">
<path fill="none" stroke="#63b8ff" d="M1992.76,-260.14C2220.16,-255.57 2919.34,-239.12 3143.5,-206 3146.36,-205.58 3149.28,-205.09 3152.21,-204.56"/>
<polygon fill="#63b8ff" stroke="#63b8ff" points="1992.54,-256.65 1982.61,-260.35 1992.68,-263.65 1992.54,-256.65"/>
</a>
</g>
</g>
<!-- Node34 -->
<g id="Node000034" class="node">
<title>Node34</title>
<g id="a_Node000034"><a xlink:href="max42500_8c.html" target="_top" xlink:title="Source file of MAX42500 Driver.">
<polygon fill="white" stroke="#666666" points="3442.5,-206 3306.5,-206 3306.5,-165 3442.5,-165 3442.5,-206"/>
<text text-anchor="start" x="3314.5" y="-194" font-family="Helvetica,sans-Serif" font-size="10.00">/home/runner/work/no</text>
<text text-anchor="start" x="3314.5" y="-183" font-family="Helvetica,sans-Serif" font-size="10.00">&#45;OS/no&#45;OS/drivers/power</text>
<text text-anchor="middle" x="3374.5" y="-172" font-family="Helvetica,sans-Serif" font-size="10.00">/max42500/max42500.c</text>
</a>
</g>
</g>
<!-- Node1&#45;&gt;Node34 -->
<g id="edge34_Node000001_Node000034" class="edge">
<title>Node1&#45;&gt;Node34</title>
<g id="a_edge34_Node000001_Node000034"><a xlink:title=" ">
<path fill="none" stroke="#63b8ff" d="M1992.89,-260.57C2238.95,-257.08 3042.05,-243.08 3297.5,-206 3300.37,-205.58 3303.28,-205.1 3306.21,-204.58"/>
<polygon fill="#63b8ff" stroke="#63b8ff" points="1992.58,-257.07 1982.63,-260.71 1992.68,-264.07 1992.58,-257.07"/>
</a>
</g>
</g>
<!-- Node35 -->
<g id="Node000035" class="node">
<title>Node35</title>
<g id="a_Node000035"><a xlink:href="no__os__crc_8h.html" target="_top" xlink:title="Generic header file for all CRC computation algorithms.">
<polygon fill="white" stroke="#666666" points="3584.5,-206 3460.5,-206 3460.5,-165 3584.5,-165 3584.5,-206"/>
<text text-anchor="start" x="3468.5" y="-194" font-family="Helvetica,sans-Serif" font-size="10.00">/home/runner/work/no</text>
<text text-anchor="start" x="3468.5" y="-183" font-family="Helvetica,sans-Serif" font-size="10.00">&#45;OS/no&#45;OS/include/no</text>
<text text-anchor="middle" x="3522.5" y="-172" font-family="Helvetica,sans-Serif" font-size="10.00">_os_crc.h</text>
</a>
</g>
</g>
<!-- Node1&#45;&gt;Node35 -->
<g id="edge35_Node000001_Node000035" class="edge">
<title>Node1&#45;&gt;Node35</title>
<g id="a_edge35_Node000001_Node000035"><a xlink:title=" ">
<path fill="none" stroke="#63b8ff" d="M1992.88,-261.1C2256.52,-259.29 3164.99,-249.93 3451.5,-206 3454.41,-205.55 3457.36,-205.03 3460.34,-204.45"/>
<polygon fill="#63b8ff" stroke="#63b8ff" points="1992.64,-257.6 1982.66,-261.17 1992.68,-264.6 1992.64,-257.6"/>
</a>
</g>
</g>
<!-- Node38 -->
<g id="Node000038" class="node">
<title>Node38</title>
<g id="a_Node000038"><a xlink:href="wethlink_2src_2app_2main_8c.html" target="_top" xlink:title=" ">
<polygon fill="white" stroke="#666666" points="3756,-206 3603,-206 3603,-165 3756,-165 3756,-206"/>
<text text-anchor="start" x="3611" y="-194" font-family="Helvetica,sans-Serif" font-size="10.00">/home/runner/work/no</text>
<text text-anchor="start" x="3611" y="-183" font-family="Helvetica,sans-Serif" font-size="10.00">&#45;OS/no&#45;OS/projects/wethlink</text>
<text text-anchor="middle" x="3679.5" y="-172" font-family="Helvetica,sans-Serif" font-size="10.00">/src/app/main.c</text>
</a>
</g>
</g>
<!-- Node1&#45;&gt;Node38 -->
<g id="edge38_Node000001_Node000038" class="edge">
<title>Node1&#45;&gt;Node38</title>
<g id="a_edge38_Node000001_Node000038"><a xlink:title=" ">
<path fill="none" stroke="#63b8ff" d="M1992.93,-260.93C2271.88,-258.44 3276.93,-246.76 3593.5,-206 3596.54,-205.61 3599.62,-205.16 3602.74,-204.66"/>
<polygon fill="#63b8ff" stroke="#63b8ff" points="1992.89,-257.43 1982.92,-261.01 1992.95,-264.43 1992.89,-257.43"/>
</a>
</g>
</g>
<!-- Node39 -->
<g id="Node000039" class="node">
<title>Node39</title>
<g id="a_Node000039"><a xlink:href="mwc_8c.html" target="_top" xlink:title=" ">
<polygon fill="white" stroke="#666666" points="3927,-206 3774,-206 3774,-165 3927,-165 3927,-206"/>
<text text-anchor="start" x="3782" y="-194" font-family="Helvetica,sans-Serif" font-size="10.00">/home/runner/work/no</text>
<text text-anchor="start" x="3782" y="-183" font-family="Helvetica,sans-Serif" font-size="10.00">&#45;OS/no&#45;OS/projects/wethlink</text>
<text text-anchor="middle" x="3850.5" y="-172" font-family="Helvetica,sans-Serif" font-size="10.00">/src/app/mwc.c</text>
</a>
</g>
</g>
<!-- Node1&#45;&gt;Node39 -->
<g id="edge39_Node000001_Node000039" class="edge">
<title>Node1&#45;&gt;Node39</title>
<g id="a_edge39_Node000001_Node000039"><a xlink:title=" ">
<path fill="none" stroke="#63b8ff" d="M1992.82,-261.21C2289.41,-259.74 3413.49,-251.23 3765.5,-206 3768.2,-205.65 3770.95,-205.26 3773.71,-204.82"/>
<polygon fill="#63b8ff" stroke="#63b8ff" points="1992.6,-257.71 1982.62,-261.26 1992.64,-264.71 1992.6,-257.71"/>
</a>
</g>
</g>
<!-- Node7 -->
<g id="Node000007" class="node">
<title>Node7</title>
<g id="a_Node000007"><a xlink:href="ad3530r_8c.html" target="_top" xlink:title=" ">
<polygon fill="white" stroke="#666666" points="291.5,-123.5 167.5,-123.5 167.5,-82.5 291.5,-82.5 291.5,-123.5"/>
<text text-anchor="start" x="175.5" y="-111.5" font-family="Helvetica,sans-Serif" font-size="10.00">/home/runner/work/no</text>
<text text-anchor="start" x="175.5" y="-100.5" font-family="Helvetica,sans-Serif" font-size="10.00">&#45;OS/no&#45;OS/drivers/dac</text>
<text text-anchor="middle" x="229.5" y="-89.5" font-family="Helvetica,sans-Serif" font-size="10.00">/ad3530r/ad3530r.c</text>
</a>
</g>
</g>
<!-- Node6&#45;&gt;Node7 -->
<g id="edge6_Node000006_Node000007" class="edge">
<title>Node6&#45;&gt;Node7</title>
<g id="a_edge6_Node000006_Node000007"><a xlink:title=" ">
<path fill="none" stroke="#63b8ff" d="M601.11,-164.9C467.95,-140 428.94,-158.88 300.5,-129 294.01,-127.49 287.29,-125.59 280.68,-123.51"/>
<polygon fill="#63b8ff" stroke="#63b8ff" points="600.81,-168.4 611.29,-166.85 602.13,-161.53 600.81,-168.4"/>
</a>
</g>
</g>
<!-- Node9 -->
<g id="Node000009" class="node">
<title>Node9</title>
<g id="a_Node000009"><a xlink:href="ad3552r_8c.html" target="_top" xlink:title="Implementation of ad3552r Driver.">
<polygon fill="white" stroke="#666666" points="433.5,-123.5 309.5,-123.5 309.5,-82.5 433.5,-82.5 433.5,-123.5"/>
<text text-anchor="start" x="317.5" y="-111.5" font-family="Helvetica,sans-Serif" font-size="10.00">/home/runner/work/no</text>
<text text-anchor="start" x="317.5" y="-100.5" font-family="Helvetica,sans-Serif" font-size="10.00">&#45;OS/no&#45;OS/drivers/dac</text>
<text text-anchor="middle" x="371.5" y="-89.5" font-family="Helvetica,sans-Serif" font-size="10.00">/ad3552r/ad3552r.c</text>
</a>
</g>
</g>
<!-- Node8&#45;&gt;Node9 -->
<g id="edge8_Node000008_Node000009" class="edge">
<title>Node8&#45;&gt;Node9</title>
<g id="a_edge8_Node000008_Node000009"><a xlink:title=" ">
<path fill="none" stroke="#63b8ff" d="M743.11,-164.9C609.95,-140 570.94,-158.88 442.5,-129 436.01,-127.49 429.29,-125.59 422.68,-123.51"/>
<polygon fill="#63b8ff" stroke="#63b8ff" points="742.81,-168.4 753.29,-166.85 744.13,-161.53 742.81,-168.4"/>
</a>
</g>
</g>
<!-- Node10 -->
<g id="Node000010" class="node">
<title>Node10</title>
<g id="a_Node000010"><a xlink:href="iio__ad3552r_8c.html" target="_top" xlink:title="IIO implementation for ad3552r Driver.">
<polygon fill="white" stroke="#666666" points="579,-123.5 452,-123.5 452,-82.5 579,-82.5 579,-123.5"/>
<text text-anchor="start" x="460" y="-111.5" font-family="Helvetica,sans-Serif" font-size="10.00">/home/runner/work/no</text>
<text text-anchor="start" x="460" y="-100.5" font-family="Helvetica,sans-Serif" font-size="10.00">&#45;OS/no&#45;OS/drivers/dac</text>
<text text-anchor="middle" x="515.5" y="-89.5" font-family="Helvetica,sans-Serif" font-size="10.00">/ad3552r/iio_ad3552r.c</text>
</a>
</g>
</g>
<!-- Node8&#45;&gt;Node10 -->
<g id="edge9_Node000008_Node000010" class="edge">
<title>Node8&#45;&gt;Node10</title>
<g id="a_edge9_Node000008_Node000010"><a xlink:title=" ">
<path fill="none" stroke="#63b8ff" d="M743.08,-164.71C673.74,-147.62 653.84,-147.67 588.5,-129 582.7,-127.34 576.69,-125.5 570.71,-123.58"/>
<polygon fill="#63b8ff" stroke="#63b8ff" points="742.65,-168.21 753.2,-167.23 744.35,-161.41 742.65,-168.21"/>
</a>
</g>
</g>
<!-- Node11 -->
<g id="Node000011" class="node">
<title>Node11</title>
<g id="a_Node000011"><a xlink:href="iio__ad3552r_8h.html" target="_top" xlink:title=" ">
<polygon fill="white" stroke="#666666" points="725.5,-123.5 597.5,-123.5 597.5,-82.5 725.5,-82.5 725.5,-123.5"/>
<text text-anchor="start" x="605.5" y="-111.5" font-family="Helvetica,sans-Serif" font-size="10.00">/home/runner/work/no</text>
<text text-anchor="start" x="605.5" y="-100.5" font-family="Helvetica,sans-Serif" font-size="10.00">&#45;OS/no&#45;OS/drivers/dac</text>
<text text-anchor="middle" x="661.5" y="-89.5" font-family="Helvetica,sans-Serif" font-size="10.00">/ad3552r/iio_ad3552r.h</text>
</a>
</g>
</g>
<!-- Node8&#45;&gt;Node11 -->
<g id="edge10_Node000008_Node000011" class="edge">
<title>Node8&#45;&gt;Node11</title>
<g id="a_edge10_Node000008_Node000011"><a xlink:title=" ">
<path fill="none" stroke="#63b8ff" d="M768.84,-160.11C746.49,-148.43 720.08,-134.62 699.05,-123.63"/>
<polygon fill="#63b8ff" stroke="#63b8ff" points="767.34,-163.28 777.83,-164.81 770.59,-157.07 767.34,-163.28"/>
</a>
</g>
</g>
<!-- Node12 -->
<g id="Node000012" class="node">
<title>Node12</title>
<g id="a_Node000012"><a xlink:href="ad3552r__fmcz_2src_2common_2common__data_8c.html" target="_top" xlink:title="Defines common data to be used by iio examples.">
<polygon fill="white" stroke="#666666" points="910.5,-41 720.5,-41 720.5,0 910.5,0 910.5,-41"/>
<text text-anchor="start" x="728.5" y="-29" font-family="Helvetica,sans-Serif" font-size="10.00">/home/runner/work/no</text>
<text text-anchor="start" x="728.5" y="-18" font-family="Helvetica,sans-Serif" font-size="10.00">&#45;OS/no&#45;OS/projects/ad3552r</text>
<text text-anchor="middle" x="815.5" y="-7" font-family="Helvetica,sans-Serif" font-size="10.00">_fmcz/src/common/common_data.c</text>
</a>
</g>
</g>
<!-- Node8&#45;&gt;Node12 -->
<g id="edge11_Node000008_Node000012" class="edge">
<title>Node8&#45;&gt;Node12</title>
<g id="a_edge11_Node000008_Node000012"><a xlink:title=" ">
<path fill="none" stroke="#63b8ff" d="M788.51,-156.99C782,-148.66 775.93,-139.03 772.5,-129 765.02,-107.13 765.02,-98.87 772.5,-77 777.08,-63.62 786.33,-50.97 795.09,-41.14"/>
<polygon fill="#63b8ff" stroke="#63b8ff" points="785.99,-159.44 795.09,-164.86 791.36,-154.95 785.99,-159.44"/>
</a>
</g>
</g>
<!-- Node13 -->
<g id="Node000013" class="node">
<title>Node13</title>
<g id="a_Node000013"><a xlink:href="ad3552r__fmcz_2src_2common_2common__data_8h.html" target="_top" xlink:title="Defines common data to be used by iio examples.">
<polygon fill="white" stroke="#666666" points="973,-123.5 782,-123.5 782,-82.5 973,-82.5 973,-123.5"/>
<text text-anchor="start" x="790" y="-111.5" font-family="Helvetica,sans-Serif" font-size="10.00">/home/runner/work/no</text>
<text text-anchor="start" x="790" y="-100.5" font-family="Helvetica,sans-Serif" font-size="10.00">&#45;OS/no&#45;OS/projects/ad3552r</text>
<text text-anchor="middle" x="877.5" y="-89.5" font-family="Helvetica,sans-Serif" font-size="10.00">_fmcz/src/common/common_data.h</text>
</a>
</g>
</g>
<!-- Node8&#45;&gt;Node13 -->
<g id="edge12_Node000008_Node000013" class="edge">
<title>Node8&#45;&gt;Node13</title>
<g id="a_edge12_Node000008_Node000013"><a xlink:title=" ">
<path fill="none" stroke="#63b8ff" d="M836.97,-156.62C845.33,-145.76 854.72,-133.58 862.35,-123.67"/>
<polygon fill="#63b8ff" stroke="#63b8ff" points="834.15,-154.54 830.83,-164.6 839.7,-158.81 834.15,-154.54"/>
</a>
</g>
</g>
<!-- Node14 -->
<g id="Node000014" class="node">
<title>Node14</title>
<g id="a_Node000014"><a xlink:href="axi__qspi__example_8c.html" target="_top" xlink:title="Implementation of Main Function.">
<polygon fill="white" stroke="#666666" points="1149.5,-129 991.5,-129 991.5,-77 1149.5,-77 1149.5,-129"/>
<text text-anchor="start" x="999.5" y="-117" font-family="Helvetica,sans-Serif" font-size="10.00">/home/runner/work/no</text>
<text text-anchor="start" x="999.5" y="-106" font-family="Helvetica,sans-Serif" font-size="10.00">&#45;OS/no&#45;OS/projects/ad3552r</text>
<text text-anchor="start" x="999.5" y="-95" font-family="Helvetica,sans-Serif" font-size="10.00">_fmcz/src/examples/axi_qspi</text>
<text text-anchor="middle" x="1070.5" y="-84" font-family="Helvetica,sans-Serif" font-size="10.00">/axi_qspi_example.c</text>
</a>
</g>
</g>
<!-- Node8&#45;&gt;Node14 -->
<g id="edge14_Node000008_Node000014" class="edge">
<title>Node8&#45;&gt;Node14</title>
<g id="a_edge14_Node000008_Node000014"><a xlink:title=" ">
<path fill="none" stroke="#63b8ff" d="M887.39,-161.81C919.73,-151.6 958.01,-139.51 991.19,-129.04"/>
<polygon fill="#63b8ff" stroke="#63b8ff" points="886.04,-158.56 877.55,-164.91 888.14,-165.24 886.04,-158.56"/>
</a>
</g>
</g>
<!-- Node15 -->
<g id="Node000015" class="node">
<title>Node15</title>
<g id="a_Node000015"><a xlink:href="generic__spi__example_8c.html" target="_top" xlink:title="Implementation of Main Function.">
<polygon fill="white" stroke="#666666" points="1321,-129 1168,-129 1168,-77 1321,-77 1321,-129"/>
<text text-anchor="start" x="1176" y="-117" font-family="Helvetica,sans-Serif" font-size="10.00">/home/runner/work/no</text>
<text text-anchor="start" x="1176" y="-106" font-family="Helvetica,sans-Serif" font-size="10.00">&#45;OS/no&#45;OS/projects/ad3552r</text>
<text text-anchor="start" x="1176" y="-95" font-family="Helvetica,sans-Serif" font-size="10.00">_fmcz/src/examples/generic</text>
<text text-anchor="middle" x="1244.5" y="-84" font-family="Helvetica,sans-Serif" font-size="10.00">_spi/generic_spi_example.c</text>
</a>
</g>
</g>
<!-- Node8&#45;&gt;Node15 -->
<g id="edge15_Node000008_Node000015" class="edge">
<title>Node8&#45;&gt;Node15</title>
<g id="a_edge15_Node000008_Node000015"><a xlink:title=" ">
<path fill="none" stroke="#63b8ff" d="M887.68,-164.91C1007.82,-141.47 1042.31,-153.43 1158.5,-129 1161.54,-128.36 1164.64,-127.67 1167.75,-126.93"/>
<polygon fill="#63b8ff" stroke="#63b8ff" points="886.85,-161.51 877.72,-166.89 888.21,-168.37 886.85,-161.51"/>
</a>
</g>
</g>
<!-- Node13&#45;&gt;Node12 -->
<g id="edge13_Node000013_Node000012" class="edge">
<title>Node13&#45;&gt;Node12</title>
<g id="a_edge13_Node000013_Node000012"><a xlink:title=" ">
<path fill="none" stroke="#63b8ff" d="M856.03,-74.12C847.67,-63.26 838.28,-51.08 830.65,-41.17"/>
<polygon fill="#63b8ff" stroke="#63b8ff" points="853.3,-76.31 862.17,-82.1 858.85,-72.04 853.3,-76.31"/>
</a>
</g>
</g>
<!-- Node18 -->
<g id="Node000018" class="node">
<title>Node18</title>
<g id="a_Node000018"><a xlink:href="ad5706r_8c.html" target="_top" xlink:title="Implementation of AD5706R Driver.">
<polygon fill="white" stroke="#666666" points="1463.5,-123.5 1339.5,-123.5 1339.5,-82.5 1463.5,-82.5 1463.5,-123.5"/>
<text text-anchor="start" x="1347.5" y="-111.5" font-family="Helvetica,sans-Serif" font-size="10.00">/home/runner/work/no</text>
<text text-anchor="start" x="1347.5" y="-100.5" font-family="Helvetica,sans-Serif" font-size="10.00">&#45;OS/no&#45;OS/drivers/dac</text>
<text text-anchor="middle" x="1401.5" y="-89.5" font-family="Helvetica,sans-Serif" font-size="10.00">/ad5706r/ad5706r.c</text>
</a>
</g>
</g>
<!-- Node17&#45;&gt;Node18 -->
<g id="edge18_Node000017_Node000018" class="edge">
<title>Node17&#45;&gt;Node18</title>
<g id="a_edge18_Node000017_Node000018"><a xlink:title=" ">
<path fill="none" stroke="#63b8ff" d="M1171.66,-164.78C1242.52,-147.49 1262.83,-148.06 1329.5,-129 1335.23,-127.36 1341.16,-125.53 1347.06,-123.62"/>
<polygon fill="#63b8ff" stroke="#63b8ff" points="1170.66,-161.42 1161.8,-167.22 1172.34,-168.21 1170.66,-161.42"/>
</a>
</g>
</g>
<!-- Node20 -->
<g id="Node000020" class="node">
<title>Node20</title>
<g id="a_Node000020"><a xlink:href="ad5710r_8c.html" target="_top" xlink:title="Implementation of ad5710r Driver.">
<polygon fill="white" stroke="#666666" points="1605.5,-123.5 1481.5,-123.5 1481.5,-82.5 1605.5,-82.5 1605.5,-123.5"/>
<text text-anchor="start" x="1489.5" y="-111.5" font-family="Helvetica,sans-Serif" font-size="10.00">/home/runner/work/no</text>
<text text-anchor="start" x="1489.5" y="-100.5" font-family="Helvetica,sans-Serif" font-size="10.00">&#45;OS/no&#45;OS/drivers/dac</text>
<text text-anchor="middle" x="1543.5" y="-89.5" font-family="Helvetica,sans-Serif" font-size="10.00">/ad5710r/ad5710r.c</text>
</a>
</g>
</g>
<!-- Node19&#45;&gt;Node20 -->
<g id="edge20_Node000019_Node000020" class="edge">
<title>Node19&#45;&gt;Node20</title>
<g id="a_edge20_Node000019_Node000020"><a xlink:title=" ">
<path fill="none" stroke="#63b8ff" d="M1313.71,-164.77C1384.96,-147.46 1405.46,-148.27 1472.5,-129 1478.28,-127.34 1484.27,-125.47 1490.22,-123.52"/>
<polygon fill="#63b8ff" stroke="#63b8ff" points="1312.67,-161.42 1303.79,-167.21 1314.34,-168.22 1312.67,-161.42"/>
</a>
</g>
</g>
<!-- Node36 -->
<g id="Node000036" class="node">
<title>Node36</title>
<g id="a_Node000036"><a xlink:href="ad7606_8c.html" target="_top" xlink:title="Implementation of ad7606 Driver.">
<polygon fill="white" stroke="#666666" points="3512.5,-123.5 3388.5,-123.5 3388.5,-82.5 3512.5,-82.5 3512.5,-123.5"/>
<text text-anchor="start" x="3396.5" y="-111.5" font-family="Helvetica,sans-Serif" font-size="10.00">/home/runner/work/no</text>
<text text-anchor="start" x="3396.5" y="-100.5" font-family="Helvetica,sans-Serif" font-size="10.00">&#45;OS/no&#45;OS/drivers/adc</text>
<text text-anchor="middle" x="3450.5" y="-89.5" font-family="Helvetica,sans-Serif" font-size="10.00">/ad7606/ad7606.c</text>
</a>
</g>
</g>
<!-- Node35&#45;&gt;Node36 -->
<g id="edge36_Node000035_Node000036" class="edge">
<title>Node35&#45;&gt;Node36</title>
<g id="a_edge36_Node000035_Node000036"><a xlink:title=" ">
<path fill="none" stroke="#63b8ff" d="M3497.85,-156.94C3488.07,-146 3477.04,-133.68 3468.09,-123.67"/>
<polygon fill="#63b8ff" stroke="#63b8ff" points="3495.43,-159.48 3504.7,-164.6 3500.64,-154.81 3495.43,-159.48"/>
</a>
</g>
</g>
<!-- Node37 -->
<g id="Node000037" class="node">
<title>Node37</title>
<g id="a_Node000037"><a xlink:href="adas1000_8c.html" target="_top" xlink:title="Implementation of ADAS1000 Driver.">
<polygon fill="white" stroke="#666666" points="3656,-123.5 3531,-123.5 3531,-82.5 3656,-82.5 3656,-123.5"/>
<text text-anchor="start" x="3539" y="-111.5" font-family="Helvetica,sans-Serif" font-size="10.00">/home/runner/work/no</text>
<text text-anchor="start" x="3539" y="-100.5" font-family="Helvetica,sans-Serif" font-size="10.00">&#45;OS/no&#45;OS/drivers/ecg</text>
<text text-anchor="middle" x="3593.5" y="-89.5" font-family="Helvetica,sans-Serif" font-size="10.00">/adas1000/adas1000.c</text>
</a>
</g>
</g>
<!-- Node35&#45;&gt;Node37 -->
<g id="edge37_Node000035_Node000037" class="edge">
<title>Node35&#45;&gt;Node37</title>
<g id="a_edge37_Node000035_Node000037"><a xlink:title=" ">
<path fill="none" stroke="#63b8ff" d="M3546.81,-156.94C3556.45,-146 3567.33,-133.68 3576.15,-123.67"/>
<polygon fill="#63b8ff" stroke="#63b8ff" points="3544.04,-154.79 3540.05,-164.6 3549.29,-159.42 3544.04,-154.79"/>
</a>
</g>
</g>
</g>
</svg>
