<?xml version="1.0" encoding="UTF-8" standalone="no"?>
<!DOCTYPE svg PUBLIC "-//W3C//DTD SVG 1.1//EN"
 "http://www.w3.org/Graphics/SVG/1.1/DTD/svg11.dtd">
<!-- Generated by graphviz version 2.43.0 (0)
 -->
<!-- Title: /home/runner/work/no&#45;OS/no&#45;OS/include/no_os_rtc.h Pages: 1 -->
<svg width="2554pt" height="203pt"
 viewBox="0.00 0.00 2554.00 203.00" xmlns="http://www.w3.org/2000/svg" xmlns:xlink="http://www.w3.org/1999/xlink">
<g id="graph0" class="graph" transform="scale(1 1) rotate(0) translate(4 199)">
<title>/home/runner/work/no&#45;OS/no&#45;OS/include/no_os_rtc.h</title>
<!-- Node1 -->
<g id="Node000001" class="node">
<title>Node1</title>
<g id="a_Node000001"><a xlink:title="Header of the RTC interface.">
<polygon fill="#999999" stroke="#666666" points="1296.5,-195 1172.5,-195 1172.5,-154 1296.5,-154 1296.5,-195"/>
<text text-anchor="start" x="1180.5" y="-183" font-family="Helvetica,sans-Serif" font-size="10.00">/home/runner/work/no</text>
<text text-anchor="start" x="1180.5" y="-172" font-family="Helvetica,sans-Serif" font-size="10.00">&#45;OS/no&#45;OS/include/no</text>
<text text-anchor="middle" x="1234.5" y="-161" font-family="Helvetica,sans-Serif" font-size="10.00">_os_rtc.h</text>
</a>
</g>
</g>
<!-- Node2 -->
<g id="Node000002" class="node">
<title>Node2</title>
<g id="a_Node000002"><a xlink:href="aducm3029__irq_8c.html" target="_top" xlink:title="Implementation of External IRQ driver for ADuCM302x.">
<polygon fill="white" stroke="#666666" points="163,-118 0,-118 0,-77 163,-77 163,-118"/>
<text text-anchor="start" x="8" y="-106" font-family="Helvetica,sans-Serif" font-size="10.00">/home/runner/work/no</text>
<text text-anchor="start" x="8" y="-95" font-family="Helvetica,sans-Serif" font-size="10.00">&#45;OS/no&#45;OS/drivers/platform</text>
<text text-anchor="middle" x="81.5" y="-84" font-family="Helvetica,sans-Serif" font-size="10.00">/aducm3029/aducm3029_irq.c</text>
</a>
</g>
</g>
<!-- Node1&#45;&gt;Node2 -->
<g id="edge1_Node000001_Node000002" class="edge">
<title>Node1&#45;&gt;Node2</title>
<g id="a_edge1_Node000001_Node000002"><a xlink:title=" ">
<path fill="none" stroke="#63b8ff" d="M1162.26,-173.73C989.98,-173.41 541.73,-167.45 171.5,-118 168.81,-117.64 166.07,-117.24 163.32,-116.81"/>
<polygon fill="#63b8ff" stroke="#63b8ff" points="1162.47,-177.23 1172.47,-173.74 1162.47,-170.23 1162.47,-177.23"/>
</a>
</g>
</g>
<!-- Node3 -->
<g id="Node000003" class="node">
<title>Node3</title>
<g id="a_Node000003"><a xlink:href="aducm3029__rtc_8c.html" target="_top" xlink:title="Implementation of RTC driver for ADuCM302x.">
<polygon fill="white" stroke="#666666" points="344,-118 181,-118 181,-77 344,-77 344,-118"/>
<text text-anchor="start" x="189" y="-106" font-family="Helvetica,sans-Serif" font-size="10.00">/home/runner/work/no</text>
<text text-anchor="start" x="189" y="-95" font-family="Helvetica,sans-Serif" font-size="10.00">&#45;OS/no&#45;OS/drivers/platform</text>
<text text-anchor="middle" x="262.5" y="-84" font-family="Helvetica,sans-Serif" font-size="10.00">/aducm3029/aducm3029_rtc.c</text>
</a>
</g>
</g>
<!-- Node1&#45;&gt;Node3 -->
<g id="edge2_Node000001_Node000003" class="edge">
<title>Node1&#45;&gt;Node3</title>
<g id="a_edge2_Node000001_Node000003"><a xlink:title=" ">
<path fill="none" stroke="#63b8ff" d="M1162.33,-172.27C1012.11,-168.98 655.14,-157.34 358.5,-118 353.78,-117.37 348.94,-116.65 344.07,-115.86"/>
<polygon fill="#63b8ff" stroke="#63b8ff" points="1162.28,-175.77 1172.35,-172.49 1162.43,-168.77 1162.28,-175.77"/>
</a>
</g>
</g>
<!-- Node4 -->
<g id="Node000004" class="node">
<title>Node4</title>
<g id="a_Node000004"><a xlink:href="max32650_2maxim__rtc_8c.html" target="_top" xlink:title="Implementation of RTC driver.">
<polygon fill="white" stroke="#666666" points="498,-41 325,-41 325,0 498,0 498,-41"/>
<text text-anchor="start" x="333" y="-29" font-family="Helvetica,sans-Serif" font-size="10.00">/home/runner/work/no</text>
<text text-anchor="start" x="333" y="-18" font-family="Helvetica,sans-Serif" font-size="10.00">&#45;OS/no&#45;OS/drivers/platform</text>
<text text-anchor="middle" x="411.5" y="-7" font-family="Helvetica,sans-Serif" font-size="10.00">/maxim/max32650/maxim_rtc.c</text>
</a>
</g>
</g>
<!-- Node1&#45;&gt;Node4 -->
<g id="edge3_Node000001_Node000004" class="edge">
<title>Node1&#45;&gt;Node4</title>
<g id="a_edge3_Node000001_Node000004"><a xlink:title=" ">
<path fill="none" stroke="#63b8ff" d="M1162.28,-174.25C967.7,-175.52 443.64,-173.68 391.5,-118 372.09,-97.27 386.26,-62.85 398.62,-41.21"/>
<polygon fill="#63b8ff" stroke="#63b8ff" points="1162.43,-177.75 1172.4,-174.18 1162.38,-170.75 1162.43,-177.75"/>
</a>
</g>
</g>
<!-- Node5 -->
<g id="Node000005" class="node">
<title>Node5</title>
<g id="a_Node000005"><a xlink:href="max32650_2maxim__rtc_8h.html" target="_top" xlink:title="Header file of RTC driver.">
<polygon fill="white" stroke="#666666" points="574,-118 401,-118 401,-77 574,-77 574,-118"/>
<text text-anchor="start" x="409" y="-106" font-family="Helvetica,sans-Serif" font-size="10.00">/home/runner/work/no</text>
<text text-anchor="start" x="409" y="-95" font-family="Helvetica,sans-Serif" font-size="10.00">&#45;OS/no&#45;OS/drivers/platform</text>
<text text-anchor="middle" x="487.5" y="-84" font-family="Helvetica,sans-Serif" font-size="10.00">/maxim/max32650/maxim_rtc.h</text>
</a>
</g>
</g>
<!-- Node1&#45;&gt;Node5 -->
<g id="edge4_Node000001_Node000005" class="edge">
<title>Node1&#45;&gt;Node5</title>
<g id="a_edge4_Node000001_Node000005"><a xlink:title=" ">
<path fill="none" stroke="#63b8ff" d="M1162.21,-169.77C1042.49,-163.04 795.69,-146.82 588.5,-118 583.81,-117.35 579.01,-116.62 574.18,-115.84"/>
<polygon fill="#63b8ff" stroke="#63b8ff" points="1162.17,-173.28 1172.35,-170.34 1162.56,-166.29 1162.17,-173.28"/>
</a>
</g>
</g>
<!-- Node6 -->
<g id="Node000006" class="node">
<title>Node6</title>
<g id="a_Node000006"><a xlink:href="max32655_2maxim__rtc_8c.html" target="_top" xlink:title="Implementation of RTC driver.">
<polygon fill="white" stroke="#666666" points="708,-41 535,-41 535,0 708,0 708,-41"/>
<text text-anchor="start" x="543" y="-29" font-family="Helvetica,sans-Serif" font-size="10.00">/home/runner/work/no</text>
<text text-anchor="start" x="543" y="-18" font-family="Helvetica,sans-Serif" font-size="10.00">&#45;OS/no&#45;OS/drivers/platform</text>
<text text-anchor="middle" x="621.5" y="-7" font-family="Helvetica,sans-Serif" font-size="10.00">/maxim/max32655/maxim_rtc.c</text>
</a>
</g>
</g>
<!-- Node1&#45;&gt;Node6 -->
<g id="edge6_Node000001_Node000006" class="edge">
<title>Node1&#45;&gt;Node6</title>
<g id="a_edge6_Node000001_Node000006"><a xlink:title=" ">
<path fill="none" stroke="#63b8ff" d="M1162.03,-172.3C1007.63,-169.01 657.34,-157.24 621.5,-118 602.74,-97.47 608.31,-62.99 614.54,-41.28"/>
<polygon fill="#63b8ff" stroke="#63b8ff" points="1162.29,-175.81 1172.36,-172.52 1162.43,-168.81 1162.29,-175.81"/>
</a>
</g>
</g>
<!-- Node7 -->
<g id="Node000007" class="node">
<title>Node7</title>
<g id="a_Node000007"><a xlink:href="max32655_2maxim__rtc_8h.html" target="_top" xlink:title="Header file of RTC driver.">
<polygon fill="white" stroke="#666666" points="804,-118 631,-118 631,-77 804,-77 804,-118"/>
<text text-anchor="start" x="639" y="-106" font-family="Helvetica,sans-Serif" font-size="10.00">/home/runner/work/no</text>
<text text-anchor="start" x="639" y="-95" font-family="Helvetica,sans-Serif" font-size="10.00">&#45;OS/no&#45;OS/drivers/platform</text>
<text text-anchor="middle" x="717.5" y="-84" font-family="Helvetica,sans-Serif" font-size="10.00">/maxim/max32655/maxim_rtc.h</text>
</a>
</g>
</g>
<!-- Node1&#45;&gt;Node7 -->
<g id="edge7_Node000001_Node000007" class="edge">
<title>Node1&#45;&gt;Node7</title>
<g id="a_edge7_Node000001_Node000007"><a xlink:title=" ">
<path fill="none" stroke="#63b8ff" d="M1162.22,-165.15C1079.09,-155.24 938.62,-137.59 818.5,-118 813.83,-117.24 809.04,-116.43 804.22,-115.58"/>
<polygon fill="#63b8ff" stroke="#63b8ff" points="1161.97,-168.64 1172.31,-166.35 1162.79,-161.69 1161.97,-168.64"/>
</a>
</g>
</g>
<!-- Node8 -->
<g id="Node000008" class="node">
<title>Node8</title>
<g id="a_Node000008"><a xlink:href="max32660_2maxim__rtc_8c.html" target="_top" xlink:title="Implementation of RTC driver.">
<polygon fill="white" stroke="#666666" points="938,-41 765,-41 765,0 938,0 938,-41"/>
<text text-anchor="start" x="773" y="-29" font-family="Helvetica,sans-Serif" font-size="10.00">/home/runner/work/no</text>
<text text-anchor="start" x="773" y="-18" font-family="Helvetica,sans-Serif" font-size="10.00">&#45;OS/no&#45;OS/drivers/platform</text>
<text text-anchor="middle" x="851.5" y="-7" font-family="Helvetica,sans-Serif" font-size="10.00">/maxim/max32660/maxim_rtc.c</text>
</a>
</g>
</g>
<!-- Node1&#45;&gt;Node8 -->
<g id="edge9_Node000001_Node000008" class="edge">
<title>Node1&#45;&gt;Node8</title>
<g id="a_edge9_Node000001_Node000008"><a xlink:title=" ">
<path fill="none" stroke="#63b8ff" d="M1162.24,-173.8C1062.61,-172.5 890.88,-163.49 851.5,-118 833.3,-96.97 838.7,-62.64 844.75,-41.1"/>
<polygon fill="#63b8ff" stroke="#63b8ff" points="1162.2,-177.3 1172.24,-173.91 1162.28,-170.3 1162.2,-177.3"/>
</a>
</g>
</g>
<!-- Node9 -->
<g id="Node000009" class="node">
<title>Node9</title>
<g id="a_Node000009"><a xlink:href="max32660_2maxim__rtc_8h.html" target="_top" xlink:title="Header file of RTC driver.">
<polygon fill="white" stroke="#666666" points="1034,-118 861,-118 861,-77 1034,-77 1034,-118"/>
<text text-anchor="start" x="869" y="-106" font-family="Helvetica,sans-Serif" font-size="10.00">/home/runner/work/no</text>
<text text-anchor="start" x="869" y="-95" font-family="Helvetica,sans-Serif" font-size="10.00">&#45;OS/no&#45;OS/drivers/platform</text>
<text text-anchor="middle" x="947.5" y="-84" font-family="Helvetica,sans-Serif" font-size="10.00">/maxim/max32660/maxim_rtc.h</text>
</a>
</g>
</g>
<!-- Node1&#45;&gt;Node9 -->
<g id="edge10_Node000001_Node000009" class="edge">
<title>Node1&#45;&gt;Node9</title>
<g id="a_edge10_Node000001_Node000009"><a xlink:title=" ">
<path fill="none" stroke="#63b8ff" d="M1162.44,-154.67C1119.61,-143.48 1065.39,-129.31 1022.13,-118"/>
<polygon fill="#63b8ff" stroke="#63b8ff" points="1161.67,-158.08 1172.23,-157.23 1163.44,-151.31 1161.67,-158.08"/>
</a>
</g>
</g>
<!-- Node10 -->
<g id="Node000010" class="node">
<title>Node10</title>
<g id="a_Node000010"><a xlink:href="max32662_2maxim__rtc_8c.html" target="_top" xlink:title="Implementation of RTC driver.">
<polygon fill="white" stroke="#666666" points="1168,-41 995,-41 995,0 1168,0 1168,-41"/>
<text text-anchor="start" x="1003" y="-29" font-family="Helvetica,sans-Serif" font-size="10.00">/home/runner/work/no</text>
<text text-anchor="start" x="1003" y="-18" font-family="Helvetica,sans-Serif" font-size="10.00">&#45;OS/no&#45;OS/drivers/platform</text>
<text text-anchor="middle" x="1081.5" y="-7" font-family="Helvetica,sans-Serif" font-size="10.00">/maxim/max32662/maxim_rtc.c</text>
</a>
</g>
</g>
<!-- Node1&#45;&gt;Node10 -->
<g id="edge12_Node000001_Node000010" class="edge">
<title>Node1&#45;&gt;Node10</title>
<g id="a_edge12_Node000001_Node000010"><a xlink:title=" ">
<path fill="none" stroke="#63b8ff" d="M1162.29,-165.49C1132.16,-158.18 1099.93,-144.3 1081.5,-118 1065.73,-95.5 1070.16,-62.23 1075.39,-41.21"/>
<polygon fill="#63b8ff" stroke="#63b8ff" points="1161.89,-168.99 1172.41,-167.73 1163.4,-162.16 1161.89,-168.99"/>
</a>
</g>
</g>
<!-- Node11 -->
<g id="Node000011" class="node">
<title>Node11</title>
<g id="a_Node000011"><a xlink:href="max32662_2maxim__rtc_8h.html" target="_top" xlink:title="Header file of RTC driver.">
<polygon fill="white" stroke="#666666" points="1264,-118 1091,-118 1091,-77 1264,-77 1264,-118"/>
<text text-anchor="start" x="1099" y="-106" font-family="Helvetica,sans-Serif" font-size="10.00">/home/runner/work/no</text>
<text text-anchor="start" x="1099" y="-95" font-family="Helvetica,sans-Serif" font-size="10.00">&#45;OS/no&#45;OS/drivers/platform</text>
<text text-anchor="middle" x="1177.5" y="-84" font-family="Helvetica,sans-Serif" font-size="10.00">/maxim/max32662/maxim_rtc.h</text>
</a>
</g>
</g>
<!-- Node1&#45;&gt;Node11 -->
<g id="edge13_Node000001_Node000011" class="edge">
<title>Node1&#45;&gt;Node11</title>
<g id="a_edge13_Node000001_Node000011"><a xlink:title=" ">
<path fill="none" stroke="#63b8ff" d="M1213.35,-145.67C1206.38,-136.5 1198.78,-126.5 1192.38,-118.07"/>
<polygon fill="#63b8ff" stroke="#63b8ff" points="1210.69,-147.95 1219.52,-153.79 1216.26,-143.72 1210.69,-147.95"/>
</a>
</g>
</g>
<!-- Node12 -->
<g id="Node000012" class="node">
<title>Node12</title>
<g id="a_Node000012"><a xlink:href="max32665_2maxim__rtc_8c.html" target="_top" xlink:title="Implementation of RTC driver.">
<polygon fill="white" stroke="#666666" points="1398,-41 1225,-41 1225,0 1398,0 1398,-41"/>
<text text-anchor="start" x="1233" y="-29" font-family="Helvetica,sans-Serif" font-size="10.00">/home/runner/work/no</text>
<text text-anchor="start" x="1233" y="-18" font-family="Helvetica,sans-Serif" font-size="10.00">&#45;OS/no&#45;OS/drivers/platform</text>
<text text-anchor="middle" x="1311.5" y="-7" font-family="Helvetica,sans-Serif" font-size="10.00">/maxim/max32665/maxim_rtc.c</text>
</a>
</g>
</g>
<!-- Node1&#45;&gt;Node12 -->
<g id="edge15_Node000001_Node000012" class="edge">
<title>Node1&#45;&gt;Node12</title>
<g id="a_edge15_Node000001_Node000012"><a xlink:title=" ">
<path fill="none" stroke="#63b8ff" d="M1255.3,-145.65C1261.26,-137.03 1267.49,-127.34 1272.5,-118 1286.16,-92.52 1297.98,-61.19 1304.92,-41.28"/>
<polygon fill="#63b8ff" stroke="#63b8ff" points="1252.41,-143.68 1249.49,-153.86 1258.12,-147.73 1252.41,-143.68"/>
</a>
</g>
</g>
<!-- Node13 -->
<g id="Node000013" class="node">
<title>Node13</title>
<g id="a_Node000013"><a xlink:href="max32665_2maxim__rtc_8h.html" target="_top" xlink:title="Header file of RTC driver.">
<polygon fill="white" stroke="#666666" points="1494,-118 1321,-118 1321,-77 1494,-77 1494,-118"/>
<text text-anchor="start" x="1329" y="-106" font-family="Helvetica,sans-Serif" font-size="10.00">/home/runner/work/no</text>
<text text-anchor="start" x="1329" y="-95" font-family="Helvetica,sans-Serif" font-size="10.00">&#45;OS/no&#45;OS/drivers/platform</text>
<text text-anchor="middle" x="1407.5" y="-84" font-family="Helvetica,sans-Serif" font-size="10.00">/maxim/max32665/maxim_rtc.h</text>
</a>
</g>
</g>
<!-- Node1&#45;&gt;Node13 -->
<g id="edge16_Node000001_Node000013" class="edge">
<title>Node1&#45;&gt;Node13</title>
<g id="a_edge16_Node000001_Node000013"><a xlink:title=" ">
<path fill="none" stroke="#63b8ff" d="M1288.72,-150C1312.41,-139.72 1339.87,-127.82 1362.42,-118.04"/>
<polygon fill="#63b8ff" stroke="#63b8ff" points="1287.28,-146.8 1279.5,-153.99 1290.07,-153.22 1287.28,-146.8"/>
</a>
</g>
</g>
<!-- Node14 -->
<g id="Node000014" class="node">
<title>Node14</title>
<g id="a_Node000014"><a xlink:href="max32670_2maxim__rtc_8c.html" target="_top" xlink:title="Implementation of RTC driver.">
<polygon fill="white" stroke="#666666" points="1628,-41 1455,-41 1455,0 1628,0 1628,-41"/>
<text text-anchor="start" x="1463" y="-29" font-family="Helvetica,sans-Serif" font-size="10.00">/home/runner/work/no</text>
<text text-anchor="start" x="1463" y="-18" font-family="Helvetica,sans-Serif" font-size="10.00">&#45;OS/no&#45;OS/drivers/platform</text>
<text text-anchor="middle" x="1541.5" y="-7" font-family="Helvetica,sans-Serif" font-size="10.00">/maxim/max32670/maxim_rtc.c</text>
</a>
</g>
</g>
<!-- Node1&#45;&gt;Node14 -->
<g id="edge18_Node000001_Node000014" class="edge">
<title>Node1&#45;&gt;Node14</title>
<g id="a_edge18_Node000001_Node000014"><a xlink:title=" ">
<path fill="none" stroke="#63b8ff" d="M1306.52,-166.27C1375.48,-158.02 1473.25,-142.41 1502.5,-118 1525.67,-98.66 1535.21,-63.49 1539.04,-41.37"/>
<polygon fill="#63b8ff" stroke="#63b8ff" points="1306.09,-162.8 1296.56,-167.44 1306.9,-169.75 1306.09,-162.8"/>
</a>
</g>
</g>
<!-- Node15 -->
<g id="Node000015" class="node">
<title>Node15</title>
<g id="a_Node000015"><a xlink:href="max32670_2maxim__rtc_8h.html" target="_top" xlink:title="Header file of RTC driver.">
<polygon fill="white" stroke="#666666" points="1724,-118 1551,-118 1551,-77 1724,-77 1724,-118"/>
<text text-anchor="start" x="1559" y="-106" font-family="Helvetica,sans-Serif" font-size="10.00">/home/runner/work/no</text>
<text text-anchor="start" x="1559" y="-95" font-family="Helvetica,sans-Serif" font-size="10.00">&#45;OS/no&#45;OS/drivers/platform</text>
<text text-anchor="middle" x="1637.5" y="-84" font-family="Helvetica,sans-Serif" font-size="10.00">/maxim/max32670/maxim_rtc.h</text>
</a>
</g>
</g>
<!-- Node1&#45;&gt;Node15 -->
<g id="edge19_Node000001_Node000015" class="edge">
<title>Node1&#45;&gt;Node15</title>
<g id="a_edge19_Node000001_Node000015"><a xlink:title=" ">
<path fill="none" stroke="#63b8ff" d="M1306.65,-160.43C1367.86,-149.29 1457.97,-132.8 1536.5,-118 1541.15,-117.12 1545.92,-116.22 1550.74,-115.3"/>
<polygon fill="#63b8ff" stroke="#63b8ff" points="1305.92,-157 1296.71,-162.24 1307.17,-163.89 1305.92,-157"/>
</a>
</g>
</g>
<!-- Node16 -->
<g id="Node000016" class="node">
<title>Node16</title>
<g id="a_Node000016"><a xlink:href="max32672_2maxim__rtc_8c.html" target="_top" xlink:title="Implementation of RTC driver.">
<polygon fill="white" stroke="#666666" points="1896,-41 1723,-41 1723,0 1896,0 1896,-41"/>
<text text-anchor="start" x="1731" y="-29" font-family="Helvetica,sans-Serif" font-size="10.00">/home/runner/work/no</text>
<text text-anchor="start" x="1731" y="-18" font-family="Helvetica,sans-Serif" font-size="10.00">&#45;OS/no&#45;OS/drivers/platform</text>
<text text-anchor="middle" x="1809.5" y="-7" font-family="Helvetica,sans-Serif" font-size="10.00">/maxim/max32672/maxim_rtc.c</text>
</a>
</g>
</g>
<!-- Node1&#45;&gt;Node16 -->
<g id="edge21_Node000001_Node000016" class="edge">
<title>Node1&#45;&gt;Node16</title>
<g id="a_edge21_Node000001_Node000016"><a xlink:title=" ">
<path fill="none" stroke="#63b8ff" d="M1306.98,-172.17C1427.05,-168.86 1661.08,-157.4 1732.5,-118 1749.01,-108.89 1779.22,-66.69 1796.48,-41.21"/>
<polygon fill="#63b8ff" stroke="#63b8ff" points="1306.68,-168.68 1296.78,-172.44 1306.87,-175.67 1306.68,-168.68"/>
</a>
</g>
</g>
<!-- Node17 -->
<g id="Node000017" class="node">
<title>Node17</title>
<g id="a_Node000017"><a xlink:href="max32672_2maxim__rtc_8h.html" target="_top" xlink:title="Header file of RTC driver.">
<polygon fill="white" stroke="#666666" points="1954,-118 1781,-118 1781,-77 1954,-77 1954,-118"/>
<text text-anchor="start" x="1789" y="-106" font-family="Helvetica,sans-Serif" font-size="10.00">/home/runner/work/no</text>
<text text-anchor="start" x="1789" y="-95" font-family="Helvetica,sans-Serif" font-size="10.00">&#45;OS/no&#45;OS/drivers/platform</text>
<text text-anchor="middle" x="1867.5" y="-84" font-family="Helvetica,sans-Serif" font-size="10.00">/maxim/max32672/maxim_rtc.h</text>
</a>
</g>
</g>
<!-- Node1&#45;&gt;Node17 -->
<g id="edge22_Node000001_Node000017" class="edge">
<title>Node1&#45;&gt;Node17</title>
<g id="a_edge22_Node000001_Node000017"><a xlink:title=" ">
<path fill="none" stroke="#63b8ff" d="M1306.8,-167.96C1409.38,-159.64 1602.87,-142.28 1766.5,-118 1771.18,-117.31 1775.98,-116.55 1780.81,-115.74"/>
<polygon fill="#63b8ff" stroke="#63b8ff" points="1306.25,-164.49 1296.56,-168.78 1306.81,-171.47 1306.25,-164.49"/>
</a>
</g>
</g>
<!-- Node18 -->
<g id="Node000018" class="node">
<title>Node18</title>
<g id="a_Node000018"><a xlink:href="max32690_2maxim__rtc_8c.html" target="_top" xlink:title="Implementation of RTC driver.">
<polygon fill="white" stroke="#666666" points="2145,-118 1972,-118 1972,-77 2145,-77 2145,-118"/>
<text text-anchor="start" x="1980" y="-106" font-family="Helvetica,sans-Serif" font-size="10.00">/home/runner/work/no</text>
<text text-anchor="start" x="1980" y="-95" font-family="Helvetica,sans-Serif" font-size="10.00">&#45;OS/no&#45;OS/drivers/platform</text>
<text text-anchor="middle" x="2058.5" y="-84" font-family="Helvetica,sans-Serif" font-size="10.00">/maxim/max32690/maxim_rtc.c</text>
</a>
</g>
</g>
<!-- Node1&#45;&gt;Node18 -->
<g id="edge24_Node000001_Node000018" class="edge">
<title>Node1&#45;&gt;Node18</title>
<g id="a_edge24_Node000001_Node000018"><a xlink:title=" ">
<path fill="none" stroke="#63b8ff" d="M1306.94,-170.96C1438.18,-165.7 1723.83,-151.21 1962.5,-118 1965.62,-117.57 1968.78,-117.09 1971.98,-116.59"/>
<polygon fill="#63b8ff" stroke="#63b8ff" points="1306.47,-167.48 1296.62,-171.37 1306.75,-174.47 1306.47,-167.48"/>
</a>
</g>
</g>
<!-- Node19 -->
<g id="Node000019" class="node">
<title>Node19</title>
<g id="a_Node000019"><a xlink:href="max78000_2maxim__rtc_8c.html" target="_top" xlink:title="Implementation of RTC driver.">
<polygon fill="white" stroke="#666666" points="2317,-41 2144,-41 2144,0 2317,0 2317,-41"/>
<text text-anchor="start" x="2152" y="-29" font-family="Helvetica,sans-Serif" font-size="10.00">/home/runner/work/no</text>
<text text-anchor="start" x="2152" y="-18" font-family="Helvetica,sans-Serif" font-size="10.00">&#45;OS/no&#45;OS/drivers/platform</text>
<text text-anchor="middle" x="2230.5" y="-7" font-family="Helvetica,sans-Serif" font-size="10.00">/maxim/max78000/maxim_rtc.c</text>
</a>
</g>
</g>
<!-- Node1&#45;&gt;Node19 -->
<g id="edge25_Node000001_Node000019" class="edge">
<title>Node1&#45;&gt;Node19</title>
<g id="a_edge25_Node000001_Node000019"><a xlink:title=" ">
<path fill="none" stroke="#63b8ff" d="M1306.84,-172.49C1510.57,-169.19 2079.17,-156.59 2153.5,-118 2170.24,-109.31 2200.36,-66.96 2217.55,-41.34"/>
<polygon fill="#63b8ff" stroke="#63b8ff" points="1306.78,-168.99 1296.84,-172.65 1306.89,-175.99 1306.78,-168.99"/>
</a>
</g>
</g>
<!-- Node20 -->
<g id="Node000020" class="node">
<title>Node20</title>
<g id="a_Node000020"><a xlink:href="max78000_2maxim__rtc_8h.html" target="_top" xlink:title="Header file of RTC driver.">
<polygon fill="white" stroke="#666666" points="2375,-118 2202,-118 2202,-77 2375,-77 2375,-118"/>
<text text-anchor="start" x="2210" y="-106" font-family="Helvetica,sans-Serif" font-size="10.00">/home/runner/work/no</text>
<text text-anchor="start" x="2210" y="-95" font-family="Helvetica,sans-Serif" font-size="10.00">&#45;OS/no&#45;OS/drivers/platform</text>
<text text-anchor="middle" x="2288.5" y="-84" font-family="Helvetica,sans-Serif" font-size="10.00">/maxim/max78000/maxim_rtc.h</text>
</a>
</g>
</g>
<!-- Node1&#45;&gt;Node20 -->
<g id="edge26_Node000001_Node000020" class="edge">
<title>Node1&#45;&gt;Node20</title>
<g id="a_edge26_Node000001_Node000020"><a xlink:title=" ">
<path fill="none" stroke="#63b8ff" d="M1306.81,-172.55C1466.37,-169.75 1860.44,-158.91 2187.5,-118 2192.2,-117.41 2197,-116.74 2201.84,-116"/>
<polygon fill="#63b8ff" stroke="#63b8ff" points="1306.58,-169.06 1296.64,-172.73 1306.7,-176.06 1306.58,-169.06"/>
</a>
</g>
</g>
<!-- Node21 -->
<g id="Node000021" class="node">
<title>Node21</title>
<g id="a_Node000021"><a xlink:href="wethlink_2src_2app_2main_8c.html" target="_top" xlink:title=" ">
<polygon fill="white" stroke="#666666" points="2546,-118 2393,-118 2393,-77 2546,-77 2546,-118"/>
<text text-anchor="start" x="2401" y="-106" font-family="Helvetica,sans-Serif" font-size="10.00">/home/runner/work/no</text>
<text text-anchor="start" x="2401" y="-95" font-family="Helvetica,sans-Serif" font-size="10.00">&#45;OS/no&#45;OS/projects/wethlink</text>
<text text-anchor="middle" x="2469.5" y="-84" font-family="Helvetica,sans-Serif" font-size="10.00">/src/app/main.c</text>
</a>
</g>
</g>
<!-- Node1&#45;&gt;Node21 -->
<g id="edge28_Node000001_Node000021" class="edge">
<title>Node1&#45;&gt;Node21</title>
<g id="a_edge28_Node000001_Node000021"><a xlink:title=" ">
<path fill="none" stroke="#63b8ff" d="M1306.87,-171.69C1525.14,-165.96 2174.84,-146.88 2384.5,-118 2387.2,-117.63 2389.94,-117.21 2392.7,-116.76"/>
<polygon fill="#63b8ff" stroke="#63b8ff" points="1306.71,-168.19 1296.8,-171.95 1306.89,-175.19 1306.71,-168.19"/>
</a>
</g>
</g>
<!-- Node5&#45;&gt;Node4 -->
<g id="edge5_Node000005_Node000004" class="edge">
<title>Node5&#45;&gt;Node4</title>
<g id="a_edge5_Node000005_Node000004"><a xlink:title=" ">
<path fill="none" stroke="#63b8ff" d="M460.15,-69.51C450.63,-60.11 440.13,-49.76 431.33,-41.07"/>
<polygon fill="#63b8ff" stroke="#63b8ff" points="457.96,-72.26 467.53,-76.79 462.87,-67.28 457.96,-72.26"/>
</a>
</g>
</g>
<!-- Node7&#45;&gt;Node6 -->
<g id="edge8_Node000007_Node000006" class="edge">
<title>Node7&#45;&gt;Node6</title>
<g id="a_edge8_Node000007_Node000006"><a xlink:title=" ">
<path fill="none" stroke="#63b8ff" d="M684.62,-70.82C672.21,-61.11 658.28,-50.24 646.68,-41.17"/>
<polygon fill="#63b8ff" stroke="#63b8ff" points="682.49,-73.59 692.53,-76.99 686.8,-68.08 682.49,-73.59"/>
</a>
</g>
</g>
<!-- Node9&#45;&gt;Node8 -->
<g id="edge11_Node000009_Node000008" class="edge">
<title>Node9&#45;&gt;Node8</title>
<g id="a_edge11_Node000009_Node000008"><a xlink:title=" ">
<path fill="none" stroke="#63b8ff" d="M914.62,-70.82C902.21,-61.11 888.28,-50.24 876.68,-41.17"/>
<polygon fill="#63b8ff" stroke="#63b8ff" points="912.49,-73.59 922.53,-76.99 916.8,-68.08 912.49,-73.59"/>
</a>
</g>
</g>
<!-- Node11&#45;&gt;Node10 -->
<g id="edge14_Node000011_Node000010" class="edge">
<title>Node11&#45;&gt;Node10</title>
<g id="a_edge14_Node000011_Node000010"><a xlink:title=" ">
<path fill="none" stroke="#63b8ff" d="M1144.62,-70.82C1132.21,-61.11 1118.28,-50.24 1106.68,-41.17"/>
<polygon fill="#63b8ff" stroke="#63b8ff" points="1142.49,-73.59 1152.53,-76.99 1146.8,-68.08 1142.49,-73.59"/>
</a>
</g>
</g>
<!-- Node13&#45;&gt;Node12 -->
<g id="edge17_Node000013_Node000012" class="edge">
<title>Node13&#45;&gt;Node12</title>
<g id="a_edge17_Node000013_Node000012"><a xlink:title=" ">
<path fill="none" stroke="#63b8ff" d="M1374.62,-70.82C1362.21,-61.11 1348.28,-50.24 1336.68,-41.17"/>
<polygon fill="#63b8ff" stroke="#63b8ff" points="1372.49,-73.59 1382.53,-76.99 1376.8,-68.08 1372.49,-73.59"/>
</a>
</g>
</g>
<!-- Node15&#45;&gt;Node14 -->
<g id="edge20_Node000015_Node000014" class="edge">
<title>Node15&#45;&gt;Node14</title>
<g id="a_edge20_Node000015_Node000014"><a xlink:title=" ">
<path fill="none" stroke="#63b8ff" d="M1604.62,-70.82C1592.21,-61.11 1578.28,-50.24 1566.68,-41.17"/>
<polygon fill="#63b8ff" stroke="#63b8ff" points="1602.49,-73.59 1612.53,-76.99 1606.8,-68.08 1602.49,-73.59"/>
</a>
</g>
</g>
<!-- Node17&#45;&gt;Node16 -->
<g id="edge23_Node000017_Node000016" class="edge">
<title>Node17&#45;&gt;Node16</title>
<g id="a_edge23_Node000017_Node000016"><a xlink:title=" ">
<path fill="none" stroke="#63b8ff" d="M1845.98,-68.67C1838.89,-59.5 1831.15,-49.5 1824.64,-41.07"/>
<polygon fill="#63b8ff" stroke="#63b8ff" points="1843.37,-71.03 1852.26,-76.79 1848.91,-66.74 1843.37,-71.03"/>
</a>
</g>
</g>
<!-- Node20&#45;&gt;Node19 -->
<g id="edge27_Node000020_Node000019" class="edge">
<title>Node20&#45;&gt;Node19</title>
<g id="a_edge27_Node000020_Node000019"><a xlink:title=" ">
<path fill="none" stroke="#63b8ff" d="M2266.98,-68.67C2259.89,-59.5 2252.15,-49.5 2245.64,-41.07"/>
<polygon fill="#63b8ff" stroke="#63b8ff" points="2264.37,-71.03 2273.26,-76.79 2269.91,-66.74 2264.37,-71.03"/>
</a>
</g>
</g>
</g>
</svg>
