<?xml version="1.0" encoding="UTF-8" standalone="no"?>
<!DOCTYPE svg PUBLIC "-//W3C//DTD SVG 1.1//EN"
 "http://www.w3.org/Graphics/SVG/1.1/DTD/svg11.dtd">
<!-- Generated by graphviz version 2.43.0 (0)
 -->
<!-- Title: no_os_pwm_disable Pages: 1 -->
<svg width="656pt" height="228pt"
 viewBox="0.00 0.00 656.00 227.50" xmlns="http://www.w3.org/2000/svg" xmlns:xlink="http://www.w3.org/1999/xlink">
<g id="graph0" class="graph" transform="scale(1 1) rotate(0) translate(4 223.5)">
<title>no_os_pwm_disable</title>
<!-- Node1 -->
<g id="Node000001" class="node">
<title>Node1</title>
<g id="a_Node000001"><a xlink:title="Disable PWM signal generation.">
<polygon fill="#999999" stroke="#666666" points="648,-124.5 533,-124.5 533,-105.5 648,-105.5 648,-124.5"/>
<text text-anchor="middle" x="590.5" y="-112.5" font-family="Helvetica,sans-Serif" font-size="10.00">no_os_pwm_disable</text>
</a>
</g>
</g>
<!-- Node2 -->
<g id="Node000002" class="node">
<title>Node2</title>
<g id="a_Node000002"><a xlink:href="ad4692_8c.html#a6bdbf34077fe175a1837ca3a2873a028" target="_top" xlink:title=" ">
<polygon fill="white" stroke="#666666" points="483.5,-218.5 342.5,-218.5 342.5,-199.5 483.5,-199.5 483.5,-218.5"/>
<text text-anchor="middle" x="413" y="-206.5" font-family="Helvetica,sans-Serif" font-size="10.00">ad4692_sampling_enable</text>
</a>
</g>
</g>
<!-- Node1&#45;&gt;Node2 -->
<g id="edge1_Node000001_Node000002" class="edge">
<title>Node1&#45;&gt;Node2</title>
<g id="a_edge1_Node000001_Node000002"><a xlink:title=" ">
<path fill="none" stroke="#63b8ff" d="M573.48,-131.93C556.21,-149.14 527.14,-175.32 497,-190 489.03,-193.88 480.23,-196.99 471.44,-199.47"/>
<polygon fill="#63b8ff" stroke="#63b8ff" points="576.04,-134.31 580.54,-124.72 571.04,-129.41 576.04,-134.31"/>
</a>
</g>
</g>
<!-- Node5 -->
<g id="Node000005" class="node">
<title>Node5</title>
<g id="a_Node000005"><a xlink:href="ad469x_8c.html#abda6b9d65e0b6e2a82390a09a8f08eb8" target="_top" xlink:title="Exit conversion mode. Enter register mode to read/write registers.">
<polygon fill="white" stroke="#666666" points="497,-180.5 329,-180.5 329,-161.5 497,-161.5 497,-180.5"/>
<text text-anchor="middle" x="413" y="-168.5" font-family="Helvetica,sans-Serif" font-size="10.00">ad469x_exit_conversion_mode</text>
</a>
</g>
</g>
<!-- Node1&#45;&gt;Node5 -->
<g id="edge4_Node000001_Node000005" class="edge">
<title>Node1&#45;&gt;Node5</title>
<g id="a_edge4_Node000001_Node000005"><a xlink:title=" ">
<path fill="none" stroke="#63b8ff" d="M559.97,-128.69C542.04,-136.61 518.54,-146.3 497,-153 486.72,-156.2 475.56,-159.04 464.85,-161.46"/>
<polygon fill="#63b8ff" stroke="#63b8ff" points="561.61,-131.79 569.31,-124.51 558.75,-125.4 561.61,-131.79"/>
</a>
</g>
</g>
<!-- Node6 -->
<g id="Node000006" class="node">
<title>Node6</title>
<g id="a_Node000006"><a xlink:href="max25603_8c.html#ac9b182a9ed8bf3625d0846b4bd7533b2" target="_top" xlink:title="MAX25603 set and configure BEAM PWM dimming.">
<polygon fill="white" stroke="#666666" points="474,-143.5 352,-143.5 352,-124.5 474,-124.5 474,-143.5"/>
<text text-anchor="middle" x="413" y="-131.5" font-family="Helvetica,sans-Serif" font-size="10.00">max25603_set_beam</text>
</a>
</g>
</g>
<!-- Node1&#45;&gt;Node6 -->
<g id="edge5_Node000001_Node000006" class="edge">
<title>Node1&#45;&gt;Node6</title>
<g id="a_edge5_Node000001_Node000006"><a xlink:title=" ">
<path fill="none" stroke="#63b8ff" d="M522.25,-122.28C506.37,-124 489.55,-125.82 474.01,-127.5"/>
<polygon fill="#63b8ff" stroke="#63b8ff" points="522.96,-125.72 532.52,-121.17 522.2,-118.77 522.96,-125.72"/>
</a>
</g>
</g>
<!-- Node9 -->
<g id="Node000009" class="node">
<title>Node9</title>
<g id="a_Node000009"><a xlink:href="max25603_8c.html#a505e7e1f8ea38019b345f30458c4cd68" target="_top" xlink:title="MAX25603 set and configure ENABLE PWM dimming.">
<polygon fill="white" stroke="#666666" points="476.5,-106.5 349.5,-106.5 349.5,-87.5 476.5,-87.5 476.5,-106.5"/>
<text text-anchor="middle" x="413" y="-94.5" font-family="Helvetica,sans-Serif" font-size="10.00">max25603_set_enable</text>
</a>
</g>
</g>
<!-- Node1&#45;&gt;Node9 -->
<g id="edge9_Node000001_Node000009" class="edge">
<title>Node1&#45;&gt;Node9</title>
<g id="a_edge9_Node000001_Node000009"><a xlink:title=" ">
<path fill="none" stroke="#63b8ff" d="M522.32,-108.11C507.35,-106.57 491.54,-104.95 476.76,-103.44"/>
<polygon fill="#63b8ff" stroke="#63b8ff" points="522.22,-111.62 532.52,-109.16 522.93,-104.65 522.22,-111.62"/>
</a>
</g>
</g>
<!-- Node10 -->
<g id="Node000010" class="node">
<title>Node10</title>
<g id="a_Node000010"><a xlink:href="stm32__spi_8c.html#a50f1db6c12a130f00d92ae3acf9c0589" target="_top" xlink:title=" ">
<polygon fill="white" stroke="#666666" points="483,-68.5 343,-68.5 343,-49.5 483,-49.5 483,-68.5"/>
<text text-anchor="middle" x="413" y="-56.5" font-family="Helvetica,sans-Serif" font-size="10.00">stm32_spi_dma_callback</text>
</a>
</g>
</g>
<!-- Node1&#45;&gt;Node10 -->
<g id="edge12_Node000001_Node000010" class="edge">
<title>Node1&#45;&gt;Node10</title>
<g id="a_edge12_Node000001_Node000010"><a xlink:title=" ">
<path fill="none" stroke="#63b8ff" d="M558.08,-101.55C540.35,-94.28 517.67,-85.48 497,-79 484.7,-75.14 471.17,-71.6 458.67,-68.6"/>
<polygon fill="#63b8ff" stroke="#63b8ff" points="556.79,-104.81 567.37,-105.42 559.48,-98.35 556.79,-104.81"/>
</a>
</g>
</g>
<!-- Node13 -->
<g id="Node000013" class="node">
<title>Node13</title>
<g id="a_Node000013"><a xlink:href="stm32__spi_8c.html#ab30b6267353de9d9f7d9dab38b808021" target="_top" xlink:title="Initialize the SPI communication peripheral.">
<polygon fill="white" stroke="#666666" points="457,-31.5 369,-31.5 369,-12.5 457,-12.5 457,-31.5"/>
<text text-anchor="middle" x="413" y="-19.5" font-family="Helvetica,sans-Serif" font-size="10.00">stm32_spi_init</text>
</a>
</g>
</g>
<!-- Node1&#45;&gt;Node13 -->
<g id="edge15_Node000001_Node000013" class="edge">
<title>Node1&#45;&gt;Node13</title>
<g id="a_edge15_Node000001_Node000013"><a xlink:title=" ">
<path fill="none" stroke="#63b8ff" d="M573.43,-98.31C556.13,-81.33 527.03,-55.5 497,-41 484.62,-35.02 470.28,-30.88 457.04,-28.03"/>
<polygon fill="#63b8ff" stroke="#63b8ff" points="570.97,-100.8 580.51,-105.42 575.93,-95.86 570.97,-100.8"/>
</a>
</g>
</g>
<!-- Node3 -->
<g id="Node000003" class="node">
<title>Node3</title>
<g id="a_Node000003"><a xlink:href="ad4692_8c.html#af81c2d455280fe5c08a0b85e42872f03" target="_top" xlink:title=" ">
<polygon fill="white" stroke="#666666" points="269.5,-219.5 179.5,-219.5 179.5,-200.5 269.5,-200.5 269.5,-219.5"/>
<text text-anchor="middle" x="224.5" y="-207.5" font-family="Helvetica,sans-Serif" font-size="10.00">ad4692_get_ch</text>
</a>
</g>
</g>
<!-- Node2&#45;&gt;Node3 -->
<g id="edge2_Node000002_Node000003" class="edge">
<title>Node2&#45;&gt;Node3</title>
<g id="a_edge2_Node000002_Node000003"><a xlink:title=" ">
<path fill="none" stroke="#63b8ff" d="M332.21,-209.43C310.79,-209.54 288.42,-209.66 269.71,-209.76"/>
<polygon fill="#63b8ff" stroke="#63b8ff" points="332.31,-212.93 342.29,-209.37 332.27,-205.93 332.31,-212.93"/>
</a>
</g>
</g>
<!-- Node4 -->
<g id="Node000004" class="node">
<title>Node4</title>
<g id="a_Node000004"><a xlink:href="ad4692__ardz_2src_2examples_2basic_2basic__example_8c.html#ac25cbf8ae523e89cb0617e68c98bc697" target="_top" xlink:title="Basic example main executiont.">
<polygon fill="white" stroke="#666666" points="104.5,-219.5 15.5,-219.5 15.5,-200.5 104.5,-200.5 104.5,-219.5"/>
<text text-anchor="middle" x="60" y="-207.5" font-family="Helvetica,sans-Serif" font-size="10.00">example_main</text>
</a>
</g>
</g>
<!-- Node3&#45;&gt;Node4 -->
<g id="edge3_Node000003_Node000004" class="edge">
<title>Node3&#45;&gt;Node4</title>
<g id="a_edge3_Node000003_Node000004"><a xlink:title=" ">
<path fill="none" stroke="#63b8ff" d="M169.03,-210C148.03,-210 124.34,-210 104.51,-210"/>
<polygon fill="#63b8ff" stroke="#63b8ff" points="169.1,-213.5 179.1,-210 169.1,-206.5 169.1,-213.5"/>
</a>
</g>
</g>
<!-- Node7 -->
<g id="Node000007" class="node">
<title>Node7</title>
<g id="a_Node000007"><a xlink:href="max25603_2src_2examples_2basic_2basic__example_8c.html#a72943dc9011d36293cb05ca5d7cb6899" target="_top" xlink:title="basic example main execution.">
<polygon fill="white" stroke="#666666" points="120,-143.5 0,-143.5 0,-124.5 120,-124.5 120,-143.5"/>
<text text-anchor="middle" x="60" y="-131.5" font-family="Helvetica,sans-Serif" font-size="10.00">basic_example_main</text>
</a>
</g>
</g>
<!-- Node6&#45;&gt;Node7 -->
<g id="edge6_Node000006_Node000007" class="edge">
<title>Node6&#45;&gt;Node7</title>
<g id="a_edge6_Node000006_Node000007"><a xlink:title=" ">
<path fill="none" stroke="#63b8ff" d="M353.47,-145.23C334.28,-148.41 312.8,-151.43 293,-153 232.3,-157.82 216.59,-159 156,-153 137.25,-151.14 116.73,-147.27 99.57,-143.51"/>
<polygon fill="#63b8ff" stroke="#63b8ff" points="354.3,-148.64 363.57,-143.51 353.13,-141.74 354.3,-148.64"/>
</a>
</g>
</g>
<!-- Node8 -->
<g id="Node000008" class="node">
<title>Node8</title>
<g id="a_Node000008"><a xlink:href="max25603_8c.html#aeacd01230e74bebbc2311031c4d8bf42" target="_top" xlink:title="MAX25603 descriptor initialization function.">
<polygon fill="white" stroke="#666666" points="269,-143.5 180,-143.5 180,-124.5 269,-124.5 269,-143.5"/>
<text text-anchor="middle" x="224.5" y="-131.5" font-family="Helvetica,sans-Serif" font-size="10.00">max25603_init</text>
</a>
</g>
</g>
<!-- Node6&#45;&gt;Node8 -->
<g id="edge7_Node000006_Node000008" class="edge">
<title>Node6&#45;&gt;Node8</title>
<g id="a_edge7_Node000006_Node000008"><a xlink:title=" ">
<path fill="none" stroke="#63b8ff" d="M341.68,-134C317.33,-134 290.74,-134 269.16,-134"/>
<polygon fill="#63b8ff" stroke="#63b8ff" points="341.96,-137.5 351.96,-134 341.96,-130.5 341.96,-137.5"/>
</a>
</g>
</g>
<!-- Node8&#45;&gt;Node7 -->
<g id="edge8_Node000008_Node000007" class="edge">
<title>Node8&#45;&gt;Node7</title>
<g id="a_edge8_Node000008_Node000007"><a xlink:title=" ">
<path fill="none" stroke="#63b8ff" d="M169.78,-134C153.91,-134 136.45,-134 120.25,-134"/>
<polygon fill="#63b8ff" stroke="#63b8ff" points="169.95,-137.5 179.95,-134 169.95,-130.5 169.95,-137.5"/>
</a>
</g>
</g>
<!-- Node9&#45;&gt;Node7 -->
<g id="edge10_Node000009_Node000007" class="edge">
<title>Node9&#45;&gt;Node7</title>
<g id="a_edge10_Node000009_Node000007"><a xlink:title=" ">
<path fill="none" stroke="#63b8ff" d="M339.45,-100.19C288.07,-102.99 217.62,-107.9 156,-116 139.52,-118.17 121.58,-121.35 105.77,-124.44"/>
<polygon fill="#63b8ff" stroke="#63b8ff" points="339.66,-103.69 349.46,-99.66 339.29,-96.7 339.66,-103.69"/>
</a>
</g>
</g>
<!-- Node9&#45;&gt;Node8 -->
<g id="edge11_Node000009_Node000008" class="edge">
<title>Node9&#45;&gt;Node8</title>
<g id="a_edge11_Node000009_Node000008"><a xlink:title=" ">
<path fill="none" stroke="#63b8ff" d="M354.12,-108.48C326.72,-113.92 294.53,-120.3 269.22,-125.33"/>
<polygon fill="#63b8ff" stroke="#63b8ff" points="354.84,-111.91 363.97,-106.53 353.48,-105.04 354.84,-111.91"/>
</a>
</g>
</g>
<!-- Node11 -->
<g id="Node000011" class="node">
<title>Node11</title>
<g id="a_Node000011"><a xlink:href="stm32__spi_8c.html#a523da63f0a8b55feff12987dd565df18" target="_top" xlink:title="Configure and start a series of transfers using DMA. Wait for the completion before returning.">
<polygon fill="white" stroke="#666666" points="293,-67.5 156,-67.5 156,-48.5 293,-48.5 293,-67.5"/>
<text text-anchor="middle" x="224.5" y="-55.5" font-family="Helvetica,sans-Serif" font-size="10.00">stm32_spi_transfer_dma</text>
</a>
</g>
</g>
<!-- Node10&#45;&gt;Node11 -->
<g id="edge13_Node000010_Node000011" class="edge">
<title>Node10&#45;&gt;Node11</title>
<g id="a_edge13_Node000010_Node000011"><a xlink:title=" ">
<path fill="none" stroke="#63b8ff" d="M332.79,-58.58C319.55,-58.5 305.93,-58.43 293.02,-58.36"/>
<polygon fill="#63b8ff" stroke="#63b8ff" points="332.8,-62.08 342.82,-58.63 332.84,-55.08 332.8,-62.08"/>
</a>
</g>
</g>
<!-- Node12 -->
<g id="Node000012" class="node">
<title>Node12</title>
<g id="a_Node000012"><a xlink:href="stm32__spi_8c.html#ac1bb3dc339d72e8eeb06ff5cdba6ce5a" target="_top" xlink:title="Configure and start a series of transfers using DMA. Don&#39;t Wait for the completion before returning.">
<polygon fill="white" stroke="#666666" points="279.5,-30 169.5,-30 169.5,0 279.5,0 279.5,-30"/>
<text text-anchor="start" x="177.5" y="-18" font-family="Helvetica,sans-Serif" font-size="10.00">stm32_spi_transfer</text>
<text text-anchor="middle" x="224.5" y="-7" font-family="Helvetica,sans-Serif" font-size="10.00">_dma_async</text>
</a>
</g>
</g>
<!-- Node10&#45;&gt;Node12 -->
<g id="edge14_Node000010_Node000012" class="edge">
<title>Node10&#45;&gt;Node12</title>
<g id="a_edge14_Node000010_Node000012"><a xlink:title=" ">
<path fill="none" stroke="#63b8ff" d="M356.77,-47.29C347.49,-45.24 337.96,-43.1 329,-41 312.94,-37.24 295.54,-32.96 279.67,-28.96"/>
<polygon fill="#63b8ff" stroke="#63b8ff" points="356.19,-50.74 366.71,-49.46 357.69,-43.9 356.19,-50.74"/>
</a>
</g>
</g>
</g>
</svg>
