<?xml version="1.0" encoding="UTF-8" standalone="no"?>
<!DOCTYPE svg PUBLIC "-//W3C//DTD SVG 1.1//EN"
 "http://www.w3.org/Graphics/SVG/1.1/DTD/svg11.dtd">
<!-- Generated by graphviz version 2.43.0 (0)
 -->
<!-- Title: /home/runner/work/no&#45;OS/no&#45;OS/include/no_os_tdm.h Pages: 1 -->
<svg width="336pt" height="203pt"
 viewBox="0.00 0.00 336.00 203.00" xmlns="http://www.w3.org/2000/svg" xmlns:xlink="http://www.w3.org/1999/xlink">
<g id="graph0" class="graph" transform="scale(1 1) rotate(0) translate(4 199)">
<title>/home/runner/work/no&#45;OS/no&#45;OS/include/no_os_tdm.h</title>
<!-- Node1 -->
<g id="Node000001" class="node">
<title>Node1</title>
<g id="a_Node000001"><a xlink:title="Header file of TDM Interface.">
<polygon fill="#999999" stroke="#666666" points="214,-195 90,-195 90,-154 214,-154 214,-195"/>
<text text-anchor="start" x="98" y="-183" font-family="Helvetica,sans-Serif" font-size="10.00">/home/runner/work/no</text>
<text text-anchor="start" x="98" y="-172" font-family="Helvetica,sans-Serif" font-size="10.00">&#45;OS/no&#45;OS/include/no</text>
<text text-anchor="middle" x="152" y="-161" font-family="Helvetica,sans-Serif" font-size="10.00">_os_tdm.h</text>
</a>
</g>
</g>
<!-- Node2 -->
<g id="Node000002" class="node">
<title>Node2</title>
<g id="a_Node000002"><a xlink:href="no__os__tdm_8c.html" target="_top" xlink:title="Implementation of the TDM interface.">
<polygon fill="white" stroke="#666666" points="124,-118 0,-118 0,-77 124,-77 124,-118"/>
<text text-anchor="start" x="8" y="-106" font-family="Helvetica,sans-Serif" font-size="10.00">/home/runner/work/no</text>
<text text-anchor="start" x="8" y="-95" font-family="Helvetica,sans-Serif" font-size="10.00">&#45;OS/no&#45;OS/drivers/api</text>
<text text-anchor="middle" x="62" y="-84" font-family="Helvetica,sans-Serif" font-size="10.00">/no_os_tdm.c</text>
</a>
</g>
</g>
<!-- Node1&#45;&gt;Node2 -->
<g id="edge1_Node000001_Node000002" class="edge">
<title>Node1&#45;&gt;Node2</title>
<g id="a_edge1_Node000001_Node000002"><a xlink:title=" ">
<path fill="none" stroke="#63b8ff" d="M120.62,-147.35C109.08,-137.73 96.22,-127.01 85.49,-118.07"/>
<polygon fill="#63b8ff" stroke="#63b8ff" points="118.43,-150.08 128.35,-153.79 122.91,-144.7 118.43,-150.08"/>
</a>
</g>
</g>
<!-- Node3 -->
<g id="Node000003" class="node">
<title>Node3</title>
<g id="a_Node000003"><a xlink:href="stm32__tdm_8c.html" target="_top" xlink:title="Implementation of TDM driver using STM32&#39;s SAI peripheral.">
<polygon fill="white" stroke="#666666" points="277,-41 129,-41 129,0 277,0 277,-41"/>
<text text-anchor="start" x="137" y="-29" font-family="Helvetica,sans-Serif" font-size="10.00">/home/runner/work/no</text>
<text text-anchor="start" x="137" y="-18" font-family="Helvetica,sans-Serif" font-size="10.00">&#45;OS/no&#45;OS/drivers/platform</text>
<text text-anchor="middle" x="203" y="-7" font-family="Helvetica,sans-Serif" font-size="10.00">/stm32/stm32_tdm.c</text>
</a>
</g>
</g>
<!-- Node1&#45;&gt;Node3 -->
<g id="edge2_Node000001_Node000003" class="edge">
<title>Node1&#45;&gt;Node3</title>
<g id="a_edge2_Node000001_Node000003"><a xlink:title=" ">
<path fill="none" stroke="#63b8ff" d="M155.3,-143.67C158.07,-124.24 162.91,-98.58 171,-77 175.72,-64.4 183.13,-51.31 189.63,-41.01"/>
<polygon fill="#63b8ff" stroke="#63b8ff" points="151.8,-143.39 153.97,-153.76 158.74,-144.3 151.8,-143.39"/>
</a>
</g>
</g>
<!-- Node4 -->
<g id="Node000004" class="node">
<title>Node4</title>
<g id="a_Node000004"><a xlink:href="stm32__tdm_8h.html" target="_top" xlink:title="Header file for the stm32 tdm driver.">
<polygon fill="white" stroke="#666666" points="328,-118 180,-118 180,-77 328,-77 328,-118"/>
<text text-anchor="start" x="188" y="-106" font-family="Helvetica,sans-Serif" font-size="10.00">/home/runner/work/no</text>
<text text-anchor="start" x="188" y="-95" font-family="Helvetica,sans-Serif" font-size="10.00">&#45;OS/no&#45;OS/drivers/platform</text>
<text text-anchor="middle" x="254" y="-84" font-family="Helvetica,sans-Serif" font-size="10.00">/stm32/stm32_tdm.h</text>
</a>
</g>
</g>
<!-- Node1&#45;&gt;Node4 -->
<g id="edge3_Node000001_Node000004" class="edge">
<title>Node1&#45;&gt;Node4</title>
<g id="a_edge3_Node000001_Node000004"><a xlink:title=" ">
<path fill="none" stroke="#63b8ff" d="M186.93,-147.82C200.12,-138.11 214.92,-127.24 227.25,-118.17"/>
<polygon fill="#63b8ff" stroke="#63b8ff" points="184.52,-145.25 178.53,-153.99 188.66,-150.89 184.52,-145.25"/>
</a>
</g>
</g>
<!-- Node4&#45;&gt;Node3 -->
<g id="edge4_Node000004_Node000003" class="edge">
<title>Node4&#45;&gt;Node3</title>
<g id="a_edge4_Node000004_Node000003"><a xlink:title=" ">
<path fill="none" stroke="#63b8ff" d="M234.89,-68.39C228.7,-59.3 221.98,-49.41 216.31,-41.07"/>
<polygon fill="#63b8ff" stroke="#63b8ff" points="232.08,-70.49 240.6,-76.79 237.87,-66.56 232.08,-70.49"/>
</a>
</g>
</g>
</g>
</svg>
