<?xml version="1.0" encoding="UTF-8" standalone="no"?>
<!DOCTYPE svg PUBLIC "-//W3C//DTD SVG 1.1//EN"
 "http://www.w3.org/Graphics/SVG/1.1/DTD/svg11.dtd">
<!-- Generated by graphviz version 2.43.0 (0)
 -->
<!-- Title: /home/runner/work/no&#45;OS/no&#45;OS/include/no_os_eeprom.h Pages: 1 -->
<!--zoomable 280 -->

<svg id="main" version="1.1" xmlns="http://www.w3.org/2000/svg" xmlns:xlink="http://www.w3.org/1999/xlink" xml:space="preserve" onload="init(evt)">

<style type="text/css"><![CDATA[
.node, .edge {opacity: 0.7;}
.node.selected, .edge.selected {opacity: 1;}
.edge:hover path { stroke: red; }
.edge:hover polygon { stroke: red; fill: red; }
]]></style>

<defs>
  <circle id="rim" cx="0" cy="0" r="7"/>
  <circle id="rim2" cx="0" cy="0" r="3.5"/>
  <g id="zoomPlus">
    <use xlink:href="#rim" fill="#404040"><set attributeName="fill" to="#808080" begin="zoomplus.mouseover" end="zoomplus.mouseout"/></use>
    <path d="M-4,0h8M0,-4v8" fill="none" stroke="white" stroke-width="1.5" pointer-events="none"/>
  </g>
  <g id="zoomMin">
    <use xlink:href="#rim" fill="#404040"><set attributeName="fill" to="#808080" begin="zoomminus.mouseover" end="zoomminus.mouseout"/></use>
    <path d="M-4,0h8" fill="none" stroke="white" stroke-width="1.5" pointer-events="none"/>
  </g>
  <g id="arrowUp" transform="translate(30 24)">
    <use xlink:href="#rim"/>
    <path pointer-events="none" fill="none" stroke="white" stroke-width="1.5" d="M0,-3.0v7 M-2.5,-0.5L0,-3.0L2.5,-0.5"/>
  </g>
  <g id="arrowRight" transform="rotate(90) translate(36 -43)">
    <use xlink:href="#rim"/>
    <path pointer-events="none" fill="none" stroke="white" stroke-width="1.5" d="M0,-3.0v7 M-2.5,-0.5L0,-3.0L2.5,-0.5"/>
  </g>
  <g id="arrowDown" transform="rotate(180) translate(-30 -48)">
    <use xlink:href="#rim"/>
    <path pointer-events="none" fill="none" stroke="white" stroke-width="1.5" d="M0,-3.0v7 M-2.5,-0.5L0,-3.0L2.5,-0.5"/>
  </g>
  <g id="arrowLeft" transform="rotate(270) translate(-36 17)">
    <use xlink:href="#rim"/>
    <path pointer-events="none" fill="none" stroke="white" stroke-width="1.5" d="M0,-3.0v7 M-2.5,-0.5L0,-3.0L2.5,-0.5"/>
  </g>
  <g id="resetDef">
    <use xlink:href="#rim2" fill="#404040"><set attributeName="fill" to="#808080" begin="reset.mouseover" end="reset.mouseout"/></use>
  </g>
</defs>
<script type="application/ecmascript">
var viewWidth = 1217;
var viewHeight = 280;
var sectionId = 'dynsection-1';
</script>
<script type="application/ecmascript" xlink:href="svg.min.js"/>
<svg id="graph" class="graph">
<g id="viewport">
<title>/home/runner/work/no&#45;OS/no&#45;OS/include/no_os_eeprom.h</title>
<!-- Node1 -->
<g id="Node000001" class="node">
<title>Node1</title>
<g id="a_Node000001"><a xlink:title="Header file for EEPROM APIs.">
<polygon fill="#999999" stroke="#666666" points="476,-272 352,-272 352,-231 476,-231 476,-272"/>
<text text-anchor="start" x="360" y="-260" font-family="Helvetica,sans-Serif" font-size="10.00">/home/runner/work/no</text>
<text text-anchor="start" x="360" y="-249" font-family="Helvetica,sans-Serif" font-size="10.00">&#45;OS/no&#45;OS/include/no</text>
<text text-anchor="middle" x="414" y="-238" font-family="Helvetica,sans-Serif" font-size="10.00">_os_eeprom.h</text>
</a>
</g>
</g>
<!-- Node2 -->
<g id="Node000002" class="node">
<title>Node2</title>
<g id="a_Node000002"><a xlink:href="no__os__eeprom_8c.html" target="_top" xlink:title="Implementation of the EEPROM APIs.">
<polygon fill="white" stroke="#666666" points="124,-195 0,-195 0,-154 124,-154 124,-195"/>
<text text-anchor="start" x="8" y="-183" font-family="Helvetica,sans-Serif" font-size="10.00">/home/runner/work/no</text>
<text text-anchor="start" x="8" y="-172" font-family="Helvetica,sans-Serif" font-size="10.00">&#45;OS/no&#45;OS/drivers/api</text>
<text text-anchor="middle" x="62" y="-161" font-family="Helvetica,sans-Serif" font-size="10.00">/no_os_eeprom.c</text>
</a>
</g>
</g>
<!-- Node1&#45;&gt;Node2 -->
<g id="edge1_Node000001_Node000002" class="edge">
<title>Node1&#45;&gt;Node2</title>
<g id="a_edge1_Node000001_Node000002"><a xlink:title=" ">
<path fill="none" stroke="#63b8ff" d="M341.79,-237.74C284.84,-227.31 203.54,-211.63 133,-195 130.14,-194.33 127.22,-193.61 124.27,-192.88"/>
<polygon fill="#63b8ff" stroke="#63b8ff" points="341.31,-241.21 351.77,-239.56 342.56,-234.32 341.31,-241.21"/>
</a>
</g>
</g>
<!-- Node3 -->
<g id="Node000003" class="node">
<title>Node3</title>
<g id="a_Node000003"><a xlink:href="24xx32a_8c.html" target="_top" xlink:title="24AA32A/24LC32A EEPROM Interfaces">
<polygon fill="white" stroke="#666666" points="285.5,-195 142.5,-195 142.5,-154 285.5,-154 285.5,-195"/>
<text text-anchor="start" x="150.5" y="-183" font-family="Helvetica,sans-Serif" font-size="10.00">/home/runner/work/no</text>
<text text-anchor="start" x="150.5" y="-172" font-family="Helvetica,sans-Serif" font-size="10.00">&#45;OS/no&#45;OS/drivers/eeprom</text>
<text text-anchor="middle" x="214" y="-161" font-family="Helvetica,sans-Serif" font-size="10.00">/24xx32a/24xx32a.c</text>
</a>
</g>
</g>
<!-- Node1&#45;&gt;Node3 -->
<g id="edge2_Node000001_Node000003" class="edge">
<title>Node1&#45;&gt;Node3</title>
<g id="a_edge2_Node000001_Node000003"><a xlink:title=" ">
<path fill="none" stroke="#63b8ff" d="M352.41,-227.4C324.77,-217.04 292.53,-204.95 266.11,-195.04"/>
<polygon fill="#63b8ff" stroke="#63b8ff" points="351.38,-230.76 361.97,-230.99 353.84,-224.2 351.38,-230.76"/>
</a>
</g>
</g>
<!-- Node4 -->
<g id="Node000004" class="node">
<title>Node4</title>
<g id="a_Node000004"><a xlink:href="m24512_8c.html" target="_top" xlink:title="Implementation of M24512 EEPROM driver.">
<polygon fill="white" stroke="#666666" points="416.5,-118 273.5,-118 273.5,-77 416.5,-77 416.5,-118"/>
<text text-anchor="start" x="281.5" y="-106" font-family="Helvetica,sans-Serif" font-size="10.00">/home/runner/work/no</text>
<text text-anchor="start" x="281.5" y="-95" font-family="Helvetica,sans-Serif" font-size="10.00">&#45;OS/no&#45;OS/drivers/eeprom</text>
<text text-anchor="middle" x="345" y="-84" font-family="Helvetica,sans-Serif" font-size="10.00">/m24512/m24512.c</text>
</a>
</g>
</g>
<!-- Node1&#45;&gt;Node4 -->
<g id="edge3_Node000001_Node000004" class="edge">
<title>Node1&#45;&gt;Node4</title>
<g id="a_edge3_Node000001_Node000004"><a xlink:title=" ">
<path fill="none" stroke="#63b8ff" d="M361.34,-225.36C349.98,-217.32 339.46,-207.26 333,-195 320.25,-170.8 328.44,-138.59 336.18,-118.19"/>
<polygon fill="#63b8ff" stroke="#63b8ff" points="359.42,-228.29 369.7,-230.85 363.26,-222.44 359.42,-228.29"/>
</a>
</g>
</g>
<!-- Node5 -->
<g id="Node000005" class="node">
<title>Node5</title>
<g id="a_Node000005"><a xlink:href="m24512_8h.html" target="_top" xlink:title="Header file for M24512 EEPROM driver.">
<polygon fill="white" stroke="#666666" points="485.5,-195 342.5,-195 342.5,-154 485.5,-154 485.5,-195"/>
<text text-anchor="start" x="350.5" y="-183" font-family="Helvetica,sans-Serif" font-size="10.00">/home/runner/work/no</text>
<text text-anchor="start" x="350.5" y="-172" font-family="Helvetica,sans-Serif" font-size="10.00">&#45;OS/no&#45;OS/drivers/eeprom</text>
<text text-anchor="middle" x="414" y="-161" font-family="Helvetica,sans-Serif" font-size="10.00">/m24512/m24512.h</text>
</a>
</g>
</g>
<!-- Node1&#45;&gt;Node5 -->
<g id="edge4_Node000001_Node000005" class="edge">
<title>Node1&#45;&gt;Node5</title>
<g id="a_edge4_Node000001_Node000005"><a xlink:title=" ">
<path fill="none" stroke="#63b8ff" d="M414,-220.69C414,-212.08 414,-202.9 414,-195.07"/>
<polygon fill="#63b8ff" stroke="#63b8ff" points="410.5,-220.79 414,-230.79 417.5,-220.79 410.5,-220.79"/>
</a>
</g>
</g>
<!-- Node6 -->
<g id="Node000006" class="node">
<title>Node6</title>
<g id="a_Node000006"><a xlink:href="adf5611_2src_2common_2common__data_8h.html" target="_top" xlink:title="Defines common data to be used by adf5611 examples.">
<polygon fill="white" stroke="#666666" points="664.5,-195 503.5,-195 503.5,-154 664.5,-154 664.5,-195"/>
<text text-anchor="start" x="511.5" y="-183" font-family="Helvetica,sans-Serif" font-size="10.00">/home/runner/work/no</text>
<text text-anchor="start" x="511.5" y="-172" font-family="Helvetica,sans-Serif" font-size="10.00">&#45;OS/no&#45;OS/projects/adf5611</text>
<text text-anchor="middle" x="584" y="-161" font-family="Helvetica,sans-Serif" font-size="10.00">/src/common/common_data.h</text>
</a>
</g>
</g>
<!-- Node1&#45;&gt;Node6 -->
<g id="edge6_Node000001_Node000006" class="edge">
<title>Node1&#45;&gt;Node6</title>
<g id="a_edge6_Node000001_Node000006"><a xlink:title=" ">
<path fill="none" stroke="#63b8ff" d="M467.59,-226.86C490.8,-216.62 517.65,-204.77 539.7,-195.04"/>
<polygon fill="#63b8ff" stroke="#63b8ff" points="465.96,-223.75 458.22,-230.99 468.78,-230.16 465.96,-223.75"/>
</a>
</g>
</g>
<!-- Node8 -->
<g id="Node000008" class="node">
<title>Node8</title>
<g id="a_Node000008"><a xlink:href="mwc_8h.html" target="_top" xlink:title=" ">
<polygon fill="white" stroke="#666666" points="835.5,-195 682.5,-195 682.5,-154 835.5,-154 835.5,-195"/>
<text text-anchor="start" x="690.5" y="-183" font-family="Helvetica,sans-Serif" font-size="10.00">/home/runner/work/no</text>
<text text-anchor="start" x="690.5" y="-172" font-family="Helvetica,sans-Serif" font-size="10.00">&#45;OS/no&#45;OS/projects/wethlink</text>
<text text-anchor="middle" x="759" y="-161" font-family="Helvetica,sans-Serif" font-size="10.00">/src/app/mwc.h</text>
</a>
</g>
</g>
<!-- Node1&#45;&gt;Node8 -->
<g id="edge8_Node000001_Node000008" class="edge">
<title>Node1&#45;&gt;Node8</title>
<g id="a_edge8_Node000001_Node000008"><a xlink:title=" ">
<path fill="none" stroke="#63b8ff" d="M485.86,-235.34C537.87,-224.31 609.82,-208.93 673,-195 675.99,-194.34 679.04,-193.67 682.12,-192.98"/>
<polygon fill="#63b8ff" stroke="#63b8ff" points="485.12,-231.92 476.06,-237.42 486.57,-238.77 485.12,-231.92"/>
</a>
</g>
</g>
<!-- Node13 -->
<g id="Node000013" class="node">
<title>Node13</title>
<g id="a_Node000013"><a xlink:href="wethlink_2src_2platform_2maxim_2parameters_8h.html" target="_top" xlink:title=" ">
<polygon fill="white" stroke="#666666" points="1124.5,-195 939.5,-195 939.5,-154 1124.5,-154 1124.5,-195"/>
<text text-anchor="start" x="947.5" y="-183" font-family="Helvetica,sans-Serif" font-size="10.00">/home/runner/work/no</text>
<text text-anchor="start" x="947.5" y="-172" font-family="Helvetica,sans-Serif" font-size="10.00">&#45;OS/no&#45;OS/projects/wethlink</text>
<text text-anchor="middle" x="1032" y="-161" font-family="Helvetica,sans-Serif" font-size="10.00">/src/platform/maxim/parameters.h</text>
</a>
</g>
</g>
<!-- Node1&#45;&gt;Node13 -->
<g id="edge14_Node000001_Node000013" class="edge">
<title>Node1&#45;&gt;Node13</title>
<g id="a_edge14_Node000001_Node000013"><a xlink:title=" ">
<path fill="none" stroke="#63b8ff" d="M486.31,-241.73C598.75,-228.08 815.43,-201.78 939.24,-186.76"/>
<polygon fill="#63b8ff" stroke="#63b8ff" points="485.59,-238.29 476.09,-242.97 486.43,-245.23 485.59,-238.29"/>
</a>
</g>
</g>
<!-- Node5&#45;&gt;Node4 -->
<g id="edge5_Node000005_Node000004" class="edge">
<title>Node5&#45;&gt;Node4</title>
<g id="a_edge5_Node000005_Node000004"><a xlink:title=" ">
<path fill="none" stroke="#63b8ff" d="M388.91,-146.23C380.34,-136.91 370.92,-126.67 363.01,-118.07"/>
<polygon fill="#63b8ff" stroke="#63b8ff" points="386.52,-148.81 395.87,-153.79 391.68,-144.07 386.52,-148.81"/>
</a>
</g>
</g>
<!-- Node7 -->
<g id="Node000007" class="node">
<title>Node7</title>
<g id="a_Node000007"><a xlink:href="adf5611_2src_2common_2common__data_8c.html" target="_top" xlink:title="Defines common data to be used by adf5611 examples.">
<polygon fill="white" stroke="#666666" points="625.5,-118 464.5,-118 464.5,-77 625.5,-77 625.5,-118"/>
<text text-anchor="start" x="472.5" y="-106" font-family="Helvetica,sans-Serif" font-size="10.00">/home/runner/work/no</text>
<text text-anchor="start" x="472.5" y="-95" font-family="Helvetica,sans-Serif" font-size="10.00">&#45;OS/no&#45;OS/projects/adf5611</text>
<text text-anchor="middle" x="545" y="-84" font-family="Helvetica,sans-Serif" font-size="10.00">/src/common/common_data.c</text>
</a>
</g>
</g>
<!-- Node6&#45;&gt;Node7 -->
<g id="edge7_Node000006_Node000007" class="edge">
<title>Node6&#45;&gt;Node7</title>
<g id="a_edge7_Node000006_Node000007"><a xlink:title=" ">
<path fill="none" stroke="#63b8ff" d="M569.09,-144.83C564.44,-135.89 559.42,-126.24 555.18,-118.07"/>
<polygon fill="#63b8ff" stroke="#63b8ff" points="566.03,-146.54 573.75,-153.79 572.24,-143.31 566.03,-146.54"/>
</a>
</g>
</g>
<!-- Node9 -->
<g id="Node000009" class="node">
<title>Node9</title>
<g id="a_Node000009"><a xlink:href="wethlink_2src_2app_2main_8c.html" target="_top" xlink:title=" ">
<polygon fill="white" stroke="#666666" points="783.5,-41 630.5,-41 630.5,0 783.5,0 783.5,-41"/>
<text text-anchor="start" x="638.5" y="-29" font-family="Helvetica,sans-Serif" font-size="10.00">/home/runner/work/no</text>
<text text-anchor="start" x="638.5" y="-18" font-family="Helvetica,sans-Serif" font-size="10.00">&#45;OS/no&#45;OS/projects/wethlink</text>
<text text-anchor="middle" x="707" y="-7" font-family="Helvetica,sans-Serif" font-size="10.00">/src/app/main.c</text>
</a>
</g>
</g>
<!-- Node8&#45;&gt;Node9 -->
<g id="edge9_Node000008_Node000009" class="edge">
<title>Node8&#45;&gt;Node9</title>
<g id="a_edge9_Node000008_Node000009"><a xlink:title=" ">
<path fill="none" stroke="#63b8ff" d="M702.44,-148.47C690.66,-140.5 679.77,-130.43 673,-118 659.32,-92.89 676.29,-61.19 690.78,-41.13"/>
<polygon fill="#63b8ff" stroke="#63b8ff" points="700.8,-151.57 711.13,-153.91 704.51,-145.64 700.8,-151.57"/>
</a>
</g>
</g>
<!-- Node10 -->
<g id="Node000010" class="node">
<title>Node10</title>
<g id="a_Node000010"><a xlink:href="mwc_8c.html" target="_top" xlink:title=" ">
<polygon fill="white" stroke="#666666" points="835.5,-118 682.5,-118 682.5,-77 835.5,-77 835.5,-118"/>
<text text-anchor="start" x="690.5" y="-106" font-family="Helvetica,sans-Serif" font-size="10.00">/home/runner/work/no</text>
<text text-anchor="start" x="690.5" y="-95" font-family="Helvetica,sans-Serif" font-size="10.00">&#45;OS/no&#45;OS/projects/wethlink</text>
<text text-anchor="middle" x="759" y="-84" font-family="Helvetica,sans-Serif" font-size="10.00">/src/app/mwc.c</text>
</a>
</g>
</g>
<!-- Node8&#45;&gt;Node10 -->
<g id="edge10_Node000008_Node000010" class="edge">
<title>Node8&#45;&gt;Node10</title>
<g id="a_edge10_Node000008_Node000010"><a xlink:title=" ">
<path fill="none" stroke="#63b8ff" d="M759,-143.69C759,-135.08 759,-125.9 759,-118.07"/>
<polygon fill="#63b8ff" stroke="#63b8ff" points="755.5,-143.79 759,-153.79 762.5,-143.79 755.5,-143.79"/>
</a>
</g>
</g>
<!-- Node11 -->
<g id="Node000011" class="node">
<title>Node11</title>
<g id="a_Node000011"><a xlink:href="net_8h.html" target="_top" xlink:title=" ">
<polygon fill="white" stroke="#666666" points="1006.5,-118 853.5,-118 853.5,-77 1006.5,-77 1006.5,-118"/>
<text text-anchor="start" x="861.5" y="-106" font-family="Helvetica,sans-Serif" font-size="10.00">/home/runner/work/no</text>
<text text-anchor="start" x="861.5" y="-95" font-family="Helvetica,sans-Serif" font-size="10.00">&#45;OS/no&#45;OS/projects/wethlink</text>
<text text-anchor="middle" x="930" y="-84" font-family="Helvetica,sans-Serif" font-size="10.00">/src/app/net.h</text>
</a>
</g>
</g>
<!-- Node8&#45;&gt;Node11 -->
<g id="edge11_Node000008_Node000011" class="edge">
<title>Node8&#45;&gt;Node11</title>
<g id="a_edge11_Node000008_Node000011"><a xlink:title=" ">
<path fill="none" stroke="#63b8ff" d="M812.9,-149.86C836.25,-139.62 863.25,-127.77 885.44,-118.04"/>
<polygon fill="#63b8ff" stroke="#63b8ff" points="811.23,-146.77 803.48,-153.99 814.05,-153.18 811.23,-146.77"/>
</a>
</g>
</g>
<!-- Node11&#45;&gt;Node9 -->
<g id="edge12_Node000011_Node000009" class="edge">
<title>Node11&#45;&gt;Node9</title>
<g id="a_edge12_Node000011_Node000009"><a xlink:title=" ">
<path fill="none" stroke="#63b8ff" d="M862.13,-73.67C831.14,-63.25 794.81,-51.03 765.11,-41.04"/>
<polygon fill="#63b8ff" stroke="#63b8ff" points="861.4,-77.12 871.99,-76.99 863.63,-70.49 861.4,-77.12"/>
</a>
</g>
</g>
<!-- Node12 -->
<g id="Node000012" class="node">
<title>Node12</title>
<g id="a_Node000012"><a xlink:href="net_8c.html" target="_top" xlink:title=" ">
<polygon fill="white" stroke="#666666" points="1006.5,-41 853.5,-41 853.5,0 1006.5,0 1006.5,-41"/>
<text text-anchor="start" x="861.5" y="-29" font-family="Helvetica,sans-Serif" font-size="10.00">/home/runner/work/no</text>
<text text-anchor="start" x="861.5" y="-18" font-family="Helvetica,sans-Serif" font-size="10.00">&#45;OS/no&#45;OS/projects/wethlink</text>
<text text-anchor="middle" x="930" y="-7" font-family="Helvetica,sans-Serif" font-size="10.00">/src/app/net.c</text>
</a>
</g>
</g>
<!-- Node11&#45;&gt;Node12 -->
<g id="edge13_Node000011_Node000012" class="edge">
<title>Node11&#45;&gt;Node12</title>
<g id="a_edge13_Node000011_Node000012"><a xlink:title=" ">
<path fill="none" stroke="#63b8ff" d="M930,-66.69C930,-58.08 930,-48.9 930,-41.07"/>
<polygon fill="#63b8ff" stroke="#63b8ff" points="926.5,-66.79 930,-76.79 933.5,-66.79 926.5,-66.79"/>
</a>
</g>
</g>
<!-- Node14 -->
<g id="Node000014" class="node">
<title>Node14</title>
<g id="a_Node000014"><a xlink:href="wethlink_2src_2platform_2maxim_2parameters_8c.html" target="_top" xlink:title=" ">
<polygon fill="white" stroke="#666666" points="1209,-118 1025,-118 1025,-77 1209,-77 1209,-118"/>
<text text-anchor="start" x="1033" y="-106" font-family="Helvetica,sans-Serif" font-size="10.00">/home/runner/work/no</text>
<text text-anchor="start" x="1033" y="-95" font-family="Helvetica,sans-Serif" font-size="10.00">&#45;OS/no&#45;OS/projects/wethlink</text>
<text text-anchor="middle" x="1117" y="-84" font-family="Helvetica,sans-Serif" font-size="10.00">/src/platform/maxim/parameters.c</text>
</a>
</g>
</g>
<!-- Node13&#45;&gt;Node14 -->
<g id="edge15_Node000013_Node000014" class="edge">
<title>Node13&#45;&gt;Node14</title>
<g id="a_edge15_Node000013_Node000014"><a xlink:title=" ">
<path fill="none" stroke="#63b8ff" d="M1061.95,-147.07C1072.77,-137.52 1084.78,-126.93 1094.82,-118.07"/>
<polygon fill="#63b8ff" stroke="#63b8ff" points="1059.52,-144.55 1054.33,-153.79 1064.15,-149.8 1059.52,-144.55"/>
</a>
</g>
</g>
</g>
</svg>

<g id="navigator" transform="translate(0 0)" fill="#404254">
  <rect fill="#f2f5e9" fill-opacity="0.5" stroke="#606060" stroke-width=".5" x="0" y="0" width="60" height="60"/>
  <use id="zoomplus" xlink:href="#zoomPlus" x="17" y="9" onmousedown="handleZoom(evt,'in')"/>
  <use id="zoomminus" xlink:href="#zoomMin" x="42" y="9" onmousedown="handleZoom(evt,'out')"/>
  <use id="reset" xlink:href="#resetDef" x="30" y="36" onmousedown="handleReset()"/>
   <use id="arrowup" xlink:href="#arrowUp" x="0" y="0" onmousedown="handlePan(0,-1)"/>
  <use id="arrowright" xlink:href="#arrowRight" x="0" y="0" onmousedown="handlePan(1,0)"/>
  <use id="arrowdown" xlink:href="#arrowDown" x="0" y="0" onmousedown="handlePan(0,1)"/>
  <use id="arrowleft" xlink:href="#arrowLeft" x="0" y="0" onmousedown="handlePan(-1,0)"/>
</g>
<svg viewBox="0 0 15 15" width="100%" height="30px" preserveAspectRatio="xMaxYMin meet">
 <g id="arrow_out" transform="scale(0.3 0.3)">
  <a xlink:href="no__os__eeprom_8h__dep__incl_org.svg" target="_base">
   <rect id="button" ry="5" rx="5" y="6" x="6" height="38" width="38"
        fill="#f2f5e9" fill-opacity="0.5" stroke="#606060" stroke-width="1.0"/>
   <path id="arrow"
     d="M 11.500037,31.436501 C 11.940474,20.09759 22.043105,11.32322 32.158766,21.979434 L 37.068811,17.246167 C 37.068811,17.246167 37.088388,32 37.088388,32 L 22.160133,31.978069 C 22.160133,31.978069 26.997745,27.140456 26.997745,27.140456 C 18.528582,18.264221 13.291696,25.230495 11.500037,31.436501 z"
     style="fill:#404040;"/>
  </a>
 </g>
</svg>

<style type='text/css'>
<![CDATA[
[data-mouse-over-selected='false'] { opacity: 0.7; }
[data-mouse-over-selected='true']  { opacity: 1.0; }
]]>
</style>
<script type="application/ecmascript"><![CDATA[
document.addEventListener('DOMContentLoaded', (event) => {
  highlightEdges();
  highlightAdjacentNodes();
});
]]></script>
</svg>
