<?xml version="1.0" encoding="UTF-8" standalone="no"?>
<!DOCTYPE svg PUBLIC "-//W3C//DTD SVG 1.1//EN"
 "http://www.w3.org/Graphics/SVG/1.1/DTD/svg11.dtd">
<!-- Generated by graphviz version 2.43.0 (0)
 -->
<!-- Title: /home/runner/work/no&#45;OS/no&#45;OS/drivers/platform/pico/pico_uart.h Pages: 1 -->
<!--zoomable 225 -->

<svg id="main" version="1.1" xmlns="http://www.w3.org/2000/svg" xmlns:xlink="http://www.w3.org/1999/xlink" xml:space="preserve" onload="init(evt)">

<style type="text/css"><![CDATA[
.node, .edge {opacity: 0.7;}
.node.selected, .edge.selected {opacity: 1;}
.edge:hover path { stroke: red; }
.edge:hover polygon { stroke: red; fill: red; }
]]></style>

<defs>
  <circle id="rim" cx="0" cy="0" r="7"/>
  <circle id="rim2" cx="0" cy="0" r="3.5"/>
  <g id="zoomPlus">
    <use xlink:href="#rim" fill="#404040"><set attributeName="fill" to="#808080" begin="zoomplus.mouseover" end="zoomplus.mouseout"/></use>
    <path d="M-4,0h8M0,-4v8" fill="none" stroke="white" stroke-width="1.5" pointer-events="none"/>
  </g>
  <g id="zoomMin">
    <use xlink:href="#rim" fill="#404040"><set attributeName="fill" to="#808080" begin="zoomminus.mouseover" end="zoomminus.mouseout"/></use>
    <path d="M-4,0h8" fill="none" stroke="white" stroke-width="1.5" pointer-events="none"/>
  </g>
  <g id="arrowUp" transform="translate(30 24)">
    <use xlink:href="#rim"/>
    <path pointer-events="none" fill="none" stroke="white" stroke-width="1.5" d="M0,-3.0v7 M-2.5,-0.5L0,-3.0L2.5,-0.5"/>
  </g>
  <g id="arrowRight" transform="rotate(90) translate(36 -43)">
    <use xlink:href="#rim"/>
    <path pointer-events="none" fill="none" stroke="white" stroke-width="1.5" d="M0,-3.0v7 M-2.5,-0.5L0,-3.0L2.5,-0.5"/>
  </g>
  <g id="arrowDown" transform="rotate(180) translate(-30 -48)">
    <use xlink:href="#rim"/>
    <path pointer-events="none" fill="none" stroke="white" stroke-width="1.5" d="M0,-3.0v7 M-2.5,-0.5L0,-3.0L2.5,-0.5"/>
  </g>
  <g id="arrowLeft" transform="rotate(270) translate(-36 17)">
    <use xlink:href="#rim"/>
    <path pointer-events="none" fill="none" stroke="white" stroke-width="1.5" d="M0,-3.0v7 M-2.5,-0.5L0,-3.0L2.5,-0.5"/>
  </g>
  <g id="resetDef">
    <use xlink:href="#rim2" fill="#404040"><set attributeName="fill" to="#808080" begin="reset.mouseover" end="reset.mouseout"/></use>
  </g>
</defs>
<script type="application/ecmascript">
var viewWidth = 1942;
var viewHeight = 225;
var sectionId = 'dynsection-1';
</script>
<script type="application/ecmascript" xlink:href="svg.min.js"/>
<svg id="graph" class="graph">
<g id="viewport">
<title>/home/runner/work/no&#45;OS/no&#45;OS/drivers/platform/pico/pico_uart.h</title>
<!-- Node1 -->
<g id="Node000001" class="node">
<title>Node1</title>
<g id="a_Node000001"><a xlink:title="Header file of UART driver for pico.">
<polygon fill="#999999" stroke="#666666" points="994,-217 846,-217 846,-176 994,-176 994,-217"/>
<text text-anchor="start" x="854" y="-205" font-family="Helvetica,sans-Serif" font-size="10.00">/home/runner/work/no</text>
<text text-anchor="start" x="854" y="-194" font-family="Helvetica,sans-Serif" font-size="10.00">&#45;OS/no&#45;OS/drivers/platform</text>
<text text-anchor="middle" x="920" y="-183" font-family="Helvetica,sans-Serif" font-size="10.00">/pico/pico_uart.h</text>
</a>
</g>
</g>
<!-- Node2 -->
<g id="Node000002" class="node">
<title>Node2</title>
<g id="a_Node000002"><a xlink:href="pico__irq_8c.html" target="_top" xlink:title="Implementation of external irq driver.">
<polygon fill="white" stroke="#666666" points="148,-134.5 0,-134.5 0,-93.5 148,-93.5 148,-134.5"/>
<text text-anchor="start" x="8" y="-122.5" font-family="Helvetica,sans-Serif" font-size="10.00">/home/runner/work/no</text>
<text text-anchor="start" x="8" y="-111.5" font-family="Helvetica,sans-Serif" font-size="10.00">&#45;OS/no&#45;OS/drivers/platform</text>
<text text-anchor="middle" x="74" y="-100.5" font-family="Helvetica,sans-Serif" font-size="10.00">/pico/pico_irq.c</text>
</a>
</g>
</g>
<!-- Node1&#45;&gt;Node2 -->
<g id="edge1_Node000001_Node000002" class="edge">
<title>Node1&#45;&gt;Node2</title>
<g id="a_edge1_Node000001_Node000002"><a xlink:title=" ">
<path fill="none" stroke="#63b8ff" d="M835.59,-195.39C694.08,-193.87 400.53,-184.97 157,-140 149.3,-138.58 141.31,-136.7 133.46,-134.62"/>
<polygon fill="#63b8ff" stroke="#63b8ff" points="835.89,-198.9 845.93,-195.49 835.96,-191.9 835.89,-198.9"/>
</a>
</g>
</g>
<!-- Node3 -->
<g id="Node000003" class="node">
<title>Node3</title>
<g id="a_Node000003"><a xlink:href="pico__uart_8c.html" target="_top" xlink:title="Source file of UART driver for pico.">
<polygon fill="white" stroke="#666666" points="314,-134.5 166,-134.5 166,-93.5 314,-93.5 314,-134.5"/>
<text text-anchor="start" x="174" y="-122.5" font-family="Helvetica,sans-Serif" font-size="10.00">/home/runner/work/no</text>
<text text-anchor="start" x="174" y="-111.5" font-family="Helvetica,sans-Serif" font-size="10.00">&#45;OS/no&#45;OS/drivers/platform</text>
<text text-anchor="middle" x="240" y="-100.5" font-family="Helvetica,sans-Serif" font-size="10.00">/pico/pico_uart.c</text>
</a>
</g>
</g>
<!-- Node1&#45;&gt;Node3 -->
<g id="edge2_Node000001_Node000003" class="edge">
<title>Node1&#45;&gt;Node3</title>
<g id="a_edge2_Node000001_Node000003"><a xlink:title=" ">
<path fill="none" stroke="#63b8ff" d="M835.54,-192.96C719.19,-188.25 503.5,-175.21 323,-140 315.47,-138.53 307.64,-136.65 299.94,-134.59"/>
<polygon fill="#63b8ff" stroke="#63b8ff" points="835.67,-196.46 845.8,-193.36 835.94,-189.47 835.67,-196.46"/>
</a>
</g>
</g>
<!-- Node4 -->
<g id="Node000004" class="node">
<title>Node4</title>
<g id="a_Node000004"><a xlink:href="adxrs290-pmdz_2src_2platform_2pico_2parameters_8h.html" target="_top" xlink:title="Definitions specific to pico platform used by adxrs290 project.">
<polygon fill="white" stroke="#666666" points="533.5,-134.5 332.5,-134.5 332.5,-93.5 533.5,-93.5 533.5,-134.5"/>
<text text-anchor="start" x="340.5" y="-122.5" font-family="Helvetica,sans-Serif" font-size="10.00">/home/runner/work/no</text>
<text text-anchor="start" x="340.5" y="-111.5" font-family="Helvetica,sans-Serif" font-size="10.00">&#45;OS/no&#45;OS/projects/adxrs290</text>
<text text-anchor="middle" x="433" y="-100.5" font-family="Helvetica,sans-Serif" font-size="10.00">&#45;pmdz/src/platform/pico/parameters.h</text>
</a>
</g>
</g>
<!-- Node1&#45;&gt;Node4 -->
<g id="edge3_Node000001_Node000004" class="edge">
<title>Node1&#45;&gt;Node4</title>
<g id="a_edge3_Node000001_Node000004"><a xlink:title=" ">
<path fill="none" stroke="#63b8ff" d="M835.73,-185.08C758.91,-175.12 642.44,-158.86 542,-140 533.22,-138.35 524.08,-136.49 514.99,-134.54"/>
<polygon fill="#63b8ff" stroke="#63b8ff" points="835.46,-188.58 845.83,-186.39 836.36,-181.64 835.46,-188.58"/>
</a>
</g>
</g>
<!-- Node7 -->
<g id="Node000007" class="node">
<title>Node7</title>
<g id="a_Node000007"><a xlink:href="eval-adis1646x_2src_2platform_2pico_2parameters_8h.html" target="_top" xlink:title="Definitions specific to pico platform used by eval&#45;adis1646x project.">
<polygon fill="white" stroke="#666666" points="684.5,-140 551.5,-140 551.5,-88 684.5,-88 684.5,-140"/>
<text text-anchor="start" x="559.5" y="-128" font-family="Helvetica,sans-Serif" font-size="10.00">/home/runner/work/no</text>
<text text-anchor="start" x="559.5" y="-117" font-family="Helvetica,sans-Serif" font-size="10.00">&#45;OS/no&#45;OS/projects/eval</text>
<text text-anchor="start" x="559.5" y="-106" font-family="Helvetica,sans-Serif" font-size="10.00">&#45;adis1646x/src/platform</text>
<text text-anchor="middle" x="618" y="-95" font-family="Helvetica,sans-Serif" font-size="10.00">/pico/parameters.h</text>
</a>
</g>
</g>
<!-- Node1&#45;&gt;Node7 -->
<g id="edge6_Node000001_Node000007" class="edge">
<title>Node1&#45;&gt;Node7</title>
<g id="a_edge6_Node000001_Node000007"><a xlink:title=" ">
<path fill="none" stroke="#63b8ff" d="M836.13,-176.73C793.11,-166.66 740.01,-153.56 693,-140 690.23,-139.2 687.41,-138.37 684.57,-137.5"/>
<polygon fill="#63b8ff" stroke="#63b8ff" points="835.46,-180.16 845.99,-179.02 837.04,-173.34 835.46,-180.16"/>
</a>
</g>
</g>
<!-- Node9 -->
<g id="Node000009" class="node">
<title>Node9</title>
<g id="a_Node000009"><a xlink:href="eval-adis1647x_2src_2platform_2pico_2parameters_8h.html" target="_top" xlink:title="Definitions specific to pico platform used by eval&#45;adis1647x project.">
<polygon fill="white" stroke="#666666" points="835.5,-140 702.5,-140 702.5,-88 835.5,-88 835.5,-140"/>
<text text-anchor="start" x="710.5" y="-128" font-family="Helvetica,sans-Serif" font-size="10.00">/home/runner/work/no</text>
<text text-anchor="start" x="710.5" y="-117" font-family="Helvetica,sans-Serif" font-size="10.00">&#45;OS/no&#45;OS/projects/eval</text>
<text text-anchor="start" x="710.5" y="-106" font-family="Helvetica,sans-Serif" font-size="10.00">&#45;adis1647x/src/platform</text>
<text text-anchor="middle" x="769" y="-95" font-family="Helvetica,sans-Serif" font-size="10.00">/pico/parameters.h</text>
</a>
</g>
</g>
<!-- Node1&#45;&gt;Node9 -->
<g id="edge8_Node000001_Node000009" class="edge">
<title>Node1&#45;&gt;Node9</title>
<g id="a_edge8_Node000001_Node000009"><a xlink:title=" ">
<path fill="none" stroke="#63b8ff" d="M874.03,-170.99C855.69,-161.21 834.59,-149.97 816.13,-140.13"/>
<polygon fill="#63b8ff" stroke="#63b8ff" points="872.59,-174.19 883.06,-175.81 875.88,-168.01 872.59,-174.19"/>
</a>
</g>
</g>
<!-- Node11 -->
<g id="Node000011" class="node">
<title>Node11</title>
<g id="a_Node000011"><a xlink:href="eval-adis1650x_2src_2platform_2pico_2parameters_8h.html" target="_top" xlink:title="Definitions specific to pico platform used by eval&#45;adis1650x project.">
<polygon fill="white" stroke="#666666" points="986.5,-140 853.5,-140 853.5,-88 986.5,-88 986.5,-140"/>
<text text-anchor="start" x="861.5" y="-128" font-family="Helvetica,sans-Serif" font-size="10.00">/home/runner/work/no</text>
<text text-anchor="start" x="861.5" y="-117" font-family="Helvetica,sans-Serif" font-size="10.00">&#45;OS/no&#45;OS/projects/eval</text>
<text text-anchor="start" x="861.5" y="-106" font-family="Helvetica,sans-Serif" font-size="10.00">&#45;adis1650x/src/platform</text>
<text text-anchor="middle" x="920" y="-95" font-family="Helvetica,sans-Serif" font-size="10.00">/pico/parameters.h</text>
</a>
</g>
</g>
<!-- Node1&#45;&gt;Node11 -->
<g id="edge10_Node000001_Node000011" class="edge">
<title>Node1&#45;&gt;Node11</title>
<g id="a_edge10_Node000001_Node000011"><a xlink:title=" ">
<path fill="none" stroke="#63b8ff" d="M920,-165.49C920,-157.15 920,-148.19 920,-140.16"/>
<polygon fill="#63b8ff" stroke="#63b8ff" points="916.5,-165.6 920,-175.6 923.5,-165.6 916.5,-165.6"/>
</a>
</g>
</g>
<!-- Node13 -->
<g id="Node000013" class="node">
<title>Node13</title>
<g id="a_Node000013"><a xlink:href="eval-adis1654x_2src_2platform_2pico_2parameters_8h.html" target="_top" xlink:title="Definitions specific to pico platform used by eval&#45;adis1654x project.">
<polygon fill="white" stroke="#666666" points="1137.5,-140 1004.5,-140 1004.5,-88 1137.5,-88 1137.5,-140"/>
<text text-anchor="start" x="1012.5" y="-128" font-family="Helvetica,sans-Serif" font-size="10.00">/home/runner/work/no</text>
<text text-anchor="start" x="1012.5" y="-117" font-family="Helvetica,sans-Serif" font-size="10.00">&#45;OS/no&#45;OS/projects/eval</text>
<text text-anchor="start" x="1012.5" y="-106" font-family="Helvetica,sans-Serif" font-size="10.00">&#45;adis1654x/src/platform</text>
<text text-anchor="middle" x="1071" y="-95" font-family="Helvetica,sans-Serif" font-size="10.00">/pico/parameters.h</text>
</a>
</g>
</g>
<!-- Node1&#45;&gt;Node13 -->
<g id="edge12_Node000001_Node000013" class="edge">
<title>Node1&#45;&gt;Node13</title>
<g id="a_edge12_Node000001_Node000013"><a xlink:title=" ">
<path fill="none" stroke="#63b8ff" d="M965.97,-170.99C984.31,-161.21 1005.41,-149.97 1023.87,-140.13"/>
<polygon fill="#63b8ff" stroke="#63b8ff" points="964.12,-168.01 956.94,-175.81 967.41,-174.19 964.12,-168.01"/>
</a>
</g>
</g>
<!-- Node15 -->
<g id="Node000015" class="node">
<title>Node15</title>
<g id="a_Node000015"><a xlink:href="eval-adis1655x_2src_2platform_2pico_2parameters_8h.html" target="_top" xlink:title="Definitions specific to pico platform used by eval&#45;adis1655x project.">
<polygon fill="white" stroke="#666666" points="1288.5,-140 1155.5,-140 1155.5,-88 1288.5,-88 1288.5,-140"/>
<text text-anchor="start" x="1163.5" y="-128" font-family="Helvetica,sans-Serif" font-size="10.00">/home/runner/work/no</text>
<text text-anchor="start" x="1163.5" y="-117" font-family="Helvetica,sans-Serif" font-size="10.00">&#45;OS/no&#45;OS/projects/eval</text>
<text text-anchor="start" x="1163.5" y="-106" font-family="Helvetica,sans-Serif" font-size="10.00">&#45;adis1655x/src/platform</text>
<text text-anchor="middle" x="1222" y="-95" font-family="Helvetica,sans-Serif" font-size="10.00">/pico/parameters.h</text>
</a>
</g>
</g>
<!-- Node1&#45;&gt;Node15 -->
<g id="edge14_Node000001_Node000015" class="edge">
<title>Node1&#45;&gt;Node15</title>
<g id="a_edge14_Node000001_Node000015"><a xlink:title=" ">
<path fill="none" stroke="#63b8ff" d="M1003.97,-176.5C1046.7,-166.43 1099.34,-153.38 1146,-140 1149.07,-139.12 1152.2,-138.19 1155.36,-137.24"/>
<polygon fill="#63b8ff" stroke="#63b8ff" points="1003.11,-173.11 994.17,-178.8 1004.71,-179.93 1003.11,-173.11"/>
</a>
</g>
</g>
<!-- Node17 -->
<g id="Node000017" class="node">
<title>Node17</title>
<g id="a_Node000017"><a xlink:href="eval-adis1657x_2src_2platform_2pico_2parameters_8h.html" target="_top" xlink:title="Definitions specific to pico platform used by eval&#45;adis1657x project.">
<polygon fill="white" stroke="#666666" points="1439.5,-140 1306.5,-140 1306.5,-88 1439.5,-88 1439.5,-140"/>
<text text-anchor="start" x="1314.5" y="-128" font-family="Helvetica,sans-Serif" font-size="10.00">/home/runner/work/no</text>
<text text-anchor="start" x="1314.5" y="-117" font-family="Helvetica,sans-Serif" font-size="10.00">&#45;OS/no&#45;OS/projects/eval</text>
<text text-anchor="start" x="1314.5" y="-106" font-family="Helvetica,sans-Serif" font-size="10.00">&#45;adis1657x/src/platform</text>
<text text-anchor="middle" x="1373" y="-95" font-family="Helvetica,sans-Serif" font-size="10.00">/pico/parameters.h</text>
</a>
</g>
</g>
<!-- Node1&#45;&gt;Node17 -->
<g id="edge16_Node000001_Node000017" class="edge">
<title>Node1&#45;&gt;Node17</title>
<g id="a_edge16_Node000001_Node000017"><a xlink:title=" ">
<path fill="none" stroke="#63b8ff" d="M1004.15,-187.3C1081.07,-178.81 1197.64,-163.47 1297,-140 1300.11,-139.27 1303.27,-138.46 1306.46,-137.61"/>
<polygon fill="#63b8ff" stroke="#63b8ff" points="1003.6,-183.84 994.04,-188.4 1004.36,-190.8 1003.6,-183.84"/>
</a>
</g>
</g>
<!-- Node19 -->
<g id="Node000019" class="node">
<title>Node19</title>
<g id="a_Node000019"><a xlink:href="eval-adxl355-pmdz_2src_2platform_2pico_2parameters_8h.html" target="_top" xlink:title="Definitions specific to pico platform used by eval&#45;adxl355&#45;pmdz project.">
<polygon fill="white" stroke="#666666" points="1610,-140 1458,-140 1458,-88 1610,-88 1610,-140"/>
<text text-anchor="start" x="1466" y="-128" font-family="Helvetica,sans-Serif" font-size="10.00">/home/runner/work/no</text>
<text text-anchor="start" x="1466" y="-117" font-family="Helvetica,sans-Serif" font-size="10.00">&#45;OS/no&#45;OS/projects/eval</text>
<text text-anchor="start" x="1466" y="-106" font-family="Helvetica,sans-Serif" font-size="10.00">&#45;adxl355&#45;pmdz/src/platform</text>
<text text-anchor="middle" x="1534" y="-95" font-family="Helvetica,sans-Serif" font-size="10.00">/pico/parameters.h</text>
</a>
</g>
</g>
<!-- Node1&#45;&gt;Node19 -->
<g id="edge18_Node000001_Node000019" class="edge">
<title>Node1&#45;&gt;Node19</title>
<g id="a_edge18_Node000001_Node000019"><a xlink:title=" ">
<path fill="none" stroke="#63b8ff" d="M1004.28,-191.28C1109.07,-184.97 1293.07,-170.41 1448,-140 1451.2,-139.37 1454.46,-138.68 1457.74,-137.93"/>
<polygon fill="#63b8ff" stroke="#63b8ff" points="1003.85,-187.8 994.08,-191.88 1004.26,-194.79 1003.85,-187.8"/>
</a>
</g>
</g>
<!-- Node22 -->
<g id="Node000022" class="node">
<title>Node22</title>
<g id="a_Node000022"><a xlink:href="iio__demo_2src_2platform_2pico_2parameters_8h.html" target="_top" xlink:title="Definitions specific to pico platform used by iio_demo project.">
<polygon fill="white" stroke="#666666" points="1848.5,-140 1713.5,-140 1713.5,-88 1848.5,-88 1848.5,-140"/>
<text text-anchor="start" x="1721.5" y="-128" font-family="Helvetica,sans-Serif" font-size="10.00">/home/runner/work/no</text>
<text text-anchor="start" x="1721.5" y="-117" font-family="Helvetica,sans-Serif" font-size="10.00">&#45;OS/no&#45;OS/projects/iio</text>
<text text-anchor="start" x="1721.5" y="-106" font-family="Helvetica,sans-Serif" font-size="10.00">_demo/src/platform/pico</text>
<text text-anchor="middle" x="1781" y="-95" font-family="Helvetica,sans-Serif" font-size="10.00">/parameters.h</text>
</a>
</g>
</g>
<!-- Node1&#45;&gt;Node22 -->
<g id="edge21_Node000001_Node000022" class="edge">
<title>Node1&#45;&gt;Node22</title>
<g id="a_edge21_Node000001_Node000022"><a xlink:title=" ">
<path fill="none" stroke="#63b8ff" d="M1004.16,-190.83C1135.66,-183.08 1397.75,-165.82 1619,-140 1650.09,-136.37 1684.38,-131.25 1713.37,-126.58"/>
<polygon fill="#63b8ff" stroke="#63b8ff" points="1003.93,-187.34 994.15,-191.42 1004.34,-194.33 1003.93,-187.34"/>
</a>
</g>
</g>
<!-- Node5 -->
<g id="Node000005" class="node">
<title>Node5</title>
<g id="a_Node000005"><a xlink:href="adxrs290-pmdz_2src_2platform_2pico_2main_8c.html" target="_top" xlink:title="Main file for pico platform of adxrs290 project.">
<polygon fill="white" stroke="#666666" points="314.5,-46.5 145.5,-46.5 145.5,-5.5 314.5,-5.5 314.5,-46.5"/>
<text text-anchor="start" x="153.5" y="-34.5" font-family="Helvetica,sans-Serif" font-size="10.00">/home/runner/work/no</text>
<text text-anchor="start" x="153.5" y="-23.5" font-family="Helvetica,sans-Serif" font-size="10.00">&#45;OS/no&#45;OS/projects/adxrs290</text>
<text text-anchor="middle" x="230" y="-12.5" font-family="Helvetica,sans-Serif" font-size="10.00">&#45;pmdz/src/platform/pico/main.c</text>
</a>
</g>
</g>
<!-- Node4&#45;&gt;Node5 -->
<g id="edge4_Node000004_Node000005" class="edge">
<title>Node4&#45;&gt;Node5</title>
<g id="a_edge4_Node000004_Node000005"><a xlink:title=" ">
<path fill="none" stroke="#63b8ff" d="M377.34,-89.42C345.6,-75.97 306.27,-59.31 276.23,-46.59"/>
<polygon fill="#63b8ff" stroke="#63b8ff" points="376.36,-92.81 386.94,-93.49 379.09,-86.36 376.36,-92.81"/>
</a>
</g>
</g>
<!-- Node6 -->
<g id="Node000006" class="node">
<title>Node6</title>
<g id="a_Node000006"><a xlink:href="adxrs290-pmdz_2src_2platform_2pico_2parameters_8c.html" target="_top" xlink:title="Definition of pico platform data used by adxrs290 project.">
<polygon fill="white" stroke="#666666" points="533,-46.5 333,-46.5 333,-5.5 533,-5.5 533,-46.5"/>
<text text-anchor="start" x="341" y="-34.5" font-family="Helvetica,sans-Serif" font-size="10.00">/home/runner/work/no</text>
<text text-anchor="start" x="341" y="-23.5" font-family="Helvetica,sans-Serif" font-size="10.00">&#45;OS/no&#45;OS/projects/adxrs290</text>
<text text-anchor="middle" x="433" y="-12.5" font-family="Helvetica,sans-Serif" font-size="10.00">&#45;pmdz/src/platform/pico/parameters.c</text>
</a>
</g>
</g>
<!-- Node4&#45;&gt;Node6 -->
<g id="edge5_Node000004_Node000006" class="edge">
<title>Node4&#45;&gt;Node6</title>
<g id="a_edge5_Node000004_Node000006"><a xlink:title=" ">
<path fill="none" stroke="#63b8ff" d="M433,-83.36C433,-71.26 433,-57.58 433,-46.74"/>
<polygon fill="#63b8ff" stroke="#63b8ff" points="429.5,-83.49 433,-93.49 436.5,-83.49 429.5,-83.49"/>
</a>
</g>
</g>
<!-- Node8 -->
<g id="Node000008" class="node">
<title>Node8</title>
<g id="a_Node000008"><a xlink:href="eval-adis1646x_2src_2platform_2pico_2parameters_8c.html" target="_top" xlink:title="Definition of pico platform data used by eval&#45;adis1646x project.">
<polygon fill="white" stroke="#666666" points="684.5,-52 551.5,-52 551.5,0 684.5,0 684.5,-52"/>
<text text-anchor="start" x="559.5" y="-40" font-family="Helvetica,sans-Serif" font-size="10.00">/home/runner/work/no</text>
<text text-anchor="start" x="559.5" y="-29" font-family="Helvetica,sans-Serif" font-size="10.00">&#45;OS/no&#45;OS/projects/eval</text>
<text text-anchor="start" x="559.5" y="-18" font-family="Helvetica,sans-Serif" font-size="10.00">&#45;adis1646x/src/platform</text>
<text text-anchor="middle" x="618" y="-7" font-family="Helvetica,sans-Serif" font-size="10.00">/pico/parameters.c</text>
</a>
</g>
</g>
<!-- Node7&#45;&gt;Node8 -->
<g id="edge7_Node000007_Node000008" class="edge">
<title>Node7&#45;&gt;Node8</title>
<g id="a_edge7_Node000007_Node000008"><a xlink:title=" ">
<path fill="none" stroke="#63b8ff" d="M618,-77.56C618,-69.04 618,-60.1 618,-52.16"/>
<polygon fill="#63b8ff" stroke="#63b8ff" points="614.5,-77.66 618,-87.66 621.5,-77.66 614.5,-77.66"/>
</a>
</g>
</g>
<!-- Node10 -->
<g id="Node000010" class="node">
<title>Node10</title>
<g id="a_Node000010"><a xlink:href="eval-adis1647x_2src_2platform_2pico_2parameters_8c.html" target="_top" xlink:title="Definition of pico platform data used by eval&#45;adis1647x project.">
<polygon fill="white" stroke="#666666" points="835.5,-52 702.5,-52 702.5,0 835.5,0 835.5,-52"/>
<text text-anchor="start" x="710.5" y="-40" font-family="Helvetica,sans-Serif" font-size="10.00">/home/runner/work/no</text>
<text text-anchor="start" x="710.5" y="-29" font-family="Helvetica,sans-Serif" font-size="10.00">&#45;OS/no&#45;OS/projects/eval</text>
<text text-anchor="start" x="710.5" y="-18" font-family="Helvetica,sans-Serif" font-size="10.00">&#45;adis1647x/src/platform</text>
<text text-anchor="middle" x="769" y="-7" font-family="Helvetica,sans-Serif" font-size="10.00">/pico/parameters.c</text>
</a>
</g>
</g>
<!-- Node9&#45;&gt;Node10 -->
<g id="edge9_Node000009_Node000010" class="edge">
<title>Node9&#45;&gt;Node10</title>
<g id="a_edge9_Node000009_Node000010"><a xlink:title=" ">
<path fill="none" stroke="#63b8ff" d="M769,-77.56C769,-69.04 769,-60.1 769,-52.16"/>
<polygon fill="#63b8ff" stroke="#63b8ff" points="765.5,-77.66 769,-87.66 772.5,-77.66 765.5,-77.66"/>
</a>
</g>
</g>
<!-- Node12 -->
<g id="Node000012" class="node">
<title>Node12</title>
<g id="a_Node000012"><a xlink:href="eval-adis1650x_2src_2platform_2pico_2parameters_8c.html" target="_top" xlink:title="Definition of pico platform data used by eval&#45;adis1650x project.">
<polygon fill="white" stroke="#666666" points="986.5,-52 853.5,-52 853.5,0 986.5,0 986.5,-52"/>
<text text-anchor="start" x="861.5" y="-40" font-family="Helvetica,sans-Serif" font-size="10.00">/home/runner/work/no</text>
<text text-anchor="start" x="861.5" y="-29" font-family="Helvetica,sans-Serif" font-size="10.00">&#45;OS/no&#45;OS/projects/eval</text>
<text text-anchor="start" x="861.5" y="-18" font-family="Helvetica,sans-Serif" font-size="10.00">&#45;adis1650x/src/platform</text>
<text text-anchor="middle" x="920" y="-7" font-family="Helvetica,sans-Serif" font-size="10.00">/pico/parameters.c</text>
</a>
</g>
</g>
<!-- Node11&#45;&gt;Node12 -->
<g id="edge11_Node000011_Node000012" class="edge">
<title>Node11&#45;&gt;Node12</title>
<g id="a_edge11_Node000011_Node000012"><a xlink:title=" ">
<path fill="none" stroke="#63b8ff" d="M920,-77.56C920,-69.04 920,-60.1 920,-52.16"/>
<polygon fill="#63b8ff" stroke="#63b8ff" points="916.5,-77.66 920,-87.66 923.5,-77.66 916.5,-77.66"/>
</a>
</g>
</g>
<!-- Node14 -->
<g id="Node000014" class="node">
<title>Node14</title>
<g id="a_Node000014"><a xlink:href="eval-adis1654x_2src_2platform_2pico_2parameters_8c.html" target="_top" xlink:title="Definition of pico platform data used by eval&#45;adis1654x project.">
<polygon fill="white" stroke="#666666" points="1137.5,-52 1004.5,-52 1004.5,0 1137.5,0 1137.5,-52"/>
<text text-anchor="start" x="1012.5" y="-40" font-family="Helvetica,sans-Serif" font-size="10.00">/home/runner/work/no</text>
<text text-anchor="start" x="1012.5" y="-29" font-family="Helvetica,sans-Serif" font-size="10.00">&#45;OS/no&#45;OS/projects/eval</text>
<text text-anchor="start" x="1012.5" y="-18" font-family="Helvetica,sans-Serif" font-size="10.00">&#45;adis1654x/src/platform</text>
<text text-anchor="middle" x="1071" y="-7" font-family="Helvetica,sans-Serif" font-size="10.00">/pico/parameters.c</text>
</a>
</g>
</g>
<!-- Node13&#45;&gt;Node14 -->
<g id="edge13_Node000013_Node000014" class="edge">
<title>Node13&#45;&gt;Node14</title>
<g id="a_edge13_Node000013_Node000014"><a xlink:title=" ">
<path fill="none" stroke="#63b8ff" d="M1071,-77.56C1071,-69.04 1071,-60.1 1071,-52.16"/>
<polygon fill="#63b8ff" stroke="#63b8ff" points="1067.5,-77.66 1071,-87.66 1074.5,-77.66 1067.5,-77.66"/>
</a>
</g>
</g>
<!-- Node16 -->
<g id="Node000016" class="node">
<title>Node16</title>
<g id="a_Node000016"><a xlink:href="eval-adis1655x_2src_2platform_2pico_2parameters_8c.html" target="_top" xlink:title="Definition of pico platform data used by eval&#45;adis1655x project.">
<polygon fill="white" stroke="#666666" points="1288.5,-52 1155.5,-52 1155.5,0 1288.5,0 1288.5,-52"/>
<text text-anchor="start" x="1163.5" y="-40" font-family="Helvetica,sans-Serif" font-size="10.00">/home/runner/work/no</text>
<text text-anchor="start" x="1163.5" y="-29" font-family="Helvetica,sans-Serif" font-size="10.00">&#45;OS/no&#45;OS/projects/eval</text>
<text text-anchor="start" x="1163.5" y="-18" font-family="Helvetica,sans-Serif" font-size="10.00">&#45;adis1655x/src/platform</text>
<text text-anchor="middle" x="1222" y="-7" font-family="Helvetica,sans-Serif" font-size="10.00">/pico/parameters.c</text>
</a>
</g>
</g>
<!-- Node15&#45;&gt;Node16 -->
<g id="edge15_Node000015_Node000016" class="edge">
<title>Node15&#45;&gt;Node16</title>
<g id="a_edge15_Node000015_Node000016"><a xlink:title=" ">
<path fill="none" stroke="#63b8ff" d="M1222,-77.56C1222,-69.04 1222,-60.1 1222,-52.16"/>
<polygon fill="#63b8ff" stroke="#63b8ff" points="1218.5,-77.66 1222,-87.66 1225.5,-77.66 1218.5,-77.66"/>
</a>
</g>
</g>
<!-- Node18 -->
<g id="Node000018" class="node">
<title>Node18</title>
<g id="a_Node000018"><a xlink:href="eval-adis1657x_2src_2platform_2pico_2parameters_8c.html" target="_top" xlink:title="Definition of pico platform data used by eval&#45;adis1657x project.">
<polygon fill="white" stroke="#666666" points="1439.5,-52 1306.5,-52 1306.5,0 1439.5,0 1439.5,-52"/>
<text text-anchor="start" x="1314.5" y="-40" font-family="Helvetica,sans-Serif" font-size="10.00">/home/runner/work/no</text>
<text text-anchor="start" x="1314.5" y="-29" font-family="Helvetica,sans-Serif" font-size="10.00">&#45;OS/no&#45;OS/projects/eval</text>
<text text-anchor="start" x="1314.5" y="-18" font-family="Helvetica,sans-Serif" font-size="10.00">&#45;adis1657x/src/platform</text>
<text text-anchor="middle" x="1373" y="-7" font-family="Helvetica,sans-Serif" font-size="10.00">/pico/parameters.c</text>
</a>
</g>
</g>
<!-- Node17&#45;&gt;Node18 -->
<g id="edge17_Node000017_Node000018" class="edge">
<title>Node17&#45;&gt;Node18</title>
<g id="a_edge17_Node000017_Node000018"><a xlink:title=" ">
<path fill="none" stroke="#63b8ff" d="M1373,-77.56C1373,-69.04 1373,-60.1 1373,-52.16"/>
<polygon fill="#63b8ff" stroke="#63b8ff" points="1369.5,-77.66 1373,-87.66 1376.5,-77.66 1369.5,-77.66"/>
</a>
</g>
</g>
<!-- Node20 -->
<g id="Node000020" class="node">
<title>Node20</title>
<g id="a_Node000020"><a xlink:href="eval-adxl355-pmdz_2src_2platform_2pico_2main_8c.html" target="_top" xlink:title="Main file for pico platform of eval&#45;adxl355&#45;pmdz project.">
<polygon fill="white" stroke="#666666" points="1610,-52 1458,-52 1458,0 1610,0 1610,-52"/>
<text text-anchor="start" x="1466" y="-40" font-family="Helvetica,sans-Serif" font-size="10.00">/home/runner/work/no</text>
<text text-anchor="start" x="1466" y="-29" font-family="Helvetica,sans-Serif" font-size="10.00">&#45;OS/no&#45;OS/projects/eval</text>
<text text-anchor="start" x="1466" y="-18" font-family="Helvetica,sans-Serif" font-size="10.00">&#45;adxl355&#45;pmdz/src/platform</text>
<text text-anchor="middle" x="1534" y="-7" font-family="Helvetica,sans-Serif" font-size="10.00">/pico/main.c</text>
</a>
</g>
</g>
<!-- Node19&#45;&gt;Node20 -->
<g id="edge19_Node000019_Node000020" class="edge">
<title>Node19&#45;&gt;Node20</title>
<g id="a_edge19_Node000019_Node000020"><a xlink:title=" ">
<path fill="none" stroke="#63b8ff" d="M1534,-77.56C1534,-69.04 1534,-60.1 1534,-52.16"/>
<polygon fill="#63b8ff" stroke="#63b8ff" points="1530.5,-77.66 1534,-87.66 1537.5,-77.66 1530.5,-77.66"/>
</a>
</g>
</g>
<!-- Node21 -->
<g id="Node000021" class="node">
<title>Node21</title>
<g id="a_Node000021"><a xlink:href="eval-adxl355-pmdz_2src_2platform_2pico_2parameters_8c.html" target="_top" xlink:title="Definition of pico platform data used by eval&#45;adxl355&#45;pmdz project.">
<polygon fill="white" stroke="#666666" points="1780,-52 1628,-52 1628,0 1780,0 1780,-52"/>
<text text-anchor="start" x="1636" y="-40" font-family="Helvetica,sans-Serif" font-size="10.00">/home/runner/work/no</text>
<text text-anchor="start" x="1636" y="-29" font-family="Helvetica,sans-Serif" font-size="10.00">&#45;OS/no&#45;OS/projects/eval</text>
<text text-anchor="start" x="1636" y="-18" font-family="Helvetica,sans-Serif" font-size="10.00">&#45;adxl355&#45;pmdz/src/platform</text>
<text text-anchor="middle" x="1704" y="-7" font-family="Helvetica,sans-Serif" font-size="10.00">/pico/parameters.c</text>
</a>
</g>
</g>
<!-- Node19&#45;&gt;Node21 -->
<g id="edge20_Node000019_Node000021" class="edge">
<title>Node19&#45;&gt;Node21</title>
<g id="a_edge20_Node000019_Node000021"><a xlink:title=" ">
<path fill="none" stroke="#63b8ff" d="M1592.68,-83.31C1612.76,-73.16 1635.01,-61.9 1654.31,-52.14"/>
<polygon fill="#63b8ff" stroke="#63b8ff" points="1590.97,-80.26 1583.63,-87.89 1594.13,-86.5 1590.97,-80.26"/>
</a>
</g>
</g>
<!-- Node23 -->
<g id="Node000023" class="node">
<title>Node23</title>
<g id="a_Node000023"><a xlink:href="iio__demo_2src_2platform_2pico_2parameters_8c.html" target="_top" xlink:title="Definition of pico platform data used by iio_demo project.">
<polygon fill="white" stroke="#666666" points="1933.5,-52 1798.5,-52 1798.5,0 1933.5,0 1933.5,-52"/>
<text text-anchor="start" x="1806.5" y="-40" font-family="Helvetica,sans-Serif" font-size="10.00">/home/runner/work/no</text>
<text text-anchor="start" x="1806.5" y="-29" font-family="Helvetica,sans-Serif" font-size="10.00">&#45;OS/no&#45;OS/projects/iio</text>
<text text-anchor="start" x="1806.5" y="-18" font-family="Helvetica,sans-Serif" font-size="10.00">_demo/src/platform/pico</text>
<text text-anchor="middle" x="1866" y="-7" font-family="Helvetica,sans-Serif" font-size="10.00">/parameters.c</text>
</a>
</g>
</g>
<!-- Node22&#45;&gt;Node23 -->
<g id="edge22_Node000022_Node000023" class="edge">
<title>Node22&#45;&gt;Node23</title>
<g id="a_edge22_Node000022_Node000023"><a xlink:title=" ">
<path fill="none" stroke="#63b8ff" d="M1813.27,-80.35C1822.5,-71.01 1832.42,-60.98 1841.14,-52.16"/>
<polygon fill="#63b8ff" stroke="#63b8ff" points="1810.58,-78.09 1806.04,-87.66 1815.56,-83.01 1810.58,-78.09"/>
</a>
</g>
</g>
</g>
</svg>

<g id="navigator" transform="translate(0 0)" fill="#404254">
  <rect fill="#f2f5e9" fill-opacity="0.5" stroke="#606060" stroke-width=".5" x="0" y="0" width="60" height="60"/>
  <use id="zoomplus" xlink:href="#zoomPlus" x="17" y="9" onmousedown="handleZoom(evt,'in')"/>
  <use id="zoomminus" xlink:href="#zoomMin" x="42" y="9" onmousedown="handleZoom(evt,'out')"/>
  <use id="reset" xlink:href="#resetDef" x="30" y="36" onmousedown="handleReset()"/>
   <use id="arrowup" xlink:href="#arrowUp" x="0" y="0" onmousedown="handlePan(0,-1)"/>
  <use id="arrowright" xlink:href="#arrowRight" x="0" y="0" onmousedown="handlePan(1,0)"/>
  <use id="arrowdown" xlink:href="#arrowDown" x="0" y="0" onmousedown="handlePan(0,1)"/>
  <use id="arrowleft" xlink:href="#arrowLeft" x="0" y="0" onmousedown="handlePan(-1,0)"/>
</g>
<svg viewBox="0 0 15 15" width="100%" height="30px" preserveAspectRatio="xMaxYMin meet">
 <g id="arrow_out" transform="scale(0.3 0.3)">
  <a xlink:href="pico__uart_8h__dep__incl_org.svg" target="_base">
   <rect id="button" ry="5" rx="5" y="6" x="6" height="38" width="38"
        fill="#f2f5e9" fill-opacity="0.5" stroke="#606060" stroke-width="1.0"/>
   <path id="arrow"
     d="M 11.500037,31.436501 C 11.940474,20.09759 22.043105,11.32322 32.158766,21.979434 L 37.068811,17.246167 C 37.068811,17.246167 37.088388,32 37.088388,32 L 22.160133,31.978069 C 22.160133,31.978069 26.997745,27.140456 26.997745,27.140456 C 18.528582,18.264221 13.291696,25.230495 11.500037,31.436501 z"
     style="fill:#404040;"/>
  </a>
 </g>
</svg>

<style type='text/css'>
<![CDATA[
[data-mouse-over-selected='false'] { opacity: 0.7; }
[data-mouse-over-selected='true']  { opacity: 1.0; }
]]>
</style>
<script type="application/ecmascript"><![CDATA[
document.addEventListener('DOMContentLoaded', (event) => {
  highlightEdges();
  highlightAdjacentNodes();
});
]]></script>
</svg>
