<?xml version="1.0" encoding="UTF-8" standalone="no"?>
<!DOCTYPE svg PUBLIC "-//W3C//DTD SVG 1.1//EN"
 "http://www.w3.org/Graphics/SVG/1.1/DTD/svg11.dtd">
<!-- Generated by graphviz version 2.43.0 (0)
 -->
<!-- Title: /home/runner/work/no&#45;OS/no&#45;OS/drivers/platform/pico/pico_spi.h Pages: 1 -->
<svg width="1643pt" height="225pt"
 viewBox="0.00 0.00 1642.50 225.00" xmlns="http://www.w3.org/2000/svg" xmlns:xlink="http://www.w3.org/1999/xlink">
<g id="graph0" class="graph" transform="scale(1 1) rotate(0) translate(4 221)">
<title>/home/runner/work/no&#45;OS/no&#45;OS/drivers/platform/pico/pico_spi.h</title>
<!-- Node1 -->
<g id="Node000001" class="node">
<title>Node1</title>
<g id="a_Node000001"><a xlink:title="Header file for the pico spi driver.">
<polygon fill="#999999" stroke="#666666" points="848.5,-217 700.5,-217 700.5,-176 848.5,-176 848.5,-217"/>
<text text-anchor="start" x="708.5" y="-205" font-family="Helvetica,sans-Serif" font-size="10.00">/home/runner/work/no</text>
<text text-anchor="start" x="708.5" y="-194" font-family="Helvetica,sans-Serif" font-size="10.00">&#45;OS/no&#45;OS/drivers/platform</text>
<text text-anchor="middle" x="774.5" y="-183" font-family="Helvetica,sans-Serif" font-size="10.00">/pico/pico_spi.h</text>
</a>
</g>
</g>
<!-- Node2 -->
<g id="Node000002" class="node">
<title>Node2</title>
<g id="a_Node000002"><a xlink:href="pico__spi_8c.html" target="_top" xlink:title="Implementation of pico spi driver.">
<polygon fill="white" stroke="#666666" points="168.5,-134.5 20.5,-134.5 20.5,-93.5 168.5,-93.5 168.5,-134.5"/>
<text text-anchor="start" x="28.5" y="-122.5" font-family="Helvetica,sans-Serif" font-size="10.00">/home/runner/work/no</text>
<text text-anchor="start" x="28.5" y="-111.5" font-family="Helvetica,sans-Serif" font-size="10.00">&#45;OS/no&#45;OS/drivers/platform</text>
<text text-anchor="middle" x="94.5" y="-100.5" font-family="Helvetica,sans-Serif" font-size="10.00">/pico/pico_spi.c</text>
</a>
</g>
</g>
<!-- Node1&#45;&gt;Node2 -->
<g id="edge1_Node000001_Node000002" class="edge">
<title>Node1&#45;&gt;Node2</title>
<g id="a_edge1_Node000001_Node000002"><a xlink:title=" ">
<path fill="none" stroke="#63b8ff" d="M690.04,-192.96C573.69,-188.25 358,-175.21 177.5,-140 169.97,-138.53 162.14,-136.65 154.44,-134.59"/>
<polygon fill="#63b8ff" stroke="#63b8ff" points="690.17,-196.46 700.3,-193.36 690.44,-189.47 690.17,-196.46"/>
</a>
</g>
</g>
<!-- Node3 -->
<g id="Node000003" class="node">
<title>Node3</title>
<g id="a_Node000003"><a xlink:href="adxrs290-pmdz_2src_2platform_2pico_2parameters_8h.html" target="_top" xlink:title="Definitions specific to pico platform used by adxrs290 project.">
<polygon fill="white" stroke="#666666" points="388,-134.5 187,-134.5 187,-93.5 388,-93.5 388,-134.5"/>
<text text-anchor="start" x="195" y="-122.5" font-family="Helvetica,sans-Serif" font-size="10.00">/home/runner/work/no</text>
<text text-anchor="start" x="195" y="-111.5" font-family="Helvetica,sans-Serif" font-size="10.00">&#45;OS/no&#45;OS/projects/adxrs290</text>
<text text-anchor="middle" x="287.5" y="-100.5" font-family="Helvetica,sans-Serif" font-size="10.00">&#45;pmdz/src/platform/pico/parameters.h</text>
</a>
</g>
</g>
<!-- Node1&#45;&gt;Node3 -->
<g id="edge2_Node000001_Node000003" class="edge">
<title>Node1&#45;&gt;Node3</title>
<g id="a_edge2_Node000001_Node000003"><a xlink:title=" ">
<path fill="none" stroke="#63b8ff" d="M690.23,-185.08C613.41,-175.12 496.94,-158.86 396.5,-140 387.72,-138.35 378.58,-136.49 369.49,-134.54"/>
<polygon fill="#63b8ff" stroke="#63b8ff" points="689.96,-188.58 700.33,-186.39 690.86,-181.64 689.96,-188.58"/>
</a>
</g>
</g>
<!-- Node6 -->
<g id="Node000006" class="node">
<title>Node6</title>
<g id="a_Node000006"><a xlink:href="eval-adis1646x_2src_2platform_2pico_2parameters_8h.html" target="_top" xlink:title="Definitions specific to pico platform used by eval&#45;adis1646x project.">
<polygon fill="white" stroke="#666666" points="539,-140 406,-140 406,-88 539,-88 539,-140"/>
<text text-anchor="start" x="414" y="-128" font-family="Helvetica,sans-Serif" font-size="10.00">/home/runner/work/no</text>
<text text-anchor="start" x="414" y="-117" font-family="Helvetica,sans-Serif" font-size="10.00">&#45;OS/no&#45;OS/projects/eval</text>
<text text-anchor="start" x="414" y="-106" font-family="Helvetica,sans-Serif" font-size="10.00">&#45;adis1646x/src/platform</text>
<text text-anchor="middle" x="472.5" y="-95" font-family="Helvetica,sans-Serif" font-size="10.00">/pico/parameters.h</text>
</a>
</g>
</g>
<!-- Node1&#45;&gt;Node6 -->
<g id="edge5_Node000001_Node000006" class="edge">
<title>Node1&#45;&gt;Node6</title>
<g id="a_edge5_Node000001_Node000006"><a xlink:title=" ">
<path fill="none" stroke="#63b8ff" d="M690.63,-176.73C647.61,-166.66 594.51,-153.56 547.5,-140 544.73,-139.2 541.91,-138.37 539.07,-137.5"/>
<polygon fill="#63b8ff" stroke="#63b8ff" points="689.96,-180.16 700.49,-179.02 691.54,-173.34 689.96,-180.16"/>
</a>
</g>
</g>
<!-- Node8 -->
<g id="Node000008" class="node">
<title>Node8</title>
<g id="a_Node000008"><a xlink:href="eval-adis1647x_2src_2platform_2pico_2parameters_8h.html" target="_top" xlink:title="Definitions specific to pico platform used by eval&#45;adis1647x project.">
<polygon fill="white" stroke="#666666" points="690,-140 557,-140 557,-88 690,-88 690,-140"/>
<text text-anchor="start" x="565" y="-128" font-family="Helvetica,sans-Serif" font-size="10.00">/home/runner/work/no</text>
<text text-anchor="start" x="565" y="-117" font-family="Helvetica,sans-Serif" font-size="10.00">&#45;OS/no&#45;OS/projects/eval</text>
<text text-anchor="start" x="565" y="-106" font-family="Helvetica,sans-Serif" font-size="10.00">&#45;adis1647x/src/platform</text>
<text text-anchor="middle" x="623.5" y="-95" font-family="Helvetica,sans-Serif" font-size="10.00">/pico/parameters.h</text>
</a>
</g>
</g>
<!-- Node1&#45;&gt;Node8 -->
<g id="edge7_Node000001_Node000008" class="edge">
<title>Node1&#45;&gt;Node8</title>
<g id="a_edge7_Node000001_Node000008"><a xlink:title=" ">
<path fill="none" stroke="#63b8ff" d="M728.53,-170.99C710.19,-161.21 689.09,-149.97 670.63,-140.13"/>
<polygon fill="#63b8ff" stroke="#63b8ff" points="727.09,-174.19 737.56,-175.81 730.38,-168.01 727.09,-174.19"/>
</a>
</g>
</g>
<!-- Node10 -->
<g id="Node000010" class="node">
<title>Node10</title>
<g id="a_Node000010"><a xlink:href="eval-adis1650x_2src_2platform_2pico_2parameters_8h.html" target="_top" xlink:title="Definitions specific to pico platform used by eval&#45;adis1650x project.">
<polygon fill="white" stroke="#666666" points="841,-140 708,-140 708,-88 841,-88 841,-140"/>
<text text-anchor="start" x="716" y="-128" font-family="Helvetica,sans-Serif" font-size="10.00">/home/runner/work/no</text>
<text text-anchor="start" x="716" y="-117" font-family="Helvetica,sans-Serif" font-size="10.00">&#45;OS/no&#45;OS/projects/eval</text>
<text text-anchor="start" x="716" y="-106" font-family="Helvetica,sans-Serif" font-size="10.00">&#45;adis1650x/src/platform</text>
<text text-anchor="middle" x="774.5" y="-95" font-family="Helvetica,sans-Serif" font-size="10.00">/pico/parameters.h</text>
</a>
</g>
</g>
<!-- Node1&#45;&gt;Node10 -->
<g id="edge9_Node000001_Node000010" class="edge">
<title>Node1&#45;&gt;Node10</title>
<g id="a_edge9_Node000001_Node000010"><a xlink:title=" ">
<path fill="none" stroke="#63b8ff" d="M774.5,-165.49C774.5,-157.15 774.5,-148.19 774.5,-140.16"/>
<polygon fill="#63b8ff" stroke="#63b8ff" points="771,-165.6 774.5,-175.6 778,-165.6 771,-165.6"/>
</a>
</g>
</g>
<!-- Node12 -->
<g id="Node000012" class="node">
<title>Node12</title>
<g id="a_Node000012"><a xlink:href="eval-adis1654x_2src_2platform_2pico_2parameters_8h.html" target="_top" xlink:title="Definitions specific to pico platform used by eval&#45;adis1654x project.">
<polygon fill="white" stroke="#666666" points="992,-140 859,-140 859,-88 992,-88 992,-140"/>
<text text-anchor="start" x="867" y="-128" font-family="Helvetica,sans-Serif" font-size="10.00">/home/runner/work/no</text>
<text text-anchor="start" x="867" y="-117" font-family="Helvetica,sans-Serif" font-size="10.00">&#45;OS/no&#45;OS/projects/eval</text>
<text text-anchor="start" x="867" y="-106" font-family="Helvetica,sans-Serif" font-size="10.00">&#45;adis1654x/src/platform</text>
<text text-anchor="middle" x="925.5" y="-95" font-family="Helvetica,sans-Serif" font-size="10.00">/pico/parameters.h</text>
</a>
</g>
</g>
<!-- Node1&#45;&gt;Node12 -->
<g id="edge11_Node000001_Node000012" class="edge">
<title>Node1&#45;&gt;Node12</title>
<g id="a_edge11_Node000001_Node000012"><a xlink:title=" ">
<path fill="none" stroke="#63b8ff" d="M820.47,-170.99C838.81,-161.21 859.91,-149.97 878.37,-140.13"/>
<polygon fill="#63b8ff" stroke="#63b8ff" points="818.62,-168.01 811.44,-175.81 821.91,-174.19 818.62,-168.01"/>
</a>
</g>
</g>
<!-- Node14 -->
<g id="Node000014" class="node">
<title>Node14</title>
<g id="a_Node000014"><a xlink:href="eval-adis1655x_2src_2platform_2pico_2parameters_8h.html" target="_top" xlink:title="Definitions specific to pico platform used by eval&#45;adis1655x project.">
<polygon fill="white" stroke="#666666" points="1143,-140 1010,-140 1010,-88 1143,-88 1143,-140"/>
<text text-anchor="start" x="1018" y="-128" font-family="Helvetica,sans-Serif" font-size="10.00">/home/runner/work/no</text>
<text text-anchor="start" x="1018" y="-117" font-family="Helvetica,sans-Serif" font-size="10.00">&#45;OS/no&#45;OS/projects/eval</text>
<text text-anchor="start" x="1018" y="-106" font-family="Helvetica,sans-Serif" font-size="10.00">&#45;adis1655x/src/platform</text>
<text text-anchor="middle" x="1076.5" y="-95" font-family="Helvetica,sans-Serif" font-size="10.00">/pico/parameters.h</text>
</a>
</g>
</g>
<!-- Node1&#45;&gt;Node14 -->
<g id="edge13_Node000001_Node000014" class="edge">
<title>Node1&#45;&gt;Node14</title>
<g id="a_edge13_Node000001_Node000014"><a xlink:title=" ">
<path fill="none" stroke="#63b8ff" d="M858.47,-176.5C901.2,-166.43 953.84,-153.38 1000.5,-140 1003.57,-139.12 1006.7,-138.19 1009.86,-137.24"/>
<polygon fill="#63b8ff" stroke="#63b8ff" points="857.61,-173.11 848.67,-178.8 859.21,-179.93 857.61,-173.11"/>
</a>
</g>
</g>
<!-- Node16 -->
<g id="Node000016" class="node">
<title>Node16</title>
<g id="a_Node000016"><a xlink:href="eval-adis1657x_2src_2platform_2pico_2parameters_8h.html" target="_top" xlink:title="Definitions specific to pico platform used by eval&#45;adis1657x project.">
<polygon fill="white" stroke="#666666" points="1294,-140 1161,-140 1161,-88 1294,-88 1294,-140"/>
<text text-anchor="start" x="1169" y="-128" font-family="Helvetica,sans-Serif" font-size="10.00">/home/runner/work/no</text>
<text text-anchor="start" x="1169" y="-117" font-family="Helvetica,sans-Serif" font-size="10.00">&#45;OS/no&#45;OS/projects/eval</text>
<text text-anchor="start" x="1169" y="-106" font-family="Helvetica,sans-Serif" font-size="10.00">&#45;adis1657x/src/platform</text>
<text text-anchor="middle" x="1227.5" y="-95" font-family="Helvetica,sans-Serif" font-size="10.00">/pico/parameters.h</text>
</a>
</g>
</g>
<!-- Node1&#45;&gt;Node16 -->
<g id="edge15_Node000001_Node000016" class="edge">
<title>Node1&#45;&gt;Node16</title>
<g id="a_edge15_Node000001_Node000016"><a xlink:title=" ">
<path fill="none" stroke="#63b8ff" d="M858.65,-187.3C935.57,-178.81 1052.14,-163.47 1151.5,-140 1154.61,-139.27 1157.77,-138.46 1160.96,-137.61"/>
<polygon fill="#63b8ff" stroke="#63b8ff" points="858.1,-183.84 848.54,-188.4 858.86,-190.8 858.1,-183.84"/>
</a>
</g>
</g>
<!-- Node18 -->
<g id="Node000018" class="node">
<title>Node18</title>
<g id="a_Node000018"><a xlink:href="eval-adxl355-pmdz_2src_2platform_2pico_2parameters_8h.html" target="_top" xlink:title="Definitions specific to pico platform used by eval&#45;adxl355&#45;pmdz project.">
<polygon fill="white" stroke="#666666" points="1464.5,-140 1312.5,-140 1312.5,-88 1464.5,-88 1464.5,-140"/>
<text text-anchor="start" x="1320.5" y="-128" font-family="Helvetica,sans-Serif" font-size="10.00">/home/runner/work/no</text>
<text text-anchor="start" x="1320.5" y="-117" font-family="Helvetica,sans-Serif" font-size="10.00">&#45;OS/no&#45;OS/projects/eval</text>
<text text-anchor="start" x="1320.5" y="-106" font-family="Helvetica,sans-Serif" font-size="10.00">&#45;adxl355&#45;pmdz/src/platform</text>
<text text-anchor="middle" x="1388.5" y="-95" font-family="Helvetica,sans-Serif" font-size="10.00">/pico/parameters.h</text>
</a>
</g>
</g>
<!-- Node1&#45;&gt;Node18 -->
<g id="edge17_Node000001_Node000018" class="edge">
<title>Node1&#45;&gt;Node18</title>
<g id="a_edge17_Node000001_Node000018"><a xlink:title=" ">
<path fill="none" stroke="#63b8ff" d="M858.95,-191.37C963.96,-185.16 1148.32,-170.7 1303.5,-140 1306.37,-139.43 1309.28,-138.81 1312.21,-138.15"/>
<polygon fill="#63b8ff" stroke="#63b8ff" points="858.51,-187.89 848.73,-191.97 858.92,-194.88 858.51,-187.89"/>
</a>
</g>
</g>
<!-- Node4 -->
<g id="Node000004" class="node">
<title>Node4</title>
<g id="a_Node000004"><a xlink:href="adxrs290-pmdz_2src_2platform_2pico_2main_8c.html" target="_top" xlink:title="Main file for pico platform of adxrs290 project.">
<polygon fill="white" stroke="#666666" points="169,-46.5 0,-46.5 0,-5.5 169,-5.5 169,-46.5"/>
<text text-anchor="start" x="8" y="-34.5" font-family="Helvetica,sans-Serif" font-size="10.00">/home/runner/work/no</text>
<text text-anchor="start" x="8" y="-23.5" font-family="Helvetica,sans-Serif" font-size="10.00">&#45;OS/no&#45;OS/projects/adxrs290</text>
<text text-anchor="middle" x="84.5" y="-12.5" font-family="Helvetica,sans-Serif" font-size="10.00">&#45;pmdz/src/platform/pico/main.c</text>
</a>
</g>
</g>
<!-- Node3&#45;&gt;Node4 -->
<g id="edge3_Node000003_Node000004" class="edge">
<title>Node3&#45;&gt;Node4</title>
<g id="a_edge3_Node000003_Node000004"><a xlink:title=" ">
<path fill="none" stroke="#63b8ff" d="M231.84,-89.42C200.1,-75.97 160.77,-59.31 130.73,-46.59"/>
<polygon fill="#63b8ff" stroke="#63b8ff" points="230.86,-92.81 241.44,-93.49 233.59,-86.36 230.86,-92.81"/>
</a>
</g>
</g>
<!-- Node5 -->
<g id="Node000005" class="node">
<title>Node5</title>
<g id="a_Node000005"><a xlink:href="adxrs290-pmdz_2src_2platform_2pico_2parameters_8c.html" target="_top" xlink:title="Definition of pico platform data used by adxrs290 project.">
<polygon fill="white" stroke="#666666" points="387.5,-46.5 187.5,-46.5 187.5,-5.5 387.5,-5.5 387.5,-46.5"/>
<text text-anchor="start" x="195.5" y="-34.5" font-family="Helvetica,sans-Serif" font-size="10.00">/home/runner/work/no</text>
<text text-anchor="start" x="195.5" y="-23.5" font-family="Helvetica,sans-Serif" font-size="10.00">&#45;OS/no&#45;OS/projects/adxrs290</text>
<text text-anchor="middle" x="287.5" y="-12.5" font-family="Helvetica,sans-Serif" font-size="10.00">&#45;pmdz/src/platform/pico/parameters.c</text>
</a>
</g>
</g>
<!-- Node3&#45;&gt;Node5 -->
<g id="edge4_Node000003_Node000005" class="edge">
<title>Node3&#45;&gt;Node5</title>
<g id="a_edge4_Node000003_Node000005"><a xlink:title=" ">
<path fill="none" stroke="#63b8ff" d="M287.5,-83.36C287.5,-71.26 287.5,-57.58 287.5,-46.74"/>
<polygon fill="#63b8ff" stroke="#63b8ff" points="284,-83.49 287.5,-93.49 291,-83.49 284,-83.49"/>
</a>
</g>
</g>
<!-- Node7 -->
<g id="Node000007" class="node">
<title>Node7</title>
<g id="a_Node000007"><a xlink:href="eval-adis1646x_2src_2platform_2pico_2parameters_8c.html" target="_top" xlink:title="Definition of pico platform data used by eval&#45;adis1646x project.">
<polygon fill="white" stroke="#666666" points="539,-52 406,-52 406,0 539,0 539,-52"/>
<text text-anchor="start" x="414" y="-40" font-family="Helvetica,sans-Serif" font-size="10.00">/home/runner/work/no</text>
<text text-anchor="start" x="414" y="-29" font-family="Helvetica,sans-Serif" font-size="10.00">&#45;OS/no&#45;OS/projects/eval</text>
<text text-anchor="start" x="414" y="-18" font-family="Helvetica,sans-Serif" font-size="10.00">&#45;adis1646x/src/platform</text>
<text text-anchor="middle" x="472.5" y="-7" font-family="Helvetica,sans-Serif" font-size="10.00">/pico/parameters.c</text>
</a>
</g>
</g>
<!-- Node6&#45;&gt;Node7 -->
<g id="edge6_Node000006_Node000007" class="edge">
<title>Node6&#45;&gt;Node7</title>
<g id="a_edge6_Node000006_Node000007"><a xlink:title=" ">
<path fill="none" stroke="#63b8ff" d="M472.5,-77.56C472.5,-69.04 472.5,-60.1 472.5,-52.16"/>
<polygon fill="#63b8ff" stroke="#63b8ff" points="469,-77.66 472.5,-87.66 476,-77.66 469,-77.66"/>
</a>
</g>
</g>
<!-- Node9 -->
<g id="Node000009" class="node">
<title>Node9</title>
<g id="a_Node000009"><a xlink:href="eval-adis1647x_2src_2platform_2pico_2parameters_8c.html" target="_top" xlink:title="Definition of pico platform data used by eval&#45;adis1647x project.">
<polygon fill="white" stroke="#666666" points="690,-52 557,-52 557,0 690,0 690,-52"/>
<text text-anchor="start" x="565" y="-40" font-family="Helvetica,sans-Serif" font-size="10.00">/home/runner/work/no</text>
<text text-anchor="start" x="565" y="-29" font-family="Helvetica,sans-Serif" font-size="10.00">&#45;OS/no&#45;OS/projects/eval</text>
<text text-anchor="start" x="565" y="-18" font-family="Helvetica,sans-Serif" font-size="10.00">&#45;adis1647x/src/platform</text>
<text text-anchor="middle" x="623.5" y="-7" font-family="Helvetica,sans-Serif" font-size="10.00">/pico/parameters.c</text>
</a>
</g>
</g>
<!-- Node8&#45;&gt;Node9 -->
<g id="edge8_Node000008_Node000009" class="edge">
<title>Node8&#45;&gt;Node9</title>
<g id="a_edge8_Node000008_Node000009"><a xlink:title=" ">
<path fill="none" stroke="#63b8ff" d="M623.5,-77.56C623.5,-69.04 623.5,-60.1 623.5,-52.16"/>
<polygon fill="#63b8ff" stroke="#63b8ff" points="620,-77.66 623.5,-87.66 627,-77.66 620,-77.66"/>
</a>
</g>
</g>
<!-- Node11 -->
<g id="Node000011" class="node">
<title>Node11</title>
<g id="a_Node000011"><a xlink:href="eval-adis1650x_2src_2platform_2pico_2parameters_8c.html" target="_top" xlink:title="Definition of pico platform data used by eval&#45;adis1650x project.">
<polygon fill="white" stroke="#666666" points="841,-52 708,-52 708,0 841,0 841,-52"/>
<text text-anchor="start" x="716" y="-40" font-family="Helvetica,sans-Serif" font-size="10.00">/home/runner/work/no</text>
<text text-anchor="start" x="716" y="-29" font-family="Helvetica,sans-Serif" font-size="10.00">&#45;OS/no&#45;OS/projects/eval</text>
<text text-anchor="start" x="716" y="-18" font-family="Helvetica,sans-Serif" font-size="10.00">&#45;adis1650x/src/platform</text>
<text text-anchor="middle" x="774.5" y="-7" font-family="Helvetica,sans-Serif" font-size="10.00">/pico/parameters.c</text>
</a>
</g>
</g>
<!-- Node10&#45;&gt;Node11 -->
<g id="edge10_Node000010_Node000011" class="edge">
<title>Node10&#45;&gt;Node11</title>
<g id="a_edge10_Node000010_Node000011"><a xlink:title=" ">
<path fill="none" stroke="#63b8ff" d="M774.5,-77.56C774.5,-69.04 774.5,-60.1 774.5,-52.16"/>
<polygon fill="#63b8ff" stroke="#63b8ff" points="771,-77.66 774.5,-87.66 778,-77.66 771,-77.66"/>
</a>
</g>
</g>
<!-- Node13 -->
<g id="Node000013" class="node">
<title>Node13</title>
<g id="a_Node000013"><a xlink:href="eval-adis1654x_2src_2platform_2pico_2parameters_8c.html" target="_top" xlink:title="Definition of pico platform data used by eval&#45;adis1654x project.">
<polygon fill="white" stroke="#666666" points="992,-52 859,-52 859,0 992,0 992,-52"/>
<text text-anchor="start" x="867" y="-40" font-family="Helvetica,sans-Serif" font-size="10.00">/home/runner/work/no</text>
<text text-anchor="start" x="867" y="-29" font-family="Helvetica,sans-Serif" font-size="10.00">&#45;OS/no&#45;OS/projects/eval</text>
<text text-anchor="start" x="867" y="-18" font-family="Helvetica,sans-Serif" font-size="10.00">&#45;adis1654x/src/platform</text>
<text text-anchor="middle" x="925.5" y="-7" font-family="Helvetica,sans-Serif" font-size="10.00">/pico/parameters.c</text>
</a>
</g>
</g>
<!-- Node12&#45;&gt;Node13 -->
<g id="edge12_Node000012_Node000013" class="edge">
<title>Node12&#45;&gt;Node13</title>
<g id="a_edge12_Node000012_Node000013"><a xlink:title=" ">
<path fill="none" stroke="#63b8ff" d="M925.5,-77.56C925.5,-69.04 925.5,-60.1 925.5,-52.16"/>
<polygon fill="#63b8ff" stroke="#63b8ff" points="922,-77.66 925.5,-87.66 929,-77.66 922,-77.66"/>
</a>
</g>
</g>
<!-- Node15 -->
<g id="Node000015" class="node">
<title>Node15</title>
<g id="a_Node000015"><a xlink:href="eval-adis1655x_2src_2platform_2pico_2parameters_8c.html" target="_top" xlink:title="Definition of pico platform data used by eval&#45;adis1655x project.">
<polygon fill="white" stroke="#666666" points="1143,-52 1010,-52 1010,0 1143,0 1143,-52"/>
<text text-anchor="start" x="1018" y="-40" font-family="Helvetica,sans-Serif" font-size="10.00">/home/runner/work/no</text>
<text text-anchor="start" x="1018" y="-29" font-family="Helvetica,sans-Serif" font-size="10.00">&#45;OS/no&#45;OS/projects/eval</text>
<text text-anchor="start" x="1018" y="-18" font-family="Helvetica,sans-Serif" font-size="10.00">&#45;adis1655x/src/platform</text>
<text text-anchor="middle" x="1076.5" y="-7" font-family="Helvetica,sans-Serif" font-size="10.00">/pico/parameters.c</text>
</a>
</g>
</g>
<!-- Node14&#45;&gt;Node15 -->
<g id="edge14_Node000014_Node000015" class="edge">
<title>Node14&#45;&gt;Node15</title>
<g id="a_edge14_Node000014_Node000015"><a xlink:title=" ">
<path fill="none" stroke="#63b8ff" d="M1076.5,-77.56C1076.5,-69.04 1076.5,-60.1 1076.5,-52.16"/>
<polygon fill="#63b8ff" stroke="#63b8ff" points="1073,-77.66 1076.5,-87.66 1080,-77.66 1073,-77.66"/>
</a>
</g>
</g>
<!-- Node17 -->
<g id="Node000017" class="node">
<title>Node17</title>
<g id="a_Node000017"><a xlink:href="eval-adis1657x_2src_2platform_2pico_2parameters_8c.html" target="_top" xlink:title="Definition of pico platform data used by eval&#45;adis1657x project.">
<polygon fill="white" stroke="#666666" points="1294,-52 1161,-52 1161,0 1294,0 1294,-52"/>
<text text-anchor="start" x="1169" y="-40" font-family="Helvetica,sans-Serif" font-size="10.00">/home/runner/work/no</text>
<text text-anchor="start" x="1169" y="-29" font-family="Helvetica,sans-Serif" font-size="10.00">&#45;OS/no&#45;OS/projects/eval</text>
<text text-anchor="start" x="1169" y="-18" font-family="Helvetica,sans-Serif" font-size="10.00">&#45;adis1657x/src/platform</text>
<text text-anchor="middle" x="1227.5" y="-7" font-family="Helvetica,sans-Serif" font-size="10.00">/pico/parameters.c</text>
</a>
</g>
</g>
<!-- Node16&#45;&gt;Node17 -->
<g id="edge16_Node000016_Node000017" class="edge">
<title>Node16&#45;&gt;Node17</title>
<g id="a_edge16_Node000016_Node000017"><a xlink:title=" ">
<path fill="none" stroke="#63b8ff" d="M1227.5,-77.56C1227.5,-69.04 1227.5,-60.1 1227.5,-52.16"/>
<polygon fill="#63b8ff" stroke="#63b8ff" points="1224,-77.66 1227.5,-87.66 1231,-77.66 1224,-77.66"/>
</a>
</g>
</g>
<!-- Node19 -->
<g id="Node000019" class="node">
<title>Node19</title>
<g id="a_Node000019"><a xlink:href="eval-adxl355-pmdz_2src_2platform_2pico_2main_8c.html" target="_top" xlink:title="Main file for pico platform of eval&#45;adxl355&#45;pmdz project.">
<polygon fill="white" stroke="#666666" points="1464.5,-52 1312.5,-52 1312.5,0 1464.5,0 1464.5,-52"/>
<text text-anchor="start" x="1320.5" y="-40" font-family="Helvetica,sans-Serif" font-size="10.00">/home/runner/work/no</text>
<text text-anchor="start" x="1320.5" y="-29" font-family="Helvetica,sans-Serif" font-size="10.00">&#45;OS/no&#45;OS/projects/eval</text>
<text text-anchor="start" x="1320.5" y="-18" font-family="Helvetica,sans-Serif" font-size="10.00">&#45;adxl355&#45;pmdz/src/platform</text>
<text text-anchor="middle" x="1388.5" y="-7" font-family="Helvetica,sans-Serif" font-size="10.00">/pico/main.c</text>
</a>
</g>
</g>
<!-- Node18&#45;&gt;Node19 -->
<g id="edge18_Node000018_Node000019" class="edge">
<title>Node18&#45;&gt;Node19</title>
<g id="a_edge18_Node000018_Node000019"><a xlink:title=" ">
<path fill="none" stroke="#63b8ff" d="M1388.5,-77.56C1388.5,-69.04 1388.5,-60.1 1388.5,-52.16"/>
<polygon fill="#63b8ff" stroke="#63b8ff" points="1385,-77.66 1388.5,-87.66 1392,-77.66 1385,-77.66"/>
</a>
</g>
</g>
<!-- Node20 -->
<g id="Node000020" class="node">
<title>Node20</title>
<g id="a_Node000020"><a xlink:href="eval-adxl355-pmdz_2src_2platform_2pico_2parameters_8c.html" target="_top" xlink:title="Definition of pico platform data used by eval&#45;adxl355&#45;pmdz project.">
<polygon fill="white" stroke="#666666" points="1634.5,-52 1482.5,-52 1482.5,0 1634.5,0 1634.5,-52"/>
<text text-anchor="start" x="1490.5" y="-40" font-family="Helvetica,sans-Serif" font-size="10.00">/home/runner/work/no</text>
<text text-anchor="start" x="1490.5" y="-29" font-family="Helvetica,sans-Serif" font-size="10.00">&#45;OS/no&#45;OS/projects/eval</text>
<text text-anchor="start" x="1490.5" y="-18" font-family="Helvetica,sans-Serif" font-size="10.00">&#45;adxl355&#45;pmdz/src/platform</text>
<text text-anchor="middle" x="1558.5" y="-7" font-family="Helvetica,sans-Serif" font-size="10.00">/pico/parameters.c</text>
</a>
</g>
</g>
<!-- Node18&#45;&gt;Node20 -->
<g id="edge19_Node000018_Node000020" class="edge">
<title>Node18&#45;&gt;Node20</title>
<g id="a_edge19_Node000018_Node000020"><a xlink:title=" ">
<path fill="none" stroke="#63b8ff" d="M1447.18,-83.31C1467.26,-73.16 1489.51,-61.9 1508.81,-52.14"/>
<polygon fill="#63b8ff" stroke="#63b8ff" points="1445.47,-80.26 1438.13,-87.89 1448.63,-86.5 1445.47,-80.26"/>
</a>
</g>
</g>
</g>
</svg>
