<?xml version="1.0" encoding="UTF-8" standalone="no"?>
<!DOCTYPE svg PUBLIC "-//W3C//DTD SVG 1.1//EN"
 "http://www.w3.org/Graphics/SVG/1.1/DTD/svg11.dtd">
<!-- Generated by graphviz version 2.43.0 (0)
 -->
<!-- Title: /home/runner/work/no&#45;OS/no&#45;OS/projects/eval&#45;pqmon/src/common/pqlib_afe.h Pages: 1 -->
<svg width="923pt" height="390pt"
 viewBox="0.00 0.00 922.50 390.00" xmlns="http://www.w3.org/2000/svg" xmlns:xlink="http://www.w3.org/1999/xlink">
<g id="graph0" class="graph" transform="scale(1 1) rotate(0) translate(4 386)">
<title>/home/runner/work/no&#45;OS/no&#45;OS/projects/eval&#45;pqmon/src/common/pqlib_afe.h</title>
<!-- Node1 -->
<g id="Node000001" class="node">
<title>Node1</title>
<g id="a_Node000001"><a xlink:title=" ">
<polygon fill="#999999" stroke="#666666" points="832,-382 658,-382 658,-341 832,-341 832,-382"/>
<text text-anchor="start" x="666" y="-370" font-family="Helvetica,sans-Serif" font-size="10.00">/home/runner/work/no</text>
<text text-anchor="start" x="666" y="-359" font-family="Helvetica,sans-Serif" font-size="10.00">&#45;OS/no&#45;OS/projects/eval</text>
<text text-anchor="middle" x="745" y="-348" font-family="Helvetica,sans-Serif" font-size="10.00">&#45;pqmon/src/common/pqlib_afe.h</text>
</a>
</g>
</g>
<!-- Node2 -->
<g id="Node000002" class="node">
<title>Node2</title>
<g id="a_Node000002"><a xlink:href="iio__pqm_8h.html" target="_top" xlink:title=" ">
<polygon fill="white" stroke="#666666" points="565,-305 397,-305 397,-264 565,-264 565,-305"/>
<text text-anchor="start" x="405" y="-293" font-family="Helvetica,sans-Serif" font-size="10.00">/home/runner/work/no</text>
<text text-anchor="start" x="405" y="-282" font-family="Helvetica,sans-Serif" font-size="10.00">&#45;OS/no&#45;OS/projects/eval</text>
<text text-anchor="middle" x="481" y="-271" font-family="Helvetica,sans-Serif" font-size="10.00">&#45;pqmon/src/common/iio_pqm.h</text>
</a>
</g>
</g>
<!-- Node1&#45;&gt;Node2 -->
<g id="edge1_Node000001_Node000002" class="edge">
<title>Node1&#45;&gt;Node2</title>
<g id="a_edge1_Node000001_Node000002"><a xlink:title=" ">
<path fill="none" stroke="#63b8ff" d="M666.55,-338.21C629.46,-327.68 585.57,-315.21 549.79,-305.04"/>
<polygon fill="#63b8ff" stroke="#63b8ff" points="665.75,-341.62 676.33,-340.99 667.66,-334.89 665.75,-341.62"/>
</a>
</g>
</g>
<!-- Node11 -->
<g id="Node000011" class="node">
<title>Node11</title>
<g id="a_Node000011"><a xlink:href="pqlib__afe_8c.html" target="_top" xlink:title=" ">
<polygon fill="white" stroke="#666666" points="831.5,-222.5 658.5,-222.5 658.5,-181.5 831.5,-181.5 831.5,-222.5"/>
<text text-anchor="start" x="666.5" y="-210.5" font-family="Helvetica,sans-Serif" font-size="10.00">/home/runner/work/no</text>
<text text-anchor="start" x="666.5" y="-199.5" font-family="Helvetica,sans-Serif" font-size="10.00">&#45;OS/no&#45;OS/projects/eval</text>
<text text-anchor="middle" x="745" y="-188.5" font-family="Helvetica,sans-Serif" font-size="10.00">&#45;pqmon/src/common/pqlib_afe.c</text>
</a>
</g>
</g>
<!-- Node1&#45;&gt;Node11 -->
<g id="edge14_Node000001_Node000011" class="edge">
<title>Node1&#45;&gt;Node11</title>
<g id="a_edge14_Node000001_Node000011"><a xlink:title=" ">
<path fill="none" stroke="#63b8ff" d="M745,-330.47C745,-298.87 745,-250.01 745,-222.88"/>
<polygon fill="#63b8ff" stroke="#63b8ff" points="741.5,-330.87 745,-340.87 748.5,-330.87 741.5,-330.87"/>
</a>
</g>
</g>
<!-- Node3 -->
<g id="Node000003" class="node">
<title>Node3</title>
<g id="a_Node000003"><a xlink:href="eval-pqmon_2src_2common_2common__data_8h.html" target="_top" xlink:title=" ">
<polygon fill="white" stroke="#666666" points="292.5,-222.5 93.5,-222.5 93.5,-181.5 292.5,-181.5 292.5,-222.5"/>
<text text-anchor="start" x="101.5" y="-210.5" font-family="Helvetica,sans-Serif" font-size="10.00">/home/runner/work/no</text>
<text text-anchor="start" x="101.5" y="-199.5" font-family="Helvetica,sans-Serif" font-size="10.00">&#45;OS/no&#45;OS/projects/eval</text>
<text text-anchor="middle" x="193" y="-188.5" font-family="Helvetica,sans-Serif" font-size="10.00">&#45;pqmon/src/common/common_data.h</text>
</a>
</g>
</g>
<!-- Node2&#45;&gt;Node3 -->
<g id="edge2_Node000002_Node000003" class="edge">
<title>Node2&#45;&gt;Node3</title>
<g id="a_edge2_Node000002_Node000003"><a xlink:title=" ">
<path fill="none" stroke="#63b8ff" d="M395.13,-261.21C350.82,-249.08 297.7,-234.21 257.02,-222.54"/>
<polygon fill="#63b8ff" stroke="#63b8ff" points="394.46,-264.65 405.03,-263.91 396.3,-257.9 394.46,-264.65"/>
</a>
</g>
</g>
<!-- Node10 -->
<g id="Node000010" class="node">
<title>Node10</title>
<g id="a_Node000010"><a xlink:href="iio__pqm_8c.html" target="_top" xlink:title=" ">
<polygon fill="white" stroke="#666666" points="477.5,-222.5 310.5,-222.5 310.5,-181.5 477.5,-181.5 477.5,-222.5"/>
<text text-anchor="start" x="318.5" y="-210.5" font-family="Helvetica,sans-Serif" font-size="10.00">/home/runner/work/no</text>
<text text-anchor="start" x="318.5" y="-199.5" font-family="Helvetica,sans-Serif" font-size="10.00">&#45;OS/no&#45;OS/projects/eval</text>
<text text-anchor="middle" x="394" y="-188.5" font-family="Helvetica,sans-Serif" font-size="10.00">&#45;pqmon/src/common/iio_pqm.c</text>
</a>
</g>
</g>
<!-- Node2&#45;&gt;Node10 -->
<g id="edge11_Node000002_Node000010" class="edge">
<title>Node2&#45;&gt;Node10</title>
<g id="a_edge11_Node000002_Node000010"><a xlink:title=" ">
<path fill="none" stroke="#63b8ff" d="M451.9,-256.57C439.91,-245.48 426.28,-232.87 415.26,-222.67"/>
<polygon fill="#63b8ff" stroke="#63b8ff" points="449.78,-259.38 459.49,-263.6 454.53,-254.24 449.78,-259.38"/>
</a>
</g>
</g>
<!-- Node2&#45;&gt;Node11 -->
<g id="edge12_Node000002_Node000011" class="edge">
<title>Node2&#45;&gt;Node11</title>
<g id="a_edge12_Node000002_Node000011"><a xlink:title=" ">
<path fill="none" stroke="#63b8ff" d="M554.86,-260.98C594.5,-248.89 642.89,-234.14 680.93,-222.54"/>
<polygon fill="#63b8ff" stroke="#63b8ff" points="553.79,-257.65 545.24,-263.91 555.83,-264.34 553.79,-257.65"/>
</a>
</g>
</g>
<!-- Node12 -->
<g id="Node000012" class="node">
<title>Node12</title>
<g id="a_Node000012"><a xlink:href="pqlib__example_8c.html" target="_top" xlink:title=" ">
<polygon fill="white" stroke="#666666" points="640,-228 496,-228 496,-176 640,-176 640,-228"/>
<text text-anchor="start" x="504" y="-216" font-family="Helvetica,sans-Serif" font-size="10.00">/home/runner/work/no</text>
<text text-anchor="start" x="504" y="-205" font-family="Helvetica,sans-Serif" font-size="10.00">&#45;OS/no&#45;OS/projects/eval</text>
<text text-anchor="start" x="504" y="-194" font-family="Helvetica,sans-Serif" font-size="10.00">&#45;pqmon/src/common/pqlib</text>
<text text-anchor="middle" x="568" y="-183" font-family="Helvetica,sans-Serif" font-size="10.00">_example.c</text>
</a>
</g>
</g>
<!-- Node2&#45;&gt;Node12 -->
<g id="edge13_Node000002_Node000012" class="edge">
<title>Node2&#45;&gt;Node12</title>
<g id="a_edge13_Node000002_Node000012"><a xlink:title=" ">
<path fill="none" stroke="#63b8ff" d="M509.87,-256.79C519.84,-247.56 530.98,-237.26 540.81,-228.16"/>
<polygon fill="#63b8ff" stroke="#63b8ff" points="507.47,-254.24 502.51,-263.6 512.22,-259.38 507.47,-254.24"/>
</a>
</g>
</g>
<!-- Node3&#45;&gt;Node2 -->
<g id="edge9_Node000003_Node000002" class="edge">
<title>Node3&#45;&gt;Node2</title>
<g id="a_edge9_Node000003_Node000002"><a xlink:title=" ">
<path fill="none" stroke="#63b8ff" d="M278.67,-225.24C322.96,-237.36 376.08,-252.23 416.8,-263.91"/>
<polygon fill="#63b8ff" stroke="#63b8ff" points="279.35,-221.8 268.78,-222.54 277.51,-228.55 279.35,-221.8"/>
</a>
</g>
</g>
<!-- Node4 -->
<g id="Node000004" class="node">
<title>Node4</title>
<g id="a_Node000004"><a xlink:href="afe__config_8h.html" target="_top" xlink:title=" ">
<polygon fill="white" stroke="#666666" points="753.5,-134.5 574.5,-134.5 574.5,-93.5 753.5,-93.5 753.5,-134.5"/>
<text text-anchor="start" x="582.5" y="-122.5" font-family="Helvetica,sans-Serif" font-size="10.00">/home/runner/work/no</text>
<text text-anchor="start" x="582.5" y="-111.5" font-family="Helvetica,sans-Serif" font-size="10.00">&#45;OS/no&#45;OS/projects/eval</text>
<text text-anchor="middle" x="664" y="-100.5" font-family="Helvetica,sans-Serif" font-size="10.00">&#45;pqmon/src/common/afe_config.h</text>
</a>
</g>
</g>
<!-- Node3&#45;&gt;Node4 -->
<g id="edge3_Node000003_Node000004" class="edge">
<title>Node3&#45;&gt;Node4</title>
<g id="a_edge3_Node000003_Node000004"><a xlink:title=" ">
<path fill="none" stroke="#63b8ff" d="M284.94,-179.32C290.37,-178.16 295.75,-177.05 301,-176 393.75,-157.49 500.58,-139.99 574.22,-128.53"/>
<polygon fill="#63b8ff" stroke="#63b8ff" points="284.18,-175.9 275.15,-181.44 285.66,-182.74 284.18,-175.9"/>
</a>
</g>
</g>
<!-- Node8 -->
<g id="Node000008" class="node">
<title>Node8</title>
<g id="a_Node000008"><a xlink:href="eval-pqmon_2src_2common_2common__data_8c.html" target="_top" xlink:title=" ">
<polygon fill="white" stroke="#666666" points="198,-134.5 0,-134.5 0,-93.5 198,-93.5 198,-134.5"/>
<text text-anchor="start" x="8" y="-122.5" font-family="Helvetica,sans-Serif" font-size="10.00">/home/runner/work/no</text>
<text text-anchor="start" x="8" y="-111.5" font-family="Helvetica,sans-Serif" font-size="10.00">&#45;OS/no&#45;OS/projects/eval</text>
<text text-anchor="middle" x="99" y="-100.5" font-family="Helvetica,sans-Serif" font-size="10.00">&#45;pqmon/src/common/common_data.c</text>
</a>
</g>
</g>
<!-- Node3&#45;&gt;Node8 -->
<g id="edge8_Node000003_Node000008" class="edge">
<title>Node3&#45;&gt;Node8</title>
<g id="a_edge8_Node000003_Node000008"><a xlink:title=" ">
<path fill="none" stroke="#63b8ff" d="M164.17,-174.62C150.12,-161.77 133.51,-146.57 120.57,-134.74"/>
<polygon fill="#63b8ff" stroke="#63b8ff" points="161.93,-177.32 171.67,-181.49 166.65,-172.15 161.93,-177.32"/>
</a>
</g>
</g>
<!-- Node9 -->
<g id="Node000009" class="node">
<title>Node9</title>
<g id="a_Node000009"><a xlink:href="pqlib__convert_8c.html" target="_top" xlink:title=" ">
<polygon fill="white" stroke="#666666" points="360,-140 216,-140 216,-88 360,-88 360,-140"/>
<text text-anchor="start" x="224" y="-128" font-family="Helvetica,sans-Serif" font-size="10.00">/home/runner/work/no</text>
<text text-anchor="start" x="224" y="-117" font-family="Helvetica,sans-Serif" font-size="10.00">&#45;OS/no&#45;OS/projects/eval</text>
<text text-anchor="start" x="224" y="-106" font-family="Helvetica,sans-Serif" font-size="10.00">&#45;pqmon/src/common/pqlib</text>
<text text-anchor="middle" x="288" y="-95" font-family="Helvetica,sans-Serif" font-size="10.00">_convert.c</text>
</a>
</g>
</g>
<!-- Node3&#45;&gt;Node9 -->
<g id="edge10_Node000003_Node000009" class="edge">
<title>Node3&#45;&gt;Node9</title>
<g id="a_edge10_Node000003_Node000009"><a xlink:title=" ">
<path fill="none" stroke="#63b8ff" d="M222.16,-174.6C234.21,-163.69 248.11,-151.11 260.03,-140.32"/>
<polygon fill="#63b8ff" stroke="#63b8ff" points="219.62,-172.18 214.56,-181.49 224.32,-177.37 219.62,-172.18"/>
</a>
</g>
</g>
<!-- Node4&#45;&gt;Node1 -->
<g id="edge7_Node000004_Node000001" class="edge">
<title>Node4&#45;&gt;Node1</title>
<g id="a_edge7_Node000004_Node000001"><a xlink:title=" ">
<path fill="none" stroke="#63b8ff" d="M763.26,-126.78C793.13,-135.49 822.78,-150.45 841,-176 880.73,-231.71 809.04,-306.04 769.11,-340.9"/>
<polygon fill="#63b8ff" stroke="#63b8ff" points="764.13,-123.39 753.56,-124.16 762.31,-130.15 764.13,-123.39"/>
</a>
</g>
</g>
<!-- Node5 -->
<g id="Node000005" class="node">
<title>Node5</title>
<g id="a_Node000005"><a xlink:href="afe__calibration_8c.html" target="_top" xlink:title=" ">
<polygon fill="white" stroke="#666666" points="556.5,-46.5 355.5,-46.5 355.5,-5.5 556.5,-5.5 556.5,-46.5"/>
<text text-anchor="start" x="363.5" y="-34.5" font-family="Helvetica,sans-Serif" font-size="10.00">/home/runner/work/no</text>
<text text-anchor="start" x="363.5" y="-23.5" font-family="Helvetica,sans-Serif" font-size="10.00">&#45;OS/no&#45;OS/projects/eval</text>
<text text-anchor="middle" x="456" y="-12.5" font-family="Helvetica,sans-Serif" font-size="10.00">&#45;pqmon/src/common/afe_calibration.c</text>
</a>
</g>
</g>
<!-- Node4&#45;&gt;Node5 -->
<g id="edge4_Node000004_Node000005" class="edge">
<title>Node4&#45;&gt;Node5</title>
<g id="a_edge4_Node000004_Node000005"><a xlink:title=" ">
<path fill="none" stroke="#63b8ff" d="M607.39,-89.6C574.79,-76.12 534.28,-59.37 503.37,-46.59"/>
<polygon fill="#63b8ff" stroke="#63b8ff" points="606.22,-92.9 616.8,-93.49 608.9,-86.43 606.22,-92.9"/>
</a>
</g>
</g>
<!-- Node6 -->
<g id="Node000006" class="node">
<title>Node6</title>
<g id="a_Node000006"><a xlink:href="afe__config_8c.html" target="_top" xlink:title=" ">
<polygon fill="white" stroke="#666666" points="753.5,-46.5 574.5,-46.5 574.5,-5.5 753.5,-5.5 753.5,-46.5"/>
<text text-anchor="start" x="582.5" y="-34.5" font-family="Helvetica,sans-Serif" font-size="10.00">/home/runner/work/no</text>
<text text-anchor="start" x="582.5" y="-23.5" font-family="Helvetica,sans-Serif" font-size="10.00">&#45;OS/no&#45;OS/projects/eval</text>
<text text-anchor="middle" x="664" y="-12.5" font-family="Helvetica,sans-Serif" font-size="10.00">&#45;pqmon/src/common/afe_config.c</text>
</a>
</g>
</g>
<!-- Node4&#45;&gt;Node6 -->
<g id="edge5_Node000004_Node000006" class="edge">
<title>Node4&#45;&gt;Node6</title>
<g id="a_edge5_Node000004_Node000006"><a xlink:title=" ">
<path fill="none" stroke="#63b8ff" d="M664,-83.36C664,-71.26 664,-57.58 664,-46.74"/>
<polygon fill="#63b8ff" stroke="#63b8ff" points="660.5,-83.49 664,-93.49 667.5,-83.49 660.5,-83.49"/>
</a>
</g>
</g>
<!-- Node7 -->
<g id="Node000007" class="node">
<title>Node7</title>
<g id="a_Node000007"><a xlink:href="flash__storage_8c.html" target="_top" xlink:title=" ">
<polygon fill="white" stroke="#666666" points="914.5,-52 771.5,-52 771.5,0 914.5,0 914.5,-52"/>
<text text-anchor="start" x="779.5" y="-40" font-family="Helvetica,sans-Serif" font-size="10.00">/home/runner/work/no</text>
<text text-anchor="start" x="779.5" y="-29" font-family="Helvetica,sans-Serif" font-size="10.00">&#45;OS/no&#45;OS/projects/eval</text>
<text text-anchor="start" x="779.5" y="-18" font-family="Helvetica,sans-Serif" font-size="10.00">&#45;pqmon/src/common/flash</text>
<text text-anchor="middle" x="843" y="-7" font-family="Helvetica,sans-Serif" font-size="10.00">_storage.c</text>
</a>
</g>
</g>
<!-- Node4&#45;&gt;Node7 -->
<g id="edge6_Node000004_Node000007" class="edge">
<title>Node4&#45;&gt;Node7</title>
<g id="a_edge6_Node000004_Node000007"><a xlink:title=" ">
<path fill="none" stroke="#63b8ff" d="M713.87,-89.04C737.78,-77.55 766.41,-63.8 790.64,-52.16"/>
<polygon fill="#63b8ff" stroke="#63b8ff" points="712.12,-86 704.62,-93.49 715.15,-92.31 712.12,-86"/>
</a>
</g>
</g>
</g>
</svg>
