<?xml version="1.0" encoding="UTF-8" standalone="no"?>
<!DOCTYPE svg PUBLIC "-//W3C//DTD SVG 1.1//EN"
 "http://www.w3.org/Graphics/SVG/1.1/DTD/svg11.dtd">
<!-- Generated by graphviz version 2.43.0 (0)
 -->
<!-- Title: /home/runner/work/no&#45;OS/no&#45;OS/drivers/adc/pulsar_adc/pulsar_adc.h Pages: 1 -->
<svg width="852pt" height="225pt"
 viewBox="0.00 0.00 852.00 225.00" xmlns="http://www.w3.org/2000/svg" xmlns:xlink="http://www.w3.org/1999/xlink">
<g id="graph0" class="graph" transform="scale(1 1) rotate(0) translate(4 221)">
<title>/home/runner/work/no&#45;OS/no&#45;OS/drivers/adc/pulsar_adc/pulsar_adc.h</title>
<!-- Node1 -->
<g id="Node000001" class="node">
<title>Node1</title>
<g id="a_Node000001"><a xlink:title="Header file for pulsar_adc Driver.">
<polygon fill="#999999" stroke="#666666" points="439,-217 302,-217 302,-176 439,-176 439,-217"/>
<text text-anchor="start" x="310" y="-205" font-family="Helvetica,sans-Serif" font-size="10.00">/home/runner/work/no</text>
<text text-anchor="start" x="310" y="-194" font-family="Helvetica,sans-Serif" font-size="10.00">&#45;OS/no&#45;OS/drivers/adc</text>
<text text-anchor="middle" x="370.5" y="-183" font-family="Helvetica,sans-Serif" font-size="10.00">/pulsar_adc/pulsar_adc.h</text>
</a>
</g>
</g>
<!-- Node2 -->
<g id="Node000002" class="node">
<title>Node2</title>
<g id="a_Node000002"><a xlink:href="iio__pulsar__adc_8c.html" target="_top" xlink:title="Implementation of pulsar_adc IIO Driver.">
<polygon fill="white" stroke="#666666" points="153,-46.5 0,-46.5 0,-5.5 153,-5.5 153,-46.5"/>
<text text-anchor="start" x="8" y="-34.5" font-family="Helvetica,sans-Serif" font-size="10.00">/home/runner/work/no</text>
<text text-anchor="start" x="8" y="-23.5" font-family="Helvetica,sans-Serif" font-size="10.00">&#45;OS/no&#45;OS/drivers/adc</text>
<text text-anchor="middle" x="76.5" y="-12.5" font-family="Helvetica,sans-Serif" font-size="10.00">/pulsar_adc/iio_pulsar_adc.c</text>
</a>
</g>
</g>
<!-- Node1&#45;&gt;Node2 -->
<g id="edge1_Node000001_Node000002" class="edge">
<title>Node1&#45;&gt;Node2</title>
<g id="a_edge1_Node000001_Node000002"><a xlink:title=" ">
<path fill="none" stroke="#63b8ff" d="M291.3,-190.83C215.99,-184.59 110.33,-170.54 83.5,-140 61.06,-114.45 65.75,-71.83 71.15,-46.88"/>
<polygon fill="#63b8ff" stroke="#63b8ff" points="291.47,-194.36 301.71,-191.66 292.02,-187.38 291.47,-194.36"/>
</a>
</g>
</g>
<!-- Node3 -->
<g id="Node000003" class="node">
<title>Node3</title>
<g id="a_Node000003"><a xlink:href="iio__pulsar__adc_8h.html" target="_top" xlink:title="Header file for PULSAR_ADC IIO interface.">
<polygon fill="white" stroke="#666666" points="246.5,-134.5 92.5,-134.5 92.5,-93.5 246.5,-93.5 246.5,-134.5"/>
<text text-anchor="start" x="100.5" y="-122.5" font-family="Helvetica,sans-Serif" font-size="10.00">/home/runner/work/no</text>
<text text-anchor="start" x="100.5" y="-111.5" font-family="Helvetica,sans-Serif" font-size="10.00">&#45;OS/no&#45;OS/drivers/adc</text>
<text text-anchor="middle" x="169.5" y="-100.5" font-family="Helvetica,sans-Serif" font-size="10.00">/pulsar_adc/iio_pulsar_adc.h</text>
</a>
</g>
</g>
<!-- Node1&#45;&gt;Node3 -->
<g id="edge2_Node000001_Node000003" class="edge">
<title>Node1&#45;&gt;Node3</title>
<g id="a_edge2_Node000001_Node000003"><a xlink:title=" ">
<path fill="none" stroke="#63b8ff" d="M312.15,-172.13C282.37,-160.21 246.57,-145.87 218.28,-134.54"/>
<polygon fill="#63b8ff" stroke="#63b8ff" points="311,-175.44 321.59,-175.91 313.6,-168.94 311,-175.44"/>
</a>
</g>
</g>
<!-- Node4 -->
<g id="Node000004" class="node">
<title>Node4</title>
<g id="a_Node000004"><a xlink:href="pulsar-adc_2src_2examples_2iio__example_2iio__example_8c.html" target="_top" xlink:title="IIO example header for eval&#45;pulsar_adc project.">
<polygon fill="white" stroke="#666666" points="354,-52 185,-52 185,0 354,0 354,-52"/>
<text text-anchor="start" x="193" y="-40" font-family="Helvetica,sans-Serif" font-size="10.00">/home/runner/work/no</text>
<text text-anchor="start" x="193" y="-29" font-family="Helvetica,sans-Serif" font-size="10.00">&#45;OS/no&#45;OS/projects/pulsar</text>
<text text-anchor="start" x="193" y="-18" font-family="Helvetica,sans-Serif" font-size="10.00">&#45;adc/src/examples/iio_example</text>
<text text-anchor="middle" x="269.5" y="-7" font-family="Helvetica,sans-Serif" font-size="10.00">/iio_example.c</text>
</a>
</g>
</g>
<!-- Node1&#45;&gt;Node4 -->
<g id="edge10_Node000001_Node000004" class="edge">
<title>Node1&#45;&gt;Node4</title>
<g id="a_edge10_Node000001_Node000004"><a xlink:title=" ">
<path fill="none" stroke="#63b8ff" d="M324.01,-170.32C312.5,-162.05 301.25,-151.89 293.5,-140 276.19,-113.46 271.11,-76.63 269.75,-52.33"/>
<polygon fill="#63b8ff" stroke="#63b8ff" points="322.15,-173.29 332.4,-175.99 326.08,-167.49 322.15,-173.29"/>
</a>
</g>
</g>
<!-- Node5 -->
<g id="Node000005" class="node">
<title>Node5</title>
<g id="a_Node000005"><a xlink:href="pulsar__adc_8c.html" target="_top" xlink:title="Implementation of pulsar_adc Driver.">
<polygon fill="white" stroke="#666666" points="438.5,-134.5 302.5,-134.5 302.5,-93.5 438.5,-93.5 438.5,-134.5"/>
<text text-anchor="start" x="310.5" y="-122.5" font-family="Helvetica,sans-Serif" font-size="10.00">/home/runner/work/no</text>
<text text-anchor="start" x="310.5" y="-111.5" font-family="Helvetica,sans-Serif" font-size="10.00">&#45;OS/no&#45;OS/drivers/adc</text>
<text text-anchor="middle" x="370.5" y="-100.5" font-family="Helvetica,sans-Serif" font-size="10.00">/pulsar_adc/pulsar_adc.c</text>
</a>
</g>
</g>
<!-- Node1&#45;&gt;Node5 -->
<g id="edge5_Node000001_Node000005" class="edge">
<title>Node1&#45;&gt;Node5</title>
<g id="a_edge5_Node000001_Node000005"><a xlink:title=" ">
<path fill="none" stroke="#63b8ff" d="M370.5,-165.37C370.5,-155.1 370.5,-143.9 370.5,-134.67"/>
<polygon fill="#63b8ff" stroke="#63b8ff" points="367,-165.6 370.5,-175.6 374,-165.6 367,-165.6"/>
</a>
</g>
</g>
<!-- Node6 -->
<g id="Node000006" class="node">
<title>Node6</title>
<g id="a_Node000006"><a xlink:href="pulsar-adc_2src_2common_2common__data_8c.html" target="_top" xlink:title="Defines common data to be used by pulsar&#45;adc examples.">
<polygon fill="white" stroke="#666666" points="561.5,-46.5 379.5,-46.5 379.5,-5.5 561.5,-5.5 561.5,-46.5"/>
<text text-anchor="start" x="387.5" y="-34.5" font-family="Helvetica,sans-Serif" font-size="10.00">/home/runner/work/no</text>
<text text-anchor="start" x="387.5" y="-23.5" font-family="Helvetica,sans-Serif" font-size="10.00">&#45;OS/no&#45;OS/projects/pulsar</text>
<text text-anchor="middle" x="470.5" y="-12.5" font-family="Helvetica,sans-Serif" font-size="10.00">&#45;adc/src/common/common_data.c</text>
</a>
</g>
</g>
<!-- Node1&#45;&gt;Node6 -->
<g id="edge6_Node000001_Node000006" class="edge">
<title>Node1&#45;&gt;Node6</title>
<g id="a_edge6_Node000001_Node000006"><a xlink:title=" ">
<path fill="none" stroke="#63b8ff" d="M417.38,-170.13C428.78,-161.91 439.87,-151.81 447.5,-140 466.08,-111.24 470.1,-70.49 470.72,-46.59"/>
<polygon fill="#63b8ff" stroke="#63b8ff" points="415.37,-167.26 409.07,-175.78 419.3,-173.05 415.37,-167.26"/>
</a>
</g>
</g>
<!-- Node7 -->
<g id="Node000007" class="node">
<title>Node7</title>
<g id="a_Node000007"><a xlink:href="pulsar-adc_2src_2common_2common__data_8h.html" target="_top" xlink:title="Defines common data to be used by pulsar&#45;adc examples.">
<polygon fill="white" stroke="#666666" points="676.5,-134.5 494.5,-134.5 494.5,-93.5 676.5,-93.5 676.5,-134.5"/>
<text text-anchor="start" x="502.5" y="-122.5" font-family="Helvetica,sans-Serif" font-size="10.00">/home/runner/work/no</text>
<text text-anchor="start" x="502.5" y="-111.5" font-family="Helvetica,sans-Serif" font-size="10.00">&#45;OS/no&#45;OS/projects/pulsar</text>
<text text-anchor="middle" x="585.5" y="-100.5" font-family="Helvetica,sans-Serif" font-size="10.00">&#45;adc/src/common/common_data.h</text>
</a>
</g>
</g>
<!-- Node1&#45;&gt;Node7 -->
<g id="edge7_Node000001_Node000007" class="edge">
<title>Node1&#45;&gt;Node7</title>
<g id="a_edge7_Node000001_Node000007"><a xlink:title=" ">
<path fill="none" stroke="#63b8ff" d="M432.5,-172.29C464.43,-160.33 502.93,-145.92 533.32,-134.54"/>
<polygon fill="#63b8ff" stroke="#63b8ff" points="430.96,-169.13 422.82,-175.91 433.41,-175.68 430.96,-169.13"/>
</a>
</g>
</g>
<!-- Node8 -->
<g id="Node000008" class="node">
<title>Node8</title>
<g id="a_Node000008"><a xlink:href="pulsar-adc_2src_2examples_2basic__example_2basic__example_8c.html" target="_top" xlink:title="Implementation of IIO example for basic_demo project.">
<polygon fill="white" stroke="#666666" points="844,-140 695,-140 695,-88 844,-88 844,-140"/>
<text text-anchor="start" x="703" y="-128" font-family="Helvetica,sans-Serif" font-size="10.00">/home/runner/work/no</text>
<text text-anchor="start" x="703" y="-117" font-family="Helvetica,sans-Serif" font-size="10.00">&#45;OS/no&#45;OS/projects/pulsar</text>
<text text-anchor="start" x="703" y="-106" font-family="Helvetica,sans-Serif" font-size="10.00">&#45;adc/src/examples/basic</text>
<text text-anchor="middle" x="769.5" y="-95" font-family="Helvetica,sans-Serif" font-size="10.00">_example/basic_example.c</text>
</a>
</g>
</g>
<!-- Node1&#45;&gt;Node8 -->
<g id="edge9_Node000001_Node000008" class="edge">
<title>Node1&#45;&gt;Node8</title>
<g id="a_edge9_Node000001_Node000008"><a xlink:title=" ">
<path fill="none" stroke="#63b8ff" d="M449.19,-184.2C513.23,-174.4 605.73,-158.83 685.5,-140 688.61,-139.27 691.77,-138.48 694.96,-137.67"/>
<polygon fill="#63b8ff" stroke="#63b8ff" points="448.53,-180.77 439.17,-185.73 449.58,-187.69 448.53,-180.77"/>
</a>
</g>
</g>
<!-- Node3&#45;&gt;Node2 -->
<g id="edge3_Node000003_Node000002" class="edge">
<title>Node3&#45;&gt;Node2</title>
<g id="a_edge3_Node000003_Node000002"><a xlink:title=" ">
<path fill="none" stroke="#63b8ff" d="M140.97,-86.62C127.07,-73.77 110.64,-58.57 97.84,-46.74"/>
<polygon fill="#63b8ff" stroke="#63b8ff" points="138.68,-89.27 148.4,-93.49 143.43,-84.13 138.68,-89.27"/>
</a>
</g>
</g>
<!-- Node3&#45;&gt;Node4 -->
<g id="edge4_Node000003_Node000004" class="edge">
<title>Node3&#45;&gt;Node4</title>
<g id="a_edge4_Node000003_Node000004"><a xlink:title=" ">
<path fill="none" stroke="#63b8ff" d="M199.84,-86.91C212.6,-75.93 227.4,-63.21 240.06,-52.32"/>
<polygon fill="#63b8ff" stroke="#63b8ff" points="197.49,-84.31 192.19,-93.49 202.06,-89.62 197.49,-84.31"/>
</a>
</g>
</g>
<!-- Node7&#45;&gt;Node6 -->
<g id="edge8_Node000007_Node000006" class="edge">
<title>Node7&#45;&gt;Node6</title>
<g id="a_edge8_Node000007_Node000006"><a xlink:title=" ">
<path fill="none" stroke="#63b8ff" d="M551.18,-87.33C533.79,-74.33 513.01,-58.79 496.89,-46.74"/>
<polygon fill="#63b8ff" stroke="#63b8ff" points="549.3,-90.3 559.4,-93.49 553.49,-84.69 549.3,-90.3"/>
</a>
</g>
</g>
</g>
</svg>
