<?xml version="1.0" encoding="UTF-8" standalone="no"?>
<!DOCTYPE svg PUBLIC "-//W3C//DTD SVG 1.1//EN"
 "http://www.w3.org/Graphics/SVG/1.1/DTD/svg11.dtd">
<!-- Generated by graphviz version 2.43.0 (0)
 -->
<!-- Title: /home/runner/work/no&#45;OS/no&#45;OS/projects/pulsar&#45;adc/src/examples/iio_example/iio_example.c Pages: 1 -->
<!--zoomable 390 -->

<svg id="main" version="1.1" xmlns="http://www.w3.org/2000/svg" xmlns:xlink="http://www.w3.org/1999/xlink" xml:space="preserve" onload="init(evt)">

<style type="text/css"><![CDATA[
.node, .edge {opacity: 0.7;}
.node.selected, .edge.selected {opacity: 1;}
.edge:hover path { stroke: red; }
.edge:hover polygon { stroke: red; fill: red; }
]]></style>

<defs>
  <circle id="rim" cx="0" cy="0" r="7"/>
  <circle id="rim2" cx="0" cy="0" r="3.5"/>
  <g id="zoomPlus">
    <use xlink:href="#rim" fill="#404040"><set attributeName="fill" to="#808080" begin="zoomplus.mouseover" end="zoomplus.mouseout"/></use>
    <path d="M-4,0h8M0,-4v8" fill="none" stroke="white" stroke-width="1.5" pointer-events="none"/>
  </g>
  <g id="zoomMin">
    <use xlink:href="#rim" fill="#404040"><set attributeName="fill" to="#808080" begin="zoomminus.mouseover" end="zoomminus.mouseout"/></use>
    <path d="M-4,0h8" fill="none" stroke="white" stroke-width="1.5" pointer-events="none"/>
  </g>
  <g id="arrowUp" transform="translate(30 24)">
    <use xlink:href="#rim"/>
    <path pointer-events="none" fill="none" stroke="white" stroke-width="1.5" d="M0,-3.0v7 M-2.5,-0.5L0,-3.0L2.5,-0.5"/>
  </g>
  <g id="arrowRight" transform="rotate(90) translate(36 -43)">
    <use xlink:href="#rim"/>
    <path pointer-events="none" fill="none" stroke="white" stroke-width="1.5" d="M0,-3.0v7 M-2.5,-0.5L0,-3.0L2.5,-0.5"/>
  </g>
  <g id="arrowDown" transform="rotate(180) translate(-30 -48)">
    <use xlink:href="#rim"/>
    <path pointer-events="none" fill="none" stroke="white" stroke-width="1.5" d="M0,-3.0v7 M-2.5,-0.5L0,-3.0L2.5,-0.5"/>
  </g>
  <g id="arrowLeft" transform="rotate(270) translate(-36 17)">
    <use xlink:href="#rim"/>
    <path pointer-events="none" fill="none" stroke="white" stroke-width="1.5" d="M0,-3.0v7 M-2.5,-0.5L0,-3.0L2.5,-0.5"/>
  </g>
  <g id="resetDef">
    <use xlink:href="#rim2" fill="#404040"><set attributeName="fill" to="#808080" begin="reset.mouseover" end="reset.mouseout"/></use>
  </g>
</defs>
<script type="application/ecmascript">
var viewWidth = 1237;
var viewHeight = 390;
var sectionId = 'dynsection-0';
</script>
<script type="application/ecmascript" xlink:href="svg.min.js"/>
<svg id="graph" class="graph">
<g id="viewport">
<title>/home/runner/work/no&#45;OS/no&#45;OS/projects/pulsar&#45;adc/src/examples/iio_example/iio_example.c</title>
<!-- Node1 -->
<g id="Node000001" class="node">
<title>Node1</title>
<g id="a_Node000001"><a xlink:title="IIO example header for eval&#45;pulsar_adc project.">
<polygon fill="#999999" stroke="#666666" points="466.03,-382 297.03,-382 297.03,-330 466.03,-330 466.03,-382"/>
<text text-anchor="start" x="305.03" y="-370" font-family="Helvetica,sans-Serif" font-size="10.00">/home/runner/work/no</text>
<text text-anchor="start" x="305.03" y="-359" font-family="Helvetica,sans-Serif" font-size="10.00">&#45;OS/no&#45;OS/projects/pulsar</text>
<text text-anchor="start" x="305.03" y="-348" font-family="Helvetica,sans-Serif" font-size="10.00">&#45;adc/src/examples/iio_example</text>
<text text-anchor="middle" x="381.53" y="-337" font-family="Helvetica,sans-Serif" font-size="10.00">/iio_example.c</text>
</a>
</g>
</g>
<!-- Node2 -->
<g id="Node000002" class="node">
<title>Node2</title>
<g id="a_Node000002"><a xlink:title=" ">
<polygon fill="#e0e0e0" stroke="#999999" points="51.53,-239 1.53,-239 1.53,-220 51.53,-220 51.53,-239"/>
<text text-anchor="middle" x="26.53" y="-227" font-family="Helvetica,sans-Serif" font-size="10.00">stdio.h</text>
</a>
</g>
</g>
<!-- Node1&#45;&gt;Node2 -->
<g id="edge1_Node000001_Node000002" class="edge">
<title>Node1&#45;&gt;Node2</title>
<g id="a_edge1_Node000001_Node000002"><a xlink:title=" ">
<path fill="none" stroke="#63b8ff" d="M296.81,-353.53C197.62,-349.81 42.17,-337.06 5.53,-294 -5.71,-280.8 3.3,-261.4 12.77,-247.52"/>
<polygon fill="#63b8ff" stroke="#63b8ff" points="15.7,-249.43 18.84,-239.32 10.08,-245.27 15.7,-249.43"/>
</a>
</g>
</g>
<!-- Node3 -->
<g id="Node000003" class="node">
<title>Node3</title>
<g id="a_Node000003"><a xlink:href="pulsar-adc_2src_2examples_2iio__example_2iio__example_8h.html" target="_top" xlink:title="IIO example header for eval&#45;pulsar_adc project.">
<polygon fill="white" stroke="#666666" points="220.53,-294 134.53,-294 134.53,-275 220.53,-275 220.53,-294"/>
<text text-anchor="middle" x="177.53" y="-282" font-family="Helvetica,sans-Serif" font-size="10.00">iio_example.h</text>
</a>
</g>
</g>
<!-- Node1&#45;&gt;Node3 -->
<g id="edge2_Node000001_Node000003" class="edge">
<title>Node1&#45;&gt;Node3</title>
<g id="a_edge2_Node000001_Node000003"><a xlink:title=" ">
<path fill="none" stroke="#63b8ff" d="M307.88,-329.91C275.29,-318.81 238.51,-306.28 212.35,-297.36"/>
<polygon fill="#63b8ff" stroke="#63b8ff" points="213.47,-294.05 202.87,-294.14 211.21,-300.67 213.47,-294.05"/>
</a>
</g>
</g>
<!-- Node4 -->
<g id="Node000004" class="node">
<title>Node4</title>
<g id="a_Node000004"><a xlink:title=" ">
<polygon fill="#e0e0e0" stroke="#999999" points="334.03,-294 239.03,-294 239.03,-275 334.03,-275 334.03,-294"/>
<text text-anchor="middle" x="286.53" y="-282" font-family="Helvetica,sans-Serif" font-size="10.00">common_data.h</text>
</a>
</g>
</g>
<!-- Node1&#45;&gt;Node4 -->
<g id="edge3_Node000001_Node000004" class="edge">
<title>Node1&#45;&gt;Node4</title>
<g id="a_edge3_Node000001_Node000004"><a xlink:title=" ">
<path fill="none" stroke="#63b8ff" d="M347.23,-329.91C333.68,-319.99 318.57,-308.94 306.81,-300.34"/>
<polygon fill="#63b8ff" stroke="#63b8ff" points="308.69,-297.38 298.56,-294.3 304.56,-303.03 308.69,-297.38"/>
</a>
</g>
</g>
<!-- Node5 -->
<g id="Node000005" class="node">
<title>Node5</title>
<g id="a_Node000005"><a xlink:href="iio_8h.html" target="_top" xlink:title="Header file of iio.">
<polygon fill="white" stroke="#666666" points="596.53,-184 558.53,-184 558.53,-165 596.53,-165 596.53,-184"/>
<text text-anchor="middle" x="577.53" y="-172" font-family="Helvetica,sans-Serif" font-size="10.00">iio.h</text>
</a>
</g>
</g>
<!-- Node1&#45;&gt;Node5 -->
<g id="edge4_Node000001_Node000005" class="edge">
<title>Node1&#45;&gt;Node5</title>
<g id="a_edge4_Node000001_Node000005"><a xlink:title=" ">
<path fill="none" stroke="#63b8ff" d="M409.19,-329.66C450.24,-292.07 526.1,-222.6 560.16,-191.4"/>
<polygon fill="#63b8ff" stroke="#63b8ff" points="562.87,-193.67 567.88,-184.34 558.14,-188.51 562.87,-193.67"/>
</a>
</g>
</g>
<!-- Node13 -->
<g id="Node000013" class="node">
<title>Node13</title>
<g id="a_Node000013"><a xlink:href="pulsar__adc_8h.html" target="_top" xlink:title="Header file for pulsar_adc Driver.">
<polygon fill="white" stroke="#666666" points="734.53,-239 656.53,-239 656.53,-220 734.53,-220 734.53,-239"/>
<text text-anchor="middle" x="695.53" y="-227" font-family="Helvetica,sans-Serif" font-size="10.00">pulsar_adc.h</text>
</a>
</g>
</g>
<!-- Node1&#45;&gt;Node13 -->
<g id="edge17_Node000001_Node000013" class="edge">
<title>Node1&#45;&gt;Node13</title>
<g id="a_edge17_Node000001_Node000013"><a xlink:title=" ">
<path fill="none" stroke="#63b8ff" d="M462.93,-329.88C494.36,-319.58 530.41,-307.02 562.53,-294 600.75,-278.5 643.57,-257.34 670.04,-243.8"/>
<polygon fill="#63b8ff" stroke="#63b8ff" points="671.73,-246.87 679.02,-239.18 668.53,-240.64 671.73,-246.87"/>
</a>
</g>
</g>
<!-- Node18 -->
<g id="Node000018" class="node">
<title>Node18</title>
<g id="a_Node000018"><a xlink:href="no__os__util_8h.html" target="_top" xlink:title="Header file of utility functions.">
<polygon fill="white" stroke="#666666" points="542.03,-74 467.03,-74 467.03,-55 542.03,-55 542.03,-74"/>
<text text-anchor="middle" x="504.53" y="-62" font-family="Helvetica,sans-Serif" font-size="10.00">no_os_util.h</text>
</a>
</g>
</g>
<!-- Node1&#45;&gt;Node18 -->
<g id="edge48_Node000001_Node000018" class="edge">
<title>Node1&#45;&gt;Node18</title>
<g id="a_edge48_Node000001_Node000018"><a xlink:title=" ">
<path fill="none" stroke="#63b8ff" d="M369.1,-329.95C352.15,-291.92 326.95,-218.44 355.53,-165 379.32,-120.49 432.8,-92.44 468.79,-77.85"/>
<polygon fill="#63b8ff" stroke="#63b8ff" points="470.38,-80.99 478.43,-74.1 467.84,-74.46 470.38,-80.99"/>
</a>
</g>
</g>
<!-- Node22 -->
<g id="Node000022" class="node">
<title>Node22</title>
<g id="a_Node000022"><a xlink:href="no__os__gpio_8h.html" target="_top" xlink:title="Header file of GPIO Interface.">
<polygon fill="white" stroke="#666666" points="1044.53,-184 964.53,-184 964.53,-165 1044.53,-165 1044.53,-184"/>
<text text-anchor="middle" x="1004.53" y="-172" font-family="Helvetica,sans-Serif" font-size="10.00">no_os_gpio.h</text>
</a>
</g>
</g>
<!-- Node1&#45;&gt;Node22 -->
<g id="edge49_Node000001_Node000022" class="edge">
<title>Node1&#45;&gt;Node22</title>
<g id="a_edge49_Node000001_Node000022"><a xlink:title=" ">
<path fill="none" stroke="#63b8ff" d="M466.31,-347.79C542.52,-339.74 656.84,-323.73 752.53,-294 840.73,-266.59 937.63,-214.09 981.13,-189.22"/>
<polygon fill="#63b8ff" stroke="#63b8ff" points="983.14,-192.1 990.05,-184.07 979.64,-186.04 983.14,-192.1"/>
</a>
</g>
</g>
<!-- Node23 -->
<g id="Node000023" class="node">
<title>Node23</title>
<g id="a_Node000023"><a xlink:href="iio__pulsar__adc_8h.html" target="_top" xlink:title="Header file for PULSAR_ADC IIO interface.">
<polygon fill="white" stroke="#666666" points="743.03,-294 648.03,-294 648.03,-275 743.03,-275 743.03,-294"/>
<text text-anchor="middle" x="695.53" y="-282" font-family="Helvetica,sans-Serif" font-size="10.00">iio_pulsar_adc.h</text>
</a>
</g>
</g>
<!-- Node1&#45;&gt;Node23 -->
<g id="edge43_Node000001_Node000023" class="edge">
<title>Node1&#45;&gt;Node23</title>
<g id="a_edge43_Node000001_Node000023"><a xlink:title=" ">
<path fill="none" stroke="#63b8ff" d="M466.09,-336.28C524.08,-323.45 598.97,-306.87 647.13,-296.21"/>
<polygon fill="#63b8ff" stroke="#63b8ff" points="647.98,-299.61 656.99,-294.03 646.46,-292.77 647.98,-299.61"/>
</a>
</g>
</g>
<!-- Node24 -->
<g id="Node000024" class="node">
<title>Node24</title>
<g id="a_Node000024"><a xlink:href="no__os__print__log_8h.html" target="_top" xlink:title="Print messages helpers.">
<polygon fill="white" stroke="#666666" points="116.53,-294 14.53,-294 14.53,-275 116.53,-275 116.53,-294"/>
<text text-anchor="middle" x="65.53" y="-282" font-family="Helvetica,sans-Serif" font-size="10.00">no_os_print_log.h</text>
</a>
</g>
</g>
<!-- Node1&#45;&gt;Node24 -->
<g id="edge50_Node000001_Node000024" class="edge">
<title>Node1&#45;&gt;Node24</title>
<g id="a_edge50_Node000001_Node000024"><a xlink:title=" ">
<path fill="none" stroke="#63b8ff" d="M296.84,-336.38C238.47,-323.54 162.95,-306.93 114.36,-296.24"/>
<polygon fill="#63b8ff" stroke="#63b8ff" points="114.94,-292.78 104.42,-294.05 113.43,-299.62 114.94,-292.78"/>
</a>
</g>
</g>
<!-- Node25 -->
<g id="Node000025" class="node">
<title>Node25</title>
<g id="a_Node000025"><a xlink:href="iio__app_8h.html" target="_top" xlink:title="Header file of iio_app.">
<polygon fill="white" stroke="#666666" points="431.03,-239 370.03,-239 370.03,-220 431.03,-220 431.03,-239"/>
<text text-anchor="middle" x="400.53" y="-227" font-family="Helvetica,sans-Serif" font-size="10.00">iio_app.h</text>
</a>
</g>
</g>
<!-- Node1&#45;&gt;Node25 -->
<g id="edge52_Node000001_Node000025" class="edge">
<title>Node1&#45;&gt;Node25</title>
<g id="a_edge52_Node000001_Node000025"><a xlink:title=" ">
<path fill="none" stroke="#63b8ff" d="M385.37,-329.81C389.01,-305.95 394.39,-270.69 397.67,-249.24"/>
<polygon fill="#63b8ff" stroke="#63b8ff" points="401.16,-249.56 399.21,-239.15 394.24,-248.51 401.16,-249.56"/>
</a>
</g>
</g>
<!-- Node6 -->
<g id="Node000006" class="node">
<title>Node6</title>
<g id="a_Node000006"><a xlink:href="iio__types_8h.html" target="_top" xlink:title="Header file for iio_types.">
<polygon fill="white" stroke="#666666" points="1107.53,-129 1037.53,-129 1037.53,-110 1107.53,-110 1107.53,-129"/>
<text text-anchor="middle" x="1072.53" y="-117" font-family="Helvetica,sans-Serif" font-size="10.00">iio_types.h</text>
</a>
</g>
</g>
<!-- Node5&#45;&gt;Node6 -->
<g id="edge5_Node000005_Node000006" class="edge">
<title>Node5&#45;&gt;Node6</title>
<g id="a_edge5_Node000005_Node000006"><a xlink:title=" ">
<path fill="none" stroke="#63b8ff" d="M596.63,-171.45C668.34,-163.78 922.76,-136.54 1027.23,-125.35"/>
<polygon fill="#63b8ff" stroke="#63b8ff" points="1027.88,-128.8 1037.46,-124.26 1027.14,-121.84 1027.88,-128.8"/>
</a>
</g>
</g>
<!-- Node10 -->
<g id="Node000010" class="node">
<title>Node10</title>
<g id="a_Node000010"><a xlink:href="no__os__uart_8h.html" target="_top" xlink:title="Header file of UART interface.">
<polygon fill="white" stroke="#666666" points="308.03,-129 229.03,-129 229.03,-110 308.03,-110 308.03,-129"/>
<text text-anchor="middle" x="268.53" y="-117" font-family="Helvetica,sans-Serif" font-size="10.00">no_os_uart.h</text>
</a>
</g>
</g>
<!-- Node5&#45;&gt;Node10 -->
<g id="edge10_Node000005_Node000010" class="edge">
<title>Node5&#45;&gt;Node10</title>
<g id="a_edge10_Node000005_Node000010"><a xlink:title=" ">
<path fill="none" stroke="#63b8ff" d="M558.34,-167.3C555.41,-166.46 552.4,-165.66 549.53,-165 469.54,-146.62 375.01,-133.35 318.51,-126.3"/>
<polygon fill="#63b8ff" stroke="#63b8ff" points="318.76,-122.81 308.41,-125.06 317.91,-129.76 318.76,-122.81"/>
</a>
</g>
</g>
<!-- Node7 -->
<g id="Node000007" class="node">
<title>Node7</title>
<g id="a_Node000007"><a xlink:title=" ">
<polygon fill="#e0e0e0" stroke="#999999" points="211.53,-19 149.53,-19 149.53,0 211.53,0 211.53,-19"/>
<text text-anchor="middle" x="180.53" y="-7" font-family="Helvetica,sans-Serif" font-size="10.00">stdbool.h</text>
</a>
</g>
</g>
<!-- Node6&#45;&gt;Node7 -->
<g id="edge6_Node000006_Node000007" class="edge">
<title>Node6&#45;&gt;Node7</title>
<g id="a_edge6_Node000006_Node000007"><a xlink:title=" ">
<path fill="none" stroke="#63b8ff" d="M1037.32,-116.98C875.19,-109.94 207.91,-80.58 199.53,-74 186.11,-63.47 181.86,-43.85 180.66,-29.19"/>
<polygon fill="#63b8ff" stroke="#63b8ff" points="184.16,-29.03 180.23,-19.18 177.16,-29.32 184.16,-29.03"/>
</a>
</g>
</g>
<!-- Node8 -->
<g id="Node000008" class="node">
<title>Node8</title>
<g id="a_Node000008"><a xlink:title=" ">
<polygon fill="#e0e0e0" stroke="#999999" points="743.03,-19 690.03,-19 690.03,0 743.03,0 743.03,-19"/>
<text text-anchor="middle" x="716.53" y="-7" font-family="Helvetica,sans-Serif" font-size="10.00">stdint.h</text>
</a>
</g>
</g>
<!-- Node6&#45;&gt;Node8 -->
<g id="edge7_Node000006_Node000008" class="edge">
<title>Node6&#45;&gt;Node8</title>
<g id="a_edge7_Node000006_Node000008"><a xlink:title=" ">
<path fill="none" stroke="#63b8ff" d="M1107.75,-110.16C1144.73,-99.82 1194.57,-80.41 1171.53,-55 1143.62,-24.23 857.1,-14.03 753.58,-11.33"/>
<polygon fill="#63b8ff" stroke="#63b8ff" points="753.38,-7.82 743.3,-11.07 753.2,-14.82 753.38,-7.82"/>
</a>
</g>
</g>
<!-- Node9 -->
<g id="Node000009" class="node">
<title>Node9</title>
<g id="a_Node000009"><a xlink:href="no__os__circular__buffer_8h.html" target="_top" xlink:title="Circular buffer library header.">
<polygon fill="white" stroke="#666666" points="1162.53,-74 1034.53,-74 1034.53,-55 1162.53,-55 1162.53,-74"/>
<text text-anchor="middle" x="1098.53" y="-62" font-family="Helvetica,sans-Serif" font-size="10.00">no_os_circular_buffer.h</text>
</a>
</g>
</g>
<!-- Node6&#45;&gt;Node9 -->
<g id="edge8_Node000006_Node000009" class="edge">
<title>Node6&#45;&gt;Node9</title>
<g id="a_edge8_Node000006_Node000009"><a xlink:title=" ">
<path fill="none" stroke="#63b8ff" d="M1076.82,-109.75C1080.34,-102.57 1085.44,-92.18 1089.81,-83.27"/>
<polygon fill="#63b8ff" stroke="#63b8ff" points="1093.05,-84.61 1094.31,-74.09 1086.77,-81.53 1093.05,-84.61"/>
</a>
</g>
</g>
<!-- Node9&#45;&gt;Node8 -->
<g id="edge9_Node000009_Node000008" class="edge">
<title>Node9&#45;&gt;Node8</title>
<g id="a_edge9_Node000009_Node000008"><a xlink:title=" ">
<path fill="none" stroke="#63b8ff" d="M1037.15,-54.98C957.04,-43.87 819.32,-24.76 753.57,-15.64"/>
<polygon fill="#63b8ff" stroke="#63b8ff" points="753.66,-12.12 743.28,-14.21 752.7,-19.05 753.66,-12.12"/>
</a>
</g>
</g>
<!-- Node10&#45;&gt;Node7 -->
<g id="edge12_Node000010_Node000007" class="edge">
<title>Node10&#45;&gt;Node7</title>
<g id="a_edge12_Node000010_Node000007"><a xlink:title=" ">
<path fill="none" stroke="#63b8ff" d="M228.96,-111.3C191.92,-103.65 140.53,-90.42 128.53,-74 115.61,-56.35 136.88,-37.03 155.98,-24.4"/>
<polygon fill="#63b8ff" stroke="#63b8ff" points="157.85,-27.36 164.47,-19.09 154.14,-21.42 157.85,-27.36"/>
</a>
</g>
</g>
<!-- Node10&#45;&gt;Node8 -->
<g id="edge11_Node000010_Node000008" class="edge">
<title>Node10&#45;&gt;Node8</title>
<g id="a_edge11_Node000010_Node000008"><a xlink:title=" ">
<path fill="none" stroke="#63b8ff" d="M303.32,-109.92C334.08,-101.93 379.92,-89.01 418.53,-74 436.5,-67.01 439.17,-60.91 457.53,-55 534.35,-30.24 628.69,-18.45 679.64,-13.53"/>
<polygon fill="#63b8ff" stroke="#63b8ff" points="680.2,-16.99 689.83,-12.58 679.55,-10.02 680.2,-16.99"/>
</a>
</g>
</g>
<!-- Node11 -->
<g id="Node000011" class="node">
<title>Node11</title>
<g id="a_Node000011"><a xlink:href="no__os__lf256fifo_8h.html" target="_top" xlink:title="SPSC lock&#45;free fifo of fixed size (256), specialized for UART.">
<polygon fill="white" stroke="#666666" points="308.53,-74 208.53,-74 208.53,-55 308.53,-55 308.53,-74"/>
<text text-anchor="middle" x="258.53" y="-62" font-family="Helvetica,sans-Serif" font-size="10.00">no_os_lf256fifo.h</text>
</a>
</g>
</g>
<!-- Node10&#45;&gt;Node11 -->
<g id="edge13_Node000010_Node000011" class="edge">
<title>Node10&#45;&gt;Node11</title>
<g id="a_edge13_Node000010_Node000011"><a xlink:title=" ">
<path fill="none" stroke="#63b8ff" d="M266.87,-109.75C265.56,-102.8 263.69,-92.85 262.04,-84.13"/>
<polygon fill="#63b8ff" stroke="#63b8ff" points="265.44,-83.27 260.15,-74.09 258.56,-84.56 265.44,-83.27"/>
</a>
</g>
</g>
<!-- Node11&#45;&gt;Node7 -->
<g id="edge16_Node000011_Node000007" class="edge">
<title>Node11&#45;&gt;Node7</title>
<g id="a_edge16_Node000011_Node000007"><a xlink:title=" ">
<path fill="none" stroke="#63b8ff" d="M245.99,-54.98C234.12,-46.92 216.06,-34.65 201.91,-25.03"/>
<polygon fill="#63b8ff" stroke="#63b8ff" points="203.52,-21.9 193.29,-19.17 199.59,-27.69 203.52,-21.9"/>
</a>
</g>
</g>
<!-- Node11&#45;&gt;Node8 -->
<g id="edge15_Node000011_Node000008" class="edge">
<title>Node11&#45;&gt;Node8</title>
<g id="a_edge15_Node000011_Node000008"><a xlink:title=" ">
<path fill="none" stroke="#63b8ff" d="M308.72,-56.16C311.7,-55.76 314.65,-55.37 317.53,-55 450.69,-37.99 609.34,-21.38 679.75,-14.2"/>
<polygon fill="#63b8ff" stroke="#63b8ff" points="680.28,-17.67 689.87,-13.17 679.57,-10.7 680.28,-17.67"/>
</a>
</g>
</g>
<!-- Node12 -->
<g id="Node000012" class="node">
<title>Node12</title>
<g id="a_Node000012"><a xlink:title=" ">
<polygon fill="#e0e0e0" stroke="#999999" points="408.03,-19 355.03,-19 355.03,0 408.03,0 408.03,-19"/>
<text text-anchor="middle" x="381.53" y="-7" font-family="Helvetica,sans-Serif" font-size="10.00">stdlib.h</text>
</a>
</g>
</g>
<!-- Node11&#45;&gt;Node12 -->
<g id="edge14_Node000011_Node000012" class="edge">
<title>Node11&#45;&gt;Node12</title>
<g id="a_edge14_Node000011_Node000012"><a xlink:title=" ">
<path fill="none" stroke="#63b8ff" d="M278.29,-54.98C298.25,-46.38 329.33,-32.99 352.17,-23.15"/>
<polygon fill="#63b8ff" stroke="#63b8ff" points="353.61,-26.34 361.4,-19.17 350.84,-19.91 353.61,-26.34"/>
</a>
</g>
</g>
<!-- Node13&#45;&gt;Node7 -->
<g id="edge18_Node000013_Node000007" class="edge">
<title>Node13&#45;&gt;Node7</title>
<g id="a_edge18_Node000013_Node000007"><a xlink:title=" ">
<path fill="none" stroke="#63b8ff" d="M684.69,-219.77C664.76,-203.9 622.75,-171.36 605.53,-165 443.89,-105.32 384.02,-180.28 219.53,-129 213.57,-127.14 124.68,-79.39 121.53,-74 110.07,-54.43 132.54,-35.9 152.97,-23.96"/>
<polygon fill="#63b8ff" stroke="#63b8ff" points="154.72,-27 161.79,-19.11 151.34,-20.86 154.72,-27"/>
</a>
</g>
</g>
<!-- Node14 -->
<g id="Node000014" class="node">
<title>Node14</title>
<g id="a_Node000014"><a xlink:href="spi__engine_8h.html" target="_top" xlink:title=" ">
<polygon fill="white" stroke="#666666" points="775.53,-184 697.53,-184 697.53,-165 775.53,-165 775.53,-184"/>
<text text-anchor="middle" x="736.53" y="-172" font-family="Helvetica,sans-Serif" font-size="10.00">spi_engine.h</text>
</a>
</g>
</g>
<!-- Node13&#45;&gt;Node14 -->
<g id="edge19_Node000013_Node000014" class="edge">
<title>Node13&#45;&gt;Node14</title>
<g id="a_edge19_Node000013_Node000014"><a xlink:title=" ">
<path fill="none" stroke="#63b8ff" d="M702.3,-219.75C708.09,-212.26 716.58,-201.28 723.66,-192.13"/>
<polygon fill="#63b8ff" stroke="#63b8ff" points="726.53,-194.14 729.88,-184.09 720.99,-189.86 726.53,-194.14"/>
</a>
</g>
</g>
<!-- Node20 -->
<g id="Node000020" class="node">
<title>Node20</title>
<g id="a_Node000020"><a xlink:href="clk__axi__clkgen_8h.html" target="_top" xlink:title="Driver for the Analog Devices AXI CLKGEN.">
<polygon fill="white" stroke="#666666" points="978.53,-74 880.53,-74 880.53,-55 978.53,-55 978.53,-74"/>
<text text-anchor="middle" x="929.53" y="-62" font-family="Helvetica,sans-Serif" font-size="10.00">clk_axi_clkgen.h</text>
</a>
</g>
</g>
<!-- Node13&#45;&gt;Node20 -->
<g id="edge36_Node000013_Node000020" class="edge">
<title>Node13&#45;&gt;Node20</title>
<g id="a_edge36_Node000013_Node000020"><a xlink:title=" ">
<path fill="none" stroke="#63b8ff" d="M721.71,-219.89C761.27,-205.88 837,-175 887.53,-129 901.84,-115.97 913.52,-97.07 920.9,-83.27"/>
<polygon fill="#63b8ff" stroke="#63b8ff" points="924.06,-84.79 925.49,-74.29 917.82,-81.61 924.06,-84.79"/>
</a>
</g>
</g>
<!-- Node21 -->
<g id="Node000021" class="node">
<title>Node21</title>
<g id="a_Node000021"><a xlink:href="no__os__pwm_8h.html" target="_top" xlink:title="Header file of PWM Interface.">
<polygon fill="white" stroke="#666666" points="410.03,-74 327.03,-74 327.03,-55 410.03,-55 410.03,-74"/>
<text text-anchor="middle" x="368.53" y="-62" font-family="Helvetica,sans-Serif" font-size="10.00">no_os_pwm.h</text>
</a>
</g>
</g>
<!-- Node13&#45;&gt;Node21 -->
<g id="edge38_Node000013_Node000021" class="edge">
<title>Node13&#45;&gt;Node21</title>
<g id="a_edge38_Node000013_Node000021"><a xlink:title=" ">
<path fill="none" stroke="#63b8ff" d="M689.89,-219.89C680.66,-206.41 661.08,-180.31 638.53,-165 618.33,-151.3 471.68,-100.55 403.37,-77.29"/>
<polygon fill="#63b8ff" stroke="#63b8ff" points="404.48,-73.97 393.88,-74.06 402.22,-80.59 404.48,-73.97"/>
</a>
</g>
</g>
<!-- Node13&#45;&gt;Node22 -->
<g id="edge41_Node000013_Node000022" class="edge">
<title>Node13&#45;&gt;Node22</title>
<g id="a_edge41_Node000013_Node000022"><a xlink:title=" ">
<path fill="none" stroke="#63b8ff" d="M734.66,-221.79C790.39,-212.23 892.64,-194.69 954.02,-184.16"/>
<polygon fill="#63b8ff" stroke="#63b8ff" points="954.98,-187.55 964.24,-182.41 953.79,-180.65 954.98,-187.55"/>
</a>
</g>
</g>
<!-- Node14&#45;&gt;Node8 -->
<g id="edge20_Node000014_Node000008" class="edge">
<title>Node14&#45;&gt;Node8</title>
<g id="a_edge20_Node000014_Node000008"><a xlink:title=" ">
<path fill="none" stroke="#63b8ff" d="M775.7,-170.89C821.84,-165.9 890.15,-151.49 872.53,-110 851.67,-60.9 792.24,-33.64 753.05,-20.54"/>
<polygon fill="#63b8ff" stroke="#63b8ff" points="753.9,-17.14 743.31,-17.43 751.78,-23.8 753.9,-17.14"/>
</a>
</g>
</g>
<!-- Node15 -->
<g id="Node000015" class="node">
<title>Node15</title>
<g id="a_Node000015"><a xlink:href="xilinx__spi_8h.html" target="_top" xlink:title=" ">
<polygon fill="white" stroke="#666666" points="863.53,-129 791.53,-129 791.53,-110 863.53,-110 863.53,-129"/>
<text text-anchor="middle" x="827.53" y="-117" font-family="Helvetica,sans-Serif" font-size="10.00">xilinx_spi.h</text>
</a>
</g>
</g>
<!-- Node14&#45;&gt;Node15 -->
<g id="edge21_Node000014_Node000015" class="edge">
<title>Node14&#45;&gt;Node15</title>
<g id="a_edge21_Node000014_Node000015"><a xlink:title=" ">
<path fill="none" stroke="#63b8ff" d="M751.15,-164.98C765.39,-156.69 787.28,-143.94 803.98,-134.22"/>
<polygon fill="#63b8ff" stroke="#63b8ff" points="805.76,-137.23 812.64,-129.17 802.24,-131.18 805.76,-137.23"/>
</a>
</g>
</g>
<!-- Node17 -->
<g id="Node000017" class="node">
<title>Node17</title>
<g id="a_Node000017"><a xlink:href="spi__engine__private_8h.html" target="_top" xlink:title=" ">
<polygon fill="white" stroke="#666666" points="681.53,-129 563.53,-129 563.53,-110 681.53,-110 681.53,-129"/>
<text text-anchor="middle" x="622.53" y="-117" font-family="Helvetica,sans-Serif" font-size="10.00">spi_engine_private.h</text>
</a>
</g>
</g>
<!-- Node14&#45;&gt;Node17 -->
<g id="edge25_Node000014_Node000017" class="edge">
<title>Node14&#45;&gt;Node17</title>
<g id="a_edge25_Node000014_Node000017"><a xlink:title=" ">
<path fill="none" stroke="#63b8ff" d="M718.21,-164.98C699.87,-156.46 671.42,-143.23 650.3,-133.41"/>
<polygon fill="#63b8ff" stroke="#63b8ff" points="651.72,-130.21 641.18,-129.17 648.77,-136.56 651.72,-130.21"/>
</a>
</g>
</g>
<!-- Node19 -->
<g id="Node000019" class="node">
<title>Node19</title>
<g id="a_Node000019"><a xlink:href="axi__dmac_8h.html" target="_top" xlink:title="Driver for the Analog Devices AXI&#45;DMAC core.">
<polygon fill="white" stroke="#666666" points="773.03,-129 700.03,-129 700.03,-110 773.03,-110 773.03,-129"/>
<text text-anchor="middle" x="736.53" y="-117" font-family="Helvetica,sans-Serif" font-size="10.00">axi_dmac.h</text>
</a>
</g>
</g>
<!-- Node14&#45;&gt;Node19 -->
<g id="edge33_Node000014_Node000019" class="edge">
<title>Node14&#45;&gt;Node19</title>
<g id="a_edge33_Node000014_Node000019"><a xlink:title=" ">
<path fill="none" stroke="#63b8ff" d="M736.53,-164.75C736.53,-157.8 736.53,-147.85 736.53,-139.13"/>
<polygon fill="#63b8ff" stroke="#63b8ff" points="740.03,-139.09 736.53,-129.09 733.03,-139.09 740.03,-139.09"/>
</a>
</g>
</g>
<!-- Node15&#45;&gt;Node8 -->
<g id="edge22_Node000015_Node000008" class="edge">
<title>Node15&#45;&gt;Node8</title>
<g id="a_edge22_Node000015_Node000008"><a xlink:title=" ">
<path fill="none" stroke="#63b8ff" d="M824.94,-109.72C820.67,-96.49 811.04,-71.25 795.53,-55 782.47,-41.33 764.28,-30.69 748.65,-23.25"/>
<polygon fill="#63b8ff" stroke="#63b8ff" points="749.87,-19.96 739.31,-19.03 746.98,-26.34 749.87,-19.96"/>
</a>
</g>
</g>
<!-- Node16 -->
<g id="Node000016" class="node">
<title>Node16</title>
<g id="a_Node000016"><a xlink:href="no__os__spi_8h.html" target="_top" xlink:title="Header file of SPI Interface.">
<polygon fill="white" stroke="#666666" points="786.53,-74 712.53,-74 712.53,-55 786.53,-55 786.53,-74"/>
<text text-anchor="middle" x="749.53" y="-62" font-family="Helvetica,sans-Serif" font-size="10.00">no_os_spi.h</text>
</a>
</g>
</g>
<!-- Node15&#45;&gt;Node16 -->
<g id="edge23_Node000015_Node000016" class="edge">
<title>Node15&#45;&gt;Node16</title>
<g id="a_edge23_Node000015_Node000016"><a xlink:title=" ">
<path fill="none" stroke="#63b8ff" d="M814.99,-109.98C803.12,-101.92 785.06,-89.65 770.91,-80.03"/>
<polygon fill="#63b8ff" stroke="#63b8ff" points="772.52,-76.9 762.29,-74.17 768.59,-82.69 772.52,-76.9"/>
</a>
</g>
</g>
<!-- Node16&#45;&gt;Node8 -->
<g id="edge24_Node000016_Node000008" class="edge">
<title>Node16&#45;&gt;Node8</title>
<g id="a_edge24_Node000016_Node000008"><a xlink:title=" ">
<path fill="none" stroke="#63b8ff" d="M744.08,-54.75C739.51,-47.42 732.86,-36.73 727.23,-27.7"/>
<polygon fill="#63b8ff" stroke="#63b8ff" points="730.13,-25.73 721.87,-19.09 724.19,-29.43 730.13,-25.73"/>
</a>
</g>
</g>
<!-- Node17&#45;&gt;Node7 -->
<g id="edge27_Node000017_Node000007" class="edge">
<title>Node17&#45;&gt;Node7</title>
<g id="a_edge27_Node000017_Node000007"><a xlink:title=" ">
<path fill="none" stroke="#63b8ff" d="M563.44,-117.07C446.1,-113.62 192.71,-102.87 166.53,-74 155.19,-61.5 161.87,-41.94 169.39,-27.84"/>
<polygon fill="#63b8ff" stroke="#63b8ff" points="172.47,-29.49 174.51,-19.09 166.44,-25.95 172.47,-29.49"/>
</a>
</g>
</g>
<!-- Node17&#45;&gt;Node8 -->
<g id="edge26_Node000017_Node000008" class="edge">
<title>Node17&#45;&gt;Node8</title>
<g id="a_edge26_Node000017_Node000008"><a xlink:title=" ">
<path fill="none" stroke="#63b8ff" d="M630.22,-109.66C646,-91.54 682.22,-49.91 702.36,-26.77"/>
<polygon fill="#63b8ff" stroke="#63b8ff" points="705.06,-29 708.99,-19.16 699.78,-24.4 705.06,-29"/>
</a>
</g>
</g>
<!-- Node17&#45;&gt;Node16 -->
<g id="edge28_Node000017_Node000016" class="edge">
<title>Node17&#45;&gt;Node16</title>
<g id="a_edge28_Node000017_Node000016"><a xlink:title=" ">
<path fill="none" stroke="#63b8ff" d="M642.93,-109.98C663.54,-101.38 695.63,-87.99 719.22,-78.15"/>
<polygon fill="#63b8ff" stroke="#63b8ff" points="720.87,-81.25 728.75,-74.17 718.17,-74.79 720.87,-81.25"/>
</a>
</g>
</g>
<!-- Node17&#45;&gt;Node18 -->
<g id="edge29_Node000017_Node000018" class="edge">
<title>Node17&#45;&gt;Node18</title>
<g id="a_edge29_Node000017_Node000018"><a xlink:title=" ">
<path fill="none" stroke="#63b8ff" d="M603.57,-109.98C584.5,-101.42 554.87,-88.11 532.98,-78.28"/>
<polygon fill="#63b8ff" stroke="#63b8ff" points="534.39,-75.07 523.83,-74.17 531.52,-81.46 534.39,-75.07"/>
</a>
</g>
</g>
<!-- Node18&#45;&gt;Node7 -->
<g id="edge32_Node000018_Node000007" class="edge">
<title>Node18&#45;&gt;Node7</title>
<g id="a_edge32_Node000018_Node000007"><a xlink:title=" ">
<path fill="none" stroke="#63b8ff" d="M466.72,-57.32C405.53,-47.31 285.24,-27.63 221.86,-17.26"/>
<polygon fill="#63b8ff" stroke="#63b8ff" points="222.25,-13.78 211.82,-15.62 221.12,-20.69 222.25,-13.78"/>
</a>
</g>
</g>
<!-- Node18&#45;&gt;Node8 -->
<g id="edge30_Node000018_Node000008" class="edge">
<title>Node18&#45;&gt;Node8</title>
<g id="a_edge30_Node000018_Node000008"><a xlink:title=" ">
<path fill="none" stroke="#63b8ff" d="M538.59,-54.98C577.35,-45.29 640.41,-29.53 680.12,-19.6"/>
<polygon fill="#63b8ff" stroke="#63b8ff" points="681.08,-22.97 689.93,-17.15 679.38,-16.18 681.08,-22.97"/>
</a>
</g>
</g>
<!-- Node18&#45;&gt;Node12 -->
<g id="edge31_Node000018_Node000012" class="edge">
<title>Node18&#45;&gt;Node12</title>
<g id="a_edge31_Node000018_Node000012"><a xlink:title=" ">
<path fill="none" stroke="#63b8ff" d="M484.76,-54.98C464.8,-46.38 433.72,-32.99 410.88,-23.15"/>
<polygon fill="#63b8ff" stroke="#63b8ff" points="412.22,-19.91 401.65,-19.17 409.45,-26.34 412.22,-19.91"/>
</a>
</g>
</g>
<!-- Node19&#45;&gt;Node8 -->
<g id="edge34_Node000019_Node000008" class="edge">
<title>Node19&#45;&gt;Node8</title>
<g id="a_edge34_Node000019_Node000008"><a xlink:title=" ">
<path fill="none" stroke="#63b8ff" d="M727.51,-109.96C719.46,-101.66 708.23,-88.25 703.53,-74 698.62,-59.14 702.88,-41.69 707.79,-28.84"/>
<polygon fill="#63b8ff" stroke="#63b8ff" points="711.16,-29.87 711.89,-19.3 704.73,-27.11 711.16,-29.87"/>
</a>
</g>
</g>
<!-- Node19&#45;&gt;Node18 -->
<g id="edge35_Node000019_Node000018" class="edge">
<title>Node19&#45;&gt;Node18</title>
<g id="a_edge35_Node000019_Node000018"><a xlink:title=" ">
<path fill="none" stroke="#63b8ff" d="M700.02,-110.16C660.01,-101.02 595.68,-86.32 551.82,-76.31"/>
<polygon fill="#63b8ff" stroke="#63b8ff" points="552.5,-72.87 541.97,-74.05 550.94,-79.69 552.5,-72.87"/>
</a>
</g>
</g>
<!-- Node20&#45;&gt;Node8 -->
<g id="edge37_Node000020_Node000008" class="edge">
<title>Node20&#45;&gt;Node8</title>
<g id="a_edge37_Node000020_Node000008"><a xlink:title=" ">
<path fill="none" stroke="#63b8ff" d="M895.3,-54.98C856.36,-45.29 793,-29.53 753.1,-19.6"/>
<polygon fill="#63b8ff" stroke="#63b8ff" points="753.8,-16.17 743.25,-17.15 752.11,-22.96 753.8,-16.17"/>
</a>
</g>
</g>
<!-- Node21&#45;&gt;Node7 -->
<g id="edge40_Node000021_Node000007" class="edge">
<title>Node21&#45;&gt;Node7</title>
<g id="a_edge40_Node000021_Node000007"><a xlink:title=" ">
<path fill="none" stroke="#63b8ff" d="M338.32,-54.98C306.48,-46.01 256.16,-31.82 220.93,-21.89"/>
<polygon fill="#63b8ff" stroke="#63b8ff" points="221.54,-18.43 210.97,-19.08 219.64,-25.16 221.54,-18.43"/>
</a>
</g>
</g>
<!-- Node21&#45;&gt;Node8 -->
<g id="edge39_Node000021_Node000008" class="edge">
<title>Node21&#45;&gt;Node8</title>
<g id="a_edge39_Node000021_Node000008"><a xlink:title=" ">
<path fill="none" stroke="#63b8ff" d="M410.16,-57.16C478.69,-46.72 614.16,-26.09 679.53,-16.13"/>
<polygon fill="#63b8ff" stroke="#63b8ff" points="680.41,-19.54 689.77,-14.57 679.36,-12.62 680.41,-19.54"/>
</a>
</g>
</g>
<!-- Node22&#45;&gt;Node8 -->
<g id="edge42_Node000022_Node000008" class="edge">
<title>Node22&#45;&gt;Node8</title>
<g id="a_edge42_Node000022_Node000008"><a xlink:title=" ">
<path fill="none" stroke="#63b8ff" d="M1006.32,-164.89C1010.31,-143.11 1017.35,-85.43 987.53,-55 955.53,-22.35 819.44,-13.65 753.13,-11.33"/>
<polygon fill="#63b8ff" stroke="#63b8ff" points="753.22,-7.83 743.11,-11.01 753,-14.83 753.22,-7.83"/>
</a>
</g>
</g>
<!-- Node23&#45;&gt;Node5 -->
<g id="edge45_Node000023_Node000005" class="edge">
<title>Node23&#45;&gt;Node5</title>
<g id="a_edge45_Node000023_Node000005"><a xlink:title=" ">
<path fill="none" stroke="#63b8ff" d="M685.87,-274.66C665.89,-256.38 619.79,-214.18 594.64,-191.17"/>
<polygon fill="#63b8ff" stroke="#63b8ff" points="596.73,-188.33 586.99,-184.16 592,-193.49 596.73,-188.33"/>
</a>
</g>
</g>
<!-- Node23&#45;&gt;Node6 -->
<g id="edge46_Node000023_Node000006" class="edge">
<title>Node23&#45;&gt;Node6</title>
<g id="a_edge46_Node000023_Node000006"><a xlink:title=" ">
<path fill="none" stroke="#63b8ff" d="M743.2,-284.07C819.3,-282.31 968.31,-267.55 1053.53,-184 1065.45,-172.3 1069.96,-153.45 1071.63,-139.32"/>
<polygon fill="#63b8ff" stroke="#63b8ff" points="1075.13,-139.48 1072.45,-129.23 1068.15,-138.91 1075.13,-139.48"/>
</a>
</g>
</g>
<!-- Node23&#45;&gt;Node8 -->
<g id="edge44_Node000023_Node000008" class="edge">
<title>Node23&#45;&gt;Node8</title>
<g id="a_edge44_Node000023_Node000008"><a xlink:title=" ">
<path fill="none" stroke="#63b8ff" d="M743.29,-283.89C874.12,-283.69 1228.53,-274.05 1228.53,-175.5 1228.53,-175.5 1228.53,-175.5 1228.53,-118.5 1228.53,-84.91 1216.24,-72.44 1187.53,-55 1114.79,-10.82 851.17,-9.01 753.37,-9.92"/>
<polygon fill="#63b8ff" stroke="#63b8ff" points="753.05,-6.42 743.09,-10.03 753.13,-13.42 753.05,-6.42"/>
</a>
</g>
</g>
<!-- Node23&#45;&gt;Node13 -->
<g id="edge47_Node000023_Node000013" class="edge">
<title>Node23&#45;&gt;Node13</title>
<g id="a_edge47_Node000023_Node000013"><a xlink:title=" ">
<path fill="none" stroke="#63b8ff" d="M695.53,-274.75C695.53,-267.8 695.53,-257.85 695.53,-249.13"/>
<polygon fill="#63b8ff" stroke="#63b8ff" points="699.03,-249.09 695.53,-239.09 692.03,-249.09 699.03,-249.09"/>
</a>
</g>
</g>
<!-- Node24&#45;&gt;Node2 -->
<g id="edge51_Node000024_Node000002" class="edge">
<title>Node24&#45;&gt;Node2</title>
<g id="a_edge51_Node000024_Node000002"><a xlink:title=" ">
<path fill="none" stroke="#63b8ff" d="M59.09,-274.75C53.63,-267.34 45.66,-256.5 38.97,-247.41"/>
<polygon fill="#63b8ff" stroke="#63b8ff" points="41.59,-245.07 32.85,-239.09 35.95,-249.22 41.59,-245.07"/>
</a>
</g>
</g>
<!-- Node25&#45;&gt;Node5 -->
<g id="edge53_Node000025_Node000005" class="edge">
<title>Node25&#45;&gt;Node5</title>
<g id="a_edge53_Node000025_Node000005"><a xlink:title=" ">
<path fill="none" stroke="#63b8ff" d="M429.38,-219.92C457.47,-211.57 501.62,-198.41 548.52,-184.29"/>
<polygon fill="#63b8ff" stroke="#63b8ff" points="549.68,-187.6 558.25,-181.36 547.67,-180.9 549.68,-187.6"/>
</a>
</g>
</g>
<!-- Node25&#45;&gt;Node10 -->
<g id="edge56_Node000025_Node000010" class="edge">
<title>Node25&#45;&gt;Node10</title>
<g id="a_edge56_Node000025_Node000010"><a xlink:title=" ">
<path fill="none" stroke="#63b8ff" d="M389.72,-219.66C367.18,-201.22 314.9,-158.45 286.94,-135.57"/>
<polygon fill="#63b8ff" stroke="#63b8ff" points="289.06,-132.78 279.11,-129.16 284.63,-138.2 289.06,-132.78"/>
</a>
</g>
</g>
<!-- Node26 -->
<g id="Node000026" class="node">
<title>Node26</title>
<g id="a_Node000026"><a xlink:href="no__os__irq_8h.html" target="_top" xlink:title="Header file of IRQ interface.">
<polygon fill="white" stroke="#666666" points="436.53,-184 364.53,-184 364.53,-165 436.53,-165 436.53,-184"/>
<text text-anchor="middle" x="400.53" y="-172" font-family="Helvetica,sans-Serif" font-size="10.00">no_os_irq.h</text>
</a>
</g>
</g>
<!-- Node25&#45;&gt;Node26 -->
<g id="edge54_Node000025_Node000026" class="edge">
<title>Node25&#45;&gt;Node26</title>
<g id="a_edge54_Node000025_Node000026"><a xlink:title=" ">
<path fill="none" stroke="#63b8ff" d="M400.53,-219.75C400.53,-212.8 400.53,-202.85 400.53,-194.13"/>
<polygon fill="#63b8ff" stroke="#63b8ff" points="404.03,-194.09 400.53,-184.09 397.03,-194.09 404.03,-194.09"/>
</a>
</g>
</g>
<!-- Node27 -->
<g id="Node000027" class="node">
<title>Node27</title>
<g id="a_Node000027"><a xlink:href="no__os__error_8h.html" target="_top" xlink:title="Error codes definition.">
<polygon fill="white" stroke="#666666" points="229.53,-184 147.53,-184 147.53,-165 229.53,-165 229.53,-184"/>
<text text-anchor="middle" x="188.53" y="-172" font-family="Helvetica,sans-Serif" font-size="10.00">no_os_error.h</text>
</a>
</g>
</g>
<!-- Node25&#45;&gt;Node27 -->
<g id="edge57_Node000025_Node000027" class="edge">
<title>Node25&#45;&gt;Node27</title>
<g id="a_edge57_Node000025_Node000027"><a xlink:title=" ">
<path fill="none" stroke="#63b8ff" d="M369.7,-220.79C333.52,-211.75 273.28,-196.69 232.27,-186.44"/>
<polygon fill="#63b8ff" stroke="#63b8ff" points="233.1,-183.04 222.55,-184.01 231.4,-189.83 233.1,-183.04"/>
</a>
</g>
</g>
<!-- Node29 -->
<g id="Node000029" class="node">
<title>Node29</title>
<g id="a_Node000029"><a xlink:href="no__os__delay_8h.html" target="_top" xlink:title="Header file of Delay functions.">
<polygon fill="white" stroke="#666666" points="540.03,-184 455.03,-184 455.03,-165 540.03,-165 540.03,-184"/>
<text text-anchor="middle" x="497.53" y="-172" font-family="Helvetica,sans-Serif" font-size="10.00">no_os_delay.h</text>
</a>
</g>
</g>
<!-- Node25&#45;&gt;Node29 -->
<g id="edge59_Node000025_Node000029" class="edge">
<title>Node25&#45;&gt;Node29</title>
<g id="a_edge59_Node000025_Node000029"><a xlink:title=" ">
<path fill="none" stroke="#63b8ff" d="M416.11,-219.98C431.29,-211.69 454.62,-198.94 472.42,-189.22"/>
<polygon fill="#63b8ff" stroke="#63b8ff" points="474.56,-192.04 481.66,-184.17 471.2,-185.89 474.56,-192.04"/>
</a>
</g>
</g>
<!-- Node26&#45;&gt;Node8 -->
<g id="edge55_Node000026_Node000008" class="edge">
<title>Node26&#45;&gt;Node8</title>
<g id="a_edge55_Node000026_Node000008"><a xlink:title=" ">
<path fill="none" stroke="#63b8ff" d="M413.29,-164.97C444.49,-144.35 527.51,-90.84 601.53,-55 627.54,-42.4 658.1,-30.71 681.18,-22.48"/>
<polygon fill="#63b8ff" stroke="#63b8ff" points="682.62,-25.68 690.9,-19.06 680.3,-19.08 682.62,-25.68"/>
</a>
</g>
</g>
<!-- Node28 -->
<g id="Node000028" class="node">
<title>Node28</title>
<g id="a_Node000028"><a xlink:href="errno_8h.html" target="_top" xlink:title="Error macro definition for ARM Compiler.">
<polygon fill="white" stroke="#666666" points="172.03,-129 121.03,-129 121.03,-110 172.03,-110 172.03,-129"/>
<text text-anchor="middle" x="146.53" y="-117" font-family="Helvetica,sans-Serif" font-size="10.00">errno.h</text>
</a>
</g>
</g>
<!-- Node27&#45;&gt;Node28 -->
<g id="edge58_Node000027_Node000028" class="edge">
<title>Node27&#45;&gt;Node28</title>
<g id="a_edge58_Node000027_Node000028"><a xlink:title=" ">
<path fill="none" stroke="#63b8ff" d="M181.59,-164.75C175.66,-157.26 166.95,-146.28 159.7,-137.13"/>
<polygon fill="#63b8ff" stroke="#63b8ff" points="162.29,-134.75 153.33,-129.09 156.8,-139.1 162.29,-134.75"/>
</a>
</g>
</g>
<!-- Node29&#45;&gt;Node8 -->
<g id="edge60_Node000029_Node000008" class="edge">
<title>Node29&#45;&gt;Node8</title>
<g id="a_edge60_Node000029_Node000008"><a xlink:title=" ">
<path fill="none" stroke="#63b8ff" d="M503.87,-164.98C513.74,-152.08 533.82,-127.27 554.53,-110 598.13,-73.64 656.28,-41.22 689.74,-23.86"/>
<polygon fill="#63b8ff" stroke="#63b8ff" points="691.59,-26.85 698.89,-19.17 688.39,-20.62 691.59,-26.85"/>
</a>
</g>
</g>
</g>
</svg>

<g id="navigator" transform="translate(0 0)" fill="#404254">
  <rect fill="#f2f5e9" fill-opacity="0.5" stroke="#606060" stroke-width=".5" x="0" y="0" width="60" height="60"/>
  <use id="zoomplus" xlink:href="#zoomPlus" x="17" y="9" onmousedown="handleZoom(evt,'in')"/>
  <use id="zoomminus" xlink:href="#zoomMin" x="42" y="9" onmousedown="handleZoom(evt,'out')"/>
  <use id="reset" xlink:href="#resetDef" x="30" y="36" onmousedown="handleReset()"/>
   <use id="arrowup" xlink:href="#arrowUp" x="0" y="0" onmousedown="handlePan(0,-1)"/>
  <use id="arrowright" xlink:href="#arrowRight" x="0" y="0" onmousedown="handlePan(1,0)"/>
  <use id="arrowdown" xlink:href="#arrowDown" x="0" y="0" onmousedown="handlePan(0,1)"/>
  <use id="arrowleft" xlink:href="#arrowLeft" x="0" y="0" onmousedown="handlePan(-1,0)"/>
</g>
<svg viewBox="0 0 15 15" width="100%" height="30px" preserveAspectRatio="xMaxYMin meet">
 <g id="arrow_out" transform="scale(0.3 0.3)">
  <a xlink:href="pulsar-adc_2src_2examples_2iio__example_2iio__example_8c__incl_org.svg" target="_base">
   <rect id="button" ry="5" rx="5" y="6" x="6" height="38" width="38"
        fill="#f2f5e9" fill-opacity="0.5" stroke="#606060" stroke-width="1.0"/>
   <path id="arrow"
     d="M 11.500037,31.436501 C 11.940474,20.09759 22.043105,11.32322 32.158766,21.979434 L 37.068811,17.246167 C 37.068811,17.246167 37.088388,32 37.088388,32 L 22.160133,31.978069 C 22.160133,31.978069 26.997745,27.140456 26.997745,27.140456 C 18.528582,18.264221 13.291696,25.230495 11.500037,31.436501 z"
     style="fill:#404040;"/>
  </a>
 </g>
</svg>

<style type='text/css'>
<![CDATA[
[data-mouse-over-selected='false'] { opacity: 0.7; }
[data-mouse-over-selected='true']  { opacity: 1.0; }
]]>
</style>
<script type="application/ecmascript"><![CDATA[
document.addEventListener('DOMContentLoaded', (event) => {
  highlightEdges();
  highlightAdjacentNodes();
});
]]></script>
</svg>
