<?xml version="1.0" encoding="UTF-8" standalone="no"?>
<!DOCTYPE svg PUBLIC "-//W3C//DTD SVG 1.1//EN"
 "http://www.w3.org/Graphics/SVG/1.1/DTD/svg11.dtd">
<!-- Generated by graphviz version 2.43.0 (0)
 -->
<!-- Title: /home/runner/work/no&#45;OS/no&#45;OS/projects/ad&#45;acevsecrdset&#45;sl/src/relay/relay.c Pages: 1 -->
<svg width="291pt" height="170pt"
 viewBox="0.00 0.00 290.50 170.00" xmlns="http://www.w3.org/2000/svg" xmlns:xlink="http://www.w3.org/1999/xlink">
<g id="graph0" class="graph" transform="scale(1 1) rotate(0) translate(4 166)">
<title>/home/runner/work/no&#45;OS/no&#45;OS/projects/ad&#45;acevsecrdset&#45;sl/src/relay/relay.c</title>
<!-- Node1 -->
<g id="Node000001" class="node">
<title>Node1</title>
<g id="a_Node000001"><a xlink:title="Relay implementation file.">
<polygon fill="#999999" stroke="#666666" points="239,-162 97,-162 97,-110 239,-110 239,-162"/>
<text text-anchor="start" x="105" y="-150" font-family="Helvetica,sans-Serif" font-size="10.00">/home/runner/work/no</text>
<text text-anchor="start" x="105" y="-139" font-family="Helvetica,sans-Serif" font-size="10.00">&#45;OS/no&#45;OS/projects/ad</text>
<text text-anchor="start" x="105" y="-128" font-family="Helvetica,sans-Serif" font-size="10.00">&#45;acevsecrdset&#45;sl/src/relay</text>
<text text-anchor="middle" x="168" y="-117" font-family="Helvetica,sans-Serif" font-size="10.00">/relay.c</text>
</a>
</g>
</g>
<!-- Node2 -->
<g id="Node000002" class="node">
<title>Node2</title>
<g id="a_Node000002"><a xlink:href="no__os__print__log_8h.html" target="_top" xlink:title="Print messages helpers.">
<polygon fill="white" stroke="#666666" points="102,-74 0,-74 0,-55 102,-55 102,-74"/>
<text text-anchor="middle" x="51" y="-62" font-family="Helvetica,sans-Serif" font-size="10.00">no_os_print_log.h</text>
</a>
</g>
</g>
<!-- Node1&#45;&gt;Node2 -->
<g id="edge1_Node000001_Node000002" class="edge">
<title>Node1&#45;&gt;Node2</title>
<g id="a_edge1_Node000001_Node000002"><a xlink:title=" ">
<path fill="none" stroke="#63b8ff" d="M125.76,-109.91C108.47,-99.64 89.12,-88.15 74.44,-79.43"/>
<polygon fill="#63b8ff" stroke="#63b8ff" points="75.92,-76.23 65.54,-74.14 72.35,-82.25 75.92,-76.23"/>
</a>
</g>
</g>
<!-- Node4 -->
<g id="Node000004" class="node">
<title>Node4</title>
<g id="a_Node000004"><a xlink:title=" ">
<polygon fill="#e0e0e0" stroke="#999999" points="215.5,-74 120.5,-74 120.5,-55 215.5,-55 215.5,-74"/>
<text text-anchor="middle" x="168" y="-62" font-family="Helvetica,sans-Serif" font-size="10.00">common_data.h</text>
</a>
</g>
</g>
<!-- Node1&#45;&gt;Node4 -->
<g id="edge3_Node000001_Node000004" class="edge">
<title>Node1&#45;&gt;Node4</title>
<g id="a_edge3_Node000001_Node000004"><a xlink:title=" ">
<path fill="none" stroke="#63b8ff" d="M168,-109.91C168,-101.55 168,-92.38 168,-84.55"/>
<polygon fill="#63b8ff" stroke="#63b8ff" points="171.5,-84.3 168,-74.3 164.5,-84.3 171.5,-84.3"/>
</a>
</g>
</g>
<!-- Node5 -->
<g id="Node000005" class="node">
<title>Node5</title>
<g id="a_Node000005"><a xlink:href="relay_8h.html" target="_top" xlink:title="Relay interface file.">
<polygon fill="white" stroke="#666666" points="282.5,-74 233.5,-74 233.5,-55 282.5,-55 282.5,-74"/>
<text text-anchor="middle" x="258" y="-62" font-family="Helvetica,sans-Serif" font-size="10.00">relay.h</text>
</a>
</g>
</g>
<!-- Node1&#45;&gt;Node5 -->
<g id="edge4_Node000001_Node000005" class="edge">
<title>Node1&#45;&gt;Node5</title>
<g id="a_edge4_Node000001_Node000005"><a xlink:title=" ">
<path fill="none" stroke="#63b8ff" d="M200.49,-109.91C213.21,-100.09 227.37,-89.16 238.45,-80.59"/>
<polygon fill="#63b8ff" stroke="#63b8ff" points="240.83,-83.18 246.6,-74.3 236.55,-77.64 240.83,-83.18"/>
</a>
</g>
</g>
<!-- Node3 -->
<g id="Node000003" class="node">
<title>Node3</title>
<g id="a_Node000003"><a xlink:title=" ">
<polygon fill="#e0e0e0" stroke="#999999" points="76,-19 26,-19 26,0 76,0 76,-19"/>
<text text-anchor="middle" x="51" y="-7" font-family="Helvetica,sans-Serif" font-size="10.00">stdio.h</text>
</a>
</g>
</g>
<!-- Node2&#45;&gt;Node3 -->
<g id="edge2_Node000002_Node000003" class="edge">
<title>Node2&#45;&gt;Node3</title>
<g id="a_edge2_Node000002_Node000003"><a xlink:title=" ">
<path fill="none" stroke="#63b8ff" d="M51,-54.75C51,-47.8 51,-37.85 51,-29.13"/>
<polygon fill="#63b8ff" stroke="#63b8ff" points="54.5,-29.09 51,-19.09 47.5,-29.09 54.5,-29.09"/>
</a>
</g>
</g>
</g>
</svg>
