<?xml version="1.0" encoding="UTF-8" standalone="no"?>
<!DOCTYPE svg PUBLIC "-//W3C//DTD SVG 1.1//EN"
 "http://www.w3.org/Graphics/SVG/1.1/DTD/svg11.dtd">
<!-- Generated by graphviz version 2.43.0 (0)
 -->
<!-- Title: /home/runner/work/no&#45;OS/no&#45;OS/drivers/axi_core/spi_engine/spi_engine_private.h Pages: 1 -->
<svg width="247pt" height="170pt"
 viewBox="0.00 0.00 247.13 170.00" xmlns="http://www.w3.org/2000/svg" xmlns:xlink="http://www.w3.org/1999/xlink">
<g id="graph0" class="graph" transform="scale(1 1) rotate(0) translate(4 166)">
<title>/home/runner/work/no&#45;OS/no&#45;OS/drivers/axi_core/spi_engine/spi_engine_private.h</title>
<!-- Node1 -->
<g id="Node000001" class="node">
<title>Node1</title>
<g id="a_Node000001"><a xlink:title=" ">
<polygon fill="#999999" stroke="#666666" points="172.13,-162 18.13,-162 18.13,-110 172.13,-110 172.13,-162"/>
<text text-anchor="start" x="26.13" y="-150" font-family="Helvetica,sans-Serif" font-size="10.00">/home/runner/work/no</text>
<text text-anchor="start" x="26.13" y="-139" font-family="Helvetica,sans-Serif" font-size="10.00">&#45;OS/no&#45;OS/drivers/axi</text>
<text text-anchor="start" x="26.13" y="-128" font-family="Helvetica,sans-Serif" font-size="10.00">_core/spi_engine/spi_engine</text>
<text text-anchor="middle" x="95.13" y="-117" font-family="Helvetica,sans-Serif" font-size="10.00">_private.h</text>
</a>
</g>
</g>
<!-- Node2 -->
<g id="Node000002" class="node">
<title>Node2</title>
<g id="a_Node000002"><a xlink:title=" ">
<polygon fill="#e0e0e0" stroke="#999999" points="75.63,-19 22.63,-19 22.63,0 75.63,0 75.63,-19"/>
<text text-anchor="middle" x="49.13" y="-7" font-family="Helvetica,sans-Serif" font-size="10.00">stdint.h</text>
</a>
</g>
</g>
<!-- Node1&#45;&gt;Node2 -->
<g id="edge1_Node000001_Node000002" class="edge">
<title>Node1&#45;&gt;Node2</title>
<g id="a_edge1_Node000001_Node000002"><a xlink:title=" ">
<path fill="none" stroke="#63b8ff" d="M38.58,-109.87C24.47,-100.71 11.11,-88.86 3.13,-74 -6.52,-56.02 10.9,-37.33 27,-24.92"/>
<polygon fill="#63b8ff" stroke="#63b8ff" points="29.08,-27.73 35.14,-19.04 24.99,-22.06 29.08,-27.73"/>
</a>
</g>
</g>
<!-- Node3 -->
<g id="Node000003" class="node">
<title>Node3</title>
<g id="a_Node000003"><a xlink:title=" ">
<polygon fill="#e0e0e0" stroke="#999999" points="239.13,-19 177.13,-19 177.13,0 239.13,0 239.13,-19"/>
<text text-anchor="middle" x="208.13" y="-7" font-family="Helvetica,sans-Serif" font-size="10.00">stdbool.h</text>
</a>
</g>
</g>
<!-- Node1&#45;&gt;Node3 -->
<g id="edge2_Node000001_Node000003" class="edge">
<title>Node1&#45;&gt;Node3</title>
<g id="a_edge2_Node000001_Node000003"><a xlink:title=" ">
<path fill="none" stroke="#63b8ff" d="M147.05,-109.72C162.06,-100.29 177.3,-88.32 188.13,-74 198.05,-60.89 203.12,-42.76 205.67,-29.22"/>
<polygon fill="#63b8ff" stroke="#63b8ff" points="209.16,-29.57 207.27,-19.15 202.24,-28.47 209.16,-29.57"/>
</a>
</g>
</g>
<!-- Node4 -->
<g id="Node000004" class="node">
<title>Node4</title>
<g id="a_Node000004"><a xlink:href="no__os__spi_8h.html" target="_top" xlink:title="Header file of SPI Interface.">
<polygon fill="white" stroke="#666666" points="86.13,-74 12.13,-74 12.13,-55 86.13,-55 86.13,-74"/>
<text text-anchor="middle" x="49.13" y="-62" font-family="Helvetica,sans-Serif" font-size="10.00">no_os_spi.h</text>
</a>
</g>
</g>
<!-- Node1&#45;&gt;Node4 -->
<g id="edge3_Node000001_Node000004" class="edge">
<title>Node1&#45;&gt;Node4</title>
<g id="a_edge3_Node000001_Node000004"><a xlink:title=" ">
<path fill="none" stroke="#63b8ff" d="M78.53,-109.91C72.54,-100.87 65.93,-90.88 60.5,-82.67"/>
<polygon fill="#63b8ff" stroke="#63b8ff" points="63.4,-80.71 54.96,-74.3 57.56,-84.57 63.4,-80.71"/>
</a>
</g>
</g>
<!-- Node5 -->
<g id="Node000005" class="node">
<title>Node5</title>
<g id="a_Node000005"><a xlink:href="no__os__util_8h.html" target="_top" xlink:title="Header file of utility functions.">
<polygon fill="white" stroke="#666666" points="179.63,-74 104.63,-74 104.63,-55 179.63,-55 179.63,-74"/>
<text text-anchor="middle" x="142.13" y="-62" font-family="Helvetica,sans-Serif" font-size="10.00">no_os_util.h</text>
</a>
</g>
</g>
<!-- Node1&#45;&gt;Node5 -->
<g id="edge5_Node000001_Node000005" class="edge">
<title>Node1&#45;&gt;Node5</title>
<g id="a_edge5_Node000001_Node000005"><a xlink:title=" ">
<path fill="none" stroke="#63b8ff" d="M112.1,-109.91C118.21,-100.87 124.97,-90.88 130.52,-82.67"/>
<polygon fill="#63b8ff" stroke="#63b8ff" points="133.48,-84.55 136.18,-74.3 127.68,-80.63 133.48,-84.55"/>
</a>
</g>
</g>
<!-- Node4&#45;&gt;Node2 -->
<g id="edge4_Node000004_Node000002" class="edge">
<title>Node4&#45;&gt;Node2</title>
<g id="a_edge4_Node000004_Node000002"><a xlink:title=" ">
<path fill="none" stroke="#63b8ff" d="M49.13,-54.75C49.13,-47.8 49.13,-37.85 49.13,-29.13"/>
<polygon fill="#63b8ff" stroke="#63b8ff" points="52.63,-29.09 49.13,-19.09 45.63,-29.09 52.63,-29.09"/>
</a>
</g>
</g>
<!-- Node5&#45;&gt;Node2 -->
<g id="edge6_Node000005_Node000002" class="edge">
<title>Node5&#45;&gt;Node2</title>
<g id="a_edge6_Node000005_Node000002"><a xlink:title=" ">
<path fill="none" stroke="#63b8ff" d="M127.19,-54.98C112.63,-46.69 90.27,-33.94 73.2,-24.22"/>
<polygon fill="#63b8ff" stroke="#63b8ff" points="74.77,-21.08 64.35,-19.17 71.3,-27.16 74.77,-21.08"/>
</a>
</g>
</g>
<!-- Node5&#45;&gt;Node3 -->
<g id="edge8_Node000005_Node000003" class="edge">
<title>Node5&#45;&gt;Node3</title>
<g id="a_edge8_Node000005_Node000003"><a xlink:title=" ">
<path fill="none" stroke="#63b8ff" d="M152.74,-54.98C162.59,-47.07 177.48,-35.11 189.35,-25.58"/>
<polygon fill="#63b8ff" stroke="#63b8ff" points="191.73,-28.16 197.34,-19.17 187.35,-22.7 191.73,-28.16"/>
</a>
</g>
</g>
<!-- Node6 -->
<g id="Node000006" class="node">
<title>Node6</title>
<g id="a_Node000006"><a xlink:title=" ">
<polygon fill="#e0e0e0" stroke="#999999" points="158.63,-19 105.63,-19 105.63,0 158.63,0 158.63,-19"/>
<text text-anchor="middle" x="132.13" y="-7" font-family="Helvetica,sans-Serif" font-size="10.00">stdlib.h</text>
</a>
</g>
</g>
<!-- Node5&#45;&gt;Node6 -->
<g id="edge7_Node000005_Node000006" class="edge">
<title>Node5&#45;&gt;Node6</title>
<g id="a_edge7_Node000005_Node000006"><a xlink:title=" ">
<path fill="none" stroke="#63b8ff" d="M140.48,-54.75C139.17,-47.8 137.29,-37.85 135.65,-29.13"/>
<polygon fill="#63b8ff" stroke="#63b8ff" points="139.05,-28.27 133.75,-19.09 132.17,-29.56 139.05,-28.27"/>
</a>
</g>
</g>
</g>
</svg>
