<?xml version="1.0" encoding="UTF-8" standalone="no"?>
<!DOCTYPE svg PUBLIC "-//W3C//DTD SVG 1.1//EN"
 "http://www.w3.org/Graphics/SVG/1.1/DTD/svg11.dtd">
<!-- Generated by graphviz version 2.43.0 (0)
 -->
<!-- Title: /home/runner/work/no&#45;OS/no&#45;OS/drivers/display/ssd_1306/ssd_1306.h Pages: 1 -->
<svg width="232pt" height="214pt"
 viewBox="0.00 0.00 232.38 214.00" xmlns="http://www.w3.org/2000/svg" xmlns:xlink="http://www.w3.org/1999/xlink">
<g id="graph0" class="graph" transform="scale(1 1) rotate(0) translate(4 210)">
<title>/home/runner/work/no&#45;OS/no&#45;OS/drivers/display/ssd_1306/ssd_1306.h</title>
<!-- Node1 -->
<g id="Node000001" class="node">
<title>Node1</title>
<g id="a_Node000001"><a xlink:title="Header file for ssd_1306 Driver.">
<polygon fill="#999999" stroke="#666666" points="148.88,-206 7.88,-206 7.88,-165 148.88,-165 148.88,-206"/>
<text text-anchor="start" x="15.88" y="-194" font-family="Helvetica,sans-Serif" font-size="10.00">/home/runner/work/no</text>
<text text-anchor="start" x="15.88" y="-183" font-family="Helvetica,sans-Serif" font-size="10.00">&#45;OS/no&#45;OS/drivers/display</text>
<text text-anchor="middle" x="78.38" y="-172" font-family="Helvetica,sans-Serif" font-size="10.00">/ssd_1306/ssd_1306.h</text>
</a>
</g>
</g>
<!-- Node2 -->
<g id="Node000002" class="node">
<title>Node2</title>
<g id="a_Node000002"><a xlink:title=" ">
<polygon fill="#e0e0e0" stroke="#999999" points="82.88,-19 29.88,-19 29.88,0 82.88,0 82.88,-19"/>
<text text-anchor="middle" x="56.38" y="-7" font-family="Helvetica,sans-Serif" font-size="10.00">stdint.h</text>
</a>
</g>
</g>
<!-- Node1&#45;&gt;Node2 -->
<g id="edge1_Node000001_Node000002" class="edge">
<title>Node1&#45;&gt;Node2</title>
<g id="a_edge1_Node000001_Node000002"><a xlink:title=" ">
<path fill="none" stroke="#63b8ff" d="M39.9,-164.98C26.42,-156 12.8,-143.98 5.38,-129 -12.35,-93.26 19.29,-49.88 40.17,-26.8"/>
<polygon fill="#63b8ff" stroke="#63b8ff" points="42.96,-28.95 47.27,-19.27 37.86,-24.15 42.96,-28.95"/>
</a>
</g>
</g>
<!-- Node3 -->
<g id="Node000003" class="node">
<title>Node3</title>
<g id="a_Node000003"><a xlink:title=" ">
<polygon fill="#e0e0e0" stroke="#999999" points="67.88,-129 14.88,-129 14.88,-110 67.88,-110 67.88,-129"/>
<text text-anchor="middle" x="41.38" y="-117" font-family="Helvetica,sans-Serif" font-size="10.00">stdlib.h</text>
</a>
</g>
</g>
<!-- Node1&#45;&gt;Node3 -->
<g id="edge2_Node000001_Node000003" class="edge">
<title>Node1&#45;&gt;Node3</title>
<g id="a_edge2_Node000001_Node000003"><a xlink:title=" ">
<path fill="none" stroke="#63b8ff" d="M67.08,-164.95C62.13,-156.39 56.36,-146.42 51.55,-138.1"/>
<polygon fill="#63b8ff" stroke="#63b8ff" points="54.48,-136.17 46.44,-129.26 48.42,-139.67 54.48,-136.17"/>
</a>
</g>
</g>
<!-- Node4 -->
<g id="Node000004" class="node">
<title>Node4</title>
<g id="a_Node000004"><a xlink:href="display_8h.html" target="_top" xlink:title="Header file for display Driver.">
<polygon fill="white" stroke="#666666" points="144.88,-129 85.88,-129 85.88,-110 144.88,-110 144.88,-129"/>
<text text-anchor="middle" x="115.38" y="-117" font-family="Helvetica,sans-Serif" font-size="10.00">display.h</text>
</a>
</g>
</g>
<!-- Node1&#45;&gt;Node4 -->
<g id="edge3_Node000001_Node000004" class="edge">
<title>Node1&#45;&gt;Node4</title>
<g id="a_edge3_Node000001_Node000004"><a xlink:title=" ">
<path fill="none" stroke="#63b8ff" d="M89.68,-164.95C94.63,-156.39 100.39,-146.42 105.21,-138.1"/>
<polygon fill="#63b8ff" stroke="#63b8ff" points="108.34,-139.67 110.31,-129.26 102.28,-136.17 108.34,-139.67"/>
</a>
</g>
</g>
<!-- Node5 -->
<g id="Node000005" class="node">
<title>Node5</title>
<g id="a_Node000005"><a xlink:href="no__os__gpio_8h.html" target="_top" xlink:title="Header file of GPIO Interface.">
<polygon fill="white" stroke="#666666" points="224.38,-74 144.38,-74 144.38,-55 224.38,-55 224.38,-74"/>
<text text-anchor="middle" x="184.38" y="-62" font-family="Helvetica,sans-Serif" font-size="10.00">no_os_gpio.h</text>
</a>
</g>
</g>
<!-- Node1&#45;&gt;Node5 -->
<g id="edge9_Node000001_Node000005" class="edge">
<title>Node1&#45;&gt;Node5</title>
<g id="a_edge9_Node000001_Node000005"><a xlink:title=" ">
<path fill="none" stroke="#63b8ff" d="M111.86,-164.81C125.97,-155.31 141.77,-142.95 153.38,-129 164.65,-115.46 173.03,-97.13 178.21,-83.64"/>
<polygon fill="#63b8ff" stroke="#63b8ff" points="181.57,-84.64 181.68,-74.05 174.99,-82.26 181.57,-84.64"/>
</a>
</g>
</g>
<!-- Node4&#45;&gt;Node2 -->
<g id="edge4_Node000004_Node000002" class="edge">
<title>Node4&#45;&gt;Node2</title>
<g id="a_edge4_Node000004_Node000002"><a xlink:title=" ">
<path fill="none" stroke="#63b8ff" d="M89.52,-109.99C73.11,-103.09 53.18,-91.58 43.38,-74 35.52,-59.9 40.55,-41.67 46.49,-28.36"/>
<polygon fill="#63b8ff" stroke="#63b8ff" points="49.68,-29.8 51.01,-19.29 43.42,-26.68 49.68,-29.8"/>
</a>
</g>
</g>
<!-- Node4&#45;&gt;Node5 -->
<g id="edge5_Node000004_Node000005" class="edge">
<title>Node4&#45;&gt;Node5</title>
<g id="a_edge5_Node000004_Node000005"><a xlink:title=" ">
<path fill="none" stroke="#63b8ff" d="M126.46,-109.98C136.86,-102 152.64,-89.88 165.1,-80.31"/>
<polygon fill="#63b8ff" stroke="#63b8ff" points="167.29,-83.04 173.09,-74.17 163.03,-77.49 167.29,-83.04"/>
</a>
</g>
</g>
<!-- Node6 -->
<g id="Node000006" class="node">
<title>Node6</title>
<g id="a_Node000006"><a xlink:href="no__os__spi_8h.html" target="_top" xlink:title="Header file of SPI Interface.">
<polygon fill="white" stroke="#666666" points="126.38,-74 52.38,-74 52.38,-55 126.38,-55 126.38,-74"/>
<text text-anchor="middle" x="89.38" y="-62" font-family="Helvetica,sans-Serif" font-size="10.00">no_os_spi.h</text>
</a>
</g>
</g>
<!-- Node4&#45;&gt;Node6 -->
<g id="edge7_Node000004_Node000006" class="edge">
<title>Node4&#45;&gt;Node6</title>
<g id="a_edge7_Node000004_Node000006"><a xlink:title=" ">
<path fill="none" stroke="#63b8ff" d="M111.08,-109.75C107.56,-102.57 102.47,-92.18 98.09,-83.27"/>
<polygon fill="#63b8ff" stroke="#63b8ff" points="101.14,-81.53 93.59,-74.09 94.85,-84.61 101.14,-81.53"/>
</a>
</g>
</g>
<!-- Node5&#45;&gt;Node2 -->
<g id="edge6_Node000005_Node000002" class="edge">
<title>Node5&#45;&gt;Node2</title>
<g id="a_edge6_Node000005_Node000002"><a xlink:title=" ">
<path fill="none" stroke="#63b8ff" d="M163.81,-54.98C142.94,-46.34 110.41,-32.87 86.6,-23.02"/>
<polygon fill="#63b8ff" stroke="#63b8ff" points="87.9,-19.76 77.32,-19.17 85.22,-26.23 87.9,-19.76"/>
</a>
</g>
</g>
<!-- Node6&#45;&gt;Node2 -->
<g id="edge8_Node000006_Node000002" class="edge">
<title>Node6&#45;&gt;Node2</title>
<g id="a_edge8_Node000006_Node000002"><a xlink:title=" ">
<path fill="none" stroke="#63b8ff" d="M83.93,-54.75C79.36,-47.42 72.71,-36.73 67.08,-27.7"/>
<polygon fill="#63b8ff" stroke="#63b8ff" points="69.98,-25.73 61.73,-19.09 64.04,-29.43 69.98,-25.73"/>
</a>
</g>
</g>
</g>
</svg>
