<?xml version="1.0" encoding="UTF-8" standalone="no"?>
<!DOCTYPE svg PUBLIC "-//W3C//DTD SVG 1.1//EN"
 "http://www.w3.org/Graphics/SVG/1.1/DTD/svg11.dtd">
<!-- Generated by graphviz version 2.43.0 (0)
 -->
<!-- Title: /home/runner/work/no&#45;OS/no&#45;OS/drivers/display/ssd_1306/ssd_1306.h Pages: 1 -->
<svg width="696pt" height="203pt"
 viewBox="0.00 0.00 696.00 203.00" xmlns="http://www.w3.org/2000/svg" xmlns:xlink="http://www.w3.org/1999/xlink">
<g id="graph0" class="graph" transform="scale(1 1) rotate(0) translate(4 199)">
<title>/home/runner/work/no&#45;OS/no&#45;OS/drivers/display/ssd_1306/ssd_1306.h</title>
<!-- Node1 -->
<g id="Node000001" class="node">
<title>Node1</title>
<g id="a_Node000001"><a xlink:title="Header file for ssd_1306 Driver.">
<polygon fill="#999999" stroke="#666666" points="389,-195 248,-195 248,-154 389,-154 389,-195"/>
<text text-anchor="start" x="256" y="-183" font-family="Helvetica,sans-Serif" font-size="10.00">/home/runner/work/no</text>
<text text-anchor="start" x="256" y="-172" font-family="Helvetica,sans-Serif" font-size="10.00">&#45;OS/no&#45;OS/drivers/display</text>
<text text-anchor="middle" x="318.5" y="-161" font-family="Helvetica,sans-Serif" font-size="10.00">/ssd_1306/ssd_1306.h</text>
</a>
</g>
</g>
<!-- Node2 -->
<g id="Node000002" class="node">
<title>Node2</title>
<g id="a_Node000002"><a xlink:href="ssd__1306_8c.html" target="_top" xlink:title="Implementation of ssd_1306 Driver.">
<polygon fill="white" stroke="#666666" points="141,-118 0,-118 0,-77 141,-77 141,-118"/>
<text text-anchor="start" x="8" y="-106" font-family="Helvetica,sans-Serif" font-size="10.00">/home/runner/work/no</text>
<text text-anchor="start" x="8" y="-95" font-family="Helvetica,sans-Serif" font-size="10.00">&#45;OS/no&#45;OS/drivers/display</text>
<text text-anchor="middle" x="70.5" y="-84" font-family="Helvetica,sans-Serif" font-size="10.00">/ssd_1306/ssd_1306.c</text>
</a>
</g>
</g>
<!-- Node1&#45;&gt;Node2 -->
<g id="edge1_Node000001_Node000002" class="edge">
<title>Node1&#45;&gt;Node2</title>
<g id="a_edge1_Node000001_Node000002"><a xlink:title=" ">
<path fill="none" stroke="#63b8ff" d="M244.36,-151.08C209.61,-140.57 168.59,-128.16 135.12,-118.04"/>
<polygon fill="#63b8ff" stroke="#63b8ff" points="243.4,-154.45 253.99,-153.99 245.43,-147.75 243.4,-154.45"/>
</a>
</g>
</g>
<!-- Node3 -->
<g id="Node000003" class="node">
<title>Node3</title>
<g id="a_Node000003"><a xlink:href="display__demo_2src_2app_2main_8c.html" target="_top" xlink:title="Implementation of Main Function.">
<polygon fill="white" stroke="#666666" points="305.5,-118 159.5,-118 159.5,-77 305.5,-77 305.5,-118"/>
<text text-anchor="start" x="167.5" y="-106" font-family="Helvetica,sans-Serif" font-size="10.00">/home/runner/work/no</text>
<text text-anchor="start" x="167.5" y="-95" font-family="Helvetica,sans-Serif" font-size="10.00">&#45;OS/no&#45;OS/projects/display</text>
<text text-anchor="middle" x="232.5" y="-84" font-family="Helvetica,sans-Serif" font-size="10.00">_demo/src/app/main.c</text>
</a>
</g>
</g>
<!-- Node1&#45;&gt;Node3 -->
<g id="edge2_Node000001_Node000003" class="edge">
<title>Node1&#45;&gt;Node3</title>
<g id="a_edge2_Node000001_Node000003"><a xlink:title=" ">
<path fill="none" stroke="#63b8ff" d="M288.19,-147.07C277.25,-137.52 265.1,-126.93 254.94,-118.07"/>
<polygon fill="#63b8ff" stroke="#63b8ff" points="286.07,-149.86 295.9,-153.79 290.67,-144.58 286.07,-149.86"/>
</a>
</g>
</g>
<!-- Node4 -->
<g id="Node000004" class="node">
<title>Node4</title>
<g id="a_Node000004"><a xlink:href="ssd1306_2src_2common_2common__data_8h.html" target="_top" xlink:title="Defines common data to be used by ssd1306 example.">
<polygon fill="white" stroke="#666666" points="485,-118 324,-118 324,-77 485,-77 485,-118"/>
<text text-anchor="start" x="332" y="-106" font-family="Helvetica,sans-Serif" font-size="10.00">/home/runner/work/no</text>
<text text-anchor="start" x="332" y="-95" font-family="Helvetica,sans-Serif" font-size="10.00">&#45;OS/no&#45;OS/projects/ssd1306</text>
<text text-anchor="middle" x="404.5" y="-84" font-family="Helvetica,sans-Serif" font-size="10.00">/src/common/common_data.h</text>
</a>
</g>
</g>
<!-- Node1&#45;&gt;Node4 -->
<g id="edge3_Node000001_Node000004" class="edge">
<title>Node1&#45;&gt;Node4</title>
<g id="a_edge3_Node000001_Node000004"><a xlink:title=" ">
<path fill="none" stroke="#63b8ff" d="M348.81,-147.07C359.75,-137.52 371.9,-126.93 382.06,-118.07"/>
<polygon fill="#63b8ff" stroke="#63b8ff" points="346.33,-144.58 341.1,-153.79 350.93,-149.86 346.33,-144.58"/>
</a>
</g>
</g>
<!-- Node6 -->
<g id="Node000006" class="node">
<title>Node6</title>
<g id="a_Node000006"><a xlink:href="example_8c.html" target="_top" xlink:title="Implementation of ssd1306 example for demo project.">
<polygon fill="white" stroke="#666666" points="688,-118 503,-118 503,-77 688,-77 688,-118"/>
<text text-anchor="start" x="511" y="-106" font-family="Helvetica,sans-Serif" font-size="10.00">/home/runner/work/no</text>
<text text-anchor="start" x="511" y="-95" font-family="Helvetica,sans-Serif" font-size="10.00">&#45;OS/no&#45;OS/projects/ssd1306</text>
<text text-anchor="middle" x="595.5" y="-84" font-family="Helvetica,sans-Serif" font-size="10.00">/src/examples/example/example.c</text>
</a>
</g>
</g>
<!-- Node1&#45;&gt;Node6 -->
<g id="edge5_Node000001_Node000006" class="edge">
<title>Node1&#45;&gt;Node6</title>
<g id="a_edge5_Node000001_Node000006"><a xlink:title=" ">
<path fill="none" stroke="#63b8ff" d="M398.92,-151.73C438.15,-141.1 484.98,-128.43 523.08,-118.11"/>
<polygon fill="#63b8ff" stroke="#63b8ff" points="397.85,-148.39 389.12,-154.38 399.68,-155.15 397.85,-148.39"/>
</a>
</g>
</g>
<!-- Node5 -->
<g id="Node000005" class="node">
<title>Node5</title>
<g id="a_Node000005"><a xlink:href="ssd1306_2src_2common_2common__data_8c.html" target="_top" xlink:title="Defines common data to be used by issd1306 example.">
<polygon fill="white" stroke="#666666" points="485,-41 324,-41 324,0 485,0 485,-41"/>
<text text-anchor="start" x="332" y="-29" font-family="Helvetica,sans-Serif" font-size="10.00">/home/runner/work/no</text>
<text text-anchor="start" x="332" y="-18" font-family="Helvetica,sans-Serif" font-size="10.00">&#45;OS/no&#45;OS/projects/ssd1306</text>
<text text-anchor="middle" x="404.5" y="-7" font-family="Helvetica,sans-Serif" font-size="10.00">/src/common/common_data.c</text>
</a>
</g>
</g>
<!-- Node4&#45;&gt;Node5 -->
<g id="edge4_Node000004_Node000005" class="edge">
<title>Node4&#45;&gt;Node5</title>
<g id="a_edge4_Node000004_Node000005"><a xlink:title=" ">
<path fill="none" stroke="#63b8ff" d="M404.5,-66.69C404.5,-58.08 404.5,-48.9 404.5,-41.07"/>
<polygon fill="#63b8ff" stroke="#63b8ff" points="401,-66.79 404.5,-76.79 408,-66.79 401,-66.79"/>
</a>
</g>
</g>
</g>
</svg>
