<?xml version="1.0" encoding="UTF-8" standalone="no"?>
<!DOCTYPE svg PUBLIC "-//W3C//DTD SVG 1.1//EN"
 "http://www.w3.org/Graphics/SVG/1.1/DTD/svg11.dtd">
<!-- Generated by graphviz version 2.43.0 (0)
 -->
<!-- Title: /home/runner/work/no&#45;OS/no&#45;OS/projects/eval&#45;pqmon/src/common/status.h Pages: 1 -->
<!--zoomable 478 -->

<svg id="main" version="1.1" xmlns="http://www.w3.org/2000/svg" xmlns:xlink="http://www.w3.org/1999/xlink" xml:space="preserve" onload="init(evt)">

<style type="text/css"><![CDATA[
.node, .edge {opacity: 0.7;}
.node.selected, .edge.selected {opacity: 1;}
.edge:hover path { stroke: red; }
.edge:hover polygon { stroke: red; fill: red; }
]]></style>

<defs>
  <circle id="rim" cx="0" cy="0" r="7"/>
  <circle id="rim2" cx="0" cy="0" r="3.5"/>
  <g id="zoomPlus">
    <use xlink:href="#rim" fill="#404040"><set attributeName="fill" to="#808080" begin="zoomplus.mouseover" end="zoomplus.mouseout"/></use>
    <path d="M-4,0h8M0,-4v8" fill="none" stroke="white" stroke-width="1.5" pointer-events="none"/>
  </g>
  <g id="zoomMin">
    <use xlink:href="#rim" fill="#404040"><set attributeName="fill" to="#808080" begin="zoomminus.mouseover" end="zoomminus.mouseout"/></use>
    <path d="M-4,0h8" fill="none" stroke="white" stroke-width="1.5" pointer-events="none"/>
  </g>
  <g id="arrowUp" transform="translate(30 24)">
    <use xlink:href="#rim"/>
    <path pointer-events="none" fill="none" stroke="white" stroke-width="1.5" d="M0,-3.0v7 M-2.5,-0.5L0,-3.0L2.5,-0.5"/>
  </g>
  <g id="arrowRight" transform="rotate(90) translate(36 -43)">
    <use xlink:href="#rim"/>
    <path pointer-events="none" fill="none" stroke="white" stroke-width="1.5" d="M0,-3.0v7 M-2.5,-0.5L0,-3.0L2.5,-0.5"/>
  </g>
  <g id="arrowDown" transform="rotate(180) translate(-30 -48)">
    <use xlink:href="#rim"/>
    <path pointer-events="none" fill="none" stroke="white" stroke-width="1.5" d="M0,-3.0v7 M-2.5,-0.5L0,-3.0L2.5,-0.5"/>
  </g>
  <g id="arrowLeft" transform="rotate(270) translate(-36 17)">
    <use xlink:href="#rim"/>
    <path pointer-events="none" fill="none" stroke="white" stroke-width="1.5" d="M0,-3.0v7 M-2.5,-0.5L0,-3.0L2.5,-0.5"/>
  </g>
  <g id="resetDef">
    <use xlink:href="#rim2" fill="#404040"><set attributeName="fill" to="#808080" begin="reset.mouseover" end="reset.mouseout"/></use>
  </g>
</defs>
<script type="application/ecmascript">
var viewWidth = 1108;
var viewHeight = 478;
var sectionId = 'dynsection-0';
</script>
<script type="application/ecmascript" xlink:href="svg.min.js"/>
<svg id="graph" class="graph">
<g id="viewport">
<title>/home/runner/work/no&#45;OS/no&#45;OS/projects/eval&#45;pqmon/src/common/status.h</title>
<!-- Node1 -->
<g id="Node000001" class="node">
<title>Node1</title>
<g id="a_Node000001"><a xlink:title=" ">
<polygon fill="#999999" stroke="#666666" points="719,-470 560,-470 560,-429 719,-429 719,-470"/>
<text text-anchor="start" x="568" y="-458" font-family="Helvetica,sans-Serif" font-size="10.00">/home/runner/work/no</text>
<text text-anchor="start" x="568" y="-447" font-family="Helvetica,sans-Serif" font-size="10.00">&#45;OS/no&#45;OS/projects/eval</text>
<text text-anchor="middle" x="639.5" y="-436" font-family="Helvetica,sans-Serif" font-size="10.00">&#45;pqmon/src/common/status.h</text>
</a>
</g>
</g>
<!-- Node2 -->
<g id="Node000002" class="node">
<title>Node2</title>
<g id="a_Node000002"><a xlink:href="afe__calibration_8c.html" target="_top" xlink:title=" ">
<polygon fill="white" stroke="#666666" points="201,-299.5 0,-299.5 0,-258.5 201,-258.5 201,-299.5"/>
<text text-anchor="start" x="8" y="-287.5" font-family="Helvetica,sans-Serif" font-size="10.00">/home/runner/work/no</text>
<text text-anchor="start" x="8" y="-276.5" font-family="Helvetica,sans-Serif" font-size="10.00">&#45;OS/no&#45;OS/projects/eval</text>
<text text-anchor="middle" x="100.5" y="-265.5" font-family="Helvetica,sans-Serif" font-size="10.00">&#45;pqmon/src/common/afe_calibration.c</text>
</a>
</g>
</g>
<!-- Node1&#45;&gt;Node2 -->
<g id="edge1_Node000001_Node000002" class="edge">
<title>Node1&#45;&gt;Node2</title>
<g id="a_edge1_Node000001_Node000002"><a xlink:title=" ">
<path fill="none" stroke="#63b8ff" d="M549.56,-436.79C491.83,-427.92 415.74,-413.69 350.5,-393 271.5,-367.94 184.4,-324.75 136.7,-299.64"/>
<polygon fill="#63b8ff" stroke="#63b8ff" points="549.34,-440.3 559.75,-438.33 550.39,-433.38 549.34,-440.3"/>
</a>
</g>
</g>
<!-- Node3 -->
<g id="Node000003" class="node">
<title>Node3</title>
<g id="a_Node000003"><a xlink:href="afe__config_8h.html" target="_top" xlink:title=" ">
<polygon fill="white" stroke="#666666" points="539,-387.5 360,-387.5 360,-346.5 539,-346.5 539,-387.5"/>
<text text-anchor="start" x="368" y="-375.5" font-family="Helvetica,sans-Serif" font-size="10.00">/home/runner/work/no</text>
<text text-anchor="start" x="368" y="-364.5" font-family="Helvetica,sans-Serif" font-size="10.00">&#45;OS/no&#45;OS/projects/eval</text>
<text text-anchor="middle" x="449.5" y="-353.5" font-family="Helvetica,sans-Serif" font-size="10.00">&#45;pqmon/src/common/afe_config.h</text>
</a>
</g>
</g>
<!-- Node1&#45;&gt;Node3 -->
<g id="edge2_Node000001_Node000003" class="edge">
<title>Node1&#45;&gt;Node3</title>
<g id="a_edge2_Node000001_Node000003"><a xlink:title=" ">
<path fill="none" stroke="#63b8ff" d="M583.77,-424.89C555.81,-413.04 522.35,-398.87 495.83,-387.63"/>
<polygon fill="#63b8ff" stroke="#63b8ff" points="582.45,-428.13 593.02,-428.81 585.18,-421.68 582.45,-428.13"/>
</a>
</g>
</g>
<!-- Node6 -->
<g id="Node000006" class="node">
<title>Node6</title>
<g id="a_Node000006"><a xlink:href="pqlib__afe_8h.html" target="_top" xlink:title=" ">
<polygon fill="white" stroke="#666666" points="866.5,-299.5 692.5,-299.5 692.5,-258.5 866.5,-258.5 866.5,-299.5"/>
<text text-anchor="start" x="700.5" y="-287.5" font-family="Helvetica,sans-Serif" font-size="10.00">/home/runner/work/no</text>
<text text-anchor="start" x="700.5" y="-276.5" font-family="Helvetica,sans-Serif" font-size="10.00">&#45;OS/no&#45;OS/projects/eval</text>
<text text-anchor="middle" x="779.5" y="-265.5" font-family="Helvetica,sans-Serif" font-size="10.00">&#45;pqmon/src/common/pqlib_afe.h</text>
</a>
</g>
</g>
<!-- Node1&#45;&gt;Node6 -->
<g id="edge18_Node000001_Node000006" class="edge">
<title>Node1&#45;&gt;Node6</title>
<g id="a_edge18_Node000001_Node000006"><a xlink:title=" ">
<path fill="none" stroke="#63b8ff" d="M684.58,-423.29C697.23,-414.79 710.3,-404.5 720.5,-393 745.61,-364.69 763.5,-323.78 772.61,-299.74"/>
<polygon fill="#63b8ff" stroke="#63b8ff" points="682.43,-420.51 675.94,-428.88 686.23,-426.39 682.43,-420.51"/>
</a>
</g>
</g>
<!-- Node7 -->
<g id="Node000007" class="node">
<title>Node7</title>
<g id="a_Node000007"><a xlink:href="iio__pqm_8h.html" target="_top" xlink:title=" ">
<polygon fill="white" stroke="#666666" points="822.5,-217 654.5,-217 654.5,-176 822.5,-176 822.5,-217"/>
<text text-anchor="start" x="662.5" y="-205" font-family="Helvetica,sans-Serif" font-size="10.00">/home/runner/work/no</text>
<text text-anchor="start" x="662.5" y="-194" font-family="Helvetica,sans-Serif" font-size="10.00">&#45;OS/no&#45;OS/projects/eval</text>
<text text-anchor="middle" x="738.5" y="-183" font-family="Helvetica,sans-Serif" font-size="10.00">&#45;pqmon/src/common/iio_pqm.h</text>
</a>
</g>
</g>
<!-- Node1&#45;&gt;Node7 -->
<g id="edge17_Node000001_Node000007" class="edge">
<title>Node1&#45;&gt;Node7</title>
<g id="a_edge17_Node000001_Node000007"><a xlink:title=" ">
<path fill="none" stroke="#63b8ff" d="M717.11,-425.43C772.94,-404.17 843.77,-366.42 875.5,-305 886.11,-284.47 888.41,-272.17 875.5,-253 863.1,-234.59 843.43,-222.29 822.83,-214.06"/>
<polygon fill="#63b8ff" stroke="#63b8ff" points="715.74,-422.21 707.58,-428.96 718.17,-428.77 715.74,-422.21"/>
</a>
</g>
</g>
<!-- Node14 -->
<g id="Node000014" class="node">
<title>Node14</title>
<g id="a_Node000014"><a xlink:href="pqlib__example_8h.html" target="_top" xlink:title=" ">
<polygon fill="white" stroke="#666666" points="711.5,-393 567.5,-393 567.5,-341 711.5,-341 711.5,-393"/>
<text text-anchor="start" x="575.5" y="-381" font-family="Helvetica,sans-Serif" font-size="10.00">/home/runner/work/no</text>
<text text-anchor="start" x="575.5" y="-370" font-family="Helvetica,sans-Serif" font-size="10.00">&#45;OS/no&#45;OS/projects/eval</text>
<text text-anchor="start" x="575.5" y="-359" font-family="Helvetica,sans-Serif" font-size="10.00">&#45;pqmon/src/common/pqlib</text>
<text text-anchor="middle" x="639.5" y="-348" font-family="Helvetica,sans-Serif" font-size="10.00">_example.h</text>
</a>
</g>
</g>
<!-- Node1&#45;&gt;Node14 -->
<g id="edge19_Node000001_Node000014" class="edge">
<title>Node1&#45;&gt;Node14</title>
<g id="a_edge19_Node000001_Node000014"><a xlink:title=" ">
<path fill="none" stroke="#63b8ff" d="M639.5,-418.49C639.5,-410.15 639.5,-401.19 639.5,-393.16"/>
<polygon fill="#63b8ff" stroke="#63b8ff" points="636,-418.6 639.5,-428.6 643,-418.6 636,-418.6"/>
</a>
</g>
</g>
<!-- Node3&#45;&gt;Node2 -->
<g id="edge3_Node000003_Node000002" class="edge">
<title>Node3&#45;&gt;Node2</title>
<g id="a_edge3_Node000003_Node000002"><a xlink:title=" ">
<path fill="none" stroke="#63b8ff" d="M360.44,-344.05C304.68,-330.31 233.47,-312.77 179.68,-299.51"/>
<polygon fill="#63b8ff" stroke="#63b8ff" points="359.76,-347.49 370.31,-346.49 361.43,-340.69 359.76,-347.49"/>
</a>
</g>
</g>
<!-- Node4 -->
<g id="Node000004" class="node">
<title>Node4</title>
<g id="a_Node000004"><a xlink:href="afe__config_8c.html" target="_top" xlink:title=" ">
<polygon fill="white" stroke="#666666" points="398,-299.5 219,-299.5 219,-258.5 398,-258.5 398,-299.5"/>
<text text-anchor="start" x="227" y="-287.5" font-family="Helvetica,sans-Serif" font-size="10.00">/home/runner/work/no</text>
<text text-anchor="start" x="227" y="-276.5" font-family="Helvetica,sans-Serif" font-size="10.00">&#45;OS/no&#45;OS/projects/eval</text>
<text text-anchor="middle" x="308.5" y="-265.5" font-family="Helvetica,sans-Serif" font-size="10.00">&#45;pqmon/src/common/afe_config.c</text>
</a>
</g>
</g>
<!-- Node3&#45;&gt;Node4 -->
<g id="edge4_Node000003_Node000004" class="edge">
<title>Node3&#45;&gt;Node4</title>
<g id="a_edge4_Node000003_Node000004"><a xlink:title=" ">
<path fill="none" stroke="#63b8ff" d="M408.86,-341.22C387.26,-328.04 361.07,-312.06 340.86,-299.74"/>
<polygon fill="#63b8ff" stroke="#63b8ff" points="407.15,-344.27 417.5,-346.49 410.79,-338.29 407.15,-344.27"/>
</a>
</g>
</g>
<!-- Node5 -->
<g id="Node000005" class="node">
<title>Node5</title>
<g id="a_Node000005"><a xlink:href="flash__storage_8c.html" target="_top" xlink:title=" ">
<polygon fill="white" stroke="#666666" points="598,-305 455,-305 455,-253 598,-253 598,-305"/>
<text text-anchor="start" x="463" y="-293" font-family="Helvetica,sans-Serif" font-size="10.00">/home/runner/work/no</text>
<text text-anchor="start" x="463" y="-282" font-family="Helvetica,sans-Serif" font-size="10.00">&#45;OS/no&#45;OS/projects/eval</text>
<text text-anchor="start" x="463" y="-271" font-family="Helvetica,sans-Serif" font-size="10.00">&#45;pqmon/src/common/flash</text>
<text text-anchor="middle" x="526.5" y="-260" font-family="Helvetica,sans-Serif" font-size="10.00">_storage.c</text>
</a>
</g>
</g>
<!-- Node3&#45;&gt;Node5 -->
<g id="edge5_Node000003_Node000005" class="edge">
<title>Node3&#45;&gt;Node5</title>
<g id="a_edge5_Node000003_Node000005"><a xlink:title=" ">
<path fill="none" stroke="#63b8ff" d="M473.7,-338.97C483.33,-328.21 494.36,-315.9 503.83,-305.32"/>
<polygon fill="#63b8ff" stroke="#63b8ff" points="471.04,-336.7 466.97,-346.49 476.25,-341.37 471.04,-336.7"/>
</a>
</g>
</g>
<!-- Node3&#45;&gt;Node6 -->
<g id="edge6_Node000003_Node000006" class="edge">
<title>Node3&#45;&gt;Node6</title>
<g id="a_edge6_Node000003_Node000006"><a xlink:title=" ">
<path fill="none" stroke="#63b8ff" d="M534.37,-343.88C587,-330.17 653.98,-312.71 704.63,-299.51"/>
<polygon fill="#63b8ff" stroke="#63b8ff" points="533.18,-340.58 524.38,-346.49 534.94,-347.35 533.18,-340.58"/>
</a>
</g>
</g>
<!-- Node6&#45;&gt;Node7 -->
<g id="edge7_Node000006_Node000007" class="edge">
<title>Node6&#45;&gt;Node7</title>
<g id="a_edge7_Node000006_Node000007"><a xlink:title=" ">
<path fill="none" stroke="#63b8ff" d="M764.81,-249.16C759.41,-238.55 753.42,-226.79 748.52,-217.17"/>
<polygon fill="#63b8ff" stroke="#63b8ff" points="761.71,-250.78 769.37,-258.1 767.95,-247.6 761.71,-250.78"/>
</a>
</g>
</g>
<!-- Node12 -->
<g id="Node000012" class="node">
<title>Node12</title>
<g id="a_Node000012"><a xlink:href="pqlib__afe_8c.html" target="_top" xlink:title=" ">
<polygon fill="white" stroke="#666666" points="937,-134.5 764,-134.5 764,-93.5 937,-93.5 937,-134.5"/>
<text text-anchor="start" x="772" y="-122.5" font-family="Helvetica,sans-Serif" font-size="10.00">/home/runner/work/no</text>
<text text-anchor="start" x="772" y="-111.5" font-family="Helvetica,sans-Serif" font-size="10.00">&#45;OS/no&#45;OS/projects/eval</text>
<text text-anchor="middle" x="850.5" y="-100.5" font-family="Helvetica,sans-Serif" font-size="10.00">&#45;pqmon/src/common/pqlib_afe.c</text>
</a>
</g>
</g>
<!-- Node6&#45;&gt;Node12 -->
<g id="edge16_Node000006_Node000012" class="edge">
<title>Node6&#45;&gt;Node12</title>
<g id="a_edge16_Node000006_Node000012"><a xlink:title=" ">
<path fill="none" stroke="#63b8ff" d="M807.81,-250.99C816.66,-241.1 825.64,-229.29 831.5,-217 844.22,-190.34 848.44,-155.97 849.83,-134.72"/>
<polygon fill="#63b8ff" stroke="#63b8ff" points="805.07,-248.8 800.79,-258.49 810.18,-253.58 805.07,-248.8"/>
</a>
</g>
</g>
<!-- Node8 -->
<g id="Node000008" class="node">
<title>Node8</title>
<g id="a_Node000008"><a xlink:href="eval-pqmon_2src_2common_2common__data_8h.html" target="_top" xlink:title=" ">
<polygon fill="white" stroke="#666666" points="561,-134.5 362,-134.5 362,-93.5 561,-93.5 561,-134.5"/>
<text text-anchor="start" x="370" y="-122.5" font-family="Helvetica,sans-Serif" font-size="10.00">/home/runner/work/no</text>
<text text-anchor="start" x="370" y="-111.5" font-family="Helvetica,sans-Serif" font-size="10.00">&#45;OS/no&#45;OS/projects/eval</text>
<text text-anchor="middle" x="461.5" y="-100.5" font-family="Helvetica,sans-Serif" font-size="10.00">&#45;pqmon/src/common/common_data.h</text>
</a>
</g>
</g>
<!-- Node7&#45;&gt;Node8 -->
<g id="edge8_Node000007_Node000008" class="edge">
<title>Node7&#45;&gt;Node8</title>
<g id="a_edge8_Node000007_Node000008"><a xlink:title=" ">
<path fill="none" stroke="#63b8ff" d="M655.41,-173.13C612.81,-161.02 561.86,-146.19 522.85,-134.54"/>
<polygon fill="#63b8ff" stroke="#63b8ff" points="654.63,-176.55 665.2,-175.91 656.54,-169.81 654.63,-176.55"/>
</a>
</g>
</g>
<!-- Node11 -->
<g id="Node000011" class="node">
<title>Node11</title>
<g id="a_Node000011"><a xlink:href="iio__pqm_8c.html" target="_top" xlink:title=" ">
<polygon fill="white" stroke="#666666" points="746,-134.5 579,-134.5 579,-93.5 746,-93.5 746,-134.5"/>
<text text-anchor="start" x="587" y="-122.5" font-family="Helvetica,sans-Serif" font-size="10.00">/home/runner/work/no</text>
<text text-anchor="start" x="587" y="-111.5" font-family="Helvetica,sans-Serif" font-size="10.00">&#45;OS/no&#45;OS/projects/eval</text>
<text text-anchor="middle" x="662.5" y="-100.5" font-family="Helvetica,sans-Serif" font-size="10.00">&#45;pqmon/src/common/iio_pqm.c</text>
</a>
</g>
</g>
<!-- Node7&#45;&gt;Node11 -->
<g id="edge13_Node000007_Node000011" class="edge">
<title>Node7&#45;&gt;Node11</title>
<g id="a_edge13_Node000007_Node000011"><a xlink:title=" ">
<path fill="none" stroke="#63b8ff" d="M712.78,-168.26C702.38,-157.24 690.61,-144.77 681.07,-134.67"/>
<polygon fill="#63b8ff" stroke="#63b8ff" points="710.3,-170.73 719.71,-175.6 715.39,-165.93 710.3,-170.73"/>
</a>
</g>
</g>
<!-- Node7&#45;&gt;Node12 -->
<g id="edge14_Node000007_Node000012" class="edge">
<title>Node7&#45;&gt;Node12</title>
<g id="a_edge14_Node000007_Node000012"><a xlink:title=" ">
<path fill="none" stroke="#63b8ff" d="M774.36,-169.72C790.12,-158.4 808.34,-145.31 823,-134.77"/>
<polygon fill="#63b8ff" stroke="#63b8ff" points="771.98,-167.13 765.9,-175.81 776.06,-172.81 771.98,-167.13"/>
</a>
</g>
</g>
<!-- Node13 -->
<g id="Node000013" class="node">
<title>Node13</title>
<g id="a_Node000013"><a xlink:href="pqlib__example_8c.html" target="_top" xlink:title=" ">
<polygon fill="white" stroke="#666666" points="1099.5,-140 955.5,-140 955.5,-88 1099.5,-88 1099.5,-140"/>
<text text-anchor="start" x="963.5" y="-128" font-family="Helvetica,sans-Serif" font-size="10.00">/home/runner/work/no</text>
<text text-anchor="start" x="963.5" y="-117" font-family="Helvetica,sans-Serif" font-size="10.00">&#45;OS/no&#45;OS/projects/eval</text>
<text text-anchor="start" x="963.5" y="-106" font-family="Helvetica,sans-Serif" font-size="10.00">&#45;pqmon/src/common/pqlib</text>
<text text-anchor="middle" x="1027.5" y="-95" font-family="Helvetica,sans-Serif" font-size="10.00">_example.c</text>
</a>
</g>
</g>
<!-- Node7&#45;&gt;Node13 -->
<g id="edge15_Node000007_Node000013" class="edge">
<title>Node7&#45;&gt;Node13</title>
<g id="a_edge15_Node000007_Node000013"><a xlink:title=" ">
<path fill="none" stroke="#63b8ff" d="M824.65,-173.31C862.17,-163.44 906.6,-151.47 946.5,-140 949.33,-139.19 952.21,-138.35 955.12,-137.49"/>
<polygon fill="#63b8ff" stroke="#63b8ff" points="823.55,-169.98 814.76,-175.9 825.33,-176.75 823.55,-169.98"/>
</a>
</g>
</g>
<!-- Node8&#45;&gt;Node3 -->
<g id="edge9_Node000008_Node000003" class="edge">
<title>Node8&#45;&gt;Node3</title>
<g id="a_edge9_Node000008_Node000003"><a xlink:title=" ">
<path fill="none" stroke="#63b8ff" d="M457.08,-144.49C453.14,-172.38 447.67,-215.42 445.5,-253 444.17,-276.07 444.74,-281.9 445.5,-305 445.95,-318.79 446.98,-334.3 447.88,-346.24"/>
<polygon fill="#63b8ff" stroke="#63b8ff" points="460.55,-144.99 458.51,-134.59 453.62,-143.99 460.55,-144.99"/>
</a>
</g>
</g>
<!-- Node8&#45;&gt;Node7 -->
<g id="edge11_Node000008_Node000007" class="edge">
<title>Node8&#45;&gt;Node7</title>
<g id="a_edge11_Node000008_Node000007"><a xlink:title=" ">
<path fill="none" stroke="#63b8ff" d="M544.4,-137.31C586.98,-149.42 637.93,-164.25 676.98,-175.91"/>
<polygon fill="#63b8ff" stroke="#63b8ff" points="545.19,-133.9 534.61,-134.54 543.28,-140.63 545.19,-133.9"/>
</a>
</g>
</g>
<!-- Node9 -->
<g id="Node000009" class="node">
<title>Node9</title>
<g id="a_Node000009"><a xlink:href="eval-pqmon_2src_2common_2common__data_8c.html" target="_top" xlink:title=" ">
<polygon fill="white" stroke="#666666" points="466.5,-46.5 268.5,-46.5 268.5,-5.5 466.5,-5.5 466.5,-46.5"/>
<text text-anchor="start" x="276.5" y="-34.5" font-family="Helvetica,sans-Serif" font-size="10.00">/home/runner/work/no</text>
<text text-anchor="start" x="276.5" y="-23.5" font-family="Helvetica,sans-Serif" font-size="10.00">&#45;OS/no&#45;OS/projects/eval</text>
<text text-anchor="middle" x="367.5" y="-12.5" font-family="Helvetica,sans-Serif" font-size="10.00">&#45;pqmon/src/common/common_data.c</text>
</a>
</g>
</g>
<!-- Node8&#45;&gt;Node9 -->
<g id="edge10_Node000008_Node000009" class="edge">
<title>Node8&#45;&gt;Node9</title>
<g id="a_edge10_Node000008_Node000009"><a xlink:title=" ">
<path fill="none" stroke="#63b8ff" d="M432.67,-86.62C418.62,-73.77 402.01,-58.57 389.07,-46.74"/>
<polygon fill="#63b8ff" stroke="#63b8ff" points="430.43,-89.32 440.17,-93.49 435.15,-84.15 430.43,-89.32"/>
</a>
</g>
</g>
<!-- Node10 -->
<g id="Node000010" class="node">
<title>Node10</title>
<g id="a_Node000010"><a xlink:href="pqlib__convert_8c.html" target="_top" xlink:title=" ">
<polygon fill="white" stroke="#666666" points="628.5,-52 484.5,-52 484.5,0 628.5,0 628.5,-52"/>
<text text-anchor="start" x="492.5" y="-40" font-family="Helvetica,sans-Serif" font-size="10.00">/home/runner/work/no</text>
<text text-anchor="start" x="492.5" y="-29" font-family="Helvetica,sans-Serif" font-size="10.00">&#45;OS/no&#45;OS/projects/eval</text>
<text text-anchor="start" x="492.5" y="-18" font-family="Helvetica,sans-Serif" font-size="10.00">&#45;pqmon/src/common/pqlib</text>
<text text-anchor="middle" x="556.5" y="-7" font-family="Helvetica,sans-Serif" font-size="10.00">_convert.c</text>
</a>
</g>
</g>
<!-- Node8&#45;&gt;Node10 -->
<g id="edge12_Node000008_Node000010" class="edge">
<title>Node8&#45;&gt;Node10</title>
<g id="a_edge12_Node000008_Node000010"><a xlink:title=" ">
<path fill="none" stroke="#63b8ff" d="M490.66,-86.6C502.71,-75.69 516.61,-63.11 528.53,-52.32"/>
<polygon fill="#63b8ff" stroke="#63b8ff" points="488.12,-84.18 483.06,-93.49 492.82,-89.37 488.12,-84.18"/>
</a>
</g>
</g>
<!-- Node14&#45;&gt;Node2 -->
<g id="edge20_Node000014_Node000002" class="edge">
<title>Node14&#45;&gt;Node2</title>
<g id="a_edge20_Node000014_Node000002"><a xlink:title=" ">
<path fill="none" stroke="#63b8ff" d="M557.39,-342.99C554.06,-342.28 550.75,-341.61 547.5,-341 399.03,-313.1 358.5,-329.93 209.5,-305 200.12,-303.43 190.33,-301.55 180.64,-299.52"/>
<polygon fill="#63b8ff" stroke="#63b8ff" points="556.91,-346.47 567.43,-345.25 558.45,-339.64 556.91,-346.47"/>
</a>
</g>
</g>
<!-- Node14&#45;&gt;Node5 -->
<g id="edge22_Node000014_Node000005" class="edge">
<title>Node14&#45;&gt;Node5</title>
<g id="a_edge22_Node000014_Node000005"><a xlink:title=" ">
<path fill="none" stroke="#63b8ff" d="M598.35,-334.69C585.65,-325.02 571.82,-314.49 559.72,-305.29"/>
<polygon fill="#63b8ff" stroke="#63b8ff" points="596.43,-337.62 606.51,-340.89 600.67,-332.05 596.43,-337.62"/>
</a>
</g>
</g>
<!-- Node14&#45;&gt;Node6 -->
<g id="edge24_Node000014_Node000006" class="edge">
<title>Node14&#45;&gt;Node6</title>
<g id="a_edge24_Node000014_Node000006"><a xlink:title=" ">
<path fill="none" stroke="#63b8ff" d="M689.14,-335.51C708.62,-323.54 730.41,-310.16 747.71,-299.53"/>
<polygon fill="#63b8ff" stroke="#63b8ff" points="687.06,-332.68 680.37,-340.89 690.72,-338.64 687.06,-332.68"/>
</a>
</g>
</g>
<!-- Node14&#45;&gt;Node7 -->
<g id="edge23_Node000014_Node000007" class="edge">
<title>Node14&#45;&gt;Node7</title>
<g id="a_edge23_Node000014_Node000007"><a xlink:title=" ">
<path fill="none" stroke="#63b8ff" d="M649.04,-331.01C656.33,-307.74 667.82,-277.15 683.5,-253 692.15,-239.69 704.38,-226.95 715.11,-217.05"/>
<polygon fill="#63b8ff" stroke="#63b8ff" points="645.62,-330.22 646.07,-340.81 652.32,-332.25 645.62,-330.22"/>
</a>
</g>
</g>
<!-- Node14&#45;&gt;Node8 -->
<g id="edge21_Node000014_Node000008" class="edge">
<title>Node14&#45;&gt;Node8</title>
<g id="a_edge21_Node000014_Node000008"><a xlink:title=" ">
<path fill="none" stroke="#63b8ff" d="M634.16,-330.83C629.46,-307.49 621.04,-276.87 606.5,-253 575.95,-202.84 522.54,-158.77 489.77,-134.6"/>
<polygon fill="#63b8ff" stroke="#63b8ff" points="630.72,-331.48 636,-340.67 637.6,-330.19 630.72,-331.48"/>
</a>
</g>
</g>
<!-- Node14&#45;&gt;Node13 -->
<g id="edge25_Node000014_Node000013" class="edge">
<title>Node14&#45;&gt;Node13</title>
<g id="a_edge25_Node000014_Node000013"><a xlink:title=" ">
<path fill="none" stroke="#63b8ff" d="M721.69,-357.86C769.61,-350.05 829.48,-334.79 875.5,-305 941.46,-262.3 991.81,-181.35 1014.42,-140.27"/>
<polygon fill="#63b8ff" stroke="#63b8ff" points="721,-354.42 711.65,-359.41 722.07,-361.34 721,-354.42"/>
</a>
</g>
</g>
</g>
</svg>

<g id="navigator" transform="translate(0 0)" fill="#404254">
  <rect fill="#f2f5e9" fill-opacity="0.5" stroke="#606060" stroke-width=".5" x="0" y="0" width="60" height="60"/>
  <use id="zoomplus" xlink:href="#zoomPlus" x="17" y="9" onmousedown="handleZoom(evt,'in')"/>
  <use id="zoomminus" xlink:href="#zoomMin" x="42" y="9" onmousedown="handleZoom(evt,'out')"/>
  <use id="reset" xlink:href="#resetDef" x="30" y="36" onmousedown="handleReset()"/>
   <use id="arrowup" xlink:href="#arrowUp" x="0" y="0" onmousedown="handlePan(0,-1)"/>
  <use id="arrowright" xlink:href="#arrowRight" x="0" y="0" onmousedown="handlePan(1,0)"/>
  <use id="arrowdown" xlink:href="#arrowDown" x="0" y="0" onmousedown="handlePan(0,1)"/>
  <use id="arrowleft" xlink:href="#arrowLeft" x="0" y="0" onmousedown="handlePan(-1,0)"/>
</g>
<svg viewBox="0 0 15 15" width="100%" height="30px" preserveAspectRatio="xMaxYMin meet">
 <g id="arrow_out" transform="scale(0.3 0.3)">
  <a xlink:href="status_8h__dep__incl_org.svg" target="_base">
   <rect id="button" ry="5" rx="5" y="6" x="6" height="38" width="38"
        fill="#f2f5e9" fill-opacity="0.5" stroke="#606060" stroke-width="1.0"/>
   <path id="arrow"
     d="M 11.500037,31.436501 C 11.940474,20.09759 22.043105,11.32322 32.158766,21.979434 L 37.068811,17.246167 C 37.068811,17.246167 37.088388,32 37.088388,32 L 22.160133,31.978069 C 22.160133,31.978069 26.997745,27.140456 26.997745,27.140456 C 18.528582,18.264221 13.291696,25.230495 11.500037,31.436501 z"
     style="fill:#404040;"/>
  </a>
 </g>
</svg>

<style type='text/css'>
<![CDATA[
[data-mouse-over-selected='false'] { opacity: 0.7; }
[data-mouse-over-selected='true']  { opacity: 1.0; }
]]>
</style>
<script type="application/ecmascript"><![CDATA[
document.addEventListener('DOMContentLoaded', (event) => {
  highlightEdges();
  highlightAdjacentNodes();
});
]]></script>
</svg>
