<?xml version="1.0" encoding="UTF-8" standalone="no"?>
<!DOCTYPE svg PUBLIC "-//W3C//DTD SVG 1.1//EN"
 "http://www.w3.org/Graphics/SVG/1.1/DTD/svg11.dtd">
<!-- Generated by graphviz version 2.43.0 (0)
 -->
<!-- Title: /home/runner/work/no&#45;OS/no&#45;OS/drivers/platform/stm32/stm32_pwm.h Pages: 1 -->
<svg width="268pt" height="159pt"
 viewBox="0.00 0.00 267.67 159.00" xmlns="http://www.w3.org/2000/svg" xmlns:xlink="http://www.w3.org/1999/xlink">

<svg id="main" version="1.1" xmlns="http://www.w3.org/2000/svg" xmlns:xlink="http://www.w3.org/1999/xlink" xml:space="preserve">

<style type="text/css"><![CDATA[
.node, .edge {opacity: 0.7;}
.node.selected, .edge.selected {opacity: 1;}
.edge:hover path { stroke: red; }
.edge:hover polygon { stroke: red; fill: red; }
]]></style>
<script type="application/ecmascript" xlink:href="svg.min.js"/>
<svg id="graph" class="graph">
<g id="graph0" class="graph" transform="scale(1 1) rotate(0) translate(4 155)">
<title>/home/runner/work/no&#45;OS/no&#45;OS/drivers/platform/stm32/stm32_pwm.h</title>
<!-- Node1 -->
<g id="Node000001" class="node">
<title>Node1</title>
<g id="a_Node000001"><a xlink:title="Header file for stm32 pwm specifics.">
<polygon fill="#999999" stroke="#666666" points="159.17,-151 11.17,-151 11.17,-110 159.17,-110 159.17,-151"/>
<text text-anchor="start" x="19.17" y="-139" font-family="Helvetica,sans-Serif" font-size="10.00">/home/runner/work/no</text>
<text text-anchor="start" x="19.17" y="-128" font-family="Helvetica,sans-Serif" font-size="10.00">&#45;OS/no&#45;OS/drivers/platform</text>
<text text-anchor="middle" x="85.17" y="-117" font-family="Helvetica,sans-Serif" font-size="10.00">/stm32/stm32_pwm.h</text>
</a>
</g>
</g>
<!-- Node2 -->
<g id="Node000002" class="node">
<title>Node2</title>
<g id="a_Node000002"><a xlink:title=" ">
<polygon fill="#e0e0e0" stroke="#999999" points="82.67,-19 29.67,-19 29.67,0 82.67,0 82.67,-19"/>
<text text-anchor="middle" x="56.17" y="-7" font-family="Helvetica,sans-Serif" font-size="10.00">stdint.h</text>
</a>
</g>
</g>
<!-- Node1&#45;&gt;Node2 -->
<g id="edge1_Node000001_Node000002" class="edge">
<title>Node1&#45;&gt;Node2</title>
<g id="a_edge1_Node000001_Node000002"><a xlink:title=" ">
<path fill="none" stroke="#63b8ff" d="M40.34,-109.97C25.79,-101.21 11.31,-89.34 3.17,-74 -6.9,-55.03 12.88,-36.56 31.07,-24.47"/>
<polygon fill="#63b8ff" stroke="#63b8ff" points="33.09,-27.33 39.73,-19.08 29.39,-21.39 33.09,-27.33"/>
</a>
</g>
</g>
<!-- Node3 -->
<g id="Node000003" class="node">
<title>Node3</title>
<g id="a_Node000003"><a xlink:title=" ">
<polygon fill="#e0e0e0" stroke="#999999" points="74.17,-74 12.17,-74 12.17,-55 74.17,-55 74.17,-74"/>
<text text-anchor="middle" x="43.17" y="-62" font-family="Helvetica,sans-Serif" font-size="10.00">stdbool.h</text>
</a>
</g>
</g>
<!-- Node1&#45;&gt;Node3 -->
<g id="edge2_Node000001_Node000003" class="edge">
<title>Node1&#45;&gt;Node3</title>
<g id="a_edge2_Node000001_Node000003"><a xlink:title=" ">
<path fill="none" stroke="#63b8ff" d="M72.34,-109.95C66.66,-101.3 60.04,-91.2 54.54,-82.82"/>
<polygon fill="#63b8ff" stroke="#63b8ff" points="57.33,-80.7 48.92,-74.26 51.48,-84.54 57.33,-80.7"/>
</a>
</g>
</g>
<!-- Node4 -->
<g id="Node000004" class="node">
<title>Node4</title>
<g id="a_Node000004"><a xlink:href="no__os__irq_8h.html" target="_top" xlink:title="Header file of IRQ interface.">
<polygon fill="white" stroke="#666666" points="164.17,-74 92.17,-74 92.17,-55 164.17,-55 164.17,-74"/>
<text text-anchor="middle" x="128.17" y="-62" font-family="Helvetica,sans-Serif" font-size="10.00">no_os_irq.h</text>
</a>
</g>
</g>
<!-- Node1&#45;&gt;Node4 -->
<g id="edge3_Node000001_Node000004" class="edge">
<title>Node1&#45;&gt;Node4</title>
<g id="a_edge3_Node000001_Node000004"><a xlink:title=" ">
<path fill="none" stroke="#63b8ff" d="M98.3,-109.95C104.12,-101.3 110.9,-91.2 116.53,-82.82"/>
<polygon fill="#63b8ff" stroke="#63b8ff" points="119.61,-84.51 122.28,-74.26 113.8,-80.61 119.61,-84.51"/>
</a>
</g>
</g>
<!-- Node5 -->
<g id="Node000005" class="node">
<title>Node5</title>
<g id="a_Node000005"><a xlink:href="stm32__hal_8h.html" target="_top" xlink:title=" ">
<polygon fill="white" stroke="#666666" points="259.67,-74 182.67,-74 182.67,-55 259.67,-55 259.67,-74"/>
<text text-anchor="middle" x="221.17" y="-62" font-family="Helvetica,sans-Serif" font-size="10.00">stm32_hal.h</text>
</a>
</g>
</g>
<!-- Node1&#45;&gt;Node5 -->
<g id="edge5_Node000001_Node000005" class="edge">
<title>Node1&#45;&gt;Node5</title>
<g id="a_edge5_Node000001_Node000005"><a xlink:title=" ">
<path fill="none" stroke="#63b8ff" d="M126.71,-109.95C148.5,-99.7 174.57,-87.43 193.8,-78.38"/>
<polygon fill="#63b8ff" stroke="#63b8ff" points="195.35,-81.52 202.91,-74.09 192.37,-75.18 195.35,-81.52"/>
</a>
</g>
</g>
<!-- Node4&#45;&gt;Node2 -->
<g id="edge4_Node000004_Node000002" class="edge">
<title>Node4&#45;&gt;Node2</title>
<g id="a_edge4_Node000004_Node000002"><a xlink:title=" ">
<path fill="none" stroke="#63b8ff" d="M116.6,-54.98C105.75,-47 89.29,-34.88 76.28,-25.31"/>
<polygon fill="#63b8ff" stroke="#63b8ff" points="78.07,-22.28 67.95,-19.17 73.92,-27.92 78.07,-22.28"/>
</a>
</g>
</g>
<!-- Node6 -->
<g id="Node000006" class="node">
<title>Node6</title>
<g id="a_Node000006"><a xlink:title=" ">
<polygon fill="#e0e0e0" stroke="#999999" points="246.17,-19 196.17,-19 196.17,0 246.17,0 246.17,-19"/>
<text text-anchor="middle" x="221.17" y="-7" font-family="Helvetica,sans-Serif" font-size="10.00">main.h</text>
</a>
</g>
</g>
<!-- Node5&#45;&gt;Node6 -->
<g id="edge6_Node000005_Node000006" class="edge">
<title>Node5&#45;&gt;Node6</title>
<g id="a_edge6_Node000005_Node000006"><a xlink:title=" ">
<path fill="none" stroke="#63b8ff" d="M221.17,-54.75C221.17,-47.8 221.17,-37.85 221.17,-29.13"/>
<polygon fill="#63b8ff" stroke="#63b8ff" points="224.67,-29.09 221.17,-19.09 217.67,-29.09 224.67,-29.09"/>
</a>
</g>
</g>
</g>
</svg>
</svg>

<style type='text/css'>
<![CDATA[
[data-mouse-over-selected='false'] { opacity: 0.7; }
[data-mouse-over-selected='true']  { opacity: 1.0; }
]]>
</style>
<script type="application/ecmascript"><![CDATA[
document.addEventListener('DOMContentLoaded', (event) => {
  highlightEdges();
  highlightAdjacentNodes();
});
]]></script>
</svg>
