<?xml version="1.0" encoding="UTF-8" standalone="no"?>
<!DOCTYPE svg PUBLIC "-//W3C//DTD SVG 1.1//EN"
 "http://www.w3.org/Graphics/SVG/1.1/DTD/svg11.dtd">
<!-- Generated by graphviz version 2.43.0 (0)
 -->
<!-- Title: /home/runner/work/no&#45;OS/no&#45;OS/drivers/platform/stm32/stm32_timer.c Pages: 1 -->
<svg width="498pt" height="214pt"
 viewBox="0.00 0.00 498.00 214.00" xmlns="http://www.w3.org/2000/svg" xmlns:xlink="http://www.w3.org/1999/xlink">
<g id="graph0" class="graph" transform="scale(1 1) rotate(0) translate(4 210)">
<title>/home/runner/work/no&#45;OS/no&#45;OS/drivers/platform/stm32/stm32_timer.c</title>
<!-- Node1 -->
<g id="Node000001" class="node">
<title>Node1</title>
<g id="a_Node000001"><a xlink:title="Implementation of stm32 timer driver.">
<polygon fill="#999999" stroke="#666666" points="281.5,-206 133.5,-206 133.5,-165 281.5,-165 281.5,-206"/>
<text text-anchor="start" x="141.5" y="-194" font-family="Helvetica,sans-Serif" font-size="10.00">/home/runner/work/no</text>
<text text-anchor="start" x="141.5" y="-183" font-family="Helvetica,sans-Serif" font-size="10.00">&#45;OS/no&#45;OS/drivers/platform</text>
<text text-anchor="middle" x="207.5" y="-172" font-family="Helvetica,sans-Serif" font-size="10.00">/stm32/stm32_timer.c</text>
</a>
</g>
</g>
<!-- Node2 -->
<g id="Node000002" class="node">
<title>Node2</title>
<g id="a_Node000002"><a xlink:title=" ">
<polygon fill="#e0e0e0" stroke="#999999" points="184,-74 131,-74 131,-55 184,-55 184,-74"/>
<text text-anchor="middle" x="157.5" y="-62" font-family="Helvetica,sans-Serif" font-size="10.00">stdlib.h</text>
</a>
</g>
</g>
<!-- Node1&#45;&gt;Node2 -->
<g id="edge1_Node000001_Node000002" class="edge">
<title>Node1&#45;&gt;Node2</title>
<g id="a_edge1_Node000001_Node000002"><a xlink:title=" ">
<path fill="none" stroke="#63b8ff" d="M199.24,-164.85C189.76,-142.27 174.32,-105.52 165.11,-83.61"/>
<polygon fill="#63b8ff" stroke="#63b8ff" points="168.25,-82.04 161.14,-74.18 161.79,-84.75 168.25,-82.04"/>
</a>
</g>
</g>
<!-- Node3 -->
<g id="Node000003" class="node">
<title>Node3</title>
<g id="a_Node000003"><a xlink:href="errno_8h.html" target="_top" xlink:title="Error macro definition for ARM Compiler.">
<polygon fill="white" stroke="#666666" points="144,-129 93,-129 93,-110 144,-110 144,-129"/>
<text text-anchor="middle" x="118.5" y="-117" font-family="Helvetica,sans-Serif" font-size="10.00">errno.h</text>
</a>
</g>
</g>
<!-- Node1&#45;&gt;Node3 -->
<g id="edge2_Node000001_Node000003" class="edge">
<title>Node1&#45;&gt;Node3</title>
<g id="a_edge2_Node000001_Node000003"><a xlink:title=" ">
<path fill="none" stroke="#63b8ff" d="M180.31,-164.95C166.99,-155.37 151.2,-144.02 138.92,-135.19"/>
<polygon fill="#63b8ff" stroke="#63b8ff" points="140.84,-132.26 130.68,-129.26 136.76,-137.94 140.84,-132.26"/>
</a>
</g>
</g>
<!-- Node4 -->
<g id="Node000004" class="node">
<title>Node4</title>
<g id="a_Node000004"><a xlink:href="no__os__util_8h.html" target="_top" xlink:title="Header file of utility functions.">
<polygon fill="white" stroke="#666666" points="75,-129 0,-129 0,-110 75,-110 75,-129"/>
<text text-anchor="middle" x="37.5" y="-117" font-family="Helvetica,sans-Serif" font-size="10.00">no_os_util.h</text>
</a>
</g>
</g>
<!-- Node1&#45;&gt;Node4 -->
<g id="edge3_Node000001_Node000004" class="edge">
<title>Node1&#45;&gt;Node4</title>
<g id="a_edge3_Node000001_Node000004"><a xlink:title=" ">
<path fill="none" stroke="#63b8ff" d="M155.57,-164.95C127.59,-154.42 93.95,-141.75 69.75,-132.64"/>
<polygon fill="#63b8ff" stroke="#63b8ff" points="70.91,-129.34 60.32,-129.09 68.45,-135.89 70.91,-129.34"/>
</a>
</g>
</g>
<!-- Node7 -->
<g id="Node000007" class="node">
<title>Node7</title>
<g id="a_Node000007"><a xlink:href="no__os__timer_8h.html" target="_top" xlink:title="Timer control module header.">
<polygon fill="white" stroke="#666666" points="356,-74 271,-74 271,-55 356,-55 356,-74"/>
<text text-anchor="middle" x="313.5" y="-62" font-family="Helvetica,sans-Serif" font-size="10.00">no_os_timer.h</text>
</a>
</g>
</g>
<!-- Node1&#45;&gt;Node7 -->
<g id="edge7_Node000001_Node000007" class="edge">
<title>Node1&#45;&gt;Node7</title>
<g id="a_edge7_Node000001_Node000007"><a xlink:title=" ">
<path fill="none" stroke="#63b8ff" d="M250.16,-164.84C265.69,-155.84 282.19,-143.84 293.5,-129 303.46,-115.93 308.53,-97.79 311.06,-84.24"/>
<polygon fill="#63b8ff" stroke="#63b8ff" points="314.55,-84.58 312.65,-74.16 307.64,-83.49 314.55,-84.58"/>
</a>
</g>
</g>
<!-- Node8 -->
<g id="Node000008" class="node">
<title>Node8</title>
<g id="a_Node000008"><a xlink:href="no__os__alloc_8h.html" target="_top" xlink:title=" ">
<polygon fill="white" stroke="#666666" points="284,-129 201,-129 201,-110 284,-110 284,-129"/>
<text text-anchor="middle" x="242.5" y="-117" font-family="Helvetica,sans-Serif" font-size="10.00">no_os_alloc.h</text>
</a>
</g>
</g>
<!-- Node1&#45;&gt;Node8 -->
<g id="edge9_Node000001_Node000008" class="edge">
<title>Node1&#45;&gt;Node8</title>
<g id="a_edge9_Node000001_Node000008"><a xlink:title=" ">
<path fill="none" stroke="#63b8ff" d="M218.19,-164.95C222.87,-156.39 228.32,-146.42 232.88,-138.1"/>
<polygon fill="#63b8ff" stroke="#63b8ff" points="235.98,-139.71 237.71,-129.26 229.84,-136.35 235.98,-139.71"/>
</a>
</g>
</g>
<!-- Node10 -->
<g id="Node000010" class="node">
<title>Node10</title>
<g id="a_Node000010"><a xlink:href="stm32__timer_8h.html" target="_top" xlink:title="Header file for the stm32 timer driver.">
<polygon fill="white" stroke="#666666" points="428,-129 341,-129 341,-110 428,-110 428,-129"/>
<text text-anchor="middle" x="384.5" y="-117" font-family="Helvetica,sans-Serif" font-size="10.00">stm32_timer.h</text>
</a>
</g>
</g>
<!-- Node1&#45;&gt;Node10 -->
<g id="edge12_Node000001_Node000010" class="edge">
<title>Node1&#45;&gt;Node10</title>
<g id="a_edge12_Node000001_Node000010"><a xlink:title=" ">
<path fill="none" stroke="#63b8ff" d="M261.57,-164.95C290.83,-154.37 326.03,-141.64 351.26,-132.52"/>
<polygon fill="#63b8ff" stroke="#63b8ff" points="352.52,-135.78 360.74,-129.09 350.14,-129.2 352.52,-135.78"/>
</a>
</g>
</g>
<!-- Node4&#45;&gt;Node2 -->
<g id="edge5_Node000004_Node000002" class="edge">
<title>Node4&#45;&gt;Node2</title>
<g id="a_edge5_Node000004_Node000002"><a xlink:title=" ">
<path fill="none" stroke="#63b8ff" d="M56.78,-109.98C76.17,-101.42 106.31,-88.11 128.57,-78.28"/>
<polygon fill="#63b8ff" stroke="#63b8ff" points="130.14,-81.41 137.87,-74.17 127.31,-75.01 130.14,-81.41"/>
</a>
</g>
</g>
<!-- Node5 -->
<g id="Node000005" class="node">
<title>Node5</title>
<g id="a_Node000005"><a xlink:title=" ">
<polygon fill="#e0e0e0" stroke="#999999" points="340,-19 287,-19 287,0 340,0 340,-19"/>
<text text-anchor="middle" x="313.5" y="-7" font-family="Helvetica,sans-Serif" font-size="10.00">stdint.h</text>
</a>
</g>
</g>
<!-- Node4&#45;&gt;Node5 -->
<g id="edge4_Node000004_Node000005" class="edge">
<title>Node4&#45;&gt;Node5</title>
<g id="a_edge4_Node000004_Node000005"><a xlink:title=" ">
<path fill="none" stroke="#63b8ff" d="M46.47,-109.64C60.97,-95.82 91.03,-69.25 121.5,-55 172.43,-31.18 237.08,-19.6 276.86,-14.37"/>
<polygon fill="#63b8ff" stroke="#63b8ff" points="277.41,-17.83 286.9,-13.11 276.54,-10.88 277.41,-17.83"/>
</a>
</g>
</g>
<!-- Node6 -->
<g id="Node000006" class="node">
<title>Node6</title>
<g id="a_Node000006"><a xlink:title=" ">
<polygon fill="#e0e0e0" stroke="#999999" points="68.5,-74 6.5,-74 6.5,-55 68.5,-55 68.5,-74"/>
<text text-anchor="middle" x="37.5" y="-62" font-family="Helvetica,sans-Serif" font-size="10.00">stdbool.h</text>
</a>
</g>
</g>
<!-- Node4&#45;&gt;Node6 -->
<g id="edge6_Node000004_Node000006" class="edge">
<title>Node4&#45;&gt;Node6</title>
<g id="a_edge6_Node000004_Node000006"><a xlink:title=" ">
<path fill="none" stroke="#63b8ff" d="M37.5,-109.75C37.5,-102.8 37.5,-92.85 37.5,-84.13"/>
<polygon fill="#63b8ff" stroke="#63b8ff" points="41,-84.09 37.5,-74.09 34,-84.09 41,-84.09"/>
</a>
</g>
</g>
<!-- Node7&#45;&gt;Node5 -->
<g id="edge8_Node000007_Node000005" class="edge">
<title>Node7&#45;&gt;Node5</title>
<g id="a_edge8_Node000007_Node000005"><a xlink:title=" ">
<path fill="none" stroke="#63b8ff" d="M313.5,-54.75C313.5,-47.8 313.5,-37.85 313.5,-29.13"/>
<polygon fill="#63b8ff" stroke="#63b8ff" points="317,-29.09 313.5,-19.09 310,-29.09 317,-29.09"/>
</a>
</g>
</g>
<!-- Node8&#45;&gt;Node2 -->
<g id="edge11_Node000008_Node000002" class="edge">
<title>Node8&#45;&gt;Node2</title>
<g id="a_edge11_Node000008_Node000002"><a xlink:title=" ">
<path fill="none" stroke="#63b8ff" d="M228.84,-109.98C215.66,-101.77 195.47,-89.18 179.93,-79.49"/>
<polygon fill="#63b8ff" stroke="#63b8ff" points="181.74,-76.49 171.41,-74.17 178.04,-82.43 181.74,-76.49"/>
</a>
</g>
</g>
<!-- Node9 -->
<g id="Node000009" class="node">
<title>Node9</title>
<g id="a_Node000009"><a xlink:title=" ">
<polygon fill="#e0e0e0" stroke="#999999" points="252.5,-74 202.5,-74 202.5,-55 252.5,-55 252.5,-74"/>
<text text-anchor="middle" x="227.5" y="-62" font-family="Helvetica,sans-Serif" font-size="10.00">stdio.h</text>
</a>
</g>
</g>
<!-- Node8&#45;&gt;Node9 -->
<g id="edge10_Node000008_Node000009" class="edge">
<title>Node8&#45;&gt;Node9</title>
<g id="a_edge10_Node000008_Node000009"><a xlink:title=" ">
<path fill="none" stroke="#63b8ff" d="M240.02,-109.75C238.04,-102.72 235.18,-92.62 232.69,-83.84"/>
<polygon fill="#63b8ff" stroke="#63b8ff" points="236.02,-82.76 229.93,-74.09 229.29,-84.66 236.02,-82.76"/>
</a>
</g>
</g>
<!-- Node10&#45;&gt;Node5 -->
<g id="edge13_Node000010_Node000005" class="edge">
<title>Node10&#45;&gt;Node5</title>
<g id="a_edge13_Node000010_Node000005"><a xlink:title=" ">
<path fill="none" stroke="#63b8ff" d="M383.46,-109.62C381.6,-96.7 376.8,-72.36 365.5,-55 357.8,-43.17 346.06,-32.74 335.68,-24.96"/>
<polygon fill="#63b8ff" stroke="#63b8ff" points="337.57,-22.01 327.4,-19.07 333.52,-27.72 337.57,-22.01"/>
</a>
</g>
</g>
<!-- Node10&#45;&gt;Node7 -->
<g id="edge14_Node000010_Node000007" class="edge">
<title>Node10&#45;&gt;Node7</title>
<g id="a_edge14_Node000010_Node000007"><a xlink:title=" ">
<path fill="none" stroke="#63b8ff" d="M373.09,-109.98C362.39,-102 346.16,-89.88 333.34,-80.31"/>
<polygon fill="#63b8ff" stroke="#63b8ff" points="335.22,-77.35 325.11,-74.17 331.03,-82.96 335.22,-77.35"/>
</a>
</g>
</g>
<!-- Node11 -->
<g id="Node000011" class="node">
<title>Node11</title>
<g id="a_Node000011"><a xlink:href="stm32__hal_8h.html" target="_top" xlink:title=" ">
<polygon fill="white" stroke="#666666" points="490,-74 413,-74 413,-55 490,-55 490,-74"/>
<text text-anchor="middle" x="451.5" y="-62" font-family="Helvetica,sans-Serif" font-size="10.00">stm32_hal.h</text>
</a>
</g>
</g>
<!-- Node10&#45;&gt;Node11 -->
<g id="edge15_Node000010_Node000011" class="edge">
<title>Node10&#45;&gt;Node11</title>
<g id="a_edge15_Node000010_Node000011"><a xlink:title=" ">
<path fill="none" stroke="#63b8ff" d="M395.26,-109.98C405.27,-102.07 420.39,-90.11 432.43,-80.58"/>
<polygon fill="#63b8ff" stroke="#63b8ff" points="434.87,-83.12 440.54,-74.17 430.53,-77.63 434.87,-83.12"/>
</a>
</g>
</g>
<!-- Node12 -->
<g id="Node000012" class="node">
<title>Node12</title>
<g id="a_Node000012"><a xlink:title=" ">
<polygon fill="#e0e0e0" stroke="#999999" points="476.5,-19 426.5,-19 426.5,0 476.5,0 476.5,-19"/>
<text text-anchor="middle" x="451.5" y="-7" font-family="Helvetica,sans-Serif" font-size="10.00">main.h</text>
</a>
</g>
</g>
<!-- Node11&#45;&gt;Node12 -->
<g id="edge16_Node000011_Node000012" class="edge">
<title>Node11&#45;&gt;Node12</title>
<g id="a_edge16_Node000011_Node000012"><a xlink:title=" ">
<path fill="none" stroke="#63b8ff" d="M451.5,-54.75C451.5,-47.8 451.5,-37.85 451.5,-29.13"/>
<polygon fill="#63b8ff" stroke="#63b8ff" points="455,-29.09 451.5,-19.09 448,-29.09 455,-29.09"/>
</a>
</g>
</g>
</g>
</svg>
