<?xml version="1.0" encoding="UTF-8" standalone="no"?>
<!DOCTYPE svg PUBLIC "-//W3C//DTD SVG 1.1//EN"
 "http://www.w3.org/Graphics/SVG/1.1/DTD/svg11.dtd">
<!-- Generated by graphviz version 2.43.0 (0)
 -->
<!-- Title: /home/runner/work/no&#45;OS/no&#45;OS/drivers/platform/stm32/stm32_tdm.c Pages: 1 -->
<svg width="793pt" height="214pt"
 viewBox="0.00 0.00 792.50 214.00" xmlns="http://www.w3.org/2000/svg" xmlns:xlink="http://www.w3.org/1999/xlink">
<g id="graph0" class="graph" transform="scale(1 1) rotate(0) translate(4 210)">
<title>/home/runner/work/no&#45;OS/no&#45;OS/drivers/platform/stm32/stm32_tdm.c</title>
<!-- Node1 -->
<g id="Node000001" class="node">
<title>Node1</title>
<g id="a_Node000001"><a xlink:title="Implementation of TDM driver using STM32&#39;s SAI peripheral.">
<polygon fill="#999999" stroke="#666666" points="421,-206 273,-206 273,-165 421,-165 421,-206"/>
<text text-anchor="start" x="281" y="-194" font-family="Helvetica,sans-Serif" font-size="10.00">/home/runner/work/no</text>
<text text-anchor="start" x="281" y="-183" font-family="Helvetica,sans-Serif" font-size="10.00">&#45;OS/no&#45;OS/drivers/platform</text>
<text text-anchor="middle" x="347" y="-172" font-family="Helvetica,sans-Serif" font-size="10.00">/stm32/stm32_tdm.c</text>
</a>
</g>
</g>
<!-- Node2 -->
<g id="Node000002" class="node">
<title>Node2</title>
<g id="a_Node000002"><a xlink:title=" ">
<polygon fill="#e0e0e0" stroke="#999999" points="713.5,-74 660.5,-74 660.5,-55 713.5,-55 713.5,-74"/>
<text text-anchor="middle" x="687" y="-62" font-family="Helvetica,sans-Serif" font-size="10.00">stdlib.h</text>
</a>
</g>
</g>
<!-- Node1&#45;&gt;Node2 -->
<g id="edge1_Node000001_Node000002" class="edge">
<title>Node1&#45;&gt;Node2</title>
<g id="a_edge1_Node000001_Node000002"><a xlink:title=" ">
<path fill="none" stroke="#63b8ff" d="M421.09,-178.6C499.83,-171.04 617.87,-155.63 654,-129 668.82,-118.07 677.54,-98.51 682.26,-83.98"/>
<polygon fill="#63b8ff" stroke="#63b8ff" points="685.71,-84.65 685.12,-74.07 678.98,-82.71 685.71,-84.65"/>
</a>
</g>
</g>
<!-- Node3 -->
<g id="Node000003" class="node">
<title>Node3</title>
<g id="a_Node000003"><a xlink:href="errno_8h.html" target="_top" xlink:title="Error macro definition for ARM Compiler.">
<polygon fill="white" stroke="#666666" points="68.5,-74 17.5,-74 17.5,-55 68.5,-55 68.5,-74"/>
<text text-anchor="middle" x="43" y="-62" font-family="Helvetica,sans-Serif" font-size="10.00">errno.h</text>
</a>
</g>
</g>
<!-- Node1&#45;&gt;Node3 -->
<g id="edge2_Node000001_Node000003" class="edge">
<title>Node1&#45;&gt;Node3</title>
<g id="a_edge2_Node000001_Node000003"><a xlink:title=" ">
<path fill="none" stroke="#63b8ff" d="M275.03,-164.99C242.25,-155.36 203.21,-142.84 169,-129 132.35,-114.17 91.84,-92.8 66.9,-79.03"/>
<polygon fill="#63b8ff" stroke="#63b8ff" points="68.58,-75.96 58.14,-74.16 65.17,-82.08 68.58,-75.96"/>
</a>
</g>
</g>
<!-- Node4 -->
<g id="Node000004" class="node">
<title>Node4</title>
<g id="a_Node000004"><a xlink:href="no__os__gpio_8h.html" target="_top" xlink:title="Header file of GPIO Interface.">
<polygon fill="white" stroke="#666666" points="168,-74 88,-74 88,-55 168,-55 168,-74"/>
<text text-anchor="middle" x="128" y="-62" font-family="Helvetica,sans-Serif" font-size="10.00">no_os_gpio.h</text>
</a>
</g>
</g>
<!-- Node1&#45;&gt;Node4 -->
<g id="edge3_Node000001_Node000004" class="edge">
<title>Node1&#45;&gt;Node4</title>
<g id="a_edge3_Node000001_Node000004"><a xlink:title=" ">
<path fill="none" stroke="#63b8ff" d="M277.2,-164.98C251.01,-156.06 221.63,-144.07 197,-129 175.64,-115.93 155.04,-95.64 142,-81.53"/>
<polygon fill="#63b8ff" stroke="#63b8ff" points="144.54,-79.12 135.24,-74.03 139.34,-83.8 144.54,-79.12"/>
</a>
</g>
</g>
<!-- Node6 -->
<g id="Node000006" class="node">
<title>Node6</title>
<g id="a_Node000006"><a xlink:href="stm32__gpio_8h.html" target="_top" xlink:title="Header file for stm32 gpio specifics.">
<polygon fill="white" stroke="#666666" points="488.5,-129 405.5,-129 405.5,-110 488.5,-110 488.5,-129"/>
<text text-anchor="middle" x="447" y="-117" font-family="Helvetica,sans-Serif" font-size="10.00">stm32_gpio.h</text>
</a>
</g>
</g>
<!-- Node1&#45;&gt;Node6 -->
<g id="edge5_Node000001_Node000006" class="edge">
<title>Node1&#45;&gt;Node6</title>
<g id="a_edge5_Node000001_Node000006"><a xlink:title=" ">
<path fill="none" stroke="#63b8ff" d="M377.55,-164.95C392.91,-155.12 411.17,-143.43 425.11,-134.51"/>
<polygon fill="#63b8ff" stroke="#63b8ff" points="427.04,-137.43 433.58,-129.09 423.27,-131.53 427.04,-137.43"/>
</a>
</g>
</g>
<!-- Node10 -->
<g id="Node000010" class="node">
<title>Node10</title>
<g id="a_Node000010"><a xlink:href="no__os__tdm_8h.html" target="_top" xlink:title="Header file of TDM Interface.">
<polygon fill="white" stroke="#666666" points="527.5,-74 448.5,-74 448.5,-55 527.5,-55 527.5,-74"/>
<text text-anchor="middle" x="488" y="-62" font-family="Helvetica,sans-Serif" font-size="10.00">no_os_tdm.h</text>
</a>
</g>
</g>
<!-- Node1&#45;&gt;Node10 -->
<g id="edge10_Node000001_Node000010" class="edge">
<title>Node1&#45;&gt;Node10</title>
<g id="a_edge10_Node000001_Node000010"><a xlink:title=" ">
<path fill="none" stroke="#63b8ff" d="M421.16,-175.52C450.07,-167.98 480.42,-154.19 498,-129 507.26,-115.73 502.82,-97.11 497.23,-83.47"/>
<polygon fill="#63b8ff" stroke="#63b8ff" points="500.31,-81.79 492.94,-74.17 493.95,-84.72 500.31,-81.79"/>
</a>
</g>
</g>
<!-- Node11 -->
<g id="Node000011" class="node">
<title>Node11</title>
<g id="a_Node000011"><a xlink:href="stm32__tdm_8h.html" target="_top" xlink:title="Header file for the stm32 tdm driver.">
<polygon fill="white" stroke="#666666" points="387.5,-129 306.5,-129 306.5,-110 387.5,-110 387.5,-129"/>
<text text-anchor="middle" x="347" y="-117" font-family="Helvetica,sans-Serif" font-size="10.00">stm32_tdm.h</text>
</a>
</g>
</g>
<!-- Node1&#45;&gt;Node11 -->
<g id="edge13_Node000001_Node000011" class="edge">
<title>Node1&#45;&gt;Node11</title>
<g id="a_edge13_Node000001_Node000011"><a xlink:title=" ">
<path fill="none" stroke="#63b8ff" d="M347,-164.95C347,-156.85 347,-147.5 347,-139.47"/>
<polygon fill="#63b8ff" stroke="#63b8ff" points="350.5,-139.26 347,-129.26 343.5,-139.26 350.5,-139.26"/>
</a>
</g>
</g>
<!-- Node12 -->
<g id="Node000012" class="node">
<title>Node12</title>
<g id="a_Node000012"><a xlink:href="no__os__irq_8h.html" target="_top" xlink:title="Header file of IRQ interface.">
<polygon fill="white" stroke="#666666" points="258,-74 186,-74 186,-55 258,-55 258,-74"/>
<text text-anchor="middle" x="222" y="-62" font-family="Helvetica,sans-Serif" font-size="10.00">no_os_irq.h</text>
</a>
</g>
</g>
<!-- Node1&#45;&gt;Node12 -->
<g id="edge24_Node000001_Node000012" class="edge">
<title>Node1&#45;&gt;Node12</title>
<g id="a_edge24_Node000001_Node000012"><a xlink:title=" ">
<path fill="none" stroke="#63b8ff" d="M272.68,-173.08C246.87,-165.16 220.52,-151.73 205,-129 195.57,-115.2 202.5,-96.4 210.15,-82.85"/>
<polygon fill="#63b8ff" stroke="#63b8ff" points="213.31,-84.39 215.62,-74.05 207.37,-80.69 213.31,-84.39"/>
</a>
</g>
</g>
<!-- Node13 -->
<g id="Node000013" class="node">
<title>Node13</title>
<g id="a_Node000013"><a xlink:href="no__os__error_8h.html" target="_top" xlink:title="Error codes definition.">
<polygon fill="white" stroke="#666666" points="82,-129 0,-129 0,-110 82,-110 82,-129"/>
<text text-anchor="middle" x="41" y="-117" font-family="Helvetica,sans-Serif" font-size="10.00">no_os_error.h</text>
</a>
</g>
</g>
<!-- Node1&#45;&gt;Node13 -->
<g id="edge19_Node000001_Node000013" class="edge">
<title>Node1&#45;&gt;Node13</title>
<g id="a_edge19_Node000001_Node000013"><a xlink:title=" ">
<path fill="none" stroke="#63b8ff" d="M272.93,-169.01C216.83,-157.27 141.24,-141.47 91.83,-131.13"/>
<polygon fill="#63b8ff" stroke="#63b8ff" points="92.51,-127.7 82.01,-129.08 91.08,-134.55 92.51,-127.7"/>
</a>
</g>
</g>
<!-- Node14 -->
<g id="Node000014" class="node">
<title>Node14</title>
<g id="a_Node000014"><a xlink:href="no__os__alloc_8h.html" target="_top" xlink:title=" ">
<polygon fill="white" stroke="#666666" points="784.5,-129 701.5,-129 701.5,-110 784.5,-110 784.5,-129"/>
<text text-anchor="middle" x="743" y="-117" font-family="Helvetica,sans-Serif" font-size="10.00">no_os_alloc.h</text>
</a>
</g>
</g>
<!-- Node1&#45;&gt;Node14 -->
<g id="edge21_Node000001_Node000014" class="edge">
<title>Node1&#45;&gt;Node14</title>
<g id="a_edge21_Node000001_Node000014"><a xlink:title=" ">
<path fill="none" stroke="#63b8ff" d="M421.02,-172.54C499.7,-159.82 622.08,-140.04 691.09,-128.89"/>
<polygon fill="#63b8ff" stroke="#63b8ff" points="691.97,-132.29 701.28,-127.24 690.85,-125.38 691.97,-132.29"/>
</a>
</g>
</g>
<!-- Node16 -->
<g id="Node000016" class="node">
<title>Node16</title>
<g id="a_Node000016"><a xlink:href="stm32__irq_8h.html" target="_top" xlink:title="Header file for stm32 irq specifics.">
<polygon fill="white" stroke="#666666" points="288,-129 214,-129 214,-110 288,-110 288,-129"/>
<text text-anchor="middle" x="251" y="-117" font-family="Helvetica,sans-Serif" font-size="10.00">stm32_irq.h</text>
</a>
</g>
</g>
<!-- Node1&#45;&gt;Node16 -->
<g id="edge25_Node000001_Node000016" class="edge">
<title>Node1&#45;&gt;Node16</title>
<g id="a_edge25_Node000001_Node000016"><a xlink:title=" ">
<path fill="none" stroke="#63b8ff" d="M317.68,-164.95C303.07,-155.21 285.73,-143.65 272.4,-134.76"/>
<polygon fill="#63b8ff" stroke="#63b8ff" points="274.15,-131.73 263.89,-129.09 270.27,-137.55 274.15,-131.73"/>
</a>
</g>
</g>
<!-- Node17 -->
<g id="Node000017" class="node">
<title>Node17</title>
<g id="a_Node000017"><a xlink:href="no__os__lf256fifo_8h.html" target="_top" xlink:title="SPSC lock&#45;free fifo of fixed size (256), specialized for UART.">
<polygon fill="white" stroke="#666666" points="645,-129 545,-129 545,-110 645,-110 645,-129"/>
<text text-anchor="middle" x="595" y="-117" font-family="Helvetica,sans-Serif" font-size="10.00">no_os_lf256fifo.h</text>
</a>
</g>
</g>
<!-- Node1&#45;&gt;Node17 -->
<g id="edge28_Node000001_Node000017" class="edge">
<title>Node1&#45;&gt;Node17</title>
<g id="a_edge28_Node000001_Node000017"><a xlink:title=" ">
<path fill="none" stroke="#63b8ff" d="M421.07,-165.38C463.86,-154.34 516.18,-140.84 552.19,-131.55"/>
<polygon fill="#63b8ff" stroke="#63b8ff" points="553.09,-134.93 561.9,-129.04 551.34,-128.15 553.09,-134.93"/>
</a>
</g>
</g>
<!-- Node5 -->
<g id="Node000005" class="node">
<title>Node5</title>
<g id="a_Node000005"><a xlink:title=" ">
<polygon fill="#e0e0e0" stroke="#999999" points="429.5,-19 376.5,-19 376.5,0 429.5,0 429.5,-19"/>
<text text-anchor="middle" x="403" y="-7" font-family="Helvetica,sans-Serif" font-size="10.00">stdint.h</text>
</a>
</g>
</g>
<!-- Node4&#45;&gt;Node5 -->
<g id="edge4_Node000004_Node000005" class="edge">
<title>Node4&#45;&gt;Node5</title>
<g id="a_edge4_Node000004_Node000005"><a xlink:title=" ">
<path fill="none" stroke="#63b8ff" d="M168.28,-55.74C221.6,-45.46 314.84,-27.49 366.3,-17.57"/>
<polygon fill="#63b8ff" stroke="#63b8ff" points="367.15,-20.97 376.31,-15.64 365.83,-14.1 367.15,-20.97"/>
</a>
</g>
</g>
<!-- Node6&#45;&gt;Node5 -->
<g id="edge6_Node000006_Node000005" class="edge">
<title>Node6&#45;&gt;Node5</title>
<g id="a_edge6_Node000006_Node000005"><a xlink:title=" ">
<path fill="none" stroke="#63b8ff" d="M443.4,-109.66C436.21,-92.01 419.94,-52.09 410.39,-28.64"/>
<polygon fill="#63b8ff" stroke="#63b8ff" points="413.54,-27.1 406.53,-19.16 407.06,-29.74 413.54,-27.1"/>
</a>
</g>
</g>
<!-- Node7 -->
<g id="Node000007" class="node">
<title>Node7</title>
<g id="a_Node000007"><a xlink:title=" ">
<polygon fill="#e0e0e0" stroke="#999999" points="587,-19 525,-19 525,0 587,0 587,-19"/>
<text text-anchor="middle" x="556" y="-7" font-family="Helvetica,sans-Serif" font-size="10.00">stdbool.h</text>
</a>
</g>
</g>
<!-- Node6&#45;&gt;Node7 -->
<g id="edge7_Node000006_Node000007" class="edge">
<title>Node6&#45;&gt;Node7</title>
<g id="a_edge7_Node000006_Node000007"><a xlink:title=" ">
<path fill="none" stroke="#63b8ff" d="M478.57,-109.97C497.98,-103.2 521.93,-91.85 537,-74 547.56,-61.5 552.25,-43.29 554.33,-29.58"/>
<polygon fill="#63b8ff" stroke="#63b8ff" points="557.84,-29.68 555.54,-19.34 550.89,-28.86 557.84,-29.68"/>
</a>
</g>
</g>
<!-- Node8 -->
<g id="Node000008" class="node">
<title>Node8</title>
<g id="a_Node000008"><a xlink:href="stm32__hal_8h.html" target="_top" xlink:title=" ">
<polygon fill="white" stroke="#666666" points="353.5,-74 276.5,-74 276.5,-55 353.5,-55 353.5,-74"/>
<text text-anchor="middle" x="315" y="-62" font-family="Helvetica,sans-Serif" font-size="10.00">stm32_hal.h</text>
</a>
</g>
</g>
<!-- Node6&#45;&gt;Node8 -->
<g id="edge8_Node000006_Node000008" class="edge">
<title>Node6&#45;&gt;Node8</title>
<g id="a_edge8_Node000006_Node000008"><a xlink:title=" ">
<path fill="none" stroke="#63b8ff" d="M425.79,-109.98C404.27,-101.34 370.72,-87.87 346.17,-78.02"/>
<polygon fill="#63b8ff" stroke="#63b8ff" points="347.18,-74.65 336.59,-74.17 344.57,-81.14 347.18,-74.65"/>
</a>
</g>
</g>
<!-- Node9 -->
<g id="Node000009" class="node">
<title>Node9</title>
<g id="a_Node000009"><a xlink:title=" ">
<polygon fill="#e0e0e0" stroke="#999999" points="340,-19 290,-19 290,0 340,0 340,-19"/>
<text text-anchor="middle" x="315" y="-7" font-family="Helvetica,sans-Serif" font-size="10.00">main.h</text>
</a>
</g>
</g>
<!-- Node8&#45;&gt;Node9 -->
<g id="edge9_Node000008_Node000009" class="edge">
<title>Node8&#45;&gt;Node9</title>
<g id="a_edge9_Node000008_Node000009"><a xlink:title=" ">
<path fill="none" stroke="#63b8ff" d="M315,-54.75C315,-47.8 315,-37.85 315,-29.13"/>
<polygon fill="#63b8ff" stroke="#63b8ff" points="318.5,-29.09 315,-19.09 311.5,-29.09 318.5,-29.09"/>
</a>
</g>
</g>
<!-- Node10&#45;&gt;Node5 -->
<g id="edge11_Node000010_Node000005" class="edge">
<title>Node10&#45;&gt;Node5</title>
<g id="a_edge11_Node000010_Node000005"><a xlink:title=" ">
<path fill="none" stroke="#63b8ff" d="M474.34,-54.98C461.16,-46.77 440.97,-34.18 425.43,-24.49"/>
<polygon fill="#63b8ff" stroke="#63b8ff" points="427.24,-21.49 416.91,-19.17 423.54,-27.43 427.24,-21.49"/>
</a>
</g>
</g>
<!-- Node10&#45;&gt;Node7 -->
<g id="edge12_Node000010_Node000007" class="edge">
<title>Node10&#45;&gt;Node7</title>
<g id="a_edge12_Node000010_Node000007"><a xlink:title=" ">
<path fill="none" stroke="#63b8ff" d="M498.93,-54.98C509.08,-47.07 524.42,-35.11 536.65,-25.58"/>
<polygon fill="#63b8ff" stroke="#63b8ff" points="539.14,-28.08 544.88,-19.17 534.84,-22.56 539.14,-28.08"/>
</a>
</g>
</g>
<!-- Node11&#45;&gt;Node5 -->
<g id="edge14_Node000011_Node000005" class="edge">
<title>Node11&#45;&gt;Node5</title>
<g id="a_edge14_Node000011_Node000005"><a xlink:title=" ">
<path fill="none" stroke="#63b8ff" d="M351.58,-109.66C360.78,-91.93 381.62,-51.73 393.76,-28.32"/>
<polygon fill="#63b8ff" stroke="#63b8ff" points="397.01,-29.65 398.51,-19.16 390.8,-26.42 397.01,-29.65"/>
</a>
</g>
</g>
<!-- Node11&#45;&gt;Node8 -->
<g id="edge16_Node000011_Node000008" class="edge">
<title>Node11&#45;&gt;Node8</title>
<g id="a_edge16_Node000011_Node000008"><a xlink:title=" ">
<path fill="none" stroke="#63b8ff" d="M341.72,-109.75C337.29,-102.42 330.84,-91.73 325.38,-82.7"/>
<polygon fill="#63b8ff" stroke="#63b8ff" points="328.35,-80.84 320.19,-74.09 322.36,-84.46 328.35,-80.84"/>
</a>
</g>
</g>
<!-- Node11&#45;&gt;Node10 -->
<g id="edge15_Node000011_Node000010" class="edge">
<title>Node11&#45;&gt;Node10</title>
<g id="a_edge15_Node000011_Node000010"><a xlink:title=" ">
<path fill="none" stroke="#63b8ff" d="M369.65,-109.98C392.85,-101.27 429.12,-87.63 455.4,-77.75"/>
<polygon fill="#63b8ff" stroke="#63b8ff" points="456.8,-80.97 464.93,-74.17 454.34,-74.41 456.8,-80.97"/>
</a>
</g>
</g>
<!-- Node11&#45;&gt;Node12 -->
<g id="edge17_Node000011_Node000012" class="edge">
<title>Node11&#45;&gt;Node12</title>
<g id="a_edge17_Node000011_Node000012"><a xlink:title=" ">
<path fill="none" stroke="#63b8ff" d="M326.92,-109.98C306.63,-101.38 275.04,-87.99 251.83,-78.15"/>
<polygon fill="#63b8ff" stroke="#63b8ff" points="253.02,-74.85 242.45,-74.17 250.29,-81.3 253.02,-74.85"/>
</a>
</g>
</g>
<!-- Node12&#45;&gt;Node5 -->
<g id="edge18_Node000012_Node000005" class="edge">
<title>Node12&#45;&gt;Node5</title>
<g id="a_edge18_Node000012_Node000005"><a xlink:title=" ">
<path fill="none" stroke="#63b8ff" d="M251.08,-54.98C282.42,-45.81 332.35,-31.19 366.35,-21.23"/>
<polygon fill="#63b8ff" stroke="#63b8ff" points="367.74,-24.47 376.35,-18.3 365.77,-17.75 367.74,-24.47"/>
</a>
</g>
</g>
<!-- Node13&#45;&gt;Node3 -->
<g id="edge20_Node000013_Node000003" class="edge">
<title>Node13&#45;&gt;Node3</title>
<g id="a_edge20_Node000013_Node000003"><a xlink:title=" ">
<path fill="none" stroke="#63b8ff" d="M41.33,-109.75C41.59,-102.8 41.97,-92.85 42.3,-84.13"/>
<polygon fill="#63b8ff" stroke="#63b8ff" points="45.8,-84.21 42.68,-74.09 38.8,-83.95 45.8,-84.21"/>
</a>
</g>
</g>
<!-- Node14&#45;&gt;Node2 -->
<g id="edge23_Node000014_Node000002" class="edge">
<title>Node14&#45;&gt;Node2</title>
<g id="a_edge23_Node000014_Node000002"><a xlink:title=" ">
<path fill="none" stroke="#63b8ff" d="M734,-109.98C725.81,-102.23 713.49,-90.58 703.53,-81.14"/>
<polygon fill="#63b8ff" stroke="#63b8ff" points="705.83,-78.5 696.16,-74.17 701.02,-83.59 705.83,-78.5"/>
</a>
</g>
</g>
<!-- Node15 -->
<g id="Node000015" class="node">
<title>Node15</title>
<g id="a_Node000015"><a xlink:title=" ">
<polygon fill="#e0e0e0" stroke="#999999" points="782,-74 732,-74 732,-55 782,-55 782,-74"/>
<text text-anchor="middle" x="757" y="-62" font-family="Helvetica,sans-Serif" font-size="10.00">stdio.h</text>
</a>
</g>
</g>
<!-- Node14&#45;&gt;Node15 -->
<g id="edge22_Node000014_Node000015" class="edge">
<title>Node14&#45;&gt;Node15</title>
<g id="a_edge22_Node000014_Node000015"><a xlink:title=" ">
<path fill="none" stroke="#63b8ff" d="M745.31,-109.75C747.17,-102.72 749.84,-92.62 752.15,-83.84"/>
<polygon fill="#63b8ff" stroke="#63b8ff" points="755.56,-84.65 754.73,-74.09 748.79,-82.86 755.56,-84.65"/>
</a>
</g>
</g>
<!-- Node16&#45;&gt;Node8 -->
<g id="edge27_Node000016_Node000008" class="edge">
<title>Node16&#45;&gt;Node8</title>
<g id="a_edge27_Node000016_Node000008"><a xlink:title=" ">
<path fill="none" stroke="#63b8ff" d="M261.28,-109.98C270.84,-102.07 285.28,-90.11 296.78,-80.58"/>
<polygon fill="#63b8ff" stroke="#63b8ff" points="299.06,-83.24 304.53,-74.17 294.6,-77.85 299.06,-83.24"/>
</a>
</g>
</g>
<!-- Node16&#45;&gt;Node12 -->
<g id="edge26_Node000016_Node000012" class="edge">
<title>Node16&#45;&gt;Node12</title>
<g id="a_edge26_Node000016_Node000012"><a xlink:title=" ">
<path fill="none" stroke="#63b8ff" d="M246.21,-109.75C242.24,-102.49 236.47,-91.95 231.57,-82.98"/>
<polygon fill="#63b8ff" stroke="#63b8ff" points="234.57,-81.18 226.7,-74.09 228.43,-84.54 234.57,-81.18"/>
</a>
</g>
</g>
<!-- Node17&#45;&gt;Node2 -->
<g id="edge29_Node000017_Node000002" class="edge">
<title>Node17&#45;&gt;Node2</title>
<g id="a_edge29_Node000017_Node000002"><a xlink:title=" ">
<path fill="none" stroke="#63b8ff" d="M609.78,-109.98C624.18,-101.69 646.31,-88.94 663.19,-79.22"/>
<polygon fill="#63b8ff" stroke="#63b8ff" points="665.03,-82.19 671.95,-74.17 661.54,-76.13 665.03,-82.19"/>
</a>
</g>
</g>
<!-- Node17&#45;&gt;Node5 -->
<g id="edge30_Node000017_Node000005" class="edge">
<title>Node17&#45;&gt;Node5</title>
<g id="a_edge30_Node000017_Node000005"><a xlink:title=" ">
<path fill="none" stroke="#63b8ff" d="M589.29,-109.81C579.93,-96.22 560.05,-69.96 537,-55 507.06,-35.57 467.82,-23.84 439.55,-17.35"/>
<polygon fill="#63b8ff" stroke="#63b8ff" points="440.19,-13.9 429.67,-15.19 438.69,-20.74 440.19,-13.9"/>
</a>
</g>
</g>
<!-- Node17&#45;&gt;Node7 -->
<g id="edge31_Node000017_Node000007" class="edge">
<title>Node17&#45;&gt;Node7</title>
<g id="a_edge31_Node000017_Node000007"><a xlink:title=" ">
<path fill="none" stroke="#63b8ff" d="M600,-109.9C606.6,-97.32 616.47,-73.4 608,-55 602.25,-42.52 591.09,-32.24 580.58,-24.71"/>
<polygon fill="#63b8ff" stroke="#63b8ff" points="582.3,-21.65 572.03,-19.05 578.43,-27.49 582.3,-21.65"/>
</a>
</g>
</g>
</g>
</svg>
