<?xml version="1.0" encoding="UTF-8" standalone="no"?>
<!DOCTYPE svg PUBLIC "-//W3C//DTD SVG 1.1//EN"
 "http://www.w3.org/Graphics/SVG/1.1/DTD/svg11.dtd">
<!-- Generated by graphviz version 2.43.0 (0)
 -->
<!-- Title: /home/runner/work/no&#45;OS/no&#45;OS/drivers/platform/stm32/stm32_gpio.c Pages: 1 -->
<svg width="492pt" height="214pt"
 viewBox="0.00 0.00 492.00 214.00" xmlns="http://www.w3.org/2000/svg" xmlns:xlink="http://www.w3.org/1999/xlink">
<g id="graph0" class="graph" transform="scale(1 1) rotate(0) translate(4 210)">
<title>/home/runner/work/no&#45;OS/no&#45;OS/drivers/platform/stm32/stm32_gpio.c</title>
<!-- Node1 -->
<g id="Node000001" class="node">
<title>Node1</title>
<g id="a_Node000001"><a xlink:title="Implementation of stm32 gpio functionality.">
<polygon fill="#999999" stroke="#666666" points="299.5,-206 151.5,-206 151.5,-165 299.5,-165 299.5,-206"/>
<text text-anchor="start" x="159.5" y="-194" font-family="Helvetica,sans-Serif" font-size="10.00">/home/runner/work/no</text>
<text text-anchor="start" x="159.5" y="-183" font-family="Helvetica,sans-Serif" font-size="10.00">&#45;OS/no&#45;OS/drivers/platform</text>
<text text-anchor="middle" x="225.5" y="-172" font-family="Helvetica,sans-Serif" font-size="10.00">/stm32/stm32_gpio.c</text>
</a>
</g>
</g>
<!-- Node2 -->
<g id="Node000002" class="node">
<title>Node2</title>
<g id="a_Node000002"><a xlink:title=" ">
<polygon fill="#e0e0e0" stroke="#999999" points="138,-74 85,-74 85,-55 138,-55 138,-74"/>
<text text-anchor="middle" x="111.5" y="-62" font-family="Helvetica,sans-Serif" font-size="10.00">stdlib.h</text>
</a>
</g>
</g>
<!-- Node1&#45;&gt;Node2 -->
<g id="edge1_Node000001_Node000002" class="edge">
<title>Node1&#45;&gt;Node2</title>
<g id="a_edge1_Node000001_Node000002"><a xlink:title=" ">
<path fill="none" stroke="#63b8ff" d="M176.31,-164.78C159.73,-156 142.43,-144.16 130.5,-129 120.39,-116.14 115.65,-97.98 113.43,-84.37"/>
<polygon fill="#63b8ff" stroke="#63b8ff" points="116.87,-83.68 112.1,-74.22 109.93,-84.59 116.87,-83.68"/>
</a>
</g>
</g>
<!-- Node3 -->
<g id="Node000003" class="node">
<title>Node3</title>
<g id="a_Node000003"><a xlink:href="errno_8h.html" target="_top" xlink:title="Error macro definition for ARM Compiler.">
<polygon fill="white" stroke="#666666" points="484,-129 433,-129 433,-110 484,-110 484,-129"/>
<text text-anchor="middle" x="458.5" y="-117" font-family="Helvetica,sans-Serif" font-size="10.00">errno.h</text>
</a>
</g>
</g>
<!-- Node1&#45;&gt;Node3 -->
<g id="edge2_Node000001_Node000003" class="edge">
<title>Node1&#45;&gt;Node3</title>
<g id="a_edge2_Node000001_Node000003"><a xlink:title=" ">
<path fill="none" stroke="#63b8ff" d="M296.67,-164.95C338.52,-153.46 389.6,-139.42 423.04,-130.24"/>
<polygon fill="#63b8ff" stroke="#63b8ff" points="424.1,-133.58 432.82,-127.55 422.25,-126.83 424.1,-133.58"/>
</a>
</g>
</g>
<!-- Node4 -->
<g id="Node000004" class="node">
<title>Node4</title>
<g id="a_Node000004"><a xlink:href="no__os__util_8h.html" target="_top" xlink:title="Header file of utility functions.">
<polygon fill="white" stroke="#666666" points="215,-129 140,-129 140,-110 215,-110 215,-129"/>
<text text-anchor="middle" x="177.5" y="-117" font-family="Helvetica,sans-Serif" font-size="10.00">no_os_util.h</text>
</a>
</g>
</g>
<!-- Node1&#45;&gt;Node4 -->
<g id="edge3_Node000001_Node000004" class="edge">
<title>Node1&#45;&gt;Node4</title>
<g id="a_edge3_Node000001_Node000004"><a xlink:title=" ">
<path fill="none" stroke="#63b8ff" d="M210.84,-164.95C204.21,-156.11 196.45,-145.77 190.09,-137.29"/>
<polygon fill="#63b8ff" stroke="#63b8ff" points="192.87,-135.16 184.07,-129.26 187.27,-139.36 192.87,-135.16"/>
</a>
</g>
</g>
<!-- Node7 -->
<g id="Node000007" class="node">
<title>Node7</title>
<g id="a_Node000007"><a xlink:href="no__os__gpio_8h.html" target="_top" xlink:title="Header file of GPIO Interface.">
<polygon fill="white" stroke="#666666" points="414.5,-129 334.5,-129 334.5,-110 414.5,-110 414.5,-129"/>
<text text-anchor="middle" x="374.5" y="-117" font-family="Helvetica,sans-Serif" font-size="10.00">no_os_gpio.h</text>
</a>
</g>
</g>
<!-- Node1&#45;&gt;Node7 -->
<g id="edge7_Node000001_Node000007" class="edge">
<title>Node1&#45;&gt;Node7</title>
<g id="a_edge7_Node000001_Node000007"><a xlink:title=" ">
<path fill="none" stroke="#63b8ff" d="M271.01,-164.95C295.1,-154.6 323.97,-142.2 345.1,-133.13"/>
<polygon fill="#63b8ff" stroke="#63b8ff" points="346.69,-136.25 354.5,-129.09 343.93,-129.82 346.69,-136.25"/>
</a>
</g>
</g>
<!-- Node8 -->
<g id="Node000008" class="node">
<title>Node8</title>
<g id="a_Node000008"><a xlink:href="no__os__alloc_8h.html" target="_top" xlink:title=" ">
<polygon fill="white" stroke="#666666" points="83,-129 0,-129 0,-110 83,-110 83,-129"/>
<text text-anchor="middle" x="41.5" y="-117" font-family="Helvetica,sans-Serif" font-size="10.00">no_os_alloc.h</text>
</a>
</g>
</g>
<!-- Node1&#45;&gt;Node8 -->
<g id="edge9_Node000001_Node000008" class="edge">
<title>Node1&#45;&gt;Node8</title>
<g id="a_edge9_Node000001_Node000008"><a xlink:title=" ">
<path fill="none" stroke="#63b8ff" d="M169.29,-164.95C138.74,-154.32 101.95,-141.53 75.71,-132.4"/>
<polygon fill="#63b8ff" stroke="#63b8ff" points="76.8,-129.07 66.2,-129.09 74.5,-135.68 76.8,-129.07"/>
</a>
</g>
</g>
<!-- Node10 -->
<g id="Node000010" class="node">
<title>Node10</title>
<g id="a_Node000010"><a xlink:href="stm32__gpio_8h.html" target="_top" xlink:title="Header file for stm32 gpio specifics.">
<polygon fill="white" stroke="#666666" points="316,-129 233,-129 233,-110 316,-110 316,-129"/>
<text text-anchor="middle" x="274.5" y="-117" font-family="Helvetica,sans-Serif" font-size="10.00">stm32_gpio.h</text>
</a>
</g>
</g>
<!-- Node1&#45;&gt;Node10 -->
<g id="edge12_Node000001_Node000010" class="edge">
<title>Node1&#45;&gt;Node10</title>
<g id="a_edge12_Node000001_Node000010"><a xlink:title=" ">
<path fill="none" stroke="#63b8ff" d="M240.47,-164.95C247.24,-156.11 255.15,-145.77 261.65,-137.29"/>
<polygon fill="#63b8ff" stroke="#63b8ff" points="264.49,-139.33 267.79,-129.26 258.93,-135.07 264.49,-139.33"/>
</a>
</g>
</g>
<!-- Node4&#45;&gt;Node2 -->
<g id="edge5_Node000004_Node000002" class="edge">
<title>Node4&#45;&gt;Node2</title>
<g id="a_edge5_Node000004_Node000002"><a xlink:title=" ">
<path fill="none" stroke="#63b8ff" d="M166.9,-109.98C157.04,-102.07 142.15,-90.11 130.28,-80.58"/>
<polygon fill="#63b8ff" stroke="#63b8ff" points="132.29,-77.7 122.3,-74.17 127.9,-83.16 132.29,-77.7"/>
</a>
</g>
</g>
<!-- Node5 -->
<g id="Node000005" class="node">
<title>Node5</title>
<g id="a_Node000005"><a xlink:title=" ">
<polygon fill="#e0e0e0" stroke="#999999" points="298,-74 245,-74 245,-55 298,-55 298,-74"/>
<text text-anchor="middle" x="271.5" y="-62" font-family="Helvetica,sans-Serif" font-size="10.00">stdint.h</text>
</a>
</g>
</g>
<!-- Node4&#45;&gt;Node5 -->
<g id="edge4_Node000004_Node000005" class="edge">
<title>Node4&#45;&gt;Node5</title>
<g id="a_edge4_Node000004_Node000005"><a xlink:title=" ">
<path fill="none" stroke="#63b8ff" d="M192.6,-109.98C207.32,-101.69 229.92,-88.94 247.17,-79.22"/>
<polygon fill="#63b8ff" stroke="#63b8ff" points="249.13,-82.13 256.12,-74.17 245.69,-76.03 249.13,-82.13"/>
</a>
</g>
</g>
<!-- Node6 -->
<g id="Node000006" class="node">
<title>Node6</title>
<g id="a_Node000006"><a xlink:title=" ">
<polygon fill="#e0e0e0" stroke="#999999" points="223.5,-74 161.5,-74 161.5,-55 223.5,-55 223.5,-74"/>
<text text-anchor="middle" x="192.5" y="-62" font-family="Helvetica,sans-Serif" font-size="10.00">stdbool.h</text>
</a>
</g>
</g>
<!-- Node4&#45;&gt;Node6 -->
<g id="edge6_Node000004_Node000006" class="edge">
<title>Node4&#45;&gt;Node6</title>
<g id="a_edge6_Node000004_Node000006"><a xlink:title=" ">
<path fill="none" stroke="#63b8ff" d="M179.98,-109.75C181.96,-102.72 184.82,-92.62 187.31,-83.84"/>
<polygon fill="#63b8ff" stroke="#63b8ff" points="190.71,-84.66 190.07,-74.09 183.98,-82.76 190.71,-84.66"/>
</a>
</g>
</g>
<!-- Node7&#45;&gt;Node5 -->
<g id="edge8_Node000007_Node000005" class="edge">
<title>Node7&#45;&gt;Node5</title>
<g id="a_edge8_Node000007_Node000005"><a xlink:title=" ">
<path fill="none" stroke="#63b8ff" d="M357.95,-109.98C341.61,-101.57 316.37,-88.59 297.37,-78.81"/>
<polygon fill="#63b8ff" stroke="#63b8ff" points="298.84,-75.63 288.35,-74.17 295.64,-81.86 298.84,-75.63"/>
</a>
</g>
</g>
<!-- Node8&#45;&gt;Node2 -->
<g id="edge11_Node000008_Node000002" class="edge">
<title>Node8&#45;&gt;Node2</title>
<g id="a_edge11_Node000008_Node000002"><a xlink:title=" ">
<path fill="none" stroke="#63b8ff" d="M52.75,-109.98C63.3,-102 79.3,-89.88 91.94,-80.31"/>
<polygon fill="#63b8ff" stroke="#63b8ff" points="94.19,-83 100.05,-74.17 89.96,-77.42 94.19,-83"/>
</a>
</g>
</g>
<!-- Node9 -->
<g id="Node000009" class="node">
<title>Node9</title>
<g id="a_Node000009"><a xlink:title=" ">
<polygon fill="#e0e0e0" stroke="#999999" points="66.5,-74 16.5,-74 16.5,-55 66.5,-55 66.5,-74"/>
<text text-anchor="middle" x="41.5" y="-62" font-family="Helvetica,sans-Serif" font-size="10.00">stdio.h</text>
</a>
</g>
</g>
<!-- Node8&#45;&gt;Node9 -->
<g id="edge10_Node000008_Node000009" class="edge">
<title>Node8&#45;&gt;Node9</title>
<g id="a_edge10_Node000008_Node000009"><a xlink:title=" ">
<path fill="none" stroke="#63b8ff" d="M41.5,-109.75C41.5,-102.8 41.5,-92.85 41.5,-84.13"/>
<polygon fill="#63b8ff" stroke="#63b8ff" points="45,-84.09 41.5,-74.09 38,-84.09 45,-84.09"/>
</a>
</g>
</g>
<!-- Node10&#45;&gt;Node5 -->
<g id="edge13_Node000010_Node000005" class="edge">
<title>Node10&#45;&gt;Node5</title>
<g id="a_edge13_Node000010_Node000005"><a xlink:title=" ">
<path fill="none" stroke="#63b8ff" d="M274,-109.75C273.61,-102.8 273.05,-92.85 272.55,-84.13"/>
<polygon fill="#63b8ff" stroke="#63b8ff" points="276.05,-83.88 271.99,-74.09 269.06,-84.27 276.05,-83.88"/>
</a>
</g>
</g>
<!-- Node10&#45;&gt;Node6 -->
<g id="edge14_Node000010_Node000006" class="edge">
<title>Node10&#45;&gt;Node6</title>
<g id="a_edge14_Node000010_Node000006"><a xlink:title=" ">
<path fill="none" stroke="#63b8ff" d="M261.33,-109.98C248.73,-101.84 229.5,-89.41 214.56,-79.76"/>
<polygon fill="#63b8ff" stroke="#63b8ff" points="216.21,-76.66 205.91,-74.17 212.41,-82.54 216.21,-76.66"/>
</a>
</g>
</g>
<!-- Node11 -->
<g id="Node000011" class="node">
<title>Node11</title>
<g id="a_Node000011"><a xlink:href="stm32__hal_8h.html" target="_top" xlink:title=" ">
<polygon fill="white" stroke="#666666" points="393,-74 316,-74 316,-55 393,-55 393,-74"/>
<text text-anchor="middle" x="354.5" y="-62" font-family="Helvetica,sans-Serif" font-size="10.00">stm32_hal.h</text>
</a>
</g>
</g>
<!-- Node10&#45;&gt;Node11 -->
<g id="edge15_Node000010_Node000011" class="edge">
<title>Node10&#45;&gt;Node11</title>
<g id="a_edge15_Node000010_Node000011"><a xlink:title=" ">
<path fill="none" stroke="#63b8ff" d="M287.35,-109.98C299.64,-101.84 318.41,-89.41 332.98,-79.76"/>
<polygon fill="#63b8ff" stroke="#63b8ff" points="335.01,-82.61 341.41,-74.17 331.14,-76.78 335.01,-82.61"/>
</a>
</g>
</g>
<!-- Node12 -->
<g id="Node000012" class="node">
<title>Node12</title>
<g id="a_Node000012"><a xlink:title=" ">
<polygon fill="#e0e0e0" stroke="#999999" points="379.5,-19 329.5,-19 329.5,0 379.5,0 379.5,-19"/>
<text text-anchor="middle" x="354.5" y="-7" font-family="Helvetica,sans-Serif" font-size="10.00">main.h</text>
</a>
</g>
</g>
<!-- Node11&#45;&gt;Node12 -->
<g id="edge16_Node000011_Node000012" class="edge">
<title>Node11&#45;&gt;Node12</title>
<g id="a_edge16_Node000011_Node000012"><a xlink:title=" ">
<path fill="none" stroke="#63b8ff" d="M354.5,-54.75C354.5,-47.8 354.5,-37.85 354.5,-29.13"/>
<polygon fill="#63b8ff" stroke="#63b8ff" points="358,-29.09 354.5,-19.09 351,-29.09 358,-29.09"/>
</a>
</g>
</g>
</g>
</svg>
