<?xml version="1.0" encoding="UTF-8" standalone="no"?>
<!DOCTYPE svg PUBLIC "-//W3C//DTD SVG 1.1//EN"
 "http://www.w3.org/Graphics/SVG/1.1/DTD/svg11.dtd">
<!-- Generated by graphviz version 2.43.0 (0)
 -->
<!-- Title: max17616_init_param Pages: 1 -->
<svg width="320pt" height="159pt"
 viewBox="0.00 0.00 320.00 159.00" xmlns="http://www.w3.org/2000/svg" xmlns:xlink="http://www.w3.org/1999/xlink">

<svg id="main" version="1.1" xmlns="http://www.w3.org/2000/svg" xmlns:xlink="http://www.w3.org/1999/xlink" xml:space="preserve">

<style type="text/css"><![CDATA[
.node, .edge {opacity: 0.7;}
.node.selected, .edge.selected {opacity: 1;}
.edge:hover path { stroke: red; }
.edge:hover polygon { stroke: red; fill: red; }
]]></style>
<script type="application/ecmascript" xlink:href="svg.min.js"/>
<svg id="graph" class="graph">
<g id="graph0" class="graph" transform="scale(1 1) rotate(0) translate(4 155)">
<title>max17616_init_param</title>
<!-- Node1 -->
<g id="Node000001" class="node">
<title>Node1</title>
<g id="a_Node000001"><a xlink:title=" ">
<polygon fill="#999999" stroke="#666666" points="206,-19 80,-19 80,0 206,0 206,-19"/>
<text text-anchor="middle" x="143" y="-7" font-family="Helvetica,sans-Serif" font-size="10.00">max17616_init_param</text>
</a>
</g>
</g>
<!-- Node2 -->
<g id="Node000002" class="node">
<title>Node2</title>
<g id="a_Node000002"><a xlink:href="structno__os__i2c__init__param.html" target="_top" xlink:title="Structure holding the parameters for I2C initialization.">
<polygon fill="white" stroke="#666666" points="135,-85 13,-85 13,-66 135,-66 135,-85"/>
<text text-anchor="middle" x="74" y="-73" font-family="Helvetica,sans-Serif" font-size="10.00">no_os_i2c_init_param</text>
</a>
</g>
</g>
<!-- Node2&#45;&gt;Node1 -->
<g id="edge1_Node000001_Node000002" class="edge">
<title>Node2&#45;&gt;Node1</title>
<g id="a_edge1_Node000001_Node000002"><a xlink:title=" ">
<path fill="none" stroke="#9a32cd" stroke-dasharray="5,2" d="M90.89,-58.83C104.25,-46.44 122.42,-29.59 133.4,-19.41"/>
<polygon fill="#9a32cd" stroke="#9a32cd" points="88.26,-56.5 83.31,-65.87 93.02,-61.63 88.26,-56.5"/>
</a>
</g>
<text text-anchor="middle" x="132.5" y="-40" font-family="Helvetica,sans-Serif" font-size="10.00" fill="grey"> i2c_init</text>
</g>
<!-- Node3 -->
<g id="Node000003" class="node">
<title>Node3</title>
<g id="a_Node000003"><a xlink:href="structno__os__i2c__platform__ops.html" target="_top" xlink:title="Structure holding I2C function pointers that point to the platform specific function.">
<polygon fill="white" stroke="#666666" points="134,-151 0,-151 0,-132 134,-132 134,-151"/>
<text text-anchor="middle" x="67" y="-139" font-family="Helvetica,sans-Serif" font-size="10.00">no_os_i2c_platform_ops</text>
</a>
</g>
</g>
<!-- Node3&#45;&gt;Node2 -->
<g id="edge2_Node000002_Node000003" class="edge">
<title>Node3&#45;&gt;Node2</title>
<g id="a_edge2_Node000002_Node000003"><a xlink:title=" ">
<path fill="none" stroke="#9a32cd" stroke-dasharray="5,2" d="M69.07,-121.58C70.38,-109.63 72.01,-94.72 73.03,-85.41"/>
<polygon fill="#9a32cd" stroke="#9a32cd" points="65.55,-121.55 67.94,-131.87 72.51,-122.31 65.55,-121.55"/>
</a>
</g>
<text text-anchor="middle" x="105" y="-106" font-family="Helvetica,sans-Serif" font-size="10.00" fill="grey"> platform_ops</text>
</g>
<!-- Node4 -->
<g id="Node000004" class="node">
<title>Node4</title>
<g id="a_Node000004"><a xlink:href="structmax17616__chip__info.html" target="_top" xlink:title=" ">
<polygon fill="white" stroke="#666666" points="284,-85 166,-85 166,-66 284,-66 284,-85"/>
<text text-anchor="middle" x="225" y="-73" font-family="Helvetica,sans-Serif" font-size="10.00">max17616_chip_info</text>
</a>
</g>
</g>
<!-- Node4&#45;&gt;Node1 -->
<g id="edge3_Node000001_Node000004" class="edge">
<title>Node4&#45;&gt;Node1</title>
<g id="a_edge3_Node000001_Node000004"><a xlink:title=" ">
<path fill="none" stroke="#9a32cd" stroke-dasharray="5,2" d="M205.77,-59.49C189.71,-46.96 167.39,-29.54 154.15,-19.2"/>
<polygon fill="#9a32cd" stroke="#9a32cd" points="203.9,-62.48 213.94,-65.87 208.21,-56.96 203.9,-62.48"/>
</a>
</g>
<text text-anchor="middle" x="212" y="-40" font-family="Helvetica,sans-Serif" font-size="10.00" fill="grey"> chip_info</text>
</g>
<!-- Node5 -->
<g id="Node000005" class="node">
<title>Node5</title>
<g id="a_Node000005"><a xlink:href="structmax17616__chip__specific__info.html" target="_top" xlink:title=" ">
<polygon fill="white" stroke="#666666" points="312,-151 152,-151 152,-132 312,-132 312,-151"/>
<text text-anchor="middle" x="232" y="-139" font-family="Helvetica,sans-Serif" font-size="10.00">max17616_chip_specific_info</text>
</a>
</g>
</g>
<!-- Node5&#45;&gt;Node4 -->
<g id="edge4_Node000004_Node000005" class="edge">
<title>Node5&#45;&gt;Node4</title>
<g id="a_edge4_Node000004_Node000005"><a xlink:title=" ">
<path fill="none" stroke="#9a32cd" stroke-dasharray="5,2" d="M229.93,-121.58C228.62,-109.63 226.99,-94.72 225.97,-85.41"/>
<polygon fill="#9a32cd" stroke="#9a32cd" points="226.49,-122.31 231.06,-131.87 233.45,-121.55 226.49,-122.31"/>
</a>
</g>
<text text-anchor="middle" x="260" y="-106" font-family="Helvetica,sans-Serif" font-size="10.00" fill="grey"> specific_info</text>
</g>
</g>
</svg>
</svg>

<style type='text/css'>
<![CDATA[
[data-mouse-over-selected='false'] { opacity: 0.7; }
[data-mouse-over-selected='true']  { opacity: 1.0; }
]]>
</style>
<script type="application/ecmascript"><![CDATA[
document.addEventListener('DOMContentLoaded', (event) => {
  highlightEdges();
  highlightAdjacentNodes();
});
]]></script>
</svg>
