<?xml version="1.0" encoding="UTF-8" standalone="no"?>
<!DOCTYPE svg PUBLIC "-//W3C//DTD SVG 1.1//EN"
 "http://www.w3.org/Graphics/SVG/1.1/DTD/svg11.dtd">
<!-- Generated by graphviz version 2.43.0 (0)
 -->
<!-- Title: max17616_iio_desc_init_param Pages: 1 -->
<svg width="320pt" height="236pt"
 viewBox="0.00 0.00 320.00 236.00" xmlns="http://www.w3.org/2000/svg" xmlns:xlink="http://www.w3.org/1999/xlink">
<g id="graph0" class="graph" transform="scale(1 1) rotate(0) translate(4 232)">
<title>max17616_iio_desc_init_param</title>
<!-- Node1 -->
<g id="Node000001" class="node">
<title>Node1</title>
<g id="a_Node000001"><a xlink:title="Structure holding the MAX17616 IIO initialization parameter.">
<polygon fill="#999999" stroke="#666666" points="210,-30 76,-30 76,0 210,0 210,-30"/>
<text text-anchor="start" x="84" y="-18" font-family="Helvetica,sans-Serif" font-size="10.00">max17616_iio_desc_init</text>
<text text-anchor="middle" x="143" y="-7" font-family="Helvetica,sans-Serif" font-size="10.00">_param</text>
</a>
</g>
</g>
<!-- Node2 -->
<g id="Node000002" class="node">
<title>Node2</title>
<g id="a_Node000002"><a xlink:href="structmax17616__init__param.html" target="_top" xlink:title=" ">
<polygon fill="white" stroke="#666666" points="206,-96 80,-96 80,-77 206,-77 206,-96"/>
<text text-anchor="middle" x="143" y="-84" font-family="Helvetica,sans-Serif" font-size="10.00">max17616_init_param</text>
</a>
</g>
</g>
<!-- Node2&#45;&gt;Node1 -->
<g id="edge1_Node000001_Node000002" class="edge">
<title>Node2&#45;&gt;Node1</title>
<g id="a_edge1_Node000001_Node000002"><a xlink:title=" ">
<path fill="none" stroke="#9a32cd" stroke-dasharray="5,2" d="M143,-66.71C143,-55.19 143,-40.68 143,-30.14"/>
<polygon fill="#9a32cd" stroke="#9a32cd" points="139.5,-66.98 143,-76.98 146.5,-66.98 139.5,-66.98"/>
</a>
</g>
<text text-anchor="middle" x="199.5" y="-51" font-family="Helvetica,sans-Serif" font-size="10.00" fill="grey"> max17616_init_param</text>
</g>
<!-- Node3 -->
<g id="Node000003" class="node">
<title>Node3</title>
<g id="a_Node000003"><a xlink:href="structno__os__i2c__init__param.html" target="_top" xlink:title="Structure holding the parameters for I2C initialization.">
<polygon fill="white" stroke="#666666" points="135,-162 13,-162 13,-143 135,-143 135,-162"/>
<text text-anchor="middle" x="74" y="-150" font-family="Helvetica,sans-Serif" font-size="10.00">no_os_i2c_init_param</text>
</a>
</g>
</g>
<!-- Node3&#45;&gt;Node2 -->
<g id="edge2_Node000002_Node000003" class="edge">
<title>Node3&#45;&gt;Node2</title>
<g id="a_edge2_Node000002_Node000003"><a xlink:title=" ">
<path fill="none" stroke="#9a32cd" stroke-dasharray="5,2" d="M90.89,-135.83C104.25,-123.44 122.42,-106.59 133.4,-96.41"/>
<polygon fill="#9a32cd" stroke="#9a32cd" points="88.26,-133.5 83.31,-142.87 93.02,-138.63 88.26,-133.5"/>
</a>
</g>
<text text-anchor="middle" x="132.5" y="-117" font-family="Helvetica,sans-Serif" font-size="10.00" fill="grey"> i2c_init</text>
</g>
<!-- Node4 -->
<g id="Node000004" class="node">
<title>Node4</title>
<g id="a_Node000004"><a xlink:href="structno__os__i2c__platform__ops.html" target="_top" xlink:title="Structure holding I2C function pointers that point to the platform specific function.">
<polygon fill="white" stroke="#666666" points="134,-228 0,-228 0,-209 134,-209 134,-228"/>
<text text-anchor="middle" x="67" y="-216" font-family="Helvetica,sans-Serif" font-size="10.00">no_os_i2c_platform_ops</text>
</a>
</g>
</g>
<!-- Node4&#45;&gt;Node3 -->
<g id="edge3_Node000003_Node000004" class="edge">
<title>Node4&#45;&gt;Node3</title>
<g id="a_edge3_Node000003_Node000004"><a xlink:title=" ">
<path fill="none" stroke="#9a32cd" stroke-dasharray="5,2" d="M69.07,-198.58C70.38,-186.63 72.01,-171.72 73.03,-162.41"/>
<polygon fill="#9a32cd" stroke="#9a32cd" points="65.55,-198.55 67.94,-208.87 72.51,-199.31 65.55,-198.55"/>
</a>
</g>
<text text-anchor="middle" x="105" y="-183" font-family="Helvetica,sans-Serif" font-size="10.00" fill="grey"> platform_ops</text>
</g>
<!-- Node5 -->
<g id="Node000005" class="node">
<title>Node5</title>
<g id="a_Node000005"><a xlink:href="structmax17616__chip__info.html" target="_top" xlink:title=" ">
<polygon fill="white" stroke="#666666" points="284,-162 166,-162 166,-143 284,-143 284,-162"/>
<text text-anchor="middle" x="225" y="-150" font-family="Helvetica,sans-Serif" font-size="10.00">max17616_chip_info</text>
</a>
</g>
</g>
<!-- Node5&#45;&gt;Node2 -->
<g id="edge4_Node000002_Node000005" class="edge">
<title>Node5&#45;&gt;Node2</title>
<g id="a_edge4_Node000002_Node000005"><a xlink:title=" ">
<path fill="none" stroke="#9a32cd" stroke-dasharray="5,2" d="M205.77,-136.49C189.71,-123.96 167.39,-106.54 154.15,-96.2"/>
<polygon fill="#9a32cd" stroke="#9a32cd" points="203.9,-139.48 213.94,-142.87 208.21,-133.96 203.9,-139.48"/>
</a>
</g>
<text text-anchor="middle" x="212" y="-117" font-family="Helvetica,sans-Serif" font-size="10.00" fill="grey"> chip_info</text>
</g>
<!-- Node6 -->
<g id="Node000006" class="node">
<title>Node6</title>
<g id="a_Node000006"><a xlink:href="structmax17616__chip__specific__info.html" target="_top" xlink:title=" ">
<polygon fill="white" stroke="#666666" points="312,-228 152,-228 152,-209 312,-209 312,-228"/>
<text text-anchor="middle" x="232" y="-216" font-family="Helvetica,sans-Serif" font-size="10.00">max17616_chip_specific_info</text>
</a>
</g>
</g>
<!-- Node6&#45;&gt;Node5 -->
<g id="edge5_Node000005_Node000006" class="edge">
<title>Node6&#45;&gt;Node5</title>
<g id="a_edge5_Node000005_Node000006"><a xlink:title=" ">
<path fill="none" stroke="#9a32cd" stroke-dasharray="5,2" d="M229.93,-198.58C228.62,-186.63 226.99,-171.72 225.97,-162.41"/>
<polygon fill="#9a32cd" stroke="#9a32cd" points="226.49,-199.31 231.06,-208.87 233.45,-198.55 226.49,-199.31"/>
</a>
</g>
<text text-anchor="middle" x="260" y="-183" font-family="Helvetica,sans-Serif" font-size="10.00" fill="grey"> specific_info</text>
</g>
</g>
</svg>
