<?xml version="1.0" encoding="UTF-8" standalone="no"?>
<!DOCTYPE svg PUBLIC "-//W3C//DTD SVG 1.1//EN"
 "http://www.w3.org/Graphics/SVG/1.1/DTD/svg11.dtd">
<!-- Generated by graphviz version 2.43.0 (0)
 -->
<!-- Title: /home/runner/work/no&#45;OS/no&#45;OS/projects/swiot1l/src/examples/swiot1l&#45;mqtt/swiot1l_mqtt.c Pages: 1 -->
<svg width="1437pt" height="170pt"
 viewBox="0.00 0.00 1436.50 170.00" xmlns="http://www.w3.org/2000/svg" xmlns:xlink="http://www.w3.org/1999/xlink">
<g id="graph0" class="graph" transform="scale(1 1) rotate(0) translate(4 166)">
<title>/home/runner/work/no&#45;OS/no&#45;OS/projects/swiot1l/src/examples/swiot1l&#45;mqtt/swiot1l_mqtt.c</title>
<!-- Node1 -->
<g id="Node000001" class="node">
<title>Node1</title>
<g id="a_Node000001"><a xlink:title="Source file for the swiot1l mqtt example.">
<polygon fill="#999999" stroke="#666666" points="714.5,-162 564.5,-162 564.5,-110 714.5,-110 714.5,-162"/>
<text text-anchor="start" x="572.5" y="-150" font-family="Helvetica,sans-Serif" font-size="10.00">/home/runner/work/no</text>
<text text-anchor="start" x="572.5" y="-139" font-family="Helvetica,sans-Serif" font-size="10.00">&#45;OS/no&#45;OS/projects/swiot1l</text>
<text text-anchor="start" x="572.5" y="-128" font-family="Helvetica,sans-Serif" font-size="10.00">/src/examples/swiot1l&#45;mqtt</text>
<text text-anchor="middle" x="639.5" y="-117" font-family="Helvetica,sans-Serif" font-size="10.00">/swiot1l_mqtt.c</text>
</a>
</g>
</g>
<!-- Node2 -->
<g id="Node000002" class="node">
<title>Node2</title>
<g id="a_Node000002"><a xlink:href="errno_8h.html" target="_top" xlink:title="Error macro definition for ARM Compiler.">
<polygon fill="white" stroke="#666666" points="51,-74 0,-74 0,-55 51,-55 51,-74"/>
<text text-anchor="middle" x="25.5" y="-62" font-family="Helvetica,sans-Serif" font-size="10.00">errno.h</text>
</a>
</g>
</g>
<!-- Node1&#45;&gt;Node2 -->
<g id="edge1_Node000001_Node000002" class="edge">
<title>Node1&#45;&gt;Node2</title>
<g id="a_edge1_Node000001_Node000002"><a xlink:title=" ">
<path fill="none" stroke="#63b8ff" d="M564.41,-130.48C455.35,-123.16 246.72,-106.36 60.98,-74.04"/>
<polygon fill="#63b8ff" stroke="#63b8ff" points="61.49,-70.58 51.04,-72.29 60.28,-77.47 61.49,-70.58"/>
</a>
</g>
</g>
<!-- Node3 -->
<g id="Node000003" class="node">
<title>Node3</title>
<g id="a_Node000003"><a xlink:title=" ">
<polygon fill="#e0e0e0" stroke="#999999" points="128,-74 69,-74 69,-55 128,-55 128,-74"/>
<text text-anchor="middle" x="98.5" y="-62" font-family="Helvetica,sans-Serif" font-size="10.00">malloc.h</text>
</a>
</g>
</g>
<!-- Node1&#45;&gt;Node3 -->
<g id="edge2_Node000001_Node000003" class="edge">
<title>Node1&#45;&gt;Node3</title>
<g id="a_edge2_Node000001_Node000003"><a xlink:title=" ">
<path fill="none" stroke="#63b8ff" d="M564.34,-128.08C468.02,-118.73 295.72,-100.32 138.58,-74.03"/>
<polygon fill="#63b8ff" stroke="#63b8ff" points="138.7,-70.5 128.25,-72.29 137.53,-77.4 138.7,-70.5"/>
</a>
</g>
</g>
<!-- Node4 -->
<g id="Node000004" class="node">
<title>Node4</title>
<g id="a_Node000004"><a xlink:title=" ">
<polygon fill="#e0e0e0" stroke="#999999" points="408.5,-19 358.5,-19 358.5,0 408.5,0 408.5,-19"/>
<text text-anchor="middle" x="383.5" y="-7" font-family="Helvetica,sans-Serif" font-size="10.00">stdio.h</text>
</a>
</g>
</g>
<!-- Node1&#45;&gt;Node4 -->
<g id="edge3_Node000001_Node000004" class="edge">
<title>Node1&#45;&gt;Node4</title>
<g id="a_edge3_Node000001_Node000004"><a xlink:title=" ">
<path fill="none" stroke="#63b8ff" d="M617.1,-109.94C599.94,-92.19 574.82,-69.12 548.5,-55 506.92,-32.7 453.31,-20.93 418.68,-15.22"/>
<polygon fill="#63b8ff" stroke="#63b8ff" points="418.99,-11.72 408.57,-13.63 417.91,-18.64 418.99,-11.72"/>
</a>
</g>
</g>
<!-- Node5 -->
<g id="Node000005" class="node">
<title>Node5</title>
<g id="a_Node000005"><a xlink:title=" ">
<polygon fill="#e0e0e0" stroke="#999999" points="320,-74 267,-74 267,-55 320,-55 320,-74"/>
<text text-anchor="middle" x="293.5" y="-62" font-family="Helvetica,sans-Serif" font-size="10.00">string.h</text>
</a>
</g>
</g>
<!-- Node1&#45;&gt;Node5 -->
<g id="edge4_Node000001_Node000005" class="edge">
<title>Node1&#45;&gt;Node5</title>
<g id="a_edge4_Node000001_Node000005"><a xlink:title=" ">
<path fill="none" stroke="#63b8ff" d="M564.21,-121.21C503.45,-109.85 415.53,-92.91 330.09,-74.28"/>
<polygon fill="#63b8ff" stroke="#63b8ff" points="330.74,-70.84 320.22,-72.12 329.24,-77.68 330.74,-70.84"/>
</a>
</g>
</g>
<!-- Node6 -->
<g id="Node000006" class="node">
<title>Node6</title>
<g id="a_Node000006"><a xlink:href="swiot1l__mqtt_8h.html" target="_top" xlink:title="Defines the main function for the mqtt example.">
<polygon fill="white" stroke="#666666" points="427,-74 338,-74 338,-55 427,-55 427,-74"/>
<text text-anchor="middle" x="382.5" y="-62" font-family="Helvetica,sans-Serif" font-size="10.00">swiot1l_mqtt.h</text>
</a>
</g>
</g>
<!-- Node1&#45;&gt;Node6 -->
<g id="edge5_Node000001_Node000006" class="edge">
<title>Node1&#45;&gt;Node6</title>
<g id="a_edge5_Node000001_Node000006"><a xlink:title=" ">
<path fill="none" stroke="#63b8ff" d="M564.47,-114.71C518.64,-102.32 461.76,-86.93 423.91,-76.7"/>
<polygon fill="#63b8ff" stroke="#63b8ff" points="424.81,-73.32 414.25,-74.08 422.99,-80.07 424.81,-73.32"/>
</a>
</g>
</g>
<!-- Node7 -->
<g id="Node000007" class="node">
<title>Node7</title>
<g id="a_Node000007"><a xlink:title=" ">
<polygon fill="#e0e0e0" stroke="#999999" points="540,-74 445,-74 445,-55 540,-55 540,-74"/>
<text text-anchor="middle" x="492.5" y="-62" font-family="Helvetica,sans-Serif" font-size="10.00">common_data.h</text>
</a>
</g>
</g>
<!-- Node1&#45;&gt;Node7 -->
<g id="edge6_Node000001_Node000007" class="edge">
<title>Node1&#45;&gt;Node7</title>
<g id="a_edge6_Node000001_Node000007"><a xlink:title=" ">
<path fill="none" stroke="#63b8ff" d="M586.43,-109.91C563.88,-99.25 538.54,-87.27 519.87,-78.44"/>
<polygon fill="#63b8ff" stroke="#63b8ff" points="521.3,-75.25 510.76,-74.14 518.31,-81.57 521.3,-75.25"/>
</a>
</g>
</g>
<!-- Node8 -->
<g id="Node000008" class="node">
<title>Node8</title>
<g id="a_Node000008"><a xlink:href="no__os__util_8h.html" target="_top" xlink:title="Header file of utility functions.">
<polygon fill="white" stroke="#666666" points="1213,-74 1138,-74 1138,-55 1213,-55 1213,-74"/>
<text text-anchor="middle" x="1175.5" y="-62" font-family="Helvetica,sans-Serif" font-size="10.00">no_os_util.h</text>
</a>
</g>
</g>
<!-- Node1&#45;&gt;Node8 -->
<g id="edge7_Node000001_Node000008" class="edge">
<title>Node1&#45;&gt;Node8</title>
<g id="a_edge7_Node000001_Node000008"><a xlink:title=" ">
<path fill="none" stroke="#63b8ff" d="M714.82,-127.02C809.11,-116.71 975.79,-97.46 1127.88,-74.18"/>
<polygon fill="#63b8ff" stroke="#63b8ff" points="1128.52,-77.62 1137.88,-72.64 1127.46,-70.7 1128.52,-77.62"/>
</a>
</g>
</g>
<!-- Node12 -->
<g id="Node000012" class="node">
<title>Node12</title>
<g id="a_Node000012"><a xlink:href="no__os__gpio_8h.html" target="_top" xlink:title="Header file of GPIO Interface.">
<polygon fill="white" stroke="#666666" points="883.5,-74 803.5,-74 803.5,-55 883.5,-55 883.5,-74"/>
<text text-anchor="middle" x="843.5" y="-62" font-family="Helvetica,sans-Serif" font-size="10.00">no_os_gpio.h</text>
</a>
</g>
</g>
<!-- Node1&#45;&gt;Node12 -->
<g id="edge11_Node000001_Node000012" class="edge">
<title>Node1&#45;&gt;Node12</title>
<g id="a_edge11_Node000001_Node000012"><a xlink:title=" ">
<path fill="none" stroke="#63b8ff" d="M713.15,-109.91C745.73,-98.81 782.51,-86.28 808.68,-77.36"/>
<polygon fill="#63b8ff" stroke="#63b8ff" points="809.82,-80.67 818.15,-74.14 807.56,-74.05 809.82,-80.67"/>
</a>
</g>
</g>
<!-- Node13 -->
<g id="Node000013" class="node">
<title>Node13</title>
<g id="a_Node000013"><a xlink:href="no__os__delay_8h.html" target="_top" xlink:title="Header file of Delay functions.">
<polygon fill="white" stroke="#666666" points="785,-74 700,-74 700,-55 785,-55 785,-74"/>
<text text-anchor="middle" x="742.5" y="-62" font-family="Helvetica,sans-Serif" font-size="10.00">no_os_delay.h</text>
</a>
</g>
</g>
<!-- Node1&#45;&gt;Node13 -->
<g id="edge13_Node000001_Node000013" class="edge">
<title>Node1&#45;&gt;Node13</title>
<g id="a_edge13_Node000001_Node000013"><a xlink:title=" ">
<path fill="none" stroke="#63b8ff" d="M676.69,-109.91C691.52,-99.9 708.08,-88.72 720.88,-80.09"/>
<polygon fill="#63b8ff" stroke="#63b8ff" points="723.12,-82.8 729.45,-74.3 719.21,-76.99 723.12,-82.8"/>
</a>
</g>
</g>
<!-- Node14 -->
<g id="Node000014" class="node">
<title>Node14</title>
<g id="a_Node000014"><a xlink:href="no__os__print__log_8h.html" target="_top" xlink:title="Print messages helpers.">
<polygon fill="white" stroke="#666666" points="248.5,-74 146.5,-74 146.5,-55 248.5,-55 248.5,-74"/>
<text text-anchor="middle" x="197.5" y="-62" font-family="Helvetica,sans-Serif" font-size="10.00">no_os_print_log.h</text>
</a>
</g>
</g>
<!-- Node1&#45;&gt;Node14 -->
<g id="edge15_Node000001_Node000014" class="edge">
<title>Node1&#45;&gt;Node14</title>
<g id="a_edge15_Node000001_Node000014"><a xlink:title=" ">
<path fill="none" stroke="#63b8ff" d="M564.27,-123.17C478.01,-109.61 338.27,-87.64 258.49,-75.09"/>
<polygon fill="#63b8ff" stroke="#63b8ff" points="259.02,-71.63 248.6,-73.53 257.93,-78.55 259.02,-71.63"/>
</a>
</g>
</g>
<!-- Node15 -->
<g id="Node000015" class="node">
<title>Node15</title>
<g id="a_Node000015"><a xlink:title=" ">
<polygon fill="#e0e0e0" stroke="#999999" points="983,-74 902,-74 902,-55 983,-55 983,-74"/>
<text text-anchor="middle" x="942.5" y="-62" font-family="Helvetica,sans-Serif" font-size="10.00">mqtt_client.h</text>
</a>
</g>
</g>
<!-- Node1&#45;&gt;Node15 -->
<g id="edge17_Node000001_Node000015" class="edge">
<title>Node1&#45;&gt;Node15</title>
<g id="a_edge17_Node000001_Node000015"><a xlink:title=" ">
<path fill="none" stroke="#63b8ff" d="M714.79,-117.73C771.4,-104.74 847.22,-87.35 895.47,-76.29"/>
<polygon fill="#63b8ff" stroke="#63b8ff" points="896.37,-79.67 905.34,-74.02 894.81,-72.85 896.37,-79.67"/>
</a>
</g>
</g>
<!-- Node16 -->
<g id="Node000016" class="node">
<title>Node16</title>
<g id="a_Node000016"><a xlink:title=" ">
<polygon fill="#e0e0e0" stroke="#999999" points="1120,-74 1001,-74 1001,-55 1120,-55 1120,-74"/>
<text text-anchor="middle" x="1060.5" y="-62" font-family="Helvetica,sans-Serif" font-size="10.00">mqtt_noos_support.h</text>
</a>
</g>
</g>
<!-- Node1&#45;&gt;Node16 -->
<g id="edge18_Node000001_Node000016" class="edge">
<title>Node1&#45;&gt;Node16</title>
<g id="a_edge18_Node000001_Node000016"><a xlink:title=" ">
<path fill="none" stroke="#63b8ff" d="M714.77,-122.57C795.75,-109.21 923.03,-88.19 998.48,-75.74"/>
<polygon fill="#63b8ff" stroke="#63b8ff" points="999.47,-79.12 1008.77,-74.04 998.33,-72.22 999.47,-79.12"/>
</a>
</g>
</g>
<!-- Node17 -->
<g id="Node000017" class="node">
<title>Node17</title>
<g id="a_Node000017"><a xlink:href="no__os__timer_8h.html" target="_top" xlink:title="Timer control module header.">
<polygon fill="white" stroke="#666666" points="682,-74 597,-74 597,-55 682,-55 682,-74"/>
<text text-anchor="middle" x="639.5" y="-62" font-family="Helvetica,sans-Serif" font-size="10.00">no_os_timer.h</text>
</a>
</g>
</g>
<!-- Node1&#45;&gt;Node17 -->
<g id="edge19_Node000001_Node000017" class="edge">
<title>Node1&#45;&gt;Node17</title>
<g id="a_edge19_Node000001_Node000017"><a xlink:title=" ">
<path fill="none" stroke="#63b8ff" d="M639.5,-109.91C639.5,-101.55 639.5,-92.38 639.5,-84.55"/>
<polygon fill="#63b8ff" stroke="#63b8ff" points="643,-84.3 639.5,-74.3 636,-84.3 643,-84.3"/>
</a>
</g>
</g>
<!-- Node18 -->
<g id="Node000018" class="node">
<title>Node18</title>
<g id="a_Node000018"><a xlink:title=" ">
<polygon fill="#e0e0e0" stroke="#999999" points="1314,-74 1231,-74 1231,-55 1314,-55 1314,-74"/>
<text text-anchor="middle" x="1272.5" y="-62" font-family="Helvetica,sans-Serif" font-size="10.00">lwip_socket.h</text>
</a>
</g>
</g>
<!-- Node1&#45;&gt;Node18 -->
<g id="edge21_Node000001_Node000018" class="edge">
<title>Node1&#45;&gt;Node18</title>
<g id="a_edge21_Node000001_Node000018"><a xlink:title=" ">
<path fill="none" stroke="#63b8ff" d="M714.69,-128.69C823.97,-119.16 1033.24,-99.63 1220.75,-74.17"/>
<polygon fill="#63b8ff" stroke="#63b8ff" points="1221.35,-77.62 1230.79,-72.8 1220.41,-70.68 1221.35,-77.62"/>
</a>
</g>
</g>
<!-- Node19 -->
<g id="Node000019" class="node">
<title>Node19</title>
<g id="a_Node000019"><a xlink:title=" ">
<polygon fill="#e0e0e0" stroke="#999999" points="1428.5,-74 1332.5,-74 1332.5,-55 1428.5,-55 1428.5,-74"/>
<text text-anchor="middle" x="1380.5" y="-62" font-family="Helvetica,sans-Serif" font-size="10.00">lwip_adin1110.h</text>
</a>
</g>
</g>
<!-- Node1&#45;&gt;Node19 -->
<g id="edge22_Node000001_Node000019" class="edge">
<title>Node1&#45;&gt;Node19</title>
<g id="a_edge22_Node000001_Node000019"><a xlink:title=" ">
<path fill="none" stroke="#63b8ff" d="M714.55,-129.77C838.75,-120.78 1095.06,-100.88 1322.21,-74.09"/>
<polygon fill="#63b8ff" stroke="#63b8ff" points="1322.81,-77.54 1332.32,-72.89 1321.98,-70.59 1322.81,-77.54"/>
</a>
</g>
</g>
<!-- Node9 -->
<g id="Node000009" class="node">
<title>Node9</title>
<g id="a_Node000009"><a xlink:title=" ">
<polygon fill="#e0e0e0" stroke="#999999" points="819,-19 766,-19 766,0 819,0 819,-19"/>
<text text-anchor="middle" x="792.5" y="-7" font-family="Helvetica,sans-Serif" font-size="10.00">stdint.h</text>
</a>
</g>
</g>
<!-- Node8&#45;&gt;Node9 -->
<g id="edge8_Node000008_Node000009" class="edge">
<title>Node8&#45;&gt;Node9</title>
<g id="a_edge8_Node000008_Node000009"><a xlink:title=" ">
<path fill="none" stroke="#63b8ff" d="M1137.87,-56.38C1135.04,-55.9 1132.23,-55.43 1129.5,-55 1020.68,-37.77 891.34,-22 829.29,-14.73"/>
<polygon fill="#63b8ff" stroke="#63b8ff" points="829.55,-11.24 819.22,-13.55 828.74,-18.19 829.55,-11.24"/>
</a>
</g>
</g>
<!-- Node10 -->
<g id="Node000010" class="node">
<title>Node10</title>
<g id="a_Node000010"><a xlink:title=" ">
<polygon fill="#e0e0e0" stroke="#999999" points="1164,-19 1111,-19 1111,0 1164,0 1164,-19"/>
<text text-anchor="middle" x="1137.5" y="-7" font-family="Helvetica,sans-Serif" font-size="10.00">stdlib.h</text>
</a>
</g>
</g>
<!-- Node8&#45;&gt;Node10 -->
<g id="edge9_Node000008_Node000010" class="edge">
<title>Node8&#45;&gt;Node10</title>
<g id="a_edge9_Node000008_Node000010"><a xlink:title=" ">
<path fill="none" stroke="#63b8ff" d="M1169.23,-54.75C1163.91,-47.34 1156.14,-36.5 1149.62,-27.41"/>
<polygon fill="#63b8ff" stroke="#63b8ff" points="1152.33,-25.18 1143.66,-19.09 1146.64,-29.26 1152.33,-25.18"/>
</a>
</g>
</g>
<!-- Node11 -->
<g id="Node000011" class="node">
<title>Node11</title>
<g id="a_Node000011"><a xlink:title=" ">
<polygon fill="#e0e0e0" stroke="#999999" points="1244.5,-19 1182.5,-19 1182.5,0 1244.5,0 1244.5,-19"/>
<text text-anchor="middle" x="1213.5" y="-7" font-family="Helvetica,sans-Serif" font-size="10.00">stdbool.h</text>
</a>
</g>
</g>
<!-- Node8&#45;&gt;Node11 -->
<g id="edge10_Node000008_Node000011" class="edge">
<title>Node8&#45;&gt;Node11</title>
<g id="a_edge10_Node000008_Node000011"><a xlink:title=" ">
<path fill="none" stroke="#63b8ff" d="M1181.77,-54.75C1187.09,-47.34 1194.86,-36.5 1201.38,-27.41"/>
<polygon fill="#63b8ff" stroke="#63b8ff" points="1204.36,-29.26 1207.34,-19.09 1198.67,-25.18 1204.36,-29.26"/>
</a>
</g>
</g>
<!-- Node12&#45;&gt;Node9 -->
<g id="edge12_Node000012_Node000009" class="edge">
<title>Node12&#45;&gt;Node9</title>
<g id="a_edge12_Node000012_Node000009"><a xlink:title=" ">
<path fill="none" stroke="#63b8ff" d="M835.08,-54.75C827.73,-47.11 816.87,-35.82 807.96,-26.56"/>
<polygon fill="#63b8ff" stroke="#63b8ff" points="810.22,-23.87 800.76,-19.09 805.18,-28.72 810.22,-23.87"/>
</a>
</g>
</g>
<!-- Node13&#45;&gt;Node9 -->
<g id="edge14_Node000013_Node000009" class="edge">
<title>Node13&#45;&gt;Node9</title>
<g id="a_edge14_Node000013_Node000009"><a xlink:title=" ">
<path fill="none" stroke="#63b8ff" d="M750.76,-54.75C757.96,-47.11 768.61,-35.82 777.35,-26.56"/>
<polygon fill="#63b8ff" stroke="#63b8ff" points="780.08,-28.76 784.4,-19.09 774.99,-23.96 780.08,-28.76"/>
</a>
</g>
</g>
<!-- Node14&#45;&gt;Node4 -->
<g id="edge16_Node000014_Node000004" class="edge">
<title>Node14&#45;&gt;Node4</title>
<g id="a_edge16_Node000014_Node000004"><a xlink:title=" ">
<path fill="none" stroke="#63b8ff" d="M227.38,-54.98C260.47,-45.56 313.74,-30.38 348.68,-20.42"/>
<polygon fill="#63b8ff" stroke="#63b8ff" points="349.8,-23.74 358.46,-17.63 347.88,-17.01 349.8,-23.74"/>
</a>
</g>
</g>
<!-- Node17&#45;&gt;Node9 -->
<g id="edge20_Node000017_Node000009" class="edge">
<title>Node17&#45;&gt;Node9</title>
<g id="a_edge20_Node000017_Node000009"><a xlink:title=" ">
<path fill="none" stroke="#63b8ff" d="M664.08,-54.98C689.55,-46.16 729.54,-32.31 758.13,-22.41"/>
<polygon fill="#63b8ff" stroke="#63b8ff" points="759.42,-25.66 767.73,-19.08 757.13,-19.05 759.42,-25.66"/>
</a>
</g>
</g>
</g>
</svg>
