<?xml version="1.0" encoding="UTF-8" standalone="no"?>
<!DOCTYPE svg PUBLIC "-//W3C//DTD SVG 1.1//EN"
 "http://www.w3.org/Graphics/SVG/1.1/DTD/svg11.dtd">
<!-- Generated by graphviz version 2.43.0 (0)
 -->
<!-- Title: /home/runner/work/no&#45;OS/no&#45;OS/projects/ad9371/src/devices/mykonos/t_mykonos_gpio.h Pages: 1 -->
<svg width="1432pt" height="225pt"
 viewBox="0.00 0.00 1431.50 225.00" xmlns="http://www.w3.org/2000/svg" xmlns:xlink="http://www.w3.org/1999/xlink">
<g id="graph0" class="graph" transform="scale(1 1) rotate(0) translate(4 221)">
<title>/home/runner/work/no&#45;OS/no&#45;OS/projects/ad9371/src/devices/mykonos/t_mykonos_gpio.h</title>
<!-- Node1 -->
<g id="Node000001" class="node">
<title>Node1</title>
<g id="a_Node000001"><a xlink:title="Mykonos GPIO error handling and type defines.">
<polygon fill="#999999" stroke="#666666" points="639.5,-217 426.5,-217 426.5,-176 639.5,-176 639.5,-217"/>
<text text-anchor="start" x="434.5" y="-205" font-family="Helvetica,sans-Serif" font-size="10.00">/home/runner/work/no</text>
<text text-anchor="start" x="434.5" y="-194" font-family="Helvetica,sans-Serif" font-size="10.00">&#45;OS/no&#45;OS/projects/ad9371</text>
<text text-anchor="middle" x="533" y="-183" font-family="Helvetica,sans-Serif" font-size="10.00">/src/devices/mykonos/t_mykonos_gpio.h</text>
</a>
</g>
</g>
<!-- Node2 -->
<g id="Node000002" class="node">
<title>Node2</title>
<g id="a_Node000002"><a xlink:href="profiles_2tx__bw100__orx__bw100__rx__bw100_2myk_8c.html" target="_top" xlink:title=" ">
<polygon fill="white" stroke="#666666" points="164,-140 0,-140 0,-88 164,-88 164,-140"/>
<text text-anchor="start" x="8" y="-128" font-family="Helvetica,sans-Serif" font-size="10.00">/home/runner/work/no</text>
<text text-anchor="start" x="8" y="-117" font-family="Helvetica,sans-Serif" font-size="10.00">&#45;OS/no&#45;OS/projects/ad9371</text>
<text text-anchor="start" x="8" y="-106" font-family="Helvetica,sans-Serif" font-size="10.00">/profiles/tx_bw100_orx_bw100</text>
<text text-anchor="middle" x="82" y="-95" font-family="Helvetica,sans-Serif" font-size="10.00">_rx_bw100/myk.c</text>
</a>
</g>
</g>
<!-- Node1&#45;&gt;Node2 -->
<g id="edge1_Node000001_Node000002" class="edge">
<title>Node1&#45;&gt;Node2</title>
<g id="a_edge1_Node000001_Node000002"><a xlink:title=" ">
<path fill="none" stroke="#63b8ff" d="M416.2,-180.96C345.45,-171.3 253.6,-157.23 173,-140 170.12,-139.38 167.19,-138.73 164.24,-138.05"/>
<polygon fill="#63b8ff" stroke="#63b8ff" points="416.1,-184.48 426.48,-182.36 417.04,-177.54 416.1,-184.48"/>
</a>
</g>
</g>
<!-- Node3 -->
<g id="Node000003" class="node">
<title>Node3</title>
<g id="a_Node000003"><a xlink:href="profiles_2tx__bw100__orx__bw100__rx__bw40_2myk_8c.html" target="_top" xlink:title=" ">
<polygon fill="white" stroke="#666666" points="346,-140 182,-140 182,-88 346,-88 346,-140"/>
<text text-anchor="start" x="190" y="-128" font-family="Helvetica,sans-Serif" font-size="10.00">/home/runner/work/no</text>
<text text-anchor="start" x="190" y="-117" font-family="Helvetica,sans-Serif" font-size="10.00">&#45;OS/no&#45;OS/projects/ad9371</text>
<text text-anchor="start" x="190" y="-106" font-family="Helvetica,sans-Serif" font-size="10.00">/profiles/tx_bw100_orx_bw100</text>
<text text-anchor="middle" x="264" y="-95" font-family="Helvetica,sans-Serif" font-size="10.00">_rx_bw40/myk.c</text>
</a>
</g>
</g>
<!-- Node1&#45;&gt;Node3 -->
<g id="edge2_Node000001_Node000003" class="edge">
<title>Node1&#45;&gt;Node3</title>
<g id="a_edge2_Node000001_Node000003"><a xlink:title=" ">
<path fill="none" stroke="#63b8ff" d="M457.92,-173.03C423.16,-162.63 381.77,-150.24 346.17,-139.59"/>
<polygon fill="#63b8ff" stroke="#63b8ff" points="456.96,-176.4 467.54,-175.91 458.96,-169.69 456.96,-176.4"/>
</a>
</g>
</g>
<!-- Node4 -->
<g id="Node000004" class="node">
<title>Node4</title>
<g id="a_Node000004"><a xlink:href="profiles_2tx__bw200__orx__bw200__rx__bw100_2myk_8c.html" target="_top" xlink:title=" ">
<polygon fill="white" stroke="#666666" points="528,-140 364,-140 364,-88 528,-88 528,-140"/>
<text text-anchor="start" x="372" y="-128" font-family="Helvetica,sans-Serif" font-size="10.00">/home/runner/work/no</text>
<text text-anchor="start" x="372" y="-117" font-family="Helvetica,sans-Serif" font-size="10.00">&#45;OS/no&#45;OS/projects/ad9371</text>
<text text-anchor="start" x="372" y="-106" font-family="Helvetica,sans-Serif" font-size="10.00">/profiles/tx_bw200_orx_bw200</text>
<text text-anchor="middle" x="446" y="-95" font-family="Helvetica,sans-Serif" font-size="10.00">_rx_bw100/myk.c</text>
</a>
</g>
</g>
<!-- Node1&#45;&gt;Node4 -->
<g id="edge3_Node000001_Node000004" class="edge">
<title>Node1&#45;&gt;Node4</title>
<g id="a_edge3_Node000001_Node000004"><a xlink:title=" ">
<path fill="none" stroke="#63b8ff" d="M504.13,-168.79C494.16,-159.56 483.02,-149.26 473.19,-140.16"/>
<polygon fill="#63b8ff" stroke="#63b8ff" points="501.78,-171.38 511.49,-175.6 506.53,-166.24 501.78,-171.38"/>
</a>
</g>
</g>
<!-- Node5 -->
<g id="Node000005" class="node">
<title>Node5</title>
<g id="a_Node000005"><a xlink:href="src_2app_2myk_8c.html" target="_top" xlink:title=" ">
<polygon fill="white" stroke="#666666" points="693.5,-134.5 546.5,-134.5 546.5,-93.5 693.5,-93.5 693.5,-134.5"/>
<text text-anchor="start" x="554.5" y="-122.5" font-family="Helvetica,sans-Serif" font-size="10.00">/home/runner/work/no</text>
<text text-anchor="start" x="554.5" y="-111.5" font-family="Helvetica,sans-Serif" font-size="10.00">&#45;OS/no&#45;OS/projects/ad9371</text>
<text text-anchor="middle" x="620" y="-100.5" font-family="Helvetica,sans-Serif" font-size="10.00">/src/app/myk.c</text>
</a>
</g>
</g>
<!-- Node1&#45;&gt;Node5 -->
<g id="edge4_Node000001_Node000005" class="edge">
<title>Node1&#45;&gt;Node5</title>
<g id="a_edge4_Node000001_Node000005"><a xlink:title=" ">
<path fill="none" stroke="#63b8ff" d="M562.1,-168.57C574.09,-157.48 587.72,-144.87 598.74,-134.67"/>
<polygon fill="#63b8ff" stroke="#63b8ff" points="559.47,-166.24 554.51,-175.6 564.22,-171.38 559.47,-166.24"/>
</a>
</g>
</g>
<!-- Node6 -->
<g id="Node000006" class="node">
<title>Node6</title>
<g id="a_Node000006"><a xlink:href="mykonos__dbgjesd_8h.html" target="_top" xlink:title="Contains macro definitions and global structure declarations for mykonos_dbgjesd.c.">
<polygon fill="white" stroke="#666666" points="880.5,-140 711.5,-140 711.5,-88 880.5,-88 880.5,-140"/>
<text text-anchor="start" x="719.5" y="-128" font-family="Helvetica,sans-Serif" font-size="10.00">/home/runner/work/no</text>
<text text-anchor="start" x="719.5" y="-117" font-family="Helvetica,sans-Serif" font-size="10.00">&#45;OS/no&#45;OS/projects/ad9371</text>
<text text-anchor="start" x="719.5" y="-106" font-family="Helvetica,sans-Serif" font-size="10.00">/src/devices/mykonos/mykonos</text>
<text text-anchor="middle" x="796" y="-95" font-family="Helvetica,sans-Serif" font-size="10.00">_debug/mykonos_dbgjesd.h</text>
</a>
</g>
</g>
<!-- Node1&#45;&gt;Node6 -->
<g id="edge5_Node000001_Node000006" class="edge">
<title>Node1&#45;&gt;Node6</title>
<g id="a_edge5_Node000001_Node000006"><a xlink:title=" ">
<path fill="none" stroke="#63b8ff" d="M606.71,-172.94C640.16,-162.7 679.83,-150.56 714.2,-140.04"/>
<polygon fill="#63b8ff" stroke="#63b8ff" points="605.54,-169.64 597,-175.91 607.59,-176.33 605.54,-169.64"/>
</a>
</g>
</g>
<!-- Node8 -->
<g id="Node000008" class="node">
<title>Node8</title>
<g id="a_Node000008"><a xlink:href="mykonos__gpio_8h.html" target="_top" xlink:title="Contains macro definitions and function prototypes for mykonos_gpio.c.">
<polygon fill="white" stroke="#666666" points="1178,-134.5 974,-134.5 974,-93.5 1178,-93.5 1178,-134.5"/>
<text text-anchor="start" x="982" y="-122.5" font-family="Helvetica,sans-Serif" font-size="10.00">/home/runner/work/no</text>
<text text-anchor="start" x="982" y="-111.5" font-family="Helvetica,sans-Serif" font-size="10.00">&#45;OS/no&#45;OS/projects/ad9371</text>
<text text-anchor="middle" x="1076" y="-100.5" font-family="Helvetica,sans-Serif" font-size="10.00">/src/devices/mykonos/mykonos_gpio.h</text>
</a>
</g>
</g>
<!-- Node1&#45;&gt;Node8 -->
<g id="edge7_Node000001_Node000008" class="edge">
<title>Node1&#45;&gt;Node8</title>
<g id="a_edge7_Node000001_Node000008"><a xlink:title=" ">
<path fill="none" stroke="#63b8ff" d="M649.71,-178.2C746.1,-163.91 881.57,-143.82 973.75,-130.16"/>
<polygon fill="#63b8ff" stroke="#63b8ff" points="649.01,-174.76 639.63,-179.69 650.04,-181.69 649.01,-174.76"/>
</a>
</g>
</g>
<!-- Node7 -->
<g id="Node000007" class="node">
<title>Node7</title>
<g id="a_Node000007"><a xlink:href="mykonos__dbgjesd_8c.html" target="_top" xlink:title="Contains Mykonos APIs for Jesd debug facilities.">
<polygon fill="white" stroke="#666666" points="842.5,-52 673.5,-52 673.5,0 842.5,0 842.5,-52"/>
<text text-anchor="start" x="681.5" y="-40" font-family="Helvetica,sans-Serif" font-size="10.00">/home/runner/work/no</text>
<text text-anchor="start" x="681.5" y="-29" font-family="Helvetica,sans-Serif" font-size="10.00">&#45;OS/no&#45;OS/projects/ad9371</text>
<text text-anchor="start" x="681.5" y="-18" font-family="Helvetica,sans-Serif" font-size="10.00">/src/devices/mykonos/mykonos</text>
<text text-anchor="middle" x="758" y="-7" font-family="Helvetica,sans-Serif" font-size="10.00">_debug/mykonos_dbgjesd.c</text>
</a>
</g>
</g>
<!-- Node6&#45;&gt;Node7 -->
<g id="edge6_Node000006_Node000007" class="edge">
<title>Node6&#45;&gt;Node7</title>
<g id="a_edge6_Node000006_Node000007"><a xlink:title=" ">
<path fill="none" stroke="#63b8ff" d="M780.71,-78.4C776.83,-69.63 772.74,-60.36 769.12,-52.16"/>
<polygon fill="#63b8ff" stroke="#63b8ff" points="777.56,-79.93 784.8,-87.66 783.96,-77.1 777.56,-79.93"/>
</a>
</g>
</g>
<!-- Node9 -->
<g id="Node000009" class="node">
<title>Node9</title>
<g id="a_Node000009"><a xlink:href="ad9371_2src_2app_2headless_8c.html" target="_top" xlink:title="Implementation of Main Function.">
<polygon fill="white" stroke="#666666" points="1007.5,-46.5 860.5,-46.5 860.5,-5.5 1007.5,-5.5 1007.5,-46.5"/>
<text text-anchor="start" x="868.5" y="-34.5" font-family="Helvetica,sans-Serif" font-size="10.00">/home/runner/work/no</text>
<text text-anchor="start" x="868.5" y="-23.5" font-family="Helvetica,sans-Serif" font-size="10.00">&#45;OS/no&#45;OS/projects/ad9371</text>
<text text-anchor="middle" x="934" y="-12.5" font-family="Helvetica,sans-Serif" font-size="10.00">/src/app/headless.c</text>
</a>
</g>
</g>
<!-- Node8&#45;&gt;Node9 -->
<g id="edge8_Node000008_Node000009" class="edge">
<title>Node8&#45;&gt;Node9</title>
<g id="a_edge8_Node000008_Node000009"><a xlink:title=" ">
<path fill="none" stroke="#63b8ff" d="M1035.08,-88.22C1013.32,-75.04 986.94,-59.06 966.59,-46.74"/>
<polygon fill="#63b8ff" stroke="#63b8ff" points="1033.41,-91.3 1043.78,-93.49 1037.04,-85.31 1033.41,-91.3"/>
</a>
</g>
</g>
<!-- Node10 -->
<g id="Node000010" class="node">
<title>Node10</title>
<g id="a_Node000010"><a xlink:href="mykonos_8c.html" target="_top" xlink:title="Contains Mykonos APIs for transceiver configuration and control.">
<polygon fill="white" stroke="#666666" points="1202.5,-46.5 1025.5,-46.5 1025.5,-5.5 1202.5,-5.5 1202.5,-46.5"/>
<text text-anchor="start" x="1033.5" y="-34.5" font-family="Helvetica,sans-Serif" font-size="10.00">/home/runner/work/no</text>
<text text-anchor="start" x="1033.5" y="-23.5" font-family="Helvetica,sans-Serif" font-size="10.00">&#45;OS/no&#45;OS/projects/ad9371</text>
<text text-anchor="middle" x="1114" y="-12.5" font-family="Helvetica,sans-Serif" font-size="10.00">/src/devices/mykonos/mykonos.c</text>
</a>
</g>
</g>
<!-- Node8&#45;&gt;Node10 -->
<g id="edge9_Node000008_Node000010" class="edge">
<title>Node8&#45;&gt;Node10</title>
<g id="a_edge9_Node000008_Node000010"><a xlink:title=" ">
<path fill="none" stroke="#63b8ff" d="M1088.77,-84.09C1094.2,-71.81 1100.39,-57.8 1105.28,-46.74"/>
<polygon fill="#63b8ff" stroke="#63b8ff" points="1085.46,-82.92 1084.62,-93.49 1091.87,-85.75 1085.46,-82.92"/>
</a>
</g>
</g>
<!-- Node11 -->
<g id="Node000011" class="node">
<title>Node11</title>
<g id="a_Node000011"><a xlink:href="mykonos__gpio_8c.html" target="_top" xlink:title="Contains Mykonos APIs for transceiver GPIO configuration and control.">
<polygon fill="white" stroke="#666666" points="1423.5,-46.5 1220.5,-46.5 1220.5,-5.5 1423.5,-5.5 1423.5,-46.5"/>
<text text-anchor="start" x="1228.5" y="-34.5" font-family="Helvetica,sans-Serif" font-size="10.00">/home/runner/work/no</text>
<text text-anchor="start" x="1228.5" y="-23.5" font-family="Helvetica,sans-Serif" font-size="10.00">&#45;OS/no&#45;OS/projects/ad9371</text>
<text text-anchor="middle" x="1322" y="-12.5" font-family="Helvetica,sans-Serif" font-size="10.00">/src/devices/mykonos/mykonos_gpio.c</text>
</a>
</g>
</g>
<!-- Node8&#45;&gt;Node11 -->
<g id="edge10_Node000008_Node000011" class="edge">
<title>Node8&#45;&gt;Node11</title>
<g id="a_edge10_Node000008_Node000011"><a xlink:title=" ">
<path fill="none" stroke="#63b8ff" d="M1141.46,-90.11C1180.27,-76.55 1228.95,-59.53 1265.97,-46.59"/>
<polygon fill="#63b8ff" stroke="#63b8ff" points="1140.11,-86.88 1131.82,-93.49 1142.42,-93.49 1140.11,-86.88"/>
</a>
</g>
</g>
</g>
</svg>
