<?xml version="1.0" encoding="UTF-8" standalone="no"?>
<!DOCTYPE svg PUBLIC "-//W3C//DTD SVG 1.1//EN"
 "http://www.w3.org/Graphics/SVG/1.1/DTD/svg11.dtd">
<!-- Generated by graphviz version 2.43.0 (0)
 -->
<!-- Title: tmc5240_reg_write Pages: 1 -->
<!--zoomable 678 -->

<svg id="main" version="1.1" xmlns="http://www.w3.org/2000/svg" xmlns:xlink="http://www.w3.org/1999/xlink" xml:space="preserve" onload="init(evt)">

<style type="text/css"><![CDATA[
.node, .edge {opacity: 0.7;}
.node.selected, .edge.selected {opacity: 1;}
.edge:hover path { stroke: red; }
.edge:hover polygon { stroke: red; fill: red; }
]]></style>

<defs>
  <circle id="rim" cx="0" cy="0" r="7"/>
  <circle id="rim2" cx="0" cy="0" r="3.5"/>
  <g id="zoomPlus">
    <use xlink:href="#rim" fill="#404040"><set attributeName="fill" to="#808080" begin="zoomplus.mouseover" end="zoomplus.mouseout"/></use>
    <path d="M-4,0h8M0,-4v8" fill="none" stroke="white" stroke-width="1.5" pointer-events="none"/>
  </g>
  <g id="zoomMin">
    <use xlink:href="#rim" fill="#404040"><set attributeName="fill" to="#808080" begin="zoomminus.mouseover" end="zoomminus.mouseout"/></use>
    <path d="M-4,0h8" fill="none" stroke="white" stroke-width="1.5" pointer-events="none"/>
  </g>
  <g id="arrowUp" transform="translate(30 24)">
    <use xlink:href="#rim"/>
    <path pointer-events="none" fill="none" stroke="white" stroke-width="1.5" d="M0,-3.0v7 M-2.5,-0.5L0,-3.0L2.5,-0.5"/>
  </g>
  <g id="arrowRight" transform="rotate(90) translate(36 -43)">
    <use xlink:href="#rim"/>
    <path pointer-events="none" fill="none" stroke="white" stroke-width="1.5" d="M0,-3.0v7 M-2.5,-0.5L0,-3.0L2.5,-0.5"/>
  </g>
  <g id="arrowDown" transform="rotate(180) translate(-30 -48)">
    <use xlink:href="#rim"/>
    <path pointer-events="none" fill="none" stroke="white" stroke-width="1.5" d="M0,-3.0v7 M-2.5,-0.5L0,-3.0L2.5,-0.5"/>
  </g>
  <g id="arrowLeft" transform="rotate(270) translate(-36 17)">
    <use xlink:href="#rim"/>
    <path pointer-events="none" fill="none" stroke="white" stroke-width="1.5" d="M0,-3.0v7 M-2.5,-0.5L0,-3.0L2.5,-0.5"/>
  </g>
  <g id="resetDef">
    <use xlink:href="#rim2" fill="#404040"><set attributeName="fill" to="#808080" begin="reset.mouseover" end="reset.mouseout"/></use>
  </g>
</defs>
<script type="application/ecmascript">
var viewWidth = 766;
var viewHeight = 678;
var sectionId = 'dynsection-5';
</script>
<script type="application/ecmascript" xlink:href="svg.min.js"/>
<svg id="graph" class="graph">
<g id="viewport">
<title>tmc5240_reg_write</title>
<!-- Node1 -->
<g id="Node000001" class="node">
<title>Node1</title>
<g id="a_Node000001"><a xlink:title="Writes data to a given TMC5240 Register.">
<polygon fill="#999999" stroke="#666666" points="758,-335 648,-335 648,-316 758,-316 758,-335"/>
<text text-anchor="middle" x="703" y="-323" font-family="Helvetica,sans-Serif" font-size="10.00">tmc5240_reg_write</text>
</a>
</g>
</g>
<!-- Node2 -->
<g id="Node000002" class="node">
<title>Node2</title>
<g id="a_Node000002"><a xlink:href="tmc5240_8c.html#aee47c5f3e6fae0b1aa0c16fe53c1a353" target="_top" xlink:title="Initialize the TMC5240 device.">
<polygon fill="white" stroke="#666666" points="242.5,-614 162.5,-614 162.5,-595 242.5,-595 242.5,-614"/>
<text text-anchor="middle" x="202.5" y="-602" font-family="Helvetica,sans-Serif" font-size="10.00">tmc5240_init</text>
</a>
</g>
</g>
<!-- Node1&#45;&gt;Node2 -->
<g id="edge1_Node000001_Node000002" class="edge">
<title>Node1&#45;&gt;Node2</title>
<g id="a_edge1_Node000001_Node000002"><a xlink:title=" ">
<path fill="none" stroke="#63b8ff" d="M702.05,-345.34C700.96,-395.37 690.44,-526.86 612,-585.5 554.57,-628.44 333.43,-615.44 242.69,-608.05"/>
<polygon fill="#63b8ff" stroke="#63b8ff" points="705.55,-345.24 702.15,-335.21 698.55,-345.17 705.55,-345.24"/>
</a>
</g>
</g>
<!-- Node4 -->
<g id="Node000004" class="node">
<title>Node4</title>
<g id="a_Node000004"><a xlink:href="tmc5240_8c.html#a1212166c7f60f4e3a8de585da7942969" target="_top" xlink:title="Read&#45;modify&#45;write a TMC5240 register.">
<polygon fill="white" stroke="#666666" points="600.5,-652 481.5,-652 481.5,-633 600.5,-633 600.5,-652"/>
<text text-anchor="middle" x="541" y="-640" font-family="Helvetica,sans-Serif" font-size="10.00">tmc5240_reg_update</text>
</a>
</g>
</g>
<!-- Node1&#45;&gt;Node4 -->
<g id="edge3_Node000001_Node000004" class="edge">
<title>Node1&#45;&gt;Node4</title>
<g id="a_edge3_Node000001_Node000004"><a xlink:title=" ">
<path fill="none" stroke="#63b8ff" d="M701.78,-345.36C700.11,-397.48 688.4,-539.6 612,-618.5 605.83,-624.87 597.91,-629.55 589.61,-632.99"/>
<polygon fill="#63b8ff" stroke="#63b8ff" points="705.28,-345.22 702.01,-335.14 698.28,-345.06 705.28,-345.22"/>
</a>
</g>
</g>
<!-- Node6 -->
<g id="Node000006" class="node">
<title>Node6</title>
<g id="a_Node000006"><a xlink:href="tmc5240_8c.html#a7cf07192f29ad57781e737a5c5ea9352" target="_top" xlink:title="Set the first acceleration phase (A1) value.">
<polygon fill="white" stroke="#666666" points="589.5,-206 492.5,-206 492.5,-187 589.5,-187 589.5,-206"/>
<text text-anchor="middle" x="541" y="-194" font-family="Helvetica,sans-Serif" font-size="10.00">tmc5240_set_a1</text>
</a>
</g>
</g>
<!-- Node1&#45;&gt;Node6 -->
<g id="edge6_Node000001_Node000006" class="edge">
<title>Node1&#45;&gt;Node6</title>
<g id="a_edge6_Node000001_Node000006"><a xlink:title=" ">
<path fill="none" stroke="#63b8ff" d="M692.03,-306.9C677.69,-281.98 648.86,-238.16 612,-214.5 605.24,-210.16 597.49,-206.87 589.66,-204.37"/>
<polygon fill="#63b8ff" stroke="#63b8ff" points="689.03,-308.71 696.96,-315.74 695.14,-305.3 689.03,-308.71"/>
</a>
</g>
</g>
<!-- Node8 -->
<g id="Node000008" class="node">
<title>Node8</title>
<g id="a_Node000008"><a xlink:href="tmc5240_8c.html#a8d6e86fa5f27fb8fd23dafb1c59a1824" target="_top" xlink:title="Set the target position for the TMC5240 motor driver.">
<polygon fill="white" stroke="#666666" points="271,-206 134,-206 134,-187 271,-187 271,-206"/>
<text text-anchor="middle" x="202.5" y="-194" font-family="Helvetica,sans-Serif" font-size="10.00">tmc5240_set_target_pos</text>
</a>
</g>
</g>
<!-- Node1&#45;&gt;Node8 -->
<g id="edge22_Node000001_Node000008" class="edge">
<title>Node1&#45;&gt;Node8</title>
<g id="a_edge22_Node000001_Node000008"><a xlink:title=" ">
<path fill="none" stroke="#63b8ff" d="M702.18,-305.85C701.45,-255.75 691.72,-123.19 612,-66.5 475.53,30.55 263.39,-143.42 214.02,-186.97"/>
<polygon fill="#63b8ff" stroke="#63b8ff" points="698.68,-306 702.22,-315.99 705.68,-305.97 698.68,-306"/>
</a>
</g>
</g>
<!-- Node9 -->
<g id="Node000009" class="node">
<title>Node9</title>
<g id="a_Node000009"><a xlink:href="tmc5240_8c.html#aba8a52aef9dd96141d97b2435660ca36" target="_top" xlink:title="Set the second acceleration phase (A2) value.">
<polygon fill="white" stroke="#666666" points="589.5,-169 492.5,-169 492.5,-150 589.5,-150 589.5,-169"/>
<text text-anchor="middle" x="541" y="-157" font-family="Helvetica,sans-Serif" font-size="10.00">tmc5240_set_a2</text>
</a>
</g>
</g>
<!-- Node1&#45;&gt;Node9 -->
<g id="edge10_Node000001_Node000009" class="edge">
<title>Node1&#45;&gt;Node9</title>
<g id="a_edge10_Node000001_Node000009"><a xlink:title=" ">
<path fill="none" stroke="#63b8ff" d="M695.73,-306.28C684.34,-274.44 657.14,-210.97 612,-177.5 605.45,-172.64 597.71,-169.09 589.81,-166.49"/>
<polygon fill="#63b8ff" stroke="#63b8ff" points="692.43,-307.45 698.99,-315.77 699.05,-305.18 692.43,-307.45"/>
</a>
</g>
</g>
<!-- Node10 -->
<g id="Node000010" class="node">
<title>Node10</title>
<g id="a_Node000010"><a xlink:href="tmc5240_8c.html#a84cfc9b722f2ee0b56eaa0120d4a1633" target="_top" xlink:title="Set the maximum acceleration (AMAX) value.">
<polygon fill="white" stroke="#666666" points="597.5,-132 484.5,-132 484.5,-113 597.5,-113 597.5,-132"/>
<text text-anchor="middle" x="541" y="-120" font-family="Helvetica,sans-Serif" font-size="10.00">tmc5240_set_amax</text>
</a>
</g>
</g>
<!-- Node1&#45;&gt;Node10 -->
<g id="edge12_Node000001_Node000010" class="edge">
<title>Node1&#45;&gt;Node10</title>
<g id="a_edge12_Node000001_Node000010"><a xlink:title=" ">
<path fill="none" stroke="#63b8ff" d="M698.15,-305.83C689.65,-267.85 665.63,-184.3 612,-140.5 607.72,-137.01 602.85,-134.18 597.71,-131.9"/>
<polygon fill="#63b8ff" stroke="#63b8ff" points="694.73,-306.61 700.22,-315.67 701.58,-305.16 694.73,-306.61"/>
</a>
</g>
</g>
<!-- Node11 -->
<g id="Node000011" class="node">
<title>Node11</title>
<g id="a_Node000011"><a xlink:href="tmc5240_8c.html#acee33e8108eb3467c884b6835b0c1a73" target="_top" xlink:title="Replace the current position of the motor with a new absolute position value.">
<polygon fill="white" stroke="#666666" points="612,-428 470,-428 470,-409 612,-409 612,-428"/>
<text text-anchor="middle" x="541" y="-416" font-family="Helvetica,sans-Serif" font-size="10.00">tmc5240_set_current_pos</text>
</a>
</g>
</g>
<!-- Node1&#45;&gt;Node11 -->
<g id="edge14_Node000001_Node000011" class="edge">
<title>Node1&#45;&gt;Node11</title>
<g id="a_edge14_Node000001_Node000011"><a xlink:title=" ">
<path fill="none" stroke="#63b8ff" d="M685.97,-342.75C669.13,-359.85 641.09,-385.6 612,-400.5 605.41,-403.87 598.14,-406.65 590.85,-408.92"/>
<polygon fill="#63b8ff" stroke="#63b8ff" points="688.88,-344.77 693.29,-335.13 683.83,-339.91 688.88,-344.77"/>
</a>
</g>
</g>
<!-- Node12 -->
<g id="Node000012" class="node">
<title>Node12</title>
<g id="a_Node000012"><a xlink:href="tmc5240_8c.html#a3162f2cc9ca4a3af91edfceca71a1a9b" target="_top" xlink:title="Set the first deceleration phase (D1) value.">
<polygon fill="white" stroke="#666666" points="589.5,-95 492.5,-95 492.5,-76 589.5,-76 589.5,-95"/>
<text text-anchor="middle" x="541" y="-83" font-family="Helvetica,sans-Serif" font-size="10.00">tmc5240_set_d1</text>
</a>
</g>
</g>
<!-- Node1&#45;&gt;Node12 -->
<g id="edge15_Node000001_Node000012" class="edge">
<title>Node1&#45;&gt;Node12</title>
<g id="a_edge15_Node000001_Node000012"><a xlink:title=" ">
<path fill="none" stroke="#63b8ff" d="M699.88,-305.62C694.16,-262.12 674.36,-158.04 612,-103.5 605.67,-97.96 597.86,-94.09 589.78,-91.4"/>
<polygon fill="#63b8ff" stroke="#63b8ff" points="696.43,-306.24 701.1,-315.75 703.38,-305.4 696.43,-306.24"/>
</a>
</g>
</g>
<!-- Node13 -->
<g id="Node000013" class="node">
<title>Node13</title>
<g id="a_Node000013"><a xlink:href="tmc5240_8c.html#ab35dda65aaf553604f654ff5442c1b73" target="_top" xlink:title="Set the second deceleration phase (D2) value.">
<polygon fill="white" stroke="#666666" points="589.5,-576 492.5,-576 492.5,-557 589.5,-557 589.5,-576"/>
<text text-anchor="middle" x="541" y="-564" font-family="Helvetica,sans-Serif" font-size="10.00">tmc5240_set_d2</text>
</a>
</g>
</g>
<!-- Node1&#45;&gt;Node13 -->
<g id="edge17_Node000001_Node000013" class="edge">
<title>Node1&#45;&gt;Node13</title>
<g id="a_edge17_Node000001_Node000013"><a xlink:title=" ">
<path fill="none" stroke="#63b8ff" d="M699.91,-345.47C694.25,-389.16 674.55,-493.7 612,-548.5 605.68,-554.04 597.87,-557.91 589.79,-560.61"/>
<polygon fill="#63b8ff" stroke="#63b8ff" points="703.42,-345.63 701.11,-335.29 696.47,-344.81 703.42,-345.63"/>
</a>
</g>
</g>
<!-- Node14 -->
<g id="Node000014" class="node">
<title>Node14</title>
<g id="a_Node000014"><a xlink:href="tmc5240_8c.html#a2f7d338a706e8ec4d8ccea594217d594" target="_top" xlink:title="Set the maximum deceleration (DMAX) value.">
<polygon fill="white" stroke="#666666" points="597.5,-539 484.5,-539 484.5,-520 597.5,-520 597.5,-539"/>
<text text-anchor="middle" x="541" y="-527" font-family="Helvetica,sans-Serif" font-size="10.00">tmc5240_set_dmax</text>
</a>
</g>
</g>
<!-- Node1&#45;&gt;Node14 -->
<g id="edge19_Node000001_Node000014" class="edge">
<title>Node1&#45;&gt;Node14</title>
<g id="a_edge19_Node000001_Node000014"><a xlink:title=" ">
<path fill="none" stroke="#63b8ff" d="M698.18,-345.27C689.74,-383.45 665.82,-467.45 612,-511.5 607.73,-515 602.86,-517.82 597.72,-520.11"/>
<polygon fill="#63b8ff" stroke="#63b8ff" points="701.63,-345.89 700.24,-335.38 694.77,-344.46 701.63,-345.89"/>
</a>
</g>
</g>
<!-- Node15 -->
<g id="Node000015" class="node">
<title>Node15</title>
<g id="a_Node000015"><a xlink:href="tmc5240_8c.html#a5c810eff374d70a8f5b9acf1c473939d" target="_top" xlink:title="Set the ramp mode configuration.">
<polygon fill="white" stroke="#666666" points="610,-280 472,-280 472,-261 610,-261 610,-280"/>
<text text-anchor="middle" x="541" y="-268" font-family="Helvetica,sans-Serif" font-size="10.00">tmc5240_set_rampmode</text>
</a>
</g>
</g>
<!-- Node1&#45;&gt;Node15 -->
<g id="edge21_Node000001_Node000015" class="edge">
<title>Node1&#45;&gt;Node15</title>
<g id="a_edge21_Node000001_Node000015"><a xlink:title=" ">
<path fill="none" stroke="#63b8ff" d="M671.67,-311.8C654.4,-304.31 632.24,-295.23 612,-288.5 602.71,-285.41 592.59,-282.54 582.99,-280.03"/>
<polygon fill="#63b8ff" stroke="#63b8ff" points="670.65,-315.18 681.22,-315.99 673.47,-308.77 670.65,-315.18"/>
</a>
</g>
</g>
<!-- Node16 -->
<g id="Node000016" class="node">
<title>Node16</title>
<g id="a_Node000016"><a xlink:href="tmc5240_8c.html#a72ef06079b564ed582795bbfffaaf96b" target="_top" xlink:title="Set the target velocity for the TMC5240 motor driver.">
<polygon fill="white" stroke="#666666" points="608,-243 474,-243 474,-224 608,-224 608,-243"/>
<text text-anchor="middle" x="541" y="-231" font-family="Helvetica,sans-Serif" font-size="10.00">tmc5240_set_target_vel</text>
</a>
</g>
</g>
<!-- Node1&#45;&gt;Node16 -->
<g id="edge23_Node000001_Node000016" class="edge">
<title>Node1&#45;&gt;Node16</title>
<g id="a_edge23_Node000001_Node000016"><a xlink:title=" ">
<path fill="none" stroke="#63b8ff" d="M685.65,-308.22C668.74,-291.35 640.83,-266.14 612,-251.5 605.29,-248.09 597.88,-245.29 590.46,-243"/>
<polygon fill="#63b8ff" stroke="#63b8ff" points="683.52,-311.05 693.02,-315.75 688.52,-306.15 683.52,-311.05"/>
</a>
</g>
</g>
<!-- Node17 -->
<g id="Node000017" class="node">
<title>Node17</title>
<g id="a_Node000017"><a xlink:href="tmc5240_8c.html#a97690e00c387f79b212d5d1e9f32a99b" target="_top" xlink:title="Set the first velocity threshold (V1) value.">
<polygon fill="white" stroke="#666666" points="589.5,-502 492.5,-502 492.5,-483 589.5,-483 589.5,-502"/>
<text text-anchor="middle" x="541" y="-490" font-family="Helvetica,sans-Serif" font-size="10.00">tmc5240_set_v1</text>
</a>
</g>
</g>
<!-- Node1&#45;&gt;Node17 -->
<g id="edge24_Node000001_Node000017" class="edge">
<title>Node1&#45;&gt;Node17</title>
<g id="a_edge24_Node000001_Node000017"><a xlink:title=" ">
<path fill="none" stroke="#63b8ff" d="M695.77,-344.85C684.43,-376.9 657.31,-440.79 612,-474.5 605.46,-479.37 597.72,-482.92 589.82,-485.52"/>
<polygon fill="#63b8ff" stroke="#63b8ff" points="699.11,-345.89 699.01,-335.29 692.49,-343.64 699.11,-345.89"/>
</a>
</g>
</g>
<!-- Node18 -->
<g id="Node000018" class="node">
<title>Node18</title>
<g id="a_Node000018"><a xlink:href="tmc5240_8c.html#ae17a2fccc40143281c8c8f57bde6ccb9" target="_top" xlink:title="Set the second velocity threshold (V2) value.">
<polygon fill="white" stroke="#666666" points="589.5,-465 492.5,-465 492.5,-446 589.5,-446 589.5,-465"/>
<text text-anchor="middle" x="541" y="-453" font-family="Helvetica,sans-Serif" font-size="10.00">tmc5240_set_v2</text>
</a>
</g>
</g>
<!-- Node1&#45;&gt;Node18 -->
<g id="edge26_Node000001_Node000018" class="edge">
<title>Node1&#45;&gt;Node18</title>
<g id="a_edge26_Node000001_Node000018"><a xlink:title=" ">
<path fill="none" stroke="#63b8ff" d="M692.29,-343.89C678.07,-368.97 649.2,-413.51 612,-437.5 605.25,-441.85 597.5,-445.15 589.67,-447.66"/>
<polygon fill="#63b8ff" stroke="#63b8ff" points="695.41,-345.47 697.16,-335.02 689.27,-342.1 695.41,-345.47"/>
</a>
</g>
</g>
<!-- Node19 -->
<g id="Node000019" class="node">
<title>Node19</title>
<g id="a_Node000019"><a xlink:href="tmc5240_8c.html#a63aa14fd6e322b35872cbcef3d54067a" target="_top" xlink:title="Set the maximum velocity (VMAX) value.">
<polygon fill="white" stroke="#666666" points="597.5,-391 484.5,-391 484.5,-372 597.5,-372 597.5,-391"/>
<text text-anchor="middle" x="541" y="-379" font-family="Helvetica,sans-Serif" font-size="10.00">tmc5240_set_vmax</text>
</a>
</g>
</g>
<!-- Node1&#45;&gt;Node19 -->
<g id="edge28_Node000001_Node000019" class="edge">
<title>Node1&#45;&gt;Node19</title>
<g id="a_edge28_Node000001_Node000019"><a xlink:title=" ">
<path fill="none" stroke="#63b8ff" d="M672.04,-339.46C654.74,-347.19 632.42,-356.61 612,-363.5 602.85,-366.59 592.87,-369.45 583.38,-371.94"/>
<polygon fill="#63b8ff" stroke="#63b8ff" points="673.94,-342.45 681.6,-335.14 671.05,-336.07 673.94,-342.45"/>
</a>
</g>
</g>
<!-- Node20 -->
<g id="Node000020" class="node">
<title>Node20</title>
<g id="a_Node000020"><a xlink:href="tmc5240_8c.html#a2f5654d6639c9cee2102ea63bd69f670" target="_top" xlink:title="Set the start velocity (VSTART) value.">
<polygon fill="white" stroke="#666666" points="597.5,-354 484.5,-354 484.5,-335 597.5,-335 597.5,-354"/>
<text text-anchor="middle" x="541" y="-342" font-family="Helvetica,sans-Serif" font-size="10.00">tmc5240_set_vstart</text>
</a>
</g>
</g>
<!-- Node1&#45;&gt;Node20 -->
<g id="edge30_Node000001_Node000020" class="edge">
<title>Node1&#45;&gt;Node20</title>
<g id="a_edge30_Node000001_Node000020"><a xlink:title=" ">
<path fill="none" stroke="#63b8ff" d="M637.83,-333.12C624.56,-334.7 610.69,-336.34 597.75,-337.88"/>
<polygon fill="#63b8ff" stroke="#63b8ff" points="638.31,-336.59 647.83,-331.93 637.49,-329.64 638.31,-336.59"/>
</a>
</g>
</g>
<!-- Node21 -->
<g id="Node000021" class="node">
<title>Node21</title>
<g id="a_Node000021"><a xlink:href="tmc5240_8c.html#a945aaa84efcbb7fe508919d262215a84" target="_top" xlink:title="Set the stop velocity (VSTOP) value.">
<polygon fill="white" stroke="#666666" points="597,-317 485,-317 485,-298 597,-298 597,-317"/>
<text text-anchor="middle" x="541" y="-305" font-family="Helvetica,sans-Serif" font-size="10.00">tmc5240_set_vstop</text>
</a>
</g>
</g>
<!-- Node1&#45;&gt;Node21 -->
<g id="edge32_Node000001_Node000021" class="edge">
<title>Node1&#45;&gt;Node21</title>
<g id="a_edge32_Node000001_Node000021"><a xlink:title=" ">
<path fill="none" stroke="#63b8ff" d="M637.71,-318.27C624.29,-316.76 610.26,-315.18 597.2,-313.71"/>
<polygon fill="#63b8ff" stroke="#63b8ff" points="637.5,-321.77 647.83,-319.41 638.29,-314.81 637.5,-321.77"/>
</a>
</g>
</g>
<!-- Node22 -->
<g id="Node000022" class="node">
<title>Node22</title>
<g id="a_Node000022"><a xlink:href="tmc5240_8c.html#af1d840c7667395d343f21596a3fec700" target="_top" xlink:title="Stop the motor by setting VMAX to 0.">
<polygon fill="white" stroke="#666666" points="584,-19 498,-19 498,0 584,0 584,-19"/>
<text text-anchor="middle" x="541" y="-7" font-family="Helvetica,sans-Serif" font-size="10.00">tmc5240_stop</text>
</a>
</g>
</g>
<!-- Node1&#45;&gt;Node22 -->
<g id="edge34_Node000001_Node000022" class="edge">
<title>Node1&#45;&gt;Node22</title>
<g id="a_edge34_Node000001_Node000022"><a xlink:title=" ">
<path fill="none" stroke="#63b8ff" d="M701.75,-305.71C700.03,-253.77 688.2,-112.12 612,-33.5 604.49,-25.75 594.37,-20.5 584.17,-16.95"/>
<polygon fill="#63b8ff" stroke="#63b8ff" points="698.26,-305.98 702,-315.89 705.26,-305.81 698.26,-305.98"/>
</a>
</g>
</g>
<!-- Node3 -->
<g id="Node000003" class="node">
<title>Node3</title>
<g id="a_Node000003"><a xlink:href="iio__tmc5240_8c.html#a34eeb20fee898c60e8d5e29cd2b6e30d" target="_top" xlink:title="Initializes the tmc5240 IIO driver.">
<polygon fill="white" stroke="#666666" points="98,-614 0,-614 0,-595 98,-595 98,-614"/>
<text text-anchor="middle" x="49" y="-602" font-family="Helvetica,sans-Serif" font-size="10.00">tmc5240_iio_init</text>
</a>
</g>
</g>
<!-- Node2&#45;&gt;Node3 -->
<g id="edge2_Node000002_Node000003" class="edge">
<title>Node2&#45;&gt;Node3</title>
<g id="a_edge2_Node000002_Node000003"><a xlink:title=" ">
<path fill="none" stroke="#63b8ff" d="M152.01,-604.5C134.7,-604.5 115.29,-604.5 98.09,-604.5"/>
<polygon fill="#63b8ff" stroke="#63b8ff" points="152.49,-608 162.48,-604.5 152.48,-601 152.49,-608"/>
</a>
</g>
</g>
<!-- Node4&#45;&gt;Node2 -->
<g id="edge4_Node000004_Node000002" class="edge">
<title>Node4&#45;&gt;Node2</title>
<g id="a_edge4_Node000004_Node000002"><a xlink:title=" ">
<path fill="none" stroke="#63b8ff" d="M496.7,-654.43C449.37,-665.55 371.63,-678.12 307,-661.5 271.24,-652.3 234.6,-627.86 215.99,-614.16"/>
<polygon fill="#63b8ff" stroke="#63b8ff" points="497.73,-657.79 506.62,-652.02 496.07,-650.98 497.73,-657.79"/>
</a>
</g>
</g>
<!-- Node5 -->
<g id="Node000005" class="node">
<title>Node5</title>
<g id="a_Node000005"><a xlink:href="tmc5240_8c.html#a96fdf53cd6e497c24cceb4efc19d0caa" target="_top" xlink:title="Set the shaft direction for the TMC5240 device.">
<polygon fill="white" stroke="#666666" points="434,-652 307,-652 307,-633 434,-633 434,-652"/>
<text text-anchor="middle" x="370.5" y="-640" font-family="Helvetica,sans-Serif" font-size="10.00">tmc5240_set_shaft_dir</text>
</a>
</g>
</g>
<!-- Node4&#45;&gt;Node5 -->
<g id="edge5_Node000004_Node000005" class="edge">
<title>Node4&#45;&gt;Node5</title>
<g id="a_edge5_Node000004_Node000005"><a xlink:title=" ">
<path fill="none" stroke="#63b8ff" d="M470.95,-642.5C458.76,-642.5 446.13,-642.5 434.12,-642.5"/>
<polygon fill="#63b8ff" stroke="#63b8ff" points="471.07,-646 481.07,-642.5 471.07,-639 471.07,-646"/>
</a>
</g>
</g>
<!-- Node7 -->
<g id="Node000007" class="node">
<title>Node7</title>
<g id="a_Node000007"><a xlink:href="tmc5240_8c.html#ab48a6c070bf2cfa4988e5685e2e23925" target="_top" xlink:title="Set motion profile parameters for the TMC5240 motor driver.">
<polygon fill="white" stroke="#666666" points="430,-359.5 311,-359.5 311,-329.5 430,-329.5 430,-359.5"/>
<text text-anchor="start" x="319" y="-347.5" font-family="Helvetica,sans-Serif" font-size="10.00">tmc5240_set_motion</text>
<text text-anchor="middle" x="370.5" y="-336.5" font-family="Helvetica,sans-Serif" font-size="10.00">_profile</text>
</a>
</g>
</g>
<!-- Node6&#45;&gt;Node7 -->
<g id="edge7_Node000006_Node000007" class="edge">
<title>Node6&#45;&gt;Node7</title>
<g id="a_edge7_Node000006_Node000007"><a xlink:title=" ">
<path fill="none" stroke="#63b8ff" d="M482.81,-207.68C478.3,-209.61 473.97,-211.86 470,-214.5 424.97,-244.46 392.3,-302.08 378.62,-329.41"/>
<polygon fill="#63b8ff" stroke="#63b8ff" points="484.07,-210.95 492.22,-204.18 481.63,-204.39 484.07,-210.95"/>
</a>
</g>
</g>
<!-- Node7&#45;&gt;Node2 -->
<g id="edge8_Node000007_Node000002" class="edge">
<title>Node7&#45;&gt;Node2</title>
<g id="a_edge8_Node000007_Node000002"><a xlink:title=" ">
<path fill="none" stroke="#63b8ff" d="M354.28,-368.34C319.06,-423.5 233.18,-558.02 209.58,-594.97"/>
<polygon fill="#63b8ff" stroke="#63b8ff" points="357.43,-369.91 359.86,-359.6 351.53,-366.15 357.43,-369.91"/>
</a>
</g>
</g>
<!-- Node7&#45;&gt;Node8 -->
<g id="edge9_Node000007_Node000008" class="edge">
<title>Node7&#45;&gt;Node8</title>
<g id="a_edge9_Node000007_Node000008"><a xlink:title=" ">
<path fill="none" stroke="#63b8ff" d="M344.92,-322.58C308.27,-289.91 240.82,-229.77 214.46,-206.27"/>
<polygon fill="#63b8ff" stroke="#63b8ff" points="342.88,-325.45 352.67,-329.49 347.53,-320.23 342.88,-325.45"/>
</a>
</g>
</g>
<!-- Node9&#45;&gt;Node7 -->
<g id="edge11_Node000009_Node000007" class="edge">
<title>Node9&#45;&gt;Node7</title>
<g id="a_edge11_Node000009_Node000007"><a xlink:title=" ">
<path fill="none" stroke="#63b8ff" d="M482.88,-170C478.3,-172.07 473.93,-174.54 470,-177.5 416.46,-217.76 386.64,-296.34 376.01,-329.34"/>
<polygon fill="#63b8ff" stroke="#63b8ff" points="484.42,-173.16 492.5,-166.3 481.91,-166.63 484.42,-173.16"/>
</a>
</g>
</g>
<!-- Node10&#45;&gt;Node7 -->
<g id="edge13_Node000010_Node000007" class="edge">
<title>Node10&#45;&gt;Node7</title>
<g id="a_edge13_Node000010_Node000007"><a xlink:title=" ">
<path fill="none" stroke="#63b8ff" d="M475.04,-136.84C473.29,-137.97 471.6,-139.19 470,-140.5 407.78,-191.47 382.11,-291.18 374.3,-329.24"/>
<polygon fill="#63b8ff" stroke="#63b8ff" points="477.12,-139.7 484.28,-131.89 473.81,-133.53 477.12,-139.7"/>
</a>
</g>
</g>
<!-- Node12&#45;&gt;Node7 -->
<g id="edge16_Node000012_Node000007" class="edge">
<title>Node12&#45;&gt;Node7</title>
<g id="a_edge16_Node000012_Node000007"><a xlink:title=" ">
<path fill="none" stroke="#63b8ff" d="M482.6,-95.31C478.05,-97.52 473.76,-100.22 470,-103.5 398.81,-165.59 378.21,-286.93 373.04,-329.39"/>
<polygon fill="#63b8ff" stroke="#63b8ff" points="484.28,-98.4 492.23,-91.41 481.65,-91.92 484.28,-98.4"/>
</a>
</g>
</g>
<!-- Node13&#45;&gt;Node7 -->
<g id="edge18_Node000013_Node000007" class="edge">
<title>Node13&#45;&gt;Node7</title>
<g id="a_edge18_Node000013_Node000007"><a xlink:title=" ">
<path fill="none" stroke="#63b8ff" d="M482.6,-556.34C478.08,-554.2 473.8,-551.62 470,-548.5 407.78,-497.53 382.11,-397.82 374.3,-359.76"/>
<polygon fill="#63b8ff" stroke="#63b8ff" points="481.56,-559.69 492.15,-560.15 484.15,-553.19 481.56,-559.69"/>
</a>
</g>
</g>
<!-- Node14&#45;&gt;Node7 -->
<g id="edge20_Node000014_Node000007" class="edge">
<title>Node14&#45;&gt;Node7</title>
<g id="a_edge20_Node000014_Node000007"><a xlink:title=" ">
<path fill="none" stroke="#63b8ff" d="M475.76,-515.33C473.76,-514.15 471.83,-512.88 470,-511.5 416.46,-471.24 386.64,-392.66 376.01,-359.66"/>
<polygon fill="#63b8ff" stroke="#63b8ff" points="474.41,-518.57 484.93,-519.89 477.53,-512.3 474.41,-518.57"/>
</a>
</g>
</g>
<!-- Node17&#45;&gt;Node7 -->
<g id="edge25_Node000017_Node000007" class="edge">
<title>Node17&#45;&gt;Node7</title>
<g id="a_edge25_Node000017_Node000007"><a xlink:title=" ">
<path fill="none" stroke="#63b8ff" d="M482.81,-481.32C478.3,-479.39 473.97,-477.14 470,-474.5 424.97,-444.54 392.3,-386.92 378.62,-359.59"/>
<polygon fill="#63b8ff" stroke="#63b8ff" points="481.63,-484.61 492.22,-484.82 484.07,-478.05 481.63,-484.61"/>
</a>
</g>
</g>
<!-- Node18&#45;&gt;Node7 -->
<g id="edge27_Node000018_Node000007" class="edge">
<title>Node18&#45;&gt;Node7</title>
<g id="a_edge27_Node000018_Node000007"><a xlink:title=" ">
<path fill="none" stroke="#63b8ff" d="M482.68,-443.36C478.28,-441.65 474,-439.71 470,-437.5 433.35,-417.28 400.04,-380.21 383.15,-359.51"/>
<polygon fill="#63b8ff" stroke="#63b8ff" points="481.84,-446.78 492.43,-446.75 484.13,-440.16 481.84,-446.78"/>
</a>
</g>
</g>
<!-- Node19&#45;&gt;Node7 -->
<g id="edge29_Node000019_Node000007" class="edge">
<title>Node19&#45;&gt;Node7</title>
<g id="a_edge29_Node000019_Node000007"><a xlink:title=" ">
<path fill="none" stroke="#63b8ff" d="M486.62,-369.78C468.7,-365.84 448.62,-361.43 430.31,-357.41"/>
<polygon fill="#63b8ff" stroke="#63b8ff" points="486.09,-373.25 496.61,-371.97 487.59,-366.41 486.09,-373.25"/>
</a>
</g>
</g>
<!-- Node20&#45;&gt;Node7 -->
<g id="edge31_Node000020_Node000007" class="edge">
<title>Node20&#45;&gt;Node7</title>
<g id="a_edge31_Node000020_Node000007"><a xlink:title=" ">
<path fill="none" stroke="#63b8ff" d="M474.01,-344.5C459.58,-344.5 444.39,-344.5 430.26,-344.5"/>
<polygon fill="#63b8ff" stroke="#63b8ff" points="474.36,-348 484.36,-344.5 474.36,-341 474.36,-348"/>
</a>
</g>
</g>
<!-- Node21&#45;&gt;Node7 -->
<g id="edge33_Node000021_Node000007" class="edge">
<title>Node21&#45;&gt;Node7</title>
<g id="a_edge33_Node000021_Node000007"><a xlink:title=" ">
<path fill="none" stroke="#63b8ff" d="M486.62,-319.22C468.7,-323.16 448.62,-327.57 430.31,-331.59"/>
<polygon fill="#63b8ff" stroke="#63b8ff" points="487.59,-322.59 496.61,-317.03 486.09,-315.75 487.59,-322.59"/>
</a>
</g>
</g>
</g>
</svg>

<g id="navigator" transform="translate(0 0)" fill="#404254">
  <rect fill="#f2f5e9" fill-opacity="0.5" stroke="#606060" stroke-width=".5" x="0" y="0" width="60" height="60"/>
  <use id="zoomplus" xlink:href="#zoomPlus" x="17" y="9" onmousedown="handleZoom(evt,'in')"/>
  <use id="zoomminus" xlink:href="#zoomMin" x="42" y="9" onmousedown="handleZoom(evt,'out')"/>
  <use id="reset" xlink:href="#resetDef" x="30" y="36" onmousedown="handleReset()"/>
   <use id="arrowup" xlink:href="#arrowUp" x="0" y="0" onmousedown="handlePan(0,-1)"/>
  <use id="arrowright" xlink:href="#arrowRight" x="0" y="0" onmousedown="handlePan(1,0)"/>
  <use id="arrowdown" xlink:href="#arrowDown" x="0" y="0" onmousedown="handlePan(0,1)"/>
  <use id="arrowleft" xlink:href="#arrowLeft" x="0" y="0" onmousedown="handlePan(-1,0)"/>
</g>
<svg viewBox="0 0 15 15" width="100%" height="30px" preserveAspectRatio="xMaxYMin meet">
 <g id="arrow_out" transform="scale(0.3 0.3)">
  <a xlink:href="tmc5240_8h_ae5277fe6d6c029bbd361ff7e220c6223_icgraph_org.svg" target="_base">
   <rect id="button" ry="5" rx="5" y="6" x="6" height="38" width="38"
        fill="#f2f5e9" fill-opacity="0.5" stroke="#606060" stroke-width="1.0"/>
   <path id="arrow"
     d="M 11.500037,31.436501 C 11.940474,20.09759 22.043105,11.32322 32.158766,21.979434 L 37.068811,17.246167 C 37.068811,17.246167 37.088388,32 37.088388,32 L 22.160133,31.978069 C 22.160133,31.978069 26.997745,27.140456 26.997745,27.140456 C 18.528582,18.264221 13.291696,25.230495 11.500037,31.436501 z"
     style="fill:#404040;"/>
  </a>
 </g>
</svg>

<style type='text/css'>
<![CDATA[
[data-mouse-over-selected='false'] { opacity: 0.7; }
[data-mouse-over-selected='true']  { opacity: 1.0; }
]]>
</style>
<script type="application/ecmascript"><![CDATA[
document.addEventListener('DOMContentLoaded', (event) => {
  highlightEdges();
  highlightAdjacentNodes();
});
]]></script>
</svg>
