<?xml version="1.0" encoding="UTF-8" standalone="no"?>
<!DOCTYPE svg PUBLIC "-//W3C//DTD SVG 1.1//EN"
 "http://www.w3.org/Graphics/SVG/1.1/DTD/svg11.dtd">
<!-- Generated by graphviz version 2.43.0 (0)
 -->
<!-- Title: tmc5240_set_v1 Pages: 1 -->
<svg width="567pt" height="64pt"
 viewBox="0.00 0.00 567.00 64.00" xmlns="http://www.w3.org/2000/svg" xmlns:xlink="http://www.w3.org/1999/xlink">
<g id="graph0" class="graph" transform="scale(1 1) rotate(0) translate(4 60)">
<title>tmc5240_set_v1</title>
<!-- Node1 -->
<g id="Node000001" class="node">
<title>Node1</title>
<g id="a_Node000001"><a xlink:title="Set the first velocity threshold (V1) value.">
<polygon fill="#999999" stroke="#666666" points="559,-37 462,-37 462,-18 559,-18 559,-37"/>
<text text-anchor="middle" x="510.5" y="-25" font-family="Helvetica,sans-Serif" font-size="10.00">tmc5240_set_v1</text>
</a>
</g>
</g>
<!-- Node2 -->
<g id="Node000002" class="node">
<title>Node2</title>
<g id="a_Node000002"><a xlink:href="tmc5240_8c.html#ab48a6c070bf2cfa4988e5685e2e23925" target="_top" xlink:title="Set motion profile parameters for the TMC5240 motor driver.">
<polygon fill="white" stroke="#666666" points="426,-42.5 307,-42.5 307,-12.5 426,-12.5 426,-42.5"/>
<text text-anchor="start" x="315" y="-30.5" font-family="Helvetica,sans-Serif" font-size="10.00">tmc5240_set_motion</text>
<text text-anchor="middle" x="366.5" y="-19.5" font-family="Helvetica,sans-Serif" font-size="10.00">_profile</text>
</a>
</g>
</g>
<!-- Node1&#45;&gt;Node2 -->
<g id="edge1_Node000001_Node000002" class="edge">
<title>Node1&#45;&gt;Node2</title>
<g id="a_edge1_Node000001_Node000002"><a xlink:title=" ">
<path fill="none" stroke="#63b8ff" d="M451.71,-27.5C443.28,-27.5 434.6,-27.5 426.16,-27.5"/>
<polygon fill="#63b8ff" stroke="#63b8ff" points="451.82,-31 461.82,-27.5 451.82,-24 451.82,-31"/>
</a>
</g>
</g>
<!-- Node3 -->
<g id="Node000003" class="node">
<title>Node3</title>
<g id="a_Node000003"><a xlink:href="tmc5240_8c.html#aee47c5f3e6fae0b1aa0c16fe53c1a353" target="_top" xlink:title="Initialize the TMC5240 device.">
<polygon fill="white" stroke="#666666" points="242.5,-56 162.5,-56 162.5,-37 242.5,-37 242.5,-56"/>
<text text-anchor="middle" x="202.5" y="-44" font-family="Helvetica,sans-Serif" font-size="10.00">tmc5240_init</text>
</a>
</g>
</g>
<!-- Node2&#45;&gt;Node3 -->
<g id="edge2_Node000002_Node000003" class="edge">
<title>Node2&#45;&gt;Node3</title>
<g id="a_edge2_Node000002_Node000003"><a xlink:title=" ">
<path fill="none" stroke="#63b8ff" d="M296.5,-35.59C278.19,-37.74 259.06,-39.98 242.93,-41.88"/>
<polygon fill="#63b8ff" stroke="#63b8ff" points="297.03,-39.05 306.56,-34.41 296.22,-32.1 297.03,-39.05"/>
</a>
</g>
</g>
<!-- Node5 -->
<g id="Node000005" class="node">
<title>Node5</title>
<g id="a_Node000005"><a xlink:href="tmc5240_8c.html#a8d6e86fa5f27fb8fd23dafb1c59a1824" target="_top" xlink:title="Set the target position for the TMC5240 motor driver.">
<polygon fill="white" stroke="#666666" points="271,-19 134,-19 134,0 271,0 271,-19"/>
<text text-anchor="middle" x="202.5" y="-7" font-family="Helvetica,sans-Serif" font-size="10.00">tmc5240_set_target_pos</text>
</a>
</g>
</g>
<!-- Node2&#45;&gt;Node5 -->
<g id="edge4_Node000002_Node000005" class="edge">
<title>Node2&#45;&gt;Node5</title>
<g id="a_edge4_Node000002_Node000005"><a xlink:title=" ">
<path fill="none" stroke="#63b8ff" d="M296.46,-19.83C288.09,-18.9 279.54,-17.95 271.19,-17.02"/>
<polygon fill="#63b8ff" stroke="#63b8ff" points="296.23,-23.32 306.56,-20.95 297,-16.37 296.23,-23.32"/>
</a>
</g>
</g>
<!-- Node4 -->
<g id="Node000004" class="node">
<title>Node4</title>
<g id="a_Node000004"><a xlink:href="iio__tmc5240_8c.html#a34eeb20fee898c60e8d5e29cd2b6e30d" target="_top" xlink:title="Initializes the tmc5240 IIO driver.">
<polygon fill="white" stroke="#666666" points="98,-56 0,-56 0,-37 98,-37 98,-56"/>
<text text-anchor="middle" x="49" y="-44" font-family="Helvetica,sans-Serif" font-size="10.00">tmc5240_iio_init</text>
</a>
</g>
</g>
<!-- Node3&#45;&gt;Node4 -->
<g id="edge3_Node000003_Node000004" class="edge">
<title>Node3&#45;&gt;Node4</title>
<g id="a_edge3_Node000003_Node000004"><a xlink:title=" ">
<path fill="none" stroke="#63b8ff" d="M152.01,-46.5C134.7,-46.5 115.29,-46.5 98.09,-46.5"/>
<polygon fill="#63b8ff" stroke="#63b8ff" points="152.49,-50 162.48,-46.5 152.48,-43 152.49,-50"/>
</a>
</g>
</g>
</g>
</svg>
