<?xml version="1.0" encoding="UTF-8" standalone="no"?>
<!DOCTYPE svg PUBLIC "-//W3C//DTD SVG 1.1//EN"
 "http://www.w3.org/Graphics/SVG/1.1/DTD/svg11.dtd">
<!-- Generated by graphviz version 2.43.0 (0)
 -->
<!-- Title: tmc5240_reg_update Pages: 1 -->
<svg width="424pt" height="64pt"
 viewBox="0.00 0.00 424.00 64.00" xmlns="http://www.w3.org/2000/svg" xmlns:xlink="http://www.w3.org/1999/xlink">
<g id="graph0" class="graph" transform="scale(1 1) rotate(0) translate(4 60)">
<title>tmc5240_reg_update</title>
<!-- Node1 -->
<g id="Node000001" class="node">
<title>Node1</title>
<g id="a_Node000001"><a xlink:title="Read&#45;modify&#45;write a TMC5240 register.">
<polygon fill="#999999" stroke="#666666" points="416,-37 297,-37 297,-18 416,-18 416,-37"/>
<text text-anchor="middle" x="356.5" y="-25" font-family="Helvetica,sans-Serif" font-size="10.00">tmc5240_reg_update</text>
</a>
</g>
</g>
<!-- Node2 -->
<g id="Node000002" class="node">
<title>Node2</title>
<g id="a_Node000002"><a xlink:href="tmc5240_8c.html#aee47c5f3e6fae0b1aa0c16fe53c1a353" target="_top" xlink:title="Initialize the TMC5240 device.">
<polygon fill="white" stroke="#666666" points="237.5,-56 157.5,-56 157.5,-37 237.5,-37 237.5,-56"/>
<text text-anchor="middle" x="197.5" y="-44" font-family="Helvetica,sans-Serif" font-size="10.00">tmc5240_init</text>
</a>
</g>
</g>
<!-- Node1&#45;&gt;Node2 -->
<g id="edge1_Node000001_Node000002" class="edge">
<title>Node1&#45;&gt;Node2</title>
<g id="a_edge1_Node000001_Node000002"><a xlink:title=" ">
<path fill="none" stroke="#63b8ff" d="M286.32,-35.87C269.67,-37.89 252.45,-39.97 237.72,-41.75"/>
<polygon fill="#63b8ff" stroke="#63b8ff" points="287.09,-39.31 296.59,-34.63 286.24,-32.36 287.09,-39.31"/>
</a>
</g>
</g>
<!-- Node4 -->
<g id="Node000004" class="node">
<title>Node4</title>
<g id="a_Node000004"><a xlink:href="tmc5240_8c.html#a96fdf53cd6e497c24cceb4efc19d0caa" target="_top" xlink:title="Set the shaft direction for the TMC5240 device.">
<polygon fill="white" stroke="#666666" points="261,-19 134,-19 134,0 261,0 261,-19"/>
<text text-anchor="middle" x="197.5" y="-7" font-family="Helvetica,sans-Serif" font-size="10.00">tmc5240_set_shaft_dir</text>
</a>
</g>
</g>
<!-- Node1&#45;&gt;Node4 -->
<g id="edge3_Node000001_Node000004" class="edge">
<title>Node1&#45;&gt;Node4</title>
<g id="a_edge3_Node000001_Node000004"><a xlink:title=" ">
<path fill="none" stroke="#63b8ff" d="M286.43,-19.58C278.02,-18.62 269.46,-17.64 261.15,-16.68"/>
<polygon fill="#63b8ff" stroke="#63b8ff" points="286.26,-23.08 296.59,-20.75 287.06,-16.13 286.26,-23.08"/>
</a>
</g>
</g>
<!-- Node3 -->
<g id="Node000003" class="node">
<title>Node3</title>
<g id="a_Node000003"><a xlink:href="iio__tmc5240_8c.html#a34eeb20fee898c60e8d5e29cd2b6e30d" target="_top" xlink:title="Initializes the tmc5240 IIO driver.">
<polygon fill="white" stroke="#666666" points="98,-56 0,-56 0,-37 98,-37 98,-56"/>
<text text-anchor="middle" x="49" y="-44" font-family="Helvetica,sans-Serif" font-size="10.00">tmc5240_iio_init</text>
</a>
</g>
</g>
<!-- Node2&#45;&gt;Node3 -->
<g id="edge2_Node000002_Node000003" class="edge">
<title>Node2&#45;&gt;Node3</title>
<g id="a_edge2_Node000002_Node000003"><a xlink:title=" ">
<path fill="none" stroke="#63b8ff" d="M147.15,-46.5C131.38,-46.5 113.96,-46.5 98.26,-46.5"/>
<polygon fill="#63b8ff" stroke="#63b8ff" points="147.24,-50 157.24,-46.5 147.24,-43 147.24,-50"/>
</a>
</g>
</g>
</g>
</svg>
