<?xml version="1.0" encoding="UTF-8" standalone="no"?>
<!DOCTYPE svg PUBLIC "-//W3C//DTD SVG 1.1//EN"
 "http://www.w3.org/Graphics/SVG/1.1/DTD/svg11.dtd">
<!-- Generated by graphviz version 2.43.0 (0)
 -->
<!-- Title: /home/runner/work/no&#45;OS/no&#45;OS/projects/ad74416h/src/examples/voltage_input_irq/voltage_input_irq.c Pages: 1 -->
<svg width="579pt" height="225pt"
 viewBox="0.00 0.00 579.00 225.00" xmlns="http://www.w3.org/2000/svg" xmlns:xlink="http://www.w3.org/1999/xlink">
<g id="graph0" class="graph" transform="scale(1 1) rotate(0) translate(4 221)">
<title>/home/runner/work/no&#45;OS/no&#45;OS/projects/ad74416h/src/examples/voltage_input_irq/voltage_input_irq.c</title>
<!-- Node1 -->
<g id="Node000001" class="node">
<title>Node1</title>
<g id="a_Node000001"><a xlink:title="Voltage input with interrupt example code for ad74416h&#45;pmdz project.">
<polygon fill="#999999" stroke="#666666" points="361,-217 202,-217 202,-165 361,-165 361,-217"/>
<text text-anchor="start" x="210" y="-205" font-family="Helvetica,sans-Serif" font-size="10.00">/home/runner/work/no</text>
<text text-anchor="start" x="210" y="-194" font-family="Helvetica,sans-Serif" font-size="10.00">&#45;OS/no&#45;OS/projects/ad74416h</text>
<text text-anchor="start" x="210" y="-183" font-family="Helvetica,sans-Serif" font-size="10.00">/src/examples/voltage_input</text>
<text text-anchor="middle" x="281.5" y="-172" font-family="Helvetica,sans-Serif" font-size="10.00">_irq/voltage_input_irq.c</text>
</a>
</g>
</g>
<!-- Node2 -->
<g id="Node000002" class="node">
<title>Node2</title>
<g id="a_Node000002"><a xlink:title=" ">
<polygon fill="#e0e0e0" stroke="#999999" points="95,-129 0,-129 0,-110 95,-110 95,-129"/>
<text text-anchor="middle" x="47.5" y="-117" font-family="Helvetica,sans-Serif" font-size="10.00">common_data.h</text>
</a>
</g>
</g>
<!-- Node1&#45;&gt;Node2 -->
<g id="edge1_Node000001_Node000002" class="edge">
<title>Node1&#45;&gt;Node2</title>
<g id="a_edge1_Node000001_Node000002"><a xlink:title=" ">
<path fill="none" stroke="#63b8ff" d="M201.95,-166.37C162.74,-154.73 117.25,-141.22 85.84,-131.89"/>
<polygon fill="#63b8ff" stroke="#63b8ff" points="86.75,-128.51 76.17,-129.01 84.76,-135.22 86.75,-128.51"/>
</a>
</g>
</g>
<!-- Node3 -->
<g id="Node000003" class="node">
<title>Node3</title>
<g id="a_Node000003"><a xlink:href="ad74416h_8h.html" target="_top" xlink:title="Header file of AD74416h Driver.">
<polygon fill="white" stroke="#666666" points="187.5,-129 113.5,-129 113.5,-110 187.5,-110 187.5,-129"/>
<text text-anchor="middle" x="150.5" y="-117" font-family="Helvetica,sans-Serif" font-size="10.00">ad74416h.h</text>
</a>
</g>
</g>
<!-- Node1&#45;&gt;Node3 -->
<g id="edge2_Node000001_Node000003" class="edge">
<title>Node1&#45;&gt;Node3</title>
<g id="a_edge2_Node000001_Node000003"><a xlink:title=" ">
<path fill="none" stroke="#63b8ff" d="M234.21,-164.91C214.48,-154.44 192.36,-142.71 175.81,-133.93"/>
<polygon fill="#63b8ff" stroke="#63b8ff" points="177.25,-130.73 166.78,-129.14 173.97,-136.91 177.25,-130.73"/>
</a>
</g>
</g>
<!-- Node7 -->
<g id="Node000007" class="node">
<title>Node7</title>
<g id="a_Node000007"><a xlink:href="no__os__gpio_8h.html" target="_top" xlink:title="Header file of GPIO Interface.">
<polygon fill="white" stroke="#666666" points="270.5,-74 190.5,-74 190.5,-55 270.5,-55 270.5,-74"/>
<text text-anchor="middle" x="230.5" y="-62" font-family="Helvetica,sans-Serif" font-size="10.00">no_os_gpio.h</text>
</a>
</g>
</g>
<!-- Node1&#45;&gt;Node7 -->
<g id="edge13_Node000001_Node000007" class="edge">
<title>Node1&#45;&gt;Node7</title>
<g id="a_edge13_Node000001_Node000007"><a xlink:title=" ">
<path fill="none" stroke="#63b8ff" d="M271.18,-164.81C261.32,-140.74 246.7,-105.04 237.93,-83.65"/>
<polygon fill="#63b8ff" stroke="#63b8ff" points="241.07,-82.08 234.04,-74.15 234.6,-84.73 241.07,-82.08"/>
</a>
</g>
</g>
<!-- Node8 -->
<g id="Node000008" class="node">
<title>Node8</title>
<g id="a_Node000008"><a xlink:href="no__os__delay_8h.html" target="_top" xlink:title="Header file of Delay functions.">
<polygon fill="white" stroke="#666666" points="374,-74 289,-74 289,-55 374,-55 374,-74"/>
<text text-anchor="middle" x="331.5" y="-62" font-family="Helvetica,sans-Serif" font-size="10.00">no_os_delay.h</text>
</a>
</g>
</g>
<!-- Node1&#45;&gt;Node8 -->
<g id="edge9_Node000001_Node000008" class="edge">
<title>Node1&#45;&gt;Node8</title>
<g id="a_edge9_Node000001_Node000008"><a xlink:title=" ">
<path fill="none" stroke="#63b8ff" d="M285.01,-164.71C287.85,-148.56 292.69,-127.46 300.5,-110 304.92,-100.13 311.6,-90.17 317.64,-82.18"/>
<polygon fill="#63b8ff" stroke="#63b8ff" points="320.57,-84.12 324.02,-74.1 315.07,-79.78 320.57,-84.12"/>
</a>
</g>
</g>
<!-- Node9 -->
<g id="Node000009" class="node">
<title>Node9</title>
<g id="a_Node000009"><a xlink:href="no__os__print__log_8h.html" target="_top" xlink:title="Print messages helpers.">
<polygon fill="white" stroke="#666666" points="411.5,-129 309.5,-129 309.5,-110 411.5,-110 411.5,-129"/>
<text text-anchor="middle" x="360.5" y="-117" font-family="Helvetica,sans-Serif" font-size="10.00">no_os_print_log.h</text>
</a>
</g>
</g>
<!-- Node1&#45;&gt;Node9 -->
<g id="edge11_Node000001_Node000009" class="edge">
<title>Node1&#45;&gt;Node9</title>
<g id="a_edge11_Node000001_Node000009"><a xlink:title=" ">
<path fill="none" stroke="#63b8ff" d="M310.02,-164.91C320.96,-155.29 333.12,-144.59 342.76,-136.11"/>
<polygon fill="#63b8ff" stroke="#63b8ff" points="345.3,-138.54 350.49,-129.3 340.67,-133.28 345.3,-138.54"/>
</a>
</g>
</g>
<!-- Node11 -->
<g id="Node000011" class="node">
<title>Node11</title>
<g id="a_Node000011"><a xlink:href="no__os__irq_8h.html" target="_top" xlink:title="Header file of IRQ interface.">
<polygon fill="white" stroke="#666666" points="501.5,-129 429.5,-129 429.5,-110 501.5,-110 501.5,-129"/>
<text text-anchor="middle" x="465.5" y="-117" font-family="Helvetica,sans-Serif" font-size="10.00">no_os_irq.h</text>
</a>
</g>
</g>
<!-- Node1&#45;&gt;Node11 -->
<g id="edge14_Node000001_Node000011" class="edge">
<title>Node1&#45;&gt;Node11</title>
<g id="a_edge14_Node000001_Node000011"><a xlink:title=" ">
<path fill="none" stroke="#63b8ff" d="M347.93,-164.91C376.93,-153.95 409.62,-141.61 433.15,-132.72"/>
<polygon fill="#63b8ff" stroke="#63b8ff" points="434.52,-135.94 442.64,-129.14 432.05,-129.39 434.52,-135.94"/>
</a>
</g>
</g>
<!-- Node12 -->
<g id="Node000012" class="node">
<title>Node12</title>
<g id="a_Node000012"><a xlink:title=" ">
<polygon fill="#e0e0e0" stroke="#999999" points="571,-129 520,-129 520,-110 571,-110 571,-129"/>
<text text-anchor="middle" x="545.5" y="-117" font-family="Helvetica,sans-Serif" font-size="10.00">math.h</text>
</a>
</g>
</g>
<!-- Node1&#45;&gt;Node12 -->
<g id="edge16_Node000001_Node000012" class="edge">
<title>Node1&#45;&gt;Node12</title>
<g id="a_edge16_Node000001_Node000012"><a xlink:title=" ">
<path fill="none" stroke="#63b8ff" d="M361.07,-169.05C410.61,-156.01 471.92,-139.87 509.87,-129.88"/>
<polygon fill="#63b8ff" stroke="#63b8ff" points="511.15,-133.16 519.93,-127.23 509.37,-126.39 511.15,-133.16"/>
</a>
</g>
</g>
<!-- Node4 -->
<g id="Node000004" class="node">
<title>Node4</title>
<g id="a_Node000004"><a xlink:title=" ">
<polygon fill="#e0e0e0" stroke="#999999" points="257,-19 204,-19 204,0 257,0 257,-19"/>
<text text-anchor="middle" x="230.5" y="-7" font-family="Helvetica,sans-Serif" font-size="10.00">stdint.h</text>
</a>
</g>
</g>
<!-- Node3&#45;&gt;Node4 -->
<g id="edge3_Node000003_Node000004" class="edge">
<title>Node3&#45;&gt;Node4</title>
<g id="a_edge3_Node000003_Node000004"><a xlink:title=" ">
<path fill="none" stroke="#63b8ff" d="M113.44,-111.9C75.98,-104.38 21.91,-90.92 9.5,-74 4.51,-67.19 4.15,-61.53 9.5,-55 32.37,-27.06 137.08,-16.28 193.78,-12.44"/>
<polygon fill="#63b8ff" stroke="#63b8ff" points="194.02,-15.93 203.78,-11.8 193.57,-8.94 194.02,-15.93"/>
</a>
</g>
</g>
<!-- Node5 -->
<g id="Node000005" class="node">
<title>Node5</title>
<g id="a_Node000005"><a xlink:title=" ">
<polygon fill="#e0e0e0" stroke="#999999" points="80.5,-74 18.5,-74 18.5,-55 80.5,-55 80.5,-74"/>
<text text-anchor="middle" x="49.5" y="-62" font-family="Helvetica,sans-Serif" font-size="10.00">stdbool.h</text>
</a>
</g>
</g>
<!-- Node3&#45;&gt;Node5 -->
<g id="edge4_Node000003_Node000005" class="edge">
<title>Node3&#45;&gt;Node5</title>
<g id="a_edge4_Node000003_Node000005"><a xlink:title=" ">
<path fill="none" stroke="#63b8ff" d="M134.27,-109.98C118.32,-101.61 93.72,-88.7 75.12,-78.95"/>
<polygon fill="#63b8ff" stroke="#63b8ff" points="76.5,-75.72 66.02,-74.17 73.25,-81.92 76.5,-75.72"/>
</a>
</g>
</g>
<!-- Node6 -->
<g id="Node000006" class="node">
<title>Node6</title>
<g id="a_Node000006"><a xlink:href="no__os__spi_8h.html" target="_top" xlink:title="Header file of SPI Interface.">
<polygon fill="white" stroke="#666666" points="172.5,-74 98.5,-74 98.5,-55 172.5,-55 172.5,-74"/>
<text text-anchor="middle" x="135.5" y="-62" font-family="Helvetica,sans-Serif" font-size="10.00">no_os_spi.h</text>
</a>
</g>
</g>
<!-- Node3&#45;&gt;Node6 -->
<g id="edge5_Node000003_Node000006" class="edge">
<title>Node3&#45;&gt;Node6</title>
<g id="a_edge5_Node000003_Node000006"><a xlink:title=" ">
<path fill="none" stroke="#63b8ff" d="M148.02,-109.75C146.04,-102.72 143.18,-92.62 140.69,-83.84"/>
<polygon fill="#63b8ff" stroke="#63b8ff" points="144.02,-82.76 137.93,-74.09 137.29,-84.66 144.02,-82.76"/>
</a>
</g>
</g>
<!-- Node3&#45;&gt;Node7 -->
<g id="edge7_Node000003_Node000007" class="edge">
<title>Node3&#45;&gt;Node7</title>
<g id="a_edge7_Node000003_Node000007"><a xlink:title=" ">
<path fill="none" stroke="#63b8ff" d="M163.35,-109.98C175.64,-101.84 194.41,-89.41 208.98,-79.76"/>
<polygon fill="#63b8ff" stroke="#63b8ff" points="211.01,-82.61 217.41,-74.17 207.14,-76.78 211.01,-82.61"/>
</a>
</g>
</g>
<!-- Node6&#45;&gt;Node4 -->
<g id="edge6_Node000006_Node000004" class="edge">
<title>Node6&#45;&gt;Node4</title>
<g id="a_edge6_Node000006_Node000004"><a xlink:title=" ">
<path fill="none" stroke="#63b8ff" d="M150.76,-54.98C165.63,-46.69 188.48,-33.94 205.92,-24.22"/>
<polygon fill="#63b8ff" stroke="#63b8ff" points="207.93,-27.1 214.96,-19.17 204.52,-20.99 207.93,-27.1"/>
</a>
</g>
</g>
<!-- Node7&#45;&gt;Node4 -->
<g id="edge8_Node000007_Node000004" class="edge">
<title>Node7&#45;&gt;Node4</title>
<g id="a_edge8_Node000007_Node000004"><a xlink:title=" ">
<path fill="none" stroke="#63b8ff" d="M230.5,-54.75C230.5,-47.8 230.5,-37.85 230.5,-29.13"/>
<polygon fill="#63b8ff" stroke="#63b8ff" points="234,-29.09 230.5,-19.09 227,-29.09 234,-29.09"/>
</a>
</g>
</g>
<!-- Node8&#45;&gt;Node4 -->
<g id="edge10_Node000008_Node000004" class="edge">
<title>Node8&#45;&gt;Node4</title>
<g id="a_edge10_Node000008_Node000004"><a xlink:title=" ">
<path fill="none" stroke="#63b8ff" d="M315.27,-54.98C299.32,-46.61 274.72,-33.7 256.12,-23.95"/>
<polygon fill="#63b8ff" stroke="#63b8ff" points="257.5,-20.72 247.02,-19.17 254.25,-26.92 257.5,-20.72"/>
</a>
</g>
</g>
<!-- Node10 -->
<g id="Node000010" class="node">
<title>Node10</title>
<g id="a_Node000010"><a xlink:title=" ">
<polygon fill="#e0e0e0" stroke="#999999" points="442.5,-74 392.5,-74 392.5,-55 442.5,-55 442.5,-74"/>
<text text-anchor="middle" x="417.5" y="-62" font-family="Helvetica,sans-Serif" font-size="10.00">stdio.h</text>
</a>
</g>
</g>
<!-- Node9&#45;&gt;Node10 -->
<g id="edge12_Node000009_Node000010" class="edge">
<title>Node9&#45;&gt;Node10</title>
<g id="a_edge12_Node000009_Node000010"><a xlink:title=" ">
<path fill="none" stroke="#63b8ff" d="M369.66,-109.98C378,-102.23 390.53,-90.58 400.68,-81.14"/>
<polygon fill="#63b8ff" stroke="#63b8ff" points="403.24,-83.54 408.18,-74.17 398.47,-78.42 403.24,-83.54"/>
</a>
</g>
</g>
<!-- Node11&#45;&gt;Node4 -->
<g id="edge15_Node000011_Node000004" class="edge">
<title>Node11&#45;&gt;Node4</title>
<g id="a_edge15_Node000011_Node000004"><a xlink:title=" ">
<path fill="none" stroke="#63b8ff" d="M466.32,-109.71C467.07,-95.99 466.32,-69.55 451.5,-55 425.85,-29.82 323.26,-17.86 267.32,-13.12"/>
<polygon fill="#63b8ff" stroke="#63b8ff" points="267.37,-9.61 257.12,-12.29 266.8,-16.59 267.37,-9.61"/>
</a>
</g>
</g>
</g>
</svg>
