<?xml version="1.0" encoding="UTF-8" standalone="no"?>
<!DOCTYPE svg PUBLIC "-//W3C//DTD SVG 1.1//EN"
 "http://www.w3.org/Graphics/SVG/1.1/DTD/svg11.dtd">
<!-- Generated by graphviz version 2.43.0 (0)
 -->
<!-- Title: /home/runner/work/no&#45;OS/no&#45;OS/projects/wethlink/src/platform/maxim/parameters.h Pages: 1 -->
<svg width="961pt" height="214pt"
 viewBox="0.00 0.00 961.12 214.00" xmlns="http://www.w3.org/2000/svg" xmlns:xlink="http://www.w3.org/1999/xlink">
<g id="graph0" class="graph" transform="scale(1 1) rotate(0) translate(4 210)">
<title>/home/runner/work/no&#45;OS/no&#45;OS/projects/wethlink/src/platform/maxim/parameters.h</title>
<!-- Node1 -->
<g id="Node000001" class="node">
<title>Node1</title>
<g id="a_Node000001"><a xlink:title=" ">
<polygon fill="#999999" stroke="#666666" points="599.5,-206 414.5,-206 414.5,-165 599.5,-165 599.5,-206"/>
<text text-anchor="start" x="422.5" y="-194" font-family="Helvetica,sans-Serif" font-size="10.00">/home/runner/work/no</text>
<text text-anchor="start" x="422.5" y="-183" font-family="Helvetica,sans-Serif" font-size="10.00">&#45;OS/no&#45;OS/projects/wethlink</text>
<text text-anchor="middle" x="507" y="-172" font-family="Helvetica,sans-Serif" font-size="10.00">/src/platform/maxim/parameters.h</text>
</a>
</g>
</g>
<!-- Node2 -->
<g id="Node000002" class="node">
<title>Node2</title>
<g id="a_Node000002"><a xlink:href="no__os__uart_8h.html" target="_top" xlink:title="Header file of UART interface.">
<polygon fill="white" stroke="#666666" points="186.5,-129 107.5,-129 107.5,-110 186.5,-110 186.5,-129"/>
<text text-anchor="middle" x="147" y="-117" font-family="Helvetica,sans-Serif" font-size="10.00">no_os_uart.h</text>
</a>
</g>
</g>
<!-- Node1&#45;&gt;Node2 -->
<g id="edge1_Node000001_Node000002" class="edge">
<title>Node1&#45;&gt;Node2</title>
<g id="a_edge1_Node000001_Node000002"><a xlink:title=" ">
<path fill="none" stroke="#63b8ff" d="M414.29,-168.02C344.86,-155.68 252.57,-139.27 196.6,-129.32"/>
<polygon fill="#63b8ff" stroke="#63b8ff" points="197.04,-125.84 186.58,-127.54 195.82,-132.73 197.04,-125.84"/>
</a>
</g>
</g>
<!-- Node7 -->
<g id="Node000007" class="node">
<title>Node7</title>
<g id="a_Node000007"><a xlink:href="no__os__gpio_8h.html" target="_top" xlink:title="Header file of GPIO Interface.">
<polygon fill="white" stroke="#666666" points="770,-74 690,-74 690,-55 770,-55 770,-74"/>
<text text-anchor="middle" x="730" y="-62" font-family="Helvetica,sans-Serif" font-size="10.00">no_os_gpio.h</text>
</a>
</g>
</g>
<!-- Node1&#45;&gt;Node7 -->
<g id="edge8_Node000001_Node000007" class="edge">
<title>Node1&#45;&gt;Node7</title>
<g id="a_edge8_Node000001_Node000007"><a xlink:title=" ">
<path fill="none" stroke="#63b8ff" d="M599.56,-179.15C720.8,-171.17 920.68,-154.34 943,-129 990.26,-75.35 857.53,-66.09 780.6,-65.08"/>
<polygon fill="#63b8ff" stroke="#63b8ff" points="780.17,-61.57 770.14,-64.98 780.1,-68.57 780.17,-61.57"/>
</a>
</g>
</g>
<!-- Node8 -->
<g id="Node000008" class="node">
<title>Node8</title>
<g id="a_Node000008"><a xlink:href="no__os__i2c_8h.html" target="_top" xlink:title="Header file of I2C Interface.">
<polygon fill="white" stroke="#666666" points="404,-74 330,-74 330,-55 404,-55 404,-74"/>
<text text-anchor="middle" x="367" y="-62" font-family="Helvetica,sans-Serif" font-size="10.00">no_os_i2c.h</text>
</a>
</g>
</g>
<!-- Node1&#45;&gt;Node8 -->
<g id="edge10_Node000001_Node000008" class="edge">
<title>Node1&#45;&gt;Node8</title>
<g id="a_edge10_Node000001_Node000008"><a xlink:title=" ">
<path fill="none" stroke="#63b8ff" d="M414.2,-179.11C379.93,-172.06 344.29,-157.66 323,-129 310.81,-112.59 328.73,-93.21 345.24,-80.21"/>
<polygon fill="#63b8ff" stroke="#63b8ff" points="347.61,-82.81 353.57,-74.05 343.45,-77.18 347.61,-82.81"/>
</a>
</g>
</g>
<!-- Node9 -->
<g id="Node000009" class="node">
<title>Node9</title>
<g id="a_Node000009"><a xlink:href="no__os__eeprom_8h.html" target="_top" xlink:title="Header file for EEPROM APIs.">
<polygon fill="white" stroke="#666666" points="311.5,-74 214.5,-74 214.5,-55 311.5,-55 311.5,-74"/>
<text text-anchor="middle" x="263" y="-62" font-family="Helvetica,sans-Serif" font-size="10.00">no_os_eeprom.h</text>
</a>
</g>
</g>
<!-- Node1&#45;&gt;Node9 -->
<g id="edge12_Node000001_Node000009" class="edge">
<title>Node1&#45;&gt;Node9</title>
<g id="a_edge12_Node000001_Node000009"><a xlink:title=" ">
<path fill="none" stroke="#63b8ff" d="M414.23,-169.56C381.03,-161.25 344.55,-148.48 315,-129 297.22,-117.27 282.47,-97.59 273.28,-83.24"/>
<polygon fill="#63b8ff" stroke="#63b8ff" points="276.03,-81.03 267.83,-74.32 270.06,-84.68 276.03,-81.03"/>
</a>
</g>
</g>
<!-- Node10 -->
<g id="Node000010" class="node">
<title>Node10</title>
<g id="a_Node000010"><a xlink:title=" ">
<polygon fill="#e0e0e0" stroke="#999999" points="496,-129 418,-129 418,-110 496,-110 496,-129"/>
<text text-anchor="middle" x="457" y="-117" font-family="Helvetica,sans-Serif" font-size="10.00">maxim_irq.h</text>
</a>
</g>
</g>
<!-- Node1&#45;&gt;Node10 -->
<g id="edge14_Node000001_Node000010" class="edge">
<title>Node1&#45;&gt;Node10</title>
<g id="a_edge14_Node000001_Node000010"><a xlink:title=" ">
<path fill="none" stroke="#63b8ff" d="M491.73,-164.95C484.82,-156.11 476.74,-145.77 470.11,-137.29"/>
<polygon fill="#63b8ff" stroke="#63b8ff" points="472.76,-134.99 463.84,-129.26 467.24,-139.3 472.76,-134.99"/>
</a>
</g>
</g>
<!-- Node11 -->
<g id="Node000011" class="node">
<title>Node11</title>
<g id="a_Node000011"><a xlink:title=" ">
<polygon fill="#e0e0e0" stroke="#999999" points="600,-129 514,-129 514,-110 600,-110 600,-129"/>
<text text-anchor="middle" x="557" y="-117" font-family="Helvetica,sans-Serif" font-size="10.00">maxim_gpio.h</text>
</a>
</g>
</g>
<!-- Node1&#45;&gt;Node11 -->
<g id="edge15_Node000001_Node000011" class="edge">
<title>Node1&#45;&gt;Node11</title>
<g id="a_edge15_Node000001_Node000011"><a xlink:title=" ">
<path fill="none" stroke="#63b8ff" d="M522.27,-164.95C529.18,-156.11 537.26,-145.77 543.89,-137.29"/>
<polygon fill="#63b8ff" stroke="#63b8ff" points="546.76,-139.3 550.16,-129.26 541.24,-134.99 546.76,-139.3"/>
</a>
</g>
</g>
<!-- Node12 -->
<g id="Node000012" class="node">
<title>Node12</title>
<g id="a_Node000012"><a xlink:title=" ">
<polygon fill="#e0e0e0" stroke="#999999" points="703.5,-129 618.5,-129 618.5,-110 703.5,-110 703.5,-129"/>
<text text-anchor="middle" x="661" y="-117" font-family="Helvetica,sans-Serif" font-size="10.00">maxim_uart.h</text>
</a>
</g>
</g>
<!-- Node1&#45;&gt;Node12 -->
<g id="edge16_Node000001_Node000012" class="edge">
<title>Node1&#45;&gt;Node12</title>
<g id="a_edge16_Node000001_Node000012"><a xlink:title=" ">
<path fill="none" stroke="#63b8ff" d="M554.04,-164.95C579.05,-154.56 609.05,-142.09 630.9,-133.01"/>
<polygon fill="#63b8ff" stroke="#63b8ff" points="632.43,-136.16 640.33,-129.09 629.75,-129.7 632.43,-136.16"/>
</a>
</g>
</g>
<!-- Node13 -->
<g id="Node000013" class="node">
<title>Node13</title>
<g id="a_Node000013"><a xlink:title=" ">
<polygon fill="#e0e0e0" stroke="#999999" points="836,-129 722,-129 722,-110 836,-110 836,-129"/>
<text text-anchor="middle" x="779" y="-117" font-family="Helvetica,sans-Serif" font-size="10.00">maxim_uart_stdio.h</text>
</a>
</g>
</g>
<!-- Node1&#45;&gt;Node13 -->
<g id="edge17_Node000001_Node000013" class="edge">
<title>Node1&#45;&gt;Node13</title>
<g id="a_edge17_Node000001_Node000013"><a xlink:title=" ">
<path fill="none" stroke="#63b8ff" d="M590.09,-164.95C636.98,-153.92 693.83,-140.54 732.83,-131.36"/>
<polygon fill="#63b8ff" stroke="#63b8ff" points="733.91,-134.71 742.84,-129.01 732.31,-127.89 733.91,-134.71"/>
</a>
</g>
</g>
<!-- Node14 -->
<g id="Node000014" class="node">
<title>Node14</title>
<g id="a_Node000014"><a xlink:title=" ">
<polygon fill="#e0e0e0" stroke="#999999" points="934,-129 854,-129 854,-110 934,-110 934,-129"/>
<text text-anchor="middle" x="894" y="-117" font-family="Helvetica,sans-Serif" font-size="10.00">maxim_i2c.h</text>
</a>
</g>
</g>
<!-- Node1&#45;&gt;Node14 -->
<g id="edge18_Node000001_Node000014" class="edge">
<title>Node1&#45;&gt;Node14</title>
<g id="a_edge18_Node000001_Node000014"><a xlink:title=" ">
<path fill="none" stroke="#63b8ff" d="M599.57,-169.53C665.06,-158.89 755.23,-144.12 843.93,-129.17"/>
<polygon fill="#63b8ff" stroke="#63b8ff" points="844.62,-132.6 853.89,-127.49 843.45,-125.7 844.62,-132.6"/>
</a>
</g>
</g>
<!-- Node15 -->
<g id="Node000015" class="node">
<title>Node15</title>
<g id="a_Node000015"><a xlink:href="24xx32a_8h.html" target="_top" xlink:title="Header file of 24AA32A/24LC32A Interface.">
<polygon fill="white" stroke="#666666" points="400,-129 332,-129 332,-110 400,-110 400,-129"/>
<text text-anchor="middle" x="366" y="-117" font-family="Helvetica,sans-Serif" font-size="10.00">24xx32a.h</text>
</a>
</g>
</g>
<!-- Node1&#45;&gt;Node15 -->
<g id="edge19_Node000001_Node000015" class="edge">
<title>Node1&#45;&gt;Node15</title>
<g id="a_edge19_Node000001_Node000015"><a xlink:title=" ">
<path fill="none" stroke="#63b8ff" d="M463.93,-164.95C441.24,-154.65 414.06,-142.31 394.1,-133.25"/>
<polygon fill="#63b8ff" stroke="#63b8ff" points="395.48,-130.04 384.93,-129.09 392.59,-136.41 395.48,-130.04"/>
</a>
</g>
</g>
<!-- Node3 -->
<g id="Node000003" class="node">
<title>Node3</title>
<g id="a_Node000003"><a xlink:title=" ">
<polygon fill="#e0e0e0" stroke="#999999" points="341.5,-19 288.5,-19 288.5,0 341.5,0 341.5,-19"/>
<text text-anchor="middle" x="315" y="-7" font-family="Helvetica,sans-Serif" font-size="10.00">stdint.h</text>
</a>
</g>
</g>
<!-- Node2&#45;&gt;Node3 -->
<g id="edge2_Node000002_Node000003" class="edge">
<title>Node2&#45;&gt;Node3</title>
<g id="a_edge2_Node000002_Node000003"><a xlink:title=" ">
<path fill="none" stroke="#63b8ff" d="M152.83,-109.98C162.35,-96.63 182.44,-70.68 205,-55 227.44,-39.4 256.17,-28.01 278.64,-20.67"/>
<polygon fill="#63b8ff" stroke="#63b8ff" points="279.99,-23.91 288.48,-17.58 277.89,-17.24 279.99,-23.91"/>
</a>
</g>
</g>
<!-- Node4 -->
<g id="Node000004" class="node">
<title>Node4</title>
<g id="a_Node000004"><a xlink:title=" ">
<polygon fill="#e0e0e0" stroke="#999999" points="62,-19 0,-19 0,0 62,0 62,-19"/>
<text text-anchor="middle" x="31" y="-7" font-family="Helvetica,sans-Serif" font-size="10.00">stdbool.h</text>
</a>
</g>
</g>
<!-- Node2&#45;&gt;Node4 -->
<g id="edge3_Node000002_Node000004" class="edge">
<title>Node2&#45;&gt;Node4</title>
<g id="a_edge3_Node000002_Node000004"><a xlink:title=" ">
<path fill="none" stroke="#63b8ff" d="M109.7,-109.85C89.1,-103.26 64.6,-92.13 49,-74 38.38,-61.65 34,-43.43 32.21,-29.67"/>
<polygon fill="#63b8ff" stroke="#63b8ff" points="35.66,-29.01 31.23,-19.39 28.69,-29.67 35.66,-29.01"/>
</a>
</g>
</g>
<!-- Node5 -->
<g id="Node000005" class="node">
<title>Node5</title>
<g id="a_Node000005"><a xlink:href="no__os__lf256fifo_8h.html" target="_top" xlink:title="SPSC lock&#45;free fifo of fixed size (256), specialized for UART.">
<polygon fill="white" stroke="#666666" points="158,-74 58,-74 58,-55 158,-55 158,-74"/>
<text text-anchor="middle" x="108" y="-62" font-family="Helvetica,sans-Serif" font-size="10.00">no_os_lf256fifo.h</text>
</a>
</g>
</g>
<!-- Node2&#45;&gt;Node5 -->
<g id="edge4_Node000002_Node000005" class="edge">
<title>Node2&#45;&gt;Node5</title>
<g id="a_edge4_Node000002_Node000005"><a xlink:title=" ">
<path fill="none" stroke="#63b8ff" d="M140.56,-109.75C135.11,-102.34 127.14,-91.5 120.44,-82.41"/>
<polygon fill="#63b8ff" stroke="#63b8ff" points="123.07,-80.07 114.32,-74.09 117.43,-84.22 123.07,-80.07"/>
</a>
</g>
</g>
<!-- Node5&#45;&gt;Node3 -->
<g id="edge6_Node000005_Node000003" class="edge">
<title>Node5&#45;&gt;Node3</title>
<g id="a_edge6_Node000005_Node000003"><a xlink:title=" ">
<path fill="none" stroke="#63b8ff" d="M141.26,-54.98C178.82,-45.37 239.74,-29.77 278.56,-19.83"/>
<polygon fill="#63b8ff" stroke="#63b8ff" points="279.59,-23.18 288.41,-17.31 277.85,-16.4 279.59,-23.18"/>
</a>
</g>
</g>
<!-- Node5&#45;&gt;Node4 -->
<g id="edge7_Node000005_Node000004" class="edge">
<title>Node5&#45;&gt;Node4</title>
<g id="a_edge7_Node000005_Node000004"><a xlink:title=" ">
<path fill="none" stroke="#63b8ff" d="M95.63,-54.98C83.91,-46.92 66.08,-34.65 52.11,-25.03"/>
<polygon fill="#63b8ff" stroke="#63b8ff" points="53.82,-21.96 43.6,-19.17 49.85,-27.72 53.82,-21.96"/>
</a>
</g>
</g>
<!-- Node6 -->
<g id="Node000006" class="node">
<title>Node6</title>
<g id="a_Node000006"><a xlink:title=" ">
<polygon fill="#e0e0e0" stroke="#999999" points="134.5,-19 81.5,-19 81.5,0 134.5,0 134.5,-19"/>
<text text-anchor="middle" x="108" y="-7" font-family="Helvetica,sans-Serif" font-size="10.00">stdlib.h</text>
</a>
</g>
</g>
<!-- Node5&#45;&gt;Node6 -->
<g id="edge5_Node000005_Node000006" class="edge">
<title>Node5&#45;&gt;Node6</title>
<g id="a_edge5_Node000005_Node000006"><a xlink:title=" ">
<path fill="none" stroke="#63b8ff" d="M108,-54.75C108,-47.8 108,-37.85 108,-29.13"/>
<polygon fill="#63b8ff" stroke="#63b8ff" points="111.5,-29.09 108,-19.09 104.5,-29.09 111.5,-29.09"/>
</a>
</g>
</g>
<!-- Node7&#45;&gt;Node3 -->
<g id="edge9_Node000007_Node000003" class="edge">
<title>Node7&#45;&gt;Node3</title>
<g id="a_edge9_Node000007_Node000003"><a xlink:title=" ">
<path fill="none" stroke="#63b8ff" d="M689.83,-58.37C609.4,-48.1 429.65,-25.14 351.95,-15.22"/>
<polygon fill="#63b8ff" stroke="#63b8ff" points="352.05,-11.7 341.68,-13.91 351.16,-18.65 352.05,-11.7"/>
</a>
</g>
</g>
<!-- Node8&#45;&gt;Node3 -->
<g id="edge11_Node000008_Node000003" class="edge">
<title>Node8&#45;&gt;Node3</title>
<g id="a_edge11_Node000008_Node000003"><a xlink:title=" ">
<path fill="none" stroke="#63b8ff" d="M358.41,-54.75C350.84,-47.03 339.62,-35.6 330.49,-26.28"/>
<polygon fill="#63b8ff" stroke="#63b8ff" points="332.93,-23.78 323.43,-19.09 327.93,-28.68 332.93,-23.78"/>
</a>
</g>
</g>
<!-- Node9&#45;&gt;Node3 -->
<g id="edge13_Node000009_Node000003" class="edge">
<title>Node9&#45;&gt;Node3</title>
<g id="a_edge13_Node000009_Node000003"><a xlink:title=" ">
<path fill="none" stroke="#63b8ff" d="M271.59,-54.75C279.16,-47.03 290.38,-35.6 299.51,-26.28"/>
<polygon fill="#63b8ff" stroke="#63b8ff" points="302.07,-28.68 306.57,-19.09 297.07,-23.78 302.07,-28.68"/>
</a>
</g>
</g>
<!-- Node15&#45;&gt;Node3 -->
<g id="edge20_Node000015_Node000003" class="edge">
<title>Node15&#45;&gt;Node3</title>
<g id="a_edge20_Node000015_Node000003"><a xlink:title=" ">
<path fill="none" stroke="#63b8ff" d="M380.42,-109.92C398.65,-97.95 426.15,-75.41 413,-55 399.55,-34.12 373.64,-22.92 351.84,-16.99"/>
<polygon fill="#63b8ff" stroke="#63b8ff" points="352.4,-13.52 341.85,-14.54 350.74,-20.32 352.4,-13.52"/>
</a>
</g>
</g>
<!-- Node15&#45;&gt;Node8 -->
<g id="edge21_Node000015_Node000008" class="edge">
<title>Node15&#45;&gt;Node8</title>
<g id="a_edge21_Node000015_Node000008"><a xlink:title=" ">
<path fill="none" stroke="#63b8ff" d="M366.17,-109.75C366.3,-102.8 366.48,-92.85 366.65,-84.13"/>
<polygon fill="#63b8ff" stroke="#63b8ff" points="370.15,-84.15 366.84,-74.09 363.15,-84.02 370.15,-84.15"/>
</a>
</g>
</g>
</g>
</svg>
