<?xml version="1.0" encoding="UTF-8" standalone="no"?>
<!DOCTYPE svg PUBLIC "-//W3C//DTD SVG 1.1//EN"
 "http://www.w3.org/Graphics/SVG/1.1/DTD/svg11.dtd">
<!-- Generated by graphviz version 2.43.0 (0)
 -->
<!-- Title: /home/runner/work/no&#45;OS/no&#45;OS/drivers/platform/xilinx/xilinx_gpio_irq.c Pages: 1 -->
<svg width="622pt" height="214pt"
 viewBox="0.00 0.00 621.50 214.00" xmlns="http://www.w3.org/2000/svg" xmlns:xlink="http://www.w3.org/1999/xlink">
<g id="graph0" class="graph" transform="scale(1 1) rotate(0) translate(4 210)">
<title>/home/runner/work/no&#45;OS/no&#45;OS/drivers/platform/xilinx/xilinx_gpio_irq.c</title>
<!-- Node1 -->
<g id="Node000001" class="node">
<title>Node1</title>
<g id="a_Node000001"><a xlink:title="Implementation of Xilinx GPIO IRQ Generic Driver.">
<polygon fill="#999999" stroke="#666666" points="355.5,-206 207.5,-206 207.5,-165 355.5,-165 355.5,-206"/>
<text text-anchor="start" x="215.5" y="-194" font-family="Helvetica,sans-Serif" font-size="10.00">/home/runner/work/no</text>
<text text-anchor="start" x="215.5" y="-183" font-family="Helvetica,sans-Serif" font-size="10.00">&#45;OS/no&#45;OS/drivers/platform</text>
<text text-anchor="middle" x="281.5" y="-172" font-family="Helvetica,sans-Serif" font-size="10.00">/xilinx/xilinx_gpio_irq.c</text>
</a>
</g>
</g>
<!-- Node2 -->
<g id="Node000002" class="node">
<title>Node2</title>
<g id="a_Node000002"><a xlink:title=" ">
<polygon fill="#e0e0e0" stroke="#999999" points="125,-74 72,-74 72,-55 125,-55 125,-74"/>
<text text-anchor="middle" x="98.5" y="-62" font-family="Helvetica,sans-Serif" font-size="10.00">stdlib.h</text>
</a>
</g>
</g>
<!-- Node1&#45;&gt;Node2 -->
<g id="edge1_Node000001_Node000002" class="edge">
<title>Node1&#45;&gt;Node2</title>
<g id="a_edge1_Node000001_Node000002"><a xlink:title=" ">
<path fill="none" stroke="#63b8ff" d="M207.41,-172.73C177.83,-164.73 145.43,-151.35 122.5,-129 110.25,-117.06 104.17,-98.24 101.21,-84.18"/>
<polygon fill="#63b8ff" stroke="#63b8ff" points="104.63,-83.39 99.44,-74.15 97.73,-84.61 104.63,-83.39"/>
</a>
</g>
</g>
<!-- Node3 -->
<g id="Node000003" class="node">
<title>Node3</title>
<g id="a_Node000003"><a xlink:title=" ">
<polygon fill="#e0e0e0" stroke="#999999" points="513.5,-129 425.5,-129 425.5,-110 513.5,-110 513.5,-129"/>
<text text-anchor="middle" x="469.5" y="-117" font-family="Helvetica,sans-Serif" font-size="10.00">xparameters.h</text>
</a>
</g>
</g>
<!-- Node1&#45;&gt;Node3 -->
<g id="edge2_Node000001_Node000003" class="edge">
<title>Node1&#45;&gt;Node3</title>
<g id="a_edge2_Node000001_Node000003"><a xlink:title=" ">
<path fill="none" stroke="#63b8ff" d="M338.93,-164.95C370.14,-154.32 407.73,-141.53 434.55,-132.4"/>
<polygon fill="#63b8ff" stroke="#63b8ff" points="435.92,-135.63 444.26,-129.09 433.67,-129 435.92,-135.63"/>
</a>
</g>
</g>
<!-- Node4 -->
<g id="Node000004" class="node">
<title>Node4</title>
<g id="a_Node000004"><a xlink:href="no__os__error_8h.html" target="_top" xlink:title="Error codes definition.">
<polygon fill="white" stroke="#666666" points="613.5,-129 531.5,-129 531.5,-110 613.5,-110 613.5,-129"/>
<text text-anchor="middle" x="572.5" y="-117" font-family="Helvetica,sans-Serif" font-size="10.00">no_os_error.h</text>
</a>
</g>
</g>
<!-- Node1&#45;&gt;Node4 -->
<g id="edge3_Node000001_Node000004" class="edge">
<title>Node1&#45;&gt;Node4</title>
<g id="a_edge3_Node000001_Node000004"><a xlink:title=" ">
<path fill="none" stroke="#63b8ff" d="M355.68,-168.18C408.44,-156.58 477.82,-141.32 523.72,-131.23"/>
<polygon fill="#63b8ff" stroke="#63b8ff" points="524.7,-134.6 533.72,-129.03 523.2,-127.76 524.7,-134.6"/>
</a>
</g>
</g>
<!-- Node6 -->
<g id="Node000006" class="node">
<title>Node6</title>
<g id="a_Node000006"><a xlink:href="xilinx__gpio__irq_8h.html" target="_top" xlink:title="Implementation of Xilinx GPIO IRQ Generic Driver.">
<polygon fill="white" stroke="#666666" points="369,-129 272,-129 272,-110 369,-110 369,-129"/>
<text text-anchor="middle" x="320.5" y="-117" font-family="Helvetica,sans-Serif" font-size="10.00">xilinx_gpio_irq.h</text>
</a>
</g>
</g>
<!-- Node1&#45;&gt;Node6 -->
<g id="edge5_Node000001_Node000006" class="edge">
<title>Node1&#45;&gt;Node6</title>
<g id="a_edge5_Node000001_Node000006"><a xlink:title=" ">
<path fill="none" stroke="#63b8ff" d="M293.41,-164.95C298.69,-156.3 304.84,-146.2 309.94,-137.82"/>
<polygon fill="#63b8ff" stroke="#63b8ff" points="312.95,-139.62 315.16,-129.26 306.97,-135.98 312.95,-139.62"/>
</a>
</g>
</g>
<!-- Node8 -->
<g id="Node000008" class="node">
<title>Node8</title>
<g id="a_Node000008"><a xlink:href="no__os__list_8h.html" target="_top" xlink:title="List library header.">
<polygon fill="white" stroke="#666666" points="323.5,-74 249.5,-74 249.5,-55 323.5,-55 323.5,-74"/>
<text text-anchor="middle" x="286.5" y="-62" font-family="Helvetica,sans-Serif" font-size="10.00">no_os_list.h</text>
</a>
</g>
</g>
<!-- Node1&#45;&gt;Node8 -->
<g id="edge17_Node000001_Node000008" class="edge">
<title>Node1&#45;&gt;Node8</title>
<g id="a_edge17_Node000001_Node000008"><a xlink:title=" ">
<path fill="none" stroke="#63b8ff" d="M271.58,-164.89C265.23,-149.86 258.97,-128.62 263.5,-110 265.81,-100.51 270.52,-90.78 275.08,-82.85"/>
<polygon fill="#63b8ff" stroke="#63b8ff" points="278.14,-84.55 280.4,-74.2 272.18,-80.89 278.14,-84.55"/>
</a>
</g>
</g>
<!-- Node11 -->
<g id="Node000011" class="node">
<title>Node11</title>
<g id="a_Node000011"><a xlink:href="no__os__irq_8h.html" target="_top" xlink:title="Header file of IRQ interface.">
<polygon fill="white" stroke="#666666" points="495.5,-74 423.5,-74 423.5,-55 495.5,-55 495.5,-74"/>
<text text-anchor="middle" x="459.5" y="-62" font-family="Helvetica,sans-Serif" font-size="10.00">no_os_irq.h</text>
</a>
</g>
</g>
<!-- Node1&#45;&gt;Node11 -->
<g id="edge18_Node000001_Node000011" class="edge">
<title>Node1&#45;&gt;Node11</title>
<g id="a_edge18_Node000001_Node000011"><a xlink:title=" ">
<path fill="none" stroke="#63b8ff" d="M318.65,-164.9C337.04,-154.79 359.34,-141.89 378.5,-129 401.02,-113.85 425.32,-94.33 441.37,-80.95"/>
<polygon fill="#63b8ff" stroke="#63b8ff" points="443.98,-83.33 449.38,-74.22 439.47,-77.98 443.98,-83.33"/>
</a>
</g>
</g>
<!-- Node12 -->
<g id="Node000012" class="node">
<title>Node12</title>
<g id="a_Node000012"><a xlink:href="no__os__util_8h.html" target="_top" xlink:title="Header file of utility functions.">
<polygon fill="white" stroke="#666666" points="75,-129 0,-129 0,-110 75,-110 75,-129"/>
<text text-anchor="middle" x="37.5" y="-117" font-family="Helvetica,sans-Serif" font-size="10.00">no_os_util.h</text>
</a>
</g>
</g>
<!-- Node1&#45;&gt;Node12 -->
<g id="edge13_Node000001_Node000012" class="edge">
<title>Node1&#45;&gt;Node12</title>
<g id="a_edge13_Node000001_Node000012"><a xlink:title=" ">
<path fill="none" stroke="#63b8ff" d="M207.3,-165.04C165.57,-154.09 114.98,-140.82 79.93,-131.63"/>
<polygon fill="#63b8ff" stroke="#63b8ff" points="80.59,-128.18 70.03,-129.03 78.81,-134.95 80.59,-128.18"/>
</a>
</g>
</g>
<!-- Node13 -->
<g id="Node000013" class="node">
<title>Node13</title>
<g id="a_Node000013"><a xlink:href="no__os__alloc_8h.html" target="_top" xlink:title=" ">
<polygon fill="white" stroke="#666666" points="215,-129 132,-129 132,-110 215,-110 215,-129"/>
<text text-anchor="middle" x="173.5" y="-117" font-family="Helvetica,sans-Serif" font-size="10.00">no_os_alloc.h</text>
</a>
</g>
</g>
<!-- Node1&#45;&gt;Node13 -->
<g id="edge19_Node000001_Node000013" class="edge">
<title>Node1&#45;&gt;Node13</title>
<g id="a_edge19_Node000001_Node000013"><a xlink:title=" ">
<path fill="none" stroke="#63b8ff" d="M248.51,-164.95C231.76,-155.03 211.82,-143.21 196.71,-134.25"/>
<polygon fill="#63b8ff" stroke="#63b8ff" points="198.39,-131.18 188,-129.09 194.82,-137.2 198.39,-131.18"/>
</a>
</g>
</g>
<!-- Node5 -->
<g id="Node000005" class="node">
<title>Node5</title>
<g id="a_Node000005"><a xlink:href="errno_8h.html" target="_top" xlink:title="Error macro definition for ARM Compiler.">
<polygon fill="white" stroke="#666666" points="598,-74 547,-74 547,-55 598,-55 598,-74"/>
<text text-anchor="middle" x="572.5" y="-62" font-family="Helvetica,sans-Serif" font-size="10.00">errno.h</text>
</a>
</g>
</g>
<!-- Node4&#45;&gt;Node5 -->
<g id="edge4_Node000004_Node000005" class="edge">
<title>Node4&#45;&gt;Node5</title>
<g id="a_edge4_Node000004_Node000005"><a xlink:title=" ">
<path fill="none" stroke="#63b8ff" d="M572.5,-109.75C572.5,-102.8 572.5,-92.85 572.5,-84.13"/>
<polygon fill="#63b8ff" stroke="#63b8ff" points="576,-84.09 572.5,-74.09 569,-84.09 576,-84.09"/>
</a>
</g>
</g>
<!-- Node7 -->
<g id="Node000007" class="node">
<title>Node7</title>
<g id="a_Node000007"><a xlink:title=" ">
<polygon fill="#e0e0e0" stroke="#999999" points="246.5,-19 184.5,-19 184.5,0 246.5,0 246.5,-19"/>
<text text-anchor="middle" x="215.5" y="-7" font-family="Helvetica,sans-Serif" font-size="10.00">stdbool.h</text>
</a>
</g>
</g>
<!-- Node6&#45;&gt;Node7 -->
<g id="edge6_Node000006_Node000007" class="edge">
<title>Node6&#45;&gt;Node7</title>
<g id="a_edge6_Node000006_Node000007"><a xlink:title=" ">
<path fill="none" stroke="#63b8ff" d="M295.88,-109.99C278.35,-102.81 255.37,-90.98 240.5,-74 229.29,-61.2 222.79,-42.78 219.24,-29.07"/>
<polygon fill="#63b8ff" stroke="#63b8ff" points="222.65,-28.25 217,-19.28 215.82,-29.81 222.65,-28.25"/>
</a>
</g>
</g>
<!-- Node6&#45;&gt;Node8 -->
<g id="edge7_Node000006_Node000008" class="edge">
<title>Node6&#45;&gt;Node8</title>
<g id="a_edge7_Node000006_Node000008"><a xlink:title=" ">
<path fill="none" stroke="#63b8ff" d="M314.89,-109.75C310.18,-102.42 303.33,-91.73 297.53,-82.7"/>
<polygon fill="#63b8ff" stroke="#63b8ff" points="300.36,-80.62 292.01,-74.09 294.46,-84.4 300.36,-80.62"/>
</a>
</g>
</g>
<!-- Node10 -->
<g id="Node000010" class="node">
<title>Node10</title>
<g id="a_Node000010"><a xlink:title=" ">
<polygon fill="#e0e0e0" stroke="#999999" points="405.5,-74 341.5,-74 341.5,-55 405.5,-55 405.5,-74"/>
<text text-anchor="middle" x="373.5" y="-62" font-family="Helvetica,sans-Serif" font-size="10.00">xgpiops.h</text>
</a>
</g>
</g>
<!-- Node6&#45;&gt;Node10 -->
<g id="edge10_Node000006_Node000010" class="edge">
<title>Node6&#45;&gt;Node10</title>
<g id="a_edge10_Node000006_Node000010"><a xlink:title=" ">
<path fill="none" stroke="#63b8ff" d="M329.25,-109.75C336.97,-102.03 348.4,-90.6 357.72,-81.28"/>
<polygon fill="#63b8ff" stroke="#63b8ff" points="360.31,-83.64 364.91,-74.09 355.36,-78.69 360.31,-83.64"/>
</a>
</g>
</g>
<!-- Node6&#45;&gt;Node11 -->
<g id="edge11_Node000006_Node000011" class="edge">
<title>Node6&#45;&gt;Node11</title>
<g id="a_edge11_Node000006_Node000011"><a xlink:title=" ">
<path fill="none" stroke="#63b8ff" d="M342.83,-109.98C365.7,-101.27 401.46,-87.63 427.36,-77.75"/>
<polygon fill="#63b8ff" stroke="#63b8ff" points="428.66,-81 436.76,-74.17 426.17,-74.46 428.66,-81"/>
</a>
</g>
</g>
<!-- Node8&#45;&gt;Node7 -->
<g id="edge9_Node000008_Node000007" class="edge">
<title>Node8&#45;&gt;Node7</title>
<g id="a_edge9_Node000008_Node000007"><a xlink:title=" ">
<path fill="none" stroke="#63b8ff" d="M275.09,-54.98C264.39,-47 248.16,-34.88 235.34,-25.31"/>
<polygon fill="#63b8ff" stroke="#63b8ff" points="237.22,-22.35 227.11,-19.17 233.03,-27.96 237.22,-22.35"/>
</a>
</g>
</g>
<!-- Node9 -->
<g id="Node000009" class="node">
<title>Node9</title>
<g id="a_Node000009"><a xlink:title=" ">
<polygon fill="#e0e0e0" stroke="#999999" points="318,-19 265,-19 265,0 318,0 318,-19"/>
<text text-anchor="middle" x="291.5" y="-7" font-family="Helvetica,sans-Serif" font-size="10.00">stdint.h</text>
</a>
</g>
</g>
<!-- Node8&#45;&gt;Node9 -->
<g id="edge8_Node000008_Node000009" class="edge">
<title>Node8&#45;&gt;Node9</title>
<g id="a_edge8_Node000008_Node000009"><a xlink:title=" ">
<path fill="none" stroke="#63b8ff" d="M287.33,-54.75C287.98,-47.8 288.92,-37.85 289.74,-29.13"/>
<polygon fill="#63b8ff" stroke="#63b8ff" points="293.23,-29.37 290.69,-19.09 286.27,-28.72 293.23,-29.37"/>
</a>
</g>
</g>
<!-- Node11&#45;&gt;Node9 -->
<g id="edge12_Node000011_Node000009" class="edge">
<title>Node11&#45;&gt;Node9</title>
<g id="a_edge12_Node000011_Node000009"><a xlink:title=" ">
<path fill="none" stroke="#63b8ff" d="M432.51,-54.98C404.14,-46.03 359.33,-31.9 327.86,-21.97"/>
<polygon fill="#63b8ff" stroke="#63b8ff" points="328.74,-18.58 318.15,-18.91 326.63,-25.25 328.74,-18.58"/>
</a>
</g>
</g>
<!-- Node12&#45;&gt;Node2 -->
<g id="edge15_Node000012_Node000002" class="edge">
<title>Node12&#45;&gt;Node2</title>
<g id="a_edge15_Node000012_Node000002"><a xlink:title=" ">
<path fill="none" stroke="#63b8ff" d="M47.3,-109.98C56.32,-102.15 69.91,-90.34 80.82,-80.86"/>
<polygon fill="#63b8ff" stroke="#63b8ff" points="83.27,-83.37 88.52,-74.17 78.68,-78.09 83.27,-83.37"/>
</a>
</g>
</g>
<!-- Node12&#45;&gt;Node7 -->
<g id="edge16_Node000012_Node000007" class="edge">
<title>Node12&#45;&gt;Node7</title>
<g id="a_edge16_Node000012_Node000007"><a xlink:title=" ">
<path fill="none" stroke="#63b8ff" d="M32.74,-109.63C26.3,-96.27 16.97,-70.88 29.5,-55 47.16,-32.61 124.87,-20.23 174.09,-14.51"/>
<polygon fill="#63b8ff" stroke="#63b8ff" points="174.58,-17.98 184.13,-13.39 173.8,-11.02 174.58,-17.98"/>
</a>
</g>
</g>
<!-- Node12&#45;&gt;Node9 -->
<g id="edge14_Node000012_Node000009" class="edge">
<title>Node12&#45;&gt;Node9</title>
<g id="a_edge14_Node000012_Node000009"><a xlink:title=" ">
<path fill="none" stroke="#63b8ff" d="M38.27,-110C40.01,-96.19 45.5,-69.03 62.5,-55 127.36,-1.46 167.18,-34.44 254.74,-18.91"/>
<polygon fill="#63b8ff" stroke="#63b8ff" points="255.65,-22.3 264.8,-16.95 254.31,-15.43 255.65,-22.3"/>
</a>
</g>
</g>
<!-- Node13&#45;&gt;Node2 -->
<g id="edge21_Node000013_Node000002" class="edge">
<title>Node13&#45;&gt;Node2</title>
<g id="a_edge21_Node000013_Node000002"><a xlink:title=" ">
<path fill="none" stroke="#63b8ff" d="M161.45,-109.98C150.04,-101.92 132.67,-89.65 119.07,-80.03"/>
<polygon fill="#63b8ff" stroke="#63b8ff" points="120.96,-77.08 110.77,-74.17 116.92,-82.8 120.96,-77.08"/>
</a>
</g>
</g>
<!-- Node14 -->
<g id="Node000014" class="node">
<title>Node14</title>
<g id="a_Node000014"><a xlink:title=" ">
<polygon fill="#e0e0e0" stroke="#999999" points="193.5,-74 143.5,-74 143.5,-55 193.5,-55 193.5,-74"/>
<text text-anchor="middle" x="168.5" y="-62" font-family="Helvetica,sans-Serif" font-size="10.00">stdio.h</text>
</a>
</g>
</g>
<!-- Node13&#45;&gt;Node14 -->
<g id="edge20_Node000013_Node000014" class="edge">
<title>Node13&#45;&gt;Node14</title>
<g id="a_edge20_Node000013_Node000014"><a xlink:title=" ">
<path fill="none" stroke="#63b8ff" d="M172.67,-109.75C172.02,-102.8 171.08,-92.85 170.26,-84.13"/>
<polygon fill="#63b8ff" stroke="#63b8ff" points="173.73,-83.72 169.31,-74.09 166.77,-84.37 173.73,-83.72"/>
</a>
</g>
</g>
</g>
</svg>
