<?xml version="1.0" encoding="UTF-8" standalone="no"?>
<!DOCTYPE svg PUBLIC "-//W3C//DTD SVG 1.1//EN"
 "http://www.w3.org/Graphics/SVG/1.1/DTD/svg11.dtd">
<!-- Generated by graphviz version 2.43.0 (0)
 -->
<!-- Title: /home/runner/work/no&#45;OS/no&#45;OS/drivers/axi_core/jesd204/xilinx_transceiver.h Pages: 1 -->
<!--zoomable 368 -->

<svg id="main" version="1.1" xmlns="http://www.w3.org/2000/svg" xmlns:xlink="http://www.w3.org/1999/xlink" xml:space="preserve" onload="init(evt)">

<style type="text/css"><![CDATA[
.node, .edge {opacity: 0.7;}
.node.selected, .edge.selected {opacity: 1;}
.edge:hover path { stroke: red; }
.edge:hover polygon { stroke: red; fill: red; }
]]></style>

<defs>
  <circle id="rim" cx="0" cy="0" r="7"/>
  <circle id="rim2" cx="0" cy="0" r="3.5"/>
  <g id="zoomPlus">
    <use xlink:href="#rim" fill="#404040"><set attributeName="fill" to="#808080" begin="zoomplus.mouseover" end="zoomplus.mouseout"/></use>
    <path d="M-4,0h8M0,-4v8" fill="none" stroke="white" stroke-width="1.5" pointer-events="none"/>
  </g>
  <g id="zoomMin">
    <use xlink:href="#rim" fill="#404040"><set attributeName="fill" to="#808080" begin="zoomminus.mouseover" end="zoomminus.mouseout"/></use>
    <path d="M-4,0h8" fill="none" stroke="white" stroke-width="1.5" pointer-events="none"/>
  </g>
  <g id="arrowUp" transform="translate(30 24)">
    <use xlink:href="#rim"/>
    <path pointer-events="none" fill="none" stroke="white" stroke-width="1.5" d="M0,-3.0v7 M-2.5,-0.5L0,-3.0L2.5,-0.5"/>
  </g>
  <g id="arrowRight" transform="rotate(90) translate(36 -43)">
    <use xlink:href="#rim"/>
    <path pointer-events="none" fill="none" stroke="white" stroke-width="1.5" d="M0,-3.0v7 M-2.5,-0.5L0,-3.0L2.5,-0.5"/>
  </g>
  <g id="arrowDown" transform="rotate(180) translate(-30 -48)">
    <use xlink:href="#rim"/>
    <path pointer-events="none" fill="none" stroke="white" stroke-width="1.5" d="M0,-3.0v7 M-2.5,-0.5L0,-3.0L2.5,-0.5"/>
  </g>
  <g id="arrowLeft" transform="rotate(270) translate(-36 17)">
    <use xlink:href="#rim"/>
    <path pointer-events="none" fill="none" stroke="white" stroke-width="1.5" d="M0,-3.0v7 M-2.5,-0.5L0,-3.0L2.5,-0.5"/>
  </g>
  <g id="resetDef">
    <use xlink:href="#rim2" fill="#404040"><set attributeName="fill" to="#808080" begin="reset.mouseover" end="reset.mouseout"/></use>
  </g>
</defs>
<script type="application/ecmascript">
var viewWidth = 2768;
var viewHeight = 368;
var sectionId = 'dynsection-1';
</script>
<script type="application/ecmascript" xlink:href="svg.min.js"/>
<svg id="graph" class="graph">
<g id="viewport">
<title>/home/runner/work/no&#45;OS/no&#45;OS/drivers/axi_core/jesd204/xilinx_transceiver.h</title>
<!-- Node1 -->
<g id="Node000001" class="node">
<title>Node1</title>
<g id="a_Node000001"><a xlink:title="Driver for the Xilinx High&#45;speed transceiver dynamic reconfiguration.">
<polygon fill="#999999" stroke="#666666" points="348,-360 166,-360 166,-319 348,-319 348,-360"/>
<text text-anchor="start" x="174" y="-348" font-family="Helvetica,sans-Serif" font-size="10.00">/home/runner/work/no</text>
<text text-anchor="start" x="174" y="-337" font-family="Helvetica,sans-Serif" font-size="10.00">&#45;OS/no&#45;OS/drivers/axi</text>
<text text-anchor="middle" x="257" y="-326" font-family="Helvetica,sans-Serif" font-size="10.00">_core/jesd204/xilinx_transceiver.h</text>
</a>
</g>
</g>
<!-- Node2 -->
<g id="Node000002" class="node">
<title>Node2</title>
<g id="a_Node000002"><a xlink:href="axi__adxcvr_8c.html" target="_top" xlink:title="Driver for the ADI AXI&#45;ADXCVR Module.">
<polygon fill="white" stroke="#666666" points="148,-200.5 0,-200.5 0,-159.5 148,-159.5 148,-200.5"/>
<text text-anchor="start" x="8" y="-188.5" font-family="Helvetica,sans-Serif" font-size="10.00">/home/runner/work/no</text>
<text text-anchor="start" x="8" y="-177.5" font-family="Helvetica,sans-Serif" font-size="10.00">&#45;OS/no&#45;OS/drivers/axi</text>
<text text-anchor="middle" x="74" y="-166.5" font-family="Helvetica,sans-Serif" font-size="10.00">_core/jesd204/axi_adxcvr.c</text>
</a>
</g>
</g>
<!-- Node1&#45;&gt;Node2 -->
<g id="edge1_Node000001_Node000002" class="edge">
<title>Node1&#45;&gt;Node2</title>
<g id="a_edge1_Node000001_Node000002"><a xlink:title=" ">
<path fill="none" stroke="#63b8ff" d="M226.32,-312.1C189.76,-280.63 129.5,-228.76 96.81,-200.63"/>
<polygon fill="#63b8ff" stroke="#63b8ff" points="224.33,-315 234.19,-318.87 228.9,-309.69 224.33,-315"/>
</a>
</g>
</g>
<!-- Node3 -->
<g id="Node000003" class="node">
<title>Node3</title>
<g id="a_Node000003"><a xlink:href="axi__adxcvr_8h.html" target="_top" xlink:title="Driver for the ADI AXI&#45;ADXCVR Module.">
<polygon fill="white" stroke="#666666" points="1545.5,-283 1396.5,-283 1396.5,-242 1545.5,-242 1545.5,-283"/>
<text text-anchor="start" x="1404.5" y="-271" font-family="Helvetica,sans-Serif" font-size="10.00">/home/runner/work/no</text>
<text text-anchor="start" x="1404.5" y="-260" font-family="Helvetica,sans-Serif" font-size="10.00">&#45;OS/no&#45;OS/drivers/axi</text>
<text text-anchor="middle" x="1471" y="-249" font-family="Helvetica,sans-Serif" font-size="10.00">_core/jesd204/axi_adxcvr.h</text>
</a>
</g>
</g>
<!-- Node1&#45;&gt;Node3 -->
<g id="edge2_Node000001_Node000003" class="edge">
<title>Node1&#45;&gt;Node3</title>
<g id="a_edge2_Node000001_Node000003"><a xlink:title=" ">
<path fill="none" stroke="#63b8ff" d="M358.28,-332.24C596.34,-317.54 1187.11,-281.04 1396.2,-268.12"/>
<polygon fill="#63b8ff" stroke="#63b8ff" points="358.01,-328.75 348.25,-332.86 358.44,-335.74 358.01,-328.75"/>
</a>
</g>
</g>
<!-- Node11 -->
<g id="Node000011" class="node">
<title>Node11</title>
<g id="a_Node000011"><a xlink:href="xilinx__transceiver_8c.html" target="_top" xlink:title="Driver for the Xilinx High&#45;speed transceiver dynamic reconfiguration.">
<polygon fill="white" stroke="#666666" points="348,-200.5 166,-200.5 166,-159.5 348,-159.5 348,-200.5"/>
<text text-anchor="start" x="174" y="-188.5" font-family="Helvetica,sans-Serif" font-size="10.00">/home/runner/work/no</text>
<text text-anchor="start" x="174" y="-177.5" font-family="Helvetica,sans-Serif" font-size="10.00">&#45;OS/no&#45;OS/drivers/axi</text>
<text text-anchor="middle" x="257" y="-166.5" font-family="Helvetica,sans-Serif" font-size="10.00">_core/jesd204/xilinx_transceiver.c</text>
</a>
</g>
</g>
<!-- Node1&#45;&gt;Node11 -->
<g id="edge28_Node000001_Node000011" class="edge">
<title>Node1&#45;&gt;Node11</title>
<g id="a_edge28_Node000001_Node000011"><a xlink:title=" ">
<path fill="none" stroke="#63b8ff" d="M257,-308.47C257,-276.87 257,-228.01 257,-200.88"/>
<polygon fill="#63b8ff" stroke="#63b8ff" points="253.5,-308.87 257,-318.87 260.5,-308.87 253.5,-308.87"/>
</a>
</g>
</g>
<!-- Node3&#45;&gt;Node2 -->
<g id="edge3_Node000003_Node000002" class="edge">
<title>Node3&#45;&gt;Node2</title>
<g id="a_edge3_Node000003_Node000002"><a xlink:title=" ">
<path fill="none" stroke="#63b8ff" d="M1386.19,-260.69C1134.53,-257.83 394.74,-246.17 157,-206 148.99,-204.65 140.66,-202.75 132.51,-200.6"/>
<polygon fill="#63b8ff" stroke="#63b8ff" points="1386.34,-264.19 1396.38,-260.8 1386.42,-257.19 1386.34,-264.19"/>
</a>
</g>
</g>
<!-- Node4 -->
<g id="Node000004" class="node">
<title>Node4</title>
<g id="a_Node000004"><a xlink:href="jesd204__clk_8h.html" target="_top" xlink:title="Analog Devices JESD204 clock.">
<polygon fill="white" stroke="#666666" points="2381,-200.5 2227,-200.5 2227,-159.5 2381,-159.5 2381,-200.5"/>
<text text-anchor="start" x="2235" y="-188.5" font-family="Helvetica,sans-Serif" font-size="10.00">/home/runner/work/no</text>
<text text-anchor="start" x="2235" y="-177.5" font-family="Helvetica,sans-Serif" font-size="10.00">&#45;OS/no&#45;OS/drivers/axi</text>
<text text-anchor="middle" x="2304" y="-166.5" font-family="Helvetica,sans-Serif" font-size="10.00">_core/jesd204/jesd204_clk.h</text>
</a>
</g>
</g>
<!-- Node3&#45;&gt;Node4 -->
<g id="edge4_Node000003_Node000004" class="edge">
<title>Node3&#45;&gt;Node4</title>
<g id="a_edge4_Node000003_Node000004"><a xlink:title=" ">
<path fill="none" stroke="#63b8ff" d="M1555.75,-259.97C1693.29,-256.4 1973.27,-244.62 2207,-206 2215.92,-204.53 2225.22,-202.62 2234.38,-200.52"/>
<polygon fill="#63b8ff" stroke="#63b8ff" points="1555.6,-256.47 1545.69,-260.22 1555.78,-263.47 1555.6,-256.47"/>
</a>
</g>
</g>
<!-- Node6 -->
<g id="Node000006" class="node">
<title>Node6</title>
<g id="a_Node000006"><a xlink:href="ad9081_2src_2app__jesd_8c.html" target="_top" xlink:title="Application JESD setup.">
<polygon fill="white" stroke="#666666" points="2384.5,-118 2237.5,-118 2237.5,-77 2384.5,-77 2384.5,-118"/>
<text text-anchor="start" x="2245.5" y="-106" font-family="Helvetica,sans-Serif" font-size="10.00">/home/runner/work/no</text>
<text text-anchor="start" x="2245.5" y="-95" font-family="Helvetica,sans-Serif" font-size="10.00">&#45;OS/no&#45;OS/projects/ad9081</text>
<text text-anchor="middle" x="2311" y="-84" font-family="Helvetica,sans-Serif" font-size="10.00">/src/app_jesd.c</text>
</a>
</g>
</g>
<!-- Node3&#45;&gt;Node6 -->
<g id="edge14_Node000003_Node000006" class="edge">
<title>Node3&#45;&gt;Node6</title>
<g id="a_edge14_Node000003_Node000006"><a xlink:title=" ">
<path fill="none" stroke="#63b8ff" d="M1555.78,-260.1C1712,-256.61 2038.99,-244.76 2145,-206 2182.41,-192.32 2184.65,-175.78 2218,-154 2237.05,-141.56 2258.87,-128.48 2276.58,-118.15"/>
<polygon fill="#63b8ff" stroke="#63b8ff" points="1555.67,-256.6 1545.75,-260.32 1555.82,-263.6 1555.67,-256.6"/>
</a>
</g>
</g>
<!-- Node7 -->
<g id="Node000007" class="node">
<title>Node7</title>
<g id="a_Node000007"><a xlink:href="ad9083_2src_2app__jesd_8c.html" target="_top" xlink:title="Application JESD setup.">
<polygon fill="white" stroke="#666666" points="2486.5,-41 2339.5,-41 2339.5,0 2486.5,0 2486.5,-41"/>
<text text-anchor="start" x="2347.5" y="-29" font-family="Helvetica,sans-Serif" font-size="10.00">/home/runner/work/no</text>
<text text-anchor="start" x="2347.5" y="-18" font-family="Helvetica,sans-Serif" font-size="10.00">&#45;OS/no&#45;OS/projects/ad9083</text>
<text text-anchor="middle" x="2413" y="-7" font-family="Helvetica,sans-Serif" font-size="10.00">/src/app_jesd.c</text>
</a>
</g>
</g>
<!-- Node3&#45;&gt;Node7 -->
<g id="edge15_Node000003_Node000007" class="edge">
<title>Node3&#45;&gt;Node7</title>
<g id="a_edge15_Node000003_Node000007"><a xlink:title=" ">
<path fill="none" stroke="#63b8ff" d="M1556.07,-260.04C1716.31,-256.4 2050.03,-244.27 2085,-206 2100.59,-188.94 2092.69,-175.8 2085,-154 2078.17,-134.62 2062.83,-137.38 2056,-118 2049.94,-100.82 2044.15,-90.84 2056,-77 2091.7,-35.32 2245.42,-24.69 2339.12,-22.13"/>
<polygon fill="#63b8ff" stroke="#63b8ff" points="1555.69,-256.55 1545.77,-260.27 1555.84,-263.55 1555.69,-256.55"/>
</a>
</g>
</g>
<!-- Node10 -->
<g id="Node000010" class="node">
<title>Node10</title>
<g id="a_Node000010"><a xlink:href="fmcdaq2_8c.html" target="_top" xlink:title="Implementation of Main Function.">
<polygon fill="white" stroke="#666666" points="2219,-118 2065,-118 2065,-77 2219,-77 2219,-118"/>
<text text-anchor="start" x="2073" y="-106" font-family="Helvetica,sans-Serif" font-size="10.00">/home/runner/work/no</text>
<text text-anchor="start" x="2073" y="-95" font-family="Helvetica,sans-Serif" font-size="10.00">&#45;OS/no&#45;OS/projects/fmcdaq2</text>
<text text-anchor="middle" x="2142" y="-84" font-family="Helvetica,sans-Serif" font-size="10.00">/src/app/fmcdaq2.c</text>
</a>
</g>
</g>
<!-- Node3&#45;&gt;Node10 -->
<g id="edge26_Node000003_Node000010" class="edge">
<title>Node3&#45;&gt;Node10</title>
<g id="a_edge26_Node000003_Node000010"><a xlink:title=" ">
<path fill="none" stroke="#63b8ff" d="M1555.92,-259.73C1721.84,-255.48 2076.56,-242.23 2118,-206 2142.91,-184.23 2145.11,-142.79 2143.92,-118.21"/>
<polygon fill="#63b8ff" stroke="#63b8ff" points="1555.66,-256.23 1545.75,-259.98 1555.84,-263.23 1555.66,-256.23"/>
</a>
</g>
</g>
<!-- Node3&#45;&gt;Node11 -->
<g id="edge12_Node000003_Node000011" class="edge">
<title>Node3&#45;&gt;Node11</title>
<g id="a_edge12_Node000003_Node000011"><a xlink:title=" ">
<path fill="none" stroke="#63b8ff" d="M1386.19,-259.42C1161.65,-253.57 555.31,-235.44 357,-206 347.53,-204.59 337.65,-202.68 327.95,-200.54"/>
<polygon fill="#63b8ff" stroke="#63b8ff" points="1386.19,-262.92 1396.27,-259.68 1386.37,-255.92 1386.19,-262.92"/>
</a>
</g>
</g>
<!-- Node12 -->
<g id="Node000012" class="node">
<title>Node12</title>
<g id="a_Node000012"><a xlink:href="ad6676__ebz_8c.html" target="_top" xlink:title="Implementation of Main Function.">
<polygon fill="white" stroke="#666666" points="2546.5,-200.5 2399.5,-200.5 2399.5,-159.5 2546.5,-159.5 2546.5,-200.5"/>
<text text-anchor="start" x="2407.5" y="-188.5" font-family="Helvetica,sans-Serif" font-size="10.00">/home/runner/work/no</text>
<text text-anchor="start" x="2407.5" y="-177.5" font-family="Helvetica,sans-Serif" font-size="10.00">&#45;OS/no&#45;OS/projects/ad6676</text>
<text text-anchor="middle" x="2473" y="-166.5" font-family="Helvetica,sans-Serif" font-size="10.00">&#45;ebz/src/ad6676_ebz.c</text>
</a>
</g>
</g>
<!-- Node3&#45;&gt;Node12 -->
<g id="edge13_Node000003_Node000012" class="edge">
<title>Node3&#45;&gt;Node12</title>
<g id="a_edge13_Node000003_Node000012"><a xlink:title=" ">
<path fill="none" stroke="#63b8ff" d="M1555.89,-258.89C1751.88,-252.47 2231.25,-234.3 2390,-206 2397.85,-204.6 2406.01,-202.71 2414.01,-200.59"/>
<polygon fill="#63b8ff" stroke="#63b8ff" points="1555.53,-255.4 1545.65,-259.23 1555.75,-262.4 1555.53,-255.4"/>
</a>
</g>
</g>
<!-- Node13 -->
<g id="Node000013" class="node">
<title>Node13</title>
<g id="a_Node000013"><a xlink:href="ad9172_2src_2main_8c.html" target="_top" xlink:title="Implementation of Main Function.">
<polygon fill="white" stroke="#666666" points="2711.5,-200.5 2564.5,-200.5 2564.5,-159.5 2711.5,-159.5 2711.5,-200.5"/>
<text text-anchor="start" x="2572.5" y="-188.5" font-family="Helvetica,sans-Serif" font-size="10.00">/home/runner/work/no</text>
<text text-anchor="start" x="2572.5" y="-177.5" font-family="Helvetica,sans-Serif" font-size="10.00">&#45;OS/no&#45;OS/projects/ad9172</text>
<text text-anchor="middle" x="2638" y="-166.5" font-family="Helvetica,sans-Serif" font-size="10.00">/src/main.c</text>
</a>
</g>
</g>
<!-- Node3&#45;&gt;Node13 -->
<g id="edge16_Node000003_Node000013" class="edge">
<title>Node3&#45;&gt;Node13</title>
<g id="a_edge16_Node000003_Node000013"><a xlink:title=" ">
<path fill="none" stroke="#63b8ff" d="M1555.98,-259.84C1776.7,-255.09 2364.32,-239.6 2556,-206 2563.92,-204.61 2572.14,-202.7 2580.19,-200.54"/>
<polygon fill="#63b8ff" stroke="#63b8ff" points="1555.67,-256.34 1545.75,-260.06 1555.82,-263.34 1555.67,-256.34"/>
</a>
</g>
</g>
<!-- Node14 -->
<g id="Node000014" class="node">
<title>Node14</title>
<g id="a_Node000014"><a xlink:href="ad9208_2src_2main_8c.html" target="_top" xlink:title="Implementation of Main Function.">
<polygon fill="white" stroke="#666666" points="513.5,-200.5 366.5,-200.5 366.5,-159.5 513.5,-159.5 513.5,-200.5"/>
<text text-anchor="start" x="374.5" y="-188.5" font-family="Helvetica,sans-Serif" font-size="10.00">/home/runner/work/no</text>
<text text-anchor="start" x="374.5" y="-177.5" font-family="Helvetica,sans-Serif" font-size="10.00">&#45;OS/no&#45;OS/projects/ad9208</text>
<text text-anchor="middle" x="440" y="-166.5" font-family="Helvetica,sans-Serif" font-size="10.00">/src/main.c</text>
</a>
</g>
</g>
<!-- Node3&#45;&gt;Node14 -->
<g id="edge17_Node000003_Node000014" class="edge">
<title>Node3&#45;&gt;Node14</title>
<g id="a_edge17_Node000003_Node000014"><a xlink:title=" ">
<path fill="none" stroke="#63b8ff" d="M1386.2,-259.12C1185.65,-253.08 686.67,-235.48 522,-206 514.24,-204.61 506.17,-202.72 498.26,-200.61"/>
<polygon fill="#63b8ff" stroke="#63b8ff" points="1386.29,-262.62 1396.39,-259.43 1386.5,-255.63 1386.29,-262.62"/>
</a>
</g>
</g>
<!-- Node15 -->
<g id="Node000015" class="node">
<title>Node15</title>
<g id="a_Node000015"><a xlink:href="ad9371_2src_2app_2headless_8c.html" target="_top" xlink:title="Implementation of Main Function.">
<polygon fill="white" stroke="#666666" points="678.5,-200.5 531.5,-200.5 531.5,-159.5 678.5,-159.5 678.5,-200.5"/>
<text text-anchor="start" x="539.5" y="-188.5" font-family="Helvetica,sans-Serif" font-size="10.00">/home/runner/work/no</text>
<text text-anchor="start" x="539.5" y="-177.5" font-family="Helvetica,sans-Serif" font-size="10.00">&#45;OS/no&#45;OS/projects/ad9371</text>
<text text-anchor="middle" x="605" y="-166.5" font-family="Helvetica,sans-Serif" font-size="10.00">/src/app/headless.c</text>
</a>
</g>
</g>
<!-- Node3&#45;&gt;Node15 -->
<g id="edge18_Node000003_Node000015" class="edge">
<title>Node3&#45;&gt;Node15</title>
<g id="a_edge18_Node000003_Node000015"><a xlink:title=" ">
<path fill="none" stroke="#63b8ff" d="M1386.23,-261.62C1241.74,-260.46 938.99,-252.1 688,-206 680.16,-204.56 672,-202.64 664,-200.51"/>
<polygon fill="#63b8ff" stroke="#63b8ff" points="1386.34,-265.12 1396.36,-261.69 1386.39,-258.12 1386.34,-265.12"/>
</a>
</g>
</g>
<!-- Node16 -->
<g id="Node000016" class="node">
<title>Node16</title>
<g id="a_Node000016"><a xlink:href="ad9656__fmc_8c.html" target="_top" xlink:title="Implementation of Main Function.">
<polygon fill="white" stroke="#666666" points="847,-200.5 697,-200.5 697,-159.5 847,-159.5 847,-200.5"/>
<text text-anchor="start" x="705" y="-188.5" font-family="Helvetica,sans-Serif" font-size="10.00">/home/runner/work/no</text>
<text text-anchor="start" x="705" y="-177.5" font-family="Helvetica,sans-Serif" font-size="10.00">&#45;OS/no&#45;OS/projects/ad9656</text>
<text text-anchor="middle" x="772" y="-166.5" font-family="Helvetica,sans-Serif" font-size="10.00">_fmc/src/app/ad9656_fmc.c</text>
</a>
</g>
</g>
<!-- Node3&#45;&gt;Node16 -->
<g id="edge19_Node000003_Node000016" class="edge">
<title>Node3&#45;&gt;Node16</title>
<g id="a_edge19_Node000003_Node000016"><a xlink:title=" ">
<path fill="none" stroke="#63b8ff" d="M1386.34,-259.19C1267.07,-254.73 1043.21,-241.93 856,-206 848.38,-204.54 840.46,-202.67 832.67,-200.6"/>
<polygon fill="#63b8ff" stroke="#63b8ff" points="1386.37,-262.69 1396.5,-259.56 1386.63,-255.7 1386.37,-262.69"/>
</a>
</g>
</g>
<!-- Node17 -->
<g id="Node000017" class="node">
<title>Node17</title>
<g id="a_Node000017"><a xlink:href="app__transceiver_8c.html" target="_top" xlink:title="FPGA XCVR setup and initialization routines.">
<polygon fill="white" stroke="#666666" points="1022.5,-200.5 865.5,-200.5 865.5,-159.5 1022.5,-159.5 1022.5,-200.5"/>
<text text-anchor="start" x="873.5" y="-188.5" font-family="Helvetica,sans-Serif" font-size="10.00">/home/runner/work/no</text>
<text text-anchor="start" x="873.5" y="-177.5" font-family="Helvetica,sans-Serif" font-size="10.00">&#45;OS/no&#45;OS/projects/adrv9009</text>
<text text-anchor="middle" x="944" y="-166.5" font-family="Helvetica,sans-Serif" font-size="10.00">/src/app/app_transceiver.c</text>
</a>
</g>
</g>
<!-- Node3&#45;&gt;Node17 -->
<g id="edge20_Node000003_Node000017" class="edge">
<title>Node3&#45;&gt;Node17</title>
<g id="a_edge20_Node000003_Node000017"><a xlink:title=" ">
<path fill="none" stroke="#63b8ff" d="M1386.42,-254.74C1297.36,-246.71 1153.36,-231.14 1031,-206 1023.46,-204.45 1015.61,-202.58 1007.86,-200.56"/>
<polygon fill="#63b8ff" stroke="#63b8ff" points="1386.2,-258.23 1396.47,-255.63 1386.82,-251.26 1386.2,-258.23"/>
</a>
</g>
</g>
<!-- Node18 -->
<g id="Node000018" class="node">
<title>Node18</title>
<g id="a_Node000018"><a xlink:href="headless__mb_8c.html" target="_top" xlink:title="Contains example code for user integration with their application. This file contains code for MicroB...">
<polygon fill="white" stroke="#666666" points="1197.5,-200.5 1040.5,-200.5 1040.5,-159.5 1197.5,-159.5 1197.5,-200.5"/>
<text text-anchor="start" x="1048.5" y="-188.5" font-family="Helvetica,sans-Serif" font-size="10.00">/home/runner/work/no</text>
<text text-anchor="start" x="1048.5" y="-177.5" font-family="Helvetica,sans-Serif" font-size="10.00">&#45;OS/no&#45;OS/projects/adrv9009</text>
<text text-anchor="middle" x="1119" y="-166.5" font-family="Helvetica,sans-Serif" font-size="10.00">/src/app/headless_mb.c</text>
</a>
</g>
</g>
<!-- Node3&#45;&gt;Node18 -->
<g id="edge21_Node000003_Node000018" class="edge">
<title>Node3&#45;&gt;Node18</title>
<g id="a_edge21_Node000003_Node000018"><a xlink:title=" ">
<path fill="none" stroke="#63b8ff" d="M1386.53,-245.45C1334.3,-235.12 1266,-220.88 1206,-206 1199.29,-204.34 1192.31,-202.5 1185.37,-200.61"/>
<polygon fill="#63b8ff" stroke="#63b8ff" points="1385.93,-248.9 1396.42,-247.4 1387.29,-242.03 1385.93,-248.9"/>
</a>
</g>
</g>
<!-- Node19 -->
<g id="Node000019" class="node">
<title>Node19</title>
<g id="a_Node000019"><a xlink:href="headless__zu_8c.html" target="_top" xlink:title="Contains example code for user integration with their application. This file contains code for ZU11EG...">
<polygon fill="white" stroke="#666666" points="1372.5,-200.5 1215.5,-200.5 1215.5,-159.5 1372.5,-159.5 1372.5,-200.5"/>
<text text-anchor="start" x="1223.5" y="-188.5" font-family="Helvetica,sans-Serif" font-size="10.00">/home/runner/work/no</text>
<text text-anchor="start" x="1223.5" y="-177.5" font-family="Helvetica,sans-Serif" font-size="10.00">&#45;OS/no&#45;OS/projects/adrv9009</text>
<text text-anchor="middle" x="1294" y="-166.5" font-family="Helvetica,sans-Serif" font-size="10.00">/src/app/headless_zu.c</text>
</a>
</g>
</g>
<!-- Node3&#45;&gt;Node19 -->
<g id="edge22_Node000003_Node000019" class="edge">
<title>Node3&#45;&gt;Node19</title>
<g id="a_edge22_Node000003_Node000019"><a xlink:title=" ">
<path fill="none" stroke="#63b8ff" d="M1418.4,-237.58C1392.5,-225.8 1361.65,-211.77 1337.16,-200.63"/>
<polygon fill="#63b8ff" stroke="#63b8ff" points="1417.15,-240.85 1427.7,-241.81 1420.05,-234.48 1417.15,-240.85"/>
</a>
</g>
</g>
<!-- Node20 -->
<g id="Node000020" class="node">
<title>Node20</title>
<g id="a_Node000020"><a xlink:href="adrv902x_2src_2examples_2basic__example_2basic__example_8c.html" target="_top" xlink:title="Basic example for the adrv902x project.">
<polygon fill="white" stroke="#666666" points="1551.5,-206 1390.5,-206 1390.5,-154 1551.5,-154 1551.5,-206"/>
<text text-anchor="start" x="1398.5" y="-194" font-family="Helvetica,sans-Serif" font-size="10.00">/home/runner/work/no</text>
<text text-anchor="start" x="1398.5" y="-183" font-family="Helvetica,sans-Serif" font-size="10.00">&#45;OS/no&#45;OS/projects/adrv902x</text>
<text text-anchor="start" x="1398.5" y="-172" font-family="Helvetica,sans-Serif" font-size="10.00">/src/examples/basic_example</text>
<text text-anchor="middle" x="1471" y="-161" font-family="Helvetica,sans-Serif" font-size="10.00">/basic_example.c</text>
</a>
</g>
</g>
<!-- Node3&#45;&gt;Node20 -->
<g id="edge23_Node000003_Node000020" class="edge">
<title>Node3&#45;&gt;Node20</title>
<g id="a_edge23_Node000003_Node000020"><a xlink:title=" ">
<path fill="none" stroke="#63b8ff" d="M1471,-231.49C1471,-223.15 1471,-214.19 1471,-206.16"/>
<polygon fill="#63b8ff" stroke="#63b8ff" points="1467.5,-231.6 1471,-241.6 1474.5,-231.6 1467.5,-231.6"/>
</a>
</g>
</g>
<!-- Node21 -->
<g id="Node000021" class="node">
<title>Node21</title>
<g id="a_Node000021"><a xlink:href="dma__example_8c.html" target="_top" xlink:title="DMA example for the adrv902x project.">
<polygon fill="white" stroke="#666666" points="1728,-206 1570,-206 1570,-154 1728,-154 1728,-206"/>
<text text-anchor="start" x="1578" y="-194" font-family="Helvetica,sans-Serif" font-size="10.00">/home/runner/work/no</text>
<text text-anchor="start" x="1578" y="-183" font-family="Helvetica,sans-Serif" font-size="10.00">&#45;OS/no&#45;OS/projects/adrv902x</text>
<text text-anchor="start" x="1578" y="-172" font-family="Helvetica,sans-Serif" font-size="10.00">/src/examples/dma_example</text>
<text text-anchor="middle" x="1649" y="-161" font-family="Helvetica,sans-Serif" font-size="10.00">/dma_example.c</text>
</a>
</g>
</g>
<!-- Node3&#45;&gt;Node21 -->
<g id="edge24_Node000003_Node000021" class="edge">
<title>Node3&#45;&gt;Node21</title>
<g id="a_edge24_Node000003_Node000021"><a xlink:title=" ">
<path fill="none" stroke="#63b8ff" d="M1523.72,-237.66C1545.68,-227.73 1571.19,-216.19 1593.44,-206.13"/>
<polygon fill="#63b8ff" stroke="#63b8ff" points="1522.21,-234.5 1514.54,-241.81 1525.1,-240.88 1522.21,-234.5"/>
</a>
</g>
</g>
<!-- Node22 -->
<g id="Node000022" class="node">
<title>Node22</title>
<g id="a_Node000022"><a xlink:href="adrv902x_2src_2examples_2iio__example_2iio__example_8c.html" target="_top" xlink:title="IIO example for the adrv902x project.">
<polygon fill="white" stroke="#666666" points="1903.5,-206 1746.5,-206 1746.5,-154 1903.5,-154 1903.5,-206"/>
<text text-anchor="start" x="1754.5" y="-194" font-family="Helvetica,sans-Serif" font-size="10.00">/home/runner/work/no</text>
<text text-anchor="start" x="1754.5" y="-183" font-family="Helvetica,sans-Serif" font-size="10.00">&#45;OS/no&#45;OS/projects/adrv902x</text>
<text text-anchor="start" x="1754.5" y="-172" font-family="Helvetica,sans-Serif" font-size="10.00">/src/examples/iio_example</text>
<text text-anchor="middle" x="1825" y="-161" font-family="Helvetica,sans-Serif" font-size="10.00">/iio_example.c</text>
</a>
</g>
</g>
<!-- Node3&#45;&gt;Node22 -->
<g id="edge25_Node000003_Node000022" class="edge">
<title>Node3&#45;&gt;Node22</title>
<g id="a_edge25_Node000003_Node000022"><a xlink:title=" ">
<path fill="none" stroke="#63b8ff" d="M1555.5,-245.47C1607.95,-235.12 1676.64,-220.85 1737,-206 1740.08,-205.24 1743.22,-204.45 1746.39,-203.63"/>
<polygon fill="#63b8ff" stroke="#63b8ff" points="1554.7,-242.05 1545.56,-247.42 1556.05,-248.92 1554.7,-242.05"/>
</a>
</g>
</g>
<!-- Node23 -->
<g id="Node000023" class="node">
<title>Node23</title>
<g id="a_Node000023"><a xlink:href="fmcdaq3_8c.html" target="_top" xlink:title="Implementation of Main Function.">
<polygon fill="white" stroke="#666666" points="2076,-200.5 1922,-200.5 1922,-159.5 2076,-159.5 2076,-200.5"/>
<text text-anchor="start" x="1930" y="-188.5" font-family="Helvetica,sans-Serif" font-size="10.00">/home/runner/work/no</text>
<text text-anchor="start" x="1930" y="-177.5" font-family="Helvetica,sans-Serif" font-size="10.00">&#45;OS/no&#45;OS/projects/fmcdaq3</text>
<text text-anchor="middle" x="1999" y="-166.5" font-family="Helvetica,sans-Serif" font-size="10.00">/src/app/fmcdaq3.c</text>
</a>
</g>
</g>
<!-- Node3&#45;&gt;Node23 -->
<g id="edge27_Node000003_Node000023" class="edge">
<title>Node3&#45;&gt;Node23</title>
<g id="a_edge27_Node000003_Node000023"><a xlink:title=" ">
<path fill="none" stroke="#63b8ff" d="M1555.77,-254.75C1645.03,-246.74 1789.36,-231.18 1912,-206 1919.54,-204.45 1927.39,-202.58 1935.14,-200.57"/>
<polygon fill="#63b8ff" stroke="#63b8ff" points="1555.35,-251.28 1545.7,-255.65 1555.97,-258.25 1555.35,-251.28"/>
</a>
</g>
</g>
<!-- Node5 -->
<g id="Node000005" class="node">
<title>Node5</title>
<g id="a_Node000005"><a xlink:href="jesd204__clk_8c.html" target="_top" xlink:title="Analog Devices JESD204 clock.">
<polygon fill="white" stroke="#666666" points="2594.5,-118 2441.5,-118 2441.5,-77 2594.5,-77 2594.5,-118"/>
<text text-anchor="start" x="2449.5" y="-106" font-family="Helvetica,sans-Serif" font-size="10.00">/home/runner/work/no</text>
<text text-anchor="start" x="2449.5" y="-95" font-family="Helvetica,sans-Serif" font-size="10.00">&#45;OS/no&#45;OS/drivers/axi</text>
<text text-anchor="middle" x="2518" y="-84" font-family="Helvetica,sans-Serif" font-size="10.00">_core/jesd204/jesd204_clk.c</text>
</a>
</g>
</g>
<!-- Node4&#45;&gt;Node5 -->
<g id="edge5_Node000004_Node000005" class="edge">
<title>Node4&#45;&gt;Node5</title>
<g id="a_edge5_Node000004_Node000005"><a xlink:title=" ">
<path fill="none" stroke="#63b8ff" d="M2365.71,-155.79C2397.5,-143.83 2435.81,-129.42 2466.06,-118.04"/>
<polygon fill="#63b8ff" stroke="#63b8ff" points="2364.2,-152.61 2356.08,-159.41 2366.67,-159.17 2364.2,-152.61"/>
</a>
</g>
</g>
<!-- Node4&#45;&gt;Node6 -->
<g id="edge6_Node000004_Node000006" class="edge">
<title>Node4&#45;&gt;Node6</title>
<g id="a_edge6_Node000004_Node000006"><a xlink:title=" ">
<path fill="none" stroke="#63b8ff" d="M2306.62,-148.87C2307.51,-138.6 2308.49,-127.4 2309.29,-118.17"/>
<polygon fill="#63b8ff" stroke="#63b8ff" points="2303.11,-148.84 2305.73,-159.1 2310.08,-149.44 2303.11,-148.84"/>
</a>
</g>
</g>
<!-- Node4&#45;&gt;Node7 -->
<g id="edge7_Node000004_Node000007" class="edge">
<title>Node4&#45;&gt;Node7</title>
<g id="a_edge7_Node000004_Node000007"><a xlink:title=" ">
<path fill="none" stroke="#63b8ff" d="M2355.31,-154.04C2369.85,-144.64 2384.33,-132.6 2394,-118 2409.36,-94.79 2412.87,-62.02 2413.38,-41.26"/>
<polygon fill="#63b8ff" stroke="#63b8ff" points="2353.47,-151.06 2346.78,-159.27 2357.13,-157.03 2353.47,-151.06"/>
</a>
</g>
</g>
<!-- Node8 -->
<g id="Node000008" class="node">
<title>Node8</title>
<g id="a_Node000008"><a xlink:href="ad9083_2src_2app__jesd_8h.html" target="_top" xlink:title="Application JESD initialization.">
<polygon fill="white" stroke="#666666" points="2759.5,-118 2612.5,-118 2612.5,-77 2759.5,-77 2759.5,-118"/>
<text text-anchor="start" x="2620.5" y="-106" font-family="Helvetica,sans-Serif" font-size="10.00">/home/runner/work/no</text>
<text text-anchor="start" x="2620.5" y="-95" font-family="Helvetica,sans-Serif" font-size="10.00">&#45;OS/no&#45;OS/projects/ad9083</text>
<text text-anchor="middle" x="2686" y="-84" font-family="Helvetica,sans-Serif" font-size="10.00">/src/app_jesd.h</text>
</a>
</g>
</g>
<!-- Node4&#45;&gt;Node8 -->
<g id="edge8_Node000004_Node000008" class="edge">
<title>Node4&#45;&gt;Node8</title>
<g id="a_edge8_Node000004_Node000008"><a xlink:title=" ">
<path fill="none" stroke="#63b8ff" d="M2378.63,-156.97C2382.81,-155.92 2386.95,-154.92 2391,-154 2484.62,-132.71 2509.91,-137.12 2604,-118 2606.72,-117.45 2609.5,-116.87 2612.29,-116.27"/>
<polygon fill="#63b8ff" stroke="#63b8ff" points="2377.68,-153.6 2368.88,-159.49 2379.44,-160.38 2377.68,-153.6"/>
</a>
</g>
</g>
<!-- Node4&#45;&gt;Node10 -->
<g id="edge11_Node000004_Node000010" class="edge">
<title>Node4&#45;&gt;Node10</title>
<g id="a_edge11_Node000004_Node000010"><a xlink:title=" ">
<path fill="none" stroke="#63b8ff" d="M2255.23,-154.77C2231.66,-143.05 2203.72,-129.17 2181.5,-118.13"/>
<polygon fill="#63b8ff" stroke="#63b8ff" points="2253.86,-157.99 2264.37,-159.31 2256.97,-151.72 2253.86,-157.99"/>
</a>
</g>
</g>
<!-- Node8&#45;&gt;Node7 -->
<g id="edge10_Node000008_Node000007" class="edge">
<title>Node8&#45;&gt;Node7</title>
<g id="a_edge10_Node000008_Node000007"><a xlink:title=" ">
<path fill="none" stroke="#63b8ff" d="M2604.88,-74.21C2566.52,-63.68 2521.13,-51.21 2484.13,-41.04"/>
<polygon fill="#63b8ff" stroke="#63b8ff" points="2604.42,-77.72 2614.99,-76.99 2606.27,-70.97 2604.42,-77.72"/>
</a>
</g>
</g>
<!-- Node9 -->
<g id="Node000009" class="node">
<title>Node9</title>
<g id="a_Node000009"><a xlink:href="ad9083_2src_2app_8c.html" target="_top" xlink:title="AD9083 application example.">
<polygon fill="white" stroke="#666666" points="2759.5,-41 2612.5,-41 2612.5,0 2759.5,0 2759.5,-41"/>
<text text-anchor="start" x="2620.5" y="-29" font-family="Helvetica,sans-Serif" font-size="10.00">/home/runner/work/no</text>
<text text-anchor="start" x="2620.5" y="-18" font-family="Helvetica,sans-Serif" font-size="10.00">&#45;OS/no&#45;OS/projects/ad9083</text>
<text text-anchor="middle" x="2686" y="-7" font-family="Helvetica,sans-Serif" font-size="10.00">/src/app.c</text>
</a>
</g>
</g>
<!-- Node8&#45;&gt;Node9 -->
<g id="edge9_Node000008_Node000009" class="edge">
<title>Node8&#45;&gt;Node9</title>
<g id="a_edge9_Node000008_Node000009"><a xlink:title=" ">
<path fill="none" stroke="#63b8ff" d="M2686,-66.69C2686,-58.08 2686,-48.9 2686,-41.07"/>
<polygon fill="#63b8ff" stroke="#63b8ff" points="2682.5,-66.79 2686,-76.79 2689.5,-66.79 2682.5,-66.79"/>
</a>
</g>
</g>
</g>
</svg>

<g id="navigator" transform="translate(0 0)" fill="#404254">
  <rect fill="#f2f5e9" fill-opacity="0.5" stroke="#606060" stroke-width=".5" x="0" y="0" width="60" height="60"/>
  <use id="zoomplus" xlink:href="#zoomPlus" x="17" y="9" onmousedown="handleZoom(evt,'in')"/>
  <use id="zoomminus" xlink:href="#zoomMin" x="42" y="9" onmousedown="handleZoom(evt,'out')"/>
  <use id="reset" xlink:href="#resetDef" x="30" y="36" onmousedown="handleReset()"/>
   <use id="arrowup" xlink:href="#arrowUp" x="0" y="0" onmousedown="handlePan(0,-1)"/>
  <use id="arrowright" xlink:href="#arrowRight" x="0" y="0" onmousedown="handlePan(1,0)"/>
  <use id="arrowdown" xlink:href="#arrowDown" x="0" y="0" onmousedown="handlePan(0,1)"/>
  <use id="arrowleft" xlink:href="#arrowLeft" x="0" y="0" onmousedown="handlePan(-1,0)"/>
</g>
<svg viewBox="0 0 15 15" width="100%" height="30px" preserveAspectRatio="xMaxYMin meet">
 <g id="arrow_out" transform="scale(0.3 0.3)">
  <a xlink:href="xilinx__transceiver_8h__dep__incl_org.svg" target="_base">
   <rect id="button" ry="5" rx="5" y="6" x="6" height="38" width="38"
        fill="#f2f5e9" fill-opacity="0.5" stroke="#606060" stroke-width="1.0"/>
   <path id="arrow"
     d="M 11.500037,31.436501 C 11.940474,20.09759 22.043105,11.32322 32.158766,21.979434 L 37.068811,17.246167 C 37.068811,17.246167 37.088388,32 37.088388,32 L 22.160133,31.978069 C 22.160133,31.978069 26.997745,27.140456 26.997745,27.140456 C 18.528582,18.264221 13.291696,25.230495 11.500037,31.436501 z"
     style="fill:#404040;"/>
  </a>
 </g>
</svg>

<style type='text/css'>
<![CDATA[
[data-mouse-over-selected='false'] { opacity: 0.7; }
[data-mouse-over-selected='true']  { opacity: 1.0; }
]]>
</style>
<script type="application/ecmascript"><![CDATA[
document.addEventListener('DOMContentLoaded', (event) => {
  highlightEdges();
  highlightAdjacentNodes();
});
]]></script>
</svg>
