<?xml version="1.0" encoding="UTF-8" standalone="no"?>
<!DOCTYPE svg PUBLIC "-//W3C//DTD SVG 1.1//EN"
 "http://www.w3.org/Graphics/SVG/1.1/DTD/svg11.dtd">
<!-- Generated by graphviz version 2.43.0 (0)
 -->
<!-- Title: /home/runner/work/no&#45;OS/no&#45;OS/drivers/platform/xilinx/xilinx_uart.h Pages: 1 -->
<svg width="1483pt" height="225pt"
 viewBox="0.00 0.00 1482.50 225.00" xmlns="http://www.w3.org/2000/svg" xmlns:xlink="http://www.w3.org/1999/xlink">
<g id="graph0" class="graph" transform="scale(1 1) rotate(0) translate(4 221)">
<title>/home/runner/work/no&#45;OS/no&#45;OS/drivers/platform/xilinx/xilinx_uart.h</title>
<!-- Node1 -->
<g id="Node000001" class="node">
<title>Node1</title>
<g id="a_Node000001"><a xlink:title=" ">
<polygon fill="#999999" stroke="#666666" points="812,-217 664,-217 664,-176 812,-176 812,-217"/>
<text text-anchor="start" x="672" y="-205" font-family="Helvetica,sans-Serif" font-size="10.00">/home/runner/work/no</text>
<text text-anchor="start" x="672" y="-194" font-family="Helvetica,sans-Serif" font-size="10.00">&#45;OS/no&#45;OS/drivers/platform</text>
<text text-anchor="middle" x="738" y="-183" font-family="Helvetica,sans-Serif" font-size="10.00">/xilinx/xilinx_uart.h</text>
</a>
</g>
</g>
<!-- Node2 -->
<g id="Node000002" class="node">
<title>Node2</title>
<g id="a_Node000002"><a xlink:href="xilinx__uart_8c.html" target="_top" xlink:title=" ">
<polygon fill="white" stroke="#666666" points="148,-134.5 0,-134.5 0,-93.5 148,-93.5 148,-134.5"/>
<text text-anchor="start" x="8" y="-122.5" font-family="Helvetica,sans-Serif" font-size="10.00">/home/runner/work/no</text>
<text text-anchor="start" x="8" y="-111.5" font-family="Helvetica,sans-Serif" font-size="10.00">&#45;OS/no&#45;OS/drivers/platform</text>
<text text-anchor="middle" x="74" y="-100.5" font-family="Helvetica,sans-Serif" font-size="10.00">/xilinx/xilinx_uart.c</text>
</a>
</g>
</g>
<!-- Node1&#45;&gt;Node2 -->
<g id="edge1_Node000001_Node000002" class="edge">
<title>Node1&#45;&gt;Node2</title>
<g id="a_edge1_Node000001_Node000002"><a xlink:title=" ">
<path fill="none" stroke="#63b8ff" d="M653.93,-192.67C540.27,-187.66 331.69,-174.3 157,-140 149.47,-138.52 141.64,-136.64 133.94,-134.57"/>
<polygon fill="#63b8ff" stroke="#63b8ff" points="653.82,-196.17 663.96,-193.1 654.12,-189.17 653.82,-196.17"/>
</a>
</g>
</g>
<!-- Node3 -->
<g id="Node000003" class="node">
<title>Node3</title>
<g id="a_Node000003"><a xlink:href="ad463x__fmcz_2src_2platform_2xilinx_2parameters_8h.html" target="_top" xlink:title="Definitions specific to xilinx platform used by ad463x_fmcz project.">
<polygon fill="white" stroke="#666666" points="313.5,-140 166.5,-140 166.5,-88 313.5,-88 313.5,-140"/>
<text text-anchor="start" x="174.5" y="-128" font-family="Helvetica,sans-Serif" font-size="10.00">/home/runner/work/no</text>
<text text-anchor="start" x="174.5" y="-117" font-family="Helvetica,sans-Serif" font-size="10.00">&#45;OS/no&#45;OS/projects/ad463x</text>
<text text-anchor="start" x="174.5" y="-106" font-family="Helvetica,sans-Serif" font-size="10.00">_fmcz/src/platform/xilinx</text>
<text text-anchor="middle" x="240" y="-95" font-family="Helvetica,sans-Serif" font-size="10.00">/parameters.h</text>
</a>
</g>
</g>
<!-- Node1&#45;&gt;Node3 -->
<g id="edge2_Node000001_Node000003" class="edge">
<title>Node1&#45;&gt;Node3</title>
<g id="a_edge2_Node000001_Node000003"><a xlink:title=" ">
<path fill="none" stroke="#63b8ff" d="M653.66,-188.32C569.12,-180.18 435.57,-164.71 322,-140 319.24,-139.4 316.43,-138.75 313.61,-138.06"/>
<polygon fill="#63b8ff" stroke="#63b8ff" points="653.44,-191.82 663.73,-189.28 654.1,-184.85 653.44,-191.82"/>
</a>
</g>
</g>
<!-- Node5 -->
<g id="Node000005" class="node">
<title>Node5</title>
<g id="a_Node000005"><a xlink:href="ad469x__evb_2src_2platform_2xilinx_2parameters_8h.html" target="_top" xlink:title="Definitions specific to xilinx platform used by ad469x_evb project.">
<polygon fill="white" stroke="#666666" points="478.5,-140 331.5,-140 331.5,-88 478.5,-88 478.5,-140"/>
<text text-anchor="start" x="339.5" y="-128" font-family="Helvetica,sans-Serif" font-size="10.00">/home/runner/work/no</text>
<text text-anchor="start" x="339.5" y="-117" font-family="Helvetica,sans-Serif" font-size="10.00">&#45;OS/no&#45;OS/projects/ad469x</text>
<text text-anchor="start" x="339.5" y="-106" font-family="Helvetica,sans-Serif" font-size="10.00">_evb/src/platform/xilinx</text>
<text text-anchor="middle" x="405" y="-95" font-family="Helvetica,sans-Serif" font-size="10.00">/parameters.h</text>
</a>
</g>
</g>
<!-- Node1&#45;&gt;Node5 -->
<g id="edge4_Node000001_Node000005" class="edge">
<title>Node1&#45;&gt;Node5</title>
<g id="a_edge4_Node000001_Node000005"><a xlink:title=" ">
<path fill="none" stroke="#63b8ff" d="M653.87,-178.62C604.94,-168.37 542.22,-154.5 487,-140 484.26,-139.28 481.48,-138.53 478.68,-137.76"/>
<polygon fill="#63b8ff" stroke="#63b8ff" points="653.27,-182.07 663.77,-180.68 654.7,-175.21 653.27,-182.07"/>
</a>
</g>
</g>
<!-- Node7 -->
<g id="Node000007" class="node">
<title>Node7</title>
<g id="a_Node000007"><a xlink:href="ad738x__fmcz_2src_2platform_2xilinx_2parameters_8h.html" target="_top" xlink:title="Definitions specific to xilinx platform used by ad463x_fmcz project.">
<polygon fill="white" stroke="#666666" points="643.5,-140 496.5,-140 496.5,-88 643.5,-88 643.5,-140"/>
<text text-anchor="start" x="504.5" y="-128" font-family="Helvetica,sans-Serif" font-size="10.00">/home/runner/work/no</text>
<text text-anchor="start" x="504.5" y="-117" font-family="Helvetica,sans-Serif" font-size="10.00">&#45;OS/no&#45;OS/projects/ad738x</text>
<text text-anchor="start" x="504.5" y="-106" font-family="Helvetica,sans-Serif" font-size="10.00">_fmcz/src/platform/xilinx</text>
<text text-anchor="middle" x="570" y="-95" font-family="Helvetica,sans-Serif" font-size="10.00">/parameters.h</text>
</a>
</g>
</g>
<!-- Node1&#45;&gt;Node7 -->
<g id="edge6_Node000001_Node000007" class="edge">
<title>Node1&#45;&gt;Node7</title>
<g id="a_edge6_Node000001_Node000007"><a xlink:title=" ">
<path fill="none" stroke="#63b8ff" d="M687.69,-171.39C667.09,-161.52 643.25,-150.1 622.44,-140.13"/>
<polygon fill="#63b8ff" stroke="#63b8ff" points="686.37,-174.64 696.9,-175.81 689.4,-168.33 686.37,-174.64"/>
</a>
</g>
</g>
<!-- Node9 -->
<g id="Node000009" class="node">
<title>Node9</title>
<g id="a_Node000009"><a xlink:href="ad7606x-fmc_2src_2iio__example_8c.html" target="_top" xlink:title="Implementation of an example with the IIO interface.">
<polygon fill="white" stroke="#666666" points="814.5,-134.5 661.5,-134.5 661.5,-93.5 814.5,-93.5 814.5,-134.5"/>
<text text-anchor="start" x="669.5" y="-122.5" font-family="Helvetica,sans-Serif" font-size="10.00">/home/runner/work/no</text>
<text text-anchor="start" x="669.5" y="-111.5" font-family="Helvetica,sans-Serif" font-size="10.00">&#45;OS/no&#45;OS/projects/ad7606x</text>
<text text-anchor="middle" x="738" y="-100.5" font-family="Helvetica,sans-Serif" font-size="10.00">&#45;fmc/src/iio_example.c</text>
</a>
</g>
</g>
<!-- Node1&#45;&gt;Node9 -->
<g id="edge8_Node000001_Node000009" class="edge">
<title>Node1&#45;&gt;Node9</title>
<g id="a_edge8_Node000001_Node000009"><a xlink:title=" ">
<path fill="none" stroke="#63b8ff" d="M738,-165.37C738,-155.1 738,-143.9 738,-134.67"/>
<polygon fill="#63b8ff" stroke="#63b8ff" points="734.5,-165.6 738,-175.6 741.5,-165.6 734.5,-165.6"/>
</a>
</g>
</g>
<!-- Node10 -->
<g id="Node000010" class="node">
<title>Node10</title>
<g id="a_Node000010"><a xlink:href="ad796x__fmcz_2src_2platform_2xilinx_2parameters_8h.html" target="_top" xlink:title="Definitions specific to xilinx platform used by iio project.">
<polygon fill="white" stroke="#666666" points="979.5,-140 832.5,-140 832.5,-88 979.5,-88 979.5,-140"/>
<text text-anchor="start" x="840.5" y="-128" font-family="Helvetica,sans-Serif" font-size="10.00">/home/runner/work/no</text>
<text text-anchor="start" x="840.5" y="-117" font-family="Helvetica,sans-Serif" font-size="10.00">&#45;OS/no&#45;OS/projects/ad796x</text>
<text text-anchor="start" x="840.5" y="-106" font-family="Helvetica,sans-Serif" font-size="10.00">_fmcz/src/platform/xilinx</text>
<text text-anchor="middle" x="906" y="-95" font-family="Helvetica,sans-Serif" font-size="10.00">/parameters.h</text>
</a>
</g>
</g>
<!-- Node1&#45;&gt;Node10 -->
<g id="edge9_Node000001_Node000010" class="edge">
<title>Node1&#45;&gt;Node10</title>
<g id="a_edge9_Node000001_Node000010"><a xlink:title=" ">
<path fill="none" stroke="#63b8ff" d="M788.31,-171.39C808.91,-161.52 832.75,-150.1 853.56,-140.13"/>
<polygon fill="#63b8ff" stroke="#63b8ff" points="786.6,-168.33 779.1,-175.81 789.63,-174.64 786.6,-168.33"/>
</a>
</g>
</g>
<!-- Node12 -->
<g id="Node000012" class="node">
<title>Node12</title>
<g id="a_Node000012"><a xlink:href="adrv902x_2src_2examples_2iio__example_2iio__example_8c.html" target="_top" xlink:title="IIO example for the adrv902x project.">
<polygon fill="white" stroke="#666666" points="1154.5,-140 997.5,-140 997.5,-88 1154.5,-88 1154.5,-140"/>
<text text-anchor="start" x="1005.5" y="-128" font-family="Helvetica,sans-Serif" font-size="10.00">/home/runner/work/no</text>
<text text-anchor="start" x="1005.5" y="-117" font-family="Helvetica,sans-Serif" font-size="10.00">&#45;OS/no&#45;OS/projects/adrv902x</text>
<text text-anchor="start" x="1005.5" y="-106" font-family="Helvetica,sans-Serif" font-size="10.00">/src/examples/iio_example</text>
<text text-anchor="middle" x="1076" y="-95" font-family="Helvetica,sans-Serif" font-size="10.00">/iio_example.c</text>
</a>
</g>
</g>
<!-- Node1&#45;&gt;Node12 -->
<g id="edge11_Node000001_Node000012" class="edge">
<title>Node1&#45;&gt;Node12</title>
<g id="a_edge11_Node000001_Node000012"><a xlink:title=" ">
<path fill="none" stroke="#63b8ff" d="M821.96,-178.14C870.62,-167.76 932.96,-153.92 988,-140 991.08,-139.22 994.22,-138.41 997.38,-137.58"/>
<polygon fill="#63b8ff" stroke="#63b8ff" points="821.16,-174.73 812.11,-180.23 822.62,-181.58 821.16,-174.73"/>
</a>
</g>
</g>
<!-- Node13 -->
<g id="Node000013" class="node">
<title>Node13</title>
<g id="a_Node000013"><a xlink:href="iio__demo_2src_2platform_2xilinx_2parameters_8h.html" target="_top" xlink:title="Definitions specific to xilinx platform used by iio_demo project.">
<polygon fill="white" stroke="#666666" points="1315,-140 1173,-140 1173,-88 1315,-88 1315,-140"/>
<text text-anchor="start" x="1181" y="-128" font-family="Helvetica,sans-Serif" font-size="10.00">/home/runner/work/no</text>
<text text-anchor="start" x="1181" y="-117" font-family="Helvetica,sans-Serif" font-size="10.00">&#45;OS/no&#45;OS/projects/iio</text>
<text text-anchor="start" x="1181" y="-106" font-family="Helvetica,sans-Serif" font-size="10.00">_demo/src/platform/xilinx</text>
<text text-anchor="middle" x="1244" y="-95" font-family="Helvetica,sans-Serif" font-size="10.00">/parameters.h</text>
</a>
</g>
</g>
<!-- Node1&#45;&gt;Node13 -->
<g id="edge12_Node000001_Node000013" class="edge">
<title>Node1&#45;&gt;Node13</title>
<g id="a_edge12_Node000001_Node000013"><a xlink:title=" ">
<path fill="none" stroke="#63b8ff" d="M822.36,-188.73C908.64,-180.82 1046.21,-165.46 1163,-140 1166.16,-139.31 1169.38,-138.55 1172.62,-137.75"/>
<polygon fill="#63b8ff" stroke="#63b8ff" points="822.01,-185.25 812.36,-189.64 822.64,-192.22 822.01,-185.25"/>
</a>
</g>
</g>
<!-- Node15 -->
<g id="Node000015" class="node">
<title>Node15</title>
<g id="a_Node000015"><a xlink:href="pulsar-adc_2src_2platform_2xilinx_2parameters_8h.html" target="_top" xlink:title="Definitions specific to xilinx platform used by pulsar&#45;adc project.">
<polygon fill="white" stroke="#666666" points="1474.5,-140 1333.5,-140 1333.5,-88 1474.5,-88 1474.5,-140"/>
<text text-anchor="start" x="1341.5" y="-128" font-family="Helvetica,sans-Serif" font-size="10.00">/home/runner/work/no</text>
<text text-anchor="start" x="1341.5" y="-117" font-family="Helvetica,sans-Serif" font-size="10.00">&#45;OS/no&#45;OS/projects/pulsar</text>
<text text-anchor="start" x="1341.5" y="-106" font-family="Helvetica,sans-Serif" font-size="10.00">&#45;adc/src/platform/xilinx</text>
<text text-anchor="middle" x="1404" y="-95" font-family="Helvetica,sans-Serif" font-size="10.00">/parameters.h</text>
</a>
</g>
</g>
<!-- Node1&#45;&gt;Node15 -->
<g id="edge14_Node000001_Node000015" class="edge">
<title>Node1&#45;&gt;Node15</title>
<g id="a_edge14_Node000001_Node000015"><a xlink:title=" ">
<path fill="none" stroke="#63b8ff" d="M822.37,-193.02C936.97,-188.41 1147.74,-175.48 1324,-140 1327,-139.4 1330.04,-138.72 1333.1,-138"/>
<polygon fill="#63b8ff" stroke="#63b8ff" points="822.12,-189.53 812.27,-193.42 822.39,-196.52 822.12,-189.53"/>
</a>
</g>
</g>
<!-- Node4 -->
<g id="Node000004" class="node">
<title>Node4</title>
<g id="a_Node000004"><a xlink:href="ad463x__fmcz_2src_2platform_2xilinx_2parameters_8c.html" target="_top" xlink:title="Definition of xilinx platform data used by ad463x_fmcz project.">
<polygon fill="white" stroke="#666666" points="313.5,-52 166.5,-52 166.5,0 313.5,0 313.5,-52"/>
<text text-anchor="start" x="174.5" y="-40" font-family="Helvetica,sans-Serif" font-size="10.00">/home/runner/work/no</text>
<text text-anchor="start" x="174.5" y="-29" font-family="Helvetica,sans-Serif" font-size="10.00">&#45;OS/no&#45;OS/projects/ad463x</text>
<text text-anchor="start" x="174.5" y="-18" font-family="Helvetica,sans-Serif" font-size="10.00">_fmcz/src/platform/xilinx</text>
<text text-anchor="middle" x="240" y="-7" font-family="Helvetica,sans-Serif" font-size="10.00">/parameters.c</text>
</a>
</g>
</g>
<!-- Node3&#45;&gt;Node4 -->
<g id="edge3_Node000003_Node000004" class="edge">
<title>Node3&#45;&gt;Node4</title>
<g id="a_edge3_Node000003_Node000004"><a xlink:title=" ">
<path fill="none" stroke="#63b8ff" d="M240,-77.56C240,-69.04 240,-60.1 240,-52.16"/>
<polygon fill="#63b8ff" stroke="#63b8ff" points="236.5,-77.66 240,-87.66 243.5,-77.66 236.5,-77.66"/>
</a>
</g>
</g>
<!-- Node6 -->
<g id="Node000006" class="node">
<title>Node6</title>
<g id="a_Node000006"><a xlink:href="ad469x__evb_2src_2platform_2xilinx_2parameters_8c.html" target="_top" xlink:title="Definition of xilinx platform data used by ad469x_evb project.">
<polygon fill="white" stroke="#666666" points="478.5,-52 331.5,-52 331.5,0 478.5,0 478.5,-52"/>
<text text-anchor="start" x="339.5" y="-40" font-family="Helvetica,sans-Serif" font-size="10.00">/home/runner/work/no</text>
<text text-anchor="start" x="339.5" y="-29" font-family="Helvetica,sans-Serif" font-size="10.00">&#45;OS/no&#45;OS/projects/ad469x</text>
<text text-anchor="start" x="339.5" y="-18" font-family="Helvetica,sans-Serif" font-size="10.00">_evb/src/platform/xilinx</text>
<text text-anchor="middle" x="405" y="-7" font-family="Helvetica,sans-Serif" font-size="10.00">/parameters.c</text>
</a>
</g>
</g>
<!-- Node5&#45;&gt;Node6 -->
<g id="edge5_Node000005_Node000006" class="edge">
<title>Node5&#45;&gt;Node6</title>
<g id="a_edge5_Node000005_Node000006"><a xlink:title=" ">
<path fill="none" stroke="#63b8ff" d="M405,-77.56C405,-69.04 405,-60.1 405,-52.16"/>
<polygon fill="#63b8ff" stroke="#63b8ff" points="401.5,-77.66 405,-87.66 408.5,-77.66 401.5,-77.66"/>
</a>
</g>
</g>
<!-- Node8 -->
<g id="Node000008" class="node">
<title>Node8</title>
<g id="a_Node000008"><a xlink:href="ad738x__fmcz_2src_2platform_2xilinx_2parameters_8c.html" target="_top" xlink:title="Definition of xilinx platform data used by ad463x_fmcz project.">
<polygon fill="white" stroke="#666666" points="643.5,-52 496.5,-52 496.5,0 643.5,0 643.5,-52"/>
<text text-anchor="start" x="504.5" y="-40" font-family="Helvetica,sans-Serif" font-size="10.00">/home/runner/work/no</text>
<text text-anchor="start" x="504.5" y="-29" font-family="Helvetica,sans-Serif" font-size="10.00">&#45;OS/no&#45;OS/projects/ad738x</text>
<text text-anchor="start" x="504.5" y="-18" font-family="Helvetica,sans-Serif" font-size="10.00">_fmcz/src/platform/xilinx</text>
<text text-anchor="middle" x="570" y="-7" font-family="Helvetica,sans-Serif" font-size="10.00">/parameters.c</text>
</a>
</g>
</g>
<!-- Node7&#45;&gt;Node8 -->
<g id="edge7_Node000007_Node000008" class="edge">
<title>Node7&#45;&gt;Node8</title>
<g id="a_edge7_Node000007_Node000008"><a xlink:title=" ">
<path fill="none" stroke="#63b8ff" d="M570,-77.56C570,-69.04 570,-60.1 570,-52.16"/>
<polygon fill="#63b8ff" stroke="#63b8ff" points="566.5,-77.66 570,-87.66 573.5,-77.66 566.5,-77.66"/>
</a>
</g>
</g>
<!-- Node11 -->
<g id="Node000011" class="node">
<title>Node11</title>
<g id="a_Node000011"><a xlink:href="ad796x__fmcz_2src_2platform_2xilinx_2parameters_8c.html" target="_top" xlink:title="Definition of xilinx platform data used by iio project.">
<polygon fill="white" stroke="#666666" points="979.5,-52 832.5,-52 832.5,0 979.5,0 979.5,-52"/>
<text text-anchor="start" x="840.5" y="-40" font-family="Helvetica,sans-Serif" font-size="10.00">/home/runner/work/no</text>
<text text-anchor="start" x="840.5" y="-29" font-family="Helvetica,sans-Serif" font-size="10.00">&#45;OS/no&#45;OS/projects/ad796x</text>
<text text-anchor="start" x="840.5" y="-18" font-family="Helvetica,sans-Serif" font-size="10.00">_fmcz/src/platform/xilinx</text>
<text text-anchor="middle" x="906" y="-7" font-family="Helvetica,sans-Serif" font-size="10.00">/parameters.c</text>
</a>
</g>
</g>
<!-- Node10&#45;&gt;Node11 -->
<g id="edge10_Node000010_Node000011" class="edge">
<title>Node10&#45;&gt;Node11</title>
<g id="a_edge10_Node000010_Node000011"><a xlink:title=" ">
<path fill="none" stroke="#63b8ff" d="M906,-77.56C906,-69.04 906,-60.1 906,-52.16"/>
<polygon fill="#63b8ff" stroke="#63b8ff" points="902.5,-77.66 906,-87.66 909.5,-77.66 902.5,-77.66"/>
</a>
</g>
</g>
<!-- Node14 -->
<g id="Node000014" class="node">
<title>Node14</title>
<g id="a_Node000014"><a xlink:href="iio__demo_2src_2platform_2xilinx_2parameters_8c.html" target="_top" xlink:title="Definition of xilinx platform data used by iio_demo project.">
<polygon fill="white" stroke="#666666" points="1315,-52 1173,-52 1173,0 1315,0 1315,-52"/>
<text text-anchor="start" x="1181" y="-40" font-family="Helvetica,sans-Serif" font-size="10.00">/home/runner/work/no</text>
<text text-anchor="start" x="1181" y="-29" font-family="Helvetica,sans-Serif" font-size="10.00">&#45;OS/no&#45;OS/projects/iio</text>
<text text-anchor="start" x="1181" y="-18" font-family="Helvetica,sans-Serif" font-size="10.00">_demo/src/platform/xilinx</text>
<text text-anchor="middle" x="1244" y="-7" font-family="Helvetica,sans-Serif" font-size="10.00">/parameters.c</text>
</a>
</g>
</g>
<!-- Node13&#45;&gt;Node14 -->
<g id="edge13_Node000013_Node000014" class="edge">
<title>Node13&#45;&gt;Node14</title>
<g id="a_edge13_Node000013_Node000014"><a xlink:title=" ">
<path fill="none" stroke="#63b8ff" d="M1244,-77.56C1244,-69.04 1244,-60.1 1244,-52.16"/>
<polygon fill="#63b8ff" stroke="#63b8ff" points="1240.5,-77.66 1244,-87.66 1247.5,-77.66 1240.5,-77.66"/>
</a>
</g>
</g>
<!-- Node16 -->
<g id="Node000016" class="node">
<title>Node16</title>
<g id="a_Node000016"><a xlink:href="pulsar-adc_2src_2platform_2xilinx_2parameters_8c.html" target="_top" xlink:title="Definition of xilinx platform data used by pulsar&#45;adc project.">
<polygon fill="white" stroke="#666666" points="1474.5,-52 1333.5,-52 1333.5,0 1474.5,0 1474.5,-52"/>
<text text-anchor="start" x="1341.5" y="-40" font-family="Helvetica,sans-Serif" font-size="10.00">/home/runner/work/no</text>
<text text-anchor="start" x="1341.5" y="-29" font-family="Helvetica,sans-Serif" font-size="10.00">&#45;OS/no&#45;OS/projects/pulsar</text>
<text text-anchor="start" x="1341.5" y="-18" font-family="Helvetica,sans-Serif" font-size="10.00">&#45;adc/src/platform/xilinx</text>
<text text-anchor="middle" x="1404" y="-7" font-family="Helvetica,sans-Serif" font-size="10.00">/parameters.c</text>
</a>
</g>
</g>
<!-- Node15&#45;&gt;Node16 -->
<g id="edge15_Node000015_Node000016" class="edge">
<title>Node15&#45;&gt;Node16</title>
<g id="a_edge15_Node000015_Node000016"><a xlink:title=" ">
<path fill="none" stroke="#63b8ff" d="M1404,-77.56C1404,-69.04 1404,-60.1 1404,-52.16"/>
<polygon fill="#63b8ff" stroke="#63b8ff" points="1400.5,-77.66 1404,-87.66 1407.5,-77.66 1400.5,-77.66"/>
</a>
</g>
</g>
</g>
</svg>
